<svg xmlns="http://www.w3.org/2000/svg" id="Layer_1" x="0" y="0" version="1.1" viewBox="0 0 50 50" xml:space="preserve"><style>.st1,.st4{fill:none;stroke:#444;stroke-width:2.5;stroke-linecap:round;stroke-linejoin:round;stroke-miterlimit:10}.st4{stroke-width:2}</style><path fill="#fcc34f" d="M48 19.8c-.2-.8-2.7-7.5-3.2-8.1l-3-3.5-.2.1L34 2.5l-7.8-.7C23 1.8 11.7 2.1 4.8 12l-4 10.6-.2.1 4 13.4c.1.4 4.5 5.7 4.9 5.9l5.6 3 32.2-11.7c.6-.5 1.7-8.8.7-13.5z"/><path d="M32.3 47.1c-7 2.3-15 1.2-21.3-3.6C.6 35.7-1.5 21 6.3 10.7" class="st1"/><path d="M6.2 10.8c2-3 4.7-4.7 4.7-4.7l.7-.5C19.7-.1 30.8-.2 39.2 6c10.4 7.8 12.4 22.5 4.7 32.8" class="st1"/><path fill="#444" stroke="#444" stroke-miterlimit="10" stroke-width=".5" d="M25.3 42.1c-9.6 0-17.4-7.8-17.4-17.4S15.7 7.4 25.3 7.4c9.6 0 17.4 7.8 17.4 17.4s-7.8 17.3-17.4 17.3zm0-34.5c-9.4 0-17.1 7.7-17.1 17.1s7.7 17.1 17.1 17.1 17.1-7.7 17.1-17.1S34.7 7.6 25.3 7.6z"/><circle cx="25.3" cy="16.6" r="2.4" fill="#444"/><path d="M17.6 20.4l3.3.7 4.5.9v5.6h-1.7l-2.4 7.6" class="st4"/><path d="M33.2 20.4L25.4 22v5.6h1.7l2.4 7.6" class="st4"/><path fill="#444" stroke="#444" stroke-miterlimit="10" d="M23.2 21.8h4.2v5.4h-4.2z"/><path d="M29.8 21.1s-4.1 1.2-8.9 0" class="st4"/><path fill="none" stroke="#444" stroke-linecap="round" stroke-linejoin="round" stroke-miterlimit="10" d="M23 30.8s.3-2.6 2.4-2.6 2.5 2.6 2.5 2.6"/><path d="M14.6 22.6l-3.2 3.3 3.2 3.2M36 22.6l3.3 3.3-3.2 3.2" class="st4"/></svg>