<svg xmlns="http://www.w3.org/2000/svg" id="Layer_1" x="0" y="0" version="1.1" viewBox="0 0 50 50" xml:space="preserve"><style>.st2{fill:#031326}</style><path fill="#e56060" d="M46.8 16.2c-2.6-5.3-7.5-8.8-13.1-8.8H16.2C7.9 7.3 1.1 15.2 1.1 25c0 2.6.5 5.1 1.4 7.3l44.3-16.1z"/><path fill="#ff6b6b" d="M35.4 7.6c-.7-.1-1.5-.2-2.3-.2H15.6C8.8 7.3 3 12.7 1.1 20L35.4 7.6z"/><path d="M30.1 33.6H19.9c-4.4 0-8.1-3.6-8.1-8.1v-1.2c0-4.4 3.6-8.1 8.1-8.1h10.2c4.4 0 8.1 3.6 8.1 8.1v1.2c0 4.5-3.6 8.1-8.1 8.1zM19.9 18.2c-3.4 0-6.2 2.8-6.2 6.2v1.2c0 3.4 2.8 6.2 6.2 6.2h10.2c3.4 0 6.2-2.8 6.2-6.2v-1.2c0-3.4-2.8-6.2-6.2-6.2H19.9z" class="st2"/><path d="M33.8 43.8H16.3C7.3 43.8 0 35.4 0 25S7.3 6.2 16.2 6.2h17.5c9 0 16.2 8.4 16.2 18.8 0 .6-.5 1.1-1.1 1.1s-1.1-.5-1.1-1.1c0-9.1-6.3-16.5-13.9-16.5H16.2C8.5 8.5 2.3 15.9 2.3 25s6.3 16.5 13.9 16.5h17.5c.6 0 1.1.5 1.1 1.1s-.4 1.2-1 1.2z" class="st2"/></svg>