<svg xmlns="http://www.w3.org/2000/svg" version="1.0" viewBox="0 0 50 50"><path fill="#E56060" d="M46.25 34.252V7.233a3.483 3.483 0 00-3.483-3.483H7.233A3.483 3.483 0 003.75 7.233v35.534a3.482 3.482 0 003.483 3.483h6.052L46.25 34.252"/><path fill="#FF6B6B" d="M39.269 3.75H7.233A3.482 3.482 0 003.75 7.233v9.445L39.269 3.75z"/><g fill="#031326"><path d="M42.768 2.5H7.233A4.738 4.738 0 002.5 7.233v35.535A4.738 4.738 0 007.233 47.5h30.326a1.25 1.25 0 000-2.5H7.233A2.234 2.234 0 015 42.768V7.233A2.235 2.235 0 017.233 5h35.535A2.234 2.234 0 0145 7.233v27.019a1.25 1.25 0 002.5 0V7.233A4.738 4.738 0 0042.768 2.5z"/><path d="M40.441 7.337H9.559a2.225 2.225 0 00-2.222 2.222v30.883c0 1.225.997 2.222 2.222 2.222h30.883a2.225 2.225 0 002.222-2.222V9.559a2.226 2.226 0 00-2.223-2.222zm1.722 33.104c0 .949-.772 1.722-1.722 1.722H9.559a1.724 1.724 0 01-1.722-1.722V9.559c0-.949.772-1.722 1.722-1.722h30.883c.949 0 1.722.772 1.722 1.722v30.882z"/><path d="M34.517 20.553c-2.624 0-4.94.713-5.929 1.118-.113.049-.13.081-.13.211.081.907.081 1.377.081 1.571v10.302c0 .146.065.194.194.194h2.543c.146 0 .194-.065.194-.194V23.55c.567-.243 2.041-.372 3.062-.324.129 0 .178-.032.178-.162v-2.349c.002-.129-.063-.162-.193-.162zm-14.886-4.502c-1.603 0-3.126.032-4.163.08-.129 0-.162.081-.162.194h-.016v17.413c0 .145.064.194.194.194h2.495c.146 0 .194-.065.194-.194v-6.22c.438 0 .648.032 1.263.032 3.661 0 6.642-1.766 6.642-5.88.001-3.157-1.96-5.619-6.447-5.619zm-.145 8.908c-.648 0-.94 0-1.312-.032v-6.252c.292-.017.907-.049 1.555-.049 2.17 0 3.434 1.037 3.434 3.094 0 2.576-1.782 3.239-3.677 3.239z"/></g></svg>