<svg xmlns="http://www.w3.org/2000/svg" id="Camada_3" x="0" y="0" version="1.1" viewBox="0 0 50 50" xml:space="preserve"><style>.st2{stroke-width:.5}.st2,.st3{fill:none;stroke:#444;stroke-linecap:round;stroke-linejoin:round;stroke-miterlimit:10}</style><path fill="#46b8b0" d="M47.74 20.1c-.16-.79-2.69-7.49-3.21-8.1l-3-3.51-.2.07-7.63-5.74-7.78-.67c-3.2 0-12.8-.71-21.26 11.53L1.78 21.6l.54 1.98 1.8 11.52c.11.36 4.74 6.98 5.05 7.18l5.62 2.97L47 33.51c.65-.37 1.7-8.64.74-13.41z"/><path fill="none" stroke="#444" stroke-linecap="round" stroke-linejoin="round" stroke-miterlimit="10" stroke-width="2.5" d="M28 47.71C15.37 49.26 3.87 40.28 2.32 27.66S9.74 3.53 22.37 1.97 46.5 9.4 48.05 22.02c.63 5.08-.46 9.99-2.79 14.13"/><path d="M22.43 13.87l6.45-3.05m-16.86 7.97l6.43-3.04" class="st2"/><path d="M7.58 19.47l1.21 2.57c.17.36.6.52.96.35l2.57-1.21c.36-.17.52-.6.35-.96l-1.21-2.57a.724.724 0 00-.96-.35l-2.57 1.21c-.36.17-.52.6-.35.96zm10.37-4.89l1.21 2.57c.17.36.6.52.96.35l2.57-1.21c.36-.17.52-.6.35-.96l-1.21-2.57a.724.724 0 00-.96-.35l-2.57 1.21c-.37.16-.52.6-.35.96z" class="st3"/><path fill="none" stroke="#444" stroke-miterlimit="10" d="M28.31 9.68l1.21 2.57c.17.36.6.52.96.35l2.57-1.21c.36-.17.52-.6.35-.96l-1.21-2.57a.724.724 0 00-.96-.35l-2.57 1.21c-.36.17-.52.6-.35.96z"/><path d="M29.2 32.36c.19.05.36.18.45.36l3.99 7.11c.06.1.14.14.19.15.05.01.14.03.24-.03l1.86-1.04c.1-.06.14-.14.15-.19.01-.05.03-.14-.03-.24l-3.99-7.11a.745.745 0 01-.01-.71c.11-.22.33-.38.58-.41l2.42-.3c.41-.05.55-.57.22-.82l-9.73-7.42a.456.456 0 00-.73.41l1.25 12.17c.04.41.56.56.81.24l1.52-1.91c.16-.2.4-.3.65-.28.06 0 .11 0 .16.02z" class="st3"/><path d="M22.52 14.1c.85-.23 1.74-.37 2.66-.4 6.46-.22 11.89 4.84 12.11 11.31m-17.1 10.81a11.705 11.705 0 01-6.32-10c-.14-3.98 1.73-7.56 4.69-9.78" class="st2"/></svg>