<svg xmlns="http://www.w3.org/2000/svg" id="Layer_1" x="0" y="0" version="1.1" viewBox="0 0 50 50" xml:space="preserve"><style>.st2{fill:#031326}</style><path fill="#e589ef" d="M48.3 13L1.7 29.9V38c0 4.4 2.8 8.1 6.7 9.5L48.2 33V13z"/><path fill="#f799ff" d="M48.1 11.9c0-5.6-4.5-10.1-10.1-10.1H12C6.4 1.8 1.9 6.3 1.9 11.9v18l46.2-16.8v-1.2z"/><path d="M14.4 35.1c0 .2-.1.2-.2.2h-2.9c-.2 0-.3-.1-.3-.3V14.6c0-.2.1-.3.2-.3 1.6-.1 3-.1 5.4-.1 4.5 0 7.3 2 7.3 5.9 0 3.2-2.1 5-4 5.7.9 1.6 4 7.2 5 9.1.1.2.1.3-.1.3h-3.3c-.2 0-.3-.1-.4-.2-.7-1.3-3-5.6-4.5-8.3h-2.2v8.4zm2-11.3c2.3 0 4-.9 4-3.3 0-2.3-1.5-3.4-3.9-3.4-.8 0-1.6 0-2.1.1v6.6h2zm22.4 8.3c0 .2 0 .9.1 2 0 .1 0 .2-.2.2-1.7.6-3.5 1.3-5.9 1.3-2.9 0-5.6-1.1-5.6-5.5v-10c0-.2.1-.3.2-.3h3c.2 0 .2.1.2.3v9.6c0 1.9.7 2.9 2.7 2.9.8 0 1.5-.2 2-.4V20.1c0-.2.1-.3.2-.3h3c.2 0 .2.1.2.3l.1 12z" class="st2"/><path d="M37.9 49.4H11.8C5.6 49.4.5 44.3.5 38.1V12C.5 5.8 5.6.7 11.8.7h26.1C44.1.7 49.2 5.8 49.2 12v21.8c0 .7-.6 1.2-1.2 1.2s-1.2-.6-1.2-1.2V12c0-4.9-4-8.8-8.8-8.8H11.8C6.9 3.2 3 7.2 3 12v26.1c0 4.9 4 8.8 8.8 8.8h26.1c1 0 2.1-.2 3-.5.6-.2 1.4.1 1.6.7.2.6-.1 1.4-.7 1.6-1.3.5-2.6.7-3.9.7z" class="st2"/><path d="M47.9 39.4c-.7 0-1.2-.6-1.2-1.2v-4.3c0-.7.6-1.2 1.2-1.2s1.2.6 1.2 1.2v4.3c.1.6-.5 1.2-1.2 1.2zM36.5 46H13.1c-5.1 0-9.2-4.1-9.2-9.2V13.4c0-5.1 4.1-9.2 9.2-9.2h23.4c5.1 0 9.2 4.1 9.2 9.2v23.4c.1 5.1-4.1 9.2-9.2 9.2zM13.1 5.1c-4.5 0-8.2 3.7-8.2 8.2v23.4c0 4.5 3.7 8.2 8.2 8.2h23.4c4.5 0 8.2-3.7 8.2-8.2V13.4c0-4.5-3.7-8.2-8.2-8.2H13.1z" class="st2"/></svg>