<svg xmlns="http://www.w3.org/2000/svg" version="1" viewBox="0 0 50 50"><path fill="#71BAC0" d="M47.833 17.311v12.433L22.39 39.003v-.775l-5.334-2.927c-.19-.107-.305-.247-.321-.396v-2.317l-1.286.701c-.585.313-1.426.354-1.913.091l-9.794-5.326c-.206-.115-.313-.264-.313-.429V16.256c0-.132.083-.272.214-.404 0 0-.437-.148-.627-.256-.536-.288-.816-.684-.849-1.096V9.982c.033-.553.486-1.138 1.335-1.6 1.583-.866 3.933-.981 5.243-.264.545.297.825.677.85 1.089v2.646l8.698-4.749c.577-.313 1.435-.354 1.913-.099l9.77 5.318c.215.115.313.264.305.429v2.119l1.303-.709c.577-.313 1.435-.355 1.913-.091l6.686 3.661.396.214 4.147-2.292 3.107 1.657z"/><path fill="#7ED0D6" d="M30.281 12.752v.247l-26.853 9.77v-6.513c0-.132.083-.272.214-.404 0 0-.437-.148-.627-.256-.535-.288-.815-.684-.848-1.096V9.982c.033-.553.486-1.138 1.335-1.6 1.583-.866 3.933-.981 5.243-.264.545.297.825.677.85 1.089v2.646l8.698-4.749c.577-.313 1.435-.354 1.913-.099l9.77 5.318c.214.116.313.264.305.429z"/><path fill="#031326" d="M44.52 14.13l-4.14 2.28-6.28-3.44c-.7-.38-1.7-.42-2.57-.14v-.02c.03-.65-.33-1.25-.96-1.58L20.8 5.91c-.85-.46-2.15-.42-3.1.1l-6.85 3.74-.01-.62c-.03-.5-.26-1.44-1.49-2.11-1.7-.93-4.47-.82-6.44.26-1.22.67-1.93 1.6-1.99 2.7v4.62c.06.78.52 1.48 1.26 1.95v11.08c0 .62.35 1.18.97 1.52l9.79 5.33c.69.38 1.69.42 2.55.14l.01.42c.06.55.4 1.04.95 1.36l4.48 2.45.02 3.31 4.48 2.43 6.44-3.56c.61-.34.82-1.1.49-1.7-.33-.61-1.1-.83-1.7-.49l-5.114 2.826-.058-11.896.001-.001 21.09-11.63v12.64a1.25 1.25 0 002.5 0V16.56l-4.559-2.43zM3.16 11.52c.05.07.11.14.17.2l.03.03c.01.02.03.03.05.05.06.06.13.11.21.16 1.06.69 2.96.58 4.23-.26.19-.12.36-.26.5-.4.07-.07.14-.14.2-.22.04-.05.08-.11.12-.17.01-.01.01-.02.02-.03v2.31c-.01.26-.12.52-.31.76-.17.22-.39.42-.67.61-.59.39-1.33.61-2.04.66-.72.05-1.41-.08-1.91-.41-.36-.24-.58-.57-.6-.92v-2.37zm0-.84c.02-.5.38-1.01.98-1.4.67-.44 1.52-.67 2.31-.67.62 0 1.2.14 1.63.42.38.25.59.57.61.92v.21c-.02.26-.14.52-.34.76-.16.21-.38.4-.64.57-1.19.79-2.96.91-3.95.26-.14-.09-.26-.2-.35-.31v-.01c-.16-.19-.24-.4-.25-.62v-.13zm26.2 3.13v.03c-.01.13-.13.28-.33.39-.01.01-.03.02-.04.03l-13.1 7.15c-.49.26-1.22.3-1.63.09l-9.37-5.11-.146-.08c0-.263.581-.847 1.126-.87.7-.07 1.41-.3 1.98-.68.46-.3.79-.67.97-1.05l10.07-5.5c.08-.05.18-.07.27-.09.08.02.15.05.21.08l9.66 5.26.12.07c.14.08.21.17.21.28zm-4.07 27.86l-1.838-.989-.058-11.899 1.844.997.058 11.894-.006-.003zm-7.314-13.596c-.005-.165.151-.352.421-.501l4.845-2.649c.523-.284 1.329-.328 1.76-.097l2.398 1.312h-.001l-4.13 2.29-.06.03-.07.04v.14l.003.002.012 2.441-4.937-2.707c-.142-.077-.235-.193-.241-.301zm9.399-2.274v-7.211c.036.027.076.054.123.08l6.749 3.693-6.584 3.637-.301-.165c.003-.012.013-.021.013-.034zm-3.803 2.793l-.042-.023 11.04-6.1 5.81-3.2 4.16-2.3 1.85.99-21.03 11.596-1.788-.963zm9.004-13.556c.24-.13.576-.164.821-.044l7.109 3.904.006.003-.403.22-5.6 3.1-6.89-3.77c-.11-.06-.24-.17-.24-.31 0-.16.16-.35.41-.49l1.24-.68v.01l3.547-1.943zM14.85 32.19c-.24.13-.62.13-.72.1l-9.45-5.15V16.59c0-.008.003-.02.004-.029l.016.009 8.95 4.89.49.26c.1.06.23.1.36.12.3.07.65.06.98-.02.19-.04.36-.1.52-.19l13.03-7.11.08-.04c.1-.06.18-.11.25-.18v2.16c0 .01 0 .03.01.04v.01l-.34.18-1.35.74c-.35.19-.56.45-.56.71 0 .015.004.031.005.047v7.517l-2.003-1.097c-.513-.274-1.392-.231-1.999.098l-4.846 2.65c-.357.197-.556.46-.55.726h-.001v2.542L14.85 32.19zm3.126-3.675a.866.866 0 00.123.08l5.058 2.773.029 5.859-5.196-2.837v-3.91l-.01.01-.004.002v-1.977z"/></svg>