<svg xmlns="http://www.w3.org/2000/svg" version="1.0" viewBox="0 0 50 50"><path fill="#A6C1C2" d="M47.652 31.474a1.402 1.402 0 01-.852.664l-1.285.361v.123l-12.986 4.727-6.435-.054.035.61-16.083 4.487a1.407 1.407 0 01-1.647-.736l-.007-.022a.975.975 0 01-.072-.181l-.015-.043-.823-2.939H6.384a2.58 2.58 0 01-2.578-2.578v-1.849c0-.426.296-.787.701-.874v-5.372l-2.289-8.196a1.427 1.427 0 01.13-1.076c.188-.332.491-.563.852-.664l1.307-.368v-.664a.892.892 0 01-.701-.874V14.1a2.579 2.579 0 012.578-2.578h1.849c.441 0 .816.318.881.744H23.26l16.695-4.657a1.427 1.427 0 011.076.13c.332.188.563.491.664.852l.823 2.939h1.141a2.58 2.58 0 012.578 2.578v1.841c0 .44-.318.816-.744.881v5.372l2.289 8.196c.101.368.051.751-.13 1.076z"/><path fill="#B9D7D9" d="M4.507 27.813v-.014l-2.289-8.196a1.427 1.427 0 01.13-1.076c.188-.332.491-.563.852-.664l1.307-.368v-.665a.892.892 0 01-.701-.874V14.1a2.579 2.579 0 012.578-2.578h1.849c.441 0 .816.318.881.744H23.26l16.695-4.657a1.427 1.427 0 011.076.13c.332.188.563.491.664.852l.823 2.939h1.141c.931 0 1.747.491 2.195 1.235L4.507 27.813z"/><path fill="#031326" d="M48.505 30.196L46.243 22.1v-4.774c.449-.296.743-.81.743-1.376v-1.841a3.331 3.331 0 00-3.327-3.328h-.573l-.669-2.39a2.159 2.159 0 00-2.664-1.504l-16.596 4.63H9.609a1.656 1.656 0 00-1.376-.744H6.384a3.332 3.332 0 00-3.328 3.328v1.855c0 .397.145.77.387 1.059l-.444.125a2.153 2.153 0 00-1.503 2.664l2.261 8.097v4.797c-.427.301-.701.8-.701 1.347v1.849a3.331 3.331 0 003.328 3.327h.529l.682 2.434a2.143 2.143 0 002.074 1.538c.199 0 .387-.025.577-.078l16.083-4.486 3.929-1.083h12.859c1.365 0 2.025-.533 2.025-1.945l.013-2.274 1.847-.466a2.16 2.16 0 001.503-2.665zm-3.342 1.624l-.02-7.736 1.757 6.319a.957.957 0 01-.09.729.953.953 0 01-.299.31c-.113.085-.835.244-1.348.378zM9.141 41.154l-.027-.056c-.019-.037-.032-.083-.053-.145l-.668-2.396h.186c.607 0 1.089-.441 1.203-1.015h14.851l-14.728 4.11a.95.95 0 01-.764-.498zM31.84 28.173a3.664 3.664 0 00-1.894 1.894v-1.894h1.894zm1.198.221v2.87h-2.87a3.131 3.131 0 012.87-2.87zm.5-.221h1.72v3.092h-1.72v-3.092zm2.22-.017h8.774c-.175 4.752-4.013 8.578-8.774 8.736v-8.736zm8.884 2.418v5.013c0 .984-.371 1.457-1.457 1.457h-5.153a9.62 9.62 0 006.61-6.47zm-3.181-16.635h1.812a.39.39 0 01.391.39v1.808c0 .594.423 1.068.979 1.195v7.028c-1.289-5.572-5.612-9.981-11.132-11.404h6.756c.124.559.599.983 1.194.983zm-11.515-.97c8.02.141 14.506 6.655 14.594 14.687H29.946V12.969zm3.592 18.796h1.72v5.116a5.373 5.373 0 01-5.09-5.116h3.37zM5.358 17.344c.576-.112 1.02-.595 1.02-1.203v-1.812a.39.39 0 01.39-.39h1.808c.574 0 1.048-.454 1.194-.981h14.921A24.731 24.731 0 005.358 32.316V17.344zm4.417 19.7c-.125-.559-.6-.985-1.197-.985H6.766a.39.39 0 01-.39-.39V33.86c0-.45-.251-.826-.607-1.047a24.243 24.243 0 0123.677-19.851v24.082H9.775zm20.171-3.676a5.913 5.913 0 003.573 3.676h-3.573v-3.676zM40.938 9.047l.668 2.393h-.146c-.608 0-1.09.442-1.203 1.017H25.28l14.781-4.099c.402.018.765.28.877.689zm-36.08 9.127v7.75L3.1 19.598a.958.958 0 01.089-.728.932.932 0 01.294-.308l1.375-.388z"/></svg>