<svg xmlns="http://www.w3.org/2000/svg" id="Camada_3" x="0" y="0" version="1.1" viewBox="0 0 50 50" xml:space="preserve"><style>.st2,.st3,.st4,.st5{fill:none;stroke-linejoin:round;stroke-miterlimit:10}.st2{stroke-width:2.5;stroke-linecap:round}.st2,.st3,.st4,.st5{stroke:#444}.st4,.st5{stroke-linecap:round}.st5{stroke-width:.5}</style><path fill="#bf94f7" d="M36.02 6.41l-11.5-5c-12.5 5.5-17.75 5.75-22 7.5L1.89 23.5 47.67 7.21l-1.65.45c0-1.12-8.88-1.25-10-1.25z"/><path fill="#a475ef" d="M1.89 23.5l.13 11.91c.29 2 3.38 3.19 5.38 3.47l10.62 1.28c.25.03-2.99 3.34-2.75 3.25l32.4-11.51V10.06c0-1.39-1.38-2.37-2.69-1.9L1.89 23.5z"/><path d="M32.04 42.04v-2.96h6.98" class="st2"/><path d="M48.27 33.41l.02-20.15c0-3.8-3.08-6.89-6.89-6.89h-4.55L25.63 1.69c-.7-.29-1.48-.29-2.17.02L12.71 6.38H8.6a6.89 6.89 0 00-6.89 6.89v19.51c0 3.8 3.08 6.89 6.89 6.89l9.67.25.06 2.13c-4.61 0-4.73 4.37-4.73 4.37h22.8s.83-4.37-4.36-4.37" class="st2"/><path d="M24.78 27.29L13.2 22.23V7.02l5.79 2.42" class="st3"/><path d="M31.06 9.44l5.31-2.42v15.21l-11.59 5.06v-6.27" class="st3"/><path d="M13.2 7.02l11.66-4.84 11.51 4.84" class="st4"/><path d="M24.87 21.26l-6.67-2.92V9.59l6.72 2.92z" class="st5"/><path d="M24.87 21.26l6.67-2.92V9.59l-6.62 2.92zM18.2 9.59l6.72-2.79 6.62 2.79" class="st5"/><path d="M5.96 32.12h38.13" class="st4"/><path fill="#444" d="M27.16 36.71h-4.27c-.55 0-1-.45-1-1v-.41c0-.55.45-1 1-1h4.27c.55 0 1 .45 1 1v.41c0 .55-.45 1-1 1z"/></svg>