<svg xmlns="http://www.w3.org/2000/svg" id="Layer_1" x="0" y="0" version="1.1" viewBox="0 0 50 50" xml:space="preserve"><style>.st3{fill:#464646}</style><path fill="#afe55d" d="M47.4 25c0 2.6-.4 5.1-1.3 7.5l-3.2 1.2-26 9.5-3.2 1.2C8.4 41.3 4.5 36 3.2 29.8c-.1-.4-.2-.6-.2-.8l2.4-.9L42 14.8l2.4-.9c.1.2.2.4.4.6 1.6 3.1 2.6 6.7 2.6 10.5z"/><path fill="#c3ff68" d="M44.8 14.5l-2.4.9L5.5 28.8l-2.4.9c0-.3-.1-.5-.1-.7-.2-1.3-.4-2.6-.4-4 0-7 3.2-13.3 8.3-17.4l13.7-5h.4c8.3 0 15.5 4.5 19.4 11.3.1.2.2.4.4.6z"/><path fill="#444" d="M47.4 25c0 2.6-.4 5.1-1.3 7.5-.6 1.8-1.5 3.5-2.5 5-.4.6-1.2.7-1.7.3-.6-.4-.7-1.2-.3-1.7.5-.8 1-1.6 1.4-2.5 1.3-2.7 2-5.6 2-8.6 0-3.5-.9-6.8-2.5-9.6-.1-.2-.2-.4-.4-.6C38.5 9 32.2 5.1 25 5.1 14 5.1 5.1 14 5.1 25c0 1.1.1 2.1.2 3.1 0 .2.1.5.1.7 1.2 6.4 5.6 11.7 11.4 14.3 2.5 1.1 5.3 1.8 8.2 1.8.7 0 1.3.6 1.3 1.3s-.6 1.3-1.3 1.3c-4.1 0-8-1.1-11.3-3.1C8.4 41.3 4.5 36 3.2 29.8c-.1-.4-.2-.6-.2-.8-.2-1.3-.4-2.6-.4-4 0-7 3.2-13.3 8.3-17.4 3.8-3 8.5-4.9 13.7-5h.4c8.3 0 15.5 4.5 19.4 11.3.1.2.2.4.4.6 1.6 3.1 2.6 6.7 2.6 10.5z"/><path d="M23.1 16.7v-.4c0-.7.2-.8.9-.8h2.1c.7 0 .9.1.9.9v.3h6.8c.2 0 .5-.2.6-.3.6-.7 1.4-1.1 2.3-.8.8.3 1.3 1.1 1.3 1.9 0 .9-.6 1.6-1.4 1.8-.8.2-1.6-.1-2.2-.8-.1-.1-.3-.3-.4-.3h-3.7c.8.7 1.6 1.3 2.3 2.1 1.1 1.2 1.9 2.7 2.3 4.3.1.4.3.6.7.5.7 0 .9.1.9.8v2.3c0 .5-.2.7-.7.7h-2.4c-.5 0-.7-.2-.7-.7v-2.1c0-1 0-1 .9-1.2-.3-2.6-3-5.8-6.4-6.5-.3 1-.3 1-1.4 1h-1.5c-1 0-1 0-1.1-1-2.9.4-6.1 3.6-6.5 6.5.9.3.9.3.9 1.3v2c0 .5-.2.7-.7.7h-2.6c-.4 0-.6-.2-.6-.7v-2.6c0-.5.3-.7.7-.6.5.1.7-.1.8-.7.6-2.5 2.1-4.4 4.2-5.9.1-.1.2-.2.3-.2v-.1H16c-.1 0-.3.2-.4.4-.5.7-1.3 1-2.1.8-.8-.2-1.3-.9-1.4-1.7-.1-.7.3-1.5 1.1-1.9.8-.5 1.9-.2 2.5.7.1.1.3.3.4.3h7z" class="st3"/><path d="M28.1 33.8h-6.3c0-.1-.1-.2-.1-.2v-7.2c0-.7.3-1.4.5-2 .5-1.1 1.1-2.1 1.7-3.2.2-.4.5-.7 1-.7s.7.3.9.7c.6 1.1 1.2 2.1 1.7 3.2.3.6.5 1.3.5 2 .1 2.4 0 4.8 0 7.2.2 0 .2.1.1.2zm-5-7.8h3.8c-.3-.7-.6-1.3-1-1.9-.2-.4-1.5-.6-1.7-.3-.3.7-.7 1.4-1.1 2.2zm-1.2 9.3h6.3v1.5c0 .6-.4 1-.9 1-1.5.1-2.9.1-4.4 0-.5 0-.9-.4-1-1-.1-.5 0-1 0-1.5z" class="st3"/></svg>