<svg xmlns="http://www.w3.org/2000/svg" version="1" viewBox="0 0 50 50"><path fill="#A6C1C2" d="M9.503 41.491h2.593v3.516c0 .558.272 1.052.688 1.366L36.8 37.632V35.96h3.548a1.867 1.867 0 001.867-1.867V15.95a1.867 1.867 0 00-1.867-1.867H36.8v-3.858c0-.948-.768-1.717-1.717-1.717h-2.594V4.994a1.72 1.72 0 00-1.717-1.717H13.813c-.952 0-1.717.775-1.717 1.717v3.514H9.503c-.948 0-1.717.769-1.717 1.717v29.549c0 .948.768 1.717 1.717 1.717z"/><path fill="#B9D7D9" d="M32.009 3.808a1.706 1.706 0 00-1.237-.531h-16.96c-.952 0-1.717.775-1.717 1.717v3.514H9.503c-.949 0-1.717.769-1.717 1.717v2.4l24.223-8.817z"/><path fill="#031326" d="M40.348 12.833H38.05v-2.608a2.97 2.97 0 00-2.967-2.967h-1.344V4.994a2.97 2.97 0 00-2.968-2.967H13.812a2.97 2.97 0 00-2.967 2.967v2.264H9.503a2.97 2.97 0 00-2.967 2.967v29.549a2.97 2.97 0 002.967 2.967h1.343v2.266a2.97 2.97 0 002.967 2.967h16.959a2.97 2.97 0 002.968-2.967v-3.516c0-.69-.56-1.25-1.25-1.25-.019 0-.035.01-.053.011h-19.09v-.011H9.503a.467.467 0 01-.467-.467V10.225c0-.257.209-.467.467-.467h3.843v-.001H31.24v.001h3.844c.258 0 .467.209.467.467v3.694H16.598v-2.2a.75.75 0 00-1.5 0v26.367a.75.75 0 001.5 0v-1.962H35.55v1.509a1.25 1.25 0 002.5 0v-.423h2.298a3.12 3.12 0 003.116-3.117V15.95a3.12 3.12 0 00-3.116-3.117zm.616 21.259a.611.611 0 01-.321.531h-3.644v-2.409h3.966v1.878zm-12.433-1.878v2.409h-6.467v-2.409h6.467zm1 0h6.467v2.409h-6.467v-2.409zm-12.933-1.5V19.328h24.366v11.386H16.598zM40.964 15.95v1.878h-3.966v-2.409h3.645a.61.61 0 01.321.531zm-4.966 1.878h-6.467v-2.409h6.467v2.409zm-7.467 0h-6.467v-2.409h6.467v2.409zm2.708 23.923v3.255c0 .258-.21.467-.468.467H13.812a.468.468 0 01-.467-.467v-3.255h17.894zM13.346 8.257V4.994c0-.258.209-.467.467-.467h16.959c.258 0 .468.209.468.467v3.263H13.346zm7.718 7.162v2.409h-4.467v-2.409h4.467zm-4.466 16.795h4.467v2.409h-4.467v-2.409z"/></svg>