<svg xmlns="http://www.w3.org/2000/svg" id="Camada_3" x="0" y="0" version="1.1" viewBox="0 0 50 50" xml:space="preserve"><style>.st4{fill:#444}</style><path fill="#fdce74" d="M34.46 2.05l-21.04-.74c-2.96 0-5.37 2.4-5.37 5.37V21.4L42.19 9.25l-7.73-7.2z"/><path fill="#fbc14f" d="M8.05 21.4v26.82l35.69-12.7.76-5.07V11.36l-1.69-2.33z"/><path fill="none" stroke="#444" stroke-linecap="round" stroke-linejoin="round" stroke-miterlimit="10" stroke-width="2.5" d="M34.92 48.95h-24.8c-.76 0-1.37-.64-1.37-1.42V3.5c0-.78.61-1.42 1.37-1.42l24.34-.03c1.8 1.94 9.29 9.24 10.05 10.21V41"/><path fill="none" stroke="#444" stroke-linecap="round" stroke-linejoin="round" stroke-miterlimit="10" stroke-width=".25" d="M33.87 2.05h0l-.01 10.8H44.5c-.83-1.04-8.74-8.75-10.63-10.8z"/><path d="M14.67 10.6h-.03c-.14.57-.3 1.15-.48 1.73l-.94 2.76h2.88l-.94-2.75c-.21-.62-.35-1.18-.49-1.74z" class="st4"/><path d="M3.25 11.18v6.29a2.76 2.76 0 002.76 2.76h23.11a2.76 2.76 0 002.76-2.76v-6.29a2.76 2.76 0 00-2.76-2.76H6.01a2.76 2.76 0 00-2.76 2.76zm14.13 7.88l-1.02-3h-3.39l-.99 3H10.7l3.24-9.55h1.49l3.26 9.55h-1.31zm3.95 0H20.1V9.51h1.23v9.55zm4.71 14.37c-1.65 0-2.99-1.34-2.99-2.99 0-1.65 1.34-2.99 2.99-2.99 1.65 0 2.99 1.34 2.99 2.99 0 1.65-1.34 2.99-2.99 2.99zm0-4.59c-.88 0-1.6.72-1.6 1.6 0 .88.72 1.6 1.6 1.6.88 0 1.6-.72 1.6-1.6 0-.88-.71-1.6-1.6-1.6zm-9.43 11.67c-1.65 0-2.99-1.34-2.99-2.99 0-1.65 1.34-2.99 2.99-2.99 1.65 0 2.99 1.34 2.99 2.99 0 1.65-1.34 2.99-2.99 2.99zm0-4.59c-.88 0-1.6.72-1.6 1.6 0 .88.72 1.6 1.6 1.6.88 0 1.6-.72 1.6-1.6 0-.88-.72-1.6-1.6-1.6zm19.7-9.56c-1.65 0-2.99-1.34-2.99-2.99 0-1.65 1.34-2.99 2.99-2.99 1.65 0 2.99 1.34 2.99 2.99 0 1.65-1.34 2.99-2.99 2.99zm0-4.59c-.88 0-1.6.72-1.6 1.6 0 .88.72 1.6 1.6 1.6.88 0 1.6-.72 1.6-1.6.01-.88-.71-1.6-1.6-1.6zM19.06 32.78h-1.74c-.84 0-1.53-.69-1.53-1.53v-1.63c0-.84.69-1.53 1.53-1.53h1.74c.84 0 1.53.69 1.53 1.53v1.63c0 .85-.69 1.53-1.53 1.53zm-1.74-3.29c-.08 0-.14.06-.14.14v1.63c0 .08.06.14.14.14h1.74c.08 0 .14-.06.14-.14v-1.63c0-.08-.06-.14-.14-.14h-1.74zm17.46 3.29h-1.74c-.84 0-1.53-.69-1.53-1.53v-1.63c0-.84.69-1.53 1.53-1.53h1.74c.84 0 1.53.69 1.53 1.53v1.63c0 .85-.68 1.53-1.53 1.53zm-1.73-3.29c-.08 0-.14.06-.14.14v1.63c0 .08.06.14.14.14h1.74c.08 0 .14-.06.14-.14v-1.63c0-.08-.06-.14-.14-.14h-1.74z" class="st4"/><path fill="none" stroke="#444" stroke-miterlimit="10" stroke-width=".25" d="M18.69 36.95s4.73.57 5.07-6.04m4.5-.93s-.05-5.4 5.3-6.03m-13.7 6.49h3.9m4.22 0h3.9"/></svg>