<svg xmlns="http://www.w3.org/2000/svg" id="Layer_1" x="0" y="0" version="1.1" viewBox="0 0 50 50" xml:space="preserve"><style>.st2{fill:none;stroke:#444;stroke-miterlimit:10}</style><path fill="#5aba52" d="M39.01 1.5l-23.24.29c-1.43 0-7.93 6.18-7.93 7.61l-.03 11.72-5.92 8.24 5.37 6.39c.38.55.35 11.93 1.02 11.94l5.51.1 28.16-10.02c.3-2.76 5.07-6.37 5.39-9.52l-5.92-6.63.28-10.77-.93-4.17c-.01-1.43-.33-5.18-1.76-5.18z"/><path d="M3.84 30.22c-.61-.87-.6-2.02.02-2.87 2.35-3.2 9.07-10.67 20.52-10.67 11.44 0 18.69 7.54 21.28 10.77.68.86.72 2.06.09 2.96-2.39 3.39-9.23 11.32-20.87 11.32-11.73 0-18.66-8.12-21.04-11.51z" class="st2"/><circle cx="24.88" cy="28.9" r="4.69" fill="#444"/><circle cx="24.88" cy="28.9" r="12.34" class="st2"/><circle cx="24.88" cy="28.9" r="6.42" fill="none" stroke="#444" stroke-miterlimit="10" stroke-width=".5"/><path fill="none" stroke="#444" stroke-linecap="round" stroke-linejoin="round" stroke-miterlimit="10" stroke-width="2.5" d="M30.68 48.52H9.94a2.1 2.1 0 01-2.1-2.1V36.3l-4.93-5.97c-.86-1.04-.82-2.54.07-3.54l4.86-5.42V9.4l8.64-7.65h22.83c1.16 0 2.1.94 2.1 2.1v17.77l4.75 5.17a3.614 3.614 0 01-.04 4.93l-4.71 4.96v4.94"/><path d="M7.48 9.3h7.63c.76 0 1.37-.61 1.37-1.37V1.75" class="st2"/></svg>