<svg xmlns="http://www.w3.org/2000/svg" id="Layer_1" x="0" y="0" version="1.1" viewBox="0 0 50 50" xml:space="preserve"><style>.st3{fill:#031326}</style><path fill="#e589ef" d="M48.2 20.2L1.8 37.1V3.9h46.4z"/><path fill="#f799ff" d="M45.1 3.3L1.8 19V3.9l43.3-.6z"/><path fill="none" d="M3.1 5.2v10.1H47V5.2H3.1zm7.1 6.3H8.1c-.7 0-1.2-.6-1.2-1.2S7.4 9 8.1 9h2.1c.7 0 1.2.6 1.2 1.2s-.5 1.3-1.2 1.3zm8.5 0h-2.1c-.7 0-1.2-.6-1.2-1.2S15.9 9 16.6 9h2.1c.7 0 1.2.6 1.2 1.2s-.5 1.3-1.2 1.3zm23.2 0h-8.4c-.7 0-1.2-.6-1.2-1.2S32.7 9 33.4 9h8.4c.7 0 1.2.6 1.2 1.2s-.4 1.3-1.1 1.3zm-4.4 21.3c0 1.9.9 2.6 2 2.6.2 0 .5 0 .7-.1v-5c-.2-.1-.3-.1-.6-.1-1.3 0-2.1.9-2.1 2.6zm-28.6-7H20v11.1H8.9z"/><path d="M42 26c0-.1 0-.1-.1-.1h-1.6c-.1 0-.1 0-.1.1v2.6h-.5c-2.5 0-4 1.8-4 4.2 0 2.8 1.6 4.1 3.8 4.1.9 0 1.7-.2 2.6-.6.1 0 .1 0 .1-.1-.1-.4-.1-.7-.1-1V26zm-1.8 4.3v5c-.2.1-.5.1-.7.1-1.1 0-2-.7-2-2.6 0-1.6.9-2.6 2.1-2.6.2 0 .4 0 .6.1zm-8 .9l2.7-5.1c.1-.1 0-.2-.1-.2h-1.6c-.1 0-.1.1-.2.1-.6 1.3-1.3 2.7-1.9 4-.6-1.4-1.3-2.7-1.9-4 0-.1-.1-.1-.2-.1h-1.7c-.1 0-.1.1-.1.2l2.7 5.3-2.8 5.3c-.1.1 0 .1.1.1h1.7c.1 0 .1 0 .2-.1.6-1.3 1.3-2.8 1.9-4.2.7 1.4 1.3 2.8 2 4.2.1.1.1.1.2.1H35c.1 0 .1-.1.1-.2l-2.9-5.4zM8.1 24.3c-.4 0-.8.3-.8.8v12.6c0 .4.3.8.8.8h12.6c.4 0 .8-.3.8-.8V25c0-.4-.3-.8-.8-.8H8.1zM20 36.9H8.9V25.8H20v11.1zM10.2 9H8.1c-.7 0-1.2.6-1.2 1.2s.6 1.2 1.2 1.2h2.1c.7 0 1.2-.6 1.2-1.2S10.9 9 10.2 9zm8.5 0h-2.1c-.7 0-1.2.6-1.2 1.2s.6 1.2 1.2 1.2h2.1c.7 0 1.2-.6 1.2-1.2S19.4 9 18.7 9zm23.2 0h-8.4c-.7 0-1.2.6-1.2 1.2s.6 1.2 1.2 1.2h8.4c.7 0 1.2-.6 1.2-1.2S42.6 9 41.9 9z" class="st3"/><path d="M48.2 2.7H1.8c-.7 0-1.2.6-1.2 1.2v42.2c0 .7.6 1.2 1.2 1.2h19c.7 0 1.2-.6 1.2-1.2s-.6-1.2-1.2-1.2H3.1v-27H47v19.8c0 .7.6 1.2 1.2 1.2s1.2-.6 1.2-1.2V3.9c0-.7-.5-1.2-1.2-1.2zM3.1 15.3V5.2H47v10.1H3.1z" class="st3"/></svg>