<svg xmlns="http://www.w3.org/2000/svg" id="Layer_1" x="0" y="0" version="1.1" viewBox="0 0 50 50" xml:space="preserve"><style>.st2{fill:#031326}</style><path fill="#ecc158" d="M32.7 25.7l-6.5 2.9c-.7.3-1.3-.1-1.3-.8v-5.2c0-.8.6-1.7 1.3-2l20.3-9.1-6.7-3L3.4 21.8v14.3c0 .8.6 1.7 1.3 2l5.6 2.5 22.4-8.2v-6.7zm13.8-6.2l-6.8 3.1v7.3l6.8-2.5z"/><path fill="#f0cd77" d="M26.6 3c-.7-.3-1.9-.3-2.6 0L5 11.4c-.7.3-1.3 1.2-1.3 2v8.9L40.2 9 26.6 3z"/><path d="M25 48.5c-.6 0-1.3-.1-1.8-.4l-19-8.5c-1.2-.5-2-1.9-2-3.1V13.4c0-1.3.9-2.6 2-3.1l19-8.5c1.1-.5 2.6-.5 3.6 0l21 9.4v1.6l-.7.3-20.3 9.1c-.3.1-.6.6-.6.9v4.7l7.8-3.5V45l-7.2 3.2c-.5.2-1.1.3-1.8.3zM25 4c-.3 0-.6 0-.8.1l-19 8.5c-.3.1-.6.6-.6.9v23.2c0 .3.3.7.6.9l19 8.5c.4.2 1.2.2 1.6 0l5.7-2.5V28.1l-4.7 2.1c-.7.3-1.5.3-2.1-.1-.6-.4-1-1.1-1-1.9V23c0-1.3.9-2.6 2-3.1L43.5 12 25.8 4.1c-.2-.1-.5-.1-.8-.1z" class="st2"/><path d="M38.5 43V22.3l9.4-4.2V28c0 .7-.6 1.2-1.2 1.2s-1.2-.6-1.2-1.2v-6.1l-4.5 2v15.3l3.8-1.7c.3-.1.6-.6.6-.9 0-.7.6-1.2 1.2-1.2s1.2.6 1.2 1.2c0 1.3-.9 2.6-2 3.1L38.5 43z" class="st2"/></svg>