<svg xmlns="http://www.w3.org/2000/svg" version="1" viewBox="0 0 50 50"><path fill="#DC5E82" d="M12.577 45.715l23.157-8.428a17.507 17.507 0 001.739-7.592c0-.11-.015-.218-.017-.328l4.815-8.339c1.558.269 2.714.091 3.118-.609.566-.98-.326-2.587-2.365-4.367l-.172-.15a6.71 6.71 0 003.995-3.107 6.733 6.733 0 10-11.662-6.732 6.705 6.705 0 00-.609 5.298s-3.838-.551-4.337.313c-.404.699.02 1.789 1.032 3.004l-.639 1.106a17.52 17.52 0 00-10.772-3.699c-9.726 0-17.611 7.885-17.611 17.611.001 7.124 4.241 13.246 10.328 16.019z"/><path fill="#F56991" d="M47.459 7.319a6.701 6.701 0 00-3.02-3.722 6.734 6.734 0 00-9.198 2.465 6.705 6.705 0 00-.609 5.298s-3.838-.551-4.337.313c-.265.46-.167 1.092.216 1.815l16.948-6.169zm-19.082 6.945a17.45 17.45 0 00-8.46-2.18c-7.472 0-13.842 4.661-16.4 11.229l24.86-9.049z"/><g fill="#031326"><path d="M32.351 18.389l.449-.778a.25.25 0 00-.434-.25l-.574.994v.001l-1.303 2.257-1.303 2.257-.001.001v.002l-1.303 2.256-.001.001v.001l-1.303 2.257-.001.001v.001l-1.303 2.258-1.304 2.258-.574.994a.251.251 0 00.091.342.25.25 0 00.341-.092l.449-.777 2.254 1.302a.252.252 0 00.342-.092.253.253 0 00-.092-.342l-2.254-1.302 1.054-1.825 1.018.589a.252.252 0 00.342-.092.252.252 0 00-.092-.342l-1.018-.589 1.054-1.825 1.019.589a.252.252 0 00.342-.092.253.253 0 00-.092-.342l-1.019-.589 1.054-1.825 2.254 1.302a.252.252 0 00.342-.092.253.253 0 00-.092-.342l-2.254-1.301 1.054-1.826 1.018.588a.252.252 0 00.342-.091.25.25 0 00-.092-.341l-1.018-.588 1.055-1.826 1.019.588a.252.252 0 00.342-.091.25.25 0 00-.092-.341l-1.019-.588 1.054-1.826 2.254 1.301a.252.252 0 00.342-.091.25.25 0 00-.092-.341l-2.255-1.301z"/><path d="M47.929 13.419a7.932 7.932 0 00.798-6.058c-.65-2.427-2.367-4.384-4.755-5.353-3.267-1.325-7.136-.265-9.274 2.538-1.219 1.598-1.777 3.492-1.645 5.399-3.15-.179-3.7.762-3.897 1.103-.28.486-.461 1.187-.189 2.124-2.605-1.455-5.524-2.251-8.59-2.331C10.5 10.583 1.9 18.198 1.07 28.041.152 38.917 8.382 48.085 19.047 48.539l.054.001a1.25 1.25 0 001.248-1.197 1.221 1.221 0 00-.114-.549v-9.811a7.234 7.234 0 002.083-.417c.584 1.026 1.357 1.955 2.248 2.469.808.467 1.9.712 3.11.712.418 0 .85-.029 1.288-.089 1.187-.161 2.725-.613 3.155-1.36l4.011-6.946a16.156 16.156 0 01-1.506 5.403 1.249 1.249 0 102.254 1.08 18.68 18.68 0 001.843-8.161l4.216-7.301c2.16.173 3.113-.6 3.534-1.329.546-.946.669-2.495-1.396-4.743a7.927 7.927 0 002.854-2.882zM29.75 16.681l.319.247-4.644 8.042a7.283 7.283 0 00-5.189-2.557v-9.065c3.546.075 6.748 1.188 9.514 3.333zm-10.264-3.328v9.056a7.304 7.304 0 00-6.916 6.911H3.519c.199-8.721 7.245-15.768 15.967-15.967zM3.518 30.07h9.051a7.304 7.304 0 006.916 6.913v9.14c-.108-.036-.213-.077-.332-.082-8.65-.368-15.44-7.351-15.635-15.971zm16.339 5.932a6.315 6.315 0 01-6.212-7.408c.392-2.298 2.096-4.244 4.326-4.921a6.301 6.301 0 016.914 2.232l-3.546 6.141c-.372.646-.126 2.141.53 3.622a6.262 6.262 0 01-2.012.334zm11.397 1.796c-.117.205-.949.67-2.424.869-1.493.203-2.865.021-3.764-.497-.877-.507-1.571-1.446-2.064-2.417v-.002l-.003-.004c-.706-1.393-.997-2.851-.794-3.201l10.069-17.122.022-.032a18.754 18.754 0 004.224 3.259 19.91 19.91 0 004.594 1.879l-9.86 17.268zm13.94-24.813c-.726.869-1.743 1.447-2.832 1.756l-1.576.447a6.19 6.19 0 01-2.887-.832.502.502 0 00-.683.183.498.498 0 00.183.683 7.18 7.18 0 003.603.973c.089 0 .177-.015.266-.019l.933.816c1.91 1.667 2.146 2.654 2.133 2.765-.094.077-.636.248-1.851.038l-.64-.11a18.87 18.87 0 01-4.835-1.906c-2.236-1.252-3.842-2.842-4.794-3.956-.02-.023-.046-.035-.069-.054-.504-.618-.714-1.054-.789-1.286.617-.089 1.904-.049 3.041.113l1.936.276L35.772 11a5.426 5.426 0 01.679-4.608c1.393-2.102 4.15-3.004 6.503-2.096 1.689.651 2.903 2.015 3.358 3.713.464 1.731.068 3.556-1.118 4.976z"/></g></svg>