<svg xmlns="http://www.w3.org/2000/svg" id="Layer_1" x="0" y="0" version="1.1" viewBox="0 0 50 50" xml:space="preserve"><style>.st2{fill:#031326}</style><path fill="#a475ef" d="M47.7 26.3l.5 4.3L1.8 47.5l.1-9.1.4-5.2 46.2-16.8-.8 3.7z"/><path fill="#bf94f7" d="M47.7 9.7l-.5 7.7L1.9 33.9v-9.8l.4-4.5L47.9 3z"/><path d="M32.9 49.5H1.6c-.7 0-1.2-.6-1.2-1.2V1.7C.4 1 1 .5 1.6.5h46.9c.7 0 1.2.6 1.2 1.2v36.1c0 .7-.6 1.2-1.2 1.2s-1.2-.6-1.2-1.2V3H2.8v44h30.1c.7 0 1.2.6 1.2 1.2s-.5 1.3-1.2 1.3zm-7.2-24.3h-.1z" class="st2"/><path d="M41.2 8.8c-1.8 0-3.2 1.4-3.2 3.2 0 .6.2 1.1.5 1.6L25.7 25.2h-.1L12.5 37.1c-.5-.3-1-.4-1.6-.4-1.8 0-3.2 1.4-3.2 3.2 0 1.8 1.4 3.2 3.2 3.2s3.2-1.4 3.2-3.2c0-.6-.2-1.2-.5-1.7l26-23.5c.5.3 1.1.5 1.7.5 1.8 0 3.2-1.4 3.2-3.2-.1-1.8-1.5-3.2-3.3-3.2zM10.9 41.5c-.9 0-1.7-.8-1.7-1.7 0-.9.8-1.7 1.7-1.7s1.7.8 1.7 1.7c0 1-.8 1.7-1.7 1.7zm30.3-27.9c-.9 0-1.7-.8-1.7-1.7 0-.9.8-1.7 1.7-1.7s1.7.8 1.7 1.7c0 1-.7 1.7-1.7 1.7z" class="st2"/><path d="M25.7 25.2h-.1l-4.5.3-.3-4.5 4.6-.3zm0 0h-.1z" class="st2"/></svg>