<svg xmlns="http://www.w3.org/2000/svg" id="Layer_1" x="0" y="0" version="1.1" viewBox="0 0 50 50" xml:space="preserve"><style>.st4{fill:#031326}</style><path fill="#9674ea" d="M13.5 39.4c1.1.2 2.4-.2 3.2-.9.4-.4.8-.9 1-1.6.8.6 1.6 1.1 2.4 1.5l28.1-10.2c-.2-1.9-1.5-3.5-3.4-3.8h-.2v-.7c.4-.5.8-.9 1.2-1.4 4.4-4.9 2.2-10.9-2.9-15.1l-30.4 11c-.4 1-.7 2-.9 3.1-.8 4.2.2 8.3 2.3 11.6-.5.1-1.1.2-1.6.7-1 .7-1.5 2-1.3 3.2-2.4 1.6-5.6 4.1-7.6 6.2-.7.7-1.1 1.4-1.4 2l9.6-3.5c.7-.7 1.3-1.5 1.9-2.1z"/><path fill="#b292f3" d="M31.6 2c-9.3-1.7-18 4.6-19.4 14-.1.9-.2 1.9-.2 2.8-.1.2-.1.3-.2.5l32-11.7C40.5 4.9 36.2 2.8 31.6 2z"/><path d="M36.9 33.4c-.1.5-.8.7-1.7.6-.8-.1-1.4-.6-1.4-1.1.1-.5.8-.7 1.7-.6.9.2 1.5.6 1.4 1.1zm-19.6-3.3c-.1.5-.8.7-1.7.6-.8-.1-1.4-.6-1.4-1.1.1-.5.8-.7 1.7-.6.9.2 1.5.7 1.4 1.1zM35.1 29l1.2.4-.8-.9z" class="st4"/><path d="M29.1 27.2l-.1.1.1-.1-.1.1.1-.1s.3.5.7.9c.2.2.5.5.8.7s.7.4 1.1.5c.2.1.5.1.8.1.4 0 .9-.1 1.4-.4s1.1-.7 1.7-1.2c.2-.2.5-.2.6 0s.2.4 0 .6c-.9.8-1.7 1.4-2.5 1.7-.4.1-.8.2-1.2.2s-.7 0-1.1-.1c-.5-.1-1-.3-1.4-.6-.6-.4-1.1-.9-1.4-1.2-.3-.4-.5-.7-.5-.7-.1-.2 0-.5.2-.6.4-.2.7-.1.8.1zm-14.9-1.9l-1.3-.1 1.1-.6z" class="st4"/><path d="M20.9 26s-.5.3-1.1.6c-.3.1-.7.3-1.1.3-.4.1-.8.1-1.3 0-.3-.1-.5-.1-.8-.3-.4-.2-.8-.5-1.2-1s-.8-1.1-1.1-1.9c-.1-.2-.4-.4-.6-.3-.3.1-.4.3-.3.6.5 1.2 1.1 2.1 1.7 2.7.3.3.7.5 1 .7.4.2.7.3 1.1.4.6.1 1.2.1 1.7 0 .8-.1 1.4-.4 1.9-.7.5-.2.8-.5.8-.5.2-.2.2-.4.1-.6-.2-.1-.5-.1-.8 0zm4.3 8.8h-.1c-.8 0-1.7-.3-2.4-.9-.6-.4-.9-.8-.9-.8-.1-.1-.2-.3-.1-.5 0-.2.1-.3.2-.4.1-.1.3-.2.5-.1.2 0 .3.1.4.2l.2.2c.1.1.3.3.5.4.4.3 1 .6 1.7.6.3 0 .7 0 1-.2.4-.1.8-.4 1.2-.7.3-.2.7-.2.9.1.2.3.2.7-.1.9-.5.4-1 .7-1.6.9-.5.2-.9.3-1.4.3zM22 32.9zm.5-.5l-.4.3.4-.3z" class="st4"/><path d="M48.5 25.3c-.4-.5-.8-1-1.3-1.3.1-.1.2-.3.2-.4.9-2.3 2.8-8.2.1-13.5-1.9-3.8-5.7-6.5-11.2-7.9C28.3 0 22 .5 17.5 3.6c-4 2.8-6.4 7.8-7 14.3l-.1 1.2.5.1c-.2.6-.3 1.3-.5 1.9-.7 3.8-.1 7.8 1.7 11.2-.2.1-.4.2-.5.4-1.1.8-1.8 2.2-1.9 3.6-1.6 1.1-5.1 3.7-7.2 6-1.3 1.4-1.9 2.6-2 3.6-.1.9.2 1.8.7 2.4.6.6 1.4 1 2.2 1h.1c1.1 0 2.3-.6 3.8-1.7 2.6-2 5.4-5.2 6.7-6.8 1.3.1 2.5-.4 3.5-1.3.2-.2.4-.4.6-.7 2 1.3 4.4 2.2 6.8 2.5 6.7 1 13.4-1.7 17.5-7.1.2.1.5.1.7.2 2.9.5 5.8-1.7 6.3-4.7.3-1.6 0-3.2-.9-4.4zM18.9 5.7c3.9-2.7 9.5-3.1 16.7-1.2 4.8 1.3 8.1 3.5 9.6 6.6 2.2 4.3.6 9.4-.1 11.2l-1.7-.3v.5l-1.4-.2c-.1 0-.2-.1-.2-.1L40 17.1l-3.2 4.1c-.1.1-.2.2-.4.2l-5.5-.9c-.1 0-.2-.1-.2-.2l-1.5-4.5-2.9 3.7c-.1.1-.2.1-.3.1l-7.1-1.2c-.1 0-.2-.1-.2-.2l-1.4-4.1-2.8 3.5-.4-.1.2-.5h-1.2c.7-5.3 2.6-9.1 5.8-11.3zm-7.4 32.6c.2.2.3.4.5.6l-.3.3-.6-.7c.1-.1.2-.2.4-.2zm-5.7 7.2c-1.4 1-2.1 1.2-2.4 1.2-.2 0-.3 0-.4-.1v-.4c0-.4.3-1.1 1.4-2.3 1.3-1.5 3.4-3.2 5.3-4.6l1.2 1.2c-1.6 1.8-3.5 3.8-5.1 5zm11-9.6l-.2.5c-.2.5-.5.9-.7 1.1-.6.5-1.4.8-2.1.6h-.2c-.5-.3-.9-.7-1.1-1.2v-.2c-.1-.8.2-1.6.9-2.1.6-.4 1.1-.5 1.8-.5.6 0 1.3 0 2-.4-.2.8-.2 1.5-.4 2.2zM47 29.1c-.3 1.7-1.9 3-3.5 2.7-.3 0-.6-.2-.9-.3l-1-.6-.6 1c-3.4 5.1-9.6 7.8-15.6 6.8-2.2-.3-4.3-1.1-6.1-2.4.4-1.5.4-3.1-.2-4.5-.2-.5-.7-.9-1.2-1-.6-.1-1.1 0-1.5.4-.3.3-.7.3-1.4.4h-.2c-1.8-3-2.5-6.6-1.8-10.1.1-.8.4-1.6.7-2.4l1.6.3 1.6-2 .5 1.5c.2.6.7 1.1 1.4 1.2l7.1 1.2c.7.1 1.3-.2 1.8-.7l1.2-1.5.6 1.9c.2.6.7 1.1 1.4 1.2l5.5.9c.7.1 1.4-.2 1.8-.7l1.5-2 .8 2.5c.2.6.7 1 1.4 1.1l1.8.3v.2l-.1 1.2 1.2.1h.2c.7.1 1.3.5 1.7 1.1.3.5.5 1.4.3 2.2z" class="st4"/><path fill="none" d="M16.7 38.5c-.8.8-2.1 1.2-3.2.9-.5.7-1.1 1.4-1.8 2.1l8.5-3.1c-.9-.4-1.7-.9-2.4-1.5-.3.6-.7 1.2-1.1 1.6z"/><path d="M42.9 27.8s.3-.4.6-.7c.2-.2.4-.3.6-.4.2-.1.4-.2.7-.2.2 0 .5.1.7.3.3.2.5.6.8 1.1 0 .1.1.1.2.1s.1-.1.1-.2c-.3-.6-.5-.9-.8-1.2-.3-.3-.6-.4-.9-.4-.3 0-.6.1-.9.2-.4.2-.7.5-1 .8-.2.3-.4.5-.4.5 0 .1 0 .2.1.2s.2 0 .2-.1z" class="st4"/><path d="M45.1 29.4c-.2 1.1-1 1.8-1.9 1.7-.9-.1-1.4-1.1-1.2-2.2s1-1.8 1.9-1.7c.8.1 1.4 1.1 1.2 2.2z" class="st4"/></svg>