<svg xmlns="http://www.w3.org/2000/svg" id="Layer_1" x="0" y="0" version="1.1" viewBox="0 0 50 50" xml:space="preserve"><style>.st2{fill:#444}</style><path fill="#a475ef" d="M46.2 34.3v-27c0-1.9-1.6-3.5-3.5-3.5H7.2c-1.9 0-3.5 1.6-3.5 3.5v35.5c0 1.9 1.6 3.5 3.5 3.5h6.1l32.9-12"/><path fill="#bf94f7" d="M39.3 3.7h-32c-1.9 0-3.5 1.6-3.5 3.5v9.4L39.3 3.7z"/><path d="M42.8 2.5H7.2c-2.6 0-4.7 2.1-4.7 4.7v35.5c0 2.6 2.1 4.7 4.7 4.7h30.3c.7 0 1.2-.6 1.2-1.2s-.5-1.2-1.1-1.2H7.2C6 45 5 44 5 42.8V7.2C5 6 6 5 7.2 5h35.5C44 5 45 6 45 7.2v27c0 .7.6 1.2 1.2 1.2s1.2-.6 1.2-1.2v-27c.1-2.6-2-4.7-4.6-4.7z" class="st2"/><path d="M40.4 7.3H9.6c-1.2 0-2.2 1-2.2 2.2v30.9c0 1.2 1 2.2 2.2 2.2h30.9c1.2 0 2.2-1 2.2-2.2V9.6c0-1.3-1-2.3-2.3-2.3zm1.8 33.1c0 .9-.8 1.7-1.7 1.7H9.6c-.9 0-1.7-.8-1.7-1.7V9.6c0-.9.8-1.7 1.7-1.7h30.9c.9 0 1.7.8 1.7 1.7v30.8z" class="st2"/><path d="M34.5 20.6c-2.6 0-4.9.7-5.9 1.1-.1 0-.1.1-.1.2.1.9.1 1.4.1 1.6v10.3c0 .1.1.2.2.2h2.5c.1 0 .2-.1.2-.2V23.5c.6-.2 2-.4 3.1-.3.1 0 .2 0 .2-.2v-2.3c-.1-.1-.2-.1-.3-.1zm-14.9-4.5c-1.6 0-3.1 0-4.2.1-.1 0-.2.1-.2.2v17.4c0 .1.1.2.2.2H18c.1 0 .2-.1.2-.2v-6.2h1.3c3.7 0 6.6-1.8 6.6-5.9 0-3.2-2-5.6-6.5-5.6zm-.1 8.9h-1.3v-6.3h1.6c2.2 0 3.4 1 3.4 3.1 0 2.5-1.8 3.2-3.7 3.2z" class="st2"/></svg>