<svg xmlns="http://www.w3.org/2000/svg" id="Camada_3" x="0" y="0" version="1.1" viewBox="0 0 50 50" xml:space="preserve"><style>.st3{stroke-width:.5;fill:none;stroke:#444;stroke-linecap:round;stroke-linejoin:round;stroke-miterlimit:10}</style><path fill="#f56991" d="M34.53 7.71V2.99H6.91v18.66l27.62-9.83z"/><path fill="#dc5e82" d="M6.08 31.09l.24 15.46 28.51-10.14-.67-5.7 7.25-7.05 2.14-3.8c.06-.69-.46-6.62-1.08-6.92l-4.79-.61-3.44 1.01-.31-1.51-27.6 9.82.18 3.14"/><path fill="none" stroke="#444" stroke-linecap="round" stroke-linejoin="round" stroke-miterlimit="10" stroke-width="2.5" d="M34.16 12.32V4.26c0-1.24-1-2.24-2.24-2.24H8.44C7.2 2.02 6.2 3.03 6.2 4.26v42.49c0 1.24 1 2.24 2.24 2.24h23.48c1.24 0 2.24-1 2.24-2.24V32.23"/><path d="M30.99 15.34V7.35H9.37l.02 7.58.06 25.34v5.35h21.54V34.05M22.32 5.79h-4.27c-.38 0-.69-.31-.69-.69 0-.38.31-.69.69-.69h4.27c.38 0 .69.31.69.69 0 .38-.31.69-.69.69zm12.82 26.38v-2.24m0-17.04v-2.24m-1.98 3.41v-2.24m1.67 20.33v-1.98m-1.41-16.05v-2.24M12.73 39.12l-1.95-.28m5.27-2.93l.21-1.46m3.71 5.37l1.95.27m-4.08 1.54l1.19 1.57m-3.38-1l-.27 1.95m-1.68-3.1l-1.57 1.18" class="st3"/><path fill="none" stroke="#444" stroke-linecap="round" stroke-linejoin="round" stroke-miterlimit="10" d="M15.87 39.85l26.6-26.59M19.84 35.89l-.47-2.28a9.53 9.53 0 012.58-8.66l9.73-9.73a9.512 9.512 0 018.14-2.68l3.1.47-23.08 22.88zm.26.33l2.28.47a9.53 9.53 0 008.66-2.58l9.73-9.73a9.512 9.512 0 002.68-8.14l-.47-3.1L20.1 36.22z"/><path d="M33.65 13.71l1.87 6.63m-5.92-2.58l1.87 6.63m-3.87-4.53l1.86 6.63m-7.44-1.05l1.86 6.63m11.81-3.35l-6.52-2.23m11-1.72l-6.52-2.23m-3.17 11.92l-6.51-2.23m19.18-11.85l-5.46-1.87m-25.54-7.86c7.9 1.12 9.18 2.7 9.84 3.49 1.9 2.26 1.01 6.94-4.72 8.7-6.3 1.94-5.67 5.56-5.63 6.22.12 1.79.68 3.17 1.78 4.04 0 0 1.39 1.14 2.09.25.88-1.11-.91-1.92-.91-1.92s-4.94-2.09.01 7.21" class="st3"/></svg>