<svg xmlns="http://www.w3.org/2000/svg" version="1" viewBox="0 0 50 50"><path fill="#FCC34F" d="M15.232 44.514l26.326-9.582a17.18 17.18 0 00.629-4.552c0-7.597-4.935-14.032-11.77-16.303V7.85a5.418 5.418 0 00-10.836 0v6.227c-6.835 2.271-11.77 8.705-11.77 16.303.001 5.862 2.941 11.032 7.421 14.134z"/><path fill="#FDCF72" d="M30.405 7.406a5.415 5.415 0 00-10.813.445v3.491l10.813-3.936z"/><path fill="#031326" d="M31.668 13.199V7.85c0-3.677-2.991-6.668-6.668-6.668s-6.668 2.991-6.668 6.668v5.349A18.404 18.404 0 006.562 30.38c0 10.166 8.271 18.438 18.438 18.438a1.25 1.25 0 000-2.5c-8.788 0-15.938-7.149-15.938-15.938a15.91 15.91 0 0110.914-15.116l.856-.284v-.029a16.648 16.648 0 012.042-.382l-3.316 14.528a.485.485 0 00-.047.207l-.42 1.839a.5.5 0 10.975.223l.418-1.831.486-.487.99.99 1.007-1.007 1.043 1.043.982-.982.965.966.99-.99 1.007 1.007 1.043-1.043.518.518.415 1.816a.501.501 0 00.598.376.499.499 0 00.376-.599l-.425-1.864a.502.502 0 00-.038-.166L27.12 14.568c.69.087 1.374.21 2.047.383v.029l.855.284A15.91 15.91 0 0140.936 30.38c0 1.435-.19 2.854-.564 4.221a1.25 1.25 0 102.41.662c.435-1.582.654-3.226.654-4.883a18.4 18.4 0 00-11.768-17.181zM25 3.682a4.173 4.173 0 014.168 4.168v3.008a18.184 18.184 0 00-8.336 0V7.85A4.173 4.173 0 0125 3.682zm4.098 24.035l-.1-.1-1.043 1.043-1.007-1.007-.99.99-.583-.583c-.009-.011-.013-.025-.023-.035a.5.5 0 00-.707 0l-.635.635-1.043-1.043-1.007 1.007-.99-.99-.068.068 3.022-13.237a16.934 16.934 0 012.149 0l3.025 13.252zm-2.507-14.218c-.026-.006-.052-.007-.078-.009a18.022 18.022 0 00-3.029 0c-.027.002-.053.003-.079.009-.866.077-1.727.213-2.573.416v-1.506a16.646 16.646 0 018.336 0v1.506a17.67 17.67 0 00-2.577-.416z"/></svg>