<svg xmlns="http://www.w3.org/2000/svg" id="Camada_1" x="0" y="0" version="1.1" viewBox="0 0 50 50" xml:space="preserve"><style>.st2{fill:#031326}</style><path fill="#e589ef" d="M47.9 25c0-7-3.2-13.3-8.1-17.5L2.5 21.1c-.2 1.3-.3 2.6-.3 3.9 0 7.4 3.5 13.9 8.9 18.1l36.3-13.2c.3-1.6.5-3.2.5-4.9z"/><path fill="#f799ff" d="M25.1 1.8c-11.7 0-21.5 8.5-23.4 19.7L40.5 7.4C36.3 3.9 31 1.8 25.1 1.8z"/><path d="M25.7 21.1c0 2-.6 3.5-1.9 4.5-1.3 1.1-3.1 1.6-5.5 1.6h-2v6.9c0 .1-.1.2-.2.2h-2.7c-.1 0-.2-.1-.2-.2V15.6c0-.1.1-.2.2-.2h5.3c2.4 0 4.1.5 5.3 1.4 1.1 1 1.7 2.4 1.7 4.3zm-9.5 3.6h1.6c1.6 0 2.8-.3 3.5-.8.7-.6 1.1-1.4 1.1-2.6 0-1.1-.3-1.9-1-2.4s-1.7-.8-3.1-.8h-2.1v6.6zm20.7 5.6c0 1.4-.5 2.5-1.5 3.2-1 .7-2.5 1.1-4.4 1.1-1.9 0-3.4-.3-4.5-.8-.1 0-.1-.1-.1-.2v-2.2c0-.1.1-.2.2-.2 1.6.7 3.1 1.1 4.5 1.1 1.9 0 2.8-.6 2.8-1.7 0-.4-.1-.7-.3-.9-.2-.2-.5-.5-1-.8-.5-.3-1.1-.6-2-.9-1.6-.6-2.8-1.3-3.3-1.9-.6-.6-.9-1.5-.9-2.5 0-1.2.5-2.2 1.5-2.9 1-.7 2.3-1 4-1 1.6 0 3.2.3 4.6.9.1 0 .1.1.1.2l-.8 2c0 .1-.1.1-.2.1-1.5-.6-2.7-.9-3.7-.9-1.6 0-2.4.5-2.4 1.4 0 .4.2.8.6 1.1.4.3 1.3.7 2.7 1.3 1.2.5 2 .9 2.6 1.3.5.4.9.8 1.2 1.3.1.6.3 1.2.3 1.9z" class="st2"/><path d="M25 49.1C11.7 49.1.9 38.3.9 25S11.7.9 25 .9 49.1 11.7 49.1 25c0 1.7-.2 3.5-.6 5.2-.1.7-.8 1.1-1.5 1-.7-.1-1.1-.8-1-1.5.3-1.5.5-3.1.5-4.6 0-11.9-9.7-21.6-21.6-21.6S3.4 13.1 3.4 25 13.1 46.6 25 46.6c4.1 0 8.2-1.2 11.6-3.4.6-.4 1.4-.2 1.7.4.4.6.2 1.4-.4 1.7-3.8 2.5-8.3 3.8-12.9 3.8z" class="st2"/><path d="M25 44.8C14.1 44.8 5.2 35.9 5.2 25S14.1 5.2 25 5.2 44.8 14.1 44.8 25 35.9 44.8 25 44.8zm0-38.6C14.6 6.2 6.2 14.6 6.2 25S14.6 43.8 25 43.8 43.8 35.4 43.8 25 35.4 6.2 25 6.2z" class="st2"/></svg>