<svg xmlns="http://www.w3.org/2000/svg" id="Camada_1" x="0" y="0" version="1.1" viewBox="0 0 50 50" xml:space="preserve"><style>.st3{fill:none;stroke:#494949;stroke-linecap:round;stroke-linejoin:round;stroke-miterlimit:10}</style><path fill="#afe55d" d="M46.7 26.2l.4 4.1L2.8 46.4l.2-8.6.3-5 44.1-16-.7 3.5z"/><path fill="#c3ff68" d="M46.7 10.4l-.5 7.3L3 33.5v-9.4l.3-4.2L46.8 4z"/><path fill="none" stroke="#444" stroke-linecap="round" stroke-linejoin="round" stroke-miterlimit="10" stroke-width="2.5" d="M32.6 47.2h-30V2.8h44.8v34.4"/><path d="M14 32h3.8v3.8H14zm21.4-21.3h3.8v3.8h-3.8z" class="st3"/><path d="M18.6 15.3h3.8v3.8h-3.8z" class="st3" transform="rotate(-40.747 20.522 17.18)"/><path d="M21.8 15.5l6.9-6.6M11.4 25.4l7.6-7.2-7.6 7.2z" class="st3"/><circle cx="29.7" cy="8" r="1.3" class="st3"/><circle cx="10.4" cy="26.4" r="1.3" class="st3"/><path d="M19.3 18.8c-2.1 2.7-3.4 6.2-3.4 9.9V32m19.5-19.4H32c-3.7 0-7.2 1.3-10 3.5" class="st3"/><path fill="none" stroke="#494949" stroke-linecap="round" stroke-linejoin="round" stroke-miterlimit="10" stroke-width=".5" d="M27.2 40.3h13.7M27.2 25.9h13.7"/><path d="M28.9 23.2h10.3c.9 0 1.7.8 1.7 1.7V42c0 .9-.8 1.7-1.7 1.7H28.9c-.9 0-1.7-.8-1.7-1.7V24.9c0-1 .7-1.7 1.7-1.7z" class="st3"/></svg>