<svg xmlns="http://www.w3.org/2000/svg" id="Layer_1" x="0" y="0" version="1.1" viewBox="0 0 50 50" xml:space="preserve"><style>.st2{fill:#031326}</style><path fill="#a475ef" d="M47.5 26.3l.4 4.2L2.1 47.2l.1-9 .4-5.1 45.6-16.6-.7 3.6z"/><path fill="#bf94f7" d="M47.5 9.8l-.6 7.7L2.2 33.7v-9.6l.3-4.4L47.6 3.3z"/><path d="M32.9 49.3h-31c-.7 0-1.2-.6-1.2-1.2V2c0-.7.6-1.2 1.2-1.2h46.3c.7 0 1.2.6 1.2 1.2v35.7c0 .7-.6 1.2-1.2 1.2s-1.2-.6-1.2-1.2V3.2H3.1v43.5h29.8c.7 0 1.2.6 1.2 1.2s-.6 1.4-1.2 1.4z" class="st2"/><path d="M40.6 11.6c1.2 0 2.2-1 2.2-2.2s-1-2.2-2.2-2.2c-1.2 0-2.2 1-2.2 2.2 0 1.2 1 2.2 2.2 2.2zm0-3.3c.6 0 1.1.5 1.1 1.1 0 .6-.5 1.1-1.1 1.1-.6 0-1.1-.5-1.1-1.1-.1-.6.5-1.1 1.1-1.1zM14.7 40.1H13c-.3 0-.5.2-.5.5s.2.5.5.5h1.7c.3 0 .5-.2.5-.5s-.2-.5-.5-.5zm13.4 0h-1.7c-.3 0-.5.2-.5.5s.2.5.5.5h1.7c.3 0 .5-.2.5-.5s-.2-.5-.5-.5zm-8.9 0h-1.7c-.3 0-.5.2-.5.5s.2.5.5.5h1.7c.3 0 .5-.2.5-.5s-.2-.5-.5-.5zm4.4 0h-1.7c-.3 0-.5.2-.5.5s.2.5.5.5h1.7c.3 0 .5-.2.5-.5.1-.3-.2-.5-.5-.5zm13.4 0h-1.7c-.3 0-.5.2-.5.5s.2.5.5.5H37c.3 0 .5-.2.5-.5s-.2-.5-.5-.5zm-4.4 0h-1.7c-.3 0-.5.2-.5.5s.2.5.5.5h1.7c.3 0 .5-.2.5-.5s-.2-.5-.5-.5zM9.9 26.4c0-.3-.2-.5-.5-.5s-.5.2-.5.5v1.7c0 .3.2.5.5.5s.5-.2.5-.5v-1.7zm0-4.5c0-.3-.2-.5-.5-.5s-.5.2-.5.5v1.7c0 .3.2.5.5.5s.5-.2.5-.5v-1.7zm0 8.9c0-.3-.2-.5-.5-.5s-.5.2-.5.5v1.7c0 .3.2.5.5.5s.5-.2.5-.5v-1.7zm-.5 4c-.3 0-.5.2-.5.5V37c0 .3.2.5.5.5s.5-.2.5-.5v-1.7c0-.3-.2-.5-.5-.5zM9.9 13c0-.3-.2-.5-.5-.5s-.5.2-.5.5v1.7c0 .3.2.5.5.5s.5-.2.5-.5V13zm0 4.4c0-.3-.2-.5-.5-.5s-.5.2-.5.5v1.7c0 .3.2.5.5.5s.5-.2.5-.5v-1.7zm7.6-7.5h1.7c.3 0 .5-.2.5-.5s-.2-.5-.5-.5h-1.7c-.3 0-.5.2-.5.5s.2.5.5.5zm17.8 0H37c.3 0 .5-.2.5-.5s-.2-.5-.5-.5h-1.7c-.3 0-.5.2-.5.5s.2.5.5.5zm-13.4 0h1.7c.3 0 .5-.2.5-.5s-.2-.5-.5-.5h-1.7c-.3 0-.5.2-.5.5s.2.5.5.5zm4.5 0h1.7c.3 0 .5-.2.5-.5s-.2-.5-.5-.5h-1.7c-.3 0-.5.2-.5.5s.2.5.5.5zm4.4 0h1.7c.3 0 .5-.2.5-.5s-.2-.5-.5-.5h-1.7c-.3 0-.5.2-.5.5s.3.5.5.5zM13 9.9h1.7c.3 0 .5-.2.5-.5s-.2-.5-.5-.5H13c-.3 0-.5.2-.5.5s.2.5.5.5zm28.2 16.5c0-.3-.2-.5-.5-.5s-.5.2-.5.5v1.7c0 .3.2.5.5.5s.5-.2.5-.5v-1.7zm0-4.5c0-.3-.2-.5-.5-.5s-.5.2-.5.5v1.7c0 .3.2.5.5.5s.5-.2.5-.5v-1.7zm-.6 12.9c-.3 0-.5.2-.5.5V37c0 .3.2.5.5.5s.5-.2.5-.5v-1.7c.1-.3-.2-.5-.5-.5zm.6-4c0-.3-.2-.5-.5-.5s-.5.2-.5.5v1.7c0 .3.2.5.5.5s.5-.2.5-.5v-1.7zm0-13.4c0-.3-.2-.5-.5-.5s-.5.2-.5.5v1.7c0 .3.2.5.5.5s.5-.2.5-.5v-1.7zm0-4.4c0-.3-.2-.5-.5-.5s-.5.2-.5.5v1.7c0 .3.2.5.5.5s.5-.2.5-.5V13zM9.5 11.6c1.2 0 2.2-1 2.2-2.2s-1-2.2-2.2-2.2-2.2 1-2.2 2.2c0 1.2 1 2.2 2.2 2.2zm0-3.3c.6 0 1.1.5 1.1 1.1 0 .6-.5 1.1-1.1 1.1-.6 0-1.1-.5-1.1-1.1-.1-.6.4-1.1 1.1-1.1zm31.1 30.1c-1.2 0-2.2 1-2.2 2.2s1 2.2 2.2 2.2 2.2-1 2.2-2.2c-.1-1.2-1-2.2-2.2-2.2zm0 3.3c-.6 0-1.1-.5-1.1-1.1s.5-1.1 1.1-1.1c.6 0 1.1.5 1.1 1.1 0 .6-.5 1.1-1.1 1.1zM9.5 38.4c-1.2 0-2.2 1-2.2 2.2s1 2.2 2.2 2.2c1.2 0 2.2-1 2.2-2.2-.1-1.2-1.1-2.2-2.2-2.2zm0 3.3c-.6 0-1.1-.5-1.1-1.1s.5-1.1 1.1-1.1c.6 0 1.1.5 1.1 1.1 0 .6-.5 1.1-1.1 1.1zm29.2-28c0-1-.8-1.8-1.8-1.8H13.2c-1 0-1.8.8-1.8 1.8v1.8c0 .3.2.5.5.5s.5-.2.5-.5v-1.8c0-.4.4-.8.8-.8h23.7c.4 0 .8.4.8.8v12.9l-2.2-1.4c-.2-.2-.6-.1-.7.2-.2.2-.1.6.2.7l2.7 1.7v8.4c0 .4-.4.8-.8.8h-4v-4c0-1.1-.5-2.2-1.4-2.9L26 26l3.5-2c.6-.4 1.4-.4 2.1 0l1.3.8c.2.2.6.1.7-.2.2-.2.1-.6-.2-.7l-1.3-.8c-1-.6-2.2-.6-3.1-.1l-3.9 2.2-4.6-3.6c-1-.7-2.3-.8-3.3-.3L12.4 24v-6c0-.3-.2-.5-.5-.5s-.5.2-.5.5v18.3c0 1 .8 1.8 1.8 1.8h23.7c1 0 1.8-.8 1.8-1.8V13.7zm-6.9 23.4H13.2c-.4 0-.8-.4-.8-.8v-11l5.3-2.9c.7-.4 1.6-.3 2.2.2L30.8 31c.6.5 1 1.3 1 2.1v4z" class="st2"/><path d="M32.1 20.7c1.7 0 3.1-1.4 3.1-3.1 0-1.7-1.4-3.1-3.1-3.1-1.7 0-3.1 1.4-3.1 3.1 0 1.7 1.4 3.1 3.1 3.1zm0-5.2c1.1 0 2.1.9 2.1 2.1 0 1.1-.9 2.1-2.1 2.1-1.1 0-2.1-.9-2.1-2.1 0-1.2 1-2.1 2.1-2.1z" class="st2"/></svg>