<svg xmlns="http://www.w3.org/2000/svg" id="Layer_1" x="0" y="0" version="1.1" viewBox="0 0 50 50" xml:space="preserve"><style>.st2{fill:#031326}</style><path fill="#ff6b6b" d="M42.9 12.5l-.2 6.9L6.8 32.5l-.4-8.8.1-3.9L42.7 6.6z"/><path fill="#e56060" d="M43.3 27.4l.5 3.9L7.1 44.6l-.2-8.1.1-4.6 36.5-13.3-.4 3.3z"/><g id="surface1"><path d="M31.1 15.7c0 .2-.1.4-.3.6-.2.2-.4.3-.7.3-.5 0-.9-.4-1-1 0-.2.1-.4.3-.6.2-.2.4-.3.7-.3.6.1 1 .5 1 1z" class="st2"/><path d="M20.6 10.8v16.4h17.2V10.8H20.6zm1.4 9.4l3.2-2.2 3.3 3-6.5 4.2v-5zm14.4 5.6H23.7l8.5-5.5 4.2 3.9v1.6zm0-3.5l-4.1-3.7-2.6 1.7-4.4-4-3.3 2.2v-6.4h14.4v10.2zm-15.7 9.1h17v1.4h-17zm0 5.2h17V38h-17z" class="st2"/><path d="M16.7 4.6l-.1-.2c-.6-2.3-2.8-4-5.2-4C8.4.4 6 2.9 6 5.9l.1 36.3v.3c-.1.3-.1.5-.1.8 0 3.4 2.8 6.2 6.2 6.2h28.7v-5.2H44V4.6H16.7zM8.4 5.9c0-1.7 1.4-3 3-3 1.7 0 3 1.4 3 3v33l-.4-.3c-1.6-.9-3.7-.9-5.3 0l-.4.2V5.9zm30 41.2H12.2c-2.1 0-3.8-1.7-3.8-3.8 0-1.7 1.4-3 3-3 1.7 0 3 1.4 3 3v1h24v2.8zm3.2-5.1H16.8V7h24.8v35z" class="st2"/></g></svg>