<svg xmlns="http://www.w3.org/2000/svg" id="Layer_1" x="0" y="0" version="1.1" viewBox="0 0 50 50" xml:space="preserve"><style>.st2{fill:#031326}</style><path fill="#e589ef" d="M49.7 8.7v11l-1.6.6-1.6.6-1.6.6-3.2 1.2-1.6.6-1.6.6-5.5 2-4.4 1.6-4.4 1.6-4.2 1.4-4.3 1.6-12.5 4.5-1.8.6C.7 36.5.3 35.5.3 34.4v-7.8l1.6-.6 9.5-3.5 1.6-.6 1.6-.6 1.6-.6 3.2-1.2 3.2-1.2 3.2-1.2 1.6-.6 1.6-.6 2.5-.9 1.3-.5 1.6-.6 3.8-1.4 1.9-.7 4.7-1.7 1.6-.6 1.6-.6 1.7-.2z"/><path fill="#f799ff" d="M49.7 4.3v4.9l-1.6.6-1.6.6-1.6.6-4.6 1.7-2.2.8-3.4 1.2-1.6.6-2.4.7-1.7.7-1.6.6-1.6.6-3.2 1.1-1.1.4-.5.2-1.6.6-3.2 1.2-1.6.6-1.6.6-1.5.4L2 26.5l-1.6.6v-9.3L.8 16l1.2-.4 9.5-3.5 1.6-.6 1.6-.6 1.6-.6 1.4-.5L22 8.2l4.4-1.6L30.7 5l8.7-3.2L43.8.2h1.8c2.3.1 4.1 1.9 4.1 4.1z"/><g id="Layer_22"><path d="M45.7.3H15.4c-2.2 0-4 1.8-4 4v2.4H4.3c-2.2 0-4 1.8-4 4v23.9c0 1.1.4 2.1 1.1 2.8.7.7 1.7 1.2 2.9 1.2h11.1v4.8h-1.6c-2.2 0-4 1.8-4 4V49c0 .4.3.8.8.8h20.7c.4 0 .8-.4.8-.8v-1.6c0-2.2-1.8-4-4-4h-1.6v-4.8h11.1c2.2 0 4-1.8 4-4V29h4c2.2 0 4-1.8 4-4V4.3c.1-2.2-1.7-4-3.9-4zm-32.6 4c0-1.3 1.1-2.4 2.4-2.4h30.2c1.3 0 2.4 1.1 2.4 2.4V5h-35v-.7zm15.1 40.5c1.3 0 2.4 1.1 2.4 2.4v.8H11.5v-.8c0-1.3 1.1-2.4 2.4-2.4h14.3zM17 43.2v-4.8h8v4.8h-8zm23.1-8.7c0 1.3-1.1 2.4-2.4 2.4H4.3c-.4 0-.8-.1-1.1-.3-.8-.4-1.3-1.2-1.3-2.1v-2.4h38.2v2.4zm0-4H1.9V10.6c0-1.3 1.1-2.4 2.4-2.4h7.2v16.7c0 2.2 1.8 4 4 4h24.7v1.6zm8-5.6c0 1.3-1.1 2.4-2.4 2.4H15.4c-1.3 0-2.4-1.1-2.4-2.4V6.6h35v18.3z" class="st2"/><path d="M36.9 33.7h1.6v1.6h-1.6v-1.6zm-3.2 0h1.6v1.6h-1.6v-1.6zm-3.1 0h1.6v1.6h-1.6v-1.6zM45.7 8.2H15.4c-.4 0-.8.4-.8.8v15.9c0 .4.4.8.8.8h30.2c.4 0 .8-.4.8-.8V9c.1-.4-.3-.8-.7-.8zM21 22.6h3.2V21H21v-1.6h1.6v-1.6H21v-1.6h1.6v-1.6H21V13h4.8v11.1H21v-1.5zm12-5c-.2.1-.4.1-.6.1h-.6c-.2 0-.4 0-.6-.1-.4-.2-.7-.7-.7-1.2 0-.4.2-.7.5-.9.6-.3 1-.9 1.1-1.5l1.1 1.1c.3.3.5.8.5 1.3 0 .6-.2 1-.7 1.2zm-1.6 1.7c.2 0 .3 0 .5.1h.6c.2 0 .3 0 .5-.1v4.8h-1.6v-4.8zm7.1-1.5h1.6v6.4h-1.6v-6.4zm.3-1.6l.5-1.5.5 1.5h-1zm6.1 7.9h-3.2v-7.4L40.1 12c-.1-.4-.6-.6-1-.5-.2.1-.4.3-.5.5L37 16.7c0 .1-.1.2-.1.3v7.2h-2.4v-5.7c.5-.5.8-1.2.8-2 0-.9-.4-1.8-1-2.4l-2.4-2.4c-.2-.2-.6-.3-.9-.2-.3.1-.5.4-.5.7v1.7c0 .1-.1.2-.2.3-.9.4-1.4 1.3-1.4 2.3 0 .7.3 1.4.8 2v5.7h-2.4v-12c0-.4-.4-.8-.8-.8h-6.4c-.4 0-.8.4-.8.8v11.9h-3.2V9.8h28.6v14.3z" class="st2"/></g></svg>