<svg xmlns="http://www.w3.org/2000/svg" id="Layer_1" x="0" y="0" version="1.1" viewBox="0 0 50 50" xml:space="preserve"><style>.st2{fill:#031326}</style><path fill="#f799ff" d="M40 7.3C30.8-.6 17.1.1 8.7 8.7L48 23.5c-.3-6.1-3-12-8-16.2z"/><path fill="#e589ef" d="M42.5 39.6c4-4.7 5.8-10.5 5.5-16.2L8.7 8.7c-.3.3-.7.7-1 1.1C3.1 15.1 1.4 22 2.5 28.4l37.1 14c1.1-.8 2-1.7 2.9-2.8z"/><path d="M47.1 15.7c-.3-.6-1-.9-1.6-.7-.6.3-.9 1-.7 1.6 3.3 7.7 2 16.4-3.5 22.7-1.4 1.6-3 3.1-4.8 4.2l-.6-.3c-.5-.1-1-.1-1.5.1-.5-1.2-1.6-2-2.8-2.2-1.3-.3-2.5.1-3.5.9-.5-.6-1.2-1.1-2.1-1.2-.7-.1-1.4.1-2 .4-.1-1.1-.8-2-1.8-2.4-1-.4-2-.4-2.9.2.3-1.5 1.3-3.4 2.3-4.6l.2-.3-5.4-4.7-.2.3c-1 1.1-2.8 2.5-4.3 3 .2-.7.1-1.5-.4-2 .6-.8.9-1.9.7-2.9-.1-1-.7-1.9-1.5-2.6 1-1.3 1-3.1.1-4.5-.9-1.3-2.3-2-3.8-1.8.2-.8.2-1.7 0-2.5-.2-.7-.6-1.2-1.1-1.7.7-1.3 1.6-2.5 2.6-3.7 5.2-6.1 13.3-8.8 21.2-7 .7.1 1.3-.3 1.5-.9.2-.7-.3-1.3-.9-1.5-8.9-1.8-17.9 1.2-23.7 8C2.4 14.6.3 20.9.9 27.4c.5 6.4 3.5 12.2 8.4 16.3 4.4 3.8 9.9 5.8 15.7 5.8.6 0 1.3 0 1.9-.1 6.4-.5 12.3-3.5 16.5-8.4 5.9-7 7.4-16.7 3.7-25.3zM6.3 16.8c.3.8.2 1.8-.2 2.6l-.4.8.8-.3c1.8-.5 3.1.4 3.7 1.4.8 1.3.7 2.8-.3 3.9l-.3.3.4.2c.8.5 1.3 1.3 1.5 2.3.1.9-.1 1.9-.8 2.6l-.2.4.3.2c.6.5.7 1.4.2 2.1l-.7.7 1-.1c1.7-.2 4.1-1.9 5.3-3.2l4.3 3.7c-1.2 1.5-2.4 4-2.3 5.7v1l.6-.7c.8-1 2-.9 2.8-.6.7.3 1.6 1.2 1.4 2.5l-.1 1.1.8-.8c.5-.6 1.3-.8 2-.7.8.1 1.4.5 1.8 1.2l.3.5.3-.4c.8-.9 2-1.3 3.1-1 1.2.2 2.1 1.1 2.5 2.2l.2.5.4-.3c.4-.3.8-.4 1.2-.2-2.8 1.6-5.9 2.6-9.2 2.9-5.8.4-11.4-1.4-15.8-5.2-4.4-3.7-7-8.9-7.5-14.7-.3-4 .5-8 2.2-11.5.3 0 .6.4.7.9z" class="st2"/><path d="M44.8 3v-.8l-.8.1c-.6.1-14 2-22.4 11.7l-1.2 1.5c-5.1 1-9.7 4.8-11.3 10.4 2.1-1.3 4.5-2 6.9-2.1-.4 1-.7 2-1 3l-.1.5 1.6 1.3-1.1.5 3.6 3.1c-.2.3-.3.4-.3.4l.4-.4 3.6 3.1.3-1.2 1.6 1.3.4-.2c1-.4 1.9-.9 2.8-1.4.2 2.4-.1 4.8-1 7.1 5.3-2.4 8.3-7.5 8.6-12.7.5-.5.9-.9 1.3-1.4C45 17.2 44.8 3.6 44.8 3zm-9.3 22.9c-2.7 3.2-6.4 5.8-10.8 7.9l-3.9-3.4c3-3.1 8.1-8.4 8.4-8.7.3-.4.3-1-.1-1.3-.4-.3-1-.3-1.3.1-.2.3-4.7 6.1-7.3 9.6l-3.9-3.4C18 22 20 18 22.7 14.8c4-4.7 9.3-7.4 13.7-9.1C37.1 7 38 8 39 8.9c1 .9 2.2 1.6 3.3 2.2-.9 4.5-2.8 10.2-6.8 14.8z" class="st2"/><path d="M33.7 20c-1.1 0-2.3-.4-3.2-1.2-2.1-1.8-2.3-4.9-.5-7 .9-1 2.1-1.6 3.4-1.7 1.3-.1 2.6.3 3.6 1.2 1 .9 1.6 2.1 1.7 3.4.1 1.3-.3 2.6-1.2 3.6-1 1.1-2.4 1.7-3.8 1.7zm0-9.7h-.4c-1.2.2-2.3.7-3.1 1.7-1.7 2-1.5 4.9.5 6.6 2 1.7 4.9 1.5 6.6-.5.8-1 1.2-2.2 1.1-3.4s-.7-2.4-1.6-3.2c-.9-.8-2-1.2-3.1-1.2z" class="st2"/><circle cx="33.7" cy="15" r="3.7" class="st2"/></svg>