<svg xmlns="http://www.w3.org/2000/svg" version="1" viewBox="0 0 50 50"><path fill="#00C8E2" d="M16.576 28.419c1.622 3.295 5.004 5.565 8.922 5.565a9.919 9.919 0 003.234-.537l-2.639 4.139 4.436 2.613 17.035-6.2-9.592-15.043-2.568 4.028a9.95 9.95 0 00-9.906-8.898c-.504 0-1.469.102-1.469.102v-2.536L13.234 5.417 2.439 11.651V24.12l10.795 6.234 3.342-1.935z"/><path fill="#00DFFC" d="M21.082 9.95l-7.848-4.533-10.795 6.234v5.084z"/><path fill="#031326" d="M48.617 33.327L37.972 16.63l-2.061 3.232a11.186 11.186 0 00-10.633-7.024v-1.91L13.234 3.973 1.188 10.929v13.913l12.046 6.957 2.877-1.667a11.113 11.113 0 009.385 5.103c.208 0 .416-.006.623-.017l-1.779 2.788 13.63 8.028 6.624-3.902a1.25 1.25 0 10-1.27-2.154l-4.854 2.86V22.065l8.038 12.606a1.25 1.25 0 102.109-1.344zM22.281 12.085l-9.048 5.224-9.047-5.224 9.048-5.225 9.047 5.225zm-18.593.868l9.045 5.222v10.447l-9.045-5.223V12.953zM13.733 28.62V18.175l9.045-5.222v1.598c-4.163 1.016-7.265 4.767-7.265 9.238 0 1.175.219 2.342.639 3.431l-2.419 1.4zm11.765 4.114c-3.333 0-6.514-1.803-7.992-4.805l-.47-1.221a8.55 8.55 0 01-.522-2.92c0-3.927 2.675-7.233 6.296-8.215 0 0 1.019-.239 2.688-.239a8.68 8.68 0 018.663 7.779l.2 1.907-4.221 6.62-1.815.625a8.67 8.67 0 01-2.827.469zm11.974-10.669v20.773l-9.63-5.671 9.63-15.102z"/></svg>