<?xml version="1.0" encoding="utf-8"?>
<!-- Generator: Adobe Illustrator 27.7.0, SVG Export Plug-In . SVG Version: 6.00 Build 0)  -->
<svg version="1.1" id="Camada_3" xmlns="http://www.w3.org/2000/svg" xmlns:xlink="http://www.w3.org/1999/xlink" x="0px" y="0px"
	 viewBox="0 0 50 50" style="enable-background:new 0 0 50 50;" xml:space="preserve">
<style type="text/css">
	.st0{fill:#FDCF72;}
	.st1{fill:#FCC34F;}
	.st2{fill:none;stroke:#444444;stroke-width:2.5;stroke-linecap:round;stroke-linejoin:round;stroke-miterlimit:10;}
	.st3{fill:none;stroke:#444444;stroke-width:0.5;stroke-linecap:round;stroke-linejoin:round;stroke-miterlimit:10;}
	.st4{fill:none;stroke:#444444;stroke-linecap:round;stroke-linejoin:round;stroke-miterlimit:10;}
	.st5{fill:#444444;}
</style>
<g>
	<g>
		<g>
			<path class="st0" d="M46.3,3.6H4.5c-1.1,0-2,0.9-2,2v16.5L48.3,5.8V5.7C48.3,4.5,47.4,3.6,46.3,3.6z"/>
			<polygon class="st1" points="2.6,21.9 2.6,46.6 48.4,30.3 48.4,5.6 			"/>
		</g>
		<path class="st2" d="M25.2,48.5H5.7c-1.9,0-3.4-1.6-3.4-3.5V6c0-1.9,1.5-3.5,3.4-3.5h39c1.9,0,3.4,1.6,3.4,3.5v25.9"/>
	</g>
	<g>
		<g>
			<path class="st3" d="M21.6,25.5l-6.9-6.9c-0.9-0.9-0.9-2.5,0-3.4l0,0c0.9-0.9,2.5-0.9,3.4,0l7.2,7.2"/>
			<path class="st3" d="M22.1,32.9l-9.7-9.7c-0.9-0.9-0.9-2.5,0-3.4l0,0c0.9-0.9,2.5-0.9,3.4,0l5.8,5.8"/>
			<path class="st3" d="M25,22.2l-5.4-5.4c-0.9-0.9-0.9-2.5,0-3.4l0,0c0.9-0.9,2.5-0.9,3.4,0l5.8,5.8"/>
			<path class="st3" d="M28.9,19.1l-3.7-3.7c-0.9-0.9-1-2.5,0-3.4l0,0c0.9-0.9,2.4-0.9,3.4,0l6.6,6.6c0,0,7.5,7.9,0.9,14.5l0,0
				c0,0-5.9,7.7-15.2,2.6c-7.7-4.3-3.7-7.4-3.7-7.4"/>
		</g>
		<path class="st4" d="M38.3,20.4h2.4c1.8,0,3.2,1.4,3.2,3.2v16.8c0,1.8-1.4,3.2-3.2,3.2H24c-1.8,0-3.2-1.4-3.2-3.2v-3.1"/>
		<g>
			<g>
				<path class="st5" d="M29.1,8.6l-0.3,0.5c-0.1,0.2-0.1,0.4,0.1,0.6c0.4,0.4,0.6,0.8,0.7,1.3c0,0.2,0.2,0.4,0.5,0.4l0.6,0
					c0.3,0,0.5-0.3,0.5-0.6c-0.1-0.9-0.6-1.7-1.3-2.3C29.6,8.3,29.3,8.4,29.1,8.6z"/>
				<path class="st5" d="M24.6,8v0.6C24.6,8.8,24.8,9,25,9h1h0.8l0.4,0c0.1,0,0.2,0,0.3,0l0.2-1.5c-0.2,0-0.3,0-0.5,0l-0.4,0h-0.8
					h-1C24.8,7.5,24.6,7.7,24.6,8z"/>
				<path class="st5" d="M20.1,8v0.6c0,0.3,0.2,0.5,0.5,0.5h2.1c0.3,0,0.5-0.2,0.5-0.5V8c0-0.3-0.2-0.5-0.5-0.5h-2.1
					C20.3,7.5,20.1,7.7,20.1,8z"/>
				<path class="st5" d="M15.6,8v0.6C15.6,8.8,15.8,9,16,9h2.1c0.3,0,0.5-0.2,0.5-0.5V8c0-0.3-0.2-0.5-0.5-0.5H16
					C15.8,7.5,15.6,7.7,15.6,8z"/>
				<path class="st5" d="M11.1,8v0.6c0,0.3,0.2,0.5,0.5,0.5h2.1c0.3,0,0.5-0.2,0.5-0.5V8c0-0.3-0.2-0.5-0.5-0.5h-2.1
					C11.3,7.5,11.1,7.7,11.1,8z"/>
				<path class="st5" d="M7.2,10.3l0.5,0.2c0.2,0.1,0.5,0,0.6-0.2c0.3-0.4,0.7-0.8,1.1-1c0.2-0.1,0.3-0.3,0.2-0.5L9.5,8.2
					C9.4,7.9,9.1,7.7,8.9,7.8c-0.8,0.3-1.5,1-1.9,1.7C6.8,9.8,6.9,10.2,7.2,10.3z"/>
			</g>
			<g>
				<path class="st5" d="M6.9,14.8h0.6c0.3,0,0.5-0.2,0.5-0.5v-2.1c0-0.3-0.2-0.5-0.5-0.5H6.9c-0.3,0-0.5,0.2-0.5,0.5v2.1
					C6.5,14.6,6.7,14.8,6.9,14.8z"/>
				<path class="st5" d="M6.9,19.3h0.6c0.3,0,0.5-0.2,0.5-0.5v-2.1c0-0.3-0.2-0.5-0.5-0.5H6.9c-0.3,0-0.5,0.2-0.5,0.5v2.1
					C6.5,19.1,6.7,19.3,6.9,19.3z"/>
				<path class="st5" d="M6.9,23.8h0.6c0.3,0,0.5-0.2,0.5-0.5v-2.1c0-0.3-0.2-0.5-0.5-0.5H6.9c-0.3,0-0.5,0.2-0.5,0.5v2.1
					C6.5,23.6,6.7,23.8,6.9,23.8z"/>
				<path class="st5" d="M7,28.3l0.6,0c0.3,0,0.5-0.2,0.5-0.5l0-2.1c0-0.3-0.2-0.5-0.5-0.5H6.9c-0.3,0-0.5,0.2-0.5,0.5l0,2.1
					C6.5,28.1,6.7,28.4,7,28.3z"/>
				<path class="st5" d="M10,31.7l0.1-0.6c0-0.2-0.1-0.4-0.3-0.5c-0.5-0.1-0.9-0.5-1.3-0.9c-0.1-0.2-0.4-0.2-0.6-0.1l-0.5,0.3
					C7.1,30,7,30.4,7.2,30.6c0.5,0.7,1.3,1.2,2.1,1.5C9.6,32.1,9.9,32,10,31.7z"/>
				<path class="st5" d="M14.5,31.7v-0.6c0-0.3-0.2-0.5-0.5-0.5H12c-0.3,0-0.5,0.2-0.5,0.5v0.6c0,0.3,0.2,0.5,0.5,0.5H14
					C14.3,32.2,14.5,32,14.5,31.7z"/>
			</g>
		</g>
	</g>
</g>
</svg>
