<svg xmlns="http://www.w3.org/2000/svg" viewBox="0 0 50 50"><path fill="#dc5e82" d="M47.65 20.31c-.2-.8-2.7-7.5-3.2-8.1l-3-3.5-.2.1-7.6-5.7-7.8-.7c-3.2 0-12.8-.7-21.3 11.5l-2.9 7.9.5 2 1.8 11.5c.1.4 4.7 7 5.1 7.2l5.6 3 32.2-11.7c.7-.5 1.7-8.7.8-13.5z"/><path fill="none" stroke="#444" stroke-linecap="round" stroke-linejoin="round" stroke-miterlimit="10" stroke-width="2.5" d="M27.85 47.91c-12.6 1.6-24.1-7.4-25.7-20.1-1.6-12.6 7.4-24.1 20.1-25.7 12.6-1.6 24.1 7.4 25.7 20.1.6 5.1-.5 10-2.8 14.1"/><path fill="none" stroke="#444" stroke-linecap="round" stroke-linejoin="round" stroke-miterlimit="10" d="M13.37 29.68c1.86.93 3.73 2.54 5.01 5.27 0 0 3.8-11.39 12.95-13.18m-20.81 6.94c.5.12 1.02.27 1.55.47m-5.3-.71s.96-.13 2.37.01"/><circle cx="37.83" cy="20.78" r="5.15" fill="none" stroke="#444" stroke-miterlimit="10"/><path fill="none" stroke="#444" stroke-linecap="round" stroke-linejoin="round" stroke-miterlimit="10" stroke-width=".5" d="M12.71 37.71h25.8m-15-5.16h18.96m-26.28 9.96h10.56M23.33 1.66c2.06 2.31 3.3 5.35 3.3 8.69 0 7.22-5.86 13.08-13.08 13.08-4.19 0-7.93-1.97-10.32-5.04"/></svg>