<svg xmlns="http://www.w3.org/2000/svg" id="Camada_3" x="0" y="0" version="1.1" viewBox="0 0 50 50" xml:space="preserve"><style>.st1{fill:none;stroke:#444;stroke-linecap:round;stroke-linejoin:round;stroke-miterlimit:10}</style><path fill="#ff6b6b" d="M40.72 14.26l-10.1 1.58-6.39-2.04-6.58 1.85c-3.29 0-12.6-2.83-12.6.46l-3.43 7.32 1.3 7.32 4.82 4.45c1.97 1.3 11.12-1.3 12.97 1.24l28.4-10.11c.76-.42-.05-10.58-8.39-12.07z"/><path d="M23.97 24.99c0-2.97 1.62-5.55 4.01-6.94a8.016 8.016 0 00-4.01-1.08c-4.43 0-8.02 3.59-8.02 8.02s3.59 8.02 8.02 8.02c1.46 0 2.83-.4 4.01-1.08a8.002 8.002 0 01-4.01-6.94z" class="st1"/><circle cx="37.8" cy="24.99" r="8.02" class="st1"/><path d="M12.52 33.14c.95 0 1.85-.17 2.69-.47-3.11-1.11-5.33-4.06-5.33-7.55s2.23-6.44 5.33-7.55c-.84-.3-1.74-.47-2.69-.47-4.43 0-8.02 3.59-8.02 8.02s3.58 8.02 8.02 8.02z" class="st1"/><path fill="none" stroke="#444" stroke-linecap="round" stroke-linejoin="round" stroke-miterlimit="10" stroke-width="2.5" d="M47.37 30.11c.81-1.53 1.27-3.27 1.27-5.12 0-6.02-4.88-10.89-10.89-10.89-2.66 0-5.09.96-6.98 2.54a10.865 10.865 0 00-6.98-2.54c-2.12 0-4.09.62-5.77 1.66a10.81 10.81 0 00-5.77-1.66c-6.02 0-10.89 4.88-10.89 10.89 0 6.02 4.88 10.89 10.89 10.89 2.12 0 4.09-.62 5.77-1.66a10.81 10.81 0 005.77 1.66c2.66 0 5.09-.96 6.98-2.54 1.89 1.58 4.33 2.54 6.98 2.54"/><path fill="none" stroke="#444" stroke-linecap="round" stroke-linejoin="round" stroke-miterlimit="10" stroke-width=".5" d="M16.73 27.7H39.8M9.78 25.1h20M5.24 22.05h22.7"/></svg>