<svg xmlns="http://www.w3.org/2000/svg" id="Layer_1" x="0" y="0" version="1.1" viewBox="0 0 50 50" xml:space="preserve"><style>.st1{fill:#e589ef}.st4,.st5{fill:none;stroke:#031326;stroke-width:1.5;stroke-linecap:round;stroke-linejoin:round;stroke-miterlimit:10}.st5{stroke-width:2.5}</style><path fill="#f799ff" d="M39.6 10.8s3.4 2.6 5.2 7.6c.5 1.3-.8 1.9-.8 1.9l-4.4-9.5z"/><path d="M12.5 43.3s-3.8-1.9-6.6-6.4c-.7-1.2.4-2.1.4-2.1l6.2 8.5z" class="st1"/><path d="M9.8 41.8l.9-2.1-4.2-2.6" class="st1"/><path fill="#00c8e2" d="M46.1 27.2v.4L9.8 41l.4 1.1-4.8-7 39.9-14.7.8 2.2z"/><path fill="#00dffc" d="M44.4 18.5l1 2.5L6 35.4l-2.2-6.8.5-3.4 36.2-13z"/><path d="M31.7 38.4H20.2l-5.7-5.7V21.2h17.2z" class="st4"/><path d="M17.8 21.2V18h17.1v17.1h-3.2m-11.5 3.3v-5.7h-5.7m4.1-7.4h4.9m-4.9 3.3h8.2" class="st4"/><path d="M18.6 47C10.1 44.2 3.9 36.2 3.9 26.8c0-11.7 9.5-21.2 21.2-21.2m8.4 1.7c7.6 3.2 12.9 10.8 12.9 19.5 0 11.7-9.5 21.2-21.2 21.2" class="st5"/><path d="M21.2 9.5l4-4-4-3.9M18.6 47s3.5 1.2 6.7 1" class="st5"/></svg>