<svg xmlns="http://www.w3.org/2000/svg" id="Layer_1" x="0" y="0" version="1.1" viewBox="0 0 50 50" xml:space="preserve"><style>.st2{fill:#031326}</style><path fill="#4ecdc4" d="M22.3 7.1C12 7.1 3.7 15.4 3.7 25.6c0 .6 0 1.2.1 1.8l33.7-12.3c-3.3-4.8-8.9-8-15.2-8z"/><path fill="#46b8b0" d="M40.8 25.6c0-3.9-1.2-7.5-3.3-10.5L3.8 27.4C4.2 32 6.3 36.1 9.5 39l31.2-11.3c0-.7.1-1.4.1-2.1z"/><path d="M16.5 7.5c-.3-.7-1.1-1-1.8-.7-1.5.6-2.9 1.5-4.2 2.5-5.1 3.8-8 9.6-8 16 0 5 1.8 9.7 5.1 13.4.4.1.7.3 1.1.3.3 0 .6-.1.9-.3.6-.5.6-1.3.1-1.9-2.9-3.2-4.4-7.3-4.4-11.6 0-5.5 2.5-10.5 6.9-13.8 1.1-.9 2.4-1.6 3.7-2.1.6-.4.9-1.2.6-1.8z" class="st2"/><path d="M15.6 38.6h-.1c-5.1-2.6-8.2-7.8-8.2-13.5 0-7.4 5.2-13.7 12.5-15 .1 0 .3.1.3.2s-.1.3-.2.3c-7 1.3-12 7.4-12 14.5 0 5.5 3 10.5 7.9 13.1.1.1.2.2.1.4h-.3zm7 1.7c-.1 0-.3-.1-.3-.3 0-.1.1-.3.3-.3 8.1 0 14.7-6.6 14.7-14.7 0-7.2-5.2-13.4-12.3-14.5-.1 0-.2-.2-.2-.3 0-.1.2-.2.3-.2 7.4 1.2 12.8 7.5 12.8 15.1-.1 8.4-6.9 15.2-15.3 15.2zm22.9-.3c-.5-.5-1.4-.5-1.9 0s-.5 1.4 0 1.9l.8.8h-8.9c-.7 0-1.3.6-1.3 1.3s.6 1.3 1.3 1.3h8.7l-.8.8c-.5.5-.5 1.4 0 1.9.3.3.6.4 1 .4.3 0 .7-.1 1-.4l4.1-4.1-4-3.9z" class="st2"/><path d="M13.9 39.3c-.1 0-.2-.1-.3-.2 0-.1.1-.3.2-.3l1.8-.4-.3-1.7c0-.1.1-.3.2-.3s.3.1.3.2l.4 2.2-2.3.5c.1 0 .1 0 0 0z" class="st2"/><path d="M40.5 16.3C37.1 9.4 30.2 5.2 22.6 5.2l.8-.8c.5-.5.5-1.4 0-1.9-.6-.5-1.4-.5-2 0l-3.9 3.9 4.1 4.1c.3.3.6.4 1 .4s.7-.1 1-.4c.5-.5.5-1.4 0-1.9l-.8-.8c6.6.1 12.4 3.7 15.4 9.6 1.2 2.4 1.8 5 1.8 7.7 0 2.5-.5 4.8-1.5 7.1-2.7 6-8.7 10.1-15.4 10.2H1.9c-.7 0-1.3.6-1.3 1.3S1.2 45 1.9 45H23c7.7-.2 14.6-4.8 17.8-11.8 1.2-2.6 1.7-5.3 1.7-8.2.1-2.9-.6-5.9-2-8.7z" class="st2"/><circle cx="18.3" cy="27" r="2.8" class="st2"/><path d="M26.7 22.2h-.6v.9h-1.2v-.9h-6.6c-2.6 0-4.8 2.1-4.8 4.8 0 2.6 2.1 4.8 4.8 4.8 2.5 0 4.5-1.9 4.7-4.4.3-.5 1.6-1.1 3.3-1.5 1.8-.4 3.7-.5 3.7-.5h.4l.6-3.2h-4.3zm-8.4 8.5c-2 0-3.7-1.7-3.7-3.7s1.7-3.7 3.7-3.7S22 25 22 27s-1.6 3.7-3.7 3.7zm11.3-6.3c-.7 0-2.1.2-3.5.5-1 .2-2.2.7-3.1 1.2-.2-1.1-.9-2.1-1.7-2.8h2.5v.9h3.3v-.9h2.6l-.1 1.1zm-4.1-4.5c-.3 0-.5-.2-.5-.5v-2.6c0-.3.2-.5.5-.5s.5.2.5.5v2.6c0 .2-.2.5-.5.5zM23.7 21c-.2 0-.3-.1-.5-.2l-1.4-2.2c-.2-.2-.1-.6.2-.7.2-.2.6-.1.7.2l1.4 2.2c.2.2.1.6-.2.7h-.2zm3.6 0c-.1 0-.2 0-.3-.1-.2-.2-.3-.5-.2-.7l1.4-2.2c.2-.3.5-.3.7-.2.2.2.3.5.2.7l-1.4 2.2c-.1.2-.2.3-.4.3z" class="st2"/></svg>