<svg xmlns="http://www.w3.org/2000/svg" id="Camada_3" x="0" y="0" version="1.1" viewBox="0 0 50 50" xml:space="preserve"><style>.st3{fill:#424242}.st4{fill:none;stroke:#494949;stroke-linecap:round;stroke-linejoin:round;stroke-miterlimit:10}</style><path fill="#e589ef" d="M48.54 13.45l.7 5.4-47.3 17.21-.6-11.21v-6.4l41.4-15 5.3 2.3z"/><path fill="#f799ff" d="M46.84 3.55l2.3 3.3-48.1 17.2 1.1-17.7 3.1-2.9 29.8-.2z"/><path fill="none" stroke="#444" stroke-linecap="round" stroke-linejoin="round" stroke-miterlimit="10" stroke-width="2.5" d="M16.44 46.06H4.74c-1.7 0-3.1-1.4-3.1-3.1V6.75c0-1.7 1.4-3.1 3.1-3.1h40.5c1.7 0 3.1 1.4 3.1 3.1v21.6"/><circle cx="8.84" cy="9.85" r="1.6" class="st3"/><circle cx="13.94" cy="9.85" r="1.6" class="st3"/><circle cx="19.14" cy="9.85" r="1.6" class="st3"/><g id="workflow_00000024683701293596675490000005546488760175260545_"><path d="M18.14 39.75h-3.1m-4.9 0h-3.1v-3.1m0-4.9v-3.1h3.1m6.4 0h3.1m3.7 3.7v4.6m0-16.3v4.3m3.8 3.7h9.6m-8.2 11.1h10c.8 0 1.5-.7 1.5-1.5v-6.3" class="st4"/><circle cx="23.34" cy="28.75" r="3.7" fill="none" stroke="#494949" stroke-linecap="round" stroke-linejoin="round" stroke-miterlimit="10"/><path d="M26.74 20.65h-6.8c-1.4 0-2.6-1.2-2.6-2.6 0-1.4 1.2-2.6 2.6-2.6h6.8c1.4 0 2.6 1.2 2.6 2.6 0 1.4-1.1 2.6-2.6 2.6zm15.8 11.3h-5c-.4 0-.8-.3-.8-.8v-5c0-.4.3-.8.8-.8h5c.4 0 .8.3.8.8v5c-.1.4-.4.8-.8.8zm-14.8 10.61h-8.9c-.4 0-.8-.3-.8-.8v-4c0-.4.3-.8.8-.8h8.9c.4 0 .8.3.8.8v4c0 .39-.3.8-.8.8z" class="st4"/></g></svg>