<svg xmlns="http://www.w3.org/2000/svg" id="Layer_1" x="0" y="0" version="1.1" viewBox="0 0 50 50" xml:space="preserve"><style>.st2{fill:#031326}</style><path fill="#00c8e2" d="M48.6 28.9V21c0-.5-.3-.9-.8-1.1l-2.9-.8c-.4-.1-.6-.4-.7-.7-.3-.8-.6-1.6-1-2.3-.2-.3-.2-.7 0-1l1.5-2.7c.2-.3.2-.6.1-.9L1.4 27.3v1.6c0 .5.3.9.8 1.1l2.9.8c.4.1.6.4.7.7.3.8.6 1.6 1 2.3.2.3.2.7 0 1l-1.5 2.7c-.2.4-.2 1 .2 1.3l4.4 4.4 38.7-14.1v-.2z"/><path fill="#00dffc" d="M44.1 11.4L38.7 6c-.3-.3-.9-.4-1.3-.2l-2.6 1.4c-.3.2-.7.2-1 0-.7-.4-1.5-.7-2.2-.9-.3-.1-.6-.4-.7-.7l-.8-2.9c-.1-.5-.6-.8-1.1-.8h-7.7c-.5 0-.9.3-1.1.8l-.8 2.9c-.1.3-.4.6-.7.7-.8.3-1.5.6-2.2.9-.3.2-.7.1-1 0l-2.6-1.4c-.4-.2-1-.2-1.3.2l-5.4 5.4c-.3.3-.4.9-.2 1.3l1.4 2.6c.2.3.2.7 0 1-.4.7-.7 1.5-.9 2.2-.1.3-.4.6-.7.7l-2.9.8c-.5.1-.8.6-.8 1.1v6.1l42.4-15.4c-.2-.1-.3-.3-.4-.4z"/><path d="M28.9 49.4h-7.7c-1 0-2-.7-2.3-1.7l-.8-2.8c-.8-.3-1.5-.6-2.3-.9l-2.5 1.4c-.9.5-2.1.3-2.8-.4L5 39.5c-.7-.7-.9-1.9-.4-2.8L6 34.2c-.4-.7-.7-1.5-.9-2.3l-2.8-.8c-1-.3-1.7-1.2-1.7-2.3v-7.7c0-1 .7-2 1.7-2.3l2.8-.8c.3-.8.6-1.5.9-2.3l-1.4-2.5c-.5-.9-.3-2.1.4-2.8L10.5 5c.7-.7 1.9-.9 2.8-.4L15.8 6c.7-.4 1.5-.7 2.3-.9l.8-2.8c.3-1 1.2-1.7 2.3-1.7h7.7c1 0 2 .7 2.3 1.7l.8 2.8c.8.3 1.5.6 2.3.9l2.5-1.4c.9-.5 2.1-.3 2.8.4l5.4 5.4c.7.7.9 1.9.4 2.8L44 15.8c.4.7.7 1.5.9 2.3l2.8.8c1 .3 1.7 1.2 1.7 2.3v7.7c0 1-.7 2-1.7 2.3l-2.8.8c-.3.6-.9.9-1.6.7-.7-.2-1-.9-.8-1.6.2-.7.8-1.3 1.6-1.5l2.8-.8v-7.5l-2.8-.8c-.7-.2-1.3-.8-1.6-1.5-.2-.7-.5-1.4-.9-2.1-.3-.7-.3-1.5 0-2.2l1.4-2.5-5.3-5.3-2.5 1.4c-.7.4-1.5.4-2.2 0-.5-.3-1.3-.6-2-.8-.7-.2-1.3-.8-1.5-1.6l-.8-2.8h-7.5l-.8 2.8c-.2.7-.8 1.3-1.5 1.6-.7.2-1.4.5-2.1.9-.7.3-1.5.3-2.2 0L12.1 7l-5.3 5.3 1.4 2.5c.4.7.4 1.5.1 2.2-.3.5-.6 1.3-.8 2-.2.7-.8 1.3-1.6 1.5l-2.8.8v7.5l2.8.8c.7.2 1.3.8 1.6 1.5.2.7.5 1.4.9 2.1.3.7.3 1.5 0 2.2L7 37.9l5.3 5.3 2.5-1.4c.7-.4 1.5-.4 2.2 0l2.1.9c.7.2 1.3.8 1.5 1.6l.8 2.8h7.5l.8-2.8c.2-.7.8-1.3 1.5-1.6.7-.2 1.4-.5 2.1-.9.7-.3 1.5-.3 2.2 0l2.5 1.4c.5-.4 1.2-.4 1.7.1s.5 1.3 0 1.8c-.7.7-1.9.9-2.8.4L34.2 44c-.7.4-1.5.7-2.3.9l-.8 2.8c-.3 1-1.2 1.7-2.2 1.7z" class="st2"/><path d="M25 9.2C16.3 9.2 9.2 16.3 9.2 25S16.3 40.9 25 40.9c8.7 0 15.8-7.1 15.8-15.8S33.7 9.2 25 9.2zm0 29.2c-7.3 0-13.3-6-13.3-13.3 0-7.3 6-13.3 13.3-13.3s13.3 6 13.3 13.3c0 7.3-6 13.3-13.3 13.3z" class="st2"/><path d="M34.3 22.3l-8.8-3.4c-.3-.1-.6-.1-.9 0l-8.8 3.4c-.7.3-.7.8-.7.9 0 .2.1.7.7.9l.2.1v5.6c0 .4.3.8.8.8s.8-.3.8-.8v-6.4c0-.1 0-.1-.1-.2v-.1l7.7-3 7.5 2.9-7.7 3.2-6-2.3c-.4-.1-.8 0-1 .4-.1.4 0 .8.4 1l1.3.5v2.8c0 .3.1.7.3.9.3.3.7.7 1.2 1 1 .6 2.3.9 3.7.9 1.4 0 2.6-.3 3.7-.9.5-.3 1-.7 1.2-1 .2-.2.3-.6.3-.9v-2.8l4-1.6c.7-.3.7-.8.7-.9.2-.2.1-.7-.5-1zm-5.6 6.2c-.1.2-.4.4-.8.6-.8.5-1.8.7-2.9.7-1.1 0-2.1-.2-2.9-.7-.5-.3-.7-.5-.8-.6v-2.1l3.2 1.2c.3.1.8.1 1.1 0l3.2-1.2v2.1z" class="st2"/></svg>