<svg xmlns="http://www.w3.org/2000/svg" version="1" viewBox="0 0 50 50"><path fill="#FCC34F" d="M14.816 46.241l.62-.09 23.946-8.715V34.99l2.942-.46V15.617l-2.942-.46V7.321L14.816 3.759h-7.14v42.482h7.132z"/><path fill="#FDCF72" d="M39.382 7.352v-.031L14.817 3.759H7.676v15.133z"/><path fill="#031326" d="M40.633 14.088V6.239L14.995 2.522 6.426 2.51v44.982h8.48l10.273-1.489a1.25 1.25 0 10-.359-2.475l-9.882 1.433V5.041l23.194 3.363v7.597l-2.776-.495v-4.697L18.985 8.427l-.143-.021v1.152c-.003.011-.013.018-.013.03 0 .013.01.022.013.034v31.967l16.514-2.394v-4.632l2.776-.456v4.4a1.25 1.25 0 002.5 0v-2.446l2.941-.461V14.549l-2.94-.461zM8.926 5.01h5.762v39.982H8.926V5.01zM30.61 35.091V14.913l10.464 1.866V33.37L30.61 35.091zm-2.505.02l-.005-.002-.005.002-6.96-.002V14.885l9.226.003v20.223h-2.256zM19.092 9.732l8.882 1.292v3.615l-6.968-.004v.125h-.122v20.598l7.09.001v3.618l-8.882 1.293V9.732zm11.415 4.909h-.017l-.005-.002-.005.002-2.256-.001v-3.598h6.882v4.419l-4.599-.82zm2.998-3.849h-5.398l-9.015-1.309v-.788l14.413 2.097zM19.092 40.523l9.018-1.312h5.386l-14.404 2.088v-.776zm16.014-1.562h-6.882v-3.602h2.256l.005.002.005-.002h.016l4.601-.756v4.358z"/></svg>