<svg xmlns="http://www.w3.org/2000/svg" id="Layer_1" x="0" y="0" version="1.1" viewBox="0 0 50 50" xml:space="preserve"><style>.st2{fill:#031326}</style><path fill="#fdcf72" d="M22.6 1.5c.1.2-.1.3-.1.5v10.2c0 .4-.3.6-.6.8l-8.5 5.3v10.3l-1.6.6-6.7 2.4-1.2.4-.2-19.4c0-.4-.1-.1.3-.3l12.9-8.2 5.7-2.6zm24 14.9l-1.7.6-2 .7-1.4.5-3.4 1.2-1.4.8-.1-2.8-4.8-3-3.5-1.8c-.4-.2-.3-.4-.3-.8V2.1c0-.4 0-.5.3-.7.3-.2.2-.2.6 0l14.6 8.7h.9l2.2 6.3z"/><path fill="#fcc34f" d="M13.6 30.9l5.5 3.1-2.3.8-8.4 3.1-2.7.8-1.1-.8L3.3 34l.2-8.5 1.6-1 6.7-2.4 1.6-.6zM46.3 18l.1 6-1.5.6-6.5 2.4-1.1.6c0-.1-.1-.9-.1-1l-.6-9.3-4.4-2.6L34 14l3.7-1.4 1.7-.6 2.7-1 1.3-.2h1l1.9 7.2z"/><path d="M42.5 36.6l-8.2-5.1c-.4-.2-.8-.2-1.2-.1l-9.4 4.8-9.5-5.8v-12l8.5-5.1c.4-.2.6-.6.6-1.1V1.8c0-.4-.2-.9-.6-1.1-.4-.2-.9-.2-1.3 0l-18 10.5c-.4.2-.6.6-.6 1.1v24.3c0 .4.2.9.6 1.1l19.8 11.6c.2.1.4.2.6.2.2 0 .4-.1.6-.2l3.3-1.9c.6-.4.8-1.1.4-1.7s-1.1-.8-1.7-.4l-2.7 1.6-18.5-11V13.1L20.7 4v7.6l-8.5 5.1c-.4.2-.6.6-.6 1.1v13.4c0 .4.2.8.6 1.1l10.7 6.5c.4.2.8.2 1.2 0l9.4-4.8 5.9 3.7-2.5 1.5c-.6.4-.8 1.1-.4 1.7s1.1.8 1.7.4l4.3-2.5c.4-.2.6-.6.6-1.1s-.2-.9-.6-1.1z" class="st2"/><path d="M46.6 10.8L28.9.7c-.4-.2-.9-.2-1.2 0-.4.2-.7.6-.7 1.1V12c0 .4.2.9.6 1.1l8.1 4.6v9.7c0 .4.2.8.6 1.1l9 5.5c.2.1.4.2.6.2.2 0 .4-.1.6-.2.4-.2.6-.6.6-1.1v-21c.2-.4-.1-.8-.5-1.1zm-1.8 19.9l-6.5-4V17c0-.4-.2-.9-.6-1.1l-8.1-4.6V3.9l15.2 8.7v18.1z" class="st2"/><path d="M36.3 11.9l5.1 2.9v6.7c0 .4.3.8.8.8s.8-.3.8-.8v-7.2c0-.3-.1-.5-.4-.7l-5.5-3.1c-.4-.2-.8-.1-1 .3-.2.4-.1.9.2 1.1zM14.2 11c-.2-.4-.7-.5-1-.3l-5.5 3.1c-.2.1-.4.4-.4.7v7.2c0 .4.3.8.8.8s.8-.3.8-.8V15l5.1-2.9c.3-.3.4-.8.2-1.1z" class="st2"/></svg>