<svg xmlns="http://www.w3.org/2000/svg" viewBox="0 0 50 50"><path fill="#fcc34f" d="M46 18.6l-.2 9.2-13.2 4.8v-2.9l-15 .8.7 7.2-12 4.1-2 .1-1.1-12.6 1.3-.5 28.1-9.5 7-6.6 5.7 5.2z"/><path fill="#fdcf72" d="M46.9 20l-1.5.5-40.9 15v-6.7l-.2-6.4 13-5 .5 2.2 14.6.1.3-7.6 12.4-4.7.4 1.9z"/><path fill="#031326" d="M46.3 7.4L33.5 1c-.4-.2-.8-.2-1.2.1-.4.2-.6.6-.6 1.1v14.4H18.3V2.2c0-.4-.2-.8-.6-1.1-.4-.2-.8-.2-1.2-.1L3.7 7.4c-.4.2-.7.7-.7 1.1V42c0 .5.3.9.7 1.1L16.5 49c.2.1.3.1.5.1s.5-.1.7-.2c.4-.2.6-.6.6-1.1V33.5h13.4v14.4c0 .4.2.8.6 1.1.2.1.4.2.7.2.2 0 .4 0 .5-.1l12.8-5.9c.4-.2.7-.6.7-1.1V8.5c0-.4-.3-.9-.7-1.1zM15.8 45.9L5.5 41.2V9.3l10.3-5.1v41.7zm28.7-4.7l-10.3 4.7V4.2l10.3 5.1v31.9z"/></svg>