<svg xmlns="http://www.w3.org/2000/svg" version="1" viewBox="0 0 50 50"><path fill="#DC5E82" d="M47.69 25.002c0 1.653-.178 3.258-.519 4.806L11.111 42.93A22.594 22.594 0 012.31 25.002c0-12.531 10.164-22.686 22.694-22.686S47.69 12.472 47.69 25.002z"/><path fill="#F56991" d="M39.91 7.908L2.577 21.501C4.263 10.632 13.665 2.316 25.004 2.316A22.57 22.57 0 0139.91 7.908z"/><g fill="#031326"><path d="M25 7.072C15.115 7.072 7.073 15.115 7.073 25c0 9.886 8.042 17.928 17.928 17.928S42.929 34.886 42.929 25c0-9.885-8.043-17.928-17.929-17.928zm0 35.356C15.39 42.428 7.572 34.61 7.572 25 7.572 15.39 15.39 7.572 25 7.572S42.429 15.39 42.429 25c0 9.609-7.819 17.428-17.429 17.428z"/><path d="M20.199 18.756s.052-.902.65-1.5 1.568-.718 1.568-.718-.834-.013-1.459-.637-.76-1.581-.76-1.581-.156.932-.711 1.487c-.555.555-1.508.732-1.508.732s1.007.172 1.562.727c.557.554.658 1.49.658 1.49zm-3.396 13.537s-.176 1.049-.801 1.674-1.697.824-1.697.824 1.134.194 1.759.818.739 1.679.739 1.679.059-1.015.732-1.689c.674-.674 1.766-.809 1.766-.809s-.939-.015-1.642-.718c-.703-.702-.856-1.779-.856-1.779zm21.155-3.521c.369.369.437.992.437.992s.035-.6.433-.998 1.044-.478 1.044-.478-.555-.009-.971-.424-.506-1.052-.506-1.052-.104.62-.473.989-1.003.487-1.003.487.67.115 1.039.484z"/><path d="M27.055 12.894l-.294-.143-.057.321a14.273 14.273 0 01-14.076 11.769v.493c6.855 0 12.761 4.877 14.045 11.597l.06.316.289-.141c4.612-2.231 7.593-6.986 7.593-12.114 0-5.112-2.967-9.861-7.56-12.098zm.038 23.627c-1.26-5.894-5.974-10.359-11.765-11.433a14.759 14.759 0 0011.8-11.605c4.259 2.211 6.994 6.693 6.994 11.51 0 4.832-2.749 9.323-7.029 11.528z"/><path d="M25 1.062C11.801 1.062 1.063 11.801 1.063 25S11.801 48.938 25 48.938a1.25 1.25 0 000-2.5C13.18 46.438 3.563 36.82 3.563 25 3.563 13.179 13.18 3.562 25 3.562S46.438 13.179 46.438 25a21.57 21.57 0 01-.436 4.322 1.25 1.25 0 102.45.5c.322-1.578.486-3.201.486-4.822C48.938 11.801 38.2 1.062 25 1.062z"/></g></svg>