<svg xmlns="http://www.w3.org/2000/svg" version="1" viewBox="0 0 50 50"><path fill="#AFE55D" d="M7.083 28.233h1.02l.571 15.223c.024.637.18 1.23.424 1.766l32.613-11.87.192-5.119h1.02c1.306 0 2.36-1.165 2.36-2.609v-3.556c0-1.443-1.054-2.609-2.36-2.609h-.691l.239-6.387c.876 0 1.586-.785 1.586-1.753v-7.19c0-.968-.71-1.753-1.586-1.753H7.535c-.876 0-1.586.785-1.586 1.753v7.191c0 .968.71 1.753 1.586 1.753l.239 6.387h-.691c-1.297 0-2.36 1.165-2.36 2.609v3.556c0 1.443 1.063 2.608 2.36 2.608z"/><path fill="#C3FF68" d="M7.528 13.073l.005.132 29.752-10.83H7.528c-.876 0-1.586.785-1.586 1.753v7.191c0 .969.71 1.754 1.586 1.754z"/><path fill="#031326" d="M48.093 23.768l-.073-.636h-1.54v-1.064c0-1.898-1.306-3.477-3.007-3.761L43.634 14c.955-.468 1.62-1.494 1.62-2.681v-7.19c0-1.627-1.249-2.952-2.784-2.952H7.535C6 1.177 4.751 2.501 4.751 4.129v7.191c0 1.187.665 2.212 1.62 2.681l.161 4.307c-1.701.284-3.007 1.862-3.007 3.761v1.064H1.98l-.074.636c-.03.26-.686 6.426 3.897 11.572.439.493.916.955 1.419 1.394l.254 6.768c.112 2.983 2.364 5.32 5.127 5.32H25.51a1.198 1.198 0 100-2.396H12.604c-1.469 0-2.669-1.323-2.733-3.014l-.183-4.9C13.524 40.805 18.646 41.97 25 41.97c8.818 0 15.276-2.23 19.195-6.63 4.584-5.146 3.928-11.312 3.898-11.572zm-4.01-1.7v3.557c0 .777-.521 1.41-1.161 1.41h-.662l.238-6.377h.424c.64 0 1.161.632 1.161 1.41zM7.147 4.129c0-.327.204-.555.388-.555H42.47c.184 0 .388.228.388.555v7.191c0 .055-.013.103-.023.151H7.171c-.01-.049-.023-.096-.023-.151V4.129zM5.922 22.068c0-.765.532-1.41 1.162-1.41h.404l.239 6.377h-.644c-.641 0-1.162-.633-1.162-1.41v-3.557zm.971 12.333c-3.345-3.743-3.615-8.2-3.589-9.831h.222v1.056c0 2.051 1.524 3.729 3.424 3.804l.196 5.234c-.084-.089-.172-.173-.253-.263zm2.729 2.365l-.894-23.857h32.549l-.862 23.006.006.825c-3.677 2.516-8.842 3.792-15.421 3.792-6.555 0-11.703-1.268-15.378-3.766zm33.484-2.365c-.079.088-.165.17-.246.256l.196-5.228c1.899-.075 3.424-1.753 3.424-3.804V24.57h.217c.025 1.63-.245 6.087-3.591 9.831z"/></svg>