<svg xmlns="http://www.w3.org/2000/svg" version="1.0" viewBox="0 0 50 50"><path fill="#00C8E2" d="M44.759 33.583v4.825l-2.448.894H32.19v1.373h6.345l-19.3 7.027h-4.326a.463.463 0 01-.466-.46V28.259H12.96c-4.728 0-8.556-3.828-8.556-8.556s3.828-8.556 8.556-8.556a8 8 0 01.674.032C15.35 6.017 20.208 2.3 25.939 2.3c7.17 0 12.986 5.809 12.986 12.979 0 .486-.032.959-.084 1.431a5.89 5.89 0 01-1.639 11.548h-4.145v5.136h11.515a.19.19 0 01.187.189z"/><path fill="#00DFFC" d="M34.578 5.597L5.096 16.329a8.546 8.546 0 017.862-5.181 8 8 0 01.674.032c1.716-5.162 6.574-8.879 12.305-8.879 3.317 0 6.348 1.243 8.641 3.296z"/><g fill="#031326"><path d="M23.747 18.052a6.407 6.407 0 00-6.399 6.399 6.406 6.406 0 006.399 6.399 6.406 6.406 0 006.399-6.399 6.406 6.406 0 00-6.399-6.399zm0 12.298c-3.252 0-5.899-2.646-5.899-5.899s2.646-5.899 5.899-5.899 5.899 2.646 5.899 5.899-2.647 5.899-5.899 5.899zm0 1.527a4.466 4.466 0 00-4.461 4.461c0 1.617.867 3.092 2.272 3.886v2.289c0 1.207.982 2.189 2.189 2.189s2.189-.982 2.189-2.189v-2.288a4.44 4.44 0 002.272-3.887 4.466 4.466 0 00-4.461-4.461zm1.824 7.977l-.135.069v2.59c0 .932-.758 1.689-1.689 1.689s-1.689-.758-1.689-1.689v-2.589l-.134-.07a3.956 3.956 0 01-2.138-3.516 3.966 3.966 0 013.961-3.961 3.965 3.965 0 013.961 3.961 3.945 3.945 0 01-2.137 3.516z"/><path d="M23.747 32.827c-1.912 0-3.467 1.556-3.467 3.467s1.555 3.467 3.467 3.467c1.912 0 3.467-1.556 3.467-3.467s-1.555-3.467-3.467-3.467zm.751 4.779a.868.868 0 01-.422.74h-.342v-.67h.353v-.804a.87.87 0 01.411.734zm-1.025-.838v.397h-.371v.546h.158v.661a.862.862 0 01-.487-.764.857.857 0 01.7-.84zm.614 2.458v-.354c.532-.192.911-.689.911-1.266 0-.607-.416-1.134-.994-1.299-.062-.24-.049-.514.083-.679v-1.232h-.563v.495c.017.67-.006 1.17-.422 1.373v.106a1.351 1.351 0 00.137 2.542l.02.003v.297a2.965 2.965 0 01-2.48-2.918 2.97 2.97 0 012.967-2.967 2.97 2.97 0 012.967 2.967c.001 1.519-1.152 2.761-2.626 2.932z"/><path d="M45.597 31.167H34.306v-1.66h2.896c3.939 0 7.144-3.205 7.144-7.144 0-2.812-1.678-5.352-4.185-6.495.009-.2.014-.396.014-.59 0-7.846-6.386-14.229-14.236-14.229a14.2 14.2 0 00-13.165 8.849c-5.321.099-9.62 4.459-9.62 9.804 0 5.407 4.399 9.806 9.806 9.806h.233V47.24c0 .943.77 1.71 1.716 1.71H32.59c.946 0 1.716-.767 1.716-1.71v-2.03h10.141c.681 0 .862-1.505.862-2.395 0-.889-.182-2.394-.862-2.394l-12.161.003v-.873h13.499c.69 0 1.25-.56 1.25-1.25v-5.697a1.44 1.44 0 00-1.438-1.437zM31.785 46.449H15.708V16.28c0-.099.078-.18.173-.18h15.731c.096 0 .173.081.173.18v30.169zM12.959 27.007c-4.028 0-7.306-3.277-7.306-7.306 0-4.22 3.647-7.635 7.875-7.278l.98.083.311-.934a11.704 11.704 0 0111.12-8.024c6.471 0 11.736 5.262 11.736 11.729 0 .404-.025.827-.077 1.292l-.117 1.048 1.014.292a4.652 4.652 0 013.352 4.453 4.649 4.649 0 01-4.644 4.644h-4.916V16.28a.677.677 0 00-.673-.68H15.881a.677.677 0 00-.673.68v10.727h-2.249zm31.153 13.915c.003 0 .004-.003.007-.003l.3-.002c.114.063.389.701.389 1.898 0 1.198-.274 1.836-.362 1.895H32.285v-3.785l11.827-.003zm-4.905-1.87h-6.922v-5.385h9.044v5.385h-2.122zm2.622 0v-5.385h2.682v5.385h-2.682z"/></g></svg>