<svg xmlns="http://www.w3.org/2000/svg" version="1" viewBox="0 0 50 50"><path fill="#71BAC0" d="M16.5 33.308h2.118v3.709h-3.123c-1.23 0-1.821 1.51-.917 2.345l5.102 4.713 16.159-5.882c-.087-.622-.59-1.176-1.335-1.176h-3.123v-3.709h4.509a8.501 8.501 0 008.499-8.499 8.51 8.51 0 00-7.369-8.434 12.16 12.16 0 00.106-1.654c0-7.108-5.765-12.864-12.864-12.864-6.428 0-11.758 4.708-12.716 10.866a10.876 10.876 0 00-5.937 9.695c.001 6.018 4.873 10.89 10.891 10.89z"/><path fill="#7ED0D6" d="M31.522 4.008a12.801 12.801 0 00-7.116-2.151c-5.844 0-10.77 3.897-12.338 9.232l19.454-7.081z"/><path fill="#031326" d="M35.89 34.332c5.251 0 9.523-4.272 9.523-9.523 0-4.423-3.07-8.246-7.286-9.266.015-.266.023-.539.023-.822C38.15 7.064 31.92.834 24.263.834c-6.724 0-12.38 4.689-13.639 11.224a11.85 11.85 0 00-6.037 10.361c0 6.569 5.344 11.914 11.914 11.914h1.094v1.662h-2.099c-.985 0-1.853.593-2.212 1.51a2.36 2.36 0 00.6 2.61l9.504 8.782a1.02 1.02 0 001.446-.057 1.024 1.024 0 00-.057-1.447l-9.505-8.782a.309.309 0 01-.083-.361.307.307 0 01.305-.209h4.147l-.022-8.403c0-.361.294-.656.656-.656h9.449c.361 0 .656.294.656.656l-.022 8.403h4.147c.279 0 .323.263.327.293a1.024 1.024 0 102.028-.282 2.363 2.363 0 00-2.355-2.058h-2.099v-1.662h3.484zm-4.282-2.047v-2.647a1.886 1.886 0 00-1.884-1.884h-9.449a1.886 1.886 0 00-1.884 1.884v2.647H16.5c-5.441 0-9.867-4.426-9.867-9.867a9.813 9.813 0 015.06-8.607c-.02.298-.035.6-.035.91 0 1.255.175 2.497.52 3.692a.41.41 0 10.787-.227 12.475 12.475 0 01-.488-3.465c0-.678.05-1.328.15-1.931a.398.398 0 00-.015-.182c1.012-5.652 5.863-9.727 11.65-9.727 6.529 0 11.84 5.312 11.84 11.84 0 .541-.032 1.036-.097 1.516l-.031.228c-.029 0-.056-.006-.084-.006a8.87 8.87 0 00-4.947 1.496.41.41 0 10.455.681 8.06 8.06 0 014.492-1.358c.11 0 .215.017.324.021l.67.09c3.695.495 6.481 3.684 6.481 7.419 0 4.123-3.354 7.476-7.476 7.476h-4.281z"/></svg>