<svg xmlns="http://www.w3.org/2000/svg" id="Layer_1" x="0" y="0" version="1.1" viewBox="0 0 50 50" xml:space="preserve"><style>.st2{fill:#031326}</style><path fill="#4ecdc4" d="M1.3 4.8v17.1L48.2 4.8z"/><path fill="#46b8b0" d="M48.4 4.8h-.2L1.3 21.9v22.4l47.1-17.2z"/><path d="M48 46.2H.8V5.1c0-.7.6-1.2 1.2-1.2s1.2.6 1.2 1.2v38.6H48c.7 0 1.2.6 1.2 1.2s-.5 1.3-1.2 1.3z" class="st2"/><path d="M39.6 25.3c-4.7 0-8.4 3.8-8.4 8.4s3.8 8.4 8.4 8.4c4.7 0 8.4-3.8 8.4-8.4s-3.8-8.4-8.4-8.4zm-5.1 8.4c0-1.2.9-2.3 2.1-2.4H39c.1 0 .2-.1.2-.2s-.1-.2-.2-.2h-1.9c0-1.3 1.1-2.4 2.4-2.4 1.3 0 2.4 1.1 2.4 2.4v.1c-.1 1.3-1.1 2.3-2.4 2.3-1.5 0-2.8 1.2-2.9 2.7-1.2 0-2.1-1-2.1-2.3zm7.9 2.4h-2.3c-.1 0-.2.1-.2.2s.1.2.2.2H42c0 1.3-1.1 2.4-2.4 2.4-1.3 0-2.4-1.1-2.4-2.4v-.1c.1-1.3 1.1-2.3 2.4-2.3 1.5 0 2.8-1.2 2.9-2.7 1.2.1 2.2 1.1 2.2 2.4 0 1.2-1.1 2.3-2.3 2.3z" class="st2"/><path d="M39.7 37.6c0 .2.2.4.4.4s.4-.2.4-.4-.2-.4-.4-.4c-.2-.1-.4.1-.4.4zm-.3-7.7c0-.2-.2-.4-.4-.4s-.4.2-.4.4.2.4.4.4.4-.2.4-.4zM45 9.5c-1.3 0-2.3 1-2.3 2.3 0 .6.2 1.1.6 1.6l-3.7 5.4c-.4-.3-.9-.5-1.4-.5-.8 0-1.4.4-1.8.9l-2.7-.9c-.1-1.2-1.1-2.2-2.3-2.2-1.3 0-2.3 1-2.3 2.3 0 .4.1.8.3 1.2l-4.9 5.9c-.3-.1-.6-.2-1-.2-1.3 0-2.3 1-2.3 2.3 0 .4.1.8.3 1.1l-4 4.3c-.4-.3-.8-.4-1.3-.4s-1 .2-1.3.4l-2.8-2c.1-.3.2-.5.2-.8 0-1.3-1-2.3-2.3-2.3-1.3 0-2.3 1-2.3 2.3 0 .4.1.7.3 1.1l-6.4 6.8c-.3.3-.3.8 0 1.1.1.1.3.2.5.2s.4-.1.5-.2L9 32.4c.3.1.6.2 1 .2s.8-.1 1.2-.3l3 2.1c-.2.1-.2.3-.2.6 0 1.3 1 2.3 2.3 2.3 1.3 0 2.3-1 2.3-2.3 0-.2 0-.4-.1-.6l4.3-4.6c.3.1.6.2.9.2 1.3 0 2.3-1 2.3-2.3 0-.4-.1-.7-.3-1l4.9-6c.3.1.5.2.8.2.8 0 1.5-.4 1.9-1l2.6.8c0 1.2 1 2.3 2.3 2.3 1.3 0 2.3-1 2.3-2.3v-.5l4.1-6.1h.4c1.3 0 2.3-1 2.3-2.3 0-1.3-1-2.3-2.3-2.3zM9.9 31.1c-.4 0-.8-.4-.8-.8s.4-.8.8-.8.8.4.8.8-.3.8-.8.8zm6.4 4.7c-.4 0-.8-.4-.8-.8s.4-.8.8-.8.8.4.8.8-.4.8-.8.8zm7.4-7.3c-.4 0-.8-.4-.8-.8s.4-.8.8-.8.8.4.8.8-.4.8-.8.8zm7.8-9.2c-.4 0-.8-.4-.8-.8s.4-.8.8-.8.8.4.8.8c0 .5-.4.8-.8.8zm6.8 2.1c-.4 0-.8-.4-.8-.8s.4-.8.8-.8.8.4.8.8-.4.8-.8.8zm6.7-8.8c-.4 0-.8-.4-.8-.8s.4-.8.8-.8.8.4.8.8-.3.8-.8.8z" class="st2"/></svg>