<svg xmlns="http://www.w3.org/2000/svg" id="Layer_1" x="0" y="0" version="1.1" viewBox="0 0 50 50" xml:space="preserve"><style>.st2{stroke-width:2.5}.st2,.st3{fill:none;stroke:#444;stroke-linecap:round;stroke-linejoin:round;stroke-miterlimit:10}</style><path fill="#a475ef" d="M44.16 29.16v.66l.48.24L15.9 40.53l-9.54-4.94L1.69 32l1.11-4.48 3.88 1.7 5.79-5.13 30.58-10.85 5.59 4z"/><path fill="#bf94f7" d="M39.98 12.07l2.09.99 1.59 2.22-33.14 11.84 7.04-12.39-.18.27L22.5 2.32l13.73 8.28z"/><path d="M22.5 2.32c-1.87 7-7.7 20.17-15.82 27.41M22.5 2.32l25.73 14.86c-.35 3.1-1.87 6.92-4.17 11.18M26.24 47.07c1.96 1.13 4.16.58 6.11-.84.52-.38.93-.8 1.69-1.67" class="st2"/><path d="M25.37 46.34c-.15-.18-.29-.38-.4-.58-.78-1.4-1.18-2.56-.16-4.32L2.51 28.43" class="st3"/><path d="M6.08 29.52l-3.9-2.25c-1.41 2.45-.97 5.35.99 6.49l23.07 13.32" class="st2"/><path fill="none" stroke="#444" stroke-linecap="round" stroke-linejoin="round" stroke-miterlimit="10" stroke-width=".5" d="M26.72 26v-7.17A7.17 7.17 0 1033.89 26h-7.17zm4.09-11.27v7.17h7.17c.01-3.96-3.21-7.17-7.17-7.17z"/><path d="M37.27 43.71h-3.51l.58-.79c.77-1.04 1.46-2.15 1.99-3.33.67-1.5 1.11-3.02 1.08-4.68l-.01-.58h-4.16L40.72 26l7.51 8.32h-4.16l-.01.95c-.02 1.27-.25 2.52-.67 3.7-.24.66-.54 1.29-.89 1.89m1.66-11.04l.96-1.87M32.43 45.33l1.4-1.71" class="st3"/><path d="M33.42 46.3l1.22-1.29c.08-.08.15-.17.22-.26l.82-1.04" class="st3"/></svg>