<svg xmlns="http://www.w3.org/2000/svg" id="Layer_1" x="0" y="0" version="1.1" viewBox="0 0 50 50" xml:space="preserve"><style>.st2{fill:#031326}</style><path fill="#46b8b0" d="M45.3 4.6l-42 15.3V41l42-15.3z"/><path fill="#4ecdc4" d="M45.9 5.2h-42v15.4l42-15.3z"/><path d="M41.6 42.5h-7.9c-.4 0-.8-.3-.8-.8s.3-.8.8-.8h7.9c.1 0 .2-.1.2-.2v-7.1c0-.4.3-.8.8-.8s.8.3.8.8v7.1c-.1 1.1-.9 1.8-1.8 1.8zm-25.6 0H8.1c-.9 0-1.7-.8-1.7-1.7v-7.1c0-.4.3-.8.8-.8s.8.3.8.8v7.1c-.1.1 0 .2.1.2H16c.4 0 .8.3.8.8s-.4.7-.8.7zm26.5-25.7c-.4 0-.8-.3-.8-.8V9c0-.1-.1-.2-.2-.2h-7.9c-.4 0-.8-.3-.8-.8s.3-.8.8-.8h7.9c.9 0 1.7.8 1.7 1.7V16c.1.5-.3.8-.7.8zm-35.3 0c-.4 0-.8-.3-.8-.8V9c0-1 .8-1.7 1.7-1.7H16c.4 0 .8.3.8.8s-.4.6-.8.6H8.1c-.1 0-.2.1-.2.3v7c0 .5-.3.8-.7.8zm10.2-5l2.1 4.4c.3.6.4 1.2.4 1.9v3.7h4.4V11.3h-4.7c-.8 0-1.6.2-2.2.5zm8.8-.5v10.6H30v-3.7c0-.6.1-1.3.4-1.9l2.1-4.4c-.7-.4-1.5-.6-2.3-.6h-4zm11.2 15l-.9-10c-.1-.8-.5-1.6-1.1-2.1L34 13.1l-1.9 4c-.2.3-.2.7-.2 1v9.7c0 .2.2.4.4.4h5c.1-.6.1-1.3.1-1.9zm-7 10.8v-2.8L25.5 31c-.2-.1-.3-.1-.5 0l-4.9 3.3v3.3l2.5 1.6c.4.3 1 .4 1.5.4h1.4c.5 0 1-.1 1.5-.4l3.4-2.1zm-16-22.9c-.7.5-1.1 1.3-1.1 2.1l-.9 10c-.1.6 0 1.3.1 1.9h5.2c.2 0 .4-.2.4-.4v-9.7c0-.4-.1-.7-.2-1L15.8 13l-1.4 1.2z" class="st2"/><path d="M32.7 35.4l3.4-4.7c.1-.2.3-.4.4-.6h-4.3c-1.3 0-2.3-1-2.3-2.3v-4h-10v4c0 1.3-1 2.3-2.3 2.3h-4.4c.1.2.3.4.4.6l3.4 4.7c.2.3.5.5.8.7l.4.2v-3.1l6-4.1c.7-.4 1.5-.4 2.2 0l6 4.1v2.6c0-.1.2-.2.3-.4zm7.4-13l.2-2.5c.1-.7-.7-1.2-1.3-.8l-1 .6.5 5.3.7-.7c.5-.4.9-1.1.9-1.9zM9.4 19.9l.2 2.5c.1.8.4 1.5.9 2l.7.7.5-5.3-1-.6c-.6-.5-1.3 0-1.3.7z" class="st2"/><path d="M48.3 25.2h-1.2v-22h-21V1.8c0-.7-.6-1.2-1.2-1.2s-1.2.6-1.2 1.2v1.4h-21v22h-1c-.7 0-1.2.6-1.2 1.2s.6 1.2 1.2 1.2h.9v18.9h21v1.6c0 .7.6 1.2 1.2 1.2s1.2-.6 1.2-1.2v-1.6h21V27.7h1.2c.7 0 1.2-.6 1.2-1.2s-.4-1.3-1.1-1.3zm-3.7 0H44c-.7 0-1.2.6-1.2 1.2s.6 1.2 1.2 1.2h.7V44H26.1v-.2c0-.7-.6-1.2-1.2-1.2s-1.2.6-1.2 1.2v.2H5.1V27.7H6c.7 0 1.2-.6 1.2-1.2s-.5-1.3-1.2-1.3h-.9V5.7h18.5v.4c0 .7.6 1.2 1.2 1.2S26 6.7 26 6.1v-.4h18.5v19.5z" class="st2"/></svg>