<svg xmlns="http://www.w3.org/2000/svg" id="Layer_1" x="0" y="0" version="1.1" viewBox="0 0 50 50" xml:space="preserve"><style>.st2{fill:#031326}</style><path fill="#e589ef" d="M7.4 46.8l7.5-7.5c2 1.5 4.1 2.5 6.4 3.2l23-8.4c5.2-8 4.3-18.7-2.6-25.7-8-8-21-8-29 0-7.3 7.3-7.9 18.7-1.9 26.8l-7.5 7.5c-1.1 1.1-1.1 3 0 4.1 1.1 1.1 2.9 1.1 4.1 0z"/><path fill="#f799ff" d="M36.5 4.6C28.8.7 19.2 2 12.8 8.4c-1.9 1.9-3.3 4.1-4.3 6.4l28-10.2z"/><path d="M42.4 7.6C34-.8 20.2-.8 11.8 7.6c-7.3 7.3-8.4 19-2.6 27.5l-6.8 6.8c-.8.8-1.2 1.8-1.2 2.9s.4 2.1 1.2 2.9c.8.8 1.8 1.2 2.9 1.2s2.1-.4 2.9-1.2l6.8-6.8c3.6 2.4 7.8 3.7 12.1 3.7.6 0 1.2-.5 1.2-1.2 0-.6-.5-1.2-1.2-1.2-4.2 0-8.2-1.3-11.6-3.9l-.8-.6c-.5-.4-.9-.8-1.3-1.2-.4-.4-.8-.9-1.2-1.3l-.6-.8c-5.7-7.6-5-18.5 1.8-25.2 3.7-3.7 8.5-5.7 13.7-5.7s10 2 13.7 5.7c6.5 6.5 7.5 16.7 2.5 24.3-.4.5-.2 1.3.3 1.6.5.4 1.3.2 1.6-.3 5.7-8.5 4.5-20-2.8-27.2zM6.5 45.9c-.7.7-1.8.7-2.5 0-.3-.3-.5-.8-.5-1.2s.2-.9.5-1.2l4.2-4.2 2.5 2.5-4.2 4.1zm7.2-7.2l-2.4 2.4-2.5-2.5 2.4-2.4c.4.4.8.9 1.2 1.3.5.4.9.8 1.3 1.2z" class="st2"/><path d="M36.5 32.6h-4.8L27 25l-4.7 7.6h-4.5l6.6-10.3-6.2-9.7h4.7l4.3 7.2 4.2-7.2H36l-6.3 9.9 6.8 10.1z" class="st2"/><path fill="none" d="M20.7 16.1h12.9V29H20.7zm21.5-.7c-1.6-3.4-4.4-6.2-7.8-7.8v7.8h7.8zM19.9 7.6c-3.4 1.6-6.2 4.4-7.8 7.8h7.8V7.6zm13.7 7.8V7.2c-2-.8-4.2-1.3-6.5-1.3s-4.5.5-6.5 1.3v8.2h13zm.8 13.7h8.2c.8-2 1.3-4.2 1.3-6.5s-.5-4.5-1.3-6.5h-8.2v13zm0 8.5c3.4-1.6 6.2-4.4 7.8-7.8h-7.8v7.8zm-22.2-7.8c1.6 3.4 4.4 6.2 7.8 7.8v-7.8h-7.8zm8.5 0V38c2 .8 4.2 1.3 6.5 1.3s4.5-.5 6.5-1.3v-8.2h-13zm-.8-13.7h-8.2c-.8 2-1.3 4.2-1.3 6.5s.5 4.5 1.3 6.5h8.2v-13z"/><path d="M19.9 29.1h.8v.8h-.8zm13.7 0h.8v.8h-.8zM19.9 15.4h.8v.8h-.8z" class="st2"/><path d="M19.9 16.1h.8V29h-.8zm.8 13h12.9v.8H20.7z" class="st2"/><path d="M27.2 5.6c-9.4 0-17.1 7.7-17.1 17.1 0 9.4 7.7 17.1 17.1 17.1 9.4 0 17.1-7.7 17.1-17.1-.1-9.5-7.7-17.1-17.1-17.1zM34.4 8c3.2 1.6 5.8 4.2 7.4 7.4h-7.4V8zm7.4 21.8c-1.6 3.2-4.2 5.8-7.4 7.4v-7.4h-.8v7.7c-2 .9-4.2 1.3-6.5 1.3s-4.5-.5-6.5-1.4v-7.7h-.8v7.4c-3.2-1.6-5.8-4.2-7.4-7.4h7.4v-.8h-7.7c-.9-2-1.3-4.2-1.3-6.5s.5-4.5 1.3-6.5h7.7v-.8h-7.4c1.6-3.2 4.2-5.8 7.4-7.4v7.4h.8V7.7c2-.9 4.2-1.3 6.5-1.3s4.5.5 6.5 1.3v7.7H20.7v.8h12.9v12.9h.8v-13h7.7c.9 2 1.3 4.2 1.3 6.5s-.5 4.5-1.3 6.5h-7.7v.8h7.4z" class="st2"/></svg>