<svg xmlns="http://www.w3.org/2000/svg" id="Camada_3" x="0" y="0" version="1.1" viewBox="0 0 50 50" xml:space="preserve"><style>.st2,.st3{fill:none;stroke:#444;stroke-linecap:round;stroke-linejoin:round;stroke-miterlimit:10}.st3{stroke-width:.5}</style><path fill="#fdcf72" d="M32.31 2.53l-27.96-.3c-4.14 1.01-2 8.54-2 9.66l5.94.24v5.52l26.59-9.46-.51-3.43c.04-.01.07-.05.07-.1 0-1.18-.96-2.13-2.13-2.13z"/><path fill="#fcc34f" d="M7.77 17.84l1.27 21.91 2.84 1.29 36.19-12.88.14-13.9c-.25-2.21-1.92-4-4.11-4.41l-9.21-1.66-27.12 9.65z"/><path d="M12.09 40.25h9m0 6.36V13.25c0-1.66-1.34-3-3-3s-3 1.34-3 3v24c0 1.66-1.34 3-3 3s-3-1.34-3-3v-31c0-1.66-1.34-3-3-3s-3 1.34-3 3v5h6" class="st2"/><path d="M18.09 10.25h26c1.66 0 3.4 1.34 3.4 3m-40.4-10h24c1.66 0 3 1.34 3 3v4" class="st2"/><path d="M34.09 19.95h10m-10 2.71h4m-4-5.41h10" class="st3"/><path fill="#444" d="M25.09 35.25h4v9h-4zm7-4h4v13h-4zm7 7h4v6h-4z"/><path d="M25.09 17.25h6v8h-6z" class="st3"/><path fill="none" stroke="#444" stroke-linecap="round" stroke-linejoin="round" stroke-miterlimit="10" stroke-width="2.5" d="M47.92 42.01l.15-28.26c0-1.53-1.37-4.28-4.77-4.28l-6.94-.12c-.82-.01-1.48-.68-1.47-1.5V5.46s.18-3.24-5.13-3.24c-4.44 0-24.59.04-24.59.04s-2.73.11-2.73 3.53L2.38 10a2.1 2.1 0 002.1 2.13h3.81v25.61s.2 3.32 3.6 3.32c1.68 0 4.45-.02 6.11-.03 1.63-.01 2.24.67 2.24 2.29v2.31c0 1.18.96 2.13 2.13 2.13h19.77"/></svg>