<svg xmlns="http://www.w3.org/2000/svg" id="Layer_1" x="0" y="0" version="1.1" viewBox="0 0 50 50" xml:space="preserve"><style>.st4{fill:#444}</style><path fill="#00dffc" d="M46.9 8.5L2.5 29 2.2 9.3l6.5-.8 28-.6z"/><path fill="#00c8e2" d="M47.8 24.7L2.5 41.1l.1-18.7 39-14.2 4.5.3z"/><path fill="none" stroke="#444" stroke-linecap="round" stroke-linejoin="round" stroke-miterlimit="10" stroke-width="2.5" d="M22.5 42.1H2.2V8.5h44.7v33.6h-4.6"/><path fill="none" stroke="#444" stroke-linecap="round" stroke-linejoin="round" stroke-miterlimit="10" d="M41.5 18.5l1.7.4-.4 1.6M10.5 34.1l-2.1-.5.5-1.9m34.3-12.8L8.4 33.6m21.7 0l-.4 1.6-1.7-.4M20 20l.5-1.9 2 .5m6.9 16.2l-8.9-16.7"/><circle cx="16.2" cy="25.3" r=".3" class="st4"/><circle cx="17.5" cy="24.9" r=".3" class="st4"/><circle cx="11.9" cy="14.2" r=".3" class="st4"/><circle cx="18.2" cy="23.6" r=".3" class="st4"/><circle cx="16.7" cy="22.4" r=".3" class="st4"/><circle cx="11" cy="23.6" r=".3" class="st4"/><circle cx="14.5" cy="29.9" r=".3" class="st4"/><circle cx="9.9" cy="29" r=".3" class="st4"/><circle cx="15.4" cy="32.1" r=".3" class="st4"/><circle cx="15.7" cy="28.4" r=".3" class="st4"/><circle cx="15.2" cy="27.1" r=".3" class="st4"/><circle cx="11.8" cy="26" r=".3" class="st4"/><circle cx="17.8" cy="28.3" r=".3" class="st4"/><circle cx="18.2" cy="31" r=".3" class="st4"/><circle cx="16.8" cy="26.7" r=".3" class="st4"/><circle cx="34.6" cy="21" r=".3" class="st4"/><circle cx="25" cy="24.2" r=".3" class="st4"/><circle cx="24.4" cy="23" r=".3" class="st4"/><circle cx="19.1" cy="27.6" r=".3" class="st4"/><circle cx="18.4" cy="26" r=".3" class="st4"/><circle cx="21.5" cy="22.7" r=".3" class="st4"/><circle cx="19.9" cy="24.2" r=".3" class="st4"/><circle cx="19.1" cy="21.7" r=".3" class="st4"/><circle cx="16.3" cy="18.3" r=".3" class="st4"/><circle cx="20.8" cy="26.7" r=".3" class="st4"/><circle cx="23" cy="26" r=".3" class="st4"/><circle cx="20.3" cy="25.5" r=".3" class="st4"/><circle cx="21.8" cy="24.8" r=".3" class="st4"/><circle cx="31.2" cy="28" r=".3" class="st4"/><circle cx="32.5" cy="27.4" r=".3" class="st4"/><circle cx="31.7" cy="25.6" r=".3" class="st4"/><circle cx="29.4" cy="27.4" r=".3" class="st4"/><circle cx="26.6" cy="27.6" r=".3" class="st4"/><circle cx="28.2" cy="27" r=".3" class="st4"/><circle cx="30.5" cy="29.9" r=".3" class="st4"/><circle cx="29.7" cy="29" r=".3" class="st4"/><circle cx="30.5" cy="26.5" r=".3" class="st4"/><circle cx="28.2" cy="24.3" r=".3" class="st4"/><circle cx="31.7" cy="31" r=".3" class="st4"/><circle cx="31.8" cy="29.3" r=".3" class="st4"/><circle cx="33.7" cy="29.8" r=".3" class="st4"/><circle cx="39" cy="23.2" r=".3" class="st4"/><circle cx="33" cy="28.6" r=".3" class="st4"/><circle cx="35.6" cy="25.2" r=".3" class="st4"/><circle cx="33.6" cy="24.1" r=".3" class="st4"/><circle cx="36" cy="28.8" r=".3" class="st4"/><circle cx="35.3" cy="27.6" r=".3" class="st4"/><circle cx="39.1" cy="27.8" r=".3" class="st4"/><circle cx="36.7" cy="26.9" r=".3" class="st4"/><circle cx="29" cy="20.1" r=".3" class="st4"/><circle cx="24.2" cy="13.8" r=".3" class="st4"/><circle cx="29.8" cy="17.6" r=".3" class="st4"/><circle cx="31" cy="12" r=".3" class="st4"/><circle cx="32.7" cy="20.8" r=".3" class="st4"/><circle cx="25.5" cy="21.8" r=".3" class="st4"/><circle cx="25.2" cy="19.8" r=".3" class="st4"/><circle cx="26.8" cy="23.7" r=".3" class="st4"/><circle cx="27.3" cy="21" r=".3" class="st4"/><circle cx="34.7" cy="23.7" r=".3" class="st4"/><circle cx="28.2" cy="22.6" r=".3" class="st4"/><circle cx="31.4" cy="20.9" r=".3" class="st4"/><circle cx="32.1" cy="18.4" r=".3" class="st4"/><circle cx="30.9" cy="22.1" r=".3" class="st4"/><circle cx="32.6" cy="22.4" r=".3" class="st4"/><circle cx="22.1" cy="30.6" r=".3" class="st4"/><circle cx="24.2" cy="28.6" r=".3" class="st4"/><circle cx="17.8" cy="33.1" r=".3" class="st4"/><circle cx="22.3" cy="37" r=".3" class="st4"/><circle cx="20.3" cy="31.5" r=".3" class="st4"/><circle cx="22.9" cy="29.1" r=".3" class="st4"/><circle cx="21.3" cy="33.3" r=".3" class="st4"/><circle cx="21.7" cy="32" r=".3" class="st4"/><circle cx="28.3" cy="28.6" r=".3" class="st4"/><circle cx="24.8" cy="30.4" r=".3" class="st4"/><circle cx="20.7" cy="30" r=".3" class="st4"/><circle cx="33.6" cy="26.1" r=".3" class="st4"/><circle cx="22.7" cy="33.6" r=".3" class="st4"/><circle cx="23" cy="32.3" r=".3" class="st4"/><circle cx="14.5" cy="36.9" r=".3" class="st4"/><circle cx="25.8" cy="32" r=".3" class="st4"/><circle cx="25" cy="34.5" r=".3" class="st4"/><circle cx="26.3" cy="40.6" r=".3" class="st4"/><circle cx="25.3" cy="33.2" r=".3" class="st4"/><circle cx="29.6" cy="32.2" r=".3" class="st4"/><circle cx="34.7" cy="32.6" r=".3" class="st4"/></svg>