<svg xmlns="http://www.w3.org/2000/svg" id="Layer_1" x="0" y="0" version="1.1" viewBox="0 0 50 50" xml:space="preserve"><style>.st2{fill:#031326}</style><path fill="#a475ef" d="M42.8 24.6L1.7 39.2V21.3l14.1-5.1-.6 11.6 10.6.8 3.4-3.4 12.6-2.4z"/><path fill="#bf94f7" d="M15.8 16.2L1.7 21.3l.4-8.3L15 8.3z"/><path d="M44.6 40.1H6.2c-1.8 0-3.2-1.5-3.2-3.2V9c0-.7-.6-1.2-1.2-1.2S.5 8.3.5 9v27.8c0 3.2 2.6 5.7 5.7 5.7h38.3c.7 0 1.2-.6 1.2-1.2s-.4-1.2-1.1-1.2z" class="st2"/><path d="M46.9 36.1H40c-.4 0-.8.3-.8.8s.3.8.8.8h6.8c.4 0 .8-.3.8-.8s-.3-.8-.7-.8zm2.2-4.5H40c-.4 0-.8.3-.8.8s.3.8.8.8h9.1c.4 0 .8-.3.8-.8s-.4-.8-.8-.8zm-13.2-3.8c0 2.1-1.7 3.7-3.7 3.7-.4 0-.8.3-.8.8s.3.8.8.8c2.6 0 4.8-2 5.2-4.5h9.5c.4 0 .8-.3.8-.8s-.3-.8-.8-.8H36.6c-.4.1-.7.4-.7.8z" class="st2"/><path d="M15.2 29.1h11.2c0 .3-.1.7-.1 1 0 .7.6 1.2 1.2 1.2s1.2-.6 1.2-1.2c0-3 2.5-5.5 5.5-5.5h7.9c.7 0 1.2-.6 1.2-1.2s-.6-1.2-1.2-1.2h-7.9c-3.2 0-5.9 1.8-7.2 4.5H16.5V9c0-.7-.6-1.2-1.2-1.2S14 8.3 14 9v18.8c0 .7.5 1.3 1.2 1.3z" class="st2"/></svg>