<svg xmlns="http://www.w3.org/2000/svg" id="Layer_1" x="0" y="0" version="1.1" viewBox="0 0 50 50" xml:space="preserve"><style>.st2{fill:none;stroke:#494949;stroke-linecap:round;stroke-linejoin:round;stroke-miterlimit:10}</style><path fill="#bf94f7" d="M30.5 15.7c0 1.7-1.4 3.1-3.1 3.1-1.2 0-2.2-.6-2.7-1.6v7.4h-8c1.1-.5 1.9-1.6 1.9-2.9 0-1.7-1.4-3.1-3.1-3.1s-3.1 1.4-3.1 3.1c0 1.3.8 2.4 1.9 2.9H5.9V10.8c0-2.5 2-4.6 4.6-4.6h14.2v8c.5-.9 1.5-1.6 2.7-1.6 1.7 0 3.1 1.4 3.1 3.1z"/><path fill="#a475ef" d="M16.7 24.5h8v8.7c-.4-1.2-1.6-2.1-2.9-2.1-1.7 0-3.1 1.4-3.1 3.1 0 1.7 1.4 3.1 3.1 3.1 1.4 0 2.5-.9 2.9-2.1v8.7H10.5c-2.5 0-4.6-2-4.6-4.6V24.5h8.5c-1.1-.5-1.9-1.6-1.9-2.9 0-1.7 1.4-3.1 3.1-3.1s3.1 1.4 3.1 3.1c-.1 1.4-.9 2.5-2 2.9zm27.4.1h-9c1 .5 1.8 1.5 1.8 2.8 0 1.7-1.4 3.1-3.1 3.1-1.7 0-3.1-1.4-3.1-3.1 0-1.2.7-2.3 1.8-2.8h-7.7v-7.4c.5.9 1.5 1.6 2.7 1.6 1.7 0 3.1-1.4 3.1-3.1 0-1.7-1.4-3.1-3.1-3.1-1.2 0-2.2.6-2.7 1.6v-8h14.8c2.5 0 4.6 2 4.6 4.6v13.8z"/><path d="M18.7 34.2c0 1.7 1.4 3.1 3.1 3.1 1.4 0 2.5-.9 2.9-2.1v8.7H10.5c-2.5 0-4.6-2.1-4.6-4.6V24.5h8.5c-1.1-.5-1.9-1.6-1.9-2.9 0-1.7 1.4-3.1 3.1-3.1 1.7 0 3.1 1.4 3.1 3.1 0 1.3-.8 2.4-1.9 2.9h8v8.7c-.4-1.2-1.6-2.1-2.9-2.1-1.8 0-3.2 1.4-3.2 3.1z" class="st2"/><path d="M30.5 15.7c0 1.7-1.4 3.1-3.1 3.1-1.2 0-2.2-.6-2.7-1.6v7.4h-8c1.1-.5 1.9-1.6 1.9-2.9 0-1.7-1.4-3.1-3.1-3.1-1.7 0-3.1 1.4-3.1 3.1 0 1.3.8 2.4 1.9 2.9H5.9V10.8c0-2.5 2.1-4.6 4.6-4.6h14.2v8c.5-.9 1.5-1.6 2.7-1.6 1.7 0 3.1 1.4 3.1 3.1z" class="st2"/><path d="M44.1 24.5h-9c1 .5 1.8 1.6 1.8 2.8 0 1.7-1.4 3.1-3.1 3.1-1.7 0-3.1-1.4-3.1-3.1 0-1.2.7-2.3 1.8-2.8h-7.7v-7.4c.5.9 1.5 1.6 2.7 1.6 1.7 0 3.1-1.4 3.1-3.1s-1.4-3.1-3.1-3.1c-1.2 0-2.2.6-2.7 1.6v-8h14.8c2.5 0 4.6 2.1 4.6 4.6v13.8z" class="st2"/><path d="M44.1 24.5v14.6c0 2.5-2.1 4.6-4.6 4.6H24.7V35c-.4 1.2-1.6 2.1-2.9 2.1-1.7 0-3.1-1.4-3.1-3.1 0-1.7 1.4-3.1 3.1-3.1 1.4 0 2.5.9 2.9 2.1v-8.7h7.7c-1 .5-1.8 1.6-1.8 2.8 0 1.7 1.4 3.1 3.1 3.1 1.7 0 3.1-1.4 3.1-3.1 0-1.2-.7-2.3-1.8-2.8h9.1z" class="st2"/><path fill="none" stroke="#494949" stroke-linecap="round" stroke-linejoin="round" stroke-miterlimit="10" stroke-width="2.5" d="M40.6 47.7H9.4c-3.9 0-7.1-3.2-7.1-7.1V9.4c0-3.9 3.2-7.1 7.1-7.1h31.1c3.9 0 7.1 3.2 7.1 7.1v31.1c.1 4-3.1 7.2-7 7.2z"/></svg>