<svg xmlns="http://www.w3.org/2000/svg" id="Camada_3" x="0" y="0" version="1.1" viewBox="0 0 50 50" xml:space="preserve"><style>.st4{stroke:#444;stroke-linecap:round;stroke-miterlimit:10;stroke-width:.25;fill:#444}</style><path fill="#46b8b0" d="M47.48 9.23l.35 20.16-29.46 10.48-13.22.11-.96.02-1.51.37.21-19.36L47.3 3.52l.18 4.14z"/><path fill="#4ecdc4" d="M46.13 2.16l1.17 1.36L2.89 21.01l-.16-7.16-.05-6.01.22-5.73 8.22.04z"/><path fill="#444" d="M34.45 11.45l-2.68 5.07c-.24.33-.37.42-.77.27-1.93-.83-4.05-1.3-6.28-1.3-2.07 0-4.05.4-5.87 1.14-.28.11-.6 0-.75-.27l-2.67-4.91s-.3-.43-.79-.15c-.51.3-.32.77-.32.77l2.54 4.83c.16.3.05.66-.24.82-4.58 2.74-7.72 7.72-7.98 13.47-.02.35.27.65.61.65H40.2c.34 0 .63-.29.61-.64-.25-5.62-3.26-10.5-7.68-13.28a.612.612 0 01-.22-.82l2.64-5.03s.2-.52-.25-.8c-.51-.31-.85.18-.85.18zm-18.72 14.9c-.91 0-1.66-.74-1.66-1.66 0-.91.75-1.66 1.66-1.66.92 0 1.66.75 1.66 1.66 0 .92-.74 1.66-1.66 1.66zm17.69 0c-.92 0-1.66-.74-1.66-1.66 0-.91.74-1.66 1.66-1.66.92 0 1.65.75 1.65 1.66 0 .92-.73 1.66-1.65 1.66z"/><path fill="none" stroke="#444" stroke-linecap="round" stroke-linejoin="round" stroke-miterlimit="10" stroke-width="2.5" d="M38.83 47.9H25.88v-7.42H2.12V2.38h45.76v34.95"/><path d="M17.39 3.01v8.16m13.73-8.79v7.08m13.37 17.82h3.39" class="st4"/><path fill="none" stroke="#444" stroke-linecap="round" stroke-miterlimit="10" stroke-width=".25" d="M31.79 34.82l-.03 12.35m-14.81-7.32l.03-5.03"/><path d="M6.27 27.17l-4.15.11m11.53-11.32H2.68m45.2-6.5H31.12" class="st4"/><path fill="none" stroke="#444" stroke-linecap="round" stroke-linejoin="round" stroke-miterlimit="10" d="M6.32 7.38h36.27v35.07l-2.39-2.02m4.97.03l-2.58 1.99M8.62 5.12L6.27 7.4m2.35 2.53L6.27 7.4"/></svg>