<svg xmlns="http://www.w3.org/2000/svg" id="Layer_1" x="0" y="0" version="1.1" viewBox="0 0 50 50" xml:space="preserve"><style>.st2{fill:#031326}</style><path fill="#afe55d" d="M49.6 22l-.9.3-11 4-1 .4-2.6 1-2.7 1-2.1.8-.9.3-1.9.7-.9.3-.9.3-.9.3-1.8.7-.9.3L4 38.6l-2.7 1H.8l-.5-1.5V23.4c0-1 .2-2 .7-2.9l1.5-.5L8 18l1.5-.5 11-4 2.6-.9 6.7-2.4.9-.3c.1.1.1.2.2.4h7.5c2.3 0 4.2 1.4 5 3.5.2.6.3 1.2.3 1.9v1.5c2.9-.1 5.3 2 5.9 4.8z"/><path fill="#c3ff68" d="M43.3 13.5l-.9.3-6.5 2.4-.9.4-1.7.6-.9.3-.9.3-.9.3-11.1 4-.9.3-.9.3-.9.3-1.8.6-1 .6-.7.2-1 .4-11.1 4-1 .4v-5.9c0-1 .2-2 .7-2.9 1-2 3-3.5 5.4-3.6v-1.5c0-2.9 2.4-5.3 5.3-5.3h7.5c.6-1.2 1.5-2.2 2.7-2.9V7l-.5-.9c-.1-.2 0-.5.2-.6s.5 0 .6.2l.5.9v.1c.6-.2 1.2-.4 1.9-.4h.9c.5 0 1 .1 1.5.2l.4-.9c.1-.2.4-.3.6-.2.2.1.3.4.2.6l-.3 1c1.2.6 2.2 1.6 2.8 2.7.1.1.1.2.2.4h7.5c2.3 0 4.3 1.4 5 3.4z"/><path d="M49.8 22c-.6-2.9-3-5-5.9-5.3v-1.3c0-.7-.1-1.3-.3-1.9-.8-2.2-2.9-3.6-5.2-3.6H31c0-.1-.1-.2-.1-.3-.6-1.1-1.6-2.1-2.7-2.7l.3-.6c.1-.2.1-.3 0-.5s-.2-.3-.3-.4c-.2-.1-.3-.1-.5 0s-.3.2-.4.3l-.4.7c-.4-.1-.9-.2-1.4-.2h-.9c-.6 0-1.2.1-1.8.3l-.4-.9c-.2-.3-.6-.5-.9-.3s-.5.6-.3.9l.4.8c-1.1.7-1.9 1.6-2.5 2.8h-7.4c-3.1 0-5.5 2.5-5.5 5.5v1.3c-2.3.2-4.3 1.7-5.4 3.7-.5.9-.7 1.9-.7 3v15.8c0 .4.3.7.7.7h4.1V44c0 .4.3.7.7.7.4 0 .7-.3.7-.7v-4.2h37.4V44c0 .4.3.7.7.7s.7-.3.7-.7v-4.2h4.2c.4 0 .7-.3.7-.7V23.4c-.1-.5-.1-.9-.2-1.4zm-30.1-9.7c.3-2.6 2.5-4.7 4.8-4.7h.9c1.6 0 3.2 1 4.1 2.5.4.7.6 1.4.7 2.1l-10.5.1zm-1.4.6c0 .4.3.7.7.7h12c.4 0 .7-.3.7-.7 0-.6-.1-1.1-.2-1.7h6.9c1.7 0 3.3 1.1 3.9 2.7.2.4.3.9.3 1.4v1.3c-3.4.3-6.1 3.3-6.1 6.7v4.2h-4.7V14.8c0-.4-.3-.7-.7-.7H19c-.4 0-.7.3-.7.7v12.8h-4.8v-4.2c0-2.7-1.6-5.1-4-6.2-.6-.3-1.3-.5-2-.5v-1.3c0-2.3 1.9-4.1 4.2-4.1h6.9c-.2.5-.3 1.1-.3 1.6zM28 31.4c0 .4-.3.7-.7.7-.4 0-.7-.3-.7-.7v-2.5H28v2.5zm-4.6.1c0 .4-.3.7-.7.7-.2 0-.4-.1-.5-.2-.2-.2-.2-.4-.2-.6v-2.5h1.5v2.4l-.1.2zm5.3-4h-9V15.4h10.7v12.1h-1.7zm-15.8 1.4h7.8v2.5c0 .3.1.6.2.9l.1.1s0 .1.1.1c.4.6 1 1 1.7 1 1.1 0 2-.9 2-2V29h.5v2.5c0 1.1.9 2 2 2s2-.9 2-2V29H37c.4 0 .7-.3.7-.7v-4.9c0-3 2.4-5.4 5.4-5.4 2.6 0 4.8 1.9 5.3 4.4.1.3.1.6.1.9v15.1H1.4v-15c0-1.2.4-2.4 1.2-3.3 1-1.3 2.5-2.1 4.2-2.1.4 0 .8 0 1.1.1 2.5.5 4.2 2.7 4.2 5.3v4.9c.1.3.4.6.8.6z" class="st2"/><path d="M15.8 25.6c1.1 0 2-.9 2-2v-6.5c0-1.1-.9-2-2-2s-2 .9-2 2v6.5c-.1 1.1.8 2 2 2zm.7-2c0 .4-.3.7-.7.7-.4 0-.7-.3-.7-.7v-6.5c0-.4.3-.7.7-.7.4 0 .7.3.7.7v6.5zm17.8 2c1.1 0 2-.9 2-2v-6.5c0-1.1-.9-2-2-2s-2 .9-2 2v6.5c-.1 1.1.8 2 2 2zm-.8-8.5c0-.4.3-.7.7-.7s.7.3.7.7v6.5c0 .4-.3.7-.7.7s-.7-.3-.7-.7v-6.5zM23.6 9c-.3 0-.6.3-.6.7v.5c0 .4.3.7.7.7s.7-.3.7-.7v-.5c-.1-.4-.4-.7-.8-.7zm2.8 0c-.4 0-.7.3-.7.7v.5c0 .4.3.7.7.7.4 0 .7-.3.7-.7v-.5c0-.4-.3-.7-.7-.7z" class="st2"/></svg>