<svg xmlns="http://www.w3.org/2000/svg" id="Layer_1" x="0" y="0" version="1.1" viewBox="0 0 50 50" xml:space="preserve"><style>.st2{fill:#031326}</style><path fill="#46b8b0" d="M48.2 24.9L13.3 37.6l-8.8-3-4.2-7.3 38.5-14 2 6.2 4.8 1.9z"/><path fill="#4ecdc4" d="M39.2 13.4L.9 27.3l2.7-8.1 6-2.7 3-5.9 6.1-4.2 7.5-1.3 9.3 3.3z"/><path d="M41.5 18.8c-1.1-8.3-8.2-14.5-16.6-14.5-7.3.1-13.6 4.6-15.9 11.5C3.8 16.9.1 21.4.1 26.7c0 5.8 4.5 10.7 10.4 11.2h2.4c.4 0 .8-.3.8-.8s-.3-.8-.8-.8h-2.3c-5-.4-8.9-4.6-8.9-9.7-.1-4.6 3.3-8.6 8-9.4l.5-.1.1-.4c1.9-6.4 7.9-10.8 14.6-10.8 7.9 0 14.4 5.9 15.2 13.7l.1.6.6.1c4.2.4 7.4 3.8 7.4 8.1 0 4.2-3.2 7.7-7.3 8.1h-8.1V23.4c0-2.7-1.4-5.1-3.5-6.6l1.5-2.2c.2-.3.1-.8-.2-1-.3-.2-.8-.1-1 .2L28 16.1c-1-.4-2.1-.7-3.2-.7s-2.2.2-3.2.7L20 13.8c-.2-.3-.7-.4-1-.2-.3.2-.4.7-.2 1l1.5 2.2c-2.1 1.5-3.5 3.9-3.5 6.6v14.4h2.4V42c0 1.2 1 2.2 2.2 2.2s2.2-1 2.2-2.2v-4.1H26V42c0 1.2 1 2.2 2.2 2.2s2.2-1 2.2-2.2v-4.1H41c4.9-.4 8.7-4.6 8.7-9.6-.1-4.8-3.5-8.8-8.2-9.5zm-16.7-1.9c3.4 0 6.2 2.6 6.5 5.8h-13c.3-3.2 3.1-5.8 6.5-5.8zm6.5 19.5h-2.4V42c0 .4-.3.7-.7.7s-.7-.3-.7-.7v-5.6h-5.4V42c0 .4-.3.7-.7.7s-.7-.3-.7-.7v-5.6h-2.4V24.3h13.1v12.1z" class="st2"/><path d="M13.8 23.3c-1.2 0-2.2 1-2.2 2.2v6.8c0 1.2 1 2.2 2.2 2.2s2.2-1 2.2-2.2v-6.8c0-1.2-1-2.2-2.2-2.2zm.7 9c0 .4-.3.7-.7.7s-.7-.3-.7-.7v-6.8c0-.4.3-.7.7-.7s.7.3.7.7v6.8zm23.5 0v-6.8c0-1.2-1-2.2-2.2-2.2s-2.2 1-2.2 2.2v6.8c0 1.2 1 2.2 2.2 2.2s2.2-1 2.2-2.2zm-3 0v-6.8c0-.4.3-.7.7-.7s.7.3.7.7v6.8c0 .4-.3.7-.7.7s-.7-.3-.7-.7zM21.9 19.2c-.5 0-1 .4-1 1s.4 1 1 1 1-.4 1-1-.5-1-1-1z" class="st2"/><circle cx="27.7" cy="20.1" r="1" class="st2"/></svg>