<svg xmlns="http://www.w3.org/2000/svg" id="Layer_1" x="0" y="0" version="1.1" viewBox="0 0 50 50" xml:space="preserve"><style>.st4{fill:#031326}.st5{fill:#353535}</style><path fill="none" d="M2.1 34.1s.1.1.1.3L3 34l-.1-.1s-.1 0-.1-.1l-.9.3h.2z"/><path fill="#031326" d="M.7 34.4v.2l1.1-.4z"/><path fill="#a6c1c2" d="M48 24.9l-.2-.1-.1-.1c.3-.2.4-.5.4-.8l-.8-.8.2-.4s-.4.1-.7.1l-5.2-3-38.7 14s.1 0 .1.1l.1.1-.8.4c-.1-.2-.1-.3-.1-.3H2l-1.2.4v1.3c0 .3.2.6.6.9l5.3 3.1.9.5 41.8-15.2v-.4l-.6.1s-.5.1-.8.1z"/><path fill="#b9d7d9" d="M31.1 16L3.7 32c-.1-.2-.1-.3-.1-.3l-.6.4-.7 1.3c0 .3.1.5.5.7L41.4 20l-7.1-4.1c-.8-.5-2.2-.4-3.2.1z"/><path d="M16.7 45.5c-.6 0-1.1-.1-1.5-.3l-13.9-8c-.4-.2-.6-.5-.6-.8v-1.6h.2v1.5c0 .3.2.6.5.8l13.9 8c.8.5 2.3.4 3.3-.1l29.9-17.3c.5-.3.8-.7.8-1V25h.2v1.5c0 .4-.3.9-.9 1.2L18.7 45c-.6.3-1.3.5-2 .5z" class="st4"/><path id="XMLID_68_" d="M16.9 43.9c-.7 0-1.4-.2-1.9-.5L1.6 35.7C.9 35.3.5 34.7.5 34c0-.8.5-1.5 1.3-2l28.9-16.7c1.3-.7 3.1-.8 4.3-.1l13.4 7.7c.7.4 1.1 1 1.1 1.7 0 .8-.5 1.5-1.3 2L19.3 43.3c-.7.4-1.6.6-2.4.6zm-14.2-10L16 41.6c.5.3 1.5.3 2.2-.1l28.9-16.7c.1 0 .1-.1.2-.1L33.9 17c-.5-.3-1.5-.3-2.2.1L2.9 33.8c-.1 0-.2.1-.2.1z" class="st4"/><path id="XMLID_67_" d="M21.5 37.8c-.1 0-.2 0-.3-.1L10 31.3c-.1-.1-.1-.1-.1-.2s.1-.2.2-.3L30.5 19c.2-.1.5-.1.6 0l11.2 6.5c.1.1.1.1.1.2s-.1.2-.2.3L21.8 37.7c-.1.1-.2.1-.3.1zm-.2-.2c.1.1.3 0 .4 0l20.4-11.8c.1 0 .1-.1.1-.1L31 19.2c-.1-.1-.3 0-.4 0L10.1 31c-.1 0-.1.1-.1.1l11.3 6.5z" class="st4"/><path id="XMLID_66_" d="M14.1 37.5l-4.2-2.4c-.2-.1-.2-.3.1-.4l.6-.3c.2-.1.5-.1.7 0l4.2 2.4c.2.1.2.3-.1.4l-.6.3c-.2.1-.5.1-.7 0z" class="st4"/><ellipse id="XMLID_65_" cx="40.9" cy="23.1" class="st5" rx=".6" ry=".3"/><ellipse id="XMLID_62_" cx="34.2" cy="19.3" class="st5" rx=".3" ry=".2"/><ellipse id="XMLID_61_" cx="39.9" cy="22.5" class="st5" rx=".3" ry=".2"/><path id="XMLID_60_" d="M39 22.3l-4.2-2.4c-.1 0 0-.1 0-.1l.2-.1h.2l4.2 2.4c.1 0 0 .1 0 .1l-.2.1H39z" class="st4"/><path d="M39.6 15L29.2 9c-.6-.3-1.5-.3-2.3 0l3.6 2.1c.5.3.4.8-.1 1.2L12.5 22.6c-.6.3-1.5.4-2 .1l-3.7-2.1L4.3 22c-.7.4-.8 1.1-.2 1.5l10.4 6c.6.4 1.8.3 2.5-.1l22.4-12.9c.8-.5.9-1.1.2-1.5z" class="st4"/><path d="M29.8 11.1l-3.5-2-4.4-2.6c-.5-.3-1.4-.2-1.9.1l-.2.1 2.8 1.6c.4.3.3.7-.2.9l-13.9 8c-.5.3-1.2.3-1.6.1l-2.8-1.6-1.2.7c-.6.3-.6.8-.1 1.1L7.2 20l3.5 2c.5.3 1.4.2 1.9-.1l17-9.8c.7-.3.7-.7.2-1z" class="st4"/><path d="M8.5 16.8l13.4-7.7c.4-.3.5-.6.1-.9l-2.7-1.6-3.5-2c-.4-.2-1.1-.2-1.5.1L.9 12.5c-.4.3-.5.6-.1.9l3.5 2L7 16.9c.4.2 1.1.2 1.5-.1zm22.8 9.1v-2.2c0-.1-.1-.2-.3-.2-.1 0-.2.1-.2.3V26c-1 .1-2 .4-2.9.9-.9.5-1.7 1.2-2.3 2l-1.9-1.2c-.1-.1-.3 0-.3.1-.1.1 0 .3.1.3l1.9 1.2c-1 1.5-1.3 3.4-.9 5 .1.4.3.9.5 1.3 0 .1.1.1.1.2l12-6.8-.4-.6c-.1-.2-.3-.3-.4-.5-1.2-1.3-3.1-2-5-2zM27.4 31c.2.3.1.7-.2.9-.3.2-.7.1-.9-.2-.2-.3-.1-.7.2-.9.3-.2.7-.1.9.2zm5.5-3.2c.2.3.1.7-.2.9s-.7.1-.9-.2c-.2-.3-.1-.7.2-.9.4-.2.8-.1.9.2z" class="st4"/></svg>