<svg xmlns="http://www.w3.org/2000/svg" id="Layer_1" x="0" y="0" version="1.1" viewBox="0 0 50 50" xml:space="preserve"><style>.st2{fill:#031326}</style><path fill="#fcc34f" d="M48.2 35.1V5.6c0-2.1-1.7-3.8-3.8-3.8H5.6c-2.1 0-3.8 1.7-3.8 3.8v38.9c0 2.1 1.7 3.8 3.8 3.8h6.6l36-13.2"/><path fill="#fdcf72" d="M40.6 1.8h-35c-2.1 0-3.8 1.7-3.8 3.8v10.3L40.6 1.8z"/><path d="M38.7 48.7H5.6c-2.4 0-4.3-1.9-4.3-4.3V5.6c0-2.4 1.9-4.3 4.3-4.3h38.9c2.4 0 4.3 1.9 4.3 4.3v29.6c0 .3-.2.5-.5.5s-.5-.2-.5-.5V5.6c0-1.8-1.5-3.3-3.3-3.3H5.6c-1.8 0-3.3 1.5-3.3 3.3v38.9c0 1.8 1.5 3.3 3.3 3.3h33.2c.3 0 .5.2.5.5s-.3.4-.6.4z" class="st2"/><path d="M40.6 43.9H9.4c-1.8 0-3.2-1.5-3.2-3.2V9.4c0-1.8 1.5-3.2 3.2-3.2h31.3c1.8 0 3.2 1.5 3.2 3.2v31.3c0 1.7-1.5 3.2-3.3 3.2zM9.4 6.6c-1.5 0-2.8 1.2-2.8 2.8v31.3c0 1.5 1.2 2.8 2.8 2.8h31.3c1.5 0 2.8-1.2 2.8-2.8V9.4c0-1.5-1.2-2.8-2.8-2.8H9.4zm.4 42.9H5.6c-2.8 0-5.1-2.3-5.1-5.1v-4.2c0-.7.6-1.2 1.2-1.2s1.3.5 1.3 1.2v4.2C3 45.8 4.2 47 5.6 47h4.2c.7 0 1.2.6 1.2 1.2s-.5 1.3-1.2 1.3zM48.2 11c-.7 0-1.2-.6-1.2-1.2V5.6C47 4.2 45.8 3 44.4 3h-4.2c-.7 0-1.2-.6-1.2-1.2S39.6.6 40.2.6h4.2c2.8 0 5.1 2.3 5.1 5.1v4.2c0 .6-.6 1.1-1.3 1.1zM1.8 11c-.7 0-1.2-.6-1.2-1.2V5.6C.6 2.8 2.9.5 5.7.5h4.2c.7 0 1.2.6 1.2 1.2S10.5 3 9.8 3H5.6C4.2 3 3 4.2 3 5.6v4.2c0 .7-.6 1.2-1.2 1.2z" class="st2"/><path d="M18.8 32.2l-.6.5c-.4.3-.5.8-.3 1.1l2.6 3.6c.2.3.8.4 1.2.1l.6-.5c.4-.3.5-.8.3-1.2L20 32.2c-.3-.3-.8-.3-1.2 0zM27 13.7l1.1-1.9c.1-.1 0-.3-.1-.3-.1-.1-.3 0-.3.1l-1.1 1.9c-.9-.4-1.9-.7-2.9-.7-1.1 0-2.1.2-3 .7l-1.1-1.9c-.1-.1-.2-.2-.3-.1-.1.1-.2.2-.1.3l1.1 1.9c-1.9 1.1-3.3 3.2-3.4 5.5h13.6c-.3-2.3-1.6-4.4-3.5-5.5zM20.2 17c-.4 0-.7-.3-.7-.7 0-.4.3-.7.7-.7.4 0 .7.3.7.7 0 .4-.3.7-.7.7zm6.4 0c-.4 0-.7-.3-.7-.7 0-.4.3-.7.7-.7.4 0 .7.3.7.7 0 .4-.4.7-.7.7zm-10.8 3.8l-.8-.2c-.5-.1-1 .3-1.1.8l-1.6 6.1c-.1.6.1 1.2.6 1.3l.8.2c.5.1 1-.3 1.1-.8l1.6-6.1c.1-.6-.2-1.2-.6-1.3zm13 12l-.8-.2c-.5-.1-1 .1-1.1.5l-1.3 4.2c-.1.4.2.9.6 1l.8.2c.5.1 1-.1 1.1-.5l1.3-4.2c.2-.4-.1-.9-.6-1zm5.6-18l-.7.2c-.5.2-.7.8-.5 1.3l2 6c.2.6.7.9 1.2.7l.7-.3c.5-.2.7-.8.5-1.3l-2-6c-.2-.5-.7-.8-1.2-.6zm-15.3 5.6v7.8c0 1.1.7 2 1.6 2H31c.9 0 1.6-.9 1.6-2v-7.8H19.1z" class="st2"/></svg>