<svg xmlns="http://www.w3.org/2000/svg" id="Layer_1" x="0" y="0" version="1.1" viewBox="0 0 50 50" xml:space="preserve"><style>.st2{fill:#031326}</style><path fill="#b9d7d9" d="M25.1 1.7c-12.4 0-22.6 9.7-23.3 22L42.1 9c-4.3-4.5-10.3-7.3-17-7.3z"/><path fill="#a6c1c2" d="M48.4 25c0-6.2-2.4-11.8-6.3-16L1.9 23.7V25c0 7.3 3.4 13.8 8.6 18.1L48 29.5c.3-1.5.4-3 .4-4.5z"/><path d="M24.9 49.6C11.4 49.6.3 38.6.3 25S11.3.4 24.9.4s24.6 11 24.6 24.6c0 .7 0 1.4-.1 2.1-.6 7.5-4.6 14.1-10.9 18.3-4.1 2.7-8.8 4.2-13.6 4.2zm0-46.7C12.7 2.9 2.8 12.8 2.8 25s9.9 22.1 22.1 22.1c4.4 0 8.6-1.3 12.2-3.7 5.6-3.7 9.2-9.7 9.8-16.4.1-.6.1-1.3.1-1.9-.1-12.3-10-22.2-22.1-22.2z" class="st2"/><path d="M25.4 44.8C14.5 44.8 5.6 35.9 5.6 25S14.5 5.2 25.4 5.2 45.2 14.1 45.2 25s-8.9 19.8-19.8 19.8zm0-38.8c-10.5 0-19 8.5-19 19s8.5 19 19 19 19-8.5 19-19-8.5-19-19-19z" class="st2"/><path d="M30 28.3c-.8 0-1.5-.3-2.1-.9l-.6-.6c-.5-.5-.5-1.3 0-1.8s1.3-.5 1.8 0l.6.6c.1.1.3.1.3.1s.2 0 .3-.1l5.3-5.3c.2-.2.2-.5 0-.7l-5.4-5.4c-.2-.2-.5-.2-.7 0l-5.3 5.3c-.2.2-.2.5 0 .7l.6.6c.5.5.5 1.3 0 1.8s-1.3.5-1.8 0l-.5-.6c-1.2-1.2-1.2-3.1 0-4.2l5.3-5.3c1.1-1.1 3.1-1.1 4.2 0l5.4 5.4c1.2 1.2 1.2 3.1 0 4.2l-5.3 5.3c-.6.6-1.3.9-2.1.9zM19.9 38.4c-.8 0-1.5-.3-2.1-.9l-5.4-5.4c-.6-.6-.9-1.3-.9-2.1s.3-1.5.9-2.1l5.3-5.3c1.2-1.2 3.1-1.2 4.2 0l.6.6c.5.5.5 1.3 0 1.8s-1.3.5-1.8 0l-.6-.6c-.2-.2-.5-.2-.7 0l-5.3 5.3c-.2.2-.2.5 0 .7l5.4 5.4c.2.2.5.2.7 0l5.3-5.3c.1-.1.1-.3.1-.3 0-.1 0-.2-.1-.3l-.6-.6c-.5-.5-.5-1.3 0-1.8s1.3-.5 1.8 0l.6.6c.6.6.9 1.3.9 2.1s-.3 1.5-.9 2.1L22 37.5c-.6.6-1.4.9-2.1.9z" class="st2"/><path d="M20.8 30.3c-.3 0-.6-.1-.9-.4-.5-.5-.5-1.3 0-1.8L28 20c.5-.5 1.3-.5 1.8 0s.5 1.3 0 1.8l-8.1 8.1c-.2.3-.5.4-.9.4z" class="st2"/></svg>