<svg xmlns="http://www.w3.org/2000/svg" id="Layer_1" x="0" y="0" version="1.1" viewBox="0 0 50 50" xml:space="preserve"><style>.st2{fill:#031326}</style><path fill="#00dffc" d="M6 29.9v10.7c0 1.2.7 2.3 1.7 2.8L21 48c2.6.9 5.4.9 8.1 0l13.3-4.6c1-.5 1.7-1.6 1.7-2.8v-12c0-4.2-1.3-8-3.6-11.2L6 29.9z"/><path fill="#00c8e2" d="M13.6 45.5L21 48c2.6.9 5.4.9 8 0l13.3-4.6c1-.5 1.7-1.6 1.7-2.8v-6.2L13.6 45.5z"/><path d="M39.1 14.2c-.5-.4-.9-.9-1.4-1.3l6.4-11.1c.3-.5.2-1.2-.4-1.5-.5-.3-1.2-.2-1.5.4l-6.3 10.9c-3.3-2.1-7.2-3.2-11.2-3.2-.6 0-1.1.5-1.1 1.1 0 .6.5 1.1 1.1 1.1 4.8-.1 9.4 1.7 12.9 5.1 3.4 3.4 5.4 8 5.4 12.8v12.1c0 .7-.4 1.4-1 1.8L28.7 47c-2.4.8-5 .8-7.3 0L8.1 42.4c-.6-.4-1-1-1-1.8V29.2c0-5.6 2.6-11.1 6.9-14.6.7-.6.9-1.6.5-2.4L7.8.7C7.5.2 6.8.1 6.2.4c-.4.3-.6 1-.3 1.5L12.4 13c-4.7 4-7.5 10-7.5 16.2v11.4c0 1.6.9 3.1 2.3 3.8l13.4 4.7c1.4.5 2.9.7 4.4.7s3-.2 4.4-.7l13.3-4.6.2-.1c1.4-.7 2.3-2.2 2.3-3.8v-12c-.1-5.5-2.2-10.6-6.1-14.4z" class="st2"/><circle cx="14.7" cy="36" r="3.2" class="st2"/><circle cx="36.2" cy="36" r="3.2" class="st2"/><path d="M11.5 26.8c-.5 0-.9-.4-.9-.9 0-5.5 5.5-11.8 12.5-11.8.5 0 .9.4.9.9s-.4.9-.9.9c-6 0-10.7 5.4-10.7 10 0 .5-.4.9-.9.9z" class="st2"/></svg>