<svg xmlns="http://www.w3.org/2000/svg" id="Layer_1" x="0" y="0" version="1.1" viewBox="0 0 50 50" xml:space="preserve"><style>.st2{fill:#031326}</style><path fill="#c3ff68" d="M25 3.8c-11.3 0-20.7 8-22.9 18.6L39.5 8.8c-4-3.1-9-5-14.5-5z"/><path fill="#afe55d" d="M48.4 26.3c0-7.4-3.5-14.1-8.9-18.4L2.1 21.6c-.3 1.5-.5 3.1-.5 4.8 0 8.5 4.5 16 11.3 20.1L47.1 34c.8-2.4 1.3-5 1.3-7.7z"/><path d="M13.7 48.2c-.2 0-.4 0-.6-.2-.7-.4-1.4-.9-2.1-1.3C4.3 42.1.4 34.5.4 26.5.4 12.9 11.4 1.8 25 1.8c13.6 0 24.6 11.1 24.6 24.6 0 2.3-.3 4.6-1 6.8-.2.7-.9 1-1.5.9-.7-.2-1-.9-.9-1.5.6-2 .9-4.1.9-6.2 0-12.2-9.9-22.1-22.1-22.1S2.9 14.2 2.9 26.5c0 7.3 3.6 14.1 9.5 18.2.6.4 1.3.8 1.9 1.2.6.3.8 1.1.5 1.7-.2.4-.7.6-1.1.6z" class="st2"/><path d="M19.1 20.5l-6.3-1.7c.6-2.4 2.2-3.9 4-4.3h.5c.1 0 .2.1.3.2 1.6 1.4 2.2 3.4 1.5 5.8m-6.4-1.3l-2.4 10.7 2.1.6 1.3-7.4V23c.2-.6.8-1 1.4-.8.6.2 1 .8.8 1.4v.1l-2.5 7.1 2.2.6L19 20.8l-6.3-1.6zm.1 12c-.2 0-.3-.2-.4-.4l-2.1-.6.1 1.3c0 .2.2.4.4.5l.7.2 2.2.6.7.2h.3c.1 0 .2-.1.3-.2l.7-1.1-2.4-.6c-.1.1-.3.2-.5.1zm-.6 1.5c-3.1-.8-2.6 4.4-1.7 5.9 0 .1.2.1.3.1 1.4-.9 4.6-5.1 1.4-6zm-.9 3.7h-.2c-.6-.9-1-3.8 1-3.3 2.1.5.1 2.8-.8 3.3zm22.3-20.7l1.8-1.9c.1-.1.1-.3 0-.4-.1-.1-.3-.1-.4 0l-1.8 1.9c-.9-.7-2-1.3-3.3-1.6-1.2-.3-2.5-.4-3.7-.2l-.6-2.6c0-.2-.2-.3-.4-.2-.2 0-.3.2-.2.4l.6 2.6c-2.1.5-4 1.8-5 3.6-.3.5-.5 1-.6 1.5 0 .1 0 .2-.1.2l15.9 4.2.2-.9c0-.3.1-.5.1-.7.2-2.2-.8-4.3-2.5-5.9zM26 16.8c-.1.4-.5.7-.9.6-.4-.1-.7-.5-.5-.9.1-.4.5-.7.9-.6.4 0 .6.4.5.9zm7.4 1.9c-.1.4-.5.7-.9.6-.4-.1-.7-.5-.5-.9.1-.4.5-.7.9-.6.4.1.6.5.5.9z" class="st2"/><path d="M39.7 22.7c-.7-.7-1.9-.7-2.6 0l-1.4 1.4-15.9-4.2h-.1l-.9 3.3-4.4 4.5c-.7.7-.7 1.9 0 2.6.7.7 1.8.7 2.6 0l2.4-2.5 14.3 3.4 5.8-5.8c.9-.9.9-2 .2-2.7z" class="st2"/><path d="M17.7 28.2l-.6 2.3c-.3 1 .3 2 1.3 2.2l1.2.3-2.3 2.3c-.7.7-.7 1.8 0 2.5s1.8.7 2.5 0l3.7-3.7 1.3.3-1.8 1.8c-.7.7-.7 1.9 0 2.6.7.7 1.9.7 2.6 0l3.2-3.2 2 .5c1 .3 2-.3 2.2-1.3l.7-2.7-16-3.9z" class="st2"/></svg>