<svg xmlns="http://www.w3.org/2000/svg" id="Layer_1" x="0" y="0" version="1.1" viewBox="0 0 50 50" xml:space="preserve"><style>.st3{fill:#494949}</style><path fill="#dc5e82" d="M39 17.3v.2l-2.7 2.7-3.1 3.1-14.8 15c-2.6-1.8-4.5-4.5-5.1-7.5-.1-.6-.2-1.2-.2-1.8v-5.7L11 25.5v5.9c0 1.1-.8 2-1.9 2-1 0-1.9-.9-1.9-2v-2l-1 1c-.4-1-.7-2-1-3 0-.2-.1-.3-.1-.5l2.1-2.1.1-.1 2.1-2.1 3.8-3.9c3.5-3.6 7.1-7.1 10.6-10.7L28 3.8c1.2.2 2.4.5 3.5 1.1.5.2 1 .5 1.5.8l2.5-2.4c.5-.4 1.1-.4 1.5.1.4.4.3 1.1-.1 1.5l-2.3 2.2.5.5.6.6c2.1 2.4 3.3 5.6 3.3 9.1z"/><path fill="#f56991" d="M9.3 22.6h-.2c-1 0-1.9.9-1.9 2v.1h-.1L5 26.8c0 .2.1.4.1.5.3 1 .6 2.1 1 3l1-1 3.8-3.9 2.1-2.1 1.4-1.4 1.6-1.6L31.4 4.8c-1.1-.6-2.3-.9-3.5-1.1-3-.5-6.1.2-8.8 2l-2-1.9-.6-.6c-.1-.1-.4-.2-.7-.2-.6 0-1 .5-1 1.1 0 .3.1.5.3.8l.5.4L17.4 7c-2.8 2.6-4.3 6.3-4.3 10.2v1.4l-3.8 4z"/><path fill="none" stroke="#444" stroke-linecap="round" stroke-linejoin="round" stroke-miterlimit="10" stroke-width=".5" d="M17.2 3.9l-1.5 1.5M9.3 22.6l-2.1 2.1m6-6c3.5-3.6 7-7.2 10.6-10.7L28 3.8l.9-.9m10.5 1.6L9 35.3"/><path d="M15.9 3c.2 0 .5.1.7.3l.6.6 2 1.9c2.1-1.4 4.5-2.2 6.9-2.2.6 0 1.2 0 1.8.1 1.2.2 2.4.5 3.5 1.1.6.3 1.1.6 1.6.9l2.5-2.4c.3-.2.5-.3.8-.3.3 0 .6.1.8.4.4.4.3 1.1-.1 1.5l-2.3 2.2.5.5.6.6c2 2.4 3.2 5.6 3.2 9V19c-.8.4-1.7.8-2.7 1.1-3 1.1-6.5 1.7-10.2 1.7-1.2 0-2.5-.1-3.6-.2-2.3-.2-4.4-.7-6.3-1.4-1.1-.4-2.1-.8-3-1.3v-1.8c0-3.9 1.6-7.6 4.3-10.2l-1.8-1.7-.5-.5c-.2-.2-.3-.5-.3-.8-.1-.3.4-.9 1-.9m0-2.5h-.3c-.9.1-1.7.5-2.3 1.1-.6.7-1 1.7-.9 2.6 0 .9.4 1.8 1.1 2.4l.5.6c-2.2 2.8-3.4 6.4-3.4 10.1v1.8c0 .9.5 1.8 1.4 2.2 1 .5 2.1 1 3.3 1.4 2.2.7 4.5 1.2 6.9 1.5 1.3.1 2.6.2 3.9.2 3.9 0 7.7-.6 11.1-1.8 1-.4 2-.8 3-1.3.8-.4 1.4-1.3 1.4-2.2v-1.8c0-3.7-1.2-7.2-3.3-10.1l.5-.5c1.4-1.3 1.5-3.5.2-5l-.1-.1C38.2.9 37.3.4 36.3.4c-.9 0-1.8.3-2.4 1l-1.2 1.2c-.1 0-.1-.1-.2-.1-1.3-.7-2.8-1.1-4.2-1.3h-.1c-.7-.1-1.4-.2-2.1-.2-2.3 0-4.5.5-6.6 1.6l-.6-.6-.6-.6c-.6-.5-1.5-.9-2.4-.9z" class="st3"/><path d="M39 21.4v7.7c-.2 4.2-2.7 7.8-6.1 10v5.5c0 1.4-1.1 2.6-2.4 2.6h-.1c-1.3 0-2.4-1.1-2.4-2.6v-3.7c-.6.1-1.2.2-1.9.2s-1.3-.1-2-.2v3.8c0 1.4-1.1 2.6-2.4 2.6h-.1c-1.3 0-2.4-1.2-2.4-2.6V39c-.2-.2-.5-.3-.7-.5-2.6-1.8-4.5-4.5-5.1-7.5-.1-.6-.2-1.2-.2-1.8v-7.7c.4.2.9.4 1.4.6 1.8.8 3.8 1.3 6 1.7 1.8.3 3.6.5 5.6.5 2.5 0 4.9-.3 7.2-.8 1.9-.6 3.9-1.3 5.6-2.1m4 1.2c1 0 1.9.9 1.9 2v6.8c0 1.1-.8 2-1.9 2-1 0-1.9-.9-1.9-2v-6.8c0-1.1.8-2 1.9-2m-33.8 0h.1c1 .1 1.7.9 1.7 2v6.8c0 1.1-.8 2-1.9 2-1 0-1.9-.9-1.9-2v-6.8c0-1.1.8-2 2-2-.1 0-.1 0 0 0m4-3.7c-.5 0-.9.1-1.3.4-.5.3-.8.7-1 1.2-.4-.2-.8-.3-1.3-.3h-.5c-2.4 0-4.4 2-4.4 4.5v6.8c0 2.5 2 4.5 4.4 4.5 1.2 0 2.2-.5 3-1.2 1 2.1 2.6 4 4.6 5.4v4.4c0 2.8 2.2 5.1 4.9 5.1h.1c1.9 0 3.6-1.1 4.4-2.7.8 1.6 2.5 2.6 4.3 2.6h.1c2.7 0 4.9-2.3 4.9-5.1v-4.1c2-1.5 3.6-3.4 4.7-5.6.8.7 1.8 1.2 3 1.2 2.5 0 4.4-2 4.4-4.5v-6.8c0-2.5-2-4.5-4.4-4.5H43c-.6 0-1.1.1-1.6.3-.2-.5-.5-.9-1-1.2-.4-.2-.9-.4-1.3-.4s-.8.1-1.1.3c-1.6.8-3.3 1.4-5.2 1.8-2.1.5-4.3.7-6.6.7-1.8 0-3.5-.1-5.1-.4-2-.3-3.8-.9-5.4-1.5l-1.2-.6c-.6-.3-1-.3-1.3-.3z" class="st3"/></svg>