<svg xmlns="http://www.w3.org/2000/svg" id="Layer_1" x="0" y="0" version="1.1" viewBox="0 0 50 50" xml:space="preserve"><style>.st2{fill:none;stroke:#494949;stroke-linecap:round;stroke-linejoin:round;stroke-miterlimit:10}.st3{fill:#494949}</style><path fill="#fcc34f" d="M34.5 15.6c-.1-.2-.1-.3-.2-.5h-.1c-.3-.1-.6-.2-.9-.4-.8-.4-1.5-.9-2.2-1.4-1.7-1.2-3.4-2.1-5.3-3-.1-.1-.2-.1-.3-.2l-10.6 3.8v17.8l2.9-1.1c0-.2.1-.3.2-.5.4-.7.6-1.5.9-2.2.4-.7 1-1.3 1.6-1.8.2-.2.4-.3.6-.4-.1-.2-.2-.5-.2-.7 0-.5.1-1.1.2-1.6.1-.3.2-.6.3-.8-.1.2 0 .1 0-.1 0-.1.1-.2.1-.4.2-.5.4-.9.7-1.2v-1.1c0-1.3 2.1-1.3 2.1 0v1.4c.1.2.3.4.4.6.2.5.3 1.1.4 1.6.1.4.2.9.3 1.3h.1v.3c.1.5.2.9.3 1.4.1.4 0 .8-.3 1.1v.3l9.2-3.3V16c-.1-.1-.2-.2-.2-.4z"/><path fill="#fdcf72" d="M31.1 13.3c-1.7-1.2-3.4-2.1-5.3-3-1.6-.8-3.3-1.6-4.8-2.5-1-.6-2.1-2-3.4-1.9-.7.9-1.6 1.6-2.4 1.9-.1.1-.3.1-.4.1v11.7l16.6-5.9c0-.2-.2-.3-.3-.4z"/><path d="M32.1 44c-.2.1-.4.1-.6 0L16 35c-.5-.3-.9-1.1-.9-1.7V8c0-.4.1-.6.3-.7.2-.1.4-.1.6 0l15.5 9c.5.3.9 1.1.9 1.7v25.2c0 .4-.1.7-.3.8z" class="st2"/><path d="M23.9 14.8c0-.2-.2-.5-.3-.6-.2-.1-.4 0-.4.2s.2.5.4.6c.1.1.3 0 .3-.2z" class="st2"/><path d="M15.4 7.3L17.6 6c.2-.1.4-.1.6 0l15.5 9c.5.3.9 1.1.9 1.7V42c0 .4-.1.6-.3.7L32.1 44" class="st2"/><path d="M29.7 38.1l-12.4-6.9 1.8-3.8 1.6-3.3 2.8-6 2.8 9.1 1.6 5.1z" class="st2"/><path d="M27.9 32.3l-8.8-4.9 1.6-3.3 5.6 3.1z" class="st3"/><path d="M16.9 3.2c.1 0 .3 0 .4.1l17.8 10.3c.6.3 1 1.2 1 2v28.9c0 .4-.1.7-.4.8l-2.5 1.4c-.1 0-.2.1-.3.1-.1 0-.3 0-.4-.1L14.9 36.4c-.6-.3-1-1.2-1-2V5.5c0-.4.1-.7.4-.8l2.5-1.4c-.1-.1 0-.1.1-.1m0-2.5c-.5 0-1.1.1-1.5.4l-2.5 1.4c-.1 0-.2.1-.2.1-.9.6-1.4 1.7-1.4 2.9v28.9c0 1.7.9 3.4 2.3 4.2l17.8 10.3c.5.3 1.1.5 1.7.5.4 0 .9-.1 1.3-.3.1 0 .2-.1.2-.1l2.5-1.4c1-.6 1.6-1.7 1.6-3v-29c0-1.7-.9-3.4-2.3-4.2L18.6 1.2c-.5-.3-1.1-.5-1.7-.5z" class="st3"/></svg>