<svg xmlns="http://www.w3.org/2000/svg" id="Layer_1" x="0" y="0" version="1.1" viewBox="0 0 50 50" xml:space="preserve"><style>.st2{fill:#444}</style><path fill="#46b8b0" d="M42.8 13.9l-1.7 1.7-25.3 25.6-1.7 1.7c-2.7-1.5-5-3.5-6.7-6-1.6-2.1-2.8-4.6-3.4-7.2 0-.2-.1-.3-.1-.5l2-2 21-21.3 2-2c.2 0 .3.1.5.1 2.7.6 5.1 1.7 7.4 3.3 2.3 1.7 4.4 3.9 6 6.6z"/><path fill="#4ecdc4" d="M28.3 5.1L26.5 7l-20 20.3-1.9 1.9c0-.2-.1-.3-.1-.5-.3-1.4-.5-2.9-.5-4.4C4 13.4 12.9 4.5 23.8 4.5c1.4 0 2.8.1 4.1.4.1.1.3.1.4.2z"/><path d="M37.8 31.2v-.9c0-1.9-.8-3.7-2-4.9l-.3-.3 1.2-1.1c.2-.2.2-.5 0-.8-.2-.2-.6-.2-.8 0l-1.4 1.2c-2.3-1.5-5.2-1.5-7.5 0l-1.4-1.2c-.1-.1-.2-.2-.4-.1-.3 0-.5.3-.5.6 0 .1.1.3.2.4l1.2 1.1c-1.5 1.3-2.3 3.2-2.3 5.2v.9c1.9.9 4.3 1.4 6.9 1.4 2.8-.1 5.3-.6 7.1-1.5z" class="st2"/><path d="M30.9 33.8c-2.7 0-5.1-.5-7-1.4v3.9c.1 2 1.4 3.9 3.2 5v2.9c0 .7.6 1.3 1.3 1.3.7 0 1.3-.6 1.3-1.3v-1.9c.3.1.7.1 1.1.1.3 0 .7 0 1-.1v1.9c0 .7.6 1.3 1.3 1.3.7 0 1.3-.6 1.3-1.3v-2.8c1.8-1.1 3.2-2.9 3.3-5.1v-3.9c-1.8.8-4.2 1.4-6.8 1.4zm-9.1-.8c-.6 0-1 .5-1 1v3.5c0 .6.5 1 1 1 .6 0 1-.5 1-1V34c0-.6-.5-1-1-1zM40 33c-.6 0-1 .5-1 1v3.5c0 .6.5 1 1 1 .6 0 1-.5 1-1V34c0-.6-.4-1-1-1z" class="st2"/><path d="M44.2 13.5c-1.6-2.8-3.8-5.2-6.4-7-2.3-1.6-5-2.9-7.8-3.5-.1 0-.3-.1-.5-.1-1.5-.3-3-.5-4.6-.5-12.4 0-22.4 10.1-22.4 22.4 0 1.7.2 3.4.6 5 0 .1.1.3.1.5.7 2.8 2 5.3 3.6 7.6 1.9 2.6 4.4 4.8 7.2 6.4 3.2 1.9 6.9 2.9 10.9 2.9.6 0 1.2-.6 1.2-1.2s-.5-1.2-1.2-1.2c-3.3 0-6.4-.8-9.1-2.2-2.8-1.5-5.3-3.5-7-6.1h.1L36.3 8.7v-.1c2.6 1.8 4.8 4.3 6.3 7 1.5 2.8 2.4 6 2.4 9.4 0 2.4-.5 4.3-.8 5.5-.5 1.8-1.2 3.2-1.8 4.2-.3.6-.1 1.4.5 1.7s1.4.1 1.7-.6c.7-1.3 1.5-3 2.1-5.2.3-1.2.7-3.2.7-5.6 0-4.1-1.1-7.9-3.2-11.5zM27.4 5.3c.1.1.2.1.4.1-2.4 2.4-4.8 4.9-7.2 7.3-5 5.1-10.2 10.3-15.3 15.5 0-.1-.1-.3-.1-.4C5.1 26.9 5 26 5 25c0-2.4.4-4.7 1.2-6.8L17.8 6.4c2.2-.8 4.5-1.3 7.1-1.3.9 0 1.7.1 2.5.2zM16.7 6.9L6.8 17c1.9-4.5 5.5-8.1 9.9-10.1zM8.5 36.1c-1.6-2.1-2.6-4.7-3.1-7.4 5.2-5.2 10.5-10.6 15.5-15.7 2.5-2.5 5-5.1 7.5-7.6 2.7.4 5.3 1.4 7.5 2.9L8.5 36.1z" class="st2"/></svg>