<svg xmlns="http://www.w3.org/2000/svg" version="1.0" viewBox="0 0 50 50"><path fill="#AFE55D" d="M46.229 25.004c-.249-.124-.508-.237-.779-.282l-.282-.045c.181-1.073.271-2.157.282-3.275v-.508c0-1.174-2.981-2.665-8.334-3.252-.61-2.225-2.394-5.036-3.907-5.985l2.304-2.089c.203-.181.328-.441.339-.712a1.035 1.035 0 00-.26-.757 1.048 1.048 0 00-1.468-.068l-2.597 2.349a12.973 12.973 0 00-7.058-2.078c-2.597 0-5.025.768-7.058 2.078l-2.597-2.349a1.01 1.01 0 00-.746-.271c-.271.023-.53.136-.711.339a1.036 1.036 0 00.068 1.468l2.304 2.1a13.123 13.123 0 00-3.806 5.974c-6.087.678-9.61 1.886-9.61 3.252v.407c0 8.481 4.89 15.821 12.015 19.333l33.29-12.117c.259-1.513-.248-2.925-1.389-3.512z"/><path fill="#C3FF68" d="M37.116 17.641c-.61-2.225-2.394-5.036-3.907-5.985l2.304-2.089c.203-.181.328-.441.339-.712a1.035 1.035 0 00-.26-.757 1.048 1.048 0 00-1.468-.068l-2.597 2.349a12.973 12.973 0 00-7.058-2.078c-2.597 0-5.025.768-7.058 2.078L14.814 8.03a1.014 1.014 0 00-.746-.27c-.271.023-.53.136-.711.339a1.036 1.036 0 00.068 1.468l2.304 2.1a13.123 13.123 0 00-3.806 5.974c-6.087.678-9.61 1.886-9.61 3.252v.407c0 3.456.813 6.73 2.27 9.633L39.927 18.07a32.494 32.494 0 00-2.811-.429z"/><path fill="#031326" d="M46.787 23.886a6.142 6.142 0 00-.23-.111 22.82 22.82 0 00.143-2.373v-.508c0-2.891-5.85-4.022-8.638-4.396-.602-1.646-1.707-3.564-2.959-4.869l1.242-1.126c.457-.407.732-.988.754-1.546.047-.597-.149-1.187-.598-1.717-.861-.91-2.307-.97-3.215-.136l-1.912 1.729c-4.223-2.336-9.585-2.336-13.809 0l-1.92-1.737a2.264 2.264 0 00-1.681-.582 2.288 2.288 0 00-1.38 3.976l1.331 1.213a14.355 14.355 0 00-2.925 4.787c-8.877 1.09-9.928 3.025-9.928 4.402v.408c0 12.582 10.236 22.818 22.819 22.818a22.8 22.8 0 0014.511-5.229 1.25 1.25 0 00.166-1.76 1.236 1.236 0 00-.902-.443c3.142-2.846 5.417-6.632 6.328-10.925 0 0 .967-.033 1.67.352.611.317.908 1.214.738 2.23a1.248 1.248 0 001.026 1.438 1.26 1.26 0 001.438-1.026c.356-2.121-.45-4.03-2.069-4.869zm-35.296-4.934a13.129 13.129 0 00-.141 1.862v.761c-1.385.229-2.467.497-3.134.79-.103-.019-.218-.037-.319-.056-1.98-.394-3.202-.821-3.96-1.209 0-.532 1.814-1.586 7.554-2.148zm8.249-2.204a.745.745 0 110 1.49.748.748 0 01-.757-.745c0-.418.34-.745.757-.745zm8.691.745c0-.406.339-.745.757-.745.406 0 .745.339.745.745a.755.755 0 01-.745.757.757.757 0 01-.757-.757zm11.436 4.815c-.101.02-.216.037-.319.057-.464-.204-1.131-.395-1.954-.569v-.982c0-.636-.061-1.256-.148-1.868 3.978.399 6.481 1.568 6.481 2.168-.919.428-2.297.839-4.06 1.194zM23.93 41.515c-10.981 0-19.917-8.897-19.993-19.86.925.433 2.213.816 3.863 1.144 4.12.811 9.981 1.276 16.082 1.276 6.102 0 11.963-.465 16.083-1.276 1.698-.343 3.016-.723 3.962-1.134-.081 10.95-9.039 19.85-19.997 19.85z"/></svg>