<svg xmlns="http://www.w3.org/2000/svg" version="1" viewBox="0 0 50 50"><path fill="#87D69B" d="M5.993 29.925v10.698a3.16 3.16 0 001.702 2.803l13.28 4.61c2.607.905 5.443.905 8.05 0l13.28-4.61a3.16 3.16 0 001.703-2.803V28.56c0-4.168-1.346-8.02-3.62-11.152L5.992 29.925z"/><path fill="#79C08B" d="M13.594 45.474l7.38 2.562c2.608.905 5.444.905 8.05 0l13.28-4.61a3.16 3.16 0 001.703-2.803v-6.22l-30.413 11.07z"/><path fill="#031326" d="M39.1 14.2a20.62 20.62 0 00-1.43-1.273L44.105 1.85A1.117 1.117 0 1042.174.728l-6.323 10.88c-3.308-2.13-7.166-3.238-11.226-3.17a1.12 1.12 0 00-1.097 1.14c.01.616.498 1.088 1.138 1.096a17.764 17.764 0 0112.87 5.12 17.76 17.76 0 015.356 12.767v12.064c0 .74-.394 1.415-1.035 1.777L28.66 46.98c-2.36.82-4.96.818-7.318 0L8.147 42.4a2.037 2.037 0 01-1.037-1.776V29.19c0-5.632 2.592-11.094 6.935-14.612a1.887 1.887 0 00.453-2.428L7.825.726a1.12 1.12 0 00-1.93 1.127l6.523 11.17c-4.728 3.94-7.543 9.964-7.543 16.168v11.434c0 1.6.883 3.055 2.304 3.795l13.43 4.673c1.415.49 2.902.737 4.39.737s2.976-.245 4.392-.737l13.28-4.61.15-.064a4.264 4.264 0 002.303-3.796V28.56c0-5.445-2.14-10.545-6.026-14.36z"/><circle cx="14.728" cy="36.028" r="3.237" fill="#031326"/><circle cx="36.212" cy="36.028" r="3.237" fill="#031326"/><path fill="#031326" d="M11.49 26.816a.894.894 0 01-.893-.894c0-5.467 5.455-11.822 12.487-11.822a.894.894 0 010 1.788c-6.025 0-10.7 5.394-10.7 10.034 0 .494-.4.894-.893.894z"/></svg>