<svg xmlns="http://www.w3.org/2000/svg" id="Layer_1" x="0" y="0" version="1.1" viewBox="0 0 50 50" xml:space="preserve"><style>.st3{fill:#444}</style><path fill="#afe55d" d="M43.6 12.6l-1.8 1.9-26.7 27.2-1.8 1.9C10.4 42 7.9 39.8 6 37.1c-1.7-2.3-2.9-4.9-3.6-7.7-.1-.2-.1-.4-.1-.5l2.1-2.2L26.7 4.1l2.2-2.2c.1 0 .3.1.5.1 2.8.7 5.5 1.9 7.8 3.5 2.6 1.9 4.8 4.3 6.4 7.1z"/><path fill="#c3ff68" d="M28.6 3.4l-2 2-21.7 22-2 2c0-.2-.1-.3-.1-.5-.4-1.5-.5-3.1-.5-4.8 0-11.8 9.6-21.4 21.4-21.4 1.5 0 3 .2 4.4.5.2.1.4.1.5.2z"/><path fill="#494949" d="M30.1 3.8l-1 .6-.3.2-.8.5-1.1-.7-1.5-.9v-.6h-.9v.6l-2.1 1.2-.5.3h-.1l-.5-.3-2.1-1.2H19l-.7.2-2.5 1.5-.6-.3c-.3.1-.6.3-1 .5l1.1.6v3l-2.6 1.5-1-.6-1.1-.6-.6-.4V8c-.3.2-.6.5-.9.8v.1l-.2.1c-.7.7-1.3 1.4-1.9 2.1l2.6-1.5.3.2 1.1.6 1.3.7v3l-2.6 1.5-2.1-1.2-.6-.3v-3c-.4.5-.7.9-1 1.3v1.8l-1.6.9c-.2.4-.4.9-.6 1.3l1.8-1 .8-.5.6.4 2 1.2v3L6.5 21l-1.3-.7-1.1-.6-.3-.2v-3c-.3.9-.6 1.7-.9 2.7v.4l-.1.1c-.1.4-.2.8-.2 1.1l.3-.2.4-.2.5.3 1 .6 1 .6V25l-1.3.8-.9.5-.4.2-1.1-.6c0 .3 0 .7.1 1.1l.8.5c.1 0 .1.1.2.1s.2 0 .2-.1l.3-.2.9-.5.6-.3 1.1-.6.4.2 2.2 1.3v3.3c0 .2.1.3.2.4l2.9 1.6V36c0 .2.1.3.2.4l3.1 1.8c.1 0 .1.1.2.1s.2 0 .2-.1l1.4-.8 1.7-1c.1-.1.2-.2.2-.4v-3.3l2.9-1.7c.1-.1.2-.2.2-.4V27c0-.2-.1-.3-.2-.4L19.1 25v-3.1l2.6-1.5 1.6.9 1.3.8c.1 0 .1.1.2.1s.2 0 .2-.1l2.9-1.7.8.5 2 1.2c.1 0 .2.1.2.1.1 0 .2 0 .2-.1l2.2-1.3.9-.5c.1-.1.2-.2.2-.4v-3.6c0-.2-.1-.3-.2-.4l-.2-.1-2.7-1.6v-3l2.9-1.6c.1-.1.2-.2.2-.4V5.7c-1.2-.8-2.7-1.4-4.3-1.9zm-6.1 1l.9-.5.2.1 1.1.6.1.1.6.3.3.1.4.2v3l-2.4 1.4-.2.1-1.8-1-.7-.4-.1-.1v-3l.8-.5.8-.4zm-7.9 1.1l2.6-1.5 1.1.6 1 .6.6.3v3l-2.6 1.5-2.6-1.5v-3zM13 11.1l2.6-1.5h.1l2.6 1.5v3l-2.5 1.5h-.1L13 14.2v-3.1zm-3 5.4l2.6-1.5 2.5 1.4.2.1v3L12.6 21l-.6-.3-.7-.4-1.3-.8v-3zm5.7 3.8l2.7 1.5v3l-2.6 1.5-2.6-1.5v-3.1l2.5-1.4zm-8.2 4.9l-.6-.4v-3l2.6-1.5 1.1.6.7.4.8.5v3l-2.7 1.5-1.9-1.1zm2.5 5v-3l2.7-1.5 2.6 1.5v3l-2.6 1.5-2.7-1.5zm5.7 6.8L13 35.5v-3l2.6-1.5 2.7 1.6v3L15.7 37zm5.7-9.9v3.1l-2.6 1.5-2.7-1.6v-3l2.6-1.5 2.7 1.5zm0-7.6L18.8 21l-2.7-1.5v-3l2.6-1.5 2.6 1.5v3zm-2.2-5.3v-3l2.2-1.2.5-.3.6.3 2 1.2v3l-2.6 1.5-2.7-1.5zm8.4 5.3l-2.4 1.4-.3.1-2.6-1.5v-3l2.6-1.5.2.1 2.4 1.4v3zm.4-3.8l-2.6-1.5v-3L28 9.6l.8.5 1.8 1v3l-1.8 1-.8.6zm5.7.7v3L31.1 21l-2.2-1.3-.4-.2v-3l.4-.2 2.2-1.3 2.6 1.4zm0-7.5l-2.6 1.5-2.3-1.3-.4-.2v-3l.4-.2 1.4-.8.9-.5 2.6 1.5v3z"/><path d="M39.1 33.3v-.9c0-1.9-.7-3.5-1.8-4.7l-.3-.3 1.1-1.1c.2-.2.2-.5 0-.7-.2-.2-.5-.2-.7 0l-1.2 1.2c-2-1.4-4.6-1.4-6.6 0l-1.2-1.2c-.1-.1-.2-.1-.4-.1-.3 0-.5.3-.5.6 0 .1.1.3.2.4l1.1 1.1c-1.3 1.3-2.1 3.1-2.1 5v.9c1.6.9 3.8 1.4 6.2 1.4 2.4-.3 4.5-.8 6.2-1.6z" class="st3"/><path d="M32.9 35.7c-2.4 0-4.5-.5-6.2-1.4v3.8c.1 1.9 1.2 3.7 2.9 4.8v2.8c0 .7.5 1.3 1.2 1.3.6 0 1.2-.6 1.2-1.3v-1.9c.3.1.6.1.9.1.3 0 .6 0 .9-.1v1.8c0 .7.5 1.3 1.2 1.3.6 0 1.2-.6 1.2-1.3v-2.7c1.6-1 2.8-2.8 2.9-4.9v-3.8c-1.7 1-3.9 1.5-6.2 1.5zm-8.1-.7c-.5 0-.9.4-.9 1v3.4c0 .5.4 1 .9 1s.9-.4.9-1V36c0-.6-.4-1-.9-1zM41 35c-.5 0-.9.4-.9 1v3.4c0 .5.4 1 .9 1s.9-.4.9-1V36c0-.6-.4-1-.9-1z" class="st3"/><path d="M49.3 25c0 2.6-.4 4.8-.8 6.1-.6 2.4-1.5 4.2-2.3 5.6-.3.7-1.2 1-1.9.6-.6-.3-.9-1.2-.6-1.8.6-1.1 1.4-2.7 1.9-4.6.4-1.3.9-3.4.9-6 0-3.7-.9-7.1-2.6-10.2-.3-.5-.6-1.1-1-1.6-1.6-2.4-3.6-4.5-6-6.1h-.1c-.3-.2-.7-.4-1-.6C34 5.3 32 4.5 29.9 4c-.5-.1-.9-.2-1.4-.3-.1 0-.2 0-.4-.1-.2 0-.4-.1-.6-.1-.2 0-.3 0-.5-.1-.7-.1-1.5-.1-2.2-.1h-.9c-.9 0-1.7.1-2.6.2-1.7.3-3.4.8-5 1.5-.1 0-.2.1-.3.1-.3.2-.7.3-1 .5-1.5.7-2.9 1.6-4.1 2.7-.3.2-.5.5-.8.7-1.5 1.4-2.7 2.9-3.8 4.6-.2.3-.3.6-.5.9-.4.7-.8 1.4-1.1 2.2-.1 1.2-.5 2.3-.7 3.5-.1.3-.2.7-.2 1-.2 1.2-.3 2.5-.3 3.7v1.2c0 .4 0 .7.1 1.1v.3c0 .2 0 .3.1.5 0 .2.1.4.1.6.5 3.1 1.8 6.1 3.5 8.6 1.7 2.4 3.8 4.4 6.2 5.9.5.3 1.1.6 1.6.9 2.9 1.5 6.3 2.4 9.9 2.4.8 0 1.4.6 1.4 1.4s-.6 1.3-1.4 1.3c-4.3 0-8.3-1.1-11.8-3.1-3.1-1.7-5.7-4.1-7.8-6.9C3.6 36.8 2.2 34 1.5 31c-.1-.2-.1-.4-.1-.6-.2-.9-.4-1.9-.5-2.8 0-.4-.1-.8-.1-1.2V25c0-1.5.1-2.9.4-4.3.1-.4.2-.9.3-1.3 0-.2.1-.3.1-.5.3-1 .6-2 1-3v-.1c.2-.5.4-1 .7-1.5.5-1.1 1.1-2.1 1.8-3 .3-.5.6-.9 1-1.3v-.1c.7-.8 1.4-1.6 2.2-2.4.1-.1.2-.2.3-.2.1-.3.4-.6.8-.9 1.4-1.2 3-2.3 4.7-3.1.3-.2.7-.4 1.1-.5 1.1-.5 2.3-.9 3.5-1.2l.8-.2C21.2 1 23.1.7 25 .7h1.7c1.1.2 2.2.3 3.3.6.2 0 .4.1.6.1.5.1 1 .2 1.4.4 1.8.5 3.4 1.2 5 2.2.7.4 1.4.8 2 1.3 2.8 2 5.2 4.6 7 7.6 2.1 3.5 3.3 7.7 3.3 12.1z" class="st3"/></svg>