<svg xmlns="http://www.w3.org/2000/svg" id="Camada_3" x="0" y="0" version="1.1" viewBox="0 0 50 50" xml:space="preserve"><style>.st3{fill:#444}</style><path fill="#c2d45a" d="M34.34 4.76l-8.6-2.18c-10.09 0-16.43 8.28-16.43 18.37l-1.47.98L45.26 8.9 34.34 4.76z"/><path fill="#b0cd5f" d="M7.85 21.44L7.6 34.21c-.62 6.26 2.36 8.59 8.28 6.48l29.89-10.46 1.75-17.28c.15-2.55-1.13-5.23-4.73-3.94L7.85 21.44z"/><path fill="none" stroke="#444" stroke-linecap="round" stroke-miterlimit="10" stroke-width="2.5" d="M45.77 30.23l1.85-16.03c.34-2.96-1.4-5.76-4.21-6.76L27.89 1.9a6.35 6.35 0 00-4.3 0L8.07 7.43c-2.8 1-4.55 3.8-4.21 6.76l2.47 21.38a6.432 6.432 0 003.26 4.87l13.06 7.23a6.389 6.389 0 006.2 0l13.06-7.23"/><path d="M24.17 33.48c0-6.27 4.06-11.61 9.7-13.53-10.68 2.79-19.05 11.18-21.9 21.81l10.68 5.91a6.389 6.389 0 006.2 0l2.96-1.64c-4.45-2.43-7.64-7.16-7.64-12.55z" class="st3"/><path d="M27.89 1.9a6.35 6.35 0 00-4.3 0L8.07 7.43c-2.8 1-4.55 3.8-4.21 6.76l2.47 21.38c.18 1.58.95 3.01 2.11 4.05 5.23-11.7 16.39-20.18 29.61-21.64-1.35-.15-2.71-.22-4.08-.22-9.89 0-18.88 3.89-25.5 10.23-.05-.57-.07-1.16-.07-1.72 0-11.22 12.03-23.04 23.25-23.04M41.9 40.44c-8.93 1.1-12.13-12.08-10.1-16.56.32-.72.75-1.36 1.23-1.95-3.52 2.2-5.96 6-6.22 10.46-.32 5.36 2.61 10.14 7.07 12.49l8.02-4.44" class="st3"/></svg>