<svg xmlns="http://www.w3.org/2000/svg" id="Camada_3" x="0" y="0" version="1.1" viewBox="0 0 50 50" xml:space="preserve"><style>.st4{fill:#444}</style><path fill="#bf94f7" d="M44.6 4.7l-37.8.5c-2.9 0-5.3 2.4-5.3 5.3v13.7l47-16.7-3.9-2.8z"/><path fill="#a475ef" d="M1.5 24.2l.5 8.5c.4 6.3 9.7 6.2 16 6.2l-.4 5L33 38.4l15.6-5.5V7.5L1.5 24.2z"/><path fill="none" stroke="#444" stroke-linecap="round" stroke-linejoin="round" stroke-miterlimit="10" d="M32.6 37.8L7 37.7c-2.6 0-5.5-2-5.5-4.6m30.2 10.7H17.8c-.5 0-.9-.6-.6-1l2.4-4.8h10.3l2.5 4.8c.1.5-.2 1-.7 1zM2.6 10.7h44.3"/><path fill="none" stroke="#444" stroke-linecap="round" stroke-linejoin="round" stroke-miterlimit="10" stroke-width="2.5" d="M48.4 33.3V10.9c0-3.4-2.8-6.2-6.2-6.2H7.6c-3.4 0-6.2 2.8-6.2 6.2v21.4c0 3.4 2.8 6.2 6.2 6.2h10.6L16.4 43c-.4.9.3 1.8 1.2 1.9L32 45c1 0 1.6-1 1.2-1.9l-1.9-4.6h5.8"/><circle cx="35" cy="8.1" r="1.1" class="st4"/><circle cx="42.5" cy="8.1" r="1.1" class="st4"/><circle cx="38.8" cy="8.1" r="1.1" class="st4"/><path fill="none" stroke="#444" stroke-linecap="round" stroke-linejoin="round" stroke-miterlimit="10" stroke-width=".5" d="M41.7 23.6H29.6c-.4 0-.8-.3-.8-.8v-7.1c0-.4.3-.8.8-.8h12.1c.4 0 .8.3.8.8v7.1c0 .4-.3.8-.8.8zm-12.5-8.5l13 8.1m.1-8.1L29 23.3m-9.2-7.9h6m-19 4.1H26M6.8 23.2H26"/><path d="M7.3 33.4h34.8c.5 0 .8-.4.6-.8-1.2-4-11.2-11.5-21.8-3.5-.4.3-1 .4-1.5.2-2.1-.7-8.3-2.1-12.6 3.1-.3.5-.1 1 .5 1z" class="st4"/></svg>