<svg xmlns="http://www.w3.org/2000/svg" id="Camada_3" x="0" y="0" version="1.1" viewBox="0 0 50 50" xml:space="preserve"><style>.st0{fill:#fc9d9a}.st1,.st5,.st6{fill:none;stroke-linecap:round;stroke-linejoin:round;stroke-miterlimit:10}.st1{stroke-width:2.5}.st1,.st5,.st6{stroke:#444}.st6{stroke-width:.5}</style><path d="M3.75 25.8l43.6-15.51c.32-.44-.39-.53-.07-.97l-.45-.19c-.51-.5-8.49-.57-8.99-1.08L36.8 2.77l-23.85-.19-1.04 5.29c-.5.5-8 .89-8.5 1.39l-.7 15.09c.72.51.31.94 1.04 1.45z" class="st0"/><path d="M2.7 26.18l.8 13.95 15.67 1.69-3.72 4.36 32.76-11.65-.86-24.24z" class="st0"/><path d="M18.99 41.23H6.73a4.02 4.02 0 01-4.02-4.02V12.17c0-2.22 1.8-4.02 4.02-4.02h5.43V4.29c0-1.23 1-2.24 2.23-2.25l20.93-.14c1.25-.01 2.26 1 2.26 2.25v4h5.95c2.22 0 4.02 1.8 4.02 4.02v24.05m-8.66 5.01h-7.43" class="st1"/><path fill="none" stroke="#444" stroke-linecap="round" stroke-linejoin="round" stroke-miterlimit="10" stroke-width=".5" d="M3.22 35.31h43.17"/><path d="M18.7 44.08v-2.85h13.21v2.85m-13.21 0c-4.44 0-4.56 4.21-4.56 4.21h21.97s.8-4.21-4.2-4.21" class="st1"/><circle cx="25.5" cy="37.86" r="1.42" fill="#444"/><circle cx="18.24" cy="6.91" r="2.08" fill="#444"/><path d="M36.8 4.84v26.17c0 .92-.76 1.66-1.71 1.66H14.66c-.94 0-1.71-.74-1.71-1.66V4.9c0-1.1.91-1.99 2.04-2l19.75-.06c1.14 0 2.06.9 2.06 2z" class="st5"/><path d="M23.99 11.91h8.76m-8.67 2.72h6.58m-6.67 4.44h8.76m-8.67 2.72h6.58m-6.67 4.19h8.76m-8.67 2.72h6.58" class="st6"/><path d="M17.44 12.88l1.55 1.91 2.42-3.32m-3.97 8.41l1.55 1.91 2.42-3.33m-3.97 8.66l1.55 1.91 2.42-3.32" class="st5"/><path d="M32.65 7.84h-9.66c-.66 0-1.2-.54-1.2-1.2v-.05c0-.66.54-1.2 1.2-1.2h9.66c.66 0 1.2.54 1.2 1.2v.05c0 .67-.54 1.2-1.2 1.2z" class="st6"/></svg>