<svg xmlns="http://www.w3.org/2000/svg" id="Camada_1" x="0" y="0" version="1.1" viewBox="0 0 50 50" xml:space="preserve"><style>.st2{fill:#031326}</style><path fill="#e56060" d="M44.8 10.7l-1.2 15.6-35.7 13c-.5-1.1-.7-2.5-.8-4.3L5.2 10.7C5.1 8.3 6.3 6.8 9.6 6l12.8-3.6c1-.2 1.8-.4 2.6-.4s1.6.2 2.6.4L40.4 6c3.3.8 4.5 2.3 4.4 4.7z"/><path fill="#ff6b6b" d="M36.7 5L5.6 16.3l-.4-5.6C5.1 8.3 6.3 6.8 9.6 6l12.8-3.6c1-.2 1.8-.4 2.6-.4s1.6.2 2.6.4L36.7 5z"/><path d="M40.7 4.8L27.9 1.3c-1.1-.3-2-.5-2.9-.5-.9 0-1.8.2-2.9.5L9.3 4.8c-3.7.9-5.5 2.9-5.4 6L5.8 35c.4 5.7 2.3 7.5 6.2 9.4l10.8 4.4c.7.2 1.5.4 2.2.4.7 0 1.5-.1 2.2-.4l6.4-2.6c.6-.3.9-1 .7-1.6-.3-.6-1-.9-1.6-.7l-6.3 2.6c-.9.3-1.8.3-2.7 0L13 42.2c-3.1-1.5-4.4-2.6-4.7-7.3L6.4 10.7c0-1.3.2-2.7 3.6-3.5l12.8-3.6c.9-.3 1.6-.4 2.2-.4.7 0 1.3.1 2.2.4l12.9 3.6c3.3.8 3.5 2.1 3.5 3.4l-1.2 15.6c0 .7.5 1.3 1.2 1.3s1.3-.5 1.3-1.1l1.2-15.6c.1-3.2-1.7-5.1-5.4-6z" class="st2"/><circle cx="25" cy="16.3" r="2.3" class="st2"/><path d="M31.8 18.7s-3.1.5-5.9.5h-1.8c-2.9 0-5.9-.5-5.9-.5-.5-.1-.9.2-1 .7-.1.5.2.9.7 1 .1 0 2.6.5 5.3.6l-.4 5.7c-.5 3.2-1.6 6.4-1.7 6.4-.2.5.1 1 .5 1.1.1 0 .2.1.3.1.4 0 .7-.2.8-.6 0-.1.9-2.4 1.5-5.2.1-.3.4-.6.7-.6.3 0 .6.3.7.6.5 2.8 1.4 5.1 1.5 5.2.1.3.5.6.8.6.1 0 .2 0 .3-.1.5-.2.7-.7.5-1.1 0 0-1.2-3.2-1.7-6.4l-.2-5.7c2.7-.1 5.2-.5 5.3-.6.5-.1.8-.5.7-1-.1-.5-.5-.8-1-.7z" class="st2"/><path d="M24.3 43c-.6 0-1.1-.1-1.6-.4l-9.9-5.9c-.9-.5-1.4-1.4-1.5-2.4L9.8 14c-.1-1.4.7-2.7 2-3.2l11.4-4.3c.7-.2 1.4-.3 2.1 0l12.8 4.2c1.3.4 2.2 1.7 2.1 3.1l-1.2 20c-.1 1.1-.7 2.1-1.6 2.6l-11.6 6.2c-.5.3-1 .4-1.5.4zm-.5-35l-11.4 4.3c-.7.3-1.1.9-1 1.6l1.5 20.2c0 .5.3 1 .8 1.3l9.9 5.9c.5.3 1.1.3 1.6 0l11.6-6.2c.5-.3.8-.8.9-1.3l1.2-20c0-.7-.4-1.4-1.1-1.6l-13-4.3c-.3-.1-.7-.1-1 .1z" class="st2"/></svg>