<?xml version="1.0" encoding="utf-8"?>
<!-- Generator: Adobe Illustrator 28.0.0, SVG Export Plug-In . SVG Version: 6.00 Build 0)  -->
<svg version="1.1" id="Layer_1" xmlns="http://www.w3.org/2000/svg" xmlns:xlink="http://www.w3.org/1999/xlink" x="0px" y="0px"
	 viewBox="0 0 50 50" style="enable-background:new 0 0 50 50;" xml:space="preserve">
<style type="text/css">
	.st0{fill:#FCC34F;}
	.st1{fill-rule:evenodd;clip-rule:evenodd;fill:none;stroke:#444444;stroke-linecap:round;stroke-linejoin:round;}
	.st2{fill-rule:evenodd;clip-rule:evenodd;fill:none;stroke:#444444;stroke-width:2.5;stroke-linecap:round;stroke-linejoin:round;}
	.st3{fill-rule:evenodd;clip-rule:evenodd;fill:none;stroke:#444444;stroke-width:0.5;stroke-linecap:round;stroke-linejoin:round;}
</style>
<g>
	<g>
		<path class="st0" d="M28.2,1.7l-8.8,2.5c-1.5,0-5.2,11-5.2,12.6H6.4l-0.7,25l-3.6,0.8c-0.8,0.2,0.7,4.5,1.4,4.9l0,0
			c7.8,2.4,10-0.4,28.1,0.8l17-5.8l0.4-22.7l-1.1-2.9l-8.4-1.1C39.5,14.1,36.8,2.5,28.2,1.7z"/>
		<g>
			<path class="st1" d="M45.1,15.9c1.9,0,3.4,1.5,3.4,3.4v22.8"/>
			<path class="st1" d="M5.4,42.1l0-22.8c0-1.9,1.5-3.4,3.4-3.4l0,0"/>
			<path class="st1" d="M48.6,42.9h-17l-0.2,0.7c0,0.3-0.2,0.5-0.6,0.5h-7.7c-0.3,0-0.6-0.2-0.6-0.5V43H1.3c0,2.8,2.8,5,6.2,5h36.2"
				/>
		</g>
		<path class="st2" d="M15.6,15.9H8.8c-1.9,0-3.4,1.5-3.4,3.4l0,22.8H1.3C1.3,45.4,4,48,7.5,48h36.2 M48.5,42.1l0-22.8
			c0-1.9-1.5-3.4-3.4-3.4h-6.7"/>
	</g>
	<g>
		<g>
			<g>
				<rect x="10.7" y="26.8" class="st1" width="8.6" height="8.6"/>
				<rect x="10.7" y="37.6" class="st1" width="8.6" height="1.9"/>
			</g>
			<g>
				<rect x="23" y="26.8" class="st1" width="8.6" height="8.6"/>
				<rect x="23" y="37.6" class="st1" width="8.6" height="1.9"/>
			</g>
			<g>
				<rect x="35.2" y="26.8" class="st1" width="8.6" height="8.6"/>
				<rect x="35.2" y="37.6" class="st1" width="8.6" height="1.9"/>
			</g>
		</g>
		<path class="st3" d="M42.6,19.4H11.9c-0.6,0-1.1,0.5-1.1,1.1v2.9c0,0.6,0.5,1.1,1.1,1.1h30.7c0.6,0,1.1-0.5,1.1-1.1v-2.9
			C43.7,19.9,43.2,19.4,42.6,19.4z"/>
	</g>
	<circle class="st1" cx="29.3" cy="10.3" r="4.9"/>
	<circle class="st3" cx="23.5" cy="12.7" r="4"/>
	<path class="st2" d="M15.7,15.9c-0.2-0.8-0.3-1.7-0.3-2.6c0-6.4,5.2-11.6,11.6-11.6s11.6,5.2,11.6,11.6c0,0.9-0.1,1.8-0.3,2.6"/>
</g>
</svg>
