<svg xmlns="http://www.w3.org/2000/svg" id="Camada_3" x="0" y="0" version="1.1" viewBox="0 0 50 50" xml:space="preserve"><style>.st3,.st4{fill:none;stroke:#444;stroke-linecap:round;stroke-linejoin:round;stroke-miterlimit:10}.st4{stroke-width:.5}</style><path fill="#fdcf72" d="M29.9 5.45l-5.97-2.84c-3.2 0-21.45 8.94-21.45 12.14l-.53 7.8L37.56 9.87 29.9 5.45z"/><path fill="#fcc34f" d="M1.95 21.48l.53 15.13 11.5 7.56L45 33.13c.74-.42-.82-18.75-1.8-20.74L37.57 8.8 1.95 21.48z"/><path fill="none" stroke="#444" stroke-linecap="round" stroke-linejoin="round" stroke-miterlimit="10" stroke-width="2.5" d="M28.45 46.45l-2.2 1.27c-1.69.98-3.78.98-5.47 0L5.21 38.73a5.48 5.48 0 01-2.74-4.74V16.01a5.46 5.46 0 012.74-4.74l15.57-8.99c1.69-.98 3.78-.98 5.47 0l15.57 8.99a5.48 5.48 0 012.74 4.74v17.98a5.46 5.46 0 01-2.74 4.74l-2.46 1.42"/><path d="M39.08 26.15c0 .84-1.6 1.65-4.45 2.24-2.85.59-6.71.93-10.74.93s-7.89-.33-10.74-.93c-2.85-.59-4.45-1.4-4.45-2.24 0-1.58 5.61-2.93 13.13-3.14m3.45-.02c4.2.08 8.05.52 10.63 1.22m-12.29 6.73v8.94" class="st3"/><path d="M23.62 12.54v15.13m2.68-12.82s3.96.15 3.96 2.21-4.3 2.41-6.74 2.48c-2.39.06-6.74-.43-6.74-2.48s4.09-2.21 4.09-2.21" class="st4"/><path d="M27.41 13.72l-1.21 1.12 1.12 1.22" class="st3"/><circle cx="38.82" cy="25.92" r="3.12" class="st4"/><path d="M7.41 16.92l6.57 2.25m25.76-2.49l-6.38 2.73M14.45 9.79l2.25 2.75m16.1-2.75l-2.25 2.75m-10.1-5.25l1 2.75m5-2.75l-1 2.75" class="st4"/></svg>