<svg xmlns="http://www.w3.org/2000/svg" id="Camada_3" x="0" y="0" version="1.1" viewBox="0 0 50 50" xml:space="preserve"><style>.st5{fill:#444}</style><path fill="#fdcf72" d="M44.8 5.9L7 6.4c-2.9 0-5.3 2.4-5.3 5.3v13.7l47-16.7-3.9-2.8z"/><path fill="#fcc34f" d="M1.7 25.4l.5 8.4c.4 6.3 9.7 6.2 16 6.2l-.4 5 15.4-5.5L48.8 34V8.6L1.7 25.4z"/><path fill="none" stroke="#444" stroke-linecap="round" stroke-linejoin="round" stroke-miterlimit="10" d="M32.9 39l-25.7-.1c-2.6 0-5.5-2-5.5-4.6M31.9 45H18.1c-.5 0-.9-.6-.6-1l2.4-4.8h10.3l2.5 4.8c.1.5-.3 1-.8 1zm-29-11.8h44.2"/><path fill="none" stroke="#444" stroke-linecap="round" stroke-linejoin="round" stroke-miterlimit="10" stroke-width=".5" d="M27.7 11.4h8.1m-8.1 2.7h8.1m-8.1 2.8h13.4m-13.4 2.6h14.8m-14.8 2.7h14.8M27.7 25h14.8m-14.8 3h14.8m-19.9.9h-13c-.8 0-1.4-.6-1.4-1.3V15h3.2c.8 0 1.5-.6 1.4-1.3l-.1-3.2h9.9c.8 0 1.4.6 1.4 1.3v15.8c.1.7-.6 1.3-1.4 1.3zM8.2 15l4.5-4.5"/><path fill="#444" stroke="#444" stroke-miterlimit="10" stroke-width=".5" d="M8.6 14.9l3.9-4 .2 2.3-.4 1.2-1.8.5z"/><circle cx="25" cy="36.1" r="1.6" class="st5"/><path d="M9.7 26.6s0-2.7 2.7-2.7c3.1 0 4.6-2.3 4.6-2.3s2.1-1.6 3.9.5c1.8 2.2 2 4.7 2 4.7H9.7v-.2z" class="st5"/><path fill="none" stroke="#444" stroke-linecap="round" stroke-linejoin="round" stroke-miterlimit="10" stroke-width="2.5" d="M48.6 34.4V12.1c0-3.4-2.8-6.2-6.2-6.2H7.8c-3.4 0-6.2 2.8-6.2 6.2v21.4c0 3.4 2.8 6.2 6.2 6.2h10.6l-1.8 4.5c-.4.9.3 1.8 1.2 1.9l14.3.1c1 0 1.6-1 1.2-1.9l-1.9-4.6h5.8"/></svg>