<svg xmlns="http://www.w3.org/2000/svg" id="Camada_1" x="0" y="0" version="1.1" viewBox="0 0 50 50" xml:space="preserve"><style>.st3{fill:#031326}</style><path fill="#ecc158" d="M44.4 23.5l1.1-17.7c.1-1.9-1.4-3.5-3.3-3.5H7.8c-1.9 0-3.4 1.6-3.3 3.5l1.9 31.7 38-14z"/><path fill="#f0cd77" d="M39.2 2.2H7.8c-1.9 0-3.4 1.6-3.3 3.5l.5 9L39.2 2.2z"/><path fill="#031326" d="M25.6 49.3c-.5 0-1.1-.1-1.6-.3L8.2 43c-1.7-.6-2.9-2.2-3-4.1l-2-33.2c0-1.1.5-2.4 1.3-3.3C5.4 1.5 6.6 1 7.8 1h34.4c1.3 0 2.4.5 3.3 1.4.9.9 1.3 2.2 1.3 3.4l-2 33.2c0 .7-.6 1.2-1.3 1.2-.7 0-1.2-.6-1.2-1.3l2-33.2c0-.6-.2-1.1-.6-1.5-.4-.4-.9-.6-1.5-.6H7.8c-.6 0-1.1.2-1.5.6-.4.4-.6 1-.6 1.6l2 33.2c0 .8.6 1.6 1.3 1.9l15.8 5.9c.5.2 1 .2 1.5 0l4.3-1.6c.6-.2 1.4.1 1.6.7.2.6-.1 1.4-.7 1.6l-4.2 1.6c-.6 0-1.2.2-1.7.2z"/><circle cx="30.2" cy="30.3" r=".6" class="st3"/><path d="M21.3 32.2c-1.1 0-1.9-.9-1.9-1.9 0-1.1.9-1.9 1.9-1.9 1.1 0 1.9.9 1.9 1.9 0 1-.8 1.9-1.9 1.9zm6.4-2.6c-1.1 0-1.9-.9-1.9-1.9 0-1.1.9-1.9 1.9-1.9 1.1 0 1.9.9 1.9 1.9 0 1.1-.9 1.9-1.9 1.9zm-1.9.7c0 .4-.3.6-.6.6s-.6-.3-.6-.6c0-.4.3-.6.6-.6s.6.2.6.6z" class="st3"/><circle cx="27.7" cy="31.6" r=".6" class="st3"/><path d="M35.8 30.2c-.1-.4-.3-.7-.5-1l-6.4-10v-2.3c1.1-.3 2-1.4 2-2.6 0-1.5-1.2-2.7-2.7-2.7h-6.5c-1.5 0-2.7 1.2-2.7 2.7 0 1.2.8 2.3 2 2.6v2.3l-6.4 10c-.8 1.3-.8 2.8-.1 4.1.7 1.3 2 2.1 3.5 2.1h14c1.3 0 2.5-.6 3.2-1.6.3-.4.5-.9.7-1.4.2-.7.1-1.5-.1-2.2zm-1.7-.2c.1.2.2.4.3.7.1.4.1.9 0 1.3-.1.3-.2.6-.4.9-.5.7-1.2 1-2 1H18c-.9 0-1.7-.5-2.2-1.3-.2-.4-.3-.8-.3-1.3 0-.4.2-.9.4-1.3l2.5-3.9c.1 0 .2.1.3.1 1.4.4 2.8.2 4-.6l2-1.3.6-.3c1.6-.8 3.5-.7 5.1.2l3.7 5.8zM22.5 19.7v-4.1h-.8c-.7 0-1.2-.5-1.2-1.2s.5-1.2 1.2-1.2h6.5c.7 0 1.2.5 1.2 1.2s-.5 1.2-1.2 1.2h-.8v4.1l2.1 3.3c-1.5-.5-3.2-.4-4.6.3-.3.1-.5.3-.7.4l-2 1.3c-1 .7-2.2.9-3.4.5 0 0-.1 0-.1-.1l3.8-5.7z" class="st3"/></svg>