<svg xmlns="http://www.w3.org/2000/svg" id="Camada_3" x="0" y="0" version="1.1" viewBox="0 0 50 50" xml:space="preserve"><style>.st2{stroke-width:2.5}.st2,.st3{fill:none;stroke:#515151;stroke-linecap:round;stroke-linejoin:round;stroke-miterlimit:10}</style><path fill="#46b8b0" d="M45.74 11.8L34.65 21.87l-2.46-9.74L4.3 22.08l3.08 11.1.77 7.36 24.91-8.87L48.6 14.76z"/><path fill="#4ecdc4" d="M29.84 6.71l2.35 5.42L4.3 22.08 1.4 11.61l7.51-2.59 5.87-4.81 3.59 2.28z"/><path d="M37.44 31.9l2.47 8.93-.71 1.26-28.32 3.72-9.48-34.2.71-1.26L9 9.5m14.47-1.84l6.96-1.03 4.22 15.24" class="st2"/><path d="M9.37 17.19l18.5-2.43m-16.75 6.75l9.25-1.22m-6.31 18.38s3.67-4.11 4.32-2.27c.66 1.83.82 2.29 1.81 2.16.98-.13 3.28-2.35 3.28-2.35m13.44-8.66l-3.87 3.97-5.92 2.25 2.28-5.91 3.78-3.87z" class="st3"/><path d="M36.87 27.46L48.14 15.9c.61-.6.61-1.58.01-2.19l-1.46-1.46c-.6-.61-1.58-.61-2.19-.01L33.3 23.73l3.57 3.73z" class="st2"/><path d="M42.1 14.7l3.64 3.66" class="st3"/><path d="M18.37 6.49c-.48-1.45-2.09-2.47-3.59-2.28-1.5.19-2.32 1.52-1.84 2.97l-2.71.35C9.23 7.65 8.68 8.54 9 9.5l.87 2.62 14.47-1.84-.87-2.62c-.32-.97-1.39-1.65-2.39-1.52l-2.71.35z" class="st2"/><path d="M11.94 24.81l16.48-2.17m-14.86 6.51l8.24-1.09" class="st3"/></svg>