<svg xmlns="http://www.w3.org/2000/svg" id="Layer_1" x="0" y="0" version="1.1" viewBox="0 0 50 50" xml:space="preserve"><style>.st2{fill:#444}</style><path fill="#7575ef" d="M44.8 10.7l-1.2 15.6-35.7 13c-.5-1.1-.7-2.5-.8-4.3L5.2 10.7C5.1 8.3 6.3 6.8 9.6 6l12.8-3.6c1-.2 1.8-.4 2.6-.4s1.6.2 2.6.4L40.4 6c3.3.8 4.5 2.3 4.4 4.7z"/><path fill="#9894f7" d="M36.7 5L5.6 16.3l-.4-5.6C5.1 8.3 6.3 6.8 9.6 6l12.8-3.6c1-.2 1.8-.4 2.6-.4s1.6.2 2.6.4L36.7 5z"/><path d="M27.9 15.2c-.1-.2-.2-.3-.4-.3h-5c-.2 0-.3.1-.4.3l-7.3 20.9c-.1.3.1.5.4.5h4.1c.2 0 .3-.1.4-.3l1.5-4.9H29l1.5 4.9c0 .2.2.3.4.3H35c.2 0 .4-.2.4-.4v-.1l-7.5-20.9zm-5.6 12.5c1.5-5 2.5-8.1 2.8-9.4.1.4.2.8.4 1.4.2.6 1 3.2 2.4 7.9h-5.6v.1z" class="st2"/><path d="M40.7 4.8L27.9 1.2c-1.1-.3-2-.5-2.9-.5s-1.8.2-2.9.5L9.3 4.8c-3.7.9-5.5 2.9-5.4 6L5.8 35c.4 5.7 2.3 7.5 6.2 9.4l10.8 4.4c.7.2 1.5.4 2.2.4s1.5-.1 2.2-.4l6.4-2.6c.6-.3.9-1 .7-1.6-.3-.6-1-.9-1.6-.7l-6.3 2.6c-.9.3-1.8.3-2.7 0L13 42.2c-3.1-1.5-4.4-2.6-4.7-7.3L6.4 10.7c0-1.3.2-2.7 3.6-3.5l12.8-3.6c.9-.3 1.6-.4 2.2-.4.7 0 1.3.1 2.2.4l12.9 3.6c3.3.8 3.5 2.1 3.5 3.4l-1.2 15.6c0 .7.5 1.3 1.2 1.3s1.3-.5 1.3-1.1l1.2-15.6c.1-3.2-1.7-5.1-5.4-6z" class="st2"/></svg>