<svg xmlns="http://www.w3.org/2000/svg" viewBox="0 0 50 50"><path fill="#bf94f7" d="M33.8 4.8l-8.6-2.2C15.1 2.6.3 7.8 3.2 17l1 5.5L44.8 9l-11-4.2z"/><path fill="#a475ef" d="M3.9 21.7l2.4 12.1c-.6 6.3 3.1 9.2 9 7.1l30-10.5L47 13.1c.1-2.6.3-6.1-3.3-4.8L3.9 21.7z"/><path fill="none" stroke="#444" stroke-linecap="round" stroke-miterlimit="10" stroke-width="2.5" d="M45.3 30.4l1.9-16.1c.3-3-1.4-5.8-4.2-6.8L27.3 2c-1.4-.5-2.9-.5-4.3 0L7.5 7.5c-2.8 1-4.6 3.8-4.2 6.8l2.5 21.4c.2 2.1 1.5 3.9 3.3 4.9l13.1 7.3c1.9 1.1 4.3 1.1 6.2 0l13.1-7.3"/><path fill="#444" d="M36.6 36.3c-.6 0-1.2-.2-1.8-.7-.8-.6-2.8-2.3-4.1-3.4-.3-.3-.6-.5-.8-.7-.3.7-.9 1.9-1.8 3.7-.2.5-.7 1.1-1.5 1.1h-.4c-.7-.2-1.3-.6-1.6-1.4-1.1-2.4-2.1-4.6-3-6.8s-1.9-4.4-3-6.8c0-.1-.1-.1-.1-.2-.1-.3-.3-.6-.4-1-.2-.7-.1-1.4.3-1.9s1-.8 1.7-.8h.3c.2 0 .4.1.7.1 2 .6 6.3 1.6 9.7 2.5 2.5.6 4.6 1.1 5.4 1.3.7.2 1.3.7 1.5 1.3.2.6.3 1.4-.7 2.1-1.7 1.2-2.7 1.9-3.3 2.3 1.4 1.2 4 3.3 4.9 4.1.7.6 1.1 1.3 1.1 2.1 0 1.2-.5 2.1-1.5 2.6-.7.4-1.2.5-1.6.5zm-7-6.7c.2 0 .3.1.5.2l.2.2c.1.1.3.2.4.4.2.2.5.5.9.8 1.3 1.1 3.3 2.8 4.2 3.5.3.2.6.3.9.3.2 0 .4-.1.6-.2.5-.3.8-.7.8-1.3 0-.4-.2-.7-.6-1.1-1-.9-4.2-3.5-5.3-4.5l-.2-.2-.1-.1c-.2-.2-.3-.4-.2-.6 0-.2.2-.4.4-.5 0 0 .2-.1.4-.3.5-.4 1.6-1.2 3.6-2.6.3-.2.3-.3.2-.4-.1-.3-.3-.4-.6-.5-.7-.2-2.9-.7-5.3-1.3-3.4-.8-7.7-1.9-9.7-2.5-.2-.1-.3-.1-.5-.1h-.1c-.2 0-.4 0-.6.2-.1.2-.1.4 0 .7.1.2.2.5.3.8 0 .1.1.1.1.2 1.1 2.4 2.1 4.6 3 6.8s1.9 4.4 3 6.7c.2.4.4.5.6.6h.1c.1 0 .2-.1.3-.3 1.6-3.1 2.1-4.3 2.1-4.4.1-.2.3-.4.5-.5h.1zM20 15.7c-.4 0-.7-.3-.7-.7V9.8c0-.4.3-.7.7-.7s.7.3.7.7V15c0 .4-.3.7-.7.7zM15.9 17c-.1 0-.3 0-.4-.1l-3.9-2.6c-.3-.2-.4-.7-.2-1s.7-.4 1-.2l3.9 2.6c.3.2.4.7.2 1-.2.2-.4.3-.6.3zm-.6 4.5H11c-.4 0-.7-.3-.7-.7 0-.4.3-.7.7-.7h4.2c.4 0 .7.3.7.7.1.4-.2.7-.6.7zm9.2-5.2c-.1 0-.3 0-.4-.1-.3-.2-.4-.7-.2-1l3.6-5.4c.2-.3.7-.4 1-.2s.4.7.2 1L25.1 16c-.1.2-.4.3-.6.3zM15 30c-.1 0-.3 0-.4-.1-.3-.2-.4-.7-.2-1l2.7-4c.2-.3.7-.4 1-.2.3.2.4.7.2 1l-2.7 4c-.2.2-.4.3-.6.3z"/></svg>