<svg xmlns="http://www.w3.org/2000/svg" id="Camada_3" x="0" y="0" version="1.1" viewBox="0 0 50 50" xml:space="preserve"><style>.st2{fill:none;stroke:#444;stroke-linecap:round;stroke-linejoin:round;stroke-miterlimit:10}</style><path fill="#46b8b0" d="M37.16 37.85l3.18-16.29 1.51-.74.34-2.03-31.06 11.08 2.7 16.24"/><path fill="#4ecdc4" d="M41.08 17.6l1.11 1.19-31.06 11.08-1.47-8.31-1.98-2.06.8-1.63 14.66-.42z"/><path d="M16.59 21.56H9.66c-1.09 0-1.98-.92-1.98-2.06 0-1.14.89-2.06 1.98-2.06h30.68c1.09 0 1.98.92 1.98 2.06 0 1.14-.89 2.06-1.98 2.06H23.72m7.68-6.09v-1.98c0-1.09.76-1.98 1.71-1.98.94 0 1.71.89 1.71 1.98v1.98m-11.1-3.96v3.96m-5.55-2.97h-.85c-.71 0-1.28-.57-1.28-1.28V7.84c0-.71.57-1.28 1.28-1.28h.85c.71 0 1.28.57 1.28 1.28v3.37c0 .71-.57 1.29-1.28 1.29zm10.24-5.94h-.85c-.71 0-1.28-.57-1.28-1.28V1.91c0-.71.57-1.28 1.28-1.28h.85c.71 0 1.28.57 1.28 1.28v3.37c0 .71-.57 1.28-1.28 1.28zM11.77 1.61v7.92m26.46-7.92v7.92" class="st2"/><path fill="#444" d="M25.03 21.56v27.82l6.31-.92v-26.9zm8.08 0h4.56v12.71l-2.14 12.71-2.42.94z"/><path d="M36.17 46.11l4.08-24.55m-30.5 0l4.08 24.55M10.47 25.9s5.98 5.08 14.56 5.08 14.51-5.08 14.51-5.08M13.83 46.47c2.55 1.46 6.08 2.91 11.2 2.91 4.6 0 8.43-1.46 11-2.81M12.13 35.9c2.35 1.5 7.01 3.89 12.9 3.89 5.87 0 10.5-2.38 12.84-3.88" class="st2"/></svg>