<svg xmlns="http://www.w3.org/2000/svg" xmlns:xlink="http://www.w3.org/1999/xlink" viewBox="0 0 50 50"><defs><path id="a" d="M0 49h49.248V.058H0z"/></defs><g fill="none" fill-rule="evenodd"><path fill="#FCC34F" d="M47.716 26.759l.4 4.288-46.239 16.83.133-9.05.347-5.201L48.421 16.86l-.705 3.707z"/><path fill="#FDCF72" d="M47.716 10.165l-.557 7.704L2.01 34.301v-9.77l.325-4.425L47.829 3.547z"/><g transform="translate(0 .942)"><path stroke="#031326" stroke-linecap="round" stroke-linejoin="round" stroke-width="2.5" d="M32.553 47.75H1.25V1.308h46.748v35.993"/><path fill="#031326" d="M43.26 27.137a.668.668 0 01-.666.668H20.559a.668.668 0 01-.667-.668V11.78c0-.369.299-.667.667-.667h22.035c.368 0 .667.298.667.667v15.357zm-9.347 7.345h-4.006V29.14h1.335v2.003a.668.668 0 101.336 0V29.14h1.335v5.342zm-6.677 2.671h9.348v-1.335h-9.348v1.335zM42.594 9.777H20.559a2.005 2.005 0 00-2.003 2.003v15.357a2.005 2.005 0 002.003 2.003h8.013v5.342h-2.003a.668.668 0 00-.668.667v2.671c0 .37.299.668.668.668h.39l.473.472a.668.668 0 00.472.196h1.336a.672.672 0 00.472-.196l.472-.472h3.453l.472.472a.668.668 0 00.472.196h1.335a.667.667 0 00.472-.196l.473-.472h.39a.669.669 0 00.669-.668v-2.67c0-.369-.3-.668-.668-.668h-2.003V29.14h7.345a2.004 2.004 0 002.002-2.003V11.78a2.004 2.004 0 00-2.002-2.003z"/><mask id="b" fill="#fff"><use xlink:href="#a"/></mask><path fill="#031326" d="M22.562 25.134H40.59V13.783H22.562v11.351zm18.696-12.686H21.895a.668.668 0 00-.668.668v12.686c0 .369.299.668.668.668h19.363a.667.667 0 00.667-.668V13.116a.667.667 0 00-.667-.668z" mask="url(#b)"/><path fill="#031326" d="M23.898 14.451a.668.668 0 110 1.336.668.668 0 010-1.336m2.003 0a.667.667 0 110 1.334.667.667 0 010-1.334m2.003 0a.667.667 0 110 1.334.667.667 0 010-1.334m-4.006 4.006h1.335v-1.335h-1.335zm3.338 0h4.006v-1.335h-4.006zm5.342 0h1.335v-1.335h-1.335zm-8.68 2.671h1.335v-1.335h-1.335zm3.338 0h2.003v-1.335h-2.003zm3.339 0h7.345v-1.335h-7.345zm-6.677 2.671h1.335v-1.335h-1.335zm3.338 0h4.674v-1.335h-4.674zm6.009 0h1.335v-1.335h-1.335zM5.87 27.137h4.674v-4.006H5.87v4.006zm0 5.342h4.674v-4.006H5.87v4.006zm6.009 5.341h10.683v-4.006H11.879v4.006zm-6.009.001h4.674v-4.006H5.87v4.006zm-.668 1.335H23.23a.668.668 0 00.668-.668v-8.012h-1.336v2.003H11.879v-4.006h5.342v-1.336h-5.342v-4.006h5.342v-1.335H5.202a.668.668 0 00-.667.668v16.024c0 .369.299.668.667.668z" mask="url(#b)"/><path fill="#031326" d="M7.873 24.466a.667.667 0 110 1.335.667.667 0 010-1.334m0 5.341a.667.667 0 110 1.334.667.667 0 010-1.334m0 5.342a.667.667 0 110 1.334.667.667 0 010-1.334m5.342-9.349h1.335v-1.335h-1.335zm2.003 0h1.335v-1.335h-1.335zm-2.003 5.342h1.335v-1.335h-1.335zm2.003 0h1.335v-1.335h-1.335zm-2.003 5.342h1.335V35.15h-1.335zm2.003 0h1.335V35.15h-1.335z" mask="url(#b)"/></g></g></svg>