<svg xmlns="http://www.w3.org/2000/svg" id="Camada_3" x="0" y="0" version="1.1" viewBox="0 0 50 50" xml:space="preserve"><style>.st3{fill:#444}</style><path fill="#00c8e2" d="M48.03 16.5l.73 5.2L2.71 38.46l-.55-10.89-.04-6.24L46.69 5.18l.87 3.87z"/><path fill="#00dffc" d="M45.84 1.97l2.25 3.24L1.24 21.94 2.35 4.77l2.98-2.89 29.05-.17z"/><path fill="none" stroke="#444" stroke-linecap="round" stroke-linejoin="round" stroke-miterlimit="10" stroke-width="2.5" d="M24.63 48.29H5.16c-1.87 0-3.39-1.58-3.39-3.54V5.84c0-1.95 1.52-3.54 3.39-3.54h39.01c1.87 0 3.39 1.58 3.39 3.54v25.89"/><path d="M26.36 26.39h-2.71c-.84 0-1.16.32-1.16.32-.13.13-.19.32-.19.58v1.03h-.9a.99.99 0 00-.97.97v.52H19c-.39 0-.77.19-.97.52h-1.74c-4.07 0-7.29 3.29-7.29 7.29v6.65c0 .26.19.52.52.52h5.29c.26 0 .52-.19.52-.52v-6.65c0-.58.45-1.03 1.03-1.03h1.74c.19.32.52.52.97.52H31c.39 0 .77-.19.97-.52h1.74c.58 0 1.03.45 1.03 1.03v6.65c0 .26.19.52.52.52h5.23c.26 0 .52-.19.52-.52v-6.65c0-4-3.29-7.29-7.36-7.29h-1.74c-.19-.32-.52-.52-.97-.52h-1.42v-.52a.99.99 0 00-.97-.97h-.9v-1.03c0-.19-.06-.39-.19-.58-.01 0-.27-.32-1.1-.32zm-8.46 9.23h-1.55c-1.1 0-2 .9-2 2v6.13h-4.32v-6.13c0-3.49 2.84-6.33 6.33-6.33h1.55v4.33zm5.36-8.26h3.49v.97h-3.49v-.97zm-1.87 1.93h7.16v.52h-7.16v-.52zM31 36.2H19c-.06 0-.13-.06-.13-.13v-5.16c0-.06.06-.13.13-.13h11.94c.06 0 .13.06.13.13v5.16c.06.06 0 .13-.07.13zm4.71 7.61v-6.13c0-1.1-.9-2-2-2H32.1v-4.32h1.55c3.49 0 6.39 2.84 6.39 6.33v6.13h-4.33z" class="st3"/><path fill="none" stroke="#444" stroke-miterlimit="10" d="M24.13 26.56v-8.15m1.68 8.64v-4.98"/><path d="M21.63 17.03c.43 0 .85.05 1.28.15.15.43.43.8.79 1.06l-4.47 9.15a5.462 5.462 0 01-.51-9.53c.87-.53 1.88-.83 2.91-.83m0-1a6.481 6.481 0 00-5.82 3.62c-1.56 3.21-.23 7.08 2.97 8.64a1.005 1.005 0 001.34-.46l4.47-9.15c.21-.44.08-.97-.32-1.25-.2-.14-.35-.34-.43-.57a1.01 1.01 0 00-.71-.65c-.48-.12-.99-.18-1.5-.18zm9.36-10.81c1.78.82 2.91 2.48 3.13 4.29.11.97-.02 1.99-.47 2.95a5.46 5.46 0 01-4.96 3.17c-.59 0-1.18-.09-1.76-.29-.1-.19-.24-.36-.4-.51l4.46-9.61m0-1c-.38 0-.74.21-.91.58l-4.45 9.61c-.18.39-.09.86.23 1.15.08.07.15.17.2.27.12.22.32.38.55.46.67.23 1.37.35 2.08.35 2.51 0 4.81-1.47 5.87-3.75.5-1.08.7-2.29.55-3.49a6.417 6.417 0 00-3.7-5.09c-.13-.06-.28-.09-.42-.09zM19.07 7.29a5.462 5.462 0 014.61 2.56c.82 1.31 1.07 2.94.6 4.48-.33.1-.64.29-.88.54l-9.25-4.51c.96-1.94 2.9-3.07 4.92-3.07m0-1a6.5 6.5 0 00-5.81 3.63c-.24.5-.03 1.09.46 1.33l9.25 4.51c.14.07.29.1.44.1.27 0 .53-.11.72-.31.12-.13.28-.23.45-.28.32-.1.56-.35.66-.66a6.466 6.466 0 00-3.33-7.67c-.9-.43-1.85-.65-2.84-.65zm7.75 11.43l9.52 4.41a5.485 5.485 0 01-4.29 3.13 5.41 5.41 0 01-2.95-.47 5.459 5.459 0 01-2.96-6.43c.27-.16.51-.38.68-.64m0-1c-.32 0-.64.16-.83.44-.09.13-.22.25-.36.33a.97.97 0 00-.46.59c-.87 3.07.6 6.27 3.5 7.61a6.34 6.34 0 003.48.55 6.448 6.448 0 005.08-3.7c.11-.24.12-.52.03-.77a.987.987 0 00-.52-.56l-9.52-4.41a.983.983 0 00-.4-.08z" class="st3"/><circle cx="24.99" cy="16.29" r="1.55" fill="none" stroke="#444" stroke-linecap="round" stroke-linejoin="round" stroke-miterlimit="10"/></svg>