<svg xmlns="http://www.w3.org/2000/svg" id="Layer_1" x="0" y="0" version="1.1" viewBox="0 0 50 50" xml:space="preserve"><style>.st0{fill:#e56060}.st1{fill:#ff6b6b}.st2{fill:#444}.st3,.st4,.st5{fill:none;stroke:#444;stroke-linecap:round;stroke-linejoin:round;stroke-miterlimit:10}.st4{stroke-width:.75}.st5{stroke-width:2.5}</style><path d="M126.4 586.6l1.7 3.5v4.9l-14 5.1-.1-.6-1.1.3-.1 2.5 1.1.5v4.7l-2.7 1.2-2.2-1.6-.1-5.1-7.8 2.8v-2l-4.9-.4.3-9.7 1.5-1.1.2-4.6 16.7-6 .8 3.3 4.2-1.4z" class="st0"/><path d="M114.6 574.3l.1 1.2v8.1l-16.2 5.8 7.5-11.8 3.7-4.5 3-2.9 1.9 3.3z" class="st1"/><path d="M122.7 605.9l-.1-2.9h-.7c.1 0 .3 0 .4-.1.2-.1.3-.2.4-.4.1-.2.2-.4.2-.6v-1.8c0-.1 0-.3-.1-.4-.1-.2-.2-.3-.4-.4-.2-.1-.4-.2-.6-.2h-.4v-3l.1-.1c.1-.1.2-.1.4-.2s.5-.2.7-.2c.1 0 .2 0 .3-.1v.3c0 .1 0 .3.1.4.1.2.2.3.4.4.2.1.4.2.6.2h1.9c.1 0 .3 0 .4-.1.2-.1.3-.2.4-.4.1-.2.2-.3.2-.6v-8.5c0-.1 0-.3-.1-.4-.1-.2-.2-.3-.4-.4-.2-.1-.4-.2-.6-.2H124c-.1 0-.3 0-.4.1-.2.1-.3.2-.4.4-.1.2-.2.3-.2.6v.6h-3c-.9 0-1.7.2-2.5.5-1.2.5-2.1 1.3-2.8 2.2-.7 1-1.1 2.2-1.1 3.5v5h-.4c-.1 0-.3 0-.4.1-.2.1-.3.2-.4.4-.1.2-.2.3-.2.6v1.8c0 .1 0 .3.1.4.1.2.2.3.4.4.2.1.4.2.6.2h.4l.2 3c0 .3-.1.6-.2.8-.2.4-.4.7-.8.9-.3.2-.8.4-1.2.4-.3 0-.6-.1-.9-.2-.4-.2-.7-.4-1-.8-.2-.3-.4-.7-.4-1.2v-7.2c0-.8-.2-1.5-.4-2.1-.4-1-1.2-1.8-2.1-2.4-.9-.6-2-.9-3.2-.9l-3.5.3v-.4c0-.1 0-.2-.1-.4s-.2-.3-.3-.4c-.1-.1-.3-.2-.5-.2h-1.9c-.1 0-.3 0-.4.1-.2.1-.3.2-.4.3-.1.1-.2.3-.2.5v8c0 .1 0 .2.1.4s.2.3.3.4c.1.1.3.2.5.2h1.9c.1 0 .3 0 .4-.1.2-.1.3-.2.4-.3.1-.1.1-.2.1-.4.1 0 .2 0 .3.1.2 0 .3.1.5.2.1 0 .2.1.3.1.1 0 .1.1.2.1 0 0 .1 0 .1.1v4.1c0 1.3.3 2.6.8 3.8.5 1.2 1.4 3.3 2.3 4.1.9.9 2 1.6 3.2 2.1 1.2.5 2.6.8 3.9.8 1.3 0 2.7-.3 3.9-.8 1.2-.5 2.3-1.2 3.2-2.1.2-.2.4-.5.6-.7.2-.2.1-.5-.1-.7-.2-.2-.5-.1-.7.1l-.6.6c-.8.8-1.8 1.4-2.9 1.9-1.1.5-2.3.7-3.5.7-1.2 0-2.4-.2-3.5-.7-1.1-.4-2-1.1-2.9-1.9-.8-.8-1.7-2.8-2.1-3.8-.5-1.1-.7-2.2-.7-3.4v-4.4c0-.1-.1-.2-.1-.2l-.3-.3c-.1-.1-.2-.1-.3-.2l-.6-.3-.9-.3c-.1 0-.2 0-.3-.1v-5.7l3.6-.3c.6 0 1.2.1 1.8.4.8.3 1.6.9 2.1 1.6.5.7.8 1.6.8 2.5v7.2c0 .4.1.8.3 1.2.2.6.7 1 1.2 1.4.5.3 1.1.5 1.8.5.4 0 .9-.1 1.2-.3.6-.2 1.1-.6 1.4-1.1.3-.5.5-1.1.5-1.7l-.2-2.9h6.5l.5 2.9m-24.1-12.3h1.8v7.2h-1.8v-7.5.3zm26.7-5.8h1.9v7.9H124v-8.2.3zm-1.8 7c-.2.1-.4.1-.6.2-.1.1-.3.1-.4.2-.1 0-.2.1-.3.2-.1 0-.1.1-.2.1-.1.1-.2.2-.2.3 0 .1-.1.1-.1.2v3.7c0 .1.1.3.2.3.1.1.2.1.4.1h.9v1.8h-8.7v-1.8h.9c.1 0 .3-.1.4-.1.1-.1.1-.2.1-.3v-5.5c0-.7.1-1.4.4-2 .4-.9 1.1-1.7 1.9-2.3.9-.6 1.9-.9 3-.9h2.9v5.7c-.1 0-.3 0-.6.1z" class="st2"/><path d="M101.6 593.7s2.7-2.8 3.5-3.2c0 0-.4 3 .3 3.6m2.5 1.8s4-.9 1.3-4.9c-1.4-2.1-4.2-2.9-.8-8.3 0 0-.5 3.1 4.9 5.7.8.4 2.1 1.1 2.7 1.4" class="st3"/><path d="M98.2 592.9s-1.2-5.2 7.3-13.9c8.2-8.4 7.2-10 7.2-10s2.5.6 1.9 8.4c-.2 2.9-1.9 4.4.1 6.6 2 2.2 6-.3 5.3-1.9 0 0 1.5 1 4.3 5.3" class="st4"/><path d="M121.8 609.2c0-.1 0-.2.1-.2 0 0-.1.1-.1.2zm.4-1.7l-.3 1.5c.2-.9.3-1.5.3-1.5z" class="st5"/><path d="M122.2 607.5c0-.3.1-.7.1-1v-3.1h.3c.1 0 .3 0 .4-.1.2-.1.3-.2.5-.4.1-.2.2-.4.2-.6v-3c-.1-.2-.2-.3-.4-.4-.2-.1-.4-.2-.6-.2h-.5l-.1-2.4.1-.1c.1-.1.2-.1.4-.2s-.5.3-.2.2c0 0 .2 0 .3-.1v-.2c0 .1 0 .3.1.4.1.2.2.3.4.4.2.1.4.2.6.2h2.9c.1 0 .3 0 .4-.1.2-.1.3-.2.5-.4.1-.2.2-.4.2-.6v-8.7c0-.1 0-.3-.1-.4-.1-.2-.2-.3-.4-.4-.2-.1-.4-.2-.6-.2h-1.9c-.1 0-.3 0-.4.1-1.6-2.1-3-3.4-4-4.1-.4-.3-.9-.1-1 .4-.4 1.5-2.6 3-4.3 1.2-2-2.2-.3-3.8-.1-6.8.4-4.4-.8-6.7-1.9-7.8-.4-.4-1.1-.1-1.1.5.1 1.5-.9 4.3-6.3 9-7.6 6.6-7.8 11.8-7.6 13.6h-.9c-.1 0-.3 0-.4.1-.2.1-.3.2-.4.3-.1.1-.2.3-.2.5v8.3c0 .1 0 .3.1.4.1.2.2.3.3.4.2.1.3.2.5.2h2c.1 0 .3 0 .4-.1.2-.1 0-.1.1-.2s.5-.2.5-.3c.3.1-.1 0 0 0 .2 0 .3.1.5.2.1 0 .2.1.3.1.1 0 .1.1.2.1l.1.1.3 4.1c0 1.3.3 2.7.8 3.9.5 1.2 1.3 2.3 2.2 3.2.9.9 2 1.6 3.3 2.1 1.3.5 2.6.8 4 .8s2.7-.3 4-.8c1-.4 1.9-.9 2.7-1.6.1 0 3.4-2.7 3.7-6.5z" class="st5"/><path d="M38.9 18.9l1.6 3.4v5l-14 5.1-.1-.6-1.1.3-.1 2.5 1.1.5.1 4.6-2.8 1.3-2.1-1.6-.2-5.1-7.8 2.8V35l-4.8-.3.2-9.8 1.6-1.1.1-4.5 16.7-6.1.8 3.4 4.3-1.5z" class="st0"/><path d="M27.1 6.6v9.2l-16.2 5.8 7.6-11.7 3.6-4.5 3-2.9L27 5.7z" class="st1"/><path d="M35.2 38.2l-.2-2.9h-.7c.1 0 .3 0 .4-.1.2-.1.3-.2.4-.4.1-.2.2-.4.2-.6v-1.8c0-.1 0-.3-.1-.4-.1-.2-.2-.3-.4-.4-.2-.1-.4-.2-.6-.2h-.4v-3l.1-.1c.1-.1.2-.1.4-.2s.5-.2.7-.2c.1 0 .2 0 .3-.1v.3c0 .1 0 .3.1.4.1.2.2.3.4.4.2.1.4.2.6.2h1.9c.1 0 .3 0 .4-.1.2-.1.3-.2.4-.4.1-.2.2-.3.2-.6v-8.5c0-.1 0-.3-.1-.4-.1-.2-.2-.3-.4-.4-.2-.1-.4-.2-.6-.2h-1.9c-.1 0-.3 0-.4.1-.2.1-.3.2-.4.4-.1.2-.2.3-.2.6v.6h-3c-.9 0-1.7.2-2.5.5-1.2.5-2.1 1.3-2.8 2.2-.7 1-1.1 2.2-1.1 3.5v5h-.4c-.1 0-.3 0-.4.1-.2.1-.3.2-.4.4-.1.2-.2.3-.2.6v1.8c0 .1 0 .3.1.4.1.2.2.3.4.4.2.1.4.2.6.2h.4l.2 3c0 .3-.1.6-.2.8-.2.4-.4.7-.8.9-.3.2-.8.4-1.2.4-.3 0-.6-.1-.9-.2-.4-.2-.7-.4-1-.8-.2-.3-.4-.7-.4-1.2V31c0-.8-.2-1.5-.4-2.1-.4-1-1.2-1.8-2.1-2.4-.9-.6-2-.9-3.2-.9l-3.5.3v-.4c0-.1 0-.2-.1-.4s-.2-.3-.3-.4c-.1-.1-.3-.2-.5-.2H9.7c-.1 0-.3 0-.4.1-.2.1-.3.2-.4.3-.1.1-.2.3-.2.5v8c0 .1 0 .2.1.4s.2.3.4.4c.1.1.3.2.5.2h1.9c.1 0 .3 0 .4-.1.2-.1.3-.2.4-.3.1-.1.1-.2.1-.4.1 0 .2 0 .3.1.2 0 .3.1.5.2.1 0 .2.1.3.1.1 0 .1.1.2.1 0 0 .1 0 .1.1v4.1c0 1.3.3 2.6.8 3.8.5 1.2 1.4 3.3 2.3 4.1.9.9 2 1.6 3.2 2.1 1.2.5 2.6.8 3.9.8 1.3 0 2.7-.3 3.9-.8 1.2-.5 2.3-1.2 3.2-2.1.2-.2.4-.5.6-.7.2-.2.1-.5-.1-.7-.2-.2-.5-.1-.7.1l-.6.6c-.8.8-1.8 1.4-2.9 1.9-1.1.5-2.3.7-3.5.7-1.2 0-2.4-.2-3.5-.7-1.1-.4-2-1.1-2.9-1.9-.8-.8-1.7-2.8-2.1-3.8-.5-1.1-.7-2.2-.7-3.4v-4.4c0-.1-.1-.2-.1-.2l-.3-.3c-.1-.1-.2-.1-.3-.2l-.6-.3-.9-.3c-.1 0-.2 0-.3-.1v-5.7l3.6-.3c.6 0 1.2.1 1.8.4.8.3 1.6.9 2.1 1.6.5.7.8 1.6.8 2.5v7.2c0 .4.1.8.3 1.2.2.6.7 1 1.2 1.4.5.3 1.1.5 1.8.5.4 0 .9-.1 1.2-.3.6-.2 1.1-.6 1.4-1.1.3-.5.5-1.1.5-1.7l-.2-2.9h6.5l.5 2.9m-24-12.4h1.8V33H9.8v-7.5.3zM36.4 20h1.9v7.9h-1.9v-8.2.3zm-1.7 7.1c-.2.1-.4.1-.6.2-.1.1-.3.1-.4.2-.1 0-.2.1-.3.2-.1 0-.1.1-.2.1-.1.1-.2.2-.2.3 0 .1-.1.1-.1.2V32c0 .1.1.3.2.3.1.1.2.1.4.1h.9v1.8h-8.7v-1.8h.9c.1 0 .3-.1.4-.1.1-.1.1-.2.1-.3v-5.5c0-.7.1-1.4.4-2 .4-.9 1.1-1.7 1.9-2.3.9-.6 1.9-.9 3-.9h2.9V27c-.2-.1-.4 0-.6.1z" class="st2"/><path d="M14 26s2.7-2.8 3.5-3.2c0 0-.4 3 .3 3.6m2.6 1.7s4-.9 1.3-4.9c-1.4-2.1-4.2-2.9-.8-8.3 0 0-.5 3.1 4.9 5.7.8.4 2.1 1.1 2.7 1.4" class="st3"/><path d="M10.6 25.2S9.4 20 17.9 11.3c8.2-8.4 7.2-10 7.2-10s2.5.6 1.9 8.4c-.2 2.9-1.9 4.4.1 6.6s6-.3 5.3-1.9c0 0 1.5 1 4.3 5.3" class="st4"/><path d="M34.3 41.4c0-.1 0-.2.1-.2-.1.1-.1.2-.1.2zm.3-1.7l-.3 1.5c.3-.9.3-1.5.3-1.5z" class="st5"/><path d="M34.6 39.7c0-.3.1-.7.1-1v-3.1h.3c.1 0 .3 0 .4-.1.2-.1.3-.2.5-.4.1-.1.1-.3.1-.5v-3c-.1-.2-.2-.3-.4-.4-.2-.1-.4-.2-.6-.2h-.5l-.1-2.4.1-.1c.1-.1.2-.1.4-.2s-.5.3-.2.2c0 0 .2 0 .3-.1v-.2c0 .1 0 .3.1.4.1.2.2.3.4.4.2.1.4.2.6.2H39c.1 0 .3 0 .4-.1.2-.1.3-.2.5-.4.1-.2.2-.4.2-.6v-8.7c0-.1 0-.3-.1-.4-.1-.2-.2-.3-.4-.4-.2-.1-.4-.2-.6-.2h-1.9c-.1 0-.3 0-.4.1-1.6-2.1-3-3.4-4-4.1-.4-.3-.9-.1-1 .4-.4 1.5-2.6 3-4.3 1.2-2-2.2-.3-3.8-.1-6.8.4-4.4-.8-6.7-1.9-7.8-.4-.4-1.1-.1-1.1.5.1 1.5-.9 4.3-6.3 9-7.6 6.6-7.8 11.8-7.6 13.6h-.8c-.1 0-.3 0-.4.1-.2.1-.3.2-.4.3-.1.1-.2.3-.2.5v8.3c0 .1 0 .3.1.4.1.2.2.3.3.4.2.1.3.2.5.2h2c.1 0 .3 0 .4-.1.2-.1 0-.1.1-.2s.5-.2.5-.3c.3.1-.1 0 0 0 .2 0 .3.1.5.2.1 0 .2.1.3.1.1 0 .1.1.2.1l.1.1.3 4.1c0 1.3.3 2.7.8 3.9.5 1.2 1.3 2.3 2.2 3.2.9.9 2 1.6 3.3 2.1 1.3.5 2.6.8 4 .8s2.7-.3 4-.8c1-.4 1.9-.9 2.7-1.6.2 0 3.5-2.7 3.7-6.6z" class="st5"/></svg>