<svg xmlns="http://www.w3.org/2000/svg" id="Camada_1" x="0" y="0" version="1.1" viewBox="0 0 50 50" xml:space="preserve"><style>.st3{fill:none;stroke:#031326;stroke-width:.75;stroke-linecap:round;stroke-miterlimit:10}</style><path fill="#acbfc0" d="M47.6 25.1c0-7.2-3.4-13.6-8.6-17.7L3 20.5c-.3 1.5-.5 3-.5 4.6 0 6.1 2.5 11.7 6.4 15.8l38.6-14.1c0-.6.1-1.2.1-1.7z"/><path fill="#c0d5d7" d="M25.1 2.2c-11.2 0-20.6 8-22.8 18.6L39.6 7.2c-4-3.1-9-5-14.5-5z"/><path fill="none" stroke="#031326" stroke-linecap="round" stroke-miterlimit="10" stroke-width=".5" d="M2.7 22.5v.2"/><path d="M20.8 31.1c-1.3-7.7 1.3-27 17.3-24.3-5.5-4.7-17.5-7-26.6-.3C3 12.2 2.6 22.6 2.6 22.6m-.1.2C1.3 29.9 5.1 41.6 15.3 46c9.2 4.5 18.7-.7 18.7-.7m-1.7-19.6c-6 5-24.2 12.5-29.8-2.7" class="st3"/><path d="M21.7 18.4c7.3 2.8 22.7 14.4 12.4 26.8 6.8-2.4 14.8-11.5 13.5-22.7-.7-10.2-9.5-15.8-9.5-15.8" class="st3"/><circle cx="25" cy="25.1" r="22.6" fill="none" stroke="#031326" stroke-linecap="round" stroke-miterlimit="10" stroke-width="2.5"/></svg>