<svg xmlns="http://www.w3.org/2000/svg" version="1" viewBox="0 0 50 50"><path fill="#00C8E2" d="M3.708 35.584l3.265.915v2.056c0 .791.641 1.432 1.432 1.432h11.01l3.647 1.022 19.966-7.267v-1.984l4.32-15.408a1.522 1.522 0 00-1.055-1.877l-3.264-.915v-2.056c0-.791-.641-1.432-1.432-1.432h-11.01L12.299 4.943a1.523 1.523 0 00-1.878 1.055L9.28 10.069h-.875c-.791 0-1.432.641-1.432 1.432v6.797l-4.32 15.408a1.523 1.523 0 001.055 1.878z"/><path fill="#00DFFC" d="M30.379 10.036L12.213 4.943a1.523 1.523 0 00-1.878 1.055L9.194 10.07h-.876c-.791 0-1.432.641-1.432 1.432v6.797l-.09.322 23.583-8.585z"/><g fill="#031326"><path d="M48.242 14.612a2.692 2.692 0 00-1.63-1.281l-2.399-.673v-1.157a2.62 2.62 0 00-2.617-2.617H30.748L12.619 3.801A2.713 2.713 0 009.28 5.678l-.899 3.206a2.62 2.62 0 00-2.594 2.617v6.634L1.511 33.387a2.695 2.695 0 00.246 2.057 2.685 2.685 0 001.63 1.281l2.399.673v1.157a2.62 2.62 0 002.617 2.618H19.25l18.129 5.082a1.184 1.184 0 00.64-2.283L24.85 40.281h17.947c.893 0 1.415-.219 1.415-1.139v-7.219l4.277-15.251a2.694 2.694 0 00-.247-2.06zM11.979 6.084l13.313 3.733h-14.71l.981-3.499a.337.337 0 01.416-.234zM4.028 34.442a.337.337 0 01-.203-.158c-.031-.057-.062-.145-.031-.257l2.844-10.145v11.292l-2.61-.732zm4.377 4.36a.246.246 0 01-.246-.246V11.501c0-.136.11-.246.246-.246h33.191c.135 0 .245.11.245.246l.002 27.297-33.438.004zm37.801-22.771l-2.889 10.304V14.871l2.655.744a.33.33 0 01.203.16.332.332 0 01.031.256z"/><path d="M33.239 17.979a.33.33 0 00-.472-.004l-6.385 6.385h9.03a.33.33 0 00.33-.337 9.362 9.362 0 00-2.503-6.044z"/><path d="M29.611 20.21a6.792 6.792 0 00-4.801-1.989c-3.725 0-6.79 3.065-6.79 6.79s3.065 6.79 6.79 6.79 6.79-3.065 6.79-6.79h-6.79l4.801-4.801z"/></g></svg>