<svg xmlns="http://www.w3.org/2000/svg" viewBox="0 0 50 50"><path fill="#bee367" d="M47.7 18.3l-2.6-6.4-8.3-3-4.2-1.4L2.1 18.6l4 9.6 8.2.1 1.4 2.2 32-11.7z"/><path fill="#d4ff73" d="M28 6l-8.4-.8L7 10.7l-4.9 7.9L32.6 7.5z"/><path fill="#031326" d="M49 23.7c-.5-.5-1.3-.5-1.8 0L43 27.8l-1.6-1.5c.1-.3.2-.6.2-1s-.1-.8-.3-1.1l6.2-4.8c.2 0 .4 0 .6-.1.6-.3 1-1 .7-1.6L46 10.8l-8.9-3.2-8.8-2.9-8.9-.8L6.1 9.7.7 18.4H.6l4.6 11h7.9c.2.1.3.2.5.2l3.2 5.2 8.4.8L37 46.1l-.3-10.9 6.5-1.1 1.2-4.1 4.6-4.5c.5-.5.5-1.3 0-1.8zm-2.6-5.2l-6.3 4.8c-.2-.1-.4-.1-.6-.1h-.1l-3.1-7.9c.2-.2.3-.4.3-.7l7.9-1 1.9 4.9zM30.6 33.3l-4.3-2.1 2.9-4.1 1.4 6.2zm-.1-9.1c0-.1 0 0 0 0zm-.6-2s-.1 0 0 0c-.1 0-.1 0 0 0-.5 0-.9.1-1.3.3L24.3 17c.1-.2.2-.5.2-.7L33 15c.1.2.2.4.4.5l-3.5 6.7zm-15.6 3.5h-.2l-1.6-9.4c.4-.2.8-.6 1-1l6.4.9c0 .5.2.9.4 1.2l-5.4 8.3h-.6zm7.2-7.4c.2.1.4.1.7.1.4 0 .8-.1 1.1-.3l4.3 5.5c-.1.2-.1.5-.2.7l-11.3 2.3 5.4-8.3zm13.3-2.2h.2l3.1 7.7-.3.3h-5.7c-.1-.5-.3-.9-.7-1.3-.1-.1-.1-.1-.2-.1l3.6-6.6zm1.5-6.1l6.6 2.4-6.5.8c-.3-.5-.9-.9-1.6-.9-.2 0-.4 0-.5.1l-4-4.3 6 1.9zm-8.9-2.9l5.7 6.1c0 .1-.1.1-.1.2l-8.8 1.4c-.4-.7-1.2-1.2-2-1.2l-2.3-7.2 7.5.7zm-6.6 7.1c-.2.2-.4.4-.5.6l-6.6-1c-.1-.2-.2-.5-.3-.7l5.3-6 2.1 7.1zm-13-2.6l7.7-3.3-3.5 4h-.4c-1.2 0-2.1.9-2.1 2.1L5 16.5l2.8-4.9zm2.1 4.2c0 .1.1.1.1.2.3.3.6.4.9.5l1.6 9.4-9.1-7.2 6.5-2.9zM7 27l-2.3-5.4 6.9 5.4H7zm11.4 5.5l-1.8-2.8 8 2.4.1 1.1-6.3-.7zm6.5-2l-.4-.2v.1l-8-2.3 11.3-2.3c.1.1.1.2.2.3l-3.1 4.4zm1.6 2.7h-.2v-.4l4.9 2.4 1.5 3.6-6.2-5.6zm5.9 1.2l-1.1-5 3 5 .1 4.5-2-4.5zm8.8-2.6l-1.6.3 1.9-1.4-.3 1.1zm-4.9.9l-1.2.2-3.9-6.5c.3-.2.5-.5.7-.7h5.6c.1 1 1 1.8 2.1 1.8.3 0 .5-.1.8-.2l1.4 1.3-5.5 4.1z"/></svg>