<svg xmlns="http://www.w3.org/2000/svg" id="Layer_1" x="0" y="0" version="1.1" viewBox="0 0 50 50" xml:space="preserve"><style>.st6{stroke-width:.25;fill:none;stroke:#444;stroke-miterlimit:10}</style><path fill="#fdcf72" d="M33.9 10l5.5 4.1 1.4 5.1L8.3 31.1l.6-10.3 4.4-7.7 10.4-4.8z"/><path fill="#fcc34f" d="M42.5 22.3l-.2 5.6-29.2 10.5-3.3-4.9-1.6-6.1 32.3-11.3.9 2.4z"/><path fill="none" stroke="#444" stroke-linecap="round" stroke-linejoin="round" stroke-miterlimit="10" stroke-width="2.5" d="M40.9 31.5c.7-1.8 1.2-3.6 1.3-5.5.2 0 .4-.2.5-.4.7.2 1.8.3 2.9.5 2.3.4 3-.7 3-1.2 0-.6-.7-1.6-3-1.2-1.1.2-2.1.4-2.9.5-.1-.2-.3-.4-.5-.4-.1-1.9-.6-3.7-1.3-5.5-.7-1.7-1.7-3.2-2.9-4.6.1-.2.2-.4.1-.6.6-.4 1.5-1 2.4-1.7 1.9-1.3 1.7-2.6 1.3-3-.4-.4-1.7-.6-3 1.3-.6 1-1.3 1.8-1.7 2.4-.2-.1-.5-.1-.6.1-1.4-1.2-2.9-2.2-4.6-2.9-1.8-.7-3.6-1.2-5.5-1.3 0-.2-.2-.4-.4-.5.2-.7.3-1.8.5-2.9.4-2.3-.7-3-1.2-3-.6 0-1.6.7-1.2 3 .2 1.1.4 2.1.5 2.9-.2.1-.4.3-.4.5-1.9.1-3.7.6-5.5 1.3-1.7.7-3.2 1.7-4.6 2.9-.2-.1-.4-.2-.6-.1-.4-.6-1-1.5-1.7-2.4-1.3-1.9-2.6-1.7-3-1.3-.4.4-.6 1.7 1.3 3 1 .6 1.8 1.3 2.4 1.7-.1.2-.1.5.1.6-1.2 1.4-2.2 2.9-2.9 4.6-.7 1.8-1.2 3.6-1.3 5.5-.2 0-.4.2-.5.4-.8-.2-1.8-.3-2.9-.6-2.3-.4-3 .7-3 1.2 0 .6.7 1.6 3 1.2 1.1-.2 2.1-.4 2.9-.5 0 .3.2.5.4.5.1 1.9.6 3.7 1.3 5.5.7 1.7 1.7 3.2 2.9 4.6-.1.2-.2.4-.1.6-.6.4-1.5 1-2.4 1.7-1.9 1.3-1.7 2.6-1.3 3 .4.4 1.7.6 3-1.3.6-1 1.3-1.8 1.7-2.4.2.1.5.1.6-.1 1.4 1.2 2.9 2.2 4.6 2.9 1.8.7 3.6 1.2 5.5 1.3 0 .2.2.4.4.5-.2.7-.3 1.8-.5 2.9-.4 2.3.7 3 1.2 3 .6 0 1.6-.7 1.2-3-.2-1.1-.4-2.1-.5-2.9.2-.1.4-.3.4-.5 1.9-.1 3.7-.6 5.5-1.3.8-.3 1.5-.7 2.2-1.1"/><path fill="#444" d="M22 25.6c.4 0 .8 0 1.2.1.1.4.4.8.8 1l-4.3 8.7c-2.6-1.3-3.7-4.4-2.4-7 .4-.9 1.1-1.6 1.9-2.1.8-.4 1.8-.7 2.8-.7m0-1c-1.2 0-2.3.3-3.3.9-1 .6-1.7 1.5-2.3 2.5-1.5 3.1-.2 6.8 2.8 8.3.1.1.3.1.4.1.4 0 .7-.2.9-.5l4.3-8.7c.2-.4.1-.9-.3-1.2-.2-.1-.3-.3-.4-.5-.1-.3-.4-.5-.7-.6-.4-.2-.9-.3-1.4-.3zm8.9-10.3c1.7.8 2.8 2.4 3 4.1.1.9 0 1.9-.4 2.8-.9 1.9-2.8 3-4.7 3-.6 0-1.1-.1-1.7-.3-.1-.2-.2-.3-.4-.5l4.2-9.1m0-1c-.4 0-.7.2-.9.6l-4.3 9.2c-.2.4-.1.8.2 1.1.1.1.1.2.2.3.1.2.3.4.5.4.6.2 1.3.3 2 .3 2.4 0 4.6-1.4 5.6-3.6.5-1 .7-2.2.5-3.3-.3-2.1-1.6-4-3.5-4.9 0 0-.1-.1-.3-.1zm-11.4 3c.8 0 1.5.2 2.3.5.9.4 1.6 1.1 2.1 1.9.8 1.3 1 2.8.6 4.3-.3.1-.6.3-.8.5l-8.8-4.3c.9-1.9 2.7-2.9 4.6-2.9m0-1c-2.4 0-4.5 1.4-5.6 3.5-.2.5 0 1 .4 1.3l8.8 4.3c.1.1.3.1.4.1.3 0 .5-.1.7-.3.1-.1.3-.2.4-.3.3-.1.5-.3.6-.6.5-1.7.3-3.6-.7-5.1-.6-1-1.5-1.7-2.5-2.3-.6-.4-1.5-.6-2.5-.6zm7.4 10.9l9.1 4.2c-.8 1.7-2.4 2.8-4.1 3h-.6c-.7 0-1.5-.2-2.2-.5a5.1 5.1 0 01-2.8-6.1c.3-.1.5-.3.6-.6m0-.9c-.3 0-.6.2-.8.4l-.3.3c-.2.1-.4.3-.4.6-.8 2.9.6 6 3.3 7.3.8.4 1.7.6 2.6.6h.7c2.1-.3 4-1.6 4.9-3.5.1-.2.1-.5 0-.7s-.3-.4-.5-.5l-9.1-4.2c-.1-.3-.2-.3-.4-.3z"/><circle cx="25.2" cy="24.9" r="1.5" fill="none" stroke="#444" stroke-linecap="round" stroke-linejoin="round" stroke-miterlimit="10"/><circle cx="25.2" cy="24.9" r="14.2" class="st6"/><path d="M29.1 17.1c-1.1-.6-2.4-.9-3.8-.9-.9 0-1.8.1-2.6.4m10.4 11.8c.5-1.1.7-2.2.7-3.5 0-.9-.1-1.8-.4-2.6M21.6 32.7c1.1.5 2.4.8 3.7.8 1.1 0 2.1-.2 3.1-.6M17.5 21.2c-.5 1.1-.8 2.4-.8 3.7 0 1.1.2 2.1.5 3" class="st6"/><path fill="none" stroke="#444" stroke-linecap="round" stroke-miterlimit="10" d="M41.1 30.9c1.1-2.4.2-3.2.2-6C41.2 16 34 8.8 25.1 8.8S9 16 9 24.9 16.2 41 25.1 41c3.4 0 6.3-.3 8.9-2.1"/><path fill="none" stroke="#444" stroke-miterlimit="10" d="M1.9 24.9h14.7m32 0H33.9M25.3 1v15.3m-.1 32.3V33.5M8.8 41.4l6.4-6.4M8.8 8.4l6.4 6.4m26.5-6.4l-6.4 6.5"/></svg>