<svg xmlns="http://www.w3.org/2000/svg" id="Camada_1" x="0" y="0" version="1.1" viewBox="0 0 50 50" xml:space="preserve"><style>.st2{stroke-width:2.5}.st2,.st3{fill:none;stroke:#494949;stroke-linecap:round;stroke-linejoin:round;stroke-miterlimit:10}</style><path fill="#fcc34f" d="M39.9 2.5L21.4 9.3c-.2.2-.4.4-.7.5l-.1.1c-.8.9-1.5 1.9-2.4 2.7 0 0-.1 0-.1.1-.4.7-.8 1.4-1.5 1.9-.5.3-1.1.2-1.5-.2-.7-.7-1.3-1.4-1.9-2.1L2.5 16.1v5.7c.4 0 .7.1 1 .3 1.8 2.1 4.1 3.7 5.9 5.8.9 1 1.7 2.1 2.6 3.1.6.7 1.5 1.5 1.8 2.4.3 1 .1 1.9-.5 2.7L43.7 25c-1.1-1.1-1.7-2.7-2.8-3.8-1.3-1.2-4-2.3-4.5-4.2-1.1.8-2.5-.8-1.5-1.9 1.7-1.9 3.6-3.6 5.6-5.2.2-.3.4-.7.6-1 1-1.7 2.2-3.9 4.3-4.6v-2h-5.5z"/><path fill="#fdcf72" d="M28.3 2.5c-.6 1.2-2.1 2.1-3.2 2.8-.5.6-.9 1.2-1.4 1.7-.9 1-1.8 1.9-2.9 2.7l-.1.1c-.8.9-1.5 1.9-2.4 2.7 0 0-.1 0-.1.1-.4.7-.8 1.4-1.5 1.9-.5.3-1.1.2-1.5-.2-1.6-1.5-2.7-3.3-4.2-4.8-1.4-1.2-3-2.2-4.1-3.8H6V4.5H2.5v17.3c.4 0 .7.1 1 .3.3.3.5.6.8.9l36.2-13 .6-.9c1-1.7 2.2-3.9 4.3-4.6v-2H28.3z"/><path d="M25.1 25.1l-8.5 8.5c-.5.5-1.4.5-2 0L6.1 25l-2.2-2.2c-.6-.6-.9-1.4-.9-2.2L2.7 6.3c0-1.4 1.6-2.1 2.6-1.1l7.1 7.1 12.7 12.8z" class="st2"/><path d="M15.3 25H6.1m19 .1l-5.9-.1" class="st3"/><path d="M34 16.1L25 25l-8.5-8.5c-.5-.5-.5-1.4 0-2L25.1 6l2.2-2.2c.6-.6 1.3-.9 2.1-.9l14.2-.3c1.4 0 2.1 1.6 1.1 2.6l-7.1 7.1-.6.8" class="st2"/><path d="M25 25l.1-19" class="st3"/><path d="M25 25l8.5-8.5c.5-.5 1.4-.5 2 0l8.6 8.6 2.2 2.2c.6.6.9 1.3.9 2.1l.3 14.2c0 1.4-1.6 2.1-2.6 1.1l-7.1-7.1L25 25z" class="st2"/><path d="M25 25l19 .1" class="st3"/><path d="M25.1 25.1l8.5 8.5c.5.5.5 1.4 0 2L25 44l-2.2 2.2c-.6.6-1.3.9-2.1.9l-14.3.4c-1.4 0-2.1-1.6-1.1-2.6l7.1-7.1 12.7-12.7z" class="st2"/><path d="M25.1 25.1L25 44" class="st3"/></svg>