<svg xmlns="http://www.w3.org/2000/svg" version="1" viewBox="0 0 50 50"><path fill="#FCC34F" d="M15.636 38.761c3.622 0 6.907-1.41 9.364-3.697.81.754 1.717 1.401 2.689 1.945l19.52-7.105c.583-1.525.916-3.174.916-4.904 0-7.6-6.161-13.761-13.761-13.761-3.622 0-6.907 1.41-9.364 3.697a13.693 13.693 0 00-9.364-3.697C8.036 11.239 1.875 17.4 1.875 25s6.161 13.761 13.761 13.761z"/><path fill="#FDCF72" d="M34.749 11.265c-.171-.006-.339-.026-.512-.026-3.547 0-6.766 1.358-9.206 3.563l9.718-3.537zm-9.939 3.618c-2.45-2.254-5.709-3.643-9.301-3.643-6.999 0-12.764 5.229-13.634 11.991l22.935-8.348z"/><g fill="#031326"><path d="M34.364 9.989c-3.42 0-6.704 1.163-9.364 3.296a14.934 14.934 0 00-9.364-3.296C7.359 9.989.625 16.723.625 25s6.734 15.011 15.011 15.011c3.419 0 6.704-1.163 9.364-3.296a14.932 14.932 0 009.364 3.296 1.25 1.25 0 000-2.5c-3.16 0-6.184-1.194-8.513-3.362L25 33.355l-.015.014A12.613 12.613 0 0121.789 25c0-3.092 1.154-6.078 3.196-8.37l.015.015.852-.793a12.461 12.461 0 018.513-3.362c6.898 0 12.511 5.612 12.511 12.511 0 1.538-.275 3.04-.819 4.463a1.25 1.25 0 102.336.892c.652-1.71.983-3.512.983-5.355-.001-8.278-6.734-15.012-15.012-15.012zm-10.487 24.39c-2.292 2.016-5.2 3.132-8.241 3.132-6.899 0-12.511-5.613-12.511-12.511s5.612-12.511 12.511-12.511c3.041 0 5.949 1.115 8.24 3.132A14.115 14.115 0 0020.288 25a14.123 14.123 0 003.589 9.379z"/><path d="M39.614 23.794H35.59v-4.207a.574.574 0 00-.574-.574h-1.303a.574.574 0 00-.574.574v4.207h-4.025a.574.574 0 00-.574.574v1.221c0 .317.257.574.574.574h4.025v4.249c0 .317.257.574.574.574h1.303a.574.574 0 00.574-.574v-4.249h4.023a.574.574 0 00.574-.574v-1.221a.573.573 0 00-.573-.574zm-21.465-.029h-5.027a.574.574 0 00-.574.574v1.322c0 .317.257.574.574.574h5.027a.574.574 0 00.574-.574v-1.322a.573.573 0 00-.574-.574z"/></g></svg>