<svg xmlns="http://www.w3.org/2000/svg" viewBox="0 0 50 50"><path fill="#e589ef" d="M35.66 3.52L15.6 2.54c-1.4 0-3.24 4.72-3.24 6.12l-.18 12.69c-3.42 1.26-2.15 6.64-1.46 7.59l1.73 2.4-.09 12.78c.05.96 1.53 2.57 2.49 2.64l8.78.63 15.11-5.38.34-11.04c0-.04 1.37-3.63 2.16-5.73.36-.95-1.95-3.89-2.15-4.89l-.9-14.09v-.21c0-1.4-1.14-2.53-2.53-2.53z"/><path fill="none" stroke="#444" stroke-linecap="round" stroke-linejoin="round" stroke-miterlimit="10" d="M23.85 16.15c-.58-2.92-2.72-4.91-4.79-4.45-2.07.46-3.28 3.2-2.7 6.12s2.72 4.91 4.79 4.45c2.07-.46 3.28-3.2 2.7-6.12zm14.56 5.82c-1.74-.56-3.73.89-4.44 3.24-.71 2.35.13 4.71 1.87 5.27 1.74.56 3.73-.89 4.44-3.24.71-2.34-.12-4.7-1.87-5.27zm-25.92 0c1.74-.56 3.73.89 4.44 3.24.71 2.35-.13 4.71-1.87 5.27-1.74.56-3.73-.89-4.44-3.24-.71-2.34.13-4.7 1.87-5.27zm14.57-5.82c.58-2.92 2.72-4.91 4.79-4.45 2.07.46 3.28 3.2 2.7 6.12s-2.72 4.91-4.79 4.45c-2.07-.46-3.28-3.2-2.7-6.12zm-1.61 24.68c.94 0 4.38.97 5.6.97 2.55 0 4.62-2.07 4.62-4.62 0-.81 0-2.19-1.46-3.71l-4.87-5.84c-.97-1.22-2.43-1.88-3.89-1.88s-2.92.67-3.89 1.88l-4.87 5.84c-1.46 1.52-1.46 2.9-1.46 3.71 0 2.55 2.07 4.62 4.62 4.62 1.22 0 4.66-.97 5.6-.97z"/><path fill="none" stroke="#444" stroke-linecap="round" stroke-linejoin="round" stroke-miterlimit="10" stroke-width="2.5" d="M28.02 47.53H17.19a4.89 4.89 0 01-4.89-4.89V30.77s-2.77-1.02-2.77-5.04 2.91-4.65 2.91-4.65L12.3 8.24c0-2.7 2.19-4.89 4.89-4.89h16.64c2.7 0 4.89 2.19 4.89 4.89v12.93s2.79.48 2.61 4.5-2.61 5.16-2.61 5.16v11.49"/><path fill="none" stroke="#444" stroke-linecap="round" stroke-linejoin="round" stroke-miterlimit="10" stroke-width=".5" d="M29.16 6.95h-7.29c-.81 0-1.47-.66-1.47-1.47V3.46h10.23v2.02c0 .81-.66 1.47-1.47 1.47z"/></svg>