<svg xmlns="http://www.w3.org/2000/svg" id="Layer_1" x="0" y="0" version="1.1" viewBox="0 0 50 50" xml:space="preserve"><style>.st4{fill:none;stroke:#444;stroke-miterlimit:10}</style><path fill="#a475ef" d="M36.95 3.52l-20.06-.98c-1.4 0-3.24 4.72-3.24 6.12l-.27 11.64c-3.42 1.26-2.25 5.11-1.56 6.06l1.92 3.54-.09 14.22c.05.96 1.53 2.57 2.49 2.64l8.78.63 15.11-5.38.34-12.48c0-.04-.09-1.53.91-3.54 2.76-5.58-.7-4.64-.9-5.64l-.9-14.09v-.21c0-1.4-1.13-2.53-2.53-2.53z"/><g fill="none" stroke="#444" stroke-linecap="round" stroke-linejoin="round" stroke-miterlimit="10"><path stroke-width="2.5" d="M29.31 47.53H18.49a4.89 4.89 0 01-4.89-4.89V30.55l-1.12-3.6s-1.98.18-1.98-3.72c0-4.38 3.24-3.09 3.24-3.09l-.14-11.9c0-2.7 2.19-4.89 4.89-4.89h16.64c2.7 0 4.89 2.19 4.89 4.89V20s3.24-.42 3.24 2.82c0 3.84-2.34 3.78-2.34 3.78l-.9 3.3v12.42"/><path stroke-width=".5" d="M30.45 6.95h-7.29c-.81 0-1.47-.66-1.47-1.47V3.46h10.23v2.02c0 .81-.66 1.47-1.47 1.47z"/></g><path d="M34.97 41.53H18.72c-1.07 0-1.97-.79-2.11-1.84l-3.05-14.1h26.57l-3.06 14.1a2.1 2.1 0 01-2.1 1.84z" class="st4"/><path fill="none" stroke="#444" stroke-linecap="round" stroke-miterlimit="10" stroke-width=".5" d="M33.49 28.91v9.3m-4.43-9.3v9.3m-4.42-9.3v9.3m-4.43-9.3v9.3"/><path d="M34.44 12.71c-.11-.42-.38-.77-.74-.98l-.92-.54a1.59 1.59 0 00-2.17.58l-5.86 10.2c-.21.37-.27.8-.16 1.22.11.42.38.77.74.98l.92.54a1.59 1.59 0 002.17-.59l5.86-10.2c.21-.37.27-.8.16-1.21z" class="st4"/><path d="M25.16 20.94H12.62c-.58 0-1.05.52-1.05 1.16v2.33c0 .64.47 1.16 1.05 1.16h28.45c.58 0 1.05-.52 1.05-1.16V22.1c0-.64-.47-1.16-1.05-1.16H30.09" class="st4"/><circle cx="26.85" cy="22.27" r=".83" fill="#444"/></svg>