<svg xmlns="http://www.w3.org/2000/svg" id="Camada_3" x="0" y="0" version="1.1" viewBox="0 0 50 50" xml:space="preserve"><style>.st2{fill:none;stroke:#444;stroke-width:.5;stroke-linecap:round;stroke-linejoin:round;stroke-miterlimit:10}.st3{fill:#444}</style><path fill="#fcc34f" d="M45.6 2.6H4.5C3.1 2.6 3 6.5 3 7.9l-.1 16.9L2.3 35l1.2 11.8 12.5.6L48.1 36V5.2c0-1.4-1.1-2.6-2.5-2.6z"/><path fill="none" stroke="#444" stroke-linecap="round" stroke-linejoin="round" stroke-miterlimit="10" stroke-width="2.5" d="M36.8 48.1H5.9c-1.9 0-3.4-1.6-3.4-3.5v-39c0-1.9 1.5-3.5 3.4-3.5h39c1.9 0 3.4 1.6 3.4 3.5v32.5"/><path d="M21.6 20.1c.8 0 1.5-.7 1.5-1.5v-1.2c0-.8-.7-1.5-1.5-1.5s-1.5.7-1.5 1.5v1.2c-.1.8.6 1.5 1.5 1.5zm-8.3 0c.8 0 1.5-.7 1.5-1.5v-1.2c0-.8-.7-1.5-1.5-1.5s-1.5.7-1.5 1.5v1.2c0 .8.7 1.5 1.5 1.5zm5-4.2V20m6.9 6c.8 0 1.5-.7 1.5-1.5v-1.2c0-.8-.7-1.5-1.5-1.5s-1.5.7-1.5 1.5v1.2c0 .9.7 1.5 1.5 1.5zm-6.6 0c.8 0 1.5-.7 1.5-1.5v-1.2c0-.8-.7-1.5-1.5-1.5s-1.5.7-1.5 1.5v1.2c0 .9.7 1.5 1.5 1.5zm-4.7 0c.8 0 1.5-.7 1.5-1.5v-1.2c0-.8-.7-1.5-1.5-1.5s-1.5.7-1.5 1.5v1.2c0 .9.7 1.5 1.5 1.5zm8-4.1V26M25 15.9V20m1.7-4.1V20m-10-4.1V20m.2 11.8c-.8 0-1.5-.7-1.5-1.5v-1.2c0-.8.7-1.5 1.5-1.5s1.5.7 1.5 1.5v1.2c0 .8-.7 1.5-1.5 1.5zm8.4 0c-.8 0-1.5-.7-1.5-1.5v-1.2c0-.8.7-1.5 1.5-1.5s1.5.7 1.5 1.5v1.2c-.1.8-.7 1.5-1.5 1.5zm-5-4.3v4.2m-7.1 6c-.8 0-1.5-.7-1.5-1.5V35c0-.8.7-1.5 1.5-1.5s1.5.7 1.5 1.5v1.2c.1.9-.6 1.5-1.5 1.5zm6.6 0c-.8 0-1.5-.7-1.5-1.5V35c0-.8.7-1.5 1.5-1.5s1.5.7 1.5 1.5v1.2c.1.9-.6 1.5-1.5 1.5zm4.9 0c-.8 0-1.5-.7-1.5-1.5V35c0-.8.7-1.5 1.5-1.5s1.5.7 1.5 1.5v1.2c0 .9-.7 1.5-1.5 1.5zm-8.2-4.1v4.1m-3-10.2v4.2m-1.8-4.2v4.2m10.2-4.2v4.2" class="st2"/><path d="M8.6 48.2c.3 0 .6-.3.6-.6V13.1h20.1V37c0 .3.3-.2.6-.2s.6-.3.6-.6V12.6c0-.3-.3-.6-.6-.6H8.6c-.4 0-.6.2-.6.6v35.1c0 .2.2.5.6.5zm21.2 0c.3 0 .6-.3.6-.6V43c0-.3-.3-.6-.6-.6s-.6-1-.6-.7v5.9c.1.3.3.6.6.6z" class="st3"/><path d="M20.6 47.6V43c0-.8-.6-1.4-1.4-1.4-.8 0-1.4.6-1.4 1.4v4.6m21.7-12.9c.6-.5 1-1.2 1-2 0-1.4-1.1-2.5-2.5-2.5-.3 0-.7.1-1 .2.1-.2.1-.5.1-.8 0-1.2-1-2.2-2.2-2.2-1.2 0-2.2 1-2.2 2.2 0 .5.2 1 .5 1.4H33c-1.6 0-2.9 1.3-2.9 2.9 0 .8.3 1.6.9 2.1-1.4.5-2.4 1.9-2.4 3.5 0 2.1 1.7 3.8 3.8 3.8 1.4 0 2.5-.8 3.1-2 .7.7 1.9 1.1 3 1.1 2.2 0 3.9-1.8 3.9-3.9-.1-1.9-1.3-3.4-2.9-3.8zm-4.1 4.6l-2.9-1.5m2.9 9.8V31.8" class="st2"/><path d="M37.5 33.3l-2.1 1.2-2.2-1.2m2.2 6l3.2-1.4M14.8 12.6V9.9c0-.6.5-1.2 1.2-1.2h6.4c.6 0 1.2.5 1.2 1.2v2.7" class="st2"/><path d="M18.7 4.7h1v4h-1z" class="st3"/><circle cx="19.2" cy="5.2" r=".9" class="st3"/></svg>