<svg xmlns="http://www.w3.org/2000/svg" id="Camada_3" x="0" y="0" version="1.1" viewBox="0 0 50 50" xml:space="preserve"><style>.st2,.st3{fill:none;stroke:#444;stroke-miterlimit:10}.st3{stroke-width:.5}.st4{fill:#444}</style><path fill="#00dffc" d="M44.87 12.6l-5.63-3.59-7.67-4.43-5.97-2.83c-3.2 0-21.45 8.94-21.45 12.14l-.53 7.8.53 15.13 11.5 7.56 31.02-11.04c.74-.43-.81-18.75-1.8-20.74z"/><path fill="none" stroke="#444" stroke-linecap="round" stroke-linejoin="round" stroke-miterlimit="10" stroke-width="2.5" d="M30.13 46.65l-2.2 1.27c-1.69.98-3.78.98-5.47 0L6.89 38.93a5.48 5.48 0 01-2.74-4.74V16.21a5.46 5.46 0 012.74-4.74l15.57-8.99c1.69-.98 3.78-.98 5.47 0l15.57 8.99a5.48 5.48 0 012.74 4.74v17.98a5.46 5.46 0 01-2.74 4.74l-2.46 1.42"/><path d="M20.67 19.71h-1.23c-.09 0-.16-.07-.17-.16-.11-1.97-1.73-3.53-3.72-3.53s-3.62 1.56-3.72 3.53c-.01.09-.08.16-.17.16h-1.23c-.88 0-1.6.72-1.6 1.6v4.48c0 .88.72 1.6 1.6 1.6h10.24c.88 0 1.6-.72 1.6-1.6v-4.48c0-.88-.72-1.6-1.6-1.6zm19.11 4.05h-8.01c-1.04 0-1.89-.85-1.89-1.89v-4.59c0-1.04.85-1.89 1.89-1.89h8.01c1.04 0 1.89.85 1.89 1.89v4.59c0 1.04-.85 1.89-1.89 1.89zM34.6 40.95H17.77a3.73 3.73 0 010-7.46H34.6a3.73 3.73 0 013.73 3.73 3.717 3.717 0 01-3.73 3.73z" class="st2"/><path d="M15.3 27.63v.63c0 1.09.89 1.98 1.98 1.98h8.73v3.15M36 23.4v5.05c0 .99-.89 1.79-1.98 1.79h-8.01" class="st3"/><circle cx="22.09" cy="11.2" r="3.91" class="st2"/><path d="M15.55 16.02v-3.55c0-.87.73-1.58 1.63-1.58h.55m8.28.31h8.49c.68 0 1.23.57 1.23 1.28v2.72" class="st3"/><path d="M39.33 18.9h-7.2c-.4 0-.72-.32-.72-.72 0-.4.32-.72.72-.72h7.2c.4 0 .72.32.72.72 0 .4-.32.72-.72.72z" class="st4"/><circle cx="15.57" cy="19.8" r="2.43" class="st4"/><path fill="none" stroke="#444" stroke-linecap="round" stroke-linejoin="round" stroke-miterlimit="10" stroke-width=".5" d="M17.28 35.64h3.69m-3.69 1.76h18.49m-18.49 1.48h17.64"/></svg>