<svg xmlns="http://www.w3.org/2000/svg" id="Layer_1" x="0" y="0" version="1.1" viewBox="0 0 50 50" xml:space="preserve"><style>.st4{fill:none;stroke:#444;stroke-miterlimit:10}</style><path fill="#e589ef" d="M34.3 2L13.1 1c-1.5 0-3.4 5-3.4 6.5l-.3 12.2C5.8 21 7 25.1 7.7 26.1l2 3.7-.1 15c.1 1 1.6 2.7 2.6 2.8l9.3.7 16-5.7.4-13.2s-.1-1.6 1-3.7c2.9-5.9-.7-4.9-1-6L37 4.9v-.2C37 3.2 35.8 2 34.3 2z"/><g fill="none" stroke="#444" stroke-linecap="round" stroke-linejoin="round" stroke-miterlimit="10"><path stroke-width="2.5" d="M26.2 48.5H14.8c-2.9 0-5.2-2.3-5.2-5.2V30.5l-1.2-3.8s-2.1.2-2.1-3.9c0-4.6 3.4-3.3 3.4-3.3L9.6 7c0-2.9 2.3-5.2 5.2-5.2h17.6c2.9 0 5.2 2.3 5.2 5.2v12.4s3.4-.4 3.4 3c0 4.1-2.5 4-2.5 4l-1 3.5V43"/><path stroke-width=".5" d="M27.4 5.6h-7.7c-.9 0-1.6-.7-1.6-1.6V1.9H29V4c0 .9-.7 1.6-1.6 1.6z"/></g><path d="M32.2 42.1H15c-1.1 0-2.1-.8-2.2-1.9L9.6 25.3h28.1l-3.2 14.9c-.2 1.1-1.2 1.9-2.3 1.9z" class="st4"/><path fill="none" stroke="#444" stroke-linecap="round" stroke-miterlimit="10" stroke-width=".5" d="M30.6 28.8v9.8M26 28.8v9.8m-4.7-9.8v9.8m-4.7-9.8v9.8"/><path d="M31.6 11.7c-.1-.4-.4-.8-.8-1l-1-.6c-.8-.5-1.8-.2-2.3.6l-6.2 10.8c-.2.4-.3.8-.2 1.3.1.4.4.8.8 1l1 .6c.3.1.5.2.8.2.6 0 1.2-.3 1.5-.8L31.5 13c.2-.4.3-.9.1-1.3z" class="st4"/><path d="M21.8 20.4H8.6c-.6 0-1.1.5-1.1 1.2v2.5c0 .7.5 1.2 1.1 1.2h30c.6 0 1.1-.5 1.1-1.2v-2.5c0-.7-.5-1.2-1.1-1.2H27" class="st4"/><circle cx="23.6" cy="21.8" r=".9" fill="#444"/></svg>