<svg xmlns="http://www.w3.org/2000/svg" id="Layer_1" x="0" y="0" version="1.1" viewBox="0 0 50 50" xml:space="preserve"><style>.st2,.st3{fill:none;stroke:#444;stroke-miterlimit:10}.st3{stroke-width:.5}.st4{fill:#444}</style><path fill="#a475ef" d="M44.51 12.41l-5.63-3.59-7.66-4.42-5.97-2.84C22.05 1.56 3.8 10.5 3.8 13.7l-.53 7.8.53 15.13 11.5 7.56 31.02-11.04c.73-.42-.82-18.75-1.81-20.74z"/><path fill="none" stroke="#444" stroke-linecap="round" stroke-linejoin="round" stroke-miterlimit="10" stroke-width="2.5" d="M29.77 46.47l-2.2 1.27c-1.69.98-3.78.98-5.47 0L6.53 38.75a5.48 5.48 0 01-2.74-4.74V16.03a5.46 5.46 0 012.74-4.74L22.1 2.3c1.69-.98 3.78-.98 5.47 0l15.57 8.99a5.48 5.48 0 012.74 4.74v17.98a5.46 5.46 0 01-2.74 4.74l-2.46 1.42"/><path d="M20.31 19.53h-1.23c-.09 0-.16-.07-.17-.16-.11-1.97-1.73-3.53-3.72-3.53s-3.62 1.56-3.72 3.53c-.01.09-.08.16-.17.16h-1.23c-.88 0-1.6.72-1.6 1.6v4.48c0 .88.72 1.6 1.6 1.6h10.24c.88 0 1.6-.72 1.6-1.6v-4.48c0-.89-.72-1.6-1.6-1.6zm19.11 4.05h-8.01c-1.04 0-1.89-.85-1.89-1.89V17.1c0-1.04.85-1.89 1.89-1.89h8.01c1.04 0 1.89.85 1.89 1.89v4.59c0 1.04-.85 1.89-1.89 1.89zm-5.18 17.19H17.41a3.73 3.73 0 010-7.46h16.83a3.73 3.73 0 013.73 3.73c.01 2.05-1.66 3.73-3.73 3.73z" class="st2"/><path d="M14.94 27.45v.63c0 1.09.89 1.98 1.98 1.98h8.73v3.15m9.99-9.99v5.05c0 .99-.89 1.79-1.98 1.79h-8.01" class="st3"/><circle cx="21.73" cy="11.02" r="3.91" class="st2"/><path d="M15.19 15.84v-3.55c0-.87.73-1.58 1.63-1.58h.55m8.28.31h8.49c.68 0 1.23.57 1.23 1.28v2.72" class="st3"/><path d="M38.97 18.72h-7.2c-.4 0-.72-.32-.72-.72 0-.4.32-.72.72-.72h7.2c.4 0 .72.32.72.72 0 .39-.32.72-.72.72z" class="st4"/><circle cx="15.21" cy="19.62" r="2.43" class="st4"/><path fill="none" stroke="#444" stroke-linecap="round" stroke-linejoin="round" stroke-miterlimit="10" stroke-width=".5" d="M16.92 35.46h3.69m-3.69 1.75h18.49M16.92 38.7h17.64"/></svg>