<svg xmlns="http://www.w3.org/2000/svg" id="Layer_1" x="0" y="0" version="1.1" viewBox="0 0 50 50" xml:space="preserve"><style>.st3{fill:none;stroke:#031326;stroke-width:1.5;stroke-linecap:round;stroke-linejoin:round;stroke-miterlimit:10}</style><path fill="#a475ef" d="M47.5 26.4l.4 4.3L2.1 47.4l.1-9 .3-5.2 45.7-16.6-.7 3.7z"/><path fill="#bf94f7" d="M47.5 10l-.5 7.6L2.2 33.9v-9.7l.3-4.4L47.6 3.4z"/><path fill="none" stroke="#031326" stroke-linecap="round" stroke-linejoin="round" stroke-miterlimit="10" stroke-width="2.5" d="M32.9 48.2H1.8V2.1h46.4v35.7"/><path d="M20 23.7c-1.9 1.1-2.6 3.6-1.5 5.5.5.9 1.4 1.6 2.5 1.9m-8.3-6.3c1.3 1.5 3.3 2.4 5.3 2.4" class="st3"/><path d="M26 14c0-2.2-1.8-4-4-4-1.9 0-3.5 1.2-3.9 3H18c-3.9 0-7.1 3.2-7.1 7.1 0 1.7.6 3.4 1.8 4.7-1.9 1.2-2.4 3.7-1.2 5.6.2.3.4.5.7.8-1.1 3.7 1 7.7 4.7 8.8 3.7 1.1 7.7-1 8.8-4.7.2-.7.3-1.4.3-2.1h4l2.6 2.6" class="st3"/><path d="M32.1 28.7H26v-3.6m9.1-3.5H26v-4h4.1l2.6-2.7" class="st3"/><circle cx="34.1" cy="13.5" r="2" class="st3"/><circle cx="34.1" cy="37.3" r="2" class="st3"/><circle cx="37.2" cy="21.6" r="2" class="st3"/><circle cx="34.1" cy="28.7" r="2" class="st3"/></svg>