<svg xmlns="http://www.w3.org/2000/svg" version="1" viewBox="0 0 50 50"><path fill="#E56060" d="M3.086 38.358l7.26 1.28 35.973-13.093 1.964-11.139a1.688 1.688 0 00-1.37-1.956L8.667 6.706a1.688 1.688 0 00-1.956 1.37L1.717 36.402a1.688 1.688 0 001.369 1.956z"/><path fill="#FF6B6B" d="M32.159 10.811L8.88 6.706a1.688 1.688 0 00-1.956 1.37L4.678 20.813l27.481-10.002z"/><path fill="#031326" d="M47.097 12.41L8.85 5.667a2.746 2.746 0 00-3.178 2.225L.677 36.218a2.749 2.749 0 002.226 3.179l28.141 4.962a1.055 1.055 0 00.367-2.079l-8.395-1.48 1.102-6.25 3.533.623 8.314 1.466 8.314 1.466a.628.628 0 00.683-.375c.235-.153.412-.394.466-.692l3.894-21.449a2.747 2.747 0 00-2.225-3.179zM20.181 32.57l3.893-22.076 7.067 1.246-1.91 10.83-1.983 11.246-7.067-1.246zm-8.314-1.465l1.873-10.623 7.067 1.246-1.873 10.622-7.067-1.245zm9.16-10.624l-7.067-1.246 1.799-10.206 7.067 1.246-1.799 10.206zm9.341 2.933l7.067 1.246-1.873 10.622-7.067-1.246 1.873-10.622zm7.287-.002l-7.067-1.246 1.8-10.206 7.067 1.246-1.8 10.206zM7.751 8.259a.633.633 0 01.733-.514l6.028 1.063-3.892 22.077-6.652-1.173L7.751 8.259zM21.769 40.58L3.27 37.319a.635.635 0 01-.514-.735l.992-5.626 15.589 2.749h.001l3.533.623-1.102 6.25zm21.584-3.924l-6.543-1.154 3.893-22.076 6.028 1.063c.344.061.575.39.515.728l-3.893 21.439z"/></svg>