<svg xmlns="http://www.w3.org/2000/svg" id="Camada_1" x="0" y="0" version="1.1" viewBox="0 0 50 50" xml:space="preserve"><style>.st4{fill:none;stroke:#494949;stroke-linecap:round;stroke-linejoin:round}</style><path fill="#afe55d" d="M6.5 38.3l5.7 3.3L45.9 23l-.1-7.3c0-1.6-.9-3.2-2.3-4L27.3 2.3c-1.4-.8-3.2-.8-4.6 0L6.5 11.7c-1.4.8-2.3 2.3-2.3 4v18.7c0 1.6.9 3.1 2.3 3.9z"/><path fill="#c3ff68" d="M33.8 6.2l-6.6-3.8c-1.4-.8-3.2-.8-4.6 0L6.5 11.7c-1.4.8-2.3 2.3-2.3 4l-.3 7.9L33.8 6.2z"/><path fill="#444" d="M25 49.5c-1 0-2-.3-2.9-.8L5.9 39.4c-1.8-1-2.9-3-2.9-5V15.6c0-2.1 1.1-4 2.9-5l16.2-9.4c1.8-1 4-1 5.8 0l16.2 9.4c1.8 1 2.9 3 2.9 5v13.7c0 .7-.6 1.2-1.2 1.2s-1.2-.6-1.2-1.2V15.6c0-1.2-.6-2.3-1.7-2.9L26.7 3.4c-1-.6-2.3-.6-3.4 0L7.1 12.7c-1 .6-1.7 1.7-1.7 2.9v18.7c0 1.2.6 2.3 1.7 2.9l16.2 9.4c1 .6 2.3.6 3.4 0l4.5-2.6c.6-.3 1.3-.1 1.7.5.3.6.1 1.3-.5 1.7l-4.5 2.6c-.9.5-1.9.7-2.9.7z"/><path fill="none" stroke="#494949" stroke-linecap="round" stroke-linejoin="round" stroke-miterlimit="10" d="M31.8 36.1H12.5c-2.4 0-4.3-2.1-4.3-4.5 0-2.2 1.5-4.1 3.5-4.5 0-4.1 3.2-7.4 7.1-7.4 2.6 0 4.9 1.5 6.1 3.8.7-.5 1.4-.7 2.3-.7 2.3 0 4.1 1.9 4.1 4.3h.3c2.4 0 4.3 2.1 4.3 4.5s-1.8 4.5-4.1 4.5z"/><path fill="none" stroke="#494949" stroke-dasharray="9.721036e-02,1.9442" stroke-linecap="round" stroke-linejoin="round" d="M37.3 27.5h.6c1.5 0 3.9-1.6 3.9-3.9 0-1.5-1.1-2.9-2.7-3.6"/><path d="M36.7 19.1c0-.1 0-.1 0 0" class="st4"/><path fill="none" stroke="#494949" stroke-dasharray="9.979420e-02,1.9959" stroke-linecap="round" stroke-linejoin="round" d="M36.8 17c-.5-2.8-3.3-5.9-6.8-6.1-3.2-.2-5.4 2-5.7 2.4-1.7 1.8-2.1 4-2.1 5.3"/><path d="M22.1 19.6c0 .1 0 .1 0 0" class="st4"/></svg>