<svg xmlns="http://www.w3.org/2000/svg" id="Layer_1" x="0" y="0" version="1.1" viewBox="0 0 50 50" xml:space="preserve"><style>.st3{fill:#031326}</style><path fill="#fcc34f" d="M48.2 25.7l.4 4.4-46.8 17 .2-9.2.3-5.2 46.6-17-.7 3.8z"/><path fill="#fdcf72" d="M48.2 9l-.6 7.7L2 33.4v-9.9l.3-4.5 46-16.7z"/><path fill="none" stroke="#031326" stroke-linecap="round" stroke-linejoin="round" stroke-miterlimit="10" stroke-width="2.5" d="M32.9 47.9H2.3V2.5H48v35.2"/><path d="M37.4 16.1c0-2.2-1.8-4.1-4.1-4.1h-.6c-.9-3.3-3.8-5.6-7.3-5.6S19 8.7 18.1 12H17c-2.2 0-4.1 1.8-4.1 4.1s1.8 4.1 4.1 4.1h5.3v5h-5c-1 0-1.9.8-1.9 1.9v10c0 1 .8 1.9 1.9 1.9H23v1.3h-1.9c-1 0-1.9.8-1.9 1.9v1.3c0 .3.3.6.6.6h11.9c.3 0 .6-.3.6-.6v-1.3c0-1-.8-1.9-1.9-1.9H28V39h5.6c1 0 1.9-.8 1.9-1.9v-10c0-1-.8-1.9-1.9-1.9h-10v-5h9.7c2.3 0 4.1-1.8 4.1-4.1zm-6.3 26v.6H20.5v-.6c0-.3.3-.6.6-.6h9.4c.3 0 .6.2.6.6zm-4.4-1.9h-2.5V39h2.5v1.2zm6.9-2.5H17.4c-.3 0-.6-.3-.6-.6v-.6h17.5v.6c0 .3-.3.6-.7.6zm-6.2-11.3v.3h1.3v-.3h5c.3 0 .6.3.6.6v8.1H16.7V27c0-.3.3-.6.6-.6h5v4.4c0 1.4.9 2.6 2.1 3 1.3.4 2.7 0 3.5-1.1.8-1.1.8-2.6.1-3.7h.6v-1.2h-1.3v.4c-1.1-.9-2.7-.9-3.8 0v-1.9h3.9zm-3.8 4.4c0-1 .8-1.9 1.9-1.9 1 0 1.9.8 1.9 1.9 0 1-.8 1.9-1.9 1.9-1 0-1.9-.8-1.9-1.9zm1.9-14.4c-1 0-1.9-.8-1.9-1.9s.8-1.9 1.9-1.9c1 0 1.9.8 1.9 1.9s-.9 1.9-1.9 1.9zm-1.9.6c1.1.9 2.7.9 3.8 0v.4h1.3v-1.2h-.6c.8-1.1.7-2.6-.1-3.7-.8-1.1-2.2-1.5-3.5-1.1-1.3.4-2.1 1.6-2.1 3v4.4H17c-1.6 0-2.8-1.3-2.8-2.8s1.3-2.8 2.8-2.8h1.7c.3 0 .6-.2.6-.5.5-3 3.1-5.1 6.2-5.1s5.6 2.2 6.2 5.1c.1.3.3.5.6.5h1.1c1.6 0 2.8 1.3 2.8 2.8s-1.3 2.8-2.8 2.8h-4.7v-.3h-1.3v.3h-3.8V17z" class="st3"/><path d="M25.5 13.6c-.5 0-.9.4-.9.9s.4.9.9.9.9-.4.9-.9-.4-.9-.9-.9zm0 1.3c-.2 0-.3-.1-.3-.3s.1-.3.3-.3c.2 0 .3.1.3.3s-.1.3-.3.3zm.9 15.9c0-.5-.4-.9-.9-.9s-.9.4-.9.9.4.9.9.9c.5.1.9-.4.9-.9zm-1.2 0c0-.2.1-.3.3-.3.2 0 .3.1.3.3 0 .2-.1.3-.3.3-.2 0-.3-.1-.3-.3zm2.2-9.9h1.3v1.2h-1.3v-1.2zm0 2.4h1.3v1.2h-1.3v-1.2z" class="st3"/></svg>