<svg xmlns="http://www.w3.org/2000/svg" id="Layer_1" x="0" y="0" version="1.1" viewBox="0 0 50 50" xml:space="preserve"><style>.st3{fill:#031326}</style><path fill="#00dffc" d="M7 6.9c-1.6 0-2.8 1.6-2.8 3.5V21L43.1 6.9H7z"/><path fill="#00c8e2" d="M46.3 10.4c0-1.9-1.3-3.5-2.8-3.5h-.4L4.1 21v15.6H1.9l.1 2c0 .5.2 1 .4 1.3l.7 1.3c.2.3.3.5.5.7l42.6-15.5v-16h.1z"/><path d="M41.9 33.9H8.3V11.6h33.5l.1 22.3zm-32-1.5h30.5V13.1H9.9v19.3z" class="st3"/><path d="M28.4 35.7l-.4 2.1c-.1.3-.2.5-.3.6h-5.3c-.7 0-1.2.6-1.2 1.2s.6 1.2 1.2 1.2h5.4c1.3 0 2.3-1 2.6-2.6v-.1h16.7v.6c0 .3-.1.5-.2.7l-.8 1.4c-.4.7-.9 1.1-1.4 1.1H5.5c-.5 0-1-.4-1.4-1.1l-.7-1.3c-.1-.2-.2-.5-.2-.7v-.6h17.3c.7 0 1.2-.6 1.2-1.2s-.6-1.2-1.2-1.2H5.3V10.1c0-1 .7-1.8 1.6-1.8h36.4c.9 0 1.6.8 1.6 1.8v18.5c0 .7.6 1.2 1.2 1.2s1.2-.6 1.2-1.2V10.1c0-2.4-1.8-4.3-4.1-4.3H6.9c-2.3 0-4.1 1.9-4.1 4.3v25.6H.4l.2 3.2c0 .7.2 1.3.5 1.8l.7 1.3c.9 1.5 2.2 2.3 3.6 2.3h39.2c1.4 0 2.7-.8 3.6-2.3l.7-1.3c.3-.5.5-1.2.5-1.8l.2-3.2H28.4z" class="st3"/><path d="M25.7 31l6.9-4v-7.9L25.7 23z" class="st3"/><path d="M19.3 20c-.3-.1-.3-.5-.2-.7.1-.3.5-.3.7-.2l5.3 3 7-3.9-7-4-7.4 4.3V27l7 4v-8l-5.4-3z" class="st3"/></svg>