<svg xmlns="http://www.w3.org/2000/svg" id="Camada_3" x="0" y="0" version="1.1" viewBox="0 0 50 50" xml:space="preserve"><style>.st2{fill:none;stroke:#444;stroke-miterlimit:10}</style><path fill="#22dd6d" d="M37.48 12.37c-.72-.46-1.2-.73-1.51-.88l.81-.3-10.35-2.93c-.4-.12-6.43-3.42-6.82-3.3l-5 1.65-3.34 5.48c-.16.26-6.12 2.91-6.36 3.1l-3.25 8.53-.16.06v1.06c0 2.44 3.65 5 6.29 7.94 3.01 3.35.66 10.6 3.07 9.74l34.25-12.19a5.793 5.793 0 003.85-5.46v-4.83c.01-4.32-8.23-5.59-11.48-7.67z"/><path fill="none" stroke="#444" stroke-linecap="round" stroke-linejoin="round" stroke-miterlimit="10" stroke-width="2.5" d="M33.27 38.36l.04-5.64 5.5.01h0c5.37 0 9.73-4.36 9.73-9.73s-4.36-9.73-9.73-9.73c-.43 0-.85.03-1.26.08-1.67-2.95-4.84-4.95-8.47-4.95-1.02 0-2.01.16-2.93.45a8.109 8.109 0 00-14.91 4.42c-5.37 0-9.73 4.36-9.73 9.73 0 4.88 2.76 8.9 7.45 9.6v8.52c0 1.19.97 2.15 2.15 2.14l13.31-.1"/><path d="M25.09 24.16h4.11c.91 0 1.64.74 1.64 1.64v1.61" class="st2"/><g fill="none" stroke="#444" stroke-linecap="round" stroke-linejoin="round" stroke-miterlimit="10"><path d="M14.25 27.42l7.05-7.05 7.05 7.05"/><path stroke-width=".5" d="M17.2 27.42l2.96-2.96a1.6 1.6 0 002.27 0l2.59 2.59c-.11.11-.21.24-.28.38"/></g><path d="M9.72 25.79c0 .9.73 1.63 1.63 1.63h19.49c.91 0 1.64.74 1.64 1.64v3.37" class="st2"/><path d="M9.71 41.03V25.79c0-.9.77-1.63 1.72-1.63h6.09m10.26 13.51h5.03c.42 0 .77-.34.77-.77v-3.7a.77.77 0 00-.77-.77h-5.03c-1.45 0-2.62 1.17-2.62 2.62 0 1.45 1.17 2.62 2.62 2.62z" class="st2"/><circle cx="28.13" cy="35.05" r=".88" fill="none" stroke="#444" stroke-miterlimit="10" stroke-width=".5"/></svg>