<svg xmlns="http://www.w3.org/2000/svg" id="Layer_1" x="0" y="0" version="1.1" viewBox="0 0 50 50" xml:space="preserve"><style>.st2{fill:#031326}</style><switch><g><path fill="#c0d5d7" d="M6.9 6.8c-1.6 0-2.8 1.6-2.8 3.5V21L43 6.8H6.9z"/><path fill="#acbfc0" d="M46.2 10.3c0-1.9-1.3-3.5-2.8-3.5H43L4 21v15.6H1.8l.1 2c0 .5.2 1 .4 1.3l.7 1.3c.2.3.3.5.5.7l42.6-15.5V10.3z"/><path d="M41.8 33.8H8.2V11.5h33.5v22.3zm-32-1.5h30.5V13H9.8v19.3z" class="st2"/><path d="M28.3 35.6l-.4 2.1c-.1.3-.2.5-.3.6h-5.3c-.7 0-1.2.6-1.2 1.2s.6 1.2 1.2 1.2h5.4c1.3 0 2.3-1 2.6-2.6V38H47v.6c0 .3-.1.5-.2.7l-.8 1.4c-.4.7-.9 1.1-1.4 1.1H5.4c-.5 0-1-.4-1.4-1.1l-.7-1.3c-.1-.2-.2-.5-.2-.7v-.6h17.3c.7 0 1.2-.6 1.2-1.2s-.6-1.2-1.2-1.2H5.2V10c0-1 .7-1.8 1.6-1.8h36.4c.9 0 1.6.8 1.6 1.8v18.5c0 .7.6 1.2 1.2 1.2s1.2-.6 1.2-1.2V10c0-2.4-1.8-4.3-4.1-4.3H6.8c-2.3 0-4.1 1.9-4.1 4.3v25.6H.3l.2 3.2c0 .7.2 1.3.5 1.8l.7 1.3c.9 1.5 2.2 2.3 3.6 2.3h39.2c1.4 0 2.7-.8 3.6-2.3l.7-1.3c.3-.5.5-1.2.5-1.8l.2-3.2H28.3z" class="st2"/><path d="M25.6 30.9l6.9-4V19l-6.9 3.9z" class="st2"/><path d="M19.2 19.9c-.3-.1-.3-.5-.2-.7.1-.3.5-.3.7-.2l5.3 3 7-3.9-7-4-7.4 4.3V27l7 4v-8l-5.4-3.1z" class="st2"/></g></switch></svg>