<svg xmlns="http://www.w3.org/2000/svg" id="Layer_1" viewBox="0 0 50 50"><style>.st2{fill:#031326}</style><path fill="#46b8b0" d="M5.5 41.8l6.1 6.1h16l16.7-6.1V8.1L38.2 2H11.6L5.5 8.1v17.8z"/><path fill="#4ecdc4" d="M38.2 2H11.6L5.5 8.1v5.8z"/><path d="M30.1 22h-.2c-.3 0-.6-.2-.8-.7L29 21l-3.8-9.5c-.4-1-1.2-1.5-2.4-1.5-.5 0-1 .1-1.4.2l.1 1.9h.5c.3 0 .5.1.7.2.2.1.3.3.5.6l.6 1.5-3.4 9.5h2.8l2-5.9 1.5 4.2c.3.7.6 1.2 1 1.5.4.3 1 .4 1.6.4.4 0 .7 0 1-.1v-2h-.2z" class="st2"/><path d="M38.8.8H11.1L4.2 7.6v34.7l6.8 6.8h21.4c.7 0 1.2-.6 1.2-1.2s-.6-1.2-1.2-1.2H12.2V32.1h25.4v14.5c0 .1.1.1.1.1l.1-.1V32l5.2-4.8v14.6c0 .7.6 1.2 1.2 1.2s1.2-.6 1.2-1.2V7.6L38.8.8zM6.7 41.3V27.2L12 32v14.5l-5.3-5.2zm31-9.4H12.1l-5.4-5V8.6l5.4-5.4h25.6l5.4 5.4v18.3l-5.4 5z" class="st2"/></svg>