<svg xmlns="http://www.w3.org/2000/svg" version="1.0" viewBox="0 0 50 50"><path fill="#00C8E2" d="M31.716 7.281l-14.895 8.786L3.005 37.563h11.753zm16.463 29.168l-17.23 6.273H14.755l19.834-5.161-7.401-14.929 6.727-12.04z"/><path fill="#00DFFC" d="M31.713 7.278l-9.905 17.684-13.976 5.085 8.989-13.976zm6.78 11.608l-11.146 4.063-.159-.317 6.727-12.04z"/><g fill="#031326"><path d="M35.069 3.851L15.93 15.142.715 38.813H15.49L35.069 3.851zM5.294 36.313l12.418-19.319 10.65-6.283-14.337 25.602H5.294z"/><path d="M49.278 35.843L33.924 8.02l-8.147 14.579 7.01 14.141-27.799 7.232h26.728a1.25 1.25 0 000-2.5h-7.188l11.865-3.087-7.791-15.716 5.309-9.499L47.09 37.05a1.25 1.25 0 102.188-1.207z"/></g></svg>