<svg xmlns="http://www.w3.org/2000/svg" id="Layer_1" x="0" y="0" version="1.1" viewBox="0 0 50 50" xml:space="preserve"><style>.st2{fill:#031326}</style><path fill="#fcc34f" d="M48.2 26.1l.4 4.3L2 47.3l.1-9.1.4-5.2 46.4-16.9-.7 3.7z"/><path fill="#fdcf72" d="M48.2 9.3l-.6 7.8L2.1 33.7v-9.9l.3-4.4L48.3 2.7z"/><path d="M48 49.1H32c-.7 0-1.2-.6-1.2-1.2s.6-1.2 1.2-1.2h14.7V3.4H3.2v43.3h3.1c.7 0 1.2.6 1.2 1.2s-.5 1.2-1.2 1.2H2c-.7 0-1.2-.6-1.2-1.2V2.1C.8 1.4 1.4.9 2 .9h46c.7 0 1.2.6 1.2 1.2v45.8c.1.7-.5 1.2-1.2 1.2z" class="st2"/><path d="M21.1 41.6c-.1 0-.2 0-.3-.1-.3-.2-.5-.5-.4-.9L23 29.9h-7.8c-.2 0-.5-.1-.6-.3-.1-.2-.2-.4-.1-.7l4.4-16c.1-.3.4-.6.7-.6h10.2c.2 0 .5.1.6.3s.2.4.1.7l-2.6 9.2h7.7c.3 0 .6.2.7.4.1.3.1.6-.1.8L21.6 41.3c-.1.2-.3.3-.5.3zm-4.9-13.2H24c.2 0 .4.1.6.3.1.2.2.4.1.6l-2.1 8.5L34 24.1h-7.1c-.2 0-.5-.1-.6-.3s-.2-.4-.1-.7l2.6-9.2h-8.6l-4 14.5zm23 3.5c-.2 0-.4-.1-.5-.2-.3-.3-.3-.8 0-1.1l3.7-3.7-3.7-3.7c-.3-.3-.3-.8 0-1.1s.8-.3 1.1 0l4.2 4.2c.3.3.3.8 0 1.1l-4.2 4.2c-.2.2-.4.3-.6.3zm-28 0c-.2 0-.4-.1-.5-.2l-4.2-4.2c-.3-.3-.3-.8 0-1.1l4.2-4.2c.3-.3.8-.3 1.1 0s.3.8 0 1.1L8.1 27l3.7 3.7c.3.3.3.8 0 1.1-.2 0-.4.1-.6.1z" class="st2"/></svg>