<svg xmlns="http://www.w3.org/2000/svg" viewBox="0 0 50 50"><path fill="#b9d7d9" d="M14.39 8.07l-3.37 5.53c-.16.26-6.17 2.94-6.41 3.13l-3.44 9.01L36.74 12.7 26.3 9.73c-.4-.11-6.48-3.44-6.88-3.32l-5.03 1.66z"/><path fill="#a6c1c2" d="M1.17 25.38v1.07c0 2.46 3.68 5.04 6.34 8 3.04 3.37.67 10.68 3.1 9.82l34.53-12.29a5.847 5.847 0 003.89-5.51V21.6c0-4.34-8.3-5.63-11.58-7.72-2.96-1.89-1.87-.59-2.13-.95L1.17 25.38z"/><path fill="none" stroke="#444" stroke-linecap="round" stroke-linejoin="round" stroke-miterlimit="10" stroke-width="2.5" d="M33.21 40.08l.04-5.69 5.54.01h0c5.42 0 9.81-4.39 9.81-9.81 0-5.42-4.39-9.81-9.81-9.81-.43 0-.85.03-1.27.08a9.798 9.798 0 00-8.54-4.99c-1.03 0-2.02.16-2.95.45a8.161 8.161 0 00-6.85-3.72c-4.51 0-8.17 3.66-8.17 8.17-5.42 0-9.81 4.39-9.81 9.81 0 4.92 2.79 8.97 7.51 9.68v6.7c0 2.24 1.82 4.05 4.06 4.03l11.53-.08"/><path fill="#444" d="M19.96 33.13l-.73 5.09c-.05.36.23.68.59.68h2.59c.36 0 .64-.32.59-.68l-.73-5.09c-.03-.22.06-.45.24-.57a2.627 2.627 0 00-1.39-4.86c-1.46 0-2.63 1.19-2.63 2.63 0 .94.5 1.77 1.24 2.23.17.13.26.35.23.57z"/><path fill="none" stroke="#444" stroke-miterlimit="10" stroke-width=".5" d="M15.11 24.41v-7.28c0-2.7 2.66-4.91 5.91-4.91h0c3.25 0 5.91 2.21 5.91 4.91v7.28"/><path fill="none" stroke="#444" stroke-miterlimit="10" d="M9.47 43.49V26.74c0-1.5 1.44-2.56 2.94-2.56h17.23c1.5 0 2.89 1.04 2.89 2.54v12.3"/></svg>