<svg xmlns="http://www.w3.org/2000/svg" id="Layer_1" x="0" y="0" version="1.1" viewBox="0 0 50 50" xml:space="preserve"><style>.st1{fill:none;stroke:#444;stroke-width:.5;stroke-linecap:round;stroke-linejoin:round;stroke-miterlimit:10}</style><path fill="#46b8b0" d="M41.3 30.7l-3.8-2.3-.2-26.3-6.4-.4c-3.1 0-16.5-2.9-16.5.2l-.9 25.5-3.5 3.7 4.9 8.1 5.6 5.3 16.9-6 2.3-3.4c.6-.4 2.6-2.4 1.6-4.4z"/><path d="M19.6 25.7v4.4c0 .6-.5 1.1-1.1 1.1H15c-.9 0-1.4 1.1-.8 1.8l10.7 11.6c.4.5 1.2.5 1.6 0l10.7-11.9c.6-.7.1-1.8-.8-1.8h-3.2c-.6 0-1.1-.5-1.1-1.1v-2.1M19.6 4.8v11.7m2.5-7V15m2.5-8.6v6.2m2.5-3.4v4.6M30 4.5V15m2-6.8v9.2" class="st1"/><path fill="#444" d="M17.1 19.4l-1.3.3v-1.1L18 18c.2 0 .3.1.3.3v4.9c0 .2-.1.3-.3.3h-.6c-.2 0-.3-.1-.3-.3v-3.8zm14.2 6.1c-.3-.2-.6-.6-.8-1-.2-.4-.3-.9-.3-1.5s.1-1.1.3-1.5c.2-.4.5-.8.8-1 .3-.2.7-.3 1.2-.3s.9.1 1.2.3c.3.2.6.6.8 1 .2.4.3.9.3 1.5s-.1 1.1-.3 1.5c-.2.4-.4.8-.8 1-.3.2-.7.4-1.2.4s-.8-.2-1.2-.4zm1.9-1.2c.2-.3.3-.7.3-1.3s-.1-1-.3-1.3c-.2-.3-.4-.5-.7-.5-.3 0-.5.2-.7.5-.2.3-.3.7-.3 1.3s.1 1 .3 1.3c.2.3.4.5.7.5.3-.1.5-.2.7-.5zm-9.3-3.7c-.3-.2-.6-.6-.8-1-.2-.4-.3-.9-.3-1.5s.1-1.1.3-1.5c.2-.4.5-.8.8-1 .3-.2.7-.3 1.2-.3s.9.1 1.2.3c.3.2.6.6.8 1 .2.4.3.9.3 1.5s-.1 1.1-.3 1.5c-.2.4-.4.8-.8 1-.3.2-.7.4-1.2.4-.4 0-.8-.2-1.2-.4zm1.9-1.2c.2-.3.3-.7.3-1.3s-.1-1-.3-1.3c-.2-.3-.4-.5-.7-.5-.3 0-.5.2-.7.5-.2.3-.3.7-.3 1.3s.1 1 .3 1.3c.2.3.4.5.7.5.3 0 .6-.2.7-.5zm1.4 7.4l-1.3.3V26l2.2-.6c.2 0 .3.1.3.3v4.9c0 .2-.1.3-.3.3h-.6c-.2 0-.3-.1-.3-.3v-3.8zm-5 10.2c-.3-.2-.6-.6-.8-1-.2-.4-.3-.9-.3-1.5s.1-1.1.3-1.5c.2-.4.5-.8.8-1 .3-.2.7-.3 1.2-.3s.9.1 1.2.3c.3.2.6.6.8 1 .2.4.3.9.3 1.5s-.1 1.1-.3 1.5c-.2.4-.4.8-.8 1-.3.2-.7.4-1.2.4-.5-.1-.9-.2-1.2-.4zm1.9-1.2c.2-.3.3-.7.3-1.3 0-.6-.1-1-.3-1.3-.2-.3-.4-.5-.7-.5-.3 0-.5.2-.7.5-.2.3-.3.7-.3 1.3 0 .6.1 1 .3 1.3.2.3.4.5.7.5.3-.1.5-.2.7-.5z"/><path d="M17.1 7.3v5.4m17-5.8v5.4" class="st1"/><path fill="none" stroke="#444" stroke-linecap="round" stroke-linejoin="round" stroke-miterlimit="10" stroke-width="2.5" d="M29.3 46.5L28 47.9c-.5.5-1.2.8-1.8.8h0c-.7 0-1.4-.3-1.8-.8L10.9 34c-.5-.6-.8-1.3-.8-2.1v0c0-1.7 1.3-3 3-3h.6V4.3c0-1.5 1.2-2.7 2.7-2.7h18.5c1.5 0 2.7 1.2 2.7 2.7v24.6h.3c1.7 0 3 1.3 3 3v.9c0 .8-.3 1.5-.8 2L36.2 39"/></svg>