<svg xmlns="http://www.w3.org/2000/svg" version="1.0" viewBox="0 0 50 50"><path fill="#DC5E82" d="M47.299 13.825v16.551L19.267 40.58 2.605 36.173V13.825l22.347-5.908z"/><path fill="#F56991" d="M42.513 12.561L2.605 27.085v-13.26l22.347-5.908z"/><g fill="#031326"><path d="M10.297 36.258l5.476 1.448V12.31l-5.476 1.448v22.5zm2.107-1.858V15.613l2.368-.623v20.039l-2.368-.629zm-7.883.282l4.835 1.336V14.011l-4.835 1.27v19.401zm2.37-1.69V16.984l1.464-.382v16.794l-1.464-.404zm16.143-21.113h-.002v-1.485l-6.318 1.67v25.891l6.318 1.671V38.14h.002V11.879zm-1.002 24.964l-3.465-.913V14.088l3.465-.912v23.667z"/><path d="M24.952 6.624L1.353 12.863v24.274l23.599 6.238 14.507-3.836a1.249 1.249 0 10-.638-2.416l-13.369 3.534V9.342l20.599 5.446v15.588a1.25 1.25 0 002.5 0V12.863L24.952 6.624zM3.853 35.212V14.788l20.599-5.446v31.316L3.853 35.212z"/></g></svg>