<svg xmlns="http://www.w3.org/2000/svg" id="Camada_3" x="0" y="0" version="1.1" viewBox="0 0 50 50" xml:space="preserve"><style>.st2{fill:none;stroke:#444;stroke-linecap:round;stroke-linejoin:round;stroke-miterlimit:10}</style><path fill="#00dffc" d="M20.52 1.7L9.46 5.57l-5.97 7.56.19 7.52L41.01 7.36 31.39 1.7z"/><path fill="#00c8e2" d="M3.04 25.5l.45 12.74 7.29 6.85L46 32.56l-.03-3.32-.65-16.98-3.61-5.15L2.9 20.92z"/><path d="M4.68 12.27l4.78-4.95 9.07-4.45h12.36l9.07 4.45 4.45 4.95v5.1l-4.45-3.13-9.07-2.88H18.53l-9.07 3.05-4.78 2.96z" class="st2"/><path d="M4.68 19.77v4.03l4.78-.49h30.5l4.45.49v-4.36l-4.45-2.48-9.07-2.22H18.53l-9.07 2.63zm0 6.75v4.45l4.78 2.31 9.07 2.23h12.36l9.07-2.23 4.45-2.26v-4.08H9.46z" class="st2"/><path d="M44.41 37.65v-4.37l-4.45 3.05-9.07 2.72H18.53l-9.07-2.72-4.78-3.05v4.37l4.78 5.27 9.07 4.62h12.36M9.46 7.32v7.09m9.07-11.54v8.49m12.36-8.49v8.49m9.07-4.04v6.92m-30.5 3.13v5.94m9.07-8.57v8.57m12.36-8.57v8.57m9.07-5.94v5.94m-30.5 3.63v6.34m0 3.05v6.59m9.07-15.98v8.57m0 3.54v8.49m12.36 0v-8.49m0-3.54v-8.57m9.07 0v6.34m0 3.05v4.88" class="st2"/><path fill="none" stroke="#444" stroke-linecap="round" stroke-linejoin="round" stroke-miterlimit="10" stroke-width="2.5" d="M33.09 47.54l-2.2 1.26H18.53l-9.07-4.94-5.78-6.05V11.99l5.38-5.38 9.47-4.41h12.36l9.27 4.41 5.16 5.65V37.7l-2.34 2.71"/><path fill="none" stroke="#444" stroke-linecap="round" stroke-linejoin="round" stroke-miterlimit="10" stroke-width=".25" d="M8.17 35.51v-2.85m0-5.84v-3.38m0-5.45v-2.78m2.32-1.15v3.02m0 6.23v3.51m0 6.71v3.11m6.33-1.55v3.45m0-11.72v-3.38m0-11.51v3.28M20 11.34v3.59m0 8.36v3.63m0 8.57v3.55m9.5.01v-3.54m0-8.69v-3.51m0-8.9v-3.05m3.2.57v3.28m0 8.23v3.5m0 8.12v3.45m5.8-24.45l-.02 2.54m0 6.84v3.5m0 6.7v2.69m2.53-1.34v-2.48m0-5.69v-3.38m0-5.64v-2.47"/></svg>