<svg xmlns="http://www.w3.org/2000/svg" id="Camada_3" x="0" y="0" version="1.1" viewBox="0 0 50 50" xml:space="preserve"><style>.st2{fill:none;stroke:#444;stroke-miterlimit:10}</style><path fill="#b9d7d9" d="M34.97 6.45L9.85 5.23a8.41 8.41 0 00-8.41 8.41v10.2l38.37-13.65-4.84-3.74z"/><path fill="#a6c1c2" d="M7.83 39.69l10.04 3.15L47.51 32.3l-.15-18.65c-.37-1.07-7.32-3.54-8.39-3.16L1.44 23.84l.68 12.21"/><path d="M39.35 12.27c0-1.51-.77-2.92-2.05-3.72-2.32-1.47-7.08-3.23-16.48-3.1-9.39-.13-14.15 1.63-16.47 3.1a4.396 4.396 0 00-2.05 3.72v21.26c0 1.69.96 3.23 2.48 3.96 2.69 1.3 8.02 3.09 14.41 3.43" class="st2"/><path d="M28.38 37.89H11.14c-.25 0-.45-.2-.45-.45V20.19c0-.25.2-.45.45-.45h17.25c.25 0 .45.2.45.45v17.25c-.01.25-.21.45-.46.45z" class="st2"/><path d="M19.19 19.74v-4.9a2.29 2.29 0 012.29-2.29h22.67a2.29 2.29 0 012.29 2.29v27.65a2.29 2.29 0 01-2.29 2.29H21.48a2.29 2.29 0 01-2.29-2.29v-4.6" class="st2"/><path fill="none" stroke="#444" stroke-miterlimit="10" stroke-width=".5" d="M46.43 20.73h-17.6m17.6 7.93h-17.6m17.6 7.98H32.81V12.55"/><path fill="#444" d="M14.99 23.65h2.54l1.66 3.81 2.14-3.81h2.41l-3.11 5.01 3.11 5.01h-2.33l-2.22-3.89-1.99 3.89h-2.45l3.23-5.01zm17.82-2.92h13.62v7.94H32.81z"/><path fill="none" stroke="#444" stroke-linecap="round" stroke-linejoin="round" stroke-miterlimit="10" stroke-width=".5" d="M2.38 11.46s2.44 2.81 10.9 2.9"/><path fill="none" stroke="#444" stroke-linecap="round" stroke-linejoin="round" stroke-miterlimit="10" stroke-width="2.5" d="M1.22 12.91v19.76c0 1.19.27 2.38.9 3.39.42.67 1.02 1.35 1.89 1.84 2.42 1.38 13.14 3.74 14.35 3.91 0 0-.54 4.23 3.83 4.23h22.09s3.5.02 3.5-3.78V15.55c0-.3.06-1.9-1.35-3-1.32-1.03-1.32-1.03-6.07-1.03h0s-.75-3.91-6.58-5.44c-4.61-1.2-22.04-1.85-27.48.26-5.44 2.12-5.08 6.57-5.08 6.57z"/></svg>