<?xml version="1.0" encoding="utf-8"?>
<!-- Generator: Adobe Illustrator 26.5.0, SVG Export Plug-In . SVG Version: 6.00 Build 0)  -->
<svg version="1.1" id="Camada_3" xmlns="http://www.w3.org/2000/svg" xmlns:xlink="http://www.w3.org/1999/xlink" x="0px" y="0px"
	 viewBox="0 0 50 50" style="enable-background:new 0 0 50 50;" xml:space="preserve">
<style type="text/css">
	.st0{fill:#00DFFC;}
	.st1{fill:#00C8E2;}
	.st2{fill:#444444;}
	.st3{fill:none;stroke:#444444;stroke-width:2.5;stroke-linecap:round;stroke-linejoin:round;stroke-miterlimit:10;}
</style>
<g>
	<polygon class="st0" points="41.65,7.76 41.06,15.83 41.64,15.84 9.69,27.47 10.23,26.89 10.11,23.21 10.45,18.58 11.26,13.89 
		34.48,2.23 	"/>
	<polygon class="st1" points="40.85,21.87 41.26,26.3 41.6,29.39 10.72,40.63 10.21,40.43 10.35,31.08 10.28,28.41 10.78,25.8 
		42.01,14.26 40.85,15.48 	"/>
	<g>
		<path class="st2" d="M14.79,20.71v18.88c0,0.8,0.86,1.3,1.56,0.9l5.58-3.23c0.43-0.25,0.69-0.71,0.69-1.2V17.3
			c0-0.85-0.92-1.38-1.66-0.96l-5.48,3.17C15.06,19.76,14.79,20.22,14.79,20.71z M19.8,31.44c0,0-0.97-1.68-1.15-2.01l-0.02,0.01
			c-0.13,0.51-0.3,0.98-0.5,1.62l-0.53,1.65l-1.66,0.96l1.86-4.82l-1.79-2.63l1.67-0.96l1.09,1.85c0,0,0.26-0.84,0.42-1.36
			l0.54-1.67l1.66-0.96l-1.89,4.78l1.99,2.57L19.8,31.44z"/>
		<path class="st2" d="M23.82,16.79v1.51c0,0.56,0.6,0.91,1.09,0.63l2.69-1.56l1.76-1.02c0.3-0.17,0.48-0.49,0.48-0.84v-1.35
			c0-0.63-0.68-1.03-1.23-0.71l-1.01,0.58l-3.3,1.9C24.01,16.13,23.82,16.45,23.82,16.79z"/>
		<path class="st2" d="M23.82,21.07v1.51c0,0.56,0.6,0.91,1.09,0.63l2.69-1.56l1.76-1.02c0.3-0.17,0.48-0.49,0.48-0.84v-1.35
			c0-0.63-0.68-1.03-1.23-0.71l-1.01,0.58l-3.3,1.9C24.01,20.4,23.82,20.72,23.82,21.07z"/>
		<path class="st2" d="M23.82,25.23v1.51c0,0.56,0.6,0.91,1.09,0.63l2.69-1.56l1.76-1.02c0.3-0.17,0.48-0.49,0.48-0.84v-1.35
			c0-0.63-0.68-1.03-1.23-0.71l-1.01,0.58l-3.3,1.9C24.01,24.57,23.82,24.89,23.82,25.23z"/>
		<path class="st2" d="M23.82,29.55v1.51c0,0.56,0.6,0.91,1.09,0.63l2.69-1.56l1.76-1.02c0.3-0.17,0.48-0.49,0.48-0.84v-1.35
			c0-0.63-0.68-1.03-1.23-0.71l-1.01,0.58l-3.3,1.9C24.01,28.89,23.82,29.21,23.82,29.55z"/>
		<path class="st2" d="M23.82,33.87v1.51c0,0.56,0.6,0.91,1.09,0.63l2.69-1.56l1.76-1.02c0.3-0.17,0.48-0.49,0.48-0.84v-1.35
			c0-0.63-0.68-1.03-1.23-0.71l-1.01,0.58l-3.3,1.9C24.01,33.21,23.82,33.53,23.82,33.87z"/>
		<path class="st2" d="M30.52,13.06v1.51c0,0.56,0.6,0.91,1.09,0.63l2.69-1.56l1.76-1.02c0.3-0.17,0.48-0.49,0.48-0.84v-1.35
			c0-0.63-0.68-1.03-1.23-0.71l-1.01,0.58l-3.3,1.9C30.71,12.39,30.52,12.71,30.52,13.06z"/>
		<path class="st2" d="M30.52,17.33v1.51c0,0.56,0.6,0.91,1.09,0.63l2.69-1.56l1.76-1.02c0.3-0.17,0.48-0.49,0.48-0.84v-1.35
			c0-0.63-0.68-1.03-1.23-0.71l-1.01,0.58l-3.3,1.9C30.71,16.66,30.52,16.98,30.52,17.33z"/>
		<path class="st2" d="M30.52,21.49V23c0,0.56,0.6,0.91,1.09,0.63l2.69-1.56l1.76-1.02c0.3-0.17,0.48-0.49,0.48-0.84v-1.35
			c0-0.63-0.68-1.03-1.23-0.71l-1.01,0.58l-3.3,1.9C30.71,20.83,30.52,21.15,30.52,21.49z"/>
		<path class="st2" d="M30.52,25.81v1.51c0,0.56,0.6,0.91,1.09,0.63l2.69-1.56l1.76-1.02c0.3-0.17,0.48-0.49,0.48-0.84V23.2
			c0-0.63-0.68-1.03-1.23-0.71l-1.01,0.58l-3.3,1.9C30.71,25.15,30.52,25.47,30.52,25.81z"/>
		<path class="st2" d="M30.52,30.14v1.51c0,0.56,0.6,0.91,1.09,0.63l2.69-1.56l1.76-1.02c0.3-0.17,0.48-0.49,0.48-0.84v-1.35
			c0-0.63-0.68-1.03-1.23-0.71l-1.01,0.58l-3.3,1.9C30.71,29.47,30.52,29.79,30.52,30.14z"/>
	</g>
	<path class="st3" d="M31.84,38.18l-6.17,3.37l-7.39,4.04l-4.59,2.51c-1.54,0.84-3.41-0.27-3.41-2.02V17.49
		c0-1.71,0.93-3.29,2.44-4.11L33.8,1.86"/>
	<path class="st3" d="M41.06,5.55L41.05,29l0,2.35"/>
	<path class="st3" d="M41.06,5.55l-2.87,1.85c-1.33,0.85-3.1,0.13-3.45-1.41L33.8,1.86L41.06,5.55z"/>
</g>
</svg>
