<svg xmlns="http://www.w3.org/2000/svg" id="Camada_3" x="0" y="0" version="1.1" viewBox="0 0 50 50" xml:space="preserve"><style>.st3{fill:none;stroke:#444;stroke-miterlimit:10;stroke-width:.25}</style><path fill="#c2d45a" d="M29.6 7.8l-2.4-4.5C26 3.4 1.7 7.5 1.7 8.7v13.8L42.6 8l-13-.2z"/><path fill="#b0cd5f" d="M1.7 22.5v20.2l8.5 2.3L49 31.2V12.6c0-3.4-3.3-5.7-6.5-4.6L1.7 22.5z"/><path fill="none" stroke="#444" stroke-miterlimit="10" d="M4.1 9l22.2-4.4c1.1-.2 2.1.6 2.1 1.7v39.4c0 1.1-1 1.9-2.1 1.7L4.1 43.2c-.8-.2-1.4-.9-1.4-1.7V10.7c0-.8.6-1.5 1.4-1.7zm24.3.4h17.4"/><path d="M6.7 12.9l17-3.3v4.3L10 16.2v24.2L6.7 40z" class="st3"/><path d="M15.5 35.1v-2.6L11.7 36l3.8 4.4v-2.7h3.1s3.6.1 3.6-4.2v-7.3h2.3l-3.4-8.4-3.5 8.4h2.1v5.1c0 3.4-1.8 3.8-4.2 3.8 0 0 .4 0 0 0z" class="st3"/><path fill="#444" d="M34.1 16.7H29c-.5 0-1-.4-1-1V14c0-.5.4-1 1-1h5.2c.5 0 1 .4 1 1v1.8c-.1.5-.5.9-1.1.9zm9.6 0h-5.2c-.5 0-1-.4-1-1V14c0-.5.4-1 1-1h5.2c.5 0 1 .4 1 1v1.8c0 .5-.5.9-1 .9zm-9.6 5.6H29c-.5 0-1-.4-1-1v-1.8c0-.5.4-1 1-1h5.2c.5 0 1 .4 1 1v1.8c-.1.5-.5 1-1.1 1zm9.6 0h-5.2c-.5 0-1-.4-1-1v-1.8c0-.5.4-1 1-1h5.2c.5 0 1 .4 1 1v1.8c0 .5-.5 1-1 1zm-9.6 5.5H29c-.5 0-1-.4-1-1V25c0-.5.4-1 1-1h5.2c.5 0 1 .4 1 1v1.8c-.1.6-.5 1-1.1 1zm9.6 0h-5.2c-.5 0-1-.4-1-1V25c0-.5.4-1 1-1h5.2c.5 0 1 .4 1 1v1.8c0 .6-.5 1-1 1zm-9.6 5.6H29c-.5 0-1-.4-1-1v-1.8c0-.5.4-1 1-1h5.2c.5 0 1 .4 1 1v1.8c-.1.5-.5 1-1.1 1zm9.6 0h-5.2c-.5 0-1-.4-1-1v-1.8c0-.5.4-1 1-1h5.2c.5 0 1 .4 1 1v1.8c0 .5-.5 1-1 1zm-9.6 5.5H29c-.5 0-1-.4-1-1v-1.8c0-.5.4-1 1-1h5.2c.5 0 1 .4 1 1V38c-.1.5-.5.9-1.1.9zm9.6 0h-5.2c-.5 0-1-.4-1-1v-1.8c0-.5.4-1 1-1h5.2c.5 0 1 .4 1 1V38c0 .5-.5.9-1 .9z"/><path fill="none" stroke="#444" stroke-linecap="round" stroke-miterlimit="10" stroke-width="2.5" d="M48.4 35.2l.2-24.2s.3-2.1-3-2.4H30.4c-.7.1-.8-.1-.7-.7 0-1.8 1.2-6-5.9-3.9L4.5 7.3s-2.7.5-2.8 3.3L2 41.7s-.3 2.3 3.2 2.9l21.3 3.8s3.2.9 2.9-4.3l9 .1"/></svg>