<svg xmlns="http://www.w3.org/2000/svg" id="Camada_3" x="0" y="0" version="1.1" viewBox="0 0 50 50" xml:space="preserve"><style>.st2{stroke-width:2.5}.st2,.st3,.st4{fill:none;stroke:#444;stroke-linecap:round;stroke-linejoin:round;stroke-miterlimit:10}.st4{stroke-width:.25}</style><path fill="#dc5e82" d="M42.7 19.9l-.11 7.29v.07l.61 5.18c.03.24-.11.46-.33.54L8.26 45.57c-.34.12-.7-.14-.69-.5l.62-14.43v-.05l-.49-8.8c-.01-.23.12-.43.34-.51L39.72 9.8c.42-.15.46-.73.07-.94L34.77 6.2l6.96 3.02c.18.08.3.25.31.44l.66 10.2v.04z"/><path fill="#f56991" d="M40.64 6.73l2.29 3.29c.38.54.53 1.2.42 1.85l-.52 3.12c-.15.9-.77 1.65-1.63 1.96L11.03 27.73c-1.37.49-2.87-.28-3.27-1.68L7.75 26c-.06-.23-.1-.47-.09-.7L7.8 6.29c.01-.69.29-1.35.8-1.82l2.73-2.56c.46-.43 1.07-.67 1.7-.68l20.68-.13c.84-.01 1.62.41 2.1 1.1l1.05 1.55c.18.26.41.49.67.67l2.46 1.67c.25.17.47.38.65.64z"/><path d="M35.06 48.4H11.01c-1.39 0-2.51-1.13-2.51-2.51V4.59c0-1.39 1.13-2.51 2.51-2.51h22.61c.67 0 1.31.26 1.78.74l6.46 6.46c.47.47.74 1.11.74 1.78v29.06" class="st2"/><path d="M13.83 8.7H23.9" class="st3"/><path d="M34.65 2.08v5.53c0 1.39 1.13 2.51 2.51 2.51h5.42" class="st2"/><path d="M14.78 34.47H36.3c1.39 0 2.51 1.13 2.51 2.51v3.63c0 1.39-1.13 2.51-2.51 2.51H14.78c-1.39 0-2.51-1.13-2.51-2.51v-3.63c0-1.39 1.12-2.51 2.51-2.51zm-2.51 3.67h26.55m-8.07-3.67v8.66m-8.42-8.66v8.66m-5.84-8.66v8.66" class="st3"/><path d="M15.31 27.7l5.54-6.18m3.41.05l4.61 3.67m3.2-.75l3.96-5.84" class="st4"/><circle cx="22.64" cy="20.1" r="2.08" class="st4"/><circle cx="13.95" cy="29.31" r="2.08" class="st4"/><circle cx="30.76" cy="26.13" r="2.08" class="st4"/><circle cx="37.13" cy="16.74" r="2.08" class="st4"/></svg>