<svg xmlns="http://www.w3.org/2000/svg" id="Camada_3" x="0" y="0" version="1.1" viewBox="0 0 50 50" xml:space="preserve"><style>.st2{fill:none;stroke:#444;stroke-miterlimit:10}.st4{fill:#444}</style><path fill="#c3ff68" d="M46.32 4.78H13.23l-1.3 7.96-10.52 1.45v9.66L48.59 7.06a2.27 2.27 0 00-2.27-2.28z"/><path fill="#afe55d" d="M1.41 23.85l.53 13.28 9.45.54 2.55 7.17 34.65-12.33V7.06z"/><path d="M24.71 36.63H3.17c-.25 0-.45-.2-.45-.45V14.64c0-.25.2-.45.45-.45h21.54c.25 0 .45.2.45.45v21.54c0 .25-.21.45-.45.45zm5.37 8.51H16.06c-1.56 0-2.83-1.27-2.83-2.83v-5.68" class="st2"/><path d="M13.23 14.19V8.12c0-1.56 1.27-2.83 2.83-2.83h28.03c1.56 0 2.83 1.27 2.83 2.83l.46 17.35" class="st2"/><path fill="none" stroke="#444" stroke-miterlimit="10" stroke-width=".5" d="M46.92 15.4H25.16m21.76 9.82H25.16m22.77 9.86H30.08V5.29"/><path d="M30.08 15.4h16.85v9.81H30.08zm0 31.04H13.23v-9.81l11.93-.45.11-1.1h4.81z" class="st4"/><path fill="none" stroke="#444" stroke-linecap="round" stroke-linejoin="round" stroke-miterlimit="10" stroke-width="2.5" d="M40.64 46.7h-23.7c-5.4 0-4.73-5.23-4.73-5.23l-.03-3.79H3.65c-1.29 0-1.71-1.12-1.71-2.41V15.55c0-1.29.42-2.27 1.71-2.27h8.28V8.69c0-2.58 2.1-4.68 4.68-4.68h22.81c5.87 0 5.87 0 7.5 1.28 1.74 1.36 1.67 3.33 1.67 3.71v29.4"/><path d="M5.08 29.98V20.4h4.14c.71 0 1.33.14 1.87.42.53.28.95.68 1.24 1.18s.44 1.1.44 1.78c0 .69-.15 1.28-.46 1.78-.3.5-.73.89-1.28 1.16-.53.28-1.17.42-1.9.42H6.66v-2.02H8.6c.31 0 .57-.05.78-.16.22-.11.38-.26.5-.46s.18-.44.18-.71c0-.27-.06-.51-.18-.7-.12-.19-.28-.34-.5-.45s-.48-.16-.78-.16h-.91v7.51H5.08zm17.94-4.79c0 1.07-.21 1.97-.62 2.7s-.97 1.29-1.68 1.66-1.49.56-2.36.56c-.87 0-1.66-.19-2.37-.57s-1.26-.93-1.68-1.67c-.41-.73-.62-1.63-.62-2.69 0-1.07.21-1.97.62-2.7.41-.73.97-1.29 1.68-1.66s1.49-.56 2.37-.56c.87 0 1.65.19 2.36.56s1.26.93 1.68 1.66c.41.75.62 1.64.62 2.71zm-2.68 0c0-.57-.08-1.06-.23-1.45s-.37-.69-.67-.9c-.29-.2-.66-.31-1.09-.31-.43 0-.79.1-1.09.31-.29.2-.52.5-.67.9s-.23.88-.23 1.45.08 1.06.23 1.45.37.69.67.9c.29.21.66.31 1.09.31.43 0 .79-.1 1.09-.31.29-.2.52-.5.67-.9s.23-.87.23-1.45zm-2.9 1.24h2.02l.73.92 1.24 1.4 1.61 1.95h-2.3l-1.14-1.33-.77-1.1-1.39-1.84z" class="st4"/></svg>