<?xml version="1.0" encoding="utf-8"?>
<!-- Generator: Adobe Illustrator 25.2.3, SVG Export Plug-In . SVG Version: 6.00 Build 0)  -->
<svg version="1.1" id="Layer_1" xmlns="http://www.w3.org/2000/svg" xmlns:xlink="http://www.w3.org/1999/xlink" x="0px" y="0px"
	 viewBox="0 0 50 50" style="enable-background:new 0 0 50 50;" xml:space="preserve">
<style type="text/css">
	.st0{fill:#00C8E2;}
	.st1{fill:#00DFFC;}
	.st2{fill:none;stroke:#444444;stroke-linecap:round;stroke-linejoin:round;}
	.st3{fill:#444444;}
	.st4{fill:none;stroke:#444444;stroke-linecap:round;stroke-linejoin:round;stroke-miterlimit:10;}
</style>
<g>
	<path class="st0" d="M40.1,19.4v-2c2.5-0.3,4.4-2.4,4.4-4.9c0-1.2-0.4-2.2-1.1-3.1c-0.1-0.1-0.2-0.3-0.3-0.4l-1,0.4l-6.7,2.4
		l-2.8,1l-10,3.7l-2.7,1l-5.1,1.9l-2.8,1l-3,1.1l0,0L7.2,22c-0.1,0.2-0.2,0.4-0.3,0.6c-0.2,0.5-0.3,1.1-0.3,1.6c0,1.9,1,3.4,2.5,4.3
		c1-0.5,2.1-0.7,3.3-0.7c3,0,5.1,1.4,6.2,3.3l0.2-0.1h0l0,0l5.1-1.9l9.7-3.5c0,0,0,0,0,0l1.3-0.5l3-1.1l2.5-0.9l2.3-0.9h0L44,22
		C43.2,20.6,41.8,19.6,40.1,19.4z"/>
	<path class="st1" d="M43.4,9.4l-1,0.4l-7,2.5l-2.7,1h0l-8.8,3.2l-2.8,1l-5.1,1.9l-2.7,1l-5.1,1.8l0,0l-1.3,0.5
		C7,22.4,7.1,22.2,7.2,22c0.7-1.4,2.1-2.5,3.8-2.7v-2c-2.5-0.3-4.4-2.4-4.4-4.9c0-1.5,0.7-2.8,1.7-3.8l3.4-1.2h27.8
		C40.9,7.5,42.1,8,43,9C43.2,9.1,43.3,9.2,43.4,9.4z"/>
	<g>
		<circle class="st2" cx="34" cy="12.5" r="1.5"/>
		<circle class="st2" cx="39.6" cy="12.5" r="1.5"/>
		<line class="st2" x1="10.1" y1="12.5" x2="28.3" y2="12.5"/>
		<circle class="st2" cx="34" cy="24.3" r="1.5"/>
		<circle class="st2" cx="39.6" cy="24.3" r="1.5"/>
		<line class="st2" x1="10.1" y1="24.3" x2="28.3" y2="24.3"/>
		<circle class="st2" cx="34" cy="36.1" r="1.5"/>
		<circle class="st2" cx="39.6" cy="36.1" r="1.5"/>
		<line class="st2" x1="20.4" y1="36.1" x2="28.3" y2="36.1"/>
		<path class="st3" d="M39.5,31.1H18.9c0.3,0.2,0.5,0.6,0.5,1h20.1c2.2,0,4,1.8,4,4c0,2.2-1.8,4-4,4H18.6c-0.1,0.1-0.2,0.2-0.3,0.2
			c-0.2,0.1-0.5,0.3-0.8,0.4c-0.1,0.1-0.2,0.3-0.3,0.4h22.3c2.7,0,5-2.2,5-5C44.5,33.4,42.3,31.1,39.5,31.1z"/>
		<path class="st3" d="M44.5,24.3c0,2.5-1.9,4.7-4.4,4.9c-0.2,0-0.4,0-0.6,0H16.8c-0.1-0.1-0.2-0.2-0.2-0.2c-1-0.5-2-0.7-3.1-0.8h26
			c0.2,0,0.4,0,0.6,0c0.5-0.1,1-0.3,1.5-0.5c0.2-0.1,0.3-0.2,0.4-0.3c0.1-0.1,0.2-0.1,0.2-0.2c0.2-0.2,0.4-0.4,0.5-0.6
			c0.1-0.1,0.1-0.2,0.2-0.3c0.4-0.6,0.6-1.3,0.6-2c0-0.2,0-0.5-0.1-0.7c0-0.1,0-0.2-0.1-0.3c0-0.1-0.1-0.2-0.1-0.3
			c0-0.1-0.1-0.1-0.1-0.2c0-0.1-0.1-0.1-0.1-0.2c0,0,0-0.1,0-0.1c0,0,0-0.1-0.1-0.1c0-0.1-0.1-0.2-0.2-0.3c-0.3-0.5-0.8-0.9-1.3-1.1
			c-0.1-0.1-0.2-0.1-0.3-0.2c-0.1-0.1-0.2-0.1-0.3-0.1c-0.2-0.1-0.5-0.2-0.7-0.2c-0.2,0-0.4,0-0.6,0H11.6c-0.2,0-0.4,0-0.6,0
			c-0.1,0-0.2,0-0.3,0.1c-0.1,0-0.2,0-0.3,0.1c-0.1,0-0.2,0.1-0.3,0.1c-0.1,0-0.2,0.1-0.3,0.2c-0.3,0.2-0.5,0.3-0.8,0.6
			c-0.2,0.2-0.5,0.5-0.6,0.8c-0.1,0.1-0.2,0.3-0.2,0.4c0,0.1-0.1,0.2-0.1,0.3c0,0.1-0.1,0.2-0.1,0.3c0,0.1-0.1,0.2-0.1,0.3
			c-0.1,0.2-0.1,0.5-0.1,0.7c0,0.5,0.1,1,0.3,1.4C7.9,25.8,8,25.9,8,26c0,0.1,0.1,0.2,0.2,0.3c0,0.1,0.1,0.2,0.2,0.3
			c0.1,0.1,0.1,0.2,0.2,0.3c0.2,0.2,0.4,0.4,0.6,0.6c0.2,0.1,0.4,0.3,0.6,0.4c0.4,0.2,0.9,0.4,1.4,0.4c-0.1,0-0.1,0-0.2,0
			c-0.3,0-0.5,0-0.8,0c-0.3,0-0.6,0.2-0.8,0.4c-1.6-0.8-2.7-2.5-2.7-4.4c0-0.6,0.1-1.1,0.3-1.6C7,22.4,7.1,22.2,7.2,22
			c0.7-1.4,2.1-2.5,3.8-2.7c0.2,0,0.4,0,0.6,0h27.9c0.2,0,0.4,0,0.6,0c1.7,0.2,3.1,1.2,3.8,2.7C44.3,22.7,44.5,23.5,44.5,24.3z"/>
		<path class="st3" d="M43.4,9.4c-0.1-0.1-0.2-0.3-0.3-0.4c-0.9-0.9-2.2-1.5-3.5-1.5H11.6c-1.2,0-2.4,0.5-3.3,1.2
			c-1,0.9-1.7,2.3-1.7,3.8c0,2.5,1.9,4.6,4.4,4.9c0.2,0,0.4,0.1,0.6,0.1h27.9c0.2,0,0.4,0,0.6-0.1c2.5-0.3,4.4-2.4,4.4-4.9
			C44.5,11.3,44.1,10.2,43.4,9.4z M43.4,13.5c0,0.1-0.1,0.2-0.1,0.4c0,0.1-0.1,0.2-0.1,0.3c-0.1,0.2-0.2,0.5-0.4,0.7
			c-0.1,0.1-0.1,0.2-0.2,0.3c-0.1,0.1-0.1,0.2-0.2,0.2c-0.2,0.2-0.5,0.5-0.8,0.6c-0.1,0.1-0.2,0.1-0.3,0.2c-0.1,0-0.2,0.1-0.3,0.1
			c-0.1,0-0.2,0.1-0.3,0.1c-0.1,0-0.2,0.1-0.3,0.1c-0.2,0-0.4,0.1-0.6,0.1H11.6c-0.2,0-0.4,0-0.6-0.1c-0.1,0-0.2,0-0.3-0.1
			c-0.1,0-0.2-0.1-0.3-0.1c-0.1,0-0.2-0.1-0.3-0.1c-0.1,0-0.2-0.1-0.3-0.2c-0.3-0.2-0.6-0.4-0.8-0.6c0,0-0.1-0.1-0.1-0.1
			c0,0-0.1-0.1-0.1-0.1c-0.1-0.1-0.1-0.2-0.2-0.3c-0.1-0.1-0.1-0.2-0.2-0.3c-0.1-0.1-0.1-0.2-0.2-0.3C8,14.1,7.9,14,7.9,13.9
			c-0.1-0.1-0.1-0.2-0.1-0.4c0-0.1,0-0.2-0.1-0.3c-0.1-0.2-0.1-0.5-0.1-0.7c0-2.2,1.8-4,4-4h27.9c0.9,0,1.8,0.3,2.5,0.9
			c0.1,0.1,0.3,0.2,0.4,0.4c0.7,0.7,1.1,1.7,1.1,2.7c0,0.2,0,0.5-0.1,0.7C43.4,13.3,43.4,13.4,43.4,13.5z"/>
		<g>
			<path class="st3" d="M39.5,8.5c0.9,0,1.8,0.3,2.5,0.9c0.1,0.1,0.3,0.2,0.4,0.4c0.7,0.7,1.1,1.7,1.1,2.7c0,0.2,0,0.5-0.1,0.7
				c0,0.1,0,0.2-0.1,0.3c0,0.1-0.1,0.2-0.1,0.4c0,0.1-0.1,0.2-0.1,0.3c-0.1,0.2-0.2,0.5-0.4,0.7c-0.1,0.1-0.1,0.2-0.2,0.3
				c-0.1,0.1-0.1,0.2-0.2,0.2c-0.2,0.2-0.5,0.5-0.8,0.6c-0.1,0.1-0.2,0.1-0.3,0.2c-0.1,0-0.2,0.1-0.3,0.1c-0.1,0-0.2,0.1-0.3,0.1
				c-0.1,0-0.2,0-0.3,0.1v4c0.2,0,0.5,0.1,0.7,0.2c0.1,0,0.2,0.1,0.3,0.1c0.1,0,0.2,0.1,0.3,0.2c0.5,0.3,0.9,0.7,1.3,1.1
				c0.1,0.1,0.1,0.2,0.2,0.3c0,0,0,0.1,0.1,0.1h0c0,0,0,0.1,0,0.1c0,0.1,0.1,0.1,0.1,0.2c0,0.1,0.1,0.2,0.1,0.2
				c0,0.1,0.1,0.2,0.1,0.3c0,0.1,0.1,0.2,0.1,0.3c0,0.2,0.1,0.5,0.1,0.7c0,0.8-0.2,1.4-0.6,2c-0.1,0.1-0.1,0.2-0.2,0.3
				c-0.2,0.2-0.3,0.4-0.5,0.6c-0.1,0.1-0.1,0.1-0.2,0.2c-0.5,0.4-1.2,0.7-1.9,0.8v4c1,0.2,1.8,0.6,2.4,1.3c0.1,0.1,0.2,0.2,0.2,0.3
				c0.1,0.1,0.1,0.2,0.2,0.3l0.1,0.2c0,0.1,0.1,0.1,0.1,0.2l0.1,0.2c0,0.1,0.1,0.2,0.1,0.3l0.2,1.1c0,2.2-1.8,4-4,4H17.9
				c-0.1,0.1-0.3,0.3-0.4,0.4c0,0,0,0,0,0c-0.1,0.1-0.1,0.1-0.2,0.2c-0.3,0.3-0.6,0.5-1,0.7c0,0-0.1,0.1-0.1,0.1c0,0,0,0,0,0
				c-0.1,0-0.1,0.1-0.2,0.1c-0.4,0.2-0.8,0.4-1.2,0.5c-0.2,0.1-0.4,0.1-0.7,0.2c-0.2,0-0.5,0.1-0.7,0.1c-0.2,0-0.5,0-0.7,0
				c-0.2,0-0.5,0-0.7,0c-0.2,0-0.5-0.1-0.7-0.1c-0.3-0.1-0.6-0.1-0.9-0.2c-0.1,0-0.3-0.1-0.4-0.1c-0.1,0-0.1-0.1-0.2-0.1
				c-0.1-0.1-0.3-0.1-0.4-0.2c-0.1,0-0.1-0.1-0.2-0.1c-0.2-0.1-0.3-0.2-0.5-0.3c0,0,0,0-0.1,0c-0.2-0.1-0.3-0.2-0.5-0.4c0,0,0,0,0,0
				c-0.1-0.1-0.3-0.2-0.4-0.3c-0.1-0.1-0.1-0.1-0.2-0.2c-0.1-0.1-0.1-0.2-0.2-0.2C7.2,40,7.1,39.9,7,39.8c-0.2-0.2-0.4-0.5-0.5-0.7
				c-0.1-0.1-0.2-0.3-0.2-0.4c-0.1-0.2-0.2-0.4-0.2-0.5c0-0.1-0.1-0.2-0.1-0.4c-0.1-0.2-0.1-0.3-0.2-0.5c0-0.2-0.1-0.3-0.1-0.5
				c0-0.2-0.1-0.4-0.1-0.7c0-0.2,0-0.4,0-0.6c0-0.4,0-0.8,0.1-1.3c0-0.1,0-0.2,0-0.2c0.1-0.5,0.2-0.9,0.4-1.3
				c0.1-0.2,0.2-0.4,0.3-0.6c0,0,0,0,0,0c0.1-0.2,0.2-0.4,0.4-0.6c0.1-0.2,0.2-0.3,0.4-0.5c0-0.1,0.1-0.1,0.2-0.2
				c0.4-0.5,0.8-0.9,1.3-1.2c0.1,0,0.1-0.1,0.2-0.1c0,0,0,0,0,0c0.1,0,0.1-0.1,0.2-0.1c0,0,0.1,0,0.1,0c0.1-0.1,0.2-0.1,0.3-0.2
				c0.3-0.2,0.7-0.3,1-0.4c0.1,0,0.2-0.1,0.4-0.1c0.1,0,0.2,0,0.3-0.1v-0.3c-0.4-0.1-0.8-0.2-1.2-0.4c-0.2-0.1-0.4-0.2-0.6-0.4
				c-0.2-0.2-0.4-0.4-0.6-0.6c-0.1-0.1-0.1-0.2-0.2-0.3c-0.1-0.1-0.1-0.2-0.2-0.3C8.1,26.2,8.1,26.1,8,26c0-0.1-0.1-0.2-0.1-0.3
				c-0.2-0.4-0.3-0.9-0.3-1.4c0-0.2,0-0.5,0.1-0.7c0-0.1,0-0.2,0.1-0.3c0-0.1,0.1-0.2,0.1-0.3c0-0.1,0.1-0.2,0.1-0.3
				c0.1-0.1,0.2-0.3,0.2-0.4c0.2-0.3,0.4-0.5,0.6-0.8c0.2-0.2,0.5-0.4,0.8-0.6c0.1,0,0.2-0.1,0.3-0.2c0.1,0,0.2-0.1,0.3-0.1
				c0.1,0,0.2-0.1,0.3-0.1c0.1,0,0.2-0.1,0.3-0.1v-4c-0.1,0-0.2,0-0.3-0.1c-0.1,0-0.2-0.1-0.3-0.1c-0.1,0-0.2-0.1-0.3-0.1
				c-0.1,0-0.2-0.1-0.3-0.2c-0.3-0.2-0.6-0.4-0.8-0.6c0,0-0.1-0.1-0.1-0.1c0,0-0.1-0.1-0.1-0.1c-0.1-0.1-0.1-0.2-0.2-0.3
				c-0.1-0.1-0.1-0.2-0.2-0.3c-0.1-0.1-0.1-0.2-0.2-0.3c0-0.1-0.1-0.2-0.1-0.3c-0.1-0.1-0.1-0.2-0.1-0.4c0-0.1,0-0.2-0.1-0.3
				c-0.1-0.2-0.1-0.5-0.1-0.7c0-2.2,1.8-4,4-4H39.5 M39.5,6H11.6C8,6,5.1,8.9,5.1,12.5c0,0.4,0,0.8,0.1,1.2c0,0.1,0.1,0.3,0.1,0.5
				c0.1,0.2,0.1,0.5,0.2,0.7c0.1,0.1,0.1,0.3,0.2,0.5c0.1,0.2,0.2,0.3,0.2,0.5c0.1,0.2,0.2,0.4,0.3,0.5l0,0c0.1,0.2,0.3,0.3,0.4,0.5
				c0,0,0,0,0.1,0.1c0.1,0.1,0.1,0.1,0.2,0.2l0.1,0.1c0.4,0.4,0.8,0.7,1.3,1c0,0,0.1,0,0.1,0v0.5c0,0-0.1,0-0.1,0.1
				c-0.5,0.3-0.9,0.6-1.2,0.9c-0.4,0.4-0.7,0.8-1,1.2C6,21,5.9,21.2,5.8,21.4c0,0,0,0.1,0,0.1l0,0.1c-0.1,0.1-0.1,0.3-0.2,0.4
				c-0.1,0.2-0.1,0.4-0.2,0.6c0,0.2-0.1,0.3-0.1,0.5c-0.1,0.4-0.1,0.8-0.1,1.2c0,0.8,0.1,1.6,0.4,2.3c0.1,0.2,0.1,0.4,0.2,0.6
				C5.9,27.3,6,27.5,6,27.6c0.1,0.2,0.2,0.3,0.3,0.5c0,0,0,0,0,0c-0.4,0.3-0.7,0.6-1,1c-0.1,0.1-0.2,0.2-0.3,0.3
				c-0.2,0.2-0.3,0.4-0.5,0.6c-0.2,0.3-0.3,0.5-0.5,0.7c0,0.1-0.1,0.1-0.1,0.2c-0.1,0.2-0.2,0.4-0.3,0.6c-0.2,0.5-0.4,1.1-0.6,1.7
				c0,0.2-0.1,0.3-0.1,0.4C3,34.3,3,34.9,3,35.4c0,0.3,0,0.6,0,0.9c0,0.3,0.1,0.6,0.1,0.9c0,0.2,0.1,0.4,0.2,0.7
				c0.1,0.3,0.1,0.5,0.2,0.7c0.1,0.2,0.1,0.4,0.2,0.6c0.1,0.3,0.2,0.5,0.3,0.7c0,0,0,0,0,0.1c0.1,0.2,0.2,0.3,0.3,0.5
				c0.2,0.3,0.4,0.7,0.7,1c0,0,0,0,0,0l0,0c0.1,0.1,0.2,0.2,0.2,0.3c0.1,0.1,0.2,0.3,0.4,0.4c0.1,0.1,0.2,0.2,0.3,0.3
				c0.1,0.1,0.2,0.2,0.4,0.3c0.1,0.1,0.2,0.2,0.3,0.2c0.2,0.1,0.3,0.3,0.5,0.4c0.1,0,0.1,0.1,0.2,0.1c0.2,0.1,0.4,0.2,0.5,0.3
				c0.1,0.1,0.2,0.1,0.3,0.2c0.2,0.1,0.3,0.2,0.5,0.3c0,0,0,0,0.1,0l0.1,0c0.1,0,0.1,0.1,0.2,0.1c0.2,0.1,0.3,0.1,0.5,0.2
				c0.4,0.1,0.8,0.2,1.2,0.3c0.3,0.1,0.6,0.1,1,0.1c0.3,0,0.6,0.1,1,0.1c0.4,0,0.7,0,1-0.1c0.3,0,0.6-0.1,0.9-0.1
				c0.3-0.1,0.6-0.1,0.9-0.2c0,0,0,0,0.1,0c0.6-0.2,1.1-0.4,1.6-0.7c0.1-0.1,0.2-0.1,0.3-0.2c0.1-0.1,0.2-0.1,0.3-0.2
				c0.4-0.2,0.8-0.5,1.1-0.9c0,0,0.1,0,0.1-0.1h20.6c3.6,0,6.5-2.9,6.5-6.5c0-0.1,0-0.2,0-0.4l-0.2-1.1c0,0,0-0.1,0-0.1
				c-0.1-0.3-0.2-0.6-0.2-0.7l-0.1-0.2c0-0.1-0.1-0.1-0.1-0.2l0-0.1l0-0.1c0,0,0-0.1-0.1-0.1l-0.1-0.2c0,0,0,0,0,0
				c-0.1-0.1-0.2-0.3-0.3-0.5c-0.1-0.2-0.2-0.3-0.4-0.5c-0.5-0.6-1.1-1.1-1.8-1.4V30c0.3-0.2,0.6-0.4,0.9-0.6
				c0.2-0.1,0.3-0.3,0.4-0.4c0.2-0.2,0.5-0.5,0.8-0.9c0.1-0.2,0.3-0.4,0.3-0.5c0.6-1,0.9-2.1,0.9-3.3c0-0.4,0-0.8-0.1-1.2
				c0-0.1-0.1-0.3-0.1-0.6c0-0.2-0.1-0.4-0.2-0.6l0-0.1c0-0.1-0.1-0.2-0.1-0.2l0-0.1l0,0c0-0.1-0.1-0.2-0.1-0.2c0,0,0-0.1-0.1-0.1
				c0-0.1-0.1-0.1-0.1-0.2c-0.1-0.1-0.2-0.3-0.3-0.4c-0.6-0.8-1.2-1.4-2.1-1.8c0,0,0,0-0.1,0v-0.5c0,0,0,0,0,0c0,0,0,0,0.1,0
				c0.5-0.3,0.9-0.6,1.3-0.9c0.2-0.2,0.3-0.3,0.4-0.4c0.2-0.2,0.3-0.3,0.4-0.5c0.2-0.3,0.4-0.7,0.6-1c0.1-0.2,0.1-0.3,0.2-0.5
				c0.1-0.2,0.1-0.4,0.2-0.6c0.1-0.2,0.1-0.3,0.1-0.5c0.1-0.4,0.1-0.8,0.1-1.2c0-1.7-0.6-3.3-1.8-4.5c-0.2-0.2-0.3-0.4-0.6-0.5
				c0,0,0,0-0.1,0C42.4,6.5,41,6,39.5,6L39.5,6z"/>
		</g>
		<g>
			<g>
				<path class="st3" d="M12.6,28.3c2.4,0,4.5,1.2,5.8,3c0.8,1.2,1.3,2.5,1.3,4.1c0,1.8-0.7,3.5-1.8,4.7c-0.1,0.2-0.3,0.3-0.4,0.4
					c0,0,0,0,0,0c-0.1,0.1-0.1,0.1-0.2,0.2c-0.3,0.3-0.6,0.5-1,0.7c0,0-0.1,0.1-0.1,0.1c0,0,0,0,0,0c-0.1,0-0.1,0.1-0.2,0.1
					c-0.4,0.2-0.8,0.4-1.2,0.5c-0.2,0.1-0.4,0.1-0.7,0.2c-0.2,0-0.5,0.1-0.7,0.1c-0.2,0-0.5,0-0.7,0c-0.2,0-0.5,0-0.7,0
					c-0.2,0-0.5-0.1-0.7-0.1c-0.3-0.1-0.6-0.1-0.9-0.2c-0.1,0-0.3-0.1-0.4-0.1c-0.1,0-0.1-0.1-0.2-0.1c-0.1-0.1-0.3-0.1-0.4-0.2
					c-0.1,0-0.1-0.1-0.2-0.1c-0.2-0.1-0.3-0.2-0.5-0.3c0,0,0,0-0.1,0c-0.2-0.1-0.3-0.2-0.5-0.4c0,0,0,0,0,0
					c-0.1-0.1-0.3-0.2-0.4-0.3c-0.1-0.1-0.1-0.1-0.2-0.2c-0.1-0.1-0.1-0.2-0.2-0.2C7.2,40,7.1,39.9,7,39.8c-0.2-0.2-0.4-0.5-0.5-0.7
					c-0.1-0.1-0.2-0.3-0.2-0.4c-0.1-0.2-0.2-0.4-0.2-0.5c0-0.1-0.1-0.2-0.1-0.4c-0.1-0.2-0.1-0.3-0.2-0.5c0-0.2-0.1-0.3-0.1-0.5
					c0-0.2-0.1-0.4-0.1-0.7c0-0.2,0-0.4,0-0.6c0-0.4,0-0.8,0.1-1.3c0-0.1,0-0.2,0-0.2c0.1-0.5,0.2-0.9,0.4-1.3
					c0.1-0.2,0.2-0.4,0.3-0.6c0,0,0,0,0,0c0.1-0.2,0.2-0.4,0.4-0.6c0.1-0.2,0.2-0.3,0.4-0.5c0-0.1,0.1-0.1,0.2-0.2
					c0.4-0.5,0.8-0.9,1.3-1.2c0.1,0,0.1-0.1,0.2-0.1c0,0,0,0,0,0c0.1,0,0.1-0.1,0.2-0.1c0,0,0.1,0,0.1,0c0.1-0.1,0.2-0.1,0.3-0.2
					c0.3-0.2,0.7-0.3,1-0.4c0.1,0,0.2-0.1,0.4-0.1C11.3,28.4,11.9,28.3,12.6,28.3 M12.6,27.3c-0.8,0-1.5,0.1-2.2,0.3
					c-0.1,0-0.2,0.1-0.4,0.1c-0.4,0.1-0.8,0.3-1.2,0.5l-0.2,0.1c-0.1,0-0.1,0.1-0.2,0.1c-0.1,0-0.1,0.1-0.2,0.1l0,0c0,0,0,0-0.1,0
					c0,0-0.1,0.1-0.2,0.1c-0.6,0.4-1.1,0.9-1.5,1.4c-0.1,0.1-0.2,0.2-0.2,0.3c-0.2,0.2-0.3,0.4-0.4,0.5c-0.2,0.2-0.3,0.4-0.4,0.6
					c0,0,0,0.1-0.1,0.1c-0.1,0.2-0.2,0.4-0.3,0.6c-0.2,0.5-0.4,0.9-0.5,1.5c0,0.1,0,0.2-0.1,0.3c-0.1,0.5-0.1,0.9-0.1,1.4
					c0,0.2,0,0.5,0,0.7c0,0.3,0.1,0.5,0.1,0.8c0,0.2,0.1,0.4,0.1,0.6c0,0.2,0.1,0.4,0.2,0.6c0,0.2,0.1,0.3,0.2,0.5
					c0.1,0.2,0.2,0.4,0.3,0.6c0.1,0.2,0.2,0.3,0.3,0.5c0.2,0.3,0.4,0.6,0.6,0.8l0.1,0.1c0.1,0.1,0.1,0.2,0.2,0.3
					c0.1,0.1,0.2,0.2,0.3,0.3c0.1,0.1,0.2,0.2,0.2,0.2c0.1,0.1,0.2,0.2,0.4,0.3c0,0,0.1,0.1,0.1,0.1C7.7,41.8,7.8,42,8,42.1
					c0,0,0.1,0.1,0.1,0.1c0.2,0.1,0.3,0.2,0.5,0.3c0.1,0,0.2,0.1,0.2,0.1c0.1,0.1,0.3,0.1,0.4,0.2c0.1,0,0.1,0.1,0.2,0.1
					c0,0,0.1,0,0.1,0C9.7,43,9.8,43,10,43.1c0.3,0.1,0.7,0.2,1,0.3c0.3,0.1,0.6,0.1,0.8,0.1c0.2,0,0.5,0,0.8,0c0.3,0,0.6,0,0.9,0
					c0.2,0,0.5-0.1,0.8-0.1c0.2,0,0.5-0.1,0.7-0.2c0.6-0.2,1-0.4,1.4-0.6c0.1,0,0.2-0.1,0.3-0.1c0.1,0,0.2-0.1,0.2-0.2
					c0.4-0.2,0.7-0.5,1-0.8c0.1-0.1,0.2-0.1,0.3-0.2l0,0c0,0,0,0,0,0c0.2-0.1,0.3-0.3,0.5-0.5c1.3-1.4,2-3.4,2-5.3
					c0-1.7-0.5-3.3-1.5-4.7C17.8,28.6,15.3,27.3,12.6,27.3L12.6,27.3z"/>
			</g>
			<g>
				<line class="st4" x1="16.2" y1="36.7" x2="16.2" y2="39.3"/>
				<line class="st4" x1="9" y1="35.1" x2="9" y2="39.3"/>
				<line class="st4" x1="12.6" y1="32.4" x2="12.6" y2="40.8"/>
			</g>
		</g>
	</g>
</g>
</svg>
