<svg xmlns="http://www.w3.org/2000/svg" id="Camada_1" x="0" y="0" version="1.1" viewBox="0 0 50 50" xml:space="preserve"><style>.st4{fill:none;stroke:#031326;stroke-width:1.5;stroke-linecap:round;stroke-linejoin:round;stroke-miterlimit:10}</style><path fill="#dc5e82" d="M47.7 26.2l.4 4.3L1.9 47.3l.2-9.1.3-5.2 46-16.7-.7 3.7z"/><path fill="#f56991" d="M47.7 9.6l-.5 7.7L2.1 33.7v-9.8l.3-4.4L47.8 3z"/><path fill="none" stroke="#031326" stroke-linecap="round" stroke-linejoin="round" stroke-miterlimit="10" stroke-width="2.5" d="M33 48.1H1.7V1.7h46.7v35.9"/><path fill="#031326" d="M16.8 23.6v4.6c.7 1.2 1.6 2.2 2.8 2.9v-7.5h-2.8zm5.4-3.9v12.4c.5.1 1 .1 1.5.1s.9 0 1.3-.1V19.7h-2.8zm5.8 5.8V31c1.2-.7 2.1-1.8 2.8-3v-2.5H28z"/><path d="M38.3 38.3l-6-6" class="st4"/><circle cx="23.8" cy="23.8" r="12" class="st4"/></svg>