<svg xmlns="http://www.w3.org/2000/svg" id="Layer_1" x="0" y="0" version="1.1" viewBox="0 0 50 50" xml:space="preserve"><style>.st3{fill:none;stroke:#444;stroke-miterlimit:10}</style><path fill="#afe55d" d="M7.6 37.6l5.5 3.2 32.7-18.1-.1-7.1c0-1.6-.8-3.1-2.2-3.9l-15.7-9c-1.4-.8-3.1-.8-4.4 0L7.6 11.8c-1.4.8-2.2 2.3-2.2 3.9v18.1c0 1.5.8 3 2.2 3.8z"/><path fill="#c3ff68" d="M34.1 6.4l-6.4-3.7c-1.4-.8-3.1-.8-4.4 0L7.6 11.8c-1.4.8-2.2 2.3-2.2 3.9l-.3 7.7 29-17z"/><path fill="#444" d="M25.4 48.5c-1 0-2-.3-2.8-.8l-15.7-9c-1.7-1-2.8-2.9-2.8-4.9V15.7c0-2 1.1-3.9 2.8-4.9l15.7-9.1c1.7-1 3.9-1 5.6 0L44 10.8c1.7 1 2.8 2.9 2.8 4.9V29c0 .7-.5 1.2-1.2 1.2s-1.2-.5-1.2-1.2V15.7c0-1.2-.6-2.2-1.6-2.8L27.1 3.8c-1-.6-2.3-.6-3.3 0L8.1 12.9c-1 .6-1.6 1.7-1.6 2.8v18.1c0 1.2.6 2.2 1.6 2.8l15.7 9.1c1 .6 2.3.6 3.3 0l4.3-2.5c.6-.3 1.3-.1 1.6.4.3.6.1 1.3-.4 1.6l-4.3 2.5c-.9.6-1.9.8-2.9.8z"/><circle cx="24.9" cy="12.8" r="1.8" class="st3"/><circle cx="24.9" cy="18.6" r="1.2" class="st3"/><circle cx="31.6" cy="16.7" r="1.2" class="st3"/><circle cx="19.1" cy="18.6" r="1.2" class="st3"/><circle cx="36" cy="12.3" r="1.2" class="st3"/><circle cx="14.8" cy="22.8" r="1.2" class="st3"/><circle cx="24.9" cy="26.2" r="1.2" class="st3"/><circle cx="29.4" cy="31.5" r="1.2" class="st3"/><circle cx="20.9" cy="31.6" r="1.2" class="st3"/><circle cx="29.3" cy="38.9" r="1.2" class="st3"/><circle cx="20.9" cy="38.9" r="1.2" class="st3"/><path d="M18.4 19.5l-2.8 2.8m19.3-8.9l-2.4 2.4m-7.6 3.7v5.7m0-10.7v3.2m-4.6.9h3.4m2.5 0l4.3-1.4m-9.6 20.6v-4.9m0-2.5l3.1-3.2m5.1 3L26 27.1m3.4 10.6v-4.9" class="st3"/></svg>