<svg xmlns="http://www.w3.org/2000/svg" id="Layer_1" x="0" y="0" version="1.1" viewBox="0 0 50 50" xml:space="preserve"><style>.st2{fill:none;stroke:#494949;stroke-width:.5;stroke-linecap:round;stroke-linejoin:round;stroke-miterlimit:10}</style><path fill="#46b8b0" d="M38.7 10.3l-1.3.5-.9.3-7.8 2.8-6.8 2.5-3.2 1.3-5.7 2-4.6 1.7h-.1l.4.4 4.9 5 .2 3.7 1 3.3 2.5-.8 4.9-1.8 6.5-2.5 3.4-1.2 2-.7 3.7-1.4 1.6-.6.8-2.5 1-7.2-.5-2.6-1.6-1.8z"/><path fill="#4ecdc4" d="M38.8 10.3L34 4.8l-9.8-1.5-5.7.6-.5.2-8.9 6.1-.3 10.3.6.5.4.4h.2l4.6-1.7 5-1.9 3.1-1.1 6.5-2.4 7.4-2.7 1.2-.4 1.4-.5z"/><path d="M39.5 24.3l-.3.9.9 3.4-.2 1.9-3.7 11.4-2.3 4.4-6.1.4-8.9-3.9-3.2-9.8-1-3.2-.2-3.6-.1-1.3-4.4-3.5-.5-.4-.7-.5.3-10.3L18 4.1l.2-.2h.3l5.7-.6L34 4.8l4.8 5.5.4.4 1.5 1.7.5 2.5-1 7z" class="st2"/><path d="M9.1 10.2l6-.3 6.3 3.2 2.8 7.5-2.2 3.7-1.1 3.4 6.8 9.9 8.8.1 3.6-9.1" class="st2"/><path d="M33.9 46.3l2.6-8.6-1.2-3.9-6.5-.2m-7.9-5.9l-3 2.1 1 13m-1-13l-3.5-4.9 7.6-.6-8.1-5-5.1 1.2" class="st2"/><path d="M13.9 19.3l1.2-9.4 9.1-6.6 4 5.8 2 10.4 1.7 2.4L33 33.1l2.4.2-1.7-11.2 2.7-2 .3-10.2L34 4.8" class="st2"/><path d="M41.2 14.9l-4.5-5-8.5-.8-6.8 4-2.6 2.5 3.2 8.7 7.4-.2 2.5-2.2 1.8.2m.3 2.2l5.2.9m-9.8-1.1l-.6 9.5 4.2-.5m-4.2.5l-1.1 4 .1 9.1m7.6-13.4l-.1.5" class="st2"/><path d="M24.2 20.6l6.1-1 6.1.5 3.8 1.8" class="st2"/><path fill="#494949" d="M24.2 3.3L34 4.8l4.8 5.5.4.4 1.5 1.7.5 2.5-.9 7-.7 2.4-.2.8.9 3.4-.2 1.9-3.7 11.5-2.3 4.4-6.1.4-8.9-3.9-3.4-9.8-1.1-3.2-.2-3.5-4.7-4.8-.3-.5-.6-.6.3-10.3 8.9-6 .2-.1h.2l5.8-.7m0-2.5h-.3l-5.7.6h-.3c-.4 0-.7.2-1.1.4l-.2.2-8.9 6.1c-.7.5-1.1 1.2-1.1 2l-.3 10.3c0 .7.2 1.3.7 1.8l.6.6.4.4 4 4.1.1 2.6c0 .2.1.4.1.7l1.1 3.3 3.2 9.7c.2.7.7 1.2 1.4 1.5l8.9 3.9c.3.1.7.2 1 .2h.1l6.1-.4c.9-.1 1.7-.6 2.1-1.3l2.3-4.4c.1-.1.1-.3.2-.4l3.7-11.5c0-.1.1-.3.1-.5l.2-1.9c0-.3 0-.6-.1-.9l-.7-2.7.1-.2.7-2.4c0-.1.1-.3.1-.4l.9-7v-.8l-.5-2.5c-.1-.4-.3-.9-.6-1.2L41.1 9l-.4-.4-4.8-5.4c-.4-.4-.9-.7-1.5-.8L24.5.9c-.1-.1-.2-.1-.3-.1z"/></svg>