<svg xmlns="http://www.w3.org/2000/svg" id="Layer_1" x="0" y="0" version="1.1" viewBox="0 0 50 50" xml:space="preserve"><style>.st3{fill:none;stroke:#494949;stroke-linecap:round;stroke-linejoin:round;stroke-miterlimit:10}</style><path fill="#fcc34f" d="M45.8 17.3v10.5l-2.3.9-8.1 2.9-5.7 2.1-3.6 1.3-5.6 2-8 2.9-2.8 1-3-1.7c-1.7-1-2.8-2.7-2.8-4.7v-7.2l2.3-.9 10-3.7 13.2-4.8L40.8 14l2.8-1c.2.1.3.3.5.4 1.1 1 1.7 2.4 1.7 3.9z"/><path fill="#fdcf72" d="M44.1 13.3l-2.6 1-11.3 4.1-7 2.6-2 .7-5 1.8-9.8 3.6L4 28V17.3c0-1.9 1.1-3.7 2.8-4.7l5.7-3.9C15.7 6.8 18.8 5 22 3.2c.5-.3 1.7-.9 3.4-.8 1.3.1 2.3.6 2.7.9 5 3.1 9.9 6.2 14.9 9.4.2.1.4.2.5.3.3.1.4.2.6.3z"/><path fill="#444" d="M47.2 15.8v13.5c0 .7-.6 1.2-1.2 1.2-.7 0-1.2-.5-1.2-1.2V15.8c0-1.2-.6-2.3-1.7-2.9l-.5-.3-.7-.4-15.2-8.4c-1-.6-2.3-.6-3.4 0L7 12.9c-1 .6-1.7 1.7-1.7 2.9v18.4c0 1.2.7 2.3 1.7 2.9l4.9 2.8 11.4 6.4c1 .6 2.3.6 3.4 0l4.5-2.5c.6-.3 1.3-.1 1.7.5.3.6.1 1.3-.5 1.7l-4.5 2.5c-.9.4-1.9.6-2.9.6s-2-.2-2.9-.8L8.9 40.9l-3.2-1.8c-1.8-1-2.9-2.9-2.9-4.9V15.8c0-2 1.1-3.9 2.9-5l7-3.9 9.4-5.3c1.7-1 3.8-1 5.6-.1.1 0 .2.1.3.1l16.3 9.2c.2.1.4.2.5.4.2.1.4.3.5.4 1.2 1.1 1.9 2.6 1.9 4.2z"/><path d="M21 32.6l-2.1-1.2 2.1-1.2m1.9-1.1l2.1-1.2 2.1 1.2m1.9 1.1l2.1 1.2-2.1 1.2m-1.9 1.1L25 34.9l-2.1-1.2m7.8-9.3h4.1m-19.6 0h4.1m-.4-9.4v7l6.1 3.6 6.1-3.6v-7L25 11.5zm6.1 3.5L18.9 15m6.1 3.5l6.1-3.5M25 18.5v7.1" class="st3"/><path d="M11.5 36V21.9c0-1.4 1.1-2.5 2.5-2.5h1.2v14.1H14c-1.4.1-2.5 1.2-2.5 2.5 0 1.4 1.1 2.5 2.5 2.5h22c1.4 0 2.5-1.1 2.5-2.5s-1.1-2.5-2.5-2.5h-1.2v-14H36c1.4 0 2.5 1.1 2.5 2.5v14" class="st3"/></svg>