<svg xmlns="http://www.w3.org/2000/svg" id="Layer_1" x="0" y="0" version="1.1" viewBox="0 0 50 50" xml:space="preserve"><style>.st2{fill:#031326}</style><path fill="#46b8b0" d="M6.5 38.5l2.2.9 38.2-13.8-1-9.8c0-1.6-.9-3.2-2.3-4L27.3 2.4c-1.4-.8-3.2-.8-4.6 0L6.5 11.8c-1.4.8-2.3 2.3-2.3 4v18.7c0 1.6.8 3.2 2.3 4z"/><path fill="#4ecdc4" d="M36 7.4l-8.7-5c-1.4-.8-3.2-.8-4.6 0L6.5 11.8c-1.4.8-2.3 2.3-2.3 4V19L36 7.4z"/><path d="M25 49.7c-1 0-2-.3-2.9-.8L5.9 39.6c-1.8-1-2.9-3-2.9-5V15.8c0-2.1 1.1-4 2.9-5l16.2-9.4c1.8-1 4-1 5.8 0l16.2 9.4c1.8 1 2.9 3 2.9 5v13.8c0 .7-.6 1.2-1.2 1.2-.7 0-1.2-.6-1.2-1.2V15.8c0-1.2-.6-2.3-1.7-2.9L26.7 3.5c-1-.6-2.3-.6-3.4 0L7.1 12.8c-1 .6-1.7 1.7-1.7 2.9v18.7c0 1.2.6 2.3 1.7 2.9l16.2 9.4c1 .6 2.3.6 3.4 0l4.5-2.6c.6-.3 1.3-.1 1.7.5.3.6.1 1.3-.5 1.7l-4.5 2.6c-.9.5-1.9.8-2.9.8z" class="st2"/><circle cx="26.8" cy="27.7" r="4.7" class="st2"/><path d="M26.8 16.8c-.9 0-1.8.1-2.7.3l-8.4-4.8c-.4-.2-.8-.1-1 .3-.2.4-.1.8.3 1l6.9 3.9H11c-.4 0-.8.3-.8.8 0 .4.3.8.8.8h8.2l-8.7 7.1c-.3.3-.4.7-.1 1.1.1.2.4.3.6.3.2 0 .3-.1.5-.2l5.5-4.5c-.8 1.5-1.2 3.2-1.2 5 0 6.1 4.9 11 11 11s11-4.9 11-11c0-6.2-4.9-11.1-11-11.1zm0 20.4c-5.2 0-9.5-4.3-9.5-9.5s4.3-9.5 9.5-9.5 9.5 4.3 9.5 9.5c0 5.3-4.3 9.5-9.5 9.5z" class="st2"/></svg>