<svg xmlns="http://www.w3.org/2000/svg" id="Layer_1" x="0" y="0" version="1.1" viewBox="0 0 50 50" xml:space="preserve"><style>.st2{fill:#031326}</style><switch><g><path fill="#f0cd77" d="M34.1 2.5L3.6 6.1l.5 19.3 41.5-15.1z"/><path fill="#ecc158" d="M46.7 11l-1.1-.7L4.1 25.4l.2 11.2L9.2 42l37.2-13.6z"/><path d="M24.8 34.3l5.4-.7-.1 5.2-5.3 1z" class="st2"/><path d="M34.3.7L2 4.6l.7 32.3 11.2 12.3 1.7-.3.1.1v-.1l21.8-4.4c.7-.1 1.1-.8 1-1.5-.1-.7-.8-1.1-1.5-1l-1.4.3.1-3.6 5.1-1 .1-4.9 4.3-.9V34c0 .7.5 1.3 1.2 1.3s1.3-.5 1.3-1.2L48 10 34.3.7zm10 9.8l-29.2 3.8-9.3-7.6 27.9-3.3 10.6 7.1zM4.9 7.8l9.3 7.6v29.7l-8.6-9.4-.7-27.9zm10.8 22.9l4.1-.8v5l-4.1.5v-4.7zm0-5.6v-4.7l4.1-.8v5l-4.1.5zm4.7-10l4.3-.6v4.1l-4.4.6.1-4.1zm5 3.8L30 18l.1-4.1 5.1-.7v4.2l-5.2.7v5.2l-4.7.6.1-5zm-5.5 26.6l-4.2.8v-5.2l4.2-.8v5.2zm.5-20.6l4.3-.9v5l-4.4.6.1-4.7zm19.8-2.8l-5 .7v5l-5.2.7v5.7l5.5-1.1.1-4.7 4.6-.9v5l-5 .6v5l-5.2.7v4.7l-4.7.9.1-5.1-5 .7.1-4.7 4.9-1 .1-5 4.6-.9.1-4.7 5.4-1.1.1-4.7 4.6-.9v5.1zm5 4.5l-4.5.6.1-4.7 4.5-.9-.1 5zm.2-10.4l-4.7.6.1-4.3 4.7-.6-.1 4.3z" class="st2"/></g></switch></svg>