<svg xmlns="http://www.w3.org/2000/svg" version="1" viewBox="0 0 50 50"><path fill="#FCC34F" d="M43.356 18.592l-6.479 8.013c-.07.124-.186.263-.31.372-.403.395-.953.605-1.581.605-.604 0-1.279-.209-1.945-.597a6.767 6.767 0 01-1.403-1.101l-4.805 2.744c.512 1.271.775 2.612.775 3.991 0 1.372-.248 2.689-.752 3.937l4.348 2.612a6.608 6.608 0 011.279-.984c.667-.387 1.341-.589 1.953-.589.713 0 1.318.263 1.744.767l.023.031-7.425 2.705-3.395-1.976a10.63 10.63 0 01-8.401 4.123c-5.851 0-10.617-4.766-10.617-10.625a10.57 10.57 0 012.883-7.277 10.61 10.61 0 016.316-3.255v-7.262h-2.038c-.333 0-.643-.163-.845-.426a1.03 1.03 0 01-.147-.922l3.464-11.02a1.04 1.04 0 01.992-.728c.449 0 .853.294.984.721l3.464 11.028c.101.31.047.651-.147.922a1.058 1.058 0 01-.845.426h-2v7.277a10.47 10.47 0 016.952 4.022l4.611-2.627c-.31-.729-.481-1.449-.481-2.108 0-1.054.419-1.868 1.17-2.278.209-.124.473-.217.767-.263l10.889-1.976c.093-.031.201-.031.24-.031.411 0 .783.248.945.628.173.377.096.811-.183 1.121z"/><path fill="#FDCF72" d="M18.447 22.103c2.1.287 4.007 1.162 5.549 2.526L6.489 31a10.514 10.514 0 012.759-5.658 10.61 10.61 0 016.316-3.255v-7.262h-2.038c-.333 0-.643-.163-.845-.426a1.03 1.03 0 01-.147-.922l3.464-11.02a1.04 1.04 0 01.992-.728c.449 0 .853.294.984.721l3.464 11.028c.101.31.047.651-.147.922a1.058 1.058 0 01-.845.426h-2v7.277zm25.11-4.596l-13.864 5.045a4.444 4.444 0 01-.163-1.162c0-1.054.419-1.868 1.17-2.278.209-.124.473-.217.767-.263l10.889-1.976c.093-.031.201-.031.24-.031.411 0 .783.248.945.628.009.014.009.022.016.037z"/><path fill="#031326" d="M32.295 28.27c1.933 1.124 4.013 1.035 5.271-.195.2-.183.383-.397.515-.603l6.363-7.876c.689-.748.865-1.79.459-2.72a2.523 2.523 0 00-2.855-1.456l-10.81 1.965c-.486.077-.935.235-1.25.428-1.232.675-1.938 1.979-1.938 3.576 0 .456.06.936.175 1.421l-1.356.772-1.151.657c-.021-.021-.21-.218-.231-.238a11.992 11.992 0 00-5.555-3.124v-4.571h.517a2.53 2.53 0 002.039-1.034 2.483 2.483 0 00.37-2.243L19.389 1.996A2.512 2.512 0 0016.988.25a2.522 2.522 0 00-2.405 1.76L11.12 13.026a2.49 2.49 0 00.371 2.25 2.538 2.538 0 002.037 1.029h.556v4.561c-2.25.56-4.32 1.765-5.912 3.46a12.046 12.046 0 00-3.287 8.291c0 6.676 5.428 12.107 12.1 12.107 3.27 0 6.454-1.369 8.717-3.707l2.02 1.176a6.202 6.202 0 00-.222 1.592c0 2.064 1.207 3.628 3.083 3.984l10.715 1.959a1.25 1.25 0 00.45-2.458L31.04 45.314c-.905-.173-1.041-1.031-1.041-1.527 0-.498.134-1.074.387-1.664.326-1.001 1.314-2.324 2.604-3.054 1.002-.578 1.949-.597 2.417-.047a1.25 1.25 0 001.905-1.619c-1.27-1.493-3.509-1.695-5.582-.492a7.173 7.173 0 00-.687.461l-2.45-1.415c.328-1.126.5-2.263.5-3.338 0-1.129-.154-2.237-.458-3.308l2.82-1.61c.276.215.56.407.84.569zm-1.057-4.436l1.898-1.085c.06-.034.08-.11.046-.17a.124.124 0 00-.171-.046L31.144 23.6l-.265-.665c-.216-.542-.33-1.076-.33-1.545 0-.471.111-1.093.688-1.412a1.24 1.24 0 01.42-.128l.484-.087c.374.053.783.201 1.204.446 1.685.979 3.056 3.141 3.056 4.82 0 .242-.035.458-.092.655l-.226.28-.106.155a1.002 1.002 0 01-.131.14c-.447.438-1.392.378-2.298-.15a5.728 5.728 0 01-1.08-.83l-.399-.385 1.729-.988c.06-.034.08-.11.046-.17a.124.124 0 00-.171-.046l-1.792 1.024-6.04 3.407a15.33 15.33 0 00-.522-.907l5.919-3.38zm5.395 1.45c.007-.085.019-.166.019-.256 0-1.758-1.427-4.018-3.181-5.036a4.11 4.11 0 00-.735-.337l9.874-1.778-5.977 7.407zm-6.145 15.808l-5.437-3.175-5.894-3.431a.125.125 0 00-.171.046.125.125 0 00.045.171l5.861 3.412-.422.525a9.69 9.69 0 01-7.486 3.586c-5.293 0-9.6-4.31-9.6-9.607 0-2.456.926-4.792 2.608-6.578a9.652 9.652 0 015.532-2.916l.659-.102v2.932a.125.125 0 00.25 0v-2.971l.005-9.179-2.935-.026 3.503-11.026 3.441 11.053H17.17a.125.125 0 000 .25l.343-.003.003 8.931v2.972a.125.125 0 00.25 0v-2.933l.723.112a9.516 9.516 0 015.991 3.471c.585.78 1.1 1.62 1.477 2.577a9.546 9.546 0 01.634 3.436c0 1.1-.234 2.298-.678 3.466l-.247.651-5.843-3.405a.127.127 0 00-.171.046.125.125 0 00.045.171l5.878 3.425s5.599 3.166 5.594 3.171c-.173.214-.532.717-.681.948z"/></svg>