<svg xmlns="http://www.w3.org/2000/svg" id="Layer_1" x="0" y="0" version="1.1" viewBox="0 0 50 50" xml:space="preserve"><style>.st2,.st3{fill:none;stroke:#444;stroke-linecap:round;stroke-linejoin:round;stroke-miterlimit:10}.st3{stroke-width:.25}</style><path fill="#b9d7d9" d="M26 4.13c-.95-.12-5.07-2.55-6.06-2.55-.98 0-3.91 8.77-4.86 8.8-6.05.2-7.15.43-8.98 9.94L38.77 8.69c-3.23-2.7-8.39-4-12.77-4.56z"/><path fill="#a6c1c2" d="M38.77 8.69L6.1 20.32 2.05 31.36c-.27 1.39 6.98 5.43 6.98 6.9 0 6.98-4.23 1.02.73 5.17l25.54-9.09 5.05-2.81c.27-1.39 6.77-12.44 6.77-13.91 0-3.14-3.38-4.78-8.35-8.93z"/><path d="M20.54 26.46L26 20.15l-12.12-3.1-1.02 3.52 2.72 2.38" class="st2"/><path d="M27.52 21.2L26 20.15l-5.46 6.31 1.71.56M19.43 2.46l15.31 5.46L26 20.15z" class="st2"/><path d="M38.06 28.29l2.09 1.64 7.36-13.01L26 20.15l1.58 1.1m-13.7-4.2L26 20.15 19.43 2.46z" class="st2"/><path d="M34.74 7.92l12.77 9L26 20.15l8.74-12.23z" class="st2"/><path d="M13.79 13.79l.05-.85s.04-1.31-1.18-1.58c-1.54-.34-2.12.96-2.12.96s-1.69 3.3-2.75 9.07-4.9 9.83-4.9 9.83l6.79 6.13c.97-.97 1.71-1.44 1.71-1.44m19.07 1.86l6.29-6.38s1.52-1.34.36-2.5c-.89-.89-2.05.08-2.05.08l-4.91 4.6 6.92-6.58s1.33-1.31.13-2.46c-1.14-1.1-2.63.52-2.63.52" class="st3"/><path d="M28.29 31.45l6.3-6.41 1.59-1.62s.94-1.18-.24-2.09c-.98-.76-2.15.18-2.15.18L26 29.44l5.95-6.01s1.24-1.53.06-2.56c-.98-.86-2.49.47-2.49.47s-7.88 7.98-9.05 8.91c-1.98 1.56-1.41-1.04-1.41-1.04l.75-3.8s.46-2.17-1.23-2.52c-1.82-.38-2.42 1.82-2.42 1.82s-2.28 6.95-3.29 10.11-3.83 7.32-3.83 7.32" class="st3"/><path fill="none" stroke="#444" stroke-linecap="round" stroke-linejoin="round" stroke-miterlimit="10" stroke-width="2.5" d="M11.38 46l-3.79-3.97c-.6-.57 1.45-.97 1.75-3.49l-7.79-7.29s4.49-6.28 4.79-9.1 2.7-9.81 2.7-9.81 1.05-2.88 3.83-2.1c1.9.53 1.89 1.36 1.89 1.36l4.29-10.36 16.29 5.95 13.13 9.45-8.11 14.88-3.82 1.86s-9.95 9.65-12.66 11.65"/><path fill="none" stroke="#444" stroke-linecap="round" stroke-linejoin="round" stroke-miterlimit="10" stroke-width=".75" d="M12.86 20.57l1.65-9.26h.57l-1.04 4.01"/><path fill="#444" stroke="#444" stroke-linecap="round" stroke-linejoin="round" stroke-miterlimit="10" stroke-width=".25" d="M9.16 37.53l3.7-2.72-2.54 4.87-.28-1.21-.88-.94"/></svg>