<svg xmlns="http://www.w3.org/2000/svg" id="Layer_1" x="0" y="0" version="1.1" viewBox="0 0 50 50" xml:space="preserve"><style>.st2{fill:#031326}</style><path fill="#b292f3" d="M38.3 7L25.7 2.7 13 5.8l-8.6 9.8-.7 4.6 35-12.7z"/><path fill="#9674ea" d="M47.5 26.4l-2.3-8.9-1.6-3.7-4.9-6.3-35 12.7-1.2 9.1 3.9 8.3 5.1 4.3 35-12.8z"/><path d="M37.3 27l-5-17.5 13.3 7.9-8.3 9.6zm-4.2-16.4L37.5 26l7.3-8.4-11.7-7z" class="st2"/><path d="M33.3 10.3l-18.6-.8 11-7.1 7.6 7.9zm-17-1.2l15.8.7L25.6 3l-9.3 6.1z" class="st2"/><path d="M15.5 9.6l-2.9-3.9L27 2.1 15.5 9.6zM13.4 6l2.2 2.9 8.7-5.6L13.4 6z" class="st2"/><path d="M8.6 25.7L4 15.5l12-6.9-7.4 17.1zm-3.9-10l3.9 8.7L15 9.9 4.7 15.7z" class="st2"/><path d="M9.6 40.7L8.3 24.5l14.5 11.9-13.2 4.3zm-.7-15L10 40.1l11.7-3.8L8.9 25.7z" class="st2"/><path d="M36.6 42l-14.9-5.6 16-10.4-1.1 16zm-13.8-5.7l13.4 5 1-14.4-14.4 9.4z" class="st2"/><path d="M35.6 42.3l10.7-11.9-3.1 9.3h-.1l-7.5 2.6zm9.4-9.9l-7.8 8.7 5.5-2 2.3-6.7z" class="st2"/><path d="M31.3 47.6l-9.5-.9 15.5-5.6-6 6.5zm-7.2-1.2l7 .7 4.4-4.8-11.4 4.1z" class="st2"/><path d="M46.4 17.2l-1.6-3.9L39 5.9 25.7 1.4 12.3 4.7 3.2 15.1l-2 14.4 4.2 8.9 11.2 9.5 6.3-.1 8.7.8L44 40.2l4.8-13.7-2.4-9.3zM20.9 45.3l-7.7-3.6-1.8-1.5L22 36.7v.1l.6 8.5h-1.7zM8.2 25.1L3.9 28l1.3-9.8 3 6.7v.2zm-2.8-7.8l.2-1.2 1.7-1.9L15 9.9 8.6 24.5l-3.2-7.2zm10.2-7.5l6.8 10.3L9 24.7l6.6-14.9zM37.5 8l5 6.4.7 1.6-10-6 1.1-.6 2.8-1.5.4.1zm-4.6 1.7v-.1l-.1.1L28 4.8l8.4 2.9-3.5 2zM16 9.5l16.1.7-6.6 6.8-2.7 2.8L16 9.5zm6.5 11.1L22 35.8 9.1 25.2l13.4-4.6zm.5 0l6.2 2.6 7.7 3.3-14.4 9.4.5-15.3zm6.3 2.1l-6.1-2.6 2.8-2.8 6.6-6.7L37 26l-7.7-3.3zm3.8-12.1l10.4 6.2.5 1.1.1.4-6.6 7.6-4.4-15.3zM27 4.5l5.1 5.3L15.7 9l-.2-.3-1.4-1.9L25.6 4l1.4.5zM15.2 9.2l-6.9 4 5.4-6.1 1.5 2.1zM8.1 37.4l-1.4-2.2-2.9-6.1.1-.4 4.5-3.1 1 12.9-1.3-1.1zm.8-11.7l12.8 10.6-10.8 3.5-1-.8-1-13.3zm14.2 19.6l-.6-8.6 13.2 5-10.5 3.8-2.1-.2zm-.3-9l14.3-9.4-1 14.4-13.3-5zm14.8-9.4l6.9 4.1-.7 2-7.2 8 1-14.1zm7.1 3.6l-6.8-4.1h.1-.1l6.4-7.4.8 3.2.2 6.8-.6 1.5zM14.6 42.9l5.2 2.4h-2.3l-2.9-2.4zM30.9 46l-4.6-.4 9.8-3.5v.3l.4-.5.6-.2-.3-.1 6.6-7.4-1.5 4.4-11 7.4zm14.9-18.4l-.1-3.3.5 2.1-.4 1.2z" class="st2"/></svg>