<?xml version="1.0" encoding="utf-8"?>
<!-- Generator: Adobe Illustrator 27.7.0, SVG Export Plug-In . SVG Version: 6.00 Build 0)  -->
<svg version="1.1" id="Camada_3" xmlns="http://www.w3.org/2000/svg" xmlns:xlink="http://www.w3.org/1999/xlink" x="0px" y="0px"
	 viewBox="0 0 50 50" style="enable-background:new 0 0 50 50;" xml:space="preserve">
<style type="text/css">
	.st0{fill:#C3FF68;}
	.st1{fill:none;stroke:#444444;stroke-width:2.5;stroke-linecap:round;stroke-linejoin:round;stroke-miterlimit:10;}
	.st2{fill:none;stroke:#444444;stroke-width:0.5;stroke-linecap:round;stroke-linejoin:round;stroke-miterlimit:10;}
	.st3{fill:none;stroke:#444444;stroke-linecap:round;stroke-linejoin:round;stroke-miterlimit:10;}
	.st4{fill:#444444;stroke:#444444;stroke-width:0.5;stroke-linecap:round;stroke-linejoin:round;stroke-miterlimit:10;}
	.st5{fill:#444444;}
</style>
<g>
	<g>
		<path class="st0" d="M5.3,30.7l-3.7,7.8c0,5,5.4,3.7,19.7,3.2l25.2-8.9l-0.2-21.8l-1.1-2c-0.2-0.9-1.5-1.4-2.5-1.4L7.8,8
			c-1.1,0-3,2.4-3,3.5v11.9"/>
		<path class="st1" d="M48.6,36.9l-2.5-5.6V12.1c0-2.1-1.7-3.8-3.8-3.8H8.8c-2.1,0-3.8,1.7-3.8,3.8v19.2l-3.3,7C0.8,40,2.1,42,4,42
			h34.8"/>
		<line class="st2" x1="7.4" y1="33.4" x2="43.4" y2="33.4"/>
		<line class="st2" x1="27.3" y1="39.4" x2="23.5" y2="39.4"/>
		<line class="st3" x1="4.8" y1="31.3" x2="46" y2="31.3"/>
		<polygon class="st4" points="44.6,37.5 6.2,37.5 7.3,35.2 43.4,35.2 		"/>
	</g>
	<g>
		<path class="st2" d="M23.5,27.1c-1.5-0.6-2.6-2.1-2.6-3.9v-1.9c0-0.3,0.2-0.5,0.5-0.5h7.1c0.3,0,0.5,0.2,0.5,0.5v1.9
			c0,1.8-1.1,3.3-2.7,3.9"/>
		<path class="st2" d="M29.1,21.6h1.1c0.9,0,1.5,0.7,1.5,1.6l0,0c0,0.9-0.7,1.6-1.5,1.6h-1.5"/>
		<path class="st2" d="M29.1,22.5h0.8c0.4,0,0.7,0.3,0.7,0.6l0,0c0,0.4-0.3,0.6-0.7,0.6h-1"/>
		<path class="st2" d="M29.3,28.6h-8.9c-0.5,0-0.8-0.4-0.8-0.8v-0.3c0-0.2,0.2-0.4,0.4-0.4h9.8c0.2,0,0.4,0.2,0.4,0.4v0.3
			C30.2,28.2,29.8,28.6,29.3,28.6z"/>
		<path class="st2" d="M24,17.7c0,0,0.2-0.2,0.2-0.4c0.1-0.4-0.1-0.8-0.6-0.8c-0.8,0-0.9,1-0.1,1.8c0.8,0.7,0.7,1.5,0.7,1.5"/>
		<path class="st2" d="M26.3,16.4c0,0-0.6,0.3-0.9-0.2c-0.2-0.3,0-1,0.6-1.2c1-0.4,2.1,1.2,0.4,2.5c-1.2,1-0.9,2.5-0.9,2.5"/>
	</g>
	<g>
		<line class="st2" x1="6" y1="13.4" x2="45.3" y2="13.4"/>
		<circle class="st5" cx="13.3" cy="11.7" r="0.7"/>
		<circle class="st5" cx="10.8" cy="11.7" r="0.7"/>
		<circle class="st5" cx="8.3" cy="11.7" r="0.7"/>
	</g>
</g>
</svg>
