<svg xmlns="http://www.w3.org/2000/svg" id="Camada_3" x="0" y="0" version="1.1" viewBox="0 0 50 50" xml:space="preserve"><style>.st2{fill:none;stroke:#444;stroke-width:.5;stroke-linecap:round;stroke-linejoin:round;stroke-miterlimit:10}.st5{fill:#444}</style><path fill="#46b8b0" d="M5.4 31.8l-3.7 7.8c0 5 5.4 3.7 19.7 3.2L46.6 34l-.2-21.8-1.1-2c-.2-.9-1.5-1.4-2.5-1.4l-35 .3c-1.1 0-3 2.4-3 3.5v11.9"/><path fill="none" stroke="#444" stroke-linecap="round" stroke-linejoin="round" stroke-miterlimit="10" stroke-width="2.5" d="M48.7 38l-2.5-5.6V13.2c0-2.1-1.7-3.8-3.8-3.8H8.8C6.7 9.4 5 11.1 5 13.2v19.2l-3.3 7c-.8 1.8.4 3.8 2.4 3.8h34.8"/><path d="M7.5 34.5h36m-16.1 6h-3.8" class="st2"/><path fill="none" stroke="#444" stroke-linecap="round" stroke-linejoin="round" stroke-miterlimit="10" d="M4.9 32.4h41.2"/><path fill="#444" stroke="#444" stroke-linecap="round" stroke-linejoin="round" stroke-miterlimit="10" stroke-width=".5" d="M44.7 38.6H6.3l1.1-2.3h36.1z"/><path d="M23.5 28.2c-1.5-.6-2.6-2.1-2.6-3.9v-1.9c0-.3.2-.5.5-.5h7.1c.3 0 .5.2.5.5v1.9c0 1.8-1.1 3.3-2.7 3.9" class="st2"/><path d="M29.2 22.7h1.1c.9 0 1.5.7 1.5 1.6 0 .9-.7 1.6-1.5 1.6h-1.5" class="st2"/><path d="M29.2 23.7h.8c.4 0 .7.3.7.6 0 .4-.3.6-.7.6h-1m.4 4.8h-8.9c-.5 0-.8-.4-.8-.8v-.3c0-.2.2-.4.4-.4h9.8c.2 0 .4.2.4.4v.3c0 .4-.4.8-.9.8zm-5.3-10.8s.2-.2.2-.4c.1-.4-.1-.8-.6-.8-.8 0-.9 1-.1 1.8.8.7.7 1.5.7 1.5m2.1-3.4s-.6.3-.9-.2c-.2-.3 0-1 .6-1.2 1-.4 2.1 1.2.4 2.5-1.2 1-.9 2.5-.9 2.5M6.1 14.5h39.3" class="st2"/><circle cx="13.4" cy="12.8" r=".7" class="st5"/><circle cx="10.9" cy="12.8" r=".7" class="st5"/><circle cx="8.4" cy="12.8" r=".7" class="st5"/></svg>