<svg xmlns="http://www.w3.org/2000/svg" id="Camada_3" x="0" y="0" version="1.1" viewBox="0 0 50 50" xml:space="preserve"><style>.st3{fill:none;stroke:#454545;stroke-linecap:round;stroke-linejoin:round;stroke-miterlimit:10}.st4{fill:#454545}</style><path fill="#b9d7d9" d="M40.45 6.22l-32.72.66L4.7 22.22 42.53 8.77z"/><path fill="#a6c1c2" d="M1.34 24.38l4.82 6.08c0 .72.19 8.88.86 8.64l2.17 3.52 35.43-12.61c.41-.15 2.55-3.27 3.34-4.75.21-.4.13-.88-.18-1.2l-2.76-2.82c0-.06-.01-.12-.02-.18-.17-1.54-1.42-12.68-2.47-12.3L5.39 21.97c-.41.15-4.05 1.96-4.05 2.41z"/><path fill="none" stroke="#444" stroke-linecap="round" stroke-miterlimit="10" stroke-width="2.5" d="M37.51 43.78H11.32c-2.69 0-4.68-2.35-4.59-4.91.09-2.45-.03-5.63-.83-8.22-.8-2.6-2.16-4.24-4.37-4.45v-2.39c2.22-.21 3.57-1.85 4.37-4.45.8-2.59.91-5.77.83-8.22-.09-2.55 1.9-4.91 4.59-4.91h27.55c2.69 0 4.68 2.35 4.59 4.91-.09 2.45.03 5.63.83 8.22.8 2.6 2.15 4.24 4.37 4.45v2.39c-2.22.21-3.57 1.85-4.37 4.45-.36 1.17-.58 2.46-.71 3.74"/><path d="M22.59 19.64a2.454 2.454 0 011.84-4.07c1.35 0 2.45 1.1 2.45 2.45s-1.1 2.45-2.45 2.45m0 0v9.79m4.28-16.13a2.454 2.454 0 011.84-4.07c1.35 0 2.45 1.1 2.45 2.45s-1.1 2.45-2.45 2.45m2.97 5.36c.04-.58.27-1.14.71-1.58.96-.96 2.51-.96 3.46 0 .96.96.96 2.51 0 3.46-.96.96-2.51.96-3.46 0m0 0l-2.1 2.1c-.23.23-.36.54-.36.87v5.09m-3.67-1.83v-5c0-.32.13-.64.36-.87l1.73-1.73c.23-.23.36-.54.36-.87v-5" class="st3"/><circle cx="24.43" cy="33.63" r=".92" class="st4"/><circle cx="24.43" cy="37.3" r=".92" class="st4"/><circle cx="31.77" cy="37.3" r=".92" class="st4"/><circle cx="28.1" cy="37.3" r=".92" class="st4"/><circle cx="31.77" cy="33.63" r=".92" class="st4"/><path d="M28.1 33.94v-2.45M16.47 14.13a2.454 2.454 0 011.84-4.07c1.35 0 2.45 1.1 2.45 2.45s-1.1 2.45-2.45 2.45m-5.58 7.95a2.442 2.442 0 01-2.28-2.6 2.442 2.442 0 012.6-2.28c1.35.09 2.37 1.25 2.28 2.6-.04.62-.31 1.16-.72 1.57m.01 0l2.1 2.1c.23.23.36.54.36.87v5.09" class="st3"/><path d="M20.76 28.43v-5c0-.32-.13-.64-.36-.87l-1.73-1.73c-.23-.23-.36-.54-.36-.87v-5" class="st3"/><circle cx="17.08" cy="37.3" r=".92" class="st4"/><circle cx="20.76" cy="37.3" r=".92" class="st4"/><circle cx="17.08" cy="33.63" r=".92" class="st4"/><path d="M20.76 33.94v-2.45m-3.68 7.8v4.49m3.68-4.49v4.49m3.67-4.49v4.49m3.67-4.49v4.49m3.67-4.49v4.49" class="st3"/></svg>