<svg xmlns="http://www.w3.org/2000/svg" version="1" viewBox="0 0 50 50"><path fill="#E589EF" d="M8.522 46.608h12.717l21.136-7.693V4.29a.898.898 0 00-.897-.897H8.522a.898.898 0 00-.897.897v41.42c0 .496.402.898.897.898z"/><path fill="#F799FF" d="M36.354 3.392H8.522a.898.898 0 00-.897.897v9.559L36.354 3.392z"/><path fill="#031326" d="M34.59 47.858H8.522a2.15 2.15 0 01-2.147-2.147V4.289a2.15 2.15 0 012.147-2.147h32.956c1.185 0 2.147.963 2.147 2.147v34.625a1.25 1.25 0 01-2.5 0V4.642H8.875v40.715H34.59a1.25 1.25 0 010 2.501z"/><path fill="#031326" d="M38.14 42.372H11.861V7.628H38.14v34.744zm-25.779-.5H37.64V8.128H12.361v33.744z"/><path fill="#031326" d="M18.871 34.958c-.641 0-1.161-.52-1.161-1.161V16.203c0-.641.52-1.161 1.161-1.161h7.317a4.916 4.916 0 014.912 4.912c0 1.228-.404 2.347-1.151 3.224.127.11.252.224.376.351 1.269 1.299 1.964 2.983 1.964 4.747a6.633 6.633 0 01-1.964 4.719c-1.297 1.269-2.981 1.964-4.747 1.964h-6.707zm6.709-3.327c1.865 0 3.381-1.506 3.381-3.355a3.384 3.384 0 00-3.381-3.381h-4.568v6.736h4.568zm.608-10.066c.888 0 1.585-.708 1.585-1.611 0-.873-.712-1.585-1.585-1.585h-5.177v3.196h5.177z"/></svg>