<svg xmlns="http://www.w3.org/2000/svg" id="Layer_1" x="0" y="0" version="1.1" viewBox="0 0 50 50" xml:space="preserve"><style>.st1{fill:#e589ef}.st2{fill:#031326}</style><path fill="#f799ff" d="M45.7 11.9c.2 0 .4 0 .6-.1l.3-.1c.8-.4 1.3-1.1 1.3-1.9 0-1.2-1-2.2-2.2-2.2h-42c-1.2 0-2.2 1-2.2 2.2s1 2.2 2.2 2.2H3v15.6L46 12h-.3z"/><path d="M46.7 11.9H46L3 27.5v20.3l43.7-15.9z" class="st1"/><circle cx="25" cy="2.9" r="1.7" class="st1"/><path d="M17.7 38.8L35 21.5v2.6c0 .5.4.9.9.9s.9-.4.9-.9v-4.7c0-.5-.4-.9-.9-.9h-4.7c-.5 0-.9.4-.9.9s.4.9.9.9h2.6L16.4 37.6c-.4-.2-.8-.3-1.2-.3-1.5 0-2.8 1.2-2.8 2.8s1.2 2.8 2.8 2.8 2.8-1.2 2.8-2.8c-.1-.4-.2-.9-.3-1.3-.1.1-.1.1 0 0zm-2.5 2.3c-.5 0-1-.4-1-1s.4-1 1-1 1 .4 1 1-.5 1-1 1zm-2.5-17.3c.2.2.4.3.6.3s.5-.1.6-.3l1.3-1.3 1.3 1.3c.2.2.4.3.6.3s.5-.1.6-.3c.3-.3.3-.9 0-1.2l-1.3-1.3 1.3-1.3c.3-.3.3-.9 0-1.2-.3-.3-.9-.3-1.2 0l-1.3 1.3-1.3-1.3c-.3-.3-.9-.3-1.2 0-.3.3-.3.9 0 1.2l1.3 1.3-1.3 1.3c-.4.3-.4.9 0 1.2z" class="st2"/><path d="M22 23.8c.2.2.4.3.6.3s.5-.1.6-.3l1.3-1.3 1.3 1.3c.2.2.4.3.6.3s.5-.1.6-.3c.3-.3.3-.9 0-1.2l-1.3-1.3L27 20c.3-.3.3-.9 0-1.2-.3-.3-.9-.3-1.2 0l-1.3 1.3-1.3-1.3c-.3-.3-.9-.3-1.2 0-.3.3-.3.9 0 1.2l1.3 1.3-1.3 1.3c-.3.3-.3.9 0 1.2zm-9.3 9.4c.2.2.4.3.6.3s.5-.1.6-.3l1.3-1.3 1.3 1.3c.2.2.4.3.6.3s.5-.1.6-.3c.3-.3.3-.9 0-1.2l-1.3-1.3 1.3-1.3c.3-.3.3-.9 0-1.2-.3-.3-.9-.3-1.2 0l-1.3 1.3-1.3-1.3c-.3-.3-.9-.3-1.2 0-.3.3-.3.9 0 1.2l1.3 1.3-1.3 1.3c-.4.3-.4.9 0 1.2zm23.7 4.4c-.3-.3-.9-.3-1.2 0l-1.3 1.3-1.3-1.3c-.3-.3-.9-.3-1.2 0-.3.3-.3.9 0 1.2l1.3 1.3-1.3 1.3c-.3.3-.3.9 0 1.2.2.2.4.3.6.3.2 0 .5-.1.6-.3l1.3-1.3 1.3 1.3c.2.2.4.3.6.3s.5-.1.6-.3c.3-.3.3-.9 0-1.2l-1.3-1.3 1.3-1.3c.4-.3.4-.9 0-1.2zm-9.4 0c-.3-.3-.9-.3-1.2 0l-1.3 1.3-1.3-1.3c-.3-.3-.9-.3-1.2 0-.3.3-.3.9 0 1.2l1.3 1.3-1.3 1.3c-.3.3-.3.9 0 1.2.2.2.4.3.6.3s.5-.1.6-.3l1.3-1.3 1.3 1.3c.2.2.4.3.6.3s.5-.1.6-.3c.3-.3.3-.9 0-1.2l-1.3-1.3 1.3-1.3c.4-.3.4-.9 0-1.2zm9.4-9.4c-.3-.3-.9-.3-1.2 0l-1.3 1.3-1.3-1.3c-.3-.3-.9-.3-1.2 0-.3.3-.3.9 0 1.2l1.3 1.3-1.3 1.3c-.3.3-.3.9 0 1.2.2.2.4.3.6.3.2 0 .5-.1.6-.3l1.3-1.3 1.3 1.3c.2.2.4.3.6.3s.5-.1.6-.3c.3-.3.3-.9 0-1.2l-1.3-1.3 1.3-1.3c.4-.3.4-.8 0-1.2z" class="st2"/><path d="M46 6.3H25.8V5.2c1-.3 1.7-1.2 1.7-2.3 0-1.3-1.1-2.4-2.4-2.4s-2.4 1.1-2.4 2.4c0 1.1.7 2 1.7 2.3v1.2H4C2 6.3.5 7.9.5 9.8c0 1.2.6 2.2 1.4 2.8V46c0 2 1.6 3.5 3.5 3.5h31.9c.7 0 1.2-.6 1.2-1.2s-.6-1.2-1.2-1.2H5.5c-.6 0-1-.5-1-1V13.3h41.2v25.8c0 .7.6 1.2 1.2 1.2s1.2-.6 1.2-1.2V12.7c.9-.6 1.4-1.7 1.4-2.8 0-2-1.5-3.6-3.5-3.6zM24.1 2.9c0-.5.4-.9.9-.9s.9.4.9.9-.4.9-.9.9-.9-.4-.9-.9zM46 10.8H4c-.6 0-1-.4-1-1s.4-1 1-1h42c.6 0 1 .4 1 1s-.4 1-1 1z" class="st2"/></svg>