<svg xmlns="http://www.w3.org/2000/svg" version="1" viewBox="0 0 50 50"><path fill="#DC5E82" d="M44.985 40.014V13.148a.199.199 0 00-.138-.189l-29.68-9.486a.198.198 0 00-.259.189v5.821l-.797-.254-7.911 2.53v28.394l20.455 6.532 18.33-6.671z"/><path fill="#F56991" d="M30.48 8.367L15.167 3.473a.198.198 0 00-.259.189v5.821l-.797-.254-7.911 2.53v5.445l24.28-8.837z"/><path fill="#031326" d="M45.244 11.769L15.566 2.283a1.455 1.455 0 00-1.296.208 1.452 1.452 0 00-.595 1.17V8.06l-8.708 2.785v30.219l23.583 7.53a1.25 1.25 0 001.57-.81c.089-.28.057-.562-.04-.817V24.944l7.665-2.449v20.092l4.559 1.452V15.011L17.835 7.195l-.163-.052v4.278l-1.497-.478v-5.84l27.576 8.813v26.098a1.25 1.25 0 002.5 0V13.148c0-.631-.404-1.186-1.007-1.379zm-31.132-1.223l7.509 2.399-7.506 2.398-6.648-2.124v-.548l6.645-2.125zm9.375 11.447l6.468-2.067 7.504 2.397-7.504 2.398-7.503-2.397 1.03-.329.005-.002zm-1.578-8.877l.011 8.234-7.677 2.452-.003-8.237 7.669-2.449zm-7.665 11.025l7.672 2.451v17.262l-7.665-2.448-.007-17.265zm7.672-1.909v4.097l-7.38-2.358 7.509-2.399.968.309-1.097.351zm-14.449-8.75l6.523 2.084.011 25.76-6.534-2.087V13.482zM29.31 46.215l-7.144-2.281V22.495l7.664 2.449v21.622a1.22 1.22 0 00-.52-.351zM17.922 11.451V7.485l24.132 7.708v28.503l-4.059-1.294v-20.17l-8.04-2.569-6.531 2.087-1.254-.4-.012-8.496-4.255-1.359c.007-.015.019-.027.019-.044z"/></svg>