<svg xmlns="http://www.w3.org/2000/svg" version="1" viewBox="0 0 50 50"><path fill="#DC5E82" d="M8.05 25.045v12.084l15.907 9.184 18.405-6.698 4.305-2.486V14.834L27.359 3.687l-6.836 3.946-10.022-1.767-7.168 8.542 3.814 10.478z"/><path fill="#F56991" d="M31.999 6.366l-4.64-2.679-6.836 3.946-10.022-1.767-7.168 8.542.769 2.112z"/><path fill="#031326" d="M27.358 2.243l-7.066 4.08-10.285-1.814-8.095 9.648 4.307 11.834.581.103v11.757l16.532 9.545a1.251 1.251 0 001.249-2.166l-6.749-3.896v-9.556l9.399 5.427v7.871a.125.125 0 00.25 0v-7.871l9.399-5.427v9.869c0 1.408.835 2.066 1.758 1.559l9.276-5.355V14.112L27.358 2.243zm0 34.745l-9.402-5.428 9.415-5.434 9.393 5.432-9.406 5.43zM9.3 24.363l8.284 1.461v5.521L9.3 26.562v-2.199zm14.701-6.311l-6.227 7.421-3.314-9.106 6.227-7.423 3.314 9.108zm21.291-2.569l-8.278 4.781-9.399-5.425 8.284-4.78 9.393 5.424zM17.834 25.791l6.405-7.633.046-.056-.403-1.108 3.365-1.942v10.857l-9.413 5.433v-5.551zm9.663-10.73l9.386 5.417v10.859l-9.386-5.428V15.061zm-3.702 1.694l-1.765-4.849 5.088 2.937-3.323 1.912zm13.338 14.59v-10.86l8.284-4.785v10.862l-8.284 4.783zM35.649 9.916l-8.279 4.782-5.472-3.158-.98-2.692 6.441-3.718 8.29 4.786zM10.994 7.222l9.418 1.66-6.144 7.325-9.423-1.657 6.149-7.328zm-6.189 7.575l9.419 1.656 3.315 9.109L9.3 24.11v-.114l-1.225-.216-3.27-8.983zM17.584 41.19L9.3 36.408v-9.557l8.284 4.783v9.556zm19.549.015v-9.571l8.284-4.783v9.557l-8.284 4.797z"/></svg>