<svg xmlns="http://www.w3.org/2000/svg" version="1" viewBox="0 0 50 50"><path fill="#AFE55D" d="M8.848 42.46l13.756 2.527 20.387-7.42V16.972L47.5 7.546 30.428 4.404l-4.508 9.422-8.606 1.594L2.5 12.29l6.348 5.983z"/><path fill="#C3FF68" d="M8.848 21.644L47.483 7.582l.017-.036-17.072-3.142-4.508 9.422-8.606 1.594L2.5 12.29l6.348 5.983z"/><g fill="#031326"><path d="M29.713 3.002l-4.646 9.711-7.737 1.433-14.042-2.967a1.405 1.405 0 00-1.532.722 1.407 1.407 0 00.281 1.67l5.561 5.241v24.689l17.112 3.118a1.132 1.132 0 001.335-1.114V20.947l6.185-1.404.004.002h.001c.006 0 .009-.005.015-.006l.735-.167h.001l.002-.001 1.125-.255h.002l.002-.001 2.68-.608h.003l.002-.001 4.94-1.121v20.183a1.25 1.25 0 002.5 0V17.255l5.091-10.643-19.62-3.61zm-2.941 11.937l.013-.027 1.992.163-.179.393 1.731 1.733 1.773-.808.358-.786 4.265.624-1.273.122-.288 1.08-1.795-.66-.051.06v.001l-1.217 1.425.007 1.054-2.139.487.116-.067-.012-.074-.001-.009-.309-1.84-1.434-1.179a.093.093 0 00-.015-.013l-.053-.044-2.121 1.222.323 1.922.838.686-1.364.31-.536-.262.358-.79-1.732-1.724-.071.032-1.663.748-.044.02-.062.144-4.589-2.243 9.174-1.7zm5.198 1.144l-1.42-1.42.641-1.408 1.421 1.42-.642 1.408zm-1.598-1.243l1.421 1.421-1.408.641-1.421-1.421 1.408-.641zm-.067-.244L29 15.19l.595-1.305 1.305-.594-.595 1.305zm4.814 4.035l-.011-.008.517-1.944 1.259.899-.185.694-1.58.359zm-1.002.227l-.57-.21-.012-1.546 1.566.575-.272 1.019-.712.162zm-1.759.399l-.007-.905.934-1.094.012 1.432-.375.44-.564.127zm1.103-.374l.209.077-.341.077.132-.154zm3.665-1.238l1.544-.149-.097.351-1.597.363.15-.565zm-.063-.246l-1.171-.836 1.43-.137 1.174.834-1.433.139zm-9.455 2.937l-.812-.665 1.74-1.005 1.194.983-.583.337-1.539.35zm1.056-1.889l-.235-1.409 1.102.907.237 1.412-1.104-.91zm-.507-1.524l.255 1.526-1.741 1.006-.256-1.527 1.742-1.005zm-5.747 2.069l.028-.065 1.306-.588-.49 1.065-.844-.412zm1.626-.688l1.421 1.414-.283.626-1.695-.829.557-1.211zm-17.44-3.871l10.426 2.204 8.026 3.923-14.951-2.745v-.082l-3.501-3.3zm3.502 26.986v-23.35l15.697 2.882v23.343l-15.697-2.875zm28.751-23.635l.134-.484-1.307-.928 4.065.595v.16l-2.892.657zm2.892-1.096v.026l-9.172-1.343.341-.749-1.731-1.732-1.773.808-.518 1.137-1.987-.163 4.242-8.865L45.668 8.48l-3.927 8.208z"/><path d="M32.771 7.714l-1.265 1.48.018 1.948 2.302.837 1.265-1.48-.018-1.948-2.302-.837zm2.068 2.561l-1.889-.688-.014-1.547 1.888.687.015 1.548zm-2.151-2.079l.013 1.433-.932 1.09-.013-1.435.932-1.088zm1.059 3.49l-1.888-.687 1.005-1.176 1.889.688-1.006 1.175zm6.803-1.762l-1.773-.808-1.671 1.671-.061.062.788 1.729.019.042 1.772.808 1.732-1.732-.788-1.73-.018-.042zm.405 1.493l-1.305-.594-.595-1.305 1.305.594.595 1.305zm-2.19-1.935l.641 1.408-1.421 1.421-.642-1.408 1.422-1.421zm.804 3.647l-1.407-.641 1.421-1.421 1.408.641-1.422 1.421z"/></g></svg>