<svg xmlns="http://www.w3.org/2000/svg" id="Camada_3" x="0" y="0" version="1.1" viewBox="0 0 50 50" xml:space="preserve"><style>.st2{fill:none;stroke:#444444;stroke-width:2.5;stroke-linecap:round;stroke-linejoin:round;stroke-miterlimit:10}.st3{stroke-width:.5}.st3,.st4,.st5{fill:none;stroke:#444;stroke-miterlimit:10}.st5{stroke-linecap:round}</style><path fill="#5ebebb" d="M35.55 4.59l7.27 5.48 1.92 6.7-43.05 15.7.89-13.62L8.35 8.69l13.77-6.3z"/><path fill="#47b7af" d="M46.9 20.97l.49 8.79-38.13 13.7-2.62-2.47-2.92-5.23-2.14-7.94 41.74-16.04 2.14 4.16z"/><path d="M6.24 11.64c-7.7 10.24-5.65 24.77 4.6 32.46 7.48 5.63 17.25 6.05 24.98 1.85.17-.09.35-.19.52-.29" class="st2"/><path d="M6.11 11.8c2.01-2.95 4.68-4.68 4.68-4.68l.65-.53C19.43.97 30.46.83 38.7 7.04c9.14 6.87 11.76 19.18 6.74 29.03l.04-.07" class="st2"/><path d="M5.47 22.96l6.54-6.65a1.85 1.85 0 012.62-.02l1.61 1.59c.72.71.74 1.87.03 2.6L9.8 27.19c-.71.74-1.89.76-2.62.04L5.5 25.58a1.85 1.85 0 01-.03-2.62z" class="st3"/><path d="M14.51 33.53s-3.35-1.97-3.64-6.08l-.52-.83m5.92-6.14s.76.49 1.72.59c3.17.35 5.25 2.1 5.25 2.1" class="st4"/><path d="M32.59 20.72l-.66.44s-2.22-.23-3.99-.38c-2.6-.22-7 3.99-7 3.99l-2.46 2.37s-1.88 1.6-.78 2.76c1.11 1.17 2.86-.41 2.86-.41l5.37-4.01 7.7 7.65s1.28 1.56.23 2.61-2.3.23-2.3.23l-4.14-4.65" class="st4"/><path d="M25.18 33.7L29 37.76s1.19 1.51.18 2.59c-.96 1.03-2.25.24-2.25.24l-4.14-4.65" class="st5"/><path d="M27.42 31.32l3.9 4.39s1.29 1.23.1 2.34c-1.25 1.16-2.43-.29-2.43-.29l-3.82-4.06" class="st5"/><path d="M24.02 42.15s2.48.84 2.91-1.57m-13.69-4.22l.13.16c.48.59 1.36.67 1.94.19l1.89-1.56c.59-.48.67-1.36.19-1.94l-.13-.16a1.38 1.38 0 00-1.94-.19l-1.89 1.56a1.38 1.38 0 00-.19 1.94z" class="st4"/><path d="M20.26 43.38l.13.16c.48.59 1.36.67 1.94.19l1.36-1.12c.59-.48.67-1.36.19-1.94l-.13-.16a1.38 1.38 0 00-1.94-.19l-1.36 1.12a1.38 1.38 0 00-.19 1.94zm-4.7-4.71l.13.16c.48.59 1.36.67 1.94.19l2.02-1.67c.59-.48.67-1.36.19-1.94l-.13-.16a1.38 1.38 0 00-1.94-.19l-2.02 1.67a1.37 1.37 0 00-.19 1.94zm2.39 2.39l.13.16c.48.59 1.36.67 1.94.19l2.02-1.67c.59-.48.67-1.36.19-1.94l-.13-.16a1.38 1.38 0 00-1.94-.19l-2.02 1.67a1.37 1.37 0 00-.19 1.94zm16.03-7.36s4.85-5.56 5.51-6.21" class="st4"/><path d="M36.95 16.53l7.82 7.68c.41.4.41 1.06.01 1.47l-2.73 2.76c-.4.4-1.05.41-1.46.02l-7.88-7.6c-.41-.4-.42-1.06-.02-1.47l2.79-2.85c.4-.41 1.06-.41 1.47-.01z" class="st3"/><circle cx="8.25" cy="24.28" r="1.39" class="st3"/><circle cx="41.56" cy="25.28" r="1.39" class="st4"/><path d="M12.23 16.09l-3.98-6.5M2.11 22.32l3.03.97M40.58 8.63l-3.66 7.87m7.91 7.78l3.13-1.11" class="st3"/></svg>
