<svg xmlns="http://www.w3.org/2000/svg" id="Layer_1" x="0" y="0" version="1.1" viewBox="0 0 50 50" xml:space="preserve"><style>.st2{fill:#031326}</style><path fill="#afe55d" d="M48 29l-3.7-16.2c-.1-.4-.3-.8-.5-1.2l-41.1 15-.6 2.5c-.3 1.3 0 2.7.8 3.7l9.4 11.7 35.5-12.9c.3-.8.4-1.7.2-2.6z"/><path fill="#c3ff68" d="M42 9.9L27 2.7c-1.2-.6-2.6-.6-3.8 0l-15 7.2c-1.2.6-2.1 1.7-2.4 3l-3 13.7 41.1-15c-.6-.7-1.1-1.4-1.9-1.7z"/><path d="M16.7 48.8c-1.7 0-3.3-.8-4.4-2.1l-10.4-13C.8 32.4.4 30.6.8 29l3.7-16.2c.4-1.7 1.5-3.1 3-3.8l15-7.2c1.5-.7 3.3-.7 4.9 0l15 7.2c1.5.7 2.7 2.1 3 3.8L49.2 29c.4 1.7 0 3.4-1.1 4.7l-2.6 3.2c-.4.5-1.2.6-1.8.2-.5-.4-.6-1.2-.2-1.8l2.7-3.3c.6-.7.8-1.7.6-2.6L43 13.2c-.2-.9-.8-1.7-1.7-2.1l-15-7.2c-.9-.4-1.8-.4-2.7 0l-15 7.2c-.9.4-1.5 1.2-1.7 2.1L3.3 29.4c-.2.9 0 1.9.6 2.6l10.4 13c.6.7 1.5 1.2 2.4 1.2h16.6c1 0 1.8-.4 2.4-1.2.4-.5 1.2-.6 1.8-.2.5.4.6 1.2.2 1.8-1.1 1.3-2.7 2.1-4.4 2.1l-16.6.1z" class="st2"/><path d="M18.5 44.3c-1.4 0-2.7-.6-3.6-1.7L6.7 32.3c-.9-1.1-1.2-2.5-.9-3.9l2.9-12.8c.3-1.4 1.2-2.5 2.5-3.1L23 6.8c1.3-.6 2.7-.6 4 0l11.8 5.7c1.3.6 2.2 1.8 2.5 3.1l2.9 12.8c.3 1.4 0 2.8-.9 3.9l-8.1 10.2a4.6 4.6 0 01-3.6 1.7l-13.1.1zM25 6.9c-.6 0-1.2.1-1.8.4L11.4 13c-1.1.5-1.9 1.6-2.2 2.8L6.3 28.5c-.3 1.2 0 2.5.8 3.5l8.2 10.2c.8 1 2 1.5 3.2 1.5h13.1c1.3 0 2.4-.6 3.2-1.6L43 31.9c.8-1 1.1-2.3.8-3.5l-2.9-12.8c-.3-1.2-1.1-2.2-2.2-2.8L26.8 7.3c-.6-.3-1.2-.4-1.8-.4z" class="st2"/><path id="XMLID_27_" d="M30.5 28.3c-1.1 1.9-3.2 3.2-5.4 3.2s-4.4-1.3-5.4-3.2c-.5-.9-.9-2-.9-3.1 0-3.5 2.8-6.2 6.2-6.2 2.3 0 4.4 1.2 5.4 3.2l5.4-3.2c-2.2-3.7-6.2-6.3-10.9-6.3-7 0-12.5 5.7-12.5 12.5 0 2.3.7 4.4 1.6 6.2 2.2 3.8 6.2 6.3 10.9 6.3s8.7-2.5 10.9-6.3l-5.3-3.1" class="st2"/><path d="M40.5 24.7v1.4h-1.4v1.4h-1.4v-1.4h-1.3v-1.4h1.3v-1.4h1.4v1.4zm-7.1 0h1.4v1.4h-1.4v1.4H32v-1.4h-1.3v-1.4H32v-1.4h1.4z" class="st2"/></svg>