<svg xmlns="http://www.w3.org/2000/svg" viewBox="0 0 50 50"><path fill="#ce87ea" d="M43.8 28.6L8 41.6l-1.8-1.1v-9.6l6.6-8.3-2.3-1.3v-9.7l7.1-8.8L26.1 4l9.4 5.4.1 5.6 8.2 4.7z"/><path fill="#e097fb" d="M35.6 12.8l-24.4 8.9-.7-.4v-9.7l7.1-8.8L26.1 4l9.4 5.4z"/><path fill="#031326" d="M37.1 14.3V8.7L26.5 2.6 17 1.2l-7.9 9.9v11.2l1.5.9-5.9 7.3v10.9l11.6 6.7 8.4.7 7.8-9.8c.4-.5.3-1.3-.2-1.8-.4-.3-.9-.4-1.4-.1l-.1-8.4-1.2-.7 6.5-8.2 6.4.5.1 8.7c0 .1 0 .1.1.1v.2c0 .7.6 1.2 1.2 1.2s1.2-.6 1.2-1.2V18.9l-8-4.6zm-9-5l-8.8-5.1 6.6 1 7.9 4.5-5.7-.4zM11.6 20.9v-8.3l9.4 5.5v8.3l-9.4-5.5zM7.3 31.3l9.5 5.5v8.4l-9.5-5.5v-8.4zm9.7 5.1l-9.4-5.5 6.5-8.1 9.4 5.5-6.5 8.1zm4.2-18.8L11.6 12 18 4.1l9.6 5.5-6.4 8zM23.7 46l-6.4-.5v-8.7l6.6-8.3 6.4.5.1 8.5-6.7 8.5zm.2-18l-1.4-.8 5.7.5 1.3.8-5.6-.5zm4.2-.8s-.1 0 0 0l-6.5-.5V18l6.6-8.3 6.4.5.1 8.6-6.6 8.4zm7-8.4v-2.7l6.5 3.7-5.5-.4-1-.6zm-5.9 8.8l-.6-.4 6.4-8 .6.4-6.4 8z"/></svg>