<svg xmlns="http://www.w3.org/2000/svg" viewBox="0 0 44 51"><g fill="none" fill-rule="evenodd"><path fill="#00C8E2" d="M1.765 20.496L1.25 24.33l-.5 6.65 38.012-13.964-1.378-3.605-1.801-2.12-2.544-2.014z"/><path fill="#00DFFC" d="M28.693 5.568l4.346 3.922L1.445 21.007l-.1-6.853-.319-3.18 23.999-8.812z"/><g fill="#031326"><path d="M12.39 40.51h28.66V24.94H12.39v15.57zm13.13-27.82V4.94l9.16 7.75h-9.16zm16.53 10.25h-2.71v-9c0-.13-.02-.25-.06-.36-.01-.06-.04-.11-.06-.16-.04-.08-.09-.16-.14-.23-.06-.07-.12-.14-.19-.2l-.12-.1L25.08 1.3c-.02-.01-.03-.03-.05-.03-.03-.04-.07-.06-.11-.09-.12-.07-.25-.12-.4-.15-.08-.02-.16-.03-.25-.03H1.25C.56 1 0 1.56 0 2.25v46.99c0 .69.56 1.25 1.25 1.25h36.38c.69 0 1.25-.56 1.25-1.25v-3.03a1.25 1.25 0 00-2.5 0v1.78H2.5V3.5h20.52v10.44c0 .69.56 1.25 1.25 1.25h12.57v7.75H11.39c-.55 0-1 .45-1 1v17.57c0 .56.45 1 1 1h30.66c.55 0 1-.44 1-1V23.94c0-.55-.45-1-1-1z"/><path d="M22.312 35.682a2.705 2.705 0 01-1.55 1.434c-.354.13-.75.198-1.182.198-.354 0-.68-.048-.977-.145a2.714 2.714 0 01-.794-.404 2.814 2.814 0 01-.59-.603 3.421 3.421 0 01-.42-.767 4.477 4.477 0 01-.257-.902 6.342 6.342 0 01-.091-1.01v-1.175a6.2 6.2 0 01.086-.968c.053-.311.134-.604.245-.88.118-.31.27-.59.46-.84.189-.25.407-.464.655-.641.228-.161.483-.286.765-.375.28-.09.589-.133.924-.133.452 0 .857.067 1.212.2.358.135.662.324.918.568.252.248.453.547.602.897.15.35.245.74.29 1.174h-1.43a2.966 2.966 0 00-.14-.696 1.58 1.58 0 00-.301-.526 1.213 1.213 0 00-.475-.333 1.805 1.805 0 00-.676-.115 1.5 1.5 0 00-.493.076 1.467 1.467 0 00-.782.658 2.65 2.65 0 00-.254.612 3.877 3.877 0 00-.121.626c-.026.22-.04.448-.04.684v1.187c0 .29.018.562.052.814.033.252.085.483.156.69.055.17.125.326.209.467.085.142.186.264.305.367.122.105.26.186.419.24.157.057.338.084.543.084.244 0 .46-.034.649-.104.188-.068.349-.172.478-.31.13-.133.234-.3.314-.501.078-.2.129-.431.152-.691h1.43a3.431 3.431 0 01-.291 1.143m7.384-3.215v1.334H27.44v2.526h-1.375v-2.526h-2.261v-1.334h2.26v-2.396h1.376v2.396zm7.254 0v1.334h-2.254v2.526H33.32v-2.526h-2.26v-1.334h2.26v-2.396h1.376v2.396z"/></g></g></svg>