<svg xmlns="http://www.w3.org/2000/svg" id="Layer_1" x="0" y="0" version="1.1" viewBox="0 0 50 50" xml:space="preserve"><style>.st2{fill:#444}</style><path fill="#a475ef" d="M48.4 22L5.2 37.7C2.8 34 1.4 29.7 1.4 25c0-1 .1-1.9.2-2.8 0-.2.1-.5.1-.7L40.6 7.3c.2.2.4.3.5.5 3.9 3.7 6.6 8.6 7.3 14.2z"/><path fill="#bf94f7" d="M41.1 7.8L1.6 22.2c0-.2.1-.5.1-.7 1.7-11.3 11.5-20 23.3-20 6 0 11.4 2.2 15.6 5.9.1.1.3.2.5.4z"/><path d="M25 49.8c-8.5 0-16.3-4.3-20.9-11.4C1.5 34.4.2 29.8.2 25c0-1 .1-2 .2-3 0-.1 0-.3.1-.5v-.2C2.3 9.3 12.8.2 25 .2c6.1 0 11.9 2.2 16.4 6.2.2.2.4.4.6.5 4.2 3.9 6.9 9.2 7.6 14.9.1 1 .2 2 .2 3.2 0 13.7-11.1 24.8-24.8 24.8zm0-47.1c-11 0-20.4 8.2-22.1 19v.6c-.1.9-.2 1.8-.2 2.7 0 4.3 1.2 8.4 3.5 12 4.1 6.4 11.1 10.3 18.8 10.3 12.3 0 22.3-10 22.3-22.3 0-1-.1-1.9-.2-2.8-.6-5.2-3.1-9.9-6.9-13.5l-.5-.5c-4-3.5-9.3-5.5-14.7-5.5z" class="st2"/><path d="M25 45.2c-11.1 0-20.2-9-20.2-20.2 0-11.1 9-20.2 20.2-20.2 11.1 0 20.2 9.1 20.2 20.2S36.1 45.2 25 45.2zm0-39.6C14.3 5.6 5.6 14.3 5.6 25S14.3 44.4 25 44.4 44.4 35.7 44.4 25 35.7 5.6 25 5.6z" class="st2"/><path fill="#494949" d="M33.3 31.8c-1 1.4-2.4 2.8-4.1 3.9-1.7 1.1-3.6 1.9-5.9 1.9-2.1 0-3.9-1.1-4.8-2-1.4-1.4-2.2-3.4-2.5-5.3-.7-5.8 2.9-13.5 8.4-16.8 1.3-.8 2.7-1.2 4-1.2 2.7 0 4.6 1.9 4.9 4.2.2 2.1-.5 3.8-2.8 5-1.1.6-1.7.5-1.9.3-.1-.2-.1-.5.2-.7 2.1-1.8 2.2-3.2 1.9-5.3-.2-1.3-1-2.2-2-2.2-4.2 0-10.2 9.4-9.3 16.2.3 2.7 1.9 5.8 5.3 5.8 1.1 0 2.3-.3 3.3-.8 2.4-1.2 3.4-2.1 4.8-4 .2-.3.3-.5.5-.8.1-.2.4-.3.5-.3s.4.2.4.5c0 .2-.1.5-.3.8-.2.3-.4.5-.6.8z"/></svg>