<svg xmlns="http://www.w3.org/2000/svg" id="Layer_1" x="0" y="0" version="1.1" viewBox="0 0 50 50" xml:space="preserve"><style>.st4{fill:none;stroke:#444;stroke-width:.75;stroke-miterlimit:10}</style><path fill="#e589ef" d="M46.6 26.1l.4 4.2L2.3 46.6l.1-8.8.3-5 44.6-16.3-.7 3.6z"/><path fill="#f799ff" d="M47 10l-.5 7.4-43.9 16v-9.5l.3-4.3L47.1 3.5z"/><path fill="none" stroke="#444" stroke-linecap="round" stroke-linejoin="round" stroke-miterlimit="10" stroke-width="2.5" d="M32.8 47.4h-30V2.9h44.8v34.5"/><path fill="#444" stroke="#444" stroke-miterlimit="10" stroke-width=".4" d="M39.3 32.3V18.4c0-.8-.6-1.4-1.4-1.4H12.6c-.8 0-1.4.6-1.4 1.4v13.2c0 .8.6 1.4 1.4 1.4h19.6c.3 0 .5.2.5.5s-.2.5-.5.5H12.6c-1.4 0-2.5-1.1-2.5-2.5V18.4c0-1.4 1.1-2.5 2.5-2.5h25.2c1.4 0 2.5 1.1 2.5 2.5v14.7"/><path d="M10.6 26s5.7-3.2 10.3-1.3c3.7 1.5 4.9 3.3 6 4.6 1.1 1.3 2.4 2.4 3.7 3.5l1 .8" class="st4"/><path d="M26.4 28.6s3.2-1 5.7-3c2.1-1.7 5-4 7-3.6" class="st4"/><path d="M17.3 24s5.1-2.6 8.3-2.6 7.7 3 8.2 2.9" class="st4"/><path fill="#444" d="M18.1 14.2h1.7c.3 0 .5-.2.5-.5s-.2-.5-.5-.5h-1.7c-.3 0-.5.2-.5.5 0 .2.2.5.5.5zm17.3 0H37c.3 0 .5-.2.5-.5s-.2-.5-.5-.5h-1.7c-.3 0-.5.2-.5.5.1.2.3.5.6.5zm-13 0h1.7c.3 0 .5-.2.5-.5s-.2-.5-.5-.5h-1.7c-.3 0-.5.2-.5.5 0 .2.3.5.5.5zm4.3 0h1.7c.3 0 .5-.2.5-.5s-.2-.5-.5-.5h-1.7c-.3 0-.5.2-.5.5 0 .2.3.5.5.5zm4.4 0h1.7c.3 0 .5-.2.5-.5s-.2-.5-.5-.5h-1.7c-.3 0-.5.2-.5.5 0 .2.2.5.5.5zm-17.3 0h1.7c.3 0 .5-.2.5-.5s-.2-.5-.5-.5h-1.7c-.3 0-.5.2-.5.5 0 .2.2.5.5.5zm-4.7 1.6c1.2 0 2.1-.9 2.1-2.1s-.9-2.1-2.1-2.1c-1.1 0-2.1.9-2.1 2.1 0 1.1 1 2.1 2.1 2.1zm0-3.2c.6 0 1.1.5 1.1 1.1s-.5 1.1-1.1 1.1S8 14.3 8 13.7c0-.6.5-1.1 1.1-1.1zm32.2 3.2c1.2 0 2.1-.9 2.1-2.1s-.9-2.1-2.1-2.1c-1.2 0-2.1.9-2.1 2.1 0 1.1.9 2.1 2.1 2.1zm0-3.2c.6 0 1.1.5 1.1 1.1s-.5 1.1-1.1 1.1-1.1-.5-1.1-1.1c0-.6.5-1.1 1.1-1.1zm-23 24.1H20c.3 0 .5-.2.5-.5s-.2-.5-.5-.5h-1.7c-.3 0-.5.2-.5.5s.2.5.5.5zm4.3 0h1.7c.3 0 .5-.2.5-.5s-.2-.5-.5-.5h-1.7c-.3 0-.5.2-.5.5s.3.5.5.5zm4.3 0h1.7c.3 0 .5-.2.5-.5s-.2-.5-.5-.5h-1.7c-.3 0-.5.2-.5.5s.3.5.5.5zm-12.9 0h1.7c.3 0 .5-.2.5-.5s-.2-.5-.5-.5H14c-.3 0-.5.2-.5.5s.2.5.5.5zm-4.7 1.6c1.2 0 2.1-.9 2.1-2.1 0-1.2-.9-2.1-2.1-2.1-1.2 0-2.1.9-2.1 2.1 0 1.2 1 2.1 2.1 2.1zm0-3.2c.6 0 1.1.5 1.1 1.1 0 .6-.5 1.1-1.1 1.1-.6 0-1.1-.5-1.1-1.1 0-.6.5-1.1 1.1-1.1zM8 21.9v1.7c0 .3.2.5.5.5s.5-.2.5-.5v-1.7c0-.3-.2-.5-.5-.5s-.5.2-.5.5zm0 4.3v1.7c0 .3.2.5.5.5s.5-.2.5-.5v-1.7c0-.3-.2-.5-.5-.5s-.5.3-.5.5zm0 4.3v1.7c0 .3.2.5.5.5s.5-.2.5-.5v-1.7c0-.2-.2-.5-.5-.5s-.5.3-.5.5zm0-12.9v1.7c0 .3.2.5.5.5s.5-.3.5-.5v-1.7c0-.3-.2-.5-.5-.5s-.5.2-.5.5zm33.3 4.5v1.7c0 .3.2.5.5.5s.5-.2.5-.5v-1.7c0-.3-.2-.5-.5-.5-.2 0-.5.2-.5.5zm0 4.3v1.7c0 .3.2.5.5.5s.5-.2.5-.5v-1.7c0-.3-.2-.5-.5-.5-.2 0-.5.2-.5.5zm0 4.3v1.7c0 .3.2.5.5.5s.5-.2.5-.5v-1.7c0-.3-.2-.5-.5-.5-.2 0-.5.2-.5.5zm0-12.9v1.7c0 .3.2.5.5.5s.5-.2.5-.5v-1.7c0-.3-.2-.5-.5-.5-.2 0-.5.2-.5.5z"/><path fill="none" stroke="#444" stroke-linecap="round" stroke-linejoin="round" stroke-miterlimit="10" d="M33.7 27v17.4l3.9-3.9 2.4 5.9 3-1.3m-.1-.2l-2.3-5.5h5.5L34.2 27.6l-.5-.6"/></svg>