<svg xmlns="http://www.w3.org/2000/svg" id="Layer_1" x="0" y="0" version="1.1" viewBox="0 0 50 50" xml:space="preserve"><style>.st2{fill:#494949}</style><path fill="#afe55d" d="M46.9 6.4v17.2l-.9.3-4 1.5-.7.2-3.5 1.3-.7.3-2.9 1-.7.3-4.3 1.5-.7.3-2.8 1-.8.3-16.2 5.9-.7.3-4 1.4-.9.4V22.4L4 22l4-1.4.7-.3 7.9-2.9 2-.7 9.2-3.3 2.6-1 10.2-3.7 2.3-.9L46 6.7z"/><path fill="#c3ff68" d="M46.9 3.6v4.8l-.9.3-10.1 3.7-2.5.9-9.2 3.4-1.9.7-5.8 2.1-1.9.7-2.9 1-.7.3-2.1.8-.9.3L4 24l-.9.3v-20L4 4l2.6-.9h39.8c.3 0 .5.2.5.5z"/><path d="M46 4v42H4V4h42m0-2.5H4C2.7 1.5 1.5 2.7 1.5 4v42c0 1.4 1.1 2.5 2.5 2.5h42c1.4 0 2.5-1.1 2.5-2.5V4c0-1.3-1.2-2.5-2.5-2.5z" class="st2"/><path d="M46.4 3.1H3.6c-.2 0-.5.2-.5.5v42.9c0 .3.2.5.5.5h42.9c.2 0 .5-.2.5-.5V3.6c-.1-.3-.3-.5-.6-.5zM46 46H4V4h42v42z" class="st2"/><path d="M46.4 3.1H3.6c-.2 0-.5.2-.5.5v9.3c0 .3.2.5.5.5h42.9c.2 0 .5-.2.5-.5V3.6c-.1-.3-.3-.5-.6-.5zm-.4 9.3H4V4h42v8.4z" class="st2"/><path d="M42.7 8.7H25c-.3 0-.5-.2-.5-.5s.2-.5.5-.5h17.7c.3 0 .5.2.5.5s-.2.5-.5.5zm-34.5 0h-.9c-.3 0-.5-.2-.5-.5 0-.2.2-.4.5-.4h.9c.3 0 .5.2.5.5 0 .2-.2.4-.5.4zm4.7 0H12c-.3 0-.5-.2-.5-.5s.2-.5.5-.5h.9c.3 0 .5.2.5.5s-.3.5-.5.5z" class="st2"/><g id="XMLID_28435_"><g id="XMLID_28460_"><path id="XMLID_28462_" d="M39.5 36.5c-.7 0-1.3.3-1.7.8V26.9l-.7.3v11.9c0 .1.2.2.3.2.2 0 .4-.1.4-.3.1-1 .8-1.8 1.7-1.8.9 0 1.7.8 1.8 1.7v-1.7c-.5-.4-1.1-.7-1.8-.7zm0 0c-.7 0-1.3.3-1.7.8V39c0 .2-.2.4-.4.4-.1 0-.3-.1-.3-.2 0 .1.2.2.3.2.2 0 .4-.1.4-.3.1-1 .8-1.8 1.7-1.8.9 0 1.7.8 1.8 1.7v-1.7c-.5-.5-1.1-.8-1.8-.8zm-2.4 2.4zm2.4-2.4c-.7 0-1.3.3-1.7.8V39c0 .2-.2.4-.4.4-.1 0-.3-.1-.3-.2 0 .1.2.2.3.2.2 0 .4-.1.4-.3.1-1 .8-1.8 1.7-1.8.9 0 1.7.8 1.8 1.7v-1.7c-.5-.5-1.1-.8-1.8-.8zM37.1 39zm4.9-.2c-.1-.6-.3-1.1-.7-1.5-.5-.5-1.1-.8-1.8-.8s-1.3.3-1.7.8V17.1c0-.2-.2-.4-.4-.4h-29c-.2 0-.3.2-.3.4v25.5c0 .2.2.4.3.4h29.5c2.2 0 4.1-1.8 4.2-4v-.1l-.1-.1zm-4.2 3.5H8.7V17.4H37v21.7c0 .1.2.2.3.2.2 0 .4-.1.4-.3.1-1 .8-1.8 1.7-1.8.9 0 1.7.8 1.8 1.7 0 1.9-1.5 3.4-3.4 3.4zm-.7-3.4zm2.4-2.4c-.7 0-1.3.3-1.7.8V39c0 .2-.2.4-.4.4-.1 0-.3-.1-.3-.2 0 .1.2.2.3.2.2 0 .4-.1.4-.3.1-1 .8-1.8 1.7-1.8.9 0 1.7.8 1.8 1.7v-1.7c-.5-.5-1.1-.8-1.8-.8zm0 0c-.7 0-1.3.3-1.7.8V26.9l-.7.3v11.9c0 .1.2.2.3.2.2 0 .4-.1.4-.3.1-1 .8-1.8 1.7-1.8.9 0 1.7.8 1.8 1.7v-1.7c-.5-.4-1.1-.7-1.8-.7z" class="st2"/><path id="XMLID_28461_" d="M41.6 39.3c-.2 0-.4-.2-.4-.4V17.2c0-1-.8-1.9-1.8-1.9s-1.7.8-1.7 1.9v21.7c0 .2-.2.4-.4.4s-.4-.2-.4-.4V17.2c0-1.5 1.1-2.6 2.4-2.6 1.4 0 2.5 1.2 2.5 2.6v21.7c.2.2 0 .4-.2.4z" class="st2"/></g><path id="XMLID_28459_" d="M34.6 19.6H11.2c-.2 0-.4.2-.4.4v4.2c0 .2.2.3.4.3h23.4c.2 0 .3-.2.3-.3V20c0-.3-.1-.4-.3-.4zm-.4 4.2H11.5v-3.5h22.7v3.5z" class="st2"/><path id="XMLID_28458_" d="M16.9 26.6h-5c-.2 0-.3.2-.3.4v4.2c0 .2.2.3.3.3h5c.2 0 .3-.2.3-.3V27c0-.2-.2-.4-.3-.4zm-.4 4.3h-4.2v-3.5h4.2v3.5z" class="st2"/><path id="XMLID_28457_" d="M33.8 26.6h-5c-.2 0-.4.2-.4.4v4.2c0 .2.2.3.4.3h5c.2 0 .4-.2.4-.3V27c0-.2-.2-.4-.4-.4zm-.3 4.3h-4.2v-3.5h4.2v3.5z" class="st2"/><path id="XMLID_28456_" d="M25.3 26.6h-5c-.2 0-.4.2-.4.4v4.2c0 .2.2.3.4.3h5c.2 0 .3-.1.4-.3V27c0-.2-.2-.4-.4-.4zm-4.5 4.3v-3.5H25v3.5h-4.2z" class="st2"/><path id="XMLID_28455_" d="M16.9 34.4h-5c-.2 0-.4-.2-.4-.4s.2-.4.4-.4h5c.2 0 .4.2.4.4-.1.3-.2.4-.4.4z" class="st2"/><path id="XMLID_28454_" d="M16.9 37.3h-5c-.2 0-.4-.2-.4-.4s.2-.4.4-.4h5c.2 0 .4.2.4.4-.1.2-.2.4-.4.4z" class="st2"/><path id="XMLID_28453_" d="M16.9 40.1h-5c-.2 0-.4-.2-.4-.4s.2-.4.4-.4h5c.2 0 .4.2.4.4-.1.2-.2.4-.4.4z" class="st2"/><path id="XMLID_28452_" d="M25.4 34.4h-5c-.2 0-.4-.2-.4-.4s.2-.4.4-.4h5c.2 0 .4.2.4.4-.1.3-.3.4-.4.4z" class="st2"/><path id="XMLID_28451_" d="M25.4 37.3h-5c-.2 0-.4-.2-.4-.4s.2-.4.4-.4h5c.2 0 .4.2.4.4-.1.2-.3.4-.4.4z" class="st2"/><path id="XMLID_28450_" d="M25.4 40.1h-5c-.2 0-.4-.2-.4-.4s.2-.4.4-.4h5c.2 0 .4.2.4.4-.1.2-.3.4-.4.4z" class="st2"/><path id="XMLID_28449_" d="M33.8 34.4h-5c-.2 0-.4-.2-.4-.4s.2-.4.4-.4h5c.2 0 .4.2.4.4 0 .3-.2.4-.4.4z" class="st2"/><path id="XMLID_28448_" d="M33.8 37.3h-5c-.2 0-.4-.2-.4-.4s.2-.4.4-.4h5c.2 0 .4.2.4.4s-.2.4-.4.4z" class="st2"/><path id="XMLID_28447_" d="M33.8 40.1h-5c-.2 0-.4-.2-.4-.4s.2-.4.4-.4h5c.2 0 .4.2.4.4s-.2.4-.4.4z" class="st2"/></g></svg>