<svg xmlns="http://www.w3.org/2000/svg" id="Camada_2" data-name="Camada 2" viewBox="0 0 44.59 49.41"><defs><style>.cls-1,.cls-2{fill:none;stroke:#444;stroke-linecap:round;stroke-linejoin:round}.cls-2{stroke-width:.5px}</style></defs><g id="_Ícones" data-name="Ícones"><path fill="#dc5e82" stroke-width="0" d="M41.97 12.1l-5.63-3.59-7.67-4.43-5.97-2.84c-3.2.01-21.45 8.95-21.45 12.15l-.53 7.8.53 15.13 11.5 7.56 31.02-11.04c.74-.42-.82-18.75-1.8-20.74z"/><path fill="none" stroke="#444" stroke-linecap="round" stroke-linejoin="round" stroke-width="2.5" d="M27.23 46.16l-2.2 1.27c-1.69.98-3.78.98-5.47 0L3.99 38.44a5.48 5.48 0 01-2.74-4.74V15.71a5.46 5.46 0 012.74-4.74l15.57-8.98c1.69-.98 3.78-.98 5.47 0l15.57 8.99a5.48 5.48 0 012.74 4.74V33.7a5.46 5.46 0 01-2.74 4.74l-2.46 1.42"/><path d="M25.77 29.83s4.53.48 4.11-1.09m-4.21-2.11l-6.41.43c-3.3.22-6.67.49-10.26.86l-1.88-1.86a.697.697 0 00-.49-.2h-.95a.7.7 0 00-.67.9l.86 2.9a3.587 3.587 0 003.25 2.56l1.2.06 5.16.27-4.62 5.29c-.36.42-.07 1.07.48 1.07h2.65c.13 0 .25-.04.36-.11l8.67-5.85 2.64.14c1.32.06 6.62-.1 6.62-1.42 0-1.41-2.44-2.95-2.44-2.95s-.58-2.18-4.18-2.08z" class="cls-1"/><path d="M23.03 26.84l-6.9-4.15a.603.603 0 00-.29-.08h-2.18c-.45 0-.72.49-.48.87l2.3 3.71" class="cls-1"/><path d="M10.76 29.83H9.23m5.91 0h-1.46m5.85 0h-1.47m5.9 0h-1.51m1.84-11.53c-2.71 0-5.24-.69-7.48-1.88m14.76.1c-1.59-3.09-4.1-5.84-7.28-8.09v9.87c2.63 0 5.09-.65 7.28-1.78z" class="cls-2"/><path d="M24.29 8.43l-.12-.09c-3.2 2.24-5.74 4.99-7.35 8.08 2.23 1.19 4.77 1.88 7.48 1.88V8.43zm-8.13 9.39c.2-.47.42-.94.66-1.4-1.54-.82-2.93-1.87-4.12-3.12-.79.84-1.5 1.76-2.1 2.75m23.71 17.8c.56.45 1.09.93 1.58 1.45" class="cls-2"/><path d="M32.25 38.19c4.81-2.76 8.05-7.95 8.05-13.89s-6.79 0-6.79 0c0 .99-.09 1.96-.26 2.92" class="cls-2"/><path d="M31.57 16.52c1.62-.83 3.08-1.91 4.32-3.22a16.083 16.083 0 01-4.32 3.22c1.25 2.42 1.93 5.04 1.93 7.78h6.79c0-8.84-7.16-16-16-16v.13c3.18 2.25 5.69 5 7.28 8.09z" class="cls-2"/><path d="M29.25 24.3h4.25c0-2.74-.68-5.36-1.93-7.78a15.765 15.765 0 01-7.28 1.78v4.4m-.12-14.36l.12.09V8.3c-4.57 0-8.68 1.93-11.6 5 1.19 1.25 2.59 2.3 4.12 3.12 1.62-3.09 4.15-5.84 7.35-8.08z" class="cls-2"/></g></svg>