<svg xmlns="http://www.w3.org/2000/svg" id="Camada_3" x="0" y="0" version="1.1" viewBox="0 0 50 50" xml:space="preserve"><style>.st3{fill:none;stroke:#444;stroke-width:.25;stroke-linejoin:round;stroke-miterlimit:10}.st4{fill:#444}</style><path fill="#6fc5de" d="M48.2 25c0-5.5-2-10.6-5.3-14.6L2.4 25.2c.1 8.4 4.6 15.7 11.3 19.6l33.1-12.1c.9-2.4 1.4-5 1.4-7.7z"/><path fill="#86cfed" d="M25.4 1.7C12.3 1.7 1.7 12.3 1.7 25.4v.2l41.9-15.2c-4.3-5.3-10.9-8.7-18.2-8.7z"/><path fill="#444444" d="M25.3 49.2C12 49.2 1.1 38.3 1.1 25S12 .8 25.3.8 49.5 11.6 49.5 25c0 3.3-.6 6.4-1.9 9.4-.3.6-1 .9-1.6.7-.6-.3-.9-1-.7-1.6 1.1-2.7 1.7-5.5 1.7-8.4 0-11.9-9.7-21.7-21.7-21.7S3.6 13.1 3.6 25s9.8 21.7 21.7 21.7c4.3 0 8.5-1.3 12.1-3.7.6-.4 1.3-.2 1.7.3.4.6.2 1.3-.3 1.7-4 2.7-8.7 4.2-13.5 4.2z"/><path d="M21.6 16v-4.1" class="st3"/><path d="M23.4 10.2c0 1-.8 1.8-1.7 1.8-1 0-1.7-.8-1.7-1.8s.8-1.8 1.7-1.8c.9 0 1.7.8 1.7 1.8zm13.3 1.6c0 1 .8 1.8 1.7 1.8 1 0 1.7-.8 1.7-1.8s-.8-1.8-1.7-1.8c-.9.1-1.7.8-1.7 1.8z" class="st4"/><path d="M29 16v-4.2h7.7M16.4 28.7h-4.1" class="st3"/><path d="M10.6 26.9c1 0 1.7.8 1.7 1.8s-.8 1.8-1.7 1.8-1.7-.8-1.7-1.8c-.1-1 .7-1.8 1.7-1.8zm1.6-13.3c1 0 1.7-.8 1.7-1.8s-.8-1.8-1.7-1.8-1.7.8-1.7 1.8.7 1.8 1.7 1.8z" class="st4"/><path d="M12.2 13.6v7.7h4.2M29 38.1V34" class="st3"/><path d="M27.2 39.8c0-1 .8-1.8 1.7-1.8 1 0 1.7.8 1.7 1.8s-.8 1.8-1.7 1.8c-.9 0-1.7-.8-1.7-1.8zm-13.3-1.6c0-1-.8-1.8-1.7-1.8s-1.7.8-1.7 1.8.8 1.8 1.7 1.8 1.7-.8 1.7-1.8z" class="st4"/><path d="M21.6 34v4.2h-7.7m24.4-16.9h-4.1" class="st3"/><path d="M40 23.1c-1 0-1.7-.8-1.7-1.8s.8-1.8 1.7-1.8 1.7.8 1.7 1.8c.1 1-.7 1.8-1.7 1.8zm-1.6 13.3c-1 0-1.7.8-1.7 1.8s.8 1.8 1.7 1.8c1 0 1.7-.8 1.7-1.8.1-1-.7-1.8-1.7-1.8z" class="st4"/><path d="M34.2 28.7h4.2v7.7" class="st3"/><path fill="#444" stroke="#444" stroke-miterlimit="10" d="M37.8 25.7v-1.4c0-.7-.5-1.2-1.2-1.3-.8 0-1.8-.1-2 0l-1.3-3.2c.2-.1.8-.8 1.4-1.4.5-.5.4-1.3 0-1.8l-1-1c-.5-.5-1.3-.5-1.8 0-.6.6-1.3 1.2-1.4 1.4l-3.2-1.3v-2c0-.7-.6-1.2-1.3-1.2h-1.4c-.7 0-1.2.5-1.3 1.2 0 .8-.1 1.8 0 2L20.2 17c-.1-.2-.8-.8-1.4-1.4-.5-.5-1.3-.5-1.8 0l-1 1c-.5.5-.5 1.3 0 1.8.6.6 1.2 1.3 1.4 1.4L16 23h-2c-.7 0-1.2.6-1.2 1.3v1.4c0 .7.5 1.2 1.2 1.3.8 0 1.8.1 2 0l1.3 3.2c-.2.1-.8.8-1.4 1.4-.5.5-.4 1.3 0 1.8l1 1c.5.5 1.3.5 1.8 0 .6-.6 1.3-1.2 1.4-1.4l3.2 1.3v2c0 .7.6 1.2 1.3 1.2H26c.7 0 1.2-.5 1.3-1.2 0-.8.1-1.8 0-2l3.2-1.3c.1.2.8.8 1.4 1.4.5.5 1.3.5 1.8 0l1-1c.5-.5.5-1.3 0-1.8-.6-.6-1.2-1.3-1.4-1.4l1.3-3.2h2c.6 0 1.2-.6 1.2-1.3zm-8.4 2.1c-2 3-6.3 3-8.3 0-1.1-1.6-1.1-3.9 0-5.5 2-3 6.3-3 8.3 0 1.1 1.6 1.1 3.8 0 5.5z"/></svg>
