<svg xmlns="http://www.w3.org/2000/svg" version="1" viewBox="0 0 50 50"><path fill="#E56060" d="M16.058 34.35a.17.17 0 01.081.144v5.252l20.494-7.459a16.92 16.92 0 005.376-12.404c0-10.029-8.679-18.03-18.936-16.902-8.507.935-14.843 7.876-15.075 16.431-.171 6.318 3.083 11.866 8.06 14.938z"/><path fill="#FF6B6B" d="M33.861 5.143c-3.011-1.737-6.603-2.581-10.414-2.162-6.634.729-11.933 5.118-14.061 11.07l24.475-8.908z"/><g fill="#031326"><path d="M36.986 6.5c-3.853-3.453-8.832-5.04-14.017-4.47-8.983.987-15.681 8.286-15.928 17.356-.169 6.239 2.942 12.154 8.141 15.541V45.85c0 .813.422 1.539 1.13 1.939.709.401 1.547.39 2.246-.028L25 43.897l6.443 3.866c.357.214.751.321 1.145.321.376 0 .754-.098 1.099-.294a2.203 2.203 0 001.13-1.939v-6.105a.956.956 0 10-1.914 0v6.105c0 .16-.1.24-.16.274a.305.305 0 01-.316-.004L25 41.664l-7.427 4.457a.304.304 0 01-.318.004.304.304 0 01-.16-.274V35.128a17.473 17.473 0 007.904 1.873c1.021 0 2.043-.088 3.039-.262a.574.574 0 10-.198-1.132c-.931.163-1.886.245-2.841.245-3.406 0-6.66-1.036-9.432-2.985-4.305-3.107-6.759-8.042-6.613-13.43.22-8.103 6.202-14.624 14.223-15.506 4.64-.509 9.089.908 12.53 3.993a16.078 16.078 0 015.344 11.958c0 4.492-1.8 8.65-5.07 11.709a.957.957 0 001.308 1.398c3.66-3.425 5.676-8.08 5.676-13.107A17.988 17.988 0 0036.986 6.5z"/><path d="M36.431 25.152a12.508 12.508 0 001.17-5.269c0-1.882-.426-3.663-1.169-5.268a.567.567 0 00-.102-.211C34.287 10.197 29.983 7.282 25 7.282s-9.287 2.915-11.33 7.123a.575.575 0 00-.101.208 12.513 12.513 0 00-1.17 5.27c0 1.883.427 3.665 1.17 5.271a.569.569 0 00.1.207c2.043 4.208 6.347 7.123 11.33 7.123s9.287-2.915 11.33-7.122a.54.54 0 00.102-.21zM25 31.336c-1.109 0-2.295-1.799-3.041-4.764a60.985 60.985 0 006.082 0c-.746 2.964-1.932 4.764-3.041 4.764zm0-5.836c-1.114 0-2.215-.034-3.298-.094-.28-1.45-.455-3.12-.486-4.949h7.569c-.031 1.829-.206 3.499-.486 4.949-1.084.06-2.185.094-3.299.094zM14.536 15.251a48.165 48.165 0 015.991-.815 31.198 31.198 0 00-.46 4.874h-6.49c.072-1.439.402-2.808.959-4.059zM25 8.431c1.109 0 2.295 1.799 3.041 4.763a60.985 60.985 0 00-6.082 0c.746-2.964 1.932-4.763 3.041-4.763zm0 5.835c1.114 0 2.215.034 3.298.094.28 1.45.455 3.12.486 4.949h-7.569c.031-1.829.206-3.499.486-4.949A59.696 59.696 0 0125 14.266zm11.424 5.043h-6.49a31.077 31.077 0 00-.46-4.874c2.115.16 4.136.435 5.991.815a11.38 11.38 0 01.959 4.059zm-22.847 1.148h6.49c.029 1.659.183 3.327.46 4.874a48.165 48.165 0 01-5.991-.815 11.359 11.359 0 01-.959-4.059zm16.356 0h6.49a11.348 11.348 0 01-.959 4.058c-1.855.38-3.876.655-5.991.815.278-1.546.431-3.214.46-4.873zm4.841-6.512a51.012 51.012 0 00-5.537-.679c-.436-1.895-1.074-3.514-1.897-4.592 3.146.655 5.811 2.611 7.434 5.271zM22.659 8.673c-.822 1.078-1.461 2.698-1.897 4.593a51.243 51.243 0 00-5.536.679c1.623-2.66 4.288-4.616 7.433-5.272zm-7.433 17.149c1.739.316 3.603.543 5.536.679.436 1.895 1.074 3.514 1.897 4.593-3.145-.656-5.81-2.612-7.433-5.272zm12.114 5.271c.822-1.078 1.461-2.698 1.897-4.593a51.262 51.262 0 005.537-.679c-1.622 2.661-4.288 4.617-7.434 5.272z"/></g></svg>