<svg xmlns="http://www.w3.org/2000/svg" id="Camada_3" x="0" y="0" version="1.1" viewBox="0 0 50 50" xml:space="preserve"><style>.st2,.st4{fill:#444;stroke:#444;stroke-width:.25;stroke-miterlimit:10}.st4{fill:none;stroke-width:.5}</style><path fill="#fcc34f" d="M47.03 33.61v-9.56c0-11.93-9.28-22.09-21.2-22.52-12.52-.44-22.81 9.58-22.81 22V38.8c.02 4.31 4.14 6.31 8.37 7.79l35.64-12.98z"/><path fill="#444" d="M45.71 21.07c.1.81.15 1.63.15 2.46v10.6c0 .65.53 1.18 1.18 1.18.65 0 1.17-.53 1.18-1.18v-10.6C48.22 10.75 37.82.35 25.04.35S1.86 10.75 1.86 23.53v17.21a4.57 4.57 0 002.88 4.27c4.03 1.61 12.02 4.32 20.3 4.32 3.39 0 7.08-.46 10.94-1.37.63-.15 1.02-.78.88-1.41-.15-.63-.78-1.02-1.41-.88-3.69.87-7.19 1.3-10.41 1.3-7.89 0-15.56-2.6-19.42-4.16a2.228 2.228 0 01-1.4-2.09V23.53c0-.83.05-1.65.15-2.46.09-2.01.61-3.1.61-3.1C7.4 9.17 15.47 2.7 25.03 2.7S42.66 9.18 45.1 17.97c0 0 .53 1.28.61 3.1z"/><circle cx="35.7" cy="28.31" r="3.42" class="st2"/><circle cx="14.36" cy="28.31" r="3.42" class="st2"/><path fill="none" stroke="#444" stroke-miterlimit="10" d="M24.34 28.77l-2.96 2.21c-.45.33-.59.94-.33 1.44l2.96 5.79a1.147 1.147 0 002.04 0l2.96-5.79c.25-.5.11-1.1-.33-1.44l-2.96-2.21c-.41-.3-.97-.3-1.38 0z"/><path d="M4.17 18.42s7.34-8.49 20.01-.79c.58.35 1.27.41 1.81.01 2.64-1.96 12.78-6.7 19.9.78" class="st4"/><path d="M4.17 14.28s7.34-8.49 20.01-.79c.58.35 1.27.41 1.81.01 2.64-1.96 12.78-6.7 19.9.78" class="st4"/></svg>