<svg xmlns="http://www.w3.org/2000/svg" version="1" viewBox="0 0 50 50"><path fill="#46B8B0" d="M16.074 34.334c.05.031.08.085.08.143v5.243l20.457-7.446a16.891 16.891 0 005.367-12.382c0-10.011-8.663-17.997-18.902-16.872-8.491.934-14.816 7.862-15.048 16.402-.171 6.307 3.078 11.845 8.046 14.912z"/><path fill="#4ECDC4" d="M33.845 5.179c-3.006-1.734-6.591-2.576-10.395-2.158-6.623.728-11.912 5.109-14.036 11.049l24.431-8.891z"/><path fill="#031326" d="M36.986 6.509c-3.853-3.453-8.831-5.04-14.017-4.471-8.983.988-15.682 8.288-15.928 17.357-.169 6.231 2.934 12.14 8.126 15.532v10.886c0 .824.428 1.558 1.145 1.965a2.233 2.233 0 002.274-.029L25 43.9l6.414 3.849c.362.217.761.326 1.161.326.381 0 .763-.1 1.113-.297a2.233 2.233 0 001.145-1.965V39.72a.988.988 0 10-1.976 0v6.093a.269.269 0 01-.143.245.269.269 0 01-.284-.004L25 41.596l-7.43 4.458a.273.273 0 01-.284.004.27.27 0 01-.143-.245V35.027a17.458 17.458 0 007.858 1.853c1.019 0 2.041-.088 3.035-.261a.592.592 0 10-.203-1.168c-.928.162-1.882.244-2.833.244a16.262 16.262 0 01-9.602-3.107.573.573 0 00-.242-.099c-4.009-3.109-6.281-7.862-6.14-13.039.219-8.072 6.178-14.568 14.169-15.446 4.622-.51 9.054.905 12.483 3.978a16.014 16.014 0 015.323 11.912c0 4.475-1.794 8.617-5.05 11.665a.988.988 0 101.35 1.443c3.66-3.426 5.676-8.081 5.676-13.108a18.006 18.006 0 00-5.981-13.385z"/><path fill="#031326" d="M25.004 31.641c-6.749 0-12.241-5.491-12.241-12.241 0-6.749 5.491-12.241 12.241-12.241S37.245 12.651 37.245 19.4c0 6.75-5.492 12.241-12.241 12.241zm0-23.248c-6.07 0-11.007 4.938-11.007 11.007s4.938 11.007 11.007 11.007S36.011 25.47 36.011 19.4 31.074 8.393 25.004 8.393z"/><ellipse cx="25.052" cy="16.772" fill="#031326" rx="4.798" ry=".279"/><path fill="none" stroke="#031326" stroke-miterlimit="10" stroke-width=".424" d="M30.88 17.149c.073.793.097 1.941.065 2.925"/><path fill="none" stroke="#031326" stroke-linecap="round" stroke-miterlimit="10" stroke-width=".849" d="M31.856 16.943c-.276 0-.541.069-.774.196 0 0-.11-.848-.195-.942-.141-.157-1.679-.595-5.836-.595s-5.698.442-5.836.595c-.348.387-.379 5.379 0 5.8.799.887 2.703 2.186 5.836 2.186s5.037-1.299 5.836-2.186c.143-.158.227-.967.259-1.933.212.111.456.164.71.164a1.642 1.642 0 100-3.285z"/><circle cx="31.762" cy="18.597" r=".68" fill="none" stroke="#031326" stroke-miterlimit="10" stroke-width=".424"/></svg>