<svg xmlns="http://www.w3.org/2000/svg" viewBox="0 0 50 50"><path fill="#00c8e2" d="M46.9 25.9l.4 4.1L2.6 46.3l.2-8.7.4-4.9 44.5-16.2L47 20z"/><path fill="#00dffc" d="M47.2 10l-.6 7.4L2.9 33.3V24l.4-4.3 44-16z"/><path fill="none" stroke="#444" stroke-linecap="round" stroke-linejoin="round" stroke-miterlimit="10" stroke-width="2.5" d="M6.5 47.3H2.3V2.7h44.9v44.6H31.7"/><path fill="#494949" d="M12.6 11.3h6.2c.3 0 .6.3.6.6v6.2c0 .3-.3.6-.6.6h-6.2c-.3 0-.6-.3-.6-.6V12c0-.4.2-.7.6-.7zm0 19.9h6.2c.3 0 .6.3.6.6V38c0 .3-.3.6-.6.6h-6.2c-.3 0-.6-.3-.6-.6v-6.2c0-.3.2-.6.6-.6z"/><path fill="none" stroke="#444" stroke-linecap="round" stroke-linejoin="round" d="M23.2 15.1h14.2m-14.2 9.7h14.2M23.2 34.9h14.2m-24.8-9.7l2.4 2.3 4.4-5.4"/></svg>