<svg xmlns="http://www.w3.org/2000/svg" id="Layer_1" x="0" y="0" version="1.1" viewBox="0 0 50 50" xml:space="preserve"><style>.st2,.st4{fill:#444;stroke:#444;stroke-width:.25;stroke-miterlimit:10}.st4{fill:none;stroke-width:.5}</style><path fill="#e589ef" d="M47.5 33.8v-9.6c0-11.9-9.3-22.1-21.2-22.5-12.5-.4-22.8 9.6-22.8 22v15.2c0 4.3 4.1 6.3 8.4 7.8l35.6-12.9z"/><path fill="#444" d="M46.2 21.2c.1.8.1 1.6.1 2.5v10.6c0 .6.5 1.2 1.2 1.2.6 0 1.2-.5 1.2-1.2V23.7C48.7 10.9 38.3.5 25.5.5 12.7.5 2.3 10.9 2.3 23.7v17.2c0 1.9 1.1 3.6 2.9 4.3 4 1.6 12 4.3 20.3 4.3 3.4 0 7.1-.5 10.9-1.4.6-.1 1-.8.9-1.4-.1-.6-.8-1-1.4-.9-3.7.9-7.2 1.3-10.4 1.3-7.9.1-15.6-2.5-19.4-4.1-.9-.3-1.4-1.2-1.4-2.1V23.7c0-.8.1-1.7.1-2.5.1-2 .6-3.1.6-3.1C7.9 9.3 15.9 2.9 25.5 2.9s17.6 6.5 20.1 15.3c0-.1.5 1.2.6 3z"/><circle cx="36.2" cy="28.5" r="3.4" class="st2"/><circle cx="14.8" cy="28.5" r="3.4" class="st2"/><path fill="none" stroke="#444" stroke-miterlimit="10" d="M24.8 28.9l-3 2.2c-.4.3-.6.9-.3 1.4l3 5.8c.3.6 1 .8 1.5.5.2-.1.4-.3.5-.5l3-5.8c.3-.5.1-1.1-.3-1.4l-3-2.2c-.4-.3-1-.3-1.4 0z"/><path d="M4.6 18.6s7.3-8.5 20-.8c.6.3 1.3.4 1.8 0 2.6-2 12.8-6.7 19.9.8" class="st4"/><path d="M4.6 14.5s7.3-8.5 20-.8c.6.3 1.3.4 1.8 0 2.6-2 12.8-6.7 19.9.8" class="st4"/></svg>
