<svg xmlns="http://www.w3.org/2000/svg" id="Layer_1" x="0" y="0" version="1.1" viewBox="0 0 50 50" xml:space="preserve"><style>.st2{fill:#444}</style><path fill="#a475ef" d="M46.9 25.9l.4 4.1L2.6 46.3l.2-8.7.4-4.9 44.5-16.2L47 20z"/><path fill="#bf94f7" d="M47.2 10l-.6 7.4L2.9 33.3V24l.4-4.3 44-16z"/><path d="M47.2 48.5H31.7c-.7 0-1.2-.6-1.2-1.2S31 46 31.7 46H46V4H3.6v42h3c.7 0 1.2.6 1.2 1.2s-.6 1.2-1.2 1.2H2.3c-.7 0-1.2-.6-1.2-1.2V2.7c0-.7.6-1.2 1.2-1.2h44.9c.7 0 1.2.6 1.2 1.2v44.6c.1.7-.5 1.2-1.2 1.2z" class="st2"/><path fill="#494949" d="M12.6 11.3h6.2c.3 0 .6.3.6.6v6.2c0 .3-.3.6-.6.6h-6.2c-.3 0-.6-.3-.6-.6V12c0-.4.2-.7.6-.7zm0 19.9h6.2c.3 0 .6.3.6.6V38c0 .3-.3.6-.6.6h-6.2c-.3 0-.6-.3-.6-.6v-6.2c0-.3.2-.6.6-.6z"/><path d="M37.4 15.6H23.2c-.3 0-.5-.2-.5-.5s.2-.5.5-.5h14.2c.3 0 .5.2.5.5s-.2.5-.5.5zm0 9.7H23.2c-.3 0-.5-.2-.5-.5s.2-.5.5-.5h14.2c.3 0 .5.2.5.5s-.2.5-.5.5zm0 10.1H23.2c-.3 0-.5-.2-.5-.5s.2-.5.5-.5h14.2c.3 0 .5.2.5.5s-.2.5-.5.5zM15 28c-.1 0-.3 0-.3-.1l-2.4-2.4c-.2-.2-.2-.5 0-.7.2-.2.5-.2.7 0l2.1 2 4.1-5c.2-.2.5-.2.7-.1.2.2.2.5.1.7l-4.4 5.4c-.3.2-.4.2-.6.2z" class="st2"/></svg>