<svg xmlns="http://www.w3.org/2000/svg" viewBox="0 0 50 50"><path fill="#fc9d9a" d="M47.5 14l.5-3.3-1.9-3.8-15.4.4c-3.2 0-27.8-3-27.8.2L1.2 20.4 2.4 44l13.6.6 31-11c.7-.4 1.5-17.6.5-19.6z"/><path fill="none" stroke="#444" stroke-linecap="round" stroke-linejoin="round" stroke-miterlimit="10" stroke-width="2.5" d="M32.6 44.6h-27c-1.9 0-3.4-1.6-3.4-3.5V9.9c0-1.9 1.5-3.5 3.4-3.5h39C46.5 6.4 48 8 48 9.9v24.7"/><path fill="none" stroke="#444" stroke-linecap="round" stroke-linejoin="round" stroke-miterlimit="10" d="M6.4 12.7v24.1c0 1.5 1.3 2.8 2.8 2.8h29.5"/><path fill="none" stroke="#444" stroke-linejoin="round" d="M6.5 24.4l17.3-3.5L35 28.4l1.8-3.5 6.2 1.7"/><path fill="#444" d="M38.7 29.7l-.5-.9 4.4-2.3-2.6-4.2.8-.5 3.2 5.1zm-13.5-2c-.1 0-.2 0-.2-.1l-8.3-4.1.4-.9 8.1 4 15.1-10.5.6.8-15.4 10.7c-.1.1-.2.1-.3.1z"/><path fill="none" stroke="#444" stroke-linejoin="round" stroke-miterlimit="10" d="M6.3 18.2l4.4 2.1"/><path fill="none" stroke="#444" stroke-linecap="round" stroke-linejoin="round" stroke-miterlimit="10" stroke-width=".5" d="M15.2 15.9h-2.9c-.9 0-1.6.7-1.6 1.6v19.1c0 .9.7 1.6 1.6 1.6h2.9c.9 0 1.6-.7 1.6-1.6V17.5c0-.9-.7-1.6-1.6-1.6zM24 29.7h-2.9c-.9 0-1.6.7-1.6 1.6v5.3c0 .9.7 1.6 1.6 1.6H24c.9 0 1.6-.7 1.6-1.6v-5.3c0-.9-.7-1.6-1.6-1.6zm9.2.5h-2.9c-.9 0-1.6.7-1.6 1.6v4.8c0 .9.7 1.6 1.6 1.6h2.9c.9 0 1.6-.7 1.6-1.6v-4.8c0-.9-.7-1.6-1.6-1.6z"/></svg>