<?xml version="1.0" encoding="utf-8"?>
<!-- Generator: Adobe Illustrator 28.0.0, SVG Export Plug-In . SVG Version: 6.00 Build 0)  -->
<svg version="1.1" id="Layer_1" xmlns="http://www.w3.org/2000/svg" xmlns:xlink="http://www.w3.org/1999/xlink" x="0px" y="0px"
	 viewBox="0 0 50 50" style="enable-background:new 0 0 50 50;" xml:space="preserve">
<style type="text/css">
	.st0{fill:#C3FF68;}
	.st1{fill:none;stroke:#414141;stroke-width:2.5;stroke-linecap:round;stroke-linejoin:round;stroke-miterlimit:10;}
	.st2{fill:none;stroke:#414141;stroke-width:0.5;stroke-linecap:round;stroke-linejoin:round;stroke-miterlimit:10;}
	.st3{fill:none;stroke:#414141;stroke-linecap:round;stroke-linejoin:round;stroke-miterlimit:10;}
	.st4{clip-path:url(#SVGID_00000155120276993411029350000001787526732315870622_);}
	.st5{fill:#414141;}
</style>
<g>
	<g>
		<g>
			<path class="st0" d="M45.3,9.3H3c-1.4,0-1.5,4-1.5,5.4l-0.2,5.9L0.8,31.1l1.3,12.1l12.8,0.6l33.1-11.8v-20V12v0
				C47.9,10.5,46.8,9.3,45.3,9.3z"/>
			<g>
				<path class="st1" d="M37.5,43.5H5C3,43.5,1.5,42,1.5,40V13C1.5,11.1,3,9.5,5,9.5h40.2c1.9,0,3.5,1.6,3.5,3.5v22.5"/>
				<line class="st2" x1="1.5" y1="15.7" x2="44.6" y2="15.7"/>
				<g>
					<line class="st3" x1="8.1" y1="13.3" x2="10.3" y2="13.3"/>
					<line class="st3" x1="12.2" y1="13.3" x2="14.3" y2="13.3"/>
					<line class="st3" x1="16.3" y1="13.3" x2="18.4" y2="13.3"/>
				</g>
			</g>
		</g>
		<g>
			<defs>
				<rect id="SVGID_1_" x="7.2" y="17.8" width="22.7" height="22.7"/>
			</defs>
			<clipPath id="SVGID_00000016787409116090659270000006710056291278994313_">
				<use xlink:href="#SVGID_1_"  style="overflow:visible;"/>
			</clipPath>
			<g style="clip-path:url(#SVGID_00000016787409116090659270000006710056291278994313_);">
				<g id="_x3C_Repetição_de_grade_x3E__00000117660730631336681580000016579737134813852594_">
					<path class="st2" d="M12.7,24.1H8.3c-0.4,0-0.7-0.3-0.7-0.7v-4.5c0-0.4,0.3-0.7,0.7-0.7h4.5c0.4,0,0.7,0.3,0.7,0.7v4.5
						C13.5,23.8,13.1,24.1,12.7,24.1z"/>
				</g>
				<g id="_x3C_Repetição_de_grade_x3E__00000026859485125507657310000008328830657595608974_">
					<path class="st2" d="M20.6,24.1h-4.5c-0.4,0-0.7-0.3-0.7-0.7v-4.5c0-0.4,0.3-0.7,0.7-0.7h4.5c0.4,0,0.7,0.3,0.7,0.7v4.5
						C21.4,23.8,21,24.1,20.6,24.1z"/>
				</g>
				<g id="_x3C_Repetição_de_grade_x3E__00000165226755887616343350000001447305533809674399_">
					<path class="st2" d="M28.5,24.1h-4.5c-0.4,0-0.7-0.3-0.7-0.7v-4.5c0-0.4,0.3-0.7,0.7-0.7h4.5c0.4,0,0.7,0.3,0.7,0.7v4.5
						C29.3,23.8,28.9,24.1,28.5,24.1z"/>
				</g>
				<g id="_x3C_Repetição_de_grade_x3E__00000059303365802398447410000003671093348726676111_">
					<path class="st2" d="M12.7,31.8H8.3c-0.4,0-0.7-0.3-0.7-0.7v-4.5c0-0.4,0.3-0.7,0.7-0.7h4.5c0.4,0,0.7,0.3,0.7,0.7V31
						C13.5,31.4,13.1,31.8,12.7,31.8z"/>
				</g>
				<g id="_x3C_Repetição_de_grade_x3E__00000007403981096946269950000016914492562600806076_">
					<path class="st2" d="M20.6,31.8h-4.5c-0.4,0-0.7-0.3-0.7-0.7v-4.5c0-0.4,0.3-0.7,0.7-0.7h4.5c0.4,0,0.7,0.3,0.7,0.7V31
						C21.4,31.4,21,31.8,20.6,31.8z"/>
				</g>
				<g id="_x3C_Repetição_de_grade_x3E__00000154425366086314241820000012176802083581004731_">
					<path class="st2" d="M28.5,31.8h-4.5c-0.4,0-0.7-0.3-0.7-0.7v-4.5c0-0.4,0.3-0.7,0.7-0.7h4.5c0.4,0,0.7,0.3,0.7,0.7V31
						C29.3,31.4,28.9,31.8,28.5,31.8z"/>
				</g>
				<g id="_x3C_Repetição_de_grade_x3E__00000165941438342380970600000002105626119758586753_">
					<path class="st2" d="M12.7,39.4H8.3c-0.4,0-0.7-0.3-0.7-0.7v-4.5c0-0.4,0.3-0.7,0.7-0.7h4.5c0.4,0,0.7,0.3,0.7,0.7v4.5
						C13.5,39.1,13.1,39.4,12.7,39.4z"/>
				</g>
				<g id="_x3C_Repetição_de_grade_x3E__00000003096645642632943440000004472901380758678939_">
					<path class="st2" d="M20.6,39.4h-4.5c-0.4,0-0.7-0.3-0.7-0.7v-4.5c0-0.4,0.3-0.7,0.7-0.7h4.5c0.4,0,0.7,0.3,0.7,0.7v4.5
						C21.4,39.1,21,39.4,20.6,39.4z"/>
				</g>
				<g id="_x3C_Repetição_de_grade_x3E__00000099626277236518219990000012961742325630203069_">
					<path class="st2" d="M28.5,39.4h-4.5c-0.4,0-0.7-0.3-0.7-0.7v-4.5c0-0.4,0.3-0.7,0.7-0.7h4.5c0.4,0,0.7,0.3,0.7,0.7v4.5
						C29.3,39.1,28.9,39.4,28.5,39.4z"/>
				</g>
			</g>
		</g>
		<line class="st3" x1="32.3" y1="19.3" x2="36.7" y2="19.3"/>
		<line class="st3" x1="32.3" y1="22" x2="43.3" y2="22"/>
		<line class="st3" x1="32.3" y1="24.6" x2="41.7" y2="24.6"/>
		<line class="st3" x1="32.3" y1="29.6" x2="43.3" y2="29.6"/>
		<line class="st3" x1="32.3" y1="27.2" x2="43.3" y2="27.2"/>
		<line class="st3" x1="32.3" y1="32.1" x2="41.7" y2="32.1"/>
	</g>
	<path class="st5" d="M20.8,31.7h-4.9c-0.2,0-0.4-0.2-0.4-0.4v-4.9c0-0.2,0.2-0.4,0.4-0.4h4.9c0.2,0,0.4,0.2,0.4,0.4v4.9
		C21.2,31.5,21,31.7,20.8,31.7z"/>
</g>
</svg>
