<?xml version="1.0" encoding="utf-8"?>
<!-- Generator: Adobe Illustrator 28.0.0, SVG Export Plug-In . SVG Version: 6.00 Build 0)  -->
<svg version="1.1" id="Layer_1" xmlns="http://www.w3.org/2000/svg" xmlns:xlink="http://www.w3.org/1999/xlink" x="0px" y="0px"
	 viewBox="0 0 50 50" style="enable-background:new 0 0 50 50;" xml:space="preserve">
<style type="text/css">
	.st0{fill:#FF6B6B;}
	.st1{fill:none;stroke:#444444;stroke-width:2.5;stroke-linecap:round;stroke-linejoin:round;stroke-miterlimit:10;}
	.st2{fill:#444444;}
	.st3{fill:none;stroke:#444444;stroke-miterlimit:10;}
	.st4{fill:none;stroke:#444444;stroke-width:0.5;stroke-miterlimit:10;}
</style>
<g>
	<path class="st0" d="M48,17.7l0.5-11l-1.9-3.8L31.2,3.3c-3.2,0-27.8-3-27.8,0.2L1.7,24.1l1.2,23.5l13.6,0.6l31-11
		C48.2,36.9,49,19.7,48,17.7z"/>
	<path class="st1" d="M33.1,48.3h-27c-1.9,0-3.4-1.6-3.4-3.5V5.8c0-1.9,1.5-3.5,3.4-3.5h39c1.9,0,3.4,1.6,3.4,3.5v32.5"/>
	<g>
		<g>
			<path class="st2" d="M26.5,28.8c0.1,0.1,0.2,0.2,0.4,0.2c0,0,0.1,0,0.1,0c0.5-0.1,1-0.3,1.4-0.6c0.2-0.1,0.3-0.4,0.1-0.7
				c-0.1-0.1-0.1-0.2-0.1-0.2c0,0,0,0,0,0c0.1,0,0.1-0.1,0.2-0.1c0.1-0.1,0.1-0.1,0.1-0.2c0,0,0,0,0,0c0,0,0.1,0.1,0.2,0.1
				c0.2,0.1,0.5,0.1,0.7-0.1c0.3-0.4,0.5-0.9,0.6-1.4c0.1-0.3-0.1-0.5-0.4-0.6c-0.1,0-0.2-0.1-0.2-0.1c0,0,0,0,0,0
				c0-0.1,0-0.1,0-0.2c0-0.1,0-0.2,0-0.2c0,0,0,0,0,0c0,0,0.1,0,0.2-0.1c0.3-0.1,0.4-0.3,0.4-0.6c-0.1-0.5-0.3-1-0.6-1.4
				c-0.1-0.2-0.4-0.3-0.7-0.1c-0.1,0.1-0.2,0.1-0.2,0.1c0,0,0,0,0,0c0-0.1-0.1-0.1-0.1-0.2c-0.1-0.1-0.1-0.1-0.2-0.1c0,0,0,0,0,0
				c0,0,0.1-0.1,0.1-0.2c0.1-0.2,0.1-0.5-0.1-0.7c-0.4-0.3-0.9-0.5-1.4-0.6c-0.2,0-0.4,0-0.5,0.2c-0.6,1.1-0.8,0-0.8,0
				c-0.1-0.1-0.3-0.2-0.5-0.2c-0.5,0.1-1,0.3-1.4,0.6c-0.2,0.1-0.3,0.4-0.1,0.7c0.1,0.1,0.1,0.2,0.1,0.2c0,0,0,0,0,0
				c-0.1,0-0.1,0.1-0.2,0.1c-0.1,0.1-0.1,0.1-0.1,0.2c0,0,0,0,0,0c0,0-0.1-0.1-0.2-0.1c-0.2-0.1-0.5-0.1-0.7,0.1
				c-0.3,0.4-0.5,0.9-0.6,1.4c-0.1,0.3,0.1,0.5,0.4,0.6c0.1,0,0.2,0.1,0.2,0.1c0,0,0,0,0,0c0,0.1,0,0.1,0,0.2c0,0.1,0,0.2,0,0.2
				c0,0,0,0,0,0c0,0-0.1,0-0.2,0.1c-0.3,0.1-0.4,0.3-0.4,0.6c0.1,0.5,0.3,1,0.6,1.4c0.1,0.2,0.4,0.3,0.7,0.1
				c0.1-0.1,0.2-0.1,0.2-0.1c0,0,0,0,0,0c0,0.1,0.1,0.1,0.1,0.2c0.1,0.1,0.1,0.1,0.2,0.1c0,0,0,0,0,0c0,0-0.1,0.1-0.1,0.2
				c-0.1,0.2-0.1,0.5,0.2,0.7c0.4,0.3,0.9,0.5,1.4,0.6c0.2,0,0.4,0,0.5-0.2C25.6,28.8,26.1,28,26.5,28.8z M27.1,21.6
				c0.2,0.1,0.4,0.1,0.5,0.2c-0.2,0.4-0.1,0.7,0.2,1c0,0,0.1,0.1,0.1,0.1c0,0,0.1,0.1,0.1,0.1c0.3,0.3,0.6,0.4,1,0.2
				c0.1,0.2,0.2,0.4,0.2,0.5c-0.4,0.2-0.6,0.4-0.5,0.9c0,0,0,0.1,0,0.2c0,0.1,0,0.1,0,0.2c0,0.5,0.1,0.7,0.5,0.9
				c-0.1,0.2-0.1,0.4-0.2,0.5c-0.4-0.2-0.7-0.1-1,0.2c0,0-0.1,0.1-0.1,0.1c0,0-0.1,0.1-0.1,0.1c-0.3,0.3-0.4,0.6-0.2,1
				c-0.2,0.1-0.4,0.2-0.5,0.2c-0.2-0.4-0.4-0.6-0.9-0.5c-0.1,0-0.2,0-0.3,0c-0.5,0-0.7,0.1-0.9,0.5c-0.2-0.1-0.4-0.1-0.5-0.2
				c0.2-0.4,0.1-0.7-0.2-1c0,0-0.1-0.1-0.1-0.1c0,0-0.1-0.1-0.1-0.1c-0.3-0.3-0.6-0.4-1-0.2c-0.1-0.2-0.2-0.4-0.2-0.5
				c0.4-0.2,0.6-0.4,0.5-0.9c0,0,0-0.1,0-0.2c0-0.1,0-0.1,0-0.2c0-0.5-0.1-0.7-0.5-0.9c0.1-0.2,0.1-0.4,0.2-0.5
				c0.4,0.2,0.7,0.1,1-0.2c0,0,0.1-0.1,0.1-0.1c0,0,0,0,0,0c0,0,0.1-0.1,0.1-0.1c0.3-0.3,0.4-0.6,0.2-1c0.2-0.1,0.4-0.2,0.5-0.2
				c0.2,0.4,0.4,0.6,0.9,0.5c0.1,0,0.2,0,0.3,0C26.6,22.1,26.9,22,27.1,21.6z"/>
			<path class="st2" d="M25.5,23.7c-0.2-0.2-0.4-0.2-0.6,0s-0.2,0.4,0,0.6l0.5,0.5l-0.5,0.5c-0.2,0.2-0.2,0.4,0,0.6
				c0.1,0.1,0.2,0.1,0.3,0.1c0.1,0,0.2,0,0.3-0.1l0.5-0.5l0.5,0.5c0.1,0.1,0.2,0.1,0.3,0.1s0.2,0,0.3-0.1c0.2-0.2,0.2-0.4,0-0.6
				l-0.5-0.5l0.5-0.5c0.2-0.2,0.2-0.4,0-0.6c-0.2-0.2-0.4-0.2-0.6,0L26,24.2L25.5,23.7z"/>
		</g>
		<g>
			<path class="st3" d="M17.5,14.7H11c-0.4,0-0.7-0.3-0.7-0.7v-5c0-0.4,0.3-0.7,0.7-0.7h6.5c0.4,0,0.7,0.3,0.7,0.7v5
				C18.2,14.3,17.9,14.7,17.5,14.7z"/>
			<path class="st3" d="M41.1,14.7h-6.5c-0.4,0-0.7-0.3-0.7-0.7v-5c0-0.4,0.3-0.7,0.7-0.7h6.5c0.4,0,0.7,0.3,0.7,0.7v5
				C41.8,14.3,41.5,14.7,41.1,14.7z"/>
			<path class="st4" d="M38,14.8v4.6c0,0.3-0.3,0.6-0.6,0.6H14.8c-0.3,0-0.6-0.3-0.6-0.6v-4.6"/>
			<path class="st3" d="M29.4,14.7h-6.5c-0.4,0-0.7-0.3-0.7-0.7v-5c0-0.4,0.3-0.7,0.7-0.7h6.5c0.4,0,0.7,0.3,0.7,0.7v5
				C30.1,14.3,29.7,14.7,29.4,14.7z"/>
			<polyline class="st4" points="26.1,14.9 26.1,20 26.1,21.6 			"/>
		</g>
		<g>
			<path class="st3" d="M17.5,35.4H11c-0.4,0-0.7,0.3-0.7,0.7v5c0,0.4,0.3,0.7,0.7,0.7h6.5c0.4,0,0.7-0.3,0.7-0.7v-5
				C18.2,35.7,17.9,35.4,17.5,35.4z"/>
			<path class="st3" d="M41.1,35.4h-6.5c-0.4,0-0.7,0.3-0.7,0.7v5c0,0.4,0.3,0.7,0.7,0.7h6.5c0.4,0,0.7-0.3,0.7-0.7v-5
				C41.8,35.7,41.5,35.4,41.1,35.4z"/>
			<path class="st4" d="M38,35.2v-4.6c0-0.3-0.3-0.6-0.6-0.6H14.8c-0.3,0-0.6,0.3-0.6,0.6v4.6"/>
			<path class="st3" d="M29.4,35.4h-6.5c-0.4,0-0.7,0.3-0.7,0.7v5c0,0.4,0.3,0.7,0.7,0.7h6.5c0.4,0,0.7-0.3,0.7-0.7v-5
				C30.1,35.7,29.7,35.4,29.4,35.4z"/>
			<polyline class="st4" points="26.1,35.1 26.1,30 26.1,28.2 			"/>
		</g>
	</g>
</g>
</svg>
