<svg xmlns="http://www.w3.org/2000/svg" id="Layer_1" x="0" y="0" version="1.1" viewBox="0 0 50 50" xml:space="preserve"><style>.st2{fill:#031326}</style><path fill="#00dffc" d="M46.1 20.6L9.8 48.1 10 44l3.2-1.1.8-5.8-3-2.8 31.2-24.1z"/><path fill="#00c8e2" d="M42.2 43.8v4.3l-17.5.3-15-.8 36.4-27-3.3 11.3-4.5 5v4.8z"/><path d="M40.2 41.7l-.1-1.8c0-.8-.3-1.6-.8-2.1 4.8-3.9 7.6-9.9 7.6-16.1C46.9 10 37.5.7 26 .7c-3.4 0-6.7.8-9.7 2.4-3.8 2-7 5.2-9 9.1-.3.6-.1 1.4.6 1.7s1.4.1 1.7-.6c1.7-3.4 4.5-6.2 7.9-8C20.1 3.9 23 3.2 26 3.2c10.1 0 18.4 8.3 18.4 18.4 0 5.9-2.9 11.5-7.7 15H15.3c-1.2-.9-2.4-1.9-3.4-3.1-.4-.5-1.2-.6-1.8-.1-.5.4-.6 1.2-.1 1.8.8.9 1.7 1.8 2.7 2.6-.5.6-.8 1.3-.8 2.1v1.8h-.1c-1.8 0-3.3 1.5-3.3 3.3v3.1c0 .7.6 1.3 1.3 1.3h32.5c.7 0 1.3-.6 1.3-1.3V45c-.1-1.8-1.6-3.3-3.4-3.3zm-25.8-1.9c0-.4.3-.8.8-.8h21.6c.4 0 .8.3.8.8v1.8H14.4v-1.8zm26.6 7H11V45c0-.4.4-.8.8-.8h28.4c.4 0 .8.4.8.8v1.8z" class="st2"/><path d="M40.4 23c-.7 0-1.3-.6-1.3-1.3 0-7.3-6-13.3-13.3-13.3-.7 0-1.3-.6-1.3-1.3s.6-1.3 1.3-1.3c8.7 0 15.8 7.1 15.8 15.8.1.8-.5 1.4-1.2 1.4zM5 20.1h-.9c-.6 0-1-.5-1-1v-1.9c0-.6.5-1 1-1H5c.6 0 1 .5 1 1V19c.1.6-.4 1.1-1 1.1zm-.9-3V19H5v-1.9h-.9zm15.2 3c-.3 0-.5-.2-.5-.5v-2.4h-1v1c0 .3-.2.5-.5.5s-.5-.2-.5-.5v-1c0-.5.4-1 1-1h1c.5 0 1 .4 1 1v2.4c0 .3-.3.5-.5.5zm-8.9 0c-.3 0-.5-.2-.5-.5v-2.4c0-.5.4-1 1-1h1c.5 0 1 .4 1 1v1c0 .3-.2.5-.5.5s-.5-.2-.5-.5v-1h-1v2.4c.1.3-.2.5-.5.5zm12.7 5.4h-.9c-.6 0-1-.5-1-1v-1.9c0-.6.5-1 1-1h.9c.6 0 1 .5 1 1v1.9c.1.5-.4 1-1 1zm-.9-3v1.9h.9v-1.9h-.9zm3.4 8.4h-.9c-.6 0-1-.5-1-1V28c0-.6.5-1 1-1h.9c.6 0 1 .5 1 1v1.9c0 .5-.4 1-1 1zm-.9-3v1.9h.9v-1.9h-.9zM8 20.6c-.3 0-.5-.2-.5-.5v-3.9c0-.3.2-.5.5-.5s.5.2.5.5v3.9c0 .2-.2.5-.5.5zm6.9-2c-.3 0-.5-.2-.5-.5v-2c0-.3.2-.5.5-.5s.5.2.5.5v2c0 .3-.3.5-.5.5zM26.1 26c-.3 0-.5-.2-.5-.5v-3.9c0-.3.2-.5.5-.5s.5.2.5.5v3.9c0 .2-.2.5-.5.5zm-4.4 5.3c-.3 0-.5-.2-.5-.5v-3.9c0-.3.2-.5.5-.5s.5.2.5.5v3.9c0 .3-.2.5-.5.5zm3.9-11.2h-.9c-.6 0-1-.5-1-1v-1.9c0-.6.5-1 1-1h.9c.6 0 1 .5 1 1V19c0 .6-.4 1.1-1 1.1zm-.9-3V19h.9v-1.9h-.9zm-3 3.5c-.3 0-.5-.2-.5-.5v-3.9c0-.3.2-.5.5-.5s.5.2.5.5v3.9c0 .2-.2.5-.5.5zM7.5 25.5h-.9c-.6 0-1-.5-1-1v-1.9c0-.6.5-1 1-1h.9c.6 0 1 .5 1 1v1.9c0 .5-.5 1-1 1zm-.9-3v1.9h.9v-1.9h-.9zm-3 3.5c-.3 0-.5-.2-.5-.5v-3.9c0-.3.2-.5.5-.5s.5.2.5.5v3.9c0 .2-.2.5-.5.5zM5 30.9h-.9c-.6 0-1-.5-1-1V28c0-.6.5-1 1-1H5c.6 0 1 .5 1 1v1.9c.1.5-.4 1-1 1zm-.9-3v1.9H5v-1.9h-.9zm14.7 3h-1c-.5 0-1-.4-1-1v-1c0-.3.2-.5.5-.5s.5.2.5.5v1h1v-2.4c0-.3.2-.5.5-.5s.5.2.5.5v2.4c0 .5-.5 1-1 1zm-4.4 0h-1c-.5 0-1-.4-1-1v-1c0-.3.2-.5.5-.5s.5.2.5.5v1h1v-1c0-.3.2-.5.5-.5s.5.2.5.5v1c0 .5-.5 1-1 1zm-6.4.4c-.3 0-.5-.2-.5-.5v-3.9c0-.3.2-.5.5-.5s.5.2.5.5v3.9c0 .3-.2.5-.5.5zm2.4 0c-.3 0-.5-.2-.5-.5v-3.4c0-.3.2-.5.5-.5s.5.2.5.5v3.4c.1.3-.2.5-.5.5zm5.3-3.4H14c-.3 0-.5-.2-.5-.5v-.7c-.3-.1-.5-.3-.8-.4l-.6.3c-.2.1-.6.1-.7-.2l-.9-1.5c-.1-.1-.1-.3-.1-.4 0-.1.1-.2.2-.3l.6-.3v-.8l-.6-.3c-.2-.1-.3-.4-.2-.7l.9-1.5c.1-.1.2-.2.3-.2.1 0 .3 0 .4.1l.6.3c.2-.2.5-.3.8-.5v-.6c0-.3.2-.5.5-.5h1.7c.3 0 .5.2.5.5v.6c.3.1.5.3.8.5l.5-.3c.1-.1.3-.1.4-.1.1 0 .2.1.3.2l.9 1.5c.1.2.1.6-.2.7l-.4.2v.9l.6.3c.1.1.2.2.2.3s0 .3-.1.4l-.9 1.5c-.1.2-.4.3-.7.2l-.5-.3c-.2.2-.5.3-.8.4v.7c0 .3-.2.5-.5.5zm-1.2-1h.7v-.5c0-.2.1-.4.4-.5.4-.1.7-.3 1-.6.2-.2.4-.2.6-.1l.4.2.4-.6-.4-.2c-.2-.1-.3-.3-.2-.6 0-.2.1-.4.1-.6 0-.2 0-.4-.1-.6-.1-.2 0-.4.2-.6l.4-.2-.4-.6-.4.2c-.2.1-.4.1-.6-.1-.3-.3-.6-.5-1-.6-.2-.1-.4-.3-.4-.5v-.5h-.7v.5c0 .2-.1.4-.4.5-.4.1-.7.3-1 .6-.2.2-.4.2-.6.1l-.4-.2-.4.6.4.3c.2.1.3.3.2.6 0 .2-.1.4-.1.6 0 .2 0 .4.1.6.1.2 0 .4-.2.6l-.4.3.4.6.4-.3c.2-.1.4-.1.6.1.3.3.6.5 1 .6.2.1.4.3.4.5v.4z" class="st2"/><path d="M14.9 25.3c-1 0-1.8-.8-1.8-1.8s.8-1.8 1.8-1.8 1.8.8 1.8 1.8-.8 1.8-1.8 1.8zm0-2.6c-.4 0-.8.4-.8.8s.4.8.8.8.8-.4.8-.8-.4-.8-.8-.8z" class="st2"/></svg>