<svg xmlns="http://www.w3.org/2000/svg" id="Camada_1" x="0" y="0" version="1.1" viewBox="0 0 50 50" xml:space="preserve"><style>.st1,.st2,.st3{fill:none;stroke:#444;stroke-linecap:round;stroke-linejoin:round;stroke-miterlimit:10}.st2{stroke-width:.5}.st3{stroke-width:2.5}</style><path fill="#ff6b6b" d="M36.9 2H18.4c-1.4 0-4.5 2.2-4.5 3.7l-10.1 4 .3 25.6 5.8 2.4c.8.5 11-2.2 8.8 4.1L13.9 49l18.7-6.7c-7.2-6.6 14.2-4.7 14.1-7.4l.2-24.5-3.8-3.1-5-.9c.1-1.1.3-4.4-1.2-4.4z"/><path d="M4.3 31.7h41.1" class="st1"/><path d="M24.4 34.4h1.8" class="st2"/><path d="M15.2 47.8c0-2.2 1.6-3.9 3.7-3.9h12.8M13.3 28.1V8.4M18.6 3h18v25.1M13.3 8.4L18.6 3v5.4z" class="st1"/><path d="M16.8 28.1H33m-11.7 0v-5.4m3.6 5.4V20m3.6 8.1v-5.4m3.6 5.4v-9" class="st2"/><circle cx="28.5" cy="11" r="4.5" class="st2"/><path d="M28.5 6.6V11H24m-7.2.9h3.6m-3.6 3.6h3.6" class="st2"/><path d="M18.3 37.8h-10c-2.7 0-4.9-2.2-4.9-4.9V12.5c0-2.7 2.2-4.9 4.9-4.9h4.3l5.9-5.8h18.9v5.8h4.4c2.7 0 4.9 2.2 4.9 4.9V33c0 1.4-.6 2.7-1.6 3.6-.9.8-2 1.3-3.3 1.3H31.5" class="st3"/><path d="M24.3 48.7H14s-.2-5.2 4.7-5.5v-5.4m12.5.2v5.2s2 .1 3.3 1.6" class="st3"/></svg>