<?xml version="1.0" encoding="utf-8"?>
<!-- Generator: Adobe Illustrator 26.2.1, SVG Export Plug-In . SVG Version: 6.00 Build 0)  -->
<svg version="1.1" id="Layer_1" xmlns="http://www.w3.org/2000/svg" xmlns:xlink="http://www.w3.org/1999/xlink" x="0px" y="0px"
	 viewBox="0 0 50 50" style="enable-background:new 0 0 50 50;" xml:space="preserve">
<style type="text/css">
	.st0{fill:#00C8E2;}
	.st1{fill:#00DFFC;}
	.st2{fill:#444444;}
	.st3{fill:#494949;}
</style>
<g>
	<g>
		<g>
			<g>
				<path class="st0" d="M6.5,38.4l5.7,3.3L45.9,23l-0.1-7.3c0-1.6-0.9-3.2-2.3-4L27.3,2.3c-1.4-0.8-3.2-0.8-4.6,0L6.5,11.6
					c-1.4,0.8-2.3,2.3-2.3,4v18.8C4.2,36,5,37.5,6.5,38.4z"/>
			</g>
			<g>
				<path class="st1" d="M33.9,6.1l-6.6-3.9c-1.4-0.8-3.2-0.8-4.6,0L6.5,11.6c-1.4,0.8-2.3,2.3-2.3,4l-0.3,7.9L33.9,6.1z"/>
			</g>
			<g>
				<path class="st2" d="M25,49.6c-1,0-2-0.3-2.9-0.8L5.8,39.4c-1.8-1-2.9-3-2.9-5.1V15.6c0-2.1,1.1-4,2.9-5.1l16.2-9.4
					c1.8-1,4-1,5.8,0l16.2,9.4c1.8,1,2.9,3,2.9,5.1v13.8c0,0.7-0.6,1.2-1.2,1.2c-0.7,0-1.2-0.6-1.2-1.2V15.6c0-1.2-0.6-2.3-1.7-2.9
					L26.7,3.3c-1-0.6-2.3-0.6-3.4,0L7.1,12.7c-1,0.6-1.7,1.7-1.7,2.9v18.8c0,1.2,0.6,2.3,1.7,2.9l16.2,9.4c1,0.6,2.3,0.6,3.4,0
					l4.5-2.6c0.6-0.3,1.3-0.1,1.7,0.5c0.3,0.6,0.1,1.3-0.5,1.7l-4.5,2.6C27,49.3,26,49.6,25,49.6z"/>
			</g>
		</g>
	</g>
	<path class="st3" d="M25.1,31.5c0.7,0,1.2-0.1,1.7-0.3c0.4-0.2,0.8-0.5,1-0.8c0.2-0.3,0.4-0.7,0.5-1.2c0.1-0.5,0.1-0.9,0.1-1.4
		v-0.5h3.5v0.5c0,2.2-0.6,3.9-1.7,5.1c-1.2,1.2-2.8,1.8-5,1.8c-2.1,0-3.8-0.6-5-1.9c-1.2-1.3-1.9-3.2-1.9-5.6v-4.1
		c0-1.2,0.2-2.2,0.5-3.2c0.3-0.9,0.8-1.7,1.4-2.4s1.3-1.1,2.2-1.5c0.8-0.3,1.8-0.5,2.9-0.5c1.1,0,2.1,0.2,2.9,0.5
		c0.8,0.3,1.6,0.8,2.1,1.4c0.6,0.6,1,1.3,1.3,2.2c0.3,0.8,0.4,1.8,0.4,2.9v0.5h-3.5v-0.5c0-0.4-0.1-0.9-0.2-1.3
		c-0.1-0.4-0.3-0.8-0.5-1.2c-0.2-0.4-0.6-0.6-1-0.9c-0.4-0.2-1-0.3-1.6-0.3c-0.6,0-1.1,0.1-1.5,0.3c-0.4,0.2-0.8,0.5-1.1,0.9
		c-0.3,0.4-0.5,0.8-0.6,1.3c-0.1,0.5-0.2,1-0.2,1.6v4.7c0,0.6,0.1,1.2,0.2,1.7c0.1,0.5,0.3,0.9,0.6,1.3c0.3,0.4,0.6,0.7,1,0.9
		C23.9,31.4,24.4,31.5,25.1,31.5z"/>
</g>
</svg>
