<svg xmlns="http://www.w3.org/2000/svg" id="Layer_1" x="0" y="0" version="1.1" viewBox="0 0 50 50" xml:space="preserve"><style>.st2,.st3{fill:none;stroke:#494949;stroke-linecap:round;stroke-linejoin:round;stroke-miterlimit:10}.st3{stroke-width:2.5}</style><path fill="#a6c1c2" d="M6.5 35.6l-1.9.7c.5-.4 1.1-.7 1.9-.7zM46.4 21L19.1 31l-1.1.4V31h-7.5c-4 0-7.3-3.1-7.6-7l.1-.8v-.6l13.2-4.8 22.6-8.3c.1.1.2.3.3.4.8 1.5 1.3 3.3 1.3 5.1 0 .4 0 .8-.1 1.2v.1c0 .5-.1.9-.2 1.3h.6c2.3 0 4.5 1.4 5.7 3.4z"/><path fill="#b9d7d9" d="M39 10l-22.5 8.2-13.7 5h-.1c0-3.7 2.7-6.8 6.2-7.4H9c.2 0 .5-.1.7-.1v-.1c0-5 4-9 9-9 1.2 0 2.5.3 3.5.7 1.9-1.8 4.5-2.9 7.4-2.9 3.8 0 7.2 2 9.1 5.1.1.2.2.3.3.5z"/><path d="M20.9 39.6c0 1.6 1.3 2.9 2.9 2.9s2.9-1.3 2.9-2.9c0-1.6-1.3-2.9-2.9-2.9-1.6-.1-2.9 1.2-2.9 2.9zm2.9-3v-3.4L26 31M9.4 38.5c0 1.6-1.3 2.9-2.9 2.9s-2.9-1.3-2.9-2.9c0-.9.4-1.7 1-2.2.5-.4 1.2-.7 1.9-.7 1.6 0 2.9 1.3 2.9 2.9zm21.8 4.1c0 1.6 1.3 2.9 2.9 2.9 1.6 0 2.9-1.3 2.9-2.9 0-1.6-1.3-2.9-2.9-2.9-1.6 0-2.9 1.3-2.9 2.9zM31.1 31v2.3l3.1 3v3.4m-16.4 2.6c0 1.6-1.3 2.9-2.9 2.9S12 43.9 12 42.3c0-1.6 1.3-2.9 2.9-2.9 1.6 0 2.9 1.3 2.9 2.9zm-2.9-2.9V36l3.1-3.1V31m-9.6 4.9l1.5-1.5 1.5-1.6V31m28.5 7.8c0 1.6 1.3 2.9 2.9 2.9 1.6 0 2.9-1.3 2.9-2.9 0-1.6-1.3-2.9-2.9-2.9-1.6 0-2.9 1.3-2.9 2.9z" class="st2"/><path d="M37.7 31v2.4l3.1 3.1" class="st2"/><path d="M47.2 24.3c0 3.7-3 6.7-6.7 6.7H10.4c-4 0-7.3-3.1-7.6-7v-.8c0-3.7 2.7-6.8 6.2-7.4h.1c.2 0 .5-.1.7-.1v-.1c0-5 4-9 9-9 1.2 0 2.5.3 3.5.7 1.9-1.8 4.5-2.9 7.4-2.9 3.8 0 7.2 2 9.1 5.1.1.1.2.3.3.4.8 1.5 1.3 3.3 1.3 5.1 0 .4 0 .8-.1 1.2v.1c0 .5-.1.9-.2 1.3h.6c2.5 0 4.6 1.4 5.8 3.4.4 1 .7 2.1.7 3.3z" class="st3"/><path d="M8.8 15.8h.3c.2 0 .5-.1.7-.1 2.4-.2 4.6.6 6.3 2.1l.4.4c.4.4.7.8 1 1.2m19.6 1.8c1.5-1.1 2.6-2.9 3.1-4.8v-.1c.2-1 .3-2 0-3" class="st3"/></svg>