<svg xmlns="http://www.w3.org/2000/svg" id="Layer_1" x="0" y="0" version="1.1" viewBox="0 0 50 50" xml:space="preserve"><style>.st2{fill:#031326}</style><path fill="#c86060" d="M37.2 23.1c1.5-5.6 0-11.3-3.4-15.4l-30.1 11c0 6.1 3.2 11.7 8.4 14.8l24.7-9c.1-.5.2-.9.4-1.4z"/><path fill="#e06b6b" d="M25.4 2.2C16-.3 6.3 5.3 3.8 14.7c-.4 1.5-.6 3-.6 4.5L34.3 7.9C32 5.2 29 3.2 25.4 2.2z"/><path d="M10.8 16.5c-1.5 5.4 1.8 11 7.2 12.4l2.6-9.8-9.8-2.6z" class="st2"/><path d="M23.5 10.8c-4.4-1.2-9 1.4-10.2 5.9l8 2.2 3.3 7.6c2.2-1 4-2.9 4.7-5.5 1.3-4.4-1.4-9-5.8-10.2z" class="st2"/><path d="M18.6 28.2c2.1.6 4.2.4 6.1-.5L21 19.3l-2.4 8.9z" class="st2"/><path d="M33.5 11.6c-1.9-3.4-5.1-5.8-8.9-6.8-3.8-1-7.7-.5-11.1 1.5-3.4 1.9-5.8 5.1-6.8 8.9-1 3.8-.5 7.7 1.5 11.1s5.1 5.8 8.9 6.8c1.3.3 2.5.5 3.8.5 6.4 0 12.4-4.3 14.1-10.8.9-3.9.4-7.9-1.5-11.2zm.7 10.8c-2 7.4-9.6 11.8-17 9.8-3.6-1-6.6-3.3-8.4-6.5s-2.3-6.9-1.4-10.5c1-3.6 3.3-6.6 6.5-8.4C16 5.6 18.4 5 20.8 5c1.2 0 2.4.2 3.6.5 3.6 1 6.6 3.3 8.4 6.5s2.4 6.9 1.4 10.4z" class="st2"/><path d="M46.6 43.4l-7.4-8.9-1.8 1.6-3.7-4.3c2.3-2.3 4-5.1 4.8-8.3 1.3-4.7.6-9.7-1.8-13.9-2.4-4.2-6.4-7.3-11.1-8.5C20.8-.1 15.9.6 11.7 3S4.4 9.4 3.1 14.1C.5 23.8 6.3 33.9 16 36.5c1.6.4 3.2.6 4.8.6 3.2 0 6.3-.8 9.1-2.5.6-.4 1.3-.8 1.8-1.2l3.7 4.3-1.8 1.6 7.4 8.8c.6.7 1.5 1.2 2.5 1.3h.3c.9 0 1.7-.3 2.4-.9.7-.6 1.2-1.5 1.2-2.5.2-.9-.2-1.8-.8-2.6zM28.7 32.6c-3.7 2.1-7.9 2.7-12 1.6-8.4-2.3-13.5-11-11.2-19.4 1.1-4.1 3.7-7.5 7.4-9.6C15.3 3.7 18 3 20.8 3c1.4 0 2.8.2 4.1.5 4.1 1.1 7.5 3.7 9.6 7.4 2.1 3.7 2.7 7.9 1.6 12-1.1 4.2-3.7 7.6-7.4 9.7zm15.9 14.1c-.2.2-.5.3-.8.3-.3 0-.6-.2-.8-.4l-5.8-7L39 38l5.8 6.9c.2.2.3.6.3.9-.1.4-.2.7-.5.9z" class="st2"/></svg>