<svg xmlns="http://www.w3.org/2000/svg" id="Layer_1" x="0" y="0" version="1.1" viewBox="0 0 50 50" xml:space="preserve"><style>.st2{fill:#031326}</style><switch><g><path fill="#e06b6b" d="M47.7 5c0-1.5-1.2-2.7-2.7-2.7H5C3.5 2.3 2.3 3.5 2.3 5v17.3L47.7 5.7V5z"/><path fill="#c86060" d="M48.8 4.8l-47 17.1v23.6c0 .4.1.7.2 1l46.8-17V4.8z"/><path d="M37.2 49.5H5c-2.2 0-3.9-1.8-3.9-3.9V5.5C1 3.3 2.8 1.6 5 1.6h40c2.2 0 3.9 1.8 3.9 3.9v27.8c0 .7-.6 1.2-1.2 1.2s-1.2-.6-1.2-1.2V5.5c0-.8-.6-1.4-1.4-1.4H5c-.8 0-1.4.6-1.4 1.4v40.1c-.1.8.6 1.4 1.4 1.4h32.3c.7 0 1.2.6 1.2 1.2s-.6 1.3-1.3 1.3z" class="st2"/><path d="M33.6 23c-6.1 0-11 4.9-11 11s4.9 11 11 11 11-4.9 11-11-5-11-11-11zm3.5 6.6c.8 0 1.5.7 1.5 1.5s-.7 1.5-1.5 1.5-1.5-.7-1.5-1.5c0-.9.7-1.5 1.5-1.5zm-4.4-2.9c.6 0 1 .5 1 1 0 .6-.5 1-1 1-.6 0-1-.5-1-1 0-.6.4-1 1-1zM28 32.4c-.6 0-1.1-.5-1.1-1.1 0-.6.5-1.1 1.1-1.1.6 0 1.1.5 1.1 1.1 0 .6-.5 1.1-1.1 1.1zm2.2 10.3c-.6 0-1.1-.5-1.1-1.1s.5-1.1 1.1-1.1c.6 0 1.1.5 1.1 1.1s-.5 1.1-1.1 1.1zm2.4-4.2c-1.2 0-2.1-1-2.1-2.1 0-1.2 1-2.1 2.1-2.1 1.2 0 2.1 1 2.1 2.1.1 1.2-.9 2.1-2.1 2.1zm3-4.1c0-.6.5-1.1 1.1-1.1.6 0 1.1.5 1.1 1.1 0 .6-.5 1.1-1.1 1.1-.6 0-1.1-.5-1.1-1.1zm3.4 6.3c-1.2 0-2.1-1-2.1-2.1s1-2.1 2.1-2.1c1.2 0 2.1 1 2.1 2.1s-.9 2.1-2.1 2.1zM17.2 5.3c-6 0-10.9 4.9-10.9 10.9s4.9 10.9 10.9 10.9 10.9-4.9 10.9-10.9S23.2 5.3 17.2 5.3zm0 1.6c.6 0 1.1.5 1.1 1.1s-.5 1.1-1.1 1.1c-.6 0-1.1-.5-1.1-1.1s.5-1.1 1.1-1.1zm-2.5 6.4c.5 0 .9.4.9.9s-.4.9-.9.9-.9-.4-.9-.9.4-.9.9-.9zm-5.3 4.9c-.7 0-1.3-.6-1.3-1.3s.6-1.3 1.3-1.3c.7 0 1.3.6 1.3 1.3s-.6 1.3-1.3 1.3zm4.1-.8c0-.4.3-.7.7-.7.4 0 .7.3.7.7 0 .4-.3.7-.7.7-.4 0-.7-.3-.7-.7zm2.2 5.2c-.9 0-1.6-.7-1.6-1.6 0-.9.7-1.6 1.6-1.6.9 0 1.6.7 1.6 1.6 0 .9-.7 1.6-1.6 1.6zm1.3-5c-.7 0-1.3-.6-1.3-1.3 0-.7.6-1.3 1.3-1.3.7 0 1.3.6 1.3 1.3 0 .7-.5 1.3-1.3 1.3zm2.9 7.5c-.4 0-.8-.4-.8-.8s.4-.8.8-.8.8.4.8.8-.4.8-.8.8zm.8-3.2c-.4 0-.8-.4-.8-.8s.4-.8.8-.8.8.4.8.8-.4.8-.8.8zm-.1-3.5c-.8 0-1.5-.7-1.5-1.5s.7-1.5 1.5-1.5 1.5.7 1.5 1.5-.7 1.5-1.5 1.5zm2-5.9c-.8 0-1.5-.7-1.5-1.5s.7-1.5 1.5-1.5 1.5.7 1.5 1.5-.7 1.5-1.5 1.5z" class="st2"/></g></switch></svg>