<svg xmlns="http://www.w3.org/2000/svg" id="Layer_1" x="0" y="0" version="1.1" viewBox="0 0 50 50" xml:space="preserve"><style>.st2{fill:#031326}</style><path fill="#e56060" d="M47.5 22v6.2L1.1 42.9.7 30.3v-3.9L47.6 9.3z"/><path fill="#ff6b6b" d="M48.1 6.7v3.5L1.3 27.3l.3-7.3v-4L48.1 1z"/><path d="M48.3 49.3H32.1c-.7 0-1.2-.6-1.2-1.2s.6-1.2 1.2-1.2H47v-44H2.9v43.9H6c.7 0 1.2.6 1.2 1.2s-.5 1.3-1.2 1.3H1.6c-.7 0-1.2-.6-1.2-1.2V1.6C.4.9 1 .4 1.6.4h46.7c.7 0 1.2.6 1.2 1.2V48c.1.7-.5 1.3-1.2 1.3z" class="st2"/><path d="M40.8 40.6c0 .4-.3.8-.8.8H8.7c-.4 0-.8-.3-.8-.8V34l-3 1.7c-.1.1-.2.1-.4.1-.3 0-.5-.1-.7-.4-.2-.4-.1-.8.3-1l3.7-2.1v-22c0-.4.3-.8.8-.8.4 0 .8.3.8.8v21.1l8.8-4.9c1.8-5.5 4.6-14.4 5-14.9.2-.4.7-.4 1-.2.3.2.4.7.2 1-.3.7-3 8.8-4.7 14.2l17.3 4c.4.1.7.5.6.9-.1.3-.4.6-.7.6h-.2L18.8 28l-9.3 5.2v6.7h30.7c.3-.1.6.3.6.7z" class="st2"/><circle cx="18.4" cy="31.3" r=".7" class="st2"/><circle cx="20.5" cy="31.5" r=".7" class="st2"/><circle cx="21" cy="33.5" r=".6" class="st2"/><circle cx="22.5" cy="34.1" r=".4" class="st2"/><circle cx="24.6" cy="34.2" r=".4" class="st2"/><circle cx="23.3" cy="35.4" r=".3" class="st2"/><circle cx="25" cy="37.1" r=".3" class="st2"/><circle cx="25.1" cy="32.7" r=".3" class="st2"/><circle cx="28.2" cy="32.3" r=".3" class="st2"/><circle cx="27" cy="35.5" r=".3" class="st2"/><circle cx="21.2" cy="37.3" r=".3" class="st2"/><circle cx="22.2" cy="38.1" r=".3" class="st2"/><circle cx="29.5" cy="36.9" r=".3" class="st2"/><circle cx="20" cy="37.1" r=".3" class="st2"/><circle cx="18.4" cy="38.3" r=".3" class="st2"/><circle cx="19.7" cy="38.2" r=".3" class="st2"/><circle cx="14.3" cy="31.9" r=".3" class="st2"/><circle cx="12.3" cy="33.9" r=".3" class="st2"/><circle cx="15.9" cy="23.7" r=".3" class="st2"/><circle cx="15.7" cy="32.2" r=".3" class="st2"/><circle cx="16.1" cy="34.7" r=".3" class="st2"/><circle cx="17" cy="37.3" r=".3" class="st2"/><circle cx="16.8" cy="30.8" r=".3" class="st2"/><circle cx="13.2" cy="24.2" r=".3" class="st2"/><circle cx="15.3" cy="35.4" r=".3" class="st2"/><circle cx="14.2" cy="34.3" r=".3" class="st2"/><circle cx="14.6" cy="37.2" r=".3" class="st2"/><circle cx="12.6" cy="36.4" r=".3" class="st2"/><circle cx="19.8" cy="30.3" r=".3" class="st2"/><circle cx="18.2" cy="29.8" r=".3" class="st2"/><circle cx="21.2" cy="30.1" r=".3" class="st2"/><circle cx="19.7" cy="29.3" r=".3" class="st2"/><circle cx="23.7" cy="31.8" r=".3" class="st2"/><circle cx="24.8" cy="31" r=".3" class="st2"/><circle cx="23.4" cy="33.1" r=".3" class="st2"/><circle cx="16.2" cy="36.4" r=".3" class="st2"/><circle cx="19.6" cy="35.8" r=".6" class="st2"/><circle cx="21.7" cy="35.9" r=".9" class="st2"/><circle cx="17" cy="33.6" r=".5" class="st2"/><circle cx="18.5" cy="37.1" r=".5" class="st2"/><circle cx="17" cy="32.2" r=".5" class="st2"/><circle cx="22.2" cy="32.4" r=".6" class="st2"/><circle cx="22.2" cy="30.7" r=".6" class="st2"/><circle cx="17.5" cy="35.6" r=".9" class="st2"/><circle cx="19.1" cy="33.5" r="1.1" class="st2"/><circle cx="28.8" cy="18.6" r=".9" class="st2"/><circle cx="31.3" cy="19" r=".9" class="st2"/><circle cx="31.8" cy="21.3" r=".7" class="st2"/><circle cx="33.7" cy="22.1" r=".5" class="st2"/><circle cx="32.3" cy="23.6" r=".5" class="st2"/><circle cx="34.7" cy="23.6" r=".4" class="st2"/><circle cx="34" cy="25.1" r=".4" class="st2"/><circle cx="36" cy="27.3" r=".4" class="st2"/><circle cx="37.3" cy="19.4" r=".4" class="st2"/><circle cx="42" cy="25.8" r=".4" class="st2"/><circle cx="26.1" cy="14" r=".4" class="st2"/><circle cx="39.9" cy="17.2" r=".4" class="st2"/><circle cx="39.3" cy="22.8" r=".4" class="st2"/><circle cx="30.4" cy="11.9" r=".4" class="st2"/><circle cx="42.5" cy="20.3" r=".4" class="st2"/><circle cx="35.3" cy="13.4" r=".4" class="st2"/><circle cx="40" cy="9.3" r=".4" class="st2"/><circle cx="35.5" cy="22.2" r=".4" class="st2"/><circle cx="32.3" cy="26.1" r=".4" class="st2"/><circle cx="29.7" cy="22.7" r=".4" class="st2"/><circle cx="33.3" cy="28.5" r=".4" class="st2"/><circle cx="31.8" cy="27.6" r=".4" class="st2"/><circle cx="30.5" cy="26.1" r=".4" class="st2"/><circle cx="29" cy="27.5" r=".4" class="st2"/><circle cx="30.4" cy="28.3" r=".4" class="st2"/><circle cx="25.2" cy="21.5" r=".4" class="st2"/><circle cx="23.5" cy="20.6" r=".4" class="st2"/><circle cx="25.4" cy="19.8" r=".4" class="st2"/><circle cx="26" cy="22.8" r=".4" class="st2"/><circle cx="27" cy="25.9" r=".4" class="st2"/><circle cx="27.3" cy="24.4" r=".4" class="st2"/><circle cx="26.8" cy="18" r=".4" class="st2"/><circle cx="24.9" cy="23.6" r=".4" class="st2"/><circle cx="24" cy="26.8" r=".4" class="st2"/><circle cx="22.1" cy="25.8" r=".4" class="st2"/><circle cx="22.9" cy="22.3" r=".4" class="st2"/><circle cx="24.2" cy="25.3" r=".4" class="st2"/><circle cx="22.3" cy="24" r=".4" class="st2"/><circle cx="30.4" cy="17.5" r=".4" class="st2"/><circle cx="28.5" cy="16.8" r=".4" class="st2"/><circle cx="32.1" cy="17.2" r=".4" class="st2"/><circle cx="30.3" cy="16.2" r=".4" class="st2"/><circle cx="35.1" cy="19.3" r=".4" class="st2"/><circle cx="34.8" cy="20.9" r=".4" class="st2"/><circle cx="26" cy="24.8" r=".4" class="st2"/><circle cx="26.9" cy="27.2" r=".4" class="st2"/><circle cx="25.5" cy="26.7" r=".4" class="st2"/><circle cx="30.2" cy="24.1" r=".7" class="st2"/><circle cx="27.1" cy="21.5" r=".6" class="st2"/><circle cx="28.9" cy="25.6" r=".6" class="st2"/><circle cx="27.1" cy="19.7" r=".6" class="st2"/><circle cx="33.3" cy="20" r=".7" class="st2"/><circle cx="33.3" cy="18" r=".7" class="st2"/><circle cx="28.2" cy="23.4" r=".5" class="st2"/><circle cx="29.5" cy="21" r=".5" class="st2"/><circle cx="14" cy="14.1" r=".6" class="st2"/><circle cx="15.6" cy="14.6" r=".6" class="st2"/><circle cx="16.6" cy="16.5" r=".5" class="st2"/><circle cx="18.6" cy="15.3" r=".3" class="st2"/><circle cx="19.7" cy="18.5" r=".3" class="st2"/><circle cx="20.2" cy="16.2" r=".3" class="st2"/><circle cx="17.2" cy="21.5" r=".3" class="st2"/><circle cx="16" cy="19.4" r=".3" class="st2"/><circle cx="20" cy="10.7" r=".3" class="st2"/><circle cx="11.8" cy="22.3" r=".3" class="st2"/><circle cx="11.3" cy="26.1" r=".3" class="st2"/><circle cx="14.8" cy="25.9" r=".3" class="st2"/><circle cx="14.9" cy="21.7" r=".3" class="st2"/><circle cx="11" cy="15.6" r=".3" class="st2"/><circle cx="10.6" cy="14.4" r=".3" class="st2"/><circle cx="10.7" cy="17.5" r=".3" class="st2"/><circle cx="10.6" cy="20.9" r=".3" class="st2"/><circle cx="12.4" cy="13.4" r=".3" class="st2"/><circle cx="10.8" cy="18.9" r=".3" class="st2"/><circle cx="14.9" cy="13" r=".3" class="st2"/><circle cx="13.8" cy="12.8" r=".3" class="st2"/><circle cx="16.7" cy="12.8" r=".3" class="st2"/><circle cx="15.6" cy="12" r=".3" class="st2"/><circle cx="20.8" cy="14.1" r=".3" class="st2"/><circle cx="19.4" cy="14.4" r=".3" class="st2"/><circle cx="12.4" cy="19.7" r=".3" class="st2"/><circle cx="15.2" cy="18.3" r=".5" class="st2"/><circle cx="17.7" cy="18.1" r=".8" class="st2"/><circle cx="12.2" cy="16.2" r=".4" class="st2"/><circle cx="13.6" cy="20.1" r=".4" class="st2"/><circle cx="12.8" cy="14.8" r=".4" class="st2"/><circle cx="17.2" cy="15" r=".5" class="st2"/><circle cx="18.4" cy="13.3" r=".5" class="st2"/><circle cx="12.7" cy="18.1" r=".7" class="st2"/><circle cx="14.5" cy="16.3" r=".9" class="st2"/></svg>