<svg xmlns="http://www.w3.org/2000/svg" id="Camada_1" x="0" y="0" version="1.1" viewBox="0 0 50 50" xml:space="preserve"><style>.st2{fill:#031326}</style><path fill="#f0cd77" d="M25.1 9.4V2.6L11.3 16.4C8.6 19 6.8 22.4 6 26l26.2-9.5-7.1-7.1z"/><path fill="#ecc158" d="M38.7 16.3l-3.4 3.4-3.3-3.3-25.7 9.4c-.3 1.3-.4 2.7-.4 4 0 5.1 2 9.9 5.6 13.5.5.5 1 .9 1.5 1.3l30.9-11.2c1.2-6.1-.6-12.5-5.2-17.1z"/><path d="M38.9 15.9l-.4-.4h-1L33 20l.9.9c2.4 2.4 3.7 5.5 3.7 8.8s-1.3 6.5-3.7 8.8-5.5 3.7-8.8 3.7-6.5-1.3-8.8-3.7-3.7-5.5-3.7-8.8 1.3-6.5 3.7-8.8l8.6-8.6 1.1-1.2s.1-.1.1-.2.1-.1.1-.2 0-.2.1-.3V.7L11.1 15.9c-3.7 3.6-5.8 8.7-5.8 13.8 0 5.2 2.1 10.2 5.8 13.8 3.6 3.7 8.7 5.8 13.8 5.8 5.2 0 10.2-2.1 13.8-5.8.5-.5.5-1.3 0-1.8s-1.3-.5-1.8 0c-3.2 3.2-7.6 5-12 5-4.5 0-8.9-1.8-12.1-5s-5-7.5-5-12 1.8-8.9 5-12.1L23.7 6.8v2.9l-.7.8-8.6 8.6c-2.8 2.8-4.4 6.6-4.4 10.6s1.6 7.8 4.4 10.6c2.8 2.8 6.6 4.4 10.6 4.4s7.8-1.6 10.6-4.4c2.8-2.8 4.4-6.6 4.4-10.6 0-3.6-1.2-7-3.5-9.7l1.5-1.5c3.9 4.4 5.2 10.6 3.3 16.3-.2.7.1 1.4.8 1.6.7.2 1.4-.1 1.6-.8 2.3-7 .5-14.6-4.8-19.7z" class="st2"/><path d="M29.1 13.4v.1c0 1.4 1.2 2.4 2.5 2.4 1.4 0 2.4-1.2 2.4-2.5S32.9 11 31.6 11c-1.4-.1-2.5 1-2.5 2.4zm-3.7 5.7c-2.8 0-5.2 1.1-7 2.9.8.1 1.4.5 1.7 1.2l3-1.1c0-.2-.1-.3-.1-.5 0-1.3 1-2.3 2.3-2.3s2.3 1 2.3 2.3c0 .5-.2 1-.5 1.4l4.1 4.1c.4-.3.9-.5 1.4-.5 1.3 0 2.3 1 2.3 2.3s-1 2.3-2.3 2.3c-.5 0-1-.2-1.4-.4l-4 4.2c.2.4.4.8.4 1.3 0 1.3-1 2.3-2.3 2.3s-2.3-1-2.3-2.3v-.4l-3.2-1.6c-.4.6-1.1 1-1.9 1h-.3c1.8 2.2 4.6 3.6 7.6 3.6 5.5 0 9.9-4.4 9.9-9.9s-4.2-9.9-9.7-9.9z" class="st2"/><path d="M27.6 28.6c-.2.9-1 1.5-1.9 1.7V34c.5.1.9.3 1.2.5l4-4.2c-.3-.4-.5-.9-.5-1.4l-2.8-.3zM22.2 26l1.7-2.6c-.2-.2-.4-.4-.5-.7l-3 1.1c0 .2.1.3.1.5 0 .3-.1.5-.1.7l1.8 1zM18 30.7c.3 0 .7.1 1 .2l1.3-2.1-1.4-2.4c-.3.1-.6.2-.9.2-.8 0-1.5-.4-1.9-1-.4 1.1-.6 2.2-.6 3.4 0 1 .2 2 .5 3 .3-.8 1.1-1.3 2-1.3zm7.4-6.7c-.3 0-.7-.1-1-.2l-1.7 2.6.7.4c.4-.6 1.1-1 1.9-1 1.3 0 2.3 1 2.3 2.3l2.8.4c.1-.3.2-.5.4-.7l-4.1-4.1c-.3.1-.8.3-1.3.3zm-2.1 11.3c.1-.2.3-.5.5-.6l-3.1-5.2-1.2 1.8c.5.4.8 1 .8 1.8 0 .3-.1.5-.1.7l3.1 1.5zm-3.8-9.2l1.2 2.1 1.1-1.6-1.9-.9c-.1.1-.2.3-.4.4zM25 34v-3.7c-1.1-.2-2-1.1-2-2.3 0-.3.1-.5.1-.7l-.8-.4-1.3 2 3.2 5.4c.3-.2.6-.2.8-.3z" class="st2"/></svg>