<svg xmlns="http://www.w3.org/2000/svg" version="1" viewBox="0 0 50 50"><path fill="#00C8E2" d="M14.894 41.02h.2v2l21.577-7.854.683-5.281c.071-.55-.567-1.037-.567-1.037l-.812-23.836a1.849 1.849 0 00-1.904-1.778c-10.161.282-16.636 2.835-18.988 3.942a1.827 1.827 0 00-1.041 1.583l-.829 20.089s-.638.488-.567 1.037l1.337 10.334a.918.918 0 00.911.801z"/><path fill="#00DFFC" d="M36.089 8.813l-.129-3.801a1.849 1.849 0 00-1.904-1.778c-10.162.282-16.636 2.835-18.989 3.942a1.827 1.827 0 00-1.041 1.583l-.339 8.208 22.402-8.154z"/><path fill="#031326" d="M38.02 28.312l-.795-23.343c-.059-1.693-1.514-3.038-3.188-2.984-10.416.288-17.097 2.936-19.486 4.06a3.069 3.069 0 00-1.758 2.662l-.809 19.601c-.326.388-.674.991-.578 1.738l1.337 10.334a2.174 2.174 0 001.102 1.618v2.93a3.093 3.093 0 003.089 3.089h16.134a3.093 3.093 0 003.089-3.089v-3.907c0-.569-.387-1.029-.907-1.181a.735.735 0 00-.304-.067h-.029l-.01-.002-.01.002H16.344v-.002h-1.159l-.854-6.602H35.67l-.25 1.928a1.25 1.25 0 002.478.32l.696-5.373c.095-.743-.249-1.344-.574-1.732zM15.291 8.81a.576.576 0 01.324-.503c.853-.401 2.292-1.009 4.29-1.624v8.308a.5.5 0 001 0V6.389c1.066-.3 2.265-.593 3.597-.858v11.658a.5.5 0 001 0V5.346a54.867 54.867 0 013.598-.518v7.46a.5.5 0 001 0v-7.56a61.067 61.067 0 014.006-.245.592.592 0 01.621.571l.795 23.34H14.483l.808-19.584zm18.365 32.462v3.655a.59.59 0 01-.589.589H16.933a.59.59 0 01-.589-.589v-3.655h17.312zm-19.455-9.103l-.293-2.264.011-.011h22.162l.011.011-.293 2.264H14.201z"/></svg>