<svg xmlns="http://www.w3.org/2000/svg" version="1.0" viewBox="0 0 50 50"><path fill="#AFE55D" d="M39.862 9.173v21.439l-24.014 8.739-5.709-3.294V2.415l.9-.022h22.033z"/><path fill="#C3FF68" d="M39.862 9.173v2.796L10.139 22.784V2.415l.9-.022h22.033z"/><path fill="#031326" d="M33.591 1.145L11.007 1.14l-2.119.054v35.581l20.729 11.968a1.251 1.251 0 001.708-.458c.152-.264.187-.559.138-.838l.012.007V32.075h4.355V17.932h-4.355V14.97l-6.77-3.909-6.771-3.909-6.08-3.512 20.702.005.02.02v6.012h6.018l.019.019v20.917a1.25 1.25 0 002.5 0V8.66l-7.522-7.515zm-9.135 20.791v10.443l-3.26-1.882-3.26-1.883V18.171l3.26 1.882 3.26 1.883zM11.388 35.331V25.123l6.297 3.636v10.205l-6.297-3.633zm6.547 3.777V28.903l3.26 1.882 3.26 1.883v10.201l-6.52-3.761zm-.25-21.081V28.47l-6.297-3.636V14.391l3.037 1.753 3.26 1.883zm13.541 28.748l-6.52-3.761V32.812l3.26 1.882 3.26 1.883v10.198zm-6.52-14.252V22.08l3.26 1.882 3.26 1.883v10.443l-3.26-1.882-3.26-1.883zm6.52-17.409v10.443l-3.26-1.882-3.26-1.883V11.349l6.52 3.765zm-6.77-3.909v10.443l-3.26-1.882-3.26-1.883V7.439l6.52 3.766zm-6.771 6.533l-3.26-1.882-3.037-1.754V3.659l6.297 3.636v10.443zm15.14-8.311V3.914l5.518 5.512h-5.518z"/></svg>