<svg xmlns="http://www.w3.org/2000/svg" id="Layer_1" x="0" y="0" version="1.1" viewBox="0 0 50 50" xml:space="preserve"><style>.st3{fill:#444}.st4{fill:#494949}</style><path fill="#fcc34f" d="M47.7 11.6l.8 5.2L2.4 33.6l-.5-10.9-.1-6.2L42.1 1.9l5.2 2.3z"/><path fill="#fdcf72" d="M46.1 2l2.3 3.2L1.5 21.9 2.6 4.8l3-2.9 29.1-.2z"/><path fill="none" stroke="#444" stroke-linecap="round" stroke-linejoin="round" stroke-miterlimit="10" stroke-width="2.5" d="M18.1 48.3H5.5c-1.9 0-3.4-1.6-3.4-3.5v-39c0-2 1.5-3.5 3.4-3.5h39c1.9 0 3.4 1.6 3.4 3.5v24.6"/><circle cx="8.2" cy="8.2" r="1.4" class="st3"/><circle cx="12.1" cy="8.2" r="1.4" class="st3"/><circle cx="15.9" cy="8.2" r="1.4" class="st3"/><path d="M29.6 33.9l.1.1h.2l3.8.8h.1c.1 0 .3-.1.4-.1.1-.1.2-.3.1-.5l-.8-3.9v-.2c0-.1-.1-.1-.1-.1L21.8 18.6c-1-1-2.7-1-3.8 0-.5.5-.8 1.2-.8 1.9s.3 1.4.8 1.9l11.6 11.5zm2.8-3.4L30 32.9l-9.4-9.3 2.4-2.4 9.4 9.3zM18.7 19.2c.7-.7 1.7-.7 2.4 0l.1.1-2.4 2.4-.1-.1c-.6-.6-.6-1.7 0-2.4z" class="st4"/><path d="M40.4 14H22.9c-1.1.1-2.1.8-2.6 1.8-.1.2 0 .5.2.7.3.1.5 0 .7-.2.3-.7 1-1.1 1.8-1.2h14.9c0 .1-.1.1-.1.2s-.1.1-.1.2c-.3.4-.5.9-.5 1.4v24.5c0 .6-.2 1.1-.6 1.5-.4.5-1 .7-1.6.7-.9 0-1.7-.5-2-1.4-.1-.3-.2-3.5-.2-3.5 0-.3-.2-.5-.5-.5H21V27.4c0-.3-.2-.5-.5-.5s-.5.3-.5.5v10.7h-4.9c-.3 0-.5.2-.5.5v2.9c.1 1.6 1.5 2.9 3.2 2.9h17c.9 0 1.7-.4 2.3-1 .6-.6.9-1.4.9-2.2V20.4h4.9c.3 0 .5-.2.5-.5v-2.7c-.1-1.6-1.3-3-3-3.2zM17.8 43.5c-1.1 0-2.1-.9-2.2-2v-2.4h16v2.5c0 .3.1.6.2.9.1.1.1.3.2.4v.1c.1.1.2.2.2.3 0 .1.1.1.1.2H17.8zm24.6-24.1H38V17c0-.1 0-.3.1-.4.2-.9 1-1.5 1.9-1.6h.4c1.1.1 2 1 2 2.2v2.2z" class="st4"/><path d="M24.1 34.9h3c.3 0 .5-.2.5-.5s-.2-.5-.5-.5h-3c-.3 0-.5.2-.5.5 0 .2.2.5.5.5zm0-2.6h1.2c.3 0 .5-.2.5-.5s-.2-.5-.5-.5h-1.2c-.3 0-.5.2-.5.5 0 .2.2.5.5.5zm9.7-11.4h-7.2c-.3 0-.5.2-.5.5s.2.5.5.5h7.2c.3 0 .5-.2.5-.5s-.2-.5-.5-.5zm0 2.6h-4c-.3 0-.5.2-.5.5s.2.5.5.5h4c.3 0 .5-.2.5-.5s-.2-.5-.5-.5zm0 2.6h-1.7c-.3 0-.5.2-.5.5s.2.5.5.5h1.7c.3 0 .5-.2.5-.5s-.2-.5-.5-.5z" class="st4"/></svg>