<svg xmlns="http://www.w3.org/2000/svg" viewBox="0 0 50 50"><defs><style>.cls-3{fill:#031326}</style></defs><g id="ICONES"><path fill="#e589ef" d="M45.73 9.15a2.37 2.37 0 00-2.37-2.37H5.64a2.38 2.38 0 00-2.38 2.37v25.18a2.36 2.36 0 00.87 1.82H3a1.61 1.61 0 00-1.61 1.61v3.83l44.34-16.14z"/><path fill="#f799ff" d="M42.79 6.39H6.66a2.26 2.26 0 00-2.27 2.27V23L45 8.21a2.27 2.27 0 00-2.21-1.82z"/><path d="M16.38 16.73h3.72v11.19h-3.72zm1.89-5.4a1.94 1.94 0 10-.05 3.87 1.94 1.94 0 100-3.87zm10.96 5.4c-1.69 0-2.84.49-3.33 1.26V16.9a.17.17 0 00-.17-.17h-3.4a.17.17 0 00-.17.17v11h3.55a.18.18 0 00.17-.17v-5c0-1.5.77-2.53 2-2.53s2 1 2 2.53v5a.17.17 0 00.17.17h3.38a.18.18 0 00.17-.17V21.5c-.08-3.44-1.92-4.77-4.37-4.77z" class="cls-3"/><path d="M40.84 34.22H31.3V34h9.54a2.59 2.59 0 002.59-2.59V12a2.59 2.59 0 00-2.59-2.59h-32A2.59 2.59 0 006.23 12v19.42A2.59 2.59 0 008.82 34h9.85v.21H8.82A2.8 2.8 0 016 31.42V12a2.8 2.8 0 012.8-2.8h32a2.81 2.81 0 012.8 2.8v19.42a2.8 2.8 0 01-2.76 2.8z" class="cls-3"/><path d="M47.22 35.3V22.72a1.25 1.25 0 00-2.5 0V35.3H31.38v2a.4.4 0 01-.4.4H19a.4.4 0 01-.4-.4v-2H4.86v-26A1.44 1.44 0 016.3 7.87h37.08a1.44 1.44 0 011.44 1.44v4.34a1.25 1.25 0 002.5 0V9.31a3.94 3.94 0 00-3.94-3.94H6.3a3.94 3.94 0 00-3.94 3.94v26H.47v5.48a3.86 3.86 0 003.85 3.85h41.36a3.86 3.86 0 003.85-3.85V35.3zM47 40.78a1.36 1.36 0 01-1.35 1.35H4.32A1.36 1.36 0 013 40.78v-3h13.16A2.9 2.9 0 0019 40.22h12a2.9 2.9 0 002.86-2.42H47z" class="cls-3"/></g></svg>