<svg xmlns="http://www.w3.org/2000/svg" viewBox="0 0 50 50"><path fill="#e56060" d="M3.5 25.3c-.5 1.9-.2 4.6 1.2 7.4 1 2 2.2 3.7 3.6 4.7L31.5 26l1.4-.7 13-6.3c-.5-1.7-1.1-3.4-1.9-5.1-1.2-2.4-2.6-4.6-4.1-6.3-.1-.1-.2-.3-.3-.4l-13.4 6.5L3.8 24.6l-.3.7z"/><path fill="#ff6b6b" d="M3.5 25.3l22.7-11.1 13.6-6.6c-.1-.1-.2-.3-.3-.4-3.4-3.8-7.3-5.5-10.2-4.1-.1.1-.3.1-.4.2-4.8 2.4-8 7.2-8.6 12.5L5.3 23c-.7.3-1.2.9-1.5 1.6l-.3.7z"/><path fill="none" stroke="#494949" stroke-linecap="round" stroke-linejoin="round" stroke-miterlimit="10" d="M32.9 39.9l-10.5-7.1-7.9 3.8 14.1 9.5c1.7 1.2 4.1.7 5.3-1 1.2-1.7.8-4.1-1-5.2zM43.2 32c-3.3 1.6-8-.9-11.7-6v-.1c-.2-.3-.5-.7-.7-1-.3-.4-.5-.8-.8-1.2-.3-.5-.5-.9-.8-1.4l-.6-1.2c-.1-.1-.1-.2-.2-.4-.1-.1-.1-.2-.2-.3-.4-.9-.8-1.9-1.1-2.8 0-.1-.1-.4-.1-.6-.1-.2-.1-.5-.2-.7 0-.1-.1-.2-.1-.4-.2-.6-.3-1.1-.4-1.7 0-.2-.1-.3-.1-.5-.8-4.8.2-8.8 2.8-10.4.1-.1.3-.2.4-.2 2.9-1.4 6.8.3 10.2 4.1.1.1.2.2.3.4 1.5 1.7 2.9 3.9 4.1 6.3.8 1.7 1.5 3.5 1.9 5.1 1.6 6.1.7 11.4-2.7 13z"/><path fill="none" stroke="#494949" stroke-linecap="round" stroke-linejoin="round" stroke-miterlimit="10" stroke-width="2.5" d="M43.2 32c-5 2.4-10.9 2-15.5-.9l-4.5 2.2-.4.2 10.5 7c.5.3.8.7 1.1 1.2 0 0 0 0 0 0 .7 1.2.8 2.8-.1 4.1-1.2 1.7-3.5 2.2-5.2 1L15 37.3l-2.2 1.1c-1.3.6-2.9.2-4.4-1-1.3-1-2.6-2.6-3.6-4.7-1.3-2.8-1.7-5.5-1.2-7.4.1-.2.2-.5.3-.7.3-.7.8-1.3 1.5-1.6l15-7.2c.6-5.3 3.8-10 8.6-12.5.1-.1.3-.2.4-.2 2.9-1.4 6.8.3 10.2 4.1.1.1.2.2.3.4 1.5 1.7 2.9 3.9 4.1 6.3.8 1.7 1.5 3.5 1.9 5.1 1.6 6.1.7 11.4-2.7 13z"/><path fill="none" stroke="#494949" stroke-linecap="round" stroke-linejoin="round" stroke-miterlimit="10" stroke-width=".25" d="M27 15.7c-.1.1-.2.1-.4.2.5 1.7 1.1 3.5 2 5.3.9 1.8 1.9 3.4 2.9 4.9.1-.1.3-.1.4-.2 2.8-1.4 4-4.7 2.7-7.6-1.4-2.8-4.8-4-7.6-2.6z"/></svg>