<svg xmlns="http://www.w3.org/2000/svg" id="Layer_1" x="0" y="0" version="1.1" viewBox="0 0 50 50" xml:space="preserve"><style>.st3{fill:#031326}</style><path fill="#fcc34f" d="M48.5 26l.4 4.3L1.6 47.6l.2-9.3.3-5.3 47.1-17.2-.7 3.8z"/><path fill="#fdcf72" d="M48.5 9l-.6 7.9L1.8 33.7v-10l.3-4.5 46.5-17z"/><path fill="none" stroke="#031326" stroke-linecap="round" stroke-linejoin="round" stroke-miterlimit="10" stroke-width="2.5" d="M6 48.1H1.6V1.7h46.8v46.4H32.2"/><path d="M29.1 35.8c.7-.8 1.2-1.8 1.2-3 0-2.4-2-4.4-4.4-4.4s-4.4 2-4.4 4.4c0 1.2.5 2.2 1.2 3-.7.4-1.2.8-1.7 1.4-.6-1.5-1.8-2.8-3.2-3.5 1-.9 1.5-2.2 1.5-3.6 0-2.7-2.2-4.9-4.9-4.9s-4.9 2.2-4.9 4.9c0 1.4.6 2.7 1.5 3.6-2.2 1.2-3.7 3.5-3.7 6.2v3.8h25v-2.2c.1-2.4-1.2-4.6-3.2-5.7zm-5.4-3c0-1.2 1-2.2 2.2-2.2 1.2 0 2.2 1 2.2 2.2 0 1.2-1 2.2-2.2 2.2-1.2 0-2.2-1-2.2-2.2zm-12-2.7c0-1.5 1.2-2.7 2.7-2.7s2.7 1.2 2.7 2.7c0 1.5-1.2 2.7-2.7 2.7s-2.7-1.2-2.7-2.7zM9.6 41.5v-1.6c0-2.7 2.2-4.9 4.9-4.9s4.9 2.2 4.9 4.9v1.6H9.6zm11.9 0c0-2.4 2-4.4 4.4-4.4s4.4 2 4.4 4.4h-8.8zM34.6 6.7c-5.4 0-9.8 4.4-9.8 9.8 0 2 .6 3.9 1.7 5.5l-4.3 4.3h12.4c5.4 0 9.8-4.4 9.8-9.8S40 6.7 34.6 6.7zm0 17.4h-7.2l2-2-.6-.8C27.6 20 27 18.2 27 16.5c0-4.2 3.4-7.6 7.6-7.6s7.6 3.4 7.6 7.6-3.4 7.6-7.6 7.6z" class="st3"/><path d="M29.2 15.4h2.2v2.2h-2.2v-2.2zm4.3 0h2.2v2.2h-2.2v-2.2zm4.4 0h2.2v2.2h-2.2v-2.2zM39 38.2h-7.5v2.2h9.7v-17H39v14.8zM12.8 12.1h14.5V9.9H10.7v17.8h2.2V12.1z" class="st3"/></svg>