<svg xmlns="http://www.w3.org/2000/svg" id="Layer_1" x="0" y="0" version="1.1" viewBox="0 0 50 50" xml:space="preserve"><style>.st1{fill:#ce87ea}.st2{fill:none}.st3{fill:#031326}</style><path fill="#e097fb" d="M37.6 11.7C34 8 29 5.7 23.4 5.7c-11 0-19.9 8.9-19.9 19.9v.6L39 13.3c-.1-.1-.2-.3-.3-.4"/><path d="M43.3 25.6c0-4.7-1.6-9.1-4.4-12.5L2.8 26.2c.2 7.4 4.3 13.7 10.4 17.1l28.7-10.5c.9-2.2 1.4-4.7 1.4-7.2z" class="st1"/><circle cx="23.2" cy="26.8" r="1.2" class="st1"/><path d="M15.8 26.8c0 4.1 3.3 7.4 7.4 7.4 4.1 0 7.4-3.3 7.4-7.4 0-1.7-.6-3.3-1.6-4.6l-2.4 2.4c.4.6.7 1.4.7 2.2 0 2.2-1.8 4.1-4.1 4.1-2.2 0-4.1-1.8-4.1-4.1 0-2.2 1.8-4.1 4.1-4.1.8 0 1.6.2 2.2.7l2.4-2.4c-1.3-1-2.9-1.6-4.6-1.6-4.1 0-7.4 3.3-7.4 7.4z" class="st2"/><path d="M7.7 26.8c0 8.5 6.9 15.5 15.5 15.5s15.5-6.9 15.5-15.5c0-4-1.5-7.6-4-10.3l-1.8 1.8c2 2.3 3.2 5.3 3.2 8.5 0 7.1-5.8 12.9-12.9 12.9-7.1 0-12.9-5.8-12.9-12.9s5.8-12.9 12.9-12.9c3.3 0 6.2 1.2 8.5 3.2l1.8-1.8c-2.7-2.5-6.4-4-10.3-4-8.5 0-15.5 7-15.5 15.5z" class="st2"/><path d="M11.8 26.8c0 6.3 5.1 11.4 11.4 11.4 6.3 0 11.4-5.1 11.4-11.4 0-2.9-1.1-5.5-2.8-7.5L30 21.1c1.3 1.5 2.1 3.5 2.1 5.7 0 4.9-4 8.9-8.9 8.9s-8.9-4-8.9-8.9 4-8.9 8.9-8.9c2.2 0 4.1.8 5.7 2.1l1.8-1.8c-2-1.7-4.6-2.8-7.5-2.8-6.3 0-11.4 5.1-11.4 11.4z" class="st2"/><path d="M38.6 26.8c0 8.5-6.9 15.5-15.5 15.5s-15.4-7-15.4-15.5 6.9-15.5 15.5-15.5c4 0 7.6 1.5 10.3 4l1.1-1.1c-3-2.7-7-4.4-11.4-4.4-9.4 0-17 7.6-17 17s7.6 17 17 17 17-7.6 17-17c0-4.4-1.7-8.4-4.4-11.4l-1.1 1.1c2.4 2.7 3.9 6.3 3.9 10.3z" class="st3"/><path d="M34.6 26.8c0 6.3-5.1 11.4-11.4 11.4-6.3 0-11.4-5.1-11.4-11.4s5.1-11.4 11.4-11.4c2.9 0 5.5 1.1 7.5 2.8l1.1-1.1c-2.3-2-5.3-3.2-8.5-3.2-7.1 0-12.9 5.8-12.9 12.9s5.8 12.9 12.9 12.9c7.1 0 12.9-5.8 12.9-12.9 0-3.3-1.2-6.2-3.2-8.5l-1.1 1.1c1.6 1.9 2.7 4.5 2.7 7.4z" class="st3"/><path d="M30.5 26.8c0 4.1-3.3 7.4-7.4 7.4-4.1 0-7.4-3.3-7.4-7.4s3.3-7.4 7.4-7.4c1.7 0 3.3.6 4.6 1.6l1.1-1.1c-1.5-1.3-3.5-2.1-5.7-2.1-4.9 0-8.9 4-8.9 8.9s4 8.9 8.9 8.9 8.9-4 8.9-8.9c0-2.2-.8-4.1-2.1-5.7l-1.1 1.1c1.1 1.4 1.7 3 1.7 4.7z" class="st3"/><path d="M26.6 24.6l-2.8 2.8c-.2.2-.4.2-.6.2-.2 0-.4-.1-.6-.2-.3-.3-.3-.8 0-1.1l2.8-2.8c-.6-.4-1.4-.7-2.2-.7-2.2 0-4.1 1.8-4.1 4.1 0 2.2 1.8 4.1 4.1 4.1 2.2 0 4.1-1.8 4.1-4.1-.1-.9-.3-1.7-.7-2.3z" class="st3"/><path d="M41.7 14.9l6.6-6.6h-5.4c0 .1-.1.2-.2.3L39 12.3c-.4-.4-.7-.8-1.1-1.2l3.7-3.7.1-.1V1.7l-6.6 6.6v.6c-3.4-2.3-7.5-3.6-12-3.6C11.2 5.3 1.6 15 1.6 26.8c0 11.9 9.7 21.5 21.5 21.5 2.6 0 5.2-.5 7.6-1.4.6-.2 1-1 .7-1.6s-1-1-1.6-.7c-2.2.8-4.4 1.2-6.8 1.2-10.5 0-19-8.5-19-19s8.5-19 19-19 19 8.5 19 19c0 2.7-.5 5.2-1.6 7.6-.3.6 0 1.4.6 1.6.6.3 1.4 0 1.6-.6 1.2-2.7 1.8-5.6 1.8-8.6 0-4.4-1.3-8.5-3.6-11.9h.9z" class="st3"/></svg>