<svg xmlns="http://www.w3.org/2000/svg" id="Layer_1" x="0" y="0" version="1.1" viewBox="0 0 50 50" xml:space="preserve"><style>.st2{fill:#031326}</style><path fill="#ff6b6b" d="M45.2 6.5H4.8c-1.8 0-3.3 1.6-3.3 3.6V23L46.2 6.7c-.4-.1-.7-.2-1-.2z"/><path fill="#e56060" d="M48.5 18.2v-8.1c0-1.6-1-2.9-2.3-3.4L1.5 23v8.3c0 2 1.5 3.6 3.3 3.6h6.8l.5.9 36.4-13.3v-4.3z"/><path d="M34.8 28c-4.2 0-7.7-3.5-7.7-7.7s3.5-7.7 7.7-7.7 7.7 3.5 7.7 7.7S39 28 34.8 28zm0-14c-3.4 0-6.2 2.8-6.2 6.2s2.8 6.2 6.2 6.2 6.2-2.8 6.2-6.2-2.8-6.2-6.2-6.2z" class="st2"/><path d="M34.8 15.4c-2.7 0-4.9 2.2-4.9 4.9s2.2 4.9 4.9 4.9 4.9-2.2 4.9-4.9c-.1-2.7-2.2-4.9-4.9-4.9zm2.5 3.6l-3.4 3.4-1.7-1.8c-.1-.1-.1-.4 0-.5.1-.1.4-.1.5 0l1.2 1.2 2.8-2.8c.1-.1.4-.1.5 0 .2.1.2.3.1.5zm-12.4-1.5H9.1c-.4 0-.8-.3-.8-.8s.4-.7.8-.7h15.8c.4 0 .8.3.8.8s-.3.7-.8.7zm0 3.5H9.1c-.4 0-.8-.3-.8-.8s.3-.8.8-.8h15.8c.4 0 .8.3.8.8s-.3.8-.8.8zm0 3.5H9.1c-.4 0-.8-.3-.8-.8s.4-.7.8-.7h15.8c.4 0 .8.3.8.8s-.3.7-.8.7z" class="st2"/><path d="M45.2 5.9H4.8C2.3 5.9.2 8.1.2 10.7v21.2c0 2.7 2 4.8 4.6 4.8h6l3.8 7.4 5-7.4h22.2c.7 0 1.2-.6 1.2-1.2s-.6-1.2-1.2-1.2H18.3l-3.4 5-2.5-5H4.8c-1.1 0-2.1-1-2.1-2.3V10.7c0-1.3.9-2.3 2.1-2.3h40.3c1.1 0 2.1 1 2.1 2.3v11c0 .7.6 1.2 1.2 1.2s1.2-.6 1.2-1.2v-11c.1-2.6-1.9-4.8-4.4-4.8z" class="st2"/></svg>