<svg xmlns="http://www.w3.org/2000/svg" id="Camada_1" x="0" y="0" version="1.1" viewBox="0 0 50 50" xml:space="preserve"><style>.st2{fill:#031326}</style><path fill="#ffb969" d="M47.9 8.9v16.7l-1.6.6-20.1 7.3-1.6.6-20.9 7.6-1.6.6V19l1.6-.6 20.9-7.2 1.6-.6 3-1L33.9 8h13.3c.4.1.7.5.7.9z"/><path fill="#ffc787" d="M37.8 8.1l-4.4 1.6-7.2 2.6-1.6.6-20.9 7.6-1.6.6V5.7c0-.4.3-.7.7-.8l22.5-3.2c.2 0 .5 0 .6.2.2.2.3.4.3.6v5.6h11.6z"/><path d="M47.1 42.7zm0 .3v-.5z" class="st2"/><path fill="#031326" stroke="#031326" stroke-miterlimit="10" stroke-width=".5" d="M47.1 8.1H26.2V2.5c0-.2-.1-.5-.3-.6-.2-.1-.4-.2-.6-.2L2.8 4.9c-.4 0-.7.4-.7.8v38.6c0 .4.3.7.7.8l22.5 3.2h.1c.2 0 .4-.1.5-.2.2-.2.3-.4.3-.6V45l21-1.6c.4 0 .7-.4.7-.8V8.9c0-.4-.3-.8-.8-.8zM24.6 46.6l-20.9-3V6.4l20.9-3v43.2zm21.7-5.5H26.2V9.7h20.1v31.4z"/><path d="M14.5 26h-2.2v3.4c0 .5-.1.9-.3 1.1-.2.3-.5.4-.9.4s-.7-.1-.9-.4c-.2-.3-.3-.6-.3-1.1v-9.3c0-.5.1-.9.4-1.2s.6-.3 1.2-.3h3.1c.9 0 1.6.1 2.1.2s.9.4 1.3.7c.4.3.6.7.8 1.2.2.5.3 1 .3 1.6 0 1.2-.4 2.2-1.1 2.8-.9.6-2 .9-3.5.9zm-.6-5.5h-1.6v3.7h1.6c.6 0 1.1-.1 1.4-.2.4-.1.7-.3.9-.6.2-.3.3-.6.3-1.1 0-.5-.2-1-.5-1.3-.3-.3-1-.5-2.1-.5zm29.2-.8h-5c-.3 0-.5-.2-.5-.5v-5c0-.3.2-.5.5-.5 3 0 5.5 2.5 5.5 5.5 0 .3-.2.5-.5.5zm-4.5-1h4c-.2-2.1-1.9-3.7-4-4v4z" class="st2"/><path d="M36.2 26.7c-3 0-5.5-2.5-5.5-5.5s2.5-5.5 5.5-5.5c.3 0 .5.2.5.5v4.5h4.5c.3 0 .5.2.5.5-.1 3-2.5 5.5-5.5 5.5zm-.5-9.9c-2.2.2-4 2.1-4 4.5 0 2.5 2 4.5 4.5 4.5 2.3 0 4.2-1.7 4.5-4h-4.5c-.3 0-.5-.2-.5-.5v-4.5z" class="st2"/></svg>