<svg xmlns="http://www.w3.org/2000/svg" id="Camada_3" x="0" y="0" version="1.1" viewBox="0 0 50 50" xml:space="preserve"><style>.st2{stroke-width:2.5}.st2,.st3,.st4{fill:none;stroke:#444;stroke-linecap:round;stroke-linejoin:round;stroke-miterlimit:10}.st4{stroke-width:.5}.st5{fill:#444}</style><path fill="#c3ff68" d="M34 2.8l-7.8-.7c-3.2 0-14.6.3-21.4 10.2l-4 10.8 41-14.4L34 2.8z"/><path fill="#afe55d" d="M.6 23l4 13.4c.1.4 4.6 5.6 4.9 5.9l5.6 3 32.2-11.7c.6-.5 1.7-8.8.7-13.6-.2-.8-2.7-7.5-3.2-8.1l-3-3.5L.6 23z"/><path d="M32.9 47.1c-5.8 2.1-12.5 1.9-18.5-1.2C2.9 40.1-1.7 26 4.1 14.4" class="st2"/><path d="M4 14.6c1.5-3.3 3.8-5.5 3.8-5.5l.6-.6c7-7 17.9-9.1 27.2-4.4C47.2 10 51.8 24.1 46 35.6" class="st2"/><path d="M12.5 29.4l-3.3-1.6m4.5 6.2l-2.1 2.9m1.1-5.1l-4.4 1.1" class="st3"/><path d="M14.6 16.6s-1.3 3.6-.5 7.4c0 .2.1.5.1.7-.1 1.6-.2 7.9 3.6 11 .6.5 1.6 1.2 2.9 1.5l3.1.4c1 .3 1.8 1.1 2 2.1l.1.9c.1.6.5 1 1.1 1.1 2.2.4 8.6 1.1 11.5-2.9.2-.2.2-.5.3-.8l-.8-8.6" class="st4"/><path d="M30.1 35.6s4-1.1 4.8-4.1l.1-.5c.1-.4.9-1.2 1.7-1.3 1.6-.1 2.5-.4 3-4.2.6-4.3-.7-5-1.7-5-.6 0-1.2.4-1.6.9-.3.4-.7 1-1.1 1.9-1.8 5-1.5-1.2-2.7-6.5-.5-2-4.3-1.5-5.5-1-2.9 1.1-5.1-.7-5.9-1.2-1.6-1.1-1.3-1.3-3.1.4 0 0-3.6 3.4-4.3.5-.3-1.1.8-2.6 1.6-3.5 2.8-2.9 10.9-7.1 20.8-2.1 0 0 9.7 4.7 5.6 18.5-.3.9-2.3 6.4-3.7 4.2" class="st4"/><path d="M14.3 18.7s5.3 0 4.4 3.7-1.6 5.1.5 5.1m2.7-8.3s4-2.1 7.5 1" class="st3"/><path d="M23.4 30.7c-2.7 2.7-5.3.8-6.3-.3-.2-.2 0-.6.3-.6l5.8.3c.2 0 .4.4.2.6z" class="st5"/><ellipse cx="16.2" cy="22.7" class="st5" rx="1.2" ry=".9" transform="rotate(-84.629 16.218 22.747) scale(.99999)"/><ellipse cx="24.8" cy="23" class="st5" rx="1.4" ry="1.1" transform="rotate(-84.629 24.784 22.977) scale(.99999)"/></svg>