<svg xmlns="http://www.w3.org/2000/svg" id="Camada_3" x="0" y="0" version="1.1" viewBox="0 0 50 50" xml:space="preserve"><style>.st2,.st3{fill:none;stroke:#444;stroke-linecap:round;stroke-linejoin:round;stroke-miterlimit:10}.st3{stroke-width:.5}</style><path fill="#fcc34f" d="M44.31 12.36l-5.63-3.59-7.67-4.43-5.97-2.84c-3.2 0-21.45 8.94-21.45 12.14l-.53 7.8.53 15.13 11.5 7.56L46.11 33.1c.74-.43-.81-18.75-1.8-20.74z"/><path fill="none" stroke="#444" stroke-linecap="round" stroke-linejoin="round" stroke-miterlimit="10" stroke-width="2.5" d="M29.57 46.41l-2.2 1.27c-1.69.98-3.78.98-5.47 0L6.33 38.69a5.48 5.48 0 01-2.74-4.74V15.97a5.46 5.46 0 012.74-4.74L21.9 2.24c1.69-.98 3.78-.98 5.47 0l15.57 8.99a5.48 5.48 0 012.74 4.74v17.98a5.46 5.46 0 01-2.74 4.74l-2.46 1.42"/><path d="M24.87 28.31c-2.01.62-4.09.64-5.32.49a1.41 1.41 0 01-1.21-1.67c.2-1.03.49-2.48.75-3.85.49-2.49 3.24-2.38 3.24-2.38l2.52 4.67 2.4-4.61s2.49-.27 2.86 2.43c.22 1.59.39 3.12.49 4.11.07.65-.4 1.24-1.06 1.31-1.21.14-3.08.21-4.19-.45-1.73-1.03-4.65-2.05-4.65-2.05l.38-1.19s1.84.92 3.89.76 3.3.49 3.3.49l-.38-2m-6.66-.1l-.52 2.04m3.37-5.32h1.53m-.76 4.58l-.03-4.29m-3.41 7.89v12.05m3.46.12v-7.25m3.46-5.03v12.05" class="st2"/><ellipse cx="24.84" cy="16.82" class="st2" rx="2.62" ry="2.84"/><path d="M30.38 39.81c1.37.36 2.22.86 2.22 1.41 0 1.1-3.4 2-7.59 2s-7.59-.9-7.59-2c0-.57.89-1.08 2.33-1.44" class="st3"/><circle cx="12.95" cy="27.85" r="1.76" class="st3"/><circle cx="12.95" cy="14.12" r="1.76" class="st3"/><circle cx="24.74" cy="7.25" r="1.76" fill="none" stroke="#444" stroke-miterlimit="10" stroke-width=".5"/><path d="M12.85 16.03v9.92m1.43.68l2.32-1.3m-2.19-10.1l4.77 2.63m-4.85-4.85l8.74-4.85" class="st3"/><circle cx="36.42" cy="27.85" r="1.76" class="st3"/><circle cx="36.42" cy="14.12" r="1.76" class="st3"/><path d="M36.52 16.03v9.92m-1.42.68l-2.33-1.3m2.21-10.21l-4.78 2.74m4.84-4.85l-8.72-4.83m-1.63.89v3.14" class="st3"/></svg>