<svg xmlns="http://www.w3.org/2000/svg" id="Layer_1" x="0" y="0" version="1.1" viewBox="0 0 50 50" xml:space="preserve"><style>.st2{fill:#031326}</style><path fill="#e589ef" d="M46.9 26.2l.3 4.1L2.5 46.6l.1-8.7.3-5.1 44.6-16.2-.7 3.6z"/><path fill="#f799ff" d="M47 10l-.5 7.5L2.7 33.4V24l.3-4.3L47.2 3.6z"/><path d="M32.5 48.5h-30c-.7 0-1.2-.6-1.2-1.2V2.8c0-.7.6-1.2 1.2-1.2h44.7c.7 0 1.2.6 1.2 1.2v34.4c0 .7-.6 1.2-1.2 1.2s-1.2-.6-1.2-1.2V4H3.8v42h28.7c.7 0 1.2.6 1.2 1.2s-.5 1.3-1.2 1.3z" class="st2"/><path d="M40.6 8.5c-.2-.2-.4-.2-.6-.2h-.1l-9 1c-.2 0-.4.1-.5.3L17.6 25l-2.4-2.4c-.3-.3-.8-.3-1.1 0l-.4.4c-1.3 1.3-1.3 3.5 0 4.8l.5.5c.4.4.6.8.6 1.4 0 .5-.2 1-.6 1.4l-3.6 3.6-1-1c-.3-.3-.8-.3-1.1 0-.3.3-.3.8 0 1.1l1.5 1.5 3 2.7 1.5 1.5c.1.2.3.2.5.2s.4-.1.5-.2c.3-.3.3-.8 0-1.1l-1-1 3.6-3.6c.7-.7 2-.7 2.7 0l.5.5c1.3 1.3 3.5 1.3 4.8 0l.4-.4c.2-.1.2-.3.2-.5s-.1-.4-.2-.5l-2.4-2.4 15.3-12.8c.2-.1.2-.3.3-.5l1-9v-.1c.1-.2.1-.4-.1-.6zM25 34.4c-.7.6-1.9.5-2.5-.1l-.5-.5c-1.3-1.3-3.5-1.3-4.8 0l-3.6 3.6-1.8-1.8 3.6-3.6c1.3-1.3 1.3-3.5 0-4.8l-.5-.5c-.7-.7-.8-1.8-.2-2.5l2.4 2.4.1.1 5.2 5.2.1.1 2.5 2.4zm13.3-16.7L23.1 30.4 18.7 26l12.7-15.2L38 10 22 26c-.3.3-.3.8 0 1.1.1.1.3.2.5.2s.4-.1.5-.2l16-16-.7 6.6z" class="st2"/></svg>