<svg xmlns="http://www.w3.org/2000/svg" id="Camada_3" x="0" y="0" version="1.1" viewBox="0 0 50 50" xml:space="preserve"><style>.st3{fill:none;stroke:#444;stroke-linecap:round;stroke-linejoin:round;stroke-miterlimit:10}</style><path fill="#c3ff68" d="M47.6 9.83l-.56 7.63L2.29 33.75v-9.68l.32-4.38-.68-17.11 45.78.69z"/><path fill="#afe55d" d="M47.37 26.27l.4 10.26-30.91 11.25-15.03.23.24-9.77.34-16.55L48.07 5.07l-.7 15.07z"/><path fill="none" stroke="#444" stroke-linecap="round" stroke-linejoin="round" stroke-miterlimit="10" stroke-width="2.5" d="M32.86 48.01H1.83V1.99h46.34v35.67"/><ellipse cx="34.85" cy="10.13" class="st3" rx="2.27" ry="2.26"/><ellipse cx="11.65" cy="16.37" class="st3" rx="2.51" ry="2.5"/><path d="M41.84 35.51l-.6-12.48-1.68-7.83c-.52-1.81-2.47-2.82-4.26-2.2l-9.49 3.03c-.58.2-1.01.75-.98 1.36a1.4 1.4 0 001.78 1.3l6.71-1.58 1.45 5.26-4.38 6.05c-.24.34-.37.74-.37 1.16v5.93" class="st3"/><path d="M38.58 35.51L37.41 25l-4.09 5.26v5.25m-12.55 3.71v-6.23c0-.85-.54-1.6-1.35-1.87l-4.59-1.52v-5.91l8.02-3.42c.57-.24.98-.8.96-1.43A1.49 1.49 0 0022 17.43l-11.17 2.42c-1.52.33-2.6 2.3-2.6 3.85v19.7" class="st3"/><path d="M17.97 41.19l-.5-6.99-5.41-1.32-.5 10.52m27.02-7.89h-5.26m-15.35 5.68l-3.14 2.21h-3.27m18.45-7.89h-3.96l-5.28 3.71" class="st3"/></svg>