<svg xmlns="http://www.w3.org/2000/svg" id="Layer_1" x="0" y="0" version="1.1" viewBox="0 0 50 50" xml:space="preserve"><style>.st2,.st3{stroke-linecap:round;stroke-linejoin:round}.st2{fill:none;stroke:#444;stroke-miterlimit:10}.st3{stroke-width:.25}.st3,.st5{fill:none;stroke:#444;stroke-miterlimit:10}</style><path fill="#00dffc" d="M26.42 4.55c-1.02-.27-.19-2.02-1.27-2.02s-2.2-.14-3.2.21c-18.51 6.62-7.89 9.35-9.77 13.76-.35.81-.93 2.49-.1 2.2l23.85-8.49C32.35 7.23 30 5.5 26.42 4.55z"/><path fill="#00c8e2" d="M35.92 10.22l-25.73 9.15c-.3 1.54 3.93 8.7 3.93 10.32 0 7.71-6.14 10.63-5.87 13.56l4.07 2.33 33.85-12.04-.56-3.41c-.77-.25-12.8-.37-12.54-1.14.47-1.38 1.63-2.68 1.63-3.92.01-7.72-.95-10.75 1.22-14.85z"/><path d="M19.29 20.73c0 .31-.25.55-.55.55-.31 0-.55-.25-.55-.55 0-.31.25-.55.55-.55.3-.01.55.24.55.55z" class="st2"/><circle cx="27.14" cy="20.73" r=".55" class="st2"/><path d="M15.87 13.16c-1.22 0-3.02 1.51-3.02 3.36v1.68c-.93 0-1.68.75-1.68 1.68v2.52c0 .93.75 1.68 1.68 1.68v1.72a2.48 2.48 0 002.48 2.48h15.22a2.48 2.48 0 002.48-2.48v-1.72c.93 0 1.68-.75 1.68-1.68v-2.52c0-.93-.75-1.68-1.68-1.68v-1.68c0-1.86-1.67-3.36-3.52-3.36M12.69 39.91a1.674 1.674 0 01-.84-2.21l2.24-5.04c.27-.61.87-1 1.54-1h3.11V28.3" class="st2"/><path d="M33.55 46.78H16.77l-7.56-3.36s-.85-.54-.58-1.05.63-.51.63-.51h7.47" class="st3"/><path d="M16.28 45.04l5.11-13.17c.26-.64.87-1.06 1.56-1.06h20.71c1.2 0 2.02 1.23 1.55 2.33l-3.82 9.06M16.28 10.99h12.8v3.58h-12.8z" class="st3"/><path fill="none" stroke="#505050" stroke-linecap="round" stroke-linejoin="round" stroke-miterlimit="10" stroke-width=".25" d="M31.01 11.02v2.14"/><path d="M34.15 10.99H11.74c-.5 0-.7-.64-.3-.93l5.74-4.1c.09-.06.19-.1.3-.1h10.94c.11 0 .21.03.3.1l5.74 4.1c.39.29.18.93-.31.93z" class="st3"/><path d="M20.78 23.8s.87 1.26 2.17 1.26c1.3 0 2.06-1.26 2.06-1.26" class="st2"/><path id="XMLID_845_" d="M36.43 38.03l-.45-.03a.579.579 0 01-.51-.41v-.01a.59.59 0 01.17-.63l.34-.3c.24-.21.27-.58.06-.82l-.69-.8a.584.584 0 00-.82-.06l-.34.3c-.18.16-.44.18-.65.07h-.01a.581.581 0 01-.33-.57l.03-.45c.02-.32-.22-.6-.54-.62l-1.06-.08c-.32-.02-.6.22-.62.54l-.03.45c-.02.24-.18.44-.41.51h-.01a.59.59 0 01-.63-.17l-.3-.34a.584.584 0 00-.82-.06l-.8.69c-.24.21-.27.58-.06.82l.3.34c.16.18.18.44.07.65v.01c-.11.22-.33.35-.57.33l-.45-.03c-.32-.02-.6.22-.62.54l-.08 1.06c-.02.32.22.6.54.62l.45.03c.24.02.44.18.51.41v.01c.07.23.01.48-.17.63l-.34.3c-.24.21-.27.58-.06.82l.69.8c.21.24.58.27.82.06l.34-.3c.18-.16.44-.18.65-.07h.01c.22.11.35.33.33.57l-.03.45c-.02.32.22.6.54.62l1.03.09c.32.02.6-.22.62-.54l.03-.45c.02-.24.18-.44.41-.51h.01a.59.59 0 01.63.17l.3.34c.21.24.58.27.82.06l.8-.69c.24-.21.27-.58.06-.82l-.3-.34a.575.575 0 01-.07-.65v-.01c.11-.22.33-.35.57-.33l.45.03c.32.02.6-.22.62-.54l.08-1.06a.544.544 0 00-.51-.63z" class="st5"/><circle id="XMLID_841_" cx="31.77" cy="38.8" r="1.78" class="st5"/><circle id="XMLID_00000139253485315704691170000006843002991526025394_" cx="22.55" cy="4.55" r="1.78" class="st5"/><path d="M22.55 8.43v-2.1" class="st5"/><path fill="none" stroke="#444" stroke-linecap="round" stroke-linejoin="round" stroke-miterlimit="10" stroke-width="2.5" d="M41.85 42.67l3.81-9.07c.24-.58.7-1.62.47-2.21h0c-.36-.93-1.65-1.77-2.65-1.8l-15.06-.03v-.36s5.98 1.17 5.48-4.47c0 0 2.24.72 1.99-3.45-.24-4.17-2.06-3.7-2.06-3.7l-.09-3.26-.01-1.32c0-.26.16-.5.4-.61.77-.35 1.87-.73 1.86-1.88-.01-1.61-7.11-5.82-7.11-5.82l-3.06-.14s-.88-2.77-3.26-2.65-3.26 2.65-3.26 2.65h-2.12L10.53 9.1c-.53.39-.89 1.23-.47 2.04h0c.28.45 1.3 1.23 1.76 1.23l3.15-.18s-2.77.97-2.88 5.3c0 0-1.43-.11-1.76 2.69-.36 3.12.65 4.12 1.37 4.45 0 0 0 5.8 5.59 4.48l.15 1.2h-2.22s-1.47.6-1.83 1.68c-.3.91-2.25 4.61-2.49 5.88-.04.24-.35 1.44.3 2.04.53.49.02-.05 1.53.87l-3.63-.03c-.34 0-.9.62-1.05.93h0c-.23.46.05 1.7.52 1.92l8 3.76h16.98"/><path fill="none" stroke="#444" stroke-linecap="round" stroke-linejoin="round" stroke-miterlimit="10" stroke-width=".5" d="M27.3 28.68l.09 2.02.68-.49M24.44 5.67l.54-.34.16.34h-.35m-5.27 0l.72-.52.38.52h-.74"/><path d="M15.88 11.14l.28.33v-.48l-.67.24.79.47-.12 1.23-1.08.79 1.2-.16m12.87 0h.72l-.78-.88 1.26.22m2.17 1.18v-3.01h2.19l-2.1.29.68.11-.3.29-.31-.15.04.56.24-.72-.29-.21.22-.09-.06.41" class="st3"/><path d="M30.53 11.44v1.72l-1.05-.59v-1.13l.52.03v.42" class="st2"/><path d="M30.53 13.32h1.99v.61l-.46-.37-.39.06 1.17-.06-2.13-.44-.18-.24h2.52l-.53.24-1.45-.1.72.2" class="st3"/></svg>