<svg xmlns="http://www.w3.org/2000/svg" version="1.0" viewBox="0 0 50 50"><path fill="#71BAC0" d="M43.839 28.562L8.042 41.592l-1.89-1.098v-9.622l6.632-8.264-2.326-1.342v-9.629l7.133-8.887 8.491 1.276 9.452 5.397.049 5.591 8.183 4.677z"/><path fill="#7ED0D6" d="M35.566 12.784L11.152 21.67l-.694-.404v-9.629l7.133-8.887 8.491 1.276 9.452 5.397z"/><path fill="#031326" d="M37.135 14.311l-.008-5.616-10.616-6.06-9.513-1.428-7.92 9.872v11.187l1.515.917-5.863 7.305v10.868l11.591 6.732 8.355.664 7.819-9.757a1.25 1.25 0 00-1.554-1.886l-.068-8.423-1.261-.72 6.544-8.18 6.446.53.071 8.735c0 .052.029.092.056.132v.175a1.25 1.25 0 002.5 0V18.919l-8.094-4.608zm-9.058-5.009L19.25 4.243l6.578.989 7.903 4.515-5.654-.445zM11.578 20.856v-8.253l9.445 5.499.045 8.339-9.49-5.585zM7.322 31.319l9.5 5.531.045 8.396-9.545-5.544v-8.383zm9.689 5.062l-9.409-5.477 6.469-8.062 9.351 5.525-6.411 8.014zm4.2-18.748l-9.562-5.566 6.382-7.946 9.591 5.497-6.411 8.015zm2.507 28.319l-6.35-.501-.047-8.658 6.608-8.26 6.447.53.068 8.496-6.726 8.393zm.157-17.902l-1.383-.792 5.694.469 1.346.769-5.657-.446zm4.202-.891c-.022.018-.052.025-.067.051v.001l-6.441-.508-.047-8.658 6.609-8.261 6.445.53.07 8.646-6.569 8.199zm7.068-8.403l-.022-2.713 6.491 3.695-5.512-.434-.957-.548zm-5.908 8.88l-.615-.358 6.416-8.007.61.35-6.411 8.015z"/></svg>