<svg xmlns="http://www.w3.org/2000/svg" viewBox="0 0 50 50"><path fill="#46b8b0" d="M48.4 26l.4 4.3-47 17.2.1-9.1.3-5.4L49 15.9l-.6 3.8z"/><path fill="#4ecdc4" d="M48.4 9.1l-.6 7.8L1.9 33.8V23.7l.3-4.5L48.5 2.4z"/><path fill="#444" d="M36.9 49.4H1.8c-.7 0-1.2-.6-1.2-1.2V1.8c0-.7.6-1.2 1.2-1.2h46.5c.7 0 1.2.6 1.2 1.2V37c0 .7-.6 1.2-1.2 1.2S47 37.8 47 37V3.1H3v43.7h33.9c.7 0 1.2.6 1.2 1.2s-.6 1.4-1.2 1.4z"/><path fill="#494949" d="M7.4 34.8c-.2.2-.3.5-.1.7.2.2.5.3.7.1l3.5-2.3c.2-.2.3-.5.1-.7s-.5-.3-.7-.1l-3.5 2.3zm18.1-24.4c.2 0 .4-.2.4-.4V6.6c0-.2-.2-.4-.4-.4s-.4.2-.4.4V10c0 .2.2.4.4.4zm-7.8 1.7l-1.9-2.7c-.1-.2-.4-.2-.6-.1s-.2.4-.1.6l1.9 2.7c.1.1.2.2.3.2.1 0 .2 0 .2-.1.3-.1.3-.4.2-.6zm-9.5 9.2c0 .2.2.4.4.4H12c.2 0 .4-.2.4-.4s-.2-.4-.4-.4H8.6c-.2.1-.4.2-.4.4zM35.9 9.9c.1-.2.1-.4-.1-.6-.2-.1-.4-.1-.6.1l-1.9 2.7c-.1.2-.1.4.1.6.1 0 .1.1.2.1s.3-.1.3-.2l2-2.7zm6.5 11.9c.2 0 .4-.2.4-.4s-.2-.4-.4-.4H39c-.2 0-.4.2-.4.4s.2.4.4.4h3.4zm-5.2 9c-.2-.1-.4-.1-.6.1-.1.2-.1.4.1.6l2.8 1.9c.2.1.4.1.6-.1.1-.2.1-.4-.1-.6l-2.8-1.9zM18 16.2c-1.7 1.7-2.6 3.8-2.5 6.1 0 3.2 1.8 6.2 4.7 7.7.5.2.8.7.8 1.3V40c0 .7.5 1.2 1.2 1.2h7.3c.7 0 1.2-.5 1.2-1.2v-4.4c0-.2-.2-.4-.4-.4h-4.1v-6.3h1.2l1.4 1.6c-.5.7-.4 1.7.1 2.4.7.9 2 1.1 3 .4.9-.7 1.1-2 .4-3-.7-.9-2-1.1-3-.4l-1.5-1.7c-.1-.1-.2-.1-.3-.1h-1.3V25h5.2c.2.9.8 1.5 1.7 1.7 1.1.2 2.3-.5 2.5-1.7.2-1.1-.5-2.3-1.7-2.5-1.1-.2-2.3.5-2.5 1.7h-5.2v-3h2.4c.1 0 .3-.1.3-.2l1.1-2.1c.8.3 1.7.1 2.3-.6.8-.9.7-2.2-.2-3-.9-.8-2.2-.7-3 .2-.8.9-.7 2.2.2 3l-1 1.9h-2.2v-6.5c0-.2-.2-.4-.4-.4h-1.5c-2.3 0-4.5 1-6.2 2.7zm12.8 2c-.7 0-1.3-.6-1.3-1.3s.6-1.3 1.3-1.3 1.3.6 1.3 1.3c0 .7-.6 1.3-1.3 1.3zm1.3 6.4c0-.7.6-1.3 1.3-1.3.7 0 1.3.6 1.3 1.3 0 .7-.6 1.3-1.3 1.3-.7 0-1.3-.6-1.3-1.3zM30.5 33c-.7 0-1.3-.6-1.3-1.3 0-.7.6-1.3 1.4-1.3.7 0 1.3.6 1.3 1.4 0 .6-.6 1.2-1.4 1.2zm-5.1 2.2h-1.1c0-1.3-.1-6.6-.5-10.1h1.6v10.1zm4.5.8v1.9h-8.2V36h8.2zm-8.2 4v-1.3h8.2V40c0 .3-.2.5-.5.5h-7.3c-.2-.1-.4-.3-.4-.5zm-5.5-17.7c0-2.1.8-4 2.3-5.6 1.5-1.5 3.6-2.4 5.8-2.4h1.1v10c-.6 0-1.1.1-1.7 0-.1-1-.3-1.8-.5-2.3-.6-1.3-1.7-1.6-2.5-1.3-.9.3-1.6 1.4-1.1 2.6.4 1.2 2 1.6 3.5 1.7.3 3 .5 7.4.5 10.2h-1.8v-4c0-.8-.5-1.6-1.2-1.9-2.7-1.4-4.4-4.1-4.4-7zm6.7 2c-1.3-.1-2.4-.5-2.7-1.2-.3-.8.1-1.4.7-1.6.1 0 .3-.1.4-.1.4 0 .9.2 1.2.9.2.4.3 1.1.4 2z"/></svg>