<svg xmlns="http://www.w3.org/2000/svg" version="1" viewBox="0 0 50 50"><path fill="#DC5E82" d="M33.476 39.037a17.366 17.366 0 003.275-6.615l.773-.195c6.191-1.552 9.991-6.944 9.991-13.587 0-7.872-6.368-14.24-14.24-14.24-4.978 0-9.375 2.57-11.912 6.449 0 0-.972-.065-1.471-.065-9.617 0-17.408 7.807-17.408 17.408a17.41 17.41 0 0013.928 17.055l17.064-6.21z"/><path fill="#F56991" d="M42.366 7.815A14.178 14.178 0 0033.123 4.4c-4.978 0-9.375 2.57-11.912 6.449 0 0-.972-.065-1.471-.065-7.415 0-13.727 4.649-16.237 11.175L42.366 7.815z"/><g fill="#031326"><path d="M12.205 27.592a.25.25 0 00.343.084l4.793-2.916 2.166 2.645a.25.25 0 10.387-.317l-2.441-2.981-2.61 1.588-1.768-1.796a.25.25 0 00-.357.351l1.685 1.712-2.116 1.287a.251.251 0 00-.082.343z"/><path d="M33.275 3.15a15.433 15.433 0 00-12.543 6.411 19.61 19.61 0 00-.84-.027c-10.288 0-18.658 8.37-18.658 18.658 0 3.098.779 6.171 2.252 8.887a18.64 18.64 0 0016.405 9.771 1.25 1.25 0 000-2.5c-1.238 0-2.453-.149-3.629-.419.011-.012.025-.021.036-.033 1.866-2.043 1.882-5.271.357-8.308l2.521-.701 4.581 1.43 1 3.634a.25.25 0 00.307.175.252.252 0 00.175-.308l-.915-3.324 2.642.825a.249.249 0 00.312-.164.248.248 0 00-.164-.312l-7.861-2.455-.071-.022-2.774.771a13.44 13.44 0 00-2.677-3.369c-3.142-2.87-7.092-3.917-9.98-2.951-.008-.208-.02-.417-.02-.626 0-7.802 5.559-14.33 12.923-15.832l.801 1.726-5.069 3.732a.25.25 0 00.296.403l1.575-1.159.294 3.485a.25.25 0 00.249.229l.021-.001a.25.25 0 00.228-.27l-.319-3.791 2.94-2.165 1.588 3.419a.25.25 0 10.454-.21l-1.738-3.743-.805-1.733a16.146 16.146 0 012.72-.247c.469 0 1.381.062 1.387.062l.479-.018.3-.008a16.15 16.15 0 014.291 1.19l.232 3.712-1.271 1.32h-.001l-.001.001-1.983 2.06a.25.25 0 10.36.347l1.776-1.844 2.436 2.859a.25.25 0 00.352.028.25.25 0 00.028-.353l-2.468-2.896 1.284-1.334-.232-3.679c6.881 3.235 10.416 10.729 8.962 17.885l-.014.089-.141.749c-.575 2.309-1.812 4.417-3.327 6.258a1.251 1.251 0 001.932 1.588 18.786 18.786 0 003.49-6.594l.062-.016c6.645-1.666 10.938-7.475 10.938-14.8.005-8.543-6.944-15.492-15.485-15.492zm-10.917 8.462l.051-.079A12.948 12.948 0 0133.275 5.65c3.926 0 7.443 1.758 9.827 4.52-.185-.048-.369-.11-.554-.148-1.68-.346-3.367-.346-5.001-.146a19.488 19.488 0 00-4.748 1.213c-1.512.609-2.978 1.391-4.204 2.545a.453.453 0 00-.103.145 16.643 16.643 0 00-6.134-2.167zm6.914 2.68c1.14-.915 2.534-1.546 3.958-2a18.056 18.056 0 014.459-.802c1.5-.075 3.004.043 4.393.438 1.225.347 2.331.941 3.194 1.75.635 1.53.99 3.205.99 4.963 0 1.601-.247 3.112-.701 4.5a13.029 13.029 0 01-6.665 7.312c-.538.222-1.095.416-1.679.563l-.861.216c1.221-6.495-1.529-13.209-7.088-16.94z"/></g></svg>