<svg xmlns="http://www.w3.org/2000/svg" id="Layer_1" x="0" y="0" version="1.1" viewBox="0 0 50 50" xml:space="preserve"><style>.st1{fill:#00dffc}</style><path fill="#00c8e2" d="M39.2 31l-10.7 3.6 7.4-6.7 3.3 3.1zm6.6-16.3l-.6.6-21 21L10 41.5l-5.9-5.9 6.2-6.2 3.7 3.7c.1.1.3.2.5.2s.4-.1.5-.2c.3-.3.3-.8 0-1l-3.7-3.7 1.1-1.1.8-.8 4.7-1.7.4.3L20 27c.1.1.3.2.5.2s.4-.1.5-.2c.3-.3.3-.8 0-1l-1.7-1.7 26.5-9.6z"/><path d="M22.9 13.4l-8.4 8.4-3.8-3.8 12.2-4.6zm-1.3 10.5l-9.2 3.4 1.3-2.7 4.8-4.9 2.7 3.6.4.6z" class="st1"/><path d="M46.1 14.4l-.2.2-.6.6-25.5 9.4-3.2-2.7 5.7-5.5 3.9 4.6c.1.1-.6-1.3-.4-1.3s-.4 0-.3-.1c.3-.3-.8-1.2-1.1-1.5l-1.7-2.2 5.2-5.3 4.5 4.5c.1.1.3 0 .5 0s-.3-.3-.2-.4c.3-.3.1-.2-.2-.5L30 10.7l4.8-1.8L39 7.3l7.1 7.1z" class="st1"/><path fill="#031326" d="M49 47.4l-3-12.1-.3-.6-8.2-8.2 11.2-11.2c.5-.5.5-1.3 0-1.7L36.6 1.4c-.5-.5-1.3-.5-1.7 0l-12 12-8.4 8.4L4.1 11.4 11.5 4l6.1 5.7c.5.5 1.3.5 1.7 0 .5-.5.4-1.3 0-1.7l-6.9-6.6c-.5-.5-1.2-.4-1.7 0l-9.1 9.1c-.5.5-.5 1.3 0 1.7l11.2 11.2L1.5 34.7c-.2.2-.4.5-.4.9 0 .3.1.6.4.9l12.1 12.1c.2.2.5.4.9.4s.6-.1.9-.4l11.2-11.2 8.2 8.2c.2.2.4.3.6.3l12.1 3h.3c.3 0 .6-.1.9-.4.3-.2.4-.7.3-1.1zM24.2 36.3L14.5 46 4.1 35.6l6.2-6.2 3.7 3.7c.1.1.3.2.5.2s.4-.1.5-.2c.3-.3.3-.8 0-1l-3.7-3.7 1.1-1.1.8-.8 3.2-3.2 1.5 1.5.4.3L20 27c.1.1.3.2.5.2s.4-.1.5-.2c.3-.3.3-.8 0-1l-3.7-3.7 5-5L26 21c.1.1.3.2.5.2s.4-.1.5-.2c.3-.3.3-.7 0-1l-3.7-3.7 5-5L32 15c.1.1.3.2.5.2s.4-.1.5-.2c.3-.3.3-.7 0-1l-3-3.3-.5-.5L35.7 4 39 7.3l7.1 7.1-.2.2-.6.6-21.1 21.1zm18 8.7l-5.9-1.5-8-8 7.4-7.4 2.8 2.8 5.1 5.1 1.4 5.6-2.8 3.4z"/></svg>