<svg xmlns="http://www.w3.org/2000/svg" viewBox="0 0 50 50"><path fill="#afe55d" d="M44.9 4.2v14l-1.9.7-12.3 4.5-6 2.2 4.4-3.2c.1-.1.1-.1.1-.2s0-.1-.1-.2L21 16.1h-.2c-.1 0-.1.1-.1.2V27l-1.8.7L7 32l-1.8.7V14.9l1.8-.7L40.4 2.1l2.2-.8 1.6.7c.4.6.7 1.4.7 2.2z"/><path fill="#c3ff68" d="M44.9 4.2v2l-1.9.6-21.3 7.6-2.7.9-12 4.4-1.8.7V4.2C5.1 3 5.6 2 6.4 1.3l28.5-.2 7.6.2h1c.3.2.5.4.7.7.4.6.7 1.4.7 2.2z"/><path fill="#494949" d="M17.1 37.8c-1.5 0-2.8 1-3.2 2.3h-1.6c-.5 0-.9.4-.9.9s.4.9.9.9h1.6c.4 1.4 1.7 2.3 3.2 2.3 1.8 0 3.3-1.5 3.3-3.3s-1.5-3.1-3.3-3.1zm0 4.7c-.8 0-1.5-.6-1.5-1.4s.7-1.4 1.5-1.4 1.5.6 1.5 1.4-.7 1.4-1.5 1.4zm19.4-2.3h-.6c-.5 0-.9.4-.9.9s.4.9.9.9h.6c.5 0 .9-.4.9-.9s-.4-.9-.9-.9zm-4.3 0h-.6c-.5 0-.9.4-.9.9s.4.9.9.9h.6c.5 0 .9-.4.9-.9s-.4-.9-.9-.9zm-8.5 0H23c-.5 0-.9.4-.9.9s.4.9.9.9h.6c.5 0 .9-.4.9-.9s-.3-.9-.8-.9zm4.2 0h-.6c-.5 0-.9.4-.9.9s.4.9.9.9h.6c.5 0 .9-.4.9-.9s-.3-.9-.9-.9zm2.4-19.7l-8.1-5.8c-.1-.1-.3-.2-.4-.2-.6-.2-1.2-.2-1.8.1-.4.2-.7.5-.9.9-.1.3-.2.6-.2.9V28c0 .8.4 1.5 1.1 1.8.3.2.6.2 1 .2s.8-.1 1.2-.4l8.1-5.9c.2-.1.4-.3.5-.5.2-.3.4-.7.4-1.2-.1-.5-.4-1.1-.9-1.5zm-9.2 7.7c-.1.1-.2 0-.3 0-.1 0-.1-.1-.1-.2V16.3c0-.1 0-.1.1-.2h.2l8.1 5.9c.1.1.1.1.1.2s0 .1-.1.2l-4.4 3.2-3.6 2.6zm15.4 12h-.6c-.5 0-.9.4-.9.9s.4.9.9.9h.6c.5 0 .9-.4.9-.9s-.4-.9-.9-.9zm-4.3 0h-.6c-.5 0-.9.4-.9.9s.4.9.9.9h.6c.5 0 .9-.4.9-.9s-.4-.9-.9-.9zm-1.9-19.7l-8.1-5.8c-.1-.1-.3-.2-.4-.2-.6-.2-1.2-.2-1.8.1-.4.2-.7.5-.9.9-.1.3-.2.6-.2.9V28c0 .8.4 1.5 1.1 1.8.3.2.6.2 1 .2s.8-.1 1.2-.4l8.1-5.9c.2-.1.4-.3.5-.5.2-.3.4-.7.4-1.2-.1-.5-.4-1.1-.9-1.5zm-9.2 7.7c-.1.1-.2 0-.3 0-.1 0-.1-.1-.1-.2V16.3c0-.1 0-.1.1-.2h.2l8.1 5.9c.1.1.1.1.1.2s0 .1-.1.2l-4.4 3.2-3.6 2.6zm6.8 12h-.6c-.5 0-.9.4-.9.9s.4.9.9.9h.6c.5 0 .9-.4.9-.9s-.3-.9-.9-.9zm-4.2 0H23c-.5 0-.9.4-.9.9s.4.9.9.9h.6c.5 0 .9-.4.9-.9s-.3-.9-.8-.9zm-6.6-2.4c-1.5 0-2.8 1-3.2 2.3h-1.6c-.5 0-.9.4-.9.9s.4.9.9.9h1.6c.4 1.4 1.7 2.3 3.2 2.3 1.8 0 3.3-1.5 3.3-3.3s-1.5-3.1-3.3-3.1zm0 4.7c-.8 0-1.5-.6-1.5-1.4s.7-1.4 1.5-1.4 1.5.6 1.5 1.4-.7 1.4-1.5 1.4zm0-4.7c-1.5 0-2.8 1-3.2 2.3h-1.6c-.5 0-.9.4-.9.9s.4.9.9.9h1.6c.4 1.4 1.7 2.3 3.2 2.3 1.8 0 3.3-1.5 3.3-3.3s-1.5-3.1-3.3-3.1zm0 4.7c-.8 0-1.5-.6-1.5-1.4s.7-1.4 1.5-1.4 1.5.6 1.5 1.4-.7 1.4-1.5 1.4zm6.6-2.3H23c-.5 0-.9.4-.9.9s.4.9.9.9h.6c.5 0 .9-.4.9-.9s-.3-.9-.8-.9zm4.2 0h-.6c-.5 0-.9.4-.9.9s.4.9.9.9h.6c.5 0 .9-.4.9-.9s-.3-.9-.9-.9zm2.4-19.7l-8.1-5.8c-.1-.1-.3-.2-.4-.2-.6-.2-1.2-.2-1.8.1-.4.2-.7.5-.9.9-.1.3-.2.6-.2.9V28c0 .8.4 1.5 1.1 1.8.3.2.6.2 1 .2s.8-.1 1.2-.4l8.1-5.9c.2-.1.4-.3.5-.5.2-.3.4-.7.4-1.2-.1-.5-.4-1.1-.9-1.5zm-9.2 7.7c-.1.1-.2 0-.3 0-.1 0-.1-.1-.1-.2V16.3c0-.1 0-.1.1-.2h.2l8.1 5.9c.1.1.1.1.1.2s0 .1-.1.2l-4.4 3.2-3.6 2.6zm11.1 12h-.6c-.5 0-.9.4-.9.9s.4.9.9.9h.6c.5 0 .9-.4.9-.9s-.4-.9-.9-.9zm4.3 0h-.6c-.5 0-.9.4-.9.9s.4.9.9.9h.6c.5 0 .9-.4.9-.9s-.4-.9-.9-.9zm0 0h-.6c-.5 0-.9.4-.9.9s.4.9.9.9h.6c.5 0 .9-.4.9-.9s-.4-.9-.9-.9zm-4.3 0h-.6c-.5 0-.9.4-.9.9s.4.9.9.9h.6c.5 0 .9-.4.9-.9s-.4-.9-.9-.9zm-1.9-19.7l-8.1-5.8c-.1-.1-.3-.2-.4-.2-.6-.2-1.2-.2-1.8.1-.4.2-.7.5-.9.9-.1.3-.2.6-.2.9V28c0 .8.4 1.5 1.1 1.8.3.2.6.2 1 .2s.8-.1 1.2-.4l8.1-5.9c.2-.1.4-.3.5-.5.2-.3.4-.7.4-1.2-.1-.5-.4-1.1-.9-1.5zm-9.2 7.7c-.1.1-.2 0-.3 0-.1 0-.1-.1-.1-.2V16.3c0-.1 0-.1.1-.2h.2l8.1 5.9c.1.1.1.1.1.2s0 .1-.1.2l-4.4 3.2-3.6 2.6zm6.8 12h-.6c-.5 0-.9.4-.9.9s.4.9.9.9h.6c.5 0 .9-.4.9-.9s-.3-.9-.9-.9zm-4.2 0H23c-.5 0-.9.4-.9.9s.4.9.9.9h.6c.5 0 .9-.4.9-.9s-.3-.9-.8-.9zm-6.6-2.4c-1.5 0-2.8 1-3.2 2.3h-1.6c-.5 0-.9.4-.9.9s.4.9.9.9h1.6c.4 1.4 1.7 2.3 3.2 2.3 1.8 0 3.3-1.5 3.3-3.3s-1.5-3.1-3.3-3.1zm0 4.7c-.8 0-1.5-.6-1.5-1.4s.7-1.4 1.5-1.4 1.5.6 1.5 1.4-.7 1.4-1.5 1.4zm0-4.7c-1.5 0-2.8 1-3.2 2.3h-1.6c-.5 0-.9.4-.9.9s.4.9.9.9h1.6c.4 1.4 1.7 2.3 3.2 2.3 1.8 0 3.3-1.5 3.3-3.3s-1.5-3.1-3.3-3.1zm0 4.7c-.8 0-1.5-.6-1.5-1.4s.7-1.4 1.5-1.4 1.5.6 1.5 1.4-.7 1.4-1.5 1.4zm6.6-2.3H23c-.5 0-.9.4-.9.9s.4.9.9.9h.6c.5 0 .9-.4.9-.9s-.3-.9-.8-.9zm4.2 0h-.6c-.5 0-.9.4-.9.9s.4.9.9.9h.6c.5 0 .9-.4.9-.9s-.3-.9-.9-.9zm2.4-19.7l-8.1-5.8c-.1-.1-.3-.2-.4-.2-.6-.2-1.2-.2-1.8.1-.4.2-.7.5-.9.9-.1.3-.2.6-.2.9V28c0 .8.4 1.5 1.1 1.8.3.2.6.2 1 .2s.8-.1 1.2-.4l8.1-5.9c.2-.1.4-.3.5-.5.2-.3.4-.7.4-1.2-.1-.5-.4-1.1-.9-1.5zm-9.2 7.7c-.1.1-.2 0-.3 0-.1 0-.1-.1-.1-.2V16.3c0-.1 0-.1.1-.2h.2l8.1 5.9c.1.1.1.1.1.2s0 .1-.1.2l-4.4 3.2-3.6 2.6zm11.1 12h-.6c-.5 0-.9.4-.9.9s.4.9.9.9h.6c.5 0 .9-.4.9-.9s-.4-.9-.9-.9zm4.3 0h-.6c-.5 0-.9.4-.9.9s.4.9.9.9h.6c.5 0 .9-.4.9-.9s-.4-.9-.9-.9zm0 0h-.6c-.5 0-.9.4-.9.9s.4.9.9.9h.6c.5 0 .9-.4.9-.9s-.4-.9-.9-.9zm-4.3 0h-.6c-.5 0-.9.4-.9.9s.4.9.9.9h.6c.5 0 .9-.4.9-.9s-.4-.9-.9-.9zm-1.9-19.7l-8.1-5.8c-.1-.1-.3-.2-.4-.2-.6-.2-1.2-.2-1.8.1-.4.2-.7.5-.9.9-.1.3-.2.6-.2.9V28c0 .8.4 1.5 1.1 1.8.3.2.6.2 1 .2s.8-.1 1.2-.4l8.1-5.9c.2-.1.4-.3.5-.5.2-.3.4-.7.4-1.2-.1-.5-.4-1.1-.9-1.5zm-9.2 7.7c-.1.1-.2 0-.3 0-.1 0-.1-.1-.1-.2V16.3c0-.1 0-.1.1-.2h.2l8.1 5.9c.1.1.1.1.1.2s0 .1-.1.2l-4.4 3.2-3.6 2.6zm6.8 12h-.6c-.5 0-.9.4-.9.9s.4.9.9.9h.6c.5 0 .9-.4.9-.9s-.3-.9-.9-.9zm-4.2 0H23c-.5 0-.9.4-.9.9s.4.9.9.9h.6c.5 0 .9-.4.9-.9s-.3-.9-.8-.9zm-6.6-2.4c-1.5 0-2.8 1-3.2 2.3h-1.6c-.5 0-.9.4-.9.9s.4.9.9.9h1.6c.4 1.4 1.7 2.3 3.2 2.3 1.8 0 3.3-1.5 3.3-3.3s-1.5-3.1-3.3-3.1zm0 4.7c-.8 0-1.5-.6-1.5-1.4s.7-1.4 1.5-1.4 1.5.6 1.5 1.4-.7 1.4-1.5 1.4zm0-4.7c-1.5 0-2.8 1-3.2 2.3h-1.6c-.5 0-.9.4-.9.9s.4.9.9.9h1.6c.4 1.4 1.7 2.3 3.2 2.3 1.8 0 3.3-1.5 3.3-3.3s-1.5-3.1-3.3-3.1zm0 4.7c-.8 0-1.5-.6-1.5-1.4s.7-1.4 1.5-1.4 1.5.6 1.5 1.4-.7 1.4-1.5 1.4zm6.6-2.3H23c-.5 0-.9.4-.9.9s.4.9.9.9h.6c.5 0 .9-.4.9-.9s-.3-.9-.8-.9zm4.2 0h-.6c-.5 0-.9.4-.9.9s.4.9.9.9h.6c.5 0 .9-.4.9-.9s-.3-.9-.9-.9zm2.4-19.7l-8.1-5.8c-.1-.1-.3-.2-.4-.2-.6-.2-1.2-.2-1.8.1-.4.2-.7.5-.9.9-.1.3-.2.6-.2.9V28c0 .8.4 1.5 1.1 1.8.3.2.6.2 1 .2s.8-.1 1.2-.4l8.1-5.9c.2-.1.4-.3.5-.5.2-.3.4-.7.4-1.2-.1-.5-.4-1.1-.9-1.5zm-9.2 7.7c-.1.1-.2 0-.3 0-.1 0-.1-.1-.1-.2V16.3c0-.1 0-.1.1-.2h.2l8.1 5.9c.1.1.1.1.1.2s0 .1-.1.2l-4.4 3.2-3.6 2.6zm11.1 12h-.6c-.5 0-.9.4-.9.9s.4.9.9.9h.6c.5 0 .9-.4.9-.9s-.4-.9-.9-.9zm4.3 0h-.6c-.5 0-.9.4-.9.9s.4.9.9.9h.6c.5 0 .9-.4.9-.9s-.4-.9-.9-.9zm0 0h-.6c-.5 0-.9.4-.9.9s.4.9.9.9h.6c.5 0 .9-.4.9-.9s-.4-.9-.9-.9zm-4.3 0h-.6c-.5 0-.9.4-.9.9s.4.9.9.9h.6c.5 0 .9-.4.9-.9s-.4-.9-.9-.9zm-1.1-18c0-.7-.3-1.3-.9-1.7l-8.1-5.8c-.1-.1-.3-.2-.4-.2-.6-.2-1.2-.2-1.8.1-.4.2-.7.5-.9.9-.1.3-.2.6-.2.9V28c0 .8.4 1.5 1.1 1.8.3.2.6.2 1 .2s.8-.1 1.2-.4l8.1-5.9c.2-.1.4-.3.5-.5.3-.2.4-.6.4-1zm-10 6c-.1.1-.2 0-.3 0-.1 0-.1-.1-.1-.2V16.3c0-.1 0-.1.1-.2h.2l8.1 5.9c.1.1.1.1.1.2s0 .1-.1.2l-4.4 3.2-3.6 2.6zm6.8 12h-.6c-.5 0-.9.4-.9.9s.4.9.9.9h.6c.5 0 .9-.4.9-.9s-.3-.9-.9-.9zm-4.2 0H23c-.5 0-.9.4-.9.9s.4.9.9.9h.6c.5 0 .9-.4.9-.9s-.3-.9-.8-.9zm-6.6-2.4c-1.5 0-2.8 1-3.2 2.3h-1.6c-.5 0-.9.4-.9.9s.4.9.9.9h1.6c.4 1.4 1.7 2.3 3.2 2.3 1.8 0 3.3-1.5 3.3-3.3s-1.5-3.1-3.3-3.1zm0 4.7c-.8 0-1.5-.6-1.5-1.4s.7-1.4 1.5-1.4 1.5.6 1.5 1.4-.7 1.4-1.5 1.4zM44.2 2c-.2-.2-.4-.5-.6-.7C42.9.6 41.9.2 40.9.2H9.1c-1 0-2 .4-2.7 1-.8.8-1.3 1.8-1.3 3v41.6c0 2.2 1.8 4 4 4h31.8c2.2 0 4-1.8 4-4V4.2c0-.8-.3-1.6-.7-2.2zM43 45.8c0 1.2-1 2.1-2.1 2.1H9.1c-1.2 0-2.1-1-2.1-2.1V4.2C7 3 8 2.1 9.1 2.1h31.8c1.2 0 2.1 1 2.1 2.1v41.6zm-6.5-5.6h-.6c-.5 0-.9.4-.9.9s.4.9.9.9h.6c.5 0 .9-.4.9-.9s-.4-.9-.9-.9zm-4.3 0h-.6c-.5 0-.9.4-.9.9s.4.9.9.9h.6c.5 0 .9-.4.9-.9s-.4-.9-.9-.9zm-1.1-18c0-.7-.3-1.3-.9-1.7l-8.1-5.8c-.1-.1-.3-.2-.4-.2-.6-.2-1.2-.2-1.8.1-.4.2-.7.5-.9.9-.1.3-.2.6-.2.9V28c0 .8.4 1.5 1.1 1.8.3.2.6.2 1 .2s.8-.1 1.2-.4l8.1-5.9c.2-.1.4-.3.5-.5.3-.2.4-.6.4-1zm-10 6c-.1.1-.2 0-.3 0-.1 0-.1-.1-.1-.2V16.3c0-.1 0-.1.1-.2h.2l8.1 5.9c.1.1.1.1.1.2s0 .1-.1.2l-4.4 3.2-3.6 2.6zm6.8 12h-.6c-.5 0-.9.4-.9.9s.4.9.9.9h.6c.5 0 .9-.4.9-.9s-.3-.9-.9-.9zm-4.2 0H23c-.5 0-.9.4-.9.9s.4.9.9.9h.6c.5 0 .9-.4.9-.9s-.3-.9-.8-.9zm-6.6-2.4c-1.5 0-2.8 1-3.2 2.3h-1.6c-.5 0-.9.4-.9.9s.4.9.9.9h1.6c.4 1.4 1.7 2.3 3.2 2.3 1.8 0 3.3-1.5 3.3-3.3s-1.5-3.1-3.3-3.1zm0 4.7c-.8 0-1.5-.6-1.5-1.4s.7-1.4 1.5-1.4 1.5.6 1.5 1.4-.7 1.4-1.5 1.4zm0-4.7c-1.5 0-2.8 1-3.2 2.3h-1.6c-.5 0-.9.4-.9.9s.4.9.9.9h1.6c.4 1.4 1.7 2.3 3.2 2.3 1.8 0 3.3-1.5 3.3-3.3s-1.5-3.1-3.3-3.1zm0 4.7c-.8 0-1.5-.6-1.5-1.4s.7-1.4 1.5-1.4 1.5.6 1.5 1.4-.7 1.4-1.5 1.4zm6.6-2.3H23c-.5 0-.9.4-.9.9s.4.9.9.9h.6c.5 0 .9-.4.9-.9s-.3-.9-.8-.9zm4.2 0h-.6c-.5 0-.9.4-.9.9s.4.9.9.9h.6c.5 0 .9-.4.9-.9s-.3-.9-.9-.9zm2.4-19.7l-8.1-5.8c-.1-.1-.3-.2-.4-.2-.6-.2-1.2-.2-1.8.1-.4.2-.7.5-.9.9-.1.3-.2.6-.2.9V28c0 .8.4 1.5 1.1 1.8.3.2.6.2 1 .2s.8-.1 1.2-.4l8.1-5.9c.2-.1.4-.3.5-.5.2-.3.4-.7.4-1.2-.1-.5-.4-1.1-.9-1.5zm-9.2 7.7c-.1.1-.2 0-.3 0-.1 0-.1-.1-.1-.2V16.3c0-.1 0-.1.1-.2h.2l8.1 5.9c.1.1.1.1.1.2s0 .1-.1.2l-4.4 3.2-3.6 2.6zm11.1 12h-.6c-.5 0-.9.4-.9.9s.4.9.9.9h.6c.5 0 .9-.4.9-.9s-.4-.9-.9-.9zm4.3 0h-.6c-.5 0-.9.4-.9.9s.4.9.9.9h.6c.5 0 .9-.4.9-.9s-.4-.9-.9-.9zm0 0h-.6c-.5 0-.9.4-.9.9s.4.9.9.9h.6c.5 0 .9-.4.9-.9s-.4-.9-.9-.9zm-4.3 0h-.6c-.5 0-.9.4-.9.9s.4.9.9.9h.6c.5 0 .9-.4.9-.9s-.4-.9-.9-.9zm-1.9-19.7l-8.1-5.8c-.1-.1-.3-.2-.4-.2-.6-.2-1.2-.2-1.8.1-.4.2-.7.5-.9.9-.1.3-.2.6-.2.9V28c0 .8.4 1.5 1.1 1.8.3.2.6.2 1 .2s.8-.1 1.2-.4l8.1-5.9c.2-.1.4-.3.5-.5.2-.3.4-.7.4-1.2-.1-.5-.4-1.1-.9-1.5zm-9.2 7.7c-.1.1-.2 0-.3 0-.1 0-.1-.1-.1-.2V16.3c0-.1 0-.1.1-.2h.2l8.1 5.9c.1.1.1.1.1.2s0 .1-.1.2l-4.4 3.2-3.6 2.6zm6.8 12h-.6c-.5 0-.9.4-.9.9s.4.9.9.9h.6c.5 0 .9-.4.9-.9s-.3-.9-.9-.9zm-4.2 0H23c-.5 0-.9.4-.9.9s.4.9.9.9h.6c.5 0 .9-.4.9-.9s-.3-.9-.8-.9zm-6.6-2.4c-1.5 0-2.8 1-3.2 2.3h-1.6c-.5 0-.9.4-.9.9s.4.9.9.9h1.6c.4 1.4 1.7 2.3 3.2 2.3 1.8 0 3.3-1.5 3.3-3.3s-1.5-3.1-3.3-3.1zm0 4.7c-.8 0-1.5-.6-1.5-1.4s.7-1.4 1.5-1.4 1.5.6 1.5 1.4-.7 1.4-1.5 1.4zm0-4.7c-1.5 0-2.8 1-3.2 2.3h-1.6c-.5 0-.9.4-.9.9s.4.9.9.9h1.6c.4 1.4 1.7 2.3 3.2 2.3 1.8 0 3.3-1.5 3.3-3.3s-1.5-3.1-3.3-3.1zm0 4.7c-.8 0-1.5-.6-1.5-1.4s.7-1.4 1.5-1.4 1.5.6 1.5 1.4-.7 1.4-1.5 1.4zm6.6-2.3H23c-.5 0-.9.4-.9.9s.4.9.9.9h.6c.5 0 .9-.4.9-.9s-.3-.9-.8-.9zm4.2 0h-.6c-.5 0-.9.4-.9.9s.4.9.9.9h.6c.5 0 .9-.4.9-.9s-.3-.9-.9-.9zm2.4-19.7l-8.1-5.8c-.1-.1-.3-.2-.4-.2-.6-.2-1.2-.2-1.8.1-.4.2-.7.5-.9.9-.1.3-.2.6-.2.9V28c0 .8.4 1.5 1.1 1.8.3.2.6.2 1 .2s.8-.1 1.2-.4l8.1-5.9c.2-.1.4-.3.5-.5.2-.3.4-.7.4-1.2-.1-.5-.4-1.1-.9-1.5zm-9.2 7.7c-.1.1-.2 0-.3 0-.1 0-.1-.1-.1-.2V16.3c0-.1 0-.1.1-.2h.2l8.1 5.9c.1.1.1.1.1.2s0 .1-.1.2l-4.4 3.2-3.6 2.6zm11.1 12h-.6c-.5 0-.9.4-.9.9s.4.9.9.9h.6c.5 0 .9-.4.9-.9s-.4-.9-.9-.9zm4.3 0h-.6c-.5 0-.9.4-.9.9s.4.9.9.9h.6c.5 0 .9-.4.9-.9s-.4-.9-.9-.9zm0 0h-.6c-.5 0-.9.4-.9.9s.4.9.9.9h.6c.5 0 .9-.4.9-.9s-.4-.9-.9-.9zm-4.3 0h-.6c-.5 0-.9.4-.9.9s.4.9.9.9h.6c.5 0 .9-.4.9-.9s-.4-.9-.9-.9zm-1.9-19.7l-8.1-5.8c-.1-.1-.3-.2-.4-.2-.6-.2-1.2-.2-1.8.1-.4.2-.7.5-.9.9-.1.3-.2.6-.2.9V28c0 .8.4 1.5 1.1 1.8.3.2.6.2 1 .2s.8-.1 1.2-.4l8.1-5.9c.2-.1.4-.3.5-.5.2-.3.4-.7.4-1.2-.1-.5-.4-1.1-.9-1.5zm-9.2 7.7c-.1.1-.2 0-.3 0-.1 0-.1-.1-.1-.2V16.3c0-.1 0-.1.1-.2h.2l8.1 5.9c.1.1.1.1.1.2s0 .1-.1.2l-4.4 3.2-3.6 2.6zm6.8 12h-.6c-.5 0-.9.4-.9.9s.4.9.9.9h.6c.5 0 .9-.4.9-.9s-.3-.9-.9-.9zm-4.2 0H23c-.5 0-.9.4-.9.9s.4.9.9.9h.6c.5 0 .9-.4.9-.9s-.3-.9-.8-.9zm-6.6-2.4c-1.5 0-2.8 1-3.2 2.3h-1.6c-.5 0-.9.4-.9.9s.4.9.9.9h1.6c.4 1.4 1.7 2.3 3.2 2.3 1.8 0 3.3-1.5 3.3-3.3s-1.5-3.1-3.3-3.1zm0 4.7c-.8 0-1.5-.6-1.5-1.4s.7-1.4 1.5-1.4 1.5.6 1.5 1.4-.7 1.4-1.5 1.4zm0-4.7c-1.5 0-2.8 1-3.2 2.3h-1.6c-.5 0-.9.4-.9.9s.4.9.9.9h1.6c.4 1.4 1.7 2.3 3.2 2.3 1.8 0 3.3-1.5 3.3-3.3s-1.5-3.1-3.3-3.1zm0 4.7c-.8 0-1.5-.6-1.5-1.4s.7-1.4 1.5-1.4 1.5.6 1.5 1.4-.7 1.4-1.5 1.4zm6.6-2.3H23c-.5 0-.9.4-.9.9s.4.9.9.9h.6c.5 0 .9-.4.9-.9s-.3-.9-.8-.9zm4.2 0h-.6c-.5 0-.9.4-.9.9s.4.9.9.9h.6c.5 0 .9-.4.9-.9s-.3-.9-.9-.9zm2.4-19.7l-8.1-5.8c-.1-.1-.3-.2-.4-.2-.6-.2-1.2-.2-1.8.1-.4.2-.7.5-.9.9-.1.3-.2.6-.2.9V28c0 .8.4 1.5 1.1 1.8.3.2.6.2 1 .2s.8-.1 1.2-.4l8.1-5.9c.2-.1.4-.3.5-.5.2-.3.4-.7.4-1.2-.1-.5-.4-1.1-.9-1.5zm-9.2 7.7c-.1.1-.2 0-.3 0-.1 0-.1-.1-.1-.2V16.3c0-.1 0-.1.1-.2h.2l8.1 5.9c.1.1.1.1.1.2s0 .1-.1.2l-4.4 3.2-3.6 2.6zm11.1 12h-.6c-.5 0-.9.4-.9.9s.4.9.9.9h.6c.5 0 .9-.4.9-.9s-.4-.9-.9-.9zm4.3 0h-.6c-.5 0-.9.4-.9.9s.4.9.9.9h.6c.5 0 .9-.4.9-.9s-.4-.9-.9-.9zm0 0h-.6c-.5 0-.9.4-.9.9s.4.9.9.9h.6c.5 0 .9-.4.9-.9s-.4-.9-.9-.9zm-4.3 0h-.6c-.5 0-.9.4-.9.9s.4.9.9.9h.6c.5 0 .9-.4.9-.9s-.4-.9-.9-.9zm-1.9-19.7l-8.1-5.8c-.1-.1-.3-.2-.4-.2-.6-.2-1.2-.2-1.8.1-.4.2-.7.5-.9.9-.1.3-.2.6-.2.9V28c0 .8.4 1.5 1.1 1.8.3.2.6.2 1 .2s.8-.1 1.2-.4l8.1-5.9c.2-.1.4-.3.5-.5.2-.3.4-.7.4-1.2-.1-.5-.4-1.1-.9-1.5zm-9.2 7.7c-.1.1-.2 0-.3 0-.1 0-.1-.1-.1-.2V16.3c0-.1 0-.1.1-.2h.2l8.1 5.9c.1.1.1.1.1.2s0 .1-.1.2l-4.4 3.2-3.6 2.6zm6.8 12h-.6c-.5 0-.9.4-.9.9s.4.9.9.9h.6c.5 0 .9-.4.9-.9s-.3-.9-.9-.9zm-4.2 0H23c-.5 0-.9.4-.9.9s.4.9.9.9h.6c.5 0 .9-.4.9-.9s-.3-.9-.8-.9zm-6.6-2.4c-1.5 0-2.8 1-3.2 2.3h-1.6c-.5 0-.9.4-.9.9s.4.9.9.9h1.6c.4 1.4 1.7 2.3 3.2 2.3 1.8 0 3.3-1.5 3.3-3.3s-1.5-3.1-3.3-3.1zm0 4.7c-.8 0-1.5-.6-1.5-1.4s.7-1.4 1.5-1.4 1.5.6 1.5 1.4-.7 1.4-1.5 1.4z"/></svg>