<svg xmlns="http://www.w3.org/2000/svg" id="Layer_1" x="0" y="0" version="1.1" viewBox="0 0 50 50" xml:space="preserve"><style>.st2{fill:#031326}</style><switch><g><path fill="#d4ff73" d="M43.3 32l.1 2.6-30.7 8.3-.2-6.5-5.8-.5.1-4.5.5-1.8 19.6.5 15.2-.4z"/><path fill="#bee367" d="M37.1 36.1l-.5 7.2-14.1 5.1-9.3-1-.6-5.3v-2.4l29-10.6 1.3 1.1.1 4.8z"/><path d="M43 28.4H25.9v-3.6h.3c4.9 0 8.9-4 8.9-8.9v-3.1c0-.7-.5-1.2-1.2-1.2h-1.5c-2.5 0-4.8 1-6.4 2.7V2.1c0-.7-.6-1.2-1.2-1.2s-1.2.6-1.2 1.2v4.5C21.8 5 19.5 3.9 17 3.9h-1.5c-.7 0-1.2.6-1.2 1.2v3.1c0 4.9 4 8.9 8.9 8.9h.3v11.3H6.2c-.7 0-1.2.6-1.2 1.3v6.1c0 .7.5 1.2 1.2 1.2h4.9v11c0 .7.6 1.2 1.2 1.2h9.1c.7 0 1.2-.6 1.2-1.2s-.6-1.2-1.2-1.2h-7.9V37h22v9.8h-4.8c-.7 0-1.2.6-1.2 1.2s.6 1.2 1.2 1.2h6.1c.7 0 1.2-.6 1.2-1.2V37h5c.7 0 1.2-.6 1.2-1.2v-6.1c0-.7-.5-1.3-1.2-1.3zm-17.1-7.9c0-3.5 2.9-6.4 6.4-6.4h.3v1.8c0 3.5-2.9 6.4-6.4 6.4h-.3v-1.8zm-2.8-5.8c-3.5 0-6.4-2.9-6.4-6.4V6.4h.3c3.5 0 6.4 2.9 6.4 6.4v1.8l-.3.1zm18.6 19.8H7.5v-3.6h34.2v3.6z" class="st2"/><path d="M32.8 44.3H22.1c-.4 0-.8-.3-.8-.8s.3-.8.8-.8h10.6c.4 0 .8.3.8.8s-.3.8-.7.8zm-7.4-3.2h-8.6c-.4 0-.8-.3-.8-.8s.3-.8.8-.8h8.6c.4 0 .8.3.8.8s-.4.8-.8.8z" class="st2"/></g></switch></svg>