<svg xmlns="http://www.w3.org/2000/svg" id="Layer_1" x="0" y="0" version="1.1" viewBox="0 0 50 50" xml:space="preserve"><style>.st2,.st4{fill:#031326}</style><path fill="#e097fb" d="M38.9 7.4c-1.1-2.3-2.2-3.9-3.3-4.7l-.6-.5-.5.6c-1 1.3-1.9 2.3-2.5 3.2-.8 1.1-1.5 2.2-2.1 3.2-1.2 2.2-2 4.3-2.3 6.5-.7-.1-1.3-.1-2-.1-1.1 0-2.1.2-3.1.4-.4-2.2-1.3-4.4-2.7-6.5-.6-1-1.4-2-2.3-3-.7-.8-1.6-1.8-2.7-3l-.5-.5-.6.5c-1.1.9-2.1 2.6-3 4.9-.9 2.2-1.6 4.6-2.1 7.3s-.8 5.1-.7 7.3c0 1.1.1 2.1.3 2.9l32.9-12c-.5-2.4-1.3-4.6-2.2-6.5z"/><path fill="#ce87ea" d="M43.8 31c-.5-1.7-1.2-3.4-2-5.1.6-1.1.9-2.8.8-5.1-.1-2.2-.5-4.6-1.1-7.3-.1-.2-.1-.5-.2-.7l-32.9 12c.1.7.3 1.3.6 1.7-1.1 2.1-1.8 4.2-2.2 6.3l-3 2.1 1.4 1.7L4 37.8l.6.7c1.7 2 2.9 3.5 3.8 4.3.3.3.6.6.9.8L44 31h-.2z"/><path d="M30.2 17.9h-.1l.4-.9h.1z" class="st2"/><g transform="translate(-149.95 -236.55)"><path id="mc4_shape66_0_Layer0_0_MEMBER_1_MEMBER_6_FILL_1_" d="M182 278.2c-1.2 0-2.2-.4-3.1-1.3-.9-.9-1.4-2-1.4-3.2s.4-2.4 1.2-3.3c.9-.9 1.9-1.4 3.2-1.5 1.2 0 2.3.4 3.2 1.3s1.4 2 1.4 3.2-.4 2.4-1.2 3.3c-.9.9-1.9 1.4-3.3 1.5.1 0 .1 0 0 0zm.1-8.5h-.1c-1 0-1.9.4-2.6 1.2-.7.8-1.1 1.7-1 2.8s.4 2 1.2 2.7 1.6 1.1 2.7 1.1c1 0 1.9-.4 2.6-1.2.7-.8 1.1-1.7 1-2.8 0-1.1-.4-2-1.2-2.7-.8-.8-1.7-1.1-2.6-1.1z" class="st2"/></g><g transform="translate(-149.95 -236.55)"><path id="mc4_shape66_0_Layer0_0_MEMBER_1_MEMBER_7_FILL_1_" d="M161.5 278.8c-1.1 0-2-.4-2.8-1.2-.8-.9-1.3-1.9-1.3-3.1s.3-2.3 1.1-3.2c.8-.9 1.8-1.4 2.9-1.4 1.1 0 2.1.4 3 1.2.8.9 1.3 1.9 1.3 3.1s-.3 2.3-1.1 3.2c-.8.9-1.8 1.4-2.9 1.4h-.2zm0-8.3h-.1c-.9 0-1.7.4-2.3 1.2-.7.8-1 1.7-.9 2.7 0 1 .4 1.9 1.1 2.6.7.7 1.5 1 2.4 1s1.7-.4 2.4-1.2c.7-.8 1-1.7.9-2.7 0-1-.4-1.9-1.1-2.6-.8-.6-1.5-1-2.4-1z" class="st2"/></g><path d="M33.6 35c-.6-.6-1.4-.9-2.2-.9-.9 0-1.6.4-2.2 1s-.9 1.4-.8 2.3c0 .9.4 1.6 1 2.2.6.6 1.4.9 2.2.9.9 0 1.6-.4 2.2-1 .6-.6.9-1.4.9-2.3-.1-.9-.5-1.6-1.1-2.2zm-2.1 2.1c-.3.3-.6.4-1 .5-.4 0-.7-.1-1-.4-.3-.3-.4-.6-.4-1s.1-.8.4-1c.3-.3.6-.5 1-.5s.7.1 1 .4c.3.3.4.6.4 1s-.1.7-.4 1zm2 2.2c-.1.2-.3.3-.6.3-.2 0-.4-.1-.6-.2-.2-.2-.2-.3-.3-.6 0-.2.1-.4.2-.6.1-.2.3-.3.6-.3.2 0 .4.1.6.2.2.2.2.3.3.6 0 .3 0 .5-.2.6zM13.7 35c-.6-.6-1.4-.9-2.2-.9-.9 0-1.6.4-2.2 1-.6.6-.9 1.4-.8 2.3 0 .9.4 1.6 1 2.2.6.6 1.4.9 2.2.9.9 0 1.6-.4 2.2-1 .6-.6.9-1.4.9-2.3-.2-.9-.5-1.6-1.1-2.2zm-2.1 2.1c-.3.3-.6.4-1 .5-.4 0-.7-.1-1-.4-.3-.3-.4-.6-.4-1s.1-.8.4-1c.3-.3.6-.5 1-.5s.7.1 1 .4c.3.3.4.6.4 1s-.2.7-.4 1zm2 2.2c-.1.2-.3.3-.6.3-.2 0-.4-.1-.6-.2-.2-.2-.2-.3-.3-.6 0-.2.1-.4.2-.6.1-.2.3-.3.6-.3.2 0 .4.1.6.2.2.2.2.3.3.6 0 .3-.1.5-.2.6z" class="st4"/><g transform="translate(-149.95 -236.55)"><path id="mc4_shape66_0_Layer0_0_MEMBER_1_MEMBER_9_FILL_1_" d="M181.8 264.8c-.6-.1-1.3 0-2.1.2s-1.4.6-1.8 1.1-.6.9-.5 1.3.5.6 1.1.7 1.3 0 2.1-.2 1.4-.6 1.8-1.1c.5-.5.6-.9.5-1.3-.1-.3-.5-.6-1.1-.7z" class="st4"/></g><g transform="translate(-149.95 -236.55)"><path id="mc4_shape66_0_Layer0_0_MEMBER_1_MEMBER_10_FILL_1_" d="M164.8 266.5c-.5-.4-1.1-.7-1.9-.9-.8-.2-1.5-.2-2.1-.1s-1 .4-1.1.8.1.8.6 1.2c.5.4 1.1.7 1.9.9.8.2 1.5.2 2.1.1s1-.4 1.1-.8c0-.3-.2-.8-.6-1.2z" class="st4"/></g><path d="M21 39.3s0 .1 0 0c-.1-.1-.2-.1-.3-.2l-.1-.1h-.1c-.1-.1-.2-.1-.4-.2h-.2c-.1 0-.2 0-.3-.1-.3 0-.5-.1-.8-.1-.7 0-1.2.2-1.7.4-.4.3-.6.5-.7.9v.1c0 .1 0 .3.1.4l.3.3c.1.1.2.1.3.2.5.2 1.1.4 1.7.3.7 0 1.2-.2 1.7-.4s.7-.6.7-1c.1-.1 0-.3-.2-.5zM38.4 23v-.1h-.3l.1-.1h.2-.2.2c-.1-1.8-.3-3.9-.7-6.2-.7-4-1.6-6.7-2.6-8.3l-.4-.6-.4.5c-1.3 1.6-2.4 3.4-3.1 5.2-.5 1.1-.9 2.5-1.3 4.3l.5.1v.1c.4.1.7.3 1.1.5 1.7.9 3.4 2.1 4.9 3.7.3.4.7.7 1 1.1l.1.2.5-.4h.4zM37 21.4c-1.6-1.7-3.4-3-5.2-3.9-.3-.1-.5-.2-.8-.4.3-1.3.7-2.4 1.1-3.3.6-1.6 1.5-3 2.5-4.4.8 1.5 1.5 4 2.1 7.3.3 1.8.5 3.5.6 5-.1 0-.2-.1-.3-.3z" class="st4"/><path d="M18.8 42.9c-.2 0-.4-.2-.4-.4v-1.4c0-.2.2-.4.4-.4s.4.2.4.4v1.4c0 .2-.1.4-.4.4z" class="st2"/><path d="M17.5 43.6c-.1 0-.3-.1-.3-.2-.1-.2 0-.4.2-.5l1.3-.6c.2-.1.4 0 .5.2s0 .4-.2.5l-1.3.6h-.2z" class="st2"/><path d="M20.9 43.7h-.1l-2.1-.9c-.2-.1-.3-.3-.2-.5.1-.2.3-.3.5-.2l2.1.9c.2.1.3.3.2.5-.1.1-.2.2-.4.2z" class="st2"/><path d="M45.4 31.1l-.2-.1c-.4-1.4-1-2.8-1.7-4.3.5-1.3.7-2.9.7-5.1-.1-2.3-.5-4.8-1.2-7.5s-1.6-5.2-2.6-7.4c-1.2-2.5-2.4-4.2-3.7-5.2L35.2.3 34 1.8c-1 1.3-1.9 2.3-2.5 3.2-.9 1.2-1.6 2.3-2.2 3.3-1.1 1.9-1.8 3.8-2.2 5.8h-1c-.7 0-1.4.1-2.1.2-.5-2-1.4-3.9-2.6-5.7-.6-1-1.4-2-2.4-3.2-.7-.8-1.6-1.8-2.7-3L14.9 1l-1.5 1.3c-1.2 1.1-2.3 2.8-3.3 5.4-.9 2.3-1.6 4.8-2.2 7.6-.5 2.8-.8 5.3-.7 7.6 0 1.9.3 3.4.8 4.6-1 1.7-1.6 3.6-2 5.5l-3.7 2.6 1.5 1.8-1.2 1.2L4 40.2c1.7 2.1 3 3.5 3.8 4.4 1.4 1.4 2.8 2.5 4.2 3.2 1.6.9 3.5 1.4 5.6 1.7 1 .1 2 .2 3.2.2 1.4 0 2.8-.1 4.4-.2 3.2-.3 5.8-.7 7.7-1.1 2.2-.4 4.1-1 5.7-1.8 1.6-.7 3.2-1.7 4.9-2.9.5-.4.7-1.2.2-1.8-.4-.6-1.2-.7-1.8-.2-1.5 1.1-2.9 2-4.4 2.6-1.5.7-3.2 1.2-5.2 1.6-1.8.4-4.3.7-7.4 1.1-2.8.3-5.1.3-7.1.1-1.8-.2-3.4-.7-4.7-1.4-.9-.5-1.9-1.1-2.8-2 .2.1.3.1.5.1s.5.1.7.1c1.5 0 2.8-.9 4-2.6 1.4-2 2.3-5.1 2.9-9.1l.5.7 1.2-1.5 1.8 1.2 1-1c1.2 4.3 2.8 7.5 4.8 9.4 1.9 1.8 4.1 2.5 6.5 2 2-.4 4.1-1.6 6.1-3.5 1.6-1.5 2.9-3.3 3.9-5.2.1-.2 0-.6-.2-.7-.2-.1-.6 0-.7.2-.9 1.8-2.2 3.5-3.7 4.9-1.8 1.8-3.7 2.9-5.6 3.2-2.1.4-3.9-.1-5.6-1.7-2-1.9-3.6-5.2-4.7-9.7l-.2-.8-1.7 1.6L20 30l-1 1.2-1.3-1.7-.1 1.3c-.5 4.5-1.4 7.8-2.9 9.9-1.1 1.6-2.3 2.3-3.7 2.1-.6-.1-1.1-.4-1.6-.8s-.9-1-1.2-1.7c-.7-1.6-.8-3.2-.1-4.9.1-.2 0-.5-.3-.6l.4-.3.1-.5c.4-2 1.1-4 2.1-6l.1-.1c1-1.8 2.2-3.5 3.6-5 1.5-1.6 3.2-3 5-4 .2-.1.3-.2.5-.3 2.1-1.1 4.3-1.7 6.5-1.7.9 0 1.9.1 2.9.3l.1-.4.1-.6.1-.6c.3-2 1-4.1 2.1-6 .5-.9 1.2-2 2-3.1.6-.7 1.3-1.7 2.1-2.7.8.8 1.7 2.1 2.6 4 1 2 1.8 4.4 2.5 7 .6 2.6 1 4.9 1.1 7 .1 2.6-.3 3.8-.6 4.4l-.3.6.3.6c.9 1.6 1.5 3.2 1.9 4.8l.1.5 1 .6c.6.4 1.4.2 1.7-.4.3-.6.2-1.4-.4-1.8zm-38.8 7c0 .7.2 1.3.4 1.9-.3-.4-.7-.8-1.1-1.3l.7-.6zm.1-1.2L6 36l1-.7c-.1.5-.3 1.1-.3 1.6zM18.6 18c-1.9 1-3.6 2.4-5.3 4.1-.7.7-1.4 1.5-2 2.4-.1-2.5.1-5.5.7-9.1.5-3.7 1.1-6.2 1.8-7.6.9 1.1 2 3 3.3 5.6.7 1.5 1.3 2.9 1.8 4.2v.1s0 .1.1.1c-.1.1-.3.2-.4.2zm1.2-.5v-.2c-.4-1.3-1-2.7-1.8-4.3-1.5-3.2-2.8-5.3-3.9-6.4l-.4-.4-.3.5c-.8 1.4-1.6 4.2-2.2 8.6-.6 3.9-.8 7.2-.6 9.8v.8c-.1.2-.2.3-.3.5-.3-.9-.5-2.1-.6-3.6 0-2.1.2-4.5.7-7.1s1.2-5 2-7.1c.8-1.9 1.5-3.3 2.3-4.1.9 1 1.7 1.9 2.3 2.6.9 1 1.6 2 2.2 2.9 1.3 2 2.1 4 2.5 6l.1.7c-.6.2-1.3.4-2 .8z" class="st4"/></svg>