<svg xmlns="http://www.w3.org/2000/svg" id="Layer_1" x="0" y="0" version="1.1" viewBox="0 0 50 50" xml:space="preserve"><style>.st2{fill:#494949}</style><path fill="#00c8e2" d="M47.1 18.7l-9.7 3.5-4.3 1.6-11.3 4.1-9.1 3.3-.8.3v-.7c-.2-.2-.5-.3-.7-.5-.2-.2-.4-.3-.6-.5l-.1-.1-.6-.6-.6-.6c-.3-.2-.6-.5-.8-.8-.1-.2-.2-.3-.4-.5-.1-.2-.3-.5-.5-.7-.1-.2-.3-.4-.4-.6-.2-.3-.3-.6-.5-.9-.1-.2-.2-.5-.3-.7l-.3-.9c-.1-.4-.2-.7-.2-1v-.1c-.1-.3-.1-.5-.2-.8-.1-.3-.1-.6-.2-.9 0-.3-.1-.5-.1-.8v-1.1c0-.6 0-1.2.1-1.7l-2.6 1c.1-.3.1-.5.1-.7l2.6-.9 15.3-5.6 8-2.9L36.7 5c.2 0 .3.1.5.2.2 0 .3.1.5.2.3.1.6.2.9.4.1 0 .2.1.2.1.3.1.5.2.8.4h.1c.3.2.6.4.9.5.3.2.5.3.8.5.2.2.5.3.7.5.1.1.3.2.4.3.2.2.4.3.6.5.1.1.2.2.3.4.1 0 .1.1.2.2s.2.3.4.4c.1.1.1.2.2.3.1.1.2.3.4.5.2.3.5.7.7 1.1.1.2.2.3.3.5.4.8.8 1.5 1 2.4.1.2.1.4.2.5 0 .2.1.4.1.5.1.5.2 1.1.3 1.6 0 .2 0 .4.1.5v.5c-.2.3-.2.5-.2.7z"/><path fill="#00dffc" d="M37.7 5.3l-8.2 3-9.1 3.3L5.5 17l-2.6 1c.1-.3.1-.5.1-.7l2.6-.9c1.2-6.7 7-11.9 14.1-11.9h.9c.3 0 .6 0 .9.1.3 0 .6.1.8.1.3.1.6.1 1 .2h.2c.3.1.5.1.8.2.2.1.5.2.7.3.3.1.6.2.8.4.1.1.3.2.4.2.6-.3 1.2-.6 1.9-.8.5-.2 1-.3 1.5-.4.2 0 .3-.1.5-.1.3 0 .6-.1.8-.1h2.7c.3 0 .7 0 1 .1.3 0 .6.1.9.2h.2c.3.1.6.1.8.2.2 0 .3.1.5.2.3-.1.5 0 .7 0z"/><path d="M19.7 4.5h.9c.3 0 .6 0 .9.1.3 0 .6.1.8.1.3.1.6.1 1 .2h.2c.3.1.5.1.8.2.2.1.5.2.7.3.3.1.6.2.8.4.1.1.3.2.4.2 1 .5 1.9 1.1 2.7 1.8.2.1.4.3.5.5 2.8 2.6 4.5 6.3 4.5 10.5v.4c0 1.6-.4 3.2-.9 4.6-1.3 3.3-3.7 6.1-6.9 7.7-2 1-4.2 1.6-6.5 1.6-2.5 0-5-.7-7-1.8-.2-.1-.5-.3-.7-.5-.2-.2-.5-.3-.7-.5-.2-.2-.4-.3-.6-.5l-.1-.1-.6-.6-.6-.6c-.3-.2-.6-.5-.8-.8-.1-.2-.2-.3-.4-.5-.1-.2-.3-.5-.5-.7-.1-.2-.3-.4-.4-.6-.2-.3-.3-.6-.5-.9-.1-.2-.2-.5-.3-.7l-.3-.9c-.1-.4-.2-.7-.2-1v-.1c-.1-.3-.1-.5-.2-.8-.1-.3-.1-.6-.2-.9 0-.3-.1-.5-.1-.8v-1.1c0-.6 0-1.2.1-1.7 0-.2.1-.5.1-.7 1.2-6.7 7-11.8 14.1-11.8m0-1c-7.5 0-13.8 5.3-15.1 12.7 0 .2-.1.5-.1.8-.1.7-.1 1.3-.1 1.9v1.2c0 .3.1.5.1.8 0 .4.1.7.2 1 0 .3.1.6.2.9v.1c.1.1.2.4.3.7.1.3.2.7.4 1 .1.3.2.5.3.8.1.3.3.6.5 1 .1.2.3.4.4.7.1.2.3.5.6.8.1.2.3.3.4.5.2.3.5.6.7.8l.6.6c.2.2.5.4.7.6l.1.1.1.1c.2.2.4.3.6.5.3.2.5.4.7.5l.1.1c.2.1.5.3.7.4 2.3 1.3 4.9 2 7.5 2 2.4 0 4.9-.6 7-1.7 3.4-1.7 6-4.7 7.3-8.2.6-1.6.9-3.3 1-4.9v-.5c0-4.2-1.8-8.3-4.8-11.2-.2-.2-.4-.4-.6-.5-.9-.7-1.8-1.4-2.8-1.9h-.1c-.1-.1-.3-.2-.5-.3-.3-.1-.6-.3-.9-.4-.2-.1-.4-.2-.6-.2l-.2-.1c-.1 0-.4-.1-.7-.2h-.2c-.3-.1-.7-.2-1-.2-.3-.1-.6-.1-.9-.1-.3 0-.6-.1-.9-.1-.4-.1-.7-.1-1-.1z" class="st2"/><path d="M32.8 4.5h1c.3 0 .7 0 1 .1.3 0 .6.1.9.2h.2c.3.1.6.1.8.2.2 0 .3.1.5.2.2 0 .3.1.5.2.3.1.6.2.9.4.1 0 .2.1.2.1.3.1.5.2.8.4h.1c.3.2.6.4.9.5.3.2.5.3.8.5.2.2.5.3.7.5.1.1.3.2.4.3.2.2.4.3.6.5.1.1.2.2.3.4.1 0 .1.1.2.2s.2.3.4.4c.1.1.1.2.2.3.1.1.2.3.4.5.2.3.5.7.7 1.1.1.2.2.3.3.5.4.8.8 1.5 1 2.4.1.2.1.4.2.5 0 .2.1.4.1.5.1.5.2 1.1.3 1.6 0 .2 0 .4.1.5v2.4c0 .2 0 .5-.1.7 0 .3-.1.6-.1.9-.1.3-.1.5-.2.8v.1c0 .1-.1.3-.1.4 0 .2-.1.3-.1.4l-.3.9c-.1.2-.2.5-.3.7-.2.3-.3.6-.5.9-.1.2-.2.4-.4.6-.2.2-.3.5-.5.7-.1.2-.2.3-.4.5-.2.3-.5.6-.8.9l-.6.6-.6.6s-.1 0-.1.1c-.2.2-.4.3-.6.5-.1.1-.2.2-.4.2-.1.1-.2.2-.4.2-2.2 1.5-4.9 2.3-7.8 2.3-2.3 0-4.6-.6-6.5-1.6-1.7-.9-3.2-2.1-4.5-3.6-2-2.4-3.2-5.4-3.3-8.7v-.4c0-2.6.7-5 1.9-7.1.2-.3.3-.6.5-.9 1.3-2 3.2-3.6 5.3-4.7.6-.3 1.2-.6 1.9-.8.5-.2 1-.3 1.5-.4.2 0 .3-.1.5-.1.3 0 .6-.1.8-.1h1.7m0-1H31c-.3 0-.6.1-.9.1-.2 0-.3.1-.5.1h-.1c-.6.1-1.1.3-1.6.5-.7.2-1.4.5-2 .9h-.1c-2.2 1.2-4.2 2.9-5.6 5v.1l-.6.9c-1.3 2.3-2 4.9-2 7.6v.5c.1 3.4 1.3 6.7 3.5 9.3 1.3 1.6 2.9 2.9 4.8 3.8 2.1 1.1 4.5 1.7 7 1.7 2.9 0 5.8-.8 8.3-2.4 0 0 .1 0 .1-.1.1-.1.2-.1.3-.2.1-.1.2-.1.3-.2h.1c.2-.2.5-.3.7-.5 0 0 .1 0 .1-.1.2-.2.4-.4.7-.6l.6-.6c.3-.3.6-.6.8-1 .1-.2.3-.3.4-.5.2-.3.4-.6.5-.8.1-.2.3-.4.4-.7.2-.3.4-.7.5-1 .1-.3.2-.5.3-.8.1-.3.3-.6.4-1 0-.1.1-.2.1-.2l.1-.2c.1-.2.1-.3.1-.5v-.1c.1-.3.1-.6.2-.9.1-.3.1-.6.2-.9 0-.2 0-.4.1-.7v-3.2l-.3-1.8c0-.2-.1-.4-.1-.5v-.1c0-.2-.1-.3-.1-.5-.3-.9-.6-1.7-1.1-2.5-.1-.2-.2-.4-.3-.5-.2-.4-.5-.8-.7-1.1-.1-.1-.2-.3-.4-.5-.1-.1-.2-.2-.2-.3-.1-.2-.2-.3-.4-.4 0-.1-.1-.1-.2-.2l-.3-.3-.5-.1-.6-.6-.4-.4c-.2-.2-.4-.3-.5-.4l-.1-.1c-.3-.2-.5-.4-.8-.6l-.9-.6c-.1 0-.1-.1-.2-.1-.3-.1-.5-.3-.8-.4-.1 0-.2-.1-.2-.1-.3-.1-.6-.3-1-.4H38c-.2-.1-.3-.1-.5-.2h-.1c-.1 0-.3-.1-.4-.1-.2-.1-.5-.1-.8-.2H36c-.3-.1-.6-.1-.9-.2-.3 0-.7-.1-1.1-.1h-1.2z" class="st2"/><path d="M26.2 16.9c2.9 0 5.5.8 7.8 2.3 1.3.8 2.4 1.9 3.4 3.1 1.9 2.3 3.1 5.3 3.2 8.5v.4c0 7.9-6.4 14.3-14.3 14.3-7.8 0-14.2-6.2-14.3-14v-.7c.1-4.9 2.7-9.1 6.5-11.6 2.2-1.4 4.9-2.3 7.7-2.3m0-1c-3 0-5.8.8-8.3 2.5-4.2 2.7-6.8 7.4-7 12.4v.8c.2 8.3 7 15 15.3 15 8.4 0 15.3-6.9 15.3-15.3v-.5c-.1-3.4-1.3-6.5-3.4-9.1-1-1.3-2.2-2.4-3.6-3.3-2.4-1.6-5.3-2.5-8.3-2.5z" class="st2"/><path d="M34.5 18.9c-2.4-1.5-5.2-2.5-8.3-2.5-3.1 0-5.9.9-8.3 2.5.2 5.7 3.5 10.7 8.3 13.1 4.8-2.5 8.1-7.4 8.3-13.1z" class="st2"/><path d="M32.8 4.5h1c.3 0 .7 0 1 .1.3 0 .6.1.9.2h.2c.3.1.6.1.8.2.2 0 .3.1.5.2.2 0 .3.1.5.2.3.1.6.2.9.4.1 0 .2.1.2.1.3.1.5.2.8.4h.1c.3.2.6.4.9.5.3.2.5.3.8.5.2.2.5.3.7.5.1.1.3.2.4.3.2.2.4.3.6.5.1.1.2.2.3.4.1 0 .1.1.2.2s.2.3.4.4c.1.1.1.2.2.3.1.1.2.3.4.5.2.3.5.7.7 1.1.1.2.2.3.3.5.4.8.8 1.5 1 2.4.1.2.1.4.2.5 0 .2.1.4.1.5.1.5.2 1.1.3 1.6 0 .2 0 .4.1.5v2.4c0 .2 0 .5-.1.7 0 .3-.1.6-.1.9-.1.3-.1.5-.2.8v.1c0 .1-.1.3-.1.4 0 .2-.1.3-.1.4l-.3.9c-.1.2-.2.5-.3.7-.2.3-.3.6-.5.9-.1.2-.2.4-.4.6-.2.2-.3.5-.5.7-.1.2-.2.3-.4.5-.2.3-.5.6-.8.9l-.6.6-.6.6s-.1 0-.1.1c-.2.2-.4.3-.6.5-.1.1-.2.2-.4.2-.1.1-.2.2-.4.2v.4c0 7.9-6.4 14.3-14.3 14.3-7.8 0-14.2-6.2-14.3-14v-.7c-.2-.2-.5-.3-.7-.5-.2-.2-.4-.3-.6-.5l-.1-.1-.6-.6-.6-.6c-.6 0-.9-.3-1.1-.6-.1-.2-.2-.3-.4-.5-.1-.2-.3-.5-.5-.7-.1-.2-.3-.4-.4-.6-.2-.3-.3-.6-.5-.9-.1-.2-.2-.5-.3-.7l-.3-.9c-.1-.4-.2-.7-.2-1v-.1c-.1-.3-.1-.5-.2-.8-.1-.3-.1-.6-.2-.9 0-.3-.1-.5-.1-.8v-1.1c0-.6 0-1.2.1-1.7 0-.2.1-.5.1-.7 1.2-6.7 7-11.9 14.1-11.9h.9c.3 0 .6 0 .9.1.3 0 .6.1.8.1.3.1.6.1 1 .2h.2c.3.1.5.1.8.2.2.1.5.2.7.3.3.1.6.2.8.4.2.1.3.2.5.2.6-.3 1.2-.6 1.9-.8.5-.2 1-.3 1.5-.4.2 0 .3-.1.5-.1.3 0 .6-.1.8-.1h1.8m0-2.5h-1.5c-.2 0-.4 0-.5.1-.4 0-.7.1-1 .2-.2 0-.3.1-.5.1h-.2c-.6.1-1.2.3-1.7.5-.4.1-.7.3-1.1.4-.1-.1-.2-.1-.4-.2s-.4-.2-.7-.3H25c-.3-.1-.7-.2-.9-.3-.1 0-.1 0-.2-.1h-.1c-.4-.1-.7-.2-1.1-.2-.3-.1-.6-.1-1-.2h-2C11.5 2 4.5 7.8 3.1 15.9c0 .3-.1.5-.1.8-.1.8-.1 1.4-.1 2V20c.1.3.1.6.1.9.1.4.1.8.2 1.1.1.3.1.6.2 1v.2c.1.3.2.6.3 1 .1.4.3.7.4 1.1.1.3.3.6.4.9.2.3.3.7.6 1.1.1.2.3.5.4.7l.6.9c.1.2.3.4.4.5.3.4.6.7.9 1l.7.7c.3.2.5.5.7.6l.1.1c.1.1.3.2.4.3.6 8.8 8 15.9 16.9 15.9 9 0 16.3-7.1 16.8-16 .1-.1.3-.2.4-.3l.1-.1c.2-.2.5-.4.7-.6.2-.2.5-.4.7-.7.3-.3.6-.7.9-1.1.1-.2.3-.4.4-.5.2-.3.5-.6.6-.9.2-.3.3-.5.4-.7.2-.4.4-.8.6-1.1.1-.3.3-.6.4-.9.1-.3.3-.7.4-1.1 0-.1.1-.2.1-.3v-.2c0-.2.1-.3.1-.5v-.1c.1-.3.2-.7.2-1 .1-.3.1-.7.2-1 0-.2.1-.5.1-.7v-3.1c0-.2 0-.3-.1-.5-.1-.6-.2-1.3-.4-1.9 0-.2-.1-.4-.2-.6V14c-.1-.2-.1-.4-.2-.5-.3-1-.7-1.9-1.2-2.8l-.3-.6c-.2-.4-.5-.8-.8-1.2-.1-.2-.3-.3-.4-.5-.1-.2-.2-.3-.3-.4-.1-.2-.3-.3-.4-.5l-.2-.2c.2-.1.1-.2 0-.3l-.7-.7-.4-.4c-.2-.2-.4-.3-.6-.5l-.1-.1c-.3-.2-.5-.4-.9-.6-.3-.2-.6-.4-1-.6-.2-.1-.3-.1-.4-.1-.3-.2-.6-.3-.8-.4-.1-.1-.2-.1-.3-.1-.3-.1-.7-.3-1-.4h-.1c-.2-.1-.4-.1-.5-.2h-.1c-.2 0-.3-.1-.5-.1-.3-.1-.6-.2-.9-.2h-.3c-.3-.1-.7-.1-1-.2-.4-.3-.8-.4-1.2-.4h-1.2z" class="st2"/></svg>