<svg xmlns="http://www.w3.org/2000/svg" version="1" viewBox="0 0 50 50"><path fill="#AFE55D" d="M12.195 43.445l34.474-12.547c.511-1.88.788-3.856.788-5.898C47.457 12.597 37.403 2.543 25 2.543S2.543 12.597 2.543 25c0 7.642 3.82 14.389 9.652 18.445z"/><path fill="#C3FF68" d="M37.307 6.164a22.348 22.348 0 00-12.222-3.621c-10.117 0-18.668 6.69-21.478 15.887l33.7-12.266z"/><path fill="#031326" d="M25 48.5C12.042 48.5 1.5 37.958 1.5 25S12.042 1.5 25 1.5 48.5 12.042 48.5 25c0 2.093-.275 4.169-.818 6.171a1.042 1.042 0 11-2.014-.546c.495-1.824.746-3.717.746-5.625 0-11.808-9.606-21.414-21.414-21.414C13.192 3.586 3.586 13.192 3.586 25S13.192 46.414 25 46.414a1.043 1.043 0 010 2.086z"/><path fill="#031326" d="M25 43.124c-9.993 0-18.124-8.131-18.124-18.124S15.007 6.876 25 6.876c9.994 0 18.124 8.131 18.124 18.124 0 9.994-8.13 18.124-18.124 18.124zm0-34.997C15.696 8.127 8.127 15.696 8.127 25S15.696 41.873 25 41.873 41.873 34.304 41.873 25 34.304 8.127 25 8.127z"/><path fill="#031326" d="M32.571 23.955H17.429a.82.82 0 01-.821-.821v-3.7a.82.82 0 01.821-.821h15.143a.82.82 0 01.821.821v3.7a.822.822 0 01-.822.821zm0 7.433H17.429a.82.82 0 01-.821-.821v-3.7a.82.82 0 01.821-.821h15.143a.82.82 0 01.821.821v3.7a.822.822 0 01-.822.821z"/></svg>