<svg xmlns="http://www.w3.org/2000/svg" version="1" viewBox="0 0 50 50"><path fill="#E589EF" d="M4.667 37.881h7.452v7.452c0 .354.101.683.263.972l8.062-2.935v-5.489h9.112v2.173l17.777-6.471v-2.027a2 2 0 00-2-2h-7.452v-9.112h7.452a2 2 0 002-2v-4.325a2 2 0 00-2-2h-7.452V4.667a2 2 0 00-2-2h-4.325a2 2 0 00-2 2v7.452h-9.112V4.667a2 2 0 00-2-2h-4.325a2 2 0 00-2 2v7.452H4.667a2 2 0 00-2 2v4.325a2 2 0 002 2h7.452v9.112H4.667a2 2 0 00-2 2v4.325a2 2 0 002 2zm15.777-17.437h9.112v9.112h-9.112v-9.112z"/><path fill="#F799FF" d="M37.723 3.886a2 2 0 00-1.842-1.219h-4.325a2 2 0 00-2 2v2.191l8.167-2.972zm-17.279 6.289V4.667a2 2 0 00-2-2h-4.325a2 2 0 00-2 2v7.452H4.667a2 2 0 00-2 2v2.527l17.777-6.471z"/><path fill="#031326" d="M45.334 21.693a3.254 3.254 0 003.25-3.25v-4.325a3.254 3.254 0 00-3.25-3.25h-6.203V4.667a3.254 3.254 0 00-3.25-3.25h-4.324a3.254 3.254 0 00-3.25 3.25v6.201h-6.613V4.667a3.254 3.254 0 00-3.25-3.25h-4.325a3.254 3.254 0 00-3.25 3.25v6.201H4.667a3.254 3.254 0 00-3.25 3.25v4.325a3.254 3.254 0 003.25 3.25h6.202v6.612H4.667a3.254 3.254 0 00-3.25 3.25v4.325a3.254 3.254 0 003.25 3.25h6.202v6.202a3.254 3.254 0 003.25 3.25h4.325a3.254 3.254 0 003.25-3.25V39.13h6.613v6.202a3.254 3.254 0 003.25 3.25h4.324a3.254 3.254 0 003.25-3.25V37.88c0-.609-.445-1.093-1.022-1.204H19.9v-5.871l25.448.003a.75.75 0 01.736.747v2.023a1.25 1.25 0 002.5 0v-2.023a3.254 3.254 0 00-3.25-3.25h-6.203v-6.612h6.203zM30.807 4.667a.75.75 0 01.75-.75h4.324c.411 0 .746.334.749.745v24.892l.001.005v.5h-5.824V4.667zM4.667 19.193a.75.75 0 01-.75-.75v-4.325a.75.75 0 01.75-.75h25.375v5.825H4.667zm23.64 2.5v6.612h-6.613v-6.612h6.613zM14.119 3.917h4.325a.75.75 0 01.75.75v7.95h-5.825v-7.95a.75.75 0 01.75-.75zM4.667 36.631a.75.75 0 01-.75-.75v-4.325a.75.75 0 01.75-.75h7.963v5.825H4.667zm13.777 9.452h-4.325a.745.745 0 01-.739-.697V19.949h5.771v25.598a.742.742 0 01-.707.536zm18.187-.75c0 .413-.337.75-.75.75h-4.324a.752.752 0 01-.75-.75v-7.954h5.933a1.239 1.239 0 00-.109.502v7.452zm.749-26.14v-5.825h7.954a.75.75 0 01.75.75v4.325a.75.75 0 01-.75.75H37.38z"/></svg>