<svg xmlns="http://www.w3.org/2000/svg" id="Layer_1" x="0" y="0" version="1.1" viewBox="0 0 50 50" xml:space="preserve"><style>.st3{fill:none;stroke:#444;stroke-width:.5;stroke-linecap:round;stroke-linejoin:round;stroke-miterlimit:10}.st4{fill:#444}</style><path fill="#5aba52" d="M39.26 8.3l-1.28.45-1.22-.25c0-1.2-.8-.3-1.9-.3l-30.3.1c-1.1 0-2.1.9-2.1 2.1l-.2 11.4.38-.14-.68 18.54c-.1 3 3 5.3 5.9 4.2l40.3-14.3.8-17.1c0-4.6-5.3-6.2-9.7-4.7z"/><g fill="none" stroke="#444" stroke-linecap="round" stroke-linejoin="round" stroke-miterlimit="10"><path stroke-width="2.5" d="M36.86 44.2H4.66l-2.9-5c-.7-1.1.2-2.6 1.5-2.6V8.5h5.8l33.7.2h5.7l-.2 28"/><path d="M3.46 37.5l44.9.1"/></g><path d="M10.46 20.4v-3.9h-1m9.6 3.9v-3.9h-1m-5.7 7.4v2.5c-.4.4-.9.7-1.4.7s-1.1-.3-1.5-.7v-2.5c.4-.4.9-.7 1.4-.7s1.2.3 1.5.7zm8.6 0v2.5c-.4.4-.9.7-1.4.7-.6 0-1.1-.3-1.4-.7v-2.5c.4-.4.9-.7 1.4-.7.6 0 1.1.3 1.4.7zm2.9 3.2v-3.9h-1m-6.7-6v2.5c-.4.4-.9.7-1.4.7s-1.1-.3-1.4-.7v-2.5c.4-.4.9-.7 1.4-.7s1.1.3 1.4.7zm8.7 0v2.5c-.4.4-.9.7-1.5.7s-1.1-.3-1.4-.7v-2.5c.4-.4.9-.7 1.4-.7.6 0 1.1.3 1.5.7zm2.8 3.2v-3.9h-.9m-7.7 17.3v-3.9h-1m-1.9.7v2.5c-.4.4-.9.7-1.4.7s-1.1-.3-1.4-.7v-2.5c.4-.4.9-.7 1.4-.7s1.1.3 1.4.7zm11.5 3.2v-3.9h-.9m4.8-9.5v-3.9h-1m9.6 3.9v-3.9h-.9m-5.8 7.4v2.5c-.4.4-.9.7-1.4.7-.6 0-1.1-.3-1.4-.7v-2.5c.4-.4.9-.7 1.4-.7.6 0 1.1.3 1.4.7zm8.6 0v2.5c-.4.4-.9.7-1.4.7-.6 0-1.1-.3-1.4-.7v-2.5c.4-.4.9-.7 1.4-.7.6 0 1.1.3 1.4.7zm-4.8-6.7v2.5a1.75 1.75 0 01-2.8 0v-2.5c.4-.4.9-.7 1.4-.7.6 0 1.1.3 1.4.7zm2.9 16.6v-3.9h-.9m-2 .7v2.5c-.4.4-.9.7-1.4.7-.6 0-1.1-.3-1.4-.7v-2.5c.4-.4.9-.7 1.4-.7.6 0 1.1.3 1.4.7z" class="st3"/><path d="M3.76 13.5h44.2v24H3.76z" class="st3"/><circle cx="39.86" cy="11.7" r=".8" class="st4"/><circle cx="42.16" cy="11.7" r=".8" class="st4"/><circle cx="44.46" cy="11.7" r=".8" class="st4"/></svg>