<?xml version="1.0" encoding="utf-8"?>
<!-- Generator: Adobe Illustrator 28.0.0, SVG Export Plug-In . SVG Version: 6.00 Build 0)  -->
<svg version="1.1" id="Layer_1" xmlns="http://www.w3.org/2000/svg" xmlns:xlink="http://www.w3.org/1999/xlink" x="0px" y="0px"
	 viewBox="0 0 50 50" style="enable-background:new 0 0 50 50;" xml:space="preserve">
<style type="text/css">
	.st0{fill:#46B8B0;}
	.st1{fill:none;stroke:#444444;stroke-width:2.5;stroke-linecap:round;stroke-linejoin:round;stroke-miterlimit:10;}
	.st2{fill:none;stroke:#444444;stroke-linecap:round;stroke-linejoin:round;stroke-miterlimit:10;}
	.st3{fill:none;stroke:#444444;stroke-width:0.5;stroke-linecap:round;stroke-linejoin:round;stroke-miterlimit:10;}
	.st4{fill:#444444;}
</style>
<g>
	<path class="st0" d="M39.4,7.3l-1.3,0.4l-1.2-0.2c0-1.2-0.8-0.3-1.9-0.3L4.7,7.3c-1.1,0-2.1,0.9-2.1,2.1L2.4,20.8l0.4-0.1L2.1,39.2
		c-0.1,3,3,5.3,5.9,4.2l40.3-14.3L49.1,12C49.1,7.4,43.8,5.8,39.4,7.3z"/>
	<g>
		<g>
			<g>
				<path class="st1" d="M37,43.2H4.8l-2.9-5c-0.7-1.1,0.2-2.6,1.5-2.6V7.5h5.8l33.7,0.2h5.7l-0.2,28"/>
				<line class="st2" x1="3.6" y1="36.5" x2="48.5" y2="36.6"/>
			</g>
		</g>
		<g>
			<polyline class="st3" points="10.6,19.4 10.6,15.5 9.6,15.5 			"/>
			<polyline class="st3" points="19.2,19.4 19.2,15.5 18.2,15.5 			"/>
			<path class="st3" d="M12.5,22.9v2.5c-0.4,0.4-0.9,0.7-1.4,0.7s-1.1-0.3-1.5-0.7v-2.5c0.4-0.4,0.9-0.7,1.4-0.7
				S12.2,22.5,12.5,22.9z"/>
			<path class="st3" d="M21.1,22.9v2.5c-0.4,0.4-0.9,0.7-1.4,0.7c-0.6,0-1.1-0.3-1.4-0.7v-2.5c0.4-0.4,0.9-0.7,1.4-0.7
				C20.3,22.2,20.8,22.5,21.1,22.9z"/>
			<polyline class="st3" points="24,26.1 24,22.2 23,22.2 			"/>
			<path class="st3" d="M16.3,16.2v2.5c-0.4,0.4-0.9,0.7-1.4,0.7s-1.1-0.3-1.4-0.7v-2.5c0.4-0.4,0.9-0.7,1.4-0.7S16,15.8,16.3,16.2z
				"/>
			<path class="st3" d="M25,16.2v2.5c-0.4,0.4-0.9,0.7-1.5,0.7s-1.1-0.3-1.4-0.7v-2.5c0.4-0.4,0.9-0.7,1.4-0.7
				C24.1,15.5,24.6,15.8,25,16.2z"/>
			<polyline class="st3" points="27.8,19.4 27.8,15.5 26.9,15.5 			"/>
			<polyline class="st3" points="19.2,32.8 19.2,28.9 18.2,28.9 			"/>
			<path class="st3" d="M16.3,29.6v2.5c-0.4,0.4-0.9,0.7-1.4,0.7s-1.1-0.3-1.4-0.7v-2.5c0.4-0.4,0.9-0.7,1.4-0.7S16,29.2,16.3,29.6z
				"/>
			<polyline class="st3" points="27.8,32.8 27.8,28.9 26.9,28.9 			"/>
		</g>
		<g>
			<polyline class="st3" points="31.7,19.4 31.7,15.5 30.7,15.5 			"/>
			<polyline class="st3" points="40.3,19.4 40.3,15.5 39.4,15.5 			"/>
			<path class="st3" d="M33.6,22.9v2.5c-0.4,0.4-0.9,0.7-1.4,0.7c-0.6,0-1.1-0.3-1.4-0.7v-2.5c0.4-0.4,0.9-0.7,1.4-0.7
				C32.8,22.2,33.3,22.5,33.6,22.9z"/>
			<path class="st3" d="M42.2,22.9v2.5c-0.4,0.4-0.9,0.7-1.4,0.7c-0.6,0-1.1-0.3-1.4-0.7v-2.5c0.4-0.4,0.9-0.7,1.4-0.7
				C41.4,22.2,41.9,22.5,42.2,22.9z"/>
			<path class="st3" d="M37.4,16.2v2.5c-0.3,0.4-0.8,0.7-1.4,0.7s-1.1-0.3-1.4-0.7v-2.5c0.4-0.4,0.9-0.7,1.4-0.7
				C36.6,15.5,37.1,15.8,37.4,16.2z"/>
			<polyline class="st3" points="40.3,32.8 40.3,28.9 39.4,28.9 			"/>
			<path class="st3" d="M37.4,29.6v2.5c-0.4,0.4-0.9,0.7-1.4,0.7c-0.6,0-1.1-0.3-1.4-0.7v-2.5c0.4-0.4,0.9-0.7,1.4-0.7
				C36.6,28.9,37.1,29.2,37.4,29.6z"/>
		</g>
		<rect x="3.9" y="12.5" class="st3" width="44.2" height="24"/>
		<circle class="st4" cx="40" cy="10.7" r="0.8"/>
		<circle class="st4" cx="42.3" cy="10.7" r="0.8"/>
		<circle class="st4" cx="44.6" cy="10.7" r="0.8"/>
	</g>
</g>
</svg>
