<svg xmlns="http://www.w3.org/2000/svg" id="Layer_1" x="0" y="0" version="1.1" viewBox="0 0 50 50" xml:space="preserve"><style>.st2{fill:#444}</style><path fill="#a475ef" d="M3.2 33.7l17.1 9.4 26.9-9.8V17.2c0-.2-.1-.5-.3-.6L25.3 4.9c-.2-.1-.4-.1-.6 0L3.2 16.7c-.2.1-.4.3-.4.5v15.9c0 .3.2.5.4.6z"/><path fill="#bf94f7" d="M30.2 7.5l-4.9-2.7c-.2-.1-.4-.1-.6 0L3.2 16.7c-.2.1-.4.3-.4.5v.3l27.4-10z"/><path d="M25.2 19c.1.6-.1 1-.7 1.4-.4.2-.8.4-1.3.5-.5.1-1 .1-1.5 0s-.9-.3-1.4-.5-.7-.5-.9-.8-.2-.6-.1-.9.4-.5.7-.8c.6-.4 1.4-.5 2.3-.5v-1.1c-.7 0-1.3 0-2 .1-.6.1-1.2.4-1.7.7-.6.4-1 .8-1.2 1.3s-.2 1 .1 1.5c.3.5.7.9 1.4 1.3s1.4.7 2.2.8c.8.1 1.6.1 2.4 0 .8-.1 1.5-.4 2.1-.8.5-.3.9-.7 1.1-1.1.2-.4.3-.8.2-1.2l-1.7.1zm.6-4.2l-1.4-1-1 .6 1.4 1-1.3.8 1.1.6 1.1-.7 1.4 1-1.2.8 1.1.6 1.1-.7 1.4 1 1-.6-1.4-1 1.3-.8 1.4 1 1-.6-1.4-1 1.2-.8-1.1-.6-1.1.7-1.4-1 1.3-.8-1.1-.6-1.2.7-1.4-1-1 .6 1.4 1-1.2.8zm3.6.9l-1.3.8-1.4-1 1.3-.8 1.4 1z" class="st2"/><path d="M47.4 15.6L25.9 3.8c-.6-.3-1.3-.3-1.8 0L2.6 15.6c-.6.3-1 1-1 1.7v15.9c0 .7.4 1.3 1 1.7l21.3 11.7c.6.3 1.3-.1 1.3-.8V29.2L46 17.8v15.5c0 .7.6 1.2 1.2 1.2s1.2-.6 1.2-1.2V17.2c0-.7-.3-1.3-1-1.6zM10 36l-5.9-3.2V17.7l5.9 3.2V36zm.2-15.3l-5.9-3.2L25 6.1l5.9 3.2-1.3.7-4.5-2.5H25L7.5 17.2l-.2.1 4.6 2.5-1.7.9zm31.9-3.4L25 26.6 7.9 17.3 25 7.9l17.1 9.4zM24.9 44.2s-.1 0-.1-.1l-6.9-3.8V25.2l7 3.9v15.1zm.1-15.3L17.9 25l1.8-1 5.3 2.9h.1l17.5-9.6.2-.1-5.3-2.9 1.3-.7 7.1 3.9L25 28.9z" class="st2"/></svg>