<svg xmlns="http://www.w3.org/2000/svg" version="1" viewBox="0 0 50 50"><path fill="#DC5E82" d="M3.158 33.702l17.086 9.359 26.917-9.798a.608.608 0 00.018-.128v-15.9a.645.645 0 00-.336-.566L25.31 4.875a.644.644 0 00-.62 0L3.158 16.669a.646.646 0 00-.336.567v15.9c0 .236.128.453.336.566z"/><path fill="#F56991" d="M30.175 7.54L25.31 4.875a.646.646 0 00-.621 0L3.157 16.669a.647.647 0 00-.335.567v.26L30.175 7.54z"/><g fill="#031326"><path d="M25.166 19.011c.121.569-.126 1.031-.733 1.4-.378.23-.805.386-1.287.454a4.26 4.26 0 01-1.462-.029c-.49-.092-.946-.257-1.368-.503s-.715-.519-.879-.809-.191-.586-.079-.871.357-.546.735-.777c.606-.369 1.384-.522 2.325-.47l-.031-1.092a6.73 6.73 0 00-1.957.133 5.6 5.6 0 00-1.748.691c-.626.381-1.034.812-1.238 1.292s-.173.964.064 1.453c.251.481.704.925 1.38 1.32a6.645 6.645 0 002.234.792c.832.136 1.638.14 2.438.008a5.78 5.78 0 002.134-.761c.528-.322.903-.671 1.129-1.052.22-.385.28-.778.175-1.182l-1.832.003zm.607-4.204L24.4 13.795l-.972.591 1.373 1.012-1.252.762 1.062.62 1.135-.691 1.388 1.029-1.246.758 1.054.616 1.135-.691 1.379 1.008.972-.591-1.373-1.012 1.272-.774 1.379 1.008.985-.599-1.379-1.008 1.246-.758-1.054-.616-1.135.691-1.395-1.025 1.252-.762-1.068-.616-1.128.687-1.379-1.008-.972.591 1.373 1.012-1.279.778zm3.618.939l-1.278.778-1.388-1.029 1.278-.778 1.388 1.029z"/><path d="M47.443 15.573L25.912 3.779a1.887 1.887 0 00-1.823 0L2.557 15.573c-.608.333-.985.97-.985 1.663v15.9c0 .692.377 1.329.985 1.663l21.255 11.659a.874.874 0 001.295-.765l.019-16.619 20.803-11.391v15.454a1.25 1.25 0 002.5 0v-15.9a1.896 1.896 0 00-.986-1.664zM25 28.856l-7.076-3.875 1.76-.963 5.256 2.878.06.034 17.455-9.559.201-.11-5.331-2.919 1.333-.731 7.09 3.884L25 28.856zm17.135-11.595L25 26.645 7.865 17.261 25 7.879l17.135 9.382zM25 6.13l5.906 3.235-1.333.732-4.513-2.471-.06-.032-17.456 9.557-.2.11 4.581 2.508-1.759.964-5.914-3.239L25 6.13zM4.072 17.682l5.918 3.24v15.097l-5.918-3.241V17.682zm20.685 26.425l-6.925-3.793V25.216l7.043 3.856v15.1l-.118-.065z"/></g></svg>