<svg xmlns="http://www.w3.org/2000/svg" id="Camada_3" x="0" y="0" version="1.1" viewBox="0 0 50 50" xml:space="preserve"><style>.st2,.st3{fill:none;stroke:#444;stroke-linecap:round;stroke-linejoin:round;stroke-miterlimit:10}.st3{stroke-width:.5}</style><path fill="#fc9d9a" d="M45.46 2.58H4.36c-1.4 0-1.4 3.8-1.4 5.2l-.2 16.9-.5 10.2 1.2 11.8 12.4.6 32.1-11.4V5.18c0-1.4-1.1-2.6-2.5-2.6z"/><path fill="none" stroke="#444" stroke-linecap="round" stroke-linejoin="round" stroke-miterlimit="10" stroke-width="2.5" d="M32.86 48.08h-27c-1.9 0-3.4-1.6-3.4-3.5v-39c0-2 1.5-3.5 3.4-3.5h39c1.9 0 3.4 1.6 3.4 3.5v32.5"/><path d="M20.04 25.8h-9.18c-1.34 0-2.43-1.09-2.43-2.43V11.31c0-1.34 1.09-2.43 2.43-2.43h9.18c1.34 0 2.43 1.09 2.43 2.43v12.06c0 1.34-1.09 2.43-2.43 2.43z" class="st2"/><path d="M39.66 20.4h-9.54c-1.34 0-2.43-1.09-2.43-2.43v-6.48c0-1.34 1.09-2.43 2.43-2.43h9.54c1.34 0 2.43 1.09 2.43 2.43v6.48c0 1.34-1.09 2.43-2.43 2.43z" class="st3"/><path d="M39.3 41.28h-8.28c-1.34 0-2.43-1.09-2.43-2.43V26.79c0-1.34 1.09-2.43 2.43-2.43h8.28c1.34 0 2.43 1.09 2.43 2.43v12.06c0 1.34-1.09 2.43-2.43 2.43z" class="st2"/><path d="M20.4 41.1h-8.82c-1.34 0-2.43-1.09-2.43-2.43v-5.58c0-1.34 1.09-2.43 2.43-2.43h8.82c1.34 0 2.43 1.09 2.43 2.43v5.58c0 1.34-1.09 2.43-2.43 2.43z" class="st3"/></svg>