<svg xmlns="http://www.w3.org/2000/svg" id="Layer_1" x="0" y="0" version="1.1" viewBox="0 0 50 50" xml:space="preserve"><style>.st3{fill:#444}</style><path fill="#dc5e82" d="M47.7 11.8l.8 5.2L2.4 33.8l-.5-10.9-.1-6.2L42.1 2.1l5.2 2.3z"/><path fill="#f56991" d="M46.1 2.2l2.3 3.2L1.5 22.1 2.6 5l3-2.9 29.1-.2z"/><path fill="none" stroke="#444" stroke-linecap="round" stroke-linejoin="round" stroke-miterlimit="10" stroke-width="2.5" d="M18.2 48.5H5.5c-1.9 0-3.4-1.6-3.4-3.5V6c0-2 1.5-3.5 3.4-3.5h39c1.9 0 3.4 1.6 3.4 3.5v24.6"/><circle cx="8.2" cy="8.4" r="1.4" class="st3"/><circle cx="12.1" cy="8.4" r="1.4" class="st3"/><circle cx="15.9" cy="8.4" r="1.4" class="st3"/><path fill="#494949" d="M42.7 44.8H27.5c-.8 0-1.5-.7-1.5-1.5V23.4c0-.8.7-1.5 1.5-1.5h15.2c.8 0 1.5.7 1.5 1.5v19.9c0 .8-.7 1.5-1.5 1.5zm-20.4 0H7.1c-.8 0-1.5-.7-1.5-1.5v-4.4c0-.8.7-1.5 1.5-1.5h15.2c.8 0 1.5.7 1.5 1.5v4.4c0 .8-.7 1.5-1.5 1.5zm0-9.7H7.1c-.8 0-1.5-.7-1.5-1.5V23.4c0-.8.7-1.5 1.5-1.5h15.2c.8 0 1.5.7 1.5 1.5v10.2c0 .8-.7 1.5-1.5 1.5zm20.4-15.4H7.1c-.8 0-1.5-.7-1.5-1.5v-4.7c0-.8.7-1.5 1.5-1.5h35.6c.8 0 1.5.7 1.5 1.5v4.7c0 .8-.7 1.5-1.5 1.5z"/></svg>