<svg xmlns="http://www.w3.org/2000/svg" id="Camada_1" x="0" y="0" version="1.1" viewBox="0 0 50 50" xml:space="preserve"><style>.st3{fill:#424242}.st4{fill:none;stroke:#494949;stroke-linecap:round;stroke-linejoin:round;stroke-miterlimit:10}</style><path fill="#a475ef" d="M48.4 13.8l.7 5.4L1.8 36.4l-.6-11.2v-6.4l41.4-15 5.3 2.3z"/><path fill="#bf94f7" d="M46.7 3.9L49 7.2.9 24.4 2 6.7l3.1-2.9 29.8-.2z"/><path fill="none" stroke="#444" stroke-linecap="round" stroke-linejoin="round" stroke-miterlimit="10" stroke-width="2.5" d="M16.3 46.4H4.6c-1.7 0-3.1-1.4-3.1-3.1V7.1C1.5 5.4 2.9 4 4.6 4h40.5c1.7 0 3.1 1.4 3.1 3.1v21.6"/><circle cx="8.7" cy="10.2" r="1.6" class="st3"/><circle cx="13.8" cy="10.2" r="1.6" class="st3"/><circle cx="19" cy="10.2" r="1.6" class="st3"/><g id="workflow"><path d="M18 40.1h-3.1m-4.9 0H6.9V37m0-4.9V29H10m6.4 0h3.1m3.7 3.7v4.6m0-16.3v4.3M27 29h9.6m-8.2 11.1h10c.8 0 1.5-.7 1.5-1.5v-6.3" class="st4"/><circle cx="23.2" cy="29" r="3.7" class="st4" transform="rotate(-76.714 23.25 29.016)"/><path d="M26.6 21h-6.8c-1.4 0-2.6-1.2-2.6-2.6 0-1.4 1.2-2.6 2.6-2.6h6.8c1.4 0 2.6 1.2 2.6 2.6 0 1.4-1.1 2.6-2.6 2.6zm15.8 11.3h-5c-.4 0-.8-.3-.8-.8v-5c0-.4.3-.8.8-.8h5c.4 0 .8.3.8.8v5c-.1.4-.4.8-.8.8zM27.6 42.9h-8.9c-.4 0-.8-.3-.8-.8v-4c0-.4.3-.8.8-.8h8.9c.4 0 .8.3.8.8v4c0 .4-.3.8-.8.8z" class="st4"/></g></svg>