<svg xmlns="http://www.w3.org/2000/svg" id="Layer_1" x="0" y="0" version="1.1" viewBox="0 0 50 50" xml:space="preserve"><style>.st3{fill:#031326}</style><path fill="#a475ef" d="M43.5 26.5l3.3 4.8-35.7 13-1.3-5.5-4.2-5.6-.8-3.2L41 17.2z"/><path fill="#bf94f7" d="M39.9 14.6l1.3 2.6L3.3 30.8l.1-5.8.1-2.6L37.8 9.9z"/><path fill="#031326" stroke="#031326" stroke-linecap="round" stroke-linejoin="round" stroke-miterlimit="10" stroke-width="1.1" d="M33.6 47.8H11.1c-.4 0-.7-.3-.7-.7v-.3c0-4.2-1.5-8.3-4.1-11.6-2.8-3.8-4.2-8.5-4.1-13.2.4-10.4 8.7-19.1 18.9-19.7C32 1.6 41.4 9.7 42.4 20.6c.2 1.5.6 3 1.3 4.3l4 8.2c.2.3 0 .7-.3.9-.1 0-.2.1-.3.1h-4.6V38c0 2.1-1.6 3.7-3.7 3.7h-4.1c-.3 0-.5.2-.5.5v5c.1.3-.2.6-.6.6zm-21.8-1.3H33v-4.3c0-1 .8-1.8 1.8-1.8h4.1c1.3 0 2.4-1.1 2.4-2.4v-4.5c0-.4.3-.7.7-.7h4.2l-3.6-7.2c-.7-1.5-1.2-3.1-1.4-4.8-1-10.2-9.8-17.9-20-17.2-9.6.5-17.3 8.7-17.7 18.4-.2 4.5 1.2 8.9 3.9 12.4s4.3 7.7 4.4 12.1z"/><path d="M21.4 25h2.2v2.2h-2.2z" class="st3"/><path d="M22.5 9.5c-6.1 0-11.1 5-11.1 11.1s5 11.1 11.1 11.1 11.1-5 11.1-11.1S28.7 9.5 22.5 9.5zm0 20.2c-5 0-9.1-4.1-9.1-9.1s4.1-9.1 9.1-9.1 9.1 4.1 9.1 9.1-4 9.1-9.1 9.1z" class="st3"/><path d="M26.9 17.3c-.6-2.4-3-3.9-5.4-3.3-2 .5-3.4 2.3-3.4 4.3h2.2c.1-1.2 1.2-2.1 2.4-2 1.2.1 2.1 1.2 2 2.4-.2 1.1-1.2 1.9-2.3 1.8-.5 0-1 .4-1 1v2.3h2.2v-1.3c2.4-.5 3.8-2.8 3.3-5.2z" class="st3"/></svg>