<svg xmlns="http://www.w3.org/2000/svg" id="Layer_1" x="0" y="0" version="1.1" viewBox="0 0 50 50" xml:space="preserve"><style>.st2{fill:#031326}</style><path fill="#fdcf72" d="M20.2 6.2l6.1 1.5L3.7 25.9l.1-6.2.1-6.6V8.5l.4-1.6 5.2-.1z"/><path fill="#fcc34f" d="M47.9 7.2L3.6 43.9v-4.7l.2-6.6-.2-6.8L26.1 7.3l16.5.3z"/><path d="M46.3 23.8V8.1H4.8v8.7h.3c.4 0 .8.3.8.8 0 .4-.3.8-.8.8h-.3v6.4h.3c.4 0 .8.3.8.8 0 .4-.3.8-.8.8h-.3v6.4h.3c.4 0 .8.3.8.8 0 .4-.3.8-.8.8h-.3V43h12.4v-.5c0-.4.3-.8.8-.8.4 0 .8.3.8.8v.5h6.4v-.5c0-.4.3-.8.8-.8.4 0 .8.3.8.8v.5h6.4v-.5c0-.4.3-.8.8-.8.4 0 .8.3.8.8v.5h11.8V32.4c0-.7.6-1.2 1.2-1.2s1.2.6 1.2 1.2v11.9c0 .7-.6 1.2-1.2 1.2h-13v.6c0 .4-.3.8-.8.8-.4 0-.8-.3-.8-.8v-.6h-6.4v.6c0 .4-.3.8-.8.8-.4 0-.8-.3-.8-.8v-.6h-6.4v.6c0 .4-.3.8-.8.8-.4 0-.8-.3-.8-.8v-.6H3.6c-.7 0-1.2-.6-1.2-1.2V34.2h-.6c-.4 0-.8-.3-.8-.8 0-.4.3-.8.8-.8h.6v-6.4h-.6c-.4 0-.8-.3-.8-.8 0-.4.3-.8.8-.8h.6v-6.4h-.6c-.4.1-.8-.2-.8-.6 0-.4.3-.8.8-.8h.6v-10c0-.7.6-1.2 1.2-1.2h44c.7 0 1.2.6 1.2 1.2v16.9c0 .7-.6 1.2-1.2 1.2s-1.3-.4-1.3-1.1z" class="st2"/><path d="M9 40.2c-.1 0-.2 0-.3-.1-.4-.2-.6-.6-.4-1l6.8-16.8c.1-.2.3-.4.6-.5L36.4 18l5.2-6.1c.3-.3.7-.4 1.1-.1.3.3.4.7.1 1.1l-5.3 6.3c-.1.1-.3.2-.4.3l-20.5 3.8-6.9 16.4c-.1.3-.4.5-.7.5z" class="st2"/></svg>