<svg xmlns="http://www.w3.org/2000/svg" id="Camada_3" x="0" y="0" version="1.1" viewBox="0 0 50 50" xml:space="preserve"><style>.st4,.st5,.st8{fill:none;stroke:#444;stroke-miterlimit:10}.st4{stroke-linecap:round;stroke-linejoin:round;stroke-width:.75}.st5{stroke-width:.5}.st8{stroke-width:.75}</style><path fill="#ff6b6b" d="M35.78 4.01l7.27 5.48 1.92 6.7-43.05 15.7.89-13.62L8.58 8.11l13.77-6.3z"/><path fill="#e56060" d="M47.13 20.22l-.02.43-42.1 15.13-1.06-.77-2.14-7.94 41.74-16.04 2.14 4.16z"/><path fill="none" stroke="#444" stroke-linecap="round" stroke-linejoin="round" stroke-miterlimit="10" stroke-width="2.5" d="M42.76 10.09c6.29 7.48 7.37 18.46 1.89 27.2C38.33 47.4 25.5 50.96 15 45.92m-9.03-7.67C.82 30.86.26 20.82 5.34 12.71 12.13 1.84 26.43-1.45 37.29 5.34m4.89 4.15s-1.95-2.51-5.06-4.26"/><path d="M11.6 42.58h.53a2.1 2.1 0 002.1-2.1V36.8a2.1 2.1 0 00-2.1-2.1h-.53a2.1 2.1 0 00-2.1 2.1v3.68c0 1.16.94 2.1 2.1 2.1z" class="st4"/><circle cx="11.86" cy="40.7" r=".23" class="st4"/><path d="M13.76 35.48l.47.04c.84-.14 1.62-.54 2.22-1.14l.72-.72c1.03-.85 1.58-1.15 2.91-.96l4.98.94c.74.14 1.23.86 1.09 1.6-.13.64-.69 1.1-1.34 1.1h-3.66" class="st4"/><path d="M13.76 41.81l1.36-.39c.29-.07 1.33-.04 1.63-.02l7.29.41c1.07.06 2.12-.23 3.01-.83l8.04-5.46c.68-.46.9-1.35.53-2.07a1.624 1.624 0 00-2.11-.74l-7.59 3.09" class="st4"/><path d="M26.99 31.44l-1.21 1h-.76l-1.21-1 .54-4.37h2.06c.01 0 .02 0 .03-.01l.55 4.38z" class="st5"/><path fill="#444" d="M41.89 19.7L30.22 18 25 7.41 19.78 18 8.11 19.7l8.45 8.23-1.16 6.79 1.43-.73 2.02-1.28-.18-.5s-1.4-7.57 4-7.57h5.27c5.41 0 4 7.57 4 7.57l-.19 1.05 2.42-1.05-.73-4.28 8.45-8.23zm-13.08 1.58a3.515 3.515 0 01-3.5 3.31c-1.85 0-3.37-1.43-3.5-3.24-.02-.1-.02-.19-.02-.29 0-1.45.88-2.71 2.16-3.24 0 0-.56-1.97 1.37-1.97s1.36 1.97 1.36 1.97c1.27.53 2.16 1.78 2.16 3.24-.01.07-.01.14-.03.22z"/><path d="M23.54 24.11s.23 2.96.8 2.96h.02m2.09-.01c.55-.08.91-3.14.91-3.14m-2.98 2.96l-.02.19m2.09-.01l-.02-.18" class="st5"/><path d="M28.8 21.28a3.515 3.515 0 01-3.5 3.31c-1.85 0-3.37-1.43-3.5-3.24 2.35-.75 3.5-3.8 3.5-3.8.06 0 .11 0 .17.01.08.21 1.17 2.93 3.33 3.72z" class="st5"/><path fill="none" stroke="#444" stroke-linejoin="round" stroke-miterlimit="10" stroke-width=".5" d="M25.3 17.54s-1.15 3.05-3.5 3.8c-.02-.1-.02-.19-.02-.29a3.504 3.504 0 013.52-3.51z"/><path d="M21.79 21.34h-.01" class="st8"/><path d="M28.81 21.06c0 .08 0 .14-.01.22-2.17-.78-3.25-3.5-3.34-3.73.42.01.83.11 1.19.27 1.28.53 2.16 1.78 2.16 3.24z" class="st5"/><path d="M28.97 21.34c-.06-.02-.11-.03-.17-.07m-3.34-3.72v-.01" class="st8"/><path d="M26.66 17.82c-.36-.15-.77-.25-1.19-.27-.06-.01-.11-.01-.17-.01-.49 0-.95.1-1.37.28 0 0-.56-1.97 1.37-1.97s1.36 1.97 1.36 1.97z" class="st5"/></svg>