<svg xmlns="http://www.w3.org/2000/svg" viewBox="0 0 50 50"><defs><style>.cls-3{fill:#00c8e2}.cls-7{fill:#444}.cls-8{mask:url(#mask)}</style><mask id="mask" width="19.3" height="19.3" x="14.92" y="16.51" maskUnits="userSpaceOnUse"><g id="mask-2"><path id="path-1" fill="#fff" d="M24.57 16.51a9.65 9.65 0 11-9.65 9.65 9.64 9.64 0 019.65-9.65z"/></g></mask></defs><g id="Layer_1" data-name="Layer 1"><path fill="none" stroke="#494949" stroke-miterlimit="10" stroke-width="3.11" d="M-50.54-96.7h425.11v443.81H-50.54z"/><path d="M47.79 6.33v21.55L4.43 43.67H2.21V6.33h45.58z" class="cls-3"/><path fill="#00dffc" d="M47.79 6.33v3.45L2.21 28.38V6.33h45.58z"/><path fill="none" stroke="#444" stroke-linecap="round" stroke-miterlimit="10" stroke-width="2.5" d="M26.18 43.67H2.21V6.33h45.58v21.55"/><path fill="none" stroke="#444" stroke-miterlimit="10" stroke-width=".25" d="M41.28 8.75l2.61 2.62m0-2.62l-2.61 2.62"/><path d="M4.8 12.41h40.4V39.9H4.8z" class="cls-7"/><g class="cls-8"><path d="M24.57 17.07a9.09 9.09 0 11-9.09 9.09 9.08 9.08 0 019.09-9.09z" class="cls-7"/></g><g class="cls-8"><path d="M29.4 30.16a4.87 4.87 0 01-1.52 2.35 5 5 0 01-2.78 1l-.23-1.52a3.64 3.64 0 001.68-.53A3.79 3.79 0 0027 31l-2.74-8.8h2.28l1.58 6.58 1.69-6.58H32zm-8-8.23a3.68 3.68 0 011.42.23 4 4 0 011.22.72l-.92 1.26a3.77 3.77 0 00-.76-.43 2.1 2.1 0 00-.8-.13c-1.12 0-1.68.86-1.68 2.61a3.06 3.06 0 00.43 1.89 1.43 1.43 0 001.25.56 2.09 2.09 0 00.76-.13 7.5 7.5 0 00.83-.43l.93 1.32a3.94 3.94 0 01-2.62.92 4.12 4.12 0 01-2-.49 3.35 3.35 0 01-1.32-1.46 5 5 0 01-.46-2.21 5.18 5.18 0 01.46-2.22 3.57 3.57 0 011.32-1.52 4.21 4.21 0 011.97-.49z" class="cls-3"/></g></g></svg>