<svg xmlns="http://www.w3.org/2000/svg" viewBox="0 0 50 50"><path fill="#c3ff68" d="M28.6 2.5l-5.8 1.4c-.9.2-1.7.8-2 1.7-.8 1.8-2 4.9-2.1 4.9L6.1 13.4c-.9.2-1.6.8-2 1.6-.9 2-2.7 9.3-2.1 9.1l33.4-11.9c1-1.8-2.7-9.7-6-9.8-.3 0-.6 0-.8.1z"/><path fill="#afe55d" d="M2.7 23.6c-1.1.4-1.6-1.4-1.5-.3l.5 13.4c0 3.6 2.2 9.7 5.6 8.5l40.9-14.6c1.2-.4.8-3.4.5-4.6l.3-2.7c-2.6-12.6-8.9-11.8-11.6-12.7-1.6-.5-.4.8-1.8 1.3L2.7 23.6z"/><path fill="none" stroke="#444" stroke-linecap="round" stroke-linejoin="round" stroke-miterlimit="10" d="M34.9 10.8c0 4.2-7.6 13.8-7.6 13.8s-7.6-9.6-7.6-13.8 3.5-7.6 7.7-7.6 7.5 3.4 7.5 7.6z"/><path fill="#444" d="M31.4 10.7c0-2.2-1.9-4-4.1-4s-3.9 1.8-3.9 4 1.8 4 4 4 4-1.8 4-4z"/><path fill="none" stroke="#444" stroke-linecap="round" stroke-linejoin="round" stroke-miterlimit="10" stroke-width=".5" d="M32.7 20.8v25.7m14.9-11.9H2.4m30.3-12.3h14.9m-45.3 0h21.2m-7.1-10.5v35.4"/><path fill="none" stroke="#444" stroke-linecap="round" stroke-linejoin="round" stroke-miterlimit="10" stroke-width="2.5" d="M35.7 11.1c7.7 0 12.8 4.7 12.8 10.5v15.5c0 5.8-4.7 10.5-10.5 10.5H12.2C6.4 47.7 1.6 43 1.6 37.2V21.6c0-5.8 4.7-10.5 10.5-10.5h6.6v-.7c0-4.7 3.8-8.5 8.5-8.5s8.5 3.8 8.5 8.5v.7z"/><path fill="none" stroke="#444" stroke-miterlimit="10" d="M1.8 27.7h7.1v19m14.8-18.3l-.2.3-3.5 9.4 6.3 6.3 11.4-.3 1.6-10.5 3.5.3 2.6 4.5 3.7.3-.8-12.6-10.2-1.6-2.8 6.6-7.4-3.7zM12.9 11v13.6H5.2v-5.2H2.4"/></svg>