<svg xmlns="http://www.w3.org/2000/svg" id="Layer_1" x="0" y="0" version="1.1" viewBox="0 0 50 50" xml:space="preserve"><style>.st3,.st4{fill:none;stroke:#494949;stroke-linecap:round;stroke-linejoin:round;stroke-miterlimit:10}.st4{fill:#494949}</style><path fill="#00c8e2" d="M5 45.4l41.8-15.2V8.6c0-3-2.4-5.4-5.4-5.4H8.6c-3 0-5.4 2.4-5.4 5.4v32.8c0 1.5.7 3 1.8 4z"/><path fill="#00dffc" d="M45 4.6c-1-.9-2.3-1.4-3.6-1.4H8.6c-3 0-5.4 2.4-5.4 5.4v11.3C3.2 19.8 45 4.6 45 4.6z"/><path fill="#444" d="M25 48.1H8.5c-3.6 0-6.6-3-6.6-6.6v-33c0-3.6 2.9-6.6 6.6-6.6h33.1c3.6 0 6.6 2.9 6.6 6.6v21.7c0 .6-.5 1.2-1.2 1.2s-1.2-.5-1.2-1.2V8.5c0-2.3-1.9-4.2-4.2-4.2H8.5c-2.3 0-4.2 1.9-4.2 4.2v33.1c0 2.3 1.9 4.2 4.2 4.2H25c.6 0 1.2.5 1.2 1.1s-.5 1.2-1.2 1.2c.1 0 0 0 0 0z"/><path d="M18.9 36.6l-5-5c-.6-.6-1-1.5-1-2.3 0-.4.2-1 .4-1.3l4.6-9.5 1 18.1z" class="st3"/><path d="M35.8 19.4l-5-5c-.4-.4-1.3-1-2.1-1-.7 0-1.3.1-1.7.4l-9.1 4.6 17.9 1z" class="st4"/><path d="M24.8 42.5h12v-5.2l-9-2.8-8.2 2.8z" class="st3"/><path d="M17.9 33.9c0 1.5.2 1.9 1 2.7l.8.8h17.1l-8.4-9.5-10.5-9.3v15.3z" class="st4"/><path d="M33.2 18.5H17.9l18.9 18.9h5.1V25.5l-6.1-6.1c-.8-.8-1.6-.9-2.6-.9z" class="st3"/></svg>