<svg xmlns="http://www.w3.org/2000/svg" id="Camada_3" x="0" y="0" version="1.1" viewBox="0 0 50 50" xml:space="preserve"><style>.st2{fill:none;stroke:#444;stroke-linecap:round;stroke-linejoin:round;stroke-miterlimit:10}.st3{fill:#444}</style><path fill="#7ed0d6" d="M28.93 2.44l19 17.36-40.2 14.66-6.63-6.53L9.76 9.86l19.17-7.42"/><path fill="#71bac0" d="M48.09 24.92v-.94l-.16-2.38-3-3.15-2.54-3.72L1.85 30.31l5.46 5.1 5.89 2.99 35.7-12.83z"/><path d="M9.76 9.86l-7.3 15.21c-.26.55-.61 1.51-.61 2.13 0 1.33.58 2.69 1.52 3.65l7.29 7.23" class="st2"/><path d="M39.08 12.11l-8.63-8.63c-.69-.7-2.13-1.52-3.35-1.52-1.05 0-2.07.21-2.74.61l-14.6 7.3" class="st3"/><path d="M9.76 9.86V34.5c0 2.44.31 3.04 1.52 4.26l1.22 1.22 8.21 8.21h19.17v-8.21" class="st3"/><path d="M34.1 9.86H9.76l30.12 30.11h8.21V21.12l-9.73-9.74c-1.37-1.37-2.59-1.52-4.26-1.52z" class="st2"/><path fill="none" stroke="#444" stroke-linecap="round" stroke-linejoin="round" stroke-miterlimit="10" stroke-width="2.5" d="M47.64 20.66l-9.43-9.43-7.91-7.9c-.69-.7-2.13-1.52-3.35-1.52-1.05 0-2.07.21-2.74.61l-14.6 7.3-7.3 15.21c-.26.55-.61 1.52-.61 2.13 0 1.33.58 2.68 1.52 3.65l7.29 7.24c.19.24.4.46.62.67l.3.3.91.91 7.91 7.91.3.3h19.16v-8.21h8.21V20.97l-.28-.31z"/><path fill="#444" stroke="#444" stroke-miterlimit="10" d="M37.79 12.05L9.76 10.72l1.81-1.98 12.49.68z"/></svg>