<svg xmlns="http://www.w3.org/2000/svg" id="Layer_1" x="0" y="0" version="1.1" viewBox="0 0 50 50" xml:space="preserve"><style>.st2{fill:#494949}</style><path fill="#afe55d" d="M7 18.1l6.4 6.4c.4.4 1 .7 1.6.7h.4l3.7-.6 4 4.4 8.7-3.2-7.3-6.8.6-3.6c.1-.7-.1-1.5-.6-2l-1.3-1.3-.5-.5-16.2 6 .5.5z"/><path fill="#c3ff68" d="M7 18.1l16.1-5.9-.5-.5-7.9-7.9c-.4-.4-1-.7-1.6-.7-.2 0-.5 0-.7.1-.7.3-1.3 1-1.4 1.8l-.9 5.1L5 11c-.8.1-1.5.7-1.8 1.5-.2.8 0 1.7.6 2.3l2.8 2.8.4.5z"/><path d="M4.9 13.1c.1-.2.2-.3.4-.4l6.3-1.1 1.1-6.3c0-.2.2-.4.4-.4.2-.1.4 0 .5.1l9.7 9.7c.1.1.2.3.1.5l-.9 5.1-.9-.8.7-4.2-8.7-8.7-1 5.7c0 .2-.2.4-.4.4l-5.7 1 8.7 8.7 4.3-.7.8.9-5.2.9H15c-.1 0-.3-.1-.4-.2L5 13.6c-.2-.2-.2-.4-.1-.5z" class="st2"/><path d="M36.4 39.5c-.8 0-1.6-.4-2.2-1L13.6 16c-.6-.7-.6-1.7.1-2.3.6-.6 1.6-.7 2.3-.1l22.5 20.6c.6.6 1 1.3 1 2.2 0 .8-.3 1.6-.9 2.2-.5.6-1.3.9-2.2.9.1 0 0 0 0 0zM15.3 14.4c-.2-.2-.6-.2-.8 0-.2.2-.2.6 0 .8L35 37.8c.4.4.9.6 1.4.6.5 0 1.1-.2 1.5-.6.4-.4.6-.9.6-1.5 0-.5-.2-1.1-.6-1.4L15.3 14.4z" class="st2"/><path d="M44.6 45.1c.1 0 .3-.1.4-.2.2-.2.2-.5 0-.7l-6.4-6.4c-.2-.2-.5-.2-.7 0-.2.2-.2.5 0 .7l6.4 6.4c.1.2.2.2.3.2zm-11.7-8.2c-.1 0-.3-.1-.4-.2l-1.8-2c-.2-.2-.2-.5 0-.7l3.2-3.2c.2-.2.5-.2.7 0l2 1.8c.1.1.2.2.2.4 0 .1-.1.3-.2.4l-3.4 3.4s-.1.1-.3.1c.1 0 .1 0 0 0zm1.5-5l-2.5 2.5 1.1 1.2 2.6-2.6-1.2-1.1zm-5.4.7c-.1 0-.3-.1-.4-.2l-1.8-2c-.2-.2-.2-.5 0-.7l2.9-2.9c.2-.2.5-.2.7 0l2 1.8c.1.1.2.2.2.4 0 .1-.1.3-.2.4l-3 3c-.1.1-.2.2-.4.2zm1.1-4.7L28 30.1l1.1 1.2 2.2-2.2-1.2-1.2z" class="st2"/><path d="M13.2 3.1c.6 0 1.2.2 1.6.7l9.7 9.7c.5.5.7 1.2.6 2l-.6 3.5 7.3 6.7 4.2 3.8.7.6 3.1 2.9c1 .9 1.5 2.1 1.5 3.4 0 .5-.1 1-.2 1.5l5.2 5.2c.4.4.7 1 .7 1.6 0 .6-.2 1.2-.7 1.6-.4.4-1 .7-1.6.7-.6 0-1.2-.2-1.6-.7L37.9 41c-.4.1-.9.2-1.4.2h-.1c-1.3 0-2.5-.6-3.4-1.5l-2.1-2.3-1.4-1.5-2.9-3.2-1-1.1-2.5-2.7-4-4.4-3.7.6H15c-.6 0-1.2-.2-1.6-.7L7 18.1l-.5-.5-2.8-2.8c-.6-.6-.8-1.5-.6-2.3.4-.8 1.1-1.4 1.9-1.5l5.1-.9L11 5c.1-.8.7-1.5 1.5-1.8.2 0 .5-.1.7-.1m0-2.5c-.5 0-1 .1-1.4.2-1.7.5-3 2-3.2 3.7L7.9 8l-3.3.5c-1.7.3-3.2 1.5-3.7 3.2-.5 1.7-.1 3.6 1.2 4.8l2.8 2.8.5.5 6.4 6.4c.9.9 2.1 1.4 3.4 1.4.3 0 .5 0 .8-.1l2.3-.4 3.1 3.4 2.5 2.7 1 1.1 2.9 3.2L29 39l2.1 2.3c1.4 1.5 3.2 2.3 5.2 2.4h.7l4.3 4.3c.9.9 2.1 1.4 3.4 1.4 1.3 0 2.5-.5 3.4-1.4.9-.9 1.4-2.1 1.4-3.4 0-1.3-.5-2.5-1.4-3.4L43.7 37v-.7c0-2-.9-3.9-2.4-5.2l-3.1-2.8-.7-.6-4.2-3.8-6.3-5.7.4-2.2c.3-1.5-.2-3.1-1.3-4.2L16.5 2c-.9-.9-2.1-1.4-3.3-1.4z" class="st2"/></svg>