<svg xmlns="http://www.w3.org/2000/svg" id="Layer_1" x="0" y="0" version="1.1" viewBox="0 0 50 50" xml:space="preserve"><style>.st2{fill:#444}</style><path fill="#00c8e2" d="M5.5 38.3l5.7 3.3L45 22.9l-.1-7.3c0-1.6-.9-3.2-2.3-4L26.4 2.2c-1.4-.8-3.2-.8-4.6 0L5.5 11.6c-1.4.8-2.3 2.3-2.3 4v18.8c0 1.5.9 3 2.3 3.9z"/><path fill="#00dffc" d="M32.9 6l-6.6-3.9c-1.4-.8-3.2-.8-4.6 0L5.5 11.6c-1.4.8-2.3 2.3-2.3 4l-.3 7.9L32.9 6z"/><path d="M24.1 49.5c-1 0-2-.3-2.9-.8L4.9 39.3c-1.8-1-2.9-3-2.9-5.1V15.5c0-2.1 1.1-4 2.9-5.1L21.1 1c1.8-1 4-1 5.8 0l16.2 9.4c1.8 1 2.9 3 2.9 5.1v13.8c0 .7-.6 1.2-1.2 1.2-.7 0-1.2-.6-1.2-1.2V15.5c0-1.2-.6-2.3-1.7-2.9L25.7 3.2c-1-.6-2.3-.6-3.4 0L6.1 12.6c-1 .6-1.7 1.7-1.7 2.9v18.8c0 1.2.6 2.3 1.7 2.9l16.2 9.4c1 .6 2.3.6 3.4 0l4.5-2.6c.6-.3 1.3-.1 1.7.5.3.6.1 1.3-.5 1.7L27 48.7c-.9.5-1.9.8-2.9.8z" class="st2"/><path d="M24.1 12.8c-7 0-12.7 5.7-12.7 12.7S17 38.2 24.1 38.2s12.7-5.7 12.7-12.7-5.7-12.7-12.7-12.7zm5.5 7.7l-3 6.1c-.3.6-.8 1.1-1.3 1.4l-6.1 3c-.2.1-.4 0-.5-.2-.1-.1-.1-.2 0-.3l3-6.1c.3-.6.8-1.1 1.3-1.4l6.1-3c.2-.1.4 0 .5.2v.3z" class="st2"/><circle cx="24.1" cy="25.5" r="1" class="st2"/><path d="M24.1 14.4c-1.3 0-2.4-1.1-2.4-2.4 0-1.3 1.1-2.4 2.4-2.4 1.3 0 2.4 1.1 2.4 2.4 0 1.3-1.1 2.4-2.4 2.4zm0-3c-.4 0-.6.3-.6.6s.3.6.6.6c.4 0 .6-.3.6-.6 0-.4-.3-.6-.6-.6z" class="st2"/></svg>