<svg xmlns="http://www.w3.org/2000/svg" id="Layer_1" x="0" y="0" version="1.1" viewBox="0 0 50 50" xml:space="preserve"><style>.st2{fill:#031326}</style><path fill="#e589ef" d="M48.6 16.7c0-1.4-.9-2.6-2.3-3L23.6 7 2.2 14.8v9.1l18.6 10.2L48.6 24v-7.3z"/><path fill="#f799ff" d="M6.5 2.1c-.3 0-.6-.1-.9-.1-1.8 0-3.3 1.4-3.3 3.3v10.1l22-8L6.5 2.1z"/><path d="M4.3 39.7c-1.6 0-2.9-1.3-2.9-2.9v-7.7c0-1.6 1.3-2.9 2.9-2.9s2.9 1.3 2.9 2.9v7.7c0 1.6-1.3 2.9-2.9 2.9zm11.5-.3V26.2c0-1.6-1.3-2.9-2.9-2.9S10 24.6 10 26.2v13.3c0 1.6 1.3 2.9 2.9 2.9 1.6-.1 2.9-1.4 2.9-3zm8.5 3v-19c0-1.6-1.3-2.9-2.9-2.9s-2.9 1.3-2.9 2.9v19c0 1.6 1.3 2.9 2.9 2.9s2.9-1.3 2.9-2.9zm8.6 2.7V20.4c0-1.6-1.3-2.9-2.9-2.9s-2.9 1.3-2.9 2.9v24.7c0 1.6 1.3 2.9 2.9 2.9s2.9-1.3 2.9-2.9z" class="st2"/><path d="M44.8 45.5c-.4 0-.8-.1-1.2-.2l-8.2-2.4c-.7-.2-1-.9-.8-1.6s.9-1 1.6-.8l8.2 2.4c1.2.3 2.3-.6 2.3-1.7V16.8c0-.8-.5-1.5-1.3-1.7L6.5 3.7c-1.1-.3-2.3.6-2.3 1.8v18.3c0 .7-.5 1.2-1.2 1.2s-1.2-.6-1.2-1.2V5.5c0-2.4 1.9-4.3 4.3-4.3.4 0 .8.1 1.2.2L46 12.6c1.8.5 3.1 2.2 3.1 4.1v24.4c0 2.5-1.9 4.4-4.3 4.4z" class="st2"/></svg>