<svg xmlns="http://www.w3.org/2000/svg" id="Camada_3" x="0" y="0" version="1.1" viewBox="0 0 50 50" xml:space="preserve"><style>.st2,.st5{fill:none;stroke:#444;stroke-linecap:round;stroke-linejoin:round;stroke-miterlimit:10}.st5{stroke-width:.5}.st6{fill:#444}</style><path fill="#f799ff" d="M36.54 7.43l-9.48 3.44c-.35.19-1.99 2.36-2.21 2.04-1.98-2.96-12.8-11.32-14.64-7.56-1.62 3.31-4.96 6.39-4.95 7.51 0 .1-3.17.17-3.21.27l.18 9.17c-.26.61-.62 1.68 0 1.46L41.12 9.9c0-1.09-2.87-2.42-4.17-2.57a.756.756 0 00-.41.1z"/><path fill="#e589ef" d="M2.23 23.74L1.64 40.7l9.3 1.42 8.55.97 28.22-10.04c.61-.22 1.01-18.12.8-18.74l-7.4-4.41L2.23 23.74z"/><path d="M4.27 13.5h1.98m41.98 18.95l-.05-3.12.22-4.79-.63-9.03c0-1.09-.84-2-1.94-2h-1.98M4.27 13.5c-1.09 0-1.98.89-1.98 1.98v23.75c0 1.09.89 1.98 1.98 1.98H18.3c.53 0 1.03.21 1.4.58l.81.82c.37.37.88.58 1.4.58h6.28c.53 0 1.03-.21 1.4-.58l.82-.82c.37-.37.88-.58 1.4-.58h10.07" class="st2"/><path fill="none" stroke="#444" stroke-linecap="square" stroke-linejoin="round" stroke-miterlimit="10" d="M25.05 16.47c0-3.22 1.84-5.94 5.65-5.94h2.83"/><path d="M43.86 35.67c0 1.09-.89 1.58-1.98 1.58H30.99c-1.92 0-5.2.54-5.94 1.98" class="st2"/><path fill="none" stroke="#444" stroke-linejoin="round" stroke-miterlimit="10" d="M39.9 10.53h1.57a2.38 2.38 0 012.38 2.38v14.44"/><path d="M8.23 10.53c-1.09 0-1.98.89-1.98 1.98v22.76c0 1.09.89 1.98 1.98 1.98h10.89c1.92 0 5.2.54 5.94 1.98" class="st2"/><path d="M25.05 27.83V16.47c0-3.22-1.36-6.46-4.51-7.54l-8.41-3.48c-.92-.38-1.93.29-1.93 1.29v23.31c0 .8.48 1.52 1.22 1.83l9.11 3.77c1.73.68 4.14 1.91 4.51 3.58v-3.9" class="st2"/><path d="M39.9 16.47l-2.97-1.32-2.97 1.32V8.55h5.94z" class="st5"/><circle cx="18.01" cy="24.05" r="3.03" class="st6"/><circle cx="26.74" cy="31.56" r="3.03" class="st6"/><circle cx="33.54" cy="21.87" r="3.03" class="st6"/><circle cx="43.72" cy="31.56" r="3.03" class="st6"/><path d="M10.5 31.03l7.14-7.11 9.1 7.64 6.8-9.69 10.18 9.69 3.73-3.81" class="st5"/><path d="M8.23 10.53h1.98" class="st2"/><path fill="none" stroke="#444" stroke-linecap="round" stroke-linejoin="round" stroke-miterlimit="10" stroke-width="2.5" d="M41.23 41.7l-9.64-.07-1.52 1.76c-.71.51-1.56.79-2.43.78l-5.46-.04a4.086 4.086 0 01-2.87-1.22l-.66-.67-14.79-.23a2.531 2.531 0 01-2.49-2.53l.01-24.38a2.575 2.575 0 012.44-2.52l1.43-.07v-.18c0-1.55 1.23-2.82 2.79-2.86l1.17-.03V6.51c0-1.53 1.53-2.59 2.96-2.06l8.67 3.23c1.77.91 3.25 2.29 4.27 4l.19.83-.06-.62c1.57-1.33 3.5-2.17 5.54-2.43l1.78-.23.25.23c0-1.03.59-2.13 1.62-2.13h4.8c1.03 0 1.87.84 1.87 1.87v0h.55c1.82.02 3.28 1.49 3.28 3.31v0h1.04c1.66 0 2.62 1.42 2.59 3.08l.06 16.85"/></svg>