<svg xmlns="http://www.w3.org/2000/svg" id="Camada_1" x="0" y="0" version="1.1" viewBox="0 0 50 50" xml:space="preserve"><style>.st3{fill:#424242}</style><path fill="#fcc34f" d="M48.1 12.3l.8 5.3L2 34.6l-.5-11-.1-6.4 41-14.8 5.3 2.3z"/><path fill="#fdcf72" d="M46.5 2.5l2.3 3.2L1.1 22.8 2.3 5.3l3-2.9 29.5-.2z"/><path fill="none" stroke="#444" stroke-linecap="round" stroke-linejoin="round" stroke-miterlimit="10" stroke-width="2.5" d="M16.4 46.8H4.9c-1.7 0-3.1-1.4-3.1-3.1V5.6c0-1.7 1.4-3.1 3.1-3.1h40c1.7 0 3.1 1.4 3.1 3.1V27m0-12.1H1.8"/><circle cx="8.8" cy="8.8" r="1.6" class="st3"/><circle cx="13.4" cy="8.8" r="1.6" class="st3"/><circle cx="17.9" cy="8.8" r="1.6" class="st3"/><g fill="none" stroke="#494949" stroke-linecap="round" stroke-linejoin="round" stroke-miterlimit="10"><path d="M16.1 23.2h-2.2L12.8 25l1.1 1.9h2.2l1-1.9zm6.6 9.9h-2.2l-1.1 1.8 1.1 1.9h2.2l1-1.9zm7.5-6.9H28l-1 1.9 1 1.9h2.2l1.1-1.9zm4.3 6.9h-2.2l-1 1.8 1 1.9h2.2l1.1-1.9zM41.8 21h-2.1l-1.1 1.9 1.1 1.8h2.1l1.1-1.8zm3.3 10.2h-2.2l-1.1 1.9 1.1 1.8h2.2l1.1-1.8zm-5.9 11H37l-1 1.9 1 1.8h2.2l1.1-1.8zm-13.3 1.9h-2.2l-1.1 1.8 1.1 1.9h2.2l1.1-1.9z"/><path stroke-width=".5" d="M16.1 26.9l4.4 6.2m3.2 1.8h7.6M30.2 30l2.1 3.1m3.3 1.8l6.2-1.8m-2.1-8.4l-5.2 8.4m0 3.7l2.5 5.4m-4.7-5.4l-6.4 7.3"/></g></svg>