<svg xmlns="http://www.w3.org/2000/svg" id="Camada_3" x="0" y="0" version="1.1" viewBox="0 0 50 50" xml:space="preserve"><style>.st3{fill:none;stroke:#444;stroke-width:.5;stroke-linecap:round;stroke-linejoin:round;stroke-miterlimit:10}</style><path fill="#fcc34f" d="M35.05 10.19l-7.08-4.92c0-1.12-1.88-2.04-3-2.04l-9.96 6.48c-1.12 0-12.84 6.92-12.84 8.04l.32 1.29c.4 1.62 1.98 2.6 3.56 2.34l.08.09c0 2.32-.83 24.16 1.36 23.38l35.76-12.72c-.28-3.34-.26-8.42-.76-11.8l4.69-1.02c.72-3-2.76-3.72-10.53-9.56"/><path fill="none" stroke="#444" stroke-linecap="round" stroke-linejoin="round" stroke-miterlimit="10" stroke-width="2.5" d="M42.9 37.34V20.33h4.5v-3.04L24.71 3.14 2.04 17.22v3.11h4.5v24.53h27.93"/><path fill="none" stroke="#444" stroke-linecap="round" stroke-linejoin="round" stroke-miterlimit="10" d="M12.09 44.31v-19.9h25.26v17.5"/><path d="M16.8 35.91h7.92v7.92H16.8zm7.92 0h7.92v7.92h-7.92zm-4.02-7.98h7.92v7.92H20.7z" class="st3"/><path d="M23.54 27.99v1.68l1.26-.51 1.2.51v-1.62M19.58 36v1.68l1.26-.51 1.2.51v-1.62m5.52-.09v1.68l1.26-.51 1.2.51v-1.62m-4.44-1.32h.51m.72 0h.51m2.46 8.07h.51m.72 0h.51m-9.51 0h.51m.72 0h.51" class="st3"/></svg>