<svg xmlns="http://www.w3.org/2000/svg" id="Layer_1" x="0" y="0" version="1.1" viewBox="0 0 50 50" xml:space="preserve"><style>.st2{stroke-width:.5}.st2,.st3{fill:none;stroke:#444;stroke-linecap:round;stroke-linejoin:round;stroke-miterlimit:10}</style><path fill="#e589ef" d="M27.8 2.4l-3.4-.5c-1.4 0-19.7 17.6-19.7 19l-.6 4.9v9.7l.1 9.1c0 1.6 1.3 2.9 2.9 3l9.5.5 30.6-10.9c.9-.3 1.5-1.2 1.5-2.2l-.6-12.9-7-7.1L34 7.8c.1-1.3-4.8-5.4-6.2-5.4z"/><path fill="none" stroke="#444" stroke-linecap="round" stroke-linejoin="round" stroke-miterlimit="10" stroke-width="2.5" d="M47.8 38.3V23.1c0-1-.4-2-1.2-2.8L28.7 2.6c-1.5-1.5-4-1.5-5.6 0l-17.5 18c-.7.7-1.1 1.7-1.1 2.7V45c0 1.9 1.4 3.4 3.2 3.4h25.6"/><path d="M20.3 34.5c.4 0 .7-.3.7-.7s-.3-.7-.7-.7-.7.3-.7.7.3.7.7.7zm2.2 0c.4 0 .7-.3.7-.7s-.3-.7-.7-.7c-.4 0-.7.3-.7.7s.3.7.7.7zm2.1 0c.4 0 .7-.3.7-.7s-.3-.7-.7-.7c-.4 0-.7.3-.7.7s.4.7.7.7zM20.3 28c-.4 0-.7.3-.7.7 0 .4.3.7.7.7s.7-.3.7-.7c-.1-.4-.4-.7-.7-.7zm2.2 0c-.4 0-.7.3-.7.7 0 .4.3.7.7.7.4 0 .7-.3.7-.7-.1-.4-.4-.7-.7-.7zm2.1 0c-.4 0-.7.3-.7.7 0 .4.3.7.7.7.4 0 .7-.3.7-.7 0-.4-.3-.7-.7-.7zm-4.3-3.8c.4 0 .7-.3.7-.7 0-.4-.3-.7-.7-.7s-.7.3-.7.7c0 .4.3.7.7.7zm2.2 0c.4 0 .7-.3.7-.7 0-.4-.3-.7-.7-.7-.4 0-.7.3-.7.7 0 .4.3.7.7.7zm2.1 0c.4 0 .7-.3.7-.7 0-.4-.3-.7-.7-.7-.4 0-.7.3-.7.7.1.4.4.7.7.7z"/><path d="M7.7 24.6L25.8 5.9l18.8 18.7" class="st2"/><path d="M41 21v17.7H11.4V21" class="st2"/><path d="M17.4 20.5h17.4v5.2H17.4z" class="st3"/><path d="M20.3 23.6c-.2 0-.4-.2-.4-.4s.2-.4.4-.4.4.2.4.4c0 .3-.2.4-.4.4zm2.2 0c-.2 0-.4-.2-.4-.4s.2-.4.4-.4.4.2.4.4c0 .3-.2.4-.4.4zm2.1 0c-.2 0-.4-.2-.4-.4s.2-.4.4-.4.4.2.4.4c0 .3-.2.4-.4.4zm-7.2 2.2h17.4V31H17.4z" class="st3"/><path d="M20.3 29c-.2 0-.4-.2-.4-.4s.2-.4.4-.4.4.2.4.4-.2.4-.4.4zm2.2 0c-.2 0-.4-.2-.4-.4s.2-.4.4-.4.4.2.4.4-.2.4-.4.4zm2.1 0c-.2 0-.4-.2-.4-.4s.2-.4.4-.4.4.2.4.4-.2.4-.4.4zm-7.2 2.1h17.4v5.2H17.4z" class="st3"/><path d="M20.3 34.2c-.2 0-.4-.2-.4-.4s.2-.4.4-.4.4.2.4.4-.2.4-.4.4zm2.2 0c-.2 0-.4-.2-.4-.4s.2-.4.4-.4.4.2.4.4-.2.4-.4.4zm2.1 0c-.2 0-.4-.2-.4-.4s.2-.4.4-.4.4.2.4.4-.2.4-.4.4zm-.7 6.4h4.4V45h-4.4z" class="st3"/><path d="M26.1 36.3v4.1m2.4 2.4h13.2m-31.1 0h13.2" class="st2"/></svg>