<svg xmlns="http://www.w3.org/2000/svg" fill="none" viewBox="0 0 50 50"><g clip-path="url(#clip0_1303_2)"><path fill="#F799FF" d="M34.34 2.72l-7.78-.67c-3.2 0-14.54.27-21.43 10.21l-4.01 10.8L42.17 8.62l-7.83-5.9z"/><path fill="#E589EF" d="M1 22.93l3.96 13.41c.11.36 4.55 5.65 4.86 5.85l5.62 2.97 32.19-11.74c.65-.37 1.7-8.64.75-13.41-.16-.79-2.69-7.49-3.21-8.1l-3-3.51L1 22.93z"/><path stroke="#444" stroke-linecap="round" stroke-linejoin="round" stroke-miterlimit="10" stroke-width="2.5" d="M32.67 47.3c-7.01 2.27-14.98 1.21-21.32-3.56C.99 35.96-1.1 21.26 6.69 10.91"/><path stroke="#444" stroke-linecap="round" stroke-linejoin="round" stroke-miterlimit="10" stroke-width="2.5" d="M6.56 11.08c2.03-2.99 4.73-4.73 4.73-4.73l.66-.54c8.08-5.69 19.24-5.82 27.57.45 10.36 7.78 12.44 22.48 4.65 32.83"/><path stroke="#444" stroke-linecap="round" stroke-linejoin="round" stroke-miterlimit="10" d="M20.87 27.17v1.88c0 1.04-.72 1.88-1.62 1.88-.9 0-1.62-.84-1.62-1.88v-1.88m27.36 0v1.88c0 1.04-.72 1.88-1.62 1.88-.9 0-1.62-.84-1.62-1.88v-1.88m-13.61 3.75v-3.75m0 20.67v-5.35m5.52.36v-3.54m-.28-9.33h.87c.66 0 1.18.53 1.18 1.18v3.26c0 .66-.53 1.18-1.18 1.18h-.87c-.66 0-1.18-.53-1.18-1.18v-3.26a1.17 1.17 0 011.18-1.18zm-9.59 4.07h.87c.66 0 1.18.53 1.18 1.18v3.26c0 .66-.53 1.18-1.18 1.18h-.87c-.66 0-1.18-.53-1.18-1.18v-3.26c0-.65.52-1.18 1.18-1.18zm-5.69 7.43h.87c.66 0 1.18.53 1.18 1.18v3.26c0 .66-.53 1.18-1.18 1.18h-.87c-.66 0-1.18-.53-1.18-1.18v-3.26a1.17 1.17 0 011.18-1.18zm21.37-1.18v-7.5m-25.85 7.92v-7.5m-2.76-2.37v-3.87"/><path stroke="#444" stroke-linejoin="round" stroke-miterlimit="10" d="M41.71 26.63h7.18c.54 0-.84-10.43-3.06-11.57-1.26-.38-3.09-.47-4.22-.25.02-.24.04-.49.04-.73 0-5.31-4.3-9.61-9.61-9.61-4.61 0-8.46 3.25-9.39 7.58a6.03 6.03 0 00-2.44-.52c-2.69 0-4.97 1.77-5.75 4.2a7.987 7.987 0 00-6.99 9.81c.16.65.76 1.09 1.43 1.09h35.74"/></g><defs><clipPath id="clip0_1303_2"><path fill="#fff" d="M0 0h50v50H0z"/></clipPath></defs></svg>