<svg xmlns="http://www.w3.org/2000/svg" id="Camada_1" x="0" y="0" version="1.1" viewBox="0 0 50 50" xml:space="preserve"><style>.st2{fill:#031326}</style><path fill="#a475ef" d="M6.5 38.4l5.7 3.3L45.9 23l-.1-7.3c0-1.6-.9-3.2-2.3-4L27.3 2.3c-1.4-.8-3.2-.8-4.6 0L6.5 11.6c-1.4.8-2.3 2.3-2.3 4v18.8c0 1.6.8 3.1 2.3 4z"/><path fill="#bf94f7" d="M33.9 6.1l-6.6-3.9c-1.4-.8-3.2-.8-4.6 0L6.5 11.6c-1.4.8-2.3 2.3-2.3 4l-.3 7.9 30-17.4z"/><path d="M25 49.6c-1 0-2-.3-2.9-.8L5.8 39.4c-1.8-1-2.9-3-2.9-5.1V15.6c0-2.1 1.1-4 2.9-5.1L22 1.1c1.8-1 4-1 5.8 0L44 10.5c1.8 1 2.9 3 2.9 5.1v13.8c0 .7-.6 1.2-1.2 1.2-.7 0-1.2-.6-1.2-1.2V15.6c0-1.2-.6-2.3-1.7-2.9L26.7 3.3c-1-.6-2.3-.6-3.4 0L7.1 12.7c-1 .6-1.7 1.7-1.7 2.9v18.8c0 1.2.6 2.3 1.7 2.9l16.2 9.4c1 .6 2.3.6 3.4 0l4.5-2.6c.6-.3 1.3-.1 1.7.5.3.6.1 1.3-.5 1.7l-4.5 2.6c-.9.4-1.9.7-2.9.7z" class="st2"/><path d="M29.2 34.6c-.3 0-.6-.2-.7-.5L21.7 16l-3 8.1c-.1.3-.4.5-.7.5h-6.2c-.4 0-.8-.3-.8-.8s.3-.8.8-.8h5.7l3.6-9.5c.1-.3.4-.5.7-.5s.6.2.7.5l6.8 18.1 3-8.1c.1-.3.4-.5.7-.5h6.2c.4 0 .8.3.8.8s-.3.8-.8.8h-5.7l-3.6 9.5c-.1.3-.4.5-.7.5z" class="st2"/></svg>