<svg xmlns="http://www.w3.org/2000/svg" id="Layer_1" x="0" y="0" version="1.1" viewBox="0 0 50 50" xml:space="preserve"><style>.st2{fill:#031326}</style><path fill="#00c8e2" d="M3.1 44.8l45.3-16.4V3c0-.7-1.9-.8-2.5-.8H9.2c-3.3 0-6 .7-6 4V43c-.1 1.8-1.3.7-.1 1.8z"/><path fill="#00dffc" d="M46.9 3c-1.1-1-.5-.6-2-.6H8.1c-3.3 0-6 .7-6 4V19L46.9 3z"/><path d="M48.5 3.3V3c0-.6-.5-1.1-1.1-1.1H2.7c-.7-.1-1.1.4-1.1 1v44c0 .6.4 1.1 1.1 1.1h42.1c.6 0 1.1-.5 1.1-1.1 0-.6-.5-1.1-1.1-1.1h-15v-6.7c0-2.4-1.1-3.4-3.1-4.1-.8-.3-2.8-1.1-4.9-1.9.7-1.1 1.2-2.5 1.2-3.9 0-4-3.3-7.3-7.3-7.3s-7.3 3.3-7.3 7.3c0 1.5.4 2.8 1.2 3.9-2.1.8-4.2 1.6-4.9 1.9-.4 0-.7.2-.9.3V4h42.3l-8.6 11.3h-8.2c-.2 0-.4.1-.6.3L24 21.4c-.3.3-.2.8.1 1.1.1.1.3.2.5.2s.4-.1.6-.3l4.4-5.5h8.2c.2 0 .5-.1.6-.3l9.8-12.8c.1-.2.2-.3.3-.5zM15.7 24c2.8 0 5.1 2.3 5.1 5.1s-2.3 5.1-5.1 5.1-5.1-2.3-5.1-5.1 2.3-5.1 5.1-5.1zM5.5 37c.8-.3 3.3-1.3 5.7-2.2 1.2 1 2.8 1.6 4.5 1.6s3.3-.6 4.5-1.6c2.4.9 4.9 1.9 5.7 2.2 1.6.6 1.7.9 1.7 2.1v6.7h-4.3v-4.4c0-.6-.5-1.1-1.1-1.1-.6 0-1.1.5-1.1 1.1v4.4H10.3v-4.4c0-.6-.5-1.1-1.1-1.1s-1.1.5-1.1 1.1v4.4H3.8V39c0-1.1.1-1.4 1.7-2z" class="st2"/><path d="M47.3 22h-6.5c-.4 0-.8.3-.8.8s.3.8.8.8h6.5c.4 0 .8-.3.8-.8s-.3-.8-.8-.8zm0 7.2h-6.5c-.4 0-.8.3-.8.8s.3.8.8.8h6.5c.4 0 .8-.3.8-.8s-.3-.8-.8-.8zm0 7.2h-6.5c-.4 0-.8.3-.8.8s.3.8.8.8h6.5c.4 0 .8-.3.8-.8s-.3-.8-.8-.8z" class="st2"/></svg>