<svg xmlns="http://www.w3.org/2000/svg" id="Camada_3" x="0" y="0" version="1.1" viewBox="0 0 50 50" xml:space="preserve"><style>.st3{fill:none;stroke:#444;stroke-linecap:round;stroke-linejoin:round;stroke-miterlimit:10}</style><path fill="#b9d7d9" d="M29.84 4.38l-4.35-2.84c-3.2 0-23.07 8.94-23.07 12.14l-.53 7.8L37.51 8.81l-7.67-4.43z"/><path fill="#a6c1c2" d="M1.89 21.48l.53 15.13 11.5 7.56 31.02-11.04c.74-.42-.82-18.75-1.8-20.74L37.51 8.8 1.89 21.48z"/><path fill="none" stroke="#444" stroke-linecap="round" stroke-linejoin="round" stroke-miterlimit="10" stroke-width="2.5" d="M44.51 33.99V16.01a5.48 5.48 0 00-2.74-4.74L26.2 2.28a5.456 5.456 0 00-5.47 0L5.16 11.27a5.46 5.46 0 00-2.74 4.74v17.98a5.48 5.48 0 002.74 4.74l15.57 8.99c1.69.98 3.78.98 5.47 0l2.2-1.27 1.42-.82"/><path d="M16.24 31.69H7.99c-1.15 0-2.07-.93-2.07-2.07V15.91c0-1.15.93-2.07 2.07-2.07h21.46c1.15 0 2.29.84 2.29 1.99" class="st3"/><path d="M15.9 29.17H9.02c-.34 0-.62-.28-.62-.62V16.98c0-.34.28-.62.62-.62h15.39" class="st3"/><path d="M42.12 28.65c0-6.37-4.54-11.68-10.57-12.87-.82-.16-1.68-.25-2.55-.25-7.24 0-13.12 5.87-13.12 13.12 0 1.05.12 2.07.36 3.05 1.37 5.77 6.57 10.07 12.76 10.07 7.24-.01 13.12-5.88 13.12-13.12zm-2.47 10.6l-1.36-1.36" class="st3"/><path fill="none" stroke="#444" stroke-linecap="round" stroke-linejoin="round" stroke-miterlimit="10" stroke-width="4" d="M46.75 46.39l-6.48-6.48"/><path fill="#444" d="M21.63 29.32h3.49v7.74h-3.49zm5.63-3.31h3.49v11.06h-3.49zm5.62-5.78h3.49v16.83h-3.49z"/><path d="M10.57 31.69l-2.17 2.9h2.17l2.27-2.9" class="st3"/></svg>