<svg xmlns="http://www.w3.org/2000/svg" viewBox="0 0 50 50"><path fill="#dc5e82" d="M47.3 20c-.2-.8-2.7-7.5-3.2-8.1l-3-3.5-.2.1-7.6-5.7-7.8-.8c-3.2 0-12.8-.7-21.2 11.6l-2.9 7.9.5 2L3.7 35c.1.4 4.7 7 5.1 7.2l5.6 3 32.2-11.7c.6-.5 1.7-8.7.7-13.5z"/><path fill="none" stroke="#444" stroke-linecap="round" stroke-linejoin="round" stroke-miterlimit="10" stroke-width="2.5" d="M27.6 47.6C15 49.1 3.5 40.2 1.9 27.5S9.3 3.4 22 1.9 46.1 9.3 47.7 22c.6 5.1-.5 10-2.8 14.1"/><path fill="none" fill-rule="evenodd" stroke="#444" stroke-miterlimit="10" d="M9.1 25.7s.2-15.6 8.6-15.6 8.9 16.2 8.9 16.2 1.2 15.4 8.5 15.4 8.9-16 8.9-16H9.1zm37 0H6" clip-rule="evenodd"/><path fill="none" fill-rule="evenodd" stroke="#444" stroke-miterlimit="10" stroke-width=".5" d="M21.1 8.3s7.2 2.9 7.2 14.8m3.6 20s-7.2-2.9-7.2-14.8" clip-rule="evenodd"/></svg>