<svg xmlns="http://www.w3.org/2000/svg" id="Layer_1" x="0" y="0" version="1.1" viewBox="0 0 50 50" xml:space="preserve"><style>.st2{fill:#031326}</style><path fill="#00c8e2" d="M36.2 28.8L7.3 39.3l-2.2-8.9 34-12.2-4.9 6.1z"/><path fill="#00dffc" d="M39.1 18.2L6.2 30.4l3.2-8.1 9.3-4.4 7.4.3 4.7-4.3 4-.8z"/><path d="M11 46.1c-.3 0-.6-.1-.8-.3-3.7-3.3-5.8-7.9-5.8-12.7 0-9.3 7.6-16.9 16.9-16.9S38 23.8 38 33.1c0 .7-.6 1.2-1.2 1.2s-1.2-.6-1.2-1.2c0-7.9-6.4-14.4-14.3-14.4S6.9 25.1 6.9 33.1c0 4.1 1.8 8.1 5 10.9.5.5.6 1.2.1 1.8-.3.2-.7.3-1 .3z" class="st2"/><path d="M33.8 24.4c-.6 0-1.2-.5-1.2-1.1-.1-.7.4-1.3 1.1-1.4 2-.2 3.5-2 3.3-4s-2-3.5-4-3.3c-1 .1-1.9.6-2.5 1.4-.6.8-.9 1.7-.8 2.7.1.7-.4 1.3-1.1 1.4s-1.3-.4-1.4-1.1c-.2-1.6.3-3.2 1.4-4.5 1-1.3 2.5-2.1 4.2-2.2 3.4-.4 6.4 2.1 6.8 5.5.4 3.4-2.1 6.4-5.5 6.8-.2-.3-.3-.2-.3-.2zm-25.6.2h-.1c-3.4-.4-5.8-3.4-5.5-6.8.1-1.6.9-3.1 2.2-4.2s2.9-1.5 4.5-1.4c3.4.4 5.9 3.4 5.5 6.8-.1.7-.7 1.2-1.4 1.1s-1.2-.7-1.1-1.4c.2-2-1.3-3.8-3.3-4-1-.1-1.9.2-2.6.8-.8.7-1.3 1.5-1.4 2.5-.2 2.1 1.3 3.8 3.3 4.1.7.1 1.2.7 1.1 1.4 0 .6-.6 1.1-1.2 1.1zm13 24.8c-5.2 0-9.5-4.2-9.5-9.5 0-5.2 4.2-9.4 9.5-9.4s9.5 4.2 9.5 9.4c0 5.3-4.3 9.5-9.5 9.5zm0-17.3c-4.4 0-8 3.6-8 7.9 0 4.4 3.6 8 8 8s8-3.6 8-8-3.6-7.9-8-7.9z" class="st2"/><path d="M21.2 40.6c-2.3 0-4.6-.8-4.6-2.4 0-3.1 9.1-3.1 9.1 0 .1 1.5-2.2 2.4-4.5 2.4zm0-3.2c-1.9 0-3 .6-3.1.9.1.2 1.1.8 3.1.8s3-.6 3.1-.9c-.1-.2-1.2-.8-3.1-.8zM18.4 44c-.8 0-1.7-.1-2.8-.5-.4-.1-.6-.5-.5-.9s.5-.6.9-.5c2.3.7 3.3.4 4.6-.1.4-.1.8.1 1 .5.1.4-.1.8-.5 1-.7.2-1.5.5-2.7.5z" class="st2"/><path d="M23.9 44c-.8 0-1.7-.1-2.8-.5-.4-.1-.6-.5-.5-.9s.5-.6.9-.5c2.3.7 3.3.4 4.6-.1.4-.1.8.1 1 .5.1.4-.1.8-.5 1-.7.2-1.5.5-2.7.5z" class="st2"/><path d="M21.1 43.4c-.4 0-.8-.3-.8-.8v-2.4c0-.4.3-.8.8-.8s.8.3.8.8v2.4c0 .4-.4.8-.8.8zm6.6-17H14.5c-.4 0-.8-.3-.8-.8s.3-.8.8-.8h12.6l14-14.9 4-7.6c.2-.4.6-.5 1-.3s.5.6.3 1l-4.2 8-14.5 15.4z" class="st2"/><circle cx="45.9" cy="2.4" r="2.3" class="st2"/><circle cx="27.3" cy="25.5" r="2.3" class="st2"/><circle cx="14.4" cy="25.5" r="2.3" class="st2"/><circle cx="41.5" cy="10.2" r="2.3" class="st2"/></svg>