<svg xmlns="http://www.w3.org/2000/svg" id="Camada_3" x="0" y="0" version="1.1" viewBox="0 0 50 50" xml:space="preserve"><style>.st2{fill:#444}</style><path fill="#b9d7d9" d="M47.28 17.63l-.72-1.34-.84-5.88-3.4-1.08H25l-12.04 3.95-9.58 3.82-.66 16.56v6.02H1.07a.82.82 0 00-.82.83v2.47c0 .29.04.57.11.84.17.66.53 1.23 1.02 1.65l2.33-.84 9.16-3.3 4.6-1.65 14.94-5.38 1.65-.6 1.73-.62 4.6-1.65 4.57-1.64 1.47-.53.11-.51c0-.46.45-1.44 0-1.44l.72-2.47v-7.21z"/><path fill="#a6c1c2" d="M46.47 34.95c.46 0 .27-1.25.27-1.71l-.29-3.99.46-8.07L3.57 36.6l.15 3.48-2.88.18c.17.66.05 4.78.55 5.21.58.51 1.33.82 2.16.82l11.94-.2"/><path d="M30.65 5.21a3.403 3.403 0 00-1.79 4.47c.31.72.85 1.27 1.48 1.62l-3.63 9.09c-.61-.17-1.25-.16-1.86-.01l-1.56-4.69c.42-.2.78-.53 1.01-.98.54-1.07.11-2.38-.97-2.92a2.18 2.18 0 00-2.92.97c-.54 1.08-.1 2.38.97 2.92.45.23.93.27 1.39.18l1.55 4.69c-.48.19-.92.49-1.29.89l-7.84-5.88c.36-.64.54-1.38.42-2.16-.27-1.86-1.99-3.16-3.85-2.89a3.409 3.409 0 00-2.89 3.86c.27 1.86 1.99 3.16 3.85 2.89.78-.11 1.45-.49 1.95-1.01l7.84 5.88c-.23.39-.38.81-.45 1.25l-7.61-.87c0-.32-.07-.64-.27-.92-.52-.71-1.51-.87-2.22-.35-.71.52-.87 1.51-.35 2.22.51.71 1.51.87 2.22.35.32-.23.5-.56.59-.91l7.59.87c-.05.76.14 1.52.55 2.17l-7.71 6.03c-.52-.51-1.2-.88-1.98-.97a3.395 3.395 0 00-3.79 2.97 3.395 3.395 0 002.97 3.79c1.87.23 3.57-1.1 3.79-2.97.1-.78-.09-1.53-.47-2.15l7.72-6.04c.12.13.25.25.39.36.08.06.17.1.25.16L20 34.06c-.41-.16-.88-.2-1.35-.08a2.173 2.173 0 102.66 1.54c-.14-.51-.44-.92-.84-1.2l3.73-6.93c.37.17.76.26 1.16.3l-.15 2.62c-.34.02-.68.13-.95.37-.66.58-.72 1.59-.13 2.25.58.66 1.59.71 2.25.13.66-.58.72-1.59.13-2.25-.24-.27-.56-.42-.9-.48l.16-2.63c.44-.01.87-.08 1.28-.24l3.03 7.07c-.28.16-.52.38-.66.7-.36.8-.01 1.74.8 2.1a1.59 1.59 0 001.3-2.9c-.36-.16-.73-.16-1.08-.06L27.4 27.3c.3-.15.59-.34.84-.58l7.43 6.37c-.4.61-.62 1.34-.56 2.13a3.404 3.404 0 003.65 3.14 3.413 3.413 0 003.14-3.66 3.414 3.414 0 00-3.66-3.14c-.78.06-1.48.39-2.02.88l-7.44-6.37c.47-.71.68-1.52.63-2.31l4.86-.68c.12.45.38.87.78 1.17.96.73 2.32.54 3.05-.42.72-.96.53-2.32-.42-3.05-.96-.72-2.32-.53-3.04.42-.3.4-.44.87-.43 1.34l-4.86.68c-.11-.52-.33-1.01-.66-1.45l7.02-5.88c.23.22.52.39.86.43.87.11 1.67-.5 1.78-1.38.11-.87-.5-1.67-1.38-1.78-.87-.11-1.67.51-1.78 1.38-.05.38.06.74.25 1.04l-7.02 5.87c-.14-.15-.3-.3-.47-.44-.15-.12-.32-.2-.48-.29l3.64-9.1c.71.18 1.47.16 2.2-.15A3.403 3.403 0 0035.1 7c-.72-1.72-2.72-2.53-4.45-1.79z" class="st2"/><path d="M48.93 39.68h-1.65V26.03h.01V12.45c0-2.28-1.85-4.12-4.13-4.13H6.85c-2.28 0-4.12 1.85-4.13 4.13v27.23H1.07a.82.82 0 00-.82.83v2.47c0 .29.04.57.11.84.17.66.53 1.23 1.02 1.65.58.51 1.33.82 2.16.82h42.9c1.83 0 3.3-1.48 3.3-3.31V40.5a.803.803 0 00-.81-.82zM4.37 26.03V12.45a2.48 2.48 0 012.48-2.48h36.32a2.48 2.48 0 012.48 2.48v27.22H44V13.28h.01c0-.91-.74-1.65-1.65-1.65H7.67c-.87 0-1.57.67-1.64 1.52h-.01v26.53H4.37V26.03zm3.31 7.48V13.28h34.65v26.4H30.05c-.88 0-1.69.5-2.08 1.28a.65.65 0 01-.59.37h-4.76c-.25 0-.49-.14-.6-.37a2.287 2.287 0 00-2.07-1.28H7.68v-6.17zm40.42 9.47c0 .91-.74 1.65-1.65 1.65H3.55c-.82 0-1.5-.6-1.62-1.38-.02-.09-.03-.19-.03-.28v-1.64h18.06c.25 0 .49.14.6.36.38.8 1.19 1.29 2.07 1.28h4.76c.88.01 1.69-.49 2.08-1.28a.66.66 0 01.59-.36H48.1v1.65z" class="st2"/></svg>