<svg xmlns="http://www.w3.org/2000/svg" id="Camada_1" x="0" y="0" version="1.1" viewBox="0 0 42 48" xml:space="preserve"><style>.st2{fill:#031326}</style><path fill="#afe55d" d="M38.5 28.9v4.7l-35 12.7-.3-11.1v-3l35.3-12.8z"/><path fill="#c3ff68" d="M38.5 17.3l-.5 2.4L3.2 32.4v-7.1l35.7-13z"/><path d="M39.4 11.9c0-.2-.1-.3-.2-.5l-.1-.1-.1-.1L25.7 0h-.1l-.1-.1c-.1-.1-.3-.1-.4-.2H2.8C2.1-.3 1.6.3 1.6.9V46c0 .7.6 1.2 1.2 1.2h23.6c.7 0 1.2-.6 1.2-1.2s-.6-1.2-1.2-1.2H4.1V2.2h19.6v10c0 .7.6 1.2 1.2 1.2h12v21c0 .7.6 1.2 1.2 1.2.7 0 1.2-.6 1.2-1.2V12.2c.1-.1.1-.2.1-.3zm-13.2-1V3.6l8.6 7.3h-8.6z" class="st2" transform="translate(.5 .5)"/><path d="M31.6 19.9H10.4c-.4 0-.8.3-.8.8v18.9c0 .4.3.8.8.8h21.2c.4 0 .8-.3.8-.8V20.7c0-.5-.4-.8-.8-.8zm-20.5 1.5h9.1v4.8h-9.1v-4.8zm0 6.3s.1 0 0 0h9.1v4.8h-9.1v-4.8zm0 11.1V34h9.1v4.8h-9.1zm19.8 0h-9.1V34h9.1v4.8zm0-6.3h-9.1v-4.8h9.1v4.8zm0-6.3h-9.1v-4.8h9.1v4.8z" class="st2"/></svg>