<svg xmlns="http://www.w3.org/2000/svg" id="Camada_3" x="0" y="0" version="1.1" viewBox="0 0 50 50" xml:space="preserve"><style>.st3{fill:#444}</style><path fill="#71bac0" d="M45.93 22.52L3.96 37.66l.2-13.06-.38-4.57 26.23-9.54 15.18-3.56.92 8.55z"/><path fill="#7ed0d6" d="M45.19 6.93L4.27 21.69l.49-9.71-.87-.26 1.36-8.65 38.74-.12 2.23 4.21z"/><path fill="none" stroke="#444" stroke-linecap="round" stroke-linejoin="round" stroke-miterlimit="10" stroke-width="2.5" d="M3.84 43.97V5.6c0-1.65 1.34-2.98 2.98-2.98h35.81c1.65 0 2.98 1.34 2.98 2.98v38.8c0 1.65-1.34 2.98-2.98 2.98h-5.49M3.84 10.57h41.78"/><path d="M38.3 35.12c-.28-.16-.57-.23-.86-.29l.01-8.4c.77-.13 1.47-.57 1.9-1.3.77-1.32.31-3.02-1.01-3.78-1.16-.67-2.57-.35-3.43.62l-7.26-4.2c.42-1.23-.02-2.61-1.18-3.28a2.762 2.762 0 00-3.78 1.01c-.4.69-.45 1.49-.23 2.2l-7.34 4.23c-.19-.22-.41-.45-.68-.6a2.775 2.775 0 00-3.78 1.01 2.77 2.77 0 001.01 3.78c.27.16.57.24.85.29v8.47c-.72.17-1.39.6-1.8 1.3a2.77 2.77 0 001.02 3.78c1.16.67 2.57.36 3.43-.62l7.26 4.2c-.41 1.24.02 2.61 1.18 3.27 1.33.77 3.02.31 3.78-1 .42-.73.45-1.56.18-2.3l7.28-4.2c.2.22.41.44.68.6 1.32.77 3.02.32 3.78-1.01.77-1.33.32-3.02-1.01-3.78zm-1.9-.29c-.75.15-1.45.58-1.87 1.3-.42.72-.44 1.54-.19 2.28l-7.29 4.2c-.19-.22-.39-.43-.67-.59-1.16-.67-2.57-.36-3.43.62l-7.26-4.2c.42-1.24-.02-2.61-1.17-3.28-.3-.18-.62-.27-.96-.33l.01-8.43c.77-.15 1.46-.59 1.88-1.31.42-.72.45-1.54.2-2.27l7.3-4.22c.22.26.45.5.76.67 1.16.67 2.57.36 3.43-.62l7.27 4.2c-.42 1.23.02 2.61 1.17 3.28.28.16.56.23.85.28l-.03 8.42z" class="st3"/><circle cx="37.22" cy="6.64" r="1.29" class="st3"/><circle cx="40.91" cy="6.64" r="1.29" class="st3"/><circle cx="33.43" cy="6.64" r="1.29" class="st3"/></svg>