<svg xmlns="http://www.w3.org/2000/svg" id="Camada_3" x="0" y="0" version="1.1" viewBox="0 0 50 50" xml:space="preserve"><style>.st2{fill:none;stroke:#444;stroke-linecap:round;stroke-linejoin:round;stroke-miterlimit:10}</style><path fill="#ff6b6b" d="M35.07 6.82l-10.15-4.3L1.4 13.66v8.35L37.57 9.14z"/><path fill="#e56060" d="M2.28 21.69L7.15 25l-5.04 4.26.18 6.87 14.61 8.66 29.65-10.55c1.09-.39.51-4.69-.25-5.56l-6.18-3.41L46.7 21l-.11-7.35-9.01-4.53-35.3 12.57z"/><g id="g50" transform="translate(1.054 18.824) scale(.75294)"><path id="path2_00000112632851855361595310000014725478931883830184_" d="M58.42 13.1l-9.7-4.95 9.7-5.08V-6.1l-.07.07-27.43-14.19L3.49-6.1h-.06v9.17l9.7 5.08-9.7 4.95" class="st2"/><path id="path2_00000145024438423019065950000009481182377421984413_" d="M3.43 13.1v9.17" class="st2"/><path id="polygon4" d="M3.43 13.1l27.49 14.39 27.5-14.39-9.7-4.95-17.8 9.3-17.79-9.3z" class="st2"/><path id="polygon6" d="M58.42-6.03L30.92 8.35 3.43-6.03l27.49-14.19z" class="st2"/></g><path fill="none" stroke="#444" stroke-linecap="round" stroke-linejoin="round" stroke-miterlimit="10" stroke-width="2.5" d="M34.02 43.03l-9.68 5.07L2.28 36.13v-7.96l6.32-3.21-6.32-3.27v-8.53L24.34 1.9l22.2 11.31v8.12l-6.99 3.7 6.99 3.07v8.08l-3.4 1.85"/></svg>