<svg xmlns="http://www.w3.org/2000/svg" viewBox="0 0 50 50"><path fill="#00c8e2" d="M40.5 22.4l-31 11.3V16.5l15.3-9 15.7 8.2z"/><path fill="#00dffc" d="M38.1 14.1L9.5 24.6v-8.9l15.3-8.2z"/><g fill="#031326"><path d="M47.9 12c-.3-.6-1.1-.9-1.7-.6l-5.6 2.8-14.3-7.1V1.7c0-.7-.6-1.3-1.3-1.3s-1.3.6-1.3 1.3v5.4L9.5 14.3l-5.6-2.8c-.6-.3-1.4-.1-1.7.6-.3.6-.1 1.4.6 1.7l5.5 2.8v17.1l-5.5 2.8c-.8.1-1 .9-.7 1.5.2.4.7.7 1.1.7.2 0 .4 0 .6-.1l5.6-2.8 14.3 7.1v5.4c0 .7.6 1.3 1.3 1.3s1.3-.6 1.3-1.3v-5.4l7.6-3.3c.6-.3.9-1 .7-1.7-.3-.6-1-.9-1.7-.7L25 40.7l-14.3-7.2v-17L25 9.3l14.3 7.1v10.1c0 .7.6 1.3 1.3 1.3s1.3-.6 1.3-1.3v-10l5.5-2.8c.6-.3.8-1.1.5-1.7z"/><path d="M16.8 19.1v12.6c0 2.1 4.3 3 8.2 3 4 0 8.2-1 8.2-3V19.1c0-2.1-4.3-3-8.2-3-4-.1-8.2.9-8.2 3zm14.9 6.3c-.1.5-2.5 1.5-6.7 1.5s-6.6-1.1-6.7-1.5V21c1.6.8 4.2 1.2 6.7 1.2s5.1-.4 6.7-1.2zm0-6.3c-.1.5-2.5 1.5-6.7 1.5s-6.6-1.1-6.7-1.5c.1-.5 2.5-1.5 6.7-1.5 4.2-.1 6.6 1 6.7 1.5z"/></g></svg>