<svg xmlns="http://www.w3.org/2000/svg" id="Camada_3" x="0" y="0" version="1.1" viewBox="0 0 50 50" xml:space="preserve"><style>.st2,.st4{fill:none;stroke:#444;stroke-linecap:round;stroke-linejoin:round;stroke-miterlimit:7.5294}.st4{stroke-width:.25}.st9{fill:none;stroke:#444;stroke-linecap:round;stroke-linejoin:round;stroke-miterlimit:10;stroke-width:.75}</style><path fill="#fdce74" d="M36.9 6.4L26.7 2.1l-21.1 10 .6-1.3v8.3l.5 1.2L39.4 8.7z"/><path fill="#fbc14f" d="M12.5 22.7l-5 3.7v4.2l-1.2 7.6 12.5 6.1 27.6-9.8-.3-4.5c1.1-.4-7.9-4.4-8.7-5.3l3-3 5.7-2.8-1-7.5-5.6-2.8L7.5 20l5 2.7z"/><path id="path2_00000115506135529892598590000003648835090929837731_" d="M7.5 31.8V38l6.6 3.4" class="st2"/><path id="polygon4_00000098927819174986856570000007857034322774684072_" d="M38.2 41.2l-12 6.3-12.1-6.2" class="st2"/><path id="polygon6_00000124867591641666370760000002113498090404472232_" fill="none" stroke="#444" stroke-linejoin="round" stroke-miterlimit="7.529" d="M44.7 31.5l-18.6 9.9-18.6-9.6 1.1-.6"/><path id="path2_00000108268156422903578880000009309716223392517020_" d="M38.2 21.9l6.5-3.5v-6.2L26 2.7 7.6 12.5v6.2l6.6 3.4" class="st2"/><path id="polygon4_00000079462159775642902670000018344687523315838908_" d="M38.2 21.9l-12 6.3L14.1 22" class="st2"/><path id="polygon6_00000152963173077019299820000015034614361491353730_" d="M26 2.7l18.7 9.5-18.5 9.9-18.7-9.6z" class="st2"/><path d="M39.6 29.5v-3.1l-16.3 8.7v4.4" class="st4"/><path d="M42.3 32.5V28l-16.2 8.7v4.4m10.7-13.2v-3.2l-16.3 8.7v5.1m4.7-10.8L17.3 32v4.4m16.3-10v-2.1" class="st4"/><path d="M22.2 26.2l-7.4 4v5.3" class="st4"/><path d="M19 24.7l-7 3.7v5.7m4.2-11L8.8 27v5.4" class="st4"/><path fill="none" stroke="#444" stroke-linejoin="round" stroke-miterlimit="7.529" stroke-width=".5" d="M8.2 30.9l.6-.3"/><path fill="#444" d="M33.4 26.5l-.1-.1-1.1-.5-.5-.3.9-1.1 1.2.6 1 .5.2.1m1.5 2.4l1.5-.9-.2-.1-.9-.4v1zm3.1-.1l.2.1 1 .5.2.1-1.5.9.1-.2m2.8.1l2.6 1.3-.7 1.3-1.8-.9"/><path fill="none" stroke="#444" stroke-linecap="round" stroke-linejoin="round" stroke-miterlimit="10" stroke-width="2.5" d="M38.2 41.9l-12 6.5-20-10.2.1-6.5 1.2-.8v-4.5l6.3-3.5-7.3-3.6-.1-7.6L25.9 1.4l20 9.9V19l-8.6 4.7m8.6 11.5v-5.1"/><path fill="none" stroke="#444" stroke-linecap="round" stroke-linejoin="round" stroke-miterlimit="10" d="M13.6 23.2H15m21 .2l-1 .3 1.2.8-1 .6.4-.3-1.2-.5-.9 1 1.4-.1 1.7-.9"/><path d="M38.3 26.2l-.6-.2-.2-.6 1.8.8-1.3.8-.8-.2.6-.1-.7-.7.2-1.2 8.9 4.3s.7.3.6 1" class="st9"/><path d="M39.9 28.1v-1.3l-.1-.5 1.4 1-.7.2-.2-.3v1.1l.4.2 1.5-.7-.6-.4-.8.6 1.7-.6.2.7v1.6l.7.3v-1.8l.8.3-.2 1.8.7.5.1-2 .7.5-.3 2.3" class="st9"/></svg>