<svg xmlns="http://www.w3.org/2000/svg" id="Layer_1" x="0" y="0" version="1.1" viewBox="0 0 50 50" xml:space="preserve"><style>.st2{fill:#031326}.st3{fill:none}</style><path fill="#afe55d" d="M46.7 1.3v12.8l-11.4 5.5L3.3 35V1.3z"/><path fill="#c3ff68" d="M40.1 1.3l-9.3 4.5L3.3 19V1.3z"/><path d="M18.3 49.9c-.3 0-.6-.1-.9-.4-.5-.5-.5-1.3 0-1.7l6.3-6.3c.5-.5 1.3-.5 1.7 0s.5 1.3 0 1.7l-6.3 6.3c-.1.3-.5.4-.8.4z" class="st2"/><path d="M30.5 45.6c-5 0-9.1-4.1-9.1-9.1s4.1-9.1 9.1-9.1 9.1 4.1 9.1 9.1-4.1 9.1-9.1 9.1zm0-16.7c-4.2 0-7.6 3.4-7.6 7.6s3.4 7.6 7.6 7.6 7.6-3.4 7.6-7.6-3.4-7.6-7.6-7.6z" class="st2"/><path d="M25.2 15.8c0-2.8 2.1-5.2 4.8-5.5V2.6H4.5V24l9.9-8.8c.3-.3.7-.2 1 0l6.8 6.8 3.9-3.3c-.6-.8-.9-1.8-.9-2.9z" class="st3"/><circle cx="30.8" cy="15.8" r="3.1" class="st3"/><path d="M31.5 2.6v7.7c2.7.4 4.8 2.7 4.8 5.5 0 1.1-.3 2.1-.9 3l3.9 3.3 6.1-6.1V2.6H31.5z" class="st3"/><path d="M30.5 27.4c5 0 9.1 4.1 9.1 9.1 0 .4 0 .9-.1 1.3h6V18.1L40 23.6c-.1.1-.3.2-.5.2s-.3-.1-.5-.2l-4.5-3.7c-1 .9-2.3 1.5-3.8 1.5s-2.7-.6-3.7-1.5l-4.5 3.7c-.3.2-.7.2-1 0l-6.8-6.8L4.5 26v11.8h17c-.1-.4-.1-.8-.1-1.3 0-5 4.1-9.1 9.1-9.1z" class="st3"/><path d="M46.7.1H3.3C2.6.1 2 .7 2 1.3V39c0 .7.6 1.2 1.2 1.2h18.9c-.3-.8-.6-1.6-.7-2.5h-17V26l10.3-9.2 6.8 6.8c.3.3.7.3 1 0l4.5-3.7c1 .9 2.3 1.5 3.8 1.5s2.8-.6 3.8-1.5l4.5 3.7c.1.1.3.2.5.2s.4-.1.5-.2l5.5-5.5v19.7h-6c-.1.9-.4 1.7-.7 2.5h7.9c.7 0 1.2-.6 1.2-1.2V1.3c0-.6-.6-1.2-1.3-1.2zm-24.6 22l-6.8-6.8c-.3-.3-.7-.3-1 0L4.5 24V2.6h25.6v7.7c-2.7.4-4.8 2.7-4.8 5.5 0 1.1.3 2.1.9 3l-4.1 3.3zm8.7-3.2c-1.7 0-3.1-1.4-3.1-3.1s1.4-3.1 3.1-3.1c1.7 0 3.1 1.4 3.1 3.1s-1.4 3.1-3.1 3.1zm8.6 3.2l-3.9-3.3c.5-.9.9-1.9.9-3 0-2.8-2.1-5.2-4.8-5.5V2.6h14V16l-6.2 6.1z" class="st2"/><path d="M39.6 36.5c0-5-4.1-9.1-9.1-9.1s-9.1 4.1-9.1 9.1c0 .4 0 .9.1 1.3.1.9.4 1.7.7 2.5 1.4 3.2 4.6 5.4 8.3 5.4 3.7 0 6.9-2.2 8.3-5.4.3-.8.6-1.6.7-2.5.1-.4.1-.9.1-1.3z" class="st2"/></svg>