<svg xmlns="http://www.w3.org/2000/svg" id="Camada_3" x="0" y="0" version="1.1" viewBox="0 0 50 50" xml:space="preserve"><style>.st2{fill:none;stroke:#444;stroke-width:.5;stroke-linecap:round;stroke-linejoin:round;stroke-miterlimit:10}.st5{fill:#444}.st6{fill:none;stroke:#444;stroke-linecap:round;stroke-linejoin:round}</style><path fill="#00dffc" d="M5.3 32l-3.7 7.8c0 5 5.4 3.7 19.7 3.3l25.2-8.9-.2-21.8-1.1-2C45 9.4 43.7 9 42.6 9l-34.9.2c-1.1 0-3 2.4-3 3.5v11.9"/><path fill="none" stroke="#444" stroke-linecap="round" stroke-linejoin="round" stroke-miterlimit="10" stroke-width="2.5" d="M48.6 38.2L46 32.6V13.4c0-2.1-1.7-3.8-3.8-3.8H8.7c-2.1 0-3.8 1.7-3.8 3.8v19.2l-3.3 7c-.8 1.8.4 3.8 2.4 3.8h34.8"/><path d="M7.3 34.7h36m-16.1 6h-3.8" class="st2"/><path fill="none" stroke="#444" stroke-linecap="round" stroke-linejoin="round" stroke-miterlimit="10" d="M4.8 32.6h41.1"/><path fill="#444" stroke="#444" stroke-linecap="round" stroke-linejoin="round" stroke-miterlimit="10" stroke-width=".5" d="M44.5 38.8H6.2l1-2.3h36.2z"/><path d="M6 14.6h39.2" class="st2"/><circle cx="13.2" cy="12.9" r=".7" class="st5"/><circle cx="10.7" cy="12.9" r=".7" class="st5"/><circle cx="8.2" cy="12.9" r=".7" class="st5"/><path d="M33.9 22.5c.6 0 .7.2 1 .3.1 0 .3-.1.3-.2v-3.8h-10v3.8c0 .1.1.2.3.2.2-.1.4-.3 1-.3.7 0 1.2.6 1.2 1.2s-.6 1.3-1.3 1.3c-.6 0-.7-.2-1-.3-.1 0-.3.1-.3.2v3.8h10v-3.8c0-.1-.1-.2-.3-.2-.2.1-.4.3-1 .3-.7 0-1.2-.6-1.2-1.2s.6-1.3 1.3-1.3z" class="st6"/><path d="M18.9 20c0-.6.2-.7.3-1 0-.1-.1-.3-.2-.3h-3.8v10H19c.1 0 .2-.1.2-.3-.1-.2-.3-.4-.3-1 0-.7.6-1.2 1.2-1.2s1.2.6 1.2 1.2-.2.7-.3 1c0 .1.1.3.2.3H25v-3.8c0-.1.1-.2.3-.2.2.1.4.3 1 .3.7 0 1.2-.6 1.2-1.2s-.6-1.2-1.2-1.2-.7.2-1 .3c-.1 0-.3-.1-.3-.2v-3.8h-3.8c-.1 0-.2.1-.2.3.1.2.3.4.3 1 0 .7-.6 1.2-1.2 1.2s-1.2-.7-1.2-1.4z" class="st6"/></svg>