<svg xmlns="http://www.w3.org/2000/svg" id="Layer_1" x="0" y="0" version="1.1" viewBox="0 0 50 50" xml:space="preserve"><style>.st3{fill:#031326}</style><path fill="#c3ff68" d="M47.5 20.7c0 10.2-8.3 18.5-18.5 18.5-5.3 0-10-2.2-13.4-5.7l-1.5-1.8-1-1.5c-1.2-2-2.1-4.3-2.4-6.7L43 8.6c2.4 2.8 4 6.3 4.4 10.2 0 .6.1 1.3.1 1.9z"/><path fill="#afe55d" d="M47.5 20.7c0 10.2-8.3 18.5-18.5 18.5-5.3 0-10-2.2-13.4-5.7L40.4 22l7-3.2c0 .6.1 1.3.1 1.9z"/><path fill="none" d="M46.1 18.9c-.4-3.5-1.8-6.8-4.1-9.5-3.3-3.8-8-6-13.1-6-9.5 0-17.3 7.7-17.3 17.3 0 .9.1 1.8.2 2.7.3 1.7.8 3.3 1.5 4.8l8.8-8.8c.5-.5 1.3-.5 1.8 0l5.4 5.4 8-8h-4.1c-.7 0-1.2-.6-1.2-1.2s.6-1.2 1.2-1.2h7.1c.2 0 .3 0 .4.1.3.1.6.4.7.7 0 .1.1.2.1.3v7.2c0 .7-.6 1.2-1.2 1.2s-1.2-.6-1.2-1.2v-4.1l-8.9 8.9c-.5.5-1.3.5-1.8 0L23 22.1l-8.3 8.3c.5.8 1.1 1.6 1.8 2.3C19.8 36.1 24.2 38 29 38c9.5 0 17.3-7.8 17.3-17.3-.1-.6-.1-1.2-.2-1.8zM23.7 8.4c-3.3 1.4-6 4.2-7.3 7.5-.1.3-.4.5-.7.5-.1 0-.2 0-.3-.1-.4-.1-.6-.6-.4-1 1.4-3.7 4.4-6.8 8.1-8.4.4-.2.8 0 1 .4.2.5 0 .9-.4 1.1z"/><path d="M48.7 20.7c0-.7 0-1.4-.1-2.1-.4-4-2.1-7.8-4.7-10.9C40.2 3.4 34.7.9 29 .9 18.1.9 9.2 9.8 9.2 20.7c0 1 .1 2 .2 3.1.3 2.2 1.1 4.3 2.1 6.3L1.6 40c-.5.5-.5 1.3 0 1.8.2.2.6.4.9.4s.6-.1.9-.4l9.5-9.5c.5.8 1.1 1.5 1.8 2.2 3.5 3.6 8.1 5.7 13 6v-.9c0-.7.6-1.2 1.2-1.2s1.2.6 1.2 1.2v.9c10.4-.7 18.6-9.3 18.6-19.8zM29 38c-4.7 0-9.2-1.9-12.5-5.3-.7-.7-1.3-1.5-1.8-2.3l8.3-8.3 5.4 5.4c.5.5 1.3.5 1.8 0l8.9-8.9v4.1c0 .7.6 1.2 1.2 1.2s1.2-.6 1.2-1.2v-7.2c0-.1 0-.2-.1-.3-.1-.3-.4-.6-.7-.7-.1-.1-.3-.1-.4-.1h-7.1c-.7 0-1.2.6-1.2 1.2s.6 1.2 1.2 1.2h4.1l-8 8-5.4-5.4c-.5-.5-1.3-.5-1.8 0l-8.8 8.8c-.7-1.5-1.2-3.1-1.5-4.8-.1-.9-.2-1.8-.2-2.7 0-9.5 7.8-17.3 17.3-17.3 5 0 9.8 2.2 13.1 6 2.3 2.7 3.8 6 4.1 9.5.1.6.1 1.2.1 1.8C46.2 30.2 38.5 38 29 38z" class="st3"/><path d="M23.1 7c-3.7 1.6-6.6 4.6-8.1 8.4-.1.4 0 .8.4 1 .1 0 .2.1.3.1.3 0 .6-.2.7-.5 1.3-3.4 3.9-6.1 7.3-7.5.4-.2.6-.6.4-1-.1-.5-.6-.7-1-.5zM29 38.3c-.7 0-1.2.6-1.2 1.2v8.3c0 .7.6 1.2 1.2 1.2s1.2-.6 1.2-1.2v-8.3c0-.6-.6-1.2-1.2-1.2z" class="st3"/></svg>