<svg xmlns="http://www.w3.org/2000/svg" id="Layer_1" x="0" y="0" version="1.1" viewBox="0 0 50 50" xml:space="preserve"><style>.st2,.st4{fill:none;stroke-linecap:round;stroke-linejoin:round;stroke-miterlimit:10}.st2{stroke-width:.5;stroke:#444}.st4{stroke:#414141}</style><path fill="#c3ff68" d="M27 2.4l-3.4-.5c-1.4 0-19.7 17.6-19.7 19l-.6 4.9v9.7l.1 9.1c0 1.6 1.3 2.9 2.9 3l9.5.5 30.6-10.9c.9-.3 1.5-1.2 1.5-2.2l-.6-12.9-7-7.1-7.1-7.2c.1-1.3-4.8-5.4-6.2-5.4z"/><path fill="none" stroke="#444" stroke-linecap="round" stroke-linejoin="round" stroke-miterlimit="10" stroke-width="2.5" d="M47 38.3V23.1c0-1-.4-2-1.2-2.8L27.9 2.6c-1.5-1.5-4-1.5-5.6 0l-17.5 18c-.7.7-1.1 1.7-1.1 2.7V45c0 1.9 1.4 3.4 3.2 3.4h25.6"/><path d="M6.9 24.6L25 5.9l18.8 18.7" class="st2"/><path d="M40.2 21v17.7H10.6V21" class="st2"/><path fill="none" stroke="#444" stroke-linecap="round" stroke-linejoin="round" stroke-miterlimit="10" d="M23.1 40.6h4.4V45h-4.4z"/><path d="M25.3 36.3v4.1m2.4 2.4h13.2m-31.1 0H23" class="st2"/><path d="M21.8 31.3l-3.6-3.6 3.6-3.5m6.9 7.1l3.6-3.6-3.6-3.5m-2.1-1.6l-2.7 10.2" class="st4"/><path d="M33.6 35.9H16.9c-1.8 0-3.2-1.4-3.2-3.2v-9.9c0-1.8 1.4-3.2 3.2-3.2h16.7c1.8 0 3.2 1.4 3.2 3.2v9.9c0 1.7-1.4 3.2-3.2 3.2z" class="st4"/></svg>