<svg xmlns="http://www.w3.org/2000/svg" fill="none" viewBox="0 0 50 50"><path fill="#C3FF68" d="M2.51 7.01l-.99 15.04 46.6-16.58-1.68.46c0-1.14-39.23-.95-40.37-.95"/><path fill="#AFE55D" d="M1.52 22.05l.13 12.13c.29 2.04 3.44 3.25 5.48 3.53l10.81 1.3c.26.04-3.04 3.4-2.8 3.31L48.13 30.6V8.38c0-1.42-1.4-2.41-2.74-1.93L1.52 22.05z"/><path stroke="#444" stroke-linecap="round" stroke-linejoin="round" stroke-miterlimit="10" stroke-width="2.5" d="M32.21 40.93v-3.01h7.11"/><path stroke="#444" stroke-linecap="round" stroke-linejoin="round" stroke-miterlimit="10" stroke-width="2.5" d="M48.73 32.14l.02-20.51c0-3.87-3.14-7.01-7.01-7.01H8.34c-3.87 0-7.01 3.14-7.01 7.01v19.86c0 3.87 3.14 7.01 7.01 7.01l9.85.26.06 2.17c-4.69 0-4.82 4.45-4.82 4.45h23.21s.84-4.45-4.44-4.45"/><path stroke="#444" stroke-linecap="round" stroke-linejoin="round" stroke-miterlimit="10" d="M5.65 30.83h38.82"/><path fill="#444" d="M8.06 21.77a2.67 2.67 0 100-5.34 2.67 2.67 0 000 5.34zm7.69 6.62a2.67 2.67 0 100-5.34 2.67 2.67 0 000 5.34zm5.98-8.54a2.67 2.67 0 100-5.34 2.67 2.67 0 000 5.34zm8.97 8.54a2.67 2.67 0 100-5.34 2.67 2.67 0 000 5.34z"/><path stroke="#444" stroke-linecap="round" stroke-linejoin="round" stroke-miterlimit="10" d="M1.45 25.25l6.28-6.26 8.02 6.73 5.98-8.54 8.97 8.54 12.29-14.63-4.05.25m4.69 4.02l-.64-4.27"/><path fill="#444" d="M25.25 36.19a1.65 1.65 0 100-3.3 1.65 1.65 0 000 3.3z"/></svg>