<svg xmlns="http://www.w3.org/2000/svg" viewBox="0 0 50 50"><style>.st2{stroke-width:.5}.st2,.st3{fill:none;stroke:#4d4d4d;stroke-linecap:round;stroke-linejoin:round;stroke-miterlimit:10}</style><g id="Layer_1"><path fill="#f799ff" d="M29.3 1.6L18 2.2c-1 0-8.4 10.3-9.7 12.9-.2.4-3.5.9-3.8 1.2L3.8 20 39.9 7.3l-.4-.5c.1-1.1-9.1-5.2-10.2-5.2z"/><path fill="#e589ef" d="M3.8 19.8l.1 1.4c0 7.9 7.1 10.7 15.2 17.5l26.4-9.4c2.1-.8 3.5-2.8 3.4-5.1l-.2-4.9c0-4.6-1.2 1.1-8.5-12.6L3.8 19.8z"/><g id="XMLID_26_"><path id="XMLID_28_" d="M26.2 44.9V17" class="st2"/><path id="XMLID_27_" d="M28.9 42.1l-2.7 2.8-2.8-2.8" class="st2"/></g><g id="XMLID_23_"><path id="XMLID_25_" d="M33 24.5V17" class="st2"/><path id="XMLID_24_" d="M36.1 21.4L33 24.5l-3.1-3.1" class="st2"/></g><path id="XMLID_00000068647531850745661450000002141687955194702492_" d="M21.2 48v-8.1L5.1 25.5V17h42.1v8.5L32.5 39.6" class="st3"/><g id="XMLID_19_"><path id="XMLID_21_" d="M20.6 39.3h3.7" class="st3"/><path id="XMLID_20_" d="M28 39.3h3.7" class="st3"/></g><g id="XMLID_16_"><path id="XMLID_18_" d="M19.9 24.5V17" class="st2"/><path id="XMLID_17_" d="M23 21.4l-3.1 3.1-3.1-3.1" class="st2"/></g><g id="XMLID_13_"><path id="XMLID_15_" d="M11.9 17v4.3c0 2.5 2 4.4 4 5.9 1.3 1 5.3 2.4 5.3 4.7v3.7" class="st2"/><path id="XMLID_14_" d="M23.7 33.1l-2.5 2.5-2.5-2.5" class="st2"/></g><g id="XMLID_10_"><path id="XMLID_12_" d="M40.4 17v4.3c0 2.5-2 4.4-4 5.9-1.3 1-5.3 2.4-5.3 4.7v3.7" class="st2"/><path id="XMLID_11_" d="M28.6 33.1l2.5 2.5 2.5-2.5" class="st2"/></g><g id="XMLID_2_"><g id="XMLID_5_"><circle id="XMLID_8_" cx="14.5" cy="13.3" r="1.9" class="st2"/><circle id="XMLID_7_" cx="26.2" cy="13.3" r="1.9" class="st2"/><circle id="XMLID_6_" cx="37.6" cy="13.3" r="1.9" class="st2"/></g><circle id="XMLID_4_" cx="32.4" cy="9" r="1.9" class="st2"/><circle id="XMLID_3_" cx="19.9" cy="9" r="1.9" class="st2"/></g><path fill="none" stroke="#4d4d4d" stroke-linecap="round" stroke-linejoin="round" stroke-miterlimit="10" stroke-width="2.5" d="M26.5 48.9h-3.7c-1.6 0-3-1.3-3-3v-4.5c0-.8-.3-1.6-1-2.2L5.2 26.6c-.6-.6-1-1.4-1-2.2V16l3.8.1c2.9-9 8-14.5 18.4-14.5 10.2 0 15.4 5.8 18.5 14.4h3.3l.2 8.7c0 .9-.4 1.7-1 2.2l-14 12.2c-.6.6-1 1.4-1 2.2"/></g></svg>