<svg xmlns="http://www.w3.org/2000/svg" fill="none" viewBox="0 0 50 50"><path fill="#BF94F7" d="M21.42 1.32l-5.72.04c-1.12 0-4.4 3.04-4.4 4.16L10.87 16 39.89 5.67l-1.91-3.46c0-1.11-15.44-.89-16.56-.89z"/><path fill="#A475EF" d="M6.04 31l.19 5.6c.23.72 4.74 4.17 5.44 3.92l27.93-9.94-.22-1.24c.53-.19-.34-.34-.34-.9l-1.24-4.09c-.24-.08.07-1.87.19-2.1 1.58-3.02 3.14-17.02 2.32-16.73L10.17 16.29s2.23 2.97 2.18 6.11c-.04 2.65-1.87 5.28-1.7 5.99.03.12-4.62 2.49-4.61 2.61z"/><path stroke="#444" stroke-linecap="round" stroke-linejoin="round" stroke-miterlimit="10" d="M34.41 43.5c1.06-1.24 1.94-2.68 2.58-4.28 1.87.63 4.28-.61 5.45-2.86 1.2-2.3.63-4.77-1.26-5.51-.93-.36-2-.24-3 .25-.33-3.6-1.74-6.81-3.85-9.24m-18.89.02c-2.1 2.42-3.51 5.63-3.83 9.22-1-.49-2.07-.61-3-.25-1.89.74-2.46 3.21-1.26 5.51 1.17 2.25 3.58 3.49 5.45 2.86 2.13 5.24 6.74 8.87 12.1 8.87"/><path stroke="#444" stroke-linecap="round" stroke-linejoin="round" stroke-miterlimit="10" d="M12.06 29.19s4.21-2.58 6.84-6.06c0 0 2.68 4.48 13.21 6.69.29.06.5-.26.33-.5-.81-1.13-2.31-3.36-2.11-4.07 1.65.64 7.11 1.56 7.82 5.55"/><path stroke="#444" stroke-miterlimit="10" d="M35.05 21.79h-19c-2.39 0-4.33-1.94-4.33-4.33V7.13c0-2.39 1.94-4.33 4.33-4.33h19c2.39 0 4.33 1.94 4.33 4.33v10.33c0 2.39-1.94 4.33-4.33 4.33z"/><path fill="#444" d="M25.55 4.84a7.45 7.45 0 100 14.9 7.45 7.45 0 100-14.9zm3.77 8.39l-5.47 2.22c-.66.27-1.38-.22-1.38-.93v-4.45c0-.71.72-1.2 1.38-.93l5.47 2.22c.83.35.83 1.53 0 1.87z"/><path stroke="#444" stroke-linecap="round" stroke-miterlimit="10" d="M21.08 39.69s3.71 3.85 7.85 0m-12.39-8.24s2.27 1.93 4.54.19m7.38-.19s2.27 1.93 4.54.19"/><path stroke="#444" stroke-linecap="round" stroke-linejoin="round" stroke-miterlimit="10" stroke-width="2.5" d="M25.11 48.7c-8.91 0-12.73-8.43-12.73-8.43-4.56-.32-6.75-2.8-6.62-6.55.19-5.27 5.14-4.08 5.14-4.08-.48-1.93 2.63-7.45 2.63-7.45-1.48-.93-2.63-2.57-2.67-5.76V7.75c0-3.33 2.7-6.02 6.02-6.02h17.34c3.33 0 6.02 2.7 6.02 6.02v8.67c0 2.61-.88 5.44-4.21 6.09 2.28 2.07 2.76 7.35 2.76 7.35 3.21-.67 6.05 1.91 5.01 5.27-1.8 5.81-6.23 5.07-6.23 5.07s-1.27 2.6-3.03 4.18"/></svg>