<svg xmlns="http://www.w3.org/2000/svg" id="Camada_3" x="0" y="0" version="1.1" viewBox="0 0 50 50" xml:space="preserve"><style>.st1,.st4{fill:#444}.st4{stroke:#444;stroke-width:.5;stroke-miterlimit:10}</style><path fill="#fcc34f" d="M45.7 6.6H3.1c-1.4 0-1.7 2.5-1.7 4l.7 9.8v17.7l15.9.4-2.3 5.2L49 31.8l-.7-22.4v-.2c0-1.4-1.1-2.6-2.6-2.6z"/><path id="XMLID_42_" d="M36.8 17.7c-.3-.4-.7-.6-1.2-.6h-1.7v-.9c0-.8-.7-1.5-1.5-1.5h-11l-.9-1.3c-.3-.4-.7-.6-1.2-.6h-4.9c-.8 0-1.5.7-1.5 1.5V28c0 .3.1.6.3.8v.1l.1.1.1.1h.1l.6.3h18.7c.4-.2.7-.5.9-.9l3.2-9.5c.2-.4.1-.9-.1-1.3zm-3.7-.6H17.5c-.6 0-1.2.4-1.4 1l-2.4 7.4V14.2c0-.4.3-.7.7-.7h4.9c.2 0 .4.1.6.3l.9 1.4c.1.2.3.3.6.3h11.1c.4 0 .7.3.7.7v.9zM13.7 27.8l3.2-9.5c.1-.3.3-.4.6-.4h18.1c.2 0 .4.1.5.3.1.2.2.4.1.6L33 28.3c-.1.3-.3.4-.6.4h-18c-.2 0-.4-.1-.5-.3-.2-.2-.2-.4-.2-.6z" class="st1"/><path fill="none" stroke="#444" stroke-linecap="round" stroke-linejoin="round" stroke-miterlimit="10" stroke-width="2.5" d="M48.5 33.4V9.3C48.5 7.5 47 6 45.2 6H4.7C2.9 6 1.4 7.5 1.4 9.3v25.9c0 1.9 1.5 3.4 3.4 3.4H19l-3.5 4.2c-.1.5.3 1.1.9 1.1h16.5c.5 0 1-.5.9-1l-3.4-4.2h4.3"/><path fill="none" stroke="#444" stroke-miterlimit="10" stroke-width=".5" d="M48.2 33H1.7"/><circle cx="25" cy="36.2" r="1.6" class="st1"/><path d="M2 10.2h45.9" class="st4"/><circle cx="4.9" cy="8.8" r=".4" class="st4"/><circle cx="6.7" cy="8.8" r=".4" class="st4"/><circle cx="8.4" cy="8.8" r=".4" class="st4"/></svg>