<svg xmlns="http://www.w3.org/2000/svg" version="1" viewBox="0 0 50 50"><path fill="#46B8B0" d="M13.672 45.906l17.45-6.351 9.86-5.689a.47.47 0 00.234-.406V7.114a.468.468 0 00-.234-.406l-7.639-4.411a.468.468 0 00-.469 0l-7.639 4.411a.468.468 0 00-.235.406v17.329l-7.874-4.48a.47.47 0 00-.466.002l-7.64 4.411a.47.47 0 00-.234.406v18.031a.47.47 0 00.234.406l4.652 2.687z"/><path fill="#4ECDC4" d="M38.744 5.416l-5.401-3.118a.468.468 0 00-.469 0l-7.639 4.411a.465.465 0 00-.235.405v3.304l13.744-5.002z"/><path fill="#031326" d="M41.606 5.626l-7.642-4.412a1.728 1.728 0 00-1.716.001l-7.638 4.41c-.53.306-.86.876-.86 1.489v15.18l-6.005-3.416a1.726 1.726 0 00-1.711.004l-7.642 4.412a1.724 1.724 0 00-.858 1.488v18.031c0 .611.329 1.182.859 1.489l7.639 4.41a1.251 1.251 0 001.249-2.166l-.141-.081V29.337l6.915-3.993 1.693.963v14.52a.25.25 0 00.5 0v-7.455l6.608-3.815v7.552l-5.507 3.177a1.25 1.25 0 001.25 2.166l13.008-7.506c.528-.308.856-.877.856-1.487V7.114a1.712 1.712 0 00-.857-1.488zm-8.498-2.02l6.608 3.815-6.608 3.815L26.5 7.421l6.608-3.815zM10.034 42.362v-16.84l6.608 3.816v16.839l-6.608-3.815zm6.858-13.458l-6.608-3.815 6.613-3.818 6.657 3.787-6.662 3.846zm9.358 3.891V25.51l6.355 3.615-6.355 3.67zm0-7.86V7.854l6.608 3.815v17.025l-6.608-3.759zm7.108 11.886V11.669l6.607-3.815v25.154l-6.607 3.813z"/></svg>