<svg xmlns="http://www.w3.org/2000/svg" id="Layer_1" x="0" y="0" version="1.1" viewBox="0 0 50 50" xml:space="preserve"><style>.st2{fill:#031326}</style><path fill="#afe55d" d="M32 21.8L8.5 30.3l-3.4-4.1L3.2 19l25-9.1 3 5.8.8 6.1z"/><path fill="#c3ff68" d="M27 10.4L4 18.7 7.8 11l10.1-5.2 9.1 4.6z"/><path d="M18 31.8c-6.1 0-11-4.9-11-11s4.9-11 11-11c.4 0 .8.3.8.8 0 .4-.3.8-.8.8-5.2 0-9.5 4.2-9.5 9.5 0 5.2 4.2 9.5 9.5 9.5s9.5-4.2 9.5-9.5c0-.4.3-.8.8-.8s.8.3.8.8c-.1 5.9-5 10.9-11.1 10.9z" class="st2"/><path d="M30.9 8.6c1 0 1.8-.7 1.9-1.6l11.3-3.4c.3.3.8.5 1.3.5 1.1 0 1.9-.9 1.9-1.9 0-1.1-.9-1.9-1.9-1.9-1.1 0-1.9.9-1.9 1.9L32.4 5.5c-.3-.5-.9-.7-1.5-.7-1.1 0-1.9.9-1.9 1.9 0 .4.1.8.3 1.1l-1 1.6c-2.7-2.5-6.4-4-10.3-4-8.5 0-15.4 6.9-15.4 15.4S9.5 36.2 18 36.2c1.4 0 2.8-.2 4-.5l12.3 12.2c1.3 1.3 3 1.9 4.7 1.9 1.8 0 3.5-.7 4.9-2 2.6-2.7 2.6-7-.1-9.6L32.5 26.9c-.1-.1-.2-.2-.3-.2.8-1.8 1.2-3.8 1.2-5.9 0-4-1.5-7.6-4-10.3l1.2-2c.1 0 .2.1.3.1zm11.2 31.3c1.7 1.7 1.7 4.4.1 6.1-1.7 1.7-4.4 1.7-6.1.1L24.7 34.7c2.6-1.3 4.9-3.3 6.4-5.7l11 10.9zM30.9 20.8c0 7.1-5.8 12.9-12.9 12.9S5.1 27.9 5.1 20.8 10.9 7.9 18 7.9c3.5 0 6.7 1.4 9 3.7l-6 10.1c-.2-.1-.4-.1-.5-.1-.6 0-1.1.2-1.4.6L15 19.5c0-.2.1-.3.1-.5 0-1.1-.9-2-2-2s-2 .9-2 2 .9 2 2 2c.4 0 .7-.1 1-.3l4.4 2.9c0 1.1.9 1.9 2 1.9s2-.9 2-2c0-.3-.1-.7-.2-.9l5.9-9.9c1.7 2.3 2.7 5.1 2.7 8.1z" class="st2"/></svg>