<svg xmlns="http://www.w3.org/2000/svg" id="Camada_3" x="0" y="0" version="1.1" viewBox="0 0 50 50" xml:space="preserve"><style>.st2{fill:none;stroke:#444;stroke-linecap:round;stroke-linejoin:round;stroke-miterlimit:10}.st4{fill:#444}.st5{fill:none;stroke:#444;stroke-width:.5;stroke-miterlimit:10}</style><path fill="#fcc34f" d="M45.49 2.64H4c-1.41 0-1.44 3.88-1.44 5.28l-.18 17.1-.54 10.26L3.1 47.16l12.51.62 32.42-11.54V5.19c0-1.41-1.14-2.55-2.54-2.55z"/><path fill="none" stroke="#444" stroke-linecap="round" stroke-linejoin="round" stroke-miterlimit="10" stroke-width="2.5" d="M32.62 48.08H5.61c-1.87 0-3.39-1.58-3.39-3.54V5.62c0-1.95 1.52-3.54 3.39-3.54h39.01c1.87 0 3.39 1.58 3.39 3.54v30.61"/><path d="M6.96 7.04v33.22c0 1.51 1.22 2.73 2.73 2.73h34" class="st2"/><path d="M8.96 42.13L19.6 25.55h9.82l8.4-17.45" class="st2"/><path fill="none" stroke="#444" stroke-linecap="round" stroke-linejoin="round" stroke-miterlimit="10" stroke-width=".5" d="M9.31 11.24H7.06m2.25 22.08H7.06m2.25-11H7.06m32.83 18.03v2.25m-22.08-2.25v2.25m10.99-2.25v2.25"/><circle cx="19.57" cy="25.8" r="1.47" class="st4"/><circle cx="14.56" cy="22.54" r="1.32" class="st5"/><circle cx="15.27" cy="16.32" r="1.32" class="st5"/><circle cx="26.6" cy="35.46" r="1.32" class="st5"/><circle cx="41.06" cy="28.43" r="1.32" class="st5"/><circle cx="42.14" cy="19.61" r="1.32" class="st5"/><circle cx="22.52" cy="7.55" r="1.32" class="st5"/><circle cx="27.76" cy="17.76" r="1.32" class="st5"/><circle cx="37.79" cy="33.68" r="1.32" class="st5"/><circle cx="29.39" cy="25.39" r="1.47" class="st4"/><circle cx="37.73" cy="8.37" r="1.47" class="st4"/></svg>