<svg xmlns="http://www.w3.org/2000/svg" id="Layer_1" x="0" y="0" version="1.1" viewBox="0 0 50 50" xml:space="preserve"><style>.st3{fill:#444}</style><path fill="#c3ff68" d="M47.6 20.3c-.2-.8-2.7-7.5-3.2-8.1l-3-3.5-.2.1L33.6 3l-7.8-.7c-3.2 0-12.8-.7-21.3 11.5l-2.9 7.9.5 2L4 35.3c.1.4 4.7 7 5.1 7.2l5.6 3 32.2-11.7c.6-.5 1.7-8.8.7-13.5z"/><path fill="none" stroke="#444" stroke-linecap="round" stroke-linejoin="round" stroke-miterlimit="10" stroke-width="2.5" d="M27.9 47.9C15.3 49.4 3.8 40.4 2.2 27.8s7.4-24.1 20-25.7 24.1 7.4 25.7 20.1c.6 5.1-.5 10-2.8 14.1"/><path d="M25.1 15.3c-.2 0-.3-.2-.3-.3v-1c0-.2.2-.3.3-.3.2 0 .3.2.3.3v1c0 .2-.1.3-.3.3zm-5.2 1.4c-.1 0-.2-.1-.3-.2l-.5-.9c-.1-.2 0-.4.1-.5.2-.1.4 0 .5.1l.5.9c.1.2 0 .4-.1.5-.1.1-.2.1-.2.1zm-3.8 3.8h-.2L15 20c-.2-.1-.2-.3-.1-.5s.3-.2.5-.1l.9.5c.2.1.2.3.1.5-.1.1-.2.1-.3.1zm-1.4 5.2h-1c-.2 0-.3-.2-.3-.3 0-.2.2-.3.3-.3h1c.2 0 .3.2.3.3 0 .2-.1.3-.3.3zm.5 5.8c-.1 0-.2-.1-.3-.2-.1-.2 0-.4.1-.5l.9-.5c.2-.1.4 0 .5.1.1.2 0 .4-.1.5l-.9.5c-.1.1-.2.1-.2.1zm4.2 4.2h-.2c-.2-.1-.2-.3-.1-.5l.5-.9c.1-.2.3-.2.5-.1s.2.3.1.5l-.5.9c-.1 0-.2.1-.3.1zm5.7 1.5c-.2 0-.3-.2-.3-.3v-1c0-.2.2-.3.3-.3.2 0 .3.2.3.3v1c0 .2-.1.3-.3.3zm5.7-1.5c-.1 0-.2-.1-.3-.2l-.5-.9c-.1-.2 0-.4.1-.5.2-.1.4 0 .5.1l.5.9c.1.2 0 .4-.1.5-.1.1-.1.1-.2.1zm4.2-4.2h-.2l-.8-.6c-.2-.1-.2-.3-.1-.5s.3-.2.5-.1l.9.5c.2.1.2.3.1.5-.1.1-.3.2-.4.2zm1.6-5.8h-1c-.2 0-.3-.2-.3-.3 0-.2.2-.3.3-.3h1c.2 0 .3.2.3.3 0 .2-.2.3-.3.3zm-2.5-5.2c-.1 0-.2-.1-.3-.2-.1-.2 0-.4.1-.5l.9-.5c.2-.1.4 0 .5.1.1.2 0 .4-.1.5l-.9.5c-.1.1-.1.1-.2.1zm-3.8-3.8h-.2c-.2-.1-.2-.3-.1-.5l.5-.9c.1-.2.3-.2.5-.1s.2.3.1.5l-.5.9c-.1 0-.2.1-.3.1z" class="st3"/><path fill="none" stroke="#444" stroke-linecap="round" stroke-linejoin="round" d="M9.2 26.5c.6 8.3 7.4 14.8 15.8 14.8 8.8 0 15.9-7.1 15.9-15.9s-7-15.9-15.8-15.9"/><path d="M5.7 30.3l.8.5 2.9-3.9 3.7 3.1.7-.7-4.6-3.9z" class="st3"/><path fill="none" stroke="#444" stroke-linecap="round" stroke-linejoin="round" stroke-miterlimit="10" d="M25.1 17.4v8l6.4 3.8"/></svg>