<?xml version="1.0" encoding="utf-8"?>
<!-- Generator: Adobe Illustrator 26.2.1, SVG Export Plug-In . SVG Version: 6.00 Build 0)  -->
<svg version="1.1" id="Layer_1" xmlns="http://www.w3.org/2000/svg" xmlns:xlink="http://www.w3.org/1999/xlink" x="0px" y="0px"
	 viewBox="0 0 50 50" style="enable-background:new 0 0 50 50;" xml:space="preserve">
<style type="text/css">
	.st0{fill:#A6C1C2;}
	.st1{fill:#B9D7D9;}
	.st2{fill:none;stroke:#444444;stroke-width:2.5;stroke-linecap:round;stroke-linejoin:round;stroke-miterlimit:10;}
	.st3{fill:none;stroke:#444444;stroke-width:0.75;stroke-linecap:round;stroke-linejoin:round;stroke-miterlimit:10;}
	.st4{fill:#494949;}
</style>
<g>
	<g>
		<path class="st0" d="M48.4,22L5.2,37.7C2.8,34,1.4,29.7,1.4,25c0-1,0.1-1.9,0.2-2.8c0-0.2,0.1-0.5,0.1-0.7L40.6,7.3
			c0.2,0.2,0.4,0.3,0.5,0.5C45,11.5,47.7,16.4,48.4,22z"/>
		<path class="st1" d="M41.1,7.8L1.6,22.2c0-0.2,0.1-0.5,0.1-0.7c1.7-11.3,11.5-20,23.3-20c6,0,11.4,2.2,15.6,5.9
			C40.7,7.5,40.9,7.6,41.1,7.8z"/>
		<path class="st2" d="M48.6,25C48.6,38,38,48.6,25,48.6c-8.3,0-15.6-4.3-19.8-10.9C2.8,34,1.4,29.7,1.4,25c0-1,0.1-1.9,0.2-2.8
			c0-0.2,0.1-0.5,0.1-0.7c1.7-11.3,11.5-20,23.3-20c6,0,11.4,2.2,15.6,5.9c0.2,0.2,0.4,0.3,0.5,0.5c3.9,3.6,6.6,8.6,7.3,14.2
			C48.5,23,48.6,24,48.6,25z"/>
		<circle class="st3" cx="25" cy="25" r="19.8"/>
	</g>
	<path class="st4" d="M17.9,15.7h6.7c2.3,0,4,0.5,5.1,1.6c1.1,1.1,1.7,2.7,1.7,5v5.4c0,2.2-0.6,3.9-1.7,5c-1.1,1.1-2.8,1.6-5.1,1.6
		h-6.7v-3.4h1.7V19.1h-1.7V15.7z M24.6,30.9c1.2,0,2.1-0.3,2.6-0.9c0.5-0.6,0.7-1.5,0.7-2.7v-5.1c0-1.1-0.2-1.9-0.7-2.4
		c-0.5-0.5-1.3-0.8-2.6-0.8h-1.5v11.9H24.6z"/>
</g>
</svg>
