<svg xmlns="http://www.w3.org/2000/svg" version="1.0" viewBox="0 0 50 50"><path fill="#E56060" d="M46.683 8.116v25.361L10.405 46.684h-2.43l-4.66-4.651V8.037l4.73-4.722h33.847z"/><path fill="#FF6B6B" d="M42.462 3.895L3.315 18.137v-10.1l4.73-4.722h33.847z"/><g fill="#031326"><path d="M42.367 2.163H7.564l-5.4 5.4v34.944l5.33 5.33h34.467a1.152 1.152 0 100-2.304H8.449l-3.979-3.98V8.518l4.05-4.05h32.893l4.121 4.121v24.888a1.152 1.152 0 102.304 0V7.634l-5.471-5.471z"/><path d="M7.514 42.487h34.974V7.514H7.514v34.973zm.75-34.223h33.474v33.473H8.264V8.264z"/><path d="M18.221 15.005l-.443.466V34.53l.443.465h2.46l.421-.465V15.471l-.421-.466zm14.915 0h-3.467l-7.788 7.591v3.996l11.676-11.121zM23.081 26.519l7.007 8.385h3.47l.421-.466-8.444-10.258z"/></g></svg>