<svg xmlns="http://www.w3.org/2000/svg" id="Layer_1" x="0" y="0" version="1.1" viewBox="0 0 50 50" xml:space="preserve"><style>.st2{fill:#031326}</style><path fill="#00c8e2" d="M46.7 8.1v25.4L10.4 46.7H8L3.3 42V8L8 3.3h33.9z"/><path fill="#00dffc" d="M42.5 3.9L3.3 18.1V8L8 3.3h33.9z"/><path d="M42.4 2.2H7.6L2.2 7.6v34.9l5.3 5.3H42c.6 0 1.2-.5 1.2-1.2s-.5-1.2-1.2-1.2H8.4l-4-4v-33l4.1-4.1h32.9l4.1 4.1v24.9c0 .6.5 1.2 1.2 1.2s1.2-.5 1.2-1.2V7.6l-5.5-5.4z" class="st2"/><path d="M7.5 42.5h35v-35h-35v35zm.8-34.2h33.5v33.5H8.3V8.3z" class="st2"/><path d="M18.2 15l-.4.5v19l.4.5h2.5l.4-.5v-19l-.4-.5zm14.9 0h-3.4l-7.8 7.6v4l11.7-11.1zm-10 11.5l7 8.4h3.5l.4-.5-8.5-10.2z" class="st2"/></svg>