<svg xmlns="http://www.w3.org/2000/svg" id="Camada_1" x="0" y="0" version="1.1" viewBox="0 0 50 50" xml:space="preserve"><style>.st2{fill:#031326}</style><path fill="#f0cd77" d="M47.5 2.5h-45v17.4l45-16.3z"/><path fill="#ecc158" d="M47.5 3.6l-45 16.3v26.7l45-16.4z"/><path d="M48.7 48.7H1.3V1.3h47.5v47.4zM3.8 46.2h42.5V3.8H3.8v42.4z" class="st2"/><path d="M47.9 47.9H29.8L2.1 36.1V25.5l45.7 19.4v3zM30 47.1h17.1v-1.7L2.9 26.7v9L30 47.1z" class="st2"/><path d="M47.9 45.7L2.1 26.3V15.8l45.7 19.4v10.5zm-45-19.9l44.2 18.7v-9L2.9 16.9v8.9zm28.9 22.1H2.1V35.3l29.7 12.6zm-28.9-.8h25.2L2.9 36.4v10.7zm45-20.9L2.1 6.8V2.1h14.1l31.6 13.4v10.7zM2.9 6.3L47.1 25v-9L16 2.9H2.9v3.4z" class="st2"/><path d="M47.9 16.4L14.2 2.1h33.6v14.3zm-30-13.5l29.2 12.4V2.9H17.9zm30 33L2.1 16.6V6l45.7 19.4v10.5zm-45-19.8l44.2 18.7v-9L2.9 7.1v9z" class="st2"/><circle cx="15.6" cy="14.1" r="1.7" class="st2"/><circle cx="19" cy="12.4" r="1.7" class="st2"/><circle cx="18.5" cy="20.4" r="1.7" class="st2"/><circle cx="23.1" cy="14.1" r="1.7" class="st2"/><circle cx="7.2" cy="18.7" r="1.7" class="st2"/><circle cx="20.7" cy="23.3" r="1.7" class="st2"/><circle cx="6.6" cy="25" r="1.7" class="st2"/><circle cx="20.7" cy="31.2" r="1.7" class="st2"/><circle cx="24" cy="19.3" r="1.7" class="st2"/><circle cx="29" cy="25" r="1.7" class="st2"/><circle cx="25.7" cy="23.8" r="1.7" class="st2"/><circle cx="25.7" cy="29.5" r="1.7" class="st2"/><circle cx="31.5" cy="29.5" r="1.7" class="st2"/><circle cx="40" cy="28.3" r="1.7" class="st2"/><circle cx="34.8" cy="37.6" r="1.7" class="st2"/><circle cx="29" cy="42.7" r="1.7" class="st2"/><circle cx="20.2" cy="37.6" r="1.7" class="st2"/><circle cx="34.8" cy="18.7" r="1.7" class="st2"/><circle cx="24.7" cy="34.1" r="1.7" class="st2"/><circle cx="15" cy="39.3" r="1.7" class="st2"/><circle cx="28.1" cy="14.7" r="1.7" class="st2"/><circle cx="35.8" cy="12.4" r="1.7" class="st2"/><circle cx="43.4" cy="7.3" r="1.7" class="st2"/><circle cx="29" cy="34.1" r="1.7" class="st2"/><circle cx="18.5" cy="17" r="1.7" class="st2"/></svg>