<svg xmlns="http://www.w3.org/2000/svg" id="Layer_1" x="0" y="0" version="1.1" viewBox="0 0 50 50" xml:space="preserve"><style>.st1{fill:#444}.st2{fill:none;stroke:#444;stroke-width:.5;stroke-linecap:round;stroke-linejoin:round;stroke-miterlimit:10}</style><path fill="#fc9d9a" d="M43.36 7.26c-.5-1-1.5-1.7-2.7-1.7h-11.3c-.4-1.8-2-3.2-3.9-3.2s-3.5 1.4-3.9 3.2h-12c-1.7 0-3.1 1.4-3.1 3.1v36.7c0 .8.3 1.5.8 2l36.4-13.2V8.66c0-.5-.1-1-.3-1.4z"/><path d="M33.76 49.56H9.46c-2.4 0-4.3-1.9-4.3-4.3V8.46c0-2.4 1.9-4.3 4.3-4.3h11.1c.8-1.9 2.7-3.2 4.8-3.2s4 1.3 4.8 3.2h10.3c2.4 0 4.3 1.9 4.3 4.3v27.3c0 .7-.6 1.2-1.2 1.2s-1.2-.6-1.2-1.2V8.46c0-1-.8-1.8-1.8-1.8h-12.3l-.2-1c-.3-1.3-1.4-2.2-2.7-2.2-1.3 0-2.4.9-2.7 2.2l-.2 1h-13c-1 0-1.8.8-1.8 1.8v36.7c0 1 .8 1.8 1.8 1.8h24.3c.7 0 1.2.6 1.2 1.2s-.5 1.4-1.2 1.4z" class="st1"/><path d="M33.58 9.68v1.17c0 1.23-1.01 2.23-2.26 2.23h-12.7c-1.25 0-2.26-1-2.26-2.23V9.68c0-.59-.48-1.07-1.08-1.07h-4.54c-.6 0-1.08.48-1.08 1.07v33.26c0 1.23 1.01 2.23 2.26 2.23h26.1c1.25 0 2.26-1 2.26-2.23V9.68c0-.59-.48-1.07-1.08-1.07h-4.54c-.6.01-1.08.48-1.08 1.07z" class="st2"/><path d="M18.7 23.34h-3.16c-.78 0-1.42-.64-1.42-1.42v-3.16c0-.78.64-1.42 1.42-1.42h3.16c.78 0 1.42.64 1.42 1.42v3.16c0 .78-.64 1.42-1.42 1.42zm0 8.01h-3.16c-.78 0-1.42-.64-1.42-1.42v-3.16c0-.78.64-1.42 1.42-1.42h3.16c.78 0 1.42.64 1.42 1.42v3.16c0 .78-.64 1.42-1.42 1.42zm0 8.07h-3.16c-.78 0-1.42-.64-1.42-1.42v-3.16c0-.78.64-1.42 1.42-1.42h3.16c.78 0 1.42.64 1.42 1.42V38c0 .78-.64 1.42-1.42 1.42zm4.06-19.08h12.6m-12.6 8.01h12.6m-12.6 8.07h12.6" class="st2"/><circle cx="25.64" cy="6.18" r="1.56" class="st1"/><path fill="none" stroke="#444" stroke-linecap="round" stroke-linejoin="round" stroke-miterlimit="10" d="M15.44 36.36l1.44 1.56 5.1-4.32"/></svg>