<svg xmlns="http://www.w3.org/2000/svg" id="Layer_1" x="0" y="0" version="1.1" viewBox="0 0 50 50" xml:space="preserve"><style>.st2{fill:#444}</style><path fill="#a475ef" d="M6.7 38.2l5.6 3.3L45.8 23l-.1-7.3c0-1.6-.9-3.1-2.3-4l-16-9.3c-1.4-.8-3.2-.8-4.6 0L6.7 11.7c-1.4.8-2.3 2.3-2.3 4v18.6c0 1.6.9 3.1 2.3 3.9z"/><path fill="#bf94f7" d="M33.9 6.2l-6.5-3.8c-1.4-.8-3.2-.8-4.6 0L6.7 11.7c-1.4.8-2.3 2.3-2.3 4l-.3 7.8L33.9 6.2z"/><path d="M25 49.4c-1 0-2-.3-2.9-.8L6 39.3c-1.8-1-2.9-3-2.9-5V15.7c0-2.1 1.1-4 2.9-5l16.1-9.3c1.8-1 4-1 5.8 0L44 10.7c1.8 1 2.9 3 2.9 5v13.7c0 .7-.5 1.2-1.2 1.2s-1.2-.5-1.2-1.2V15.7c0-1.2-.6-2.3-1.7-2.9L26.7 3.5c-1-.6-2.3-.6-3.3 0L7.2 12.8c-1 .6-1.7 1.7-1.7 2.9v18.6c0 1.2.6 2.3 1.7 2.9l16.1 9.3c1 .6 2.3.6 3.3 0l4.4-2.6c.6-.3 1.3-.1 1.7.4.3.6.1 1.3-.4 1.7l-4.4 2.6c-.9.5-1.9.8-2.9.8z" class="st2"/><path d="M25.6 29.5c.3.3.8.3 1.1 0l1.2-1.2.7-.7c.7-.7 1.7-1.1 2.7-1.1H35c2.1 0 3.9 1.7 3.9 3.9v2.3c0 2.1-1.7 3.9-3.9 3.9h-3.1c-.4 0-.7.3-.7.7 0 .1 0 .2.1.3.1.2.4.4.7.4h3.7c.5-.1 1-.2 1.5-.4 1.9-.8 3.2-2.7 3.2-4.9v-2.3c0-3-2.4-5.4-5.4-5.4h-3.7c-1.4 0-2.8.6-3.8 1.6l-1.8 1.8-.2.2c-.2.2-.2.7.1.9z" class="st2"/><path d="M29.6 34c0 .1 0 .2.1.3.1.2.4.4.7.4H35c1.2 0 2.2-1 2.2-2.2v-2.3c0-.4-.3-.7-.7-.7s-.7.3-.7.7v2.3c0 .4-.3.7-.7.7h-4.7c-.3 0-.6.2-.7.5-.1.2-.1.3-.1.3zm-8.8-.6l1.6 3.2c.1.3.4.4.7.4h3.4c.3 0 .5-.1.6-.4.1-.2.1-.5 0-.7l-1.6-3.2c-.1-.3-.4-.4-.7-.4h-3.4c-.3 0-.5.1-.6.4-.1.2-.1.5 0 .7zm2.7 2.1l-.8-1.7h1.7l.8 1.7h-1.7z" class="st2"/><path d="M29.2 33.4c.1.1.1.2.2.3.1 0 .1.1.2.1h.2c.2 0 .5-.1.6-.3l.2-.2.1-.1 1.7-2.4c.2-.3.2-.8-.2-1-.3-.2-.8-.2-1 .2L30 31.7l-.7 1c-.2.2-.2.5-.1.7zm7.3 7.9c.4 0 .7-.3.7-.7V37c0-.4-.3-.4-.7-.4s-.7 0-.7.4v3.6c0 .3.3.7.7.7zm-7.4 0c.4 0 .7-.3.7-.7v-1.8c0-.4-.3-.7-.7-.7s-.7.3-.7.7v1.8c0 .4.2.7.7.7zm.8-20.8v-.9c0-1.9 1.6-3.5 3.5-3.5s3.5 1.6 3.5 3.5v.9c0 1.9-1.6 3.5-3.5 3.5s-3.5-1.6-3.5-3.5zm1.5-.9v.9c0 1.1.9 2 2 2s2-.9 2-2v-.9c0-1.1-.9-2-2-2s-2 .9-2 2zm-14.9 4.2v-.2c-.1-.8-.3-1.2-.7-1.6-.4-.5-.9-1.2-.9-2.5 0-2.2 1.8-3.9 3.9-4 2.2 0 3.9 1.8 3.9 4 0 1.3-.5 1.9-.9 2.5-.3.5-.6.8-.7 1.6v.2c0 .4-.3.7-.7.7h-3.3c-.3 0-.6-.3-.6-.7zm4.2-2.7c.3-.5.6-.8.6-1.6 0-1.4-1.1-2.5-2.5-2.5s-2.5 1.1-2.5 2.5c0 .8.3 1.1.6 1.6.3.4.7 1 .9 1.9h1.9c.3-.9.7-1.4 1-1.9z" class="st2"/><path d="M20.5 26.8c-.5.2-1.1.4-1.6.4-.7 0-1.2-.2-1.7-.4 0 0-.7-.3-.7-.9v-2.6c0-.4.3-.3.7-.3h3.3c.4 0 .7-.1.7.3v2.6s0 .7-.7.9zm-.9-2.4h-1.8v1c.6.2 1.2.2 1.8 0v-1zm-.7-9.2c.4 0 .7-.3.7-.7v-1.8c0-.4-.3-.7-.7-.7s-.7.3-.7.7v1.8c0 .3.3.7.7.7zm5.3 5.3H26c.4 0 .7-.3.7-.7 0-.4-.3-.7-.7-.7h-1.8c-.4 0-.7.3-.7.7s.3.7.7.7zm-12.5 0h1.8c.4 0 .7-.3.7-.7 0-.4-.3-.7-.7-.7h-1.8c-.4 0-.7.3-.7.7s.3.7.7.7zm12.2 5c.2 0 .4-.1.5-.2.3-.3.3-.8 0-1.1L23.2 23c-.3-.3-.8-.3-1.1 0-.3.3-.3.8 0 1.1l1.3 1.3c.1.1.3.1.5.1zm-8.8-8.8c.2 0 .4-.1.5-.2.3-.3.3-.8 0-1.1l-1.3-1.3c-.3-.3-.8-.3-1.1 0s-.3.8 0 1.1l1.3 1.3c.3.2.4.2.6.2zm7.5 0c.2 0 .4-.1.5-.2l1.3-1.3c.3-.3.3-.8 0-1.1s-.8-.3-1.1 0L22 15.4c-.3.3-.3.8 0 1.1.3.2.5.2.6.2zm-8.8 8.8c.2 0 .4-.1.5-.2l1.3-1.3c.3-.3.3-.8 0-1.1-.3-.3-.8-.3-1.1 0l-1.3 1.3c-.3.3-.3.8 0 1.1.2.2.4.2.6.2zm19.5 12.9l-1-1.9-.8-1.7-.7-1.5-.1-.1-.8-1.5-1.5-2.9c-.1-.2-.4-.4-.6-.4h-7.2c-.3 0-.5.1-.6.4-.1.2-.1.5 0 .7l1.5 3 .4.7.1.2h1.7l-.5-.9-1.3-2.5h5.5l1.8 3.6.5.9 1.6 3.2.2.4H26l-.7-1.4h-1.7l.2.5 1 2c.1.3.4.4.7.4h7.2c.3 0 .5-.1.6-.4.1-.3.1-.6 0-.8z" class="st2"/></svg>