<svg xmlns="http://www.w3.org/2000/svg" id="Layer_1" x="0" y="0" version="1.1" viewBox="0 0 50 50" xml:space="preserve"><style>.st0{fill:#ade35d}</style><path d="M28.7 12.5l-.9 1c-.1.1-.2.3-.1.5s.3.3.4.3h15.6V7l-15 5.5z" class="st0"/><path fill="#c0ff68" d="M43.8 2.2h-16c-.2 0-.4.1-.5.3-.1.2 0 .4.1.5l4.9 5.4-4 4.4 15.4-5.6v-5z"/><path d="M48.8 26.8h-9.5v6.3H26.8v6.3H14.2v6.2H1.6v3.2h14.6l32.6-11.9z" class="st0"/><path fill="none" stroke="#031326" stroke-linecap="round" stroke-miterlimit="10" stroke-width="2.5" d="M48.4 48.8H1.2v-3.2h12.7v-6.2h12.5v-6.3h12.5v-6.3h9.5zm-4.7-22.2V12.1"/><path fill="#031326" d="M27.3 15.9c-.6 0-1.3-.4-1.5-1.1-.2-.6-.1-1.3.3-1.8l4.1-4.4-4-4.4c-.5-.5-.6-1.2-.3-1.8.3-.7.9-1.1 1.6-1.1H43c1.1 0 1.4.8 1.4 1.3 0 .7-.6 1.2-1.2 1.2H29.1l4.4 4.8-4.4 4.8H43c.7 0 1.2.6 1.2 1.2s-.6 1.2-1.2 1.2l-15.7.1zm0-2.5c.1 0 .1 0 0 0zM41.8 2.5c0 .3.1.5.2.7-.2-.2-.2-.4-.2-.7zm-13.9-.1z"/></svg>