<svg xmlns="http://www.w3.org/2000/svg" id="Layer_1" x="0" y="0" version="1.1" viewBox="0 0 50 50" xml:space="preserve"><style>.st2{fill:#031326}</style><path fill="#f799ff" d="M36 30.2l-11.7 4.2-3.1-19.7 14.4-5.6z"/><path fill="#e589ef" d="M36.9 37.8l-12.2 4.4-.7-10.3-2.8-8.6 13.4-4.9z"/><path d="M45.3 49.7H27.1c-2.3 0-4.1-1.8-4.1-4.1v-12c0-.4-.1-.8-.2-1.2l-2.4-6c-.3-.8-.5-1.6-.5-2.4v-8H3.3c-.7 0-1.3-.6-1.3-1.3s.6-1.3 1.3-1.3h17.9c.7 0 1.3.6 1.3 1.3V24c0 .5.1 1 .3 1.4l2.4 6c.3.7.4 1.4.4 2.2v12c0 .9.7 1.5 1.5 1.5h18.1c.1 0 .2-.1.2-.2v-4.3c0-.1 0-.1-.1-.2L35 38.9c-.5-.2-.9-.7-.9-1.2v-33c0-1-.8-1.9-1.9-1.9H15c-.7 0-1.3-.6-1.3-1.3S14.3.2 15 .2h17.2c2.4 0 4.4 2 4.4 4.4v32.1l9.6 3.3h.1c1 .4 1.6 1.4 1.6 2.5V47c.1 1.5-1.1 2.7-2.6 2.7zM11.2 2.1H8.6c-.3 0-.5-.2-.5-.5s.2-.6.5-.6h2.6c.3 0 .5.2.5.5s-.2.6-.5.6zm-5.3 0H3.3c-.3 0-.5-.3-.5-.6S3 1 3.3 1h2.6c.3 0 .5.2.5.5s-.2.6-.5.6z" class="st2"/><path d="M40.4 23.1c-.3 0-.5-.2-.5-.5V20c0-.3.2-.5.5-.5s.5.2.5.5v2.6c0 .2-.2.5-.5.5zm0 10.5c-.3 0-.5-.2-.5-.5v-2.6c0-.3.2-.5.5-.5s.5.2.5.5v2.6c0 .3-.2.5-.5.5zm0-5.3c-.3 0-.5-.2-.5-.5v-2.6c0-.3.2-.5.5-.5s.5.2.5.5v2.6c0 .3-.2.5-.5.5zm0-21.1c-.3 0-.5-.2-.5-.5V4.1c0-.3.2-.5.5-.5s.5.2.5.5v2.6c0 .3-.2.5-.5.5zm0 10.6c-.3 0-.5-.2-.5-.5v-2.6c0-.3.2-.5.5-.5s.5.2.5.5v2.6c0 .2-.2.5-.5.5zm0-5.3c-.3 0-.5-.2-.5-.5V9.3c0-.3.2-.5.5-.5s.5.2.5.5V12c0 .3-.2.5-.5.5z" class="st2"/></svg>