<?xml version="1.0" encoding="utf-8"?>
<!-- Generator: Adobe Illustrator 28.0.0, SVG Export Plug-In . SVG Version: 6.00 Build 0)  -->
<svg version="1.1" id="Layer_1" xmlns="http://www.w3.org/2000/svg" xmlns:xlink="http://www.w3.org/1999/xlink" x="0px" y="0px"
	 viewBox="0 0 50 50" style="enable-background:new 0 0 50 50;" xml:space="preserve">
<style type="text/css">
	.st0{fill:#FC9D9A;}
	.st1{fill:none;stroke:#444444;stroke-width:0.5;stroke-linecap:round;stroke-linejoin:round;stroke-miterlimit:10;}
	.st2{fill:none;stroke:#444444;stroke-linecap:round;stroke-linejoin:round;stroke-miterlimit:10;}
	.st3{fill:none;stroke:#444444;stroke-width:2.5;stroke-linecap:round;stroke-linejoin:round;stroke-miterlimit:10;}
</style>
<g>
	<path class="st0" d="M47.6,15.7c0-2.4-1.9-4.4-4.6-4.3h-4.7l0.3-0.1h-4.5c-0.6,0-1.2,0.2-1.8,0.5c-0.9,0.5-1.7,1.3-1.9,2.4
		l-1.7,0.6L22.6,17l-2.7,1l-1.8,0.6l1.9-0.7l2.7-1l6.2-2.2h-6V6.5c0-0.4-0.4-0.7-0.8-0.7c0,0-0.1,0-0.1,0c0,0,0,0,0,0
		c-0.3,0-0.6,0-0.9,0c-1.1,0-2.4-0.1-3.9-0.6c-1.9-0.7-3.2-1.8-3.9-2.5c-0.2-0.2-0.4-0.2-0.6-0.2c-0.2,0-0.4,0.1-0.6,0.2
		c-0.7,0.8-1.9,1.8-3.9,2.5C6.9,5.8,5.6,5.9,4.5,5.9c-0.3,0-0.6,0-0.9,0c0,0,0,0-0.1,0c0,0,0,0,0,0C3.1,5.8,2.7,6.2,2.7,6.5v10.4
		l0.1,0v5.9c0,0.5,0,0.8,0.2,1.2L2.8,24c0.2,0.5,0.5,1,0.9,1.5L2.9,36.8c0,1,3,4.8,3.6,5.6c1.3,3.6,5.3,5.4,8.8,4.1L30.6,41l8.8-3.2
		l9.6-3.5L47.6,15.7z"/>
	<path class="st1" d="M7.5,28.6v12.4c-1.2-0.2-2.1-0.8-2.8-1.6c-0.6-0.8-1-1.8-1-2.7V25.5C4.7,26.7,6,27.7,7.5,28.6z M30.5,14.7
		L29.7,19h-6.9v-4.3L30.5,14.7z"/>
	<path class="st2" d="M11.9,45.4c-2.4,0-4.4-1.9-4.4-4.4V28.6 M22.8,22.8V6.5c0-0.4-0.4-0.7-0.8-0.7C20.9,6,19.1,6,17.1,5.3
		s-3.2-1.8-3.9-2.5c-0.3-0.3-0.8-0.3-1.1,0c-0.7,0.8-1.9,1.8-3.9,2.5S4.5,6,3.4,5.9C3,5.9,2.6,6.2,2.6,6.5v16.2
		c0,0.4,0.1,0.9,0.2,1.3c0.2,0.5,0.5,1,0.9,1.5c1,1.2,2.3,2.2,3.8,3.1c2.1,1.3,4.2,2.1,5,2.4l0.5,0C14.5,30.5,22.8,27,22.8,22.8
		l0-3.8h6.9l0.9-4.3l0.1-0.5v-0.1c0.4-1.7,1.8-2.8,3.5-2.8h9c2.4,0,4.4,1.9,4.4,4.4"/>
	<path class="st1" d="M13.3,20.9c-0.2,0.3-0.6,0.6-1.1,0.6h-0.3c-0.1,0-0.2,0-0.3-0.1c0,0-0.1,0-0.1-0.1c0,0-0.1,0-0.1-0.1
		c0,0-0.1,0-0.1-0.1c-0.1,0-0.1-0.1-0.2-0.2l-1.3-1.5l-1.7-1.9c-0.5-0.6-0.4-1.5,0.2-1.9s1.5-0.4,1.9,0.2l1.8,2.1l3.5-4.9
		c0.4-0.6,1.3-0.8,1.8-0.3c0.6,0.4,0.8,1.3,0.3,1.9l-3.3,4.6l-0.9,1.3L13.3,20.9z"/>
	<path class="st3" d="M48.4,37.4c0-7.7,0-21.9,0-21.9s-0.3-5.4-6-5.4s-8.8,0-8.8,0s-3.9,0.5-3.9,3.5h-5.8L24,5.6
		c0-0.4-0.4-0.7-0.8-0.7C22.1,5,18.9,5,16.8,4.2s-2.6-1.8-3.3-2.6c-0.3-0.3-1.6-0.4-1.9-0.1c-0.7,0.8-2,1.9-4.1,2.7S3.5,5,2.4,4.9
		C2,4.9,1.6,5.2,1.6,5.6v17.1c0,1,0.4,2.5,1.1,3.4l-0.2,7.1c0,0-0.4,8.9,4,8.9c0,0,0.8,4,5.5,4c3.4,0,16.4,0,24.5,0"/>
	<circle class="st1" cx="36.5" cy="33.1" r="2.5"/>
	<path class="st1" d="M41.9,33.1c0-0.5-0.1-0.9-0.2-1.4l1.9-1.1L42.2,28l-1.9,1.1c-0.7-0.6-1.5-1.1-2.3-1.4v-2.2h-3v2.3
		c-0.9,0.3-1.7,0.7-2.3,1.4l-1.9-1.1l-1.5,2.6l1.9,1.1c-0.1,0.4-0.2,0.9-0.2,1.4s0.1,0.9,0.2,1.4l-1.9,1.1l1.5,2.6l1.9-1.1
		c0.7,0.6,1.5,1.1,2.3,1.4v2.2h3v-2.2c0.9-0.3,1.7-0.7,2.3-1.4l1.9,1.1l1.5-2.6l-1.9-1.1C41.8,34,41.9,33.6,41.9,33.1z"/>
	<path class="st1" d="M20,22.3c0,1.8-3.9,4.2-7.1,5.5h-0.5c-1.7-0.7-3.5-1.8-5-2.7c-0.9-0.7-1.6-1.4-1.8-1.9
		c-0.2-0.3-0.2-0.6-0.2-0.8v-13C5.5,9,5.7,8.8,6,8.7C7,8.6,8.2,8.4,9.3,8c0.7-0.2,1.5-0.6,2.1-1l0.9-0.6c0.2-0.2,0.6-0.2,0.8,0
		C13.4,6.6,13.6,6.8,14,7c0.6,0.4,1.4,0.8,2.1,1.1c1.2,0.4,2.3,0.6,3.3,0.7c0.3,0,0.6,0.3,0.6,0.6V22.3z"/>
</g>
</svg>
