<svg xmlns="http://www.w3.org/2000/svg" id="Layer_1" x="0" y="0" version="1.1" viewBox="0 0 50 50" xml:space="preserve"><style>.st2{fill:#031326}</style><path fill="#bf94f7" d="M25.6 11L11.8 23.3l-.1-11.1-5-7.7 2.1-1.1L16.5 8z"/><path fill="#a475ef" d="M41.5 22.1L13.1 47.2 11 38.7l.8-15.4L25.6 11l4.5 2.8 3.4 5.4z"/><path d="M47.7 32.9c-.7-.6-1-.9-1-1.7 0-1.2-.8-1.9-1.8-2.1 0-1-.1-2.2-.6-2.8-.3-.3-.7-.5-1.1-.5h-.7c0-.3 0-.7.1-1 .1-1.3.3-3-.7-4.1-.5-.6-1.2-.8-2.1-.8-2.4 0-7.1-.6-7-2.9.2-5.8-12.8-9.3-16.1-9.5-2.4-2.9-6-4.8-11.4-5C4.1 1.9 2.9 1.4 1.4 1 .9.9.3 1.2.2 1.7 0 2.3.4 2.9.9 3c11.6 3 10.5 15.1 9.5 26.8-.8 8.6-1.5 16.7 4 19.2.1.1.3.1.4.1.4 0 .8-.2.9-.6.2-.5 0-1.1-.5-1.4-4.1-1.8-3.5-9.2-2.8-17.1.8-8.7 1.7-19.1-4-25C19 7.3 19.3 18.9 19.7 30.1c.3 9.8.6 18.9 8.6 18.9 10.2 0 21.5-6.8 21.5-11.5.1-2.7-1.2-3.8-2.1-4.6zM28.3 47c-5.8 0-6.2-6.4-6.6-16.9-.2-6.9-.5-14.7-3.5-20.2 4.3.9 13.4 3.9 12.5 7.1-1 3.5 4.7 5 9.1 5 .3 0 .5.1.6.2.3.4.2 1.6.1 2.5 0 .5-.1.9-.1 1.2 0 .6.2 1.2.6 1.5.5.5 1.2.6 1.8.6.1.4.1 1 0 1.7-.6.8-1.3 1.6-2 2.3-.4.4-.4 1-.1 1.5.2.2.5.3.8.3.3 0 .5-.1.7-.3.8-.7 1.4-1.5 2.1-2.3.2 0 .4.1.4.2 0 1.7.9 2.6 1.7 3.2.8.7 1.4 1.3 1.4 3.1 0 2.8-9.8 9.3-19.5 9.3z" class="st2"/><path d="M30.5 19.9c0-.6-.4-1-1-1.1-2-.1-3.8.9-5 2.4-.8 1.1-1.3 2.5-1.2 3.9 0 .6.5 1 1 1h.1c.6 0 1-.5 1-1.1-.1-.9.2-1.8.8-2.6.8-1 2-1.6 3.3-1.6.5.1 1-.3 1-.9zm1.1 3.6c-.5-.3-1.1-.2-1.4.3-.3.4-.8 1-1.3 1.4-.6.5-1.3.9-1.7 1-.5.2-.9.7-.7 1.3.1.4.5.7 1 .7h.3c.8-.2 1.7-.9 2.3-1.4.7-.6 1.4-1.3 1.8-1.9.4-.5.2-1.1-.3-1.4z" class="st2"/></svg>