<svg xmlns="http://www.w3.org/2000/svg" id="Layer_1" x="0" y="0" version="1.1" viewBox="0 0 50 50" xml:space="preserve"><style>.st2{fill:none;stroke:#031326;stroke-width:.25;stroke-linecap:round;stroke-miterlimit:10}.st3{fill:#031326}</style><path fill="#f799ff" d="M38.4 10.9c0 .4-.1.8-.2 1.3v-.3c.4-2.6-1.1-5.4-4.6-7.4C27.4.9 17.3.9 11.1 4.5 8 6.2 6.5 8.6 6.5 10.9v17.6l32-11.6v-6z"/><path fill="#e589ef" d="M43.8 27.9V26c0-.7-.4-1.6-1-2.1-.2-.2-.3-.3-.5-.4l-1.6-.9-2.2-1.3V16l-32 11.6v10.1c-.1 1.9.8 3.8 2.7 5.5.5.5 1.2.9 1.9 1.3l32.8-11.9v-4.7z"/><path d="M38.5 36.1l-4.1-2.3-1.9 1" class="st2"/><path d="M41.1 42.8l1.8-1.1c.3-.2.4-.5.4-1V27c0-.7-.4-1.6-1-2.1-.2-.2-.3-.3-.5-.4l-1.6-.9-5.9-3.4-1.8 1.1" class="st2"/><path d="M32.3 7.9c-5.6-3.2-14.6-3.2-20.2 0-2 1.2-3.3 2.6-3.9 4.1.6 1.5 1.8 2.9 3.9 4.1 4 2.3 9.8 3 14.8 1.9.1 0 .2 0 .3-.1.1 0 .3-.1.4-.1 1.7-.4 3.3-1 4.7-1.8l.1-.1c1.9-1.2 3.2-2.6 3.7-4-.5-1.4-1.8-2.9-3.8-4z" class="st3"/><path d="M43.7 24c-.3-.3-.5-.5-.8-.6l-3.2-1.9V10.9c0-.2-.1-.4-.2-.6V10c-.3-2.6-2.2-5-5.2-6.7-6.6-3.8-17.2-3.8-23.8 0-3.4 2-5.3 4.7-5.3 7.6h.6-.6.9-.9v29c.2 1.7 1.1 3.4 2.6 4.8l.4.4c.7.6 1.4 1.1 2.2 1.5.1 0 .2.1.3.2l1.9 1v-.1c2.9 1.2 6.2 1.8 9.8 1.8.9 0 1.9 0 2.8-.1 2.7-.3 5.2-.9 7.4-1.8.6-.3 1.2-.6 1.7-.9.6-.3.8-1.1.5-1.7-.3-.6-1.1-.8-1.7-.5-.5.3-1 .5-1.5.8-1.9.8-4.2 1.4-6.6 1.6-4.8.5-9.5-.4-13-2.3l-.4-.2c-.5-.3-.9-.6-1.3-.9l-.3-.3c-1.6-1.4-2.3-2.9-2.2-4.5l.1-1.3h-.2V10.9c0-2 1.4-3.9 4-5.4 5.9-3.4 15.4-3.4 21.3 0 2.3 1.4 3.8 3.1 4 4.9 0 .2.1.3.2.4V23l4.5 2.6c.1 0 .2.1.3.2.3.4.6.9.6 1.3v13.8l-1.6.9c-.6.3-.8 1.1-.5 1.7.2.4.7.6 1.1.6.2 0 .4-.1.6-.2L44 43c.7-.4 1.1-1.1 1.1-2V27c-.1-1-.6-2.1-1.4-3z" class="st3"/><path d="M12.2 45.1c.6.5 1.2.9 2 1.4.1.1.2.1.3.2V19.4c-.8-.3-1.6-.6-2.3-.9v26.6z" class="st3"/><path d="M38.2 11.4c0 2.4-1.6 4.7-4.7 6.5-2.4 1.4-5.5 2.3-8.7 2.6-4.8.5-9.8-.3-13.6-2.4-.1-.1-.2-.1-.3-.2-.7-.4-1.4-.9-2-1.4-1.8-1.5-2.7-3.3-2.7-5.1m35.4 28.8V28.1c0-.9-.7-2.1-1.5-2.6l-1.6-.9-5.9-3.4v3.6l4.5 2.6c.8.5 1.5 1.6 1.5 2.6v6.7c0 .9-.7 1.3-1.5.9L32.5 35v3.6l5.9 3.4 1.6.9c.4.2.8.3 1 .1.3-.2.4-.5.4-1v-1.8z" class="st2"/></svg>