<?xml version="1.0" encoding="utf-8"?>
<!-- Generator: Adobe Illustrator 27.8.1, SVG Export Plug-In . SVG Version: 6.00 Build 0)  -->
<svg version="1.1" id="Layer_1" xmlns="http://www.w3.org/2000/svg" xmlns:xlink="http://www.w3.org/1999/xlink" x="0px" y="0px"
	 viewBox="0 0 50 50" style="enable-background:new 0 0 50 50;" xml:space="preserve">
<style type="text/css">
	.st0{fill:#E589EF;}
	.st1{fill:none;stroke:#444444;stroke-width:0.5;stroke-linecap:round;stroke-linejoin:round;stroke-miterlimit:10;}
	.st2{fill:none;stroke:#444444;stroke-linecap:round;stroke-linejoin:round;stroke-miterlimit:10;}
	.st3{fill:none;stroke:#444444;stroke-width:2.5;stroke-linecap:round;stroke-linejoin:round;stroke-miterlimit:10;}
</style>
<path class="st0" d="M29.04,15.34h-5.98v-8.1c0-0.39-0.39-0.67-0.77-0.67c-0.02,0-0.05,0-0.07,0.01c-0.01,0-0.02-0.01-0.02-0.01
	c-0.26,0.02-0.56,0.04-0.9,0.04c-1.05,0-2.41-0.13-3.83-0.62c-1.93-0.67-3.18-1.74-3.86-2.51c-0.16-0.16-0.37-0.22-0.58-0.21
	c-0.21-0.01-0.42,0.05-0.58,0.21c-0.67,0.77-1.93,1.83-3.86,2.51c-1.42,0.5-2.78,0.63-3.83,0.62c-0.34,0-0.64-0.02-0.9-0.04
	c-0.02-0.01-0.04,0-0.06,0c-0.01,0-0.02,0-0.03,0C3.4,6.47,3.01,6.86,3.01,7.24v10.31l0.1-0.03v5.82c0,0.46,0.01,0.83,0.17,1.19
	l-0.17,0.06c0.19,0.48,0.48,0.96,0.87,1.45L3.23,37.22c0,0.96,3.01,4.78,3.59,5.55c1.29,3.55,5.21,5.38,8.75,4.09l15.08-5.48
	l8.68-3.18l9.54-3.47l-1.41-18.43c0-2.41-1.93-4.34-4.53-4.24h-4.61l0.27-0.1h-4.43c-0.63,0-1.23,0.17-1.75,0.48
	c-0.93,0.47-1.65,1.33-1.91,2.41l-1.64,0.58"/>
<path class="st1" d="M7.74,29.13v12.34c-1.16-0.19-2.12-0.77-2.8-1.54c-0.58-0.77-0.96-1.74-0.96-2.7V26.04
	C4.94,27.2,6.29,28.26,7.74,29.13z M30.58,15.34l-0.87,4.24h-6.84v-4.24L30.58,15.34z"/>
<path class="st2" d="M12.08,45.8c-2.41,0-4.34-1.93-4.34-4.34V29.13 M22.87,23.34V7.24c0-0.39-0.39-0.67-0.77-0.67
	c-1.06,0.1-2.89,0.1-4.82-0.58s-3.18-1.74-3.86-2.51c-0.29-0.29-0.77-0.29-1.06,0c-0.67,0.77-1.93,1.83-3.86,2.51
	S4.75,6.67,3.69,6.57c-0.39,0-0.77,0.29-0.77,0.67v16.1c0,0.39,0.1,0.87,0.19,1.25c0.19,0.48,0.48,0.96,0.87,1.45
	c0.96,1.16,2.31,2.22,3.76,3.08c2.12,1.25,4.14,2.12,4.92,2.41l0.48,0C14.68,30.96,22.87,27.49,22.87,23.34l0-3.76h6.84l0.87-4.24
	l0.1-0.48v-0.1c0.39-1.64,1.83-2.8,3.47-2.8h8.96c2.41,0,4.34,1.93,4.34,4.34"/>
<path class="st1" d="M13.46,21.43c-0.19,0.29-0.58,0.58-1.06,0.58h-0.29c-0.1,0-0.19,0-0.29-0.1c0,0-0.1,0-0.1-0.1
	c0,0-0.1,0-0.1-0.1c0,0-0.1,0-0.1-0.1c-0.1,0-0.1-0.1-0.19-0.19l-1.25-1.45l-1.64-1.93c-0.48-0.58-0.39-1.45,0.19-1.93
	s1.45-0.39,1.93,0.19l1.83,2.12l3.47-4.82c0.39-0.58,1.25-0.77,1.83-0.29c0.58,0.39,0.77,1.25,0.29,1.93l-3.28,4.53l-0.87,1.25
	L13.46,21.43z"/>
<path class="st3" d="M48.31,37.8c0-7.6,0-21.69,0-21.69s-0.26-5.38-5.9-5.38s-8.76,0-8.76,0s-3.9,0.52-3.9,3.47h-5.73l0.12-7.88
	c0-0.41-0.41-0.71-0.81-0.71c-1.11,0.1-4.3,0.06-6.33-0.65S14.4,3.21,13.7,2.4c-0.3-0.3-1.56-0.38-1.87-0.07
	C11.12,3.14,9.8,4.25,7.77,4.96S3.82,5.67,2.71,5.57c-0.41,0-0.81,0.3-0.81,0.71V23.2c0,1.01,0.42,2.49,1.13,3.4l-0.17,7.03
	c0,0-0.43,8.85,3.99,8.85c0,0,0.81,3.94,5.49,3.94c3.33,0,16.26,0,24.32,0"/>
<circle class="st1" cx="36.46" cy="33.56" r="2.51"/>
<path class="st1" d="M41.86,33.56c0-0.48-0.1-0.87-0.19-1.35l1.93-1.06l-1.45-2.6l-1.93,1.06c-0.67-0.58-1.45-1.06-2.31-1.35v-2.22
	h-2.99v2.31c-0.87,0.29-1.64,0.67-2.31,1.35l-1.93-1.06l-1.45,2.6l1.93,1.06c-0.1,0.39-0.19,0.87-0.19,1.35
	c0,0.48,0.1,0.87,0.19,1.35l-1.93,1.06l1.45,2.6l1.93-1.06c0.67,0.58,1.45,1.06,2.31,1.35v2.22h2.99v-2.22
	c0.87-0.29,1.64-0.67,2.31-1.35l1.93,1.06l1.45-2.6l-1.93-1.06C41.77,34.43,41.86,34.04,41.86,33.56z"/>
<path class="st1" d="M20.17,22.86c0,1.74-3.86,4.14-7.04,5.49h-0.48c-1.64-0.67-3.47-1.74-4.92-2.7c-0.87-0.67-1.54-1.35-1.83-1.93
	c-0.19-0.29-0.19-0.58-0.19-0.77V10.04c0-0.39,0.29-0.58,0.58-0.67c0.96-0.1,2.12-0.29,3.28-0.67c0.67-0.19,1.45-0.58,2.12-0.96
	l0.87-0.58c0.19-0.19,0.58-0.19,0.77,0c0.29,0.19,0.48,0.39,0.87,0.58c0.58,0.39,1.35,0.77,2.12,1.06c1.16,0.39,2.31,0.58,3.28,0.67
	c0.29,0,0.58,0.29,0.58,0.58V22.86z"/>
</svg>
