<svg xmlns="http://www.w3.org/2000/svg" id="Layer_1" x="0" y="0" version="1.1" viewBox="0 0 50 50" xml:space="preserve"><style>.st0{fill:#ecc158}.st2{fill:#031326}</style><path d="M28.6 12.1l-.9 1c-.1.1-.2.3-.1.5s.2.3.4.3h15.4V6.7l-14.8 5.4z" class="st0"/><path fill="#f0cd77" d="M43.4 2H27.7c-.2 0-.4.1-.4.3-.1.2 0 .4.1.5L32.2 8l-3.9 4.3 15.2-5.5V2z"/><path d="M48.3 26.2H39v6.1H26.7v6.2H14.4v6.1H2v3.1h14.4l31.9-11.6z" class="st0"/><path d="M49.2 48.9H.4v-5.6h12.4v-6.1h12.3v-6.1h12.3V25h11.8v23.9zM2.9 46.4h43.8v-19h-6.8v6.1H27.6v6.1H15.3v6.1H2.9v.7z" class="st2"/><path d="M43.3 10.4c-.7 0-1.2.6-1.2 1.2V13h-13l4.3-4.7-4.3-4.7h13.7c.7 0 1.2-.5 1.2-1.2 0-.4-.3-1.3-1.4-1.3H27.3c-.7 0-1.2.4-1.5 1-.3.6-.1 1.3.3 1.8l4 4.3-4 4.4c-.4.5-.5 1.1-.3 1.7.2.7.9 1.1 1.5 1.1h14.9v10.5c0 .7.6 1.2 1.2 1.2s1.2-.6 1.2-1.2V11.7c0-.7-.6-1.3-1.3-1.3z" class="st2"/></svg>