<svg xmlns="http://www.w3.org/2000/svg" viewBox="0 0 50 50"><path fill="#f799ff" d="M36 24.5l1.6-.8c.1-.7 0-2.7 0-3.4V14c0-3.5-1.4-6.7-3.7-9-2.3-2.3-5.4-3.7-8.9-3.7C18.1 1.3 12.4 7 12.4 14v6.3c0 1 .1 2 .3 2.9.6 2.7 3.1 6.7 5.2 8.4l7.9-3.2L36 24.5z"/><path fill="#e589ef" d="M33.3 30.9l4.1-8.4-1.7.6-10.7 4-8 2.9c-.2 2.3-8.9 5.3-12.4 8.8-3.3 3.3-1.4 7.3-1.6 9.5l22-8.1L39.2 35l-5.9-4.1z"/><path fill="#031326" d="M44.3 36.3l-10.2-5.6c2.2-1.9 3.7-4.4 4.4-7.3 0-.1.1-.3.1-.4h5.3c.3 0 .5-.2.5-.5s-.2-.5-.5-.5h-5.1c.1-.6.1-1.2.1-1.8v-2h5c.3 0 .5-.2.5-.5s-.2-.5-.5-.5h-5v-3.3c0-3.7-1.4-7.2-4-9.8C32.2 1.4 28.7 0 25 0c-7.6 0-13.8 6.2-13.8 13.9v3.3h-5c-.3 0-.5.2-.5.5s.2.5.5.5h5v2c0 .6 0 1.2.1 1.8H6.2c-.3 0-.5.2-.5.5s.2.5.5.5h5.3c0 .1 0 .3.1.4.7 2.8 2.2 5.4 4.4 7.3L5.7 36.3c-2.4 1.3-3.9 3.9-3.9 6.7v5.7c0 .7.5 1.3 1.2 1.3h44c.7 0 1.2-.6 1.2-1.3V43c0-2.8-1.5-5.3-3.9-6.7zm-13.2-6.5c-1.7 1.1-3.6 1.7-5.6 1.7V23H36c-.7 2.8-2.5 5.3-4.9 6.8zm5.2-9.6c0 .6-.1 1.2-.1 1.8H25.5v-3.8h10.8v2zm0-6.3v3.3H25.5V2.5c2.8.2 5.5 1.3 7.5 3.4 2.1 2.1 3.3 5 3.3 8zm-22.6 0c0-6.1 4.8-11.1 10.8-11.4v14.7H13.7v-3.3zm0 6.3v-2h10.8V22H13.8c0-.6-.1-1.2-.1-1.8zM14 23h10.5v8.6c-2-.1-4-.7-5.6-1.8-.4-.3-.8-.5-1.1-.8-1.9-1.5-3.2-3.6-3.8-6zM4.3 43c0-1.9 1-3.6 2.6-4.5l11.3-6.2c1.9 1.1 4.1 1.7 6.3 1.8v13.3H4.3V43zm41.4 4.5H25.5V34.2c2.2-.1 4.4-.7 6.3-1.8l11.3 6.2c1.6.9 2.6 2.6 2.6 4.5v4.4z"/></svg>