<svg xmlns="http://www.w3.org/2000/svg" id="Layer_1" x="0" y="0" version="1.1" viewBox="0 0 50 50" xml:space="preserve"><style>.st3{fill:#444}</style><path fill="#e589ef" d="M47.4 27.8l-1.2 3.4L2.6 47.1l-.4-7.8.3-5.2 44-16.8.9 3.7v5.2"/><path fill="#f799ff" d="M47.3 10.4l-.6 7.6L2.5 34.1v-9.6l.3-4.3L47.4 4z"/><path fill="none" stroke="#444" stroke-linecap="round" stroke-linejoin="round" stroke-miterlimit="10" stroke-width="2.5" d="M12.6 47.1h-10V2.6h44.7v44.5"/><path d="M18.1 24.3l3.6-2.9c.2-.1.4-.1.5 0l3.6 2.9c.1.1.3.2.4.2.2 0 .4-.1.6-.3.2-.3.2-.8-.1-1l-1.9-1.5 1.8-1.4c.2-.1.4-.1.5 0l1.5 1.2c.3.2.8.2 1-.1.2-.3.2-.8-.1-1L28 19.1c-.7-.5-1.6-.5-2.3 0l-2 1.6-.6-.5c-.7-.5-1.6-.5-2.3 0l-3.6 2.9c-.3.2-.4.7-.1 1 .3.4.7.4 1 .2zm1-4.5c1.2 0 2.1-1 2.1-2.1 0-1.2-1-2.1-2.1-2.1-1.2 0-2.1 1-2.1 2.1 0 1.2.9 2.1 2.1 2.1zm0-2.8c.4 0 .7.3.7.7 0 .4-.3.7-.7.7s-.7-.3-.7-.7c0-.4.3-.7.7-.7z" class="st3"/><path d="M36.5 10.9h-23c-1.5 0-2.6 1.2-2.6 2.6v15.2c0 1.5 1.2 2.6 2.6 2.6.4 0 .7-.3.7-.7s-.3-.7-.7-.7c-.7 0-1.2-.5-1.2-1.2V13.5c0-.7.5-1.2 1.2-1.2h23c.7 0 1.2.5 1.2 1.2v15.2c0 .7-.5 1.2-1.2 1.2-.4 0-.7.3-.7.7s.3.7.7.7c1.5 0 2.6-1.2 2.6-2.6V13.5c0-1.4-1.2-2.6-2.6-2.6z" class="st3"/><path d="M36.3 28.4V13.9c0-.4-.3-.7-.7-.7H14.5c-.4 0-.7.3-.7.7v14.5c0 .4.3.7.7.7h7c.4 0 .7-.3.7-.7s-.3-.7-.7-.7h-6.3v-13h19.6v13h-3.1c-.4 0-.7.3-.7.7s.3.7.7.7h3.9c.3 0 .7-.3.7-.7z" class="st3"/><path d="M22 30.2l-.4.4c-.3.3-.6.8-.7 1.2l-.6 2c-.1.3 0 .5.2.7.1.1.3.2.5.2h.2l2-.6c.5-.1.9-.4 1.2-.7l.2-.2 8.9-8.9c.5-.5.5-1.4 0-1.9l-.8-.8c-.5-.5-1.4-.5-1.9 0L22 30.2zm0 2.7l.2-.7c0-.1.1-.2.2-.3l.6.6c-.1.1-.2.1-.3.2l-.7.2zm9.7-10.4l.7.7-8.2 8.2-.7-.7 8.2-8.2z" class="st3"/><path d="M16.2 30.2c.4.2.5.6.3 1l-.2.4-3.5 6.3h24.4l-3.5-6.3-.2-.4c-.2-.3-.1-.8.3-1 0 0 .7-.4 1 .3l4.3 7.7c.1.2.1.5 0 .7-.1.2-.4.4-.6.4H11.6c-.3 0-.5-.1-.6-.4-.1-.2-.1-.5 0-.7l4.3-7.7s.3-.6.9-.3z" class="st3"/><path d="M15.6 37.1h18.7s1.1 0 .7-1l-1.9-4.5-.4-1c-.1-.3-.4-.4-.7-.4h-2.6c-.4 0-.7.3-.7.7 0 .4.3.7.7.7h2.2l1.7 4.1H16.7l1.7-4.1h.6c.6 0 .9-.4.9-.8 0-.5-.5-.7-.9-.7h-1c-.3 0-.5.1-.8.8l-.3.7-1.9 4.5s-.6 1 .6 1z" class="st3"/></svg>