<svg xmlns="http://www.w3.org/2000/svg" id="Layer_1" x="0" y="0" version="1.1" viewBox="0 0 50 50" xml:space="preserve"><style>.st2{fill:#031326}.st3{fill:none}</style><path fill="#fcc34f" d="M41.2 24.7v1.4l-6.6 1.7L15 33c-1.5-2.9-2.5-5.8-3.1-8.1-.2-.6-.3-1.2-.4-1.6-.1-.3-.1-.5-.2-.8-.2 0-.4-.1-.5-.1l.5-.1c-.2-.9-.3-1.9-.3-2.9 0-8.3 6.7-15 15-15 .9 0 1.8.1 2.7.2 5.4 1 9.8 4.9 11.6 10l.6 2.4v.1c.3 1.8.4 3.5.5 5.3-.2.7-.2 1.5-.2 2.3z"/><path fill="#fdcf72" d="M40.1 14.6l-6.7 1.8-22.2 5.9c-.2-.9-.3-1.9-.3-2.9 0-8.3 6.7-15 15-15 .9 0 1.8.1 2.7.2 5.4.9 9.8 4.9 11.5 10z"/><path d="M10.7 23.1h-.1c-1.4-.2-2.9-.5-4.6-.8-.4-.1-.7-.5-.6-.9s.5-.7.9-.6c1.7.3 3.1.6 4.5.8.4.1.7.4.6.9 0 .4-.3.6-.7.6z" class="st2"/><path d="M39.9 24.6v-1.3c-1.5.3-3.1.5-4.8.7 0 .4.1.9.1 1.3 1.9-.2 3.5-.4 4.7-.7zm0-2.8c-.1-1.6-.2-3.1-.4-4.6V17c-.1-.7-.3-1.4-.5-2.1-1.3-4-4.4-7.1-8.3-8.6 1.9 3.5 3.8 8.7 4.4 16.1 2-.1 3.6-.3 4.8-.6zm-6.4.9c-.8-8.3-3-13.6-5.1-16.9h-.1c-.8-.1-1.6-.2-2.5-.2-7.6 0-13.7 6.2-13.7 13.7 0 .9.1 1.7.2 2.6 7.7 1 14.8 1.3 21.2.8zm.2 2.8c0-.5-.1-.9-.1-1.3-2.2.2-4.4.3-6.7.3-4.5 0-9.2-.4-14.2-1 .1.4.2.7.3 1.2 0 .1 0 .2.1.2 8.7 1.1 15.6 1 20.6.6zm1.5 7.2c1.5-.2 2.8-.3 3.9-.5.4-1.9.7-4 .8-6.2v-.8c-1.3.2-2.8.5-4.6.7.1 2.1 0 4.3-.1 6.8zm-1.7 2.9c0-.4.1-.9.1-1.3-1.9.2-4.1.3-6.6.3-2.9 0-6.3-.2-10-.5.2.3.3.5.5.8.1.2.3.4.4.6 6.4.6 11.6.5 15.6.1z" class="st3"/><path d="M33.7 32.8c.1-2.4.1-4.7.1-6.8-1.9.2-4.1.3-6.8.3-3.8 0-8.5-.3-13.8-.9.6 1.9 1.4 4.5 2.8 7 0 0 0 .1.1.1 7.3.8 13.2.7 17.6.3zm.5 9.6c1.5-1.3 2.9-3.6 3.9-6.8-.9.1-2 .3-3.2.4-.1 2-.3 4.2-.7 6.4zm.8-6.9c1.2-.1 2.3-.3 3.3-.4 0-.1.1-.2.1-.3.1-.3.2-.7.3-1-1 .2-2.2.3-3.6.5 0 .3 0 .8-.1 1.2zm-8 .9c-2.5 0-5.4-.1-8.6-.4 3.6 4.6 8.2 7.1 13.8 7.4.1 0 .2 0 .4-.1.4-2.5.7-4.9.9-7.1-1.9.1-4 .2-6.5.2z" class="st3"/><path d="M43.6 31.1s-.7.2-1.9.5c.3-1.8.5-3.6.6-5.5 0-.5 0-.9.1-1.4v-.1c1-.3 1.5-.4 1.5-.4.1 0 .2-.2.2-.3 0-.1-.2-.2-.3-.1 0 0-.5.2-1.3.4v-1.3c1.1-.3 1.6-.5 1.7-.5.4-.1.6-.6.5-1-.1-.4-.6-.6-1-.5 0 0-.4.1-1.2.4-.1-1.5-.2-2.9-.4-4.4v-.2c-.1-.9-.3-1.7-.6-2.6C39.6 8.4 34.8 4.3 29 3.2h-.2c-1.7-2.1-3-3.1-3.2-3.2-.4-.2-.8-.1-1 .2-.2.4-.1.8.2 1 0 0 .8.5 1.8 1.7H26c-8.9 0-16.2 7.3-16.2 16.2 0 1.1.1 2.1.3 3.1 0 .1 0 .2.1.4.1.3.1.5.2.7.1.3.1.6.2.9-1.6 0-3-.2-4.4-.5-.1 0-.3.1-.3.2s.1.3.2.3c1.5.3 3 .5 4.4.7 0 .1 0 .2.1.3.7 2.5 1.5 4.8 2.5 6.9-2.1-.3-4.4-.6-6.8-1.1-.4-.1-.8.2-.9.6-.1.4.2.8.6.9 2.8.5 5.4.9 7.9 1.2.3.5.6 1 .8 1.4-2.7-.3-5.5-.7-8.6-1.3-.1 0-.3.1-.3.2s.1.3.2.3c3.2.6 6.2 1.1 9 1.4.1.2.3.4.4.6 4.1 6.1 9.7 9.3 16.6 9.6-.2 1-.4 2.1-.6 3.2-.1.4.2.8.6.9h.2c.3 0 .7-.2.7-.6.3-1.3.5-2.6.7-3.8 3-1.1 5.5-4.6 7.1-10.1 0-.1.1-.2.1-.4 2-.4 3-.8 3-.8.1 0 .2-.2.2-.3 0-.1-.2-.2-.3-.2 0 0-.9.3-2.7.7.1-.4.2-.9.3-1.3 1.7-.4 2.6-.7 2.7-.7.4-.1.6-.6.4-1 0-.4-.4-.6-.8-.4zm-3.7-5.2c-.1 2.2-.4 4.2-.8 6.2-1.1.2-2.4.4-3.9.5.1-2.4.1-4.7.1-6.8 1.8-.2 3.4-.4 4.6-.7v.8zm-4.6-.6c0-.5-.1-.9-.1-1.3 1.7-.2 3.3-.4 4.8-.7v1.3c-1.3.3-2.9.5-4.7.7zM38.9 15c.2.7.4 1.4.5 2.1v.2c.2 1.5.4 3 .4 4.6-1.2.2-2.8.5-4.8.7-.7-7.5-2.5-12.6-4.4-16.1 3.9 1.3 7 4.5 8.3 8.5zm-13-9.4c.8 0 1.7.1 2.5.2h.1c2.1 3.3 4.3 8.6 5.1 16.9-6.4.5-13.5.3-21.2-.8-.2-.8-.2-1.7-.2-2.6-.1-7.6 6.1-13.7 13.7-13.7zM13 24.6l-.3-1.2c5 .7 9.7 1 14.2 1 2.3 0 4.6-.1 6.7-.3 0 .4.1.9.1 1.3-5 .4-12 .5-20.7-.7.1 0 0-.1 0-.1zm3 7.8c-1.4-2.6-2.3-5.1-2.8-7 5.3.7 9.9.9 13.8.9 2.6 0 4.9-.1 6.8-.3.1 2.1.1 4.4-.1 6.8-4.4.4-10.3.5-17.6-.3 0-.1-.1-.1-.1-.1zm1.6 2.5c-.2-.2-.3-.5-.5-.8 3.7.4 7 .5 10 .5 2.5 0 4.7-.1 6.6-.3 0 .4-.1.9-.1 1.3-4 .3-9.2.4-15.5-.1-.2-.2-.4-.4-.5-.6zm14.6 8.5c-5.6-.3-10.2-2.7-13.8-7.4 3.2.3 6.1.4 8.6.4s4.6-.1 6.5-.3c-.2 2.2-.5 4.6-.9 7.1-.2.1-.3.2-.4.2zm2-1c.3-2.2.6-4.4.8-6.4 1.2-.1 2.2-.3 3.2-.4-1.1 3.2-2.5 5.5-4 6.8zm4.2-7.6c0 .1-.1.2-.1.3-1 .2-2.1.3-3.3.4 0-.4.1-.9.1-1.3 1.3-.1 2.5-.3 3.6-.5-.1.4-.2.7-.3 1.1z" class="st2"/></svg>