<svg xmlns="http://www.w3.org/2000/svg" id="Layer_1" x="0" y="0" version="1.1" viewBox="0 0 50 50" xml:space="preserve"><style>.st1{fill:none;stroke:#444;stroke-width:.5;stroke-linecap:round;stroke-linejoin:round;stroke-miterlimit:10}</style><path fill="#ff6b6b" d="M47.6 16.6c0-2.4-1.9-4.4-4.6-4.3h-4.6l.3-.1h-4.5c-.6 0-1.2.2-1.8.5-.9.5-1.7 1.3-1.9 2.4l-1.7.6-6.2 2.3-2.7 1-1.7.6 1.9-.7 2.7-1 6.2-2.2h-6V7.5c0-.4-.4-.7-.8-.7h-1c-1.1 0-2.4-.1-3.9-.6-1.9-.7-3.2-1.7-3.9-2.5-.2-.2-.4-.2-.6-.2-.2 0-.4.1-.6.2-.7.8-1.9 1.8-3.9 2.5-1.3.5-2.7.7-3.7.7h-1c-.4-.2-.8.2-.8.6v10.4h.1v5.9c0 .5 0 .8.2 1.2h-.2c.2.5.5 1 .9 1.5L3 37.7c0 1 3 4.8 3.6 5.6 1.3 3.6 5.2 5.4 8.8 4.1l15.2-5.5 8.7-3.2 9.6-3.5-1.3-18.6z"/><path d="M7.6 29.5V42c-1.2-.2-2.1-.8-2.8-1.6-.6-.8-1-1.7-1-2.7V26.4c.9 1.2 2.3 2.3 3.8 3.1zm23-13.8l-.9 4.3h-6.9v-4.3h7.8z" class="st1"/><path fill="none" stroke="#444" stroke-linecap="round" stroke-linejoin="round" stroke-miterlimit="10" d="M11.9 46.4c-2.4 0-4.4-1.9-4.4-4.4V29.5m15.3-5.8V7.5c0-.4-.4-.7-.8-.7-1.1.1-2.9.1-4.9-.6S14 4.5 13.3 3.7c-.3-.3-.8-.3-1.1 0-.7.8-1.9 1.8-3.9 2.5s-3.7.7-4.8.6c-.4 0-.8.3-.8.7v16.2c0 .4.1.9.2 1.3.2.5.5 1 .9 1.5 1 1.2 2.3 2.2 3.8 3.1 2.1 1.3 4.2 2.1 5 2.4h.5c1.5-.6 9.7-4.1 9.7-8.3v-3.8h6.9l.9-4.3.1-.5V15c.4-1.7 1.8-2.8 3.5-2.8h9c2.4 0 4.4 1.9 4.4 4.4"/><path d="M13.3 21.8c-.2.3-.6.6-1.1.6H12c-.1 0-.2 0-.3-.1 0 0-.1 0-.1-.1 0 0-.1 0-.1-.1 0 0-.1 0-.1-.1-.1 0-.1-.1-.2-.2l-1.3-1.5-1.7-1.9c-.5-.6-.4-1.5.2-1.9.6-.5 1.5-.4 1.9.2l1.8 2.1 3.5-4.9c.4-.6 1.3-.8 1.8-.3.6.4.8 1.3.3 1.9l-3.3 4.6-.9 1.3-.2.4z" class="st1"/><path fill="none" stroke="#444" stroke-linecap="round" stroke-linejoin="round" stroke-miterlimit="10" stroke-width="2.5" d="M48.5 38.3V16.4s-.3-5.4-6-5.4h-8.8s-3.9.5-3.9 3.5H24l.1-7.9c0-.4-.4-.7-.8-.7-1.1.1-4.3.1-6.4-.7s-2.6-1.8-3.3-2.6c-.3-.3-1.6-.4-1.9-.1-.7.8-2 1.9-4.1 2.7s-4 .7-5.1.6c-.4 0-.8.3-.8.7v17.1c0 1 .4 2.5 1.1 3.4l-.2 7.1s-.4 8.9 4 8.9c0 0 .8 4 5.5 4h24.5"/><circle cx="36.5" cy="34" r="2.5" class="st1"/><path d="M42 34c0-.5-.1-.9-.2-1.4l1.9-1.1-1.5-2.5-1.9 1c-.7-.6-1.5-1.1-2.3-1.4v-2.2h-3v2.3c-.9.3-1.7.7-2.3 1.4L30.8 29l-1.5 2.6 1.9 1.1c-.1.4-.2.9-.2 1.4s.1.9.2 1.4l-1.9 1.1 1.5 2.6 1.9-1.1c.7.6 1.5 1.1 2.3 1.4v2.2h3v-2.2c.9-.3 1.7-.7 2.3-1.4l1.9 1.1 1.5-2.6-1.9-1.1c.1-.6.2-1 .2-1.5zM20.1 23.2c0 1.7-3.9 4.2-7.1 5.5h-.5C10.9 28.1 9 27 7.6 26c-.9-.7-1.6-1.4-1.8-1.9-.2-.3-.2-.6-.2-.8v-13c0-.4.3-.6.6-.7 1-.1 2.1-.3 3.3-.7.7-.2 1.5-.6 2.1-1l.9-.6c.2-.2.6-.2.8 0 .3.2.5.4.9.6.6.4 1.4.8 2.1 1.1 1.2.4 2.3.6 3.3.7.3 0 .6.3.6.6v12.9z" class="st1"/></svg>