<svg xmlns="http://www.w3.org/2000/svg" fill="none" viewBox="0 0 50 50"><path fill="#FCC34F" d="M31.5 35.7l11.1 12.1-31.8.3H7.6l-6.3-3.8.7-15.6 27.4-10.1.4 13 1.7 4.1z"/><path fill="#FDCF72" d="M29.9 11.4V8.1L1.3 18.3l.2 10.9 28.1-10.1.3-7.7z"/><path stroke="#444" stroke-miterlimit="10" stroke-width="2.5" d="M15.8 2.6C8.2 2.6 2 5.7 2 9.6v33.8S2.8 48 15.1 48c12.3 0 14.4-3.8 14.4-3.8V9.6c.1-3.9-6.1-7-13.7-7z"/><path fill="#444" d="M29.4 31.2H42s7.5.8 7.5 8.6-7.1 9.4-7.1 9.4h-26l13-3.8V31.2z"/><path stroke="#444" stroke-miterlimit="10" d="M15.8 16.1c6.959 0 12.6-2.91 12.6-6.5s-5.641-6.5-12.6-6.5S3.2 6.01 3.2 9.6s5.641 6.5 12.6 6.5zm0 0v32"/><path stroke="#444" stroke-miterlimit="10" stroke-width=".75" d="M20.1 15.6V47"/><path stroke="#444" stroke-miterlimit="10" stroke-width=".5" d="M23.5 14.5v31.4"/><path stroke="#444" stroke-miterlimit="10" stroke-width=".25" d="M26.4 13.2v32.7"/></svg>