<svg xmlns="http://www.w3.org/2000/svg" id="Camada_3" x="0" y="0" version="1.1" viewBox="0 0 50 50" xml:space="preserve"><style>.st0{fill:#e589ef}.st3{fill:none;stroke-miterlimit:10;stroke:#494949;stroke-width:.25}.st4{fill:#494949}</style><path d="M11.36 42.78s-4.12-2-7.06-6.9c-.77-1.28.47-2.22.47-2.22l6.59 9.12z" class="st0"/><path d="M8.48 41.13l.93-2.25-4.49-2.79" class="st0"/><path fill="#f799ff" d="M45.73 16.11l1.06 2.69L4.31 34.27 2.12 29.3l.63-11.55 2.17-4.08L34.02 3.2l4.07 2.18z"/><path d="M47.56 25.43l-.02.42L8.47 40.29l.36 1.19-5.86-10.42 42.97-15.82 1.62 5.29z" class="st0"/><path fill="none" stroke="#444" stroke-linecap="round" stroke-linejoin="round" stroke-miterlimit="10" stroke-width="2.5" d="M12.93 5.56C21.12.46 31.99.95 39.76 7.52c9.66 8.15 10.87 22.58 2.71 32.23m-7.2 5.7c-7.93 3.99-17.82 3.13-25.04-2.97C.58 34.32-.64 19.89 7.53 10.24m4.73-4.19S9.53 7.6 7.39 10.39"/><circle cx="24.94" cy="25" r="18.39" class="st3"/><path d="M11.79 9.82h26.3v30.36h-26.3z" class="st3"/><path d="M28.05 13.28c0 1.56-1.27 2.83-2.83 2.83s-2.83-1.27-2.83-2.83 1.27-2.83 2.83-2.83 2.83 1.27 2.83 2.83m10.71 7.35l-9.09-2.49c-.78-.21-1.58-.32-2.38-.32h-4.7c-.8 0-1.61.11-2.38.32l-9.09 2.49a1.086 1.086 0 00-.56 1.72c.22.29.58.44.94.41l9.89-.78.01 5.93-.58 11.17c-.01.28.09.56.28.76.19.21.46.32.75.32.24 0 .48-.08.66-.24.19-.15.31-.37.35-.61l1.88-10.34c.02-.1.11-.18.21-.18.1 0 .19.07.21.18l1.88 10.34c.06.35.3.64.63.77s.7.09.99-.11c.29-.2.45-.54.43-.89l-.6-11.18.01-5.93 9.89.78c.36.03.71-.13.94-.41.22-.29.29-.66.18-1.01-.12-.34-.4-.6-.75-.7zm-21.97-3.36l3-.82c.25-.07.5-.13.76-.18l-5.8-4.85a1.087 1.087 0 00-1.74.52c-.11.35-.03.73.2 1.01l3.58 4.32zm16.31 0l3.58-4.32c.23-.28.31-.66.2-1.01a1.11 1.11 0 00-.73-.73c-.35-.1-.73-.03-1.01.21l-5.79 4.85c.26.05.51.11.76.18l2.99.82z" class="st4"/><path d="M14.2 38.24c.2.14.44.2.68.18.24-.02.46-.13.63-.3l3.91-3.95.25-4.87-5.72 7.47c-.17.22-.24.51-.2.79.06.28.22.52.45.68zm16-8.94l.25 4.87 3.91 3.95c.25.25.61.36.95.28a1.028 1.028 0 00.6-1.63L30.2 29.3z" class="st4"/></svg>