<svg xmlns="http://www.w3.org/2000/svg" id="Layer_1" x="0" y="0" version="1.1" viewBox="0 0 50 50" xml:space="preserve"><style>.st2{fill:none}.st3{fill:#031326}</style><path fill="#dc5e82" d="M4.7 32.3v-12c0-5.3 4.2-9.5 9.5-9.5h21.7c3 0 5.7 1.4 7.4 3.6 1.3 1.6 2.1 3.7 2.1 5.9v11.9l-2.6-.3-29.6 9.7v-9.1H4.6"/><path fill="#f56991" d="M4.7 28.4v-8.1c0-5.3 4.2-9.5 9.5-9.5h21.7c3 0 5.7 1.4 7.4 3.6l-6 2.2-2.7 1-15 5.4-6.4 2.3"/><path d="M29.5 32.7l-7 8.2c-.1.2-.4.3-.6.3-.2 0-.3 0-.4-.2l-4.9-3.7-2.4 2.9v7.5h21.7v-8l-6.4-7z" class="st2"/><path d="M14.2 25.3v12.6l1.7-2.1c.3-.3.7-.4 1-.1l4.9 3.7 7.1-8.3c.1-.2.3-.3.6-.3.2 0 .4.1.6.2l5.9 6.5V24H14.3v1.3zm7.3 1.5c1.7 0 3.1 1.4 3.1 3.1S23.2 33 21.5 33s-3.1-1.4-3.1-3.1 1.4-3.1 3.1-3.1z" class="st2"/><circle cx="21.5" cy="29.9" r="1.6" class="st2"/><path d="M35.9 11.8H14.2c-4.7 0-8.5 3.8-8.5 8.5v11.2h6.5V23c0-.6.4-1 1-1h23.7c.3 0 .5.1.7.3.2.2.3.4.3.7v8.5h6.4V20.3c0-1.9-.7-3.8-1.8-5.3-1.6-2.1-4-3.2-6.6-3.2zm0 6.4c-.8 0-1.4-.6-1.4-1.4 0-.8.6-1.4 1.4-1.4.8 0 1.4.6 1.4 1.4 0 .8-.6 1.4-1.4 1.4z" class="st2"/><path d="M35.9 15.4c-.8 0-1.4.6-1.4 1.4 0 .8.6 1.4 1.4 1.4s1.4-.6 1.4-1.4c0-.8-.6-1.4-1.4-1.4z" class="st3"/><path d="M44.1 13.7c-2-2.5-5-4-8.2-4H15.1V3.2c0-.5.4-1 1-1h17.7c.5 0 1 .4 1 1v3.4c0 .6.4 1 1 1s1-.4 1-1V3.2c0-1.7-1.3-3-3-3H16.1c-1.7 0-3 1.3-3 3v6.6c-5.3.5-9.5 5-9.5 10.5v12.2c0 .6.4 1 1 1h7.5v15.3c0 .6.4 1 1 1h23.7c.6 0 1-.4 1-1V33.5h7.4c.6 0 1-.4 1-1V20.3c.1-2.4-.7-4.7-2.1-6.6zm-8.2 23.9L30 31c-.1-.2-.4-.3-.6-.2-.2 0-.4.1-.6.3l-7.1 8.3-4.9-3.7c-.3-.2-.8-.2-1 .1l-1.7 2.1V24h21.7v13.6zM14.2 47.7v-7.5l2.4-2.9 4.9 3.7c.1.1.3.2.4.2.2 0 .4-.1.6-.3l7-8.2 6.5 7.1v8H14.2zm30.1-16.2h-6.4V23c0-.3-.1-.5-.3-.7-.2-.2-.4-.3-.7-.3H13.2c-.6 0-1 .4-1 1v8.5H5.7V20.3c0-4.7 3.8-8.5 8.5-8.5h21.7c2.6 0 5 1.2 6.6 3.2 1.2 1.5 1.8 3.4 1.8 5.3v11.2z" class="st3"/><path d="M21.5 33.1c1.7 0 3.1-1.4 3.1-3.1s-1.4-3.1-3.1-3.1-3.1 1.4-3.1 3.1 1.4 3.1 3.1 3.1zm0-4.8c.9 0 1.6.7 1.6 1.6s-.7 1.6-1.6 1.6-1.6-.7-1.6-1.6.7-1.6 1.6-1.6z" class="st3"/></svg>