<svg xmlns="http://www.w3.org/2000/svg" version="1.0" viewBox="0 0 50 50"><path fill="#AFE55D" d="M42.349 23.069l-2.121-7.917c-2.35-8.77-11.365-13.975-20.135-11.625l-1.049.281c-8.77 2.35-13.975 11.365-11.625 20.135l2.922 10.906a16.336 16.336 0 004.437 7.526l27.571-19.306z"/><path fill="#C3FF68" d="M31.568 4.652a16.362 16.362 0 00-11.474-1.126l-1.049.281C10.974 5.969 5.94 13.777 7.017 21.843L31.568 4.652z"/><path fill="#031326" d="M27.345 42.736a.579.579 0 01-.036-1.156 11.603 11.603 0 002.315-.379 11.634 11.634 0 003.621-1.672.579.579 0 01.659.952 12.915 12.915 0 01-6.523 2.253c-.013.002-.025.002-.036.002zm-10.491-4.813a.58.58 0 01-.184-1.126 14.218 14.218 0 008.133-6.954.579.579 0 011.025.535 15.362 15.362 0 01-8.792 7.516.607.607 0 01-.182.029zm4.3 3.551a.577.577 0 01-.264-1.093 19.302 19.302 0 007.637-7.064.857.857 0 011.076-.345c.973.42 4.423 1.793 7.971 1.832a.579.579 0 01-.006 1.156h-.006c-3.515-.039-6.915-1.301-8.182-1.828a20.457 20.457 0 01-7.963 7.276.543.543 0 01-.263.066z"/><path fill="#031326" d="M14.698 33.397a.578.578 0 01-.149-1.137c4.973-1.332 7.935-6.463 6.602-11.435a2.915 2.915 0 012.059-3.566 2.917 2.917 0 013.567 2.059l1.008 3.762a9.336 9.336 0 0010.944 6.72.578.578 0 11.24 1.131 10.489 10.489 0 01-12.301-7.552l-1.008-3.762a1.755 1.755 0 00-3.391.908c1.497 5.589-1.831 11.355-7.42 12.852a.565.565 0 01-.151.02z"/><path fill="#031326" d="M13.415 28.608a.578.578 0 01-.149-1.137 4.35 4.35 0 002.659-2.04 4.35 4.35 0 00.437-3.323c-.543-2.027-.263-4.147.789-5.969s2.748-3.125 4.776-3.669c2.026-.543 4.147-.263 5.969.789s3.125 2.748 3.668 4.776l1.008 3.761a4.383 4.383 0 005.363 3.097.578.578 0 11.3 1.118 5.5 5.5 0 01-4.201-.553 5.498 5.498 0 01-2.579-3.361l-1.008-3.761a6.663 6.663 0 00-3.129-4.073 6.675 6.675 0 00-5.092-.674 6.665 6.665 0 00-4.073 3.129 6.664 6.664 0 00-.674 5.091 5.5 5.5 0 01-.553 4.201 5.497 5.497 0 01-3.362 2.579.591.591 0 01-.149.019z"/><path fill="#031326" d="M12.132 23.82a.578.578 0 01-.558-.428c-1.83-6.832 2.238-13.879 9.07-15.71 6.834-1.831 13.879 2.238 15.71 9.07l1.008 3.761a.58.58 0 01-1.118.3l-1.008-3.761c-1.665-6.216-8.075-9.918-14.293-8.252-6.216 1.665-9.918 8.077-8.252 14.293a.58.58 0 01-.559.727z"/><path fill="#031326" d="M26.225 47.999c-7.684 0-14.735-5.135-16.816-12.902L6.487 24.192a17.287 17.287 0 011.739-13.206 17.292 17.292 0 0110.568-8.109l1.049-.281C29.114.114 38.675 5.633 41.159 14.903l2.922 10.906a.964.964 0 11-1.863.498L39.296 15.4C37.088 7.158 28.584 2.25 20.342 4.457l-1.049.281a15.374 15.374 0 00-9.398 7.211 15.374 15.374 0 00-1.546 11.744l2.922 10.906C13.48 42.841 21.98 47.75 30.226 45.543l1.049-.282a.964.964 0 11.5 1.862l-1.049.282a17.402 17.402 0 01-4.501.594z"/></svg>