<svg xmlns="http://www.w3.org/2000/svg" version="1" viewBox="0 0 50 50"><path fill="#B9D78D" d="M8.462 2.467c5.225 2.36 11.718 7.787 11.718 15.452 0 2.574-1.52 2.31-1.52 4.29s4.49 5.382 4.49 6.208c0 1.88-1.815 2.212-1.815 2.542s1.19 1.254 1.19 1.915c0 .66-.958 1.122-.958 1.42 0 .297.924 1.155.924 1.65 0 .495-1.254 1.387-1.254 2.08 0 .693.56 1.453.56 2.872 0 .047-.02.098-.024.146l6.91-2.515c.046-.175.08-.342.08-.502 0-.694-1.254-1.585-1.254-2.08 0-.495.924-1.354.924-1.65 0-.298-.957-.76-.957-1.42 0-.66 1.19-1.585 1.19-1.915s-1.817-.66-1.817-2.54c0-.827 4.49-4.227 4.49-6.208s-1.52-1.717-1.52-4.292c0-7.665 6.493-13.092 11.72-15.452.68-.308.45-1.32-.296-1.32H8.758c-.747 0-.977 1.01-.296 1.32z"/><path fill="#CFF09E" d="M8.462 2.467c3.528 1.593 7.626 4.59 9.92 8.723l21.162-7.702a22.694 22.694 0 011.993-1.02c.68-.31.452-1.32-.295-1.32H8.758c-.747 0-.977 1.01-.296 1.32z"/><path fill="#031326" d="M25 50H10.783a1.82 1.82 0 01-1.6-.927 1.865 1.865 0 01.014-1.867c.438-.743 2.174-3.165 6.13-3.165 3.25 0 5.325-2.064 5.325-3.144 0-.656-.152-1.13-.3-1.59-.13-.403-.262-.818-.262-1.282 0-.798.543-1.437.98-1.95l.154-.185c-.07-.1-.148-.205-.203-.28-.322-.433-.6-.807-.6-1.317 0-.614.404-.995.698-1.274.05-.05.12-.115.18-.177a6.981 6.981 0 00-.392-.485c-.385-.45-.718-.84-.718-1.4 0-.74.58-1.096.927-1.31.493-.304.813-.538.877-1.038-.216-.295-.776-.878-1.2-1.32-1.537-1.6-3.28-3.416-3.28-5.082 0-1.313.533-2.01.92-2.52.35-.457.6-.787.6-1.772 0-6.95-5.948-12.105-11.042-14.406a1.818 1.818 0 01-1.04-2.053A1.838 1.838 0 018.76 0h32.484c.88 0 1.622.6 1.807 1.457a1.822 1.822 0 01-1.04 2.055c-5.094 2.3-11.042 7.455-11.042 14.406 0 .985.25 1.315.6 1.772.387.51.92 1.207.92 2.52 0 1.665-1.743 3.48-3.28 5.082-.424.442-.984 1.025-1.2 1.32.064.5.385.734.877 1.038.346.213.927.57.927 1.31 0 .56-.333.95-.718 1.4-.108.126-.28.328-.39.485.058.06.128.127.18.176.294.28.698.66.698 1.275 0 .51-.28.884-.6 1.318a8.422 8.422 0 00-.204.278c.053.066.11.13.155.186.437.514.98 1.153.98 1.95 0 .464-.134.88-.263 1.28-.147.46-.3.936-.3 1.592 0 1.08 2.073 3.145 5.324 3.145 2.752 0 4.006 1.04 4.14 1.157a1.147 1.147 0 01-1.497 1.74c-.053-.04-.845-.602-2.644-.602-4.36 0-7.618-2.872-7.618-5.44 0-1.015.237-1.753.41-2.292.057-.178.12-.376.143-.5-.083-.143-.293-.39-.424-.544-.404-.476-.82-.967-.82-1.616 0-.587.327-1.09.656-1.54-.332-.35-.69-.85-.69-1.53 0-.653.368-1.21.75-1.68-.632-.493-1.377-1.336-1.377-2.778 0-.785.618-1.43 1.85-2.714.857-.893 2.64-2.75 2.64-3.493 0-.538-.14-.723-.45-1.13-.45-.59-1.068-1.402-1.068-3.16 0-7.24 5.406-12.72 10.654-15.625H10.672C15.92 5.202 21.327 10.68 21.327 17.92c0 1.758-.618 2.57-1.068 3.16-.31.407-.45.592-.45 1.13 0 .743 1.782 2.6 2.64 3.494 1.23 1.284 1.85 1.928 1.85 2.714 0 1.44-.745 2.285-1.377 2.777.38.47.748 1.027.748 1.68 0 .68-.357 1.18-.688 1.53.33.45.657.954.657 1.54 0 .65-.42 1.14-.822 1.617a5.41 5.41 0 00-.424.543c.023.125.086.323.143.5.173.54.41 1.278.41 2.293 0 2.568-3.258 5.44-7.618 5.44-1.904 0-3.03.75-3.636 1.37H25A1.147 1.147 0 1125 50zm2.635-11.84zm.963-2.507zm-7.196 0zm7.203-2.643z"/></svg>