<svg xmlns="http://www.w3.org/2000/svg" viewBox="0 0 50 50"><path fill="#4ecdc4" d="M24.3 14.8H2v10.4l22.3-8.1z"/><path fill="none" d="M24.3 32.1l.9-.3c-.4-.6-.7-1.3-.9-2v2.3z"/><path fill="#46b8b0" d="M24.3 29.8c.3.7.6 1.3.9 2l23.6-8.6c-1.1-6-6.3-10.5-12.5-10.5-5.5 0-10.2 3.5-12 8.4v-4.9L2 24.2V36h11.4l10.9-4v-2.2z"/><path fill="#031326" d="M36.5 11.9c-5.1 0-9.6 2.9-11.8 7.2v-6.2H0v24.7h24.7v-6.2c2.2 4.3 6.7 7.2 11.8 7.2 7.3 0 13.3-6 13.3-13.3s-5.9-13.4-13.3-13.4zm0 2.5c2.9 0 5.5 1.2 7.5 3l-7.4 7.4H25.7c.2-5.7 5-10.4 10.8-10.4zM22.2 24.8h-9.7l-9.4-9.4h19.1v9.4zm-19.7-9l9.3 9.3-9.3 9.2V15.8zm.3 19.3l9.8-9.6h9.7v9.6H2.8zm22.9-9.4h10.8l7.4 7.4c-1.9 1.8-4.6 3-7.4 3-5.8 0-10.5-4.7-10.8-10.4zm18.8 6.8l-7.3-7.3 7.3-7.3c1.7 1.9 2.8 4.5 2.8 7.2 0 3-1.1 5.5-2.8 7.4z"/></svg>