<svg xmlns="http://www.w3.org/2000/svg" id="Layer_1" x="0" y="0" version="1.1" viewBox="0 0 50 50" xml:space="preserve"><style>.st2,.st3{fill:none;stroke:#444;stroke-linecap:round;stroke-linejoin:round;stroke-miterlimit:10}.st3{fill:#444}</style><path fill="#46b8b0" d="M45.2 12.5l-5.6-3.6-7.7-4.4-6-2.8c-3.2 0-21.4 8.9-21.4 12.1L4 21.6l.5 15.1L16 44.2l31-11c.8-.4-.8-18.7-1.8-20.7z"/><path fill="none" stroke="#444" stroke-linecap="round" stroke-linejoin="round" stroke-miterlimit="10" stroke-width="2.5" d="M30.5 46.5l-2.2 1.3c-1.7 1-3.8 1-5.5 0l-15.6-9c-1.7-1-2.7-2.8-2.7-4.7v-18c0-2 1-3.8 2.7-4.7l15.6-9c1.7-1 3.8-1 5.5 0l15.6 9c1.7 1 2.7 2.8 2.7 4.7v18c0 2-1 3.8-2.7 4.7l-2.5 1.4"/><path d="M43.2 14.9L25.5 25.1l-.1 5.6 12.8-6.9v8.6l-12.4 6.7-12.1-6.9V18l16.9-9.2-5-2.7-17.3 9.4.3 19.5 17.1 9.8 17.5-10z" class="st2"/><path d="M43.2 14.9L25.5 25.1 21 22.5l18-10.2z" class="st2"/><path d="M18 29.9l7.8 4.1 7.7-4.4 4.4 2.8-12.1 6.7-12.1-6.9V18l16.9-9.2-.1 4.3-12.5 7v9.8z" class="st2"/><path d="M13.7 32.2V18l16.9-9.2-.1 4.3-12.5 7v9.8" class="st3"/><path d="M25.4 30.7l-4.5-2.5.1-5.7 4.5 2.6zm-7.4-.8l-4.3 2.3L8.6 35l17.1 9.8.1-5.7-12.1-6.9" class="st3"/><path d="M33.5 29.6v-3" class="st2"/><path fill="#444" d="M33.5 29.6l4.3 2.7.4-8.5-4.7 2.6zm-7.7 9.5v.3l-.1 5.4 17.5-10-5.1-2.6z"/><path fill="none" stroke="#444" stroke-linecap="round" stroke-linejoin="round" stroke-miterlimit="10" stroke-width=".5" d="M8.3 15.5l5.4 2.5m24.5 5.8l5-8.9"/></svg>