<svg xmlns="http://www.w3.org/2000/svg" id="Layer_1" x="0" y="0" version="1.1" viewBox="0 0 50 50" xml:space="preserve"><style>.st2{fill:#031326}</style><path fill="#70c6df" d="M47.9 17.5c0-2.4-1.1-3.6-3.2-3.8L2.1 29.1v8.1c0 2.6 1.3 3.9 3.9 3.9h4.1L48 27.3c-.1-3.3-.1-6.6-.1-9.8z"/><path fill="#7dddfa" d="M44.1 13.6c-2.7 0-5.3-.1-8 0-.9 0-1.3-.3-1.4-1.2-.4-2.3-1.9-3.5-4.2-3.5H20c-2.8 0-4 .9-4.6 3.7-.2.7-.4 1-1.2 1-2.8-.1-5.5 0-8.3 0-2.5 0-3.7 1.3-3.7 3.8v11.8l42.6-15.5c-.3-.1-.5-.1-.7-.1z"/><path d="M47.9 36.1c-.7 0-1.3.6-1.3 1.2 0 1.8-.8 2.5-2.5 2.5H5.8c-1.9 0-2.6-.7-2.6-2.6V17.4c0-1.8.7-2.5 2.5-2.5h8.2c1.3 0 2.1-.6 2.4-1.9.5-2.2 1.2-2.7 3.4-2.7h10.5c1.8 0 2.7.8 3 2.5.3 1.5 1.1 2.2 2.7 2.2 2.1-.1 4.2 0 6.2 0h1.7c1.9 0 2.6.7 2.6 2.6v11.2c0 .7.6 1.2 1.2 1.2s1.2-.6 1.2-1.2V17.6c0-3.3-1.8-5.1-5.1-5.1h-8.1v-.1c-.5-2.9-2.5-4.5-5.5-4.5H19.6c-3.4 0-5.1 1.4-5.8 4.7H5.6c-3.2 0-5 1.9-5 5v19.8c0 3.3 1.8 5.1 5.1 5.1H44c3.1 0 5-1.9 5-5 .2-.9-.4-1.4-1.1-1.4z" class="st2"/><path d="M25.5 16.8c-5.4-.2-10.9 4.2-11 10.7-.1 5.8 4.9 10.7 10.6 10.7 5.8 0 10.7-4.8 10.8-10.6.1-5.8-4.7-10.6-10.4-10.8zm-.4 17.9c-4 0-7.2-3.2-7.1-7.3 0-3.9 3.2-7.1 7.2-7.1s7.2 3.2 7.2 7.3c0 3.9-3.2 7.1-7.3 7.1z" class="st2"/></svg>