<svg xmlns="http://www.w3.org/2000/svg" id="Layer_1" x="0" y="0" version="1.1" viewBox="0 0 50 50" xml:space="preserve"><style>.st2{fill:#444}</style><path fill="#fcc34f" d="M6.93 36.19zm41.74-17.81l-.82-3.88-11.34-1.33L4.64 24.92l2.29 11.27 41.33-15.25z"/><path fill="#fdcf72" d="M38.96 5.51L2.29 12.52l2.51 14 35.54-13.28.56-2.72z"/><g id="XMLID_4_"><g id="XMLID_5_"><g id="XMLID_13_"><path id="XMLID_25_" d="M38.68 6.68l1.25 6.61c.07.32.22-.5.54-.48l.69.03c.47.02 1.2.79 1.11.33L40.5 4.84c-.14-.74-.86-1.23-1.6-1.09L2.1 10.72c-.74.14-1.23.86-1.09 1.6L6.63 42c.08.4-.01 3.11 3.12 2.82.55 0 .18-.6-.1-1.08l.03-1.56-.9-.29-5.4-28.52c-.07-.39.18-.76.57-.84l33.9-6.42c.38-.06.75.19.83.57z" class="st2"/></g></g><g id="XMLID_16_"><path id="XMLID_26_" d="M46.54 12.52h-35c-1.43 0-2.6 1.16-2.6 2.6V44.8c0 1.43 1.16 2.6 2.6 2.6h29.19c.76 0 1.36-.65 1.29-1.41-.01-.1 0 .1 0 0-.02-.51-.36-1.3-1.42-1.28H12.3c-.68 0-1.22-.55-1.22-1.22V15.87c0-.68.55-1.22 1.22-1.22h33.48c.68 0 1.22.55 1.22 1.22v20.98a1.071 1.071 0 002.14 0V15.11c0-1.43-1.16-2.59-2.6-2.59z" class="st2"/></g><g id="XMLID_17_"><g id="XMLID_12_"><path id="XMLID_23_" d="M45.78 34.15c0-.55-.31-1.06-.81-1.3l-7.61-3.78c-.43-.31-1.01-.32-1.45-.02l-4.33 2.97c-.62.42-1.45.31-1.94-.26l-5.77-6.85c-.24-.28-.59-.45-.95-.45s-.72.15-.96.43l-9.14 7.53c-.34.28-.53.69-.53 1.12v8.48c0 .8.65 1.46 1.46 1.46h30.57c.8 0 1.46-.65 1.46-1.46v-7.87z" class="st2"/></g></g><g id="XMLID_18_"><g id="XMLID_11_"><circle id="XMLID_21_" cx="37.98" cy="19.82" r="2.92" class="st2" transform="rotate(-5.674 37.983 19.822)"/></g></g></g></svg>