<svg xmlns="http://www.w3.org/2000/svg" id="Layer_1" x="0" y="0" version="1.1" viewBox="0 0 50 50" xml:space="preserve"><style>.st2{fill:#031326}</style><path fill="#afe55d" d="M48.1 26.2V25C48.1 12.2 37.8 1.9 25 1.9S1.9 12.2 1.9 25c0 6.1 2.4 11.6 6.2 15.7l40-14.5z"/><path fill="#c3ff68" d="M38.6 6.3C34.8 3.5 30.1 1.9 25 1.9 14.2 1.9 5.1 9.3 2.6 19.4l36-13.1z"/><path d="M25 49.3C11.6 49.3.7 38.4.7 25S11.6.7 25 .7 49.3 11.6 49.3 25v1.2c0 .7-.6 1.2-1.3 1.2-.7 0-1.2-.6-1.2-1.3V25c0-12.1-9.8-21.9-21.9-21.9S3.1 12.9 3.1 25 12.9 46.9 25 46.9c2.5 0 5-.4 7.4-1.3.6-.2 1.3.1 1.6.7.2.6-.1 1.3-.7 1.6-2.7 1-5.5 1.4-8.3 1.4z" class="st2"/><path d="M17.1 33.2c-.1-.4 0-.9.3-1.2.3-.3.7-.5 1.1-.5h.6c-1.2-1.1-2.1-2.6-2.6-4.3h.2c.4.1.8-.4.6-.8l-1.1-1.9-.8-1.5c-.2-.3-.6-.4-.8-.1l-2 1.8-1 .9c-.3.3-.2.8.3.9l.8.1c.2 1.6.7 3.2 1.6 4.7.8 1.4 1.9 2.6 3.2 3.6l-.4-1.7z" class="st2"/><path d="M28.1 36c-.4-.1-.7-.5-.9-.9-.1-.4-.1-.8.1-1.2l.3-.5c-.8.3-1.7.4-2.6.4-.8 0-1.6-.1-2.4-.3l.2-.2c.3-.3 0-.9-.4-.9h-4c-.3 0-.6.3-.5.6l.5 2.6.3 1.3c.1.4.6.6.9.2l.5-.6c1.5.7 3.2 1 4.9 1 1.6 0 3.2-.4 4.7-1l-1.6-.5zm-6.5-21.1l-2.5-.9-1.2-.4c-.4-.1-.8.3-.7.7l.3.8c-1.3 1-2.4 2.3-3.3 3.7-.8 1.4-1.3 3-1.5 4.6l1.3-1.1c.3-.2.6-.3.9-.3.5 0 1 .3 1.2.7l.3.5c.4-1.7 1.2-3.2 2.4-4.4l.1.2c.1.4.7.5.9.1l1.1-1.9.9-1.5c.3-.3.1-.7-.2-.8z" class="st2"/><path d="M31.5 14.4l-.3-1.3c-.1-.4-.6-.6-.9-.2l-.5.6c-1.5-.7-3.2-1-4.9-1-1.6 0-3.2.3-4.7 1l1.6.6c.4.1.7.5.9.9.1.4.1.9-.1 1.2l-.3.5c.8-.3 1.7-.4 2.6-.4.8 0 1.6.1 2.4.3l-.2.2c-.3.3 0 .9.4.9h3.9c.3 0 .6-.3.5-.6l-.4-2.7z" class="st2"/><path d="M38.2 23.6l-.8-.1c-.2-1.6-.7-3.2-1.6-4.7-.8-1.4-1.9-2.6-3.2-3.6l.3 1.7c.1.4 0 .9-.3 1.2-.3.3-.7.5-1.1.5h-.6c1.2 1.1 2.1 2.6 2.6 4.3h-.2c-.4-.1-.8.4-.6.8l1.1 1.9.8 1.5c.2.3.5.4.8.1l2-1.8 1-.9c.4-.3.2-.8-.2-.9z" class="st2"/><path d="M36 27.8c-.3.2-.6.3-.9.3-.5 0-1-.3-1.2-.7l-.3-.5c-.4 1.7-1.2 3.2-2.4 4.3l-.1-.2c-.2-.4-.7-.5-.9-.1L29 32.8l-.9 1.5c-.2.3 0 .7.3.8l2.5.9 1.2.4c.4.1.8-.3.7-.7l-.3-.8c1.3-1 2.5-2.3 3.3-3.7.8-1.4 1.3-2.9 1.5-4.5L36 27.8z" class="st2"/></svg>