<svg xmlns="http://www.w3.org/2000/svg" id="Layer_1" x="0" y="0" version="1.1" viewBox="0 0 50 50" xml:space="preserve"><style>.st2{fill:#031326}</style><path fill="#fcc34f" d="M42.2 25c0-4.3-1.2-8.3-3.2-11.7L7.8 24.6v.5c0 6.5 5.1 11.7 11.5 11.9v4l21.4-7.8c1-2.6 1.5-5.3 1.5-8.2z"/><path fill="#fdcf72" d="M19.3 2.1v11.1c-6.2.2-11.2 5.2-11.5 11.4L39 13.3C35 6.6 27.7 2.1 19.3 2.1z"/><path d="M19.3.9h-1.2v11.2c-6.5.8-11.5 6.4-11.5 13.1 0 6.8 5 12.3 11.5 13.1v10.9h1.2c13.3 0 24.1-10.8 24.1-24.1S32.6.9 19.3.9zm21.6 23.4h-8.5c-.2-3-1.4-5.7-3.4-7.7l6.3-6.1c3.4 3.6 5.4 8.4 5.6 13.8zM20.6 3.4c5.3.3 10.1 2.5 13.7 6L28 15.5c-2-1.7-4.6-2.8-7.4-3V3.4zm-1.2 32.5C13.6 35.7 9 31 9 25.2c0-5.8 4.7-10.6 10.5-10.7.4 0 .7-.2.9-.5 5.8.4 10.5 5.2 10.5 11.2 0 6-4.7 10.8-10.6 11.2-.1-.3-.5-.5-.9-.5zm1.2 1.9c2.9-.2 5.5-1.3 7.5-3.1l6 6.1c-3.6 3.4-8.3 5.5-13.5 5.8v-8.8zm14.6 1.9l-6-6.1c1.9-2.1 3.1-4.9 3.2-7.9h8.5c-.2 5.4-2.3 10.3-5.7 14z" class="st2"/><path d="M19.7 16.6c-4.7 0-8.4 3.8-8.4 8.4s3.8 8.4 8.4 8.4c4.7 0 8.4-3.8 8.4-8.4s-3.7-8.4-8.4-8.4zm5.4 6.3l-5.2 5.2-1 1c-.1.1-.3.2-.5.2s-.4-.1-.5-.2l-1-1-2.6-2.6c-.1-.1-.2-.3-.2-.5s.1-.4.2-.5l1-1c.1-.1.3-.2.5-.2s.4.1.5.2l2.1 2.1 4.7-4.7c.1-.1.3-.2.5-.2s.4.1.5.2l1 1c.1.1.2.3.2.5s0 .4-.2.5z" class="st2"/></svg>