<svg xmlns="http://www.w3.org/2000/svg" id="Layer_1" x="0" y="0" version="1.1" viewBox="0 0 50 50" xml:space="preserve"><style>.st2{fill:#494949}</style><path fill="#fcc34f" d="M46.7 5.5c-.1 0-.1-.1 0 0-.2-.2-.4-.3-.5-.3l-1.2.4c-.2.2-.5.4-.7.6-.2.2-.5.4-.8.5-.1.2-.2.3-.4.4-.4.4-.8.7-1.1 1-.3.3-.8.3-1 0h-3l-1 .3-2.2.8-16 5.8-1.1.4-1.4.5-1.6.6-7.6 2.8c-.2.1-.4.3-.6.4v11c0 .1 0 .4.1.6.3.5.6.7 1 .7h2.9c.9-.2 1.9-.4 2.8-.7l8.9-3.3 1.6-.6 4.9-1.8 1-.4 4.2-1.6 1.6-.6 6.9-2.6 1.1-.4v-6.4c3.5-4.5 4.4-7 3.2-8.1z"/><path fill="#fdcf72" d="M39.8 8.3l-2.5.9-.6.2-17.3 6.2-1.1.4-2 .7-1.6.6-7.3 2.6-1.1.4V9.9c0-.8.7-1.4 1.5-1.4l32-.2z"/><path d="M48 14c-.2-.2-.5-.3-.8-.3-.7 0-1.2.5-1.2 1.2v19.5c0 1.3-1.1 2.4-2.4 2.4H6.4c-1.2 0-2.2-.9-2.3-2V8.2c0-.8.4-1.5 1-2 .3-.2.6-.3 1-.3h34c.7 0 1.2-.5 1.2-1.2s-.5-1.2-1.2-1.2H6.4c-2.6 0-4.8 2.2-4.8 4.8v26.2c0 .4 0 .8.2 1.2.5 2.1 2.4 3.6 4.6 3.6H20c.4 1.2-.1 2.4-3.4 4.9H15c-.7 0-1.2.5-1.2 1.2s.5 1.2 1.2 1.2h20c.7 0 1.2-.5 1.2-1.2s-.5-1.2-1.2-1.2h-1.6c-3.3-2.5-3.8-3.7-3.4-4.9h13.7c2.7 0 4.8-2.2 4.8-4.8V14.9c-.1-.3-.2-.7-.5-.9zM20.4 44.1c1.3-1.2 2.5-2.8 2.1-4.9h4.9c-.3 2.1.8 3.7 2.1 4.9h-9.1z" class="st2"/><path d="M43.9 19.9v11c0 .9-.7 1.5-1.5 1.5H7.6c-.8 0-1.5-.7-1.5-1.5V9.5c0-.8.7-1.5 1.5-1.5h29.2c.2 0 .4.1.5.3v.2c0 .1 0 .2-.1.3 0 .2-.2.3-.4.3H7.6s-.1 0-.2.1c-.2 0-.2.1-.2.1v22c5-9.1 6.9-12.8 7.4-14.1.1-.2.2-.5.3-.7.6-1.2 1.3-2.5 1.9-3.7.2-.4.8-.4 1 0L19 15l.2.5 4.8 9.4 5.1-9.9c.2-.4.8-.4 1 0l1 2c.2.3.1.7-.2.8-.2.1-.6 0-.7-.3l-.5-1-5.7 11-.8 1.5c-.2.4-.6.5-.9.3-.2-.2-.3-.5-.2-.8l.2-.5 1-1.9L18 15.8l-.2-.5-.6-1.1-.8 1.6-.3.7c-2.6 4.9-5.1 9.9-7.7 14.8h28.9c-.4-.7-.7-1.4-1.1-2.2-.1-.2 0-.5.2-.7.2-.1.6 0 .7.2.4.9.9 1.7 1.3 2.6h4.4V19.8c0-.3.2-.6.6-.6.3.1.5.4.5.7z" class="st2"/><path d="M42.2 8.5c0 .3-.2.6-.6.6h-7.3V8h7.9c0 .1-.1.1-.1.3 0 .1.1.1.1.2zm1.7 5.2V21h-1.1v-6.6l.2-.2c.2-.3.3-.7.6-1 .1 0 .3.2.3.5zM29.3 34.2c-.3 0-.5.2-.5.5s.2.5.5.5.5-.2.5-.5-.2-.5-.5-.5zm-4.2 0c-.3 0-.5.2-.5.5s.2.5.5.5.5-.2.5-.5-.2-.5-.5-.5zm-4.2 0c-.3 0-.5.2-.5.5s.2.5.5.5.5-.2.5-.5-.2-.5-.5-.5z" class="st2"/><path d="M47.2 5.2c-.3-.2-.6-.3-1.1-.4-1.5-.1-2.5 1.3-2.6 1.4l-.6.6c-.4.4-.8.8-1.1 1.2-.3.3-.7.7-1 1.1-.7.8-1.4 1.7-2.2 2.8-2.6 3.4-4.8 6.8-6.1 9.3l-.1.2h-.2c-.8.1-1.5.6-2 1.3-.9 1.2-.9 1.9-1 2.7v.2c0 .7-.2 1.4-.9 2.7-.1.2-.1.4 0 .5s.3.2.5.2c2.4-.7 5.2-1.8 5.9-2.8.5-.7.8-1.5.7-2.3v-.2l.2-.2.4-.4c2-1.9 4.5-4.8 7-8 .4-.5.8-1 1.1-1.5 3.4-4.8 4.3-7.3 3.1-8.4zM34.3 23.8v.2c0 .5-.2 1.1-.5 1.6-.4.6-2.1 1.3-3.4 1.8l-.9.3c.3-.7.5-1.3.5-1.7.1-.6 0-.8.1-1.3.2-.6.5-1.1.7-1.3.6-.7 1.2-1 1.6-1.1l.3.3c.5.4 1.1.8 1.6 1.2zm7.8-9.2c-1.2 1.6-2.5 3.2-3.7 4.5S36 21.6 35 22.6l-.3.3-1.5-1.2.2-.4c1.3-2.5 3.4-5.6 5.9-8.9 2.2-2.9 4-4.9 5.3-5.9.9-.7 1.5-.9 1.9-.7.1.1.2.3.2.5.2 1.2-1.4 4.1-4.6 8.3z" class="st2"/></svg>