<svg xmlns="http://www.w3.org/2000/svg" id="Layer_1" x="0" y="0" version="1.1" viewBox="0 0 50 50" xml:space="preserve"><style>.st2{fill:#444}.st3{fill:#444545}</style><path fill="#afe55d" d="M43.33 17.05v11.8l-11.87 4.33-18.93 6.9-5.86 2.14v-13.5l6.45-2.35 6.72-2.45 23.05-8.41c.12.19.22.4.29.62.1.29.15.6.15.92z"/><path fill="#c3ff68" d="M32.58 6.5l5.5-2.01a2.928 2.928 0 01-2.81 3.76c-1.2 0-2.23-.72-2.69-1.75zm10.6 9.63l-23.32 8.5-6.31 2.3-6.88 2.51V17.05c0-.43.09-.83.26-1.2l4.74-1.73L14.73 13v1.12H40.4a2.928 2.928 0 012.78 2.01z"/><path d="M40.4 47.62H9.6c-2.31 0-4.18-1.88-4.18-4.18v-26.4c0-.6.13-1.18.37-1.72a4.158 4.158 0 013.81-2.46h30.8a4.209 4.209 0 013.98 2.89c.14.39.21.84.21 1.3v26.4a4.197 4.197 0 01-4.19 4.17zM9.6 15.37c-.66 0-1.26.39-1.53.98-.11.23-.15.45-.15.69v26.4c0 .93.75 1.68 1.68 1.68h30.8c.93 0 1.68-.75 1.68-1.68v-26.4c0-.18-.03-.36-.08-.51-.04-.14-.1-.26-.17-.36-.31-.5-.85-.81-1.43-.81l-30.8.01zM3 35.16c-.69 0-1.25-.56-1.25-1.25v-7.33a1.25 1.25 0 012.5 0v7.33c0 .69-.56 1.25-1.25 1.25zm44 0c-.69 0-1.25-.56-1.25-1.25v-7.33a1.25 1.25 0 012.5 0v7.33c0 .69-.56 1.25-1.25 1.25z" class="st2"/><circle cx="14.73" cy="5.31" r="2.93" class="st3"/><path d="M14.73 15.37c-.69 0-1.25-.56-1.25-1.25V8.25a1.25 1.25 0 012.5 0v5.87c0 .69-.56 1.25-1.25 1.25z" class="st2"/><path d="M38.2 5.32c0 1.62-1.31 2.93-2.93 2.93-1.2 0-2.23-.72-2.69-1.75-.16-.36-.25-.76-.25-1.18 0-1.62 1.32-2.94 2.94-2.94a2.934 2.934 0 012.93 2.94z" class="st3"/><path d="M35.27 15.37c-.69 0-1.25-.56-1.25-1.25V8.25a1.25 1.25 0 012.5 0v5.87c0 .69-.56 1.25-1.25 1.25zm2.2 25.89H12.53c-.41 0-.75-.34-.75-.75v-7.33c0-.41.34-.75.75-.75h24.93c.41 0 .75.34.75.75v7.33c.01.42-.33.75-.74.75zm-24.19-1.5h23.43v-5.83H13.28v5.83zM16.2 28.8c-2.44 0-4.42-1.98-4.42-4.42s1.98-4.42 4.42-4.42 4.42 1.98 4.42 4.42-1.98 4.42-4.42 4.42zm0-7.34c-1.61 0-2.92 1.31-2.92 2.92s1.31 2.92 2.92 2.92 2.92-1.31 2.92-2.92-1.31-2.92-2.92-2.92zm17.6 7.34c-2.44 0-4.42-1.98-4.42-4.42s1.98-4.42 4.42-4.42 4.42 1.98 4.42 4.42-1.99 4.42-4.42 4.42zm0-7.34c-1.61 0-2.92 1.31-2.92 2.92s1.31 2.92 2.92 2.92 2.92-1.31 2.92-2.92-1.31-2.92-2.92-2.92z" class="st2"/></svg>