<svg xmlns="http://www.w3.org/2000/svg" version="1" viewBox="0 0 50 50"><path fill="#00C8E2" d="M13.239 46.766H23.34l23.325-8.49c.034-.326.052-.655.052-.99V13.288a9.48 9.48 0 00-9.48-9.48H13.239c-5.235 0-9.479 4.244-9.479 9.48v23.998c-.001 5.235 4.243 9.48 9.479 9.48z"/><path fill="#00DFFC" d="M39.69 4.14a9.454 9.454 0 00-2.453-.332H13.239a9.48 9.48 0 00-9.48 9.48v3.93L39.69 4.14z"/><path fill="#031326" d="M45.749 6.831h.899a.122.122 0 100-.244h-1.082a10.65 10.65 0 00-.684-.77l1.922-1.922a.124.124 0 000-.173.123.123 0 00-.174 0l-1.921 1.921c-.246-.24-.503-.469-.771-.685v-1.03a.122.122 0 10-.244 0v.847a10.635 10.635 0 00-6.457-2.188H13.239c-2.481 0-4.761.856-6.578 2.278v-.936a.122.122 0 00-.122-.122.122.122 0 00-.122.122v1.123c-.226.187-.441.387-.65.592L3.845 3.722a.122.122 0 00-.173 0 .122.122 0 000 .173l1.921 1.921c-.24.246-.468.503-.684.771h-.977a.122.122 0 00-.122.122c0 .067.055.122.122.122h.795a10.628 10.628 0 00-2.188 6.457v23.998c0 2.481.856 4.761 2.278 6.578h-.885a.122.122 0 100 .244h1.071c.187.226.386.441.591.65L3.673 46.68a.123.123 0 000 .174c.024.024.055.035.086.035s.062-.011.086-.035l1.922-1.922c.209.205.425.404.65.591v1.123a.122.122 0 10.244 0v-.937a10.638 10.638 0 006.578 2.278h21.569c.674 0 1.196-.422 1.196-1.339l.001-.003v-10.33l.045-.041 4.526 4.526c.024.024.055.035.087.035s.063-.011.087-.035a.125.125 0 000-.174L36.224 36.1c.031-.031.058-.066.089-.098h7.381v3.311c0 .068.054.122.122.122a.121.121 0 00.122-.122v-3.311h1.559v1.284c0 .292-.015.579-.045.862a1.22 1.22 0 102.427.255c.039-.367.058-.74.058-1.117V13.288a10.622 10.622 0 00-2.188-6.457zM14.82 43.864v-7.342a15.272 15.272 0 0010.296 4.158v3.184H14.82zm10.296.244v1.438H14.82v-1.438h10.296zM4.979 14.816h1.438v10.349H4.979V14.816zm40.518 10.349h-1.559V14.816h1.559v10.349zm-1.803 0h-3.063a15.27 15.27 0 00-4.205-10.349h7.268v10.349zM25.36 15.062c2.737.016 5.22 1.11 7.056 2.874l-7.056 7.056v-9.93zm-.244 9.93l-6.999-6.998a10.25 10.25 0 016.999-2.925v9.923zm-.173.173h-9.924a10.25 10.25 0 012.925-6.999l6.999 6.999zM14.82 22.872v-7.83l2.779 2.779a10.755 10.755 0 00-2.779 5.051zm.195 2.59h9.875l-7.004 7.004a10.25 10.25 0 01-2.871-7.004zm2.527 7.349l-2.722 2.722v-7.709a10.756 10.756 0 002.722 4.987zm7.574-7.228v10.044a10.257 10.257 0 01-7.062-2.982l7.062-7.062zm.417-.418l7.062-7.062a10.256 10.256 0 012.983 7.062H25.533zm7.407-7.406l2.821-2.821v7.875a10.753 10.753 0 00-2.821-5.054zm-.179-.168a10.758 10.758 0 00-5.192-2.775h7.967l-2.775 2.775zm-14.989.057l-2.832-2.832h8.088a10.77 10.77 0 00-5.256 2.832zm-3.196 6.626c-.029.293-.04.591-.045.891h-4.077a14.787 14.787 0 014.122-10.069v9.178zm-.049 1.188c.003.323.017.643.049.959v9.178a14.786 14.786 0 01-4.125-10.137h4.076zm3.182 7.527a10.775 10.775 0 004.85 2.769H14.94l2.769-2.769zm7.651-7.407l7.119 7.119a10.245 10.245 0 01-7.119 2.931v-10.05zm.226-.12h9.995a10.242 10.242 0 01-2.929 7.066l-7.066-7.066zm10.419-1.305v-9.078a14.79 14.79 0 014.137 10.086h-4.077a10.49 10.49 0 00-.06-1.008zM25.36 14.572v-4.076c3.923.016 7.483 1.568 10.132 4.076H25.36zm-.244 0H15.104a14.787 14.787 0 0110.011-4.07v4.07zM9.965 25.165H6.661V14.816h7.51a15.279 15.279 0 00-4.206 10.349zm-4.986.297h1.438v10.296H4.979V25.462zm1.682 0h3.301c.029 3.974 1.585 7.584 4.099 10.296h-7.4V25.462zm17.104 10.54c.443.064.892.105 1.351.113v4.077a14.792 14.792 0 01-10.144-4.19h8.793zm9.059-2.955l2.711 2.711h-7.499a10.767 10.767 0 004.788-2.711zm.173-.174a10.765 10.765 0 002.764-4.991v7.755l-2.764-2.764zm12.5-18.301h-1.559V8.478a8.201 8.201 0 011.559 4.81v1.284zm-1.803 0h-7.49l-.037-.041 6.99-6.99c.189.194.367.398.536.61v6.421zm-.71-7.204l-6.979 6.979V6.831h6.367c.213.169.417.348.612.537zm-7.223 6.79c-2.73-2.554-6.38-4.134-10.401-4.15V6.831h10.401v7.327zM25.36 6.587V5.029h10.401v1.558H25.36zm-.244 0H14.82V5.029h10.296v1.558zm0 .244v3.184a15.267 15.267 0 00-10.296 4.158V6.831h10.296zm-10.54 7.563c-.01.01-.021.018-.03.028L7.492 7.369c.194-.19.399-.369.611-.538h6.472v7.563zM7.319 7.541l7.031 7.031H6.661V8.314c.205-.27.422-.53.658-.773zm-.902 7.031H4.979v-1.284c0-1.723.532-3.323 1.438-4.648v5.932zm-1.438 21.43h1.438v5.933a8.211 8.211 0 01-1.438-4.649v-1.284zm1.682 0h7.622l.032.035-6.996 6.996a8.351 8.351 0 01-.658-.772v-6.259zm.831 7.205l6.991-6.991c.03.03.063.055.093.085v7.564H8.264a8.672 8.672 0 01-.772-.658zm17.868-7.086c.5-.003.989-.05 1.472-.119h8.793a14.797 14.797 0 01-10.264 4.196v-4.077zm10.645-9.583c.039-.354.06-.713.064-1.076h4.077a14.79 14.79 0 01-4.141 10.154v-9.078zm6.041-19.951h-6.041V5.029h1.232c1.795 0 3.453.582 4.809 1.558zm-27.47-1.558v1.558H8.43a8.204 8.204 0 014.809-1.558h1.337zM8.59 44.108h5.985v1.438h-1.337a8.21 8.21 0 01-4.648-1.438zm16.77 1.438v-1.438h5.618c.068 0 .122-.054.122-.122s-.054-.122-.122-.122H25.36v-3.178c4.021-.016 7.672-1.595 10.401-4.15v9.009l-10.401.001zm11.175-9.788c2.514-2.712 4.07-6.322 4.099-10.296h3.06v10.296h-7.159zm7.403 0V25.462h1.559v10.296h-1.559z"/></svg>