<?xml version="1.0" encoding="utf-8"?>
<!-- Generator: Adobe Illustrator 28.0.0, SVG Export Plug-In . SVG Version: 6.00 Build 0)  -->
<svg version="1.1" id="Camada_1" xmlns="http://www.w3.org/2000/svg" xmlns:xlink="http://www.w3.org/1999/xlink" x="0px" y="0px"
	 viewBox="0 0 51.1 50" style="enable-background:new 0 0 51.1 50;" xml:space="preserve">
<style type="text/css">
	.st0{fill:#FF6B6B;}
	.st1{fill:none;stroke:#444444;stroke-width:2.5;stroke-linecap:round;stroke-linejoin:round;stroke-miterlimit:10;}
	.st2{fill:#444444;}
	.st3{fill:none;stroke:#494949;stroke-width:0.5;stroke-miterlimit:10;}
	.st4{fill:none;stroke:#494949;stroke-linecap:round;stroke-linejoin:round;stroke-miterlimit:10;}
</style>
<g>
	<path class="st0" d="M48.3,16.6l0.5-11l-1.9-3.8L31.5,2.2c-3.2,0-27.8-3-27.8,0.2L2,23.1l1.2,23.5l13.6,0.6l31-11
		C48.5,35.8,49.3,18.6,48.3,16.6z"/>
	<path class="st1" d="M36.4,47.7H6.2c-1.9,0-3.4-1.6-3.4-3.5v-39c0-2,1.5-3.5,3.4-3.5h39c1.9,0,3.4,1.6,3.4,3.5V36"/>
	<circle class="st2" cx="8.9" cy="7.6" r="1.4"/>
	<circle class="st2" cx="12.8" cy="7.6" r="1.4"/>
	<circle class="st2" cx="16.6" cy="7.6" r="1.4"/>
	<circle class="st3" cx="26.1" cy="35.8" r="4"/>
	<circle class="st4" cx="13.4" cy="23.2" r="4"/>
	<path class="st3" d="M33.9,19.2h7.9v7.9h-7.9V19.2z"/>
	<path class="st4" d="M9.4,31.8h7.9v7.9H9.4V31.8z M27.9,19.4h-4.5l-2.3,3.8l2.3,3.9h4.5l2.2-3.9L27.9,19.4z M37.9,32.2l-4.2,7.2H42
		L37.9,32.2z"/>
</g>
</svg>
