<svg xmlns="http://www.w3.org/2000/svg" id="Camada_3" x="0" y="0" version="1.1" viewBox="0 0 50 50" xml:space="preserve"><style>.st3,.st4{fill:none;stroke:#444;stroke-linecap:round;stroke-linejoin:round;stroke-miterlimit:10}.st4{stroke-width:.5}</style><path fill="#00dffc" d="M31.02 4.38l-5.97-2.84c-3.2 0-21.45 8.94-21.45 12.14l-.53 7.8L38.68 8.81l-7.66-4.43z"/><path fill="#00c8e2" d="M3.07 21.48l.53 15.13 11.5 7.56 31.02-11.04c.74-.42-.82-18.75-1.8-20.74L38.69 8.8 3.07 21.48z"/><path fill="none" stroke="#444" stroke-linecap="round" stroke-linejoin="round" stroke-miterlimit="10" stroke-width="2.5" d="M29.57 46.45l-2.2 1.27c-1.69.98-3.78.98-5.47 0L6.33 38.73a5.48 5.48 0 01-2.74-4.74V16.01a5.46 5.46 0 012.74-4.74L21.9 2.28c1.69-.98 3.78-.98 5.47 0l15.57 8.99a5.48 5.48 0 012.74 4.74v17.98a5.46 5.46 0 01-2.74 4.74l-2.46 1.42"/><path d="M19.96 47.23V30.68c0-.93-.43-1.81-1.17-2.38l-1.29-.99a3.003 3.003 0 01-1.17-2.38v-2.7m13.31 19.15V30.51c0-.9.39-1.76 1.1-2.32 1.15-.92 2.78-2.51 2.73-4.08v-8.28s-.03-1.36-1.63-1.36c-1.29 0-1.76.96-1.76.96m-11.17 7.76s1.05.09 1.05-1.25v-6.49s0-1.5 1.75-1.5c1.73 0 1.63 1.53 1.63 1.53v3.76-3.76s.17-1.71 1.67-1.71c1.62 0 1.62 1.48 1.62 1.48v3.99" class="st3"/><path d="M26.62 15.25s.24-1.48 1.79-1.48c1.67 0 1.67 1.29 1.67 1.29v4.18" class="st3"/><path d="M33.67 21.93h5.6c.9 0 1.68-.7 1.69-1.6v-2.62c0-1.81-1.58-1.87-1.58-1.87h-5.91m-13.51-.4h-6.65c-.56 0-1.11.14-1.6.42l-4.86 2.73a.52.52 0 00.02.88l4.91 2.18c.42.19.87.28 1.33.28h6.86m18.12 0v-6.09m-27.61 4.93v-4.04" class="st4"/><path d="M12.72 15.84l2.18 3.22-2.28 2.62m7.34-2.69h-5.18m21.47 0h-2.36m2.57 2.94v-6.09" class="st4"/></svg>