<svg xmlns="http://www.w3.org/2000/svg" id="Layer_1" x="0" y="0" version="1.1" viewBox="0 0 50 50" xml:space="preserve"><style>.st2{fill:#031326}</style><path fill="#ff6b6b" d="M48.6 5H1.4v18.3L48.6 6.1z"/><path fill="#e56060" d="M48.6 6.1L1.4 23.3v18.3h5.2l42-15.3z"/><path d="M.2 4.6v39.1H30c.7 0 1.2-.6 1.2-1.2s-.6-1.2-1.2-1.2H2.7v-25h44.6v25H40c-.7 0-1.2.6-1.2 1.2s.6 1.2 1.2 1.2h9.8V4.6H.2zm2.5 10.1V7.1h7.2l1.9 3.3-2.5 4.3H2.7zm8.4 0l2.5-4.3-1.9-3.3h8.1l1.9 3.3-2.5 4.3h-8.1zm9.9 0l2.5-4.3-1.9-3.3h7.3l1.9 3.3-2.5 4.3H21zm9 0l2.5-4.3-1.9-3.3h7.3l1.9 3.3-2.5 4.3H30zm9 0l2.5-4.3-1.9-3.3h7.8v7.6H39z" class="st2"/><path d="M10 39.2c-.1 0-.2-.1-.2-.2V18.1c0-.1.1-.2.2-.2s.2.1.2.2V39c0 .1-.1.2-.2.2zm10 0c-.1 0-.2-.1-.2-.2V18.1c0-.1.1-.2.2-.2s.2.1.2.2V39c0 .1-.1.2-.2.2zm10 0c-.1 0-.2-.1-.2-.2V18.1c0-.1.1-.2.2-.2s.2.1.2.2V39c0 .1-.1.2-.2.2zm10 0c-.1 0-.2-.1-.2-.2V18.1c0-.1.1-.2.2-.2s.2.1.2.2V39c.1.1-.1.2-.2.2zM4.2 25.5h4.2v4.2H4.2z" class="st2"/><circle cx="14.9" cy="27.6" r="2.5" class="st2"/><path d="M26.6 25.1h-2.8l-1.5 2.5 1.5 2.4h2.8l1.4-2.4zm10.7 4.8l-5.3-.1 2.7-4.6zm6.3-5.2l1 1.9 2.1.3-1.5 1.5.3 2.1-1.9-1-1.8 1 .3-2.1-1.5-1.5 2.1-.3z" class="st2"/></svg>