<svg xmlns="http://www.w3.org/2000/svg" id="Layer_1" x="0" y="0" version="1.1" viewBox="0 0 50 50" xml:space="preserve"><style>.st2{fill:#031326}</style><path fill="#fcc34f" d="M38 15.6L12 25v15.5L38.2 31c-.1-5.8-.1-11.9-.2-15.4z"/><path fill="#fdcf72" d="M38.1 12.4c.1-.2.1-.3 0-.5.1-.2 0-.5-.2-.7l-6.2-5.1-.3-4c0-.2-.1-.4-.3-.5-.2-.1-.4-.1-.5-.1L19.7 5.7c-.3.1-.4.4-.4.6l.3 2.3-6.7 2.9c-.2-.1-.4-.1-.6 0-.2.3-.3.5-.3.7V25l26-9.4c0-1.6.1-2.7.1-3.2z"/><path d="M23.6 8.2h2.1v1.1h-2.1z" class="st2" transform="rotate(-21.921 24.678 8.768)"/><path d="M26.4 7.1h2.1v1.1h-2.1z" class="st2" transform="rotate(-21.921 27.438 7.657)"/><path d="M39 12.5c.1-.2.1-.5 0-.7.1-.6-.2-1.3-.7-1.7l-5.7-4.7-.2-3.4c0-.6-.4-1.1-.9-1.4-.5-.3-1.1-.4-1.7-.2L19.2 4.5c-.8.3-1.3 1.1-1.2 2l.2 1.4-5.5 2.4c-.4 0-.8.1-1.1.3-.5.3-.9.9-.9 1.6V42c0 .7.4 1.4 1.1 1.7l12.4 5.9c.2.1.5.2.8.2.3 0 .6-.1.8-.2l12.4-6.1c.6-.3 1.1-1 1-1.7-.1-10.7-.3-27-.2-29.3zM19.7 9.9v.3c0 .2.1.4.2.6l2.9 4.5-7.5-3.5 4.4-1.9zm4.7 37l-11.2-5.3V12.7l.3-.1 10.9 5.2v29.1zm.9-30.5l-3.7-5.8 1.5-.6-.4-1-1.5.6-.4-3L30 3.1l.2 2.9-1.2.4.4 1 1.2-.4 5.4 4.4c-1.4.8-5.8 2.8-10.7 5zm.6 30.3v-29c3.2-1.4 8.4-3.7 10.5-4.9-.1 4.4.2 25.2.3 28.5l-10.8 5.4z" class="st2"/></svg>