<svg xmlns="http://www.w3.org/2000/svg" id="Layer_1" x="0" y="0" version="1.1" viewBox="0 0 50 50" xml:space="preserve"><style>.st2{fill:#444}.st4{fill:none;stroke:#444;stroke-width:.25;stroke-miterlimit:10}</style><path fill="#00dffc" d="M26.14 8.99H15.65l-2.13 3.68c-.77.24-10.94 1.01-10.94 1.81v10.74L38.2 12.54l-10.77.13-1.29-3.68z"/><path fill="#00c8e2" d="M2.26 24.69l.48 15.93 13.78.96 26.89-9.56 5.26-12.25-8.41-.59-3.49-6.52z"/><path d="M28.34 22.27l-1.52 1.52 2.99 2.99 1.52-1.52c.14-.14.14-.37 0-.51l-2.47-2.47a.365.365 0 00-.52-.01z" class="st2"/><path d="M29.81 26.79l-3-3 1.53-1.53c.14-.14.38-.14.52 0l2.47 2.47c.14.14.14.38 0 .52l-1.52 1.54zm-2.98-3l2.98 2.98 1.52-1.52a.35.35 0 000-.5l-2.47-2.47a.35.35 0 00-.5 0l-1.53 1.51zm-.43.42l-7.1 7.1-2.04 4.79c-.06.15.09.29.23.23l4.79-2.04 7.1-7.1-2.98-2.98zM19.14 35.1l-.63-.63 1.02-2.39 2.01 2.01-2.4 1.01z" class="st2"/><path d="M17.3 36.3a.184.184 0 01-.04-.2l2.04-4.79 7.11-7.11 3 3-7.11 7.11-4.79 2.04c-.08.02-.16.01-.21-.05zm2.01-4.98l-2.04 4.79c-.03.06-.01.14.04.18s.12.06.18.04l4.79-2.04 7.1-7.1-2.98-2.98-7.09 7.11zm-.18 3.79l-.64-.64 1.02-2.4 2.02 2.02-2.4 1.02zm-.62-.65l.63.63 2.38-1.01-1.99-1.99-1.02 2.37z" class="st2"/><path fill="none" stroke="#444" stroke-linecap="round" stroke-miterlimit="10" stroke-width=".25" d="M17.24 36.87h4.17c.26 0 .52-.02.77-.06.86-.13 2.01-.11 3.18-1.7 0 0 1.18-2.02 2.92.66 1.33 2.04 2.56 1.3 2.56 1.3s.55-.31.5-.92c-.12-1.55 1.23-1.05 3.7.72"/><path d="M14.81 18.14h25.18l-1.02-.38v-1.14c0-.31-.06-.61-.18-.88s-.28-.51-.49-.72c-.21-.2.25-.55-.02-.66-.27-.11-1.15-.97-1.46-.97h-9.96l-.11-.03v.33-.66c0-.47-.1-.91-.27-1.32a3.435 3.435 0 00-1.81-1.81c-.41-.17-.85-.27-1.32-.27h-5.8c-.23 0-.45.02-.67.07a3.283 3.283 0 00-1.21.5c-.18.12-.36.27-.52.43-.16.16-.31.33-.43.52a3.283 3.283 0 00-.56 1.87v.99l-.39-.19-3.92-1.01-1.96.31H5.27l-1.67.09c-.31 0-.46.7-.73.81-.27.11-.11.79-.32 1a2.243 2.243 0 00-.67 1.6v20.24L3.79 33l1.91-3.86 1.91-3.86 1.91-3.86c.23-.47.55-.91.92-1.31s.81-.75 1.29-1.04c.47-.29.98-.53 1.5-.69.52-.16 1.05-.24 1.58-.24zm2.13-6.17c0-.06.01-.13.02-.19s.03-.12.06-.18a.7.7 0 01.09-.17l.12-.15c.04-.05.09-.09.15-.12.05-.04.11-.07.17-.09l.18-.06c.06-.01.13-.01.19-.01h5.04c.14 0 .27.03.38.08.12.05.22.12.31.21s.16.19.21.31c.05.12.08.24.08.38v1.16h-6.96v-1.17z" class="st4"/><path d="M46.44 26.86l2.19-4.43c.14-.28.21-.54.21-.79s-.05-.46-.17-.64c-.11-.18-.28-.33-.5-.44-.22-.1-.49-.16-.8-.16H14.81c-.31 0-.64.06-.96.16-.32.1-.64.25-.93.44s-.57.4-.8.64a3.3 3.3 0 00-.57.79l-2.19 4.43-2.19 4.43-2.19 4.43-2.19 4.43c-.14.28-.2-.43-.21-.18 0 .24.05.46.17.64.11.18.29.33.51.44.22.1.49.16.8.16h24.42" class="st4"/><path fill="none" stroke="#444" stroke-linecap="round" stroke-linejoin="round" stroke-miterlimit="10" stroke-width="2.5" d="M42.36 33.59l4.08-7.95 2.19-4.43c.14-.28.21-.54.21-.79.01-.24-.05-.46-.17-.64-.11-.18-.28-.33-.5-.44-.22-.1-.49-.16-.8-.16h-8.39m0 0V15.4c0-.31-.06-.61-.18-.88s-.28-.51-.49-.72c-.21-.2-.45-.37-.72-.48-.27-.11-.57-.18-.88-.18h-9.96v-1.32c0-.47-.1-.91-.27-1.32a3.435 3.435 0 00-1.81-1.81c-.41-.17-.85-.27-1.32-.27h-5.8c-.23 0-.45.02-.67.07a3.283 3.283 0 00-1.21.5c-.18.12-.36.27-.52.43-.16.16-.31.33-.43.52a3.283 3.283 0 00-.56 1.87v1.32h-10c-.31 0-.61.06-.88.18-.28.12-.52.29-.73.49a2.243 2.243 0 00-.67 1.6v23.52h0c.02.17-.01.7.38 1.23.5.69 1.54.81 1.78.81.28 0-.31 0 0 0h31"/></svg>