<svg xmlns="http://www.w3.org/2000/svg" viewBox="0 0 50 50"><defs><style>.cls-4{fill:#494949}</style></defs><g id="Layer_1" data-name="Layer 1"><path fill="none" stroke="#494949" stroke-miterlimit="10" stroke-width="3.11" d="M-50.54-96.7h425.11v443.81H-50.54z"/><path fill="#afe55d" d="M46.65 6.86c-.1 0-.1-.1 0 0a.91.91 0 00-.5-.3L45 7c-.2.2-.5.4-.7.6a2.18 2.18 0 01-.8.5.78.78 0 01-.4.4c-.4.4-.8.7-1.1 1a.67.67 0 01-1 0h-3l-1 .3-2.2.8-16 5.8-1.1.4-1.4.5-1.6.6-7.6 2.8c-.2.1-.4.3-.6.4v11a1.49 1.49 0 00.1.6c.3.5.6.7 1 .7h2.9a28.64 28.64 0 002.8-.7l8.9-3.3 1.6-.6 4.9-1.8 1-.4 4.2-1.6 1.6-.6 6.9-2.6 1.1-.4V15c3.5-4.54 4.35-7 3.15-8.14z"/><path fill="#c3ff68" d="M39.75 9.66l-2.5.9-.6.2L19.35 17l-1.1.4-2 .7-1.6.6-7.3 2.6-1.1.4V11.26a1.45 1.45 0 011.5-1.4l32-.2z"/><path d="M48 15.36a1.14 1.14 0 00-.8-.3 1.16 1.16 0 00-1.2 1.2v19.5a2.43 2.43 0 01-2.4 2.4H6.35a2.29 2.29 0 01-2.3-2V9.56a2.61 2.61 0 011-2 1.69 1.69 0 011-.3h34a1.16 1.16 0 001.2-1.2 1.16 1.16 0 00-1.2-1.2H6.35a4.87 4.87 0 00-4.8 4.8v26.2a2.54 2.54 0 00.2 1.2 4.72 4.72 0 004.6 3.6H20c.4 1.2-.1 2.4-3.4 4.9H15A1.2 1.2 0 1015 48h20a1.2 1.2 0 000-2.4h-1.6c-3.3-2.5-3.8-3.7-3.4-4.9h13.7a4.8 4.8 0 004.8-4.8V16.26a1.62 1.62 0 00-.5-.9zm-27.6 30.1c1.3-1.2 2.5-2.8 2.1-4.9h4.9a5.53 5.53 0 002.1 4.9z" class="cls-4"/><path d="M43.85 21.26v11a1.47 1.47 0 01-1.5 1.5H7.55a1.54 1.54 0 01-1.5-1.5v-21.4a1.54 1.54 0 011.5-1.5h29.2a.55.55 0 01.5.3v.2a.37.37 0 01-.1.3c0 .2-.2.3-.4.3H7.55a.31.31 0 00-.2.1c-.2 0-.2.1-.2.1v22c5-9.1 6.9-12.8 7.4-14.1.1-.2.2-.5.3-.7.6-1.2 1.3-2.5 1.9-3.7a.57.57 0 011 0l1.2 2.2.2.5 4.8 9.4 5.1-9.9a.57.57 0 011 0l1 2a.52.52 0 01-.2.8.55.55 0 01-.7-.3l-.5-1-5.7 11-.8 1.5a.61.61 0 01-.9.3.78.78 0 01-.2-.8l.2-.5 1-1.9L18 17.16l-.2-.5-.6-1.1-.8 1.6-.3.7c-2.6 4.9-5.1 9.9-7.7 14.8h28.9c-.4-.7-.7-1.4-1.1-2.2a.66.66 0 01.2-.7.62.62 0 01.7.2c.4.9.9 1.7 1.3 2.6h4.4v-11.4a.58.58 0 01.6-.6.75.75 0 01.45.7z" class="cls-4"/><path d="M42.15 9.86a.58.58 0 01-.6.6h-7.3v-1.1h7.9c0 .1-.1.1-.1.3s.1.1.1.2zm1.7 5.2v7.3h-1.1v-6.6l.2-.2a5.3 5.3 0 01.6-1c.1 0 .3.2.3.5zm-14.6 20.5a.5.5 0 10.5.5.47.47 0 00-.5-.5zm-4.2 0a.5.5 0 10.5.5.47.47 0 00-.5-.5zm-4.2 0a.5.5 0 10.5.5.47.47 0 00-.5-.5z" class="cls-4"/><path d="M47.15 6.56a2.82 2.82 0 00-1.1-.4 3.36 3.36 0 00-2.6 1.4l-.6.6a12 12 0 00-1.1 1.2 11 11 0 00-1 1.1c-.7.8-1.4 1.7-2.2 2.8a68.92 68.92 0 00-6.1 9.3l-.1.2h-.2a3 3 0 00-2 1.3 4.51 4.51 0 00-1 2.7V27a5.54 5.54 0 01-.9 2.7.45.45 0 000 .5.76.76 0 00.5.2c2.4-.7 5.2-1.8 5.9-2.8a3.31 3.31 0 00.7-2.3v-.2l.2-.2.4-.4a77.93 77.93 0 007-8 14.31 14.31 0 001.1-1.5c3.4-4.84 4.3-7.34 3.1-8.44zm-12.9 18.6v.2a3.32 3.32 0 01-.5 1.6c-.4.6-2.1 1.3-3.4 1.8l-.9.3a5.06 5.06 0 00.5-1.7c.1-.6 0-.8.1-1.3a3.75 3.75 0 01.7-1.3 3.25 3.25 0 011.6-1.1l.3.3c.5.4 1.1.8 1.6 1.2zm7.8-9.2c-1.2 1.6-2.5 3.2-3.7 4.5S36 23 35 24l-.3.3-1.5-1.2.2-.4a67.61 67.61 0 015.9-8.9 33.79 33.79 0 015.3-5.9c.9-.7 1.5-.9 1.9-.7a.76.76 0 01.2.5c.15 1.16-1.45 4.06-4.65 8.3z" class="cls-4"/></g></svg>