<svg xmlns="http://www.w3.org/2000/svg" id="Camada_1" x="0" y="0" version="1.1" viewBox="0 0 50 50" xml:space="preserve"><style>.st2{fill:#031326}</style><switch><g><path fill="#c86060" d="M21.8 39.1c.4-.5 2.9.5 2.9.5 2.1-1.4 2.9-1 3.2-.8l15.7-5.7c1.8-2.8 2.8-5.4 2.8-5.4 1.9-8.2-2.5-15.4-7-20.3L3.2 20.5C-.6 34.2 14.7 40 14.7 40s-2.8 3-3.5 4.8l10.2-3.7c0-.8.2-1.8.4-2z"/><path fill="#e06b6b" d="M31 .9C11.4.9 4.5 18.2 4.5 18.2c-.4.8-.6 1.7-.9 2.4L39.2 7.7C35.2 3.4 31 .9 31 .9z"/><path d="M19.4 49.6c-.6 0-1.1 0-1.7-.1-1.2-.1-2.3-.3-3.3-.6-3.9-1.1-4.1-2.7-4-3.6.3-1.3 1.6-3.1 2.7-4.4-2.6-1.3-7.7-4.4-9.9-9.8-1.7-3.8-1.6-8.1.4-12.6C3.7 18.3 11.1.4 31.3.4h.4l.3.2c.2.1 4.8 3 9.1 7.9 5.8 6.6 8 13.6 6.5 20.2v.2c0 .1-1.2 3.3-3.4 6.4-.4.6-1.2.7-1.7.3s-.7-1.2-.3-1.7c1.8-2.6 2.9-5.3 3.1-5.8C48 14.8 33.2 4.4 30.9 2.9c-18.2.2-24.7 15.9-25 16.5-1.7 4-1.8 7.6-.4 10.8 2.7 6.2 10.1 9.1 10.1 9.1l1.7.7-1.3 1.4c-1.3 1.4-2.8 3.3-3.1 4.3.2.2.9.6 2.1.9.9.2 1.9.4 2.9.5 1 .1 2 .1 2.9 0 0-.8.1-2 .4-3.2-.5-.4-.8-1.2-.8-2.1 0-.8.1-2.3.7-3 .3-.3.9-1 3.7-.1 1.4-.8 2.5-1 3.4-.7.7.3 1.1.8 1.2 1.2l.1.3c0 .1 0 .3.1.5.1 1 .4 2.6-.6 3.5.4 1 .8 2.3 1.1 3.2.3 0 .7-.1 1.3-.2 1.1-.2 2.5-.5 3.6-.9 1.1-.3 1.8-.6 2.2-.8-.4-.8-1.6-2.6-2.8-4.1l-1.5-1.9 2.4-.2c.2 0 .5 0 .7-.1.7-.1 1.3.3 1.5 1 .1.3 0 .6-.1.8 1.8 2.4 2.7 4.1 2.5 5-.1.9-.9 1.7-4.1 2.6-1.3.4-2.7.7-4 .9-2.2.3-2.9.2-3.3-.1H28l-.1-.5c-.4-1.8-1.2-4-1.6-4.5l-.4-.5.4-1.8 1 .1c0-.3-.1-.8-.1-1.1-.3.1-.7.3-1.5.7l-.5.3-.6-.2c-.6-.2-1.2-.3-1.6-.4-.1.4-.1.8 0 1.1l1.8-.2-.8 2c-.8 1.9-.6 4.4-.6 4.4l.1 1.2-1.2.2c-.9.1-1.9.1-2.9.1zm3.6-7.5zm.1-1.8z" class="st2"/><path d="M13.6 27h-.3c-.8 0-1.8.3-1.5 1.3.4 1 2.1.9 2.8.4 1-.7-.2-1.6-1-1.7zm23.6 0h-.3c-.8 0-1.8.3-1.5 1.3.4 1 2.1.9 2.8.4.9-.6-.3-1.6-1-1.7zm-18.1-2.3c-.4 0-.8.2-.7.7.1 1 2 .4 1.2-.4-.1-.2-.3-.3-.5-.3zm13 0c-.4 0-.8.2-.7.7.1 1 2 .4 1.2-.4-.1-.2-.3-.3-.5-.3zm-5.2 5.5h-4.4v.3h.2-.2c.1.7.2 1.4.5 1.9s1 .9 2 .9h.1c.7 0 1.2-.4 1.4-.9.2-.5.3-1.1.3-1.5v-.5l.1-.2z" class="st2"/><path d="M43.3 22.1c-.4-.4-.9-.6-1.4-.8-.4-4.7-3.9-8.3-9.6-9.7-1.9-.5-4-.7-6.3-.7-4.6 0-8.7 1-11.4 1.8C7.9 15 7.5 20.4 7.5 22v.2c-1.2.7-1.9 2.1-2 3.6 0 1.7.9 3.5 3 3.8.5.4 1 .8 1.4 1.2 2.8 5.5 9.5 6.1 14.3 6.1 1.5 0 2.9-.1 4.2-.1 4.8-.2 8.2-1.5 10.4-4 .6-.7 1.1-1.4 1.4-2.2.6-.7 1.1-1.3 1.6-1.8 1.2-.3 2.1-1.1 2.4-2.2.1-.4.2-.9.2-1.4 0-1.3-.4-2.4-1.1-3.1zm-3.2-1.8l-.1-.4h-.4c-.1 0-5.7-.4-6.3-3.3 0-.2 0-.7-.4-.9-.3-.2-.7-.1-1.1.2-4.6 3.6-9.5 5-14.7 4.1-3.9-.7-6.4-2.5-6.5-2.5l-.5-.3c.9-1.2 2.4-2.4 4.6-3.2 6.1-1.8 12.3-2.2 17-1 3.1.8 8.2 2.9 8.7 8.5h-.2c.1-.4 0-.8-.1-1.2zM10 17.7v.5c-.1.6-.2 1.1-.3 1.7-.1.8-.2 1.6-.4 2.4h-.7c0-.9.2-2.8 1.4-4.6zm-1.1 11h-.1c-1.5-.1-2.2-1.5-2.2-2.8 0-.9.3-2 1.2-2.6l.1.3.5-.2c.3-.1.5-.1.9-.1-.2.9-.3 1.8-.3 2.7 0 1.1.1 2.1.3 3-.1 0-.2-.1-.3-.2l-.1-.1zm19.5 7.2c-1.3.1-2.7.1-4.1.1-4.6 0-11-.6-13.5-5.6v-.2c-.6-1.2-.8-2.5-.8-4.2 0-.9.1-1.7.2-2.6l.1-.5c.1-1 .3-1.9.4-2.8.1-.4.1-.8.2-1.2 1 .6 3.2 1.7 6.2 2.2 3.7.7 9.4.5 15.3-4.2.7 3.1 5.3 3.8 6.8 4 .3 1.8.7 3.7.6 5.6 0 2.6-.6 4.4-1.9 5.9-.1.1-.1.1-.1.2-2 2-5 3.1-9.4 3.3zm14.9-9.6c-.2.8-.8 1.4-1.7 1.5h-.1l-.2.2-.7.7c.1-.7.2-1.5.2-2.3 0-1.3-.2-2.6-.4-3.9.2 0 .4 0 .5.1l.5.1.1-.4c.4.1.8.3 1.1.5.7.7.8 1.8.8 2.4 0 .4 0 .8-.1 1.1z" class="st2"/><path d="M18.4 27.8c-1.4 0-2.6-1.2-2.6-2.6s1.2-2.6 2.6-2.6 2.6 1.2 2.6 2.6-1.2 2.6-2.6 2.6zm0-4.4c-1 0-1.8.8-1.8 1.8s.8 1.8 1.8 1.8 1.8-.8 1.8-1.8-.8-1.8-1.8-1.8zm13.1 4.4c-1.4 0-2.6-1.2-2.6-2.6s1.2-2.6 2.6-2.6c1.4 0 2.6 1.2 2.6 2.6s-1.2 2.6-2.6 2.6zm0-4.4c-1 0-1.8.8-1.8 1.8s.8 1.8 1.8 1.8 1.8-.8 1.8-1.8-.8-1.8-1.8-1.8zm-5.7 5.2c-.2 0-.4-.2-.4-.4 0-.5-.4-.9-.9-.9s-.9.4-.9.9c0 .2-.2.4-.4.4s-.4-.2-.4-.4c0-.9.7-1.6 1.6-1.6s1.6.7 1.6 1.6c.2.2 0 .4-.2.4z" class="st2"/><path fill="none" d="M24.7 39.5s-2.5-1-2.9-.5c-.3.3-.5 1.3-.4 2.1l6.5-2.4c-.2-.2-1-.5-3.2.8z"/></g></switch></svg>