<svg xmlns="http://www.w3.org/2000/svg" id="Camada_3" x="0" y="0" version="1.1" viewBox="0 0 50 50" xml:space="preserve"><style>.st2{stroke-width:2.5}.st2,.st3{fill:none;stroke:#444;stroke-linecap:round;stroke-linejoin:round;stroke-miterlimit:10}</style><path fill="#e589ef" d="M38.15 17.88l1.3 4.9 4.7-.11 3.87 10.82-27.96 10.18-3.22-7.13-7.37-1.87-4.33-4.8-3.16-4.47 30.1-10.91-1.12 5.46.79 2.94z"/><path fill="#f799ff" d="M24.86 9.24l.94.77 4.57.47 2.25 2.29-.27 3.47L2.32 26.96l2.92-16.48 11.23-5.26 4.09.21z"/><path d="M3.23 8.56s11.73 7.15 24.58-.93c.51-.32 1.77-1.08 2.03-2.38.25-1.24-.47-2.57-1.47-3.22-2.02-1.29-5.65-.09-6.61 2.02-1.08 2.39 1.37 5.66 4.38 6.48 3.4.93 6.32-1.61 6.48-1.75m-2.25 5.68c3.47-2.55 4.59-1.82 5.85-.35 1.28 1.5.03 4.47-.13 4.84-.98 2.33-3.2 4.22-4.34 3.94-1.06-.26-1.42-1.51-.45-3.88 1.28-3.15 5.18-5.28 8.72-4.88.99.11 3.3.38 4.41 2.32.83 1.44.8 3.46-.29 4.84-1.61 2.04-5.36 2.85-5.56 1.08-.1-.91 1.07-2.67 2.74-3.53 2.01-1.04 5.18-1.12 6.19.52.93 1.52 0 4.54-2.96 6.35" class="st2"/><path d="M16.6 14.9s-.58 5.02-2.28 5.32c0 0 .67 1.25 2.09 1.7M6.12 23.33s4.77-5.54 8.81 3.35m24.41 5.42l-14.48.84S25.25 43 32.66 43c5.55 0 7.28-4.51 6.68-10.9zm-7.26-5.28l-2.51.78 2.78 2.27m-8.29-2.02s.63-1.9 2.32-.82m9.8.22s1.59-1.17 2.2.71" class="st3"/><ellipse cx="12.14" cy="16.44" class="st3" rx=".26" ry=".77"/><ellipse cx="20.82" cy="17.17" class="st3" rx=".27" ry=".72"/><path d="M31.83 17.13c-1.82.07-3.96.47-5.74 1.21-7.99 3.35-11.75 12.54-8.4 20.53s12.54 11.75 20.53 8.4m1.91-27.97c-1.28-.87-1.83-1.01-3.3-1.47m9.13 22.42c1.03-1.92 1.67-4.04 1.84-6.23.19-2.41-.18-4.9-1.17-7.29-.78-1.86-1.74-3.35-3.06-4.71" class="st2"/><path d="M21.51 5.61c-1.13-.26-2.3-.39-3.5-.39-8.66 0-15.68 7.02-15.68 15.68 0 8.27 6.4 15.04 14.51 15.64m15.93-20.45c-.27-.52-1.51-3.7-1.84-4.18-.35-.5-.72-.98-1.13-1.44" class="st2"/></svg>