<svg xmlns="http://www.w3.org/2000/svg" viewBox="0 0 50 50"><path fill="#d4ff73" d="M25.4 2.2c-12.1 0-22 9.4-23 21.2L41.8 9.1c-4.2-4.3-10-6.9-16.4-6.9z"/><path fill="#bee367" d="M47.9 24.6c0-6.2-2.5-11.8-6.6-15.9L2.5 22.8c0 .6-.1 1.2-.1 1.8 0 4.3 1.2 8.4 3.4 11.9l.1.1.6.9c.1.1.1.2.2.3.2.3.4.5.6.8.1.1.1.2.2.3.3.3.6.7.8 1l.9.9.3.3c.2.2.5.4.7.6l.3.3c.3.2.6.5.9.7l.1.1c.1.1.2.1.3.2l35.3-12.9c.6-1.7.8-3.6.8-5.5z"/><path fill="#031326" fill-rule="evenodd" d="M9.1 16.9H7.3v13.6h15.4c0-7.5-6.1-13.6-13.6-13.6zm2.4 8.5h6.1c2.1 0 3.8 1.7 3.8 3.8h-9.9v-3.8zm29.2-8.5c-7.5 0-13.6 6.1-13.6 13.6h15.4V16.9h-1.8zm-2.3 12.3h-9.9c0-2.1 1.7-3.8 3.8-3.8h6.1v3.8z" clip-rule="evenodd"/><path fill="#031326" d="M25 .6C11.5.6.6 11.5.6 25c0 13.5 11 24.4 24.4 24.4 13.5 0 24.4-11 24.4-24.4C49.4 11.5 38.5.6 25 .6zM46.9 25c0 3.6-.9 7-2.4 10H25.2V3.1c12 .1 21.7 9.9 21.7 21.9zM24.7 3.1V35H5.5C4 32 3.1 28.6 3.1 25c0-12 9.6-21.7 21.6-21.9zm.3 43.8c-8.3 0-15.5-4.6-19.2-11.4h38.5c-3.8 6.8-11 11.4-19.3 11.4z"/></svg>