<svg xmlns="http://www.w3.org/2000/svg" id="Layer_1" x="0" y="0" version="1.1" viewBox="0 0 50 50" xml:space="preserve"><style>.st2{fill:#444}</style><path fill="#a6c1c2" d="M7.4 37.7l5.4 3.1 32-17.7-.1-7c0-1.6-.8-3-2.2-3.8L27.2 3.5c-1.3-.8-3-.8-4.4 0L7.4 12.3c-1.3.8-2.2 2.2-2.2 3.8v17.8c0 1.5.9 3 2.2 3.8z"/><path fill="#b9d7d9" d="M33.4 7.1l-6.2-3.7c-1.3-.8-3-.8-4.4 0L7.4 12.3c-1.3.8-2.2 2.2-2.2 3.8l-.3 7.5L33.4 7.1z"/><path d="M25 48.3c-1 0-1.9-.2-2.8-.7L6.8 38.7c-1.7-1-2.8-2.8-2.8-4.8V16.1c0-2 1.1-3.8 2.8-4.8l15.4-8.9c1.7-1 3.8-1 5.5 0l15.4 8.9c1.7 1 2.8 2.8 2.8 4.8v13c0 .6-.5 1.2-1.2 1.2s-1.2-.5-1.2-1.2v-13c0-1.1-.6-2.2-1.6-2.8L26.6 4.5c-1-.6-2.2-.6-3.2 0L8 13.4C7 14 6.4 15 6.4 16.2V34c0 1 .6 2.1 1.6 2.6l15.4 8.9c1 .6 2.2.6 3.2 0l4.3-2.5c.6-.3 1.3-.1 1.6.4.3.6.1 1.3-.4 1.6l-4.3 2.5c-.9.6-1.8.8-2.8.8z" class="st2"/><path fill="none" stroke="#454545" stroke-linecap="round" stroke-linejoin="round" stroke-miterlimit="10" stroke-width=".25" d="M24.8 12.4V2.9M6.2 36.5l5.9-5.9"/><path d="M19.6 37.5l16.9-9.7v-6.5l-4.1 2.3-1.5.9V18l-5.7 3.3v6.5L19.6 31z" class="st2"/><path fill="none" stroke="#444" stroke-miterlimit="10" stroke-width=".25" d="M13.3 27.4v7.3l5.6 3.3.7.4.7-.4 16.9-9.8v-7.3l-.7-.4-4.2-2.5h0l-.7-.4-.7-.4-5.6-3.3-5.6 3.3-.7.4v6.5L14 27l-.7.4zm7-8.2l4.3 2.5v4.9l-4.3-2.5v-4.9zm9.2-1.2l-3.2 1.8-1.1.6L21 18l4.3-2.5 4.2 2.5zm5.6 3.3l-3.6 2.1v-4.1l3.6 2zM20.3 31.4l5.6-3.3v-6.5L27 21l3.2-1.8v6.5l1-.6v0l4.6-2.7v4.9l-15.5 9v-4.9zm-4.9-3.6l4.3-2.5 4.3 2.5-4.3 2.5-4.3-2.5zm-.7 1.2l4.3 2.5v4.9l-4.3-2.5V29z"/></svg>