<svg xmlns="http://www.w3.org/2000/svg" id="Layer_1" x="0" y="0" version="1.1" viewBox="0 0 50 50" xml:space="preserve"><style>.st2{fill:#031326}.st3{fill:#424143}</style><path fill="#bee367" d="M42.3 29.7c.1 0 .3-.1.4-.2l.2-.2s0-.1.1-.1l4.5-1.6c0-2.2-1-4.2-2.6-5.4 1-1.1 1.6-2.6 1.6-4.1 0-2.9-2-5.3-4.8-5.9.1-.4.1-.8.1-1.2v-.4L2.9 24.7c-.4.9-.6 1.9-.6 2.9 0 2.5 1.3 4.7 3.4 5.9-.4.8-.6 1.7-.6 2.7 0 2.4 1.4 4.5 3.4 5.5L42 29.5c.1.1.2.2.3.2z"/><path fill="#d4ff73" d="M33.8 3.2c-4.3 0-7.9 3.5-7.9 7.9v1.8h-2.1v-1.8c0-4.3-3.5-7.9-7.9-7.9S8 6.7 8 11c0 .4 0 .8.1 1.2-2.7.6-4.8 3-4.8 5.9 0 1.5.6 3 1.6 4.1-.9.7-1.6 1.6-2 2.6l38.7-14.1c-.2-4.2-3.6-7.5-7.8-7.5z"/><path d="M28.7 40.1h-2.2V33c0-1.9.1-3.5.4-4.9V28h-3.5v.1c.2 1.3.4 2.9.4 4.9v7.1h-2.2c-.9 0-1.9-.6-1.9-1.8v-1.4c0-1 .1-2-.2-2.7-1-1.5-2.7-4.3-3.1-5.3v-.1c-.6-1.3-.9-2.7-.9-4.1 0-5.3 4.3-9.6 9.6-9.6h.5c5.3 0 9.6 4.3 9.6 9.6 0 1.5-.3 2.9-1 4.2v.1c-.4 1.1-2.1 3.8-3.1 5.4-.3.6-.2 1.7-.2 2.7v1.4c-.3 1-1.2 1.6-2.2 1.6zm-.7-1.5h.7c.4 0 .4-.2.4-.4v-1.3c0-1.2-.1-2.4.4-3.4l.1-.1c1.2-1.8 2.6-4.1 3-5l.1-.2c.6-1.2.8-2.4.8-3.6 0-4.4-3.6-8.1-8.1-8.1h-.5c-4.4 0-8.1 3.6-8.1 8.1 0 1.2.3 2.4.8 3.5l.1.2c.3.9 1.8 3.2 2.9 5l.1.1c.5 1 .4 2.3.4 3.4v1.3c0 .2 0 .4.4.4h.7v-5.6c0-1.5-.1-2.9-.3-4-2-.2-2.9-1-3.2-1.6-.4-.7-.4-1.6 0-2.4.4-.7 1.1-1.1 1.8-1.2.9-.1 1.8.3 2.5 1.1.4.4.7 1 .9 1.7h2.2c.2-.8.5-1.3.9-1.7.7-.8 1.6-1.2 2.5-1.1.8.1 1.4.5 1.8 1.2.4.8.4 1.7 0 2.4-.4.6-1.2 1.4-3.2 1.6-.2 1.1-.3 2.5-.3 4v5.7zm1.4-13.5c-.4 0-.8.2-1.1.6-.2.2-.5.7-.7 1.7v.1h.1c1.8-.1 2.4-.6 2.6-.9.2-.3.2-.6 0-.9-.1-.3-.4-.4-.7-.5-.2 0-.2-.1-.2-.1zm-8.5.1h-.1c-.3 0-.5.2-.7.4-.2.3-.2.6 0 .9.2.3.8.9 2.6.9h.1v-.1c-.3-1-.5-1.5-.7-1.7-.4-.2-.8-.4-1.2-.4z" class="st2"/><path d="M32.1 42.1c-.6-.2-1-.6-1.2-1.1-.1-.3-.4-.4-.7-.2-.3.1-.4.4-.2.7.4.8 1 1.4 1.8 1.7.4.1.7.2 1.1.2.5 0 .9-.1 1.4-.3 1.5-.7 2.2-2.4 1.7-4-.1-.3-.4-.4-.6-.3-.3.1-.4.4-.3.6.4 1.1-.1 2.3-1.1 2.7-.8.2-1.4.3-1.9 0zm4.6-30.3c-.1.3.1.5.3.6h.1c.2 0 .4-.1.5-.4.6-2.2-.7-4.5-2.8-5.1-1.1-.3-2.2-.2-3.1.4-1 .5-1.7 1.4-2 2.5-.1.3.1.5.3.6.3.1.5-.1.6-.3.2-.8.8-1.5 1.5-1.9.7-.4 1.6-.5 2.4-.3 1.8.5 2.7 2.2 2.2 3.9z" class="st3"/><path d="M48.9 27.4c0-2.1-.8-4.1-2.2-5.6.8-1.2 1.2-2.5 1.2-3.9 0-3-1.9-5.7-4.7-6.8v-.3c0-5-4.1-9.1-9.1-9.1-4.5 0-8.2 3.2-9 7.4-.8-4.2-4.5-7.4-9-7.4-5 0-9.1 4.1-9.1 9.1v.3c-2.8 1-4.7 3.7-4.7 6.8 0 1.4.4 2.8 1.2 3.9-1.4 1.5-2.2 3.5-2.2 5.6 0 2.5 1.2 4.9 3.1 6.4-.2.7-.3 1.5-.3 2.2 0 3.4 2.3 6.3 5.5 7.2 1.3 3 4.2 4.9 7.5 4.9 4 0 7.3-2.9 8-6.6.7 3.8 4.1 6.6 8 6.6 3.3 0 6.2-2 7.5-4.9 3.2-.9 5.5-3.8 5.5-7.2 0-.8-.1-1.5-.3-2.2 2-1.5 3.1-3.9 3.1-6.4zm-10.1 9.8c.4.8.6 1.7.6 2.6-.1-.9-.3-1.8-.6-2.6zm.5 3.5v.3c-.1-.1-.1-.2 0-.3zm3.6-7.5c-.1 0-.1.1-.2.1.1-.1.1-.1.2-.1zM37 28c1 1.2 1.2 2.8.7 4.2 0 .1-.1.1-.1.2 0-.1.1-.1.1-.2.5-1.5.2-3.1-.7-4.2zm.5 4.4l-.2.4-.3.3-.1.1c.3-.2.5-.5.6-.8zm3.2-19.2c-.1.3-.3.7-.4 1 .1-.3.3-.7.4-1zm-28.2 19c0 .1.1.1.1.2 0-.1 0-.2-.1-.2-.6-1.4-.3-3 .7-4.2-1 1.1-1.2 2.7-.7 4.2zm.7 1s-.1 0 0 0l-.3-.4-.2-.4c.1.3.3.6.5.8zm-2.3 7.6v-.1c0 .1 0 .2.1.3l-.1-.2zm-.1-1zm-3.4-6.6s.1 0 0 0c.1 0 0 0 0 0zM10 14.4c-.1-.1-.1-.2-.1-.3 0 .1.1.2.1.3zm-.4-.7c0-.1-.1-.2-.1-.2.1 0 .1.1.1.2zm15.6 25.7c-.2-.4-.6-.7-1.1-.7-.6 0-1.1.4-1.2 1h-.2c0 3-2.4 5.4-5.4 5.4-2.4 0-4.5-1.6-5.2-3.8v-.2c-.1-.5-.2-1-.2-1.4 0-.8.2-1.5.5-2.2.1-.2.1-.5 0-.8-.1-.3-.3-.4-.5-.6-.2-.1-.5-.1-.8 0-.3.1-.4.3-.6.5-.4 1-.7 2-.7 3.1v.4C8.1 39.4 7 37.7 7 35.9c0-.6.1-1.1.3-1.6 1.7.6 3.6.5 5.3-.2.9 1 2.3 1.6 3.7 1.6.5 0 1-.4 1-1s-.4-1-1-1c-1.2 0-2.3-.8-2.8-1.9-.4-1.1-.2-2.3.5-3.1.2-.2.3-.5.2-.7s-.1-.5-.4-.7c-.4-.4-1.1-.3-1.4.1-1.2 1.4-1.5 3.3-.9 5-.6.2-1.2.3-1.8.3-3 0-5.4-2.4-5.4-5.4 0-2.5 1.7-4.7 4.1-5.3.3-.1.5-.2.6-.5.1-.2.2-.5.1-.8-.1-.5-.6-.8-1.1-.7-.5.1-1.1.3-1.6.6-.7-.8-1.1-1.8-1.1-2.9 0-2 1.3-3.7 3.1-4.3.5 1.3 1.2 2.5 2.3 3.4-.8 1.6-.6 3.4.5 4.9.3.4 1 .5 1.4.2.2-.2.4-.4.4-.7s0-.5-.2-.7c-.7-.9-.7-2-.2-3 .5-.9 1.4-1.4 2.5-1.3.6 0 1-.4 1-1 0-.3-.1-.5-.3-.7s-.4-.3-.7-.3c-1.2-.1-2.3.3-3.2 1.1-1.3-1.2-2-2.9-2-4.6 0-3.5 2.9-6.4 6.4-6.4.9 0 1.7.2 2.5.5.4.2.7.4 1.1.6 1.7 1.1 2.8 3.1 2.8 5.3v1.9h.1V14l1.4-.1h1.9l1.4.1v-3.1c0-3.4 2.5-6.1 5.8-6.5h.5c3.5 0 6.4 2.9 6.4 6.4 0 1.8-.7 3.4-2 4.6-.9-.7-2-1.1-3.2-1.1-.3 0-.5.1-.7.3-.2.1-.3.4-.3.6 0 .5.5 1 1 1 1 0 1.9.5 2.5 1.3.5.9.5 2.1-.2 3-.2.2-.2.5-.2.7s.2.5.4.7c.4.3 1.1.2 1.4-.2 1-1.4 1.2-3.2.5-4.8 1-.9 1.8-2.1 2.3-3.4 1.8.6 3.1 2.3 3.1 4.3 0 1-.4 2.1-1.1 2.9-.5-.3-1-.4-1.6-.6-.3-.1-.5 0-.8.1-.2.1-.4.4-.5.6-.1.3 0 .5.1.8s.4.4.6.5c2.4.6 4.1 2.8 4.1 5.3 0 3-2.4 5.4-5.4 5.4-.6 0-1.2-.1-1.8-.3.6-1.7.3-3.6-.9-5-.4-.4-1-.5-1.4-.1-.2.2-.3.4-.4.7s.1.5.2.7c.7.9.9 2.1.5 3.1-.5 1.1-1.6 1.9-2.8 1.9-.3 0-.5.1-.7.3-.2.2-.3.4-.3.7 0 .5.5 1 1 1 1.4 0 2.7-.6 3.7-1.6 1.7.7 3.6.8 5.3.2.2.5.3 1 .3 1.6 0 1.9-1.1 3.6-2.8 4.3v-.4c0-1.1-.2-2.1-.7-3.1-.1-.2-.3-.4-.6-.5-.3-.1-.5-.1-.8 0-.2.1-.4.3-.5.6-.1.2-.1.5 0 .8.3.7.5 1.5.5 2.2 0 .5-.1.9-.2 1.4 0 .1-.1.2 0 .2-.7 2.3-2.8 3.9-5.2 3.9-2.6 0-4.7-1.8-5.3-4.2-.1-.3-.1-.7-.1-1 0-.7-.6-1.2-1.2-1.2-.2-.2-.6.1-.8.4zm-17.4-6c.1 0 .2 0 .3.1-.1-.1-.2-.1-.3-.1zm.7.1h.3c-.2.1-.2 0-.3 0zm.6.1h.3-.3zm.7 0h.3-.3zm.7 0zm.7-.1c.1 0 .2 0 .3-.1-.2 0-.2.1-.3.1zm.6-.2c.1 0 .2-.1.3-.1-.1 0-.2 0-.3.1zm1.9.5l.1.1c0-.1 0-.1-.1-.1zm.7.4l.1.1s0-.1-.1-.1zm.9.3h.2c-.1.1-.2.1-.2 0zm-5-19.7c.1.1.1.2.2.2-.1 0-.2-.1-.2-.2zm1.7 6.3c-.2-.3-.4-.6-.5-.9.1.3.3.6.5.9zm-.2-4.1l.2-.4.3-.3h.1c-.2.2-.4.4-.6.7zm1-1.1c.1-.1.1-.1.2-.1 0 0-.1 0-.2.1zm.6-.4c.1 0 .2-.1.3-.1-.1.1-.2.1-.3.1zm.8-.2zm26-1l-.6.9c.2-.2.4-.6.6-.9zM38.4 17c-.2-.3-.4-.5-.6-.7l.3.3.3.4c.8 1.3.7 2.9-.2 4.1.8-1.2.9-2.8.2-4.1zm-1.1-1.1c-.1 0-.1-.1-.2-.1.1 0 .2 0 .2.1zm-.7-.4c-.1 0-.1 0-.2-.1.1 0 .1 0 .2.1zm-.7-.2h-.2c.1-.1.2 0 .2 0zm6.4 18.1c-.1 0-.2 0-.3.1.2-.1.3-.1.3-.1zm-.6.1h-.2c0 .1.1 0 .2 0zm-.7.1h-.2.2zm-.6 0h-.3.3zm-.7 0h-.3.3zm-.7-.1c-.1 0-.2-.1-.3-.1.1 0 .2.1.3.1zm-.6-.2c-.1 0-.3-.1-.4-.2.1.1.2.1.4.2zm-2 .5s-.1 0-.1.1l.1-.1zm-.7.4c-.1 0-.1.1-.2.1.1 0 .2-.1.2-.1zm-.8.3h-.2c.1.1.1.1.2 0z" class="st2"/><path d="M19.7 40.8c-.3-.1-.5 0-.7.2-.5 1.1-1.8 1.6-2.9 1.1-1-.5-1.5-1.7-1.1-2.7.1-.3 0-.5-.3-.6-.3-.1-.5 0-.6.3-.6 1.6.2 3.3 1.7 4 .4.2.9.3 1.4.3 1.2 0 2.4-.7 2.9-1.9-.1-.3-.2-.6-.4-.7zM17.6 8.2c.7.4 1.3 1.1 1.5 1.9.1.3.4.4.6.3.3-.1.4-.4.3-.6-.3-1.1-1-1.9-2-2.5-1-.5-2.1-.7-3.1-.4-2.2.6-3.5 2.9-2.8 5.1.1.2.3.4.5.4h.1c.3-.1.4-.4.3-.6-.5-1.7.5-3.4 2.1-3.8.9-.3 1.7-.2 2.5.2zm-7 16.3c-1.1-.5-2.3-.3-3.2.4-.6.5-1 1.3-1.1 2.1-.1.8.2 1.6.7 2.3l.2.2c.1.1.2.2.4.2.1 0 .3 0 .3-.1.2-.2.2-.5 0-.7l-.1-.1c-.4-.4-.5-1-.5-1.5.1-.6.3-1.1.8-1.4.6-.5 1.4-.6 2.2-.3.3.1.5 0 .7-.3 0-.4-.1-.7-.4-.8zm31.8.4c-.9-.7-2.1-.9-3.2-.4-.3.1-.4.4-.3.7.1.3.4.4.7.3.7-.3 1.6-.2 2.2.3.4.4.7.9.8 1.4.1.6-.1 1.1-.5 1.5l-.1.1c-.2.2-.2.5 0 .7l.9-.3c1-1.3.8-3.2-.5-4.3z" class="st3"/><path fill="#4a4a4a" d="M42.6 29.5l.2-.2s0-.1.1-.1l-.9.3c.1.1.2.1.3.1.1.1.2 0 .3-.1z"/></svg>