<svg xmlns="http://www.w3.org/2000/svg" id="Layer_1" x="0" y="0" version="1.1" viewBox="0 0 50 50" xml:space="preserve"><style>.st3{fill:#444}.st4,.st5{fill:#494949;stroke:#494949;stroke-linecap:round;stroke-linejoin:round;stroke-miterlimit:10}.st5{fill:none}</style><path fill="#fcc34f" d="M47.7 11.6l.8 5.2L2.4 33.6l-.5-10.9-.1-6.2L42.1 1.9l5.2 2.3z"/><path fill="#fdcf72" d="M46.1 2l2.3 3.2L1.5 21.9 2.6 4.8l3-2.9 29.1-.2z"/><path fill="none" stroke="#444" stroke-linecap="round" stroke-linejoin="round" stroke-miterlimit="10" stroke-width="2.5" d="M18.1 48.3H5.5c-1.9 0-3.4-1.6-3.4-3.5v-39c0-2 1.5-3.5 3.4-3.5h39c1.9 0 3.4 1.6 3.4 3.5v24.6"/><circle cx="8.2" cy="8.2" r="1.4" class="st3"/><circle cx="12.1" cy="8.2" r="1.4" class="st3"/><circle cx="15.9" cy="8.2" r="1.4" class="st3"/><circle cx="25.4" cy="36.4" r="4" class="st4"/><circle cx="12.7" cy="23.8" r="4" class="st5"/><path d="M33.2 19.8h7.9v7.9h-7.9z" class="st4"/><path d="M8.7 32.4h7.9v7.9H8.7zM27.2 20h-4.5l-2.3 3.8 2.3 3.9h4.5l2.2-3.9zm10 12.8L33 40h8.3z" class="st5"/></svg>