<svg xmlns="http://www.w3.org/2000/svg" viewBox="0 0 50 50"><path fill="#a475ef" d="M39.7 9.9v17.7L10.8 38.2c-.3-1.1-.5-2.4-.5-3.7V20.6L39.7 9.9z"/><path fill="#bf94f7" d="M39.7 9.3v1.2L10.3 21.3v-12c0-.4.1-.8.4-1 .5-.6 1-1.1 1.7-1.6.6-.5 1.3-.9 2.1-1.3.7-.4 1.5-.7 2.3-.9.8-.3 1.7-.5 2.6-.7 1.8-.4 3.6-.6 5.6-.6 2 0 3.9.2 5.6.5.9.2 1.8.4 2.6.7.8.3 1.6.6 2.3 1 .8.4 1.5.8 2.1 1.3.7.5 1.2 1 1.7 1.6.3.3.4.6.4 1z"/><path fill="#494949" d="M25 3.2c2 0 3.9.2 5.6.5.9.2 1.8.4 2.6.7.8.3 1.6.6 2.3 1 .8.4 1.5.8 2.1 1.3.7.5 1.2 1 1.7 1.6.2.3.4.7.4 1v25.1c0 3.8-1.4 6.9-4 9.1-3.3 2.7-7.6 3.3-10.7 3.3-3.1 0-7.5-.6-10.7-3.3-1.7-1.4-2.9-3.2-3.5-5.3-.3-1.1-.5-2.4-.5-3.7V9.3c0-.4.1-.8.4-1 .5-.6 1-1.1 1.7-1.6.6-.5 1.3-.9 2.1-1.3.7-.4 1.5-.7 2.3-.9.8-.3 1.7-.5 2.6-.7 1.8-.4 3.6-.6 5.6-.6m0-2.5c-2 0-4.1.2-6 .6-1 .2-1.9.4-2.8.7-.9.3-1.8.7-2.7 1.1-1 .5-1.8 1-2.5 1.5-.8.6-1.5 1.3-2.1 2-.6.8-1 1.7-1 2.6v25.2c0 1.6.2 3.1.6 4.4.7 2.6 2.2 4.8 4.3 6.6 3.8 3.1 8.8 3.8 12.3 3.9 3.5 0 8.5-.7 12.3-3.9 3.2-2.6 4.9-6.5 4.9-11V9.3c0-.9-.3-1.8-.9-2.6-.6-.8-1.4-1.5-2.2-2-.7-.5-1.6-1.1-2.5-1.5-.8-.4-1.7-.7-2.6-1.1-.9-.3-1.9-.6-2.9-.8C29.1.9 27.1.7 25 .7z"/><path fill="#494949" fill-rule="evenodd" d="M11.5 8.9c.4-.5.9-1 1.5-1.4.6-.4 1.2-.8 2-1.2.7-.3 1.4-.6 2.2-.9.8-.3 1.6-.5 2.5-.6 1.7-.3 3.5-.5 5.3-.5 1.8 0 3.6.2 5.3.5.9.2 1.7.4 2.5.6.8.3 1.6.6 2.2.9.7.4 1.4.8 2 1.2.6.5 1.1.9 1.5 1.5.1.1.1.2.1.3v25.1c0 3.8-1.4 6.4-3.6 8.3-2.6 2.1-6.3 3-10 3.1-3.7 0-7.4-.9-10-3-2.2-1.8-3.6-4.5-3.6-8.2V9.3c0-.2 0-.3.1-.4zm13.4 9.9H26v-7.7h-2.2v7.7h1.1zm.6 1.1V25c0 .3-.2.6-.6.6-.3 0-.6-.2-.6-.6v-5.1h-1c-.3 0-.6-.2-.6-.6v-8.8c0-.3.2-.6.6-.6h1V5.4c-1.6 0-3.1.2-4.6.5-.8.2-1.6.4-2.3.6-.7.2-1.4.5-2.1.8-.7.3-1.3.7-1.8 1.1-.5.3-.8.7-1.2 1.1v25c0 3.4 1.2 5.8 3.2 7.4 2.4 1.9 5.8 2.8 9.3 2.8 3.5 0 7-.9 9.3-2.8 2-1.6 3.2-4 3.2-7.4v-25c-.3-.4-.7-.7-1.2-1.1-.5-.4-1.1-.8-1.8-1.1-.6-.3-1.3-.6-2.1-.8-.7-.2-1.5-.5-2.3-.6-1.5-.3-3-.5-4.6-.5V10h1c.3 0 .6.2.6.6v8.8c0 .3-.2.6-.6.6h-.8z" clip-rule="evenodd"/></svg>