<svg xmlns="http://www.w3.org/2000/svg" id="Layer_1" x="0" y="0" version="1.1" viewBox="0 0 50 50" xml:space="preserve"><style>.st2{fill:#444}.st3,.st4{fill:none;stroke:#494949;stroke-miterlimit:10}.st3{stroke-width:.5}.st4{stroke-linecap:round;stroke-linejoin:round}</style><path fill="#e589ef" d="M47.9 17.3l.5-11-1.9-3.8-15.4.4c-3.2 0-27.8-3-27.8.2L1.6 23.7l1.2 23.5 13.6.6 31-11c.7-.3 1.5-17.5.5-19.5z"/><path fill="none" stroke="#444" stroke-linecap="round" stroke-linejoin="round" stroke-miterlimit="10" stroke-width="2.5" d="M36 48.4H5.9c-1.9 0-3.4-1.6-3.4-3.5v-39c0-2 1.5-3.5 3.4-3.5h39c1.9 0 3.4 1.6 3.4 3.5v30.8"/><circle cx="8.6" cy="8.3" r="1.4" class="st2"/><circle cx="12.5" cy="8.3" r="1.4" class="st2"/><circle cx="16.3" cy="8.3" r="1.4" class="st2"/><circle cx="25.8" cy="36.5" r="4" class="st3"/><circle cx="13.1" cy="23.9" r="4" class="st4"/><path d="M33.6 19.9h7.9v7.9h-7.9v-7.9z" class="st3"/><path d="M9.1 32.5H17v7.9H9.1v-7.9zm18.5-12.4h-4.5l-2.3 3.8 2.3 3.9h4.5l2.2-3.9-2.2-3.8zm10 12.8l-4.2 7.2h8.3l-4.1-7.2z" class="st4"/></svg>