<svg xmlns="http://www.w3.org/2000/svg" id="Layer_1" x="0" y="0" version="1.1" viewBox="0 0 50 50" xml:space="preserve"><style>.st2{fill:#031326}</style><path fill="#00c8e2" d="M48.1 26.1l.4 4.3-46.8 17 .1-9.1.4-5.3 46.6-17-.7 3.8z"/><path fill="#00dffc" d="M48.1 9.3l-.6 7.8L1.8 33.7v-9.9l.4-4.5 46-16.7z"/><path d="M48.1 49.1c-.7 0-1.2-.6-1.2-1.2V3.1H3.1v43.5h9c.7 0 1.2.6 1.2 1.2s-.6 1.2-1.2 1.2H1.8c-.7 0-1.2-.6-1.2-1.2v-46c0-.7.6-1.2 1.2-1.2h46.3c.7 0 1.2.6 1.2 1.2v46c0 .7-.5 1.3-1.2 1.3z" class="st2"/><path d="M14.9 15.8c2.4 0 4.3-1.9 4.3-4.3s-1.9-4.3-4.3-4.3-4.3 1.9-4.3 4.3 2 4.3 4.3 4.3zm0-6.6c1.3 0 2.3 1 2.3 2.3s-1 2.3-2.3 2.3-2.3-1-2.3-2.3 1.1-2.3 2.3-2.3zm15.6 11.1c.6 0 1-.4 1-1s-.4-1-1-1H12.7c-1.8 0-3.2 1.4-3.2 3.2v20c0 .6.4 1 1 1s1-.4 1-1v-20c0-.7.5-1.2 1.2-1.2h5.7v21.2c0 .6.4 1 1 1s1-.4 1-1V20.3h10.1z" class="st2"/><path d="M39.4 10.5H22.7c-.6 0-1 .4-1 1s.4 1 1 1h15.7v18H23.8c-.6 0-1 .4-1 1s.4 1 1 1H31l5.3 9.5c.2.3.5.5.9.5.2 0 .3 0 .5-.1.5-.3.7-.9.4-1.4l-4.7-8.5h6.1c.6 0 1-.4 1-1v-20c-.1-.5-.5-1-1.1-1z" class="st2"/></svg>