<svg xmlns="http://www.w3.org/2000/svg" id="Layer_1" x="0" y="0" version="1.1" viewBox="0 0 50 50" xml:space="preserve"><style>.st2{fill:#444}</style><path fill="#46b8b0" d="M47.9 24.79c0-5.5-2-10.6-5.3-14.6L2.1 24.99c.1 8.4 4.6 15.7 11.3 19.6l33.1-12.1c.9-2.4 1.4-5 1.4-7.7z"/><path fill="#4ecdc4" d="M25.1 1.49c-13.1 0-23.7 10.6-23.7 23.7v.2l41.9-15.2c-4.3-5.3-10.9-8.7-18.2-8.7z"/><path d="M22.1 12.09h4.2v19.2c-2.1.4-3.7.6-5.4.6-5.1 0-7.7-2.3-7.7-6.7 0-4.2 2.8-7 7.2-7 .7 0 1.2.1 1.8.2-.1 0-.1-6.3-.1-6.3zm0 9.7c-.5-.2-.9-.2-1.4-.2-2.1 0-3.3 1.3-3.3 3.6 0 2.2 1.2 3.4 3.3 3.4.5 0 .8 0 1.4-.1v-6.7z" class="st2"/><path d="M32.9 18.49v9.6c0 3.3-.2 4.9-1 6.3-.7 1.3-1.6 2.2-3.4 3.1l-3.9-1.8c1.8-.9 2.7-1.6 3.3-2.8.6-1.2.8-2.6.8-6.2v-8.2h4.2zm-4.2-6.4h4.2v4.3h-4.2v-4.3z" class="st2"/><path d="M25 48.99C11.7 48.99.8 38.09.8 24.79S11.7.59 25 .59s24.2 10.8 24.2 24.2c0 3.3-.6 6.4-1.9 9.4-.3.6-1 .9-1.6.7-.6-.3-.9-1-.7-1.6 1.1-2.7 1.7-5.5 1.7-8.4 0-11.9-9.7-21.7-21.7-21.7s-21.7 9.7-21.7 21.6 9.8 21.7 21.7 21.7c4.3 0 8.5-1.3 12.1-3.7.6-.4 1.3-.2 1.7.3.4.6.2 1.3-.3 1.7-4 2.7-8.7 4.2-13.5 4.2z" class="st2"/><path d="M25 44.59c-10.9 0-19.8-8.9-19.8-19.8S14.1 4.99 25 4.99s19.8 8.9 19.8 19.8-8.9 19.8-19.8 19.8zm0-38.8c-10.5 0-19 8.5-19 19s8.5 19 19 19 19-8.5 19-19-8.5-19-19-19z" class="st2"/></svg>