<svg xmlns="http://www.w3.org/2000/svg" id="Layer_1" x="0" y="0" version="1.1" viewBox="0 0 50 50" xml:space="preserve"><style>.st2{fill:#031326}</style><path fill="#e589ef" d="M47.9 25.1c0-5.5-2-10.6-5.3-14.6L2.1 25.2c.1 8.3 4.6 15.6 11.3 19.6l33.1-12.1c.9-2.3 1.4-4.9 1.4-7.6z"/><path fill="#f799ff" d="M25.1 1.8C12 1.8 1.4 12.4 1.4 25.4v.2l41.9-15.2C39 5.1 32.4 1.8 25.1 1.8z"/><path d="M22.1 12.4h4.2v19.2c-2.1.4-3.7.6-5.4.6-5.1 0-7.7-2.3-7.7-6.7 0-4.2 2.8-7 7.2-7 .7 0 1.2.1 1.8.2l-.1-6.3zm0 9.7c-.5-.2-.9-.2-1.4-.2-2.1 0-3.3 1.3-3.3 3.6 0 2.2 1.2 3.4 3.3 3.4.5 0 .8 0 1.4-.1v-6.7z" class="st2"/><path d="M32.9 18.8v9.6c0 3.3-.2 4.9-1 6.3-.7 1.3-1.6 2.2-3.4 3.1L24.6 36c1.8-.9 2.7-1.6 3.3-2.8.6-1.2.8-2.6.8-6.2v-8.2c0-.1 4.2-.1 4.2 0zm-4.2-6.4h4.2v4.3h-4.2v-4.3z" class="st2"/><path d="M25 49.2C11.7 49.2.8 38.4.8 25 .8 11.8 11.7.9 25 .9s24.2 10.8 24.2 24.2c0 3.3-.6 6.4-1.9 9.4-.3.6-1 .9-1.6.7-.6-.3-.9-1-.7-1.6 1.1-2.7 1.7-5.5 1.7-8.4C46.7 13.3 37 3.5 25 3.5S3.3 13.1 3.3 25.1 13.1 46.7 25 46.7c4.3 0 8.5-1.3 12.1-3.7.6-.4 1.3-.2 1.7.3.4.6.2 1.3-.3 1.7-4 2.8-8.7 4.2-13.5 4.2z" class="st2"/><path d="M25 44.8C14.1 44.8 5.2 35.9 5.2 25S14.1 5.3 25 5.3 44.8 14.1 44.8 25 35.9 44.8 25 44.8zM25 6C14.5 6 6 14.5 6 25s8.5 19 19 19 19-8.5 19-19S35.5 6 25 6z" class="st2"/></svg>