<svg xmlns="http://www.w3.org/2000/svg" version="1" viewBox="0 0 50 50"><path fill="#71BAC0" d="M40.25 39.413V8.883l-3.919-5.245H13.668L9.75 8.883v37.479h11.409z"/><path fill="#7ED0D6" d="M36.604 4.003l-.273-.365H13.668L9.75 8.883v4.894z"/><g fill="#031326"><path d="M36.957 2.388H13.042L8.5 8.468v39.145h22.615c.69 0 1.25-.56 1.25-1.25l-.003-.015v-9.302h2.728v-23.69h-.004v-.004h-2.724V9.45H39v29.963a1.25 1.25 0 002.5 0V8.468l-4.543-6.08zm-22.662 2.5h12.802l1.161 3.991V9.2H11.074l3.221-4.312zm.866 20.431h19.675v5.608H15.161v-5.608zm19.675-.25H15.161v-5.608h19.675v5.608zm-19.675 6.108h19.675v5.616H15.161v-5.616zm19.675-11.966H15.161v-5.604h19.675v5.604zm-6.579-5.858H14.91v23.69h.001v.002h13.347v8.067H11V9.45h17.257v3.903zm2.69-8.465h4.758L38.926 9.2h-6.564v-.32l-1.415-3.992z"/><path d="M28.116 32.814h4.105v.881h-4.105zm0-5.858h4.105v.881h-4.105zm0-5.858h4.105v.881h-4.105zm0-5.858h4.105v.881h-4.105z"/></g></svg>