<svg xmlns="http://www.w3.org/2000/svg" version="1" viewBox="0 0 50 50"><path fill="#AFE55D" d="M12.214 34.385h1.807V42.5l33.213-12.088c.437-.912.69-1.931.69-3.011a6.98 6.98 0 00-5.042-6.7c.061-.56.1-1.12.1-1.696 0-8.496-6.892-15.38-15.388-15.38-6.792 0-12.548 4.405-14.582 10.522a9.284 9.284 0 00-.798-.038A10.134 10.134 0 002.076 24.247a10.133 10.133 0 0010.138 10.138z"/><path fill="#C3FF68" d="M37.754 7.532c-2.72-2.423-6.294-3.907-10.222-3.907-6.792 0-12.548 4.405-14.582 10.522a9.284 9.284 0 00-.798-.038 10.135 10.135 0 00-9.314 6.132L37.754 7.532z"/><path fill="#031326" d="M44.207 19.851c.016-.282.024-.556.024-.825.011-7.619-4.964-14.218-12.346-16.105C23.396.75 15.167 5.255 12.151 12.859 5.531 12.895.231 18.607.879 25.366c.565 5.891 5.747 10.269 11.665 10.269h.227v9.192a2.798 2.798 0 002.798 2.798h20.888a2.798 2.798 0 002.798-2.798V34.796a.417.417 0 00-.411-.417 1.115 1.115 0 01-1.099-1.115v-8.617c0-1.129-.875-2.047-1.95-2.047H16.231c-1.075 0-1.95.918-1.95 2.047v8.488h-1.754c-4.729 0-8.865-3.561-9.181-8.279-.346-5.175 3.766-9.497 8.868-9.497.233 0 .459.014.692.034l.982.084.179-.538c1.853-5.58 6.832-9.705 12.702-10.04 8.169-.466 14.963 6.042 14.963 14.106 0 .485-.03.996-.092 1.56l-.115 1.047.764.22c2.368.681 4.445 3.255 4.384 5.719a5.644 5.644 0 01-.557 2.324 1.25 1.25 0 002.254 1.082 8.156 8.156 0 00.805-3.555c-.001-3.295-1.998-6.266-4.968-7.551zm-22.97 17.554a1.51 1.51 0 001.015-1.424 1.515 1.515 0 10-3.03 0 1.51 1.51 0 001.015 1.424v6.542h-3.788V24.819h3.788v5.757l5.445 5.444v1.567a1.51 1.51 0 00-1.015 1.424 1.515 1.515 0 103.03 0c0-.66-.425-1.216-1.015-1.424v-1.981l-5.445-5.444v-5.343h4.445v3.779a1.51 1.51 0 00-1.015 1.424 1.515 1.515 0 103.03 0c0-.66-.425-1.216-1.015-1.424v-3.779h8.896v19.128H32.59V28.415a1.51 1.51 0 001.015-1.424 1.515 1.515 0 10-3.03 0 1.51 1.51 0 001.015 1.424v15.532H21.237v-6.542zm0-12.836v-.97h4.445v.97h-4.445zm10.352 19.628v.928H21.237v-.928h10.352zm5.156-19.551v9.738c0 .017.008.032.01.048v10.394a.299.299 0 01-.298.298h-3.868v-.928h3.238V24.569h-9.146v-.97h9.113c.525 0 .951.47.951 1.047zm-21.464 0c0-.578.426-1.047.95-1.047h4.006v.97h-4.038v19.628h4.038v.928H15.57a.299.299 0 01-.298-.298V34.433c.002-.017.01-.031.01-.048v-9.739z"/></svg>