<svg xmlns="http://www.w3.org/2000/svg" version="1" viewBox="0 0 50 50"><path fill="#00C8E2" d="M4.531 47.001h11.605a1.53 1.53 0 001.531-1.531v-5.803h14.667v4.641l14.667-5.338v-5.105a1.53 1.53 0 00-1.531-1.531h-5.802V17.666h5.802a1.53 1.53 0 001.531-1.531V4.531c0-.846-.685-1.532-1.531-1.532H33.865c-.846 0-1.531.686-1.531 1.532v5.802H17.666V4.531c0-.846-.685-1.532-1.531-1.532H4.531c-.846 0-1.532.686-1.532 1.532v11.604c0 .846.686 1.531 1.532 1.531h5.803v14.667H4.531c-.846 0-1.532.685-1.532 1.531V45.47c0 .846.686 1.531 1.532 1.531z"/><path fill="#00DFFC" d="M46.16 3.171a1.516 1.516 0 00-.69-.172H33.865c-.846 0-1.531.686-1.531 1.532v3.673L46.16 3.171zM4.53 17.666h1.805l20.148-7.333h-8.817V4.531c0-.846-.685-1.532-1.531-1.532H4.53c-.846 0-1.531.686-1.531 1.532v11.604a1.53 1.53 0 001.531 1.531z"/><path fill="none" stroke="#031326" stroke-linecap="round" stroke-miterlimit="10" d="M45.47 16.896H4.53"/><path fill="#031326" d="M45.47 18.916a2.785 2.785 0 002.781-2.781V4.53a2.784 2.784 0 00-2.781-2.781H33.865a2.785 2.785 0 00-2.781 2.781v4.552H18.917V4.53a2.784 2.784 0 00-2.781-2.781H4.53A2.784 2.784 0 001.749 4.53v11.604a2.784 2.784 0 002.781 2.781h4.553v12.168H4.53a2.783 2.783 0 00-2.781 2.78V45.47a2.785 2.785 0 002.781 2.781h11.605a2.784 2.784 0 002.781-2.781v-4.553h12.167v4.553a2.785 2.785 0 002.781 2.781H45.47a1.25 1.25 0 000-2.5H33.865c-.116 0-.197-.081-.24-.181.007-.033.02-.064.02-.1V33.61h11.886c.122.031.22.124.22.255v5.099a1.25 1.25 0 002.5 0v-5.099a2.784 2.784 0 00-2.781-2.78h-4.553V18.916h4.553zm-12.824-7.333V32.61H17.412V11.583h15.234zM4.53 16.416a.281.281 0 01-.281-.281V4.53c0-.155.126-.281.281-.281h11.605a.28.28 0 01.278.273l-.002.008v28.079h-4.829V16.416H4.53zm11.605 29.335H4.53a.281.281 0 01-.281-.281V33.864a.28.28 0 01.272-.277c.036.008.069.022.108.022h11.783v11.86l.002.008a.281.281 0 01-.279.274zm16.511-7.334H17.412v-4.808h15.234v4.808zm5.771-22.001v16.193h-4.771V4.382c.05-.075.122-.133.22-.133H45.47c.155 0 .281.126.281.281v11.604a.281.281 0 01-.281.281h-7.053z"/></svg>