<svg xmlns="http://www.w3.org/2000/svg" id="Layer_1" x="0" y="0" version="1.1" viewBox="0 0 50 50" xml:space="preserve"><style>.st2{fill:#494949}</style><path fill="#a6c1c2" d="M4.4 18.9l1.9-.7v17.6l-1.9.7zm32.7-3.2v8.9l-1.9.7-7.1 2.6-5.1 1.9-5.1 1.9-1.2.3-2 .7-1.9.7V15.8L15 15l.8-.3 5.1-1.9h3.2v-1.2l1.9-.7v1.8h8.4c1.5.2 2.7 1.4 2.7 3zM48.4 4.4v4.7c0 1.6-1.3 2.8-2.8 2.8v9.5l-1.9.7V11.9h-2.8c-1.6 0-2.8-1.3-2.8-2.8V6.6l1.9-.7 6.1-2.2 1.8-.7.3.5c.1.3.2.6.2.9z"/><path fill="#b9d7d9" d="M15.7 12.9c-1.6 0-2.8 1.3-2.8 2.8v.8l1.9-.7 2.9-1.1 5.1-1.9h-7.1zM47.9 3c-.5-.8-1.4-1.3-2.4-1.3h-4.7C39.2 1.7 38 3 38 4.5h-9.5c-.4-1.6-1.9-2.8-3.6-2.8s-3.2 1.2-3.6 2.8h-9.5c0-1.5-1.3-2.8-2.8-2.8H5l-2.7 1c-.4.4-.7 1-.7 1.7v4.7c0 1.6 1.3 2.8 2.8 2.8v7.6l1.9-.7v-6.9h2.8c1.6 0 2.8-1.3 2.8-2.8V6.3h9.5c.4 1.3 1.4 2.3 2.7 2.7v3.4l1.9-.7V9c1.3-.3 2.3-1.4 2.7-2.7h9.5v.9l1.8-.7 6.5-2.4 1.8-.6-.4-.5z"/><path d="M15.7 12.9c-1.6 0-2.8 1.3-2.8 2.8v.1L15 15c.2-.2.4-.3.7-.3h.1l5.1-1.9h-5.2zm0 0c-1.6 0-2.8 1.3-2.8 2.8v.1L15 15c.2-.2.4-.3.7-.3h.1l5.1-1.9h-5.2zm0 0c-1.6 0-2.8 1.3-2.8 2.8v.1L15 15c.2-.2.4-.3.7-.3h.1l5.1-1.9h-5.2zm29.9-1c1.6 0 2.8-1.3 2.8-2.8V4.4c0-.3-.1-.6-.2-.9l-.3-.5c-.5-.8-1.4-1.3-2.4-1.3h-4.7C39.2 1.7 38 3 38 4.5h-9.5c-.4-1.6-1.9-2.8-3.6-2.8s-3.2 1.2-3.6 2.8h-9.5c0-1.5-1.3-2.8-2.8-2.8H4.4c-.8 0-1.6.4-2.1 1-.4.4-.7 1-.7 1.7v4.7c0 1.6 1.3 2.8 2.8 2.8v26.2c-1.6 0-2.8 1.3-2.8 2.8v4.7c0 1.6 1.3 2.8 2.8 2.8h4.7c1.6 0 2.8-1.3 2.8-2.8h9.5c.4 1.6 1.9 2.8 3.6 2.8s3.2-1.2 3.6-2.8h9.5c0 1.6 1.3 2.8 2.8 2.8h4.7c1.6 0 2.8-1.3 2.8-2.8v-4.7c0-1.5-1.3-2.8-2.8-2.8V11.9zM40 4.4c0-.5.4-.9.9-.9h4.7c.2 0 .4.1.5.1.2.1.3.3.4.5v5c0 .5-.4.9-.9.9h-4.7c-.5 0-.9-.4-.9-.9V4.4zm-15-.9c1 0 1.9.8 1.9 1.9 0 1-.8 1.9-1.9 1.9-1 0-1.9-.8-1.9-1.9 0-1.1.9-1.9 1.9-1.9zM3.5 9.1V4.4c0-.5.4-.9.9-.9h4.7c.5 0 .9.4.9.9v4.7c0 .5-.4.9-.9.9H4.4c-.5 0-.9-.4-.9-.9zM10 45.6c0 .5-.4.9-.9.9H4.4c-.5 0-.9-.4-.9-.9v-4.7c0-.5.4-.9.9-.9h4.7c.5 0 .9.4.9.9v4.7zm11.4-1.9h-9.5v-2.8c0-1.5-1.3-2.8-2.8-2.8H6.3V11.9h2.8c1.6 0 2.8-1.3 2.8-2.8V6.3h9.5c.4 1.3 1.4 2.3 2.7 2.7v3.9h-8.4c-1.6 0-2.8 1.3-2.8 2.8v18.7c0 1.6 1.3 2.8 2.8 2.8h8.4V41c-1.3.4-2.4 1.4-2.7 2.7zm-6.7-14h20.6v4.7c0 .5-.4.9-.9.9H15.7c-.5 0-.9-.4-.9-.9v-4.7zm0-1.9v-5.6h20.6v5.6H14.7zm20.6-7.5H14.7v-4.7c0-.2.1-.5.3-.6.2-.2.4-.3.7-.3h18.7c.5 0 .9.4.9.9v4.7zM25 46.5c-1 0-1.9-.8-1.9-1.9 0-1 .8-1.9 1.9-1.9 1 0 1.9.8 1.9 1.9 0 1.1-.9 1.9-1.9 1.9zm21.5-5.6v4.7c0 .5-.4.9-.9.9h-4.7c-.5 0-.9-.4-.9-.9v-4.7c0-.5.4-.9.9-.9h4.7c.5 0 .9.4.9.9zm-2.8-2.8h-2.8c-1.6 0-2.8 1.3-2.8 2.8v2.8h-9.5c-.4-1.3-1.4-2.3-2.7-2.7v-3.9h8.4c1.6 0 2.8-1.3 2.8-2.8V15.7c0-1.5-1.3-2.8-2.8-2.8h-8.4V9c1.3-.3 2.3-1.4 2.7-2.7h9.5v2.8c0 1.6 1.3 2.8 2.8 2.8h2.8v26.2zm-28-25.2c-1.6 0-2.8 1.3-2.8 2.8v.1L15 15c.2-.2.4-.3.7-.3h.1l5.1-1.9h-5.2zm0 0c-1.6 0-2.8 1.3-2.8 2.8v.1L15 15c.2-.2.4-.3.7-.3h.1l5.1-1.9h-5.2zm0 0c-1.6 0-2.8 1.3-2.8 2.8v.1L15 15c.2-.2.4-.3.7-.3h.1l5.1-1.9h-5.2z" class="st2"/><path d="M19.4 16.6h-1.9c-.5 0-.9.4-.9.9s.4.9.9.9h1.9c.5 0 .9-.4.9-.9s-.4-.9-.9-.9zm13.1 0h-9.3c-.5 0-.9.4-.9.9s.4.9.9.9h9.3c.5 0 .9-.4.9-.9s-.4-.9-.9-.9zm-13.1 7.5h-1.9c-.5 0-.9.4-.9.9s.4.9.9.9h1.9c.5 0 .9-.4.9-.9s-.4-.9-.9-.9zm13.1 0h-9.3c-.5 0-.9.4-.9.9s.4.9.9.9h9.3c.5 0 .9-.4.9-.9s-.4-.9-.9-.9zm-15 9.3h1.9c.5 0 .9-.4.9-.9s-.4-.9-.9-.9h-1.9c-.5 0-.9.4-.9.9s.4.9.9.9zm5.6 0h9.3c.5 0 .9-.4.9-.9s-.4-.9-.9-.9h-9.3c-.5 0-.9.4-.9.9s.4.9.9.9z" class="st2"/></svg>