<svg xmlns="http://www.w3.org/2000/svg" id="Layer_1" x="0" y="0" version="1.1" viewBox="0 0 50 50" xml:space="preserve"><style>.st2{fill:#031326}</style><path fill="#acbfc0" d="M47.9 24.8c0-7.9-4-14.9-10.1-19L3 18.4c-.6 2-.9 4.2-.9 6.4 0 5.6 2 10.7 5.4 14.7l40.4-14.7z"/><path fill="#c0d5d7" d="M25 1.9c-10.4 0-19.2 7-22 16.5L37.7 5.8c-3.6-2.4-8-3.9-12.7-3.9z"/><circle cx="25" cy="24.8" r="7.2" class="st2"/><path d="M25 38.6c-7.6 0-13.8-6.2-13.8-13.8C11.2 17.2 17.4 11 25 11c7.6 0 13.8 6.2 13.8 13.8 0 7.6-6.2 13.8-13.8 13.8zm0-25.1c-6.2 0-11.3 5.1-11.3 11.3S18.8 36.1 25 36.1 36.3 31 36.3 24.8 31.2 13.5 25 13.5z" class="st2"/><path d="M25 43.9c-10.6 0-19.1-8.6-19.1-19.1C5.9 14.2 14.4 5.7 25 5.7c10.6 0 19.1 8.6 19.1 19.1 0 10.6-8.5 19.1-19.1 19.1zm0-35.7c-9.2 0-16.6 7.5-16.6 16.6S15.8 41.4 25 41.4 41.6 34 41.6 24.8 34.2 8.2 25 8.2z" class="st2"/><path d="M7.4 40.6c-.4 0-.7-.2-1-.5C2.8 35.8.9 30.3.9 24.7.9 13.1 9.1 3.2 20.5 1c.7-.1 1.3.3 1.5 1 .1.7-.3 1.3-1 1.5-10.2 2-17.6 10.9-17.6 21.3 0 5 1.8 9.9 5 13.8.4.5.4 1.3-.2 1.8-.2.1-.5.2-.8.2zM25 48.9c-4.8 0-9.4-1.4-13.4-4.1-.6-.4-.7-1.2-.3-1.7.4-.6 1.2-.7 1.7-.3 3.6 2.4 7.7 3.6 12 3.6 5.4 0 10.5-2 14.5-5.5.5-.5 1.3-.4 1.8.1s.4 1.3-.1 1.8C36.7 46.7 31 48.9 25 48.9zm19.8-11.4c-.2 0-.4-.1-.6-.2-.6-.3-.8-1.1-.5-1.7 1.9-3.3 2.9-7 2.9-10.8 0-10.4-7.4-19.3-17.5-21.2-.7-.1-1.1-.8-1-1.5.1-.7.8-1.1 1.5-1 11.3 2.2 19.6 12.1 19.6 23.7 0 4.2-1.1 8.4-3.2 12-.3.5-.8.7-1.2.7z" class="st2"/></svg>