<svg xmlns="http://www.w3.org/2000/svg" id="Camada_3" x="0" y="0" version="1.1" viewBox="0 0 50 50" xml:space="preserve"><style>.st2,.st3{stroke:#444;fill:none;stroke-miterlimit:10}.st3{stroke-width:.5}</style><path fill="#00dffc" d="M26.22 17.16l-15.13.2c-1.14 0-2.06.92-2.06 2.06L1.27 31.19l29.1-11.11-.24-.85c0-1.14-2.77-2.07-3.91-2.07z"/><path fill="#00c8e2" d="M2.09 29.95l-.01 6.11h10.38l4.82-6.64 3.57 6.31 5.4-.1 17.66-6.88 4.7-11.59-7.65-1.04-8.18 7.5-2.41-3.54z"/><path d="M19.93 21.76c.38 1.08.68 2.26 1.07 3.85 1.37 5.53 2.73 7.97 5.35 9.23 6.16 1.97 13.75-12.79 15.4-16.18.2-.42.63-.68 1.1-.68l3.4.1c.91 0 1.87.67 1.22 2.44l-.13-.67" class="st2"/><path d="M33.15 31.83c-1.79-7.32-2.16-9.03-3.36-11.04-.52-.88-1.29-1.61-2.23-2.01-3.25-1.39-6 1.48-6 1.48s-.62.46-1.64 1.51c-1.6 1.65-3.47 4.74-7.79 12.63-.91 1.67-3.25 1.79-4.29 1.59-.26-.05-1.08-.05-1.31-.18-2.86-1.61 6.54-16.19 9.32-17.2.68-.15 1.38-.22 2.08-.22l8.26.04" class="st2"/><path d="M16.35 21.76c.38 1.08.68 2.26 1.07 3.85 1.37 5.53 2.73 7.97 5.35 9.23 6.16 1.97 13.75-12.79 15.4-16.18.2-.42.63-.68 1.1-.68l3.4.1c.91 0 1.5.96 1.09 1.77 0 0-7.2 15.08-11.53 15.08l-8.79.07" class="st3"/><path d="M29.58 31.83c-1.79-7.32-2.16-9.03-3.36-11.04-.52-.88-1.29-1.61-2.23-2.01-3.25-1.39-6 1.48-6 1.48s-.62.46-1.64 1.51c-1.6 1.65-3.47 4.74-7.79 12.63-.91 1.67-3.82 1.23-4.86 1.03-.26-.05-.94-.32-.95-1.18C2.71 31.5 9.52 19.6 12.3 18.6c.68-.15 1.38-.22 2.08-.22l8.26.04" class="st3"/><path fill="none" stroke="#444" stroke-linecap="round" stroke-linejoin="round" stroke-miterlimit="10" stroke-width="2.5" d="M41.88 31.58c2.08-3.7 6.56-11.78 6.56-11.78s.94-2.41-1.67-2.88c-1.54-.28-6.7-.27-6.7-.27s-2.14-.08-3.35 1.74c-1.51 2.29-3.88 7.37-3.88 7.37s-.8-8.37-8.46-8.72l-9.88.01s-3.55-.4-6.03 3.21c-1.98 2.89-4.56 6.02-6.63 12.17-.42 1.07-.48 1.89-.36 2.52.22 1.1.72 1.7 2.38 1.85h0s7.68.9 8.81-1.22c.76-1.41 4.29-7.22 4.29-7.22s1.72 7.65 6.47 7.7c3.55.03 8.01.02 10.36.01"/><path fill="none" stroke="#444" stroke-miterlimit="10" d="M17.04 27.82l.24-1.75m15.3 1.75l.2-1.26"/></svg>