<svg xmlns="http://www.w3.org/2000/svg" version="1" viewBox="0 0 50 50"><path fill="#00C8E2" d="M45.146 22.688v2.47l.776.182v7.756L18.449 43.103l-14.43-3.601V25.254l4.903-1.331-4.903-1.197V8.573L24.98 3.402l7.411 1.848v.01l10.361-2.557 2.394.699v5.085l.776.182v13.827z"/><path fill="#00DFFC" d="M45.519 8.573L5.589 23.109l-1.57-.383V8.573L24.98 3.402l7.411 1.848v.01l10.361-2.557 2.394.699v5.085z"/><path fill="#444" d="M46.4 6.462V2.44L40.664.925 30.295 3.484l-5.312-1.37L2.768 7.597V40.47l13.467 3.436v4.321l3.666.855 9.909-2.429a1.25 1.25 0 00-.596-2.428l-9.07 2.223V9.829l22.979-5.668.777.205v3.563l-.646-.155a.453.453 0 00-.122 0l-9.735 2.48a.367.367 0 00-.194.1.331.331 0 00-.067.13c0 .01-.011.089-.009.12l-.674-.165a.215.215 0 00-.12 0l-9.977 2.462a.295.295 0 00-.162.15c-.041.084-.028.204-.028.227v14.033a.369.369 0 00.058.201.48.48 0 00.131.1l1.983.526a.235.235 0 00.122.002l10.218-2.425c.024-.006.035-.028.056-.04.029-.016.054-.028.075-.054.021-.026.027-.054.036-.086.007-.022.026-.038.026-.063v-.263l.446.109a.252.252 0 00.12 0l8.464-2.072v1.364l-.647-.152a.431.431 0 00-.119 0l-9.836 2.426c-.02.005-.208.063-.233.181s-.007.197-.007.197l-.517-.127a.474.474 0 00-.119 0l-10.064 2.449a.259.259 0 00-.171.168c-.037.108-.02.229-.02.229v14.084c0 .023.019.039.025.06.009.032.015.059.035.085.02.026.044.039.073.056.019.011.029.034.052.04l1.987.538a.248.248 0 00.124.002l10.218-2.457a.291.291 0 00.153-.111c.038-.064.039-.187.039-.187l.446.109c.021.005.04.007.06.007a.249.249 0 00.177-.082.325.325 0 00.073-.168v-14.08l9.048-2.215v7.435a1.25 1.25 0 002.5 0V6.647l-.778-.185zm-11.023 4.287l-.968-.236 8.785-2.238 1.159.277-8.976 2.197zm-2.984.19l1.161.284-9.149 2.171-.963-.246 8.951-2.209zm-9.727 2.527l1.487.38v13.726l-1.487-.395V13.466zm1.987.383l9.718-2.306v13.731l-9.718 2.306V13.849zM10.727 24.727l7.496 1.882v2.303L6.296 25.933l4.431-1.206zm7.496 1.366l-6.51-1.635-1.942-.508-4.503-1.179V9.606l12.955 3.233v13.254zM5.268 38.529V26.213l.041-.011 12.914 3.223v12.408L5.268 38.529zM18.223 8.5v3.823l-12.021-3L24.97 4.692l4.247 1.095L18.223 8.5zm1.421.937v37.018l-.909-.213v-4.278l-.013-.003V8.892l11.515-2.841.044.011 10.361-2.557 1.472.389-22.47 5.543zm15.215 1.762c-.001-.01.007-.019.005-.03-.003-.014-.018-.02-.024-.034v-.003l.287.07v13.554l-.256-.063V11.227c0-.011-.01-.017-.012-.028zm.768 13.558V11.202l9.048-2.215v13.54l-.775.19v.014l-8.273 2.026zm8.703.474l-8.953 2.191-1.091-.267 8.908-2.198.707.166v.007l.429.101zm-11.85 2.404l1.079.264-9.154 2.201-.979-.262 9.054-2.203zm-9.814 2.517l1.487.398v13.727l-1.487-.403V30.152zm1.987.403l9.718-2.337v13.731l-9.718 2.337V30.555zm10.211-2.713c-.009-.032-.018-.02-.023-.032v-.003l.287.07v13.761l-.256-.062V27.897c-.001-.011.001-.023-.008-.055z"/></svg>