<svg xmlns="http://www.w3.org/2000/svg" viewBox="0 0 50 50"><path fill="#afe55d" d="M45.1 22.7v2.5l.8.2v7.8l-27.5 10L4 39.5V25.3L8.9 24 4 22.7V8.6l21-5.2 7.4 1.8 10.4-2.6 2.4.7v5.1l.8.2v13.8l-.9.3z"/><path fill="#c3ff68" d="M45.5 8.6L5.6 23.1 4 22.7V8.6l21-5.2 7.4 1.8 10.4-2.6 2.4.7v5.1l.3.2z"/><path fill="#444" d="M46.4 6.5v-4L40.7 1 30.3 3.5 25 2.1 2.8 7.6v32.9l13.5 3.4v4.3l3.7.9 9.9-2.4c.7-.2 1.1-.8.9-1.5s-.8-1.1-1.5-.9l-9.1 2.2V9.8l23-5.7.8.2v3.6l-.6-.2h-.1l-9.7 2.5c-.1 0-.1 0-.2.1l-.1.1v.1l-.7-.2h-.1l-10 2.5c-.1 0-.1.1-.2.1v14.2c0 .1 0 .1.1.2l.1.1 2 .5h.1l10.2-2.4h.1s.1 0 .1-.1v-.5l.4.1h.1l8.5-2.1v1.4l-.6-.2h-.1l-9.8 2.4s-.2.1-.2.2v.2l-.5-.1h-.1l-10.1 2.4c-.1 0-.1.1-.2.2v14.5l.1.1h.1l2 .5h.1L34.9 42c.1 0 .1-.1.2-.1v-.2l.4.1h.1c.1 0 .1 0 .2-.1 0 0 .1-.1.1-.2V27.9l9-2.2v7.4c0 .7.6 1.2 1.2 1.2s1.2-.6 1.2-1.2V6.6c-.1 0-.9-.1-.9-.1zm-11 4.2l-1-.2 8.8-2.2 1.2.3-9 2.1zm-3 .2l1.2.3-9.1 2.2-1-.2c-.1-.1 8.9-2.3 8.9-2.3zm-9.7 2.6l1.5.4v13.7l-1.5-.4V13.5zm2 .3l9.7-2.3v13.7l-9.7 2.3V13.8zm-14 10.9l7.5 1.9v2.3l-11.9-3 4.4-1.2zm7.5 1.4l-6.5-1.6-1.9-.5-4.5-1.2V9.6l13 3.2v13.3zM5.3 38.5V26.2l12.9 3.2v12.4L5.3 38.5zm12.9-30v3.8l-12-3L25 4.7l4.2 1.1-11 2.7zm1.4.9v37l-.9-.2V8.9l11.5-2.8 10.4-2.6 1.5.4-22.5 5.5zm15.3 1.8s-.1-.1 0 0h.3v13.6l-.3-.1V11.2zm.7 13.6V11.2l9-2.2v13.5l-.8.2-8.2 2.1zm8.7.4l-9 2.2-1.1-.3 8.9-2.2.7.2c.1 0 .5.1.5.1zm-11.8 2.4l1.1.3-9.2 2.2-1-.3 9.1-2.2zm-9.8 2.6l1.5.4v13.7l-1.5-.4V30.2zm2 .4l9.7-2.3V42l-9.7 2.3V30.6zm10.2-2.8s-.1 0 0 0h.3v13.8l-.3-.1V27.8c0 .1 0 .1 0 0z"/></svg>