<svg xmlns="http://www.w3.org/2000/svg" id="Layer_1" x="0" y="0" version="1.1" viewBox="0 0 50 50" xml:space="preserve"><style>.st0{fill:#00c8e2}.st1{fill:#00dffc}.st2{stroke-width:.5}.st2,.st3{fill:#494949;stroke:#494949;stroke-miterlimit:10}</style><path d="M11.6 29.3c0 .3-.2.5-.5.5h-.8v-1h.7c.4 0 .6.2.6.5zm-.1-4.6c0 .1.1.2.1.3 0 .3-.2.5-.5.5h-.5v-1l.1-.1h.3c.3.1.4.2.5.3zm32-9.2V24l-1 .3-7.7 2.8-1.1.4-17.2 6.3-2 .7V23.2l1-.4 5.4-2 1.1-.4L34.1 16l2.7-1H43c.3 0 .5.2.5.5z" class="st0"/><path d="M38 15l-2.6 1-13 4.8-1.1.4-5.7 2.1-1 .4v-8.1c0-.3.2-.5.5-.5H38z" class="st1"/><path d="M48.5 36.5V47H29.8v-3.7l.4-.1 5.3-2 2.9-1 .7.6 1.9-1.6 2.8-1 4.2-1.5z" class="st0"/><path d="M15 15h5.5l-2.6 1-1 .4-1.1.4-.3.1-.5.1zm11.3-4.6c0 .3-.2.5-.5.5h-9.3c-.3 0-.5-.2-.5-.5s.2-.5.5-.5h9.3c.3 0 .5.2.5.5zm0-4.3c0 .3-.2.5-.5.5h-6c-.3 0-.5-.2-.5-.5s.2-.5.5-.5h6c.3 0 .5.2.5.5zM49 3.5v1.2L48 5l-1.2.4-2.8 1-6.8 2.5-1.1.4-6 2.2-1 .3V3.5c0-.3.2-.5.5-.5h18.7c.4 0 .7.2.7.5z" class="st1"/><path d="M48.5 33.4H46c-.3 0-.5.2-.5.5s.2.5.5.5h1.1L41 39.2l-1.9 1.6-.7-.6-3.8-3.1c-.2-.2-.5-.1-.7.1-.2.2-.1.5.1.7l2.8 2.3-1.3 1-5.3 4.3v-8c0-.3-.2-.5-.5-.5s-.5.2-.5.5v9c0 .3.2.5.5.5h18.7c.3 0 .5-.2.5-.5V33.8c.1-.2-.2-.4-.4-.4zM31.1 46.1l6.5-5.2 1.2 1c.1.1.2.1.3.1s.2 0 .3-.1l1.2-1 6.5 5.2h-16zm16.9-.6l-6.6-5.3 2.5-2 4.1-3.3v10.6zM48.5 3H29.7c-.3 0-.5.2-.5.5v9c0 .3.2.5.5.5s.5-.2.5-.5v-8l1.6 1.3 4.3 3.5.6.5-2.7 2.3c-.2.2-.2.5-.1.7.1.1.2.2.4.2.1 0 .2 0 .3-.1l3-2.4 1.2 1c.1.1.2.1.3.1s.2 0 .3-.1l1.2-1 2.7 2.2.4.3 3.4 2.8H46c-.3 0-.5.2-.5.5s.2.5.5.5h2.4c.3 0 .5-.2.5-.5V3.5c.1-.3-.2-.5-.4-.5zm-9.4 7.4l-1.8-1.5L33 5.4 31.2 4h16L44 6.4l-4.9 4zm8.9 4.7l-.3-.2-2.9-2.4-.4-.3-3-2.4 5.5-4.4.9-.7.2-.2v10.6z" class="st2"/><path d="M43 15H15c-.3 0-.5.2-.5.5v19.1c0 .2.2.4.5.4h28c.3 0 .5-.2.5-.5v-19c0-.3-.2-.5-.5-.5zm-1.4 1L29 26.2l-6.7-5.4-.4-.3-5.1-4.1-.4-.4h25.2zm-26.1.5l.3.2 5.1 4.1.4.3L26 25l-10.5 8.5v-17zm.9 17.5l.1-.1 10.2-8.3 1.9 1.6c.1.1.2.1.3.1.1 0 .2 0 .3-.1l1.9-1.6 2.5 2 7.9 6.4H16.4zm26.1-.5l-7.7-6.3L32 25l10.5-8.5v17z" class="st2"/><path d="M11.6 25c0 .3-.2.5-.5.5H1.5c-.2 0-.5-.2-.5-.5s.2-.5.5-.5h9.6c.2 0 .3.1.4.2 0 .1.1.2.1.3zm0-4.3c0 .3-.2.5-.5.5H4.9c-.3 0-.5-.2-.5-.5s.2-.5.5-.5h6.2c.3 0 .5.2.5.5zm0 8.6c0 .3-.2.5-.5.5H4.9c-.3 0-.5-.2-.5-.5s.2-.5.5-.5h6.2c.3 0 .5.2.5.5z" class="st3"/><path fill="#494949" stroke="#494949" stroke-miterlimit="10" stroke-width=".75" d="M26.3 10.4c0 .3-.2.5-.5.5h-9.3c-.3 0-.5-.2-.5-.5s.2-.5.5-.5h9.3c.3 0 .5.2.5.5zm0-4.3c0 .3-.2.5-.5.5h-6c-.3 0-.5-.2-.5-.5s.2-.5.5-.5h6c.3 0 .5.2.5.5z"/><path d="M25.9 39.1h-9.3c-.3 0-.5.2-.5.5s.2.5.5.5h9.3c.3 0 .5-.2.5-.5-.1-.2-.3-.5-.5-.5zm0 4.3h-6c-.3 0-.5.2-.5.5s.2.5.5.5h6c.3 0 .5-.2.5-.5-.1-.2-.3-.5-.5-.5z" class="st3"/></svg>