<svg xmlns="http://www.w3.org/2000/svg" viewBox="0 0 50 50"><path fill="#afe55d" d="M38 12.8v9.4L19.4 29c-1.7-1.9-2.7-4.3-2.7-7v-9.1c0-5.9 4.8-10.6 10.6-10.6 2.9 0 5.6 1.2 7.5 3.1.9.9 1.7 2.1 2.2 3.3.7 1.2 1 2.6 1 4.1z"/><path fill="#c3ff68" d="M37.7 8.5l-21.3 7.7v-3.3c0-6.2 5-11.1 11.1-11.1 3 0 5.8 1.3 7.8 3.2 1 1.1 1.8 2.2 2.4 3.5z"/><path fill="#031326" d="M39.5 46.5H28.6v-7.9c0-.7-.6-1.2-1.2-1.2-4.8 0-9.1-2.2-12-5.7l3.6-1.3c2.2 2.2 5.2 3.4 8.3 3.4 6.5 0 11.7-5.1 11.9-11.6v-9.4c0-1.6-.3-3.2-1-4.7-.6-1.4-1.4-2.6-2.5-3.7C33.5 2.2 30.6 1 27.4 1c-6.6 0-11.9 5.3-11.9 11.9v10.4c0 .2.1.5.1.7 0 .1 0 .2.1.3 0 .2.1.4.2.7 0 .1 0 .2.1.3l.3.9c0 .1 0 .1.1.2.1.2.2.5.3.7 0 .1.1.2.2.3l.3.6c.1.1.1.2.2.3 0 .1.1.1.1.2l-3.4 1.2c-1.3-2.3-2-4.9-2-7.7 0-.7-.6-1.2-1.2-1.2s-1.5.5-1.5 1.2c0 9.5 7.4 17.3 16.7 17.9v6.7h-11c-.7 0-1.2.6-1.2 1.2s.6 1.2 1.2 1.2h24.3c.7 0 1.2-.6 1.2-1.2s-.5-1.3-1.1-1.3zM27.4 3.4c2.5 0 4.9 1 6.6 2.8.8.8 1.5 1.8 2 2.9.5 1.2.8 2.4.8 3.7h-4.9c-.5 0-.8.3-.8.8s.4.8.8.8h4.9v2h-4.9c-.5 0-.8.3-.8.8s.4.8.8.8h4.9v2.4h-4.9c-.5 0-.8.3-.8.8s.4.8.8.8h4.9v.1c-.1 5.1-4.2 9.2-9.4 9.2-2.7 0-5.3-1.2-7.1-3.2-1.5-1.7-2.3-3.8-2.3-6.1h4.8c.4 0 .8-.3.8-.8s-.4-.8-.8-.8H18V18h4.8c.4 0 .8-.3.8-.8s-.4-.8-.8-.8H18v-2h4.8c.4 0 .8-.3.8-.8s-.4-.8-.8-.8H18c0-5.2 4.1-9.4 9.4-9.4z"/></svg>