<svg xmlns="http://www.w3.org/2000/svg" id="Camada_3" x="0" y="0" version="1.1" viewBox="0 0 50 50" xml:space="preserve"><style>.st3,.st5{fill:none;stroke-miterlimit:10}.st3{stroke-linecap:round;stroke-linejoin:round;stroke:#444}.st5{stroke:#494949;stroke-width:.5}</style><path fill="#f799ff" d="M47.04 10.05l-.54 7.47L2.66 33.47 2.67 24l.31-11.3 26-9.46 18.12-.46z"/><path fill="#e589ef" d="M46.85 26.21l.39 4.16-44.77 16.3.13-8.78.33-13.05 44.6-16.23-.68 11.6z"/><path fill="none" stroke="#444" stroke-linecap="round" stroke-linejoin="round" stroke-miterlimit="10" stroke-width="2.5" d="M32.73 47.22H2.77V2.78h44.74v34.44"/><path d="M18.38 21.21c-4.28 0-7.7 2.31-7.7 5.13v8.56m7.7-13.69c1.99 0 3.42-1.4 3.42-3.42v-1.71c0-2.03-1.43-3.42-3.42-3.42s-3.42 1.4-3.42 3.42v1.71c0 2.03 1.43 3.42 3.42 3.42zM14.1 27.2v7.7m8.56-7.7v18.83m-8.56-4.28v4.28m5.14-11.13v11.13M7.26 34.9h8.56v6.85H7.26z" class="st3"/><path fill="none" stroke="#444" stroke-linecap="round" stroke-linejoin="round" stroke-miterlimit="10" stroke-width=".5" d="M27.57 24.64h6.44v5.03c0 .83 1.07 1.17 1.55.5L40 24.64h1.03c.95 0 1.71-.77 1.71-1.71V8.38c0-.94-.77-1.71-1.71-1.71H9.66c-.94 0-1.71.77-1.71 1.71v14.55c0 .95.77 1.71 1.71 1.71"/><path d="M22.71 30.63V27.2h.92s2.7 1.41 4.42 2.25c1.76.86 3.05-.98 3.05-.98s-2.66-2.51-4.12-3.83c-1.53-1.38-3.23-2.57-5.99-2.57" class="st3"/><path d="M32.7 17.97a1.1 1.1 0 01-1.09-.96l-.6-4.67c-.09-.72.29-1.43.94-1.75.47-.23 1.01-.23 1.48 0 .66.32 1.04 1.02.94 1.75l-.6 4.67c-.05.55-.51.96-1.07.96z" class="st5"/><circle cx="32.7" cy="20.83" r="1.32" class="st5"/><path d="M37.18 15.36a.863.863 0 01-.72-.91l.18-3.76a1.359 1.359 0 012.16-1.03c.47.34.68.95.5 1.51l-1.12 3.6a.89.89 0 01-1 .59zm.65 2.44c-.1.58-.65.96-1.23.86-.58-.1-.96-.65-.86-1.23.1-.58.65-.96 1.23-.86.58.1.96.65.86 1.23zm-9.6-2.44a.87.87 0 01-.99-.6l-1.12-3.6c-.17-.56.03-1.16.5-1.51.34-.24.77-.32 1.17-.21.56.16.96.66.99 1.24l.18 3.76c.01.45-.3.84-.73.92zm1.44 2.07c.1.58-.28 1.12-.86 1.23-.58.1-1.12-.28-1.23-.86-.1-.58.28-1.12.86-1.23.57-.1 1.12.28 1.23.86z" class="st5"/></svg>