<svg xmlns="http://www.w3.org/2000/svg" id="Layer_1" x="0" y="0" version="1.1" viewBox="0 0 50 50" xml:space="preserve"><style>.st2{fill:#031326}</style><path fill="#9674ea" d="M47.5 8.5L2.3 24.9V42L43 27.2z"/><path fill="#b292f3" d="M47.5 8.4L34.2 5.2V2.4H2.3v23L47.3 9z"/><path d="M35.4 4.3V1.2H1.2v42.4h16.2l21.4 5.1 1.4-5.8c.2-.7-.3-1.3-.9-1.5-.7-.2-1.3.3-1.5.9l-.8 3.4-8.8-2.1h7.2V6.9l10.4 2.5-4.7 19.4c-.2.7.3 1.3.9 1.5h.3c.6 0 1.1-.4 1.2-1l5.3-21.8-13.4-3.2zm-2.5 36.8H3.7V3.7h29.1v37.4z" class="st2"/><path d="M26.7 12.2H9.9c-.4 0-.8-.3-.8-.8s.3-.8.8-.8h16.8c.4 0 .8.3.8.8s-.4.8-.8.8zm0 7.4H9.9c-.4 0-.8-.3-.8-.8s.3-.8.8-.8h16.8c.4 0 .8.3.8.8s-.4.8-.8.8zm0 7.3H9.9c-.4 0-.8-.3-.8-.8s.3-.8.8-.8h16.8c.4 0 .8.3.8.8s-.4.8-.8.8zm0 7.3H9.9c-.4 0-.8-.3-.8-.8s.3-.8.8-.8h16.8c.4 0 .8.3.8.8s-.4.8-.8.8z" class="st2"/></svg>