<svg xmlns="http://www.w3.org/2000/svg" version="1" viewBox="0 0 50 50"><path fill="#E56060" d="M16.582 11.578c.349.145.998.445.998.445-2.382 3.661-3.08 7.458-3.08 10.654 0 4.213 1.617 9.443 4.378 14.121-.813.717-1.666 1.308-2.538 1.734-1.918.936-2.924 2.97-2.664 4.975l17.762-6.465a33.353 33.353 0 01-.328-.253c2.77-4.678 4.378-9.908 4.378-14.111 0-3.196-.688-6.992-3.07-10.654.32-.155.649-.3.997-.445a4.844 4.844 0 00-3.758-8.929 35.339 35.339 0 00-4.659 2.373 35.277 35.277 0 00-4.659-2.373 4.839 4.839 0 00-6.343 2.586 4.843 4.843 0 002.586 6.342z"/><path fill="#FF6B6B" d="M16.582 11.578c.349.145.998.445.998.445l-.002.004 18.447-6.715c-.01-.026-.013-.052-.024-.079a4.844 4.844 0 00-6.344-2.586 35.339 35.339 0 00-4.659 2.373 35.277 35.277 0 00-4.659-2.373 4.839 4.839 0 00-6.343 2.586 4.845 4.845 0 002.586 6.345z"/><path fill="#031326" d="M37.181 9.417a6.054 6.054 0 00-.024-4.666 6.049 6.049 0 00-3.315-3.28 6.06 6.06 0 00-4.67.027 37.664 37.664 0 00-4.17 2.068 37.668 37.668 0 00-4.175-2.07 6.071 6.071 0 00-4.664-.027 6.042 6.042 0 00-3.315 3.28 6.054 6.054 0 00-.025 4.668 6.043 6.043 0 002.963 3.17c-1.682 3.037-2.533 6.424-2.533 10.089 0 4.193 1.456 9.179 4.017 13.82a9.392 9.392 0 01-1.475.911 6.066 6.066 0 00-3.092 3.487 6.033 6.033 0 00.277 4.649 6.124 6.124 0 005.483 3.438 6.12 6.12 0 002.654-.608A20.73 20.73 0 0025 45.907c1.267 1.005 2.569 1.833 3.885 2.466a1.25 1.25 0 001.084-2.252c-1.401-.675-2.798-1.611-4.15-2.783l-.848-.683c-1.635-1.583-3.165-3.484-4.5-5.594l.01-.009-.525-.891c-2.633-4.46-4.205-9.502-4.205-13.485 0-3.682.968-7.037 2.878-9.972l.606-.931c1.966 1.137 4.296 3.315 5.59 6.477-.014.01-.031.015-.04.031-1.08 1.903-3.091 12.897 5.298 19.203.1.148 1.562.856 2.103-.06 2.841-4.818 4.553-10.326 4.553-14.748 0-3.673-.848-7.06-2.523-10.089a6.044 6.044 0 002.965-3.17zM24.782 42.82l-.599.52c-1.351 1.17-2.747 2.106-4.153 2.783a3.604 3.604 0 01-1.566.359 3.563 3.563 0 01-3.234-2.029 3.55 3.55 0 01-.164-2.739 3.589 3.589 0 011.826-2.06c.949-.463 1.896-1.108 2.815-1.919l.575-.506c1.335 2.107 2.866 4.005 4.5 5.591zm.159-24.288c1.225 3.208 1.094 6.723-.362 10.2-1.166-4.567-.283-8.892.362-10.2zm9.299 4.145c0 3.993-1.571 9.03-4.203 13.475 0 0-.385.674-.408.654-2.689-2.231-4.185-4.973-4.943-7.664 1.628-3.682 1.783-7.424.447-10.822-1.304-3.317-3.67-5.562-5.757-6.759l-1.268-.672s-.677-.313-1.039-.464a3.563 3.563 0 01-1.932-1.952 3.573 3.573 0 01.015-2.754 3.562 3.562 0 011.953-1.934 3.579 3.579 0 012.749.015 34.197 34.197 0 014.494 2.288l.686.38c2.536 1.692 4.573 3.653 6.081 5.841l.258.397c1.902 2.923 2.867 6.278 2.867 9.971zm.626-14.205a3.562 3.562 0 01-1.931 1.952c-.371.155-.721.31-1.061.474l-1.089.528c-1.441-1.891-3.286-3.602-5.516-5.104l.384-.235A34.286 34.286 0 0130.144 3.8a3.58 3.58 0 012.753-.015 3.564 3.564 0 011.954 1.934c.374.885.378 1.863.015 2.753z"/></svg>