<svg xmlns="http://www.w3.org/2000/svg" version="1" viewBox="0 0 50 50"><path fill="#00C8E2" d="M21.267 37.055l.435-.469c.122.066.246.12.369.177l7.884-2.87 2.165-2.329.554 1.339 10.559-3.843 2.283-2.458c2.144-2.228 2.56-6.277.814-10.499-2.26-5.466-7.081-8.672-11.136-7.369l-5.885 1.891-1.949 2.102-.539-1.303-9.451 3.037-1.275 1.375-.352-.852-9.139 2.937-4.044 4.361 7.756 18.757 10.951-3.984z"/><path fill="#00DFFC" d="M41.711 10.079c-2.065-1.466-4.394-2.028-6.517-1.346l-5.885 1.891-1.949 2.102-.539-1.303-9.451 3.037-1.275 1.375-.352-.852-9.138 2.937-4.044 4.361.736 1.779 38.414-13.981z"/><path fill="#031326" d="M47.485 15.625c-2.529-6.116-7.977-9.592-12.675-8.082l-6.195 1.991-.846.912-.234-.565-10.859 3.49-.171.185-.047-.114-10.547 3.39L1.1 22.021l8.739 21.133 10.653-3.424 1.516-1.634a6.84 6.84 0 004.539.124 6.28 6.28 0 002.406-1.414c.169-.162.328-.333.429-.459l2.33-2.507c.287.587.982.86 1.601.605.203-.084.357-.225.485-.386l3.575-3.998 4.745-1.525a1.236 1.236 0 00.266 1.439 1.25 1.25 0 001.767-.065l2.267-2.441c2.533-2.635 2.953-7.283 1.067-11.844zm-8.507 8.841l-2.633-6.367c1.049.731 1.945 1.898 2.591 3.453.398.971.62 1.881.667 2.713l-.625.201zm.868-.279c-.056-.843-.28-1.758-.68-2.73-.731-1.759-1.769-3.068-3.003-3.797l-1.565-3.786 2.393-.769c2.272-.729 4.678.913 5.989 4.085.779 1.886.894 3.604.321 4.839-.373.805-1.034 1.379-1.911 1.661l-1.544.497zm-19.874 2.138l3.667-3.971 2.133 1.929-3.876 4.18-1.732-1.571.038-.012-.23-.555zm6.046-1.941l.664-.213c1.182-.383 2.2.162 2.731 1.446.275.668.306 1.271.087 1.742-.19.411-.564.708-1.111.884-1.124.358-2.033-.033-2.958-1.275l-.108-.146-.09.143-1.213 1.308c-.452-.146-.941-.142-1.457.021l-.24.078 3.695-3.988zm-6.867-5.675l5.153-1.656-.288 1.847-.019.122-.484 3.098-3.646 3.949-.058-.14.759-4.874-5.11 1.637 3.693-3.983zm1.108 2.708l-.632 4.073-1.255-3.033-5.25 1.687-.002-.005 1.511-1.837.334.812 5.294-1.697zm-.641 5.651l-3.656 3.941-1.009-2.442 4.665-1.499zm.353-.013l1.902 1.725.766-.249c.423-.133.825-.153 1.196-.059l-2.488 2.693-.429-1.036-4.646 1.63-.205-.496 3.904-4.208zm4.272 1.344l.265-.285-1.249 1.979-1.281.759 2.265-2.453zm-6.44-12.565l.454 1.097.116.281h.001l.563 1.36-3.856 4.159-.268-.651 2.061-2.507.094-.03-.803-1.943 1.638-1.766zm-1.37 3.882l-3.421 4.16-1.119-2.706 4.54-1.454zm-5.165 20.351L4.022 22.546l3.015-3.252 7.411 17.923-2.946 2.775-.234.075zm7.836-2.517l-7.047 2.264 2.607-2.455 6.731-2.279-2.291 2.47zm2.729-2.314l-.347-.187.723-.245-.376.432zm5.667-.534a4.415 4.415 0 01-.303.326 3.766 3.766 0 01-1.416.811c-1.158.374-2.365.251-3.486-.354l-.237-.128.621-.713.094-.032-1.31-3.167 1.861-1.102c1.482 1.78 3.292 2.725 5.156 2.725.193 0 .386-.026.58-.046l-1.56 1.68zm6.671-1.436s-.104-.266-.182-.453l-1.213-2.934c.919-1.557.922-3.627-.024-5.913-.988-2.392-2.898-3.986-5.126-4.29l.489-3.549.005-.034-.672-1.624 2.293-2.472 7.415 17.93-2.985 3.339z"/></svg>