<svg xmlns="http://www.w3.org/2000/svg" id="Layer_1" x="0" y="0" version="1.1" viewBox="0 0 50 50" xml:space="preserve"><style>.st4{fill:none;stroke:#494949;stroke-width:.25;stroke-linecap:round;stroke-linejoin:round;stroke-miterlimit:10}</style><path fill="#dc5e82" d="M43.1 30.9c-.6 9.6-8.3 17.3-17.9 17.9-7.8-.4-14.3-6.2-15.8-13.7v-.2c-.2-1-.3-2-.3-3l1.2-.4 1.5-.6 27.4-10c.6.8 1.2 1.6 1.7 2.5 0 0 0 .1.1.1 1.2 2.3 2 4.8 2.1 7.4z"/><path fill="#f56991" d="M41 23.6L12.5 34l-1.9.7-1.1.4v-.2c-.2-1-.3-2-.3-3v-.1c0-4.1 1.4-8 4.1-11l-.6-1.2 13.1-4.8h.4c5.3 0 10 2.4 13.1 6.2.6.8 1.2 1.6 1.7 2.5v.1z"/><path fill="none" stroke="#494949" stroke-linecap="round" stroke-linejoin="round" stroke-miterlimit="10" d="M17.9 9l-7.3 3.6"/><path fill="#494949" d="M16.6 3.8s.1.1.1.2c.4.8 1.3 1.4 2.2 1.4.1 0 .3 0 .4.3.1.1.1.3 0 .4-.4.7-.4 1.5 0 2.2l3.8 7.7c.4.9 1.3 1.4 2.2 1.4h.8c4.3 0 8.4 1.9 11.2 5.3l1.5 2.1s0 .1.1.1c1.1 1.9 1.7 4.1 1.8 6.3v.7c0 8-6.5 14.5-14.5 14.5h-.8c-6.6-.3-12.2-5.1-13.4-11.7v-.2c-.2-.8-.2-1.7-.3-2.5v-.1c0-3.5 1.2-6.8 3.5-9.4.6-.8.8-1.8.3-2.7l-.6-1.2-3.2-6.6c-.3-.7-1-1.2-1.8-1.4-.2 0-.3-.1-.3-.2-.1-.2 0-.4.1-.5.6-.8.7-1.8.3-2.6 0-.1-.1-.1-.1-.2l6.7-3.3m0-2.6c-.3 0-.6.1-.9.2L8.5 4.9C7.3 5.5 7 7 7.6 8.3c-.7.9-.8 2.1-.3 3.1.4.9 1.2 1.4 2.1 1.6l3.2 6.5.6 1.2c-2.6 3.1-4.1 7-4.1 11v.1c0 1 .1 2 .3 3v.2c1.5 7.5 7.9 13.3 15.8 13.7h.9c9.4 0 17-7.6 17-17v-.9c-.1-2.7-.9-5.2-2.1-7.4 0 0 0-.1-.1-.1-.5-.9-1.1-1.7-1.7-2.5-3.1-3.8-7.8-6.2-13.1-6.2h-.8l-3.8-7.7c.4-.8.4-1.8 0-2.7-.5-1-1.5-1.6-2.6-1.7-.5-.7-1.4-1.3-2.3-1.3z"/><path d="M42 31.8c0 8.7-7.1 15.8-15.8 15.8s-15.8-7.1-15.8-15.8c0-4.2 1.6-8 4.3-10.9-1.9 2.6-3 5.8-2.9 9.2.3 8.1 7.4 14.3 15.7 14 7.7-.3 13.9-6.2 14.4-13.5.1.4.1.8.1 1.2z" class="st4"/><path d="M41.1 27.6c-1.7 6.7-7.8 11.6-15 11.6s-13.2-4.9-15-11.6c-.3 1.2-.5 2.5-.5 3.8 0 8.5 6.9 15.5 15.5 15.5 8.5 0 15.5-6.9 15.5-15.5 0-1.2-.2-2.5-.5-3.8z" class="st4"/><path d="M41.4 36.1c-4.6 5.1-12.3 6.7-18.7 3.3s-9.4-10.6-7.8-17.2c-.9.9-1.6 2-2.2 3.2-4 7.6-1.1 16.9 6.4 20.9 7.6 4 16.9 1.1 20.9-6.4.7-1.3 1.1-2.6 1.4-3.8z" class="st4"/></svg>