<svg xmlns="http://www.w3.org/2000/svg" id="Layer_1" x="0" y="0" version="1.1" viewBox="0 0 50 50" xml:space="preserve"><style>.st2{stroke-width:.5}.st2,.st3{fill:none;stroke:#444;stroke-linecap:round;stroke-linejoin:round;stroke-miterlimit:10}</style><path fill="#ff6b6b" d="M47.9 20c-.2-.8-2.7-7.5-3.2-8.1l-3-3.5-.2.1-7.6-5.7-7.8-.8c-3.2 0-12.8-.7-21.2 11.6L2 21.5l.5 2L4.3 35c.1.4 4.7 7 5.1 7.2l5.6 3 32.2-11.7c.6-.5 1.7-8.7.7-13.5z"/><path fill="none" stroke="#444" stroke-linecap="round" stroke-linejoin="round" stroke-miterlimit="10" stroke-width="2.5" d="M28.2 47.6C15.6 49.1 4.1 40.2 2.5 27.5S9.9 3.4 22.6 1.9 46.7 9.3 48.3 22c.6 5.1-.5 10-2.8 14.1"/><g id="innovation_x2F_creativity_development_1_"><path d="M26.2 38.3c0 1.4 1.2 2.6 2.6 2.6h2.6c1.4 0 2.6-1.2 2.6-2.6M30.4 8.6v1m8.8 3.5l.8-.7m-4.8-1.9l.4-.9m-10 .9l-.4-.9" class="st2"/><path d="M26.2 34.1s-.4-2.2-1.2-3.2c-1.9-2.5-4-5.5-4-8.7 0-5.2 4.2-9.4 9.4-9.4s9.4 4.2 9.4 9.4l1.6 4.7h-2.6V30c0 1.2-.9 2.1-2.1 2.1h-.9c-.7 0-1.3.5-1.5 1.2-.1.6-.2 1.2-.2 1.8v1.2h-7.8" class="st3"/><path d="M28.9 31c0-3.1 0-6.3-2.1-8.3h7.3C32 24.7 32 27.8 32 31m-8.9-18.3h-1.6c-.6 0-1 .5-1 1v.4c0 .4-.3.8-.6 1l-2.7 1.1c-.4.2-.8.1-1.1-.2l-.3-.3c-.4-.4-1.1-.4-1.5 0L12.1 18c-.4.4-.4 1.1 0 1.5l.6.6c.1.1.2.4.1.6l-1.2 3c-.2.4-.5.6-1 .6h-.4c-.6 0-1 .5-1 1v3.1c0 .6.5 1 1 1h.4c.4 0 .8.3 1 .6l1.1 2.7c.2.4.1.8-.2 1.1l-.3.3c-.4.4-.4 1.1 0 1.5l2.2 2.2c.4.4 1.1.4 1.5 0l.3-.3c.3-.3.7-.4 1.1-.2l2.7 1.1c.4.2.6.5.6 1v.4c0 .6.5 1 1 1h2.1" class="st2"/><path d="M17.7 22.6c-.8 1.2-1.3 2.6-1.3 4.2 0 4 3.3 7.3 7.3 7.3h2.6" class="st3"/></g></svg>