<svg xmlns="http://www.w3.org/2000/svg" version="1" viewBox="0 0 50 50"><path fill="#00C8E2" d="M12.963 36.109l-4.337 3.147.048 3.809 3.512 1.551 17.141-6.239 13.703-9.942-.048-3.809-8.822-3.896-18.962 13.757 5.038-8.539v-20.4L16.321 3.25h-5.443L6.963 5.548v20.4L12.94 36.08c.007.011.016.018.023.029z"/><path fill="#00DFFC" d="M20.408 5.663v-.115L16.493 3.25H11.05L7.135 5.548v4.946z"/><g fill="#031326"><path d="M44.222 23.807l-10.214-4.51-14.679 10.65 2.157-3.657V4.833L16.661 2h-6.123L5.713 4.833V26.29l5.593 9.478-3.938 2.857.067 5.26 8.801 3.887a1.25 1.25 0 001.648-.639c.183-.415.104-.865-.138-1.211v-2.685l24-17.414.025 1.981-13.179 9.562a1.25 1.25 0 101.469 2.023l14.226-10.322-.065-5.26zm-29.924 9.748a7.203 7.203 0 01-.696.036c-.238 0-.471-.014-.7-.036l-3.457-5.859 1.365.802h5.579l1.365-.801-3.456 5.858zM10.628 7.99v19.82l-1.706-1.002-.709-1.202V6.572l2.415 1.418zm8.358 17.617l-.709 1.202-1.706 1.002V7.99l2.415-1.418v19.035zm-2.915 2.39h-4.943v-19.9h4.943v19.9zM11.218 4.5h4.763l2.773 1.628-2.501 1.469h-5.307L8.444 6.128 11.218 4.5zm3.649 31.772l3.729 1.647a.25.25 0 00.33-.128.25.25 0 00-.127-.329l-3.463-1.529 4.627-3.357 1.698.75a.25.25 0 00.33-.128.25.25 0 00-.127-.329l-1.432-.632 4.628-3.357 1.769.781a.25.25 0 00.33-.128.249.249 0 00-.128-.329l-1.502-.663 4.628-3.358 3.733 1.649a.25.25 0 00.33-.128.249.249 0 00-.128-.329l-3.467-1.531 3.691-2.678 7.227 3.192-24.077 17.463-7.226-3.191.829-.602 3.798-2.756zm-4.953 5.973l-.028-2.225 7.36 3.251v2.213l-7.332-3.239z"/><ellipse cx="13.599" cy="6.009" rx="2.053" ry=".689"/></g></svg>