<svg xmlns="http://www.w3.org/2000/svg" id="Layer_1" x="0" y="0" version="1.1" viewBox="0 0 50 50" xml:space="preserve"><style>.st2{fill:#031326}</style><path fill="#00c8e2" d="M48 26.8L12.2 43V27.8l28.1-12.1-.4 6.7 8.2 1z"/><path fill="#00dffc" d="M39.6 16.5l-18.9 7.8-.4-14 18.5.5z"/><path d="M48.1 22.1h-6.9V10.3c0-.7-.6-1.2-1.2-1.2h-8.6V7c0-.7-.6-1.2-1.2-1.2s-1.3.5-1.3 1.2v2h-8.6c-.7 0-1.2.6-1.2 1.2v13c0 .7.6 1.2 1.2 1.2s1.2-.6 1.2-1.2V11.5h17.1v10.6H35c-.7 0-1.2.6-1.2 1.2v18.4h-7.3V28.3c0-.7-.6-1.2-1.2-1.2H12.2c-.7 0-1.2.6-1.2 1.2V43c0 .7.6 1.2 1.2 1.2h35.9c.7 0 1.2-.6 1.2-1.2V23.4c.1-.7-.5-1.3-1.2-1.3zM24 41.7H13.4V29.5H24v12.2zm22.9 0H36.3V24.6h10.6v17.1z" class="st2"/><path d="M39.9 29h3.3c.4 0 .8-.3.8-.8s-.3-.8-.8-.8h-3.3c-.4 0-.8.3-.8.8s.4.8.8.8zm0 4.9h3.3c.4 0 .8-.3.8-.8s-.3-.8-.8-.8h-3.3c-.4 0-.8.3-.8.8s.4.8.8.8zm0 4.9h3.3c.4 0 .8-.3.8-.8s-.3-.8-.8-.8h-3.3c-.4 0-.8.3-.8.8s.4.8.8.8zm-22.8-4.9h3.3c.4 0 .8-.3.8-.8s-.3-.8-.8-.8h-3.3c-.4 0-.8.3-.8.8s.3.8.8.8zm15.5-16.3c.4 0 .8-.3.8-.8s-.3-.8-.8-.8h-4.9c-.4 0-.8.3-.8.8s.3.8.8.8h4.9zM17.1 38.8h3.3c.4 0 .8-.3.8-.8s-.3-.8-.8-.8h-3.3c-.4 0-.8.3-.8.8s.3.8.8.8zm-2.9-20.7c0-.7-.6-1.2-1.2-1.2H6.3c-.7 0-1.2.6-1.2 1.2s.6 1.2 1.2 1.2h6.6c.7.1 1.3-.5 1.3-1.2zm0 4.5c0-.7-.6-1.2-1.2-1.2h-2.2c-.7 0-1.2.6-1.2 1.2s.6 1.2 1.2 1.2H13c.6.1 1.2-.5 1.2-1.2zm0-9c0-.7-.6-1.2-1.2-1.2H1.9c-.7 0-1.2.6-1.2 1.2s.6 1.2 1.2 1.2H13c.6 0 1.2-.5 1.2-1.2z" class="st2"/></svg>