<svg xmlns="http://www.w3.org/2000/svg" version="1" viewBox="0 0 50 50"><path fill="#00C8E2" d="M15.714 36.408a8.642 8.642 0 003.139 6.666l15.372-5.595c.036-.317.06-.637.06-.964 0-3.867 1.261-7.584 3.362-10.832a14.935 14.935 0 002.398-8.137c0-8.873-7.681-15.952-16.756-14.951-6.917.763-12.499 6.366-13.244 13.285-.393 3.649.524 7.065 2.336 9.846 2.084 3.198 3.333 6.865 3.333 10.682z"/><path fill="#00DFFC" d="M35.209 6.546a15.01 15.01 0 00-11.961-3.952c-6.86.758-12.4 6.277-13.219 13.117l25.18-9.165z"/><path fill="#031326" d="M35.869 5.404c-3.446-3.086-8.08-4.563-12.718-4.052-7.505.829-13.54 6.882-14.35 14.394-.41 3.806.466 7.493 2.532 10.662 2.048 3.144 3.131 6.602 3.131 10 0 4.332 2.847 8.152 6.902 9.446a2.906 2.906 0 002.903 2.896h2.118a2.907 2.907 0 002.903-2.903v-.958c0-.599-.43-1.076-.992-1.198a.758.758 0 00-.237-.048c-.007 0-.013-.004-.021-.004-.015 0-.028.008-.043.009-.053.003-.104-.003-.158.011a7.816 7.816 0 01-2.112.289h-1.351c-.171 0-.341-.015-.512-.026l-.997-.253a7.295 7.295 0 01-2.094-.789l11.646-2.119c.123.211.289.399.527.511a1.252 1.252 0 001.663-.601 9.707 9.707 0 00.924-4.156c0-3.445 1.093-6.956 3.161-10.152a16.202 16.202 0 002.599-8.817 16.306 16.306 0 00-5.424-12.142zM24.378 45.447h1.351c.357 0 .71-.032 1.062-.072v.472a.403.403 0 01-.403.403H24.27a.404.404 0 01-.403-.403v-.425c.17.008.34.025.511.025zm-7.316-7.869l16.078-2.936a18.977 18.977 0 00-.104 1.873c0 .041-.006.081-.007.122l-15.404 2.817a7.441 7.441 0 01-.563-1.876zm-.09-1.001c-.001-.057-.007-.112-.007-.169 0-.88-.071-1.763-.195-2.643 2.542.035 5.295.054 8.233.054 2.572 0 5.014-.014 7.295-.041l-15.326 2.799zm1.16 3.801l14.803-2.708a7.17 7.17 0 01-.586 1.938c-.024.05-.021.104-.038.155l-12.7 2.311a7.485 7.485 0 01-1.479-1.696zm18.466-15.374c-1.489 2.302-2.524 4.758-3.081 7.257-2.624.038-5.473.058-8.515.058-3.044 0-5.889-.021-8.504-.058-.55-2.488-1.58-4.932-3.07-7.218-1.748-2.681-2.488-5.803-2.141-9.029.685-6.354 5.79-11.476 12.139-12.176 3.986-.443 7.814.778 10.775 3.429a13.818 13.818 0 014.595 10.279 13.7 13.7 0 01-2.198 7.458z"/></svg>