<svg xmlns="http://www.w3.org/2000/svg" id="Layer_1" x="0" y="0" version="1.1" viewBox="0 0 50 50" xml:space="preserve"><style>.st2{fill:#444}</style><path fill="#a475ef" d="M46.8 19l-17.4 6.3-23.3 8.6H2.9v-8.8h5.6c-.7-1.4-1.2-3-1.7-4.6 0-.1 0-.2-.1-.2l28-10.3c.1.1.2.3.2.4.5.8.9 1.7 1.2 2.6.7-.2 1.4-.4 2.1-.4 4.2 0 7.5 2.7 8.6 6.4z"/><path fill="#bf94f7" d="M35 10.4L6.8 20.6c-.1-.1-.1-.3-.2-.5-.5-1.8-.8-4-.3-6.4.7-3.3 2.7-6.2 5.4-8.3L21 2h1.4c5.1.3 9.7 3.4 12.4 7.9 0 .2.1.3.2.5z"/><path d="M7.3 30.2h4.4c.4 0 .8-.3.8-.8s-.3-.8-.8-.8H7.3c-.4 0-.8.3-.8.8s.4.8.8.8z" class="st2"/><circle cx="25" cy="29.4" r=".9" class="st2"/><path d="M29.4 37.9H2.9c-.7 0-1.2.6-1.2 1.2V48c0 .7.6 1.2 1.2 1.2h26.5c.7 0 1.2-.6 1.2-1.2v-8.8c.1-.7-.5-1.3-1.2-1.3zm-1.2 8.8h-24v-6.3h24v6.3z" class="st2"/><path d="M7.3 44.3h4.4c.4 0 .8-.3.8-.8s-.3-.8-.8-.8H7.3c-.4 0-.8.3-.8.8s.4.8.8.8z" class="st2"/><circle cx="25" cy="43.6" r=".9" class="st2"/><path d="M48 18.7c-1.2-4.4-5.1-7.3-9.7-7.3-.5 0-.9.1-1.4.1-.3-.6-.5-1.2-.8-1.7-.1-.2-.2-.4-.3-.5-2.9-5-7.9-8.2-13.4-8.5h-1.5c-3.5.1-7.1 1.4-10 3.6-3 2.4-5.1 5.6-5.8 9.1-.5 2.3-.3 4.6.3 7 .1.2.1.4.2.5.3 1.1.7 2 1.1 2.8H2.9c-.7 0-1.2.6-1.2 1.2v8.8c0 .7.6 1.2 1.2 1.2h2.8v1.4c0 .4.3.8.8.8s.8-.3.8-.8V35h17.9v1.4c0 .4.3.8.8.8.4 0 .7-.3.7-.8V35h2.8c.7 0 1.2-.6 1.2-1.2v-2.3h7.6c5.7 0 10.1-4.4 10.1-10.1 0-.9-.2-1.8-.4-2.7zM28.2 32.6h-24v-6.3h24v6.3zm10.1-3.5h-7.6V25c0-.7-.6-1.2-1.2-1.2H9.7c-.5-.8-1.2-2-1.7-3.6 0-.1-.1-.2-.1-.4-.6-2-.7-3.9-.3-5.8.6-2.9 2.3-5.6 4.9-7.6h.1C15 4.4 18 3.3 21 3.3h1.2c4.6.3 8.9 3 11.4 7.4.1.1.1.2.2.4.4.8.8 1.6 1.1 2.4.2.6.9 1 1.5.8.7-.2 1.3-.3 1.8-.3 3.5 0 6.4 2.2 7.3 5.5.2.7.3 1.4.3 2.1.1 4.1-3.3 7.5-7.5 7.5z" class="st2"/></svg>