<svg xmlns="http://www.w3.org/2000/svg" id="Layer_1" x="0" y="0" version="1.1" viewBox="0 0 50 50" xml:space="preserve"><style>.st2,.st4{stroke:#444;stroke-miterlimit:10}.st2{stroke-width:.5;fill:#444}.st4{fill:none}</style><path fill="#fcc34f" d="M2.8 40l-.1-4.3 1.6-.6 2.6-1 3.7-1.3 10.8-3.9 9.6-3.5 11.1-4.1 1.6-.6 2.4-.9 1.6-.6v18.4l-.8-1.5-4.4 1.5-4.4 1.6-8.9 3.2L18.8 46l-14.5.1c-1.8 0-3.2-1.4-3.2-3.2"/><path fill="#fdcf72" d="M47.8 10.9v8.5l-1.6.6-2.4.9-1.6.6-10.5 3.8-9.7 3.5-10.8 3.9-4.1 1.5-2.8 1.1-1.6.6V23.4l1.6.4 2.4-.9 1.6-.6L45.8 7.9"/><path d="M48.7 39.7c-.1 0-.1 0 0 0h-.9v-29c0-1.8-1.5-3.2-3.2-3.2H12.3v1.6h32.3c.9 0 1.6.7 1.6 1.6v29H32.5c-.2 0-.4.1-.6.2l-1.4 1.4H19.9l-1.4-1.4c-.2-.2-.4-.2-.6-.2H4.3v-29c0-.9.7-1.6 1.6-1.6h7V7.5h-7c-1.8 0-3.2 1.4-3.2 3.2v29h-.8c-.5 0-.8.4-.8.8v2.4c0 1.8 1.5 3.2 3.2 3.2h41.9c1.8 0 3.2-1.4 3.2-3.2v-2.4c0-.4-.3-.8-.7-.8zm-.7 3.4c0 .9-.9 1.4-1.8 1.4H4.3c-.9 0-1.6-.7-1.6-1.6v-1.6h15l1.4 1.4c.1.1.4.2.6.2H31c.2 0 .4-.1.6-.2l1.4-1.4h15v1.8z" class="st2"/><path d="M25.2 38.1c.4 0 .8.4.8.8s-.4.8-.8.8-.8-.4-.8-.8c0-.5.4-.8.8-.8z" class="st2"/><path fill="none" stroke="#444" stroke-linecap="round" stroke-linejoin="round" stroke-miterlimit="10" stroke-width="1.5" d="M9.7 12.8H7.8v22.6h35V13h-2.2"/><circle cx="27" cy="18.1" r="3" class="st4"/><path d="M22.9 35.2v-7.1s0-.6-.5-.6h-1.7c-.7 0-1.4-.1-1.9-.5l-.3-.3c-.3-.3-3.3-3.1-3.3-3.1s-1-1-.1-2c.8-.9 1.9-.2 2.3.2.4.4 3.1 3 3.1 3H23m8.2 10.4v-7.1s0-.6.5-.6h1.7c.7 0 1.4-.2 1.9-.6l.2-.2c.3-.3 3.4-3.2 3.4-3.2s1-1 .1-2c-.8-.9-1.9-.2-2.3.2-.4.4-3.1 3-3.1 3h-2.3" class="st4"/><path fill="none" stroke="#444" stroke-linecap="round" stroke-linejoin="round" stroke-miterlimit="10" d="M10.8 17.2l4 4M27 22.9s-.5.1-.7.3c-.2.2-2-.4-2-.4s-.5-.1-.8.1-.2 2.5-.2 2.5.1.7.7.6 1.7-.5 1.7-.5.3-.2.6.1c.2.3.7.3.7.3m.2-3s.4.1.7.3c.2.2 2-.4 2-.4s.5-.1.8.1.2 2.5.2 2.5-.1.7-.7.6-1.7-.5-1.7-.5-.3-.2-.6.1c-.2.3-.8.3-.8.3"/></svg>