<svg xmlns="http://www.w3.org/2000/svg" version="1" viewBox="0 0 50 50"><path fill="#E589EF" d="M13.105 44.026l33.263-12.107A22.41 22.41 0 0047.457 25C47.457 12.597 37.403 2.543 25 2.543S2.543 12.597 2.543 25c0 8.029 4.225 15.057 10.562 19.026z"/><path fill="#F799FF" d="M35.906 5.294A22.353 22.353 0 0025.13 2.543c-9.519 0-17.649 5.926-20.917 14.287L35.906 5.294z"/><g fill="#031326"><path d="M25 1.293C11.928 1.293 1.293 11.928 1.293 25S11.928 48.707 25 48.707a23.581 23.581 0 0016.457-6.644c.497-.479.39-1.208-.381-2.049l-5.159-5.159-.53.53a14.598 14.598 0 01-10.391 4.302c-8.097 0-14.685-6.588-14.685-14.685 0-8.102 6.587-14.693 14.685-14.693 3.926 0 7.616 1.528 10.391 4.302l.53.53 4.575-4.576c3.533 3.79 5.715 8.856 5.715 14.434 0 2.073-.299 4.122-.887 6.088a1.25 1.25 0 002.395.717c.658-2.198.992-4.488.992-6.805C48.707 11.928 38.072 1.293 25 1.293zm10.905 11.739a16.08 16.08 0 00-10.909-4.223c-8.924 0-16.185 7.264-16.185 16.193 0 8.924 7.26 16.185 16.185 16.185 4.076 0 7.921-1.494 10.909-4.223l3.541 3.541A21.077 21.077 0 0125 46.207C13.307 46.207 3.793 36.694 3.793 25S13.307 3.793 25 3.793c5.577 0 10.642 2.18 14.432 5.712l-3.527 3.527z"/><circle cx="25" cy="25" r="5.419"/></g></svg>