<svg xmlns="http://www.w3.org/2000/svg" version="1" viewBox="0 0 50 50"><path fill="#00C8E2" d="M12.394 43.158l33.938-12.352c.503-1.851.776-3.796.776-5.806C47.108 12.79 37.21 2.892 25 2.892S2.892 12.79 2.892 25c0 7.524 3.761 14.165 9.502 18.158z"/><path fill="#00DFFC" d="M37.116 6.457a22.003 22.003 0 00-12.032-3.565c-9.959 0-18.378 6.586-21.144 15.64L37.116 6.457z"/><path fill="#031326" d="M32.334 32.633a10.7 10.7 0 01-7.545 3.098c-5.927 0-10.732-4.804-10.732-10.73 0-5.928 4.806-10.732 10.732-10.732 2.938 0 5.6 1.18 7.537 3.093l-.843.843a9.498 9.498 0 00-6.694-2.745c-5.269 0-9.539 4.272-9.539 9.541a9.539 9.539 0 0016.218 6.811l.866.821z"/><circle cx="24.647" cy="25" r="3.718" fill="#031326"/><path fill="#031326" d="M25 48.358C12.121 48.358 1.642 37.88 1.642 25 1.642 12.121 12.121 1.642 25 1.642c12.88 0 23.358 10.479 23.358 23.358 0 2.079-.273 4.143-.814 6.133a1.25 1.25 0 11-2.412-.654c.482-1.777.727-3.621.727-5.479 0-11.501-9.357-20.858-20.858-20.858S4.142 13.499 4.142 25 13.499 45.858 25 45.858a1.25 1.25 0 010 2.5z"/><path fill="#031326" d="M25 42.727c-9.774 0-17.727-7.952-17.727-17.727S15.226 7.273 25 7.273 42.727 15.226 42.727 25 34.774 42.727 25 42.727zm0-34.454C15.777 8.273 8.273 15.777 8.273 25S15.776 41.727 25 41.727c9.223 0 16.727-7.504 16.727-16.727S34.223 8.273 25 8.273z"/></svg>