<svg xmlns="http://www.w3.org/2000/svg" id="Camada_1" x="0" y="0" version="1.1" viewBox="0 0 50 50" xml:space="preserve"><style>.st1{stroke-width:2.5}.st1,.st2{fill:none;stroke:#444;stroke-linecap:round;stroke-linejoin:round;stroke-miterlimit:10}</style><path fill="#c3ff68" d="M48.1 20c-.2-.8-2.7-7.5-3.2-8.1l-3-3.5-.2.1L34 2.7 26.1 2c-3.2 0-14.6.2-21.6 10.2l-4 10.7-.1.1 4 13.5c.1.4 4.6 5.7 4.9 5.9l5.7 3 32.4-11.8c.6-.4 1.6-8.8.7-13.6z"/><path d="M32.2 47.4c-7 2.3-15 1.2-21.3-3.6C.6 36.1-1.5 21.4 6.3 11" class="st1"/><path d="M6.1 11.2c2-3 4.7-4.7 4.7-4.7l.7-.5C19.6.3 30.7.2 39.1 6.4c10.4 7.8 12.4 22.5 4.7 32.8" class="st1"/><path d="M29.7 17.4v1.9s0 .1-.1.1h-9.3s-.1 0-.1-.1v-1.8c.2-.5 2.5-2 4.8-2 2.2-.1 4.6 1.4 4.7 1.9zM25 6.1c1.7 0 2.9 1.3 2.9 3.1v1.3c0 1.8-1.2 3.1-2.9 3.1s-2.9-1.3-2.9-3.1V9.3c.1-1.8 1.3-3.2 2.9-3.2zm4.7 36V44s0 .1-.1.1h-9.3s-.1 0-.1-.1v-1.8c.2-.5 2.5-2 4.8-2 2.2 0 4.6 1.5 4.7 1.9zM25 30.9c1.7 0 2.9 1.3 2.9 3.1v1.3c0 1.8-1.2 3.1-2.9 3.1s-2.9-1.3-2.9-3.1V34c.1-1.8 1.3-3.1 2.9-3.1zm-8.1-1.2v1.9s0 .1-.1.1H7.5s-.1 0-.1-.1v-1.8c.2-.5 2.5-2 4.8-2 2.1 0 4.5 1.5 4.7 1.9zm-4.7-11.2c1.7 0 2.9 1.3 2.9 3.1v1.3c0 1.8-1.2 3.1-2.9 3.1s-2.9-1.3-2.9-3.1v-1.3c0-1.8 1.2-3.1 2.9-3.1zM42.6 29.7v1.9s0 .1-.1.1h-9.3s-.1 0-.1-.1v-1.8c.2-.5 2.5-2 4.8-2 2.2 0 4.5 1.5 4.7 1.9zm-4.7-11.2c1.7 0 2.9 1.3 2.9 3.1v1.3c0 1.8-1.2 3.1-2.9 3.1S35 24.7 35 22.9v-1.3c0-1.8 1.3-3.1 2.9-3.1z" class="st2"/><path fill="none" stroke="#444" stroke-linecap="round" stroke-linejoin="round" stroke-miterlimit="10" stroke-width=".5" d="M20.4 41.9c-5.2-1.4-9.4-5.1-11.4-10m32 0c-2.1 4.8-6.2 8.6-11.4 10m-1.9-34c8.3 1.3 14.7 8.5 14.7 17.2 0 1.3-.2 2.7-.4 3.9m-34 .1c-.3-1.3-.5-2.6-.5-4 0-8.7 6.3-15.9 14.6-17.2"/></svg>