<svg xmlns="http://www.w3.org/2000/svg" id="Layer_1" x="0" y="0" version="1.1" viewBox="0 0 50 50" xml:space="preserve"><style>.st2{fill:#031326}</style><path fill="#46b8b0" d="M48.5 28.3l-25.8 9.3-5.1-.9v-5.3l29.5-10.5z"/><path fill="#4ecdc4" d="M46.9 21.3L17.6 31.9l-2.7-8.2 3-2.8 7.1.1 19.1-.4z"/><path d="M10.4 30.8H5c-.7 0-1.2-.6-1.2-1.2s.6-1.2 1.2-1.2h5.3c.7 0 1.2.6 1.2 1.2s-.5 1.2-1.1 1.2zm0 4.8H8.6c-.7 0-1.2-.6-1.2-1.2s.6-1.2 1.2-1.2h1.8c.7 0 1.2.6 1.2 1.2s-.6 1.2-1.2 1.2zm0-9.6H1.5c-.7 0-1.2-.6-1.2-1.2s.6-1.2 1.2-1.2h8.9c.7 0 1.2.6 1.2 1.2S11 26 10.4 26zm13.7 12.2h-6.5c-.7 0-1.2-.6-1.2-1.2v-6.4h-.9c-.7 0-1.2-.6-1.2-1.2V24c0-2.5 2-4.5 4.5-4.5h4.3c1.7 0 3.3 1 4.1 2.6.3.6-.1.8-.7 1.1-.6.3-1.3.6-1.6 0-.3-.7-1-1.2-1.8-1.2h-4.3c-1.1 0-2 .9-2 2v4.2h.9c.7 0 1.2.6 1.2 1.2v6.4h5.3c.7 0 1.3.6 1.3 1.2s-.7 1.2-1.4 1.2zm-3.2-19.6c-2.5 0-4.5-2-4.5-4.5s2-4.5 4.5-4.5 4.5 2 4.5 4.5-2 4.5-4.5 4.5zm0-6.5c-1.1 0-2 .9-2 2s.9 2 2 2 2-.9 2-2-.9-2-2-2zm25 26.1h-6.5c-.7 0-1.2-.6-1.2-1.2s.6-1.2 1.2-1.2h5.3v-6.4c0-.7.6-1.2 1.2-1.2h.9V24c0-1.1-.9-2-2-2h-4.3c-.8 0-1.5.5-1.8 1.2-.3.6-1 .9-1.7.6-.6-.3-.9-1-.6-1.7.7-1.6 2.3-2.6 4.1-2.6h4.3c2.5 0 4.5 2 4.5 4.5v5.4c0 .7-.6 1.2-1.2 1.2h-.9V37c-.1.6-.7 1.2-1.3 1.2zm-3.3-19.6c-2.5 0-4.5-2-4.5-4.5s2-4.5 4.5-4.5 4.5 2 4.5 4.5-2 4.5-4.5 4.5zm0-6.5c-1.1 0-2 .9-2 2s.9 2 2 2 2-.9 2-2-.9-2-2-2z" class="st2"/><path d="M35 42.5h-6.5c-.7 0-1.2-.6-1.2-1.2v-7.4h-2c-.7 0-1.2-.6-1.2-1.2V25c0-3.1 2.5-5.6 5.6-5.6H34c3.1 0 5.6 2.5 5.6 5.6v7.6c0 .7-.6 1.2-1.2 1.2h-2v7.4c-.2.8-.7 1.3-1.4 1.3zM29.7 40h4v-7.4c0-.7.6-1.2 1.2-1.2h2V25c0-1.7-1.4-3.1-3.1-3.1h-4.3c-1.7 0-3.1 1.4-3.1 3.1v6.4h2c.7 0 1.2.6 1.2 1.2l.1 7.4zm2-21.4c-3.1 0-5.6-2.5-5.6-5.6s2.5-5.6 5.6-5.6 5.6 2.5 5.6 5.6-2.5 5.6-5.6 5.6zm0-8.6c-1.7 0-3.1 1.4-3.1 3.1s1.4 3.1 3.1 3.1 3.1-1.4 3.1-3.1c0-1.8-1.4-3.1-3.1-3.1z" class="st2"/></svg>