<svg xmlns="http://www.w3.org/2000/svg" id="Layer_1" x="0" y="0" version="1.1" viewBox="0 0 50 50" xml:space="preserve"><style>.st2{fill:#031326}</style><path fill="#a475ef" d="M48.5 19.6v7.9l-46.8 17-.2-8.6.3-13.9L48.9 5.8z"/><path fill="#bf94f7" d="M48.9 6.9L1.5 24.1l-.1-13.3.1-6.2 24.4-.3h22z"/><path d="M.3 3.4v43.2h7.2c.7 0 1.2-.6 1.2-1.2s-.6-1.2-1.2-1.2H2.8v-9.7l11.3-10 7.3 7.3c.3.3.7.3 1 0l5.3-4.4c1 .9 2.3 1.4 3.7 1.4s2.7-.5 3.7-1.4l5.3 4.4c.1.1.3.2.5.2s.4-.1.5-.2l6.1-6.1v18.4H21.1c-.7 0-1.2.6-1.2 1.2s.6 1.2 1.2 1.2h28.6V3.4H.3zm31 23.9c-2.2 0-3.9-1.8-3.9-3.9s1.8-3.9 3.9-3.9 3.9 1.8 3.9 3.9-1.8 3.9-3.9 3.9zm9.3 2.9l-4.7-3.9c.5-.8.8-1.8.8-2.9 0-3-2.4-5.4-5.4-5.4s-5.4 2.4-5.4 5.4c0 1.1.3 2 .8 2.9L22 30.2l-7.3-7.3c-.3-.3-.7-.3-1 0L2.8 32.4V5.9h44.5v17.7l-6.7 6.6z" class="st2"/><circle cx="31.3" cy="33.8" r=".8" class="st2"/><circle cx="31.3" cy="39.8" r=".8" class="st2"/><circle cx="31.3" cy="42.8" r=".8" class="st2"/><circle cx="31.3" cy="36.8" r=".8" class="st2"/><circle cx="31.3" cy="30.8" r=".8" class="st2"/><circle cx="31.3" cy="16.4" r=".8" class="st2"/><circle cx="31.3" cy="7.4" r=".8" class="st2"/><circle cx="31.3" cy="10.4" r=".8" class="st2"/><circle cx="31.3" cy="13.4" r=".8" class="st2"/></svg>