<svg xmlns="http://www.w3.org/2000/svg" id="Layer_1" x="0" y="0" version="1.1" viewBox="0 0 50 50" xml:space="preserve"><style>.st2{fill:#031326}</style><path fill="#fdcf72" d="M48.4 3.5H4v18.7L48.4 6z"/><path fill="#fcc34f" d="M48.4 6L4 22.2v22.5h8.1l36.3-13.3z"/><path d="M36.1 45.9H2.2V2.3h46.9V32c0 .7-.6 1.2-1.2 1.2s-1.2-.6-1.2-1.2V4.8h-42v38.6h31.4c.7 0 1.2.6 1.2 1.2s-.5 1.3-1.2 1.3z" class="st2"/><path d="M6.6 47.2c-.4 0-.8-.3-.8-.8V45c0-.4.3-.8.8-.8s.8.3.8.8v1.5c0 .4-.4.7-.8.7zm7.5 0c-.4 0-.8-.3-.8-.8V45c0-.4.3-.8.8-.8s.8.3.8.8v1.5c0 .4-.4.7-.8.7zm7.6 0c-.4 0-.8-.3-.8-.8V45c0-.4.3-.8.8-.8s.8.3.8.8v1.5c-.1.4-.4.7-.8.7zm7.5 0c-.4 0-.8-.3-.8-.8V45c0-.4.3-.8.8-.8s.8.3.8.8v1.5c-.1.4-.4.7-.8.7zM3.1 43.7H1.6c-.4 0-.8-.3-.8-.8s.3-.8.8-.8h1.5c.4 0 .8.3.8.8s-.4.8-.8.8zm0-7.5H1.6c-.4 0-.8-.3-.8-.8s.3-.8.8-.8h1.5c.4 0 .8.3.8.8s-.4.8-.8.8zm0-7.5H1.6c-.4 0-.8-.3-.8-.8s.3-.8.8-.8h1.5c.4 0 .8.3.8.8s-.4.8-.8.8zm0-7.6H1.6c-.4 0-.8-.3-.8-.8s.3-.8.8-.8h1.5c.4 0 .8.3.8.8s-.4.8-.8.8zm0-7.5H1.6c-.4 0-.8-.3-.8-.8s.3-.8.8-.8h1.5c.4 0 .8.3.8.8s-.4.8-.8.8zm0-7.5H1.6c-.4 0-.8-.3-.8-.8s.3-.8.8-.8h1.5c.4 0 .8.3.8.8s-.4.8-.8.8z" class="st2"/><path d="M47.6 44.5H4.8h42.8c0-.1 0-.1 0 0zm0-7.6H4.8h42.8zm0-7.5H4.8h42.8zm0-7.5H4.8h42.8c0-.1 0-.1 0 0zm0-7.5H4.8h42.8c0-.1 0-.1 0 0 0-.1 0 0 0 0zm0-6.5H4.8h42.8z" class="st2"/><circle cx="6.9" cy="41.5" r="1.3" class="st2"/><circle cx="10.8" cy="32.5" r="1.3" class="st2"/><circle cx="15.2" cy="25.1" r="1.3" class="st2"/><circle cx="19.3" cy="30.7" r="1.3" class="st2"/><circle cx="23.5" cy="26.9" r="1.3" class="st2"/><circle cx="27.5" cy="22.2" r="1.3" class="st2"/><circle cx="31.7" cy="18.9" r="1.3" class="st2"/><circle cx="36.4" cy="17.6" r="1.3" class="st2"/><circle cx="44.2" cy="12.4" r="1.3" class="st2"/><circle cx="39.9" cy="6.1" r="1.3" class="st2"/><path d="M6.9 42c-.1 0-.2 0-.3-.1-.4-.2-.5-.6-.4-1l4.1-9.2 4.7-7 4.3 4.6 3.6-2.7 4.3-5 4.3-3.3 3.9-1.1 4.4-11.8 4.9 6.6c.2.3.2.8-.2 1-.3.2-.8.2-1-.2l-3.2-4.4-3.7 9.9-4.4 1.2-4 3.1-4.3 5.1-4.7 3.5-3.9-4.2-3.6 5.4-4 9c-.2.4-.5.6-.8.6z" class="st2"/></svg>