<svg xmlns="http://www.w3.org/2000/svg" viewBox="0 0 50 44"><g fill="none" fill-rule="evenodd"><path fill="#E56060" d="M48.5 16.6v7.9l-46.8 17-.2-8.6.3-13.9L48.9 2.8z"/><path fill="#FF6B6B" d="M48.9 3.9L1.5 21.1 1.4 7.8l.1-6.2 24.4-.3h22z"/><g fill="#031326"><path fill-rule="nonzero" d="M.3.4v43.2h7.2c.7 0 1.2-.6 1.2-1.2s-.6-1.2-1.2-1.2H2.8v-9.7l11.3-10 7.3 7.3c.3.3.7.3 1 0l5.3-4.4c1 .9 2.3 1.4 3.7 1.4 1.4 0 2.7-.5 3.7-1.4l5.3 4.4c.1.1.3.2.5.2s.4-.1.5-.2l6.1-6.1v18.4H21.1c-.7 0-1.2.6-1.2 1.2s.6 1.2 1.2 1.2h28.6V.4H.3zm31 23.9c-2.2 0-3.9-1.8-3.9-3.9 0-2.1 1.8-3.9 3.9-3.9 2.1 0 3.9 1.8 3.9 3.9 0 2.1-1.8 3.9-3.9 3.9zm9.3 2.9l-4.7-3.9c.5-.8.8-1.8.8-2.9 0-3-2.4-5.4-5.4-5.4-3 0-5.4 2.4-5.4 5.4 0 1.1.3 2 .8 2.9L22 27.2l-7.3-7.3c-.3-.3-.7-.3-1 0L2.8 29.4V2.9h44.5v17.7l-6.7 6.6z"/><circle cx="31.3" cy="30.8" r="1"/><circle cx="31.3" cy="36.8" r="1"/><circle cx="31.3" cy="39.8" r="1"/><circle cx="31.3" cy="33.8" r="1"/><circle cx="31.3" cy="27.8" r="1"/><circle cx="31.3" cy="13.4" r="1"/><circle cx="31.3" cy="4.4" r="1"/><circle cx="31.3" cy="7.4" r="1"/><circle cx="31.3" cy="10.4" r="1"/></g></g></svg>