<svg xmlns="http://www.w3.org/2000/svg" version="1" viewBox="0 0 50 50"><path fill="#00C8E2" d="M47.999 7.677c0 .181-.036.369-.101.564.051.145.08.282.087.427l.014 1.706c0 .6-.304 1.164-.86 1.634v.094c0 .824-.615 1.258-1.215 1.258h-.998l-9.232 5.357c.007.079.014.159.014.238.123 2.66.058 13.165.007 15.471v.043L8.643 44.322a15.297 15.297 0 01-2.241-1.041c-2.769-1.598-4.323-3.846-4.381-6.318-.029-1.323-.014-4.591 0-7.75.014-3.065.036-6.232 0-7.28-.079-3 2.046-5.993 5.834-8.213 2.523-1.482 5.61-2.523 8.95-3.015.68-.398 1.54-.622 2.429-.622.607 0 1.178.108 1.656.311h.159c3.174 0 6.116.528 8.545 1.533l11.921-6.918c.759-.441 1.749-.68 2.783-.68.911 0 1.771.188 2.422.542.831.47 1.28 1.121 1.28 1.844l-.001.962z"/><path fill="#00DFFC" d="M47.999 7.677c0 .181-.036.369-.101.564.051.145.08.282.087.427l.014 1.706c0 .571-.275 1.113-.788 1.561L2.021 28.389c.014-2.79.036-5.501 0-6.456-.079-3 2.046-5.993 5.834-8.213 2.523-1.482 5.61-2.523 8.95-3.015.68-.398 1.54-.622 2.429-.622.607 0 1.178.108 1.656.311h.159c3.174 0 6.116.528 8.545 1.533l11.921-6.918c.759-.441 1.749-.68 2.783-.68.911 0 1.771.188 2.422.542.831.47 1.28 1.121 1.28 1.844l-.001.962z"/><path fill="#031326" d="M49.25 6.712c0-1.171-.696-2.238-1.934-2.937-1.771-.958-4.648-.882-6.43.157l-10.934 6.343c-2.663-.972-6.118-1.422-8.867-1.143-1.434-.495-3.328-.342-4.691.373-1.055.165-2.076.4-3.075.667L9.7 6.551a.125.125 0 10-.177.177l3.523 3.523a25.042 25.042 0 00-5.013 1.973l-2.57-.888a.125.125 0 00-.159.077.125.125 0 00.077.159l2.344.811c-.165.091-.346.167-.506.261C3.028 15.1.679 18.499.774 21.97c.029 1.028.014 4.186 0 7.238-.015 3.168-.03 6.443 0 7.782.064 2.929 1.842 5.548 5.004 7.374 2.858 1.65 6.733 2.56 10.913 2.56a1.25 1.25 0 000-2.5c-3.748 0-7.179-.79-9.663-2.224-1.346-.778-2.344-1.719-2.977-2.753-.482-.815-.757-1.686-.78-2.593-.027-1.35-.012-4.539.002-7.635.01-2.106.02-4.244.016-5.736.53 1.617 1.826 3.07 3.775 4.196 2.172 1.254 4.997 2.026 8.169 2.234h.008a.125.125 0 00.009-.25c-3.135-.205-5.922-.967-8.061-2.201-2.493-1.44-3.877-3.418-3.915-5.578 0-.029.006-.057.006-.086-.001-.168.019-.336.035-.504.012-.13.013-.259.035-.389a5.55 5.55 0 01.228-.884L3.583 20c.664-1.888 2.366-3.714 4.901-5.2.699-.41 1.458-.773 2.246-1.11-.056.033-.105.069-.16.103-.114.063-.237.118-.349.184-5.638 3.303-6.19 8.303-1.218 11.169 4.95 2.866 13.54 2.515 19.179-.795 5.66-3.303 6.204-8.318 1.24-11.183-.988-.569-2.12-1.003-3.337-1.318.156.027.313.048.467.079.712.161 1.405.349 2.062.58.031.011.064.019.095.03.337.12.659.257.978.396.054.023.111.043.164.067l-.01.006c.031.006.082.029.119.041.307.141.6.297.888.456.068.038.143.07.21.109.297.171.577.351.843.538.039.028.074.057.112.085.225.163.442.329.643.503l.093.085c.2.178.391.359.565.546l.07.079a7.076 7.076 0 01.543.676c.127.179.239.363.343.548.027.048.056.095.081.144l.014.026a5.76 5.76 0 01.312.721l.01.029c.053.153.093.309.131.465.011.045.023.09.032.136l.047.559c.013.29.023.711.031 1.22-.315 2.365-2.202 4.732-5.311 6.554a.124.124 0 00-.044.171.123.123 0 00.107.062.123.123 0 00.063-.018c2.727-1.598 4.532-3.617 5.196-5.7.036 4.514-.043 13.014-.044 13.118a1.25 1.25 0 001.238 1.262h.012a1.25 1.25 0 001.25-1.238c.005-.496.106-11.555.017-15.023l6.645-3.866.165.004c.476.013.927.025 1.46-.015 2.505-.175 2.857-1.858 2.936-3.035a3.155 3.155 0 00.632-1.884l-.018-1.744a2.75 2.75 0 00-.042-.372c.04-.191.06-.383.06-.573v-.965zm-35.9 7.35l-1.687-.583c.435-.224.889-.431 1.362-.622.042-.013.085-.023.127-.036l1.602.96c-.246.118-.502.224-.732.359a7.123 7.123 0 00-1.569 1.219l-1.565-.313a.12.12 0 00-.147.098.125.125 0 00.098.147l1.426.285c-.604.708-.938 1.478-.936 2.248.003 1.13.712 2.161 1.995 2.901 1.297.749 3.027 1.116 4.833 1.116 2.175 0 4.461-.533 6.233-1.571 1.716-1.006 2.697-2.349 2.693-3.684-.004-1.13-.713-2.161-1.995-2.901-.779-.45-1.72-.749-2.735-.926l-.006-.075v-.077c-.025-.283-.199-.592-.476-.847-.061-.057-.135-.107-.204-.159a16.048 16.048 0 012.017-.018c1.834.268 3.504.793 4.835 1.557 1.974 1.141 3.062 2.712 3.067 4.425.005 2.049-1.529 4.123-4.211 5.69-5.169 3.037-13.07 3.371-17.612.746-1.978-1.143-3.069-2.718-3.074-4.434-.005-2.046 1.526-4.118 4.202-5.683.148-.087.313-.162.467-.245l1.909.66a.124.124 0 00.159-.077.124.124 0 00-.076-.16zm3.623 2.022a1.194 1.194 0 01-.004-.624c.104-.434.371-.701.569-.701.016 0 .032.002.047.005.067.016.125.063.173.141.108.177.133.466.063.754-.113.474-.414.75-.616.703-.099-.023-.184-.125-.232-.278zm-.057-4.128l-.669 1.142-.85-.85c.502-.105 1.002-.214 1.519-.292zm-1.815.349l.952.952c-.354.117-.699.244-1.032.391l-1.539-.923a26.067 26.067 0 011.619-.42zm.887 1.235l-.298.509-.415-.249c.231-.097.472-.176.713-.26zm-.425.726l-.405.692c-.134.3-.151.615-.056.93l-2.353-.471c.383-.38.847-.739 1.398-1.062.271-.159.568-.288.86-.423l.556.334zm-.329 1.903c.111.215.254.429.467.635.823.781 2.259 1.236 3.643 1.236.544 0 1.08-.07 1.568-.219 1.084-.344 1.722-1.017 1.706-1.806l-.244-3.008c.96.175 1.849.465 2.588.892 1.202.694 1.866 1.648 1.87 2.686.004 1.244-.933 2.507-2.569 3.467-3.174 1.861-8.026 2.066-10.815.455-1.202-.694-1.866-1.648-1.87-2.686-.003-.747.34-1.5.964-2.191l2.692.539zm18.462-.746c1.624-.932 12.486-7.166 12.751-7.463.128-.114.225-.235.303-.359v.073a.496.496 0 01-.03.149l-.037.124c-.036.038-.055.082-.096.119 0 0-.11.097-.14.119-.091.077-.316.218-.316.218l-12.32 7.15c-.037-.045-.078-.087-.115-.13zm11.851-2.61s-.793-.004-1.227-.014a.269.269 0 01.061-.529h1.215v-1.546L34.74 17.027c-.024-.054-.053-.107-.079-.16l10.935-6.346v-.85h-.4a.274.274 0 01-.274-.274c0-.148.127-.267.274-.267h.471c.105 0 .218.028.302.098a.53.53 0 01.175.414v.548c.28-.185.476-.398.598-.622l.003.293c-.15.195-.34.379-.601.539v1.229l-.003.092c-.008.216.003.525.003.525-.002.333-.097.567-.597.567z"/></svg>