<svg xmlns="http://www.w3.org/2000/svg" id="Layer_1" x="0" y="0" version="1.1" viewBox="0 0 50 50" xml:space="preserve"><style>.st2{fill:#444}</style><path fill="#fcc34f" d="M48.7 25c0 2.7-.4 5.4-1.4 7.9l-3.4 1.3-27.5 10-3.4 1.3c-5.5-3.3-9.7-8.9-11-15.4-.1-.4-.2-.6-.2-.8l2.5-1L43 14.2l2.5-1c.1.2.2.4.4.6 1.7 3.4 2.8 7.2 2.8 11.2z"/><path fill="#fdcf72" d="M45.9 13.9l-2.5 1L4.4 29l-2.5 1c0-.3-.1-.5-.1-.7-.2-1.4-.4-2.7-.4-4.2 0-7.4 3.4-14.1 8.8-18.4l14.5-5.3h.4c8.8 0 16.4 4.8 20.5 11.9 0 .2.1.4.3.6z"/><path d="M48.7 25c0 2.7-.4 5.4-1.4 7.9-.6 1.9-1.6 3.7-2.6 5.3-.4.6-1.3.7-1.8.3-.6-.4-.7-1.3-.3-1.8.5-.8 1.1-1.7 1.5-2.6 1.4-2.9 2.1-5.9 2.1-9.1 0-3.7-1-7.2-2.6-10.1-.1-.2-.2-.4-.4-.6C39.3 8.1 32.6 4 25 4 13.4 4 4 13.4 4 25c0 1.2.1 2.2.2 3.3 0 .2.1.5.1.7 1.3 6.8 5.9 12.4 12 15.1C19 45.3 21.9 46 25 46c.7 0 1.4.6 1.4 1.4 0 .7-.6 1.4-1.4 1.4-4.3 0-8.5-1.2-11.9-3.3C7.5 42.2 3.3 36.6 2 30.1c-.1-.4-.2-.6-.2-.8-.2-1.4-.4-2.7-.4-4.2 0-7.4 3.4-14.1 8.8-18.4 4-3.2 9-5.2 14.5-5.3h.4c8.8 0 16.4 4.8 20.5 11.9.1.2.2.4.4.6 1.6 3.3 2.7 7.1 2.7 11.1z" class="st2"/><path d="M30 28.9v-5.5c0-.6.1-.8.8-.8h4.8c.5 0 .7.2.7.7v11.4c0 .5-.2.7-.7.7h-4.9c-.5 0-.7-.2-.7-.7v-5.8zm-1.9 2v3.7c0 .5-.1.7-.7.7h-4.8c-.5 0-.7-.1-.7-.6v-7.6c0-.4.1-.6.6-.6h5c.4 0 .6.2.6.6v3.8zm-3.4-6.4c-.2 0-.3-.2-.4-.3-.6-.6-1.3-1.2-1.9-1.8-.4-.4-.6-.3-1.1 0-1.5 1.6-3.1 3.1-4.5 4.6-.6.7-.7.7-1.5 0-1.2-1.2-1.2-1.2 0-2.3 2-2 4-3.9 6-5.9.6-.6.6-.6 1.3 0 .5.5 1.2 1.1 1.7 1.6.3.3.6.3 1 0l2.2-2.2c.3-.4.6-.3 1 0 .4.5 1.2.8 1.2 1.4s-.7.8-1.2 1.3l-3.3 3.3c-.2.1-.3.3-.5.3zM17 29.3h2.4c.4 0 .6.2.6.6v4.8c0 .4-.2.6-.6.6h-5c-.4 0-.6-.1-.6-.6v-4.8c0-.4.2-.6.6-.6H17zm19.2-17.5c-.2 1.3-.5 2.5-.7 3.8-.1.3-.2.4-.5.1l-3.2-3.2c-.2-.2-.3-.4.1-.5l3.9-.6c.4 0 .4.2.4.4zm-4.6 2.4c.2 0 .3.2.4.3.3.3.6.7 1.1 1.1.4.3.2.6-.1 1-.3.3-.5.3-.8 0-.3-.4-.7-.7-1.1-1.1-.1-.1-.4-.3-.2-.5.1-.4.3-.7.7-.8zm-1.7 1.7c.2 0 .3.2.4.3.3.3.6.7 1.1 1.1.4.3.2.6-.1 1-.3.3-.5.3-.8 0-.3-.4-.7-.7-1.1-1.1-.1-.1-.4-.3-.2-.5.1-.4.3-.7.7-.8z" class="st2"/></svg>