<svg xmlns="http://www.w3.org/2000/svg" id="Layer_1" x="0" y="0" version="1.1" viewBox="0 0 50 50" xml:space="preserve"><style>.st0,.st3{fill:none;stroke:#444;stroke-linecap:round;stroke-linejoin:round;stroke-miterlimit:10}.st3{stroke-width:.5}</style><path fill="#fc9d9a" d="M33.8 2.5L8.9 2.1c-1.1 0-1.2 14.9-1.2 16l-.1 13.1.4 8.6.2 8.4 9.6.5 24.9-8.9V9.5l-.4.3c0-1.1-7.4-7.3-8.5-7.3z"/><path fill="none" stroke="#444" stroke-linecap="round" stroke-linejoin="round" stroke-miterlimit="10" stroke-width="2.5" d="M31.7 48.4H11.6c-1.9 0-3.5-1.6-3.5-3.5V5.2c0-1.9 1.6-3.5 3.5-3.5h22.6l8.1 7.7V41"/><path d="M42.8 9.9l-8.7.1-.1-8.9M8.2 14.7h34.2" class="st0"/><path d="M26.4 22.1h7.5m-7.5 3.7h9.4m-9.4 3.5H34M26.4 33h10m-10 3.9h6.3m-6.3 3.5h6.4" class="st3"/><path d="M23.6 21.9H13.5v18.6h9.7M23 25.6h-9.3m9.3 3.5h-9.3m9.3 3.8h-9.3m9.3 3.5h-9.3m5.2-14.5v18.5" class="st0"/><path d="M13.5 8.9h8.4m-8.4-2.7h8.4m-8.4 5.2h16.6" class="st3"/></svg>