<svg xmlns="http://www.w3.org/2000/svg" viewBox="0 0 50 50"><path fill="#e589ef" d="M42.5 3.3H9.3C6.5 3.3 4 5.8 4 8.7v33.1c0 1.6.7 3 1.8 4L48 30.5V8.7c0-3-2.5-5.4-5.5-5.4z"/><path fill="#444" d="M41.8 2.1H8.7c-3.6 0-6.6 3-6.6 6.6v33.1c0 3.6 3 6.6 6.6 6.6h16.6c.6 0 1.2-.5 1.2-1.2S26 46 25.3 46h-7V35.9h1.8l1.9-3h6.3l1.9 3h5.1l-2-3h8.8c.2 0 .3-.2.3-.3s-.2-.4-.3-.4H33v-14h13.1v12.2c0 .6.5 1.2 1.2 1.2s1.2-.5 1.2-1.2V8.6c-.1-3.6-3-6.5-6.7-6.5zm-13.7 23l4.2-6.6v12.9l-4.2-6.3zM4.5 18.2h13.1v14H4.5v-14zm13.8 13V18.5l4.1 6.4-4.1 6.3zm11.6-16.7l-1.8 3h-5.5l-1.8-3h-2.5V4.4h14v10.1h-2.4zm-2.2 3.7l-2.3 4-2.4-4h4.7zM8.7 4.4h8.9v10.1h-1.9l1.9 2.9v.1H4.5V8.6c0-2.3 1.9-4.2 4.2-4.2zM17.6 46H8.7c-2.3 0-4.2-1.9-4.2-4.2v-8.9h12.8l-1.9 3h2.3V46h-.1zm4.9-13.8l2.7-4.4 2.7 4.4h-5.4zM33 17.5v-.2l1.8-2.9H33v-10h8.9c2.3 0 4.2 1.9 4.2 4.2v8.9H33z"/></svg>