<svg xmlns="http://www.w3.org/2000/svg" viewBox="0 0 50 50"><path fill="#fc9d9a" d="M42.4 3.4H9.2c-2.9 0-5.4 2.5-5.4 5.4v33.1c0 1.6.7 3 1.8 4l42.2-15.3V8.8c0-3-2.4-5.4-5.4-5.4z"/><path fill="#444" d="M41.6 2.3H8.5c-3.6 0-6.6 3-6.6 6.6V42c0 3.6 3 6.6 6.6 6.6h16.6c.6 0 1.2-.5 1.2-1.2s-.5-1.2-1.2-1.2h-7V36.1h1.8l1.9-3h6.3l1.9 3h5.1l-2-3h8.8c.2 0 .3-.2.3-.3s-.2-.4-.3-.4h-9.1v-14h13.1v12.2c0 .6.5 1.2 1.2 1.2s1.2-.5 1.2-1.2V8.8c-.1-3.6-3-6.5-6.7-6.5zm-13.7 23l4.2-6.6v12.9l-4.2-6.3zM4.3 18.4h13.1v14H4.3v-14zm13.8 13V18.7l4.1 6.4-4.1 6.3zm11.6-16.7l-1.8 3h-5.5l-1.8-3h-2.5V4.6h14v10.1h-2.4zm-2.2 3.7l-2.3 4-2.4-4h4.7zM8.5 4.6h8.9v10.1h-1.9l1.9 2.9v.1H4.3V8.8c0-2.3 1.9-4.2 4.2-4.2zm8.9 41.6H8.5c-2.3 0-4.2-1.9-4.2-4.2v-8.9h12.8l-1.9 3h2.3v10.1h-.1zm4.9-13.8L25 28l2.7 4.4h-5.4zm10.5-14.7v-.2l1.8-2.9h-1.8v-10h8.9c2.3 0 4.2 1.9 4.2 4.2v8.9H32.8z"/></svg>