<svg xmlns="http://www.w3.org/2000/svg" version="1" viewBox="0 0 50 50"><path fill="#FCC34F" d="M44.566 25.039L9.055 37.965H7.253l-2.189-5.534.472-1.016H3.009l8.542-19.373h27.056z"/><path fill="#FDCF72" d="M38.875 12.624L6.024 24.582l5.527-12.54h27.056z"/><g fill="#031326"><path d="M34.935 16.288h1.698v.5h-1.698zm3.867.907l-.287-.747a.248.248 0 00-.233-.16h-.8v.5h.628l.226.586.466-.179zm4.278 12.511l.467-.18.593 1.542-.466.18zm-.887-2.316l.468-.18.593 1.542-.468.18zm-2.671-6.93l.467-.18.593 1.54-.467.18zm1.782 4.619l.467-.18.593 1.541-.467.18zm-.893-2.311l.467-.18.594 1.542-.467.18zm-1.779-4.621l.467-.18.594 1.541-.467.18zm4.255 17.543l.467.18.591-1.542-.467-.18zm1.083-3.674l.067.173h-.443v.5h.444l-.264.69.467.178.393-1.027a.254.254 0 000-.18l-.197-.514-.467.18zm-1.663 5.193l.466.18.287-.747-.467-.18zm-7.716-9.603l.494-.07.225 1.585-.494.07zm-.671-4.754l.493-.07.224 1.585-.494.07zm-.673-4.752l.494-.07.224 1.584-.494.07zm1.681 11.883l.494-.07.225 1.584-.494.07zm-1.345-9.507l.494-.07.224 1.584-.494.07zm.671 4.751l.494-.07.224 1.585-.494.07zm-6.526-10.249h.666v-.5h-.902a.25.25 0 00-.25.236l-.038.697.5.027.024-.46zm-.653 2.831l.086-1.598.5.027-.086 1.598zm2.119-3.332h1.601v.5h-1.601zm4.437 2.76l-.063-.449h.518v-.5h-.589l-.09-.635-.494.07.224 1.584zm-.607-2.339l.271-.038-.023-.168a.25.25 0 00-.248-.215h-1.43v.5h1.43v-.079zm2.556 17.29l-.007.001h-1.644v.5h1.294l-.234 1.262.492.092.246-1.354h.596v-.5h-.741zm-4.051.001h1.6v.5h-1.6zm-2.401 0h1.601v.5h-1.601zm10.104 0h1.454v.5h-1.454zm-2.182 0h1.454v.5H37.05zm4.362 0h1.454v.5h-1.454z"/><path d="M48.131 29.825l-8.726-19.036H10.732L1.089 32.664H3.81l2.59 6.55h28.225c.69 0 1.25-.56 1.25-1.25 0-.566-.384-1.026-.9-1.179l.069-.383h.001l.291-1.573-.492-.092-.283 1.528-.001.002-.085.447h-5.752l.021-.224h.001l.147-1.594h-.002l.073-.796h.003l.147-1.593h-.004l.007-.072-.002-.006.003-.009-.06-.754h.003l-.126-1.595h-.003l-.063-.798h.002l-.126-1.595h-.002l-.063-.797h.002l-.127-1.595h-.001l-.063-.798h.002l-.127-1.595h-.001l-.064-.797h.002l-.127-1.595h-.001l-.063-.797-.088-1.115a.249.249 0 00-.249-.23h-.481v.003H22.52a.25.25 0 00-.25.232l-.285 4.057h-4.311l-.164-.69a.25.25 0 00-.243-.192h-6.123a.249.249 0 00-.223.137l-4.198 8.258h-1.8l7.439-16.875h25.44l8.056 17.577a1.25 1.25 0 002.273-1.041zM8.1 36.714l-1.794-4.025h8.334l.743 4.025H8.1zm13.59 0h-5.778l-.76-4.025h6.169l.013.14.356 3.885zm.515 0l-.382-4.025h6.766l-.369 4.025h-6.015zm.546-17.853h4.79l1.053 13.302h-6.778l.935-13.302zm-1.436 13.301h-6.15l.942-4.054 1.155-4.956h.214l.002-.001h4.463l-.626 9.011zm-10.017-9.893h5.772l.091.382h-.101a.25.25 0 00-.244.193l-1.88 8.086-.287 1.233H6.355l.932-1.999h-.003l4.014-7.895z"/></g></svg>