<svg xmlns="http://www.w3.org/2000/svg" viewBox="0 0 50 50"><path fill="#c3ff68" d="M45.3 2.4l2 1.9L7.4 18.8l-.1-14 2.1-2.2 21.2.2z"/><path fill="#afe55d" d="M46.4 15.7l.7.3L6.3 30.6l-.6-3.8-1.3-7L46 4.1l-.2 5.6z"/><path fill="none" stroke="#031326" stroke-linecap="round" stroke-linejoin="round" stroke-miterlimit="10" stroke-width="2.5" d="M33.4 46.8H6.9V2.9h39.6v35.6"/><path fill="#031326" d="M9.2 19.9h3.6l1.8 2.7 1.8-2.7H20l-3.6 5.4 3.6 5.4h-3.6L14.6 28l-1.8 2.7H9.2l3.6-5.4-3.6-5.4zm0-6.7H2.5v24.2h24.2v-6.1h10.7v-2.7H26.7v-2.7h10.7v-2.7H26.7v-2.7h10.7v-2.7H26.7v-4.7H9.2z"/></svg>