<svg xmlns="http://www.w3.org/2000/svg" version="1" viewBox="0 0 50 50"><path fill="#FCC34F" d="M38.71 25.896V9.676a.84.84 0 00-.42-.728l-12.87-7.43a.844.844 0 00-.842 0L11.71 8.948a.842.842 0 00-.42.73v26.2l27.42-9.982z"/><path fill="#FDCF72" d="M33.7 6.297l-8.28-4.78a.844.844 0 00-.842 0L11.71 8.948c-.26.15-.42.43-.42.73v4.776L33.7 6.297z"/><path fill="#031326" d="M38.834 8.005L25.964.575a1.934 1.934 0 00-1.93 0l-12.868 7.43a1.936 1.936 0 00-.966 1.672v30.757c0 .688.37 1.328.965 1.67l12.87 7.43c.17.1.357.147.542.147.457 0 1.075-.305 1.075-.844V33.38l11.97-6.91v6.534a1.088 1.088 0 002.176 0V9.677a1.93 1.93 0 00-.964-1.672zm-26.457 2.568L23.75 17.14l-11.373 6.567V10.573zm25.246 13.133L26.25 17.14l11.373-6.567v13.133zM25 2.53l11.97 6.912L25 16.352l-11.97-6.91L25 2.532zM12.377 40.293v-13.82l11.97 6.91v13.823l-11.97-6.913zM25 32.252l-12.406-7.163 12.31-7.11a.2.2 0 01.19 0l12.31 7.11L25 32.25z"/></svg>