<svg xmlns="http://www.w3.org/2000/svg" viewBox="0 0 50 50"><path fill="#c3ff68" d="M47.38 20.39c-.16-.79-2.69-7.49-3.21-8.1l-3-3.51-.2.07-7.63-5.74-7.78-.67c-3.2 0-12.8-.71-21.26 11.53l-2.88 7.92.54 1.98 1.8 11.52c.11.36 4.74 6.98 5.05 7.18l5.62 2.97L46.64 33.8c.65-.37 1.69-8.64.74-13.41z"/><path fill="none" stroke="#444" stroke-linecap="round" stroke-linejoin="round" stroke-miterlimit="10" stroke-width="2.5" d="M27.64 48C15.01 49.55 3.51 40.57 1.96 27.94S9.38 3.82 22.01 2.26s24.13 7.42 25.68 20.05c.63 5.08-.46 9.99-2.79 14.13"/><g fill="none" stroke="#444" stroke-linecap="round" stroke-linejoin="round" stroke-miterlimit="10"><path d="M24.08 34.45c.07.17.31.26.56.26.25 0 .5-.09.56-.26l1.36-9.06c-.79.22-1.07.33-1.93.33-.85 0-1.14-.12-1.93-.33l1.38 9.06zm8.67-17.21c0-4.48-3.63-8.11-8.11-8.11-4.48 0-8.11 3.63-8.11 8.11s3.63 8.11 8.11 8.11c4.48 0 8.11-3.63 8.11-8.11z"/><path stroke-width=".5" d="M38.86 35.57c0 3.82-7.37 5.56-14.22 5.56-6.85 0-14.22-1.74-14.22-5.56 0-3.3 5.49-5.04 11.4-5.46l.44 2.89c-5.71.35-8.68 1.91-8.91 2.57.26.75 4.03 2.64 11.3 2.64 7.26 0 11.04-1.9 11.3-2.64-.23-.66-3.21-2.22-8.91-2.57l.43-2.89c5.9.42 11.39 2.16 11.39 5.46zM27.6 12.34s5.41 5.1.31 10.2"/></g></svg>