<svg xmlns="http://www.w3.org/2000/svg" viewBox="0 0 50 50"><path fill="#c05e80" d="M4.8 45.5L47 30.2V8.4c0-3-2.4-5.4-5.4-5.4H8.4C5.5 3 3 5.5 3 8.4v33.1c0 1.5.7 3 1.8 4z"/><path fill="#d7698d" d="M45.2 4.5C44.2 3.6 43 3 41.6 3H8.4C5.5 3 3 5.5 3 8.4v11.4L45.2 4.5z"/><path fill="#031326" d="M41.5 1.9H8.4c-3.6 0-6.6 3-6.6 6.6v33.1c0 3.6 3 6.6 6.6 6.6H25c.6 0 1.2-.5 1.2-1.2s-.5-1.2-1.2-1.2h-7V35.7h1.8l1.9-3H28l1.9 3H35l-2-3h8.8c.2 0 .3-.2.3-.3s-.2-.4-.3-.4h-9.1V18h13.1v12.2c0 .6.5 1.2 1.2 1.2s1.2-.5 1.2-1.2V8.4c-.1-3.6-3-6.5-6.7-6.5zm-13.7 23l4.2-6.6v12.9l-4.2-6.3zM4.2 18h13.1v14H4.2V18zM18 31V18.2l4.1 6.4L18 31zm11.6-16.7l-1.8 3h-5.5l-1.8-3H18V4.2h14v10.1h-2.4zM27.4 18l-2.3 4-2.4-4h4.7zM8.4 4.2h8.9v10.1h-1.9l1.9 2.9v.1H4.2V8.4c0-2.3 1.9-4.2 4.2-4.2zm8.9 41.6H8.4c-2.3 0-4.2-1.9-4.2-4.2v-8.9H17l-1.9 3h2.3v10.1h-.1zM22.2 32l2.7-4.4 2.7 4.4h-5.4zm10.5-14.8V17l1.8-2.9h-1.8v-10h8.9c2.3 0 4.2 1.9 4.2 4.2v8.9H32.7z"/></svg>