<svg xmlns="http://www.w3.org/2000/svg" id="Camada_3" x="0" y="0" version="1.1" viewBox="0 0 50 50" xml:space="preserve"><style>.st2,.st3,.st6{fill:none;stroke:#444;stroke-miterlimit:10}.st3{stroke-width:.5}.st6{stroke-linecap:round;stroke-linejoin:round}</style><path fill="#f56991" d="M26.74 4.56L6.17 3.81c-1.4 0-4.2 2.48-4.31 3.87L1.6 23.21l26.97-9.6-1.83-9.05z"/><path fill="#dc5e82" d="M1.6 23.21l.01 7.32c0 8.6-1.15 11.77 16.84 10.72 1.17-.07-.51 3.11.71 2.68l29.24-10.4V17.89c.41-6.77-7.25-5.28-16.19-5.56L1.6 23.21z"/><path d="M29.41 38.4H12.57c-.25 0-.45-.2-.45-.45V21.1c0-.25.2-.45.45-.45h16.84c.25 0 .45.2.45.45v16.84c0 .26-.2.46-.45.46zm-7.3 7.8c-1.24 0-1.68-2.08-1.68-3.31V38.4m0-17.75v-4.8c0-1.24 1-2.24 2.24-2.24h22.17c1.24 0 2.96 1.01 2.96 2.25" class="st2"/><path d="M47.53 21.61H29.86m17.94 7.76H29.86m17.21 7.8H33.75V13.62" class="st3"/><path fill="#444" d="M33.75 21.61h14.04v7.76H33.75z"/><path fill="none" stroke="#444" stroke-linecap="round" stroke-linejoin="round" stroke-miterlimit="10" stroke-width="2.5" d="M41.32 46.36H23.37c-4.54 0-3.74-5.1-3.74-5.1l-12.92-.05c-.7 0-1.4-.1-2.06-.33-1.26-.45-2.86-1.51-2.96-3.98-.2-5.06-.03-26.76-.03-26.76.01-.2-.01-.58-.01-.78-.01-1.19.41-5.6 5.46-5.6 7.38 0 15.28-.12 15.28-.12s5.6-.13 5.6 5.21l.01 3.78 1.85-.02h11.28c4.64 0 4.64 0 5.93 1.01 1.38 1.08 1.32 2.63 1.32 2.93v22.62"/><path d="M20.43 40.37H6.49c-2.21 0-4-1.79-4-4V8.57c0-2.21 1.79-4 4-4h16.63c2.21 0 4 1.79 4 4v5.05" class="st6"/><path fill="none" stroke="#444" stroke-linecap="round" stroke-linejoin="round" stroke-miterlimit="10" stroke-width=".5" d="M5.85 22.47h3.13m-3.13 3.58h6.14m-6.14 3.58h6.27m-6.27 3.58h6.27m-6.27 3.58h6.27m4.27-9.33l4.04 1.91.86-4.44"/><circle cx="20.43" cy="29.37" r="4.62" class="st6"/><circle cx="6.17" cy="13.87" r="1.44" class="st2"/><circle cx="12.69" cy="8.17" r="1.44" class="st2"/><circle cx="17.01" cy="16.45" r="1.44" class="st2"/><circle cx="20.82" cy="9.48" r="1.44" class="st2"/><path d="M7.28 12.96l4.23-3.98m1.97.21l2.65 6.49m1.67-.43l2.44-4.46" class="st3"/></svg>