<svg xmlns="http://www.w3.org/2000/svg" viewBox="0 0 50 50"><path fill="#dc5e82" d="M42.7 4H9.5C6.6 4 4.1 6.5 4.1 9.4v33.1c0 1.6.7 3 1.8 4l42.2-15.3V9.4c0-3-2.4-5.4-5.4-5.4z"/><path fill="#444" d="M41.9 2.8H8.8c-3.6 0-6.6 3-6.6 6.6v33.1c0 3.6 3 6.6 6.6 6.6h16.6c.6 0 1.2-.5 1.2-1.2s-.5-1.2-1.2-1.2h-7V36.6h1.8l1.9-3h6.3l1.9 3h5.1l-2-3h8.8c.2 0 .3-.2.3-.3s-.2-.4-.3-.4h-9.1v-14h13.1v12.2c0 .6.5 1.2 1.2 1.2s1.2-.5 1.2-1.2V9.3c-.1-3.6-3-6.5-6.7-6.5zm-13.7 23l4.2-6.6v12.9l-4.2-6.3zM4.6 18.9h13.1v14H4.6v-14zm13.8 13V19.2l4.1 6.4-4.1 6.3zM30 15.2l-1.8 3h-5.5l-1.8-3h-2.5V5.1h14v10.1H30zm-2.2 3.7l-2.3 4-2.4-4h4.7zM8.8 5.1h8.9v10.1h-1.9l1.9 2.9v.1H4.6V9.3c0-2.3 1.9-4.2 4.2-4.2zm8.9 41.6H8.8c-2.3 0-4.2-1.9-4.2-4.2v-8.9h12.8l-1.9 3h2.3v10.1h-.1zm4.9-13.8l2.7-4.4 2.7 4.4h-5.4zm10.5-14.7V18l1.8-2.9h-1.8v-10H42c2.3 0 4.2 1.9 4.2 4.2v8.9H33.1z"/></svg>