<svg xmlns="http://www.w3.org/2000/svg" version="1.0" viewBox="0 0 50 50"><path fill="#AFE55D" d="M4.813 45.541l42.156-15.343V8.45a5.418 5.418 0 00-5.418-5.418H8.45A5.418 5.418 0 003.032 8.45v33.1c0 1.586.694 3 1.781 3.991z"/><path fill="#C3FF68" d="M45.185 4.457a5.381 5.381 0 00-3.635-1.426H8.45a5.418 5.418 0 00-5.418 5.418V19.8L45.185 4.457z"/><path fill="#031326" d="M41.55 1.864H8.45A6.594 6.594 0 001.864 8.45v33.1a6.594 6.594 0 006.586 6.586h16.551a1.168 1.168 0 000-2.336h-6.973V35.695h1.837l1.858-3.022h6.233l1.858 3.022h5.179l-2.026-3.022h8.788a.35.35 0 000-.7h-9.082V18.028H45.8v12.168a1.168 1.168 0 002.336 0V8.45a6.593 6.593 0 00-6.586-6.586zM27.765 24.912l4.207-6.645v12.921l-4.207-6.276zM4.2 18.028h13.127v13.944H4.2V18.028zM18.028 31V18.308l4.076 6.356L18.028 31zm11.566-16.695l-1.775 3.022h-5.545l-1.81-3.022h-2.437V4.2h13.945v10.105h-2.378zm-2.187 3.723l-2.334 3.973-2.379-3.973h4.713zM8.45 4.2h8.877v10.105h-1.866l1.866 2.91v.112H4.2V8.45A4.254 4.254 0 018.45 4.2zm8.877 41.6H8.45a4.254 4.254 0 01-4.25-4.25v-8.877h12.752l-1.944 3.022h2.319V45.8zm4.827-13.828l2.685-4.368 2.685 4.368h-5.37zm10.519-14.645v-.167l1.808-2.855h-1.808V4.2h8.877a4.254 4.254 0 014.25 4.25v8.877H32.673z"/></svg>