<svg xmlns="http://www.w3.org/2000/svg" id="Camada_3" x="0" y="0" version="1.1" viewBox="0 0 50 50" xml:space="preserve"><style>.st1{stroke-width:.5}.st1,.st2{fill:none;stroke:#444;stroke-linecap:round;stroke-linejoin:round;stroke-miterlimit:10}</style><path fill="#46b8b0" d="M47.71 23.85c-.66-4.74-9.1-6.74-9.6-7.32l-.96-10.68-4.08-1.56-8.22-.18-13.32.24c-3.04 0-3.24-.48-6.42.42l-3.3 6.18 8.7.66-.36 2.88c.1.34 0 27.53.3 27.72l4.87 4.35 30.57-11.15c.62-.36 2.46-6.98 1.82-11.56z"/><circle cx="21.14" cy="14.05" r="2.91" class="st1"/><circle cx="37.26" cy="27.9" r="8" class="st2"/><path fill="none" stroke="#444" stroke-linecap="round" stroke-linejoin="round" stroke-miterlimit="10" stroke-width="2.5" d="M37.87 41.31v-2.94h0c5.87 0 10.62-4.76 10.62-10.62s-4.76-10.62-10.62-10.62h0V9.44c0-2.88-2.33-5.21-5.21-5.21H8.6c-3.92 0-7.09 3.17-7.09 7.09h7.82l1.27.01v29.39c0 2.88 2.33 5.21 5.21 5.21h12.34"/><path d="M11.37 43.26V8.84s.12-4.36-3.76-4.36" class="st2"/><path d="M45.27 27.88l-8.01.02-5.5 5.52" class="st1"/><path d="M43.31 33.13l-6.05-5.23 2.05-7.65M16.29 31.02v8.85h12.85M16.29 23.38s.12-6.42 4.85-6.42 4.85 6.42 4.85 6.42h-9.7zm10.95-11.57h6.36m-6.36 3.31h6.36m-6.36 3.41h4.36m-12.91 2.19v2.36m4.64-2.36v2.27m-4.19 13v2.36m2.55-4.27v4.27m2.64-3.5v3.5m2.54-6.09v6.09" class="st1"/><path d="M37.11 7.47V19.9m0 16v4.82" class="st2"/></svg>