<?xml version="1.0" encoding="utf-8"?>
<!-- Generator: Adobe Illustrator 28.0.0, SVG Export Plug-In . SVG Version: 6.00 Build 0)  -->
<svg version="1.1" id="Camada_1" xmlns="http://www.w3.org/2000/svg" xmlns:xlink="http://www.w3.org/1999/xlink" x="0px" y="0px"
	 viewBox="0 0 50 50" style="enable-background:new 0 0 50 50;" xml:space="preserve">
<style type="text/css">
	.st0{fill:#031326;}
	.st1{fill:#DC5E82;}
	.st2{fill:none;stroke:#444444;stroke-width:2.5;stroke-linecap:round;stroke-linejoin:round;stroke-miterlimit:10;}
	.st3{fill:#444444;}
	.st4{fill:none;stroke:#444444;stroke-miterlimit:10;}
</style>
<path class="st0" d="M0,0"/>
<g>
	<path class="st1" d="M48.1,17.4l0.5-11l-1.9-3.8L31.3,3c-3.2,0-27.8-3-27.8,0.2L1.8,23.9L3,47.4l13.6,0.6l31-11
		C48.3,36.6,49.1,19.4,48.1,17.4z"/>
	<path class="st2" d="M33.2,48h-27c-1.9,0-3.4-1.6-3.4-3.5V5.6C2.8,3.6,4.3,2,6.2,2h39c1.9,0,3.4,1.6,3.4,3.5V38"/>
	<path class="st3" d="M14.2,44.1H8.3c-0.8,0-1.4-0.6-1.4-1.4v-5.9c0-0.8,0.6-1.4,1.4-1.4h5.9c0.8,0,1.4,0.6,1.4,1.4v5.9
		C15.6,43.4,15,44.1,14.2,44.1z"/>
	<path class="st4" d="M43.8,15.3l-1.8-3.1c-0.2-0.3-0.5-0.4-0.8-0.2l-7.2,4.2c-0.4,0.2-0.8-0.1-0.8-0.5v-8c0-0.3-0.2-0.6-0.6-0.6
		h-3.6c-0.3,0-0.6,0.2-0.6,0.6v8c0,0.4-0.5,0.7-0.8,0.5L20.5,12c-0.3-0.2-0.6-0.1-0.8,0.2l-1.8,3.1c-0.2,0.3-0.1,0.6,0.2,0.8
		l8.5,4.9c0.3,0.2,0.4,0.6,0.2,0.8l-5.9,7.3c-0.2,0.2-0.2,0.6,0.1,0.8l2.8,2.2c0.2,0.2,0.6,0.2,0.8-0.1l5.9-7.3
		c0.2-0.3,0.6-0.3,0.9,0l5.9,7.3c0.2,0.2,0.5,0.3,0.8,0.1l2.8-2.2c0.2-0.2,0.3-0.5,0.1-0.8L35,21.7c-0.2-0.3-0.1-0.7,0.2-0.8
		l8.5-4.9C43.9,15.9,44,15.5,43.8,15.3z"/>
</g>
</svg>
