<svg xmlns="http://www.w3.org/2000/svg" version="1" viewBox="0 0 50 50"><path fill="#71BAC0" d="M44.072 31.026v-18.34a4.317 4.317 0 00-4.317-4.317h-29.51a4.317 4.317 0 00-4.317 4.317v29.698c0 .841.251 1.619.666 2.283l37.478-13.641z"/><path fill="#7ED0D6" d="M44.06 12.567a4.31 4.31 0 00-4.305-4.198h-29.51a4.317 4.317 0 00-4.317 4.317v13.76L44.06 12.567z"/><path fill="#031326" d="M39.756 7.29h-8.485v-.631a4.443 4.443 0 00-4.438-4.438h-3.665a4.443 4.443 0 00-4.438 4.438v.631h-8.485a5.403 5.403 0 00-5.396 5.396v29.698a5.403 5.403 0 005.396 5.396h21.858c.348 0 .644-.176.841-.432h.161v-.268c.045-.119.077-.245.077-.38s-.032-.261-.077-.38V33.993h3.458c.541 0 1.001-.405 1.068-.939l.561-4.347a1.079 1.079 0 00-1.069-1.213h-4.018v-2.066h6.649a4.935 4.935 0 003.238-1.21v6.8a1.079 1.079 0 102.158 0V12.685a5.4 5.4 0 00-5.394-5.395zm-18.868-.631a2.283 2.283 0 012.28-2.28h3.665a2.283 2.283 0 012.28 2.28v.631h-8.225v-.631zM7.007 42.384V24.217a4.939 4.939 0 003.24 1.211h16.19v2.066H23.02c-.594 0-1.077.483-1.077 1.077v4.346c0 .594.483 1.077 1.077 1.077h3.417v11.628H10.244a3.242 3.242 0 01-3.237-3.238zm29.869-13.595l-.505 3.909h-4.56v12.923h-4.079V32.698h-4.494v-3.909h4.494v-4.486c0-3.902 2.26-6.232 6.046-6.232 1.55 0 2.814.093 3.368.141v3.424l-2.108.001c-2.861 0-3.227 1.7-3.227 3.181v3.97h5.065zm2.879-4.656h-6.602c.124-.819.56-1.201 1.885-1.201l2.323-.001c.595 0 1.08-.485 1.08-1.081v-3.833c0-.56-.419-1.023-.974-1.076a40.411 40.411 0 00-3.689-.165c-4.472 0-7.265 2.816-7.334 7.357H10.247c-1.412 0-2.626-.811-3.24-1.983v-9.464a3.24 3.24 0 013.237-3.237h29.511a3.24 3.24 0 013.237 3.237v9.467a3.655 3.655 0 01-3.237 1.98z"/></svg>