<svg xmlns="http://www.w3.org/2000/svg" viewBox="0 0 50 50"><path fill="#fdcf72" d="M34.6 2.5L20.1 2c-.3 0-1 .1-2.5.3-5.2.5-6.7 9.4-8.8 12.1-1.9 2.4-4.7-1.7-4.7 3l-.3 5.5 35.9-12.6L36.9 5l.1-.1c-.1-1.3-1.1-2.4-2.4-2.4z"/><path fill="#fcc34f" d="M4.6 22l-1 19v4.9l43.1-15.3V15.7l-5.3-1.5-1.9-4.5z"/><path fill="none" stroke="#444" stroke-linecap="round" stroke-linejoin="round" stroke-miterlimit="10" stroke-width="2.5" d="M46.3 41.7l.2-26.4h-5.4C41 6.7 36 1.7 25.6 1.7c-9.4 0-16.1 5-16.3 13.4H3.8L4 41.6c-1.2 0-2 1.3-1.4 2.4l2.7 4.7h30.3"/><path fill="none" stroke="#444" stroke-linecap="round" stroke-linejoin="round" stroke-miterlimit="10" d="M4.1 42.4l42.3.1M8.9 26h13.4v8.9H8.9zm19.2 0h13.4v8.9H28.1z"/><path fill="none" stroke="#444" stroke-linecap="round" stroke-linejoin="round" stroke-miterlimit="10" stroke-width=".5" d="M14 28.2v4.4l3.8-2.2zM30 33h9.7v-4.9h-2.8v1.3H34v1.3h-4zm-.7-15.9l-8.4 4c-2.5 1.2-5.5.1-6.6-2.4l-.4-.9c-1.2-2.5-.1-5.5 2.4-6.6l8.4-4c2.5-1.2 5.5-.1 6.6 2.4l.4.9c1.2 2.5.1 5.4-2.4 6.6zm-4.6-9.7s-1.1 7.7 4.9 9.4m-8.2 4.1s1.8 2.7 3.8 1.7.9-3.7.9-3.7m4.5-12.3l1-1.5m.5 2.8l1.2-1.1m-.1 2.7l1.5-.5m-1.1 2.6l1.8-.2"/><path fill="#444" d="M46.5 16.6H30.1l.9-1.1h15.5zM4.8 15.5h8.5v1.1H4.8z"/></svg>