<svg xmlns="http://www.w3.org/2000/svg" version="1" viewBox="0 0 50 50"><path fill="#AFE55D" d="M19.232 40.141c2.609.297 5.124.055 7.455-.619l20.733-7.547a1.638 1.638 0 00-.93-.994l-7.338-3.054a18.957 18.957 0 001.036-8.744c-.992-8.717-8.091-15.703-16.822-16.566-11.935-1.18-21.882 8.767-20.701 20.701.864 8.731 7.849 15.83 16.567 16.823z"/><path fill="#C3FF68" d="M32.608 6.222c-2.657-1.967-5.831-3.265-9.266-3.605C13.61 1.654 5.201 8.092 3.069 16.973L32.608 6.222z"/><path fill="#031326" d="M48.551 31.572a2.825 2.825 0 00-1.605-1.687l-6.315-2.628a20.081 20.081 0 00.737-8.208C40.31 9.763 32.788 2.356 23.483 1.435 17.437.839 11.524 2.942 7.257 7.21S.885 17.391 1.483 23.435c.921 9.306 8.329 16.827 17.615 17.886 2.809.318 5.565.071 8.208-.738l2.628 6.316a2.86 2.86 0 002.651 1.768h.032a2.858 2.858 0 002.644-1.828l3.453-8.847a1.187 1.187 0 10-2.211-.863l-3.453 8.846a.474.474 0 01-.459.317.493.493 0 01-.464-.306l-9.03-21.77a.873.873 0 01.192-.97.873.873 0 01.97-.192l21.775 9.024c.14.058.231.15.276.281a1.188 1.188 0 002.241-.787zm-29.185 7.389c-8.182-.932-14.709-7.561-15.52-15.76-.528-5.333 1.327-10.549 5.09-14.312 3.764-3.763 8.98-5.622 14.313-5.09 8.2.811 14.828 7.338 15.76 15.519a17.693 17.693 0 01-.89 7.961l-5.7-2.373c.362-1.131.551-2.311.551-3.51 0-6.36-5.174-11.534-11.534-11.534-6.355 0-11.525 5.174-11.525 11.534 0 6.359 5.17 11.533 11.525 11.533a11.3 11.3 0 003.512-.558l2.373 5.7a17.682 17.682 0 01-7.955.89zm2.915-16.723a2.275 2.275 0 00-.5 2.525l2.801 6.728c-1.008.32-2.064.489-3.145.489-5.832 0-10.576-4.748-10.576-10.584 0-5.836 4.744-10.584 10.576-10.584 5.836 0 10.584 4.748 10.584 10.584 0 1.074-.167 2.129-.482 3.143l-6.732-2.802a2.28 2.28 0 00-2.526.501z"/></svg>