<svg xmlns="http://www.w3.org/2000/svg" id="Camada_3" x="0" y="0" version="1.1" viewBox="0 0 50 50" xml:space="preserve"><style>.st2{fill:none;stroke:#444;stroke-linecap:round;stroke-linejoin:round;stroke-miterlimit:10}</style><path fill="#00dffc" d="M27.94 5.37L17.5 3.57c-3.2 0-8.11.5-15 10.44l-.87 8.7L34.3 11.37l-6.36-6z"/><path fill="#00c8e2" d="M1.5 22.8l4.12 11.61c.11.36 13.01 5.44 13.32 5.64l10.08-2.16c-.09 1.59-.24 1.69-.84 3.82l19.44-7.44c.65-.37-.13-4.09-1.08-8.86-.13-.63-5.29-2.1-7.71-2.99-.73-.27-.62-4.06-.81-4.81l-3.12-6.48L1.5 22.8z"/><path d="M31.84 43.89l-1.12-.77c-1-.33-1.49-1.46-1.05-2.43l1.96-4.24-2.13-.69a.493.493 0 01-.21-.8l1.74-1.88-10.19-3.31c-3.18-1.03-6.6.73-7.65 3.93-.18.55-.75.93-1.32.85-.78-.11-1.23-.88-1-1.6l1.89-5.81 3.67-11.3 1.89-5.81c.23-.72 1.06-1.08 1.75-.71.51.28.75.91.57 1.47-1.04 3.21.7 6.64 3.88 7.68l17.79 5.9c.98.32 3.81 1.49 4.36 2.36 1.02 1.6 1.26 3.58.67 5.4a6.394 6.394 0 01-3.72 3.97c-.96.38-2.04.51-3.02.2l-.33.18" class="st2"/><path fill="none" stroke="#444" stroke-linecap="round" stroke-miterlimit="10" stroke-width="2.5" d="M37.64 21.86c0-10-8.11-18.33-18.11-18.33S1.42 11.63 1.42 21.64s8.11 18.11 18.11 18.11c3.89 0 7.74-.91 10.69-2.99"/><path fill="none" stroke="#444" stroke-miterlimit="10" d="M30 20.21c-.38-2.77-1.83-5.2-3.92-6.86a10.52 10.52 0 00-5.4-2.21m-5.92 19.93c1.43.73 3.05 1.13 4.77 1.13 1.75 0 3.41-.43 4.86-1.18m-6.4-19.84c-5.1.75-9.02 5.14-9.02 10.45 0 2.92 1.18 5.56 3.09 7.47"/><path fill="none" stroke="#444" stroke-miterlimit="10" stroke-width="2.5" d="M37.64 22.84l-.02-1.77"/><path fill="none" stroke="#444" stroke-linecap="round" stroke-linejoin="round" stroke-miterlimit="10" stroke-width="2.5" d="M37.88 39.94l2.6-2.92c1.6.85 3.55.7 5-.39l.94-.71c1.9-1.77 2.29-5.06 1.9-7.21a9.274 9.274 0 00-5.54-5.1l-5.14-1.75m-7.32 15.09l-1.41 3.61a2.36 2.36 0 001.28 3.03l1.56.65"/><path d="M31.03 33.08l2.18.73-1.58 2.65" class="st2"/><path fill="none" stroke="#444" stroke-miterlimit="10" stroke-width=".5" d="M21.25 29.5l3.74-10.93m4.2 1.4l-3.55 11.21"/><path fill="none" stroke="#444" stroke-linecap="round" stroke-linejoin="round" stroke-miterlimit="10" stroke-width=".5" d="M11.3 25.52l-5.64 1.39m7.17-6.6l-7.57-3.04m9.1-1.13l-2.02-6.42"/></svg>