<svg xmlns="http://www.w3.org/2000/svg" version="1" viewBox="0 0 50 50"><path fill="#71BAC0" d="M15.214 43.388a20.665 20.665 0 004.813 1.831l21.765-7.922c5.507-7.505 5.373-17.858-.443-25.199l-1.051-9.226a.773.773 0 00-1.313-.46L34.788 6.61c-7.875-4.197-17.878-2.982-24.52 3.661C2.722 17.817 2.175 29.725 8.653 37.9l1.051 9.226a.77.77 0 001.313.459l4.197-4.197z"/><path fill="#7ED0D6" d="M40.649 5.535l-.303-2.662a.773.773 0 00-1.313-.46L34.835 6.61c-7.874-4.197-17.877-2.982-24.52 3.661a20.735 20.735 0 00-5.032 8.136L40.649 5.535z"/><path fill="#031326" d="M42.552 11.607L41.54 2.724a2.013 2.013 0 00-1.349-1.676 2.008 2.008 0 00-2.09.481l-3.557 3.556c-8.458-4.071-18.461-2.397-25.16 4.302-7.84 7.841-8.645 20.247-1.933 29.004l1.012 8.881a2.016 2.016 0 001.346 1.68 2.01 2.01 0 002.092-.483l3.557-3.558a22.037 22.037 0 0010.216 2.155 1.248 1.248 0 001.211-1.286c-.021-.69-.597-1.259-1.287-1.212a19.597 19.597 0 01-9.797-2.284l-.817-.436L10.834 46l-.886-7.781-.332-4.588a.342.342 0 01.389-.385l3.89.442h.002l8.229.936c.2.024.272.173.294.235a.342.342 0 01-.083.362l-2.881 2.882.544.205a14.252 14.252 0 0015.062-3.255c4.787-4.788 5.487-12.346 1.787-17.917l3.077.35a1.094 1.094 0 00.9-.315c.238-.238.354-.566.318-.886l-.181-2.593c4.845 6.815 4.831 16.076-.162 22.879a1.25 1.25 0 102.016 1.478c5.787-7.883 5.661-18.703-.265-26.442zM34.53 34.521A13.493 13.493 0 0120.818 37.8l2.048-2.049c.3-.3.4-.736.261-1.139a1.098 1.098 0 00-.916-.734l-8.071-.918c-3.914-5.312-3.351-12.804 1.337-17.492a13.509 13.509 0 0113.718-3.284l-2.049 2.048a1.1 1.1 0 00.655 1.873l8.07.918c3.911 5.319 3.346 12.813-1.341 17.498zm5.766-17.881a.335.335 0 01-.286.101l-3.73-.424-8.391-.954a.349.349 0 01-.296-.235.34.34 0 01.086-.363l2.881-2.881-.545-.205a14.26 14.26 0 00-15.067 3.261c-4.789 4.789-5.487 12.345-1.783 17.911l-3.073-.349a1.077 1.077 0 00-.908.312c-.239.239-.353.57-.313.891l.19 2.622C3.543 28.6 4.359 17.951 11.153 11.156 17.288 5.019 26.549 3.635 34.2 7.713l.817.436 4.151-4.151.945 8.292.284 4.062a.353.353 0 01-.101.288z"/></svg>