<svg xmlns="http://www.w3.org/2000/svg" id="Camada_1" x="0" y="0" version="1.1" viewBox="0 0 50 50" xml:space="preserve"><style>.st3{fill:#444}</style><path fill="#fcc34f" d="M47.7 11.6l.8 5.2L2.4 33.6l-.5-10.9-.1-6.2L42.1 1.9l5.2 2.3z"/><path fill="#fdcf72" d="M46.1 2l2.3 3.2L1.5 21.9 2.6 4.8l3-2.9 29.1-.2z"/><path fill="none" stroke="#444" stroke-linecap="round" stroke-linejoin="round" stroke-miterlimit="10" stroke-width="2.5" d="M18.1 48.3H5.5c-1.9 0-3.4-1.6-3.4-3.5v-39c0-2 1.5-3.5 3.4-3.5h39c1.9 0 3.4 1.6 3.4 3.5v24.6"/><circle cx="8.2" cy="8.2" r="1.4" class="st3"/><circle cx="12.1" cy="8.2" r="1.4" class="st3"/><circle cx="15.9" cy="8.2" r="1.4" class="st3"/><path d="M11.4 42.8H9.5c-1.2 0-2.1-.9-2.1-2.1V18.3c0-1.2.9-2.1 2.1-2.1h1.9c1.2 0 2.1.9 2.1 2.1v22.3c0 1.2-1 2.2-2.1 2.2zm9.7-8.1h-1.9c-1.2 0-2.1-.9-2.1-2.1V18.3c0-1.2.9-2.1 2.1-2.1h1.9c1.2 0 2.1.9 2.1 2.1v14.3c0 1.1-1 2.1-2.1 2.1zm9.7-6.7h-1.9c-1.2 0-2.1-.9-2.1-2.1v-7.6c0-1.2.9-2.1 2.1-2.1h1.9c1.2 0 2.1.9 2.1 2.1v7.6c0 1.2-1 2.1-2.1 2.1zm9.7 11.6h-1.9c-1.2 0-2.1-.9-2.1-2.1V18.3c0-1.2.9-2.1 2.1-2.1h1.9c1.2 0 2.1.9 2.1 2.1v19.2c0 1.2-1 2.1-2.1 2.1z" class="st3"/></svg>