<svg xmlns="http://www.w3.org/2000/svg" id="Layer_1" x="0" y="0" version="1.1" viewBox="0 0 50 50" xml:space="preserve"><style>.st2{fill:#454545}</style><g id="Layer_1_00000103238422482046001780000004962745393559633058_"><path fill="#e56060" d="M38.8 6.6c-3.9-1.3-8.4-.4-11.4 2.3-.8.7-1.5 1.4-2.6 1.4-1 0-1.7-.6-2.4-1.2-1.4-1.3-7-3.4-8.8-3.8L5.9 7.9c-2.1 3-4.8 10.8-3.6 14.3.4 1.2 6.1 7.3 6.8 8.3l39-14.2c-1.9-9.1-7.1-9-9.3-9.7z"/><path fill="#ff6b6b" d="M34.3 6.5c-2.1.2-4.1.9-5.8 2.1l5.8-2.1zm-11.8 3C21 8.1 19.1 7.1 17 6.7c-4-.9-8.3.6-11.1 3.7-1.9 2-3.6 4.7-3.7 7.5l21.5-7.5-1.2-.9z"/><path d="M30.1 21.1c-1.9 0-3.4-1.4-4.1-2.4-.2-.3-.5-.5-.6-.5-.2 0-.5.3-.5.5-.3.7-.7 1.3-1.3 1.5-.6.1-1.1.1-1.6-.2-.5-.2-.7-.8-.6-1.3l.4-1.4c.2-.8.8-1.4 1.5-1.7l1.5-.7c.7-.3 1.4-.2 2-.1l4.2 1 1.8 4.2-.3.2c-.8.7-1.7.9-2.4.9zm-4.8-3.9c.5 0 1 .3 1.4.9.1.1 2.1 3.1 4.9 1.6l-1.2-2.9-3.7-.9c-.6-.1-1-.2-1.4 0l-1.5.7c-.4.2-.8.6-.9 1l-.5 1.4c0 .1 0 .1.1.1.2.1.5.1.6.1.3-.1.5-.4.7-.9.1-.1.5-1 1.5-1.1z" class="st2"/><path d="M30.6 23.2l-3.2-3.9 1.6.6c.1 0 1.7.7 2.9-.4l.5-.4 1.3 3.1-3.1 1zm-.6-2.1l.7 1 1.7-.6-.4-.9c-.7.5-1.4.6-2 .5zm-16.9 3.3L10 23.2v-12l7.7 2.1-4.6 11.1zM11 22.5l1.5.6 3.8-9.2-5.3-1.4v10z" class="st2"/><path d="M17.3 22.5l-3.4-1.3.4-.9 2.4.9L19 16l-2.5-1.1.3-.9 3.5 1.4zm20 2.6L32.7 14l7.6-2.8v12.7l-3 1.2zM34 14.6l3.8 9.2 1.5-.6V12.6l-5.3 2z" class="st2"/><path d="M33.1 23.2l-3-7.1 3.4-1.5.4 1-2.5 1 2.2 5.2 2.2-.9.4.9zm-4.9-2.7l.9-.4 2.3 2.8c.3.4.4.8.2 1.2-.2.5-.6.8-1 .9-.2.1-.3.1-.4.1-.4 0-.8-.2-1-.4l-3.1-3.3.7-.7 3.1 3.3c.2.2.4.1.5.1s.3-.2.3-.5" class="st2"/><path d="M28.6 26.2c-.3.4-1-.2-1.3-.6l-2.6-2.7.7-.7 2.6 2.7c.2.2.5.3.8.2.3-.1.5-.3.6-.6l1 .2c-.2.7-.7 1.1-1.4 1.3-.2.1-.3.1-.4.2z" class="st2"/><path d="M27 27.2h-.1c-.5 0-.9-.3-1.3-.6l-2.2-2.4.7-.7 2.2 2.4c.2.2.4.3.6.3.3 0 .6-.2.9-.6l.9.5c-.6.9-1.2 1.1-1.7 1.1zm-3.2-10.8c-1.8-.4-4.1-.2-4.2-.2l-.1-1c.1 0 2.5-.2 4.5.3l-.2.9z" class="st2"/><path d="M25.3 27.7c-.4 0-.7-.1-1-.4l-1-1c-3.2-3.1-6.1-5.2-6.2-5.2l.6-.8s3.1 2.1 6.3 5.3l1 1c.2.2.4.1.4.1.1 0 .2-.1.2-.3l1 .1c-.1.5-.4.9-.9 1.1-.1.1-.2.1-.4.1z" class="st2"/><path d="M19.5 24c-.3 0-.6-.1-.8-.3-.2-.2-.4-.5-.4-.8s.1-.6.3-.9l.3-.3.7.7-.3.3v.1s0 .1.1.1c.1.1.3.1.4 0l.3-.3.7.7-.3.3c-.4.3-.7.4-1 .4z" class="st2"/><path d="M20.4 25.5c-.3 0-.6-.1-.9-.3-.3-.2-.4-.6-.5-.9 0-.4.1-.7.3-1l.5-.6.8.7-.4.6c-.1.1-.1.2-.1.3 0 .1 0 .2.1.2.1.1.4.1.5 0l.6-.6.7.7-.6.6c-.2.2-.6.3-1 .3z" class="st2"/><path d="M21.9 26.5c-.3 0-.7-.1-.9-.4-.5-.5-.6-1.3-.1-1.9l.4-.4.7.7-.4.4c-.1.1-.1.4 0 .5s.4.1.5 0l.4-.4.7.7-.3.3c-.3.3-.6.5-1 .5z" class="st2"/><path d="M23.3 27.3c-.3 0-.6-.1-.9-.4-.5-.5-.5-1.3 0-1.8l.1-.2.7.7-.1.2c-.1.1-.1.3 0 .4s.3.1.4 0l.2-.2.7.7-.2.2c-.2.3-.6.4-.9.4zm10.1 20c-5.2 0-9.3-4.2-9.3-9.3s4.2-9.3 9.3-9.3c5.2 0 9.3 4.2 9.3 9.3s-4.2 9.3-9.3 9.3zm0-17.4c-4.4 0-8 3.6-8 8s3.6 8 8 8 8-3.6 8-8-3.6-8-8-8z" class="st2"/><path d="M33.4 43.6c-3.1 0-5.7-2.5-5.7-5.7 0-.4.3-.7.7-.7h10c.4 0 .7.3.7.7 0 3.2-2.6 5.7-5.7 5.7zm-4.2-5c.3 2.1 2.1 3.7 4.3 3.7s3.9-1.6 4.3-3.7h-8.6z" class="st2"/><circle cx="37.1" cy="34.6" r="1" class="st2"/><circle cx="29.8" cy="34.6" r="1" class="st2"/><path d="M43.9 29.5c2.8-2.8 4.9-5.7 5.4-9.7.5-4.4-1.1-8.9-4.3-12-3.3-3.1-8-4.5-12.5-3.6-2.2.4-3.8 1.1-5.5 2.4-1.2.9-1.3 1.3-1.8 1.5s-.7-.2-1.1-.5c-.9-.8-1.8-1.5-2.9-2-8.4-4.4-19 .8-20.6 10.2-.7 4.5.7 9.1 3.9 12.4l3.2 3.2 11.4 11.4c1.1 1.1 2.9-.6 1.8-1.8l-8.7-8.7-5-5c-1.6-1.6-3.1-3.3-3.8-5.5-1.3-3.9-.5-8.4 2.3-11.4C8.7 7.3 13 5.8 17 6.7c2 .4 3.9 1.4 5.5 2.8.7.7 1.4 1.2 2.4 1.2 1.1 0 1.8-.7 2.6-1.4C30.6 6.6 35.1 5.7 39 7c4.5 1.5 7.7 5.7 7.9 10.4.1 2.3-.4 4.6-1.6 6.6-.8 1.4-2 2.5-3.2 3.7-1.1 1.2.7 2.9 1.8 1.8z" class="st2"/></g></svg>