<svg xmlns="http://www.w3.org/2000/svg" id="Layer_1" x="0" y="0" version="1.1" viewBox="0 0 50 50" xml:space="preserve"><style>.st2{fill:none;stroke:#444;stroke-miterlimit:10}</style><path fill="#00dffc" d="M38.1 2.4l-22.5.2c-1.4 0-7.7 6-7.7 7.4v11.4l-.4 8.3-.2 5.9c.4.5.3 11.6 1 11.6l5.4.1L41 37.6c.3-2.7-.2-6.4.2-9.5l-.7-6.2.3-10.5-.9-4.1c0-1.3-.4-4.9-1.8-4.9z"/><path fill="none" stroke="#444" stroke-linecap="round" stroke-linejoin="round" stroke-miterlimit="10" stroke-width="2.5" d="M30 48.1H9.9c-1.1 0-2-.9-2-2V10l8.4-7.4h22.2c1.1 0 2 .9 2 2v36.7"/><path d="M7.5 9.9h7.4c.7 0 1.3-.6 1.3-1.3v-6" class="st2"/><circle cx="29.4" cy="28.1" r="5" class="st2"/><path d="M24.2 12.9l-5.2-.1c-2.8 0-5 2.3-5 5s2.3 5 5 5h5.3s-.2-10.2-.1-9.9" class="st2"/><path d="M24.1 22.8H19c-2.8 0-5 2.3-5 5s2.3 5 5 5h5.1s.2-10.1.2-10" class="st2"/><path d="M24.1 33h-4.9c-2.6 0-5 1.9-5.2 4.5-.3 3 2.1 5.5 5 5.5h.3c2.8-.2 4.9-2.5 4.9-5.3V12.9c.2-.2 0 10 0 10h5.1c2.6 0 5-1.9 5.2-4.5.3-3-2.1-5.5-5-5.5l-5.2.1" class="st2"/><path fill="none" stroke="#444" stroke-linecap="round" stroke-linejoin="round" stroke-miterlimit="10" stroke-width=".5" d="M36.1 6.8h-8m8 1.9h-8"/></svg>