<svg xmlns="http://www.w3.org/2000/svg" id="Layer_1" x="0" y="0" version="1.1" viewBox="0 0 50 50" xml:space="preserve"><style>.st2{fill:none;stroke:#444;stroke-miterlimit:10}</style><path fill="#e589ef" d="M38.9 2.6l-22.5.2c-1.4 0-7.7 6-7.7 7.4v11.4l-.4 8.3-.2 5.9c.4.5.3 11.6 1 11.6l5.4.1 27.3-9.7c.3-2.7-.2-6.4.2-9.5l-.7-6.2.3-10.5-.9-4.1c0-1.3-.4-4.9-1.8-4.9z"/><path fill="none" stroke="#444" stroke-linecap="round" stroke-linejoin="round" stroke-miterlimit="10" stroke-width="2.5" d="M30.8 48.3H10.7c-1.1 0-2-.9-2-2V10.2l8.4-7.4h22.2c1.1 0 2 .9 2 2v36.7"/><path d="M8.3 10.1h7.4c.7 0 1.3-.6 1.3-1.3v-6" class="st2"/><circle cx="30.2" cy="28.3" r="5" class="st2"/><path d="M25 13.1l-5.2-.1c-2.8 0-5 2.3-5 5s2.3 5 5 5h5.3s-.2-10.2-.1-9.9" class="st2"/><path d="M24.9 23h-5.1c-2.8 0-5 2.3-5 5s2.3 5 5 5h5.1s.2-10.1.2-10" class="st2"/><path d="M24.9 33.2H20c-2.6 0-5 1.9-5.2 4.5-.3 3 2.1 5.5 5 5.5h.3c2.8-.2 4.9-2.5 4.9-5.3V13.1c.2-.2 0 10 0 10h5.1c2.6 0 5-1.9 5.2-4.5.3-3-2.1-5.5-5-5.5l-5.2.1" class="st2"/><path fill="none" stroke="#444" stroke-linecap="round" stroke-linejoin="round" stroke-miterlimit="10" stroke-width=".5" d="M36.9 7h-8m8 1.9h-8"/></svg>