<svg xmlns="http://www.w3.org/2000/svg" version="1" viewBox="0 0 50 50"><path fill="#E56060" d="M6.101 29.944l2.453-.433 2.864 16.243c.056.32.204.6.409.825l34.574-12.584-2.989-16.95-32.393 5.712-.441-.824L40.53 7.961l-1.923-4.125a1.675 1.675 0 00-2.222-.804L6.338 17.038a1.543 1.543 0 00-.428.294l.004.004-1.975.348a.412.412 0 00-.334.477L5.624 29.61a.412.412 0 00.477.334z"/><path fill="#FF6B6B" d="M11.004 22.729l-.426-.796L40.53 7.961l-1.923-4.125a1.675 1.675 0 00-2.222-.804L6.338 17.038a1.528 1.528 0 00-.428.294l.004.004-1.975.348a.412.412 0 00-.334.477l1.203 6.823 6.196-2.255z"/><g fill="#031326"><path d="M44.426 15.597l-27.827 4.907L42.191 8.565l-2.453-5.261a2.925 2.925 0 00-3.884-1.403L5.528 16.131l-1.806.322a1.65 1.65 0 00-1.072.683 1.646 1.646 0 00-.275 1.242l2.019 11.447c.077.438.319.819.684 1.074.365.256.806.35 1.242.275l1.222-.216 2.647 15.012a2.89 2.89 0 001.192 1.876 2.883 2.883 0 002.177.484l19.119-3.371a1.25 1.25 0 10-.433-2.463l-19.12 3.372a.42.42 0 01-.305-.068.404.404 0 01-.168-.264L9.612 28.309 43.087 22.4l2.082 11.811c.12.679.761 1.129 1.448 1.015a1.252 1.252 0 001.015-1.448l-3.206-18.181zm-13.744 4.962l7.426-1.309-1.574 4.051-7.412 1.303 1.56-4.045zm-7.404 1.306l-1.566 4.05-7.4 1.309 1.563-4.053 7.403-1.306zm-9.226-2.932l-3.548-2.375 6.804-3.193 3.56 2.388-6.816 3.18zm20.452-9.54l-6.818 3.181-3.576-2.399 6.803-3.192 3.591 2.41zM6.71 28.566l-1.728-9.798 1.31-.234.834-.391 2.342 4.38.006-.003.871 1.625.004-.001 1.851 3.453-2.802.495-2.688.474z"/><path d="M42.166 25.99l-30.337 5.349-.124.021 2.236 12.682.021.123L44.3 38.816l.123-.021-2.235-12.682-.022-.123zm-28 17.886l-2.171-12.312 29.968-5.284 2.171 12.312-29.968 5.284z"/></g><path fill="#031326" d="M31.054 33.432l-5.581-1.995a.77.77 0 00-1.018.864l1.063 5.831a.77.77 0 001.257.449l4.518-3.836a.77.77 0 00-.239-1.313z"/></svg>