<svg xmlns="http://www.w3.org/2000/svg" version="1" viewBox="0 0 50 50"><path fill="#A6C1C2" d="M5.572 30.081l2.522-.445 2.945 16.697c.058.329.21.617.42.848L47 34.246l-3.072-17.424-33.3 5.872-.454-.847L40.965 7.483l-1.977-4.24a1.721 1.721 0 00-2.284-.826L5.816 16.815a1.595 1.595 0 00-.44.303l.004.004-2.03.358a.424.424 0 00-.343.49l2.075 11.77c.04.229.26.382.49.341z"/><path fill="#B9D7D9" d="M10.612 22.664l-.438-.818L40.965 7.483l-1.977-4.24a1.721 1.721 0 00-2.284-.826L5.816 16.815a1.595 1.595 0 00-.44.303l.004.004-2.03.358a.423.423 0 00-.343.49l1.236 7.014 6.369-2.32z"/><g fill="#031326"><path d="M44.941 15.373l-28.834 5.085 26.519-12.37-2.507-5.376a2.972 2.972 0 00-3.953-1.423L5.678 15.818l-2.545.43a1.673 1.673 0 00-1.357 1.938l2.076 11.769c.077.44.322.824.689 1.081.367.256.813.355 1.249.276l1.291-.228 2.728 15.467a2.938 2.938 0 001.211 1.904 2.926 2.926 0 002.212.492l19.653-3.465a1.252 1.252 0 001.015-1.448 1.256 1.256 0 00-1.448-1.015l-19.654 3.466a.453.453 0 01-.527-.369L9.367 29.662l34.483-6.08 1.918 10.881c.12.68.771 1.13 1.448 1.015a1.252 1.252 0 001.015-1.448l-3.29-18.657zM15.634 23.08l7.613-1.342-1.643 4.244-7.61 1.342 1.64-4.244zm15.23-2.686l7.622-1.344-1.643 4.244-7.617 1.343 1.638-4.243zm-17.085-1.609l-3.541-2.37 6.95-3.312 3.599 2.414-7.008 3.268zm21.025-9.807l-7.009 3.27-3.66-2.455 6.949-3.312 3.72 2.497zM6.169 28.706L4.382 18.572l2.057-.347.276-.131 5.143 9.606-3.967.7c-.006.001-.01.005-.016.006l-1.706.3z"/><path d="M13.352 45.132l32.045-5.65-2.45-13.896-32.044 5.65 2.449 13.896zm30.887-6.461l-30.075 5.303-2.103-11.927 30.076-5.303 2.102 11.927z"/></g></svg>