<svg xmlns="http://www.w3.org/2000/svg" version="1" viewBox="0 0 50 50"><path fill="#FCC34F" d="M2.826 44.467h6.948l29.291-10.661 8.648-10.435a.702.702 0 00-.092-.991l-4.862-4.033L25.804 4.293l-11.27 1.006a3.5 3.5 0 00-3.312.935l-9.097 9.189v28.342a.7.7 0 00.701.702z"/><path fill="#FDCF72" d="M27.993 5.87L26.09 4.293 14.819 5.299a3.5 3.5 0 00-3.312.935l-8.723 8.812L27.993 5.87z"/><g fill="#031326"><path d="M13.718 11.292c1.08 0 1.959-.879 1.959-1.959s-.879-1.959-1.959-1.959a1.96 1.96 0 00-1.959 1.959 1.96 1.96 0 001.959 1.959zm0-3.418a1.46 1.46 0 010 2.918c-.805 0-1.459-.655-1.459-1.459s.655-1.459 1.459-1.459z"/><path d="M48.137 21.461L26.191 3.267 14.736 4.29a4.66 4.66 0 00-4.226 1.301L1.165 15.03v28.507c0 1.063.865 1.929 1.929 1.929h14.495l.078.157a1.93 1.93 0 002.587.865l2.05-1.023h2.311a1.931 1.931 0 001.929-1.929v-.182l5.864-2.92a1.236 1.236 0 00-1.101-2.212l-6.303 3.139v-5.959l10.781-5.375 1.795 3.601c-.074.423.055.871.409 1.165a1.235 1.235 0 001.739-.163l8.671-10.464c.671-.826.55-2.044-.262-2.705zm-6.667-2.319l-6.253 7.537-8.435-16.927-9.441-3.214 8.057-.719L41.47 19.142zM12.265 7.329c.505-.509 1.215-.721 1.924-.612.416.146.806.36 1.121.678l8.705 8.793v20.731H3.635V16.046l8.63-8.717zM3.635 37.66h20.38v5.336H3.635V37.66zm21.368-3.085V15.782l-8.352-8.437 9.429 3.211 9.374 18.809-10.451 5.21zm13.178-1.95l-2.602-5.221 6.462-7.79 4.104 3.402-7.964 9.609z"/></g></svg>