<svg xmlns="http://www.w3.org/2000/svg" id="Layer_1" x="0" y="0" version="1.1" viewBox="0 0 50 50" xml:space="preserve"><style>.st2{fill:#031326}</style><path fill="#fcc34f" d="M46.6 25l.4 4.1L3 44.4v-8.7l.2-5L47 15.4l-.5 3.6z"/><path fill="#fdcf72" d="M46.8 9l-.4 7.4-43 14.9-.2-9.4.2-4.3 43.4-15z"/><path d="M10.5 49.8H3c-.7 0-1.2-.6-1.2-1.2V1.5C1.8.8 2.4.3 3 .3h44c.7 0 1.2.6 1.2 1.2V29c0 .7-.6 1.2-1.2 1.2s-1.2-.6-1.2-1.2V2.7H4.3v44.6h6.3c.7 0 1.2.6 1.2 1.2s-.6 1.3-1.3 1.3z" class="st2"/><path d="M38.4 37.1l-3.8-20.8c0-.3-.2-.5-.5-.6-.3-.1-.5 0-.8.2l-3.7 3.6-3.2-6.4c-.1-.2-.4-.4-.7-.4-.3 0-.5.1-.7.4l-2.1 3.7L18 8.5c0-.3-.3-.5-.6-.4-.3 0-.5.3-.6.6l-5.2 28.4c0 .1-.1.2-.1.4s.2.4.4.5l12.5 7.3c.1.1.2.1.4.1s.3 0 .4-.1L38 37.7c.3 0 .5-.3.4-.6zM25.8 15l2.7 5.6-2 2-2.5-4.3 1.8-3.3zm-2.7 4.8l2.3 3.9-10 9.8 7.7-13.7zM17.9 11l4.3 7.3L14 32.9 17.9 11zm7 32.9l-11.3-6.6 19.8-19.4 3.4 18.9-11.9 7.1z" class="st2"/></svg>