<svg xmlns="http://www.w3.org/2000/svg" id="Layer_1" x="0" y="0" version="1.1" viewBox="0 0 50 50" xml:space="preserve"><style>.st2{fill:#031326}</style><path fill="#e56060" d="M8.8 30.6l29.6 10.8 2.7-1.5-2-12.5-28.2-10.3z"/><path fill="#ff6b6b" d="M35 12.6l-5.5 5.5-4.3-8.1c-.4-.8-1.5-.8-2 0l-2.3 4.5L15 3.3c-.5-.9-1.8-.7-2 .3l-2.1 13.8 28.4 10.3L37 13.1c-.2-.8-1.4-1.1-2-.5z"/><path d="M12.2 31.9h-.1c-.1-.1-.2-.2-.1-.3l8.8-16.7v-.1L15.1 4c-.2-.4-.6-.5-.9-.4-.3 0-.6.3-.7.7L9.4 30.8c0 .1-.2.2-.3.2s-.2-.1-.2-.3L13 4.2c.1-.6.5-1 1.1-1.1s1.1.2 1.4.7l5.8 10.9-.1.4-8.8 16.7c0 .1-.1.1-.2.1z" class="st2"/><path d="M25.2 22.9l-4.4-8.2v-.5l2.3-4.4c.2-.4.7-.7 1.2-.7s1 .3 1.2.7l4.4 8.4-.4.2-4.4-8.4c-.1-.3-.4-.5-.8-.4-.3 0-.6.2-.7.4l-2.3 4.3v.2l4.3 8-.4.4z" class="st2"/><path d="M24.5 49c-.6 0-1.1-.1-1.6-.4L15 44.2c-.1-.1-.2-.2-.1-.3.1-.1.2-.2.3-.1l7.9 4.4c.9.5 1.9.5 2.8 0l14.9-8.3-4.3-26.2c-.1-.3-.2-.6-.5-.6-.2-.1-.5 0-.7.2l-20 20c-.1.1-.3.1-.4 0s-.1-.3 0-.4l20-20c.3-.3.8-.5 1.2-.3.4.1.7.5.8 1l4.4 26.6-.2.1-15 8.4c-.4.2-1 .3-1.6.3z" class="st2"/><path d="M24.2 49.1c-.7 0-1.5-.2-2.1-.6l-8-4.5c-.6-.3-.8-1.1-.5-1.7.3-.6 1.1-.8 1.7-.5l8 4.5c.6.3 1.3.3 1.9 0l14.4-8-4.1-25.4-6.3 6.3-5-9.2-3.2 6.2-6.7-12.5-4.1 26.5c-.1.7-.7 1.1-1.4 1s-1.1-.7-1-1.4l4.2-27c.2-1 .9-1.8 1.9-1.9 1-.2 2 .3 2.4 1.2l4.6 8.7 1.2-2.3c.4-.8 1.2-1.3 2.1-1.3.8 0 1.7.5 2.1 1.3l3.4 6.5 4.2-4.2c.6-.6 1.5-.8 2.3-.6.8.3 1.4 1 1.6 1.8l4.5 27.6-15.9 8.9c-.7.4-1.5.6-2.2.6zm.1-39.4z" class="st2"/></svg>