<svg xmlns="http://www.w3.org/2000/svg" id="Layer_1" x="0" y="0" version="1.1" viewBox="0 0 50 50" xml:space="preserve"><style>.st3{fill:#031326}</style><path fill="#f0cd77" d="M44.7 12.3l-8.4-4.8L4.2 19.2V29l41.6-15.1c-.2-.7-.6-1.3-1.1-1.6z"/><path fill="#ecc158" d="M5.5 37.5l2.9 1.6 36.9-13.4.4-.1V14.3c0-.2 0-.3-.1-.5l-41.2 15v6.7c0 .8.4 1.6 1.1 2z"/><path fill="none" d="M19.8 12.9s0-.1 0 0l-.1-.1c-.1 0-.1.1-.1.1l-2.8 18L23 19l-3.2-6.1zM32 18.4L16.8 33.5l8 4.5c.4.2.9.2 1.3 0l8.4-4.7L32 18.4z"/><path d="M31.9 18.5c-.1-.4-.3-.7-.6-.8-.3-.1-.7 0-.9.2L28 20.3l-2-3.8c-.2-.3-.5-.5-.9-.5s-.7.2-.9.5l-.8 1.5-2.6-4.8c-.2-.4-.6-.6-1.1-.5-.4.1-.8.4-.8.8L16 32.1v.3l8.1 4.5c.3.2.7.3 1 .3.3 0 .7-.1 1-.3l8.1-4.5-2.3-13.9zm-8 .6l1.1-2h.1s.1 0 .1.1l2 3.8-1.5 1.5-1.8-3.4zm-4.1-5.4s.1-.1 0 0l.1-.1c.1 0 .1 0 .1.1l2.9 5.5-5.6 10.7 2.5-16.2zm3.6 6.5l1.6 3-6.8 6.8 5.2-9.8zm2.3 16c-.4.2-.8.2-1.1 0l-7.2-4L31 18.6 33.2 32l-7.5 4.2z" class="st3"/><path d="M25.1 49.5c-.6 0-1.2-.2-1.7-.5L5.1 38.5c-1.1-.6-1.7-1.8-1.7-3v-21c0-1.2.7-2.4 1.7-3L23.3.9c1.1-.6 2.4-.6 3.5 0L45 11.4c1.1.6 1.7 1.8 1.7 3v12.1c0 .7-.6 1.2-1.2 1.2s-1.2-.6-1.2-1.2v-12c0-.4-.2-.7-.5-.9L25.6 3.1c-.3-.2-.7-.2-1 0L6.4 13.6c-.3.2-.5.5-.5.9v21c0 .4.2.7.5.9l18.2 10.5c.3.2.7.2 1 0l11.3-6.6c.6-.3 1.4-.1 1.7.5.3.6.1 1.4-.5 1.7L26.8 49c-.5.4-1.1.5-1.7.5z" class="st3"/></svg>