<svg xmlns="http://www.w3.org/2000/svg" viewBox="0 0 50 50"><path fill="#fcc34f" d="M10.8 37.9l4.8 2.9 23.9-8.7-3-19.5c0-.1-.2-.2-.3-.1l-5 4.6-5.7-7.8c-.1-.1-.2-.1-.3 0l-2.1 4-7.2-10c-.1-.1-.3-.1-.3.1l-5.2 33.7c-.1.3.1.6.4.8z"/><path fill="#fdcf72" d="M27.7 12.4l-2.2-3c-.1-.1-.2-.1-.3 0l-2.1 4-7.2-10.1c-.1-.1-.3-.1-.3.1l-2.2 14.2 14.3-5.2z"/><path fill="#031326" d="M37.5 12.5c-.1-.4-.3-.8-.7-.9-.4-.1-.8 0-1.1.2l-4.2 3.9-5.1-7c-.2-.3-.6-.5-1-.5s-.7.2-.9.6L23 11.6l-6.3-8.8c-.3-.4-.7-.5-1.2-.4-.4.1-.8.5-.9.9L9.5 36.9c-.1.7.2 1.4.8 1.8l14.1 8.7c.3.2.6.3.9.3.3 0 .6-.1.9-.3l4.1-2.5c.4-.3.6-.9.3-1.3-.3-.5-.9-.6-1.3-.3l-4 2.5-13.8-8.5L32 17.8l.1-.1 3.7-3.4 2.8 18c.1.5.6.9 1.1.8.5-.1.9-.6.8-1.1l-3-19.5zm-12-1.5l4.9 6.8-17.8 16.9 11.5-21c0-.1.1-.1.1-.2l1.3-2.5zm-9.2-5.5l6.2 8.7L12 33.5l4.3-28z"/></svg>