<svg xmlns="http://www.w3.org/2000/svg" id="Camada_1" x="0" y="0" version="1.1" viewBox="0 0 50 50" xml:space="preserve"><style>.st2{fill:#031326}</style><path fill="#00c8e2" d="M43.9 22.2V5.6L6.1 19.3v2.8c0 6.8 2.7 13.2 7.3 17.9l29.5-10.7c.7-2.2 1-4.7 1-7.1z"/><path fill="#00dffc" d="M43.5 5.6C31.7.2 18.2.2 6.4 5.6v13.8L43.5 5.9v-.3z"/><path d="M25 49.7c-.5 0-1.1-.2-1.5-.5l-8-6.1c-6.4-5-10.3-12.8-10.3-20.9V4.8l.7-.3C18-1 31.9-1 44 4.5l.7.3v17.4c0 2.5-.4 5-1.1 7.4-.2.7-.9 1-1.6.8-.7-.2-1-.9-.8-1.6.6-2.2 1-4.4 1-6.7V6.4c-11-4.8-23.5-4.8-34.6 0v15.8c0 7.4 3.5 14.4 9.3 18.9l8 6.1 8-6.1c1.1-.9 2.2-1.8 3.1-2.8.5-.5 1.3-.5 1.8-.1.5.5.5 1.3.1 1.8-1 1.1-2.2 2.2-3.4 3.1l-8 6.1c-.4.3-1 .5-1.5.5z" class="st2"/><path d="M25 44.2c-.4 0-.8-.1-1.1-.4l-6.5-5C12.1 34.8 9 28.5 9 21.9V7.8l.4-.2c9.9-4.5 21.2-4.5 31.1 0l.5.2v14.1c0 6.6-3.1 12.9-8.3 16.9l-6.5 5c-.4.2-.8.4-1.2.4zM10.5 8.7v13.1c0 6.1 2.9 12 7.8 15.7l6.5 5c.1.1.2.1.4 0l6.5-5c4.9-3.7 7.8-9.6 7.8-15.7V8.7c-9.3-4-19.7-4-29 0z" class="st2"/><path d="M25.2 33.6c-5.4-.1-9.7-4.4-9.8-9.8 0-3 1.8-5.9 4.9-7.7 2.5-1.5 2.7-3.6 2.9-4.9v-.3c.1-.5.4-1 .9-1.2.5-.2 1.1-.1 1.5.3 2.8 2.5 3.4 5 3.4 6.7 0 2-.7 3.9-2.2 5.3-.9.9-1.1 1.5-1.1 1.9 0 .4.1.6.1.6.2.2 1.1.5 2.5-1 1.1-1.1 1.9-2.5 2.4-4 .2-.6.7-1 1.3-1 .6 0 1.1.3 1.4.8.7 1.3 1 2.9 1 4.4.1 5.5-4 9.9-9.2 9.9zm-.1-21.4c-.3 1.6-1 3.9-3.7 5.6-1.9 1.1-3.9 3.3-3.9 6 .1 4.3 3.5 7.7 7.8 7.8 4 0 7.3-3.5 7.3-7.8 0-.8-.1-1.5-.3-2.3-.6 1.3-1.4 2.4-2.3 3.5-2.5 2.5-4.6 1.7-5.3 1-.5-.5-.8-1.3-.7-2.2.1-1 .7-2.1 1.7-3.1 1.1-1.1 1.6-2.4 1.6-3.9-.2-1.6-.9-3.1-2.2-4.6zm6.6 8.1zM20.9 17z" class="st2"/></svg>