<svg xmlns="http://www.w3.org/2000/svg" id="Camada_3" x="0" y="0" version="1.1" viewBox="0 0 50 50" xml:space="preserve"><style>.st4,.st6{fill:none;stroke-miterlimit:10;stroke-linecap:round;stroke-linejoin:round}.st4{stroke-width:.5;stroke:#444}.st6{stroke:#494949}</style><path fill="#f56991" d="M46.92 2.84H1.56v18.33L46.92 5.03z"/><path fill="#dc5e82" d="M1.56 21.17v24.47L46.92 29.5V5.03z"/><path fill="none" stroke="#444" stroke-linecap="round" stroke-linejoin="round" stroke-miterlimit="10" stroke-width="2.5" d="M24.78 48.34H5.31c-1.87 0-3.39-1.58-3.39-3.54V5.89c0-1.95 1.52-3.54 3.39-3.54h39.01c1.87 0 3.39 1.58 3.39 3.54v25.89"/><path fill="none" stroke="#444" stroke-miterlimit="10" stroke-width=".25" d="M33.1 7.72h3.08v6.87"/><path d="M43.86 11.15h-6.41m6.41 1.47h-6.41m3.99-3.51h-3.99m6.41 4.97h-6.41" class="st4"/><path fill="none" stroke="#444" stroke-linecap="round" stroke-linejoin="round" stroke-miterlimit="10" stroke-width=".25" d="M15.38 42.57h-2.33v-5.7"/><path d="M12.26 39.36H5.85m6.41 1.46H5.85m6.41-3.51H8.27m3.99 4.98H5.85" class="st4"/><path d="M14.01 25.08L26.39 12.7l7.09-.03-15.95 15.94zm19.22 11.97h-7.35l-6.06-6.06 6.44-6.75h7.22L23.47 34.69m9.76 2.36l-9.83-9.81" class="st6"/><path d="M29.46 33.29l3.77 3.76h-7.35" class="st6"/><path fill="none" stroke="#494949" stroke-miterlimit="10" stroke-width=".25" d="M15.39 7.72h-.69c-.95 0-1.88.3-2.59.93-1.1.97-2.33 2.94-2.33 6.87s1.23 5.9 2.33 6.87c.71.63 1.65.93 2.59.93h1.07m17.4 19.25c.95 0 1.88-.3 2.59-.93 1.1-.97 2.33-2.94 2.33-6.87s-1.23-5.9-2.33-6.87c-.71-.63-1.65-.93-2.59-.93h-2.45"/><path fill="none" stroke="#494949" stroke-miterlimit="10" stroke-width=".5" d="M30.32 10.49H18.15a2.77 2.77 0 110-5.54h12.18a2.77 2.77 0 012.77 2.77c0 1.53-1.24 2.77-2.78 2.77zm0 34.7H18.15a2.77 2.77 0 110-5.54h12.18a2.77 2.77 0 012.77 2.77c0 1.53-1.24 2.77-2.78 2.77z"/></svg>