<svg xmlns="http://www.w3.org/2000/svg" viewBox="0 0 50 50"><path fill="#c3ff68" d="M36.6 13.6l5.6-5.8-1.1-6.1-13.5-.3c-3.2 0-5.5 7.7-9.5 10L4.6 13 4 36.2l3.4 1.4c4.5.7 8.8-2.2 14 5.7L38 37.5c-1.2-.6-1.2-.5-1.2-1.6 0-1.9 3.7-2.1 5-4.5 1.2-2 .8-4.8.8-7.3 0-2.4.6-4.6-.1-5.2-1.9-1.7-5.3-4.1-5.9-5.3z"/><path fill="none" stroke="#444" stroke-linecap="round" stroke-linejoin="round" stroke-miterlimit="10" d="M25.8 25.3L17 34H7.6l8.5-8.8-8.9-8.8H17zm-5.6-11.2L29 5.4h9.4l-8.5 8.8 8.9 8.9H29zm0 21.9l8.8-8.7h9.4l-8.5 8.8 8.9 8.8H29z"/><path fill="none" stroke="#444" stroke-linecap="round" stroke-linejoin="round" stroke-miterlimit="10" stroke-width="2.5" d="M32.3 48.7h-2.6c-1.3 0-2.5-.5-3.4-1.5l-7.8-7.9c-.9-.9-2.2-1.5-3.4-1.5H7c-1.6 0-2.9-1.3-2.9-3V15.4c0-1.7 1.3-3 2.9-3h8.1c1.3 0 2.5-.5 3.4-1.5L26.2 3c.9-.9 2.2-1.5 3.4-1.5h9.7c1.6 0 2.9 1.3 2.9 3v2.7c0 .8-.3 1.5-.9 2L36.9 13c-.7.6-.6 1.7.1 2.3l4 2.7c.8.5 1.2 1.3 1.2 2.3v9.9c0 .9-.4 1.7-1.1 2.2l-4 2.9c-.8.5-.8 1.7-.1 2.3l4.2 3.3c.6.5 1 1.3 1 2.1"/></svg>