<svg xmlns="http://www.w3.org/2000/svg" xmlns:xlink="http://www.w3.org/1999/xlink" id="Camada_1" x="0" y="0" version="1.1" viewBox="0 0 42 48" xml:space="preserve"><style>.st7{fill:#031326}</style><path fill="#00c8e2" d="M40.2 10.3L39 25.4 4.4 38c-.5-1.1-.7-2.4-.8-4.2L1.7 10.3C1.6 8 2.8 6.5 6 5.7l12.5-3.5c.9-.2 1.7-.4 2.5-.4s1.6.2 2.5.4l12.4 3.5c3.3.8 4.4 2.3 4.3 4.6z"/><path fill="#00dffc" d="M32.3 4.7l-30.2 11-.4-5.4C1.6 8 2.8 6.5 6 5.7l12.5-3.5c.9-.2 1.7-.4 2.5-.4s1.6.2 2.5.4l8.8 2.5z"/><g transform="translate(-.56 8.162) scale(.03882)"><defs><path id="SVGID_1_" d="M779.7 352.2L594.2 537.8l185.5 185.6h-212l-79.6-79.6-106-106 185.6-185.6h212zm-212-318L223.1 378.8l106 106L779.7 34.2h-212z"/></defs><clipPath id="SVGID_2_"><use overflow="visible" xlink:href="#SVGID_1_"/></clipPath><g clip-path="url(#SVGID_2_)"><path fill="none" stroke="#031326" stroke-linecap="round" stroke-linejoin="round" stroke-miterlimit="10" stroke-width="1.5" d="M779.7 352.2h-212L382.2 537.8l106 106"/></g><use fill="none" stroke="#031326" stroke-linecap="round" stroke-linejoin="round" stroke-miterlimit="10" stroke-width="1.5" overflow="visible" xlink:href="#SVGID_1_"/></g><g transform="translate(-.56 8.162) scale(.03882)"><defs><path id="SVGID_3_" d="M779.7 352.2L594.2 537.8l185.5 185.6h-212l-79.6-79.6-106-106 185.6-185.6h212zm-212-318L223.1 378.8l106 106L779.7 34.2h-212z"/></defs><clipPath id="SVGID_4_"><use overflow="visible" xlink:href="#SVGID_3_"/></clipPath><path fill="none" stroke="#031326" stroke-linecap="round" stroke-linejoin="round" stroke-miterlimit="10" stroke-width="1.5" d="M223.1 378.8L567.7 34.2h212L329.1 484.8l-106-106z" clip-path="url(#SVGID_4_)"/><use fill="none" stroke="#031326" stroke-linecap="round" stroke-linejoin="round" stroke-miterlimit="10" stroke-width="1.5" overflow="visible" xlink:href="#SVGID_3_"/></g><g transform="translate(-.56 8.162) scale(.03882)"><defs><path id="SVGID_5_" d="M779.7 352.2L594.2 537.8l185.5 185.6h-212l-79.6-79.6-106-106 185.6-185.6h212zm-212-318L223.1 378.8l106 106L779.7 34.2h-212z"/></defs><clipPath id="SVGID_6_"><use overflow="visible" xlink:href="#SVGID_5_"/></clipPath><path fill="none" stroke="#031326" stroke-linecap="round" stroke-linejoin="round" stroke-miterlimit="10" stroke-width="1.5" d="M488.1 643.9l79.6 79.5h212L594.2 537.8" clip-path="url(#SVGID_6_)"/><use fill="none" stroke="#031326" stroke-linecap="round" stroke-linejoin="round" stroke-miterlimit="10" stroke-width="1.5" overflow="visible" xlink:href="#SVGID_5_"/></g><g transform="translate(-.56 8.162) scale(.03882)"><defs><path id="SVGID_7_" d="M779.7 352.2L594.2 537.8l185.5 185.6h-212l-79.6-79.6-106-106 185.6-185.6h212zm-212-318L223.1 378.8l106 106L779.7 34.2h-212z"/></defs><clipPath id="SVGID_8_"><use overflow="visible" xlink:href="#SVGID_7_"/></clipPath><use fill="none" stroke="#031326" stroke-linecap="round" stroke-linejoin="round" stroke-miterlimit="10" stroke-width="1.5" overflow="visible" xlink:href="#SVGID_7_"/></g><g transform="translate(-.56 8.162) scale(.03882)"><defs><path id="SVGID_9_" d="M779.7 352.2L594.2 537.8l185.5 185.6h-212l-79.6-79.6-106-106 185.6-185.6h212zm-212-318L223.1 378.8l106 106L779.7 34.2h-212z"/></defs><clipPath id="SVGID_10_"><use overflow="visible" xlink:href="#SVGID_9_"/></clipPath><g clip-path="url(#SVGID_10_)"><path d="M488.2 663.2c-4.9 0-9.9-1.9-13.7-5.7l-106-106.1c-7.5-7.5-7.5-19.8 0-27.3l106-106.1c7.2-7.2 20.1-7.2 27.3 0l106 106.1c7.5 7.5 7.5 19.8 0 27.3s-19.8 7.5-27.3 0L488.2 459l-78.7 78.7 92.4 92.5c7.5 7.5 7.5 19.8 0 27.3-3.8 3.8-8.8 5.7-13.7 5.7z" class="st7"/></g><use fill="none" stroke="#031326" stroke-linecap="round" stroke-linejoin="round" stroke-miterlimit="10" stroke-width="1.5" overflow="visible" xlink:href="#SVGID_9_"/></g><path d="M797.5 26.7c-2.8-7.2-10-11.9-17.8-11.9h-212c-5.2 0-10 2.1-13.7 5.7L209.4 365c-7.5 7.7-7.5 19.8 0 27.6l106.1 105.9c3.6 3.6 8.5 5.7 13.7 5.7 5.2 0 10-2.1 13.7-5.7L793.4 47.9c5.4-5.7 7.2-13.9 4.1-21.2zM329.2 457.5l-78.8-78.6L575.7 53.5h157.4l-403.9 404zm292.4 80.3l171.8-172.1c5.4-5.4 7.2-13.7 4.1-20.9-2.8-7.2-10-12.1-17.8-12.1h-212c-5.2 0-10 2.1-13.7 5.7L368.4 524.2c-7.5 7.5-7.5 19.8 0 27.3L554.1 737c3.6 3.9 8.5 5.7 13.7 5.7h212c7.7 0 14.9-4.6 17.8-11.8 3.1-7.2 1.3-15.5-4.1-21.1l-171.9-172zM575.7 704L409.3 537.8l166.4-166.4h157.4L580.4 524.2c-7.5 7.5-7.5 19.8 0 27.3L733.1 704H575.7z" class="st7" transform="translate(-.56 8.162) scale(.03882)"/><path d="M36.3 4.4L23.8.9C22.7.6 21.9.4 21 .4c-.9 0-1.7.2-2.8.5L5.8 4.4C2.2 5.3.5 7.2.5 10.3l1.9 23.6c.3 5.5 2.2 7.3 6 9.2l10.5 4.3c.7.2 1.4.4 2.1.4.7 0 1.4-.1 2.2-.4l6.2-2.5c.6-.3.9-1 .7-1.6-.3-.6-1-.9-1.6-.7l-6.1 2.5c-.8.3-1.7.3-2.6 0L9.4 40.7c-3-1.4-4.3-2.5-4.6-7.1L2.9 10.1c0-1.3.2-2.6 3.5-3.4l12.5-3.5c.8-.2 1.5-.3 2.1-.3.6 0 1.3.1 2.2.4l12.5 3.5c3.2.8 3.4 2.1 3.4 3.3l-1.2 15.1c0 .7.5 1.2 1.1 1.3.7 0 1.2-.4 1.3-1.1l1.2-15.2c.1-3.1-1.7-5-5.2-5.8z" class="st7"/></svg>