<svg xmlns="http://www.w3.org/2000/svg" viewBox="0 0 50 50"><path fill="#c3ff68" d="M13.4 32.5L7 26.2c-.2-.2-.2-.6 0-.8L28.8 3.6c.5-.5 1.3-.9 2.1-.9h11.7c.5 0 .7.6.4.9L14.1 32.5c-.2.2-.5.2-.7 0zm26.1-8H29c-.3 0-.7.1-.9.4l-4.9 4.9-.4.4c-.1.1-.2.1-.3.2l-3.1 3.1 21.4-7.8c-.1-.6-.6-1.2-1.3-1.2z"/><path fill="#afe55d" d="M30.6 36.5l9.8-9.8c.3-.3.4-.7.4-1l-21.4 7.8-2.2 2.2c-.5.5-.5 1.3 0 1.7l5.3 5.3c.2.2.4.2.6.3l3.3 3.3 10.4-3.8-6.2-6z"/><path fill="#494949" d="M13.8 33.5c-.5 0-.9-.2-1.3-.5l-6.3-6.3c-.7-.7-.7-1.8 0-2.5L28 2.3c.8-.8 1.8-1.2 2.9-1.2h11.7c.7 0 1.4.4 1.7 1.1s.1 1.4-.4 2L15 33c-.3.3-.8.5-1.2.5zm-5.4-8.1l5.3 5.3L40.9 3.6h-10c-.4 0-.9.2-1.2.5L8.4 25.4zm29.8 17l-1.5-1.6c-.5-.5-1.3-.5-1.8 0s-.5 1.3 0 1.8l1.5 1.6 2.2 2.2H28l-2.8-2.8 4.9-4.9.4-.4 1.1 1.1c.2.2.6.4.9.4s.6-.1.9-.4c.5-.5.5-1.3 0-1.8l-1.1-1.1 8.9-8.9c.7-.7 1-1.8.6-2.8-.4-1-1.3-1.6-2.4-1.6H28.9c-.7 0-1.3.3-1.8.7l-5 5.1-.2.3c-.1.1-.3.2-.4.3l-5.3 5.3c-.5.5-.7 1.1-.7 1.8s.3 1.3.7 1.8l5.3 5.3c.2.2.5.4.8.5l3.9 3.9c.4.4 1 .7 1.6.7H39c.9 0 1.8-.6 2.1-1.4.4-.9.2-1.8-.5-2.5l-2.4-2.6zm-9.6-5.8l-5.2 5.3-5.2-5.3 5.2-5.2 5.2 5.2zm.3-10.8h10.5v.1L30.3 35v-.1L25 29.6l3.9-3.8z"/></svg>