<svg xmlns="http://www.w3.org/2000/svg" id="Camada_1" x="0" y="0" version="1.1" viewBox="0 0 50 50" xml:space="preserve"><style>.st0{fill:#fcc34f}.st1{fill:#fdcf72}</style><path d="M38.8 11.7c-.1-1.8-1.4-3.9-3.6-4.1-2.4-.3-4.7 1.7-4.7 4.1 0 1.9 1.4 3.7 3.4 4.1 1.5.3 3.2-.3 4.1-1.6.8-1 .8-2.1.8-2.5z" class="st0"/><path d="M47.2 6.4c-.5-5.3-8.5-3.4-11.8-3.7l-15 5.4c.2.2.3.5.5.7.4.2.6.6.5 1-.1.5-.5.7-.6.7l-7.7 7.7c-.2.1-.3.2-.5.3-1.3.4-3.2 1-4.5 1.3-.1 0-.2 0-.3-.1-.3-.2-.1-1.1.1-1.7.2-.8.6-2 1.3-3.6 1.2-1.2 2.4-2.4 3.7-3.6-1.5.7-3.2 1.5-4.9 2.2-1.9.7-3.6 1.4-5.3 1.9v24.9c.2-.1 4.1-1.5 4.1-1.5-.1-.3-.8-3.1 1.1-5.5 1.9-2.3 4.6-2.2 4.9-2.2h.2v-2c1.7 1.2 3.4 2.4 5.2 3.6-.5.3-1.1.7-1.7 1.1-.5.4-1 .7-1.5 1.1l-2.1 1.2v-1.9c-.2 0-1.3-.2-2.3.6-1.2.9-1.2 2.4-1.2 2.5 6.1-2.2 31.4-11.4 37.9-13.8V7c0-.2 0-.4-.1-.6zm-9.5 9.9c-5.3 3.7-11.5-4-6.9-8.4 5.5-5.5 13.4 4.1 6.9 8.4zm4.8 2.6c0 .1-.2.6-.7.7-.5.2-1.1-.1-1.4-.5-.9-.9-1.7-1.8-2.6-2.7.2-.2.5-.4.7-.7.3-.3.6-.5.8-.8.6.6 1.2 1.2 1.9 1.8.5.5.9 1 1.4 1.5 0 .3 0 .5-.1.7z" class="st0"/><path d="M36.4 7.9c-2.9-1.3-6.3 1.4-5.8 4.5.2-.1 7.6-2.7 7.8-2.8-.5-.8-1.2-1.4-2-1.7z" class="st1"/><path d="M43 2.7H7C4.6 2.7 2.7 4.6 2.7 7v15.2L29 12.9c.1 0 .1 0 .2-.1-.6-2.7.9-5.4 3.5-6.4s5.6.2 6.8 2.7l.3-.1 7.4-2.7c-.3-2-2.1-3.6-4.2-3.6zm-21.9 7.7L13.2 18c-.1.1-.1.2-.2.3-.9.3-1.7.5-2.6.8-2 .8-2.5.6-2.6.4-.2-.3.1-.9.6-2.2.4-1.2.7-2.2.9-2.9 1.3-1.3 2.6-2.5 3.9-3.8 1.4-1.3 2.8-2.7 4.2-4 .1-.1.4-.2.7-.2.4 0 .8.3 1 .5 2.1 2.1 2.4 2.5 2.3 3-.2.1-.2.3-.3.5z" class="st1"/><path fill="none" stroke="#494949" stroke-linecap="round" stroke-linejoin="round" stroke-miterlimit="10" stroke-width="2.5" d="M47.3 7v36c0 2.4-1.9 4.4-4.3 4.4H7c-2.4 0-4.3-2-4.3-4.4V7c0-2.4 1.9-4.3 4.3-4.3h36c2.4 0 4.3 2 4.3 4.3zM25 2.7V46M2.7 24.4h43.5"/><path fill="#494949" fill-rule="evenodd" d="M37.5 8.9c-3.6-3.7-9.4 2-5.7 5.7 1.5 1.5 4.2 1.5 5.7 0 1.6-1.5 1.6-4.2 0-5.7zm2.1 6c.3.5 3.4 3 3.2 3.7 0 .9-1.3 1.9-2.1 1.1l-3-3c-5.6 3.7-12.1-4.4-7.2-9 4.7-4.9 12.8 1.6 9.1 7.2zm-1.9 1.4c-5.3 3.7-11.5-4-6.9-8.4 5.5-5.5 13.4 4.1 6.9 8.4zm4.6 1.8c.7.7-.7 2-1.3 1.3l-2.9-2.9c.5-.4 1-.8 1.3-1.3l2.9 2.9zm-6-10.3c2.8 1.1 3.6 5 1.4 7.1-1.6 1.7-4.5 1.7-6.1 0-3.3-3.2.5-9 4.7-7.1zM9.9 15.6L18.8 7c-.3-.4-.9-.8-1.4-.3l-8 7.8.5 1.1zM19 7.2l-8.8 8.6 1.9.8 8.3-8.1L19 7.2zm1.6 1.7l-8.3 8 .6 1.1 8-7.7c.3-.3.3-.7 0-1 0-.1-.3-.4-.3-.4zm-7.5 9.5c-.5.1-5 1.8-5.4 1.3-.6-.4 1.3-5 1.3-5.4.3-.2 8.5-8.7 8.9-8.2 1.2.2 2.3 2.2 3.3 2.9.4.4.4 1.1 0 1.5l-8.1 7.9zm-.4-.2l-2.5.7-.4-.9c0-.2-1-.1-1.1-.2l-.2-.5.7-2.3c.2.3.4 1.1.7 1.2.1.1 2 .8 2.1.9 0-.1.7 1 .7 1.1zm-4.4-.5c0 .2-.6 1.5-.4 1.7.1.3 1.7-.4 1.9-.4l-.3-.8c-.3-.1-1.2.1-1.2-.5zm4.8 17.9c.8-.6 1.6-1.2 2.5-1.8.8-.6 1.6-1.1 2.3-1.6l-4.8-3.3v2c-.6 0-2.1 0-3.5.9-2.3 1.4-2.7 3.9-2.8 4.3 0 .3-.4 3 1.6 5 .2.3 1.7 1.7 4 1.8.3 0 1.7 0 3.1-.8.3-.2 3-1.7 3.2-4.8.1-1.7-.5-2.9-.9-3.5-.8.5-1.5 1.1-2.3 1.6.6 1.4.1 3.1-1.1 3.9-1.1.8-2.6.8-3.8 0-1.3-1.1-1.6-2.9-.8-4.2.6-1.1 1.9-1.7 3.3-1.6v2.1zm1.8-.9c-.6.4-1.1.8-1.7 1.2 0 .1-.2.1-.3 0-.1 0-.1-.2-.1-.2v-1.8c-.3 0-.8 0-1.4.2-.9.4-1.3 1.2-1.5 1.5-.4 1-.3 2.4.6 3.3 1.1 1 2.9 1 4 0 .9-.8 1.2-2.2.7-3.4v-.1c0-.1.1-.1.1-.1.8-.6 1.6-1.1 2.4-1.7 0 0 0-.1.1 0h.1c.3.5 1.1 1.7 1.1 3.4 0 2.2-1.3 3.6-1.8 4.1-.4.4-1.8 1.9-4.2 2.1-2.8.2-4.6-1.6-4.9-1.9-1.7-1.7-2.4-4.4-1.4-6.8 1-2.4 3.4-4 6-4v-2c.2-.3 2 .9 5.4 3.5 0 0 .1.1.1.2s0 .2-.1.2c-.3.2-.5.4-.8.5-.7.7-1.6 1.2-2.4 1.8zm26.4-4.6H30.5v1.3h10.8v-1.3zM39 31.7V43c.6 0 1.7.2 1.7-.7V31.7H39zM38.6 43V31.7H36V43h2.6zm-2.9 0V31.7h-2.6V43h2.6zm-2.9 0V31.7h-1.7v10.6c0 .9 1.1.7 1.7.7zm2-13.2c.1-.2-.1-.9.2-.9h1.9c.3 0 .1.8.2.9h4.2s.1 0 .2.1c.1 0 .1.1.1.1v1.7h-.5v10.5c0 .2 0 .5-.2.7-.4.5-1.1.4-2.5.4h-5c-1.4 0-2.1.1-2.5-.4-.1-.2-.2-.4-.2-.6V31.7c-.1 0-.5 0-.6-.2v-1.4c0-.1 0-.2.1-.2.1-.1.2 0 .2 0 1.5-.1 3-.1 4.4-.1zm2 0v-.7h-1.7v.7h1.7z" clip-rule="evenodd"/></svg>