<svg xmlns="http://www.w3.org/2000/svg" id="Layer_1" x="0" y="0" version="1.1" viewBox="0 0 50 50" xml:space="preserve"><style>.st2,.st3{fill:#031326}</style><path fill="#89b8bd" d="M45.7 14.8c0-1.1-.6-2-1.5-2.6L34.1 6.4 4.3 17.2v18c0 1.1.6 2 1.5 2.6l3.4 2 36.4-13.3V14.8z"/><path fill="#99ced4" d="M27.2 2c-1-.5-2.1-.5-3.1 0L5.9 12.5c-1 .5-1.5 1.6-1.5 2.7v2.5L35.1 6.5 27.2 2z"/><path d="M16.5 29L13 25.5c-.1-.1-.1-.3 0-.4l12.2-12.2c.3-.3.7-.5 1.1-.5h6.5c.3 0 .4.3.2.5L16.9 29c-.1.1-.3.1-.4 0z" class="st2"/><path d="M22 35.3l2.2 2.2c.1.1.3.2.4.2h6.3c.5 0 .8-.6.4-1l-1.4-1.4-.9-.9" class="st3"/><path d="M31.1 24.7h-5.9c-.2 0-.4.1-.5.2l-2.8 2.8-3.3 3.3c-.1.1-.1.2-.2.3-.1.2-.1.5.1.7l2.9 2.9c.3.3.7.3 1 0l3.3-3.3 5.7-5.7c.6-.4.3-1.2-.3-1.2z" class="st2"/><path d="M25 49.6c-.7 0-1.5-.2-2.1-.6L5.2 38.9c-1.3-.8-2.1-2.2-2.1-3.7V14.8c0-1.5.8-2.9 2.1-3.7L22.9.9c1.3-.8 2.9-.8 4.2 0l17.7 10.2c1.3.8 2.1 2.2 2.1 3.7v20.4c0 1.5-.8 2.9-2.1 3.7L27.1 49.1c-.6.4-1.4.5-2.1.5zm0-46.7c-.3 0-.6.1-.9.2L6.5 13.3c-.5.3-.9.9-.9 1.5v20.4c0 .6.3 1.2.9 1.5l17.7 10.2c.5.3 1.2.3 1.7 0l17.7-10.2c.5-.3.9-.9.9-1.5V14.8c0-.6-.3-1.2-.9-1.5L25.9 3.1c-.3-.2-.6-.2-.9-.2z" class="st3"/></svg>