<svg xmlns="http://www.w3.org/2000/svg" id="Layer_1" x="0" y="0" version="1.1" viewBox="0 0 50 50" xml:space="preserve"><style>.st4,.st5{fill:none;stroke:#444;stroke-linecap:round;stroke-linejoin:round;stroke-miterlimit:10}.st5{stroke-width:.5}</style><path fill="#00dffc" d="M44.5 12.5l-5.6-3.6-7.6-4.4-5.9-2.8C22.2 1.7 4 10.6 4 13.8l-.5 7.8.5 15 11.4 7.5 30.9-11c.8-.4-.8-18.6-1.8-20.6z"/><path fill="none" stroke="#444" stroke-linecap="round" stroke-linejoin="round" stroke-miterlimit="10" stroke-width="2.5" d="M29.9 46.4l-2.2 1.3c-1.7 1-3.8 1-5.4 0l-15.5-9C5.1 37.7 4 35.9 4 34V16.1c0-2 1-3.7 2.7-4.7l15.5-8.9c1.7-1 3.8-1 5.4 0l15.5 8.9c1.7 1 2.7 2.8 2.7 4.7V34c0 2-1 3.7-2.7 4.7"/><path fill="#444" d="M11.1 16.6v-.1c.4-.3.7-.8.7-1.4 0-.9-.8-1.7-1.7-1.7-.9 0-1.7.8-1.7 1.7 0 .8.6 1.5 1.3 1.7v.1l6.7 27.6c.1.4.4.6.8.5h.1c.4-.1.6-.4.5-.8l-6.7-27.6z"/><path fill="none" stroke="#444" stroke-miterlimit="10" d="M36 29.6c.7 0 1.1.1 1.4.2.2.1.4-.1.4-.4l-4.1-15.2c0-.1-.1-.2-.2-.2-1.7-1.2-5.3.8-5.3.8-3.9 2-6.8 2.2-8 2.2-.4 0-.7-.3-.8-.6l-.1-.6c-.1-.5-.3-.8-.6-.8-2.2-.5-4.8.9-5.6 1.4-.2.1-.3.3-.2.5l3.5 14.7c.1.3.4.4.6.3 2.4-1.3 5-1.2 6-1.1.3 0 .5.2.5.5l.2.9c0 .1.1.3.3.3 2.3.8 4.3-.4 4.3-.4.6-.3 1.1-.6 1.6-.8"/><path d="M35.1 28.1l-3.6-4.3c-.3-.4-1-.2-1.1.3l-1.1 5.1c-.1.3-.1.7 0 1l4 14.9c.3 1 1.2 1.5 2.2 1.3l2.5-.6c1-.3 1.6-1.3 1.3-2.2L35.5 29c-.1-.4-.2-.7-.4-.9z" class="st4"/><path d="M35 28.5l-5.4 1.1" class="st5"/><path d="M33.1 25.7l-3.2.7" class="st4"/><path d="M33.5 28.8l4.3 17m-6.4-16.6l4.3 17.1m-9.5-25.8l.2-2.2 3.5 3.7" class="st5"/><ellipse cx="18.4" cy="25.1" class="st5" rx="1.4" ry="2.3"/></svg>