<svg xmlns="http://www.w3.org/2000/svg" id="Layer_1" x="0" y="0" version="1.1" viewBox="0 0 50 50" xml:space="preserve"><style>.st2{fill:none;stroke:#464646;stroke-miterlimit:10}.st4{fill:#464646}</style><path fill="#fcc34f" d="M42.6 22.3L36.4 29l-6.7 6.4L11.8 42l-2-2H7.5l3-15.6.6-3.9 26.6-6.6 1.9 8.5z"/><path fill="#fdcf72" d="M14.2 2.4l7.6 9.8L25 7.8l5.2 8.1 5.7-3.7 2.5 2.4-29 10.8 4.8-23"/><path d="M25.6 22.8l-4.1-8.2L8.9 38.5" class="st2"/><path d="M31.5 45.7l-4.9 2.9c-.9.5-1.9.5-2.8 0l-8-4.5c-.1-.1-.2 0-.3.1-.1.1 0 .2.1.3l8 4.5c.5.3 1 .4 1.6.4.6 0 1.2-.1 1.6-.3l4.7-2.8v-.6zm5.2-31.2l1.7 7.9h1.2c.6-.1.5 0 1.3-.1l-2.1-10.5c-.2-.8-.8-1.5-1.7-1.8-.8-.2-1.7 0-2.3.6l-4.3 4.3L27 8.3c-.4-.8-1.3-1.3-2.1-1.3-.9 0-1.7.5-2.1 1.3l-1.2 2.3-4.7-8.8C16.5.9 15.5.4 14.5.6c-1 .1-1.7.9-1.9 1.9L8.3 29.9c-.1.7.3 1.3 1 1.4.7.1 1.3-.3 1.4-1l4.2-26.9 6.8 12.7L25 9.8l5.1 9.4 5.1-5.1c1.1-1.2 1.4-.3 1.5.4z" class="st4"/><path d="M32.4 45.1c-.2-.3-.2-.3-.4-.5-.3-.2 0 0-.7-.7L26 46.7c-.6.3-1.3.2-1.9-.1l-8.2-4.5c-.6-.3-1.4-.1-1.7.5-.3.6-.1 1.4.5 1.7l8.1 4.6c.6.4 1.4.6 2.1.6.7 0 1.5-.2 2.2-.6l5.8-3.2c-.5-.5.1 0-.5-.6zM25 9.5z" class="st4"/><path d="M36.4 12.2L8.6 39.5" class="st2"/><path fill="none" stroke="#444" stroke-linecap="round" stroke-linejoin="round" stroke-miterlimit="10" stroke-width="2.5" d="M24 48L8 39.2l6.3-37.3"/><path fill="none" stroke="#464646" stroke-linecap="round" stroke-linejoin="round" stroke-miterlimit="10" stroke-width=".75" d="M32.3 44.9l9.5-10.2h-7.1l-6.5 6.6 6 5.9h7.6m0 0l-9.5-9.7M26.5 39l-4-3.8 12.8-12.9h7.8z"/></svg>