<svg xmlns="http://www.w3.org/2000/svg" viewBox="0 0 50 50"><path fill="#00c8e2" d="M5 45.4l41.8-15.2V8.6c0-3-2.4-5.4-5.4-5.4H8.6c-3 0-5.4 2.4-5.4 5.4v32.8c0 1.5.7 3 1.8 4z"/><path fill="#00dffc" d="M45 4.6c-1-.9-2.3-1.4-3.6-1.4H8.6c-3 0-5.4 2.4-5.4 5.4v11.3C3.2 19.8 45 4.6 45 4.6z"/><path fill="#444" d="M25 48.1H8.5c-3.6 0-6.6-3-6.6-6.6v-33c0-3.6 2.9-6.6 6.6-6.6h33.1c3.6 0 6.6 2.9 6.6 6.6v21.7c0 .6-.5 1.2-1.2 1.2s-1.2-.5-1.2-1.2V8.5c0-2.3-1.9-4.2-4.2-4.2H8.5c-2.3 0-4.2 1.9-4.2 4.2v33.1c0 2.3 1.9 4.2 4.2 4.2H25c.6 0 1.2.5 1.2 1.1s-.5 1.2-1.2 1.2c.1 0 0 0 0 0z"/><g fill="none" stroke="#494949" stroke-linecap="round" stroke-linejoin="round" stroke-miterlimit="10"><path d="M18.4 37.6h-4.8l9-25.2h4.8l9 25.2H31L28.6 31h-7.2m-3.6 10.2L28.6 9.4m-3.5 10.3l2.4 7.1"/><path stroke-width=".5" d="M36.4 44.2V43m0-1.2v-1.2m0-12v-1.2m0 3.6v-1.2m0-3.6V25m0-1.2v-1.2m0-1.2v-1.2m0-3.6v-1.2m0 3.6v-1.2m0-8.4V8.2m0-1.2V5.8M13.6 44.2V43m0-1.2v-1.2m0-12v-1.2m0 3.6v-1.2m0-3.6V25m0-1.2v-1.2m0-1.2v-1.2m0-3.6v-1.2m0 3.6v-1.2m0-8.4V8.2m0-1.2V5.8m30.6 6.6H43m-3.6 0h-1.2m3.6 0h-1.2m-3.6 0h-1.2m-1.2 0h-1.2m-1.2 0H31m-14.4 0h-1.2m3.6 0h-1.2m-3.6 0H13m-1.2 0h-1.2m-1.2 0H8.2m-1.2 0H5.8M43 37.6h-1.2m-1.2 0h-1.2m-11.4 0h-1.2m-1.2 0h-1.2m-1.2 0H22m-11.4 0H9.4m-1.2 0H7"/></g></svg>