<svg xmlns="http://www.w3.org/2000/svg" fill="none" viewBox="0 0 50 50"><path fill="#FF6B6B" d="M30.27 3.16L23.8 1.98c-1.17 0-18.42 10.03-18.42 11.2l-.71 7.76L38.62 8.82l-.57-.33c.01-1.17-6.6-5.33-7.78-5.33z"/><path fill="#E56060" d="M4.52 22.95l-.23 12c-.16 2.23 8.78 8.72 10.89 7.97l32.25-11.37c-.09-1.45-.77-17-1.6-18.67l-4.85-2.1a3.109 3.109 0 00-3.83-1.54L5.19 20.71c-1.16.41-.58 1.02-.67 2.24z"/><path stroke="#444" stroke-linecap="round" stroke-linejoin="round" stroke-miterlimit="10" stroke-width=".5" d="M12.54 23.89l13.72-13.73 7.87-.04L16.45 27.8l-3.91-3.91zm21.3 13.27h-8.13l-6.72-6.72 7.13-7.5h8.01L23.02 34.53m10.82 2.63L22.95 26.27"/><path stroke="#444" stroke-linecap="round" stroke-linejoin="round" stroke-miterlimit="10" stroke-width=".5" d="M29.68 32.98l4.16 4.18h-8.13"/><path stroke="#444" stroke-linecap="round" stroke-linejoin="round" stroke-miterlimit="10" d="M14.12 18.23l-8.74-5.05L25.72 1.44l20.35 11.74-13.39 7.73m-6.96 18.13v9.56"/><path stroke="#444" stroke-linecap="round" stroke-linejoin="round" stroke-miterlimit="10" stroke-width="2.5" d="M46.64 31.63V15.16c0-1.37-.73-2.64-1.92-3.32L27.64 1.98a3.82 3.82 0 00-3.84 0L6.73 11.84a3.834 3.834 0 00-1.92 3.32v19.72c0 1.37.73 2.64 1.92 3.32l17.08 9.86c1.19.69 2.65.69 3.84 0l10.32-5.96"/></svg>