<svg xmlns="http://www.w3.org/2000/svg" id="Layer_1" x="0" y="0" version="1.1" viewBox="0 0 50 50" xml:space="preserve"><style>.st2{fill:#494949}</style><path fill="#e589ef" d="M38.7 5.2L9.8 15.7v17.8l8.6-3.1v-9.2h13v4.5l8.9-3.3V6.9c-.7-.4-1.3-1-1.6-1.7zM13.9 22.3c-1.6 0-1.6-2.5 0-2.5s1.6 2.5 0 2.5zm4.5-4.6c-1.6 0-1.6-2.5 0-2.5 1.7 0 1.7 2.5 0 2.5z"/><path fill="#f799ff" d="M38.6 5.1H11.4c-.4.6-1 1-1.7 1.3v14.9l3.3-1.2c.2-.2.5-.3.9-.3h.1l26.4-9.4V6.9c-.9-.4-1.5-1.1-1.8-1.8zM18.4 17.7c-1.6 0-1.6-2.5 0-2.5 1.7 0 1.7 2.5 0 2.5z"/><path d="M37.5 45.4h-25c-1.8 0-3.3-1.5-3.3-3.3V7.9c0-1.8 1.5-3.3 3.3-3.3h25c1.8 0 3.3 1.5 3.3 3.3v34.3c0 1.8-1.5 3.2-3.3 3.2zm-25-39.5c-1.1 0-2 .9-2 2v34.3c0 1.1.9 2 2 2h25c1.1 0 2-.9 2-2V7.9c0-1.1-.9-2-2-2h-25z" class="st2"/><path d="M24.3 7.6h1.3v1.3h-1.3zm10.6 27.3H17.7V17.7h1.4v15.9h15.8z" class="st2"/><path d="M32.3 37.5h-1.4V21.7H15.1v-1.3h17.2zM18.4 18.4c-1.1 0-2-.9-2-2s.9-2 2-2 2 .9 2 2-.9 2-2 2zm0-2.6c-.4 0-.7.3-.7.7s.3.7.7.7c.4 0 .7-.3.7-.7s-.3-.7-.7-.7zm17.8 20.4c-1.1 0-2-.9-2-2s.9-2 2-2 2 .9 2 2-.9 2-2 2zm0-2.6c-.4 0-.7.3-.7.7s.3.7.7.7c.4 0 .7-.3.7-.7s-.3-.7-.7-.7z" class="st2"/><path d="M31.6 40.8c-1.1 0-2-.9-2-2s.9-2 2-2 2 .9 2 2-.9 2-2 2zm0-2.6c-.4 0-.7.3-.7.7s.3.7.7.7.7-.3.7-.7-.3-.7-.7-.7zM13.8 23c-1.1 0-2-.9-2-2s.9-2 2-2 2 .9 2 2-.9 2-2 2zm0-2.6c-.4 0-.7.3-.7.7s.3.7.7.7.7-.3.7-.7-.3-.7-.7-.7zM24.3 27h1.3v1.3h-1.3zm2.7 0h1.3v1.3H27zm-5.3 0H23v1.3h-1.3zm2.6-2.7h1.3v1.3h-1.3zm0 5.3h1.3v1.3h-1.3z" class="st2"/><path d="M39 2.7c2 0 3.6 1.6 3.6 3.6v37.4c0 2-1.6 3.6-3.6 3.6H11c-2 0-3.6-1.6-3.6-3.6V6.3c0-2 1.6-3.6 3.6-3.6h28m0-2.5H11C7.6.2 4.9 3 4.9 6.3v37.4c0 3.4 2.7 6.1 6.1 6.1h28c3.4 0 6.1-2.7 6.1-6.1V6.3C45.1 3 42.4.2 39 .2z" class="st2"/></svg>