<svg xmlns="http://www.w3.org/2000/svg" id="Layer_1" x="0" y="0" version="1.1" viewBox="0 0 50 50" xml:space="preserve"><style>.st3{fill:#494949}</style><path fill="#46b8b0" d="M6.6 38.2l2.2.9 37.9-13.7-1-9.7c0-1.6-.9-3.1-2.3-3.9L27.3 2.5c-1.4-.8-3.1-.8-4.6 0L6.6 11.8c-1.4.8-2.3 2.3-2.3 3.9v18.6c0 1.6.9 3.1 2.3 3.9z"/><path fill="#4ecdc4" d="M35.9 7.5l-8.6-5c-1.4-.8-3.1-.8-4.6 0L6.6 11.8c-1.4.8-2.3 2.3-2.3 3.9V19L35.9 7.5z"/><path fill="#444" d="M25 49.4c-1 0-2-.3-2.9-.8L6 39.3c-1.8-1-2.9-2.9-2.9-5V15.7c0-2.1 1.1-4 2.9-5l16.1-9.3c1.8-1 4-1 5.8 0L44 10.7c1.8 1 2.9 2.9 2.9 5v13.6c0 .7-.5 1.2-1.2 1.2s-1.2-.5-1.2-1.2V15.7c0-1.2-.6-2.3-1.7-2.9L26.7 3.5c-1-.6-2.3-.6-3.3 0L7.2 12.8c-1 .6-1.7 1.7-1.7 2.9v18.6c0 1.2.6 2.3 1.7 2.9l16.1 9.3c1 .6 2.3.6 3.3 0l4.4-2.6c.6-.3 1.3-.1 1.7.4.3.6.1 1.3-.4 1.7l-4.4 2.6c-.9.5-1.9.8-2.9.8z"/><path d="M35.3 18.3c-.8-2.2-2.5-4-4.6-5-2.7-1.2-5.6-1-8 .2-.7.4-1.3.8-1.9 1.4v1.5c.7-.8 1.5-1.5 2.4-2 2.1-1.1 4.7-1.3 7.1-.2 1.9.9 3.4 2.5 4.1 4.5.7 2 .6 4.2-.3 6.1l-2.4 5.1c-1.2 2.6-.9 6.2-.6 8l-19.5-9.1c1.5-.9 4.5-2.9 5.7-5.6l2.2-4.6.2-.5c.2-.3.3-.6.5-.9H20v-1.5c-.5.6-.9 1.2-1.3 2l-.2.5-2.1 4.6c-1.5 3.2-6.1 5.6-6.1 5.6-.2.1-.3.3-.3.5s.1.4.3.4l8.1 3.8 5 2.3 8.1 3.8h.2c.1 0 .2 0 .3-.1.2-.1.2-.3.2-.5 0 0-1.1-5.1.3-8.3l2.4-5.1c1.1-2.3 1.2-4.7.4-6.9z" class="st3"/><path d="M23.7 34.9c-.7 1.4-2.3 2-3.7 1.4-1.4-.7-2-2.3-1.4-3.7l5.1 2.3zm-.6-20.6c-.1-.3-.3-.6-.5-.9-.6-.8-1.5-1.2-2.5-1.2-1.7 0-3.2 1.4-3.2 3.2 0 1.2.6 2.2 1.5 2.7.3.2.6.3.9.4.2.1.5.1.7.1 1.7 0 3.2-1.4 3.2-3.2.1-.4 0-.7-.1-1.1zm-2.4 2.8H20v-2.7h-.5v-.7h1.1v3.4z" class="st3"/></svg>