<svg xmlns="http://www.w3.org/2000/svg" id="Layer_1" x="0" y="0" version="1.1" viewBox="0 0 50 50" xml:space="preserve"><style>.st2{stroke-width:.5}.st2,.st3{fill:none;stroke:#444;stroke-linecap:round;stroke-linejoin:round;stroke-miterlimit:10}</style><path fill="#dc5e82" d="M34.8 2.2l-21.7.1c-1.5 0-2.8 3.8-2.8 5.2L10 19.7c-.2 4-.7 5.8.1 6.8l.3 3.3-.1 14.9c0 1 1.6 2.7 2.6 2.8l9.2.7L38 42.6l.4-13.1s.3-1.1.2-3.4c-.3-4.1.1-5.7-.1-6.7l-1-14.3v-.2c0-1.5-1.2-2.7-2.7-2.7z"/><path fill="none" stroke="#444" stroke-linecap="round" stroke-linejoin="round" stroke-miterlimit="10" stroke-width="2.5" d="M26.8 48.4H15.4c-2.8 0-5.1-2.3-5.1-5.1h0V7.1c0-2.8 2.3-5.1 5.1-5.1h17.5C35.7 2 38 4.3 38 7.1v35.8"/><path d="M28.1 5.8h-7.8c-.8 0-1.5-.7-1.5-1.5V2.1h10.7v2.2c0 .8-.6 1.5-1.4 1.5z" class="st2"/><path d="M18 15.8h16.8v19.6H18zm0 0c0-1.2-1-2.2-2.2-2.2s-2.2 1-2.2 2.2V36" class="st3"/><path d="M18 35.5c-.2-1-1.2-1.7-2.2-1.7-1.2 0-2.2 1-2.2 2.2 0 1.2 1 2.2 2.2 2.2h15.7v-2.6" class="st3"/><path d="M19.7 18.6h6.7m-6.2 2.3h12.4v9H20.2z" class="st2"/><path d="M24.7 23.1v4.5l3.9-2.2z" class="st3"/></svg>