<svg xmlns="http://www.w3.org/2000/svg" id="Camada_3" x="0" y="0" version="1.1" viewBox="0 0 50 50" xml:space="preserve"><style>.st3{fill:#424242}</style><path fill="#46b8b0" d="M48.33 8.26l.23-2.62a3.301 3.301 0 00-3.27-3.59L5.9 1.8a3.31 3.31 0 00-3.33 3.3v16.7l-.08 6.38.08-.02v3.56l-.25 12.29a3.3 3.3 0 003.33 3.37l17.96-.18c.38 0 .76-.07 1.12-.21l21.42-8.02a3.289 3.289 0 002.14-3.09V23.64l.1-9.24.47-.14-.54-5.38c0-.21-.01-.41.01-.62z"/><path fill="none" stroke="#444" stroke-linecap="round" stroke-linejoin="round" stroke-miterlimit="10" stroke-width="2.5" d="M38.61 48.1H5.92a3.35 3.35 0 01-3.35-3.35V6.13c0-1.85 1.5-3.35 3.35-3.35h39.03c1.85 0 3.35 1.5 3.35 3.35v32.03"/><path fill="none" stroke="#424242" stroke-miterlimit="10" d="M3.69 10.79h44"/><circle cx="7.13" cy="7.37" r="1.36" class="st3"/><circle cx="11.57" cy="7.37" r="1.36" class="st3"/><circle cx="16.02" cy="7.37" r="1.36" class="st3"/><path fill="none" stroke="#444" stroke-linecap="round" stroke-linejoin="round" stroke-miterlimit="10" stroke-width=".5" d="M25.39 14.31H15.06m16.76 0h-4.74m2.15 2.92H18.9m23.92 2.84H32.5m3.16-2.84h-4.75m12.25 0h-6.62m-11.82 5.72H14.4m16.75 0h-4.74m2.15 2.92H18.23m16.76 0h-4.74m12.25 0h-6.62m-11.27 2.54H14.29m16.75 0H26.3m2.15 2.92H18.12m16.76 0h-4.75m12.26 0h-6.62M23.6 20.16h-4.74m12.25 0h-6.62M8.12 14.28H6.2m1.92 2.99H6.2m1.92 2.57H6.2m1.92 2.99H6.2m1.92 2.61H6.2m1.92 2.99H6.2M8.12 31H6.2m1.92 2.99H6.2m1.92 2.93H6.2m1.92 2.99H6.2m1.92 2.56H6.2m19.19-8.36H15.06m16.76 0h-4.74m2.15 2.86H18.9m23.92 2.78H32.5m3.16-2.78h-4.75m12.25 0h-6.62m-11.82 5.6H14.4m16.75 0h-4.74m-2.81-2.73h-4.74m12.25 0h-6.62M10.4 10.77v36.6"/></svg>