<svg xmlns="http://www.w3.org/2000/svg" id="Camada_1" x="0" y="0" version="1.1" viewBox="0 0 50 50" xml:space="preserve"><style>.st3{fill:none;stroke-miterlimit:10;stroke-linecap:round;stroke-linejoin:round;stroke:#494949;stroke-width:2.5}.st5{fill:#494949}</style><path fill="#a475ef" d="M46.9 5.1H31.3L3.1 15.4v18.5L46.9 18z"/><path fill="#bf94f7" d="M46.9 5.1H3.1v16L46.9 5.5z"/><path fill="#a475ef" d="M46.3 7h-.1z"/><path d="M19.5 44.9c-5.5 0-11 .1-16.5.1V5h44v25.5M3 11h44" class="st3"/><path fill="none" stroke="#505050" stroke-miterlimit="10" stroke-width="2" d="M6 8h2m2 0h2m2 0h2"/><path d="M24.1 45v-8.4c0-1.2.9-2.1 2.1-2.1h1c1.2 0 2.1.9 2.1 2.1V45m-4.5-4.2h3.9m4.9 0h3.1c1.2 0 2.1-.9 2.1-2.1v-2.1c0-1.2-.9-2.1-2.1-2.1h-3.1V45m11.1-10.5V45m-2.4-10.5H47M42.3 45H47" class="st3"/><path d="M28.2 17.6l-1.4-3.7c-.1-.3-.3-.5-.5-.6h-1.2l-1.4.5c-.1-.2-.3-.4-.4-.5h-1.5c.5.5.9 1 1.2 1.5.1.2.4.3.7.2l2-.8 1.4 3.7-2 .8c-.3.1-.4.4-.4.6.2 1.3.2 2.6-.1 3.9-.1.3.1.5.3.6l2 .9-1.6 3.6-2-.9c-.2-.1-.5 0-.7.2-.8 1-1.7 1.9-2.8 2.7-.2.1-.3.4-.2.7l.8 2-3.7 1.4-.8-2c-.1-.3-.4-.4-.6-.4-1.3.2-2.6.2-3.9-.1-.3-.1-.5.1-.6.3l-.9 2-3.6-1.6.9-2c.1-.2 0-.5-.2-.7-.6-.4-1.1-.9-1.6-1.5V30c.2.2.4.4.6.5l-.6 1.3v1.4c.1.2.3.3.5.4l3.6 1.6c.6.3 1.3 0 1.5-.6l.7-1.6c1.1.2 2.2.2 3.3.1l.6 1.6c.2.6.9.9 1.5.7l3.7-1.4c.6-.2.9-.9.7-1.5l-.6-1.5c.9-.7 1.7-1.4 2.4-2.3l1.6.7c.6.3 1.3 0 1.5-.6l1.6-3.6c.3-.6 0-1.3-.6-1.5l-1.5-.7c.2-1.1.2-2.2.1-3.4l1.6-.6c.5-.2.8-.8.6-1.4z" class="st5"/><path d="M21.5 20.1c-.3 0-.6.3-.6.6.1 3.1-1.7 6-4.7 7.1-1.9.7-3.9.6-5.6-.2-1.7-.8-3.1-2.2-3.8-4-1.4-3.7.4-8 4.2-9.4 3-1.2 6.5-.2 8.4 2.4.2.3.6.3.8.1.3-.2.3-.6.1-.8-.9-1.2-2.1-2.1-3.4-2.7h-6.7c-2.6 1.1-4.4 3.5-4.9 6.1v3.1c.1.5.2 1 .4 1.4.8 2.2 2.5 3.8 4.4 4.7 2 .9 4.3 1 6.4.2 3.4-1.3 5.6-4.6 5.4-8.2.2-.2-.1-.4-.4-.4z" class="st5"/><path d="M20.9 18.9l-.3-.3c-.1-.1 0-.3 0-.4l.3-.3c.1-.1.3 0 .4 0l.3.3c.1.1.1.3 0 .4l-.3.3c-.1.1-.3.1-.4 0z" class="st5"/></svg>