<svg xmlns="http://www.w3.org/2000/svg" id="Layer_1" x="0" y="0" version="1.1" viewBox="0 0 50 50" xml:space="preserve"><style>.st2{fill:none;stroke:#464646;stroke-miterlimit:10}.st3{fill:#464646}</style><path fill="#afe55d" d="M43.29 22.27l-6.2 6.7-6.7 6.4-17.9 6.6-2-2h-2.3l3-15.6.6-3.9 26.6-6.6 1.9 8.5 3-.1z"/><path fill="#c3ff68" d="M14.89 2.37l7.6 9.8 3.2-4.4 5.2 8.1 5.7-3.7 2.5 2.4-29 10.8 4.8-23"/><path d="M26.29 22.77l-4.1-8.2-12.6 23.9" class="st2"/><path d="M32.19 45.67l-4.9 2.9c-.9.5-1.9.5-2.8 0l-8-4.5c-.1-.1-.2 0-.3.1-.1.1 0 .2.1.3l8 4.5c.5.3 1 .4 1.6.4s1.2-.1 1.6-.3l4.7-2.8v-.6zm5.2-31.2l1.7 7.9h1.2c.6-.1.5 0 1.3-.1l-2.1-10.5c-.2-.8-.8-1.5-1.7-1.8-.8-.2-1.7 0-2.3.6l-4.3 4.3-3.5-6.6c-.4-.8-1.3-1.3-2.1-1.3-.9 0-1.7.5-2.1 1.3l-1.2 2.3-4.7-8.8c-.4-.9-1.4-1.4-2.4-1.2-1 .1-1.7.9-1.9 1.9l-4.3 27.4c-.1.7.3 1.3 1 1.4s1.3-.3 1.4-1l4.2-26.9 6.8 12.7 3.3-6.3 5.1 9.4 5.1-5.1c1.1-1.2 1.4-.3 1.5.4z" class="st3"/><path d="M33.09 45.07c-.2-.3-.2-.3-.4-.5-.3-.2 0 0-.7-.7l-5.3 2.8c-.6.3-1.3.2-1.9-.1l-8.2-4.5c-.6-.3-1.4-.1-1.7.5s-.1 1.4.5 1.7l8.1 4.6c.6.4 1.4.6 2.1.6s1.5-.2 2.2-.6l5.8-3.2c-.5-.5.1 0-.5-.6z" class="st3"/><path d="M37.09 12.17l-27.8 27.3" class="st2"/><path fill="none" stroke="#444" stroke-linecap="round" stroke-linejoin="round" stroke-miterlimit="10" stroke-width="2.5" d="M24.69 47.97l-16-8.8 6.3-37.3"/><path fill="none" stroke="#464646" stroke-linecap="round" stroke-linejoin="round" stroke-miterlimit="10" stroke-width=".75" d="M32.99 44.87l9.5-10.2h-7.1l-6.5 6.6 6 5.9h7.6m0 0l-9.5-9.7m-5.8 1.5l-4-3.8 12.8-12.9h7.8l-16.6 16.7z"/></svg>