<svg xmlns="http://www.w3.org/2000/svg" viewBox="0 0 50 50"><path fill="#afe55d" d="M45.3 24.9l.5 4.1L4.2 44.2l-.1-8.7.2-5 41.5-15.1-.6 3.5z"/><path fill="#c3ff68" d="M45 9l-.3 7.3L4 31.2l-.2-9.4.2-4.2 41-15z"/><path fill="none" stroke="#031326" stroke-linecap="round" stroke-linejoin="round" stroke-miterlimit="10" stroke-width="2.5" d="M24.1 48.2H4.2V1.5h41.6v27.4"/><path fill="none" stroke="#031326" stroke-linecap="round" stroke-linejoin="round" stroke-miterlimit="10" stroke-width="1.5" d="M10.7 9.5h24.1M10.7 14h16.5m-16.5 4.6h22.1M11.1 35.3l10.3-7.6 8.1 1.2 7.5-5.5"/><path fill="#031326" stroke="#031326" stroke-miterlimit="10" stroke-width=".5" d="M44.5 41.4h-2.4v-.8c1.2-.2 2.1-1.2 2.1-2.5v-.5c0-.2-.2-.4-.4-.4s-.4.2-.4.4v.5c0 .8-.6 1.5-1.3 1.7v-.3c0-.4-.3-.7-.7-.7H41v-1.5c0-.8-.6-1.5-1.4-1.7l.3-.7c.1-.2 0-.4-.2-.5-.2-.1-.4 0-.5.2l-.4 1h-1.6l-.4-1c-.1-.2-.3-.3-.5-.2-.2.1-.3.3-.2.5l.3.7c-.8.2-1.4.8-1.4 1.7v1.5h-.4c-.4 0-.7.3-.7.7v.3c-.8-.2-1.3-.9-1.3-1.7v-.5c0-.2-.2-.4-.4-.4s-.4.2-.4.4v.5c0 1.2.9 2.3 2.1 2.5v.8h-2.4c-.2 0-.4.2-.4.4s.2.4.4.4h2.4v.8c-1.2.2-2.1 1.2-2.1 2.5v.5c0 .2.2.4.4.4s.4-.2.4-.4v-.5c0-.8.6-1.5 1.3-1.7v.2c0 2.3 1.8 4.1 4.1 4.1s4.1-1.8 4.1-4.1v-.2c.8.2 1.3.9 1.3 1.7v.5c0 .2.2.4.4.4s.4-.2.4-.4v-.5c0-1.2-.9-2.3-2.1-2.5v-.8h2.4c.2 0 .4-.2.4-.4-.1-.3-.2-.4-.4-.4zm-8.7-4.1c0-.5.4-.9.9-.9h2.6c.5 0 .9.4.9.9v1.5h-4.5v-1.5zm5.5 6.7c0 1.8-1.5 3.3-3.3 3.3-1.8 0-3.3-1.5-3.3-3.3v-4.5h2.9v3.8c0 .2.2.4.4.4s.4-.2.4-.4v-3.8h2.9V44z"/></svg>