<svg xmlns="http://www.w3.org/2000/svg" xmlns:xlink="http://www.w3.org/1999/xlink" id="Layer_1" x="0" y="0" version="1.1" viewBox="0 0 50 50" xml:space="preserve"><style>.st2{fill:#444}</style><path fill="#46b8b0" d="M47.6 25.6l.2 4-.1 2.1-41 14.9-3.2-2-.4-15L35.4 15h12.1l.4 4.8z"/><path fill="#4ecdc4" d="M15.1 14.7l19.6.2 9.5.1L3.1 29.6V7.2l2.6-3.8H11l3.8 3.4z"/><path d="M21.4 20.4c.2-.2.2-.6 0-.9l-.7-.7h-.8l-.7.7c-.2.2-.2.6 0 .9.1.1.3.2.4.2h.1v19.9c-.2 0-.4 0-.6.2-.2.2-.2.6 0 .9l.7.7c.1.1.3.2.4.2s.3-.1.4-.2l.7-.7c.2-.2.2-.6 0-.9-.1-.2-.4-.2-.6-.2V20.6c.3 0 .5-.1.7-.2zm19.9 22c-.2-.2-.6-.2-.8 0-.2.1-.2.4-.2.6H27.6c0-.2 0-.4-.2-.6-.2-.2-.6-.2-.8 0l-.7.7c-.2.2-.2.6 0 .8l.7.7c.1.1.3.2.4.2.1 0 .3-.1.4-.2.2-.1.2-.4.2-.6h12.7c0 .2 0 .4.2.6.1.1.3.2.4.2.2 0 .3-.1.4-.2l.7-.6c.2-.2.2-.6 0-.8l-.7-.8z" class="st2"/><path d="M39.7 46.7H9.2c-2.6 0-4.9-1.7-5.5-4.2-1.1-4.9 4.4-9.1 9.3-5.3 1.2.9 1.6 2.4 1.5 4 0 .3.3.6.6.6s.6-.3.6-.6V15.5h31.5v26.9c.1.6 1 .7 1.2-.1V14.9c0-.3-.3-.6-.6-.6H15.6V9.1c0-3.2-2.1-6.1-5.3-6.8-4.3-.9-8 2.4-8 6.5v32.4c0 3.7 3 6.7 6.7 6.7h30.6c.8-.1.8-1.1.1-1.2zM3.5 8.9c0-3.4 3.1-6.1 6.6-5.3 2.6.5 4.3 2.9 4.3 5.6v28.4c-1.2-1.7-3.2-2.9-5.5-2.9s-4.3 1.1-5.5 2.9V8.9z" class="st2"/><g transform="translate(-.56 8.162) scale(.03882)"><path id="SVGID_1_" d="M1073.3 848.2h-169c-3.4 0-6.6-1.3-9.1-3.8l-148-148c-5-5-5-13.2 0-18.1l148-148c2.4-2.4 5.6-3.8 9.1-3.8h169c5.2 0 9.9 3.1 11.9 7.9s.9 10.3-2.8 14l-138.8 139 138.9 138.9c3.7 3.7 4.8 9.2 2.8 14-2.1 4.7-6.8 7.9-12 7.9zm-163.8-25.7h132.8l-126-126.1c-5-5-5-13.2 0-18.1l126.1-126.1H909.5L774.4 687.3l135.1 135.2zM714 657.9c-3.4 0-6.6-1.3-9.1-3.8l-84.5-84.5c-5-5-5-13.2 0-18.1l274.8-274.8c2.4-2.4 5.6-3.8 9.1-3.8h169c5.2 0 9.9 3.1 11.9 7.9 2 4.8.9 10.3-2.8 14L723.1 654.1c-2.4 2.5-5.7 3.8-9.1 3.8zm-66.3-97.4l66.4 66.4 328.3-328.3H909.5L647.7 560.5z" class="st2"/></g><g transform="translate(-.56 8.162) scale(.03882)"><defs><path id="SVGID_00000168829064613328905080000012954099216340212613_" d="M1073.3 848.2h-169c-3.4 0-6.6-1.3-9.1-3.8l-148-148c-5-5-5-13.2 0-18.1l148-148c2.4-2.4 5.6-3.8 9.1-3.8h169c5.2 0 9.9 3.1 11.9 7.9s.9 10.3-2.8 14l-138.8 139 138.9 138.9c3.7 3.7 4.8 9.2 2.8 14-2.1 4.7-6.8 7.9-12 7.9zm-163.8-25.7h132.8l-126-126.1c-5-5-5-13.2 0-18.1l126.1-126.1H909.5L774.4 687.3l135.1 135.2zM714 657.9c-3.4 0-6.6-1.3-9.1-3.8l-84.5-84.5c-5-5-5-13.2 0-18.1l274.8-274.8c2.4-2.4 5.6-3.8 9.1-3.8h169c5.2 0 9.9 3.1 11.9 7.9 2 4.8.9 10.3-2.8 14L723.1 654.1c-2.4 2.5-5.7 3.8-9.1 3.8zm-66.3-97.4l66.4 66.4 328.3-328.3H909.5L647.7 560.5z"/></defs><clipPath id="SVGID_00000042706386295497259270000006235640039010002333_"><use overflow="visible" xlink:href="#SVGID_00000168829064613328905080000012954099216340212613_"/></clipPath><g clip-path="url(#SVGID_00000042706386295497259270000006235640039010002333_)"><path d="M840.8 784.8c-3.3 0-6.6-1.3-9.1-3.8l-84.5-84.5c-5-5-5-13.2 0-18.1l147.9-148c2.4-2.4 5.6-3.8 9.1-3.8h169c7.1 0 12.8 5.8 12.8 12.8 0 7.1-5.8 12.8-12.8 12.8H909.5l-135 135.1 75.4 75.5c5 5 5 13.2 0 18.1-2.6 2.6-5.8 3.9-9.1 3.9z" class="st2"/></g></g><g transform="translate(-.56 8.162) scale(.03882)"><path id="SVGID_3_" d="M1073.3 848.2h-169c-3.4 0-6.6-1.3-9.1-3.8l-148-148c-5-5-5-13.2 0-18.1l148-148c2.4-2.4 5.6-3.8 9.1-3.8h169c5.2 0 9.9 3.1 11.9 7.9s.9 10.3-2.8 14l-138.8 139 138.9 138.9c3.7 3.7 4.8 9.2 2.8 14-2.1 4.7-6.8 7.9-12 7.9zm-163.8-25.7h132.8l-126-126.1c-5-5-5-13.2 0-18.1l126.1-126.1H909.5L774.4 687.3l135.1 135.2zM714 657.9c-3.4 0-6.6-1.3-9.1-3.8l-84.5-84.5c-5-5-5-13.2 0-18.1l274.8-274.8c2.4-2.4 5.6-3.8 9.1-3.8h169c5.2 0 9.9 3.1 11.9 7.9 2 4.8.9 10.3-2.8 14L723.1 654.1c-2.4 2.5-5.7 3.8-9.1 3.8zm-66.3-97.4l66.4 66.4 328.3-328.3H909.5L647.7 560.5z" class="st2"/></g><g transform="translate(-.56 8.162) scale(.03882)"><defs><path id="SVGID_00000062185127848073029300000006807077605685561763_" d="M1073.3 848.2h-169c-3.4 0-6.6-1.3-9.1-3.8l-148-148c-5-5-5-13.2 0-18.1l148-148c2.4-2.4 5.6-3.8 9.1-3.8h169c5.2 0 9.9 3.1 11.9 7.9s.9 10.3-2.8 14l-138.8 139 138.9 138.9c3.7 3.7 4.8 9.2 2.8 14-2.1 4.7-6.8 7.9-12 7.9zm-163.8-25.7h132.8l-126-126.1c-5-5-5-13.2 0-18.1l126.1-126.1H909.5L774.4 687.3l135.1 135.2zM714 657.9c-3.4 0-6.6-1.3-9.1-3.8l-84.5-84.5c-5-5-5-13.2 0-18.1l274.8-274.8c2.4-2.4 5.6-3.8 9.1-3.8h169c5.2 0 9.9 3.1 11.9 7.9 2 4.8.9 10.3-2.8 14L723.1 654.1c-2.4 2.5-5.7 3.8-9.1 3.8zm-66.3-97.4l66.4 66.4 328.3-328.3H909.5L647.7 560.5z"/></defs><clipPath id="SVGID_00000057859333297851979800000011526121698510491031_"><use overflow="visible" xlink:href="#SVGID_00000062185127848073029300000006807077605685561763_"/></clipPath><g clip-path="url(#SVGID_00000057859333297851979800000011526121698510491031_)"><path d="M714 657.9c-3.4 0-6.6-1.3-9.1-3.8l-84.5-84.5c-5-5-5-13.2 0-18.1l274.8-274.8c2.4-2.4 5.6-3.8 9.1-3.8h169c5.2 0 9.9 3.1 11.9 7.9 2 4.8.9 10.3-2.8 14L723.1 654.1c-2.4 2.5-5.7 3.8-9.1 3.8zm-66.3-97.4l66.4 66.4 328.3-328.3H909.5L647.7 560.5z" class="st2"/></g></g><g transform="translate(-.56 8.162) scale(.03882)"><path id="SVGID_5_" d="M1073.3 848.2h-169c-3.4 0-6.6-1.3-9.1-3.8l-148-148c-5-5-5-13.2 0-18.1l148-148c2.4-2.4 5.6-3.8 9.1-3.8h169c5.2 0 9.9 3.1 11.9 7.9s.9 10.3-2.8 14l-138.8 139 138.9 138.9c3.7 3.7 4.8 9.2 2.8 14-2.1 4.7-6.8 7.9-12 7.9zm-163.8-25.7h132.8l-126-126.1c-5-5-5-13.2 0-18.1l126.1-126.1H909.5L774.4 687.3l135.1 135.2zM714 657.9c-3.4 0-6.6-1.3-9.1-3.8l-84.5-84.5c-5-5-5-13.2 0-18.1l274.8-274.8c2.4-2.4 5.6-3.8 9.1-3.8h169c5.2 0 9.9 3.1 11.9 7.9 2 4.8.9 10.3-2.8 14L723.1 654.1c-2.4 2.5-5.7 3.8-9.1 3.8zm-66.3-97.4l66.4 66.4 328.3-328.3H909.5L647.7 560.5z" class="st2"/></g><g transform="translate(-.56 8.162) scale(.03882)"><defs><path id="SVGID_00000064332109749823876000000008533123035095888306_" d="M1073.3 848.2h-169c-3.4 0-6.6-1.3-9.1-3.8l-148-148c-5-5-5-13.2 0-18.1l148-148c2.4-2.4 5.6-3.8 9.1-3.8h169c5.2 0 9.9 3.1 11.9 7.9s.9 10.3-2.8 14l-138.8 139 138.9 138.9c3.7 3.7 4.8 9.2 2.8 14-2.1 4.7-6.8 7.9-12 7.9zm-163.8-25.7h132.8l-126-126.1c-5-5-5-13.2 0-18.1l126.1-126.1H909.5L774.4 687.3l135.1 135.2zM714 657.9c-3.4 0-6.6-1.3-9.1-3.8l-84.5-84.5c-5-5-5-13.2 0-18.1l274.8-274.8c2.4-2.4 5.6-3.8 9.1-3.8h169c5.2 0 9.9 3.1 11.9 7.9 2 4.8.9 10.3-2.8 14L723.1 654.1c-2.4 2.5-5.7 3.8-9.1 3.8zm-66.3-97.4l66.4 66.4 328.3-328.3H909.5L647.7 560.5z"/></defs><clipPath id="SVGID_00000031890054409374601040000001289144082333601454_"><use overflow="visible" xlink:href="#SVGID_00000064332109749823876000000008533123035095888306_"/></clipPath><g clip-path="url(#SVGID_00000031890054409374601040000001289144082333601454_)"><path d="M1073.3 848.2h-169c-3.4 0-6.6-1.3-9.1-3.8L831.7 781c-5-5-5-13.2 0-18.1 5-5 13.2-5 18.1 0l59.7 59.6h132.8l-126.1-126c-5-5-5-13.2 0-18.1s13.2-5 18.1 0l147.9 147.9c3.7 3.7 4.8 9.2 2.8 14-1.8 4.7-6.5 7.9-11.7 7.9z" class="st2"/></g></g><g transform="translate(-.56 8.162) scale(.03882)"><path id="SVGID_7_" d="M1073.3 848.2h-169c-3.4 0-6.6-1.3-9.1-3.8l-148-148c-5-5-5-13.2 0-18.1l148-148c2.4-2.4 5.6-3.8 9.1-3.8h169c5.2 0 9.9 3.1 11.9 7.9s.9 10.3-2.8 14l-138.8 139 138.9 138.9c3.7 3.7 4.8 9.2 2.8 14-2.1 4.7-6.8 7.9-12 7.9zm-163.8-25.7h132.8l-126-126.1c-5-5-5-13.2 0-18.1l126.1-126.1H909.5L774.4 687.3l135.1 135.2zM714 657.9c-3.4 0-6.6-1.3-9.1-3.8l-84.5-84.5c-5-5-5-13.2 0-18.1l274.8-274.8c2.4-2.4 5.6-3.8 9.1-3.8h169c5.2 0 9.9 3.1 11.9 7.9 2 4.8.9 10.3-2.8 14L723.1 654.1c-2.4 2.5-5.7 3.8-9.1 3.8zm-66.3-97.4l66.4 66.4 328.3-328.3H909.5L647.7 560.5z" class="st2"/></g><g transform="translate(-.56 8.162) scale(.03882)"><path id="SVGID_9_" d="M1073.3 848.2h-169c-3.4 0-6.6-1.3-9.1-3.8l-148-148c-5-5-5-13.2 0-18.1l148-148c2.4-2.4 5.6-3.8 9.1-3.8h169c5.2 0 9.9 3.1 11.9 7.9s.9 10.3-2.8 14l-138.8 139 138.9 138.9c3.7 3.7 4.8 9.2 2.8 14-2.1 4.7-6.8 7.9-12 7.9zm-163.8-25.7h132.8l-126-126.1c-5-5-5-13.2 0-18.1l126.1-126.1H909.5L774.4 687.3l135.1 135.2zM714 657.9c-3.4 0-6.6-1.3-9.1-3.8l-84.5-84.5c-5-5-5-13.2 0-18.1l274.8-274.8c2.4-2.4 5.6-3.8 9.1-3.8h169c5.2 0 9.9 3.1 11.9 7.9 2 4.8.9 10.3-2.8 14L723.1 654.1c-2.4 2.5-5.7 3.8-9.1 3.8zm-66.3-97.4l66.4 66.4 328.3-328.3H909.5L647.7 560.5z" class="st2"/></g><g transform="translate(-.56 8.162) scale(.03882)"><defs><path id="SVGID_00000063627813247766230710000013731553986296025739_" d="M1073.3 848.2h-169c-3.4 0-6.6-1.3-9.1-3.8l-148-148c-5-5-5-13.2 0-18.1l148-148c2.4-2.4 5.6-3.8 9.1-3.8h169c5.2 0 9.9 3.1 11.9 7.9s.9 10.3-2.8 14l-138.8 139 138.9 138.9c3.7 3.7 4.8 9.2 2.8 14-2.1 4.7-6.8 7.9-12 7.9zm-163.8-25.7h132.8l-126-126.1c-5-5-5-13.2 0-18.1l126.1-126.1H909.5L774.4 687.3l135.1 135.2zM714 657.9c-3.4 0-6.6-1.3-9.1-3.8l-84.5-84.5c-5-5-5-13.2 0-18.1l274.8-274.8c2.4-2.4 5.6-3.8 9.1-3.8h169c5.2 0 9.9 3.1 11.9 7.9 2 4.8.9 10.3-2.8 14L723.1 654.1c-2.4 2.5-5.7 3.8-9.1 3.8zm-66.3-97.4l66.4 66.4 328.3-328.3H909.5L647.7 560.5z"/></defs><clipPath id="SVGID_00000029765474776638157610000015901380274106595228_"><use overflow="visible" xlink:href="#SVGID_00000063627813247766230710000013731553986296025739_"/></clipPath><g clip-path="url(#SVGID_00000029765474776638157610000015901380274106595228_)"><path d="M840.8 784.8c-3.3 0-6.6-1.3-9.1-3.8l-84.5-84.6c-5-5-5-13.2 0-18.1l84.5-84.5c4.8-4.8 13.4-4.8 18.1 0l84.6 84.5c5 5 5 13.2 0 18.1-5 5-13.2 5-18.1 0l-75.5-75.5-66.4 66.4 75.5 75.6c5 5 5 13.2 0 18.1-2.5 2.5-5.7 3.8-9.1 3.8z" class="st2"/></g></g><path d="M1073.3 848.2h-169c-3.4 0-6.6-1.3-9.1-3.8l-148-148c-5-5-5-13.2 0-18.1l148-148c2.4-2.4 5.6-3.8 9.1-3.8h169c5.2 0 9.9 3.1 11.9 7.9s.9 10.3-2.8 14l-138.8 139 138.9 138.9c3.7 3.7 4.8 9.2 2.8 14-2.1 4.7-6.8 7.9-12 7.9zm-163.8-25.7h132.8l-126-126.1c-5-5-5-13.2 0-18.1l126.1-126.1H909.5L774.4 687.3l135.1 135.2zM714 657.9c-3.4 0-6.6-1.3-9.1-3.8l-84.5-84.5c-5-5-5-13.2 0-18.1l274.8-274.8c2.4-2.4 5.6-3.8 9.1-3.8h169c5.2 0 9.9 3.1 11.9 7.9 2 4.8.9 10.3-2.8 14L723.1 654.1c-2.4 2.5-5.7 3.8-9.1 3.8zm-66.3-97.4l66.4 66.4 328.3-328.3H909.5L647.7 560.5z" class="st2" transform="translate(-.56 8.162) scale(.03882)"/><path fill="none" stroke="#444" stroke-linecap="round" stroke-linejoin="round" stroke-miterlimit="10" stroke-width="2.5" d="M47.9 42.9V14.4l-31.8-.5-.1-6s-.6-4.7-4.3-5.9c-.5-.1-1.6-.2-2.9-.2-1.2 0-2.3 0-3.2.5-3.9 2.1-3.9 6.6-3.9 6.6v32.2s.4 2.6 1.1 3.8c.6 1 1.3 1.9 2 2.3 1 .7 2.6 1.1 4.5 1.1h31"/></svg>