<svg xmlns="http://www.w3.org/2000/svg" id="Camada_3" x="0" y="0" version="1.1" viewBox="0 0 50 50" xml:space="preserve"><style>.st3{fill:none;stroke:#464646;stroke-width:.25;stroke-linecap:round;stroke-linejoin:round;stroke-miterlimit:10}</style><path fill="#fdcf72" d="M37.54 5.01H22.43L5.4 22.18l34.18-12.16c1.2-1.56-1.42-1.26-2.04-2.79V5.01z"/><path fill="#fcc34f" d="M5.4 22.18l-4.1 4.06c4.1 4.2 8.51 9.34 14.85 15.93l26.76-9.52c1.28-1.77 4.03-6.28 5.03-8.11.91-1.67-4.14-1.56-7.38-1.87-.86-.08.99-4.91 1.76-7.07.34-.96-3.57.62-4.03-.29l1.29-5.29L5.4 22.18z"/><path fill="none" stroke="#464646" stroke-linecap="round" stroke-linejoin="round" stroke-miterlimit="10" stroke-width="1.5" d="M19.46 39.45l13.03-13.99h-9.74l-8.92 9.05 8.23 8.09h10.42m.01.01l-13.03-13.3m-7.96 2.05l-5.49-5.21L23.57 8.46h10.7L11.5 31.36z"/><path d="M21.48 26.76l-5.97.28 1.33 4.42m15.39 11.15l11.01-16.88-11.4.53" class="st3"/><path d="M36.28 26.05l2.01-7.44-22.78 8.43 20.75-16.37-4.42 15.59" class="st3"/><path fill="none" stroke="#464646" stroke-linecap="round" stroke-linejoin="round" stroke-miterlimit="10" stroke-width="2.5" d="M39.9 37.12l8.8-13.78-8.14-.68 1.93-7.73-4.2.37 1.78-7.28-2.53-.27V5.01H22.43L1.3 26.23l19.26 19.76h11.28"/></svg>