<svg xmlns="http://www.w3.org/2000/svg" viewBox="0 0 50 50"><path fill="#00dffc" d="M45.82 2.6H4.1c-1.12 0-2.03.91-2.03 2.03V21.1L47.85 4.8v-.17c0-1.13-.91-2.03-2.03-2.03z"/><path fill="#00c8e2" d="M2.07 20.8v24.69l45.78-16.28V4.51z"/><path fill="none" stroke="#444" stroke-linecap="round" stroke-linejoin="round" stroke-miterlimit="10" stroke-width="2.5" d="M36.52 48H5.55c-1.87 0-3.39-1.58-3.39-3.54V5.55C2.16 3.6 3.68 2 5.55 2h39.01c1.87 0 3.39 1.58 3.39 3.54v25.89"/><path fill="none" stroke="#444" stroke-linecap="round" stroke-linejoin="round" stroke-miterlimit="10" stroke-width="1.5" d="M23.49 37.75l11.45-12.3h-8.56l-7.84 7.95 7.23 7.11h9.16m.02.01L23.49 28.83m-6.98 1.81l-4.83-4.58 15.43-15.55h9.4l-20 20.13z"/><path fill="none" stroke="#444" stroke-linecap="round" stroke-linejoin="round" stroke-miterlimit="10" stroke-width=".5" d="M36.06 8h7.19v34.59h-7.19M14.32 8H7.13v34.59h7.19m.41-15.5c-.17-.54-.38-1.11-.55-1.65m16.15 16.35c-1.38 3.27-3.43 6.65-5.56 6.59-2.06-.06-3.45-3.89-4.14-5.34-1.54-3.25-3.28-7.58-4.46-11m15.21 6.67c-.15.43 0 0-.17.48m4.17-12.1c-.9 2.84-1.77 5.41-2.81 8.19-.07.18-.14.37-.21.55m9.66-33.32c-1.74 7.19-3.73 14.82-5.87 21.92M7.57 2.51C9.27 9 11.3 16.05 13.26 22.47"/></svg>