<svg xmlns="http://www.w3.org/2000/svg" xmlns:xlink="http://www.w3.org/1999/xlink" id="Layer_1" x="0" y="0" version="1.1" viewBox="0 0 50 50" xml:space="preserve"><style>.st3{fill:none;stroke:#444;stroke-width:1.5;stroke-linecap:round;stroke-linejoin:round;stroke-miterlimit:10}.st4{fill:#444}</style><g id="Layer_1_00000058577701952567233890000014275959396035731359_"><path fill="#a6c1c2" d="M47.3 26.9l.5 4.5L2.5 47.9v-9.4l.2-5.4 45.1-16.5-.6 3.9z"/><path fill="#b9d7d9" d="M47 9.6l-.4 8.1L2.4 33.8l-.2-10.2.2-4.6L47 2.8z"/><path fill="none" stroke="#444" stroke-linecap="round" stroke-linejoin="round" stroke-miterlimit="10" stroke-width="2.5" d="M12.7 47.2h-10V2.8h44.7v44.4"/><path d="M25.5 27V13.9c0-.8-.6-1.5-1.5-1.5H9.6c-.8 0-1.5.6-1.5 1.5v25.4c0 .8.6 1.5 1.5 1.5h8" class="st3"/><path d="M23.4 30.5l1.3-.7c.4-.2 1.2-.3 1.6-.1l1.3-.7c.6-.3 1.6-.2 2 .5l1.3-.7c.6-.3 1.6-.2 2 .5l3.7 6.6c.7 1.3-.1 2.8.4 3.6l1 2M24.8 33l-3.6-6.3c-.4-.7-1.3-.9-2-.5s-.9 1.3-.5 2l5 8.8c-.2.7-1 1-1.6.7l-1.9-1c-1.8-.8-2.9.8-2.6 1.4 0 0 4.5 3.4 5 3.7.8.4 4.8 1.9 5.2 2.4l.6 1m-2.1-15.5l1.4 2.5m1.8-2.7l1.1 1.9M15.7 14.6h2.2m-6.9 3h4.4V22H11zm7.3 0h4.4V22h-4.4zM11 24.8h4.4v4.4H11zm0 7.3h4.4v4.4H11z" class="st3"/></g><g transform="translate(-.56 8.162) scale(.03882)"><path id="SVGID_1_" d="M1109.1 532.2H976.8c-2.7 0-5.2-1-7.1-3L853.9 413.5c-3.9-3.9-3.9-10.3 0-14.2l115.8-115.8c1.9-1.9 4.4-3 7.1-3h132.3c4.1 0 7.7 2.4 9.3 6.2 1.6 3.7.7 8.1-2.2 11l-108.7 108.7 108.7 108.7c2.9 2.9 3.7 7.2 2.2 11-1.6 3.7-5.2 6.1-9.3 6.1zm-128.1-20h103.9l-98.7-98.7c-3.9-3.9-3.9-10.3 0-14.2l98.7-98.7H981L875.2 406.4 981 512.2zM828 383.4c-2.7 0-5.2-1-7.1-3l-66.2-66.2c-3.9-3.9-3.9-10.3 0-14.2l215-215c1.9-1.9 4.4-3 7.1-3h132.3c4.1 0 7.7 2.4 9.3 6.2 1.6 3.7.7 8.1-2.2 11L835 380.4c-1.8 1.9-4.4 3-7 3zm-52-76.3l52 52 256.9-257H981l-205 205z" class="st4"/></g><g transform="translate(-.56 8.162) scale(.03882)"><defs><path id="SVGID_00000044890438013946104230000010473708138746407603_" d="M1109.1 532.2H976.8c-2.7 0-5.2-1-7.1-3L853.9 413.5c-3.9-3.9-3.9-10.3 0-14.2l115.8-115.8c1.9-1.9 4.4-3 7.1-3h132.3c4.1 0 7.7 2.4 9.3 6.2 1.6 3.7.7 8.1-2.2 11l-108.7 108.7 108.7 108.7c2.9 2.9 3.7 7.2 2.2 11-1.6 3.7-5.2 6.1-9.3 6.1zm-128.1-20h103.9l-98.7-98.7c-3.9-3.9-3.9-10.3 0-14.2l98.7-98.7H981L875.2 406.4 981 512.2zM828 383.4c-2.7 0-5.2-1-7.1-3l-66.2-66.2c-3.9-3.9-3.9-10.3 0-14.2l215-215c1.9-1.9 4.4-3 7.1-3h132.3c4.1 0 7.7 2.4 9.3 6.2 1.6 3.7.7 8.1-2.2 11L835 380.4c-1.8 1.9-4.4 3-7 3zm-52-76.3l52 52 256.9-257H981l-205 205z"/></defs><clipPath id="SVGID_00000127729469339931172820000006786161005685718929_"><use overflow="visible" xlink:href="#SVGID_00000044890438013946104230000010473708138746407603_"/></clipPath><g clip-path="url(#SVGID_00000127729469339931172820000006786161005685718929_)"><path d="M927.2 482.6c-2.5 0-5.1-1-7.1-3l-66.2-66.2c-3.9-3.9-3.9-10.3 0-14.2l115.8-115.8c1.9-1.9 4.4-3 7.1-3h132.3c5.6 0 10 4.5 10 10 0 5.6-4.5 10-10 10H981l-105.8 106 59 59.1c3.9 3.9 3.9 10.3 0 14.2-1.9 1.9-4.5 2.9-7 2.9z" class="st4"/></g></g><g transform="translate(-.56 8.162) scale(.03882)"><path id="SVGID_3_" d="M1109.1 532.2H976.8c-2.7 0-5.2-1-7.1-3L853.9 413.5c-3.9-3.9-3.9-10.3 0-14.2l115.8-115.8c1.9-1.9 4.4-3 7.1-3h132.3c4.1 0 7.7 2.4 9.3 6.2 1.6 3.7.7 8.1-2.2 11l-108.7 108.7 108.7 108.7c2.9 2.9 3.7 7.2 2.2 11-1.6 3.7-5.2 6.1-9.3 6.1zm-128.1-20h103.9l-98.7-98.7c-3.9-3.9-3.9-10.3 0-14.2l98.7-98.7H981L875.2 406.4 981 512.2zM828 383.4c-2.7 0-5.2-1-7.1-3l-66.2-66.2c-3.9-3.9-3.9-10.3 0-14.2l215-215c1.9-1.9 4.4-3 7.1-3h132.3c4.1 0 7.7 2.4 9.3 6.2 1.6 3.7.7 8.1-2.2 11L835 380.4c-1.8 1.9-4.4 3-7 3zm-52-76.3l52 52 256.9-257H981l-205 205z" class="st4"/></g><g transform="translate(-.56 8.162) scale(.03882)"><defs><path id="SVGID_00000030478097667502095930000004478853960356431001_" d="M1109.1 532.2H976.8c-2.7 0-5.2-1-7.1-3L853.9 413.5c-3.9-3.9-3.9-10.3 0-14.2l115.8-115.8c1.9-1.9 4.4-3 7.1-3h132.3c4.1 0 7.7 2.4 9.3 6.2 1.6 3.7.7 8.1-2.2 11l-108.7 108.7 108.7 108.7c2.9 2.9 3.7 7.2 2.2 11-1.6 3.7-5.2 6.1-9.3 6.1zm-128.1-20h103.9l-98.7-98.7c-3.9-3.9-3.9-10.3 0-14.2l98.7-98.7H981L875.2 406.4 981 512.2zM828 383.4c-2.7 0-5.2-1-7.1-3l-66.2-66.2c-3.9-3.9-3.9-10.3 0-14.2l215-215c1.9-1.9 4.4-3 7.1-3h132.3c4.1 0 7.7 2.4 9.3 6.2 1.6 3.7.7 8.1-2.2 11L835 380.4c-1.8 1.9-4.4 3-7 3zm-52-76.3l52 52 256.9-257H981l-205 205z"/></defs><clipPath id="SVGID_00000069396538257634719030000015747210544002076093_"><use overflow="visible" xlink:href="#SVGID_00000030478097667502095930000004478853960356431001_"/></clipPath><g clip-path="url(#SVGID_00000069396538257634719030000015747210544002076093_)"><path d="M828 383.4c-2.7 0-5.2-1-7.1-3l-66.2-66.2c-3.9-3.9-3.9-10.3 0-14.2l215-215c1.9-1.9 4.4-3 7.1-3h132.3c4.1 0 7.7 2.4 9.3 6.2 1.6 3.7.7 8.1-2.2 11L835 380.4c-1.8 1.9-4.4 3-7 3zm-52-76.3l52 52 256.9-257H981l-205 205z" class="st4"/></g></g><g transform="translate(-.56 8.162) scale(.03882)"><path id="SVGID_5_" d="M1109.1 532.2H976.8c-2.7 0-5.2-1-7.1-3L853.9 413.5c-3.9-3.9-3.9-10.3 0-14.2l115.8-115.8c1.9-1.9 4.4-3 7.1-3h132.3c4.1 0 7.7 2.4 9.3 6.2 1.6 3.7.7 8.1-2.2 11l-108.7 108.7 108.7 108.7c2.9 2.9 3.7 7.2 2.2 11-1.6 3.7-5.2 6.1-9.3 6.1zm-128.1-20h103.9l-98.7-98.7c-3.9-3.9-3.9-10.3 0-14.2l98.7-98.7H981L875.2 406.4 981 512.2zM828 383.4c-2.7 0-5.2-1-7.1-3l-66.2-66.2c-3.9-3.9-3.9-10.3 0-14.2l215-215c1.9-1.9 4.4-3 7.1-3h132.3c4.1 0 7.7 2.4 9.3 6.2 1.6 3.7.7 8.1-2.2 11L835 380.4c-1.8 1.9-4.4 3-7 3zm-52-76.3l52 52 256.9-257H981l-205 205z" class="st4"/></g><g transform="translate(-.56 8.162) scale(.03882)"><defs><path id="SVGID_00000074422934302374084340000013937059630584631440_" d="M1109.1 532.2H976.8c-2.7 0-5.2-1-7.1-3L853.9 413.5c-3.9-3.9-3.9-10.3 0-14.2l115.8-115.8c1.9-1.9 4.4-3 7.1-3h132.3c4.1 0 7.7 2.4 9.3 6.2 1.6 3.7.7 8.1-2.2 11l-108.7 108.7 108.7 108.7c2.9 2.9 3.7 7.2 2.2 11-1.6 3.7-5.2 6.1-9.3 6.1zm-128.1-20h103.9l-98.7-98.7c-3.9-3.9-3.9-10.3 0-14.2l98.7-98.7H981L875.2 406.4 981 512.2zM828 383.4c-2.7 0-5.2-1-7.1-3l-66.2-66.2c-3.9-3.9-3.9-10.3 0-14.2l215-215c1.9-1.9 4.4-3 7.1-3h132.3c4.1 0 7.7 2.4 9.3 6.2 1.6 3.7.7 8.1-2.2 11L835 380.4c-1.8 1.9-4.4 3-7 3zm-52-76.3l52 52 256.9-257H981l-205 205z"/></defs><clipPath id="SVGID_00000064312899652367789780000016369126492161613967_"><use overflow="visible" xlink:href="#SVGID_00000074422934302374084340000013937059630584631440_"/></clipPath><g clip-path="url(#SVGID_00000064312899652367789780000016369126492161613967_)"><path d="M1109.1 532.2H976.8c-2.7 0-5.2-1-7.1-3l-49.6-49.6c-3.9-3.9-3.9-10.3 0-14.2 3.9-3.9 10.3-3.9 14.2 0L981 512h103.9l-98.7-98.6c-3.9-3.9-3.9-10.3 0-14.2 3.9-3.9 10.3-3.9 14.2 0L1116.2 515c2.9 2.9 3.7 7.2 2.2 11-1.6 3.8-5.2 6.2-9.3 6.2z" class="st4"/></g></g><g transform="translate(-.56 8.162) scale(.03882)"><path id="SVGID_7_" d="M1109.1 532.2H976.8c-2.7 0-5.2-1-7.1-3L853.9 413.5c-3.9-3.9-3.9-10.3 0-14.2l115.8-115.8c1.9-1.9 4.4-3 7.1-3h132.3c4.1 0 7.7 2.4 9.3 6.2 1.6 3.7.7 8.1-2.2 11l-108.7 108.7 108.7 108.7c2.9 2.9 3.7 7.2 2.2 11-1.6 3.7-5.2 6.1-9.3 6.1zm-128.1-20h103.9l-98.7-98.7c-3.9-3.9-3.9-10.3 0-14.2l98.7-98.7H981L875.2 406.4 981 512.2zM828 383.4c-2.7 0-5.2-1-7.1-3l-66.2-66.2c-3.9-3.9-3.9-10.3 0-14.2l215-215c1.9-1.9 4.4-3 7.1-3h132.3c4.1 0 7.7 2.4 9.3 6.2 1.6 3.7.7 8.1-2.2 11L835 380.4c-1.8 1.9-4.4 3-7 3zm-52-76.3l52 52 256.9-257H981l-205 205z" class="st4"/></g><g transform="translate(-.56 8.162) scale(.03882)"><path id="SVGID_9_" d="M1109.1 532.2H976.8c-2.7 0-5.2-1-7.1-3L853.9 413.5c-3.9-3.9-3.9-10.3 0-14.2l115.8-115.8c1.9-1.9 4.4-3 7.1-3h132.3c4.1 0 7.7 2.4 9.3 6.2 1.6 3.7.7 8.1-2.2 11l-108.7 108.7 108.7 108.7c2.9 2.9 3.7 7.2 2.2 11-1.6 3.7-5.2 6.1-9.3 6.1zm-128.1-20h103.9l-98.7-98.7c-3.9-3.9-3.9-10.3 0-14.2l98.7-98.7H981L875.2 406.4 981 512.2zM828 383.4c-2.7 0-5.2-1-7.1-3l-66.2-66.2c-3.9-3.9-3.9-10.3 0-14.2l215-215c1.9-1.9 4.4-3 7.1-3h132.3c4.1 0 7.7 2.4 9.3 6.2 1.6 3.7.7 8.1-2.2 11L835 380.4c-1.8 1.9-4.4 3-7 3zm-52-76.3l52 52 256.9-257H981l-205 205z" class="st4"/></g><g transform="translate(-.56 8.162) scale(.03882)"><defs><path id="SVGID_00000005225009130579197720000003230458782581795475_" d="M1109.1 532.2H976.8c-2.7 0-5.2-1-7.1-3L853.9 413.5c-3.9-3.9-3.9-10.3 0-14.2l115.8-115.8c1.9-1.9 4.4-3 7.1-3h132.3c4.1 0 7.7 2.4 9.3 6.2 1.6 3.7.7 8.1-2.2 11l-108.7 108.7 108.7 108.7c2.9 2.9 3.7 7.2 2.2 11-1.6 3.7-5.2 6.1-9.3 6.1zM828 383.4c-2.7 0-5.2-1-7.1-3l-66.2-66.2c-3.9-3.9-3.9-10.3 0-14.2l215-215c1.9-1.9 4.4-3 7.1-3h132.3c4.1 0 7.7 2.4 9.3 6.2 1.6 3.7.7 8.1-2.2 11L835 380.4c-1.8 1.9-4.4 3-7 3zm-52-76.3l52 52 256.9-257H981l-205 205z"/></defs><clipPath id="SVGID_00000147910630432690041330000010626119840527902089_"><use overflow="visible" xlink:href="#SVGID_00000005225009130579197720000003230458782581795475_"/></clipPath><g clip-path="url(#SVGID_00000147910630432690041330000010626119840527902089_)"><path d="M927.2 482.6c-2.5 0-5.1-1-7.1-3l-66.2-66.2c-3.9-3.9-3.9-10.3 0-14.2l66.2-66.2c3.7-3.7 10.5-3.7 14.2 0l66.2 66.2c3.9 3.9 3.9 10.3 0 14.2-3.9 3.9-10.3 3.9-14.2 0l-59.1-59.1-52 52 59.1 59.1c3.9 3.9 3.9 10.3 0 14.2-2 2-4.5 3-7.1 3z" class="st4"/></g></g><path d="M1109.1 532.2H976.8c-2.7 0-5.2-1-7.1-3L853.9 413.5c-3.9-3.9-3.9-10.3 0-14.2l115.8-115.8c1.9-1.9 4.4-3 7.1-3h132.3c4.1 0 7.7 2.4 9.3 6.2 1.6 3.7.7 8.1-2.2 11l-108.7 108.7 108.7 108.7c2.9 2.9 3.7 7.2 2.2 11-1.6 3.7-5.2 6.1-9.3 6.1zM828 383.4c-2.7 0-5.2-1-7.1-3l-66.2-66.2c-3.9-3.9-3.9-10.3 0-14.2l215-215c1.9-1.9 4.4-3 7.1-3h132.3c4.1 0 7.7 2.4 9.3 6.2 1.6 3.7.7 8.1-2.2 11L835 380.4c-1.8 1.9-4.4 3-7 3z" class="st4" transform="translate(-.56 8.162) scale(.03882)"/></svg>