<svg xmlns="http://www.w3.org/2000/svg" id="Camada_2" data-name="Camada 2" viewBox="0 0 49.61 44.67"><defs><style>.cls-1,.cls-3,.cls-4{fill:none;stroke-linecap:round;stroke-linejoin:round;stroke:#444}.cls-3{stroke-width:2.5px}.cls-4{stroke-width:.5px}</style></defs><g id="_Ícones" data-name="Ícones"><path fill="#ff6b6b" stroke-width="0" d="M49.04 28.97l-.7-25.54-.35.13.15-.06c.33-.47-.4-.56-.07-1.02l-.48-.2c-.53-.54-1.83-.15-2.35-.69L3.16 1.36c-.52.53-.82.82-1.34 1.35l-.58 15.56c.65.46.2 1.19.53 1.72l-1.25.45 1.12 14.57 16.9 1.62-3.92 4.58 34.42-12.24z"/><path d="M18.35 36H5.47a4.22 4.22 0 01-4.22-4.22V5.47a4.22 4.22 0 014.22-4.22h38.67a4.22 4.22 0 014.22 4.22v25.27M39.25 36h-7.8" class="cls-3"/><path fill="none" stroke="#444" stroke-linecap="round" stroke-linejoin="round" stroke-width=".25" d="M1.77 27.15h45.36"/><path d="M18.04 39v-3h13.88v3m-13.88 0c-4.67 0-4.79 4.42-4.79 4.42h23.08S37.17 39 31.92 39" class="cls-3"/><path d="M21.65 31.06H4.04m41.49 0H27.91" class="cls-1"/><path d="M22.7 31.06a2.09 2.09 0 114.178-.002 2.09 2.09 0 01-4.178.002z" class="cls-4"/><path fill="#444" stroke="#444" stroke-linecap="round" stroke-linejoin="round" d="M8.12 12.62h3.05"/><path d="M9.48 12.43V7.36H25.3v16.03H9.48v-4.43m5.27-11.28v15.4m4.75-10.34h-4.75m7.81.11h2.74" class="cls-1"/><path d="M25.2 17.8h-6.12v5.59m-7.91-4.93H8.12" class="cls-1"/><path d="M30.95 5.03V25.5m3.7-18.51h4.94m-4.94 3.58h8.38m-8.38 1.97h6.1m-6.1 1.81h8.38m-8.38 1.97h6.1m-6.1 1.99h8.38m-8.38 1.97h6.1m-6.1 1.81h8.38m-8.38 1.97h6.1" class="cls-4"/></g></svg>