<svg xmlns="http://www.w3.org/2000/svg" version="1" viewBox="0 0 50 50"><path fill="#DC5E82" d="M14.4 44.87l25.05-9.118c3.076-6.526 2.233-14.44-2.559-20.19l1.874-1.874 3.135-.059 4.725-4.724-4.889-.641-.641-4.889L36.371 8.1l-.059 3.135-1.874 1.874c-7.444-6.205-18.527-5.818-25.513 1.168-7.4 7.4-7.4 19.398 0 26.798A18.889 18.889 0 0014.4 44.87z"/><path fill="#F56991" d="M27.561 9.462c-6.406-1.839-13.587-.255-18.634 4.792a19.024 19.024 0 00-2.329 2.838l20.963-7.63z"/><g fill="#031326"><path d="M39.292 14.929l3.136-.059 6.875-6.875-6.452-.846-.847-6.452-6.874 6.875-.059 3.135-.732.732c-8.019-5.967-19.134-5.21-26.298 1.955-7.875 7.875-7.875 20.689 0 28.565 3.827 3.828 8.917 5.919 14.249 5.919a20.653 20.653 0 002.426-.145 1.25 1.25 0 10-.295-2.483c-5.429.641-10.753-1.2-14.613-5.06-6.9-6.901-6.9-18.129 0-25.03 6.516-6.514 16.761-6.984 23.828-1.092l.372.31-2.242 2.241c-5.746-4.913-14.368-4.599-19.736.768-5.669 5.669-5.667 14.898.006 20.571a14.502 14.502 0 0010.29 4.256c3.723 0 7.447-1.417 10.281-4.251 5.367-5.367 5.681-13.984.772-19.732l2.242-2.242.31.372c4.384 5.26 5.328 12.665 2.405 18.865a1.251 1.251 0 002.262 1.066c3.172-6.729 2.353-14.702-2.039-20.631l.733-.732zm-7.038 22.682c-5.477 5.476-14.386 5.472-19.864-.005-5.478-5.479-5.48-14.389-.006-19.864 5.173-5.174 13.477-5.485 19.028-.767l-3.13 3.13.353.353-3.435 3.435-.171-.12a4.743 4.743 0 00-6.062.545 4.719 4.719 0 00-1.391 3.357c0 1.269.494 2.461 1.391 3.357.897.896 2.089 1.391 3.357 1.391s2.46-.494 3.357-1.391a4.739 4.739 0 00.546-6.062l-.119-.171 3.436-3.437.353.353 3.127-3.128c4.714 5.551 4.403 13.852-.77 19.024zm.629-19.589c-.002.002-.004.001-.006.002l-3.301 3.306c-.14-.16-.277-.323-.43-.476s-.315-.289-.475-.43l8.881-8.662.059-3.135 2.575-2.575.437 3.327 3.325.436-2.574 2.575-3.136.059-5.355 5.573z"/><path d="M26.034 31.387a5.213 5.213 0 01-3.71 1.537c-1.402 0-2.72-.546-3.711-1.537s-1.537-2.309-1.537-3.711c0-1.401.546-2.719 1.537-3.71a5.242 5.242 0 016.527-.719l3.148-3.147c-3.787-2.988-9.292-2.74-12.786.754-3.768 3.768-3.768 9.877 0 13.644s9.877 3.768 13.644 0c3.495-3.495 3.742-9 .754-12.786l-3.147 3.148a5.24 5.24 0 01-.719 6.527z"/></g></svg>