<svg xmlns="http://www.w3.org/2000/svg" id="Layer_1" x="0" y="0" version="1.1" viewBox="0 0 50 50" xml:space="preserve"><style>.st2{fill:#444}</style><path fill="#fcc34f" d="M17.2 17.1l15.5-6.2-.3 6.6 2.9 5.9v11.4l-20.6 8.3"/><path fill="#fdcf72" d="M28.9 5.8l4.9 6.2-16.5 6.1.4-5.7 1.3-2 3.4-4.2 1-3.8z"/><path d="M32 23.8v16.1c0 6.9-14.2 6.9-14.1.1l.2-16.2c.1-3.7 13.9-3.2 13.9 0zm-12.5.1c0 1.7 10.9 2.1 10.9 0 0-1.9-10.9-1.9-10.9 0zm11.2 1.4c-2.8 1.8-8.7 1.7-11.5 0l-.1 14.5c0 4.7 11.6 4.8 11.6 0V25.3zM25.5 7.5c2.4 2 3.7 4.3 3.6 6.2-.1.9-.7 3.2-1 3.7-.9 1.3-2 1.6-2.8 1.6-1.1 0-2.3-.5-3-1.4-.5-.6-.9-2.3-.9-4.2 0-.8.5-1.4 1.6-2.5.8-.9 1.7-2 2.5-3.4m-.5-2c-1.3 4.2-4.9 5.1-4.9 7.9 0 1.8.3 4 1.2 5 1 1.1 2.5 1.8 4 1.8 1.4 0 2.8-.6 3.9-2.1.5-.7 1.2-3.3 1.3-4.3.1-3.3-2.8-6.4-5.5-8.3z" class="st2"/><path fill="none" stroke="#444" stroke-linecap="round" stroke-linejoin="round" stroke-miterlimit="10" stroke-width="2.5" d="M33.5 44.2c1.1-1.7 1.1-3.3 1.1-3.3l-.1-21.3s-.4-1.8-2.3-2h0c1.2-2.4 1.2-4 .8-6-.9-4-3.6-6.8-9.8-9.5.9 4.6-5.6 6.8-5.6 11.2 0 1.2 0 2.1.5 4.3h0c-2.6.8-2.3 2.4-2.3 2.4l-.3 21s.4 6.9 9.7 6.9c1.1 0 2.1-.1 2.9-.3"/><path d="M25.5 11.5c.9.9 1.4 1.8 1.3 2.5 0 .4-.3 1.4-.5 1.6-.3.4-.7.6-1.1.6-.5 0-.9-.2-1.2-.6-.1-.2-.3-.8-.3-1.8 0-.3.2-.5.7-1 .3-.3.7-.7 1.1-1.3m-.4-1.6c-.7 2.1-2.5 2.5-2.5 3.9 0 .9.1 2 .6 2.5.5.6 1.2.9 2 .9.7 0 1.4-.3 1.9-1.1.2-.4.6-1.7.6-2.1.2-1.6-1.2-3.1-2.6-4.1z" class="st2"/><path fill="none" stroke="#444" stroke-linecap="round" stroke-linejoin="round" stroke-miterlimit="10" d="M18.6 29s.7 1.7 2.2 1.7c0 0 1.2.2 2.3-1.4 0 0 .8-.7 1.7.1.7.7.2 3.9 1.2 5 0 0 .7.7 1.6.1.9-1.3 1-4.6 1-4.6s.1-1.8 2.6-.4"/></svg>