<svg xmlns="http://www.w3.org/2000/svg" id="Layer_1" x="0" y="0" version="1.1" viewBox="0 0 50 50" xml:space="preserve"><style>.st2{fill:#444}</style><path fill="#afe55d" d="M46.9 26.2l.3 4.1L2.5 46.6l.1-8.7.3-5.1 44.6-16.2-.7 3.6z"/><path fill="#c3ff68" d="M47 10l-.5 7.5L2.7 33.4V24l.3-4.3L47.2 3.6z"/><path d="M32.5 48.5h-30c-.7 0-1.2-.6-1.2-1.2V2.8c0-.7.6-1.2 1.2-1.2h44.7c.7 0 1.2.6 1.2 1.2v34.4c0 .7-.6 1.2-1.2 1.2s-1.2-.6-1.2-1.2V4H3.8v42h28.7c.7 0 1.2.6 1.2 1.2s-.5 1.3-1.2 1.3z" class="st2"/><path d="M34.1 12.5H15.8c-.3 0-.5-.2-.5-.5s.2-.5.5-.5h18.3c.3 0 .5.2.5.5s-.2.5-.5.5zm.1 26H15.8c-.3 0-.5-.2-.5-.5s.2-.5.5-.5h18.4c.3 0 .5.2.5.5s-.2.5-.5.5z" class="st2"/><path d="M32.9 42.4H17.1c-1.3 0-2.3-1-2.3-2.3V9.9c0-1.3 1-2.3 2.3-2.3h15.7c1.3 0 2.3 1 2.3 2.3v30.2c.1 1.3-1 2.3-2.2 2.3zm-15.8-34c-.8 0-1.5.7-1.5 1.5v30.2c0 .8.7 1.5 1.5 1.5h15.7c.8 0 1.5-.7 1.5-1.5V9.9c0-.8-.7-1.5-1.5-1.5H17.1z" class="st2"/><path d="M26.9 40.4h-3.7c-.2 0-.4-.2-.4-.4s.2-.4.4-.4h3.7c.2 0 .4.2.4.4s-.2.4-.4.4zM9.3 22.5c-.2 0-.4-.2-.4-.4v-5c0-.2.2-.4.4-.4h3.5c.2 0 .4.2.4.4s-.2.4-.4.4H9.7v4.6c0 .2-.2.4-.4.4zm31.3 0c-.2 0-.4-.2-.4-.4v-4.6h-3c-.2 0-.4-.2-.4-.4s.2-.4.4-.4h3.4c.2 0 .4.2.4.4v5c0 .2-.2.4-.4.4zm0 10.8h-3.4c-.2 0-.4-.2-.4-.4s.2-.4.4-.4h3v-4.6c0-.2.2-.4.4-.4s.4.2.4.4v5c0 .2-.2.4-.4.4zm-27.7 0H9.3c-.2 0-.4-.2-.4-.4v-5c0-.2.2-.4.4-.4s.4.2.4.4v4.6h3.1c.2 0 .4.2.4.4s-.1.4-.3.4zm16.8-4.1h-9.5c-.6 0-1-.5-1-1v-4.9c0-.6.5-1 1-1h1.9c.2 0 .4-.2.4-.4 0-.6.5-1 1-1h2.9c.6 0 1 .5 1 1 0 .2.2.4.4.4h1.9c.6 0 1 .5 1 1v4.9c.1.5-.4 1-1 1zm-9.4-6.3c-.2 0-.4.2-.4.4v4.9c0 .2.2.4.4.4h9.5c.2 0 .4-.2.4-.4v-4.9c0-.2-.2-.4-.4-.4h-1.9c-.6 0-1-.5-1-1 0-.2-.2-.4-.4-.4h-2.9c-.2 0-.4.2-.4.4 0 .6-.5 1-1 1h-1.9z" class="st2"/><path d="M25 28.1c-1.4 0-2.6-1.1-2.6-2.6S23.6 23 25 23s2.6 1.1 2.6 2.6-1.2 2.5-2.6 2.5zm0-4.5c-1 0-1.9.8-1.9 1.9 0 1 .8 1.9 1.9 1.9 1 0 1.9-.8 1.9-1.9 0-1-.9-1.9-1.9-1.9z" class="st2"/><circle cx="29.1" cy="23.7" r=".4" class="st2"/></svg>