<svg xmlns="http://www.w3.org/2000/svg" id="Layer_1" x="0" y="0" version="1.1" viewBox="0 0 50 50" xml:space="preserve"><style>.st2{fill:#444}.st3{fill:none;stroke:#444;stroke-linecap:round;stroke-linejoin:round;stroke-miterlimit:10}</style><path fill="#71bac0" d="M43.6 1.9h-4c-.5 0-1 .4-1.1.9H11.8c-.1-.5-.5-.9-1.1-.9h-4C4.2 1.9 2 4 2 6.6v4c0 .5.4 1 .9 1.1v26.7c-.5 0-.9.5-.9 1v4c0 2.6 2.1 4.7 4.7 4.7h4c.5 0 1-.4 1.1-.9h11.6l24.2-8.8c-.1 0-.2-.1-.2-.1V11.7c.5-.1.9-.5.9-1.1v-4c0-2.6-2.1-4.7-4.7-4.7z"/><path fill="#7ed0d6" d="M44.5 2c-.3-.1-.6-.1-.9-.1h-4c-.5 0-1 .4-1.1.9H11.8c-.1-.5-.5-.9-1.1-.9h-4C4.2 1.9 2 4 2 6.6v4c0 .5.4 1 .9 1.1v5.4L44.5 2z"/><path d="M25.2 30.6c.1 0 .2-.1.2-.2v-5.1h5.1c.1 0 .2-.1.2-.2s-.1-.2-.2-.2h-5.1v-5.1c0-.1-.1-.2-.2-.2s-.2.1-.2.2v5.1h-5.1c-.1 0-.2.1-.2.2s.1.2.2.2H25v5.1c-.1.1 0 .2.2.2z" class="st2"/><path d="M43.5 1.1h-4c-.7 0-1.3.4-1.6.9H12.3c-.3-.5-.9-.9-1.6-.9h-4c-3 0-5.5 2.5-5.5 5.5v4c0 .7.3 1.3.9 1.6v25.7c-.5.3-.9.9-.9 1.6v4c0 3 2.5 5.5 5.5 5.5h4c.7 0 1.3-.4 1.6-.9h21.5c.4 0 .8-.3.8-.8s-.3-.8-.8-.8h-8.4V37c0-.1-.1-.2-.2-.2s-.2.1-.2.2v9.5H12c-.2-.4-.6-.7-1.1-.7h-4c-1.3 0-2.4-1.1-2.4-2.4v-4c0-.5-.3-.9-.7-1.1v-13h9.5c.1 0 .2-.1.2-.2s-.1-.2-.2-.2H3.7v-13c.4-.2.7-.6.7-1.1v-4c0-1.3 1.1-2.4 2.4-2.4h4c.5 0 .9-.3 1.1-.7h13v9.5c0 .1.1.2.2.2s.2-.1.2-.2V3.5h13c.2.4.6.7 1.1.7h4c1.3 0 2.4 1.1 2.4 2.4v4c0 .5.3.9.7 1.1v13H37c-.1 0-.2.1-.2.2s.1.2.2.2h9.5v13.1c0 .4.3.8.8.8s.8-.3.8-.8v-26c.6-.3.9-.9.9-1.6v-4c0-3-2.4-5.5-5.5-5.5z" class="st2"/><path d="M20.9 33.4l-7.4 4c-1.3.7-2 2-2 3.4 4.6 1.6 9.2 3.2 13.7 4.8L39 40.8c0-1.4-.8-2.7-2-3.4-2.5-1.3-5-2.7-7.4-4" class="st3"/><path d="M33 22.9v3.9c0 .5 0 .9-.1 1.4 0 .1 0 .3-.1.4-.5 2-1.7 3.7-3.4 4.8-1.2.8-2.7 1.2-4.3 1.2-1.6 0-3-.5-4.3-1.3-.3-.2-.5-.4-.8-.6-1.3-1.1-2.2-2.5-2.6-4.2-.1-.6-.2-1.2-.2-1.8v-3.9c0-4.3 3.5-7.8 7.9-7.8 2.2 0 4.1.9 5.6 2.3 1.4 1.5 2.3 3.5 2.3 5.6z" class="st3"/><path d="M13.2 32.6c-.1 0-.2.1-.2.2V35c0 1.2 1 2.2 2.2 2.2h2.2c.1 0 .2-.1.2-.2s-.1-.2-.2-.2h-2.2c-.9 0-1.7-.8-1.7-1.7v-2.2c0-.2-.1-.3-.3-.3zm23.9 0c-.1 0-.2.1-.2.2V35c0 .9-.8 1.7-1.7 1.7H33c-.1 0-.2.1-.2.2s.1.2.2.2h2.2c1.2 0 2.2-1 2.2-2.2v-2.2c-.1 0-.2-.1-.3-.1zm0-15.2c.1 0 .2-.1.2-.2V15c0-1.2-1-2.2-2.2-2.2H33c-.1 0-.2.1-.2.2s.1.2.2.2h2.2c.9 0 1.7.8 1.7 1.7v2.2c-.1.2 0 .3.2.3zm-19.8-4.6h-2.2c-1.2 0-2.2 1-2.2 2.2v2.2c0 .1.1.2.2.2s.2-.1.2-.2V15c0-.9.8-1.7 1.7-1.7h2.2c.1 0 .2-.1.2-.2.2-.2.1-.3-.1-.3z" class="st2"/></svg>