<svg xmlns="http://www.w3.org/2000/svg" id="Layer_1" x="0" y="0" version="1.1" viewBox="0 0 50 50" xml:space="preserve"><style>.st3{fill:none;stroke:#031326;stroke-width:1.5;stroke-linecap:round;stroke-linejoin:round;stroke-miterlimit:10}</style><path fill="#00c8e2" d="M47.8 26.7l.4 4.2L2 47.5l.2-8.9.3-5.1L48.6 17l-.8 3.6z"/><path fill="#00dffc" d="M47.8 10.4l-.5 7.6L2.1 34.1v-9.6l.3-4.3L48 3.9z"/><path fill="none" stroke="#031326" stroke-linecap="round" stroke-linejoin="round" stroke-miterlimit="10" stroke-width="2.5" d="M12.3 47.2H2.2V2.6h45.6v44.6"/><path d="M12.5 12.6h3.8" class="st3"/><circle cx="26.9" cy="26.9" r="6.7" class="st3"/><path d="M14.4 20.2h1.9m21.1-3.8h-3.8l-1.9-3.8h-9.6l-1.9 3.8h-7.7c-1.1 0-1.9.9-1.9 1.9v17.2c0 1.1.9 1.9 1.9 1.9h24.9c1.1 0 1.9-.9 1.9-1.9V18.3c0-1-.8-1.9-1.9-1.9z" class="st3"/></svg>