<svg xmlns="http://www.w3.org/2000/svg" id="Layer_1" x="0" y="0" version="1.1" viewBox="0 0 50 50" xml:space="preserve"><style>.st2,.st3{fill:none;stroke:#444;stroke-linecap:round;stroke-linejoin:round;stroke-miterlimit:10}.st3{stroke-width:.5}</style><path fill="#e589ef" d="M45.6 2.7H4.5C3.1 2.7 3.1 6.6 3.1 8l-.2 16.9-.5 10.2 1.2 11.8 12.4.5L48.1 36V5.3c0-1.5-1.1-2.6-2.5-2.6z"/><path fill="none" stroke="#444" stroke-linecap="round" stroke-linejoin="round" stroke-miterlimit="10" stroke-width="2.5" d="M32.8 48.1h-27c-1.9 0-3.4-1.6-3.4-3.5v-39c0-1.9 1.5-3.5 3.4-3.5h39c1.9 0 3.4 1.6 3.4 3.5v32.5"/><path d="M11.2 21.3l4.9-3.6v-6.5c0-.6.4-1 1-1l2.7-.1c.6 0 1.1.5 1 1v3.1l5.4-4c.7-.5 1.7-.5 2.4 0l15.2 12.2m-2.5 9.1V20.8" class="st2"/><circle cx="33" cy="28.1" r="3.6" class="st2"/><path d="M39.8 40.6s0-8.9-6.8-8.9c0 0-3.3-.6-6.3 3.9h-4c-1.2 0-2.2 1-2.2 2.2 0 1.2 1 2.2 2.2 2.2h4.6c.8 0 1.5-.3 2.1-.9.5-.5 1.4-.1 1.4.6v1.2" class="st2"/><path d="M25.9 33.1l-1.8-7.5c-.1-.6-.6-1-1.2-1H8.3c-.8 0-1.4.8-1.2 1.5L9.9 38c.1.6.6 1 1.2 1h7.5" class="st3"/><circle cx="17.3" cy="30.5" r="2.6" class="st3"/><path d="M12.7 36.6s2-5.6 8.2-2.5" class="st3"/></svg>