<svg xmlns="http://www.w3.org/2000/svg" id="Layer_1" x="0" y="0" version="1.1" viewBox="0 0 50 50" xml:space="preserve"><style>.st0{fill:#71bac0}.st2{fill:#031326}</style><path d="M42.4 26.5c0-1.2-.7-2.2-1.7-2.7v-.4c0-1.1-.3-2.2-.7-3.1L7.3 32.2v11.7c0 1.7 1.4 3.1 3.1 3.1h.8l31.2-11.4v-9.1z" class="st0"/><path fill="#7ed0d6" d="M33 16.1h-.5c-1.9 1.9-4.6 3-7.6 3s-5.6-1.1-7.6-3h-.5c-4.3 0-7.9 3.4-7.9 7.5v.4c-1 .5-1.7 1.5-1.7 2.7v5.7L40 20.5c-1.1-2.6-3.8-4.4-7-4.4z"/><circle cx="24.9" cy="8" r="6.6" class="st0"/><path d="M47.9 47.3h-5.4c.8-.8 1.3-1.9 1.3-3.1v-2.1c0-.7-.6-1.2-1.2-1.2s-1.2.6-1.2 1.2v2.1c0 1-.8 1.8-1.8 1.8h-29c-1 0-1.8-.8-1.8-1.8V26.7c0-.3.1-.6.2-.9h32.1c.2.3.3.6.3.9v10c0 .7.6 1.2 1.2 1.2s1.2-.6 1.2-1.2v-10c0-1.3-.6-2.6-1.7-3.4-.1-4.7-4.1-8.5-9.1-8.5h-1l-.4.3c-1.8 1.7-4.2 2.7-6.7 2.7s-4.9-.9-6.7-2.7l-.4-.3h-1c-5 0-9 3.8-9.1 8.5-1 .8-1.7 2.1-1.7 3.4v17.4c0 1.2.5 2.3 1.3 3.1H2.1c-.7 0-1.2.6-1.2 1.2s.6 1.2 1.2 1.2h45.8c.7 0 1.2-.6 1.2-1.2s-.5-1.1-1.2-1.1zM17 17.3c2.2 1.9 5 3 8 3s5.8-1.1 8-3c3.6 0 6.5 2.7 6.6 6H10.4c.1-3.3 3-6 6.6-6z" class="st2"/><path d="M24.9.4c-4.3 0-7.8 3.5-7.8 7.8s3.5 7.8 7.8 7.8 7.8-3.5 7.8-7.8S29.3.4 24.9.4zm0 13.2c-2.9 0-5.3-2.4-5.3-5.3 0-.4.1-.9.2-1.3 1.4-.3 2.6-1.2 3.3-2.4 1.5 2 3.8 3.4 6.5 3.4h.6v.4c.1 2.8-2.3 5.2-5.3 5.2zm.1 25.2c-.7 0-1.3-.3-1.8-.7-.4-.4-.7-.9-.8-1.5-.1-.8.1-1.6.6-2.2.1-.1.2-.3.3-.4.1-.2.2-.4.2-.6 0-.3.1-.6.2-.8.2-.6.7-.9 1.4-.9.5 0 .8.2 1.1.6.1.2.2.4.2.6 0 .1 0 .3.1.4v.1c-.2.4-.3.7-.4 1.1-.1.7.2 1.2.8 1.6.2.1.3.2.5.2.1 0 .1.1.1.1 0 .2 0 .3-.1.5-.2.6-.5 1.1-1.1 1.5-.3.2-.6.3-.9.3-.1.1-.3.1-.4.1zm.1-7.3v-.4c0-.2.1-.5.3-.7.2-.3.5-.5.9-.5h.1v.2c0 .4-.2.7-.4 1-.3.2-.5.3-.9.4.1 0 0 0 0 0z" class="st2"/></svg>