<svg xmlns="http://www.w3.org/2000/svg" id="Layer_1" x="0" y="0" version="1.1" viewBox="0 0 50 50" xml:space="preserve"><style>.st2{fill:#031326}</style><path fill="#dc5e82" d="M2.7 27.2c2.3 8.1 9.7 14 18.5 14 10.6 0 19.3-8.6 19.3-19.3 0-2.8-.6-5.5-1.7-7.9L2.7 27.2z"/><path fill="#f56991" d="M31.4 5.6L2.9 16c-.3 1.1-.6 2.2-.8 3.3-.1.8-.2 1.7-.2 2.6 0 1.8.3 3.6.7 5.3l36.1-13.1c-1.1-2.4-2.7-4.6-4.6-6.4-.8-.8-1.7-1.4-2.7-2.1z"/><ellipse cx="28.3" cy="44.4" class="st2" rx="21" ry="4.5"/><path d="M21.2 1.2C9.9 1.2.7 10.4.7 21.7s9.2 20.5 20.5 20.5S41.7 33 41.7 21.7 32.5 1.2 21.2 1.2zM13 37.7c1.4.3 2.8.4 4.3.4 10.5 0 19.3-7 21.9-16.7v.3c0 2.2-.4 4.3-1.1 6.2C34.2 34.7 27 39 18.9 39c-1.2 0-2.3-.1-3.5-.3-.8-.3-1.6-.6-2.4-1zm26-18.8c-1.7 10.6-10.7 18.5-21.7 18.5-2.2 0-4.3-.3-6.4-.9L9.1 35c2.1.6 4.3 1 6.6 1 11.6 0 21.2-8.6 22.6-19.8.3.8.5 1.7.7 2.7zM5.4 30.3c-1.4-2.6-2.2-5.5-2.2-8.7 0-9.9 8.1-18 18-18 5.9 0 11.2 2.9 14.5 7.4-.3 11.7-9.8 21.1-21.6 21.1-3.1 0-6-.6-8.7-1.8zm1.4 2.1c2.3.8 4.8 1.2 7.3 1.2 11.9 0 21.7-9 23-20.5.2.3.3.6.5.9-.6 11.7-10.2 21-21.9 21-2.8 0-5.6-.5-8.1-1.6-.3-.3-.6-.6-.8-1zm14.4 7.3c-.8 0-1.7-.1-2.5-.2h.2c7.1 0 13.5-3.2 17.7-8.5-3.2 5.2-8.9 8.7-15.4 8.7z" class="st2"/></svg>