<svg xmlns="http://www.w3.org/2000/svg" id="Layer_1" x="0" y="0" version="1.1" viewBox="0 0 50 50" xml:space="preserve"><style>.st2{fill:#031326}</style><path fill="#bee367" d="M48.1 12.8l-46 16.7v8.3c0 1.3 1 2.3 2.3 2.3h18.4l25.3-9.2V12.8zM2.5 42.3V47H4l12.8-4.7z"/><path fill="#d4ff73" d="M48.1 12.6c0-1.3-1-2.3-2.3-2.3h-6.9c-.6-.8-1.2-1.6-2-2.4-.7-.7-1.5-1.4-2.4-2-.4-.3-1-.2-1.4.1l-1.3 1.3c-.9-.5-1.9-.9-2.8-1.2V4.4c0-.5-.4-1-.9-1.1-2-.4-4.1-.4-6.1 0-.5.1-.9.6-.9 1.1v1.8c-1 .3-1.9.7-2.8 1.2L17 6.1c-.4-.4-1-.4-1.4-.1-.8.6-1.6 1.2-2.4 2-.7.7-1.4 1.5-2 2.4H4.4c-1.3 0-2.3 1-2.3 2.3v16.9l46-16.7v-.3z"/><path d="M48.1 48.2H1.8V41h18.6l.3.8c.1.2.3.4.6.4h7.4c.3 0 .5-.2.6-.4l.3-.8h18.6v7.2zM4.3 45.7h41.3v-2.2H31.1c-.6.7-1.5 1.2-2.4 1.2h-7.4c-1 0-1.8-.4-2.4-1.2H4.3v2.2zM45.6 8.4h-6.7c-.4-.5-.8-.9-1.2-1.3-.8-.8-1.6-1.5-2.5-2.1-.9-.6-2.2-.5-3 .3l-.7.7c-.4-.2-.9-.4-1.4-.6v-1c0-1.1-.8-2.1-1.9-2.3-2.1-.4-4.4-.4-6.6 0-1.1.2-1.9 1.2-1.9 2.3v.9c-.5.2-.9.4-1.4.6l-.7-.7c-.8-.8-2.1-.9-3-.3-.8.6-1.6 1.4-2.4 2.1-.4.4-.8.9-1.2 1.3H4.2c-2 0-3.5 1.6-3.5 3.5V37c0 2 1.6 3.5 3.5 3.5h41.4c2 0 3.5-1.6 3.5-3.5V11.9c0-1.9-1.6-3.5-3.5-3.5zm-33.4 2.5c.5-.7 1.1-1.4 1.7-2.1.6-.6 1.3-1.2 2.1-1.7L17.9 9l.8-.5c.8-.5 1.7-.8 2.6-1.1l.9-.3V4.5c1.8-.3 3.6-.3 5.4 0v2.6l.9.3c.9.3 1.8.6 2.6 1.1l.8.5 1.9-1.9c.7.5 1.4 1.1 2.1 1.7.6.6 1.2 1.3 1.7 2.1l-1.9 1.9.5.8c.5.8.8 1.7 1.1 2.6l.3.9h2.6c.2.9.2 1.8.2 2.7 0 .9-.1 1.8-.2 2.7h-2.6l-.3.9c-.3.9-.6 1.8-1.1 2.6-.1.2-.1.4-.1.7 0 .4.1.7.3 1l1.2 1.2c-.5.7-1.1 1.4-1.7 2.1-.5.5-.5 1.3 0 1.8.2.2.6.4.9.4.3 0 .6-.1.9-.4.8-.8 1.5-1.6 2.1-2.5.6-.9.5-2.2-.3-3l-.7-.7.6-1.5h.9c1.1 0 2.1-.8 2.3-1.9.2-1.1.3-2.2.3-3.3 0-1.1-.1-2.2-.3-3.3-.2-1.1-1.2-1.9-2.3-1.9h-.9c-.2-.5-.4-.9-.6-1.4l.1-.1h4.6c.9 0 1.6.6 1.6 1.3v20.2c0 .7-.7 1.3-1.6 1.3H30c.1-.3.2-.5.2-.8v-1.8c0-.7-.6-1.2-1.2-1.2s-1.2.6-1.2 1.2v1.7c-1.8.3-3.6.3-5.4 0v-2.6l-.9-.3c-.9-.3-1.8-.6-2.6-1.1l-.8-.5-2.1 1.9c-.7-.5-1.4-1.1-2.1-1.7-.6-.6-1.2-1.3-1.7-2.1l1.9-1.9-.5-.8c-.5-.8-.8-1.7-1.1-2.6l-.3-.9H9.6c-.2-.9-.2-1.8-.2-2.7 0-.9.1-1.8.2-2.7h2.6l.3-.9c.3-.9.6-1.8 1.1-2.6l.5-.8-1.9-1.9zM11 13.2c-.2.4-.4.9-.6 1.4h-.9c-1.1 0-2.1.8-2.3 1.9-.2 1.1-.3 2.2-.3 3.3 0 1.1.1 2.2.3 3.2.2 1.2 1.2 2 2.3 2h.9c.2.5.4.9.6 1.4l-.7.6c-.8.8-.9 2.1-.3 3 .6.9 1.3 1.8 2.1 2.5.8.8 1.6 1.5 2.5 2.1.9.6 2.2.5 3-.3l.7-.7c.4.2.9.4 1.4.6v.9c0 .3.1.6.2.8H6.3c-.9 0-1.6-.6-1.6-1.3V14.5c0-.7.7-1.3 1.6-1.3H11zm35.6 23.9c0 .6-.5 1-1 1H4.2c-.6 0-1-.5-1-1V11.9c0-.6.5-1 1-1h5.5c0 .4.1.9.3 1.3H6.3c-1.4 0-2.6 1.1-2.6 2.3v20.2C3.7 36 4.9 37 6.3 37h14.3c.3.2.6.4 1 .5 1.1.2 2.2.3 3.3.3 1.1 0 2.2-.1 3.3-.3.4-.1.7-.2 1-.5h14.3c1.4 0 2.6-1.1 2.6-2.3V14.5c0-1.3-1.2-2.3-2.6-2.3h-3.7c.2-.4.3-.8.3-1.3h5.4c.6 0 1 .5 1 1v25.2z" class="st2"/><path d="M24.9 28.7c-.5 0-1.1-.1-1.7-.2-2.3-.4-4.4-1.8-5.7-3.7-1.3-2-1.8-4.3-1.4-6.7.4-2.3 1.8-4.4 3.7-5.7 2-1.3 4.3-1.8 6.7-1.4 4.8.9 8 5.6 7.1 10.4-.7 4.3-4.5 7.3-8.7 7.3zm0-15.3c-1.3 0-2.5.4-3.6 1.1-1.4 1-2.4 2.4-2.7 4.1-.7 3.5 1.6 6.8 5.1 7.5 1.7.3 3.4 0 4.8-1s2.4-2.4 2.7-4.1c.7-3.5-1.6-6.8-5.1-7.5-.4-.1-.8-.1-1.2-.1zm7.6 7.8z" class="st2"/><circle cx="24.9" cy="19.8" r="3.3" class="st2"/></svg>