<svg xmlns="http://www.w3.org/2000/svg" id="Layer_1" x="0" y="0" version="1.1" viewBox="0 0 50 50" xml:space="preserve"><style>.st2{fill:#031326}</style><path fill="#fcc34f" d="M48 1.8h-.6L2 18.3v28.4L48 30z"/><path fill="#fdcf72" d="M2 1.8v16.5L47.4 1.8z"/><path d="M36.9 49.3H.7V.7h48.5v30.1c0 .7-.6 1.2-1.2 1.2s-1.2-.6-1.2-1.2V3.2H3.2v43.5h33.7c.7 0 1.2.6 1.2 1.2s-.5 1.4-1.2 1.4z" class="st2"/><circle cx="25" cy="24.8" r="6.2" class="st2"/><path d="M19.9 20h-7.6v-7.6h7.6V20zm-6.1-1.5h4.6v-4.6h-4.6v4.6zM37.7 20h-7.6v-7.6h7.6V20zm-6.1-1.5h4.6v-4.6h-4.6v4.6zM19.9 37.6h-7.6V30h7.6v7.6zm-6.1-1.5h4.6v-4.6h-4.6v4.6zm23.9 1.5h-7.6V30h7.6v7.6zm-6.1-1.5h4.6v-4.6h-4.6v4.6zM6.2 5.7h3.5v3.5H6.2zm38.1 4h-4.5V5.2h4.5v4.5zm-3.5-1h2.5V6.2h-2.5v2.5zM10.2 44.8H5.7v-4.5h4.5v4.5zm-3.5-1h2.5v-2.5H6.7v2.5zm33.6-3h3.5v3.5h-3.5z" class="st2"/></svg>