<svg xmlns="http://www.w3.org/2000/svg" id="Layer_1" x="0" y="0" version="1.1" viewBox="0 0 50 50" xml:space="preserve"><style>.st2{fill:#031326}</style><path fill="#f0cd77" d="M32.9 5.6c0-1.4-1.2-2.6-2.6-2.6h-25C3.9 3 2.7 4.2 2.7 5.6v11.1L32.9 5.6z"/><path fill="#ecc158" d="M44.2 18.8c0-1.4-1.2-2.6-2.6-2.6h-8.7V5.7l-30.2 11v13.9c0 1.4 1.2 2.6 2.6 2.6h10.9v8.4c0 1.2.8 2.1 1.8 2.5l26.1-9.5V18.8z"/><path d="M7.4 25.4h7c6.4 0 12 0 13.3-.1-.2-.4-1.7-2.7-3.7-5.6-.3-.5-.8-.8-1.3-.8-.3 0-.5.1-.7.3-.5.4-1.1.6-1.7.6-1.1 0-2.2-.7-2.8-2-.4-.7-1-2.1-1.7-3.4-.8-1.6-1.6-3.3-1.8-3.7-.1-.2-.2-.3-.2-.3-.1 0-.1.1-.3.3-.4.8-5.8 13-6.2 13.9-.1.4-.1.7.1.8z" class="st2"/><circle cx="20.6" cy="14.2" r="2.5" class="st2"/><path d="M41.4 15.3H34V5.9C34 3.8 32.2 2 30.1 2h-25C3 2 1.3 3.8 1.3 5.9v25c0 2.1 1.7 3.9 3.9 3.9h9.7v7.1c0 2.1 1.7 3.9 3.9 3.9h18.7c.7 0 1.2-.6 1.2-1.2s-.6-1.2-1.2-1.2H18.7c-.8 0-1.4-.6-1.4-1.4v-8.1h12.1c2 0 3.6-1.6 3.6-3.6V17.8h8.4c.8 0 1.4.6 1.4 1.4v16c0 .7.6 1.2 1.2 1.2s1.2-.6 1.2-1.2v-16c.1-2.2-1.7-3.9-3.8-3.9zm-9.9 14.8c0 1.2-.9 2.1-2.1 2.1H5.1c-.8 0-1.4-.6-1.4-1.4v-25c0-.8.6-1.4 1.4-1.4h25c.8 0 1.4.6 1.4 1.4v24.3z" class="st2"/><path fill="#031326" d="M48.2 47.4c.7-.7.7-1.7.2-2.5-.1-.1-.1-.2-.2-.2l-1.5-1.4-1.1-1.1-6.5-6.3-3.6-.9.9 3.5 6.5 6.3L44 46l1.5 1.4c.8.8 2 .8 2.7 0z"/></svg>