<svg xmlns="http://www.w3.org/2000/svg" id="Camada_1" x="0" y="0" version="1.1" viewBox="0 0 50 50" xml:space="preserve"><style>.st1{fill:#c3ff68}.st2{fill:none;stroke:#494949;stroke-width:2.5;stroke-linecap:round;stroke-linejoin:round;stroke-miterlimit:10}</style><path fill="#afe55d" d="M34 24.2v5.6L3 41.2V26.9l18.2-6.7H30c2.2 0 4 1.8 4 4z"/><path d="M4 9.3C4 7.6 4.8 6 6 5l3.3-1.2h.1c3 0 5.5 2.5 5.5 5.5s-2.5 5.5-5.5 5.5C6.5 14.8 4 12.3 4 9.3z" class="st1"/><circle cx="26.5" cy="11.3" r="3.5" class="st1"/><path d="M22.7 20.2L3 27.4v-3.2c0-2.2 1.8-4 4-4h15.7z" class="st1"/><path d="M34 24.2v18c0 2.2-1.8 4-4 4H7c-2.2 0-4-1.8-4-4v-18c0-2.2 1.8-4 4-4h23c2.2 0 4 1.8 4 4zM15 9.3c0 3-2.5 5.5-5.5 5.5S4 12.3 4 9.3C4 7.6 4.8 6 6 5c1-.7 2.1-1.2 3.4-1.2h.1c3 0 5.5 2.4 5.5 5.5z" class="st2"/><circle cx="26.5" cy="11.3" r="3.5" class="st2"/><path d="M34 36.5l13 4.9V25l-6 2.3-.3.1-6.7 2.5" class="st2"/></svg>