<svg xmlns="http://www.w3.org/2000/svg" id="Camada_1" x="0" y="0" version="1.1" viewBox="0 0 50 50" xml:space="preserve"><style>.st2{fill:#031326}</style><path fill="#e06b6b" d="M36.7 2.1H6.9C4.5 2.1 2.6 4 2.6 6.3v12.8L40.8 5.3c-.4-1.9-2.1-3.2-4.1-3.2z"/><path fill="#c86060" d="M3.6 27v15.8c0 2.1 1.6 3.9 3.6 4.2l40.5-14.7c0-.2-.1-.5-.3-.7l-1.2-1.2c-.2-.2-.5-.4-.9-.4-.3 0-.5.1-.7.2l-1.1.8c-.4-.2-.9-.4-1.4-.6l-.2-1v-24c0-.4-.1-.7-.2-1.1L3.6 18.2V27"/><path d="M38.9 42.4c-2.4 0-4.3-1.9-4.3-4.3s1.9-4.3 4.3-4.3 4.3 1.9 4.3 4.3-1.9 4.3-4.3 4.3zm0-7c-1.5 0-2.7 1.2-2.7 2.7s1.2 2.7 2.7 2.7c1.5 0 2.7-1.2 2.7-2.7s-1.2-2.7-2.7-2.7z" class="st2"/><path d="M47.5 41.7l.3-.9c.2-.7-.2-1.4-.8-1.6-.7-.2-1.4.2-1.6.8-.1.4-.3.8-.5 1.2l-.4.8 1.3 1.8-1.2 1.2-1.8-1.3-.7.4c-.4.2-.8.4-1.2.5l-.7.2-.4 2.2h-1.4c-.1-.1-.2-.3-.4-.3l-.3-1.8-.7-.3c-.4-.1-.8-.3-1.1-.5l-.7-.4-1.8 1.3-1.3-1.2 1.3-1.8-.4-.7c-.2-.4-.4-.8-.5-1.1l-.2-.7-2.2-.4v-1.8l2.2-.4.2-.8c.1-.4.3-.8.5-1.2l.4-.7-1.4-1.7 1.2-1.3 1.8 1.3.7-.4c.4-.2.8-.4 1.1-.5l.7-.2.4-2.2h1.8l.4 2.2.8.2c.4.1.8.3 1.2.5l.7.4 1.8-1.3 1.2 1.2c-.4.6-.3 1.4.3 1.8.6.4 1.4.3 1.8-.3.7-1 .6-2.4-.3-3.3l-1.3-1.3c-.9-.9-2.3-1-3.2-.3l-.6.4c-.1 0-.1 0-.2-.1V6c0-3-2.5-5.5-5.5-5.5H7.1C4.1.5 1.6 3 1.6 6v37.5c0 3 2.5 5.5 5.5 5.5h29.4c.4.3 1 .6 1.6.6h1.8c1.2 0 2.3-.9 2.5-2.1l.1-.7h.1l.6.4c1 .7 2.4.6 3.3-.3l1.3-1.3c.9-.9 1-2.2.3-3.3l-.6-.6zM4.1 43.5V6c0-1.7 1.4-3 3-3H37c1.7 0 3 1.4 3 3v20.8h-2c-1.2 0-2.3.9-2.5 2.1l-.1.7h-.1l-.5-.4c-1-.7-2.4-.6-3.3.3l-1.3 1.3c-.9.9-1 2.2-.3 3.3l.4.6v.1l-.7.1c-1.2.2-2.1 1.3-2.1 2.5v1.8c0 1.2.9 2.3 2.1 2.5l.7.1v.1l-.3.4c-.7 1-.6 2.4.3 3.3l.9.9H7.1c-1.7 0-3-1.3-3-3z" class="st2"/><path d="M34.5 12H17.8c-.4 0-.7-.3-.7-.7s.3-.7.7-.7h16.7c.4 0 .7.3.7.7s-.3.7-.7.7zm-6.8 2h-9.9c-.4 0-.7-.3-.7-.7 0-.4.3-.7.7-.7h9.9c.4 0 .7.3.7.7 0 .4-.3.7-.7.7zm-17 1.2l-2.2-1.8c-.4-.4-.5-1-.2-1.4.3-.4 1-.5 1.4-.2l.9.8 3.1-2.7c.4-.4 1-.3 1.4.1.4.4.3 1-.1 1.4l-4.3 3.8zm23.8 4.3H17.8c-.4 0-.7-.3-.7-.7 0-.4.3-.7.7-.7h16.7c.4 0 .7.3.7.7 0 .4-.3.7-.7.7zm-6.8 2.1h-9.9c-.4 0-.7-.3-.7-.7 0-.4.3-.7.7-.7h9.9c.4 0 .7.3.7.7 0 .4-.3.7-.7.7zm-17 1.1l-2.2-1.8c-.4-.3-.5-1-.2-1.4.3-.4 1-.5 1.4-.2l.9.8 3.1-2.7c.4-.4 1-.3 1.4.1.4.4.3 1-.1 1.4l-4.3 3.8zm23.8 4H17.8c-.4 0-.7-.3-.7-.7 0-.4.3-.7.7-.7h16.7c.4 0 .7.3.7.7 0 .4-.3.7-.7.7zm-6.8 2.1h-9.9c-.4 0-.7-.3-.7-.7s.3-.7.7-.7h9.9c.4 0 .7.3.7.7s-.3.7-.7.7zm-17 1.1l-2.2-1.8c-.4-.3-.5-1-.2-1.4s1-.5 1.4-.2l.9.8 3.1-2.7c.4-.4 1-.3 1.4.1.4.4.3 1-.1 1.4l-4.3 3.8zm15 9.4H9c-.4 0-.7-.3-.7-.7 0-.4.3-.7.7-.7h16.7c.4 0 .7.3.7.7.1.3-.3.7-.7.7zm0 2.5H9c-.4 0-.7-.3-.7-.7 0-.4.3-.7.7-.7h16.7c.4 0 .7.3.7.7.1.4-.3.7-.7.7z" class="st2"/></svg>