<svg xmlns="http://www.w3.org/2000/svg" id="Layer_1" x="0" y="0" version="1.1" viewBox="0 0 50 50" xml:space="preserve"><style>.st1{fill:none;stroke:#444;stroke-linecap:round;stroke-linejoin:round;stroke-miterlimit:10}</style><path fill="#ff6b6b" d="M41.2 10.7L38.5 7l-6.9-4.8-6.2-.4C22.1 1.9 12 5.1 12 8.3l-4.1 8.6-.1 31.4 10.3.2 25.1-8.9-.1-20.7c.8-.4-.9-6.2-1.9-8.2z"/><path d="M15.1 16.2c.7 3 3.8 4.9 6.8 4.1 3-.7 4.9-3.8 4.1-6.8-.7-3-3.8-4.9-6.8-4.1-3 .7-4.9 3.8-4.1 6.8zm6.8 4.5l3.7 14.5m9.9 5h-27l7-9.1h27z" class="st1"/><ellipse cx="32.2" cy="36.8" class="st1" rx="1" ry=".5"/><path d="M35.5 40.2v3.7" class="st1"/><path fill="none" stroke="#444" stroke-linecap="round" stroke-linejoin="round" stroke-miterlimit="10" stroke-width="2.5" d="M39.8 43.6l3.7-4.8V20c0-9.9-8-17.9-17.9-17.9h0c-9.9 0-17.9 8-17.9 17.9v28.6h22"/><path fill="none" stroke="#444" stroke-linecap="round" stroke-linejoin="round" stroke-miterlimit="10" stroke-width=".5" d="M21.1 11.5s3 .4 2.9 4.4"/></svg>