<svg xmlns="http://www.w3.org/2000/svg" viewBox="0 0 50 50"><path fill="#ec6a6d" d="M33.7 3.4l5.1 7.4-1.3 9.8-17.1 6.2-5.2-12 1.9-8 7.2-4.2z"/><path fill="#e46160" d="M36.9 20.5l-16.5 6.3 3.8 7-9.4.9L4 46l4.1.1 30.8-11-9.9-1.3z"/><path fill="#444" d="M46.7 41.3L39 33.9c-.2-.2-.4-.3-.7-.3h-7.7c2.6-4.7 6.2-11.1 6.7-12.1 1.1-2 2.3-4.6 2.3-7.5 0-7-5.7-12.7-12.7-12.7S14.3 6.9 14.3 13.9c0 3 1.2 5.6 2.3 7.5.5 1 4.1 7.4 6.7 12.1h-8c-.2 0-.5.1-.7.3L3.1 45.2c-.3.3-.3.7-.2 1 .1.4.5.6.9.6h35.7c.4 0 .7-.2.8-.6.3-.6-.2-1.2-.8-1.2H6l9.8-9.5h10.8C24.1 31 19 21.8 18.3 20.6c-1-1.8-2.1-4.1-2.1-6.6 0-6 4.9-10.9 10.8-10.9C33 3.1 37.9 8 37.9 14c0 2.6-1.1 4.9-2.1 6.6-.7 1.2-5.8 10.4-8.3 14.8H38l6.6 6.4.6.6c.4.4 1.1.4 1.4.1.2-.1.5-.8.1-1.2z"/><path fill="none" stroke="#444" stroke-miterlimit="10" d="M30.4 31.3L27.8 36l-.8 1.2-.7-1.3-3.1-5.5m-1.3 4.7l-4.1 5.2s-.3.4 0 1 1 .8 1 .8h8m.2 2.8v-4.5s0-.9.3-1.5c.3-.5 1-.5 1-.5h4.8s.8.1 1.1-.4c.3-.5 0-.9 0-.9l-1.8-2.4"/><path fill="#444" d="M25.7 20.8h-3.5l-.1-16.7 3.2-2.3.5.2zm2.1 4.9h3.5V27h-3.5zm2.5 6.5h-2.4v-3.5h3.5v2.4c0 .7-.5 1.1-1.1 1.1zm-9.7-20.5h-3.5V7.6c0-1.7 1.4-3.1 3.1-3.1h.5l-.1 7.2zm-1.2 13l-.4.1-2-3.4.1-1.3h3.5v4.7zm-2.3-10.6h3.5v3.5h-3.5zm8.1 19.3l-2.8-3.1v-4h2.8zm6.3-8.6h-3.8L28 4.5h3.5zM34 10.5h2.7v3.1H34zm1.5 12.1H34v-7.2h2.7v6c0 .6-.5 1.2-1.2 1.2zm1.2-13.7H34V5.4h1.4c.7 0 1.3.6 1.3 1.3v2.2zM22.2 22.3h3.5v2.4h-3.5z"/></svg>