<svg xmlns="http://www.w3.org/2000/svg" id="Layer_1" x="0" y="0" version="1.1" viewBox="0 0 50 50" xml:space="preserve"><style>.st0{fill:#00c8e2}.st1{fill:#00dffc}.st2{fill:#031326}</style><g id="Layer_4"><path d="M15.4 38.5c0 2.3 1 4.4 2.8 5.9l13.6-5c0-.3.1-.6.1-.8.1-3.4 1.1-6.7 3-9.6 3.9-6.2 2.1-14.4-4.1-18.4-2.6-1.6-5.6-2.3-8.7-2-7.3.9-12.5 7.4-11.7 14.7.2 2 .9 4 2.1 5.7 1.8 2.9 2.9 6.2 2.9 9.5z" class="st0"/><path d="M32.6 12.1c-5.4-5-13.8-4.7-18.8.6-1.9 2.1-3.1 4.7-3.5 7.5l22.3-8.1z" class="st1"/><path d="M24.2 46.5H23c-.6 0-1.1-.1-1.7-.2-.3 0-.6-.4-.6-.7s.4-.6.7-.6h.1c.5.1.9.2 1.4.2h1.2c.6 0 1.3-.1 1.9-.2.3-.1.7.1.8.4.1.3-.1.7-.4.8-.7.2-1.4.3-2.2.3z" class="st2"/><path d="M24.8 49.4H23c-1.4 0-2.5-1.1-2.5-2.5-3.6-1.1-6.1-4.5-6.1-8.3 0-3.2-1-6.2-2.8-8.9-1.8-2.8-2.6-6.1-2.2-9.4.9-7.9 8-13.5 15.9-12.6 7.9.9 13.5 8 12.6 15.9-.2 2.2-1 4.3-2.2 6.1-1.8 2.7-2.8 5.8-2.8 9 0 1.3-.3 2.5-.8 3.7-.2.5-.9.7-1.4.5s-.7-.9-.5-1.4c.4-.9.6-1.8.6-2.8 0-3.6 1.1-7.1 3.1-10.1 3.7-5.7 2-13.3-3.6-17s-13.3-2-17 3.6c-2.6 4.1-2.6 9.3 0 13.3 2 3 3.1 6.4 3.1 10 0 3.1 2.2 5.8 5.2 6.5l.8.2v1.7c0 .2.2.4.4.4h1.9c.2 0 .4-.2.4-.4V46c0-.6.5-1 1-1s1 .5 1 1v.8c.3 1.4-.9 2.6-2.3 2.6z" class="st2"/><path d="M23.6 36.1c-3.1 0-6 0-8.5-.1-.3 0-.6-.3-.6-.6s.3-.6.6-.6c2.5 0 5.4.1 8.5.1s6 0 8.5-.1c.3 0 .6.3.6.6s-.3.6-.6.6c-2.5.1-5.4.1-8.5.1zm0 2.4c-3.1 0-6 0-8.5-.1-.2 0-.4-.2-.4-.4s.2-.4.4-.4c2.5 0 5.4.1 8.5.1s6 0 8.5-.1c.2 0 .4.2.4.4s-.2.4-.4.4c-2.5.1-5.4.1-8.5.1zm0 2.5c-3.1 0-6 0-8.5-.1-.2 0-.4-.2-.4-.4s.2-.4.4-.4c2.5 0 5.4.1 8.5.1s6 0 8.5-.1c.2 0 .4.2.4.4s-.2.4-.4.4c-2.5.1-5.3.1-8.5.1zM22.6.6h.2c.6 0 1.1.5 1.1 1.1V4c0 .6-.5 1.1-1.1 1.1h-.2c-.6 0-1.1-.5-1.1-1.1V1.7c0-.6.5-1.1 1.1-1.1zm-8.7 2l.2-.1c.5-.2 1.2 0 1.4.5l1 2.1c.2.5 0 1.2-.5 1.4l-.2.1c-.5.2-1.2 0-1.4-.5l-1-2.1c-.3-.5-.1-1.2.5-1.4zM6.8 8.1l.1-.2c.4-.5 1.1-.5 1.5-.1l1.8 1.5c.5.4.5 1.1.1 1.5l-.1.2c-.4.5-1.1.5-1.5.1L6.9 9.6c-.4-.4-.5-1.1-.1-1.5zM2.7 16l.1-.2c.2-.6.7-.9 1.3-.8l2.2.6c.6.2.9.8.7 1.4v.2c-.2.6-.7.9-1.3.8l-2.2-.6c-.6-.2-1-.8-.8-1.4zm-.4 9v-.2c-.1-.6.3-1.1.9-1.2l2.3-.4c.5-.2 1.1.2 1.2.8v.2c.1.6-.3 1.1-.9 1.2l-2.3.4c-.5.1-1.1-.3-1.2-.8zm3.5 8.2l-.1-.2c-.3-.5-.2-1.2.3-1.5l1.9-1.3c.4-.3 1.1-.2 1.4.3l.1.2c.3.5.2 1.2-.3 1.5l-1.9 1.3c-.4.3-1.1.2-1.4-.3z" class="st2"/><circle cx="38" cy="15.5" r="8.9" class="st0"/><circle cx="38.1" cy="15.6" r="4.5" class="st2"/><path d="M43.2 8.3c-.9-.6-1.4-1.6-2.4-1.8-.8-.2-2 .3-2.9.3-1.6-.1-3.1.1-4.6.7-1 .5-1.3 1.6-2.1 2.4-1.1 1.1-2.3 2.1-2.7 3.8l14.7-5.4z" class="st1"/><path d="M37.1 25.8h-.2c-.7-.1-1.3-.3-2-.5s-1.3-.5-1.9-.8c-.5-.2-.7-.7-.5-1.2l.2-.6c-.3-.2-.5-.4-.7-.6l-.5.3c-.5.3-1.1.1-1.4-.3-.8-1.2-1.4-2.4-1.9-3.7-.2-.5 0-1.1.5-1.3l.5-.3c-.1-.3-.1-.7-.1-1l-.6-.2c-.5-.1-.8-.7-.7-1.2.1-.7.3-1.3.5-2 .2-.6.5-1.3.8-1.9.2-.5.8-.7 1.2-.6l.6.2c.2-.3.4-.5.6-.7l-.3-.5c-.3-.5-.1-1 .3-1.3 1.1-.8 2.4-1.4 3.7-1.9.5-.2 1 0 1.3.5l.3.5c.3 0 .6-.1 1-.1l.1-.6c.1-.5.6-.8 1.1-.7.7.1 1.3.3 2 .5s1.3.5 2 .7c.5.2.7.7.6 1.2l-.2.6c.3.2.5.4.7.7l.2-.1c.3-.1.7.1.8.4.1.3 0 .5-.2.7l-1 .5-.3-.3c-.4-.4-.8-.8-1.3-1.1l-.4-.3.4-1.3c-.5-.2-1.1-.4-1.6-.6-.5-.2-1.1-.3-1.7-.5l-.4 1.3h-.5c-.5 0-1.1 0-1.6.1L36 8l-.6-1.2c-.4.2-1 .4-1.6.7l-1.5.9.7 1.2-.3.3c-.4.4-.8.8-1.1 1.3l-.3.4-1.3-.4c-.1.4-.4.9-.6 1.6s-.4 1.3-.4 1.7l1.3.4v.5c0 .6.1 1.1.2 1.7l.1.5-1.2.6c.2.5.4 1.1.7 1.6.3.6.7 1.2.9 1.5l1.2-.6.3.3c.4.4.8.7 1.2 1l.4.3-.4 1.3c.5.2 1.1.4 1.6.6.7.2 1.3.4 1.7.4l.4-1.3h.5c.5 0 1.1 0 1.6-.1l.5-.1.6 1.2c.4-.1.9-.4 1.6-.7s1.2-.7 1.5-.9l-.7-1.3.3-.3c.4-.4.7-.8 1-1.2l.3-.4 1.3.4c.2-.4.4-.9.6-1.6.1-.3.5-.5.8-.4.3.1.5.5.4.8-.2.7-.4 1.3-.7 2-.2.5-.7.7-1.2.5l-.6-.2c-.2.3-.4.5-.6.7l.3.5c.3.5.1 1-.3 1.3-.6.4-1.2.7-1.8 1.1-.6.3-1.3.6-1.9.9-.5.2-1 0-1.3-.5l-.3-.5c-.3 0-.7.1-1 .1l-.2.4c-.1.5-.5.8-1 .8zm-23-.7c-.3 0-.5-.2-.6-.4-.6-1.5-.8-3.1-.6-4.7.5-4.7 4.3-8.5 9-9H23c.3 0 .7.2.7.5s-.2.7-.5.7H23c-.3 0-.7 0-1 .1-4.1.5-7.4 3.8-7.9 7.9-.2 1.4 0 2.8.5 4.1.1.3 0 .7-.4.8h-.1z" class="st2"/></g></svg>