<svg xmlns="http://www.w3.org/2000/svg" id="Layer_1" x="0" y="0" version="1.1" viewBox="0 0 50 50" xml:space="preserve"><style>.st3{fill:#031326}</style><path fill="#fcc34f" d="M48.5 25.7l.4 4.3L2.3 47l.1-9.2.4-5.2 46.4-16.9-.7 3.7z"/><path fill="#fdcf72" d="M48.5 9l-.6 7.7L2.4 33.3v-9.9l.3-4.4L48.6 2.3z"/><path fill="none" stroke="#031326" stroke-linecap="round" stroke-linejoin="round" stroke-miterlimit="10" stroke-width="2.5" d="M6.5 47.5H2.2V1.7h46v45.8H32.3"/><g id="XMLID_825_"><g id="XMLID_2572_"><g id="XMLID_269_"><path id="XMLID_284_" d="M29.2 31.4v-.9l1.5-.6.6.6c.3.3.7.3 1 0l2.3-2.3c.3-.3.3-.7 0-1l-.6-.5c.3-.5.5-1 .6-1.5h.9c.4 0 .7-.3.7-.7v-3.2c0-.4-.3-.7-.7-.7h-.9l-.6-1.5.6-.6c.3-.3.3-.7 0-1l-2.3-2.3c-.3-.3-.7-.3-1 0l-.6.6c-.3-.2-.6-.3-.9-.4-.7-2.1-2.7-3.6-5-3.6.8-.1 1.5-.2 2.3-.2 2 0 4 .5 5.8 1.6.1.1.2.1.4.1s.5-.1.6-.3c.2-.3.1-.8-.2-1-2-1.2-4.2-1.8-6.5-1.8-1.2 0-2.5.2-3.6.5-.4-.7-.9-1.3-1.5-1.8-1.2-1-2.6-1.5-4.1-1.5-2.8 0-5.3 1.8-6.2 4.4-2.7.2-4.9 2.5-4.9 5.3 0 2.9 2.4 5.3 5.3 5.3h.1L11.2 24c-.1.2-.1.5 0 .7.1.2.4.3.6.3h2.5l-.8 5.9c0 .3.1.6.4.7.1 0 .2.1.3.1.2 0 .4-.1.5-.3l.6-.8v.1c1.1 2.3 1.4 4.8.8 7.2l-1 4.3c-.1.4.1.8.5.8h.2c.3 0 .6-.2.7-.5l1-4.3c.7-2.7.3-5.6-.9-8.1-.1-.2-.2-.5-.3-.7l3-3.8c.1.3.3.7.5 1l-.6.6c-.3.3-.3.7 0 1l2.3 2.3c.3.3.7.3 1 0l.6-.6c.5.3 1 .5 1.5.6v.9c0 .4.3.7.7.7h3.2c.4 0 .7-.3.7-.7zm.4-8.6c0 1.5-1.2 2.7-2.7 2.7-1.5 0-2.7-1.2-2.7-2.7 0-.2 0-.4.1-.6h.6c1.5 0 2.8-.6 3.8-1.6.5.6.9 1.4.9 2.2zM12 20.9c-2.1 0-3.9-1.7-3.9-3.9s1.7-3.9 3.9-3.9h.1c.3 0 .6-.2.7-.5.6-2.3 2.6-3.9 5-3.9s4.5 1.7 5 4.1c0 .2.2.4.3.5.2.1.4.1.6.1.4-.1.7-.2 1.1-.2 2.1 0 3.9 1.7 3.9 3.9 0 2.1-1.7 3.9-3.9 3.9h-4.7l1.9-3c.1-.2.1-.5 0-.7-.1-.2-.4-.4-.6-.4h-6.1c-.3 0-.5.1-.6.4L12.8 21l-.8-.1zm1 2.7l2.8-5.5h4.4l-1.9 3c-.1.2-.1.5 0 .7.1.2.4.4.6.4h1.4l-5 6.3.6-4.2c0-.2 0-.4-.2-.6-.1-.2-.3-.2-.5-.2l-2.2.1zm15.4 5.7c-.3.1-.5.4-.5.7v.7H26V30c0-.3-.2-.6-.5-.7-.7-.2-1.5-.5-2.1-.9-.3-.2-.6-.1-.9.1l-.5.5-1.3-1.3.5-.5c.2-.2.3-.6.1-.9-.4-.6-.7-1.3-.9-2.1l1.6-2.1h.7v.6c0 2.3 1.9 4.1 4.1 4.1s4.1-1.9 4.1-4.1c0-1.3-.6-2.5-1.6-3.3.4-.8.7-1.6.7-2.5.1.1.3.1.4.2.3.2.6.1.9-.1l.5-.5 1.3 1.3-.5.5c-.2.2-.3.6-.1.9.4.6.7 1.4.9 2.1.1.3.4.5.7.5h.7v1.8h-.7c-.3 0-.6.2-.7.5-.2.7-.5 1.5-.9 2.1-.2.3-.1.6.1.9l.5.5-1.3 1.4-.5-.5c-.2-.2-.6-.3-.9-.1-.6.5-1.3.8-2 .9z" class="st3"/><path id="XMLID_766_" d="M42.5 30.8l-2.3-7.6c0-2.3-.7-4.6-1.9-6.7-.2-.3-.6-.4-1-.2-.3.2-.4.6-.2 1 1.1 1.8 1.7 3.9 1.7 6.1v.2l2.1 6.8h-2.8c-.4 0-.7.3-.7.7v3.6c0 1.6-1.3 3-3 3h-4.3c-.3 0-.6.2-.7.6l-.7 4.1c-.1.4.2.7.6.8h.1c.3 0 .6-.2.7-.6l.6-3.5h3.7c2.4 0 4.4-2 4.4-4.4v-2.9h3c.2 0 .4-.1.6-.3.1-.2.1-.5.1-.7z" class="st3"/><path id="XMLID_767_" d="M35.7 15.1c.2 0 .4-.1.5-.2.1-.1.2-.3.2-.5s-.1-.4-.2-.5c-.1-.1-.3-.2-.5-.2s-.4.1-.5.2c-.1.1-.2.3-.2.5s.1.4.2.5c.2.1.4.2.5.2z" class="st3"/></g></g></g></svg>