<svg xmlns="http://www.w3.org/2000/svg" viewBox="0 0 50 50"><defs><style>.cls-1{fill:#e56060}.cls-2{fill:#ff6b6b}.cls-3{fill:#031326}</style></defs><g id="Layer_4" data-name="Layer 4"><path d="M15.4 38.52a7.65 7.65 0 002.77 5.9l13.59-5a6 6 0 00.06-.85 17.65 17.65 0 013-9.58A13.3 13.3 0 0022.09 8.63a13.29 13.29 0 00-9.64 20.45 17.37 17.37 0 012.95 9.44z" class="cls-1"/><path d="M32.63 12.12a13.29 13.29 0 00-22.26 8.11z" class="cls-2"/><path d="M24.25 46.48h-1.19a8.55 8.55 0 01-1.68-.17.63.63 0 11.25-1.23 6.88 6.88 0 001.43.15h1.19a7 7 0 001.88-.23.61.61 0 01.77.43.64.64 0 01-.43.78 8.31 8.31 0 01-2.22.27z" class="cls-3"/><path d="M24.83 49.38H23a2.51 2.51 0 01-2.5-2.51 8.74 8.74 0 01-6.11-8.31 16.38 16.38 0 00-2.77-8.87 14.22 14.22 0 01-2.23-9.39 14.34 14.34 0 1126.32 9.35 16.6 16.6 0 00-2.81 9 8.53 8.53 0 01-.81 3.65 1 1 0 11-1.89-.89 6.42 6.42 0 00.61-2.76 18.75 18.75 0 013.14-10.14 12.26 12.26 0 10-20.59 0 18.39 18.39 0 013.12 10A6.64 6.64 0 0021.71 45l.83.18v1.69a.42.42 0 00.42.42h1.87a.42.42 0 00.42-.42V46a1 1 0 012.09 0v.85a2.51 2.51 0 01-2.51 2.53z" class="cls-3"/><path d="M23.61 36.12c-3.12 0-6 0-8.53-.07a.62.62 0 01-.61-.63.62.62 0 01.62-.62c2.53.05 5.39.07 8.5.07s6 0 8.5-.07a.64.64 0 01.64.62.62.62 0 01-.62.63c-2.53.05-5.39.07-8.5.07zm0 2.36c-3.11 0-6 0-8.52-.06a.42.42 0 01-.41-.43.43.43 0 01.42-.41c2.54.05 5.4.07 8.51.07s6 0 8.51-.07a.4.4 0 01.42.41.42.42 0 01-.41.43c-2.55.04-5.41.06-8.52.06zm0 2.57c-3.15 0-6 0-8.52-.06a.42.42 0 01-.41-.43.46.46 0 01.42-.41c2.51.05 5.37.07 8.51.07s6 0 8.51-.07a.42.42 0 010 .84c-2.51.01-5.37.06-8.51.06z" class="cls-3"/><rect width="2.35" height="4.45" x="21.53" y=".62" class="cls-3" rx="1.07" ry="1.07"/><rect width="2.35" height="4.45" x="13.73" y="2.34" class="cls-3" rx="1.07" ry="1.07" transform="rotate(-25 14.914 4.56)"/><rect width="2.35" height="4.45" x="7.39" y="7.18" class="cls-3" rx="1.07" ry="1.07" transform="rotate(-50 8.562 9.41)"/><rect width="2.35" height="4.45" x="3.68" y="14.26" class="cls-3" rx="1.07" ry="1.07" transform="rotate(-75 4.859 16.483)"/><rect width="2.35" height="4.45" x="3.32" y="22.24" class="cls-3" rx="1.07" ry="1.07" transform="rotate(-100 4.494 24.466)"/><rect width="2.35" height="4.45" x="6.36" y="29.62" class="cls-3" rx="1.07" ry="1.07" transform="rotate(-125 7.536 31.849)"/><circle cx="37.99" cy="15.51" r="8.95" class="cls-1"/><circle cx="38.08" cy="15.64" r="4.54" class="cls-3"/><path d="M43.2 8.26c-.87-.56-1.41-1.57-2.44-1.84-.79-.21-2 .26-2.89.26a10.77 10.77 0 00-4.57.68c-1 .5-1.33 1.59-2.11 2.4-1.06 1.1-2.33 2.11-2.67 3.84z" class="cls-2"/><path d="M37.12 25.76a.68.68 0 01-.2 0 17.65 17.65 0 01-2-.51 18.42 18.42 0 01-1.92-.76 1 1 0 01-.55-1.24l.18-.58a7.36 7.36 0 01-.74-.62l-.54.28A1 1 0 0130 22a19 19 0 01-1.92-3.69 1 1 0 01.47-1.31l.55-.28a7.79 7.79 0 01-.09-1l-.58-.18a1 1 0 01-.7-1.17 19 19 0 01.52-2 18.62 18.62 0 01.75-1.88 1 1 0 011.25-.56l.58.18a8.67 8.67 0 01.62-.74l-.28-.54a1 1 0 01.33-1.32 18.55 18.55 0 013.66-1.91 1 1 0 011.27.48l.29.54c.31 0 .64-.07 1-.08l.14-.54A1 1 0 0139 5.26a19.09 19.09 0 012 .51 18 18 0 012 .74 1 1 0 01.56 1.24l-.19.58a9 9 0 01.73.67l.2-.1a.63.63 0 01.58 1.1l-1 .53-.32-.34a8 8 0 00-1.28-1.09l-.39-.26.4-1.27A15.2 15.2 0 0040.67 7 17.19 17.19 0 0039 6.53l-.4 1.27h-.47a7.38 7.38 0 00-1.63.14L36 8l-.61-1.18c-.41.17-1 .41-1.57.72a16 16 0 00-1.5.88l.68 1.2-.33.32a7.61 7.61 0 00-1.06 1.26l-.26.39-1.35-.4c-.15.36-.38.94-.6 1.62s-.35 1.25-.44 1.67l1.27.4v.47A8.2 8.2 0 0030.4 17l.09.46-1.17.61a15.18 15.18 0 00.68 1.56c.33.64.66 1.17.87 1.5l1.18-.62.33.34a7 7 0 001.25 1l.39.27-.4 1.26a16.65 16.65 0 001.63.61c.68.21 1.29.35 1.67.43l.4-1.26h.47a7.38 7.38 0 001.63-.15l.46-.09.61 1.18c.37-.15.94-.39 1.58-.72s1.16-.66 1.49-.87L43 21.39l.34-.33a8.38 8.38 0 001.05-1.25l.26-.39 1.27.4c.15-.37.39-.94.6-1.63a.62.62 0 011.19.38 16.82 16.82 0 01-.71 1.95 1 1 0 01-1.24.55l-.58-.18c-.2.26-.4.5-.62.74l.28.54a1 1 0 01-.34 1.32 18.27 18.27 0 01-1.78 1.06 20.48 20.48 0 01-1.9.86 1 1 0 01-1.27-.49l-.28-.54a7.77 7.77 0 01-1 .08l-.18.59a1 1 0 01-.97.71zm0-1.25zm3.18-.27zM45.82 20zm-16-8.89zM14.09 25.09a.63.63 0 01-.59-.41 10.13 10.13 0 01-.57-4.68 10.23 10.23 0 019-9 11.12 11.12 0 011.15 0 .63.63 0 110 1.25 8.6 8.6 0 00-1 .06 9 9 0 00-7.88 7.9 9.07 9.07 0 00.49 4.08.62.62 0 01-.37.8.52.52 0 01-.23 0z" class="cls-3"/></g></svg>