<svg xmlns="http://www.w3.org/2000/svg" fill="none" viewBox="0 0 50 50"><g clip-path="url(#clip0_1411_2)"><path fill="#FCC34F" d="M45.2 4.4H6.1c-1.3 0-4.2 3-4.2 4.4l-.2 16.1-.5 9.7 1.2 11.2L17.1 47l30.6-10.9V6.8c-.1-1.3-1.1-2.4-2.5-2.4z"/><path stroke="#444" stroke-linecap="round" stroke-linejoin="round" stroke-miterlimit="10" stroke-width="2.5" d="M32.9 46.1H5.3c-1.9 0-3.5-1.4-3.5-3.1V8.5c0-1.7 1.6-3.1 3.5-3.1h40c1.9 0 3.5 1.4 3.5 3.1v28.8"/><path stroke="#444" stroke-miterlimit="10" d="M21.5 14.1c.4-.5.9-.7 1.5-.7h4c.7 0 1.1.2 1.5.7.2.3.3.7.4 1.1.1.4.4.7.8.7.5 0 .9-.5.8-1-.3-1.7-1-3.2-3.6-3.2h-4c-2.6 0-3.3 1.5-3.6 3.2-.1.5.3 1 .8 1 .4 0 .8-.3.8-.7.3-.5.3-.9.6-1.1z"/><path stroke="#444" stroke-linecap="round" stroke-linejoin="round" stroke-miterlimit="10" d="M37.9 39.6H12.1c-2 0-3.6-1.6-3.6-3.6V19.6c0-2 1.6-3.6 3.6-3.6h25.8c2 0 3.6 1.6 3.6 3.6V36c0 2-1.7 3.6-3.6 3.6z"/><path stroke="#444" stroke-linecap="round" stroke-linejoin="round" stroke-miterlimit="10" d="M8.5 21.3l16.3 4.5 16.4-4.3"/><path stroke="#444" stroke-miterlimit="10" stroke-width=".5" d="M25.8 33.4h-1.5c-.3 0-.5.2-.5.5v5.7h2.6v-5.7c-.1-.3-.3-.5-.6-.5zm4.3-1.4h-1.5c-.3 0-.5.2-.5.5v7.1h2.6v-7.1c-.1-.3-.3-.5-.6-.5zm4.2-2.3h-1.5c-.3 0-.5.2-.5.5v9.4h2.6v-9.4c0-.2-.3-.5-.6-.5z"/><path stroke="#444" stroke-linecap="round" stroke-linejoin="round" stroke-miterlimit="10" stroke-width=".5" d="M39 39.5V28.3c0-.2-.2-.4-.4-.4h-1.8c-.2 0-.4.2-.4.4v10.9"/><path stroke="#444" stroke-miterlimit="10" stroke-width=".5" d="M19.9 32h1.5c.3 0 .5.2.5.5v7.1h-2.6v-7.1c0-.3.3-.5.6-.5zm-4.3-2.3h1.5c.3 0 .5.2.5.5v9.4H15v-9.4c.1-.2.3-.5.6-.5zm-4.1-1.9H13c.3 0 .5.2.5.5v11.3H11c-.1 0-.1-.1-.1-.1V28.4c0-.3.3-.6.6-.6z"/></g><defs><clipPath id="clip0_1411_2"><path fill="#fff" d="M0 0h50v50H0z"/></clipPath></defs></svg>