<svg xmlns="http://www.w3.org/2000/svg" id="Layer_1" x="0" y="0" version="1.1" viewBox="0 0 50 50" xml:space="preserve"><style>.st3{fill:#444}.st4{fill:none;stroke:#444;stroke-miterlimit:10}.st4,.st5{stroke-width:1.5;stroke-linejoin:round}.st5,.st6{fill:none;stroke:#444;stroke-linecap:round;stroke-miterlimit:10}</style><path fill="#fcc34f" d="M47.7 11.6l.8 5.2L2.4 33.6l-.5-10.9-.1-6.2L42.1 1.9l5.2 2.3z"/><path fill="#fdcf72" d="M46.1 2l2.3 3.2L1.5 21.9 2.6 4.8l3-2.9 29.1-.2z"/><path fill="none" stroke="#444" stroke-linecap="round" stroke-linejoin="round" stroke-miterlimit="10" stroke-width="2.5" d="M18.1 48.3H5.5c-1.9 0-3.4-1.6-3.4-3.5v-39c0-2 1.5-3.5 3.4-3.5h39c1.9 0 3.4 1.6 3.4 3.5v24.6"/><circle cx="8.2" cy="8.2" r="1.4" class="st3"/><circle cx="12.1" cy="8.2" r="1.4" class="st3"/><circle cx="15.9" cy="8.2" r="1.4" class="st3"/><path d="M27.7 17.7h-3.2c-.4 0-.8.4-.8.8V33c0 .4.4.8.8.8h17c.4 0 .8-.4.8-.8V18.5c0-.4-.4-.8-.8-.8H27.7" class="st4"/><path d="M27.7 16v3.3M38.2 16v3.3" class="st5"/><path d="M42.3 22.5H23.7" class="st4"/><path d="M21.1 26.5H14m0 0h-3.2c-.4 0-.8.4-.8.8v14.5c0 .4.4.8.8.8h17c.4 0 .8-.4.8-.8v-5.5M14 24.9v3.2m7.1 3.3H10" class="st5"/><path d="M34.8 25.3h1.6v.9h-1.6zm2.7 0h1.6v.9h-1.6zm-7.9 0h1.6v.9h-1.6zm-2.7 0h1.6v.9h-1.6zm10.6 2.6h1.6v.9h-1.6zm-2.7 0h1.6v.9h-1.6zm-5.2 0h1.6v.9h-1.6zm7.9 2.7h1.6v.9h-1.6zm-2.7 0h1.6v.9h-1.6zm-2.6-5.3h1.6v.9h-1.6zm0 2.6h1.6v.9h-1.6zm0 2.7h1.6v.9h-1.6zm-11.5 3.8h1.6v.9h-1.6zm-5.3 0H17v.9h-1.6zm-2.6 0h1.6v.9h-1.6zm10.5 2.7h1.6v.9h-1.6zm-2.6 0h1.6v.9h-1.6zm-5.3 0H17v.9h-1.6zm7.9 2.6h1.6v.9h-1.6zm-2.6 0h1.6v.9h-1.6zm-2.6-5.3h1.6v.9h-1.6zm0 2.7h1.6v.9h-1.6zm0 2.6h1.6v.9h-1.6z" class="st3"/><path d="M33.3 42.5h5.6c.9 0 1.6-.7 1.6-1.6v-4" class="st6"/><path d="M35.6 44.8l-2.3-2.3 2.3-2.4M19 17.4h-5.6c-.9 0-1.6.7-1.6 1.6v4" class="st6"/><path d="M16.6 15l2.4 2.4-2.4 2.4" class="st6"/></svg>