<svg xmlns="http://www.w3.org/2000/svg" id="Camada_3" x="0" y="0" version="1.1" viewBox="0 0 50 50" xml:space="preserve"><style>.st2{fill:none;stroke:#444;stroke-width:2.5;stroke-linecap:round;stroke-linejoin:round;stroke-miterlimit:10}</style><path fill="#fdcf72" d="M34 2.9l-7.8-.7c-3.2 0-14.5.3-21.4 10.2l-4 10.8 41-14.4L34 2.9z"/><path fill="#fcc34f" d="M.6 23.1l4 13.4c.1.4 4.6 5.6 4.9 5.9l5.6 3 32.2-11.7c.7-.4 1.7-8.6.7-13.4-.2-.8-2.7-7.5-3.2-8.1l-3-3.5L.6 23.1z"/><path d="M36.8 45.5C28.9 50 18.7 49.7 11 43.9.6 36.1-1.4 21.4 6.3 11.1" class="st2"/><path d="M6.2 11.2c2-3 4.7-4.7 4.7-4.7l.7-.5C19.7.3 30.8.2 39.2 6.5c10.4 7.8 12.4 22.5 4.7 32.8" class="st2"/><path fill="none" stroke="#444" stroke-miterlimit="10" stroke-width=".5" d="M22.9 6.2c-6.1.7-11.4 4.3-14.4 9.4l2.4-.2h.6s.1 0 .1.1c0 0 .1 0 .1.1l.1.1.1.1.1.1.1.1v.1l1.3 2.2c2-3.2 5.3-5.6 9.2-6.3 0-.1.1-.2.1-.2l1.7-2.9-1.5-2.7zm16.5 29.3s0 0 0 0h-.5s-.1 0-.1-.1c0 0-.1 0-.1-.1l-.1-.1-.1-.1-.1-.1-.1-.1v-.1L37 32.6c-2 3.2-5.3 5.6-9.2 6.3 0 .1-.1.2-.1.2L25.8 42l1.6 2.7c6.1-.7 11.4-4.3 14.4-9.4l-2.4.2zm-16.6 7.2s0-.1-.1-.1v-.8c0-.1 0-.1.1-.1v-.1l1.3-2.2c-3.6-.3-6.8-1.9-9-4.4h-.3l-3.3.1-1.4 2.8c3.3 4.1 8.4 6.9 14 7.2l-1.3-2.4s0 0 0 0zM10.2 32h.4l2.5-.1c-1-1.9-1.6-4.1-1.6-6.5 0-1.4.2-2.8.6-4.1l-.2-.2-1.7-2.8-3.2.2c-.8 2.2-1.3 4.5-1.3 6.9 0 3.4.9 6.7 2.5 9.5l1.1-2.2v-.1l.1-.1.1-.1.1-.1.1-.1.1-.1.1-.1s.1 0 .1-.1c.2.2.2.2.2.1zm31.9-16L41 18.1v.1l-.1.1-.1.1-.1.1-.1.1-.1.1-.1.1s-.1 0-.1.1h-.5l-2.6.1c1 1.9 1.6 4.1 1.6 6.5 0 1.4-.2 2.8-.6 4.1l.2.2 1.7 2.8 3.2-.2c.8-2.2 1.3-4.5 1.3-6.9-.1-3.5-1-6.7-2.5-9.5zM26.2 6.1l1.3 2.1v.1s0 .1.1.1v.8c0 .1 0 .1-.1.1v.1l-1.3 2.2c3.6.3 6.8 1.9 9 4.4h.3l3.3-.1 1.4-2.8c-3.3-4-8.3-6.7-14-7z"/><circle cx="25.2" cy="25.5" r="4.3" fill="#444"/><path fill="none" stroke="#444" stroke-linecap="round" stroke-linejoin="round" stroke-miterlimit="10" d="M30.7 33.1l2-2-1.6-1.6c.5-.8.9-1.6 1-2.5h2.3v-3h-2.3c-.2-.9-.5-1.7-1-2.5l1.6-1.6-2-2-1.6 1.6c-.8-.5-1.6-.9-2.5-1v-2.3h-2.9v2.3c-.9.2-1.7.5-2.5 1l-1.6-1.6-2 2 1.6 1.6c-.5.8-.9 1.6-1 2.5h-2.3v2.9h2.3c.2.9.5 1.7 1 2.5L17.5 31l2 2 1.6-1.6c.8.5 1.6.9 2.5 1v2.3h2.9v-2.3c.9-.2 1.7-.5 2.5-1l1.7 1.7z"/></svg>