<svg xmlns="http://www.w3.org/2000/svg" id="Camada_1" x="0" y="0" version="1.1" viewBox="0 0 49 50" xml:space="preserve"><style>.st2,.st3{fill:none;stroke:#444;stroke-linecap:round;stroke-linejoin:round;stroke-miterlimit:10}.st3{stroke-width:.5}</style><path fill="#dc5e82" d="M44.9 2.6H3.8c-1.4 0-1.4 3.8-1.4 5.2l-.2 17L1.7 35l1.2 11.8 12.4.6L47.4 36V5.2c.1-1.4-1.1-2.6-2.5-2.6z"/><path fill="none" stroke="#444" stroke-linecap="round" stroke-linejoin="round" stroke-miterlimit="10" stroke-width="2.5" d="M32.3 48.1h-27c-1.9 0-3.4-1.6-3.4-3.5v-39c0-1.9 1.5-3.5 3.4-3.5h39c1.9 0 3.4 1.6 3.4 3.5v32.5"/><path d="M40.2 42.3H6.5" class="st2"/><path d="M17 28.2c-.9-1.9-1.5-4-1.5-6.2-.1-7.9 6.2-14.4 14.2-14.5 7.9-.1 14.4 6.2 14.5 14.2.1 7.8-6.2 14.3-14.1 14.4" class="st3"/><path d="M29.5 7.5v14.4l8.2 11.8m6.5-11.9l-14.5.1" class="st3"/><path d="M24.3 42.2h5.9v-6.7c0-.7-.6-1.4-1.4-1.4h-3.2c-.7 0-1.3.6-1.3 1.4v6.7zm-6 0h5.9V23.3c0-.7-.6-1.4-1.3-1.4h-3.2c-.7 0-1.4.6-1.4 1.4v18.9z" class="st2"/><path d="M12.5 42.2h5.9V29.5c0-.7-.6-1.4-1.4-1.4h-3.2c-.7 0-1.3.6-1.3 1.4v12.7zm-6 0h5.9V16.8c0-.7-.6-1.3-1.4-1.3H7.9c-.7 0-1.3.6-1.3 1.3v25.4z" class="st2"/></svg>