<svg xmlns="http://www.w3.org/2000/svg" id="Layer_1" x="0" y="0" version="1.1" viewBox="0 0 50 50" xml:space="preserve"><style>.st2{fill:#031326}</style><path fill="#f799ff" d="M44.4 10.9H25.7c0-.1-.1-.2-.1-.3l.2-.2c.6-.8.6-1.9-.2-2.7l-1.3-1.3c-.7-.7-1.8-.8-2.6-.2l-.2.2c-.1-.1-.3-.1-.4-.2v-.3c-.1-1-.9-1.8-1.9-1.8h-1.8c-1 0-1.8.8-1.9 1.8v.3c-.2.1-.3.1-.5.2l-.2-.2c-.8-.6-1.9-.6-2.6.2l-1.3 1.3c-.7.7-.8 1.9-.2 2.7l.2.3c0 .1 0 .2-.1.2H4.6v15.7l39.8-14.5v-1.2z"/><path fill="#e589ef" d="M44.4 12.2L4.6 26.6V40H2.9c-.7 0-1.2.5-1.2 1.2v.7c.1 1 .7 2.5 1.8 3.7l40.8-14.9V12.2z"/><path d="M42.7 38.2H7.3V16.1c0-.2.2-.4.4-.4s.3.2.3.4v21.3h34V16.1c0-.2.2-.4.4-.4s.4.2.4.4v22.1z" class="st2"/><path d="M19.2 22.2h-1.9c-.8 0-1.5-.6-1.5-1.4l-.1-.8c-.3-.1-.6-.2-.8-.4l-.6.5c-.6.5-1.5.4-2.1-.1l-1.4-1.4c-.6-.6-.6-1.5-.1-2.1l.5-.6c-.1-.2-.2-.5-.3-.8l-.8-.1c-.8-.1-1.4-.8-1.4-1.5v-1.9c0-.8.6-1.5 1.4-1.5l1.2-.1c.4 0 .8.2.8.7 0 .4-.2.8-.7.8l-1.2.1-.1 2 1.8.3.1.5c.1.5.3 1 .6 1.4l.2.4-1.1 1.4 1.4 1.4 1.5-1.1.4.3c.5.3.9.5 1.4.6l.5.1.2 1.8 2 .1.3-1.8.5-.1c.5-.1 1.1-.4 1.5-.6l.4-.2 1.3 1.1 1.4-1.4-1.1-1.4.3-.4c.3-.5.5-1 .6-1.5l.1-.5 1.6-.2.1-2-1.2-.2c-.4 0-.7-.4-.7-.8s.4-.7.8-.7l1.1.1c.8.1 1.4.8 1.4 1.5v1.9c0 .8-.6 1.5-1.4 1.5l-.7.1c-.1.3-.2.6-.4.9l.4.6c.5.6.4 1.5-.1 2.1l-.8 1.2c-.6.6-1.5.6-2.1.1l-.6-.5c-.3.1-.6.3-.9.4l-.1.7c-.1.9-.8 1.5-1.6 1.5zm-.8-5.8c-2.2 0-3.9-1.8-3.9-3.9 0-2.2 1.8-3.9 3.9-3.9 2.2 0 3.9 1.8 3.9 3.9 0 2.2-1.8 3.9-3.9 3.9zm0-6.3c-1.3 0-2.4 1.1-2.4 2.4s1.1 2.4 2.4 2.4 2.4-1.1 2.4-2.4-1.1-2.4-2.4-2.4z" class="st2"/><path d="M49.5 41c0-.7-.6-1.2-1.2-1.2h-1.8V9.4H26.3c0-.1-.1-.2-.1-.3l.2-.2c.7-.8.6-2-.2-2.8l-1.4-1.3c-.7-.7-1.9-.8-2.7-.2l-.2.2c-.2-.1-.3-.1-.5-.2v-.3c-.1-1-1-1.8-2.1-1.8h-1.9c-1.1 0-1.9.8-2.1 1.8v.3c-.2.1-.4.1-.5.2l-.3-.2c-.8-.6-2-.6-2.7.2L10.4 6c-.8.7-.8 1.9-.2 2.8l.3.3c0 .1-.1.2-.1.3H3.5v30.4H1.7C1 39.8.5 40.4.5 41v.2c0 .2-.1.3 0 .5.3 2.1 2.2 6 7.3 6h34.3c5.1 0 7-3.9 7.3-6v-.5c.1-.1.1-.2.1-.2zM6 11.9h5.3c.6 0 1.1-.4 1.2-.9.1-.5.3-.9.6-1.4l.4-.7-1-1.3.8-.8 1.3 1 .7-.4c.5-.3 1-.5 1.5-.6l.8-.2.2-1.6H19l.2 1.6h.8c.5.1 1 .3 1.5.6l.7.4 1.2-1 .8.8-1 1.2.4.7c.3.4.4.9.6 1.4.2.6.8 1 1.4.9.2.1.3.1.5.1H44v27.9H6V11.9zm36.2 33.2H7.8c-3 0-4.2-1.8-4.6-2.9h43.5c-.4 1.2-1.5 2.9-4.5 2.9z" class="st2"/><path d="M21.3 43h7.3v1.3h-7.3zm10.6-14.9c-.7 0-1.4-.5-1.5-1.2l-.1-.4c-.2-.1-.4-.1-.6-.2l-.3.3c-.6.5-1.5.6-2.1.1l-1-.9c-.6-.5-.7-1.4-.3-2l.2-.4c-.1-.2-.2-.3-.2-.5h-.4c-.8 0-1.4-.6-1.5-1.4l-.1-1.3c-.1-.8.5-1.5 1.2-1.7l.4-.1c.1-.2.1-.4.2-.6l-.3-.3c-.5-.5-.5-1.4 0-2l.9-1c.5-.6 1.4-.7 2-.3l.3.2c.2-.1.4-.3.7-.4v-.3c0-.8.6-1.4 1.4-1.5l1.3-.1c.8-.1 1.5.5 1.7 1.2l.1.3c.2.1.5.1.7.2l.2-.2c.6-.5 1.5-.6 2.1-.1l1 .9c.6.5.7 1.4.3 2.1l-.2.3.3.6h.3c.8 0 1.4.6 1.5 1.4l.1 1.3c.1.8-.5 1.5-1.2 1.7l-.3.1c-.1.2-.1.4-.2.6l.2.3c.5.6.6 1.5.1 2.1l-.9 1c-.5.6-1.4.7-2 .3l-.3-.2-.6.3v.4c0 .8-.6 1.4-1.4 1.5l-1.6-.1h-.1zm-2.5-3.6l.5.2c.4.2.8.3 1.2.4l.5.1.3 1.4 1.4-.1.1-1.4.5-.2c.4-.1.8-.3 1.2-.6l.4-.3 1.1.8.9-1-.9-1.1.2-.5c.2-.4.3-.8.4-1.2l.1-.5 1.3-.3-.1-1.4-1.4-.1-.2-.5c-.1-.4-.3-.8-.6-1.2l-.3-.4 1.2-1.7-.5.6-1-.9-1 .9-.5-.2c-.3-.1-.7-.3-1.2-.3l-.5-.1-.3-1.3-1.4.1V15l-.5.2c-.4.2-.9.4-1.2.6l-.4.3-1.1-.7-.9 1 .9 1.1-.2.5c-.2.4-.3.8-.4 1.2l-.1.5-1.3.3.1 1.4 1.4.1.2.5c.1.4.3.7.6 1.1l.3.4-.8 1.2 1 .9 1-1.1zm2.7-1.1c-.8 0-1.5-.3-2.1-.8-.7-.6-1.1-1.4-1.2-2.3-.1-.9.2-1.8.8-2.4s1.4-1.1 2.3-1.2c.9-.1 1.8.2 2.4.8s1.1 1.4 1.2 2.3c.1.9-.2 1.8-.8 2.4s-1.4 1.1-2.3 1.2h-.3zm0-5.2h-.2c-.5 0-.9.3-1.3.6-.3.4-.5.9-.4 1.3 0 .5.3.9.6 1.3.4.3.9.5 1.3.4.5 0 .9-.3 1.2-.6.3-.4.5-.9.4-1.3 0-.5-.3-.9-.6-1.3-.2-.2-.6-.4-1-.4z" class="st2"/><path d="M21.5 34.1h-.8c-.8 0-1.4-.6-1.5-1.4v-.1c-.1 0-.2-.1-.3-.1l-.1.1c-.6.5-1.5.4-2.1-.1l-.6-.6c-.5-.6-.6-1.4-.1-2.1l.1-.1c0-.1-.1-.2-.1-.3h-.1c-.8-.1-1.4-.8-1.4-1.6V27c0-.8.6-1.4 1.4-1.5h.1c0-.1.1-.2.1-.3V25c-.5-.6-.4-1.5.1-2.1l.6-.6c.6-.6 1.4-.6 2.1-.1.1-.1.3-.1.4-.2.1-.8.8-1.4 1.6-1.4h.8c.8 0 1.4.6 1.5 1.4.1.1.3.1.4.2.6-.5 1.5-.4 2.1.1l.6.6c.5.6.6 1.4.1 2.1 0 .1.1.2.1.3.8.1 1.4.8 1.4 1.6v.8c0 .8-.6 1.4-1.4 1.5h-.1c0 .1-.1.2-.2.4v.1c.5.6.4 1.5-.1 2.1l-.6.6c-.5.6-1.4.6-2 .1l-.1-.1c-.1.1-.2.1-.4.1v.1c0 .9-.7 1.5-1.5 1.5zm-2.8-3.5l.4.3c.3.2.6.3.9.4l.5.1.1 1.1.9.1.2-1.1.5-.1c.3-.1.7-.2 1-.4l.4-.2.8.7.6-.6-.7-.9.3-.4c.2-.3.3-.6.4-.9l.1-.5 1-.1.1-.9-1.1-.2-.1-.5c-.1-.3-.2-.7-.4-.9V25l.6-.8-.6-.6-.9.6-.4-.3c-.3-.2-.6-.3-1-.4l-.5-.1-.1-1-.9-.1-.2 1-.5.1c-.4.1-.7.2-1 .4l-.4.3-.7-.7-.7.6.6.9-.2.4c-.2.3-.3.6-.4.9l-.1.5-1.1.1v.8l1.1.2.1.5c.1.3.2.6.4.9l.2.4-.7.9.6.6.9-.5zm2.5-.4c-1.6 0-2.9-1.3-2.9-2.9 0-1.6 1.3-2.8 2.9-2.8 1.6 0 2.8 1.3 2.8 2.9.1 1.6-1.2 2.8-2.8 2.8zm0-4.2c-.7 0-1.4.6-1.4 1.3 0 .8.6 1.4 1.3 1.4.7 0 1.4-.6 1.4-1.3.1-.8-.5-1.4-1.3-1.4.1 0 0 0 0 0z" class="st2"/></svg>