<svg xmlns="http://www.w3.org/2000/svg" id="Layer_1" x="0" y="0" version="1.1" viewBox="0 0 50 50" xml:space="preserve"><style>.st2{fill:#031326}</style><path fill="#acbfc0" d="M43.3 28.6c.4-2 .5-4.1.2-6.2l4.6-2.6-2.4-6.3-5.1 1.2c-.8-1.1-1.6-2.1-2.6-3.1L6.5 23c-.2 1.5-.2 3.1.1 4.7L2 30.2l2.4 6.3 5.1-1.2c1.1 1.7 2.5 3.1 4 4.3l30-10.9-.2-.1z"/><path fill="#c0d5d7" d="M36.2 10.1L37.6 5l-6.2-2.8-2.8 4.4c-2-.4-4.1-.5-6.2-.2L19.8 2l-6.3 2.4 1.2 5.1c-1.8 1.2-3.3 2.6-4.5 4.3l-5-1.4-2.8 6.2 4.4 2.8c-.1.5-.2 1.1-.2 1.6L38 11.6c-.7-.6-1.2-1-1.8-1.5z"/><path d="M29.6 49.6L27 44.8c-1.6.2-3.3.1-4.9-.1l-2.9 4.6-8.2-3.6 1.5-5.3c-1.3-1.1-2.4-2.3-3.4-3.6L3.6 38 .4 29.6 5.2 27c-.2-1.6-.1-3.3.1-4.9L.7 19.2 4.3 11l5.3 1.5c1.1-1.3 2.3-2.4 3.6-3.4L12 3.6 20.4.4 23 5.2c1.6-.2 3.3-.1 4.9.1L30.8.6 39 4.2l-1.5 5.3c1.3 1.1 2.4 2.3 3.4 3.6l5.4-1.2 3.2 8.4-4.7 2.7c.2 1.9.1 3.9-.3 5.8-.1.7-.8 1.1-1.5 1-.7-.1-1.1-.8-1-1.5.4-1.9.4-3.9.2-5.8l-.1-.9 4.4-2.4-1.7-4.3-4.9 1.1-.5-.7c-1.1-1.6-2.4-3-4-4.2l-.7-.5 1.4-4.8-4.2-1.9-2.7 4.3-.8-.2c-1.9-.4-3.9-.4-5.8-.2l-.9.1-2.4-4.4L15 5.2l1.1 4.9-.7.5c-1.6 1.1-3 2.4-4.2 4l-.5.7-4.8-1.4L4 18.1l4.3 2.7-.3.8c-.4 1.9-.4 3.9-.2 5.8l.1.9-4.4 2.4L5.2 35l4.9-1.1.5.7c1.1 1.6 2.4 3 4 4.2l.7.5-1.4 4.8 4.2 1.9 2.7-4.3.8.2c1.9.4 3.9.4 5.8.2l.9-.1 2.4 4.4 4.3-1.7-.9-4.1c-.2-.7.3-1.3.9-1.5.7-.2 1.3.3 1.5.9l1.4 6.2-8.3 3.4z" class="st2"/><path d="M25 39.7c-8.1 0-14.7-6.6-14.7-14.7S16.9 10.3 25 10.3 39.7 16.9 39.7 25 33.1 39.7 25 39.7zm0-28.9c-7.8 0-14.2 6.4-14.2 14.2S17.2 39.2 25 39.2 39.2 32.8 39.2 25 32.8 10.8 25 10.8z" class="st2"/><path fill="#031326" d="M25 12.8c-6.7 0-12.2 5.5-12.2 12.2S18.3 37.2 25 37.2 37.2 31.7 37.2 25 31.7 12.8 25 12.8zm-4.8 20.6v-2.2c0-1.2 2.7-2.1 4.7-2.3h.5c2.1 0 5.2 1 5.2 2.3v1.7C29 34 27.1 34.7 25 34.7c-1.8 0-3.4-.5-4.8-1.3zm2.4-9v-1.2c0-1.4 1-2.5 2.3-2.5 1.3 0 2.3 1.1 2.3 2.5v1.2c0 1.3-.8 2.4-2 2.5h-.4c-1.2-.1-2.2-1.1-2.2-2.5zm9.9 6.7c-.1-2.1-2.2-3.2-4.3-3.8.6-.8 1-1.8 1-2.9v-1.2c0-2.5-1.9-4.5-4.3-4.5s-4.3 2-4.3 4.5v1.2c0 1.2.4 2.3 1.2 3.1-1.9.6-3.6 1.8-3.6 3.7v.7c-1.8-1.8-2.8-4.2-2.8-6.9 0-5.3 4.3-9.7 9.7-9.7 5.3 0 9.7 4.3 9.7 9.7-.1 2.3-.9 4.4-2.3 6.1z"/></svg>