<svg xmlns="http://www.w3.org/2000/svg" version="1.0" viewBox="0 0 50 50"><path fill="#DC5E82" d="M47.5 31.222l-29.542 10.75c-6.483-2.9-11.001-9.408-11.001-16.974 0-1.272.13-2.51.372-3.713a6.842 6.842 0 01-.71-.39c-1.177-.736-2.216-1.904-2.917-3.159-1.16-2.484-.692-4.916.242-6.682.746-1.341 1.637-2.163 2.91-2.89.761-.433 1.462-.632 2.077-.624.285.009.545.061.779.156l.026.009.034.017.026.018.32.19.805.467 1.437.831 1.142.658c.243.13.251.303.26.39.017-.043.173-.424.762-.597a5.39 5.39 0 01.744-.173 18.491 18.491 0 0110.292-3.107c10.274 0 18.601 8.327 18.601 18.601 0 1.307-.139 2.588-.39 3.817l1.454.857 1.472.866.234.139c.182.121.346.268.493.45a.694.694 0 01.078.093z"/><path fill="#F56991" d="M40.601 14.058l-33.6 12.23a18.786 18.786 0 01.328-5.003 6.842 6.842 0 01-.71-.39c-1.177-.736-2.216-1.904-2.917-3.159-1.16-2.484-.692-4.916.242-6.682.746-1.341 1.637-2.163 2.91-2.89.761-.433 1.462-.632 2.077-.624.285.009.545.061.779.156l.026.009.034.017.026.018.32.19.805.467 1.437.831 1.142.658c.243.13.251.303.26.39.017-.043.173-.424.762-.597a5.39 5.39 0 01.744-.173 18.491 18.491 0 0110.292-3.107c6.18-.001 11.659 3.02 15.043 7.659z"/><path fill="#031326" d="M47.855 29.104l-2.075-1.219c.137-.957.205-1.924.205-2.886 0-11.263-9.163-20.426-20.426-20.426-4.459 0-8.123.983-11.159 2.979l-.627.382-2.724-1.573-.388-.231-.269-.127c-.442-.179-.92-.273-1.498-.289-.943 0-1.934.291-2.945.865-1.624.927-2.734 2.038-3.614 3.625-.825 1.559-1.955 4.715-.225 8.419.803 1.439 1.96 2.732 3.21 3.599a20.64 20.64 0 00-.188 2.777c0 11.264 9.164 20.428 20.427 20.428a1.304 1.304 0 000-2.61c-9.825 0-17.817-7.993-17.817-17.818 0-1.07.097-2.146.287-3.196l.06-.333c.68.89 1.241 1.78 1.776 2.643.483.779.951 1.529 1.476 2.219-.07.051-.121.123-.111.215A14.375 14.375 0 0025.559 39.41c1.839 0 3.629-.344 5.322-1.018l.459.049c.464.051 1.023.111 1.523.152.131.209.287.396.49.574l4.876 2.852.303.171c.048.032.083.079.134.108.062.036.136.05.201.081l.217.123c.081.03.169.044.253.067l.061.016c.244.059.497.1.766.1.836 0 1.779-.285 2.748-.841a.25.25 0 00.093-.341l-.002-.001a.249.249 0 00-.341-.093 7.008 7.008 0 01-.814.393c-.069.028-.138.06-.206.085a4.956 4.956 0 01-.966.249c-.19.028-.375.044-.552.042-.101-.001-.197-.015-.293-.026a2.459 2.459 0 01-.382-.074 2.328 2.328 0 01-.228-.071l-.459-.267c-.648-.468-1.015-1.294-1.015-2.384 0-2.838 2.316-6.468 5.164-8.093a.25.25 0 00-.248-.434c-2.986 1.703-5.416 5.528-5.416 8.526 0 .648.121 1.217.338 1.7l-3.938-2.291c-.007-.006-.011-.014-.017-.02a2.086 2.086 0 01-.38-.487c-.273-.462-.421-1.053-.421-1.757 0-2.846 2.323-6.483 5.181-8.109 1.191-.687 2.328-.633 3.594.067l1.293.758 3.638 2.138c.621.364 1.42.156 1.786-.464a1.306 1.306 0 00-.466-1.786zm-4.479-4.105a17.83 17.83 0 01-.311 3.314l-.062.332-.446-.268-.112-.469c-.365-1.491-.779-3.182-1.489-4.174a.65.65 0 00-.056-.084 7.287 7.287 0 00-1.169-1.258 14.38 14.38 0 00-14.173-11.803c-1.388 0-2.759.201-4.079.589-1.257-1.033-2.968-1.852-4.747-1.982 2.45-1.351 5.349-2.013 8.826-2.013 9.826-.001 17.818 7.992 17.818 17.816zm-5.356-3.717a10.638 10.638 0 00-.688-.272c-.15-.055-.298-.096-.447-.141-.091-.027-.183-.057-.272-.081a7.157 7.157 0 00-.361-.082 6.962 6.962 0 00-.422-.075c-.077-.011-.153-.022-.229-.029-.051-.005-.105-.016-.156-.02a.947.947 0 00-.154-.377c-.181-.273-.542-.561-1-.834l-.005-.003c-1.034-.614-2.612-1.142-4.112-1.178-.378 0-.755.019-1.13.056-.211-1.202-.641-2.192-1.237-2.789a7.187 7.187 0 00-1.171-.948c-.026-.036-.063-.052-.107-.068-.661-.411-1.304-.631-1.914-.607-.478.021-.85.177-1.11.337-.002-.013-.008-.027-.01-.04a2.708 2.708 0 00-.091-.381c-.01-.034-.016-.066-.028-.101a4.025 4.025 0 00-.225-.528l-.001-.002c-.269-.515-.692-1.044-1.218-1.543a13.875 13.875 0 0117.185 10.351 8.023 8.023 0 00-1.097-.645zm-5.084.287c-.122.258-.144.548-.104.852-.914-1.097-1.048-1.699-.923-2.013.161-.405.856-.617 2.016-.617l.096.002c.404.238.714.48.852.688a.58.58 0 01.048.093c-.991.034-1.697.385-1.985.995zm-9.458-6.751c.089-.093.47-.454 1.158-.485.481-.028 1.007.148 1.558.48.027.747-.211 1.302-.726 1.636-.867.561-2.401.442-4.07-.263.638-.061 1.191-.234 1.563-.541.223-.185.43-.454.517-.827zM8.321 20.944l-.145-.075-.803-.441a6.07 6.07 0 01-.339-.2c-1.017-.636-1.981-1.684-2.603-2.79-1.21-2.598-.389-4.883.196-5.991.639-1.152 1.396-1.906 2.611-2.6.612-.347 1.168-.523 1.618-.523.26.007.417.047.555.1l3.132 1.814c-.518.091-1.053.294-1.619.616-1.417.81-2.34 1.729-3.088 3.078-.552 1.045-1.162 2.71-.936 4.707a.251.251 0 00.248.222l.029-.001a.25.25 0 00.22-.277c-.212-1.87.362-3.434.878-4.413.707-1.275 1.546-2.11 2.896-2.881.711-.404 1.375-.609 1.974-.609h.04c.029 0 .048-.021.073-.03l.606.335.677-.458c.188-.127 1.202-.737 1.247-.765.04-.026.082-.048.122-.073 2.9-.152 5.867 1.892 6.792 3.66l.001.002c.098.192.165.369.218.539.011.036.024.072.033.107.041.156.06.301.06.436 0 .034-.004.067-.006.101a1.003 1.003 0 01-.367.727c-1.093.9-4.134.442-5.812-.875a.252.252 0 00-.351.042.25.25 0 00.042.351c.99.777 2.379 1.245 3.661 1.378.003.001.003.005.005.006 1.382.755 2.727 1.146 3.836 1.146.674 0 1.262-.144 1.716-.438.421-.273.893-.789.956-1.729.248.191.5.414.756.67.522.523.902 1.414 1.096 2.507-2.42.34-4.704 1.41-6.317 3.027-1.546 1.548-2.361 3.472-2.357 5.555-.022.884.039 1.724.166 2.523-.373.013-.75.022-1.141-.002-5.314-.251-6.768-2.598-8.609-5.568-.583-.949-1.189-1.926-1.967-2.91zm3.466 5.937c1.43 1.66 3.373 2.861 7.086 3.037.262.016.522.023.78.023.164 0 .323-.008.484-.014.93 4.568 4.345 7.58 9.61 8.332a13.858 13.858 0 01-4.188.651 13.865 13.865 0 01-13.772-12.029zm25.973 1.075c-2.995 1.705-5.432 5.537-5.432 8.544 0 .587.094 1.11.275 1.567a79.422 79.422 0 01-1.21-.122c-.532-.058-.829-.081-.942-.09-5.533-.569-9.001-3.502-9.86-8.175 0-.008.008-.014.008-.023-.001-.016-.016-.025-.019-.04a13.437 13.437 0 01-.204-2.712c-.003-1.955.761-3.755 2.211-5.208 1.879-1.883 4.716-3.007 7.581-3.007 1.028.025 2.079.297 2.935.648-.921.104-1.461.392-1.658.886-.332.835.428 2.099 2.352 3.939.121.126.251.247.389.368.046.042.084.081.131.124.007.006.016.004.024.009a7.994 7.994 0 001.642 1.04.249.249 0 00.333-.119.25.25 0 00-.118-.333 7.38 7.38 0 01-1.663-1.079c-.143-.132-.266-.252-.395-.375-.107-.114-.219-.227-.309-.344-.485-.63-.647-1.238-.443-1.669.204-.43.777-.689 1.573-.712.179-.004.373.01.569.029.043.004.085.005.129.011.185.023.377.06.572.102.048.011.093.016.141.028.179.043.361.101.543.16.084.027.167.052.253.083.228.083.457.174.682.281.006.003.011-.001.017.001 1.085.528 1.948 1.239 2.61 2.145a.662.662 0 00.055.083c.673.945 1.093 2.658 1.43 4.034l.02.082-.105-.061c-1.42-.788-2.776-.865-4.117-.095z"/></svg>