<svg xmlns="http://www.w3.org/2000/svg" id="Camada_3" x="0" y="0" version="1.1" viewBox="0 0 50 50" xml:space="preserve"><style>.st3{stroke-width:.5}.st3,.st4{fill:none;stroke:#444;stroke-linecap:round;stroke-linejoin:round;stroke-miterlimit:10}</style><path fill="#bf94f7" d="M30.6 4.4l-6-2.8c-3.2 0-21.4 8.9-21.4 12.1l-.5 7.8L38.3 8.8l-7.7-4.4z"/><path fill="#a475ef" d="M2.6 21.5l.5 15.1 11.5 7.6 31-11c.7-.4-.8-18.7-1.8-20.7l-5.6-3.6L2.6 21.5z"/><path fill="none" stroke="#444" stroke-linecap="round" stroke-linejoin="round" stroke-miterlimit="10" stroke-width="2.5" d="M29.1 46.5l-2.2 1.3c-1.7 1-3.8 1-5.5 0l-15.6-9c-1.7-1-2.7-2.8-2.7-4.7V16c0-2 1-3.8 2.7-4.7l15.6-9c1.7-1 3.8-1 5.5 0l15.6 9c1.7 1 2.7 2.8 2.7 4.7v18c0 2-1 3.8-2.7 4.7L40 40.1"/><path d="M20.3 41.9l-.8-1.3-2.3-4c-.2-.6-.1-1.3.5-1.6l4.3-2.5c.5-.3 1.2-.1 1.5.4l.7 1.2 1.7 2.9c.3.5.5 1.1.4 1.6 0 .7-.2 1.6-1.3 1.6-.9 0-1.2-.7-1.3-1.3-.1-.7.1-1.3.5-1.9l1.7-3 .7-1.2c.3-.5 1-.7 1.5-.4l4.3 2.5c.5.3.7 1 .4 1.5l-2.3 4-.8 1.3" class="st3"/><path d="M17.7 35s-1.4-1.8-4-1.8-3.8-1.4-5.2-4.1-1.8-3.8-1.8-3.8-.8-1.5.2-2.1c1.2-.7 2 .5 2 .5l1.6 3" class="st3"/><path d="M15.8 31.1l-4-1.1s-1.4-.4-1-1.6c.4-1.3 1.5-.9 1.5-.9l6.5 1.6c1.6.4 2.9 1.7 3.2 3.3v.1" class="st3"/><path d="M11 23.5s.6-4 4-4" class="st4"/><circle cx="16.6" cy="15.6" r="3" class="st4"/><path d="M13.8 24.9v-2.7m5-3s3.9.4 3.9 5.5c0 2.8-3.7 2.8-3.4-.3.3-4 3.4-5.2 3.4-5.2" class="st4"/><path d="M32.5 35s1.4-1.8 4-1.8 3.8-1.4 5.2-4.1c1.4-2.7 1.8-3.8 1.8-3.8s.8-1.5-.2-2.1c-1.2-.7-2 .5-2 .5l-1.6 3" class="st3"/><path d="M34.4 31.1l4-1.1s1.4-.4 1-1.6c-.4-1.3-1.5-.9-1.5-.9l-6.5 1.6c-1.6.4-2.9 1.7-3.2 3.3v.1" class="st3"/><path d="M39.2 23.5s-.6-4-4-4" class="st4"/><circle cx="33.5" cy="15.6" r="3" class="st4"/><path d="M36.3 24.9v-2.7m-5-3s-3.9.4-3.9 5.5c0 2.8 3.7 2.8 3.4-.3-.3-4-3.4-5.2-3.4-5.2" class="st4"/><circle cx="25.1" cy="14.7" r="3.5" class="st4"/></svg>