<svg xmlns="http://www.w3.org/2000/svg" id="Layer_1" x="0" y="0" version="1.1" viewBox="0 0 50 50" xml:space="preserve"><style>.st1{fill:none;stroke:#444;stroke-linecap:round;stroke-miterlimit:10}</style><path fill="#46b8b0" d="M18.3 9.2l-4-7.3c-1.4 0-10.2 3.9-10.2 5.3l-1.4 6.7c0 .2 2.9 3.3 2.9 3.5l-1.6 3-1 19.7 7.4 7.5c.5.3 5.8 1.6 6.4 1.4L49 37.6l-7.8-27.2-13.5 3.2L25 9.3c.1-1.5-5.2-.1-6.7-.1z"/><path d="M11.4 47.1l-6.9-6.9V20.5c0-1.1.9-2 2-2h3.7m17.9.1H35c1.1 0 2 .9 2 2v20.1" class="st1"/><path d="M5.1 39.6h6.7v7.2m9.5-23.3l3.7 3.6c.8.7 2 .7 2.8 0 .8-.8.8-2 0-2.8l-3.6-3.6m-13-2.4c-2.2 2-2.4 5.1-.8 6.6 2.3 2.3 8.3.6 12.1-3.2s5-8.8 2.7-11c-1.5-1.5-4.2-1.4-6.9-.2" class="st1"/><path d="M15.4 7.7l4 4c.7.7.6 1.8.4 2.9m-1.9 2.8c-1.8 1.8-4.4 2.4-5.6 1.3l-3.9-4m-2-8.9c-3 3-4.2 6.6-2.6 8.2 1.5 1.5 5.2.4 8.2-2.6 3-3 4.2-6.6 2.6-8.2-1.5-1.6-5.2-.4-8.2 2.6zm22.7 7.9l10.1-2.8c1.1-.3 2.1.4 2.4 1.4L47.7 36c.3 1.1-.4 2.1-1.4 2.4L37 40.8" class="st1"/><path fill="none" stroke="#444" stroke-linecap="round" stroke-miterlimit="10" stroke-width="2.5" d="M27.6 47.9L13 48c-1.4 0-2.8-.5-3.9-1.5l-3.2-2.8c-1.5-1.3-2.3-3.2-2.3-5.2V20.6c0-1.9 1.5-3.4 3.4-3.3h2.6l-1.9-1.5c-5.4.9-5.9-2.9-5.9-2.9S1.2 5.6 10.3 2c7.9-3.2 5.5 4.6 5.5 4.6l2.8 2.9c8-3.3 8.7 3.9 8.7 3.9l11.4-3.6c1.5-.5 3.1.4 3.5 1.9l6.3 23.8c.4 1.4-.3 2.8-1.6 3.5l-9.2 2.2v1.9"/></svg>