<svg xmlns="http://www.w3.org/2000/svg" id="Layer_1" x="0" y="0" version="1.1" viewBox="0 0 50 50" xml:space="preserve"><style>.st2{fill:#031326}</style><path fill="#fcc34f" d="M41.5 27.6c0-.1.1-.3.3-.3l6.2-.9v-2.8l-6.2-.9c-.1 0-.3-.1-.3-.3-.2-1.2-.5-2.3-.9-3.4-.1-.1 0-.3.1-.4l4.9-3.9-1.4-2.4-5.8 2.3c-.1.1-.3 0-.4-.1-.5-.7-1.1-1.3-1.7-1.8L2.1 25.2v1.3l6.2.9c.1 0 .3.1.3.3.1 1.1.4 2.3.8 3.4.1.1 0 .3-.1.4l-4.9 3.9 1.4 2.4 5.8-2.3c.1-.1.3 0 .4.1.8.9 1.6 1.8 2.5 2.5.1.1.2.2.1.4l-.4 1L41 29.7c.3-.7.4-1.4.5-2.1z"/><path fill="#fdcf72" d="M36 12.3c-.1-.1-.2-.2-.1-.4l2.3-5.8-2.4-1.4-3.9 4.9c-.1.1-.2.2-.4.1-1.1-.4-2.3-.7-3.4-.9-.1 0-.3-.1-.3-.3l-.9-6.2h-2.8l-.9 6.2c0 .1-.1.3-.3.3-1.2.2-2.3.5-3.4.9-.1.1-.3 0-.4-.1l-3.9-4.9-2.4 1.4 2.3 5.8c.1.1 0 .3-.1.4-.9.7-1.8 1.6-2.5 2.5-.1.2-.3.2-.4.2l-5.8-2.3-1.4 2.4L9.8 19c.1.1.2.2.1.4-.4 1.1-.7 2.3-.9 3.4 0 .1-.1.2-.3.2l-6.1 1v1.5L36.8 13c-.3-.2-.5-.4-.8-.7z"/><path d="M27.5 49.2h-5l-1-6.6c-.8-.2-1.6-.4-2.3-.6L15 47.3l-4.3-2.5 2.4-6.2c-.6-.5-1.2-1.1-1.7-1.7l-6.2 2.4L2.7 35l5.2-4.1c-.3-.8-.5-1.5-.6-2.3l-6.6-1v-5l6.6-1c.2-.8.4-1.6.6-2.3L2.7 15l2.5-4.3 6.2 2.4c.5-.6 1.1-1.2 1.7-1.7l-2.4-6.2L15 2.7l4.1 5.2c.8-.3 1.5-.5 2.3-.6l1-6.6h5l1 6.6c.8.2 1.6.4 2.3.6L35 2.7l4.3 2.5-2.4 6.2c.6.5 1.2 1.1 1.7 1.7l6.2-2.4 2.5 4.3-5.2 4.1c.3.8.5 1.5.6 2.3l6.6 1v5l-6.6 1c-.2.8-.4 1.6-.6 2.3l5.2 4.1-2.5 4.3-6.8-2.7c-.7-.3-1-1-.7-1.7s1-1 1.7-.7l4.7 1.9.3-.5-4-3.2c-.6-.4-.8-1.2-.5-1.9.4-1 .7-2.1.8-3.2.1-.7.7-1.3 1.4-1.4l5-.8v-.5l-5-.8c-.7-.1-1.3-.7-1.4-1.4-.2-1.1-.5-2.1-.8-3.2-.3-.7-.1-1.4.5-1.9l4-3.2-.4.1-4.7 1.9c-.7.3-1.4.1-1.9-.5-.7-.8-1.5-1.6-2.3-2.3-.6-.5-.8-1.2-.5-1.9L36 6.4l-.5-.3-3.2 4c-.4.6-1.2.8-1.9.5-1-.4-2.1-.7-3.2-.8-.7-.1-1.3-.7-1.4-1.4l-.8-5h-.5l-.8 5c-.1.7-.7 1.3-1.4 1.4-1.1.2-2.1.5-3.2.8-.7.3-1.4.1-1.9-.5l-3.2-4v.3l1.9 4.7c.3.7.1 1.4-.5 1.9-.8.7-1.6 1.5-2.3 2.3-.5.6-1.2.8-1.9.5L6.4 14l-.3.4 4 3.2c.6.4.8 1.2.5 1.9-.4 1-.7 2.1-.8 3.2-.1.7-.7 1.3-1.4 1.4l-5 .8v.5l5 .8c.7.1 1.3.7 1.4 1.4.2 1.1.5 2.1.8 3.2.3.7.1 1.4-.5 1.9l-4 3.2.3.1 4.7-1.9c.7-.3 1.4-.1 1.9.5.7.9 1.5 1.6 2.3 2.3.6.4.8 1.2.5 1.9L14 43.6l.5.3 3.2-4c.4-.6 1.2-.8 1.9-.5 1 .4 2.1.7 3.2.8.7.1 1.3.7 1.4 1.4l.8 5h.5l.8-5c.1-.7.7-1.3 1.4-1.4 1.1-.2 2.1-.5 3.2-.8.7-.3 1.4-.1 1.9.5l3.2 4 1-.9c.6-.4 1.4-.1 1.8.5.4.6.1 1.4-.5 1.8l-3.3 2-4.1-5.2c-.8.3-1.5.5-2.3.6l-1.1 6.5zm1.1-7.2zm-14.9-3zm29.1-11.2zm0-5.6zm-1.3-2.6zM13.7 11zm4.8-2.8zm13 0zM28.6 8z" class="st2"/><path d="M25.2 36.7c-6.5 0-11.8-5.3-11.8-11.8s5.3-11.8 11.8-11.8S37 18.4 37 24.9c-.1 6.5-5.3 11.8-11.8 11.8zm0-22.8c-6.1 0-11 4.9-11 11s4.9 11 11 11 11-4.9 11-11-5-11-11-11z" class="st2"/><path d="M25.9 18.9l.6-2.3c0-.1 0-.3-.1-.4s-.3-.1-.4 0l-4.2 2.3c-.1 0-.1.1-.2.2v.3l2.4 4.1c.1.1.2.2.3.2.1 0 .2-.1.3-.2l.7-2.6c3 .3 5.4 2.8 5.4 5.9 0 .4.4.8.8.8s.8-.4.8-.8c.1-3.9-2.8-7-6.4-7.5zm2 8.1c-.2-.3-.5-.5-.9-.4-.4 0-.6.3-.7.6l-.6 2.2c-3.3 0-5.9-2.7-5.9-5.9 0-.4-.4-.8-.8-.8s-.8.4-.8.8c0 4 3.1 7.3 7.1 7.5l-.5 1.9c-.1.3 0 .7.3.9.2.1.4.2.6.2.1 0 .3 0 .4-.1l3.7-2c.2-.1.4-.3.4-.5l.1-.4-2.4-4zm-1.2 4.7l.7-2.6 1 1.6-1.7 1z" class="st2"/></svg>