<svg xmlns="http://www.w3.org/2000/svg" id="Layer_1" x="0" y="0" version="1.1" viewBox="0 0 50 50" xml:space="preserve"><style>.st2{fill:#031326}</style><path fill="#f56991" d="M23 5.9c-10.2 0-18.5 8.3-18.5 18.5 0 .6 0 1.2.1 1.8L38.3 14C34.9 9.1 29.4 5.9 23 5.9z"/><path fill="#dc5e82" d="M41.5 24.5c0-3.9-1.2-7.5-3.3-10.5L4.6 26.2c.4 4.6 2.5 8.7 5.7 11.6l31.2-11.3v-2z"/><path d="M16.5 7.2c-.3-.7-1.1-1-1.8-.7-1.5.6-2.9 1.5-4.2 2.5-5.1 3.8-8 9.6-8 16 0 5 1.8 9.7 5.1 13.4.3.3.6.4 1 .4.3 0 .6-.1.9-.3.6-.5.6-1.3.1-1.9-2.9-3.2-4.4-7.3-4.4-11.6 0-5.5 2.5-10.5 6.9-13.8 1.1-.9 2.4-1.6 3.7-2.1.7-.4 1-1.2.7-1.9z" class="st2"/><path d="M22.4 40.2c-8.4 0-15.3-6.8-15.3-15.3 0-7.4 5.2-13.7 12.5-15 .1 0 .3.1.3.2s-.1.3-.2.3c-7 1.3-12 7.4-12 14.5 0 8.1 6.6 14.7 14.7 14.7 3.8 0 7.4-1.4 10.1-4 .1-.1.3-.1.4 0 .1.1.1.3 0 .4-2.9 2.7-6.6 4.2-10.5 4.2zm15-15c-.1 0-.3-.1-.3-.3 0-7.2-5.2-13.4-12.3-14.5-.1 0-.2-.2-.2-.3 0-.1.2-.2.3-.2 7.4 1.2 12.8 7.5 12.8 15.1 0 0-.2.2-.3.2zm8.1 14.5c-.5-.5-1.4-.5-1.9 0s-.5 1.4 0 1.9l.8.8h-8.9c-.7 0-1.3.6-1.3 1.3s.6 1.3 1.3 1.3h8.7l-.8.8c-.5.5-.5 1.4 0 1.9.3.3.6.4 1 .4.3 0 .7-.1 1-.4l4.1-4.1-4-3.9z" class="st2"/><path d="M40.5 16C37.1 9.2 30.2 4.9 22.6 4.9l.8-.8c.5-.5.5-1.4 0-1.9s-1.4-.5-1.9 0l-3.9 3.9 4.1 4.1c.3.3.6.4 1 .4s.7-.1 1-.4c.5-.5.5-1.4 0-1.9l-.8-.8c6.6.1 12.4 3.7 15.4 9.6 1.2 2.4 1.8 5 1.8 7.7 0 2.5-.5 4.8-1.5 7.1-3 6.1-9 10.1-15.6 10.3H1.9c-.7 0-1.3.6-1.3 1.3s.6 1.3 1.3 1.3H23c7.7-.2 14.6-4.8 17.8-11.8 1.2-2.6 1.7-5.3 1.7-8.2.1-3-.6-6-2-8.8z" class="st2"/><path d="M24.3 17.7v-2.2h-3.8v2.2c-3.1.9-5.3 3.6-5.3 6.8 0 1.9.7 3.7 2.1 5.1s3.1 2.1 5.1 2.2h.1c1.9 0 3.7-.7 5-2.1 1.4-1.3 2.1-3.1 2.2-5.1-.1-3.2-2.3-6-5.4-6.9zM26.7 29c-1.2 1.1-2.7 1.7-4.3 1.7h-.1c-1.6 0-3.2-.7-4.3-1.8-1.1-1.2-1.8-2.7-1.7-4.4 0-2.8 2.1-5.3 4.8-5.9.2-.1.4-.3.4-.5v-1.5h1.7v1.5c0 .3.2.5.4.5 2.8.6 4.9 3.2 4.8 6.1.1 1.7-.5 3.2-1.7 4.3z" class="st2"/><path d="M23.9 21.1c-2-.8-4.2.1-5 2.1-.8 2 .1 4.2 2.1 5s4.2-.1 5.1-2.1c.7-1.9-.2-4.2-2.2-5zm.6 2.4l-1.3 1.1c0 .1 0 .3-.1.4-.2.4-.6.6-1 .4-.4-.2-.6-.6-.4-1 .2-.4.6-.6 1-.4l1.3-1.1c.2-.1.4-.1.6.1s.1.3-.1.5zm-11 5h-1.7c-.4 0-.7-.3-.7-.7v-1.7c0-.4.3-.7.7-.7h1.7c.4 0 .7.3.7.7v1.7c0 .4-.4.7-.7.7zm-1.3-1h.9v-.9h-.9v.9zm-.9-2.5H10c-.4 0-.7-.3-.7-.7V23c0-.4.3-.7.7-.7h1.3c.4 0 .7.3.7.7v1.3c0 .4-.3.7-.7.7zm-.9-1.1h.6v-.6h-.6v.6zm3.7-.8h-1c-.4 0-.7-.3-.7-.7v-1c0-.4.3-.7.7-.7h1c.4 0 .7.3.7.7v1c0 .3-.3.7-.7.7zm-.6-1.1h.3v-.3h-.3v.3zm20 6.5h-1.7c-.4 0-.7-.3-.7-.7v-1.7c0-.4.3-.7.7-.7h1.7c.4 0 .7.3.7.7v1.7c0 .4-.3.7-.7.7zm-1.3-1h.9v-.9h-.9v.9zm3.1-2.5H34c-.4 0-.7-.3-.7-.7V23c0-.4.3-.7.7-.7h1.3c.4 0 .7.3.7.7v1.3c0 .4-.3.7-.7.7zm-.9-1.1h.6v-.6h-.6v.6zm-2.2-.8h-1c-.4 0-.7-.3-.7-.7v-1c0-.4.3-.7.7-.7h1c.4 0 .7.3.7.7v1c0 .3-.3.7-.7.7zm-.6-1.1h.3v-.3h-.3v.3zm1.5 15.6c-.1 0-.3-.1-.3-.3l-.1-1.8-1.7.1c-.2 0-.3-.1-.3-.3 0-.1.1-.3.3-.3l2.2-.1.1 2.3c.1.3 0 .4-.2.4z" class="st2"/></svg>