<svg xmlns="http://www.w3.org/2000/svg" id="Layer_1" x="0" y="0" version="1.1" viewBox="0 0 50 50" xml:space="preserve"><style>.st2{fill:#031326}</style><path fill="#46b8b0" d="M44 25.9c-.7-.5-1.5-.7-2.3-.7-.2 0-.5 0-.7.1-.1-.2-.2-.3-.4-.4-.5-.4-1.2-.2-1.6.3l-3.6-2.5.7-1c.3-.5.2-1.1-.2-1.4L28 14.7c.3-.4.5-.7.6-1.1L24.7 15 13 19.3l2.8 1.9c-.4 1.4 0 2.6 1.2 3.6 1.7 1.1 3.7.6 4.8-1.2l2.8 2V31c-1.4.6-2.4 1.9-2.6 3.4l3.3-2 4-.7.1-2.4c.2.1.3.1.5.2.4.1.6-.1.9-.4l.7-1 3.2 2.3L45 26.6l-1-.7z"/><path fill="#4ecdc4" d="M28.8 11.9c-.1-.8-.6-1.6-1.3-2.1-1.3-.8-2.7-.8-3.8.1l-6.2-4.3c.4-1.3-.1-2.7-1.2-3.6-.6-.4-1.2-.6-1.9-.6-1.1 0-2 .5-2.6 1.4L5 12.5c-.5.7-.7 1.6-.5 2.4.1.8.6 1.6 1.3 2.1 1.2.8 2.7.8 3.8-.1l3.4 2.4 15.6-5.7c.2-.6.3-1.1.2-1.7z"/><path d="M46.1 26.1l-1.4-1c-.9-.6-1.9-.9-3-.9-.7 0-1.3.1-1.8.3l-2.8-2v-.1c.6-1 .4-2.3-.6-3.1l-6.9-4.8c.4-.9.5-1.7.4-2.6-.1-.9-.6-1.8-1.3-2.5-.2-.2-.4-.5-.7-.7-.8-.6-1.8-.8-2.9-.7-.1 0-.2 0-.2.1-.4.1-.9.2-1.3.4l-4.9-3.4c.1-1.5-.5-3-1.8-4h.1c-.8-.5-1.7-.8-2.6-.8-1.5 0-2.8.7-3.6 1.9L4 11.9c-.7 1-1 2.2-.7 3.4.1.7.5 1.5 1 2.1l.1.1.2.2s0 .1.1.1h.1c.1.1.3.3.5.4 1.4.9 3.1 1.1 4.5.4l4.8 3.3c-.1.5-.1 1 0 1.5.2 1 .7 1.9 1.5 2.5.4.3.8.5 1.2.6.9.4 1.8.5 2.8.3.8-.2 1.6-.6 2.2-1.2l1.3.9v4.9c-1.1.8-1.8 2.2-1.8 3.6 0 .7.1 1.3.4 1.8l-6.6 11c-.4.6-.2 1.4.4 1.7.2.1.4.2.6.2.4 0 .8-.2 1.1-.6l6.2-10.3 1.2.6v5.2c0 .7.6 1.2 1.2 1.2s1.2-.6 1.2-1.2v-5.2c.4-.1.7-.2 1-.4l6.1 10.1c.2.4.6.6 1.1.6.2 0 .4-.1.6-.2.6-.4.8-1.1.4-1.7l-6.4-10.6c.4-.7.6-1.4.6-2.2 0-.5-.1-1-.2-1.4l.1-2.7c.4-.1.8-.3 1.1-.7l.1-.1.1.1c.1.1.1.2.2.2.1.1.2.1.3.1l2.2 1.6c0 1.7.8 3.3 2.2 4.3l1.3.8c.4.2.8.4 1.2.4.6 0 1.2-.3 1.7-.7l5.2-7.5c.7-1.2.6-2.4-.3-3.3zM7.9 15.5c-.2.3-.5.4-.9.5-.3 0-.6 0-.9-.2-.2-.3-.4-.6-.4-.9v-.1c-.1-.4 0-1 .3-1.4l6.8-9.7c.4-.6.9-.8 1.6-.8.2 0 .4 0 .6.1l.1.1c.6.4.7 1.2.3 1.8L7.9 15.5zm7.6 4.2l-5.1-3.5L17 7l5.1 3.5-6.6 9.2zm3.7 3.8c-.3.4-.8.6-1.3.5 0 0-.1 0-.1-.1-.7-.6-.9-1.1-.8-1.9 0 0 0-.1.1-.2L24.9 11c.2-.2.4-.4.7-.5.5 0 .9.2 1.3.4l.1.1c.4.5.4 1.1.1 1.6l-7.9 10.9zm7 13.6c-1.2 0-2.1-1-2.1-2.1s1-2.1 2.1-2.1c1.2 0 2.1 1 2.1 2.1s-.9 2.1-2.1 2.1zm5.1-10.6L30 28.3c-.2-.1-.3-.1-.5-.1-.3 0-.6.1-.9.3l-.3.3v.1c0 .1-.1.2-.1.3 0 .1 0 .1-.1.2l-.1 1.4c-.6-.3-1.3-.5-2-.5h-.3v-4.7c0-.1 0-.2-.1-.3 0-.1 0-.1-.1-.2 0-.1-.1-.1-.1-.2l-.2-.2s0-.1-.1-.1l-2.6-1.9 4.9-6.8 7.4 5.1-1.3 1.8 1.2.9-2.3 3.5-1.1-.7zm4.7 3.3l-1.4-1 2.3-3.5 1.4 1-2.3 3.5zm8.3-1.9L39.4 35l-1-.7c-.6-.4-1-1.1-1.1-1.8l.1-.1 3.6-5.6c.2-.1.5-.1.7-.1.6 0 1.1.2 1.5.5l1.1.7z" class="st2"/><path d="M26.2 33.7c-.7 0-1.2.6-1.2 1.2s.6 1.2 1.2 1.2 1.2-.6 1.2-1.2-.5-1.2-1.2-1.2zm3.2-2l1.2-.5-.6-1.8c-.1 0-.3-.1-.5-.2l-.1 2.5z" class="st2"/></svg>