<svg xmlns="http://www.w3.org/2000/svg" id="Layer_1" x="0" y="0" version="1.1" viewBox="0 0 50 50" xml:space="preserve"><style>.st2{fill:#031326}</style><path fill="#00c8e2" d="M49.8 23.6v9.5c0 .5-.4.8-.8.8h-1.7v1.9l-1.6.6-1.6.6-5.3 1.9-9.2 3.3-4.6 1.7H3.6c-.8 0-1.6-.3-2.2-.8-.5-.4-.9-1-1-1.7l1.6-.5L7.3 39l4.6-1.7 4.6-1.6 2.2-.8 13.8-5 1.7-.6 6.6-2.4 3.2-1.2 4.2-1.5 1.6-.6z"/><path fill="#00dffc" d="M49.8 23.3v2.4l-1.6.6-1.7.6-1.5.5-4.5 1.6-4.6 1.7-1.7.6-1.7.6-14.9 5.4-4.6 1.6-9.2 3.3-2.3.8c-.5-.4-.9-1-1-1.7-.1-.3-.1-.5-.1-.8V38c0-.5.4-.8.8-.8h1.7v-6l1.6-.6 1.7-.6 1.7-.6 1.7-.6 1.7-.6 2.5-.9 1.6-.6L23 24l1.6-.6 1.6-.6 2.7-1L42.4 17l1.7-.6 1.7-.6 1.6-.6v7.2H49c.5 0 .8.4.8.9z"/><path d="M49 37.3h-1.7v-3.7h-1.6v3.7H44v-3.7h-1.7v3.7H30.1c-.9 0-1.7.5-2.1 1.3-.1.2-.3.4-.6.4h-4.8c-.2 0-.5-.1-.6-.4-.4-.8-1.2-1.3-2.1-1.3H7.8V10.8H6.1v26.5H4.4V22.4H2.8v14.9H1.1c-.5 0-.8.4-.8.8v2.5c0 .3 0 .6.1.8.2.7.5 1.2 1 1.7.6.5 1.3.8 2.2.8h42.9c1.8 0 3.3-1.5 3.3-3.3v-2.5c0-.4-.3-.8-.8-.8zm-.8 3.3c0 .9-.7 1.7-1.7 1.7H3.6c-.8 0-1.5-.6-1.6-1.4V39h18c.2 0 .5.1.6.4.4.8 1.2 1.3 2.1 1.3h4.8c.9 0 1.7-.5 2.1-1.3.1-.2.3-.4.6-.4h18.1v1.6z" class="st2"/><path d="M35.5 7.6V5.9H6.9c-2.3 0-4.1 1.8-4.1 4.1v13.6h1.7V10.1c0-1.4 1.1-2.5 2.5-2.5h28.5z" class="st2"/><path d="M6.1 10.9h29.4V9.2H7.8c-1 0-1.7.8-1.7 1.7zm15.6 5.6c-.3-.1-.6 0-.8.2l-8.1 8-2 1.2c-1.3.8-1.9 2.3-1.4 3.7.4 1.2 1.4 2 2.6 2.1l1.7 3.5c.1.3.4.5.7.5h3.2c.3 0 .5-.1.7-.4.2-.2.2-.5.1-.8l-1.7-3.9 9 .1c.3 0 .5-.1.7-.3.2-.2.2-.5.1-.7L22.3 17c-.1-.3-.3-.5-.6-.5zM11.1 29c-.2-.7.1-1.4.7-1.8l1.3-.8 1.4 2.9-1.2.6c-.4.2-.9.2-1.3 0-.4-.1-.7-.4-.9-.9zm4 5l-1.2-2.5c.1 0 .1 0 .2-.1l1.2-.6 1.4 3.2h-1.6zm1.1-5.1l-1.7-3.4 6.8-6.7L24.7 29l-8.5-.1zm9.8-6.2l2.7-.9.5 1.6-2.7.9-.5-1.6zm-2.1-5.5l1.8-1.9 1.2 1.1-1.8 1.9-1.2-1.1zm4.5 11h2.5v1.7h-2.5v-1.7zM49 22.4h-1.7v-7.7h-1.6v7.7H44v-7.6h-1.7v7.6h-9.1c-.5 0-.8.4-.8.8v9.9c0 .5.4.8.8.8H49c.5 0 .8-.4.8-.8v-9.9c0-.4-.3-.8-.8-.8zm-.8 10h-14v-8.3h14v8.3z" class="st2"/><path d="M35.8 25.7h3.3v1.7h-3.3v-1.7zm5 0h5.8v1.7h-5.8v-1.7zm-5 3.3h10.7v1.7H35.8V29z" class="st2"/></svg>