<svg xmlns="http://www.w3.org/2000/svg" id="Layer_1" x="0" y="0" version="1.1" viewBox="0 0 50 50" xml:space="preserve"><style>.st2{fill:#031326}</style><path fill="#00dffc" d="M41.8 20.2l-1.2 6.9-24.3 8.7-7.6-4.2L4 31l37.8-14z"/><path fill="#00c8e2" d="M37.3 32.3l1.5 1.3-11.5 4.1-7.8-.9-3.2-1.1 23.5-8.4-.3 1.5z"/><path d="M48.1 37.4c-.8-.9-1.8-1.4-3.1-1.4h-.4c-1.2-1.1-3.3-2.4-6.1-3.7 2.1-3 4.4-8.6 4.3-18.7v-.3c0-3.9-.7-8-.8-8.1-.1-.4-.4-.7-.8-.7s-.8.2-.9.6c0 0-.3 1-.8 2.3-1.7 4.3-7.5 7.7-12.3 8.8-1-.6-2.2-.9-3.3-.9-1.6 0-3.1.6-4.3 1.6h-.1c-4.7-.1-8.4-5.7-8.4-5.8-.2-.3-.6-.5-1-.4s-.7.5-.7.9v7.7c-.4.7-.7 1.4-.7 2.2-2.2-1.7-4.8-2.1-6.6-.9-1 .6-1.6 1.6-1.8 2.9-.3 1.8.2 3.8 1.5 5.6 1.5 2.1 3.8 3.4 5.9 3.4h.1c1.3 1.1 3.7 2.4 6.1 3.5 4.1 1.8 8 2.7 11.5 2.7h.4c2.9-.1 5.6-.7 7.8-1.9.5.3 1 .6 1.5.8 2.6 1.3 5 2.1 6 2.4v.1c0 3.2 2.9 3.9 5 4.4.9.2 1.9.5 2.2.8.2.2.4.3.6.3h.3c.3-.1.6-.4.6-.8 0-.2.5-5-1.7-7.4zM23.8 17c2.7 0 4.9 2.2 4.9 4.9 0 .7-.2 1.4-.5 2.1v-.2c0-1.8-1.5-3.2-3.2-3.2s-3.2 1.5-3.2 3.2c0 1.3.7 2.4 1.9 2.9-2.7 0-4.7-2.2-4.7-4.8 0-2.7 2.1-4.9 4.8-4.9zm1.8 5.7c0 .6-.5 1-1 1-.6 0-1-.4-1-1s.4-1 1-1c.5 0 1 .4 1 1zm-7.5-4.3c-.1.1-.1.2-.2.3-.1-.2-.3-.3-.4-.5.2.2.4.2.6.2zm-6.9-4.2c.7.8 1.7 1.8 3 2.6-1-.1-2.1.1-3 .7v-3.3zm2.6 4.4c1.8 0 3.3 1.5 3.3 3.3-.4-.8-1.2-1.3-2.2-1.3-1.3 0-2.5 1.1-2.5 2.5 0 .9.5 1.8 1.3 2.2-1.8 0-3.3-1.5-3.3-3.3.1-1.9 1.6-3.4 3.4-3.4zm1.8 3.7c0 .3-.3.6-.6.6s-.6-.3-.6-.6.3-.6.6-.6.6.3.6.6zm-11.1-.6c1.5 0 3.3 1 4.4 2.7 1 1.4 1.4 2.9 1.2 4.2-.1.5-.4 1.2-1 1.7-.4.3-.9.4-1.4.4-1.5 0-3.2-1-4.4-2.7-1-1.4-1.4-2.9-1.2-4.2.1-.5.3-1.2 1-1.7.4-.3.8-.4 1.4-.4zm21.2 15.1h-.4c-3.3 0-6.9-.9-10.7-2.5-1.6-.7-3.3-1.6-4.6-2.4h.1c1-.6 1.6-1.6 1.8-2.9.1-.7.1-1.4 0-2.2.6.2 1.2.4 1.9.4 1.6 0 3.1-.8 4.1-2 1.2 2.2 3.5 3.6 5.9 3.6 3.7 0 6.7-3 6.7-6.7 0-1.6-.6-3.1-1.6-4.4 4.2-1.2 9.6-4.2 11.9-8.6.2 1.6.3 3.1.3 4.4v.3c.1 9.9-2.2 15.2-4.2 17.9-.6-.3-1.2-.5-1.8-.7.6-2.3-3-4-3.2-4l-.4-.2.3.4s.7 1.1.7 2.3c0 .9-7.1 1.4-12.1 1.4h-.8l.7.3s4.2 1.6 8.1 2.2c.4.4 1.7 1.4 3.4 2.5-1.9.5-3.8.9-6.1.9zm12.3.1c-.7-.3-1.5-.7-2.2-1-2.2-1-4.3-2.6-5.5-3.5.4-.4 1-.6 1.8-.7 1.5.4 3.1 1.1 4.7 1.8.8.4 1.6.8 2.3 1.1-.5.7-.9 1.5-1.1 2.3zm3.5 1.3c-.4-.1-1-.3-1.7-.6 0-1.1.7-1.7 1.1-2 .7.4 1.3.8 1.8 1.2-.5.4-.9.9-1.2 1.4zm4.9 4.5c-2.4-.6-3.6-1.1-3.6-2.7 0-1.5 1.4-2.2 2.2-2.2.7 0 1.3.2 1.7.7 1 1.1 1.2 3.4 1.3 4.5-.5 0-1-.1-1.6-.3z" class="st2"/><path d="M39.1 21.8c-.1.4-.5.7-.9.7H38l-1.5-.3c-.2 0-.4-.2-.6-.4-.1-.2-.2-.4-.1-.7 0-.2.2-.4.4-.6.2-.1.4-.2.7-.1l1.5.3c.3 0 .5.2.6.4.1.2.1.5.1.7zM38 25.7c-.1.2-.3.4-.5.5-.1 0-.2.1-.3.1s-.3 0-.4-.1l-1.4-.6c-.5-.2-.7-.7-.5-1.2.1-.2.3-.4.5-.5s.5-.1.7 0l1.4.6c.2.1.4.3.5.5.1.3.1.5 0 .7zm1.6-8.1c0 .5-.4.9-.9.9h-1.5c-.5 0-.9-.4-.9-.9s.4-.9.9-.9h1.5c.5 0 .9.4.9.9z" class="st2"/></svg>