<svg xmlns="http://www.w3.org/2000/svg" id="Layer_1" x="0" y="0" version="1.1" viewBox="0 0 50 50" xml:space="preserve"><style>.st2{fill:#031326}</style><path fill="#fcb968" d="M47.1 26.9v3.4L1.8 46.8l.7-7.1.7-4.2L48.4 19l-.9 3z"/><path fill="#fdc787" d="M48.4 13.7l-1.1 6.2L2.9 36 2 29l.7-4.3L49 8.5z"/><path d="M42.9 47.1h-41c-.7 0-1.2-.6-1.2-1.2v-38c0-.7.6-1.2 1.2-1.2h46.2c.7 0 1.2.6 1.2 1.2v30.3c0 .7-.6 1.2-1.2 1.2s-1.2-.6-1.2-1.2v-29H3.1v35.4h39.8c.7 0 1.2.6 1.2 1.2s-.5 1.3-1.2 1.3zM39.8 3.7H10.1c-.4 0-.7-.3-.7-.7s.3-.8.8-.8h29.7c.4 0 .8.3.8.8s-.5.7-.9.7z" class="st2"/><path d="M40.7 40H8.5c-.3 0-.5-.1-.7-.4s-.1-.5 0-.8l7.4-11.5c.1-.2.3-.3.6-.3.2 0 .5.1.6.2l5.2 5.2 8.6-11.7c.2-.2.4-.3.7-.3.3 0 .5.2.6.4l9.9 18.1c.1.2.1.5 0 .7-.2.3-.5.4-.7.4zM9.9 38.5h29.5l-8.7-16-8.4 11.4c-.1.2-.3.3-.5.3s-.4-.1-.6-.2L16 28.9l-6.1 9.6zm6-16.6c-2.2 0-4-1.8-4-4s1.8-4 4-4 4 1.8 4 4-1.8 4-4 4zm0-6.6c-1.4 0-2.5 1.1-2.5 2.5s1.1 2.5 2.5 2.5 2.5-1.1 2.5-2.5-1.1-2.5-2.5-2.5z" class="st2"/></svg>