<svg xmlns="http://www.w3.org/2000/svg" id="Layer_1" x="0" y="0" version="1.1" viewBox="0 0 50 50" xml:space="preserve"><style>.st3{fill:#444}.st4{fill:#494949}</style><path fill="#46b8b0" d="M47.7 11.6l.8 5.2L2.4 33.6l-.5-10.9-.1-6.2L42.1 1.9l5.2 2.3z"/><path fill="#4ecdc4" d="M46.1 2l2.3 3.2L1.5 21.9 2.6 4.8l3-2.9 29.1-.2z"/><path fill="none" stroke="#444" stroke-linecap="round" stroke-linejoin="round" stroke-miterlimit="10" stroke-width="2.5" d="M18.1 48.3H5.5c-1.9 0-3.4-1.6-3.4-3.5v-39c0-2 1.5-3.5 3.4-3.5h39c1.9 0 3.4 1.6 3.4 3.5v24.6"/><circle cx="8.2" cy="8.2" r="1.4" class="st3"/><circle cx="12.1" cy="8.2" r="1.4" class="st3"/><circle cx="15.9" cy="8.2" r="1.4" class="st3"/><g id="CXHf1q_3_"><path d="M29.2 33.9c-1.3.3-2.3.6-3.6.9-.3.2-.3.2-.6-.1-.3-.4-.6-.6-1-.8-1.3-.7-2.6-.5-3.8.3-1.4.9-2.2 2.3-2.2 4 0 1.7 1.2 3.1 2.9 3.3 1.4.2 2.7-.3 3.6-1.4.2-.2.4-.5.6-.8H21c-.4 0-.6-.3-.4-.6.3-.7.8-1.8 1.1-2.3.1-.1.2-.3.5-.3h7.7c0 .6 0 1.1-.1 1.7-.2 1.5-.8 2.9-1.7 4.2-1.5 2-3.5 3.3-6.1 3.6-2.1.3-4-.1-5.7-1.4-1.6-1.2-2.5-2.8-2.7-4.7-.3-2.3.4-4.4 1.8-6.2 1.5-2 3.5-3.2 6-3.7 2-.4 3.9-.1 5.6 1 1.1.7 1.9 1.8 2.5 3 0 .2-.1.3-.3.3z" class="st4"/><path d="M36.2 45.7c-1.9 0-3.7-.6-5.2-1.9-1.3-1.1-2-2.5-2.3-4.1-.4-2.4.3-4.5 1.7-6.4 1.6-2 3.4-3.1 6-3.5 2.2-.4 4.2-.2 6.1 1.1 1.7 1.1 2.7 2.7 3 4.7.4 2.9-.5 5.2-2.4 7.2-1.4 1.4-3.1 2.3-5.1 2.7-.7.1-1.2.1-1.8.2zm5.1-8.6c0-.3 0-.5-.1-.7-.4-2.1-2.3-3.3-4.3-2.8-2 .4-3.3 1.7-3.7 3.7-.4 1.7.4 3.3 2 4 1.2.5 2.3.4 3.5-.1 1.6-.9 2.5-2.3 2.6-4.1z" class="st4"/></g></svg>