<svg xmlns="http://www.w3.org/2000/svg" id="Layer_1" x="0" y="0" version="1.1" viewBox="0 0 50 50" xml:space="preserve"><style>.st3{fill:#031326}</style><path fill="#00dffc" d="M37.6 10c4.7-1.7 1-8.1-3.1-5.3C31.8 2.4 28.1 2 24.2 2c-3.8.3-7.4 1-10 3.2-4.1-2.6-7.9 3.7-3.1 5.3-1.1 4.4-.2 8.9 0 13.4-.5 0-1.1.1-1.6.3-2.1.6-3.6 2.1-3.2 3.3l32.1-11.7c-.1-1.9-.3-3.9-.8-5.8z"/><path fill="#00c8e2" d="M38.8 28.1c.1 0 .2.1.3.1 2.1.6 4.1.2 4.5-1 .4-1.2-1.1-2.7-3.2-3.3-.7-.2-1.3-.3-1.9-.3-.1-2.6 0-5.2-.2-7.7l-32 11.7c.4 1.2 2.4 1.6 4.5 1 .1 0 .1-.1.2-.1-.3 4.4-.9 9.7 1.3 13.4.3.6.8 1.1 1.2 1.5-1.2.4-2.2 1.1-2.7 1.8l28-10.2c.3-2.3.2-4.6 0-6.9z"/><path fill="#c6b198" d="M8.8 27.1c.2 0 .4-.1.6-.3m32.3.2c-.2-.1-.4-.1-.5-.3"/><path d="M12 8.8c-.7-.4-1.2-.9-.8-1.6.4-.7 1.1-.7 1.8-.3l-1 1.9zm24.8-.7c.7-.4 1.2-.9.8-1.6-.4-.7-1.1-.7-1.8-.3l1 1.9zm-7.5 5.1c-.6 0-1.2-.1-1.7-.3-1.6-.5-2.6-1.8-2.9-3.4-.2-2.9 2-4.6 4.2-4.9 2.1-.4 4.4.5 5.1 3.2.4 1.6 0 3.1-1.2 4.1-.9.8-2.2 1.3-3.5 1.3zm-3.9-3.9c.2 1.4 1.1 2.4 2.4 2.8 1.5.5 3.3.2 4.5-.8.7-.6 1.4-1.6 1-3.4-.5-2.2-2.5-3-4.2-2.7-1.9.3-3.8 1.7-3.7 4.1zm-6.9 4.3c-1.9 0-3.8-1-4.4-3.3-.3-1.7.2-3.3 1.5-4.3 1.4-1.2 3.6-1.4 5.3-.7 1.5.7 2.3 2 2.5 3.7.2 2.7-1.9 4.2-4 4.5-.3.1-.6.1-.9.1zm-3.7-3.4c.6 2.2 2.6 2.9 4.4 2.6 1.8-.3 3.5-1.5 3.3-3.8-.1-1.4-.8-2.5-2-3-1.5-.6-3.3-.4-4.6.6-.9.8-1.3 2.1-1.1 3.6z" class="st3"/><path d="M16.6 8.1c-.7 0-1.3.6-1.3 1.4 0 .8.6 1.4 1.3 1.4.7 0 1.3-.6 1.3-1.4-.1-.8-.6-1.4-1.3-1.4zm.8 1.7c0 .2-.1.4-.3.4-.2 0-.3-.2-.3-.4s.1-.4.3-.4c.2 0 .3.2.3.4zm9.9-2.1c-.7 0-1.3.6-1.3 1.4 0 .8.6 1.4 1.3 1.4.7 0 1.3-.6 1.3-1.4-.1-.7-.6-1.4-1.3-1.4zm.8 1.7c0 .2-.1.4-.3.4-.2 0-.3-.2-.3-.4s.1-.4.3-.4c.2.1.3.2.3.4zm-2.7 9.8c-.6-.1-1-.4-1.2-.9v-.1c-.1-.6 0-1.2 0-1.8 0-.3 0-.5.1-.8v-.3l2.2.7v.9c0 .5.1 1 0 1.6v.1c-.2.3-.5.5-.7.5-.1.1-.2.1-.4.1zm-.7-1c.1.3.4.5.7.5.1 0 .1 0 .2-.1.2-.1.4-.1.5-.3.1-.5 0-.9 0-1.4v-.6l-1.3-.3v.5c-.1.6-.2 1.1-.1 1.7z" class="st3"/><path d="M23.4 19.2c-.2 0-.3-.1-.4-.1-.8-.5-1-2.1-.6-3V16l2.3-.6v.3c0 .3 0 .6-.1.8 0 .6-.1 1.1 0 1.7v.1l-.1.1c-.4.6-.8.8-1.1.8zm-.6-2.8c-.3.8 0 2 .4 2.3.3.2.7-.2.9-.5-.1-.6 0-1.1 0-1.7V16l-1.3.4z" class="st3"/><path d="M26.8 16.5c-.4 0-.8-.2-1.2-.3-.3-.1-.7-.3-1-.3-.3 0-.7.1-1.1.2-.8.3-1.9.7-2.5-.4-.3-.5-.3-1.2 0-1.7.3-.6 1-1.1 1.6-1.1l3.5-.1h.1c.4.2 1.9.9 2.1 2 .1.3.1.8-.4 1.3-.3.3-.7.4-1.1.4zm-2.3-1.4h.2c.4 0 .9.2 1.3.4.7.3 1 .4 1.4 0 .3-.3.3-.5.2-.6-.1-.5-.9-1.1-1.6-1.4l-3.3.1c-.4 0-.8.3-1 .7-.1.2-.3.6 0 1 .3.5.7.4 1.6.1.4-.1.8-.3 1.2-.3z" class="st3"/><path d="M22.6 13.1c-.1-1.8 3.4-2 3.8-.5.3 1.5-3.7 1.9-3.8.5-.2-1 0 0 0 0z" class="st3"/><path d="M37.1 49.2c-.7 0-1.4-.1-2.2-.3-1.2-.4-2.3-1-3.1-1.8-3 1.1-6.1 1.2-8.3 1.2-1.8-.1-3.6-.4-5.3-.9-.7.6-1.7 1.2-2.8 1.5-2.9.9-5.5.1-6.1-1.8-.4-1.4.5-3 2.2-4.1-.1-.1-.2-.3-.3-.4-1.2-2-1.8-4.4-1.9-7.7 0-1.6.1-3.2.2-4.8-2.2.2-4.1-.6-4.5-2.2-.6-1.9 1.2-4 4-4.9.2-.1.5-.1.7-.2-.1-.8-.1-1.6-.2-2.4-.3-3-.5-6.1.1-9.2-1.2-.7-1.9-1.7-2-2.9-.1-1.6.8-3.3 2.3-4.2 1.3-.8 2.8-.9 4.2-.3 2.9-2.1 6.7-2.7 10-3h.1c3.5 0 7.4.3 10.4 2.5 1.4-.7 2.9-.6 4.1.1 1.6.9 2.5 2.6 2.3 4.3-.1 1.3-.8 2.3-2 3 .7 3.2.7 6.6.8 9.8v2c.3.1.7.1 1 .2 2.9.9 4.6 3 4 4.9-.5 1.6-2.4 2.4-4.7 2.1.1 2 .1 4-.1 5.9-.1.7-.7 1.2-1.4 1.1-.7-.1-1.2-.7-1.1-1.4.3-2.2.2-4.5 0-7.2l-.1-1.9 1.9.7h.1c1.7.5 2.9.1 2.9-.2s-.7-1.2-2.4-1.8c-.5-.2-1-.2-1.5-.2h-1.2v-4.4c0-3.6 0-6.9-.9-10.2L36 9l1.1-.4c.6-.2 1.3-.6 1.4-1.4.1-.7-.4-1.5-1-1.9-.7-.4-1.5-.3-2.3.2l-.8.6-.7-.6c-2.5-2.1-6-2.4-9.5-2.4-3.1.2-6.7.8-9.1 2.9l-.7.6-.8-.5c-1.1-.7-1.9-.4-2.4-.1-.7.4-1.1 1.2-1 1.9.1.7.8 1.1 1.4 1.3l1.1.4-.3 1.1c-.8 3-.5 6.2-.3 9.4.1 1.2.2 2.4.2 3.6v1.2l-1.2.1c-.4 0-.9.1-1.3.2-1.6.8-2.4 1.8-2.3 2 .1.2 1.2.7 2.9.2l.2-.1 1.8-.6-.2 2.8c-.1 1.7-.3 3.5-.3 5.3 0 2.8.5 4.8 1.5 6.4.3.4.6.8 1.1 1.3l1.5 1.4-2 .6c-1.6.5-2.3 1.5-2.3 1.7.1.2 1.2.7 2.9.2.9-.3 1.7-.8 2.1-1.3l.6-.7.9.3c1.6.6 3.4.9 5.3 1 2.2.1 5.3-.1 8.2-1.3l1-.5.6 1c.3.5 1 1.2 2.3 1.6 1.7.5 3 .1 3.1-.3 0-.1-.1-.4-.4-.8-.5-.5-1.2-.9-2-1.2-.2-.1-.4-.1-.5-.1-.7-.1-1.1-.8-1-1.5.1-.7.8-1.1 1.5-1 .3.1.5.1.8.2 1.3.4 2.4 1.1 3.2 1.9.9 1 1.3 2.2.9 3.2-.6 1.5-2.2 2.3-4.1 2.3z" class="st3"/></svg>