<svg xmlns="http://www.w3.org/2000/svg" viewBox="0 0 50 50"><defs><style>.cls-5{fill:#444}.cls-6{fill:#494949}</style></defs><g id="Layer_1" data-name="Layer 1"><path fill="none" stroke="#494949" stroke-miterlimit="10" stroke-width="3.11" d="M-50.54-96.7h425.11v443.81H-50.54z"/><path fill="#dc5e82" d="M47.7 11.6l.8 5.2L2.4 33.6l-.5-10.9-.1-6.2L42.1 1.9l5.2 2.3.4 7.4z"/><path fill="#f56991" d="M46.1 2l2.3 3.2L1.5 21.9 2.6 4.8l3-2.9 29.1-.2 11.4.3z"/><path fill="none" stroke="#444" stroke-linecap="round" stroke-linejoin="round" stroke-width="2.5" d="M18.1 48.3H5.5a3.46 3.46 0 01-3.4-3.5v-39a3.4 3.4 0 013.4-3.5h39a3.46 3.46 0 013.4 3.5v24.6"/><circle cx="8.2" cy="8.2" r="1.4" class="cls-5"/><circle cx="12.1" cy="8.2" r="1.4" class="cls-5"/><circle cx="15.9" cy="8.2" r="1.4" class="cls-5"/><g id="CXHf1q"><path d="M29.2 33.9c-1.3.3-2.3.6-3.6.9-.3.2-.3.2-.6-.1a2.54 2.54 0 00-1-.8 3.5 3.5 0 00-3.8.3 4.61 4.61 0 00-2.2 4 3.26 3.26 0 002.9 3.3 3.83 3.83 0 003.6-1.4 5.55 5.55 0 00.6-.8H21c-.4 0-.6-.3-.4-.6a25.05 25.05 0 011.1-2.3.62.62 0 01.5-.3h7.7a9.7 9.7 0 01-.1 1.7 9.59 9.59 0 01-1.7 4.2 8.64 8.64 0 01-6.1 3.6 7.27 7.27 0 01-5.7-1.4 6.56 6.56 0 01-2.7-4.7 8.17 8.17 0 011.8-6.2 9.53 9.53 0 016-3.7 7 7 0 018.1 4 .27.27 0 01-.3.3z" class="cls-6"/><path d="M36.2 45.7a7.78 7.78 0 01-5.2-1.9 6.81 6.81 0 01-2.3-4.1 8.17 8.17 0 011.7-6.4 8.88 8.88 0 016-3.5 7.74 7.74 0 016.1 1.1 6.54 6.54 0 013 4.7 8.25 8.25 0 01-2.4 7.2 9.75 9.75 0 01-5.1 2.7c-.7.1-1.2.1-1.8.2zm5.1-8.6a1.48 1.48 0 00-.1-.7 3.45 3.45 0 00-4.3-2.8 4.46 4.46 0 00-3.7 3.7 3.4 3.4 0 002 4 4.28 4.28 0 003.5-.1 4.82 4.82 0 002.6-4.1z" class="cls-6"/></g></g></svg>