<svg xmlns="http://www.w3.org/2000/svg" version="1" viewBox="0 0 50 50"><path fill="#00C8E2" d="M12.195 43.445l34.474-12.547c.511-1.88.788-3.856.788-5.898C47.457 12.597 37.403 2.543 25 2.543S2.543 12.597 2.543 25c0 7.642 3.82 14.389 9.652 18.445z"/><path fill="#00DFFC" d="M37.307 6.164a22.348 22.348 0 00-12.222-3.621c-10.117 0-18.668 6.69-21.478 15.887l33.7-12.266z"/><path fill="#031326" d="M25 48.5C12.042 48.5 1.5 37.958 1.5 25S12.042 1.5 25 1.5 48.5 12.042 48.5 25c0 2.093-.275 4.169-.818 6.171a1.042 1.042 0 11-2.014-.546c.495-1.824.746-3.717.746-5.625 0-11.808-9.606-21.414-21.414-21.414C13.192 3.586 3.586 13.192 3.586 25S13.192 46.414 25 46.414a1.043 1.043 0 010 2.086z"/><path fill="#031326" d="M25 43.124c-9.993 0-18.124-8.131-18.124-18.124S15.007 6.876 25 6.876c9.994 0 18.124 8.131 18.124 18.124 0 9.994-8.13 18.124-18.124 18.124zm0-34.997C15.696 8.127 8.127 15.696 8.127 25S15.696 41.873 25 41.873 41.873 34.304 41.873 25 34.304 8.127 25 8.127z"/><path fill="#031326" d="M20.276 24.199h4.884v6.781c-.841.274-1.633.467-2.375.577s-1.501.166-2.277.166c-1.974 0-3.481-.58-4.522-1.74s-1.561-2.825-1.561-4.996c0-2.111.604-3.757 1.812-4.938 1.208-1.181 2.882-1.771 5.023-1.771 1.239 0 2.437.229 3.594.686a.31.31 0 01.169.406l-.681 1.641a.303.303 0 01-.407.156 6.533 6.533 0 00-2.693-.58c-1.199 0-2.159.403-2.881 1.208s-1.082 1.888-1.082 3.247c0 1.419.291 2.503.872 3.252.581.748 1.427 1.123 2.536 1.123.579 0 1.166-.06 1.762-.179v-2.729h-2.173a.305.305 0 01-.305-.305v-1.699c0-.169.137-.306.305-.306zm15.299 2.326c0 1.628-.429 2.901-1.288 3.82-.859.918-2.055 1.378-3.587 1.378-.96 0-1.807-.21-2.541-.631a4.191 4.191 0 01-1.691-1.812c-.394-.787-.59-1.706-.59-2.755 0-1.634.426-2.904 1.279-3.811s2.052-1.36 3.596-1.36c.96 0 1.807.209 2.541.626s1.297 1.017 1.691 1.798c.393.782.59 1.698.59 2.747zm-6.915 0c0 .99.163 1.739.488 2.245.325.507.854.76 1.588.76.728 0 1.251-.252 1.57-.756.319-.504.479-1.254.479-2.25 0-.99-.161-1.733-.483-2.228-.322-.495-.85-.743-1.583-.743-.728 0-1.252.246-1.574.738-.324.494-.485 1.238-.485 2.234z"/></svg>