<svg xmlns="http://www.w3.org/2000/svg" id="Layer_1" x="0" y="0" version="1.1" viewBox="0 0 50 50" xml:space="preserve"><style>.st2{fill:#031326}</style><path fill="#46b8b0" d="M47.5 27.4c.9-1.5.9-3.3 0-4.8l-5.3-9.3L2.7 27.7 11.5 43l34.2-12.5 1.8-3.1z"/><path fill="#4ecdc4" d="M38.4 6.7c-.9-1.5-2.5-2.4-4.2-2.4H15.9c-1.7 0-3.3.9-4.2 2.4L2.5 22.6c-.9 1.5-.9 3.3 0 4.8l.2.3 39.5-14.4-3.8-6.6z"/><path d="M25 47h-9.2c-2.2 0-4.2-1.2-5.3-3L1.4 28a6.05 6.05 0 010-6.1L10.6 6c1.1-1.9 3.1-3 5.3-3h18.3c2.2 0 4.2 1.2 5.3 3l9.1 16c1.1 1.9 1.1 4.2 0 6.1L45.8 33c-.3.6-1.1.8-1.7.5-.6-.3-.8-1.1-.5-1.7l2.8-4.9c.6-1.1.6-2.5 0-3.6l-9.1-16c-.6-1.1-1.8-1.8-3.1-1.8H15.8c-1.3 0-2.5.7-3.1 1.8L3.6 23.2c-.6 1.1-.6 2.5 0 3.6l9.2 15.9c.6 1.1 1.8 1.8 3.1 1.8H25c.7 0 1.2.6 1.2 1.2S25.7 47 25 47z" class="st2"/><path d="M18.5 33.5c-.4 0-.7-.1-.9-.4l-3-3.4v-9.5l3-3.3c.5-.5 1.3-.5 1.8-.1.5.5.5 1.3.1 1.8l-2.3 2.6v7.6l2.4 2.7c.5.5.4 1.3-.1 1.8-.4.1-.7.2-1 .2zm13 0c-.3 0-.6-.1-.8-.3-.5-.5-.6-1.2-.1-1.8l2.4-2.7v-7.6l-2.3-2.6c-.5-.5-.4-1.3.1-1.8s1.3-.4 1.8.1l3 3.3v9.5l-3 3.4c-.4.4-.8.5-1.1.5z" class="st2"/><circle cx="21" cy="25" r="1.5" class="st2"/><circle cx="25" cy="25" r="1.5" class="st2"/><circle cx="29" cy="25" r="1.5" class="st2"/></svg>