<svg xmlns="http://www.w3.org/2000/svg" viewBox="0 0 50 50"><path fill="#fcc34f" d="M47.9 25.9l.4 4.4-46.9 17 .2-9.2.3-5.2 46.7-17-.7 3.7z"/><path fill="#fdcf72" d="M48.1 9l-.6 7.8L1.6 33.5v-9.9l.4-4.5L48.2 2.3z"/><path fill="none" stroke="#031326" stroke-linecap="round" stroke-linejoin="round" stroke-miterlimit="10" stroke-width="2.5" d="M33 48.3H1.6V1.7h46.8v36.1"/><path fill="#031326" d="M17.9 9c-1.2 0-2.3.7-2.9 1.7L8 23.3c-.6 1-.6 2.3 0 3.4l7 12.5c.6 1.1 1.7 1.7 2.9 1.7h14.2c1.2 0 2.3-.7 2.9-1.7l7-12.5c.6-1 .6-2.3 0-3.4l-7-12.5C34.4 9.7 33.3 9 32.1 9H17.9zm0 1.6h14.2c.6 0 1.2.3 1.6.9l2 3.6H19.3l-.2.4-4.6 8-2.5-4.3 4.3-7.7c.4-.6 1-.9 1.6-.9zm2.3 6h9.6l4.8 8.4-2.6 4.7-2.1 3.6h-9.6l-.9-1.5-2-3.4-2-3.4 4.8-8.4zm11.4 0h5l4.2 7.4c.3.6.3 1.3 0 1.9l-7.1 12.6c-.3.6-.9.9-1.6.9h-4l2.6-4.6.2-.4 5.3-9.1.2-.4-.2-.4-4.6-7.9zM25 20.4c-2.5 0-4.6 2.1-4.6 4.6s2.1 4.6 4.6 4.6 4.6-2.1 4.6-4.6-2.1-4.6-4.6-4.6zm-13.8.3l2.5 4.3.2.4 4.2 7.2 1.1 1.9.2.4H29l-2.6 4.6H18c-.6 0-1.2-.3-1.6-.9L9.3 25.9c-.3-.6-.3-1.3 0-1.9l1.9-3.3zM25 22c1.7 0 3 1.4 3 3s-1.4 3-3 3-3-1.4-3-3 1.3-3 3-3z"/></svg>