<svg xmlns="http://www.w3.org/2000/svg" id="Camada_3" x="0" y="0" version="1.1" viewBox="0 0 50 50" xml:space="preserve"><style>.st2{fill:none;stroke:#444;stroke-miterlimit:10}</style><path fill="#a6c1c2" d="M34.5 13l3.5 6.2 4.5 6.4L27.6 31l-2.7-.5-3.4 2.7-19.2 7 .7-5.8 7.9-14.3 1.1-1.9 20.8-7.6.7 1.2z"/><path fill="#b9d7d9" d="M26.1 4.5l4.7 2.1 4 6.7-24.6 8.8 1.5-2.4.4-2.1 7.4-11.5 4.6-1.7z"/><path d="M24.1 28l-6.3-10.9c-.5-.9-.8-1.8-.9-2.7-.1-.9 0-1.9.2-2.8l-3 4.6-3.6 6.3-3.6 6.3-2.8 4.9c.2-.3 0 0 0 0 .2-.2.7-.6.9-.8.6-.5 1.2-.8 1.8-1.1.9-.4 1.9-.6 2.9-.6s2 .2 2.9.6l.6.3c.6.3 1.2.8 1.7 1.3.7.7 1.2 1.5 1.6 2.3 0 .1.1.2.1.3 0 .1.1.2.1.4.2.7.3 1.4.3 2.2 0 .8-.1 1.7-.4 2.4l2.8-4.9 3.6-6.3 1.1-1.8z" class="st2"/><path d="M46.9 37.1c-.1-.9-.4-1.9-.9-2.7l-3.6-6.3-3.6-6.3-3.6-6.3-3.6-6.3c-.5-.9-1.2-1.6-1.9-2.2-.8-.6-1.6-1-2.5-1.2-.9-.2-1.9-.3-2.8-.2-.9.1-1.9.4-2.7.9-.9.5-1.6 1.2-2.2 1.9-.6.8-1 1.6-1.2 2.5-.2.9-.3 1.9-.2 2.8.1.9.4 1.9.9 2.7l3.6 6.3 3.6 6.3 3.6 6.3 3.6 6.3c.5.9 1.2 1.6 1.9 2.2.8.6 1.6 1 2.5 1.2.9.2 1.9.3 2.8.2s1.9-.4 2.7-.9c.9-.5 1.6-1.2 2.2-1.9s1-1.6 1.2-2.5c.2-.9.3-1.8.2-2.8zm-32.7-3c-.6-.6-1.3-1.1-2.1-1.4-.8-.3-1.7-.5-2.6-.5-.9 0-1.8.2-2.6.5s-1.5.8-2.1 1.4c-.6.6-1.1 1.3-1.4 2.1-.3.8-.4 1.6-.4 2.5 0 .9.2 1.8.5 2.6s.8 1.5 1.4 2.1c.6.6 1.3 1.1 2.1 1.4.8.3 1.7.5 2.6.5.9 0 1.8-.2 2.6-.5s1.5-.8 2.1-1.4c.6-.6 1.1-1.3 1.4-2.1.3-.8.5-1.7.5-2.6 0-.9-.2-1.8-.5-2.6-.4-.7-.9-1.4-1.5-2z" class="st2"/><path fill="#444" d="M48.1 33.8l-15-26c-.1-.1-.2-.3-.3-.4-.2-.3-.4-.6-.6-.8-.2-.2-.4-.4-.6-.7-.2-.2-.4-.4-.7-.6-.3-.2-.5-.4-.8-.6-.1-.1-.3-.2-.4-.3-.1-.1-.2-.1-.3-.1-.3-.2-.6-.3-.9-.4-.3-.1-.5-.2-.8-.3-.3-.1-.6-.1-.9-.2-.3-.1-.6-.1-.9-.1h-1.8c-.3 0-.6.1-.9.1-.3.1-.6.1-.9.2-.3.1-.5.2-.8.3-.2.1-.5.2-.8.4-.1 0-.2.1-.3.1-.1.1-.3.2-.4.3-.3.2-.6.4-.8.6-.2.2-.4.4-.7.6-.2.2-.4.4-.6.7-.2.3-.4.5-.6.8-.1.1-.2.3-.3.4l-15.2 26C-.6 38 .7 43.3 4.6 46c.1.1.2.2.3.2.1.1.2.1.3.2.3.2.7.4 1 .5.3.1.5.2.8.3.2.1.4.1.5.2.8.2 1.6.4 2.4.4 3 0 6.1-2 8.8-6.4L25.1 31 32 43.1c1.7 3 4.8 4.6 8 4.6 1.6 0 3.2-.4 4.6-1.3 4.5-2.4 6-8.1 3.5-12.6zm-32.3 7.4c-.3.8-.8 1.5-1.4 2.1-.6.6-1.3 1.1-2.1 1.4-.8.3-1.7.5-2.6.5-.9 0-1.8-.2-2.6-.5s-1.5-.8-2.1-1.4c-.5-.6-1-1.3-1.4-2.1-.3-.8-.5-1.6-.5-2.6 0-.9.2-1.8.5-2.6.4-.7.9-1.4 1.5-2 .6-.6 1.3-1.1 2.1-1.4.7-.4 1.6-.6 2.5-.6.9 0 1.8.2 2.6.5s1.5.8 2.1 1.4c.6.6 1.1 1.3 1.4 2.1.3.8.5 1.7.5 2.6 0 .9-.2 1.8-.5 2.6zm8.5-13.3l-1 1.7-3.6 6.3-2.9 4.9c.3-.8.4-1.6.4-2.4 0-.7-.1-1.5-.3-2.2 0-.1-.1-.2-.1-.4-.1-.1-.1-.2-.1-.3-.4-.9-.9-1.7-1.6-2.3-.5-.5-1.1-.9-1.7-1.3l-.6-.3c-.9-.4-1.9-.6-2.9-.6s-2 .2-2.9.6c-.7.3-1.3.6-1.8 1.1-.2.1-.7.6-.9.8l2.8-4.9 7.2-12.5 3-4.6c-.2.9-.3 1.9-.2 2.8.1 1 .4 1.9.9 2.7l6.3 10.9zm22.5 11.9c-.2.9-.7 1.8-1.2 2.5-.6.8-1.3 1.4-2.2 1.9-.9.5-1.8.8-2.7.9-.9.1-1.9 0-2.8-.2-.9-.2-1.8-.7-2.5-1.2-.8-.6-1.4-1.3-1.9-2.2l-3.6-6.3-3.6-6.3L19 16.5c-.5-.9-.8-1.8-.9-2.7-.1-.9 0-1.9.2-2.8.2-.9.7-1.8 1.2-2.5.6-.8 1.3-1.4 2.2-1.9.9-.5 1.8-.8 2.7-.9.9-.1 1.9 0 2.8.2.9.2 1.8.6 2.5 1.1.7.6 1.4 1.3 1.9 2.2l3.6 6.3 3.6 6.3 3.6 6.3 3.6 6.3c.5.9.8 1.8.9 2.7.3.8.2 1.8-.1 2.7z"/></svg>