<svg xmlns="http://www.w3.org/2000/svg" id="Layer_1" x="0" y="0" version="1.1" viewBox="0 0 50 50" xml:space="preserve"><style>.st2{fill:#494949}</style><path fill="#afe55d" d="M3.7 19.9v14.9l1-.4 2.3-.8 1-.4 1.3-.5 1-.4 4.9-1.8 2.2-.8 1.2-.4.9-.3.9-.3.2-.1 1-.4.3-.1 5.7-2.1 1.8-.6 10.4-3.8 1-.4 1.3-.5 1-.4 2.3-.8 1-.4V15c0-1.3-1.1-2.4-2.4-2.4h-3.1V9.4c0-.3-.2-.5-.5-.5h-.5V6.1l-7.5 2.8-2.7 1-9 3.3-1.7.6-.4.2-3.4 1.2-1 .4-3.8 1.4-1 .4L4.7 19l-1 .4v.5z"/><path fill="#c3ff68" d="M3.7 19.9l1-.4 4.6-1.7 1-.4 3.8-1.4 1-.4L20 14l.5-.2.6-.2 10-3.7 2.7-1 6-2.2V4.8c0-.6-.5-1.1-1.1-1.1H11.3c-.6 0-1.1.5-1.1 1.1v4.1h-.4c-.3 0-.5.2-.5.5v3.4H6.1c-1.3 0-2.4 1.1-2.4 2.4v4.7z"/><path d="M47.7 38.5V38c.1-.3-.1-.5-.4-.5H2.7c-.3 0-.5.2-.5.5v.5h45.5zM7.4 31.2c-.2 0-.4-.2-.4-.5v-8.3c0-.3.2-.5.5-.5s.5.2.5.5v8.3c-.1.3-.3.5-.6.5z" class="st2"/><path d="M15.5 44.7c-.2 0-.4-.2-.4-.4V38c0-.2.2-.4.5-.4s.5.2.5.4v6.3c-.1.2-.3.4-.6.4zm18.9.1c-.2 0-.4-.2-.4-.4v-6.3c0-.2.2-.4.5-.4s.5.2.5.4v6.3c-.1.2-.3.4-.6.4zm-27-9.6c-.2 0-.4-.2-.4-.4v-1.4c0-.3.2-.5.5-.5s.5.2.5.5v1.4c-.1.2-.3.4-.6.4zM42.6 24c-.3 0-.5-.2-.5-.5v-7c0-.3.2-.5.5-.5s.5.2.5.5v7c0 .3-.3.5-.5.5zm0 4.1c-.3 0-.5-.2-.5-.5v-1.4c0-.3.2-.5.5-.5s.5.2.5.5v1.4c0 .3-.3.5-.5.5z" class="st2"/><path d="M9.3 17.9v14.9l1-.4V17.5l-1 .4zm0 0v14.9l1-.4V17.5l-1 .4zm31-9H9.8c-.3 0-.5.2-.5.5V38c0 .3.2.5.5.5h30.4c.3 0 .5-.2.5-.5V9.4c.1-.3-.2-.5-.4-.5zm-.6 28.6H10.3V9.9h29.4v27.6zM9.3 17.9v14.9l1-.4V17.5l-1 .4zM34.1 6.3c0-.3.2-.5.5-.5s.5.2.5.5-.2.5-.5.5-.5-.2-.5-.5zm3.2 0c0-.3.2-.5.5-.5s.5.2.5.5-.2.5-.5.5-.5-.2-.5-.5zm-6.5 0c0-.3.2-.5.5-.5s.5.2.5.5-.2.5-.5.5-.5-.2-.5-.5z" class="st2"/><path d="M30.8 18.7h-6.4c-.3 0-.5-.2-.5-.5s.2-.5.5-.5h6.4c.3 0 .5.2.5.5s-.2.5-.5.5zm4-3h-5.2c-.3 0-.5-.2-.5-.5s.2-.5.5-.5h5.2c.3 0 .5.2.5.5s-.3.5-.5.5zm-7.8 0h-2.6c-.3 0-.5-.2-.5-.5s.2-.5.5-.5H27c.3 0 .5.2.5.5s-.3.5-.5.5zm7.8 13.4h-5.9c-.3 0-.5-.2-.5-.5s.2-.5.5-.5h5.9c.3 0 .5.2.5.5s-.3.5-.5.5zm0-3h-3.2c-.3 0-.5-.2-.5-.5s.2-.5.5-.5h3.2c.3 0 .5.2.5.5s-.3.5-.5.5zm-5.9 0h-4.6c-.3 0-.5-.2-.5-.5s.2-.5.5-.5h4.6c.3 0 .5.2.5.5s-.2.5-.5.5zm-7.6-12.3c-.1-.1-.1-.2-.2-.2-.1-.2-.3-.3-.5-.4-.2-.2-.5-.2-.8-.2h-3.9c-.6 0-1.2.3-1.5.8-.2.3-.3.6-.3 1v3.9c0 1 .8 1.8 1.8 1.8h3.9c1 0 1.8-.8 1.8-1.8v-3.9c0-.4-.1-.7-.3-1zm-.7 4.9c0 .4-.4.8-.8.8h-3.9c-.5 0-.8-.4-.8-.8v-3.9c0-.4.4-.8.8-.8H20c.4.1.6.4.6.8v3.9zm-.8 4.7h-3.9c-1 0-1.8.8-1.8 1.8v3.9c0 .7.4 1.3 1.1 1.6.2.1.5.2.7.2h4.2l-.3-.9h-3.9c-.5 0-.8-.4-.8-.8v-3.9c0-.4.4-.8.8-.8h3.9c.4 0 .8.4.8.8V29l1 .3v-4c0-1.1-.8-1.9-1.8-1.9z" class="st2"/><path d="M29 31.2l-6.7-2.3c-1-.3-2.1-.7-3.1-1-.1-.1-.3 0-.4.1-.1.1-.1.2-.1.4.2.6.3 1.2.5 1.8l.2.4.3.9 2.2 6.3.2.6h.7l.3-.7 1.6-3.7 4.3-1.9s.1 0 .1-.1c.2-.2.2-.4.2-.4-.1-.3-.3-.4-.3-.4zm-4.8 2s-.1 0-.1.1c0 0 0 .1-.1.1-.5 1.1-1 2.2-1.5 3.4l-1.9-5.5c-.3-.7-.6-1.5-.8-2.2.4.1.7.2 1.1.4.4.1.7.2 1.1.4l5.6 2-3.4 1.3z" class="st2"/><path d="M38.7 3.7c.6 0 1.1.5 1.1 1.1v8h4.1c1.3 0 2.4 1.1 2.4 2.4V40c0 1.3-1.1 2.4-2.4 2.4H34v2.9h4c.3 0 .5.2.5.5s-.2.5-.5.5H12c-.3 0-.5-.2-.5-.5s.2-.5.5-.5h4.1v-2.9h-10c-1.3 0-2.4-1.1-2.4-2.4V15.2c0-1.3 1.1-2.4 2.4-2.4h4.1v-8c0-.6.5-1.1 1.1-1.1h27.4m0-2.5H11.3c-2 0-3.6 1.6-3.6 3.6v5.5H6.1c-2.7 0-4.9 2.2-4.9 4.9V40c0 2.7 2.2 4.9 4.9 4.9h3c0 .3-.1.6-.1.9 0 1.6 1.3 3 3 3h26c1.6 0 3-1.3 3-3 0-.3-.1-.6-.1-.9h3c2.7 0 4.9-2.2 4.9-4.9V15.2c0-2.7-2.2-4.9-4.9-4.9h-1.6V4.8c0-2-1.6-3.6-3.6-3.6z" class="st2"/></svg>