<svg xmlns="http://www.w3.org/2000/svg" id="Layer_1" x="0" y="0" version="1.1" viewBox="0 0 50 50" xml:space="preserve"><style>.st2{fill:#031326}</style><path fill="#00c8e2" d="M42.4 12.2l-3.9 4.6 4 6.3-30.8 24.8-9.9.1-.1-11.5L4.3 34 3 28.1l36.5-26 2 .9z"/><path fill="#00dffc" d="M40.7 2.2l-38 28.7-1.6-7.7 1.1-4.4 2.7-2.9-2.5-1.8V2.6z"/><path d="M35.6 8.9h-3.1c-.3 0-.5-.2-.5-.5s.2-.5.5-.5h3.1c.3 0 .5.2.5.5s-.2.5-.5.5z" class="st2"/><path d="M43.1 12.6V4.2c0-1.8-1.5-3.2-3.2-3.2H3.4C1.6 1 .2 2.5.2 4.2v8.5c0 1.7 1.4 3.2 3.1 3.2v1.7c-1.7.1-3.1 1.5-3.1 3.3v8.3c0 1.8 1.4 3.2 3.1 3.3v1.7c-1.7.1-3.1 1.5-3.1 3.3v8.3c0 1.8 1.5 3.3 3.3 3.3h8.2c.7 0 1.2-.6 1.2-1.2s-.6-1.2-1.2-1.2H3.5c-.5 0-.8-.4-.8-.8v-8.3c0-.5.4-.8.8-.8h10.3c.7 0 1.2-.6 1.2-1.2s-.6-1.2-1.2-1.2h-8v-1.7H19c.7 0 1.2-.6 1.2-1.2S19.6 30 19 30H3.5c-.5 0-.8-.4-.8-.8v-8.3c0-.5.3-.9.8-.9h36.3c.5 0 .8.4.8.8v7.3c0 .7.6 1.2 1.2 1.2s1.2-.6 1.2-1.2v-7.3c0-1.8-1.4-3.2-3.1-3.3v-1.7c1.8 0 3.2-1.4 3.2-3.2zm-5.6 4.9H5.8v-1.6h31.7v1.6zm2.4-4.1H3.4c-.4 0-.8-.3-.8-.8V4.2c0-.4.3-.8.8-.8h36.5c.4 0 .8.3.8.8v8.5c-.1.3-.4.7-.8.7z" class="st2"/><path d="M49.8 43.1c0 3-2.3 5.4-5.2 5.4h-9.4c-.3 0-.5-.2-.5-.5s.2-.5.5-.5h9.4c2.3 0 4.2-2 4.2-4.4 0-1.9-1.1-3.8-2.5-4.4-.2-.1-.3-.3-.3-.5 0-3.5-2.7-6.3-6.1-6.3-1.8 0-3.5.8-4.7 2.3-.2.2-.5.2-.7.1-.2-.2-.2-.5-.1-.7.5-.6 1.1-1.2 1.8-1.6-1.4-1.7-3.4-2.6-5.6-2.6-3.6 0-6.7 2.7-7.2 6.4 1 .4 2 1.1 2.7 2 .2.2.1.5-.1.7-.2.2-.5.1-.7-.1-.7-.8-1.5-1.5-2.5-1.8a5.59 5.59 0 00-7.4 5.3c0 3.1 2.5 5.6 5.6 5.6.3 0 .5.2.5.5s-.2.5-.5.5c-3.6 0-6.6-3-6.6-6.6 0-3.6 2.9-6.6 6.6-6.6.5 0 1 .1 1.5.2.7-4.1 4.1-7.1 8.2-7.1 2.5 0 4.8 1.1 6.4 3l.1.1c.9-.4 1.8-.6 2.8-.6 3.8 0 6.9 3.1 7.1 7 1.6.9 2.7 3 2.7 5.2z" class="st2"/></svg>