<svg xmlns="http://www.w3.org/2000/svg" id="Layer_1" x="0" y="0" version="1.1" viewBox="0 0 50 50" xml:space="preserve"><style>.st3{fill:none;stroke:#444;stroke-width:2.5;stroke-linecap:round;stroke-linejoin:round;stroke-miterlimit:10}</style><path fill="#afe55d" d="M48.4 26l.4 4.3-47 17.2.1-9.1.4-5.4L49 15.9l-.6 3.8z"/><path fill="#c3ff68" d="M48.4 9.1l-.6 7.8L1.9 33.8V23.7l.3-4.5L48.5 2.4z"/><path fill="#444" d="M36.9 49.4H1.8c-.7 0-1.2-.6-1.2-1.2V1.8c0-.7.6-1.2 1.2-1.2h46.5c.7 0 1.2.6 1.2 1.2V37c0 .7-.6 1.2-1.2 1.2S47 37.8 47 37V3.1H3v43.7h33.9c.7 0 1.2.6 1.2 1.2s-.6 1.4-1.2 1.4z"/><path d="M36.2 36.7l-5.3-5.4" class="st3"/><circle cx="24.1" cy="23.6" r="10.3" class="st3"/><path d="M28.6 25.2v3.2m-9.1-5.2v5.2m4.6-8.5v10.4" class="st3"/></svg>