<svg xmlns="http://www.w3.org/2000/svg" id="Camada_3" x="0" y="0" version="1.1" viewBox="0 0 50 50" xml:space="preserve"><style>.st4{fill:none;stroke:#444;stroke-linecap:round;stroke-miterlimit:10;stroke-width:.25}</style><path fill="#c2d45a" d="M13.2 22.2l4.7-13.7 2.5-6.3h19.2l2.7 2.4.1 5.2 2 1.2"/><path fill="#b0cd5f" d="M45.7 15.6l-.4 9.3-40 14.5 7.2-6.2-.2-9.2c.1-.9 3.3-7.2 4.2-7.6L43.3 7v4l2.4 4.6z"/><path fill="#444" d="M44 25.4c1.6-1 2.2-3.1 1.4-4.9-.3-.7-.9-1.3-1.5-1.7 1.6-.9 2.3-3.1 1.4-4.9-.6-1.3-1.8-2.1-3.1-2.1V6.2c0-2.2-1.7-4-3.7-4H22.7c-2 0-3.7 1.8-3.7 4v3.6c-.7-.1-1.3-.1-1.8-.1-.3 0-.6.3-.6.7 0 0-.1 1.4-.4 3.5-.1.5-.5 2.1-2.5 6.9-1 2.4-1.5 5-1.5 7.7v3.4c0 .6-.2 1.2-.5 1.8l-.1.2c.2.6.4 1.1.6 1.7l.7-1c.5-.8.8-1.7.8-2.7v-3.4c0-2.5.5-4.8 1.4-7.1 1.6-3.8 2.5-6.3 2.6-7.3.2-1.3.3-2.3.4-2.9.8 0 2 .2 2.4 1.4.5 2.1.2 4.7 0 6.8v.4c-.5 4.4-.6 5.5-.7 5.8-.1.3-.1.6.1.9l.1.1s2.1 2.1 3.5 7.2c1 3.5-1 8.1-1 8.1-.2.4 0 .8.3 1 .1.1.2.1.3.1.3 0 .5-.2.6-.4 0 0 .1-.2.2-.5h12.8L32.5 45c-1.7 1.2-3.7 1.7-5.7 1.4l-1.3-.2c-.2 0-.4 0-.5.2l-1 .9c.3.4.6.8.9 1.1l.7-.7 1 .1c2.3.3 4.6-.3 6.6-1.7l6.1-4.3c1.6-.3 2.9-1.7 3.1-3.5l.9-.5c1.5-.8 2.1-2.8 1.4-4.5-.3-.6-.7-1.1-1.3-1.4l.6-.3c.8-.4 1.4-1.2 1.7-2.1.3-.9.2-1.9-.2-2.8-.5-.5-.9-1-1.5-1.3zm-1.7-12.1c.8 0 1.5.4 1.9 1.2.5 1.1.1 2.4-.9 2.9l-1 .5v-4.6zm-.8 6.8c.3-.2.6-.2.9-.2.2 0 .4 0 .6.1.5.2.9.6 1.2 1.1.5 1.1.1 2.4-.9 2.9l-1.2.6c-1 .5-2.2.1-2.7-1s-.1-2.4.9-2.9l1.2-.6zM24.2 3.7h12.9m1.4 0h.1c1.3 0 2.3 1.1 2.3 2.5v12.5l-1.2.6c-1.7.9-2.4 3.2-1.5 5 .3.7.8 1.2 1.3 1.5-1.6 1-2.2 3.1-1.4 4.9.3.7.9 1.3 1.6 1.7l-.4.2c-1.5.8-2.1 2.8-1.4 4.5.5 1.2 1.6 1.8 2.7 1.8-.3.9-1.2 1.6-2.1 1.6H24.2c.5-1.8 1.1-4.7.4-7.2-1.2-4.3-2.9-6.7-3.6-7.5v-.3c.1-.4.1-.9.2-1.6.1-1 .3-2.3.4-4v-.4c.2-2.2.5-5-.1-7.4-.2-.9-.7-1.5-1.2-1.9v-4c0-1.4 1-2.5 2.3-2.5h.1m20.5 30.6c.4.9.1 2-.7 2.4l-1.1.6c-.8.4-1.8.1-2.2-.8-.4-.9-.1-2 .7-2.4l1.1-.6c.2-.1.5-.2.7-.2.2 0 .4 0 .5.1.5.2.8.5 1 .9zm1-5.1c-.2.6-.5 1-1 1.3l-1.2.7c-.5.3-1 .3-1.5.1-.5-.2-.9-.6-1.2-1.1-.5-1.1-.1-2.4.9-2.9l1.2-.6c.3-.2.6-.2.9-.2.7 0 1.4.4 1.8 1.2.2.4.3 1 .1 1.5z"/><path fill="none" stroke="#444" stroke-linecap="round" stroke-linejoin="round" stroke-miterlimit="10" stroke-width="2.5" d="M12.4 49l-8.1-7.9 5.4-5.6.3.7 2.6-2.9s-.9-2.7-.6-7.7c.2-3 4.3-9.9 4.4-13 0 0-.4-3.2 2.6-2.8M23 49l2.1-1.8s3.6 1.3 7.5-1.4c3.8-2.7 6.1-3.4 6.1-3.4s2.9.1 4-3.7c0 0 4.9-2.4 1-6.4 1.9-1.4 3.4-3.6.7-6.6 0 0 3.6-4.1-.5-6.9 0 0 2.4-1.1 1.9-3.9-.5-3.2-3.4-3.5-3.4-3.5v-6s-.1-3.6-4.8-3.4c-3.8.2-11.5.1-14.4 0-1.2 0-2.4.4-3.2 1.3-.5.6-1 1.5-1 2.7v3.5"/><path d="M8.7 35.6l10.1 10.1" class="st4"/><path fill="none" stroke="#444" stroke-miterlimit="10" stroke-width=".25" d="M22.5 3.5s.2 2.3 2.4 2.3h11.5s1.9.2 2.1-2.3"/><path d="M28.2 38.9h5s.6 0 .6-.8c0-.7-.6-.7-.6-.7h-5s-.6 0-.6.7c0 .8.6.8.6.8z" class="st4"/><path fill="none" stroke="#444" stroke-linecap="round" stroke-linejoin="round" stroke-miterlimit="10" stroke-width=".25" d="M27.7 22.8c-.1.3-.4.7-.6.9-.3.3-.6.5-.9.6-.3.1-.7.2-1.1.2-.4 0-.8-.1-1.1-.2-.3-.1-.7-.4-.9-.6-.3-.3-.5-.6-.6-.9-.1-.3-.2-.7-.2-1.1 0-.4.1-.8.2-1.1.1-.3.4-.6.6-.9.3-.3.6-.5.9-.6.3-.1.7-.2 1.1-.2.4 0 .8.1 1.1.2.3.1.6.4.9.6.3.3.5.6.6.9.1.3.2.7.2 1.1 0 .4-.1.8-.2 1.1zm2.9-5.1h0l-.4.6-1.4 2.4-1.1 1.9h0c.1-.3.2-.6.2-.9 0-.3 0-.6-.1-.8v-.1 0s0-.1-.1-.1c-.1-.3-.4-.6-.6-.9-.2-.2-.4-.4-.7-.5 0 0 0 0 0 0-.1 0-.2-.1-.2-.1-.4-.2-.7-.2-1.1-.2-.4 0-.8.1-1.1.2-.3.1-.5.2-.7.4-.1.1-.3.2-.4.3L24 18l2.8-4.8 1.2-1.8c-.1.4-.1.7-.1 1.1 0 .4.2.7.4 1.1l2.3 4.1h0zm8.3 4.8c-.1.3-.3.7-.5 1-.2.3-.5.5-.8.7-.3.2-.7.3-1.1.4-.4 0-.7 0-1.1-.1-.3-.1-.7-.3-1-.5-.3-.2-.5-.5-.7-.8l-1.4-2.4-1.3-2.5-2.8-4.8c-.2-.3-.3-.7-.4-1.1 0-.4 0-.7.1-1.1.1-.4.3-.7.5-1 .2-.3.5-.5.8-.7.3-.2.7-.3 1.1-.4.4 0 .7 0 1.1.1.4.1.7.3 1 .5.3.2.5.5.7.8l1.4 2.4 1.4 2.4 1.4 2.4 1.4 2.4c.2.3.3.7.4 1.1 0 .5-.1.8-.2 1.2z"/></svg>