<svg xmlns="http://www.w3.org/2000/svg" version="1" viewBox="0 0 50 50"><path fill="#00C8E2" d="M7.025 47L47 32.45V6.931L43.07 3H6.931L3 6.931V43.07L6.931 47z"/><path fill="#00DFFC" d="M31.41 3H6.931L3 6.931v6.409z"/><path fill="#031326" d="M43.718 43.279H7.159V6.721h36.559v36.558zm-35.559-1h34.559V7.721H8.159v34.558z"/><path fill="#031326" d="M43.069 48.25H6.414L1.75 43.587V6.414L6.414 1.75h37.173l4.663 4.664v26.04a1.25 1.25 0 01-2.5 0V7.449L42.552 4.25H7.449L4.25 7.449v35.103l3.199 3.198H43.07a1.25 1.25 0 11-.001 2.5z"/><path fill="#031326" d="M35.779 16.516a2.67 2.67 0 00-2.465 3.695l-2.789 1.838a2.658 2.658 0 00-1.912-.812 2.67 2.67 0 00-2.67 2.67c0 .589.196 1.128.519 1.569l-3.44 3.643a2.652 2.652 0 00-1.433-.424c-.615 0-1.174.216-1.626.566l-1.914-1.692c.237-.399.382-.858.382-1.356a2.67 2.67 0 10-2.67 2.67c.615 0 1.174-.216 1.626-.566l1.914 1.692a2.642 2.642 0 00-.382 1.356 2.67 2.67 0 105.34 0c0-.585-.194-1.122-.513-1.562l3.437-3.649c.414.264.903.422 1.43.422a2.67 2.67 0 002.465-3.695l2.789-1.838a2.659 2.659 0 001.913.812 2.67 2.67 0 10-.001-5.339z"/></svg>