<svg xmlns="http://www.w3.org/2000/svg" id="Camada_3" x="0" y="0" version="1.1" viewBox="0 0 50 50" xml:space="preserve"><style>.st2{fill:none;stroke:#444;stroke-width:2.5;stroke-linecap:round;stroke-linejoin:round;stroke-miterlimit:10}</style><path fill="#f799ff" d="M45.96 10.63l.54 5.17L2.66 31.75l.01-9.47 2.42-6.4L15.46 12l11.64-.2-3.99 8.08 4.19-.51 2.23-6.71L34.08 7z"/><path fill="#e589ef" d="M47.71 24.5l-.47 4.15-6.52 4-27.95 9.94-8.63-3.7-1.54-2.72.31-8.6 20.29-7.22.44 1.53 3.84-.85 1.29-2.66 16.76-5.97-.24-.58L48.22 14z"/><path d="M48 14v16l-6 1m6-17.06c-.92-1.61-2.69-3.14-5.36-4.4-2.67-1.26-5.88-2.11-9.28-2.54L28 16.48M2.49 20.39c.64 2.31 2.16 4.36 5.39 5.85 7.81 3.6 20.47 3.6 28.28 0 2.25-1.04 4.6-3.23 5.55-4.54" class="st2"/><path d="M42 21.94c0-1.42-.05-2.56-.73-3.69l-19.29 2.38 5.13-8.83c-6.65-.8-14.02-.01-19.23 2.39C4.17 15.9 2.19 18.5 2 20.74m30.76 21.8C29.65 43.47 25.96 44 22 44c-11.05 0-20-4.15-20-9.28V21m40 0v13.72M28 19.88v-3.4" class="st2"/><path fill="none" stroke="#444" stroke-linecap="round" stroke-linejoin="round" stroke-miterlimit="10" stroke-width=".5" d="M21.98 20.63L8.94 15.07M22.8 28.94l-.82-8.31-13.85 5.08m20.25-9.23L47.71 14"/><path fill="none" stroke="#444" stroke-linecap="round" stroke-linejoin="round" stroke-miterlimit="10" stroke-width="1.5" d="M4.64 39.33l7.63-3.32L24 38.89l10.08-6.39h-4.51m2.95 4.09l1.56-4.09"/></svg>