<svg xmlns="http://www.w3.org/2000/svg" id="Layer_1" x="0" y="0" version="1.1" viewBox="0 0 50 50" xml:space="preserve"><style>.st2{fill:none;stroke:#494949;stroke-width:.25;stroke-linecap:round;stroke-linejoin:round;stroke-miterlimit:10}.st3{fill:#494949}.st4,.st5{fill:none;stroke:#494949;stroke-linecap:round;stroke-linejoin:round;stroke-miterlimit:10}.st5{stroke-width:.5}</style><path fill="#dc5e82" d="M47.7 7.4v14.9l-1.3.4L3.6 38.4l-1.3.5V24l1.3-.4L46.4 7.9z"/><path fill="#f56991" d="M47.7 7.4V8l-1.3.5L3.6 24.1l-1.3.5V24l1.3-.5V17h16.7V5.8h26v2.1l1.4-.5z"/><path d="M35.3 13.1H22.4M35.3 15H22.4m12.9 1.8h-5.5m5.5 1.8h-5.5m5.5 1.8h-5.5m5.5 1.8h-5.5m5.5 1.9h-5.5m5.5 3.6h-5.5m5.5-1.8h-5.5" class="st2"/><path d="M13.9 26.2l2.8 1.6-3.7 6.5-2.8-1.6 3.7-6.5m-.2-.7l-4.3 7.4 3.7 2.1 4.3-7.4-3.7-2.1z" class="st3"/><path d="M21.7 32.8l-4.3-7.4c-.5-1-1.8-1.4-2.9-.9s-1.4 1.8-.9 2.9c0 0 0 .1.1.1l4.3 7.4c.6 1 1.9 1.4 2.9.8 1-.5 1.4-1.8.8-2.9z" class="st3"/><circle cx="11.3" cy="33.9" r="2.1" class="st3"/><path d="M19.6 14.7V5.1h27.6v25.1H31.4" class="st4"/><path d="M2.9 16.6h27v22.3h-27zM23.1 8H25m1.9 0h2m1.9 0h1.9m-12.5 2.9h27M2.9 22.5h26.9M5.7 19.6h2m1.9 0h1.9m2 0h1.9" class="st4"/><path d="M46.4 5.8V30l-6.5 1.9v13H13.8v-6.5H3.6V17h16.7V5.8h26.1m0-2.5h-26c-1.4 0-2.5 1.1-2.5 2.5v8.7H3.6c-1.4 0-2.5 1.1-2.5 2.5v21.4c0 1.4 1.1 2.5 2.5 2.5h7.7v4c0 .7.3 1.3.7 1.8.5.5 1.1.7 1.8.7h26.1c1.4 0 2.5-1.1 2.5-2.5V33.7l4.7-1.3c1.1-.3 1.8-1.3 1.8-2.4V5.8c0-1.4-1.1-2.5-2.5-2.5z" class="st3"/><path d="M37.5 13.1h7.3v3.8h-7.3z" class="st5"/><path d="M37.5 18.5h7.3v3.8h-7.3zm0 5.4h7.3v3.8h-7.3zm-5 8.2h5.6v5.3h-5.6z" class="st2"/><path d="M15.7 38.9h22.4v3.8H15.7z" class="st5"/></svg>