<svg xmlns="http://www.w3.org/2000/svg" id="Layer_1" x="0" y="0" version="1.1" viewBox="0 0 50 50" xml:space="preserve"><style>.st2{fill:#031326}</style><path fill="#e097fb" d="M38.4 6.8c-.8-1.4-2.2-2.2-3.8-2.2h-19c-1.6 0-3 .8-3.8 2.2L3.9 20.5l35-12.8-.5-.9z"/><path fill="#ce87ea" d="M48.1 27.2c.8-1.4.8-3.1 0-4.5l-9-15.6L3.5 20l-1.6 2.7c-.8 1.4-.8 3.1 0 4.5l8.9 15.4 36-13.1 1.3-2.3z"/><path d="M34.5 47.1h-19c-2 0-3.9-1.1-4.9-2.8L1.1 27.8c-1-1.7-1-3.9 0-5.6l9.5-16.4c1-1.7 2.9-2.8 4.9-2.8h19c2 0 3.9 1.1 4.9 2.8l9.5 16.4c1 1.7 1 3.9 0 5.6L46.5 32c-.3.6-1.1.8-1.7.5-.6-.3-.8-1.1-.5-1.7l2.4-4.1c.6-1 .6-2.2 0-3.1L37.2 7c-.6-1-1.6-1.6-2.7-1.6h-19c-1.1 0-2.2.6-2.7 1.6L3.3 23.4c-.6 1-.6 2.2 0 3.1L12.8 43c.6 1 1.6 1.6 2.7 1.6h19c1.1 0 2.2-.6 2.7-1.6.3-.6 1.1-.8 1.7-.5.6.3.8 1.1.5 1.7-1 1.8-2.9 2.9-4.9 2.9z" class="st2"/><path d="M33.4 18.2L26.2 14c-.8-.4-1.7-.4-2.5 0l-7.2 4.2c-.8.4-1.3 1.3-1.3 2.2v8.3c0 .9.5 1.7 1.3 2.2l7.2 4.2c.4.2.8.3 1.2.3.4 0 .9-.1 1.3-.3l7.2-4.2c.8-.4 1.2-1.3 1.2-2.2v-8.3c.1-.9-.4-1.7-1.2-2.2zm-7.9 15.6c-.3.2-.7.2-1 0l-7.1-4.1 3-1.9 4.1 2.7v-5.3L20 22.6v4.2l-3.3 2v-8.4c0-.4.2-.7.5-.9l7.2-4.2v4l-3.9 2.4 4.4 2.5 4.4-2.5-3.9-2.3v-4.1l7.2 4.1c.3.2.5.5.5.9v8.5l-3.2-2-.1-4.2-4.4 2.5v5.3l4.4-2.3 2.6 1.6-6.9 4.1z" class="st2"/></svg>