<svg xmlns="http://www.w3.org/2000/svg" id="Layer_1" x="0" y="0" version="1.1" viewBox="0 0 50 50" xml:space="preserve"><style>.st3{fill:#444}.st4{fill:none;stroke:#494949;stroke-linecap:round;stroke-linejoin:round;stroke-miterlimit:10}</style><path fill="#a475ef" d="M47.7 11.6l.8 5.2L2.4 33.6l-.5-10.9-.1-6.2L42.1 1.9l5.2 2.3z"/><path fill="#bf94f7" d="M46.1 2l2.3 3.2L1.5 21.9 2.6 4.8l3-2.9 29.1-.2z"/><path fill="none" stroke="#444" stroke-linecap="round" stroke-linejoin="round" stroke-miterlimit="10" stroke-width="2.5" d="M18.1 48.3H5.5c-1.9 0-3.4-1.6-3.4-3.5v-39c0-2 1.5-3.5 3.4-3.5h39c1.9 0 3.4 1.6 3.4 3.5v24.6"/><circle cx="8.2" cy="8.2" r="1.4" class="st3"/><circle cx="12.1" cy="8.2" r="1.4" class="st3"/><circle cx="15.9" cy="8.2" r="1.4" class="st3"/><circle cx="28.3" cy="41.7" r="3.8" class="st4"/><path fill="#494949" stroke="#494949" stroke-miterlimit="10" d="M42.7 32.8s0 0 0 0L31.2 44.2c.5-.7.9-1.5.9-2.4 0-1.2-.6-2.3-1.5-3l-2.3-2.4 6.2-6.2-6.2-6.2-2.8-2.7c-1.5-1.5-1.5-4 0-5.5s4-1.5 5.5 0l11.6 11.6c1.6 1.4 1.6 3.9.1 5.4z"/><path d="M30.6 38.7c-.6-.5-1.5-.8-2.3-.8-2.1 0-3.8 1.7-3.8 3.8 0 .9.3 1.7.8 2.3L13.9 32.8c-1.5-1.5-1.5-4 0-5.5l11.6-11.6c-1.5 1.5-1.5 4 0 5.5l2.8 2.7-6.2 6.2 6.1 6.2 2.4 2.4z" class="st4"/></svg>