<svg xmlns="http://www.w3.org/2000/svg" id="Layer_1" x="0" y="0" version="1.1" viewBox="0 0 50 50" xml:space="preserve"><style>.st2{fill:#494949}</style><path fill="#afe55d" d="M6.5 38.4l5.7 3.3L45.9 23l-.1-7.3c0-1.6-.9-3.2-2.3-4L27.3 2.3c-1.4-.8-3.2-.8-4.6 0L6.5 11.6c-1.4.8-2.3 2.3-2.3 4v18.8c0 1.6.8 3.1 2.3 4z"/><path fill="#c3ff68" d="M33.9 6.1l-6.6-3.9c-1.4-.8-3.2-.8-4.6 0L6.5 11.6c-1.4.8-2.3 2.3-2.3 4l-.3 7.9 30-17.4z"/><path d="M47.1 25.1v-9.4c0-1.1-.3-2.1-.8-3s-1.2-1.7-2.2-2.2L36 5.8l-8-4.6c-.9-.5-1.9-.8-3-.8-1 0-2.1.2-3 .8l-8.2 4.7-8 4.6c-.8.5-1.6 1.3-2.1 2.2s-.8 1.9-.8 3v18.6c0 1 .3 2 .8 2.9s1.2 1.7 2.2 2.2l16.2 9.4c.9.5 1.9.8 2.9.8s2-.3 2.9-.8l4.5-2.6.1-.1 11.6-6.6c1.8-1 2.9-3 2.9-5v-5.1c0-1.4.1-2.9.1-4.3zm-4.2 12.3L31 44.2l-.1.1-4.2 2.4c-1 .6-2.3.6-3.4 0l-11.8-6.8-.1-.1L7 37.2c-.5-.3-.9-.7-1.2-1.2-.3-.5-.4-1.1-.4-1.6V15.5c0-.6.2-1.1.4-1.6.3-.5.7-.9 1.2-1.2L15.3 8l8.1-4.7c.5-.3 1.1-.4 1.6-.4.6 0 1.1.2 1.6.4L35 8.1l8 4.7c.5.3.9.7 1.2 1.2s.4 1.1.4 1.6v18.8c0 1.3-.7 2.4-1.7 3z" class="st2"/><path d="M25 24.4l9.7-4.9-9.4-4.7c-.2-.1-.4-.1-.6 0l-9.4 4.7 9.7 4.9zm.7 1.3v11.8l9.3-4.7c.2-.1.4-.4.4-.6V20.8l-9.7 4.9zm-1.4 0l-9.7-4.9v11.4c0 .3.1.5.4.6l9.3 4.7V25.7z" class="st2"/><path d="M25 20.1c-.3 0-.5-.2-.5-.5v-18c0-.3.2-.5.5-.5s.5.2.5.5v18c0 .3-.2.5-.5.5zM5 37.5c-.2 0-.4-.1-.5-.3s0-.5.2-.7L21 28.7c.2-.1.5 0 .7.2.1.2 0 .5-.2.7L5.2 37.5H5zm40.2.4c-.1 0-.2 0-.2-.1l-15.4-7.9c-.2-.1-.3-.4-.2-.7.1-.2.4-.3.7-.2l15.4 8c.2.1.3.4.2.7-.1.1-.3.2-.5.2z" class="st2"/></svg>