<svg xmlns="http://www.w3.org/2000/svg" viewBox="0 0 50 50"><path fill="#e56060" d="M40.2 33.5l-16.8 6.2-5.4 2-4.3 1.6-10.6 3.9 12.1-25.3L24.7 2l4.4 9 1.8 3.7.6 1.1 1.7 3.4z"/><path fill="#ff6b6b" d="M30.9 14.7l.6 1.1-1.4.5-4.3 1.6-10.6 4L24.7 2l4.4 9z"/><path fill="#031326" d="M48.4 47.4l-22.6-46c-.2-.4-.6-.7-1.1-.7s-.9.3-1.1.7l-22 46c-.2.4-.2.8.1 1.2.2.3.6.6 1 .6h44.6c.4 0 .8-.2 1-.6.2-.3.3-.8.1-1.2zm-32.1-.6l14.3-29.9 1.2 2.4-13.1 27.5h-2.4zm-3.7 0l16.2-33.9 1.1 2.3-15.1 31.6h-2.2zM24.7 4.7l3.5 7.1-16.7 35H4.6L24.7 4.7zm-3.4 42.1L33.2 22l12.2 24.8H21.3z"/></svg>