<svg xmlns="http://www.w3.org/2000/svg" id="Layer_1" x="0" y="0" version="1.1" viewBox="0 0 50 50" xml:space="preserve"><style>.st2{fill:#031326}</style><path fill="#e589ef" d="M46 13.8l2 4L2.6 34.2l-1.3-8.7-.1-4.4L41.2 7l1.2 2.3z"/><path fill="#f799ff" d="M33.5 3.1l8 4L1 21.7l4.3-10.5 6.2-5.5 9-4.4z"/><path d="M25 49.9C11.3 49.9.2 38.8.2 25.1.2 11.4 11.3.3 25 .3s24.8 11.1 24.8 24.8S38.7 49.9 25 49.9zm0-47.1c-12.3 0-22.3 10-22.3 22.3s10 22.3 22.3 22.3 22.3-10 22.3-22.3S37.3 2.8 25 2.8z" class="st2"/><path d="M25 43.5c-10.2 0-18.4-8.3-18.4-18.4S14.8 6.7 25 6.7 43.4 15 43.4 25.1 35.1 43.5 25 43.5zm0-35.3c-9.3 0-16.9 7.6-16.9 16.9S15.7 42 25 42s16.9-7.6 16.9-16.9S34.3 8.2 25 8.2z" class="st2"/><path d="M31.7 23.5h-.2v-.2c-.6-3-3.3-5.3-6.5-5.3-2.5 0-4.7 1.4-5.9 3.6l-.1.1h-.1c-2.7.3-4.7 2.5-4.7 5.2 0 2.9 2.4 5.3 5.3 5.3h11.9c2.4 0 4.4-2 4.4-4.4-.1-2.2-1.8-4.1-4.1-4.3zm-.3 7.3H19.5c-2.1 0-3.9-1.7-3.9-3.9s1.7-3.9 3.9-3.9c2.1 0 3.7 1.6 3.9 3.6h1.4c-.1-2.3-1.7-4.3-3.9-4.9l-.3-.1.2-.2c1-1.3 2.5-2.1 4.2-2.1 2.9 0 5.2 2.4 5.2 5.2v.2h1.2c1.6 0 2.9 1.3 2.9 2.9 0 1.9-1.3 3.2-2.9 3.2z" class="st2"/></svg>