<svg xmlns="http://www.w3.org/2000/svg" version="1" viewBox="0 0 50 50"><path fill="#A6C1C2" d="M12.241 36.222h.661a13.05 13.05 0 004.268 5.613l30.547-11.118c.101-.472.157-.962.157-1.464a6.965 6.965 0 00-5.032-6.686c.061-.559.099-1.118.099-1.692 0-8.478-6.877-15.347-15.354-15.347-6.778 0-12.521 4.396-14.55 10.499a9.22 9.22 0 00-.796-.039A10.112 10.112 0 002.125 26.105a10.112 10.112 0 0010.116 10.117z"/><path fill="#B9D7D9" d="M37.707 9.353a15.283 15.283 0 00-10.119-3.824c-6.778 0-12.521 4.396-14.55 10.499a9.22 9.22 0 00-.796-.039c-4.12 0-7.655 2.462-9.233 5.993L37.707 9.353z"/><g fill="#031326"><path d="M44.168 21.717c.016-.281.024-.552.024-.818.013-7.603-4.95-14.188-12.315-16.075-8.473-2.17-16.689 2.325-19.699 9.914C5.939 14.772.875 19.858.875 26.105c0 6.213 5.01 11.277 11.203 11.365a14.162 14.162 0 0012.919 8.251c5.045 0 9.584-2.602 12.142-6.797.752-1.234.569-2.825-.421-3.878.413-1.349.602-2.794.515-4.294-.364-6.26-5.614-11.359-11.882-11.537-6.92-.196-12.612 5.376-12.612 12.252 0 1.218.184 2.392.516 3.503h-.702c-4.718 0-8.844-3.552-9.159-8.259-.346-5.163 3.756-9.473 8.846-9.473.233 0 .459.015.693.034l.98.082.179-.539c1.849-5.566 6.816-9.68 12.672-10.014 8.149-.465 14.928 6.028 14.928 14.073 0 .48-.03.99-.092 1.558l-.112 1.045.895.258c2.404.692 4.168 2.833 4.239 5.334.008.276-.002.547-.031.812a1.249 1.249 0 001.106 1.378c.69.087 1.304-.42 1.378-1.106.032-.296.049-.596.049-.9.001-3.288-1.992-6.253-4.956-7.536zm-19.171-2.006c6.483 0 11.757 5.274 11.757 11.757 0 1.513-.297 2.956-.82 4.286l-.006.009c-.103.261-.216.516-.335.766l-.06.125a12.35 12.35 0 01-.352.665c-.058.101-.12.199-.181.298-.102.168-.204.337-.314.498-.188.273-.385.539-.594.794-.032.04-.068.077-.101.117-.207.246-.422.484-.648.712l-.078.078a11.863 11.863 0 01-2.654 1.98l-.039.021c-.302.164-.614.312-.931.449-.039.017-.077.035-.116.051-.645.27-1.32.48-2.017.633-.133.029-.268.052-.403.077a11.17 11.17 0 01-.613.094c-.16.02-.319.041-.48.054-.212.018-.426.026-.641.032-.125.004-.248.014-.373.014-.127 0-.251-.01-.377-.014a12.14 12.14 0 01-.636-.032c-.163-.014-.323-.035-.484-.055a10.917 10.917 0 01-.606-.093c-.137-.025-.274-.049-.409-.078a11.578 11.578 0 01-2.011-.631l-.127-.056c-.313-.135-.62-.282-.919-.443l-.05-.026a11.825 11.825 0 01-2.644-1.972l-.088-.088a11.596 11.596 0 01-.633-.697c-.037-.044-.077-.086-.113-.132a11.901 11.901 0 01-.588-.786c-.116-.17-.223-.348-.331-.525-.055-.089-.111-.178-.164-.269a11.332 11.332 0 01-.361-.682l-.05-.103a12.002 12.002 0 01-.34-.777l-.031-.075a11.674 11.674 0 01-.796-4.22c-.001-6.481 5.274-11.756 11.757-11.756z"/><path d="M24.997 41.419c5.487 0 9.951-4.464 9.951-9.95s-4.464-9.95-9.951-9.95c-5.486 0-9.95 4.464-9.95 9.95s4.463 9.95 9.95 9.95zm0-19.65c5.349 0 9.701 4.352 9.701 9.7s-4.352 9.7-9.701 9.7-9.7-4.352-9.7-9.7 4.351-9.7 9.7-9.7z"/><path d="M22.188 36.67c.957.511 2.033.766 3.231.766.836 0 1.665-.126 2.49-.378a7.007 7.007 0 002.176-1.088v-5.256l-5.387.001v2.442h2.946v1.511c-.616.33-1.308.495-2.077.495-.726 0-1.371-.157-1.937-.47a3.386 3.386 0 01-1.327-1.311c-.319-.561-.479-1.198-.479-1.913 0-.724.16-1.368.479-1.928a3.303 3.303 0 011.335-1.303c.572-.307 1.225-.462 1.961-.462 1.166 0 2.16.433 2.985 1.301l1.713-1.582a5.446 5.446 0 00-2.077-1.484c-.824-.341-1.741-.511-2.753-.511-1.209 0-2.297.255-3.264.766a5.69 5.69 0 00-2.267 2.126c-.543.907-.816 1.932-.816 3.075s.272 2.168.816 3.075a5.712 5.712 0 002.252 2.128z"/></g></svg>