<svg xmlns="http://www.w3.org/2000/svg" id="Layer_1" x="0" y="0" version="1.1" viewBox="0 0 50 50" xml:space="preserve"><style>.st2{fill:#031326}</style><path fill="#00c8e2" d="M48.9 26.5L10.1 40.6l-3.7-1.8-3.6-3.6-2-7.8 2.3-6.3L34.9 9.5l3.1 4.9 1.2 3.7 6.2 2.7z"/><path fill="#00dffc" d="M38.4 13.7l-.1 1.8-.4.2L1.6 28.8l-.7.2-.5-.6v-.2c0-6.5 4.8-12.1 11.2-13 2.1-5.8 7.6-9.7 13.8-9.7 5.6.1 10.6 3.4 13 8.2z"/><path d="M39.9 17.6c-.3-1.4-.7-2.7-1.3-3.9-2.5-5-7.7-8.2-13.2-8.2-6.2 0-11.8 3.9-13.9 9.7C5 16.2.2 21.8.2 28.3v.2c.1 5.8 4 11 9.6 12.7h.2c.4 0 .7-.2.8-.6.1-.2 0-.4-.1-.6-.1-.2-.3-.3-.5-.4-4.8-1.4-8.2-5.7-8.4-10.8v-.5c0-5.9 4.4-11 10.3-11.7h.1s.1 0 .2-.1c0 0 .1 0 .1-.1l.1-.1c0-.1.1-.1.1-.2V16c1.8-5.4 6.9-9 12.6-9 5.5 0 10.5 3.5 12.4 8.7.3.9.6 1.8.7 2.7v.2c0 .1.1.1.1.2l.1.1.1.1.2.1h.2c5.2.7 9.1 5.2 9.1 10.5 0 5-3.5 9.3-8.3 10.4-.2 0-.4.2-.5.3-.1.2-.2.4-.1.6.1.4.4.6.8.6h.2c5.6-1.2 9.6-6.2 9.6-12-.1-5.8-4.2-10.8-10-11.9z" class="st2"/><path d="M18 32.3h2.1c.3 0 .6-.3.6-.6s-.3-.6-.6-.6H18c-.3 0-.6.3-.6.6s.3.6.6.6zm8.2 0H32c.3 0 .6-.3.6-.6s-.3-.6-.6-.6h-5.8c-.3 0-.6.3-.6.6s.3.6.6.6zM18 41.4h2.1c.3 0 .6-.3.6-.6s-.3-.6-.6-.6H18c-.3 0-.6.3-.6.6 0 .4.3.6.6.6zm8.2 0H32c.3 0 .6-.3.6-.6s-.3-.6-.6-.6h-5.8c-.3 0-.6.3-.6.6 0 .4.3.6.6.6z" class="st2"/><path d="M35.7 26.3H14.3c-.4 0-.8.3-.8.8V45c0 .4.3.8.8.8h21.5c.4 0 .8-.3.8-.8V27.1c-.1-.5-.4-.8-.9-.8zm-.7 18H15v-7.5h20v7.5zm0-9H15v-7.5h20v7.5z" class="st2"/></svg>