<svg xmlns="http://www.w3.org/2000/svg" id="Layer_1" x="0" y="0" version="1.1" viewBox="0 0 50 50" xml:space="preserve"><style>.st2{fill:#031326}</style><path fill="#00c8e2" d="M47.5 27.4c.9-1.5.9-3.3 0-4.8l-5.3-9.3L2.7 27.7 11.5 43l34.2-12.5 1.8-3.1z"/><path fill="#00dffc" d="M38.4 6.7c-.9-1.5-2.5-2.4-4.2-2.4H15.9c-1.7 0-3.3.9-4.2 2.4L2.5 22.6c-.9 1.5-.9 3.3 0 4.8l.2.3 39.5-14.4-3.8-6.6z"/><path d="M25 47h-9.2c-2.2 0-4.2-1.2-5.3-3L1.4 28a6.05 6.05 0 010-6.1L10.6 6c1.1-1.9 3.1-3 5.3-3h18.3c2.2 0 4.2 1.2 5.3 3l9.1 16c1.1 1.9 1.1 4.2 0 6.1L45.8 33c-.3.6-1.1.8-1.7.5-.6-.3-.8-1.1-.5-1.7l2.8-4.9c.6-1.1.6-2.5 0-3.6l-9.1-16c-.6-1.1-1.8-1.8-3.1-1.8H15.8c-1.3 0-2.5.7-3.1 1.8L3.6 23.2c-.6 1.1-.6 2.5 0 3.6l9.2 15.9c.6 1.1 1.8 1.8 3.1 1.8H25c.7 0 1.2.6 1.2 1.2S25.7 47 25 47z" class="st2"/><path d="M16.1 25l3.6-6.2h-3L13.2 25l3.5 6.2h3zm17.8 0l-3.6 6.2h3l3.5-6.2-3.5-6.2h-3z" class="st2"/><path d="M19.6 25l.9 1.5h9.2l.9-1.5-.9-1.5h-9.2z" class="st2"/></svg>