<svg xmlns="http://www.w3.org/2000/svg" id="Camada_3" x="0" y="0" version="1.1" viewBox="0 0 50 50" xml:space="preserve"><style>.st4,.st5{fill:none;stroke:#444;stroke-linecap:round;stroke-linejoin:round;stroke-miterlimit:22.9256}.st5{stroke-width:.5}</style><path fill="#f799ff" d="M45.81 2.74H4.09c-1.12 0-2.03.91-2.03 2.03v16.47l45.78-16.3v-.17c0-1.12-.91-2.03-2.03-2.03z"/><path fill="#e589ef" d="M2.06 21.23v24.7l45.78-16.29V4.94z"/><path fill="none" stroke="#444" stroke-linecap="round" stroke-linejoin="round" stroke-miterlimit="10" stroke-width="2.5" d="M25.01 48.14H5.54c-1.87 0-3.39-1.58-3.39-3.54V5.69c0-1.95 1.52-3.54 3.39-3.54h39.01c1.87 0 3.39 1.58 3.39 3.54v25.89"/><path fill="#444" stroke="#444" stroke-linecap="round" stroke-miterlimit="10" d="M15.11 8.64v2.86m-8.92-1.47l.98 2.69m7.94 29.06v-2.86m-8.92 1.47l.98-2.69"/><path d="M18.1 10.56c.8-.38 1.63-.68 2.5-.92l.38-4.13c2.47-.48 5.02-.48 7.5 0l.38 4.13c1.27.35 2.48.85 3.6 1.49l3.19-2.65c.98.66 1.92 1.42 2.8 2.29.95.94 1.79 1.95 2.51 3.01l-2.66 3.19c.64 1.12 1.14 2.33 1.49 3.6l4.13.38c.48 2.47.48 5.02 0 7.5l-4.13.38c-.35 1.27-.85 2.48-1.49 3.6l2.66 3.19c-1.35 2-3.13 3.65-5.13 5.04l-3.23-2.6a15.56 15.56 0 01-3.57 1.55l-.31 4.14c-2.47.52-5.02.56-7.5.12l-.44-4.12" class="st4"/><path d="M33.56 24.55c.02.49 0 .98-.06 1.46l1.99 1.05a10.63 10.63 0 01-1.56 3.76l-2.15-.67c-.43.55-.93 1.06-1.49 1.49l.67 2.15a10.72 10.72 0 01-3.76 1.56l-1.05-1.99c-.71.09-1.42.09-2.11 0L23 35.35" class="st5"/><path d="M33.57 25.31c.02-.49 0-.98-.06-1.46l1.99-1.05a10.63 10.63 0 00-1.56-3.76l-2.15.67c-.43-.55-.93-1.06-1.49-1.49l.67-2.15a10.72 10.72 0 00-3.76-1.56l-1.05 1.99c-.71-.09-1.42-.09-2.11 0L23 14.51c-.68.14-1.36.35-2.03.63m-3.2 1.25a8.12 8.12 0 11-12.82 6.62c0-2.66 1.28-5.02 3.25-6.5" class="st5"/><path d="M2.82 18.24a22.92 22.92 0 0110.15-2.35c3.48 0 6.97.78 10.15 2.35 3.18 1.57 6.06 3.92 8.33 7.06a21.763 21.763 0 01-8.26 6.87c-3.19 1.53-6.7 2.29-10.22 2.29s-7.03-.76-10.22-2.29" class="st4"/><path fill="#444" d="M17.45 21.83c-.48.5-1.15.81-1.89.81-1.45 0-2.62-1.18-2.62-2.62 0-.57.18-1.09.49-1.52-.13-.01-.27-.03-.4-.03-2.53 0-4.59 2.05-4.59 4.59s2.05 4.59 4.59 4.59 4.59-2.05 4.59-4.59c0-.41-.05-.82-.16-1.2 0-.02 0-.02-.01-.03z"/></svg>