<svg xmlns="http://www.w3.org/2000/svg" id="Camada_3" x="0" y="0" version="1.1" viewBox="0 0 50 50" xml:space="preserve"><style>.st2{stroke-width:2.5}.st2,.st3{fill:none;stroke:#444;stroke-linecap:round;stroke-linejoin:round;stroke-miterlimit:10}</style><path fill="#fdcf72" d="M34.03 3.23l-7.78-.67c-3.2 0-14.54.27-21.43 10.21L.81 23.57 41.86 9.13l-7.83-5.9z"/><path fill="#fcc34f" d="M.69 23.44l3.96 13.41c.11.36 4.55 5.65 4.86 5.85l5.62 2.97 32.19-11.74c.65-.37 1.7-8.64.75-13.41-.16-.79-2.69-7.49-3.21-8.1l-3-3.51L.69 23.44z"/><path d="M36.83 45.84c-7.89 4.54-18.06 4.24-25.79-1.58C.68 36.48-1.41 21.78 6.38 11.43" class="st2"/><path d="M6.25 11.6c2.03-2.99 4.73-4.73 4.73-4.73l.66-.54C19.72.64 30.88.51 39.21 6.78c10.36 7.78 12.44 22.48 4.65 32.83" class="st2"/><path d="M32.68 14.84v-1.92c0-1 .69-1.82 1.54-1.82.85 0 1.52.82 1.52 1.82v10.35m-6.13-4.9v-3.8c0-1 .69-1.82 1.54-1.82.85 0 1.53.82 1.53 1.82v8.71m-5.85-1.45v-3.88c0-.91.63-1.65 1.39-1.65.77 0 1.39.74 1.39 1.65v5.11m7.13 16.11c0-3.18 1.87-4.8 3.05-6.71 2.48-4.01 2.21-4.72 3.02-7.16.72-2.15 1.69-4.39.47-4.97-.89-.42-2.37.94-3.4 3.55-.67 1.72-.91 2.31-1.34 3.49-.16.43-.51.76-.95.9-.48.16-1.15.46-1.72.97" class="st3"/><path d="M35.73 15.39c0-1 .7-1.82 1.55-1.82.85 0 1.52.82 1.52 1.82v11.29M16.94 14.84v-1.92c0-1-.69-1.82-1.54-1.82-.85 0-1.52.82-1.52 1.82v10.35" class="st3"/><path d="M20 18.37v-3.8c0-1-.69-1.82-1.54-1.82-.85 0-1.53.82-1.53 1.82v8.71m5.86-1.39v-3.94c0-.91-.63-1.65-1.39-1.65-.77 0-1.39.74-1.39 1.65v5.11m-7.13 16.11c0-3.18-1.87-4.8-3.05-6.71-2.48-4.01-2.21-4.72-3.02-7.16-.72-2.15-1.69-4.39-.47-4.97.89-.42 2.37.94 3.4 3.55.67 1.72.91 2.31 1.34 3.49.16.43.51.76.95.9.47.16 1.12.45 1.68.93" class="st3"/><path d="M13.88 15.39c0-1-.7-1.82-1.55-1.82-.85 0-1.52.82-1.52 1.82v11.29m10.55 6.75l2.8 2.8 4.58-4.58" class="st3"/><path fill="none" stroke="#444" stroke-linecap="round" stroke-linejoin="round" stroke-miterlimit="10" stroke-width=".5" d="M23.97 24.41c-1.21.82-3.57 2.23-5.87 2.65-.68.12-1.22.83-1.22 1.51v7.1c0 1.77.72 3.36 1.93 4.25.97.71 3.95 2.7 5.31 3.6.42.28.96.28 1.38 0 1.36-.9 4.34-2.89 5.31-3.6 1.21-.9 1.93-2.48 1.93-4.25v-7.1c0-.69-.54-1.39-1.22-1.51-2.3-.41-4.66-1.83-5.87-2.65-.52-.34-1.17-.34-1.68 0z"/></svg>