<svg xmlns="http://www.w3.org/2000/svg" id="Camada_3" x="0" y="0" version="1.1" viewBox="0 0 50 50" xml:space="preserve"><style>.st3{stroke-width:.5}.st3,.st5{fill:none;stroke:#444;stroke-linecap:round;stroke-linejoin:round;stroke-miterlimit:10}</style><path fill="#f56991" d="M45.43 2.65H3.71c-1.12 0-2.03.91-2.03 2.03v16.47L47.46 4.86v-.18c0-1.12-.91-2.03-2.03-2.03z"/><path fill="#dc5e82" d="M1.68 21.15v24.69l45.78-16.29V4.86z"/><path fill="none" stroke="#444" stroke-linecap="round" stroke-linejoin="round" stroke-miterlimit="10" stroke-width="2.5" d="M36 48.05H5.16c-1.87 0-3.39-1.58-3.39-3.54V5.6c0-1.95 1.52-3.54 3.39-3.54h39.01c1.87 0 3.39 1.58 3.39 3.54v33.76"/><path d="M10.22 13.13c-2.14.84-3.64 2.81-3.64 5.09h-.11a.49.49 0 00-.49.49v1.04c0 .27.22.49.49.49h12.2c.27 0 .49-.22.49-.49v-1.04a.49.49 0 00-.49-.49h-.12c0-2.26-1.46-4.2-3.56-5.06" class="st3"/><path d="M10.46 13.91v-1.84c0-.24.36-.44.81-.44h2.61c.45 0 .81.2.81.44v1.84" class="st3"/><path fill="none" stroke="#444" stroke-miterlimit="10" d="M17.71 20.24c0 2.84-2.3 5.14-5.14 5.14s-5.14-2.3-5.14-5.14"/><path d="M12.07 36.58H8.01c-1.56 0-2.82-1.26-2.82-2.82v-4.12c0-1.56 1.26-2.82 2.82-2.82h8.74c1.56 0 2.82 1.26 2.82 2.82v1.72" class="st5"/><path d="M17.75 38.06h-3.63c-.58 0-.99-.49-.81-.96l1.91-4.91c.12-.3.44-.5.81-.5h3.63c.58 0 .99.49.81.96l-1.91 4.91c-.12.3-.44.5-.81.5z" class="st3"/><path d="M8.4 30.26v1.24c0 1.15.93 2.08 2.08 2.08h2.79m-5.26 3v11.4m8.37-9.61v9.61m-4.19-6.45v6.45m4.19-17.72v1.09m8.06-9.94l-2.3 8.29c-.11.4-.06.84.15 1.2.24.43.68.73 1.17.79l24.11 3.19M29.69 2.47l-2.47 8.9" class="st5"/><path d="M47.46 6.74L34 4.26m13.81 6.36L41.5 9.8m6.31 18.37s-3.67-4.11-4.32-2.27c-.66 1.83-.82 2.29-1.81 2.16-.98-.13-3.28-2.35-3.28-2.35" class="st3"/><path d="M25.39 16.72l3.4 3.48 5.2 1.97-2-5.18-3.31-3.4z" class="st5"/><path fill="none" stroke="#444" stroke-linecap="round" stroke-linejoin="round" stroke-miterlimit="10" stroke-width="1.5" d="M25 16.96L13.73 5.4c-.61-.6-.61-1.58-.01-2.19l2.41-1.14c1.13-.18 1.34-.19 1.95.41l10.5 10.76L25 16.96z"/><path d="M19.77 4.21l-3.64 3.66m31.33 6.12l-14.01-1.84m14.87 6.5l-8.25-1.08" class="st3"/></svg>