<svg xmlns="http://www.w3.org/2000/svg" id="Camada_3" x="0" y="0" version="1.1" viewBox="0 0 50 50" xml:space="preserve"><style>.st3{fill:none;stroke:#444;stroke-linecap:round;stroke-linejoin:round;stroke-miterlimit:10}</style><path fill="#c3ff68" d="M45.81 2.6H4.09c-1.12 0-2.03.91-2.03 2.03V21.1L47.84 4.8v-.17c0-1.13-.91-2.03-2.03-2.03z"/><path fill="#afe55d" d="M2.06 21.09v24.69L47.84 29.5V4.8z"/><path fill="none" stroke="#444" stroke-linecap="round" stroke-linejoin="round" stroke-miterlimit="10" stroke-width="2.5" d="M47.94 29.79V5.55c0-1.96-1.52-3.54-3.39-3.54H5.54C3.67 2 2.15 3.6 2.15 5.55v38.91c0 1.96 1.52 3.54 3.39 3.54H44.4s3.44 0 3.44-3.42c0-7.93 0 0 0 0"/><circle cx="18.96" cy="28.58" r="3.09" class="st3"/><circle cx="10.14" cy="32.1" r="3.09" class="st3"/><path d="M13.23 46.65l2.06-9.62c.34-1.59 1.47-2.4 3.23-2.73l5.29-.88 5.24-4.73s1.74 2.97-.19 4.79l-3.78 3.74-5.78 1.77m1.86 7.66l1.73-8.63" class="st3"/><circle cx="38.83" cy="31.22" r="3.09" class="st3"/><path d="M46.25 46.65l-1.98-6.87c-.34-1.59-1.33-2.83-4.12-2.83H29.57s.59 3.53 3.53 3.53h7.05m-.4 6.17l-2.24-6.17M6.05 46.65l1.3-6.09c.34-1.59 1.47-2.4 3.23-2.73l4.41-.88" class="st3"/><path fill="none" stroke="#444" stroke-linecap="round" stroke-linejoin="round" stroke-miterlimit="10" stroke-width="1.5" d="M19.53 10.26L7.34 15.48l4.01 3.1-.54 5L23 18.36m4.79 11.17L18.11 6.97m12.62 29.68l-1.36-3.29m5.49 13.29l-2.47-5.99"/><path fill="none" stroke="#444" stroke-linecap="round" stroke-linejoin="round" stroke-miterlimit="10" stroke-width=".5" d="M20.51 12.21l-7.94 3.55 1.89 1.36-.22 2.28 7.8-3.42"/></svg>