<svg xmlns="http://www.w3.org/2000/svg" id="Camada_3" x="0" y="0" version="1.1" viewBox="0 0 50 50" xml:space="preserve"><style>.st4{fill:none;stroke:#444;stroke-miterlimit:10;fill-rule:evenodd;clip-rule:evenodd}</style><path fill="#b9d7d9" d="M45.81 2.6H4.09c-1.12 0-2.03.91-2.03 2.03V21.1L47.84 4.8v-.17c0-1.13-.91-2.03-2.03-2.03z"/><path fill="#a6c1c2" d="M2.06 21.09v24.69L47.84 29.5V4.8z"/><path fill="none" stroke="#444" stroke-linecap="round" stroke-linejoin="round" stroke-miterlimit="10" stroke-width="2.5" d="M25.01 48H5.54c-1.87 0-3.39-1.58-3.39-3.54V5.55C2.15 3.6 3.67 2 5.54 2h39.01c1.87 0 3.39 1.58 3.39 3.54v25.89"/><path fill="none" stroke="#444" stroke-linecap="round" stroke-linejoin="round" stroke-miterlimit="10" stroke-width=".5" d="M42.42 7.21v6.81m-5.03-2.04h-.79c-.6 0-1.07-.48-1.07-1.07V7.94c0-.6.48-1.07 1.07-1.07h.79c.6 0 1.07.48 1.07 1.07v2.96c.01.6-.47 1.08-1.07 1.08zm-15.02-1.37c-.6 0-1.07-.48-1.07-1.07V6.57c0-.6.48-1.07 1.07-1.07h.79c.6 0 1.07.48 1.07 1.07V9.8l-1.86.81zm-8.23 4.02v-3.6c0-.6.48-1.07 1.07-1.07H16c.6 0 1.07.48 1.07 1.07v2.18l-2.93 1.42zM9.12 7.21v6.81m22.46-5.96v3.79"/><path d="M43.77 44.5h-36c-.63 0-1.15-.51-1.15-1.15v-1.23c0-.63.51-1.15 1.15-1.15h36.01c.63 0 1.15.51 1.15 1.15v1.23c-.01.64-.52 1.15-1.16 1.15z" class="st4"/><path d="M9.12 24.36h6.55v16.62H9.12zm7.14 0H8.54c-.46 0-.83-.37-.83-.83v-1.47c0-.46.37-.83.83-.83h7.72c.46 0 .83.37.83.83v1.47c-.01.46-.38.83-.83.83z" class="st4"/><path d="M44.36 17.95L26.1 9.31a.975.975 0 00-.85 0L7.18 17.95c-.34.16-.56.51-.56.89v1.41c0 .54.44.99.99.99h36.33c.54 0 .99-.44.99-.99v-1.41c-.01-.38-.23-.73-.57-.89zM22.5 24.36h6.55v16.62H22.5z" class="st4"/><path d="M29.63 24.36h-7.72c-.46 0-.83-.37-.83-.83v-1.47c0-.46.37-.83.83-.83h7.72c.46 0 .83.37.83.83v1.47c-.01.46-.38.83-.83.83zm6.24 0h6.55v16.62h-6.55zm7.13 0h-7.72c-.46 0-.83-.37-.83-.83v-1.47c0-.46.37-.83.83-.83H43c.46 0 .83.37.83.83v1.47c0 .46-.37.83-.83.83z" class="st4"/></svg>