<svg xmlns="http://www.w3.org/2000/svg" id="Camada_3" x="0" y="0" version="1.1" viewBox="0 0 50 50" xml:space="preserve"><style>.st3,.st5{fill:none;stroke-miterlimit:10;stroke:#494949;stroke-width:.25}.st5{stroke:#444}</style><path fill="#a6c1c2" d="M49.09 28.21L3.03 44.97l-.54-10.89.21-9.52L47.28 8.41l.61 7.15.46 7.45.74 5.2"/><path fill="#b9d7d9" d="M48.75 8.41L1.9 25.14l.78-20.81 2.98-2.89 29.05-.17 11.46.26 2.58 6.88"/><path fill="none" stroke="#444" stroke-linecap="round" stroke-linejoin="round" stroke-miterlimit="10" stroke-width="2.5" d="M24.96 47.85H5.49c-1.87 0-3.39-1.58-3.39-3.54V5.4c0-1.95 1.52-3.54 3.39-3.54H44.5c1.87 0 3.39 1.58 3.39 3.54v25.89"/><circle cx="25.33" cy="24.56" r="18.93" class="st3"/><circle cx="25.33" cy="24.16" r="7.68" class="st3"/><path fill="none" stroke="#494949" stroke-linecap="round" stroke-linejoin="round" stroke-miterlimit="10" d="M11.12 10.99v8.84h4.75l-.01 18.9h21.75l.01-23.64h-10.6v-4.73h-15.9z"/><path d="M25.33 5.62h9.47v9.47h-9.47z" class="st5"/><path d="M34.79 5.62h9.47v9.47h-9.47zm-9.46 9.47h9.47v9.47h-9.47z" class="st5"/><path d="M34.79 15.09h9.47v9.47h-9.47zM6.39 5.62h9.47v9.47H6.39z" class="st5"/><path d="M15.86 5.62h9.47v9.47h-9.47zm-9.47 9.47h9.47v9.47H6.39z" class="st5"/><path d="M15.86 15.09h9.47v9.47h-9.47zm9.47 9.47h9.47v9.47h-9.47z" class="st5"/><path d="M34.79 24.56h9.47v9.47h-9.47zm-9.46 9.47h9.47v9.47h-9.47z" class="st5"/><path d="M34.79 34.03h9.47v9.47h-9.47zm-28.4-9.47h9.47v9.47H6.39z" class="st5"/><path d="M15.86 24.56h9.47v9.47h-9.47zm-9.47 9.47h9.47v9.47H6.39z" class="st5"/><path d="M15.86 34.03h9.47v9.47h-9.47z" class="st5"/></svg>