<svg xmlns="http://www.w3.org/2000/svg" version="1" viewBox="0 0 50 50"><path fill="#AFE55D" d="M40.179 33.686V10.997c0-.95-.77-1.72-1.72-1.72h-6.502V7.665c0-.95-.77-1.72-1.72-1.72h-2.321a2.917 2.917 0 00-5.834 0h-2.32c-.95 0-1.72.77-1.72 1.72v1.612H11.54c-.95 0-1.72.77-1.72 1.72v33.738l30.359-11.049z"/><path fill="#C3FF68" d="M30.238 5.945h-2.321a2.917 2.917 0 00-5.834 0h-2.32c-.95 0-1.72.77-1.72 1.72v1.612h-6.502c-.95 0-1.72.77-1.72 1.72v6.265l22.136-8.057v-1.54c0-.95-.77-1.72-1.719-1.72z"/><g fill="#031326"><path d="M38.459 8.174h-5.398v-.509a2.826 2.826 0 00-2.823-2.823h-1.371C28.386 3.16 26.834 1.925 25 1.925s-3.386 1.235-3.866 2.917h-1.371a2.826 2.826 0 00-2.823 2.823v.509h-5.398a2.826 2.826 0 00-2.823 2.823v34.255a2.826 2.826 0 002.823 2.823H25a1.103 1.103 0 000-2.206H11.541a.616.616 0 01-.616-.616V10.997c0-.34.277-.616.616-.616h6.304v.402a2.368 2.368 0 002.365 2.365h9.581a2.368 2.368 0 002.365-2.365v-.402h6.304c.34 0 .616.277.616.616v22.694a1.103 1.103 0 102.206 0V10.997a2.826 2.826 0 00-2.823-2.823zm-7.594 2.609c0 .593-.482 1.075-1.075 1.075h-9.58a1.076 1.076 0 01-1.075-1.075v-.402h.011V7.665c0-.34.277-.616.616-.616h3.424V5.945c0-1 .814-1.814 1.814-1.814s1.814.814 1.814 1.814v1.103h3.424c.34 0 .616.277.616.616v2.716h.011v.403z"/><path d="M34.988 17.655H21.114a.645.645 0 000 1.29h13.874a.645.645 0 000-1.29z"/><circle cx="16.476" cy="18.299" r="1.573"/><path d="M34.988 24.24H21.114a.645.645 0 000 1.29h13.874a.645.645 0 000-1.29z"/><circle cx="16.476" cy="24.885" r="1.573"/><path d="M34.988 30.826H21.114a.645.645 0 000 1.29h13.874a.645.645 0 000-1.29z"/><circle cx="16.476" cy="31.471" r="1.573"/><path d="M34.988 37.412H21.114a.645.645 0 000 1.29h13.874a.645.645 0 000-1.29z"/><circle cx="16.476" cy="38.057" r="1.573"/></g></svg>