<svg xmlns="http://www.w3.org/2000/svg" id="Layer_1" x="0" y="0" version="1.1" viewBox="0 0 50 50" xml:space="preserve"><style>.st2{fill:#031326}</style><path fill="#fcc34f" d="M45.8 27.2L41.5 29l1.8 3.5-31.4 11.4 1-7.9-3.8-4.8 33.8-12.8 3.2 6.6z"/><path fill="#fdcf72" d="M42 11.8l-.2 7.6L9 31.2l-4.2-7.9-.7-4.5 34-12 1.7 1.8z"/><path d="M47 25v2.4c0 .5-.3.9-.7 1l-3.5 1.2.9 1.3c.1.2.2.4.2.6v7.4c0 .8-.2 1.5-.5 2.2-.6 1.4-1.7 2.5-3.1 3.1-1.4.6-3 .6-4.4 0l-2.5-1v5.3c0 .6-.5 1-1.1 1h-8.2c-.5 0-.9-.5-.9-1s.4-1 .9-1h7.1v-5.1l-4.4-1.9.8-1.9 9 3.8c.5.2.9.3 1.4.3 2 0 3.6-1.6 3.6-3.7v-7.1l-1.4-2.2c-.1-.1-.1-.2-.1-.2-.2-.6.1-1.2.7-1.4l4.1-1.4v-1.4l-3.9-7c-.2-.3-.2-.7 0-1l.6-1.3c.5-.9.4-2-.1-2.9A20.43 20.43 0 0023.7 2.7h-3c-8.6 0-15.6 7-15.6 15.6 0 3.2.9 6.2 2.8 8.8l5.9 8.7c.2.2.2.5.2.8l-1.5 10.9H16c.6 0 1 .5 1 1s-.5 1.1-1 1.1h-4.9c-.5-.1-.9-.6-.9-1.2l1.5-11.7L6 28.4c-2-3-3.1-6.4-3.1-10C3 8.5 10.9.5 20.6.5h3C31.8.5 39.3 4.9 43.3 12c.8 1.5.9 3.3.1 4.9l-.4.8 3.8 6.8c.2.1.2.3.2.5z" class="st2"/><path d="M26.3 32.9H21c-.4 0-.8-.3-.8-.8v-4.4c-2-1.2-3.2-3.3-3.2-5.6 0-3.6 2.9-6.5 6.5-6.5s6.5 2.9 6.5 6.5c0 2.3-1.2 4.4-3.2 5.6v4.4c.2.4-.1.8-.5.8zm-4.5-1.5h3.8v-4.1c0-.3.2-.5.4-.7 1.7-.9 2.8-2.6 2.8-4.5 0-2.8-2.3-5-5-5-2.8 0-5 2.3-5 5 0 1.9 1.1 3.6 2.8 4.5.3.1.4.4.4.7v4.1z" class="st2"/><path d="M26.3 30.8H21c-.4 0-.8-.3-.8-.8s.3-.8.8-.8h5.3c.4 0 .8.3.8.8s-.4.8-.8.8zm.5-6.9c-.2 0-.4-.1-.5-.2l-1.6-1.6-1.6 1.6c-.3.3-.8.3-1.1 0l-2-2.1c-.3-.3-.3-.8 0-1.1s.8-.3 1.1 0l1.6 1.6 1.6-1.6c.3-.3.8-.3 1.1 0l2.1 2.1c.3.3.3.8 0 1.1-.3.1-.5.2-.7.2z" class="st2"/><path d="M14.9 21.1h-2.1c-.4 0-.8-.3-.8-.8s.3-.8.8-.8h2.1c.4 0 .8.3.8.8s-.4.8-.8.8zm2.5-5.9c-.2 0-.4-.1-.5-.2l-1.5-1.5c-.3-.3-.3-.8 0-1.1s.8-.3 1.1 0l1.5 1.5c.3.3.3.8 0 1.1-.3.1-.4.2-.6.2zm5.9-2.5c-.4 0-.8-.3-.8-.8V9.8c0-.4.3-.8.8-.8s.8.3.8.8v2.1c0 .4-.4.8-.8.8zm6 2.5c-.2 0-.4-.1-.5-.2-.3-.3-.3-.8 0-1.1l1.5-1.5c.3-.3.8-.3 1.1 0s.3.8 0 1.1L29.9 15c-.2.1-.4.2-.6.2zm4.6 5.9h-2.1c-.4 0-.8-.3-.8-.8s.3-.8.8-.8h2.1c.4 0 .8.3.8.8s-.4.8-.8.8z" class="st2" transform="translate(.5 .5)"/></svg>