<svg xmlns="http://www.w3.org/2000/svg" version="1" viewBox="0 0 50 50"><path fill="#AFE55D" d="M9.337 33.717v4.876a2.07 2.07 0 002.07 2.07h4.738l24.517-8.923v-8.844l5.981-5.98a2.07 2.07 0 000-2.928L40.155 7.5a2.07 2.07 0 00-2.927 0L35.39 9.338H11.407a2.07 2.07 0 00-2.07 2.07v7.422l-5.981 5.98a2.07 2.07 0 000 2.928l5.981 5.979z"/><path fill="#C3FF68" d="M40.225 7.57l-.07-.07a2.07 2.07 0 00-2.927 0l-1.825 1.825 4.822-1.755zm-4.856 1.768H11.407a2.07 2.07 0 00-2.07 2.07v7.405l26.032-9.475z"/><path fill="#031326" d="M47.527 13.104l-6.488-6.489a3.327 3.327 0 00-4.695 0l-1.471 1.471H11.408a3.323 3.323 0 00-3.32 3.32v6.904l-5.615 5.615a3.324 3.324 0 000 4.695l5.615 5.612v4.358a3.323 3.323 0 003.32 3.319h4.361l1.473 1.473c.647.646 1.497.969 2.347.969s1.7-.323 2.348-.97l1.472-1.472H35.48a1.25 1.25 0 000-2.5H22.698l3.806-3.805h9.103v-9.102l3.805-3.804v9.04a1.25 1.25 0 002.5 0v-8.329l5.615-5.613a3.3 3.3 0 00.973-2.348c0-.883-.346-1.717-.973-2.344zm-36.119-2.517h24.144l-3.801 3.801H14.388v6.424l-1.257-1.257a2.178 2.178 0 00-1.552-.643c-.352 0-.687.091-.992.247v-7.752c0-.451.369-.82.821-.82zm20.093 4.052L19.857 26.282l-5.219-5.219v-6.424h16.863zM11.408 39.412a.82.82 0 01-.82-.819v-5.055l5.877 5.874h-5.057zm23.949-4.055h-8.603l8.603-8.602v8.602zM45.76 16.032L20.17 41.615a.823.823 0 01-1.16.001L4.24 26.854a.82.82 0 010-1.16l5.964-5.962a1.948 1.948 0 012.75 0l6.903 6.903L38.111 8.384a.82.82 0 011.16 0l6.488 6.488c.155.155.24.361.24.58a.81.81 0 01-.239.58z"/></svg>