<svg xmlns="http://www.w3.org/2000/svg" id="Camada_1" x="0" y="0" version="1.1" viewBox="0 0 50 50" xml:space="preserve"><style>.st3{fill:none;stroke:#494949;stroke-linecap:round;stroke-linejoin:round;stroke-miterlimit:10}</style><path fill="#a6c1c2" d="M6.5 38.3l5.7 3.3L45.9 23l-.1-7.3c0-1.6-.9-3.2-2.3-4L27.3 2.3c-1.4-.8-3.2-.8-4.6 0L6.5 11.7c-1.4.8-2.3 2.3-2.3 4v18.7c0 1.6.9 3.1 2.3 3.9z"/><path fill="#b9d7d9" d="M33.8 6.2l-6.6-3.8c-1.4-.8-3.2-.8-4.6 0L6.5 11.7c-1.4.8-2.3 2.3-2.3 4l-.3 7.9L33.8 6.2z"/><path fill="#444" d="M25 49.5c-1 0-2-.3-2.9-.8L5.9 39.4c-1.8-1-2.9-3-2.9-5V15.6c0-2.1 1.1-4 2.9-5l16.2-9.4c1.8-1 4-1 5.8 0l16.2 9.4c1.8 1 2.9 3 2.9 5v13.7c0 .7-.6 1.2-1.2 1.2s-1.2-.6-1.2-1.2V15.6c0-1.2-.6-2.3-1.7-2.9L26.7 3.4c-1-.6-2.3-.6-3.4 0L7.1 12.7c-1 .6-1.7 1.7-1.7 2.9v18.7c0 1.2.6 2.3 1.7 2.9l16.2 9.4c1 .6 2.3.6 3.4 0l4.5-2.6c.6-.3 1.3-.1 1.7.5.3.6.1 1.3-.5 1.7l-4.5 2.6c-.9.5-1.9.7-2.9.7z"/><path d="M18.8 21.6l6.2 4 6.2-4m-6.2 4v6.7" class="st3"/><path d="M31.2 21.6L25 17.7l-6.2 3.9v6.8l6.2 3.9 6.2-3.9z" class="st3"/><path fill="#494949" d="M35.8 31.7c-.3.2-.4.4-.4.5h-1.9c-.1 0-3 0-4.3 1.6h-2.5c-.9 0-1.6.6-1.7 1.5v.6c0 .1 0 .1.1.2 0 .1.1.2.1.2.3.4.8.7 1.4.7h4.1c.3 0 .6-.3.6-.6s-.3-.6-.6-.6h-4.1c-.2 0-.3-.1-.4-.3v-.1c0-.2.3-.4.5-.4h2.8c.2 0 .4-.1.5-.3.8-1.1 2.8-1.3 3.6-1.3h.4v4.1l-3.8 1.2s-1.5.4-2.5 0c-.8-.3-3.8-1.9-6.4-3.2 0 0-.2-.1-.1-.2 0-.1.1-.2.5-.1l2.2.8c.3.1.6-.1.7-.4.1-.3-.1-.6-.4-.7l-2.2-.8c-1.3-.4-1.8.3-1.9.7-.3.7.1 1.4.7 1.7 1.6.9 5.5 2.9 6.5 3.3.5.2 1 .3 1.5.3.9 0 1.7-.2 1.8-.2l5-1.5c.2.3.6.6 1 .6h2.8c.3 0 .6-.3.6-.6s-.3-.6-.6-.6h-2.8v-5h2.8c.3 0 .6-.3.6-.6s-.3-.6-.6-.6h-2.9c-.1 0-.4 0-.7.1zM13.5 18.5c.5 0 .9-.3 1.1-.7h1.9c.1 0 3 0 4.3-1.6h2.5c.9 0 1.6-.6 1.7-1.5v-.6c0-.1 0-.1-.1-.2 0-.1-.1-.2-.1-.2-.3-.4-.8-.7-1.4-.7h-4.1c-.3 0-.6.3-.6.6s.3.6.6.6h4.1c.2 0 .3.1.4.3v.1c0 .2-.3.4-.5.4h-2.8c-.2 0-.4.1-.5.3-.8 1.1-2.8 1.3-3.6 1.3H16v-4.1l3.8-1.2s1.5-.4 2.5 0c.8.3 3.8 1.9 6.4 3.2 0 0 .2.1.1.2 0 .1-.1.2-.5.1l-2.2-.8c-.3-.1-.6.1-.7.4-.1.3.1.6.4.7l2.2.8c1.3.4 1.8-.3 1.9-.7.3-.7-.1-1.4-.7-1.7-1.6-.9-5.5-2.9-6.5-3.3-.5-.2-1-.3-1.5-.3-.9 0-1.7.2-1.8.2l-5 1.5c-.2-.3-.6-.6-1-.6h-2.8c-.3 0-.6.3-.6.6s.3.6.6.6h2.8v5h-2.8c-.3 0-.6.3-.6.6s.3.6.6.6l2.9.1z"/></svg>