<svg xmlns="http://www.w3.org/2000/svg" id="Layer_1" x="0" y="0" version="1.1" viewBox="0 0 50 50" xml:space="preserve"><style>.st2{fill:#031326}</style><path fill="#70c6df" d="M45.3 2.5L4.8 17.2v23.6l40.5-14.7z"/><path fill="#7dddfa" d="M45.3 2.3H4.8v15.3L45.3 2.9z"/><path d="M31.1 49H3.4V1h43v26.3c0 .7-.6 1.2-1.2 1.2s-1.2-.6-1.2-1.2V3.5H6v43h25.2c.7 0 1.2.6 1.2 1.2s-.6 1.3-1.3 1.3z" class="st2"/><path d="M41.8 18H8.3V5h33.5v13zm-32-1.5h30.5v-10H9.8v10zm32.2 15H20.7v-13H42v13zM22.2 30h18.3V20H22.2v10zm-2.5 1.5H8.2v-13h11.5v13zM9.7 30h8.5V20H9.7v10zm19.8 15H8.2V32h21.3v13zM9.7 43.5H28v-10H9.7v10zM42 45H30.5V32H42v13zm-10-1.5h8.5v-10H32v10z" class="st2"/></svg>