<svg xmlns="http://www.w3.org/2000/svg" viewBox="0 0 50 50"><path fill="#9674ea" d="M47.3 6L2.5 22.3v24.5l44.8-16.3z"/><path fill="#b292f3" d="M47.8 2.5H2v20.3L47.8 6.1z"/><path fill="#031326" d="M47.9 27.5V2.1H2.2v14l.1 21.2-.1 10.6H48l-.1-20.4zM26.7 3.1H47v16.6l-22.8-2.1 2.5-14.5zM3.2 17.3l5.5.7 6.8 15.7-12.3 2.5V17.3zm7.4.7l36.3 3.4V27l-29.8 6.3L10.6 18zM3.2 3.1h21.7l-2.5 14.3-19.2-1.8V3.1zm0 43.8V38l25.3-5.3L32 46.9H3.2zm43.7 0H33.8l-3.6-14.6L47 28.7l-.1 18.2z"/><path fill="none" stroke="#031326" stroke-linecap="round" stroke-miterlimit="10" stroke-width="2.5" d="M2.6 2.5h44.8v44.8H2.6z"/></svg>