<svg xmlns="http://www.w3.org/2000/svg" id="Camada_1" x="0" y="0" version="1.1" viewBox="0 0 50 50" xml:space="preserve"><style>.st2{fill:#031326}</style><path fill="#bee367" d="M47.5 3.5l-45 16.3v26.1l45-16.4z"/><path fill="#d4ff73" d="M47.5 2.5h-45v17.3l45-16.3z"/><path d="M31.2 33l-15.3-.4-.5-14.8 16.3-.7-.5 15.9zm-14.8-.9l14.3.4.5-14.9-15.3.6.5 13.9zM34 47.7c-.2 0-.3-.1-.2-.3l.9-13.9 12.9.4c.1 0 .2.1.2.3s-.1.2-.3.2L35.1 34l-.8 13.4c0 .2-.1.3-.3.3z" class="st2"/><path d="M1.3 1.3v47.5H34c.7 0 1.2-.6 1.2-1.2s-.6-1.2-1.2-1.2h-.6l.8-12.7-14.9-.4.5 13.1h-.4l-.5-13.1-15.1-.6v-.4l11.7.3-.5-14.8-11.2.5v-.4L25 17V3.8h.4V17l20.8-.8v.4l-14.1.6-.5 15.8 15.9.4c.1 0 .2-.1.2-.2s-.1-.3-.2-.3l-15.4-.4.5-15 13.6-.5v13.3c0 .7.6 1.2 1.2 1.2s1.2-.6 1.2-1.2v-29H1.3zm18.5 32.3l13.9.4-.8 12.2H20.3l-.5-12.6zm-1.4 0l.4 12.6h-15v-13l14.6.4zm-4-15.3l.5 13.7-11.1-.3v-13l10.6-.4zm10.1-1.8l-20.7.8V3.8h20.8v12.7zm21.7-.9l-20.2.8V3.8h20.3v11.8z" class="st2"/></svg>