<svg xmlns="http://www.w3.org/2000/svg" id="Layer_1" x="0" y="0" version="1.1" viewBox="0 0 48 47" xml:space="preserve"><style>.st3{fill:#444}</style><switch><g><path fill="#e56060" d="M45.5 10.6l.7 4.9L2.6 31.3 2.1 21v-5.8L40.2 1.4l4.9 2.1z"/><path fill="#ff6b6b" d="M44 1.4l2.1 3.1L1.8 20.3 2.9 4.1l2.8-2.7 27.4-.2z"/><path fill="none" stroke="#444" stroke-linecap="round" stroke-linejoin="round" stroke-miterlimit="10" stroke-width="2.5" d="M17.5 45.2h-12c-1.8 0-3.2-1.5-3.2-3.3V5.1c0-1.8 1.4-3.3 3.2-3.3h36.9c1.8 0 3.2 1.5 3.2 3.3v23.2"/><circle cx="8.1" cy="7.3" r="1.3" class="st3"/><circle cx="11.8" cy="7.3" r="1.3" class="st3"/><circle cx="15.4" cy="7.3" r="1.3" class="st3"/><path d="M28.4 43.3c-.3 0-.7-.1-1-.2L18 39.4c-1-.4-1.7-1.3-1.7-2.4L15 16.4c0-.7.2-1.4.8-2 .5-.5 1.2-.8 2-.8h21.6c.7 0 1.4.3 2 .8.5.5.8 1.3.7 2L40.8 37c0 .4-.3.6-.7.6s-.6-.3-.6-.7l1.1-20.6c0-.4-.1-.8-.4-1-.3-.3-.7-.4-1-.4H17.7c-.4 0-.8.2-1 .4-.3.2-.4.6-.4 1l1.3 20.6c0 .6.4 1.1.9 1.3l9.5 3.7c.3.1.7.1 1 0l2.7-1c.3-.1.7.1.8.4.1.4-.1.7-.4.8l-2.7 1c-.3.1-.7.2-1 .2z" class="st3"/><path d="M39.2 17c-.2-.2-.5-.3-.9-.3H18.8c-.3 0-.7.2-.9.3-.3.2-.3.5-.3.9l1.1 17.9c0 .5.3 1 .8 1.1l8.6 3.2c.1 0 .3.1.5.1s.3 0 .5-.1l8.6-3.2c.4-.2.8-.6.8-1.1l1.1-17.9c-.1-.4-.2-.7-.4-.9zM23.3 28l2.6 2.6c.2.2.2.5 0 .7-.1.1-.2.1-.3.1-.1 0-.2 0-.4-.1l-2.6-2.6c-.4-.4-.4-1.2 0-1.7l2.6-2.6c.2-.2.5-.2.7 0s.2.5 0 .7l-2.6 2.6c-.1.1-.1.2 0 .3zm7.1-5.1l-2.7 10.2c0 .2-.2.4-.5.4h-.1c-.3-.1-.4-.3-.4-.6l2.7-10.2c.1-.3.3-.4.6-.4.3.1.5.3.4.6zm4.2 5.8L32 31.3c-.1.1-.2.1-.4.1-.1 0-.2 0-.4-.1-.2-.2-.2-.5 0-.7l2.6-2.6v-.2l-2.6-2.6c-.2-.2-.2-.5 0-.7.2-.2.5-.2.7 0l2.6 2.6c.5.4.5 1.2.1 1.6z" class="st3"/></g></switch></svg>