<svg xmlns="http://www.w3.org/2000/svg" viewBox="0 0 50 50"><path fill="#a475ef" d="M5 45.4l41.8-15.2V8.6c0-3-2.4-5.4-5.4-5.4H8.6c-3 0-5.4 2.4-5.4 5.4v32.8c0 1.5.7 3 1.8 4z"/><path fill="#bf94f7" d="M45 4.6c-1-.9-2.3-1.4-3.6-1.4H8.6c-3 0-5.4 2.4-5.4 5.4v11.3C3.2 19.8 45 4.6 45 4.6z"/><path fill="#444" d="M25 48.1H8.5c-3.6 0-6.6-3-6.6-6.6v-33c0-3.6 2.9-6.6 6.6-6.6h33.1c3.6 0 6.6 2.9 6.6 6.6v21.7c0 .6-.5 1.2-1.2 1.2s-1.2-.5-1.2-1.2V8.5c0-2.3-1.9-4.2-4.2-4.2H8.5c-2.3 0-4.2 1.9-4.2 4.2v33.1c0 2.3 1.9 4.2 4.2 4.2H25c.6 0 1.2.5 1.2 1.1s-.5 1.2-1.2 1.2c.1 0 0 0 0 0z"/><path fill="none" stroke="#494949" stroke-linecap="round" stroke-linejoin="round" stroke-miterlimit="10" d="M25 23.8v2.4m1.2-1.2h-2.4"/><path fill="#494949" fill-rule="evenodd" d="M17.3 8.8h15.5c.6 0 1.2.3 1.6.7.4.4.7 1 .7 1.6V39c0 .6-.3 1.2-.7 1.6-.4.4-1 .7-1.6.7H17.3c-.6 0-1.2-.3-1.6-.7-.4-.4-.7-1-.7-1.6V11c0-.6.3-1.2.7-1.6.4-.4 1-.6 1.6-.6zm5.6 29.9H27c.2 0 .4-.2.4-.4s-.2-.4-.4-.4h-4.1c-.2 0-.4.2-.4.4.1.3.2.4.4.4zm-5.6-26.8c-.2 0-.4.2-.4.4v24c0 .2.2.4.4.4h15.4c.2 0 .4-.2.4-.4v-24c0-.2-.2-.4-.4-.4H17.3zm15 .7H17.7v23.3h14.6V12.6zm.4-3.1H17.3c-.4 0-.8.2-1.1.4-.3.3-.4.7-.4 1.1v28c0 .4.2.8.4 1.1.3.3.7.4 1.1.4h15.5c.4 0 .8-.2 1.1-.4.3-.3.4-.7.4-1.1V11c0-.4-.2-.8-.4-1.1-.4-.2-.8-.4-1.2-.4z" clip-rule="evenodd"/><path fill="#494949" d="M21 19.9h.9v2.5H21v-.9h-.9v.9h-.9v-2.5h.9v.9h.9v-.9zm1.9.6H22v-.6h2.6v.6h-.9v1.9h-.9v-1.9zm4.4-.2l.5-.4h.3v2.5h-.9v-1.1l-.8.6-.8-.6v1.1h-.9v-2.5h.3l.5.4.8.6 1-.6zm1.3-.4h.9v1.9h1.3v.6h-2.2v-2.5zm-9.4 8.6v-.2.2c0-.6.4-1 1-1h2.7v.9h-2.1c-.2 0-.3.1-.3.2V30c0 .1.1.2.3.2h2.1v.9h-2.7c-.5 0-1-.4-1-1v-1.6zm7.4 0h-2c-.1 0-.1 0-.1.1s0 .1.1.1l.8.2c.5.1.9.2 1.2.6l.1.2c.1.2.1.4.1.6-.1.4-.4.8-.8.9h-2.8v-1h2c.1 0 .1 0 .1-.1s0-.1-.1-.1l-.8-.2c-.5-.1-1-.2-1.2-.7-.1-.2-.1-.4-.1-.6.1-.4.4-.8.8-.9h2.6v.9zm4 0h-2c-.1 0-.1 0-.1.1s0 .1.1.1l.8.2c.5.1.9.2 1.2.6l.1.2c.1.2.1.4.1.6-.1.4-.4.8-.8.9h-2.8v-1h2c.1 0 .1 0 .1-.1s0-.1-.1-.1l-.8-.2c-.5-.1-1-.2-1.2-.7-.1-.2-.1-.4-.1-.6.1-.4.4-.8.8-.9h2.6v.9z"/></svg>