<svg xmlns="http://www.w3.org/2000/svg" id="Layer_1" x="0" y="0" version="1.1" viewBox="0 0 50 50" xml:space="preserve"><style>.st3{fill:none;stroke:#444;stroke-width:.5;stroke-linecap:round;stroke-linejoin:round;stroke-miterlimit:10}</style><path fill="#ff6b6b" d="M44.8 12.4l-5.6-3.6-7.7-4.4-6-2.8C22.3 1.6 4 10.5 4 13.7l-.5 7.8.5 15.1 11.5 7.6 31-11c.8-.5-.7-18.8-1.7-20.8z"/><path fill="none" stroke="#444" stroke-linecap="round" stroke-linejoin="round" stroke-miterlimit="10" stroke-width="2.5" d="M30 46.5l-2.2 1.3c-1.7 1-3.8 1-5.5 0l-15.6-9C5 37.8 4 36 4 34.1V16c0-2 1-3.8 2.7-4.7l15.6-9c1.7-1 3.8-1 5.5 0l15.6 9c1.7 1 2.7 2.8 2.7 4.7v18c0 2-1 3.8-2.7 4.7l-2.5 1.4"/><path fill="#444" d="M23.5 16.8c1.3 0 2.6-.1 4-.1h.5c3.5-.1 6.8-.2 7.7-.1 1.2.1 1.8.6 2.2 1.1.3.3.5.5.8.7.3.1.5.4.5.5 0 0-.1.2-.7.3-.3.1-1.7.2-7.2.1l.1-.2V19c0-.3-.1-.5-.4-.6-.3-.1-.6 0-.7.3l-.1.4c-.1.1-.2.1-.3.3-3.8 2.9-8 5.9-8.6 6.2h-.9l.5-.5c1.8-1.8 2.6-2.6 2.7-3.2.1-.5.3-1.4.4-2.1l.1-.8c.1-.3-.1-.6-.4-.6-.3-.1-.6.1-.6.4 0 .1 0 .2-.1.3-3-.1-5.5-.1-6.6-.2h-.6c-.2-.1-.8-.7-1.7-2.2-.5-1-1-2.1-1.1-2.8h1c.1.1.5.4.8.7 1.3 1.1 2.4 2 3.1 2.2.2.1 2.1.1 5.6 0zm.3-3c-.1-.6-.8-1.4-2.5-3.3-.2-.2-.4-.4-.5-.6h.2c.3 0 .6 0 .8.1.5.2 3.3 2.4 7.2 5.6h-.9c-1.2 0-2.6.1-4 .1-.2-.6-.3-1.5-.3-1.9zM18 15.7c-.5-.2-1.9-1.4-2.6-2-.6-.5-.8-.7-1-.8-.4-.2-1.4-.2-2.2-.1-.3 0-.5.3-.5.6 0 1.1.8 2.8 1.4 4 1 1.7 1.8 2.6 2.5 2.7h.7c1.1 0 3.6.1 6.5.2-.1.5-.2 1.1-.3 1.4-.1.4-1.6 1.9-2.4 2.6-1.3 1.3-1.5 1.5-1.4 1.9.1.2.2.4.5.4.2 0 .9.1 1.6.1.2 0 .5 0 .7-.1.2 0 .6-.1 5.1-3.5 1.5-1.1 3-2.2 3.8-2.8h4.1c3.6 0 4.1-.1 4.3-.1 1.2-.2 1.5-.8 1.5-1.3.1-.7-.5-1.4-1.2-1.6-.1 0-.3-.2-.4-.4-.5-.6-1.3-1.4-3-1.5-.7 0-2.8 0-5.2.1-7.9-6.5-8.4-6.6-8.6-6.6-.3-.1-.6-.1-1-.1-.6 0-1.2.1-1.3.1-.2 0-.4.2-.5.4-.2.4 0 .6 1.3 2 .7.7 2.1 2.3 2.2 2.7.1.5.2 1.2.2 1.8-2.3 0-4.4 0-4.8-.1z"/><path d="M12 28.4h28.1s-1.4 7.3-14.1 7.3-14-7.3-14-7.3z" class="st3"/><path d="M18.9 28.6s1 13.9 6.8 13.9 7.9-11.4 7.5-13.9" class="st3"/><path d="M40.1 28.4s-1.5 14.1-14.4 14.1S12 28.4 12 28.4h28.1z" class="st3"/></svg>