<svg xmlns="http://www.w3.org/2000/svg" id="Layer_1" x="0" y="0" version="1.1" viewBox="0 0 50 50" xml:space="preserve"><style>.st3{fill:#444}</style><path fill="#00dffc" d="M44.7 12.4l-5.6-3.6-7.7-4.4-6-2.8c-3.2 0-21.5 8.9-21.5 12.1l-.5 7.8.5 15.1 11.5 7.6 31-11c.9-.5-.7-18.8-1.7-20.8z"/><path fill="none" stroke="#444" stroke-linecap="round" stroke-linejoin="round" stroke-miterlimit="10" stroke-width="2.5" d="M30 46.5l-2.2 1.3c-1.7 1-3.8 1-5.5 0l-15.6-9C5.1 37.8 4 36 4 34V16c0-2 1-3.8 2.7-4.7l15.6-9c1.7-1 3.8-1 5.5 0l15.6 9c1.7 1 2.7 2.8 2.7 4.7v18c0 2-1 3.8-2.7 4.7l-2.5 1.4"/><path fill="none" stroke="#444" stroke-linecap="round" stroke-linejoin="round" stroke-miterlimit="10" stroke-width=".5" d="M29.1 13.2h-1.3V17l-.7.9.7.7v3.8h1.3m10.4-9.2h1.3V17l.8.9-.8.7v3.8h-1.3m-6.3-4.8l-.6-3h1.7l.4 1.5 1.1-1.5h1.8l-2.1 3 1 3.3h-2l-.4-1.7-1.2 1.7H31z"/><path d="M19.1 38c-.1 0-.4 0-.7-.3-.1-.1-.3-.4-.1-.8l2.8-6.8h-8.6l-1.8.2c-.1 0-.2 0-.3-.1l-1.1-.8c-.2-.1-.3-.4-.2-.6l.6-1.4-1.3-3.9v-.2c0-.1 0-.4.2-.7s.5-.2.7-.2l2.8.1c.3 0 .5.2.6.3l.1.1 1.3 2.7 7.3-.2-3-5.8c0-.1-.1-.2-.1-.2v-.3c0-.1.1-.3.1-.4.1-.1.3-.3.7-.3h3c.1 0 .4 0 .7.2l6.6 6.4 7 .3c2.9.2 4.6.8 5.5 1.8.4.5.6 1.1.5 1.8-.3 2-2.5 2.2-5.7 2.2 0 0-5.4.1-6.9.1-2.1 2.6-5.7 6.4-5.9 6.7-.1.1-.2.1-.4.1h-4.4zm.3-1h3.9c.7-.8 3.9-4.3 5.8-6.6.1-.1.2-.2.4-.2.9 0 7.1-.1 7.1-.1 3.4 0 4.6-.3 4.7-1.3 0-.4-.1-.7-.3-1-.4-.5-1.6-1.2-4.7-1.4l-7.2-.3c-.1 0-.2-.1-.3-.1l-6.7-6.5h-2.7l3.3 6.3c.1.2.1.3 0 .5-.1.1-.2.2-.4.2l-8.4.2c-.2 0-.4-.1-.5-.3L12 23.5l-2.5-.1 1.3 3.8v.4l-.5 1.2.6.5 1.7-.2H22c.2 0 .3.1.4.2s.1.3 0 .5l-3 7.2zm-7.5-13.5zm10.2-4z" class="st3"/><path d="M28.9 26.1h-4.1c-.3 0-.5-.2-.5-.5s.2-.5.5-.5h4.1c.3 0 .5.2.5.5s-.2.5-.5.5z" class="st3"/></svg>