<svg xmlns="http://www.w3.org/2000/svg" id="Layer_1" x="0" y="0" version="1.1" viewBox="0 0 50 50" xml:space="preserve"><style>.st1,.st2{fill:none;stroke:#444;stroke-linecap:round;stroke-linejoin:round;stroke-miterlimit:10}.st2{stroke-width:.5}</style><path fill="#00dffc" d="M47.3 19.2L38 17.6l.8-6.2c-.2-1.9-5.6-7.3-7.4-8.1l-7-1.1C11.1 4.7 12.5 14.8 12.5 17.9l-8.3 1-.3 26.8C4 47 5 48 6.3 48.1l10.7.5L46.8 38c.7-.4 1.4-16.9.5-18.8z"/><path d="M4.7 46.4V21.3c0-1.4 1.1-2.5 2.5-2.5H16m18.5 0H45M5 42.3h33.9" class="st1"/><circle cx="35.7" cy="25.7" r="2.1" class="st1" transform="rotate(-13.286 35.659 25.732)"/><path d="M35.7 27.8v4.7l-4.9 3.3v6.3" class="st2"/><circle cx="15.2" cy="25.7" r="2.1" class="st1"/><path d="M15.2 27.8v4.7l4.8 3.3v6.3m5.4-6.9V42m0-16.5v5" class="st2"/><circle cx="25.4" cy="32.8" r="2.1" class="st1"/><path d="M20.3 27.2V31m10.3-3.8V31" class="st2"/><path d="M32.7 15.5l.5-.5c2.7-2.6.1-7.1-3.5-6l-.7.2-.2-.7c-.9-3.7-6.1-3.7-7 0l-.2.7-.6-.3c-3.6-1.1-6.2 3.4-3.5 6l.5.5-.5.6c-2.7 2.6-.1 7.1 3.5 6l.7-.2.2.7c.4 1.8 2 2.7 3.5 2.7s3.1-.9 3.5-2.7l.2-.7.7.2c3.6 1.1 6.2-3.4 3.5-6l-.6-.5z" class="st1"/><circle cx="25.4" cy="15.5" r="2.1" class="st1" transform="rotate(-76.714 25.413 15.497)"/><circle cx="25.5" cy="45.2" r="1.3" class="st1"/><path fill="none" stroke="#444" stroke-linecap="round" stroke-linejoin="round" stroke-miterlimit="10" stroke-width="2.5" d="M47.2 39.9V21.6c0-2.1-1.7-3.7-3.7-3.7h-5c.1-.8.2-1.5.2-2.3 0-7.3-5.9-13.2-13.2-13.2S12.3 8.3 12.3 15.6c0 .8.1 1.6.2 2.3H7.6c-2.1 0-3.7 1.7-3.7 3.7v23.1c0 2.1 1.7 3.7 3.7 3.7h30.1"/></svg>