<svg xmlns="http://www.w3.org/2000/svg" id="Camada_3" x="0" y="0" version="1.1" viewBox="0 0 50 50" xml:space="preserve"><style>.st3{fill:none;stroke:#444;stroke-width:.5;stroke-linecap:round;stroke-linejoin:round;stroke-miterlimit:10}.st4{fill:#444}.st5{fill:none;stroke:#444;stroke-linecap:round;stroke-linejoin:round;stroke-miterlimit:10}</style><path fill="#00dffc" d="M43.9 3H5.6c-1.3 0-.9 6.4-.9 7.7l-.1 15.7-.5 9.4 1.2 10.9 11.5.6 29.9-10.6V8.2C46.6 6.8 45.2 3 43.9 3z"/><g fill="none" stroke="#444" stroke-linecap="round" stroke-linejoin="round" stroke-miterlimit="10"><path stroke-width="2.5" d="M45.8 37.7V5.9c0-1.6-1.3-3-3-3H7.1c-1.7 0-3 1.3-3 3v38.8c0 1.6 1.3 3 3 3h25.1"/><path d="M45.8 10.9H4.1"/></g><path d="M4.6 23.6c1.2-1.1 2.9-1.7 4.6-1.7 3.9 0 7.1 3.2 7.1 7.1s-3.2 7.1-7.1 7.1c-1.9 0-3.7-.8-5-2" class="st3"/><path d="M3.4 39.4c1.1.7 1.9.9 3.2 1.2l.3 3.3c.1.8.7 1.4 1.5 1.4H10c.8 0 1.4-.6 1.5-1.4l.3-3.3c1.3-.3 2.5-.8 3.7-1.5l2.5 2.1c.6.5 1.5.5 2-.1l1.2-1.2c.6-.6.6-1.4.1-2l-2.1-2.5c.7-1.1 1.2-2.4 1.5-3.7l3.3-.3c.8-.1 1.4-.7 1.4-1.5v-1.6c0-.8-.6-1.4-1.4-1.5l-3.3-.3c-.3-1.3-.8-2.5-1.5-3.7l2.1-2.5c.5-.6.5-1.5-.1-2L20 17.1c-.6-.6-1.4-.6-2-.1l-2.5 2.1c-1.1-.7-2.4-1.2-3.7-1.5l-.3-3.3c-.1-.8-.7-1.4-1.5-1.4H8.4c-.8 0-1.4.6-1.5 1.4l-.3 3.3c-1.3.3-1.8.1-2.9.8" class="st3"/><circle cx="8.9" cy="7.4" r="1.5" class="st4"/><circle cx="13.4" cy="7.4" r="1.5" class="st4"/><circle cx="17.6" cy="7.4" r="1.5" class="st4"/><path d="M31 37.6l7.9-8.7-7.6-8.1" class="st5"/><path d="M34.8 37.6l7.9-8.7-7.6-8.1" class="st5"/><path d="M27.2 37.6l7.9-8.7-7.6-8.1" class="st5"/></svg>