<svg xmlns="http://www.w3.org/2000/svg" id="Camada_3" x="0" y="0" version="1.1" viewBox="0 0 50 50" xml:space="preserve"><style>.st1{stroke-width:.5}.st1,.st2{fill:none;stroke:#414141;stroke-miterlimit:10}</style><path fill="#c3ff68" d="M36.54 2.33H12.66c-1.4 0-10.2 9.4-10.2 10.8l-.24 8.16 8.64 11.04 9 1.08c-1.15 3.77 1.8 7.56 4.92 10.16l17.8-6.33c1.65-2.99 5.25-7.86 5.25-11.27l-.48-13.68v2.25c-.01-1.4-9.41-12.21-10.81-12.21z"/><path d="M30.98 40.34v-2.89l2.31-3.14h2.57m-6.43-3.73h-3.44" class="st1"/><circle cx="14.46" cy="7.73" r="2.11" class="st2"/><circle cx="8.58" cy="13.5" r="2.11" class="st2"/><circle cx="6.91" cy="19.49" r="2.11" class="st2"/><circle cx="14.35" cy="15.6" r="2.11" class="st2"/><circle cx="35.53" cy="7.84" r="2.11" class="st2"/><circle cx="41.52" cy="13.72" r="2.11" class="st2"/><circle cx="41.52" cy="28.8" r="2.11" class="st2"/><circle cx="35.2" cy="25.03" r="2.11" class="st2"/><circle cx="31.54" cy="30.58" r="2.11" class="st2"/><circle cx="35.75" cy="15.6" r="2.11" class="st2"/><circle cx="27.99" cy="17.49" r="2.11" class="st2"/><circle cx="14.23" cy="21.93" r="2.11" class="st2"/><circle cx="22" cy="21.93" r="2.11" class="st2"/><circle cx="20.22" cy="27.91" r="2.11" class="st2"/><circle cx="25.99" cy="38.67" r="2.11" class="st2"/><circle cx="30.98" cy="42.45" r="2.11" class="st2"/><circle cx="37.97" cy="34.9" r="2.11" class="st2"/><path d="M6.91 21.59v1.67l3.64 4.17h7.57m7.87 9.14V24.69l-1.9-2.18m-4.2-.58h-3.14M9.8 11.83l2.59-2.79m4.36-1.8h16.44m4 1.82l3.22 2.99m1.11 3.77v10.87m-7.54-12.86l-2.48-1.79H18.44l-2.99 2.12m12.89 5.53v2.12l3.02 3.56h1.4" class="st1"/><path fill="none" stroke="#414141" stroke-linecap="round" stroke-linejoin="round" stroke-miterlimit="10" stroke-width="2.5" d="M38.56 39.79c1.26 0 2.43-.67 3.06-1.76l4.44-7.6c.6-1.03.92-2.19.92-3.38v-11.8c0-1.81-.73-3.54-2.02-4.8L39.38 5a6.672 6.672 0 00-4.61-1.91l-22.03-.26c-1.19-.01-2.33.49-3.11 1.39l-6.53 7.5c-.64.74-1 1.69-1 2.67v6.5c0 .9.3 1.77.85 2.48l6.37 8.25c.77 1 1.96 1.58 3.21 1.58h5.03c1.31 0 2.38 1.07 2.38 2.38v2.65c0 .72.3 1.41.83 1.91l7.29 6.84c.49.46 1.13.71 1.79.71h2.73"/></svg>