<svg xmlns="http://www.w3.org/2000/svg" id="Camada_3" x="0" y="0" version="1.1" viewBox="0 0 50 50" xml:space="preserve"><style>.st3{fill:none;stroke:#444;stroke-miterlimit:10}.st6{fill:#444}</style><path fill="#00dffc" d="M45.76 3.65h-32.7c-1.2 0-2.18-.43-2.18.77V22.1L47.94 4.61v-.19c0-1.2-.97-.77-2.18-.77z"/><path fill="#00c8e2" d="M10.52 31.63L1.8 42.72c-1.06 1.52 1.67 4.4 3.41 3.78l10.67-8.17 10.99.13 21.07-7.5V4.45L10.46 17.79l.06 13.84z"/><path fill="none" stroke="#444" stroke-linecap="round" stroke-linejoin="round" stroke-miterlimit="10" stroke-width="2.5" d="M39.01 38.31H15.67l-9.62 7.9c-1.13.93-2.8.93-3.85-.09l-.04-.04c-1.06-1.06-1.01-2.8-.02-3.93l8.49-9.58V6.75a3.64 3.64 0 013.64-3.64h30.71a3.64 3.64 0 013.64 3.64V30.4"/><path d="M10.16 9.62h38.46" class="st3"/><path fill="none" stroke="#444" stroke-miterlimit="10" stroke-width=".5" d="M36.73 18.17h6.7c.6 0 1.08-.48 1.08-1.08v-1.27c0-.6-.48-1.08-1.08-1.08h-6.7c-.6 0-1.08.48-1.08 1.08v1.27c0 .59.49 1.08 1.08 1.08z"/><path fill="none" stroke="#444" stroke-linecap="round" stroke-miterlimit="10" stroke-width=".5" d="M44.69 20.55h-8.95m8.95 2.95H33.97m10.72 2.64H32.18"/><path d="M26.29 25.48c.51.05 1.17-.04 1.71-.18 1.47-.37 2.61-1.51 3.25-2.88 2.3-4.99.86-7.97.4-8.73-.05-.08-.17-.09-.22 0-.28.46-1.33 1.67-5 2.59-1.53.38-2.84 1.42-3.48 2.86-.48 1.08-.53 2.14-.28 3.08M5.43 39.24c7.51-7.56 7.29-8.13 8.92-10.29.91-1.21 1.97-2.31 3.19-3.2.82-.6 1.76-1.15 2.69-1.38.11-.03.21-.09.29-.17l1.51-1.7a.59.59 0 01.84-.05l3.11 2.76c.25.22.27.59.05.84l-1.87 2.11-.03-.03c-.22.97-.79 1.96-1.41 2.81-.9 1.22-1.99 2.28-3.2 3.19-2.16 1.63-7.27 5.59-10.76 9.08m15.59-15.37l-3.76-3.53" class="st3"/><circle cx="14.85" cy="7" r="1.28" class="st6"/><circle cx="18.26" cy="7" r="1.28" class="st6"/><circle cx="21.49" cy="7" r="1.28" class="st6"/></svg>