<svg xmlns="http://www.w3.org/2000/svg" id="Camada_3" x="0" y="0" version="1.1" viewBox="0 0 50 50" xml:space="preserve"><style>.st2,.st3{fill:none;stroke:#444;stroke-linecap:round;stroke-linejoin:round;stroke-miterlimit:10}.st3{stroke-width:.25}</style><path fill="#c3ff68" d="M28.8 2.4c-1-.1-2.1-.2-3.2-.2s-2.2.1-3.2.2C11.6 3.8 9.9 9.6 7.9 20.1l29.7-11c-3.6-3-4-6-8.8-6.7z"/><path fill="#afe55d" d="M37 9L8.5 19.6c-.3.1-.8-2.5-.7-2.2.4 3.4-4.9 4.6-4.9 6.2 0 7.4.7 14.4 5.8 19 .4.4.6 1 1.1.8L47 30.2c.5-.2-.1-.5 0-1 .2-1.3.6-1.4-.6-1.9-7.7-2.7-6.9 3-6-12.5 0-.6-2.9-6-3.4-5.8z"/><path d="M24.5 8.4c-4.6-.1-8.5 3.6-8.6 8.2-.1 2.4.9 4.1 2.2 5.9 1.1 1.5 2 2 2.4 4.3m8-.1h-7.9m7.9 0c.5-2.3 1.3-2.7 2.4-4.3 1.3-1.8 2.3-3.5 2.2-5.9-.1-4.6-4-8.2-8.6-8.2m-2.6 21h5.5" class="st2"/><path d="M27.7 12.1c1.4.8 2.4 2.2 2.7 3.8m7.1 18c-7.8 5.2-13 11.1-13 11.1m0-12.9V45" class="st3"/><path d="M27.4 42.1c17 4.7 16.1-10.1 16.1-13.4-2.6 2.6-7.5-.5-13.1 3.2-3.9 2.6-3.3 7.2-3.3 7.2l.3 3z" class="st2"/><path d="M12.7 32.6C20.5 37.2 24.5 45 24.5 45" class="st3"/><path d="M21.4 40.4C4.4 44.3 5.5 28.7 6.2 24.1c2.1 2.1 4 2.2 8.2 3.7 1.4.5 3.4 1.3 4.4 2.4 1.7 2 4.4 5.3 2.6 10.2z" class="st2"/><path d="M24.5 5.8V4.5m-5.6 2.8l-.6-1.1m-3.5 5.2l-1.1-.7m-.3 6.2H12m2.8 5.6l-1.1.6m20.4-.6l1.1.6m.4-6.2h1.3m-2.8-5.5l1.1-.7M30 7.3l.7-1.1" class="st3"/><path d="M21 26.7s.1 2.3.7 3.8c.3.8 1.1 1.4 2 1.4h1.6c.8 0 1.5-.4 1.8-1.1.4-.8.7-2 .8-4.1" class="st2"/><path fill="none" stroke="#444" stroke-linecap="round" stroke-linejoin="round" stroke-miterlimit="10" stroke-width="2.5" d="M45.4 38.3c2-4.9 1.7-9.3.9-11.1-.6-1.5-2.3-2.1-3.8-1.6-1.6.6-3.9.9-3.3-2 .7-1.9 1.1-4 1-6.2-.2-8.3-7-15.2-15.3-15.6-9.3-.4-17 7-17 16.2 0 1.4 0 2.2.4 3.6 0 0-5.1-2.5-5.3 3.2-.2 5.7-2.1 20.9 17.2 19.3 0 0 1.1 4.2 4.3 4.1 3.2-.1 4-2.5 4-2.5s2.8.6 6.1.4"/></svg>