<svg xmlns="http://www.w3.org/2000/svg" viewBox="0 0 50 50"><path fill="#fdc24f" d="M47.7 24.7L3.6 40.8l3.2-16.9L36 13.2z"/><path fill="#fdcf72" d="M36 13.2L6.8 23.9l1.1-5.8 15.7-6.3-3.3-4.4 6.1-4.8z"/><path fill="#031326" d="M49.2 24.6L26.1 1.5c-.5-.5-1.3-.5-1.8 0l-5 5c-.2.2-.3.5-.3.9s.1.7.4.9l2.8 2.8-14.8 5.8c-.4.2-.7.5-.8.9L.9 48.4c-.1.4 0 .8.3 1.1.2.2.6.4.9.4h.2l12.1-2.3c.7-.1 1.1-.8 1-1.5-.1-.7-.8-1.1-1.5-1l-9 1.7 12.1-12h.1c1.6 1.1 3.8 1 5.3-.5 1.6-1.6 1.6-4.2 0-5.8-1.6-1.6-4.2-1.6-5.8 0-1.4 1.4-1.6 3.6-.5 5.3H16l-12.1 12L9 19l15.1-6 13.7 13.7-6 15.1-6.4 1.2c-.7.1-1.1.8-1 1.5.1.6.6 1 1.2 1h.2l7-1.3c.4-.1.8-.4.9-.8l5.9-14.7 2.8 2.8c.2.2.6.4.9.4s.6-.1.9-.4l5-5c.2-.2.4-.5.4-.9s-.2-.7-.4-1zm-5.8 4.1l-3.2-3.2-15-15L22 7.4l3.2-3.2 21.3 21.3-3.1 3.2z"/></svg>