<svg xmlns="http://www.w3.org/2000/svg" version="1" viewBox="0 0 50 50"><path fill="#FCC34F" d="M42.295 29.216a17.193 17.193 0 00-3.271-9.008c-1.177-1.613-1.936-3.476-2.522-5.385-1.388-4.52-5.364-7.898-10.202-8.411h.094l.632-3.229a.749.749 0 00-.735-.893h-2.544a.75.75 0 00-.736.893l.632 3.238h.032a12.017 12.017 0 00-10.138 8.404c-.615 2.005-1.488 3.911-2.695 5.626a17.213 17.213 0 00-3.134 10.576c.128 3.547 1.372 6.839 3.369 9.553l31.218-11.364z"/><path fill="#FDCF72" d="M32.332 8.763a11.94 11.94 0 00-5.848-2.341l.634-3.24a.749.749 0 00-.735-.893h-2.544a.75.75 0 00-.736.893l.618 3.243a12.016 12.016 0 00-10.092 8.399c-.088.288-.195.569-.294.854l18.997-6.915z"/><g fill="#031326"><path d="M39.864 19.595c-.953-1.304-1.705-2.918-2.368-5.077a12.967 12.967 0 00-9.878-8.954l.427-2.182A1.785 1.785 0 0026.29 1.25h-2.544c-.536 0-1.039.237-1.38.651a1.782 1.782 0 00-.375 1.48l.426 2.184a12.967 12.967 0 00-9.873 8.954c-.617 2.01-1.476 3.805-2.551 5.333A18.187 18.187 0 006.67 31.064c.339 9.405 7.961 17.162 17.353 17.66a18.387 18.387 0 006.008-.665 1.04 1.04 0 00-.566-2 16.4 16.4 0 01-5.332.591c-8.326-.442-15.085-7.32-15.386-15.66a16.57 16.57 0 01.135-2.762c2.959 6.068 9.242 10.112 16.141 10.112 6.895 0 13.176-4.038 16.136-10.1.046.347.084.696.107 1.047a1.016 1.016 0 001.106.967 1.039 1.039 0 00.967-1.106 18.249 18.249 0 00-3.475-9.553zM24.098 3.328h1.841l-.389 1.99c-.177-.007-.351-.021-.53-.021-.179 0-.355.014-.533.021l-.389-1.99zm.922 4.047c4.284 0 8.069 2.433 9.876 6.196a20.35 20.35 0 00-9.873-2.546c-3.503 0-6.87.885-9.881 2.551a10.903 10.903 0 019.878-6.201zm.003 29.716c-7.017 0-13.339-4.498-15.695-11.034a16.149 16.149 0 012.364-5.009c1.138-1.616 2.045-3.494 2.718-5.571a19.078 19.078 0 0110.613-3.205c3.805 0 7.445 1.109 10.594 3.191.709 2.22 1.528 3.933 2.568 5.358a16.221 16.221 0 012.53 5.243c-2.357 6.532-8.677 11.027-15.692 11.027z"/><path d="M28.81 28.278a.623.623 0 00-.863.181 3.423 3.423 0 01-5.71.044.623.623 0 10-1.034.698 4.667 4.667 0 003.873 2.059 4.66 4.66 0 003.914-2.12.622.622 0 00-.18-.862z"/><ellipse cx="20.292" cy="23.466" rx="2.196" ry="2.915"/><ellipse cx="29.747" cy="23.466" rx="2.196" ry="2.915"/></g></svg>