<svg xmlns="http://www.w3.org/2000/svg" id="Layer_1" x="0" y="0" version="1.1" viewBox="0 0 50 50" xml:space="preserve"><style>.st2{fill:#444}</style><path fill="#fcc34f" d="M6.5 38.2l5.6 3.3L45.6 23l-.1-7.3c0-1.6-.9-3.1-2.3-4l-16-9.3c-1.4-.8-3.2-.8-4.6 0L6.5 11.7c-1.4.8-2.3 2.3-2.3 4v18.6c0 1.6.9 3.1 2.3 3.9z"/><path fill="#fdcf72" d="M33.7 6.2l-6.5-3.8c-1.4-.8-3.2-.8-4.6 0L6.5 11.7c-1.4.8-2.3 2.3-2.3 4l-.3 7.8L33.7 6.2z"/><path d="M24.8 49.4c-1 0-2-.3-2.9-.8L5.8 39.3c-1.8-1-2.9-3-2.9-5V15.7c0-2.1 1.1-4 2.9-5l16.1-9.3c1.8-1 4-1 5.8 0l16.1 9.3c1.8 1 2.9 3 2.9 5v13.7c0 .7-.5 1.2-1.2 1.2s-1.2-.5-1.2-1.2V15.7c0-1.2-.6-2.3-1.7-2.9L26.4 3.5c-1-.6-2.3-.6-3.3 0L7 12.8c-1 .6-1.7 1.7-1.7 2.9v18.6c0 1.2.6 2.3 1.7 2.9l16.1 9.3c1 .6 2.3.6 3.3 0l4.4-2.6c.6-.3 1.3-.1 1.7.4.3.6.1 1.3-.4 1.7l-4.4 2.6c-.9.6-1.9.8-2.9.8z" class="st2"/><path d="M28.1 24.9c-.9.2-1.9.3-2.8.4-3.6.4-5.8.8-6.2 3-.2 1.3.3 2 .8 2.5.6.5 1.4.8 2.3.8.6 0 1.2-.1 1.8-.3.6-.2 1.5-.6 2.4-1.5 1.1-1 1.9-2.4 2.4-4 .1-.2 0-.4-.1-.6-.2-.3-.4-.4-.6-.3zM23.6 30c-1.1.4-2.3.3-2.9-.2-.2-.2-.5-.6-.4-1.4.2-1.3 1.6-1.6 5.1-2 .6-.1 1.2-.1 1.9-.2-1.1 2.7-2.9 3.6-3.7 3.8z" class="st2"/><path d="M15.7 33h-1.8c-.3 0-.6.3-.6.6s.3.6.6.6h1.5l-.3 1.8c-.1.3.1.6.5.7h.1c.3 0 .5-.2.6-.5l.4-2h13l-.3 1.8c-.1.3.1.6.5.7h.1c.3 0 .5-.2.6-.5l.4-2h5c.3 0 .6-.3.6-.6s-.3-.6-.6-.6h-5l2-10.8v-.1l.9-5h1.8c.3 0 .6-.3.6-.6s-.3-.6-.6-.6h-1.6l.3-1.8c.1-.3-.1-.6-.5-.7-.3-.1-.6.1-.7.5l-.4 2h-13l.3-1.8c.1-.3-.1-.6-.5-.7-.3-.1-.6.1-.7.5l-.4 2h-5c-.3 0-.6.3-.6.6s.3.6.6.6h4.8m13 0h1.5l-.3 1.3c-.5-.8-1.2-1.3-1.2-1.3zm-11.7 0h2.7s-.1 0-.1.1c-1 .6-1.9 1.5-2.7 2.6-.1.1-.1.3-.1.4 0 .2.1.3.3.4l2.2 1.5c.1.1.3.1.4.1.2 0 .3-.1.4-.3.7-1.1 1.8-2.2 4.2-2.2 1.3 0 2 .3 2.2.5.1.1.2.4.1 1.2l-.1.4c-1.1.4-2.6.6-4.1.8-1.7.2-3.4.4-4.9 1-.7.3-1.3.6-1.8 1.1l1.3-7.6zM16.8 33l.3-1.6c.3.5.7 1 1.1 1.4.1.1.2.2.3.2h-1.7zm10.6 0h-1.1c.4-.2.7-.5 1.1-.7v.7zm1.2 0v-2c0-.2-.1-.5-.4-.5-.2-.1-.5 0-.6.1-.9.9-2 1.6-3.1 2-.8.2-1.5.4-2.3.4-1.3 0-2.4-.4-3.3-1.1-1.1-.9-1.5-2.3-1.3-3.8v-.2c.3-1.5 1.2-2.5 2.8-3.2 1.3-.5 3-.7 4.6-.9 1.7-.2 3.4-.4 4.7-1 .2-.1.3-.2.3-.4l.1-.7c.2-.9.1-1.7-.3-2.2-.7-.8-2-1-3.1-1-2.7 0-4.1 1.1-4.9 2.2l-1-.7c.6-.8 1.2-1.3 2-1.8 1.2-.7 2.6-1.1 4.2-1.1 2 0 3.4.5 4.3 1.5.7.8.9 1.9.7 3.3l-2.1 11h-1.3z" class="st2"/></svg>