<svg xmlns="http://www.w3.org/2000/svg" viewBox="0 0 50 50"><path fill="#fcc34f" d="M39.7 23.2v2.1l-25.4 15-4-1.6-.1-8.5 23.3-12.5 6.2 3.1z"/><path fill="#fdcf72" d="M27.9 14.9l5.6 2.8-23.3 12.5.1-9.4 9.5-4.3 5.2-3z"/><path fill="none" d="M11.6 22.8v15.1L23.8 44V28.9zm25.3-2L25 14.9l-11.9 5.9 11.9 6zM26.3 44l12.1-6.1V22.8l-12.1 6.1z"/><path fill="#031326" d="M40.8 20.3s0-.1 0 0zm7.9 21.5L41 37.9V20.7c0-.1 0-.2-.1-.3v-.1l-.3-.3h-.1c-.1-.1-.1-.1-.2-.1l-14-7V4c0-.7-.6-1.2-1.2-1.2s-1.3.5-1.3 1.2v8.7l-14 7c-.1 0-.1.1-.2.1h-.1l-.3.3v.1c0 .1-.1.2-.1.3v17.2l-7.7 3.9c-.6.3-.9 1.1-.6 1.7.2.4.7.7 1.1.7.2 0 .4 0 .6-.1l7.8-3.9 14.1 7.1h.1c.1.1.3.1.4.1s.3 0 .4-.1h.1L39.5 40l7.8 3.9c.2.1.4.1.6.1.5 0 .9-.3 1.1-.7.5-.5.3-1.2-.3-1.5zM25 14.9l11.9 6-11.9 6-11.9-6 11.9-6zM23.8 44l-12.2-6.1V22.8l12.2 6.1V44zm14.6-6.1L26.3 44V28.9l12.2-6.1v15.1z"/><path fill="#4a4a4a" d="M13.3 37.4l-.9-1.2.8-.6.9 1.2-.8.6zm1.6-1.2L14 35l.8-.6.9 1.2-.8.6zm1.6-1.1l-.9-1.2.8-.6.9 1.2-.8.6zm1.7-1.2l-.9-1.2.8-.6.9 1.2-.8.6zm1.6-1.1l-.8-1.2.8-.6.9 1.2-.9.6zm1.7-1.1l-.9-1.2.8-.6.9 1.2-.8.6zm15.3 5.4l-.8-.6.9-1.2.8.6-.9 1.2zM35.2 36l-.8-.6.9-1.2.8.6-.9 1.2zm-1.7-1.2l-.8-.6.9-1.2.8.6-.9 1.2zm-1.6-1.1l-.8-.6.9-1.2.8.6-.9 1.2zm-1.7-1.2l-.8-.5.9-1.2.8.6-.9 1.1zm-1.6-1.1l-.8-.6.9-1.2.8.6-.9 1.2zm-2.8-6.3h-1.5v-1h1.5v1zm0-2h-1.5v-1h1.5v1zm0-2h-1.5v-1h1.5v1zm0-2h-1.5v-1h1.5v1zm0-2h-1.5v-1h1.5v1z"/></svg>