<svg xmlns="http://www.w3.org/2000/svg" id="Camada_1" x="0" y="0" version="1.1" viewBox="0 0 50 50" xml:space="preserve"><style>.st2{fill:#031326}</style><path fill="#ce87ea" d="M41 28.5c.4-6.3-2.2-11.2-6.3-14.2l-23.2 8.5c-.7 1.5-1.2 3.3-1.4 5.4-.6 7 0 11.7 1.6 14.7l28.7-10.4c.3-1.3.5-2.6.6-4z"/><path fill="#e097fb" d="M31.2 12.3c-2.7-.9-10.9-1.8-12.7-2.4-1.8-.6-3.2-1.2-4.5-2.1-1.2-1.1-3.2-3.7-3.2-3.7L9.8 9c-.6 2.2-1.2 5-1 7.3.2 2.1.8 5.2 3.2 6.1-.2.3-.3.6-.4.9l23.8-8.7c-1.3-1-2.7-1.7-4.2-2.3z"/><path d="M15.4 34.8l3 .2v-.5l-2.5-.2c.2-2.3 2.7-3.1 2.9-3.1l-.2-.4c-1.2.2-2.9 1-3.2 3.6v.4zm10.8-10.6l-4 1.7-.4-.7 4-1.7zm-12.8 0l3 1.8.3-.7-3-1.8zM26 31.7l-4.1-2.2.1-.8 4.2-1.8.5.8-3.4 1.5 3.2 1.7zM13.3 31l3.2-1.6v-.7l-3.3-2.2-.3.7 2.6 1.7-2.6 1.3zM24 35.9l-8.2 2.8c1 3.1 2.7 6.1 5.6 5 3.5-1.4 3.1-4.6 2.6-7.8z" class="st2"/><path d="M31.2 10.8c-1.6-.5-4.7-1-7.6-1.5-2-.3-4.1-.6-4.8-.9-1.8-.6-3-1.1-3.9-1.8-1.1-1-2.9-3.4-2.9-3.5L10.2 1 8.7 8.4c-.9 3.1-1.2 5.5-1 7.6.3 3 1.2 5.1 2.7 6.3C9.7 24 9.2 25.9 9 28c-.8 8.6.2 14.2 3 17.5 1.8 2.1 4.3 3.2 7.7 3.5h1.1c5 0 10.1-2.3 13.7-6.1l.6.4.7-.7c.2-.2 5.9-5.4 6.5-14.1.6-8.1-3.7-14.9-11.1-17.7zM19.9 46.4c-2.7-.2-4.6-1-6-2.6-2.3-2.7-3.2-7.8-2.5-15.7.2-2.2.7-4.2 1.6-5.8l.4-.7h.6c1.3-.2 2.4-.5 3.5-.8 1.3-.4 2.5-.8 4-.8 2.8.2 4.9.9 6.8 2.3 2.9 2.2 2.7 5.5 2.5 8.4-.1 2-.2 3.8.7 5.1l.8 1.1.1-1.3c.1-.6.2-1.2.4-2.1.3-1.1.9-2.2 1.7-2.6.4-.2.8-.3 1.1-.2 2 .5 1.5 2.8 1.4 3.5-.4 1.5-2.1 3.2-3.2 3.6l-.4.2.1.5c.1.4.3.9.4 1.4l-.4.4c-3.4 4-8.7 6.4-13.6 6.1zm20-18.1c-.4 5.5-3.2 9.6-4.7 11.3l-.5-.8c0-.1-.1-.2-.1-.3 1.4-.7 3-2.6 3.4-4.1.6-2.3-.2-4.2-2.1-4.7-.6-.2-1.3-.1-1.9.3-1 .6-1.9 1.9-2.2 3.3v.1c-.1-.8 0-1.7.1-2.6.2-3 .4-6.8-2.9-9.3-2-1.5-4.3-2.3-7.3-2.5-1.6 0-3 .4-4.3.8-1 .3-2.1.6-3.3.8-.9.1-1.6 0-2.2-.4-1.1-1-1.5-3.1-1.6-4.4-.3-1.8 0-4 .8-6.8l.5-2.2c.5.6 1.1 1.3 1.5 1.7l.1.1c1.2.9 2.6 1.6 4.8 2.3.8.3 2.5.5 5.2.9s5.8.9 7.2 1.3c6.3 2.5 9.9 8.3 9.5 15.2z" class="st2"/></svg>