<svg xmlns="http://www.w3.org/2000/svg" viewBox="0 0 50 50"><defs><style>.cls-3{fill:#031326}</style></defs><g id="ICONES"><path fill="#f799ff" d="M45 5.45l-5.86-2.32-15.94-.31L4.71 4.69l4.41 11.52.4 2.18 7.04 1.3L44.59 9.24 45 5.45z"/><path fill="#e589ef" d="M24.54 32.09l-9.63 1.24 1.68 6.18.61.54.13.03 17.93-6.53-2.13-1.16-8.59-.3zM44.65 5.15l-32.5 11.82 1.16 3.45-2.79.36 2.43 8.94.87.79 5.55.95 8.58-.5 8.1-.89 3.32-5.93.87-2.88-3.37-1.84-2.94-.1 8.36-3.22 2.36-10.95z"/><path d="M39.79 23a1.25 1.25 0 01-1.2-.9c-.9-.64-5.52-1.73-13.6-1.73s-12.71 1.13-13.61 1.77a1.25 1.25 0 01-2.45-.35c0-3.5 11.23-3.88 16.06-3.88S41 18.29 41 21.79A1.25 1.25 0 0139.79 23z" class="cls-3"/><path d="M24.65 32.52a41.83 41.83 0 01-11.52-1.41 1.26 1.26 0 01-.78-.72l-3.3-8.13a1.25 1.25 0 112.32-.94l3.06 7.55a49.19 49.19 0 0021.41 0l2.81-7.49a1.25 1.25 0 112.34.87l-3.05 8.13a1.25 1.25 0 01-.89.79 57 57 0 01-12.4 1.35z" class="cls-3"/><path d="M25 24.39c-9.77 0-15-1.48-15-2.87a.25.25 0 01.5 0c0 1 5.54 2.37 14.55 2.37s14.56-1.38 14.56-2.37a.25.25 0 01.5 0c-.04 1.39-5.32 2.87-15.11 2.87zM35.46 35a1.27 1.27 0 01-1.15-.75c-.78-.42-4-1.1-9.32-1.1s-8.53.68-9.32 1.1a1.27 1.27 0 01-1.15.75 1.25 1.25 0 01-1.25-1.25c0-1.41 2-3.1 11.72-3.1 5.35 0 11.72.54 11.72 3.1A1.25 1.25 0 0135.46 35z" class="cls-3"/><path d="M24.76 41.72a29.6 29.6 0 01-8.26-1 1.23 1.23 0 01-.79-.72l-2.33-5.75a1.25 1.25 0 012.32-.94l2.1 5.17a34.56 34.56 0 0014.6 0l1.91-5.11a1.25 1.25 0 112.34.88L34.5 40a1.24 1.24 0 01-.9.78 40.7 40.7 0 01-8.84.94z" class="cls-3"/><path d="M25 35.68c-4.31 0-10.72-.56-10.72-2.11a.25.25 0 01.5 0c0 .56 3.51 1.61 10.22 1.61s10.22-1 10.22-1.61a.25.25 0 01.5 0c.01 1.55-6.4 2.11-10.72 2.11zm7.31 8.46a1.25 1.25 0 01-1.08-.61 21 21 0 00-6.23-.68 21 21 0 00-6.24.68 1.22 1.22 0 01-1.07.61 1.25 1.25 0 01-1.25-1.25c0-.63 0-2.54 8.56-2.54s8.57 1.91 8.57 2.54a1.25 1.25 0 01-1.26 1.25z" class="cls-3"/><path d="M24.84 48.83A21.12 21.12 0 0119 48.1a1.26 1.26 0 01-.79-.72l-1.63-4a1.25 1.25 0 112.32-.94l1.39 3.43a24 24 0 009.65 0l1.26-3.37a1.25 1.25 0 012.34.88l-1.5 4a1.29 1.29 0 01-.9.78 29 29 0 01-6.3.67z" class="cls-3"/><path d="M25 44.3c-2.62 0-7.57-.32-7.57-1.54a.25.25 0 01.25-.25.25.25 0 01.25.25c.09.36 2.59 1 7.07 1s7-.68 7.06-1a.25.25 0 01.5 0C32.57 44 27.62 44.3 25 44.3zm-7.07-1.54zm27.32-35.5a1.24 1.24 0 01-1.23-1c-.92-.9-7.39-2.56-19-2.56S6.86 5.33 5.94 6.23A1.25 1.25 0 013.46 6c0-4.6 17.93-4.84 21.52-4.84S46.5 1.41 46.5 6a1.25 1.25 0 01-1.25 1.26z" class="cls-3"/><path d="M24.52 20.26a56.39 56.39 0 01-15.63-1.92 1.23 1.23 0 01-.78-.73L3.59 6.48a1.25 1.25 0 012.32-.94l4.28 10.57c2.63.69 14.36 3.31 30 0l3.93-10.53a1.25 1.25 0 112.34.87l-4.17 11.13a1.24 1.24 0 01-.9.78 77.42 77.42 0 01-16.87 1.9z" class="cls-3"/><path d="M25 9.49c-9.93 0-20.5-1.35-20.5-3.84a.25.25 0 01.5 0C5 7.23 13.22 9 25 9s20-1.77 20-3.35a.25.25 0 11.5 0C45.54 8.14 35 9.49 25 9.49z" class="cls-3"/></g></svg>