<svg xmlns="http://www.w3.org/2000/svg" id="Layer_1" x="0" y="0" version="1.1" viewBox="0 0 50 50" xml:space="preserve"><style>.st2{fill:#031326}</style><path fill="#dc5e82" d="M45.7 32.5L4.4 47.6l.2-27.9L45.7 4.9z"/><path fill="#f56991" d="M46.3 4.6L4.6 19.9l.5-17.8 39.4-.7z"/><path d="M45.2 49.7h-7c-.7 0-1.2-.6-1.2-1.2s.6-1.2 1.2-1.2H44V2.8H6v44.4h18.7c.7 0 1.2.6 1.2 1.2s-.6 1.2-1.2 1.2H4.8c-.7 0-1.2-.6-1.2-1.2V1.6C3.6.9 4.2.4 4.8.4h40.5c.7 0 1.2.6 1.2 1.2v46.9c0 .6-.6 1.2-1.3 1.2z" class="st2"/><path d="M38.8 7.2H11.2c-.4 0-.8.3-.8.8v34c0 .4.3.8.8.8h17c.1 0 .2 0 .3-.1.1 0 .2-.1.2-.2l10.7-10.7c.1-.1.1-.2.2-.2 0-.1.1-.2.1-.3V8c-.1-.5-.4-.8-.9-.8zm-9.9 33v-8.1H37l-8.1 8.1zm9.2-9.6h-9.9c-.4 0-.8.3-.8.8v9.9H11.9V8.7h26.2v21.9z" class="st2"/></svg>