<svg xmlns="http://www.w3.org/2000/svg" version="1" viewBox="0 0 50 50"><path fill="#E589EF" d="M47.75 29.77l-.008-9.24L23.241 6.019 2.258 19.81l-.008 9.295 17.232 10.954z"/><path fill="#F799FF" d="M29.791 9.903l-6.558-3.884L2.25 19.81v.118z"/><path fill="#031326" d="M48.991 19.816L23.206 4.546 1.008 19.135 1 29.791l24.655 15.672 8.71-5.579a1.25 1.25 0 00-1.348-2.106l-7.367 4.72L3.5 28.418l.001-1.469 22.082 14.037.067.043 20.847-13.35.002 2.146a1.25 1.25 0 001.25 1.249h.001a1.25 1.25 0 001.249-1.251l-.008-10.007zM25.584 34.791l.067.043 20.842-13.347.001 1.25-20.843 13.348L3.506 22.009l.001-1.251 22.077 14.033zm20.912-10.505L25.651 37.634 3.505 23.557l.001-1.253 22.078 14.034.067.043 20.843-13.348.002 1.253zm-42.992-.433l22.08 14.035.067.043 20.844-13.348.001 1.251-20.846 13.35L3.503 25.106l.001-1.253zm19.771-16.36L46.45 21.217l-20.8 13.32L3.525 20.473l19.75-12.98zm2.376 33.239L3.502 26.654l.001-1.252 22.081 14.036.067.043 20.846-13.35.001 1.252-20.847 13.349z"/></svg>
