<svg xmlns="http://www.w3.org/2000/svg" id="Layer_1" x="0" y="0" version="1.1" viewBox="0 0 50 50" xml:space="preserve"><style>.st3{fill:#494949}</style><path fill="#fcc34f" d="M40.8 5.2v14.3l-1 .4-3 1.1-.7.3-4.2 1.5-.7.3-.9.3-.6.2-3.2 1.2-.6.2-2.2.8-.6.3-3 1-.6.3-3.2 1.1-.6.3h-.1l-.7.2-1.5.6-2 .7-5.2 1.9-1 .4V18.3l1-.4 3-1.1h.1l1.2-.5L23 11.8l.5-.2.9-.3 11.3-4.2 1.1-.4 3-1.1z"/><path fill="#fdcf72" d="M40.8 1.6v5l-1 .4-3 1-1 .4-9.8 3.5-1.4.5L14 16.3l-2.8 1-5 1.8-1 .4v-17l1-.4.3-.1 2.8-1h31c.3 0 .5.3.5.6z"/><path fill="#494949" stroke="#494949" stroke-miterlimit="10" d="M40.8 1.6v30.6c0 .3-.2.5-.5.5s-.5-.2-.5-.5V2.1H6.2V48h28c.3 0 .5.2.5.5s-.2.5-.5.5H5.7c-.3 0-.5-.2-.5-.5V1.6c0-.3.2-.6.5-.6h34.7c.2 0 .4.3.4.6z"/><path d="M36.7 5.4c-.1-.2-.3-.3-.5-.3H9.7s-.1 0-.1.1c0 0-.1 0-.1.1v.1l-.1.1v11.6c0 .1.1.2.2.2h.1c.1 0 .2.1.2.1h26.5c.1 0 .2 0 .2-.1h.1l.2-.2V5.6c-.1 0-.1-.1-.2-.2zm-1 10.9H10.3V6.1h25.5v10.2z" class="st3"/><path d="M36.3 17.4h-.2L9.5 6.1c-.2-.1-.3-.4-.2-.7.1-.3.4-.4.7-.3l26.5 11.2c.3.1.4.4.3.7-.2.2-.4.4-.5.4z" class="st3"/><path d="M9.7 17.4c-.2 0-.4-.1-.5-.3-.1-.3 0-.6.3-.7L36.1 5.2c.3-.1.6 0 .7.3.1.3 0 .6-.3.7L9.9 17.3s-.1.1-.2.1zm6.3 3H9.6c-.1 0-.2 0-.2.1-.1.1-.1.2-.1.3V30c0 .2.1.4.3.4H16c.1 0 .1 0 .2-.1s.1-.2.1-.3v-9.2c0-.2-.1-.4-.3-.4zm-.3 9.2H9.9v-8.4h5.8v8.4z" class="st3"/><path d="M16 30.3c-.1 0-.2 0-.2-.1L9.3 21c-.1-.2-.1-.4 0-.5.1-.1.3-.1.5 0l6.4 9.2c.1.2.1.4 0 .5-.1.1-.1.1-.2.1zm10.2-9.9h-6.4c-.1 0-.1 0-.2.1l-.1.1V30c0 .2.1.4.3.4h6.4c.1 0 .1 0 .2-.1s.1-.2.1-.3v-9.2c0-.2-.1-.4-.3-.4zm-.3 9.2h-5.8v-8.4h5.8v8.4z" class="st3"/><path d="M26.2 30.3c-.1 0-.2 0-.2-.1L19.5 21c-.1-.2-.1-.4 0-.5.1-.1.3-.1.5 0l6.4 9.2c.1.2.1.4 0 .5 0 .1-.1.1-.2.1zm10.2-9.9H30c-.1 0-.1 0-.2.1l-.1.1V30c0 .2.1.4.3.4h6.4c.1 0 .1 0 .2-.1s.1-.2.1-.3v-9.2c.1-.2-.1-.4-.3-.4zm-.3 9.2h-5.8v-8.4h5.8v8.4z" class="st3"/><path d="M36.4 30.3c-.1 0-.2 0-.2-.1L29.8 21c-.1-.2-.1-.4 0-.5.1-.1.3-.1.5 0l6.4 9.2c.1.2.1.4 0 .5-.1.1-.2.1-.3.1zm-18.9 3.9v12h3.3v-12h-3.3zm13.9 3.4c-.6-.6-1.4-.9-2.4-.9-.6 0-1.2.1-1.7.3-.5.2-.9.5-1.1 1H26l-.4-1.1h-2.4v9.3h3.2v-4.1c0-1.1.1-1.8.4-2.2.2-.4.6-.7 1.2-.7.4 0 .7.2.9.5.2.3.3.8.3 1.4v5.1h3.2v-6.1c-.1-1.1-.4-1.9-1-2.5zm11.9-2c-1.1-1-2.5-1.5-4.5-1.5h-4.2v12h3.9c2 0 3.6-.5 4.7-1.6s1.7-2.6 1.7-4.6c-.1-1.9-.6-3.3-1.6-4.3zm-2.5 7.1c-.5.6-1.2.9-2.2.9h-.7v-6.7h.9c.9 0 1.5.3 2 .8.4.5.6 1.4.6 2.5.1 1-.2 1.9-.6 2.5z" class="st3"/></svg>