<svg xmlns="http://www.w3.org/2000/svg" id="Camada_1" x="0" y="0" version="1.1" viewBox="0 0 50 50" xml:space="preserve"><style>.st3{fill:#444}</style><path fill="#dc5e82" d="M47.7 11.6l.8 5.2L2.4 33.6l-.5-10.9-.1-6.2L42.1 1.9l5.2 2.3z"/><path fill="#f56991" d="M46.1 2l2.3 3.2L1.5 21.9 2.6 4.8l3-2.9 29.1-.2z"/><path fill="none" stroke="#444" stroke-linecap="round" stroke-linejoin="round" stroke-miterlimit="10" stroke-width="2.5" d="M18.1 48.3H5.5c-1.9 0-3.4-1.6-3.4-3.5v-39c0-2 1.5-3.5 3.4-3.5h39c1.9 0 3.4 1.6 3.4 3.5v24.6"/><circle cx="8.2" cy="8.2" r="1.4" class="st3"/><circle cx="12.1" cy="8.2" r="1.4" class="st3"/><circle cx="15.9" cy="8.2" r="1.4" class="st3"/><path fill="#494949" d="M6.8 44V27.9h4.4V44H6.8zm15.5 0v-6.8c0-.8-.1-1.5-.4-1.9-.2-.4-.6-.6-1.2-.6-.7 0-1.3.3-1.6.9-.3.6-.5 1.6-.5 3V44h-4.3V31.5h3.3l.5 1.5h.3c.4-.6.9-1 1.5-1.3.7-.3 1.4-.4 2.2-.4 1.4 0 2.5.4 3.2 1.2.8.8 1.2 1.9 1.2 3.4V44h-4.2zm21.2-8.4c0 2.7-.7 4.8-2.2 6.2-1.5 1.5-3.6 2.2-6.3 2.2h-5.2V27.9h5.6c2.6 0 4.6.7 6 2s2.1 3.2 2.1 5.7zm-4.5.2c0-1.5-.3-2.6-.9-3.3-.6-.7-1.5-1.1-2.7-1.1h-1.3v9h1c1.3 0 2.3-.4 2.9-1.2s1-1.8 1-3.4z"/></svg>