<svg xmlns="http://www.w3.org/2000/svg" id="Layer_1" x="0" y="0" version="1.1" viewBox="0 0 50 50" xml:space="preserve"><style>.st2{fill:#031326}</style><path fill="#e589ef" d="M45 3.6L5 18.2v26.3l40-14.6z"/><path fill="#f799ff" d="M45.5 3.5c0-1.1-.9-2-2-2H6.3c-1.1 0-2 .9-2 2v15.2l41.2-15v-.2z"/><path d="M43.1 49.4H6.9c-1.7 0-3.1-1.4-3.1-3.1V3.7C3.8 2 5.2.6 6.9.6h36.3c1.7 0 3.1 1.4 3.1 3.1v26.9c0 .7-.6 1.2-1.2 1.2s-1.2-.6-1.2-1.2V3.7c0-.4-.3-.6-.6-.6H6.9c-.4 0-.6.3-.6.6v42.6c0 .4.3.6.6.6h36.3c.4 0 .6-.3.6-.6v-6.8c0-.7.6-1.2 1.2-1.2s1.2.6 1.2 1.2v6.8c.1 1.7-1.3 3.1-3.1 3.1z" class="st2"/><path d="M38.7 42.6H11.2c-1.5 0-2.6-1.2-2.6-2.6V8.2c0-1.5 1.2-2.6 2.6-2.6h27.5c1.5 0 2.6 1.2 2.6 2.6V40c0 1.4-1.1 2.6-2.6 2.6zM11.2 7c-.6 0-1.1.5-1.1 1.1v31.8c0 .6.5 1.1 1.1 1.1h27.5c.6 0 1.1-.5 1.1-1.1V8.2c0-.6-.5-1.1-1.1-1.1H11.2zm19.5 38.5H19.3c-.2 0-.3-.1-.3-.3v-.7c0-.2.1-.3.3-.3h11.4c.2 0 .3.1.3.3v.7c0 .2-.1.3-.3.3z" class="st2"/><path d="M17.2 17h3.3v14.7h-3.3zm16.3 11.5V16.2h-3.3V22c-.5-.7-1.5-1.2-2.8-1.2-2.5 0-4.8 2.1-4.8 5.7 0 3.3 2 5.5 4.6 5.5 1.4 0 2.7-.6 3.3-1.8l.2 1.6h2.9c0-.9-.1-2.1-.1-3.3zm-3.3-1.6c0 .3 0 .5-.1.8-.2.9-1 1.6-1.9 1.6-1.4 0-2.3-1.1-2.3-2.9 0-1.7.8-3 2.3-3 1 0 1.7.7 1.9 1.6v1.9z" class="st2"/><path d="M36.4 8.2h-23c-1.4 0-2.5 1.1-2.5 2.5v26.6c0 1.4 1.1 2.5 2.5 2.5h20.2l5.3-3.7V10.7c.1-1.4-1.1-2.5-2.5-2.5zM11.7 37.4V10.7c0-1 .8-1.8 1.8-1.8h23c1 0 1.8.8 1.8 1.8v24.9h-5v3.5H13.5c-1 0-1.8-.7-1.8-1.7zm25.7-1L34 38.7v-2.3h3.4z" class="st2"/></svg>