<svg xmlns="http://www.w3.org/2000/svg" id="Layer_1" x="0" y="0" version="1.1" viewBox="0 0 50 50" xml:space="preserve"><style>.st2{fill:#031326}</style><path fill="#f799ff" d="M2.7 6.7c-.3 0-.5.2-.5.5V22L44.3 6.7H2.7z"/><path fill="#e589ef" d="M2.7 42.8h13.5l31.6-11.5V7.2c0-.3-.2-.5-.5-.5h-3L2.2 22v20.3c0 .3.2.5.5.5z"/><path d="M47.3 44.5h-2.7c-.7 0-1.2-.6-1.2-1.2s.6-1.2 1.2-1.2h1.9V8.4h-43V42h32.6c.7 0 1.2.6 1.2 1.2s-.6 1.2-1.2 1.2H2.7c-1 0-1.8-.8-1.8-1.8V7.7c0-1 .8-1.8 1.8-1.8h44.6c1 0 1.8.8 1.8 1.8v35.1c-.1 1-.8 1.7-1.8 1.7z" class="st2"/><path d="M21.8 40.7h-16c-.7 0-1.2-.6-1.2-1.2V11.1c0-.7.6-1.2 1.2-1.2h16c.7 0 1.2.6 1.2 1.2v28.3c.1.7-.5 1.3-1.2 1.3zM6.1 39.2h15.5V11.3H6.1v27.9zM25 44c-.4 0-.8-.3-.8-.8v-36c0-.4.3-.8.8-.8s.8.3.8.8v36.1c0 .4-.4.7-.8.7zm12.1-3.3h-9c-.7 0-1.2-.6-1.2-1.2V11.1c0-.7.6-1.2 1.2-1.2h16c.7 0 1.2.6 1.2 1.2v22.8l-8.2 6.8zm-8.8-1.5h8.2l7.3-6V11.3H28.3v27.9zm16.3-5.7z" class="st2"/><path d="M36.1 39.8c-.4 0-.7-.3-.8-.7l-.1-5.9c0-.3.1-.6.4-.9.2-.2.5-.4.9-.4l7.3-.1c.4 0 .8.3.8.7s-.3.8-.7.8l-7.1.1.1 5.7c0 .4-.3.7-.8.7zm.5-6.4z" class="st2"/></svg>