<svg xmlns="http://www.w3.org/2000/svg" viewBox="0 0 50 50"><path fill="#fcc34f" d="M48.4 26.5l.4 4.3L1.8 48l.1-9.1.3-5.4L49 16.4l-.6 3.8z"/><path fill="#fdcf72" d="M48.4 9.6l-.6 7.8L1.9 34.2v-10l.3-4.5L48.5 2.9z"/><path fill="#444" d="M36.9 49.9H1.8c-.7 0-1.2-.6-1.2-1.2V2.3c0-.7.6-1.2 1.2-1.2h46.5c.7 0 1.2.6 1.2 1.2v35.2c0 .7-.6 1.2-1.2 1.2s-1.3-.5-1.3-1.2V3.6H3v43.7h33.9c.7 0 1.2.6 1.2 1.2s-.6 1.4-1.2 1.4z"/><path fill="none" stroke="#494949" stroke-linecap="round" stroke-linejoin="round" stroke-miterlimit="10" d="M25 31.1V27M9.7 25.2h4.1m3.2.1h6.3m3.4 0h6.4m3.4-.1h3.3m-13.1.1c0-.9-.8-1.7-1.7-1.7-.9 0-1.7.8-1.7 1.7 0 .9.8 1.7 1.7 1.7 1 0 1.7-.8 1.7-1.7zm3.4 13.9H20c-.2 0-.4-.2-.4-.4v-7.3c0-.2.2-.4.4-.4h10.1c.2 0 .4.2.4.4v7.3c0 .2-.2.4-.4.4zm-8.2 1.6h6.2M15.3 23.5v-3.6m19.5 3.7v-3.7M17 25.2c0-.9-.8-1.7-1.7-1.7-.9 0-1.7.8-1.7 1.7s.8 1.7 1.7 1.7c.9 0 1.7-.7 1.7-1.7zm3.4-6.8H10.3c-.2 0-.4-.2-.4-.4v-7.3c0-.2.2-.4.4-.4h10.1c.2 0 .4.2.4.4V18c0 .2-.2.4-.4.4zm-8.2 1.5h6.2m18.1 5.3c0-.9-.8-1.7-1.7-1.7s-1.7.8-1.7 1.7.8 1.7 1.7 1.7c.9 0 1.7-.7 1.7-1.7zm3.4-6.8H29.7c-.2 0-.4-.2-.4-.4v-7.3c0-.2.2-.4.4-.4h10.1c.2 0 .4.2.4.4V18c.1.2-.1.4-.3.4zm-8.2 1.5h6.2"/></svg>