<svg xmlns="http://www.w3.org/2000/svg" viewBox="0 0 50 50"><g data-name="Layer 1"><path fill="none" stroke="#494949" stroke-miterlimit="10" stroke-width="3.11" d="M-50.54-96.7h425.11v443.81H-50.54z"/><path fill="#dc5e82" d="M48.35 26l.4 4.3-47 17.2.1-9.1.3-5.4 46.8-17.1-.6 3.8V26z"/><path fill="#f56991" d="M48.35 9.1l-.6 7.8-45.9 16.8v-10l.3-4.5 46.3-16.8-.1 6.7z"/><path fill="#444" d="M36.85 49.4H1.75a1.22 1.22 0 01-1.2-1.2V1.8A1.22 1.22 0 011.75.6h46.5a1.22 1.22 0 011.2 1.2V37a1.22 1.22 0 01-1.2 1.2A1.3 1.3 0 0147 37V3.1H3v43.7h33.9a1.22 1.22 0 011.2 1.2c-.05.6-.65 1.4-1.25 1.4z"/><path fill="none" stroke="#494949" stroke-linecap="round" stroke-linejoin="round" d="M24.95 30.6v-4.1m-15.3-1.8h4.1m3.2.1h6.3m3.4 0h6.4m3.4-.1h3.3m-13.1.1A1.7 1.7 0 1025 26.5a1.69 1.69 0 001.65-1.7zm3.4 13.9H20a.43.43 0 01-.4-.4V31a.43.43 0 01.4-.4h10.1a.43.43 0 01.4.4v7.3a.43.43 0 01-.45.4zm-8.2 1.6h6.2M15.25 23v-3.6m19.5 3.7v-3.7M17 24.7a1.7 1.7 0 10-1.7 1.7 1.69 1.69 0 001.7-1.7zm3.35-6.8h-10.1a.43.43 0 01-.4-.4v-7.3a.43.43 0 01.4-.4h10.1a.43.43 0 01.4.4v7.3a.43.43 0 01-.4.4zm-8.2 1.5h6.2m18.1 5.3a1.7 1.7 0 10-1.7 1.7 1.69 1.69 0 001.7-1.7zm3.4-6.8h-10.2a.43.43 0 01-.4-.4v-7.3a.43.43 0 01.4-.4h10.1a.43.43 0 01.4.4v7.3c.1.2-.1.4-.3.4zm-8.2 1.5h6.2"/></g></svg>