<svg xmlns="http://www.w3.org/2000/svg" viewBox="0 0 50 50"><path fill="#e589ef" d="M48.3 26l.5 4.3-47 17.2.1-9.1.3-5.4L49 15.9l-.7 3.8z"/><path fill="#f799ff" d="M48.3 9.1l-.5 7.8L1.9 33.7v-10l.3-4.5L48.5 2.4z"/><path fill="#444" d="M36.8 49.4h-35c-.7 0-1.2-.5-1.2-1.2V1.8c0-.7.5-1.2 1.2-1.2h46.5c.7 0 1.2.5 1.2 1.2V37c0 .7-.5 1.2-1.2 1.2s-1.2-.5-1.2-1.2V3.1H3v43.7h33.9c.7 0 1.2.5 1.2 1.2-.1.6-.6 1.4-1.3 1.4z"/><path fill="none" stroke="#494949" stroke-linecap="round" stroke-linejoin="round" d="M25 30.6v-4.1M9.6 24.7h4.2m3.2.1h6.2m3.4 0H33m3.5-.1h3.3m-13.2.1c0-.9-.8-1.7-1.7-1.7-.9 0-1.7.8-1.7 1.7s.8 1.7 1.7 1.7c1 0 1.8-.8 1.7-1.7zM30 38.7H20c-.2 0-.4-.2-.4-.4V31c0-.2.2-.4.4-.4h10.1c.2 0 .4.2.4.4v7.3c0 .2-.2.4-.5.4zm-8.1 1.6H28M15.2 23v-3.6m19.6 3.7v-3.7M17 24.7c0-.9-.8-1.7-1.7-1.7-.9 0-1.7.8-1.7 1.7 0 .9.8 1.7 1.7 1.7.9 0 1.7-.7 1.7-1.7zm3.4-6.8H10.2c-.2 0-.4-.2-.4-.4v-7.3c0-.2.2-.4.4-.4h10.1c.2 0 .4.2.4.4v7.3c0 .2-.1.4-.3.4zm-8.3 1.5h6.3m18.1 5.3c0-.9-.8-1.7-1.7-1.7s-1.8.8-1.8 1.7c0 .9.8 1.7 1.7 1.7 1 0 1.7-.7 1.8-1.7zm3.3-6.8H29.6c-.2 0-.4-.2-.4-.4v-7.3c0-.2.2-.4.4-.4h10.1c.2 0 .4.2.4.4v7.3c.1.2-.1.4-.3.4zm-8.2 1.5h6.2"/></svg>