<svg xmlns="http://www.w3.org/2000/svg" version="1" viewBox="0 0 50 50"><path fill="#00C8E2" d="M13.55 43.913L45.925 32.13A22.049 22.049 0 0047.108 25c0-12.205-9.903-22.108-22.108-22.108S2.892 12.795 2.892 25c0 8.014 4.27 15.036 10.658 18.913z"/><path fill="#00DFFC" d="M35.71 5.791a21.991 21.991 0 00-10.935-2.899c-9.504 0-17.61 6.005-20.734 14.425L35.71 5.791z"/><path fill="#031326" d="M25 48.358C12.121 48.358 1.642 37.88 1.642 25 1.642 12.121 12.121 1.642 25 1.642c12.88 0 23.358 10.479 23.358 23.358 0 2.578-.418 5.113-1.243 7.535a1.251 1.251 0 01-2.367-.807 20.8 20.8 0 001.11-6.729c0-11.501-9.357-20.858-20.858-20.858S4.142 13.499 4.142 25 13.499 45.858 25 45.858c2.146 0 4.265-.326 6.297-.968a1.244 1.244 0 011.568.814 1.248 1.248 0 01-.814 1.568A23.326 23.326 0 0125 48.358z"/><path fill="#031326" d="M25 42.953c-9.899 0-17.953-8.054-17.953-17.953S15.101 7.047 25 7.047 42.953 15.101 42.953 25 34.899 42.953 25 42.953zm0-35.406c-9.624 0-17.453 7.83-17.453 17.453 0 9.624 7.83 17.453 17.453 17.453 9.624 0 17.453-7.829 17.453-17.453 0-9.624-7.829-17.453-17.453-17.453zm7.358 26.149z"/><path fill="#031326" d="M33.665 32.426c0-.131-.047-.317-.121-.532L26.41 14.722c-.196-.495-.607-.756-1.102-.756-.495 0-.934.261-1.139.756l-7.834 18.834h2.68l3.1-7.778 9.254 7.479c.374.299.644.439.99.439.699 0 1.306-.523 1.306-1.27zm-10.729-8.693l2.362-5.929 4.641 11.448-7.003-5.519z"/></svg>