<svg xmlns="http://www.w3.org/2000/svg" id="Camada_1" x="0" y="0" version="1.1" viewBox="0 0 50 50" xml:space="preserve"><style>.st2{fill:#031326}</style><path fill="#00dffc" d="M28.6 4.6c-1.1-1-2.4-1.5-3.8-1.5s-2.7.5-3.7 1.5L4.7 21.4c-2.2 2.2-2.3 3.5-1.5 4.4l33.9-12.3-8.5-8.9z"/><path fill="#00c8e2" d="M45.8 21.5L37.4 13 3.2 25.4c1.6 1.8 6.8 2.1 9.2 3.6 1.7 1.1-5.5 2.6-4 4 1.3 1.3 7.3 2.6 9.5 3.9l29-10.5c1-1.3 1-2.8-1.1-4.9z"/><path d="M24.7 5.2c1 0 1.9.3 2.6 1l5.9 6c.5.5.5 1.7.2 2l-2.9-2.4-.6 3.5-2.4-1.3-4 2.5-1.3-5.3-2.1 4.6h-5.3c-1 0-.9-1.1.2-2.1 2.1-2.3 6.1-6.2 7.4-7.5.6-.6 1.4-.9 2.3-1zm-7.6 25.1c.4 0 12.2 1.6 7.7 2.8-1.7.5-9.8-2.8-7.7-2.8z" class="st2"/><path d="M24.7 48.1c-.7 0-1.3-.1-1.8-.3-1-.4-1.7-1.1-1.9-2.1-.2-1.1-.7-1.3-2.1-1.5-1-.2-2-.4-2.9-1.2-1.5-1.6.1-3.3.7-4l.6-.6c-.7-.5-2.8-1.1-4.3-1.6-2.9-.9-4.7-1.6-5.6-2.5-.4-.4-.6-1-.5-1.6.2-1.2 1.5-1.9 3.1-2.6.1-.1.3-.1.4-.2-.8-.3-1.8-.6-2.8-.8-2.9-.8-5.6-1.5-6.1-3.7-.5-1.9 1-3.7 2.2-4.9L20.2 3.7c1.2-1.2 2.8-1.9 4.6-1.9 1.8 0 3.4.6 4.7 1.8l17 17.4c1.7 1.7 2.3 3.3 2 4.8-.7 3-4.9 4.4-8.9 5.8-1.5.5-2.9 1-3.9 1.5.2.1.3.2.4.2 1.4.8 3.6 2 2.8 3.9-.9 2.3-2.6 2.8-4.1 3.2-1.2.3-2.4.6-3.7 1.7.6.3 1.4.8 1.5 1.7.1.4 0 1.1-.8 1.7-1.7 1.5-4.7 2.6-7.1 2.6zm-6.6-6.7c.3.2.8.3 1.3.4 1.4.2 3.6.6 4.2 3.6 0 0 0 .1.3.2 1.1.4 3.8-.2 5.6-1.3-.6-.3-1.2-.7-1.3-1.5-.1-.4 0-1 .6-1.7 2-2 3.9-2.5 5.3-2.9 1.4-.4 2-.6 2.4-1.4-.3-.3-1.2-.8-1.6-1-1.3-.7-2.3-1.3-2.4-2.4 0-.3.1-1 .8-1.5 1.3-.9 3.3-1.6 5.4-2.3 2.9-1 6.9-2.4 7.3-4 .2-.8-.6-1.8-1.3-2.5l-17-17.3c-.7-.7-1.8-1.1-2.9-1.1s-2.1.4-2.8 1.1L5.6 22.2C3.9 23.9 4 24.6 4 24.7c.2.8 2.7 1.4 4.4 1.9s3.4.9 4.7 1.7c.8.5.9 1.2.8 1.5-.1 1.2-1.3 1.7-2.8 2.5-.3.2-.8.4-1.2.6 1 .5 2.7 1 3.9 1.4 2.8.9 4.6 1.5 5.5 2.4 1.6 1.6 0 3.3-.7 4-.1.2-.4.5-.5.7z" class="st2"/></svg>