<svg xmlns="http://www.w3.org/2000/svg" id="Layer_1" x="0" y="0" version="1.1" viewBox="0 0 50 50" xml:space="preserve"><style>.st2{fill:none;stroke:#444;stroke-linecap:round;stroke-linejoin:round}</style><path fill="#dc5e82" d="M46.8 23.4l-.8.3-25.2 9.2-13.5 4.9c-2.4-3.3-3.9-7.3-4.1-11.7V25c0-1.1.1-2.2.3-3.3C4.9 11.2 14 3.1 25 3.1c5.5 0 10.6 2.1 14.5 5.5 4.2 3.6 6.9 8.9 7.3 14.8z"/><path fill="#f56991" d="M25 3.1c5.5 0 10.6 2.1 14.5 5.5L3.3 21.7C4.9 11.2 14 3.1 25 3.1z"/><path d="M36.7 19.6c-.9-.2-1.9-.4-2.9-.5m-7.3-.7h-3m-7.3.6c-1 .1-2 .3-2.9.5m-6.5 2.2c-.6.3-1.3.7-1.8 1.1-1.1.9-1.8 1.8-1.8 2.7v.5c.5 3.4 8 6.2 17.7 6.8 1.3.2 2.7.2 4.1.2 11.7 0 21.3-3.1 21.9-6.9v-.5c0-.6-.3-1.2-.8-1.8-.3-.3-.6-.6-1-.9-.6-.4-1.2-.8-1.8-1.1m-24.5-8.5c-.2.9-.4 1.9-.5 2.9m-.6 7.3v3m.6 7.3c.1 1 .3 2 .5 2.9" class="st2"/><path d="M21 6.7c.3-.6.7-1.3 1.1-1.8C23 3.8 24 3.1 25 3.1c4 0 7.3 9.8 7.3 21.9S29 46.9 25 46.9c-1 0-2-.7-2.9-1.8-.4-.6-.8-1.2-1.1-1.8" class="st2"/><path fill="none" stroke="#444" stroke-linecap="round" stroke-linejoin="round" stroke-width="2.5" d="M46.9 25v1s0 0 0 0C46.3 37.7 36.7 46.9 25 46.9c-7.3 0-13.8-3.6-17.7-9.1-2.4-3.3-3.9-7.3-4.1-11.7 0 0 0 0 0 0v-1c0-1.1.1-2.2.3-3.3C4.9 11.2 14 3.1 25 3.1c5.5 0 10.6 2.1 14.5 5.5 4.2 3.7 7 9 7.4 14.9V25z"/></svg>