<svg xmlns="http://www.w3.org/2000/svg" id="Layer_1" x="0" y="0" version="1.1" viewBox="0 0 50 50" xml:space="preserve"><style>.st0{fill:none;stroke:#494949;stroke-width:2.5;stroke-linecap:round;stroke-linejoin:round;stroke-miterlimit:10}.st3{fill:#494949}</style><path d="M47.9 18.4h-3.8m2.7-7.9l-3.6 1.1m0 13.5l3.6 1.1M2.1 18.4h3.8m-2.7 7.8l3.6-1.1m0-13.5l-3.6-1.1" class="st0"/><path fill="#e56060" d="M40.1 18.1c0 2.2-.5 4.4-1.4 6.3l-21.5 7.9c-.3-.9-.8-1.7-1.5-2.3-2.9-2.3-4.8-5.4-5.5-8.9 0-.2-.1-.3-.1-.5L38 10.4c.1.1.2.3.2.4 1.3 2.3 1.9 4.7 1.9 7.3z"/><path fill="#ff6b6b" d="M38.3 10.9l-28 10.3c0-.2-.1-.3-.1-.5-.2-.9-.3-1.8-.3-2.7.1-8 6.4-14.5 14.3-14.9 4.2-.2 8.2 1.2 11.2 4.1 1 1 1.9 2.1 2.6 3.3.1.1.2.2.3.4z"/><path d="M35.4 7.2c-3-2.9-7-4.3-11.2-4.1C16.3 3.5 10 10 9.9 18c-.1 4.7 2.1 9.1 5.8 12 1.1.9 1.8 2.3 1.8 3.7v1c-.8.3-1.4 1-1.4 1.9s.6 1.6 1.4 1.9v2.2c0 3.4 2.8 6.2 6.2 6.2h2.7c3.4 0 6.2-2.8 6.2-6.2v-2.2c.8-.3 1.4-1 1.4-1.9s-.6-1.6-1.4-1.9v-1c0-1.5.7-2.9 1.8-3.7 3.7-2.9 5.8-7.2 5.8-11.9-.1-4.1-1.8-8-4.8-10.9zm-4.2 33.6c0 2.6-2.2 4.8-4.8 4.8h-2.7c-2.6 0-4.8-2.2-4.8-4.8v-2.1h12.4c0 .7-.1 1.4-.1 2.1zm.7-3.4H18.1c-.4 0-.7-.3-.7-.7s.3-.7.7-.7h13.7c.4 0 .7.3.7.7.1.3-.3.7-.6.7zM25 12.6c-.8 0-1.4-.6-1.4-1.4 0-.8.6-1.4 1.4-1.4s1.4.6 1.4 1.4-.6 1.4-1.4 1.4zm8.5 16.3c-1.4 1.1-2.3 2.9-2.3 4.8v.9h-2.1v-10l2.7-2.7c.4.2.9.4 1.4.4 1.5 0 2.7-1.2 2.7-2.7s-1.2-2.7-2.7-2.7-2.7 1.2-2.7 2.7c0 .5.1 1 .4 1.4L28 23.9c-.1.1-.2.3-.2.5v10.3h-2.1V13.9c1.2-.3 2.1-1.4 2.1-2.6 0-1.5-1.2-2.7-2.7-2.7s-2.7 1.2-2.7 2.7c0 1.3.9 2.3 2.1 2.6v20.7h-2.1V27c0-.2-.1-.4-.2-.5l-2.9-2.9c.2-.4.4-.9.4-1.4 0-1.5-1.2-2.7-2.7-2.7s-2.7 1.2-2.7 2.7 1.2 2.7 2.7 2.7c.5 0 1-.1 1.4-.4l2.7 2.7v7.3H19v-.9c0-1.9-.9-3.7-2.3-4.8-3.4-2.7-5.3-6.7-5.3-11 .1-7.1 5.9-13.2 13-13.5 3.8-.2 7.4 1.1 10.2 3.7s4.3 6.2 4.3 10c-.2 4.4-2.1 8.3-5.4 10.9zm-1.6-9.4c0-.8.6-1.4 1.4-1.4s1.4.6 1.4 1.4-.6 1.4-1.4 1.4c-.8 0-1.4-.6-1.4-1.4zm-15.1 4.1c-.8 0-1.4-.6-1.4-1.4s.6-1.4 1.4-1.4 1.4.6 1.4 1.4c-.1.8-.7 1.4-1.4 1.4z" class="st3"/><path d="M31.9 11.3c-1.1 0-2.1.9-2.1 2.1 0 .3.1.6.2.9l-2.1 2.1c-.1.1-.2.3-.2.5v3.4c0 .4.3.7.7.7.4 0 .7-.3.7-.7V17l1.9-1.9c.3.1.6.2.9.2 1.1 0 2.1-.9 2.1-2.1s-1-1.9-2.1-1.9zm0 2.7c-.4 0-.7-.3-.7-.7s.3-.7.7-.7c.4 0 .7.3.7.7s-.4.7-.7.7zm-10.5 3.6c.1-.3.2-.6.2-.9 0-1.1-.9-2.1-2.1-2.1s-2.1.9-2.1 2.1.9 2.1 2.1 2.1c.3 0 .6-.1.9-.2l.5.5v3.1c0 .4.3.7.7.7.4 0 .7-.3.7-.7v-3.4c0-.2-.1-.4-.2-.5l-.7-.7zm-2.6-.8c0-.4.3-.7.7-.7.4 0 .7.3.7.7s-.3.7-.7.7c-.4 0-.7-.4-.7-.7zm14 6.3l-2.1 2.1c-.1.1-.2.3-.2.5v2.1c0 .4.3.7.7.7.4 0 .7-.3.7-.7V26l1.9-1.9c.3-.3.3-.7 0-1-.3-.2-.8-.2-1 0zm-14 6.7c.4 0 .7-.3.7-.7v-1.4c0-.4-.3-.7-.7-.7-.4 0-.7.3-.7.7v1.4c0 .4.3.7.7.7z" class="st3"/><path d="M40.1 18.1c0 2.2-.5 4.4-1.4 6.3-1 2.1-2.5 4-4.4 5.5-1.1.9-1.8 2.3-1.8 3.7v1c.8.3 1.4 1 1.4 1.9s-.6 1.7-1.4 1.9v2.2c0 3.4-2.8 6.2-6.2 6.2h-2.7c-3.4 0-6.2-2.8-6.2-6.2v-2.2c-.8-.3-1.4-1-1.4-1.9s.6-1.6 1.4-1.9v-1c0-.5-.1-1-.2-1.4-.3-.9-.8-1.7-1.5-2.3-2.9-2.3-4.8-5.4-5.5-8.9 0-.2-.1-.3-.1-.5-.1-.7-.2-1.6-.2-2.5.1-8 6.4-14.5 14.3-14.9 4.2-.2 8.2 1.2 11.2 4.1 1 1 1.9 2.1 2.6 3.3.1.1.2.3.2.4 1.3 2.2 1.9 4.6 1.9 7.2z" class="st0"/></svg>