<svg xmlns="http://www.w3.org/2000/svg" id="Camada_3" x="0" y="0" version="1.1" viewBox="0 0 50 50" xml:space="preserve"><style>.st2,.st3,.st4{fill:none;stroke:#444;stroke-linecap:round;stroke-linejoin:round;stroke-miterlimit:10}.st3{stroke-width:2}.st4{stroke-width:2.5}</style><path fill="#fcc34f" d="M45.47 16.91l.81 10.41L5.22 42.01l-1.25-2.57 1.16-1.2.26-2.23-3.46-14.59 35.86-13.4 3.53 3.57z"/><path fill="#fdcf72" d="M35.85 5.6l-7.14-2.99-6.97-.23-6.02 1.53-10.64 9.18-3.56 12.82 40.95-14.57z"/><path d="M10.66 32.28c-1.69-2.9-2.47-6.39-1.97-10.09.96-6.99 6.68-12.57 13.69-13.37 9.48-1.08 17.51 6.31 17.51 15.57 0 4.04-1.53 7.72-4.04 10.5" class="st2"/><path d="M16.89 32.32c-.74-2.33-1.16-5.03-1.16-7.93 0-8.66 3.8-15.68 8.49-15.68s8.49 7.02 8.49 15.68c0 5.03-.68 7.91-2.67 10.78" class="st2"/><path d="M16.89 32.32c2.15-.84 4.65-1.31 7.33-1.31 4.79 0 9.03 1.53 11.64 3.89M12.58 13.89c2.61 2.36 6.85 3.89 11.64 3.89 4.79 0 9.03-1.53 11.64-3.89M8.54 24.4h31.35m-15.67 8.97V8.72" class="st2"/><path d="M12.45 45.47s11.54.06 13.71.72c1.82.55 11.19-3.78 14.21-5.21.49-.23.65-.85.33-1.29a3.462 3.462 0 00-4.07-1.21l-6.71 2.61c-.6.23-1.26.25-1.87.05L24.51 40" class="st3"/><path d="M9.42 38.24s3.19-3.64 6.05-3.64 4.9 1.32 7.14 1.65c1.05.15 2.59.24 3.95.28 1.58.05 2.84 1.35 2.84 2.93 0 .3-.24.54-.54.54H19" class="st3"/><path d="M10.24 47.99l1.37-.58a1.52 1.52 0 00.81-2l-3.24-7.66a1.52 1.52 0 00-2-.81l-1.37.58a1.52 1.52 0 00-.81 2l3.24 7.66c.33.77 1.22 1.13 2 .81zM6.07 37.1C-1.95 25.13 2.88 8.22 16.44 3.66m4.57-1.18C36.65-.16 49.41 15.07 45.6 28.97" class="st4"/><path d="M13.35 1.95l3.54 1.56-1.92 3.65m33.51 19.16l-2.88 2.65-2.6-3.14" class="st4"/></svg>