<svg xmlns="http://www.w3.org/2000/svg" id="Camada_3" x="0" y="0" version="1.1" viewBox="0 0 50 50" xml:space="preserve"><style>.st3,.st4{fill:none;stroke:#444;stroke-width:1.5;stroke-linecap:round;stroke-linejoin:round;stroke-miterlimit:10}.st4{stroke-width:.5}</style><path fill="#f799ff" d="M28.61 1.9c-.98-.12-1.97-.2-2.98-.2s-2.03-.07-2.98.2C4.76 6.95 3.75 15.34 1.86 25.11l40.43-14.67c-3.31-2.77-9.17-7.96-13.68-8.54z"/><path fill="#e589ef" d="M42.07 10.45L1.87 24.6c-.28 1.43.22 2.19.22 3.71 0 7.17 6.06 13.23 11.16 17.5L47.02 33.8c.28-1.43 1.24-3.97 1.24-5.48-.01-7.19-1.09-13.6-6.19-17.87z"/><path fill="none" stroke="#444" stroke-linecap="round" stroke-linejoin="round" stroke-miterlimit="10" stroke-width="2.5" d="M45.68 35.75c1.64-3.18 2.57-6.8 2.57-10.63 0-12.81-10.38-23.19-23.19-23.19S1.87 12.31 1.87 25.12s10.38 23.19 23.19 23.19"/><path d="M7.62 34.24l4.31 1.14c-5.68-7.2-4.45-17.63 2.75-23.3s17.63-4.45 23.3 2.75 4.8 18.25-3.87 24.08m-21.03-7.65l-1.15 4.12" class="st4"/><path d="M10.89 39.04h21.1l-2.59-2.67m.14 5.12l2.45-2.45" class="st4"/><circle cx="25.04" cy="24.13" r="5.1" class="st3"/><path d="M36.54 25.71v-3.14l-3.35-.28c-.21-.92-.58-1.81-1.08-2.61l2.17-2.57-2.22-2.22-2.57 2.17c-.8-.51-1.69-.88-2.61-1.09l-.28-3.35h-3.14l-.28 3.35c-.92.21-1.81.58-2.61 1.08L18 14.88l-2.22 2.22 2.17 2.57c-.51.8-.88 1.69-1.09 2.61l-3.35.28v3.14l3.35.28c.21.92.58 1.81 1.08 2.61l-2.17 2.57L18 33.38l2.57-2.17c.8.51 1.69.88 2.61 1.09l.28 3.35h3.14l.28-3.35c.92-.21 1.81-.58 2.61-1.08l2.57 2.17 2.22-2.22-2.18-2.57c.51-.8.88-1.69 1.09-2.61l3.35-.28z" class="st3"/></svg>