<svg xmlns="http://www.w3.org/2000/svg" id="Layer_1" x="0" y="0" version="1.1" viewBox="0 0 50 50" xml:space="preserve"><style>.st2{fill:none;stroke:#494949;stroke-linecap:round;stroke-linejoin:round;stroke-miterlimit:10}</style><path fill="#dc5e82" d="M11 18.4v.3c0 4 1.7 7.5 4.3 10.1.5.4.9.9 1.3 1.4l9.8-3.6 7.5-2.7 4.6-1.7c.3-1.1.4-2.2.4-3.4 0-3.5-1.3-6.8-3.5-9.2l-.3-.6-1.5.6-9.6 3.5-5.6 2.1-2.4.8-4.9 1.8-.1.6z"/><path fill="#f56991" d="M11 18.4l5.4-2 1-.4 5.6-2.1 12-4.4.4-.2-.3-.3C32.6 6.4 29 4.7 25 4.7c-7.4 0-13.5 5.8-13.9 13.1l-.1.6z"/><g id="bulb"><path d="M39 18.7c0 1.2-.1 2.3-.4 3.4-.7 2.6-2 4.9-3.9 6.7-1.7 1.6-3.1 3.6-4 5.8-.1.3-.2.5-.3.8-.2.7-.4 1.4-.5 2.1v.3c-.2.9-.2 1.8-.3 2.7 0 .5-.3 1-1 1.5-.1.1-.2.1-.3.2-.4.2-.9.4-1.5.5-.5.1-1.1.2-1.7.2-1.2 0-2.3-.2-3.2-.7-.2-.1-.3-.2-.4-.3-.6-.4-.9-.9-.9-1.4 0-.9-.1-1.8-.3-2.7v-.3c-.1-.7-.3-1.4-.5-2.1l-.3-.9c-.6-1.6-1.6-3.1-2.7-4.4-.4-.5-.8-.9-1.3-1.4-2.6-2.5-4.3-6.1-4.3-10.1v-.9c.3-7.2 6.4-13 13.8-13 4 0 7.6 1.7 10.1 4.3l.4.4c2.2 2.5 3.5 5.7 3.5 9.3z" class="st2"/><path d="M29.8 37.8c-.2.4-.6.8-1.2 1.1-2 1.1-5.2 1.1-7.1 0-.6-.3-1-.7-1.2-1.1m10.3-3.3c-.3.5-.8.9-1.4 1.3-2.3 1.3-6.1 1.3-8.4 0-.7-.4-1.1-.8-1.4-1.3m9.1 7.4c-.1 1.9-1.6 3.4-3.6 3.4-1.9 0-3.5-1.5-3.6-3.5" class="st2"/></g><path fill="#494949" d="M25 2.7c8.8 0 16 7.2 16 16 0 4.4-1.7 8.5-4.9 11.5-1.6 1.5-2.8 3.3-3.5 5.1-.1.2-.2.5-.3.7-.2.6-.4 1.3-.5 1.9v.2c-.1.9-.2 1.6-.2 2.4 0 .6-.2 1.6-1.1 2.5-.6 2.5-2.8 4.3-5.4 4.3-2.7 0-4.9-1.9-5.4-4.5-.6-.7-1-1.5-1-2.3 0-.7-.1-1.5-.2-2.4v-.2c-.1-.6-.3-1.3-.5-1.9-.1-.2-.2-.5-.3-.7-.8-1.9-1.9-3.6-3.5-5.1C10.8 27.1 9 23 9 18.7c0-8.9 7.2-16 16-16m0-2.5C14.8.2 6.5 8.5 6.5 18.7c0 5.1 2 9.8 5.7 13.3 1.3 1.3 2.3 2.7 2.9 4.2.1.2.1.3.2.5.2.5.3 1.1.4 1.6v.2c.1.8.2 1.4.2 2 0 1.2.4 2.4 1.2 3.4 1 3.4 4.1 5.8 7.7 5.8 3.6 0 6.6-2.3 7.7-5.6.9-1.1 1.4-2.4 1.4-3.7 0-.6.1-1.2.2-1.9v-.2c.1-.5.2-1 .4-1.6.1-.2.1-.4.2-.6.6-1.5 1.6-2.9 2.9-4.2 3.7-3.5 5.7-8.2 5.7-13.3C43.5 8.5 35.2.2 25 .2z"/></svg>