<svg xmlns="http://www.w3.org/2000/svg" viewBox="0 0 50 50"><defs><style>.cls-5{fill:#444}</style></defs><g id="Layer_1" data-name="Layer 1"><path fill="none" stroke="#494949" stroke-miterlimit="10" stroke-width="3.11" d="M-50.54-96.7h425.11v443.81H-50.54z"/><path fill="#bf94f7" d="M34.1 1.86H15.4a11.74 11.74 0 00-11.7 11.8v3.2l36.4-13.3a11.32 11.32 0 00-6-1.7z"/><path fill="#a475ef" d="M45.9 32.36v-18.7a11.72 11.72 0 00-5.8-10.1L3.7 16.76v15.5a11.82 11.82 0 0011.8 11.8h6l24-8.7a15.44 15.44 0 00.4-3z"/><circle cx="24.8" cy="22.96" r="12" fill="none" stroke="#444" stroke-miterlimit="10" stroke-width="2.5"/><circle cx="24.8" cy="22.96" r="8.5" class="cls-5"/><circle cx="36.8" cy="8.76" r="2.3" class="cls-5"/><path d="M45.2 43v-.4a2.77 2.77 0 00-.1-.9l.9-.6V41a6.19 6.19 0 00-.7-1.9V39l-1 .2a4.81 4.81 0 00-.9-1.1l.4-1-.1-.1a9.06 9.06 0 00-1.6-1.1H42l-.7.8a7.84 7.84 0 01-1.4-.2l-.2-1h-.6c-.5 0-1 .1-1.5.1h-.1l-.1 1.1a4.24 4.24 0 00-1.4.6l-.8-.7a17.38 17.38 0 00-1.5 1.3l-.1.1.6.9a7.46 7.46 0 00-.7 1.2l-1.1-.1v.1A6.46 6.46 0 0032 42v.1l1 .4a4.87 4.87 0 00.1 1.2l-.9.5v.1a10.84 10.84 0 00.8 1.9v.1l1.1-.2a6.47 6.47 0 00.8.9l-.4 1 .1.1a7.84 7.84 0 001.8 1.1h.1l.7-.8c.3.1.7.2 1.1.3l.2 1h.7a7.72 7.72 0 001.5-.2h.1l.1-1.1A4.87 4.87 0 0042 48l.8.7h.1a10.1 10.1 0 001.6-1.3l.1-.1-.5-.9a3.59 3.59 0 00.7-1l1.1.1v-.1a4.49 4.49 0 00.5-1.9v-.1zm-6.1 3a3.5 3.5 0 113.5-3.5 3.54 3.54 0 01-3.5 3.5z" class="cls-5"/><path d="M41.5 42.66v-.6l.4-.2c-.1-.3-.2-.5-.3-.8l-.4.1a1.76 1.76 0 00-.4-.5l.2-.4a1.61 1.61 0 00-.7-.4l-.3.3c-.2-.1-.4-.1-.6-.2l-.1-.4h-.2a1.27 1.27 0 00-.6.1v.4c-.2.1-.4.1-.6.2l-.3-.3a2.65 2.65 0 00-.6.5l.2.4c-.1.2-.2.3-.3.5h-.4a1.88 1.88 0 00-.2.8l.4.2a.9.9 0 00.1.5l-.4.2c.1.3.2.5.3.8l.4-.1c.1.1.2.3.3.4l-.2.4a2.51 2.51 0 00.7.4l.3-.3c.1 0 .3.1.4.1l.1.4h.2a1.27 1.27 0 00.6-.1v-.4a.76.76 0 00.4-.2l.3.3a3 3 0 00.7-.5l-.2-.4c.1-.1.2-.3.3-.4h.4a1.88 1.88 0 00.2-.8h-.1zM39 44a1.4 1.4 0 111.4-1.4A1.37 1.37 0 0139 44z" class="cls-5"/><path fill="none" stroke="#444" stroke-linecap="round" stroke-miterlimit="10" stroke-width="2.5" d="M28.7 44.26H14.3a10.71 10.71 0 01-10.7-10.7v-20.8a10.71 10.71 0 0110.7-10.7h20.8a10.73 10.73 0 0110.8 10.7v22.7"/></g></svg>