<svg xmlns="http://www.w3.org/2000/svg" id="Layer_1" x="0" y="0" version="1.1" viewBox="0 0 50 50" xml:space="preserve"><style>.st1{fill:#444}.st2{fill:none;stroke:#444;stroke-width:.5;stroke-linecap:round;stroke-linejoin:round;stroke-miterlimit:10}</style><path fill="#46b8b0" d="M32.2 1.6H10.8c-1.6 0-1.6 4.4-1.6 6l-.3 15-.6 11.8.7 13.3 1.3.9L36 39.5l-.2-7.2c1.8-.6 12.5.2 12.6-1.7L48.2 14l-12.1-1.2-.7-8.2c0-1.6-1.6-3-3.2-3z"/><path d="M28.1 33.9l-2.2-2.5h-2c-1.1 0-2.1-.9-2.1-2.1V15.7c0-1.1.9-2.1 2.1-2.1h22.2c1.1 0 2.1.9 2.1 2.1v13.6c0 1.1-.9 2.1-2.1 2.1H31.3l-2.2 2.5c-.3.3-.8.3-1 0zm-4.2-19c-.4 0-.8.4-.8.8v13.6c0 .4.4.8.8.8h2.2c.2 0 .4.1.6.3l1.9 2.2 1.8-2.1c.2-.2.5-.3.8-.3h14.9c.4 0 .8-.4.8-.8V15.7c0-.4-.4-.8-.8-.8H23.9z" class="st1"/><path d="M28.5 24.4c-1.4 0-2.6-1.2-2.6-2.6 0-1.4 1.2-2.6 2.6-2.6 1.4 0 2.6 1.2 2.6 2.6 0 1.5-1.1 2.6-2.6 2.6zm0-3.8c-.7 0-1.3.6-1.3 1.3 0 .7.6 1.3 1.3 1.3s1.3-.6 1.3-1.3c0-.8-.5-1.3-1.3-1.3zm6.3 3.8c-1.4 0-2.6-1.2-2.6-2.6 0-1.4 1.2-2.6 2.6-2.6 1.4 0 2.6 1.2 2.6 2.6 0 1.5-1.2 2.6-2.6 2.6zm0-3.8c-.7 0-1.3.6-1.3 1.3 0 .7.6 1.3 1.3 1.3.7 0 1.3-.6 1.3-1.3 0-.8-.6-1.3-1.3-1.3zm6.2 3.8c-1.4 0-2.6-1.2-2.6-2.6 0-1.4 1.2-2.6 2.6-2.6 1.4 0 2.6 1.2 2.6 2.6 0 1.5-1.1 2.6-2.6 2.6zm0-3.8c-.7 0-1.3.6-1.3 1.3 0 .7.6 1.3 1.3 1.3.7 0 1.3-.6 1.3-1.3 0-.8-.5-1.3-1.3-1.3z" class="st1"/><path d="M16.8 31.1l5.4-5.4m-5.4-1.2l5.4-5.3" class="st2"/><path fill="none" stroke="#444" stroke-linecap="round" stroke-linejoin="round" stroke-miterlimit="10" stroke-width="2.5" d="M35.4 42.3V31.9H46c1.2 0 2.3-1 2.3-2.3V15.1c0-1.2-1-2.3-2.3-2.3H35.4V5.1c0-2-1.6-3.6-3.6-3.6h-20c-2 0-3.6 1.6-3.6 3.6v39.8c0 2 1.6 3.6 3.6 3.6h16.4"/><path fill="none" stroke="#444" stroke-miterlimit="10" stroke-width=".5" d="M18 5.6h7.2c1.3 0 2.4-1.1 2.4-2.4v-1c0-.3-.3-.6-.6-.6H16.2c-.3 0-.6.3-.6.6v.9c0 1.4 1.1 2.5 2.4 2.5z"/><path fill="#444" stroke="#444" stroke-miterlimit="10" stroke-width=".5" d="M8.8 41h26.4"/><path d="M34.4 41.2V30.9m0-17V3.3" class="st2"/></svg>