<svg xmlns="http://www.w3.org/2000/svg" id="Layer_1" x="0" y="0" version="1.1" viewBox="0 0 50 50" xml:space="preserve"><style>.st2{fill:#031326}</style><path fill="#f799ff" d="M36.4 7.5c-5.1-1-8.6-.8-11.3.2-2.7-1-6.2-1.2-11.3-.2-4 .8-7 3.6-8 5.9-.3.6-.7 2-.9 4.2-.3 3.3.2 4 .2 4.4 0 .3-.4.9-1 1.6L41.7 10c-1.4-1.2-3.2-2.1-5.3-2.5z"/><path fill="#e589ef" d="M45.9 29.7c-.1-.3-.2-.6-.1-.8.2-.4.9-.5 1.5-.7.7-.2 1.4-.7 1-1.4-.2-.3-.8-1.3-1.5-2.2-.8-1.1-1.7-2.1-1.7-2.6s.5-1.1.2-4.4c-.2-2.2-.7-3.5-.9-4.2C44 12.3 43 11 41.7 10L4.1 23.6c-.2.3-.5.6-.7.9-.7.9-1.4 1.8-1.5 2.2-.4.8.3 1.2 1 1.4.7.2 1.4.3 1.5.7.1.2 0 .5-.1.8-.1.4-.3.7-.3 1 0 .5.4.5.4.6 0 .1-.4.2-.4.8.1.6.8.7.9 1.2.1.8-1 1.4-.6 2.8.2 1 .9 1.6 3.9 1.5 2.1 0 3.2.3 3.4 1.5v4l34.6-12.6c0-.2-.2-.4-.3-.7z"/><path d="M49.3 26.3c-.3-.6-1.4-2.1-1.6-2.4l-.3-.4c-.4-.5-1-1.3-1.2-1.6v-.1c.1-.6.4-1.7.2-4.4-.2-2.4-.7-3.9-1-4.5-1.1-2.5-4.3-5.7-8.9-6.6-5.1-1-8.8-.8-11.5.1-2.7-.9-6.4-1.1-11.5-.1-4.5 1-7.8 4.1-8.9 6.7-.3.7-.8 2.1-1 4.5-.3 2.7 0 3.8.2 4.4v.1c-.2.3-.8 1-1.2 1.5l-.3.4c-.2.3-1.3 1.7-1.6 2.4-.3.6-.3 1.2-.1 1.7.3.6.9 1.1 1.8 1.4l.3.1c.1 0 .2 0 .3.1-.1.3-.3.7-.3 1.2 0 .2.1.4.1.6-.1.3-.1.5-.1.9.1.6.5 1 .8 1.3 0 0 0 .1-.1.1-.3.5-.8 1.4-.5 2.8.5 2 2.4 2.5 5 2.4 1.9 0 2.2.3 2.2.5v3.9c0 .6.5 1.1 1.1 1.1s1.1-.5 1.1-1.1V39c-.5-2.5-3.2-2.4-4.5-2.4-2.6 0-2.7-.4-2.8-.7-.1-.4 0-.7.3-1.1.5-.5.7-1 .7-1.7 0-.6-.4-1-.7-1.2.1-.2.2-.4.2-.6 0-.2-.1-.6-.4-.8 0-.1.1-.2.1-.2.1-.3.4-.9.1-1.6-.3-.9-1.3-1.1-2-1.3l-.3-.1c-.1 0-.1 0-.2-.1.2-.3.7-1 1.3-1.8l.3-.4c1.1-1.4 1.7-2.2 1.7-2.9 0-.2-.1-.5-.1-.7-.1-.5-.3-1.3-.1-3.7.2-2.2.7-3.4.8-3.8.9-2.1 3.7-4.5 7.2-5.2 3.2-.6 5.7-.8 7.8-.5-1.2.8-2.2 1.8-3 2.8-.5.5-.9 1.1-1.2 1.8-.3.6-.1 1.2.5 1.5.6.3 1.2.1 1.5-.5.3-.5.6-1 .9-1.4 1.3-1.5 2.7-2.7 4.6-3.5 1.9.8 3.3 2 4.6 3.5.4.5.7 1 1 1.7.3.6.9.8 1.5.6.6-.3.8-.9.6-1.5-.4-.8-.8-1.6-1.4-2.2-.9-1-1.9-2-3-2.8 2.1-.2 4.6-.1 7.8.5 3.5.7 6.3 3.2 7.2 5.2.2.4.6 1.7.8 3.8.2 2.3 0 3.2-.1 3.7-.1.2-.1.4-.1.7 0 .8.6 1.5 1.7 2.9l.3.4c.6.8 1.1 1.4 1.3 1.8-.1 0-.1 0-.2.1l-.3.1c-.7.2-1.6.4-2 1.3-.2.6-.1 1.2.1 1.6 0 .1.1.2.1.2-.3.3-.3.6-.3.8 0 .3.1.5.2.6-.3.2-.6.6-.7 1.2-.1.7.2 1.2.4 1.6.3.5.4.7.3 1.1-.1.3-.2.7-2.8.7-1.3 0-4.1-.1-4.5 2.4v4.3c0 .6.5 1.1 1.1 1.1.6 0 1.1-.5 1.1-1.1v-3.9c.1-.2.3-.5 2.2-.5 2.7.1 4.5-.4 5-2.4.3-1.3-.2-2.2-.5-2.8 0 0 0-.1-.1-.1.3-.2.7-.6.8-1.3 0-.3 0-.6-.1-.9.1-.2.1-.4.1-.6 0-.5-.1-.9-.3-1.2.1 0 .2 0 .3-.1l.3-.1c.9-.2 1.5-.7 1.8-1.4.4-.5.4-1.1.1-1.6z" class="st2"/><path d="M32.4 19.5c-2.4-1.2-5.8-.6-7.8 3.2-3.2-6.3-10.5-3.9-10.5 1 0 4.8 10.4 12.8 10.5 12.9s10.5-8.1 10.5-12.9c.1-1.9-1.1-3.5-2.7-4.2zm-3.8 9.2c.1.2.1.3.1.5 0 .6-.5 1.1-1.1 1.1-.2 0-.4-.1-.5-.1-.2.2-.4.3-.7.3-.1 0-.2 0-.3-.1 0 0 1.1 1.3.4 2.4-.4-.9-1.8-1.9-2.3-2.8.2-.1.4-.3.6-.5.6-.6 1.2-1.3 3.2-.6l.2-.6c-2.4-.8-3.2.1-3.9.7-.1.1-.3.3-.4.3-.2.1-.4.2-.6.2-.3 0-.6-.1-.8-.4-.2.1-.3.1-.5.1-.6 0-1.1-.4-1.3-1-.1-.5 0-.8.4-1.1.5-.4 1.3-.4 2.1-.1l.3-.6c-1-.4-2-.4-2.7.1-.3.2-.5.5-.6.9-.1-.2-.2-.5-.2-.8 0-1 .8-1.8 1.8-1.8h.2c.2-.7.9-1.1 1.6-1.1.3 0 .5.1.7.2.3-.3.7-.5 1.1-.5.3 0 .7.1.9.3-.3.2-.5.4-.7.7v.1c-.2.3-.5.6-.8.6-.2 0-.4 0-.6-.1l-.4.5c.2.2.5.3.8.3h.3c.2 0 .4-.1.6-.2 0 .3.1.6.2.8l.6-.2c-.1-.2-.3-.9-.1-1.3.1-.2.3-.4.5-.5h.3c.8 0 1.5.7 1.5 1.5.6.2 1 .8 1 1.5-.1.5-.5 1-.9 1.3z" class="st2"/></svg>