<svg xmlns="http://www.w3.org/2000/svg" id="Layer_1" x="0" y="0" version="1.1" viewBox="0 0 50 50" xml:space="preserve"><style>.st2{fill:#031326}</style><path fill="#e56060" d="M44.8 26.8l3.5 5.2-37.1 13.5-1.4-5.8-4.4-6.1-.9-3.4 37.7-13.3z"/><path fill="#ff6b6b" d="M41 14.1l1.3 2.7L2.9 31l.2-6v-2.7l35.7-13z"/><path d="M48.9 34.9c-.1.1-.3.1-.5.1h-4.2v3.5c0 2.4-2 4.4-4.4 4.4h-4.3l.1 5.1c0 .7-.5 1.2-1.2 1.2h-5.1c-.7 0-1.2-.6-1.2-1.2s.5-1.2 1.2-1.2h4v-3.9c0-1.3 1.1-2.4 2.4-2.4h4.2c1 0 1.9-.9 1.9-2v-4.7c0-.7.5-1.2 1.2-1.2h3.5l-3.2-6.8c-.8-1.6-1.3-3.3-1.5-5.1-1-10.4-9.8-18-20.2-17.4-9.7.5-17.5 8.7-17.9 18.6-.1 4.5 1.3 9 4 12.6 2.7 3.5 4.3 7.8 4.6 12.2h9.2c.7 0 1.2.6 1.2 1.2s-.5 1.2-1.2 1.2H11c-.7 0-1.2-.5-1.2-1.2v-.3c0-4.2-1.5-8.4-4.1-11.7-3-4.1-4.6-9.1-4.4-14.2.3-11.1 9.2-20.3 20.1-21C33.1 0 43.1 8.6 44.1 20.3c.2 1.5.6 2.9 1.3 4.3l4.2 8.5c.3.7.1 1.4-.7 1.8z" class="st2"/><path d="M35.1 19.7c-1-1.1-2.4-1.7-3.9-1.7h-.4c-.7-2.7-3.2-4.7-6-4.7-1.5 0-3 .6-4.1 1.6-1.1-1-2.5-1.6-4.1-1.6-1.7 0-3.4.8-4.6 2-1.2 1.3-1.8 3-1.7 4.7.4 5.7 9.4 13.4 9.7 13.7.2.1.4.2.6.2s.4-.1.6-.2c0 0 .9-.8 2.2-2.1 1.7 1.9 3.3 3.3 3.7 3.6.2.1.4.2.6.2s.4-.1.6-.2c.3-.3 7.8-6.7 8.2-11.5.1-1.4-.4-2.9-1.4-4zM20.7 31.9c-2.1-1.9-8.3-7.8-8.5-12-.1-1.2.4-2.5 1.2-3.4s2-1.4 3.3-1.5c1.3 0 2.6.6 3.4 1.7l.1.1c.2.2.4.2.7.2.2 0 .5-.1.6-.3.8-1.1 2-1.7 3.4-1.7 2.1 0 3.8 1.5 4.3 3.4-.5.2-.9.5-1.3.8-.9-.8-2.1-1.3-3.4-1.3-1.5 0-2.9.6-3.9 1.7s-1.5 2.5-1.4 4c.1 2.1 1.6 4.5 3.3 6.5-.8.9-1.4 1.4-1.8 1.8zm7.1 1.5c-.8-.7-2.1-1.9-3.4-3.4 0-.1-.1-.2-.2-.3l-.1-.1c-1.6-1.9-3.1-4.1-3.2-5.9-.1-1 .3-2 1-2.7s1.6-1.1 2.6-1.2c1.1 0 2 .5 2.7 1.3l.1.1c.4.3.9.3 1.3-.1.5-.6 1.2-1.1 1.9-1.2.3-.1.5-.1.8-.1 1 0 2 .4 2.6 1.2.7.7 1 1.7 1 2.7-.4 3.3-5.4 8.1-7.1 9.7z" class="st2"/></svg>