<svg xmlns="http://www.w3.org/2000/svg" id="Camada_3" x="0" y="0" version="1.1" viewBox="0 0 50 50" xml:space="preserve"><style>.st2,.st3{fill:none;stroke:#444;stroke-miterlimit:10}.st3{stroke-width:.5}</style><path fill="#c3ff68" d="M34.34 8.41l-18.47.18c-1.47.09 1.01 2.38-1.3 4.6-2.43 2.34-12.4 5.72-12.24 7.29l1.75 6.58 32.34-13.18-2.08-5.47z"/><path fill="#afe55d" d="M1.99 25.88l.97-.38c1.99 3.03 3.51 4.65 4.51 6.94 5.98 13.74 6.76 3.64 14.32 6.34l22.27-7.9 4.86-8.93c.26-2.34-8.93-6.5-11.58-8.64L1.99 25.88z"/><circle cx="25.09" cy="20.96" r="4.28" class="st2"/><path d="M25.09 25.35c-3.38 0-6.13 1.92-6.13 4.28v6.27c0 .91.74 1.65 1.65 1.65h8.96c.91 0 1.65-.74 1.65-1.65v-6.27c-.01-2.36-2.75-4.28-6.13-4.28z" class="st2"/><path d="M31.18 34.08h2.09c.66 0 1.19-.53 1.19-1.19V8.92H15.57v4.51m3.6 20.65h-2.24c-.75 0-1.36-.61-1.36-1.36V13.44l-13.69 7.9 10.74 18.61 6.56-3.79m13.45 1.02l-1.27-.8m3.24-22.94l13.69 7.9" class="st2"/><path d="M20.25 27.01a7.74 7.74 0 01-2.91-6.05A7.75 7.75 0 1129.95 27" class="st3"/><path d="M19.04 30.88c-3.31-2.06-5.52-5.73-5.52-9.92 0-6.45 5.23-11.68 11.68-11.68s11.68 5.23 11.68 11.68c0 4.27-2.29 8.01-5.72 10.04" class="st3"/><path d="M40.06 16.39c.42 1.41.64 2.9.64 4.45 0 6.55-4 12.16-9.7 14.53m-12.26-.09a15.713 15.713 0 01-9.49-14.44c0-1.36.17-2.69.5-3.95m6.04 21.26a19.513 19.513 0 01-10.4-18.94" class="st3"/><path d="M44.29 18.84c.07.66.1 1.32.1 2 0 7.4-4.11 13.83-10.17 17.15" class="st3"/><path fill="none" stroke="#444" stroke-linecap="round" stroke-linejoin="round" stroke-miterlimit="10" stroke-width="2.5" d="M42.12 33.7l6.41-11.21c.46-.81.19-1.84-.62-2.31L35.3 12.83l-.03-2.84a1.853 1.853 0 00-1.84-1.83l-16.84-.05c-1.03 0-1.87.84-1.85 1.87.02 1.32.05 2.87.05 3.02L2.33 20.2c-.81.47-1.09 1.5-.62 2.31l9.71 16.98c.46.81 1.49 1.09 2.3.64l4.93-2.76c.09-.05.28 1.04.67 1.04l11.19-.09c.69 0 1-.93 1-.93l2.55 1.36"/></svg>