<svg xmlns="http://www.w3.org/2000/svg" id="Camada_3" x="0" y="0" version="1.1" viewBox="0 0 50 50" xml:space="preserve"><style>.st2,.st3{fill:none;stroke-linecap:round;stroke-linejoin:round;stroke-miterlimit:10}.st2{stroke-width:2.5;stroke:#454444}.st3{stroke:#444}</style><path fill="#b9d7d9" d="M36.02 7.74l-11.5-5c-12.5 5.5-17.75 5.75-22 7.5l-.63 14.58L47.67 8.53l-1.65.45c0-1.11-8.88-1.24-10-1.24z"/><path fill="#a6c1c2" d="M1.89 24.82l.13 11.91c.29 2 3.38 3.19 5.38 3.47l10.62 1.28c.25.03-2.99 3.34-2.75 3.25l32.4-11.51V11.39c0-1.39-1.38-2.37-2.69-1.9L1.89 24.82z"/><path d="M32.04 43.37v-2.96h6.98" class="st2"/><path d="M13.54 7.7H8.6a6.89 6.89 0 00-6.89 6.89V34.1c0 3.8 3.08 6.89 6.89 6.89l9.67.25.06 2.13c-4.61 0-4.73 4.37-4.73 4.37h22.8s.83-4.37-4.36-4.37m16.23-8.63l.02-20.15c0-3.8-3.08-6.89-6.89-6.89h-5.38" class="st2"/><path d="M5.96 33.45h38.13" class="st3"/><path fill="#444" d="M27.16 38.03h-4.27c-.55 0-1-.45-1-1v-.41c0-.55.45-1 1-1h4.27c.55 0 1 .45 1 1v.41c0 .55-.45 1-1 1z"/><path d="M39.15 12.38S32.81 21.63 25 21.63s-14.02-9.34-14.02-9.34 6.21-8.91 13.59-8.91 14.58 9 14.58 9zm.15 9.28l-2.48-2.49m-3.76 7.13l-1.29-2.94m-6.84 4.41L25 24.8m-8.06 1.5l1.37-3.31m-7.61-1.33l2.48-2.49" class="st3"/><circle cx="24.93" cy="12.29" r="1.8" class="st3"/><circle cx="24.93" cy="12.29" r="5.67" class="st3"/><path d="M24.57 3.38c7.4-.45 14.59 8.69 14.58 9" class="st3"/><path fill="none" stroke="#444" stroke-linecap="round" stroke-linejoin="round" stroke-miterlimit="10" stroke-width="2.5" d="M13.97 7.7c2.51-2.5 6.47-5.14 10.7-5.14 4.21 0 8.26 2.62 11.05 5.14"/></svg>