<svg xmlns="http://www.w3.org/2000/svg" id="Layer_1" x="0" y="0" version="1.1" viewBox="0 0 50 50" xml:space="preserve"><style>.st2{fill:#494949}.st3{fill:#454545}</style><g id="Layer_1_00000065775744762063891650000006866961950173892783_"><path fill="#a475ef" d="M47.75 27.11l.5 4.5-45.3 16.5v-9.4l.2-5.4 45.1-16.5-.6 3.9.1 6.4z"/><path fill="#bf94f7" d="M47.45 9.82l-.4 8.1-44.2 16.1-.2-10.2.2-4.6 44.6-16.2v6.8z"/><path d="M39.55 35.22h-13.6c-.8 0-1.4-.6-1.4-1.4v-8.4c0-.8.6-1.4 1.4-1.4h13.7c.8 0 1.4.6 1.4 1.4v8.4c-.1.8-.7 1.4-1.5 1.4zm-13.6-10c-.1 0-.2.1-.2.2v8.4c0 .1.1.2.2.2h13.7c.1 0 .2-.1.2-.2v-8.4c0-.1-.1-.2-.2-.2h-13.7zm13.6 23.79h-13.6c-.8 0-1.4-.6-1.4-1.4v-8.4c0-.8.6-1.4 1.4-1.4h13.7c.8 0 1.4.6 1.4 1.4v8.4c-.1.81-.7 1.4-1.5 1.4zm-13.6-10c-.1 0-.2.1-.2.2v8.4c0 .1.1.2.2.2h13.7c.1 0 .2-.1.2-.2v-8.4c0-.1-.1-.2-.2-.2h-13.7zm-3.9 5h-5.2c-.3 0-.6-.3-.6-.6v-19.7c0-.3.3-.6.6-.6s.6.3.6.6v19.1h4.6c.3 0 .6.3.6.6s-.2.6-.6.6z" class="st2"/><path d="M22.05 30.22h-5.2c-.3 0-.6-.3-.6-.6s.3-.6.6-.6h5.2c.3 0 .6.3.6.6s-.2.6-.6.6zm-5.3-8.4c-4 0-7.3-3.3-7.3-7.3s3.3-7.3 7.3-7.3 7.3 3.3 7.3 7.3-3.2 7.3-7.3 7.3zm0-13.6c-3.5 0-6.3 2.8-6.3 6.3s2.8 6.3 6.3 6.3 6.3-2.8 6.3-6.3-2.8-6.3-6.3-6.3z" class="st2"/><path d="M34.55 33.01l-2.3-2.3c-.2-.2-.2-.5 0-.7s.5-.2.7 0l1.6 1.6 3.6-3.8c.2-.2.5-.2.7 0s.2.5 0 .7l-4.3 4.5z" class="st3"/><circle cx="31.45" cy="45.12" r=".9" class="st3"/><circle cx="34.65" cy="45.12" r=".9" class="st3"/><circle cx="37.75" cy="45.12" r=".9" class="st3"/><path fill="none" stroke="#444" stroke-linecap="round" stroke-linejoin="round" stroke-miterlimit="10" stroke-width="2.5" d="M13.15 47.42h-10V3.02h44.7v44.4"/></g><path d="M15.55 18.42c-.2 0-.4-.1-.6-.2-.4-.2-.7-.7-.7-1.2v-4.6c0-.5.3-.9.7-1.2.4-.2.8-.2 1.2 0l3.7 2.3c.4.2.6.7.6 1.1s-.2.9-.6 1.1l-3.6 2.5c-.2.1-.5.2-.7.2zm0-6.2h-.1s-.2.1-.2.3v4.6c0 .2.1.3.2.3h.2l3.7-2.3c.1-.1.1-.2.1-.3s0-.2-.1-.3l-3.8-2.3c.1 0 0 0 0 0z" class="st3"/></svg>