<svg xmlns="http://www.w3.org/2000/svg" id="Layer_1" x="0" y="0" version="1.1" viewBox="0 0 50 50" xml:space="preserve"><style>.st2{fill:#031326}</style><path fill="#acbfc0" d="M48.1 25c0-5-1.6-9.7-4.3-13.5L1.9 26.7c.5 5.9 3.1 11.2 7.1 15l39-14.2c.1-.8.1-1.6.1-2.5z"/><path fill="#c0d5d7" d="M25.3 1.9c-13 0-23.4 10.5-23.4 23.4 0 .6 0 1.2.1 1.8l42.3-15.4c-4.3-5.9-11.2-9.8-19-9.8z"/><path d="M25 42.9c-.5 0-1-.2-1.4-.6l-6.5-6.8c-.7-.7-1-1.9-.7-2.8l4.1-14.9c.3-1 1.3-1.8 2.3-1.8h4.4c1 0 2 .8 2.3 1.8l4.1 14.9c.3.9-.1 2.1-.7 2.8l-6.5 6.8c-.4.4-.9.6-1.4.6zm-2.2-25.4c-.4 0-.8.3-.9.7l-4.1 14.9c-.1.4.1 1.1.4 1.4l6.5 6.8c.2.2.5.2.7 0l6.5-6.8c.3-.3.5-1 .4-1.4l-4.1-14.9c-.1-.3-.5-.7-.9-.7h-4.5zm4.1-2h-3.8c-1 0-2.1-.7-2.4-1.7l-.9-2.6c-.3-.9-.1-2.1.4-2.9.6-.7 1.7-1.3 2.6-1.3h4.4c.9 0 2.1.5 2.6 1.3.6.7.8 2 .4 2.9l-.9 2.6c-.3 1-1.4 1.7-2.4 1.7zm-4.1-6.9c-.5 0-1.1.3-1.4.7-.3.3-.4 1-.2 1.5l.9 2.6c.1.4.6.7 1 .7h3.8c.4 0 .9-.3 1-.7l.9-2.6c.1-.4 0-1.1-.2-1.5-.3-.4-1-.7-1.4-.7h-4.4z" class="st2"/><path d="M25 49.5C11.5 49.5.5 38.5.5 25S11.5.5 25 .5s24.5 11 24.5 24.5c0 1.3-.1 2.6-.3 3.8-.1.7-.7 1.1-1.4 1-.7-.1-1.1-.7-1-1.4.2-1.1.3-2.3.3-3.4 0-12.1-9.9-22-22-22S3 12.9 3 25s9.9 22 22 22c2.6 0 5.1-.4 7.6-1.3.4-.2.9-.3 1.3-.5.6-.3 1.4 0 1.6.6s0 1.4-.6 1.6c-.5.2-.9.4-1.4.6-2.8 1-5.6 1.5-8.5 1.5z" class="st2"/></svg>