<svg xmlns="http://www.w3.org/2000/svg" id="Layer_1" x="0" y="0" version="1.1" viewBox="0 0 50 50" xml:space="preserve"><style>.st2{fill:#031326}</style><path fill="#afe55d" d="M46.2 26.7l-1.4.5-1.7.6-2.3.8-4.8 1.8-2.2.8-5.6 2-1.2.5-3.7 1.3-2.8 1-5.7 2.1-1.8.6-2.8 1-2.9 1.1c-.2-.9-.3-1.7-.3-2.6H4.9c-1.8 0-3.3-1.5-3.3-3.3v-3.8c0-.6.1-1.1.4-1.6.4-.7 1.1-1.3 1.9-1.6.9-5.8 4.1-10.7 8.5-13.9l2.4-1.5c3.1-1.7 6.6-2.6 10.3-2.6 5.7 0 10.9 2.2 14.7 5.8 3.2 2.9 5.4 6.7 6.4 11z"/><path fill="#c3ff68" d="M25.2 9.9c5.7 0 10.9 2.2 14.7 5.8l-1.5.6-1.9.7-2.8 1-23.6 8.6-2.8 1-.6.2L2 29.5c.4-.7 1.1-1.3 1.9-1.6.9-5.8 4.1-10.7 8.5-13.9l2.4-1.5c3.1-1.6 6.7-2.6 10.4-2.6z"/><path d="M46.7 27.7v-.3C44.9 16.9 35.7 9.2 25 9.2c-3.8 0-7.5 1-10.6 2.7V7.2c1-.5 1.7-1.5 1.7-2.7 0-1.6-1.3-2.9-2.9-2.9s-2.9 1.3-2.9 2.9c0 1.2.7 2.2 1.7 2.7v6.3c-4.5 3.3-7.7 8.3-8.7 14.3C1.9 28.2.9 29.5.9 31v3.9c0 1.9 1.5 3.4 3.4 3.4h2.2c.1 4.7 3.8 10.1 8.6 10.1h20.2c4.8 0 8.5-5.4 8.6-10.1h2.2c1.9 0 3.4-1.5 3.4-3.4V31c-.3-1.6-1.3-2.9-2.8-3.3zM25 10.7c10 0 18.5 7.1 20.3 16.9h-1.9C41.7 19 34.1 12.5 25 12.5c-3.9 0-7.6 1.2-10.6 3.3v-2.1c3.1-1.9 6.7-3 10.6-3zm-13.1 4.7v2.4c-2.6 2.6-4.5 6-5.2 9.8h-2c.9-4.9 3.5-9.2 7.2-12.2zm29.3 22.7c0 3.4-2.9 7.8-6.1 7.8H14.9c-2 0-3.9-1.7-5-3.9 1.6 1 3.9 2 6.9 2.2.3.5.8.8 1.4.8 1 0 1.7-.8 1.7-1.7s-.8-1.7-1.7-1.7c-.7 0-1.3.4-1.6 1-4.1-.3-6.6-2.3-7.7-3.4-.1-.3-.1-.7-.1-1v-7c0-9 7.3-16.2 16.2-16.2 8.9 0 16.2 7.3 16.2 16.2v6.9z" class="st2"/><path d="M16.4 29.3c-3.1 0-5.5 2.5-5.5 5.5 0 3.1 2.5 5.5 5.5 5.5H33c3.1 0 5.5-2.5 5.5-5.5 0-3.1-2.5-5.5-5.5-5.5H16.4zm20.5 5.6c0 2.1-1.7 3.9-3.9 3.9H16.4c-2.1 0-3.9-1.7-3.9-3.9 0-2.1 1.7-3.9 3.9-3.9H33c2.1 0 3.9 1.7 3.9 3.9z" class="st2"/><circle cx="21.4" cy="34.8" r="1.7" class="st2"/><circle cx="28" cy="34.8" r="1.7" class="st2"/></svg>