<?xml version="1.0" encoding="utf-8"?>
<!-- Generator: Adobe Illustrator 25.2.3, SVG Export Plug-In . SVG Version: 6.00 Build 0)  -->
<svg version="1.1" id="Layer_1" xmlns="http://www.w3.org/2000/svg" xmlns:xlink="http://www.w3.org/1999/xlink" x="0px" y="0px"
	 viewBox="0 0 50 50" style="enable-background:new 0 0 50 50;" xml:space="preserve">
<style type="text/css">
	.st0{fill:#E589EF;}
	.st1{fill:#F799FF;}
	.st2{fill:#444444;}
	.st3{fill:#494949;}
</style>
<g>
	<g>
		<g>
			<path class="st0" d="M48.4,22L5.2,37.7C2.8,34,1.4,29.7,1.4,25c0-1,0.1-1.9,0.2-2.8c0-0.2,0.1-0.5,0.1-0.7L40.6,7.3
				c0.2,0.2,0.4,0.3,0.5,0.5C45,11.5,47.7,16.4,48.4,22z"/>
		</g>
		<g>
			<path class="st1" d="M41.1,7.8L1.6,22.2c0-0.2,0.1-0.5,0.1-0.7c1.7-11.3,11.5-20,23.3-20c6,0,11.4,2.2,15.6,5.9
				C40.7,7.5,40.9,7.6,41.1,7.8z"/>
		</g>
		<g>
			<path class="st2" d="M25,49.8c-8.5,0-16.3-4.3-20.9-11.4c-2.6-4-3.9-8.6-3.9-13.4c0-1,0.1-2,0.2-3c0-0.1,0-0.3,0.1-0.5v-0.2
				C2.3,9.3,12.8,0.2,25,0.2c6.1,0,11.9,2.2,16.4,6.2c0.2,0.2,0.4,0.4,0.6,0.5c4.2,3.9,6.9,9.2,7.6,14.9c0.1,1,0.2,2,0.2,3.2
				C49.8,38.7,38.7,49.8,25,49.8z M25,2.7c-11,0-20.4,8.2-22.1,19v0.2c0,0.1,0,0.3,0,0.4c-0.1,0.9-0.2,1.8-0.2,2.7
				c0,4.3,1.2,8.4,3.5,12c4.1,6.4,11.1,10.3,18.8,10.3c12.3,0,22.3-10,22.3-22.3c0-1-0.1-1.9-0.2-2.8C46.5,17,44,12.3,40.2,8.7
				c-0.2-0.2-0.3-0.3-0.5-0.5C35.7,4.7,30.4,2.7,25,2.7z"/>
		</g>
		<g>
			<path class="st2" d="M25,45.2c-11.1,0-20.2-9-20.2-20.2c0-11.1,9-20.2,20.2-20.2c11.1,0,20.2,9.1,20.2,20.2S36.1,45.2,25,45.2z
				 M25,5.6C14.3,5.6,5.6,14.3,5.6,25S14.3,44.4,25,44.4S44.4,35.7,44.4,25S35.7,5.6,25,5.6z"/>
		</g>
	</g>
	<g>
		<path class="st3" d="M33.3,31.8c-1,1.4-2.4,2.8-4.1,3.9c-1.7,1.1-3.6,1.9-5.9,1.9c-2.1,0-3.9-1.1-4.8-2c-1.4-1.4-2.2-3.4-2.5-5.3
			c-0.7-5.8,2.9-13.5,8.4-16.8c1.3-0.8,2.7-1.2,4-1.2c2.7,0,4.6,1.9,4.9,4.2c0.2,2.1-0.5,3.8-2.8,5c-1.1,0.6-1.7,0.5-1.9,0.3
			c-0.1-0.2-0.1-0.5,0.2-0.7c2.1-1.8,2.2-3.2,1.9-5.3c-0.2-1.3-1-2.2-2-2.2c-4.2,0-10.2,9.4-9.3,16.2c0.3,2.7,1.9,5.8,5.3,5.8
			c1.1,0,2.3-0.3,3.3-0.8c2.4-1.2,3.4-2.1,4.8-4c0.2-0.3,0.3-0.5,0.5-0.8c0.1-0.2,0.4-0.3,0.5-0.3s0.4,0.2,0.4,0.5
			c0,0.2-0.1,0.5-0.3,0.8C33.7,31.3,33.5,31.5,33.3,31.8z"/>
	</g>
</g>
</svg>
