<svg xmlns="http://www.w3.org/2000/svg" viewBox="0 0 50 50"><path fill="#dc5e82" d="M37.2 8.2L12.4 47.5l6.7.7 7.2-3.6 3.1 3.5 2.6-.6 14.2-23-5.7-4.4-.9-4.8-1-5.6z"/><path fill="#f56991" d="M37.1 9.3L13.6 47.8l-8.5-4.2-3.5-9.4L3 26.1l6.5-6.2 2.3-9.1 4.1-6.4L25 2.1l8.9 2.3z"/><path fill="#031326" d="M40.9 18.8c.1-.6.1-1.3.1-1.9 0-8.8-7.2-16-16-16S9 8.1 9 16.9c0 .7 0 1.3.1 1.9-5.3 2.6-9 8.1-9 14.3 0 8.8 7.2 16 16 16 3.1 0 6.2-.9 8.8-2.7 2.6 1.7 5.7 2.7 8.8 2.7 8.8 0 16-7.2 16-16 .1-6.3-3.5-11.7-8.8-14.3zM25 3.3c7.5 0 13.6 6.1 13.6 13.6v1c-1.5-.5-3.1-.7-4.7-.7-3.2 0-6.2.9-8.8 2.7-2.5-1.7-5.6-2.7-8.8-2.7-1.6 0-3.2.2-4.7.7v-1C11.4 9.4 17.5 3.3 25 3.3zm0 40.1c-3-2.5-4.7-6.3-4.7-10.3v-1c1.5.5 3.1.7 4.7.7s3.2-.2 4.7-.7v1c0 4-1.7 7.7-4.7 10.3zm-6.5-14.6c-3.2-1.8-5.6-4.8-6.6-8.5 1.3-.5 2.8-.7 4.3-.7 2.5 0 4.8.7 6.8 1.8-2.2 2-3.7 4.6-4.5 7.4zm8.5-7.4c2.1-1.2 4.4-1.8 6.8-1.8 1.5 0 3 .2 4.3.7-.9 3.6-3.4 6.7-6.6 8.5-.8-2.9-2.4-5.4-4.5-7.4zM16.2 46.7c-7.5 0-13.6-6.1-13.6-13.6 0-5.1 2.8-9.6 7-11.9 1.2 4.4 4.3 8 8.3 10-.1.6-.1 1.3-.1 1.9 0 4.5 1.9 8.7 5.1 11.7-2 1.3-4.3 1.9-6.7 1.9zm17.6 0c-2.4 0-4.7-.6-6.8-1.8 3.3-3 5.1-7.3 5.1-11.7 0-.6 0-1.3-.1-1.9 4-2 7.1-5.6 8.3-10 4.2 2.3 7 6.8 7 11.9.1 7.4-6 13.5-13.5 13.5z"/></svg>