<svg xmlns="http://www.w3.org/2000/svg" id="Layer_1" x="0" y="0" version="1.1" viewBox="0 0 50 50" xml:space="preserve"><style>.st2{fill:#031326}</style><path fill="#e56060" d="M40.9 16.8l-.2.4.7.6-1.3 1-4.8 1.7-2.2.8-5.6 2-1.2.4-3.7 1.3-2.8 1-5.7 2.1-1.8.7-2.8 1-.9.3c-.2-.9-1.2-.8-1.2-1.7l.6-1.5c-1.8 0-1-1-2-2.7L5.5 21c0-.6.1-1.1.4-1.6.4-.7-1.1-1.3-.3-1.6.9-5.8 1.8-10.4 6.2-13.6l2.4-1.5c3.1-1.7 6.5-1 10.3-1 5.7 0 9 1.5 12.9 5.1 3.1 2.8 2.5 5.7 3.5 10z"/><path fill="#ff6b6b" d="M5.9 19.4l-.6-2.1c.2-5.8 2.1-9.9 6.5-13.1l2.4-1.5c3.1-1.7 6.2-1 9.9-1 5.7 0 9.7 1.5 13.6 5.1v-.3l-1.9.7-2.8 1-23.5 8.5-2.8 1-.5.3-.3 1.4"/><path d="M15 38.7c-.3-.7-.9-1.7-1.7-3-2.4-3.9-6.5-10.4-6.8-16.8v-1.4c0-.8 0-1.6.1-2.4.1-.6-.4-1-.9-1.1-.3 0-.5.1-.7.2-.2.2-.3.4-.4.7-.1.8-.1 1.7-.1 2.6v1.4c.3 6.9 4.5 13.7 7.1 17.8.7 1.1 1.3 2.1 1.5 2.6.3 1.9 0 9 0 9.1 0 .6.4 1 1 1.1.5 0 1-.4 1-1 0-.3.4-7.6 0-9.7l-.1-.1zm31.1-11.8c-.5-1.5-1.7-2.9-2.8-4.1-.4-.4-1.4-1.6-1.6-2 .7-1.2.2-3-.1-4.5-.1-.4-.2-.9-.2-1.1-.3-4.6-2-8.2-5.2-10.7C29-1 17.8.9 17.8.9c-.2 0-4 .4-7.5 3.1-.3.1-.4.4-.4.6s0 .5.2.7c.2.2.4.4.7.4.3 0 .5 0 .7-.2 2.9-2.2 6.2-2.7 6.6-2.7.1 0 10.6-1.6 16.8 3.2 2.7 2.1 4.2 5.2 4.5 9.2 0 .4.1.9.3 1.4.2.8.6 2.5.3 3-.8 1.3.4 2.7 1.8 4.3 1 1.1 2.1 2.4 2.4 3.5.1.3.1.6 0 .7-.1.2-.4.3-.4.3h-.9c-.8 0-1.4 0-1.9.1l-.2.1c-.6.3-.6.3-.6 5.3V38c0 2.7-2.5 2.8-2.8 2.8h-4.7c-.6 0-1 .5-1 1v6.6c0 .6.5 1 1 1s1-.5 1-1v-5.6h3.7c1.6 0 4.8-1 4.8-4.8v-7.5h1.6c.5 0 1.4-.4 2-1.2.4-.4.7-1.2.3-2.4z" class="st2"/><path d="M36.4 20.8c.3 0 .6-.3.6-.6s-.3-.6-.6-.6h-1C35.1 13.4 30.1 8.5 24 8.1v-1c0-.3-.3-.6-.6-.6s-.6.3-.6.6v1c-3.7.2-7.1 2-9.2 4.9l-1.1-.7-.4-3.7c0-.2-.1-.3-.2-.4L8 5.6c-.1-.1-.3-.1-.5 0-.1 0-.2.2-.2.4l-.4 2.5-1.5-1c-.1-.1-.3-.1-.5-.1s-.3.1-.4.3c0 .1-.1.3 0 .4 0 .2.1.3.3.4l1.5 1L4 10.8c-.2.1-.3.2-.3.4s.1.3.2.4l4 2.6c.1.1.2.1.3.1h.1l3.6-1 1 .7c-1 1.6-1.6 3.5-1.7 5.6h-1c-.3 0-.6.3-.6.6s.3.6.6.6h1c.4 6.2 5.3 11.2 11.5 11.5v1.3c0 .3.3.6.6.6s.7-.2.7-.6v-1.4c6.1-.3 11-5.2 11.4-11.4h1zM22.7 9.4v3.5c-2.1.2-4 1.2-5.3 2.8l-2.9-1.9c2-2.6 4.9-4.3 8.2-4.4zm-8.8 5.3l2.9 1.9c-.5.9-.8 1.9-.9 3h-3.5c.1-1.8.7-3.4 1.5-4.9zm8.8 16.4c-5.5-.3-10-4.7-10.3-10.2h3.5c.3 3.6 3.2 6.5 6.8 6.7v3.5zm.7-6.2c-.3 0-.6.3-.6.6v.9c-2.9-.3-5.3-2.6-5.6-5.5h1.1c.3 0 .6-.3.6-.6s-.3-.6-.6-.6h-1.1c.1-.8.3-1.6.7-2.3l2.3 1.5c-.2.4-.3.9-.3 1.3 0 1.9 1.6 3.5 3.5 3.5s3.5-1.6 3.5-3.5-1.6-3.5-3.5-3.5c-1 0-1.9.4-2.5 1.1l-2.3-1.5c1-1.3 2.5-2.1 4.3-2.3v.7c0 .3.3.6.6.6s.6-.3.6-.6V14c2.9.3 5.2 2.6 5.5 5.5h-.9c-.3 0-.6.3-.6.6s.3.6.6.6h.9c-.3 2.9-2.6 5.2-5.5 5.5v-.9c-.1-.2-.4-.4-.7-.4zm.3-5.1l-1.9-1.3c.4-.4.9-.6 1.5-.6 1.3 0 2.3 1 2.3 2.3s-1 2.3-2.3 2.3-2.3-1-2.3-2.3c0-.2 0-.4.1-.6l1.9 1.3c.1.1.2.1.3.1.2 0 .4-.1.5-.3.1-.1.1-.3.1-.5s-.1-.3-.2-.4zm.3 11.3v-3.5c3.6-.3 6.4-3.2 6.7-6.7h3.5c-.4 5.4-4.8 9.8-10.2 10.2zm6.7-11.5c-.3-3.6-3.1-6.4-6.7-6.8V9.4c5.5.3 9.9 4.8 10.2 10.3h-3.5z" class="st2"/></svg>