<svg xmlns="http://www.w3.org/2000/svg" version="1" viewBox="0 0 50 50"><path fill="#FFB969" d="M43.262 21.1l3.985-7.857c.344-.68.33-1.485-.037-2.152L42.47 2.49a2.303 2.303 0 00-2.016-1.19H34.64a2.3 2.3 0 00-1.536.586l-5.27 4.72a2.302 2.302 0 00-.767 1.715v.876l-.13.854c-6.165.07-11.143 5.084-11.143 11.266v9.78L43.262 21.1zM9.34 33.446V30.32c0-.963-.78-1.742-1.742-1.742H4.245c-.962 0-1.74.78-1.74 1.74v5.615l6.834-2.487z"/><path fill="#FFC787" d="M45.263 7.644l-2.84-5.156a2.303 2.303 0 00-2.016-1.19h-5.815a2.3 2.3 0 00-1.535.586l-5.27 4.72a2.302 2.302 0 00-.767 1.715v.876l-.13.854c-5.096.058-9.372 3.496-10.705 8.177L45.263 7.644z"/><g fill="#031326"><path d="M48.236 10.526l-4.74-8.603A3.47 3.47 0 0040.453.126H34.64a3.47 3.47 0 00-2.317.886l-5.272 4.72a3.474 3.474 0 00-1.155 2.588v.612c-6.313.593-11.272 5.918-11.272 12.384V38.64a2.05 2.05 0 01-.747 1.584 2.04 2.04 0 01-1.72.433c-.938-.177-1.645-1.095-1.645-2.137v-8.202a2.916 2.916 0 00-2.91-2.913H4.245a2.916 2.916 0 00-2.912 2.913v8.322c0 3.093 1.296 6.08 3.555 8.198a11.123 11.123 0 007.668 3.035c.252 0 .505-.008.76-.025 5.382-.35 9.685-4.638 10.376-10.037h4.746a1.17 1.17 0 000-2.34H23.8v-3.864a1.172 1.172 0 00-2.343 0v4.688c0 4.865-3.644 8.915-8.294 9.218-2.498.156-4.862-.684-6.675-2.383a8.805 8.805 0 01-2.813-6.49v-8.322a.57.57 0 01.57-.57H7.6a.57.57 0 01.57.57v8.202c0 2.183 1.493 4.05 3.553 4.44a4.426 4.426 0 003.65-.933 4.39 4.39 0 001.492-2.45h1.086a.937.937 0 000-1.875h-.983v-1.526h2.137a.937.937 0 000-1.874h-2.137V21.316c0-5.57 4.53-10.1 10.1-10.1h3.66a1.17 1.17 0 000-2.343H28.24V8.32c0-.32.137-.628.376-.842l5.272-4.72c.208-.187.475-.29.754-.29h5.814c.412 0 .79.225.99.586l4.74 8.603c.18.328.187.724.017 1.057L37.3 30.26a1.16 1.16 0 01-.874.408h-5.078a1.17 1.17 0 000 2.342h5.078a3.52 3.52 0 002.807-1.417l9.06-17.82a3.478 3.478 0 00-.057-3.247z"/><circle cx="22.629" cy="25.559" r="1.657"/></g></svg>