<svg xmlns="http://www.w3.org/2000/svg" id="Layer_1" x="0" y="0" version="1.1" viewBox="0 0 50 50" xml:space="preserve"><style>.st2{fill:#031326}</style><switch><g><path fill="#99ced4" d="M47.5 2.5h-45v17.3l45-16.4z"/><path fill="#89b8bd" d="M47.5 3.4l-45 16.4v27l45-16.4z"/><path d="M21.8 29.4c-.6-.3-1-.7-1.4-1.1-.1-.1-.3-.1-.4 0-.1.1-.1.3 0 .4.4.4.9.8 1.5 1.2l.1.1h.1c.1 0 .2-.1.2-.1.1-.1 0-.3-.1-.3v-.2zm-2-8.7c-.1 0-.3 0-.3.2-.2.7-.4 1.4-.5 2 0 .1.1.3.2.3s.2-.1.2-.2c.1-.6.3-1.2.5-1.9.1-.2 0-.4-.1-.4zm2.5-7.3c-.3.6-.5 1.2-.8 1.8-.1.1 0 .3.1.3h.1c.1 0 .2-.1.2-.2.2-.6.5-1.2.8-1.8.1-.1 0-.3-.1-.3s-.2.1-.3.2zm1.3-1.6c.3-.7.5-1.3.7-1.9 0-.1 0-.3-.2-.3-.1 0-.3 0-.3.2-.2.6-.4 1.2-.6 1.9-.1.1 0 .3.1.3h.1c0-.1.1-.1.2-.2zm.8-3.7c.2 0 .3-.1.3-.2.1-.7.2-1.3.2-1.9v-.2c0-.1-.1-.2-.3-.2-.1 0-.2.1-.2.3v.2c0 .6-.1 1.2-.2 1.8 0 0 .1.2.2.2zm-4.2 11.2s.1 0 0 0c.2 0 .3-.1.3-.2.2-.6.4-1.2.7-1.9.1-.1 0-.3-.1-.3-.1-.1-.3 0-.3.1-.3.7-.5 1.3-.7 1.9-.1.2 0 .3.1.4zm-1 5.6c0-.1-.1-.3-.2-.3-.2 0-.3.1-.3.2v.2c0 .7.1 1.3.2 1.8 0 .1.1.2.2.2h.1c.1 0 .2-.2.2-.3-.1-.5-.2-1.1-.2-1.7v-.1zm6.4 4.6c-.7.2-1.3.3-1.9.3-.1 0-.2.1-.2.3 0 .1.1.2.2.2.6 0 1.3-.1 2-.3.1 0 .2-.2.2-.3 0-.1-.2-.2-.3-.2zm17-.5c-.1-.1-.3-.1-.4 0-.1.1-.1.3 0 .4.4.4.9.9 1.3 1.5 0 .1.1.1.2.1h.1c.1-.1.1-.2.1-.3-.3-.7-.8-1.2-1.3-1.7zm-13.3-.8l-.6.2c-.4.2-.8.3-1.2.5-.1 0-.2.2-.1.3 0 .1.1.2.2.2h.1c.4-.2.8-.3 1.2-.5l.6-.2c.1 0 .2-.2.1-.3 0-.2-.2-.3-.3-.2zm9.9-1.3c-.1 0-.3 0-.3.2s0 .3.2.3c.6.2 1.2.4 1.8.8h.1c.1 0 .2 0 .2-.1.1-.1 0-.3-.1-.3-.7-.4-1.3-.7-1.9-.9zm5.9 5.3c-.1-.1-.2-.2-.3-.1-.1.1-.2.2-.1.3.3.6.6 1.1.9 1.8 0 .1.1.2.2.2h.1c.1-.1.2-.2.1-.3-.3-.7-.6-1.3-.9-1.9zm-7.9-5.7c-.7-.1-1.4 0-2 0-.1 0-.2.1-.2.3 0 .1.1.2.2.2.7-.1 1.3-.1 1.9 0 .1 0 .3-.1.3-.2s-.1-.3-.2-.3zm-4.1.4c-.6.1-1.2.3-1.9.6-.1 0-.2.2-.2.3 0 .1.1.2.2.2h.1c.7-.2 1.3-.4 1.9-.6.1 0 .2-.2.2-.3 0-.2-.1-.2-.3-.2z" class="st2"/><path d="M1.2 1.2v47.5h47.5V1.2H1.2zm38.6 45V46c-.1-.3-.2-.6-.3-1 0-.1-.2-.2-.3-.2-.1 0-.2.2-.2.3.1.3.2.6.3 1v.1H3.8V3.8H17c.4.3.9.8 1.3 1.7.7 1.6 1 4.5-1.1 9.8-4.3 10.7-5.6 16.6-.8 19.5 2.3 1.4 5 .2 7.9-1 2.8-1.2 6-2.6 9.3-1.7 5.7 1.7 7.7 11.8 7.8 14.2h-1.6zm3.5 0V46c0-.1-1.3-13.7-9.3-16-3.9-1.1-7.5.4-10.6 1.8-2.5 1.1-4.6 2-6.1 1.1-3.2-1.9-2.8-6.1 1.6-17.1C20.8 11 21.2 7.2 20 4.4c-.1-.3-.3-.6-.4-.8H24c0 .1.1.1.1.2s.1.2.2.2h.1c.1 0 .2-.2.2-.3v-.1h21.7v32.1c-.1.1-.1.2-.1.3 0 .1.1.2.1.3v9.8h-3z" class="st2"/><path d="M12.2 4.4s.3.1.8.5h.1c.1 0 .2 0 .2-.1.1-.1.1-.3-.1-.3-.5-.4-.9-.5-.9-.5-.1 0-.3 0-.3.2 0 0 0 .1.2.2zm-1.9 22.7c.1 0 .2-.1.2-.2.2-.6.4-1.2.6-1.9 0-.1 0-.3-.2-.3-.1 0-.3 0-.3.2-.2.7-.4 1.3-.6 1.9.1.1.1.2.3.3zm.4 9.1c-.1-.1-.2-.1-.4 0-.1.1-.1.2 0 .4.4.5.9 1 1.5 1.4h.1c.1 0 .2 0 .2-.1.1-.1 0-.3-.1-.3-.5-.5-.9-.9-1.3-1.4zm-.8-7.7c-.1 0-.3.1-.3.2-.2.7-.3 1.4-.4 2 0 .1.1.3.2.3s.2-.1.2-.2c.1-.6.2-1.2.4-1.9.1-.2 0-.4-.1-.4zm5.2-15c-.1 0-.3.1-.3.2-.1.6-.3 1.2-.5 1.9 0 .1 0 .3.2.3h.1c.1 0 .2-.1.2-.2.2-.7.4-1.3.5-1.9 0-.1-.1-.2-.2-.3zM9.3 32.4c-.1 0-.2.1-.2.3 0 .7.1 1.4.3 2 0 .1.1.2.2.2h.1c.1 0 .2-.2.2-.3-.2-.6-.3-1.2-.3-1.9 0-.2-.1-.3-.3-.3zM12.4 21c-.1-.1-.3 0-.3.1-.3.6-.5 1.3-.7 1.9 0 .1 0 .3.1.3h.1c.1 0 .2-.1.2-.2.2-.6.5-1.2.7-1.8.1-.1 0-.3-.1-.3zm2.8-11.1v.4c0 .5 0 1-.1 1.5 0 .1.1.3.2.3s.2-.1.2-.2c.1-.5.1-1.1.1-1.6v-.4c0-.1-.1-.2-.2-.2-.1-.1-.2 0-.2.2zM15 8c0 .1.1.2.2.2h.1c.1 0 .2-.2.2-.3-.2-.7-.5-1.4-.9-1.9-.1-.1-.2-.2-.3-.1-.1.1-.2.2-.1.3.3.5.6 1.1.8 1.8zm17.9 27.3c-.1-.1-.3 0-.3.1-.1.1 0 .3.1.3.5.3 1.1.7 1.6 1.1 0 0 .1.1.2.1s.1 0 .2-.1.1-.3 0-.4c-.6-.4-1.2-.8-1.8-1.1zm3.1 2.6c-.1-.1-.2-.1-.4 0-.1.1-.1.2 0 .4.4.5.8 1 1.1 1.6 0 .1.1.1.2.1h.1c.1-.1.2-.2.1-.3-.3-.7-.7-1.3-1.1-1.8zm1.8 3.3c-.1.1-.2.2-.1.3.3.6.5 1.2.8 1.8 0 .1.1.2.2.2h.1c.1 0 .2-.2.1-.3-.2-.6-.5-1.3-.8-1.8-.1-.2-.2-.3-.3-.2zm-24-22.9l.3-.6c.1-.1 0-.3-.1-.3s-.3 0-.3.1l-.3.6c-.2.4-.3.8-.5 1.2-.1.1 0 .3.1.3h.1c.1 0 .2-.1.2-.2.2-.3.3-.7.5-1.1zm17.3 16.2c-.6-.2-1.3-.3-2-.3-.1 0-.3.1-.3.2s.1.3.2.3c.6 0 1.3.2 1.9.3h.1c.1 0 .2-.1.2-.2.1-.1 0-.2-.1-.3zm-11.7 2.1c-.5.2-1.2.5-1.8.7-.1 0-.2.2-.1.3 0 .1.1.2.2.2h.1c.6-.2 1.3-.5 1.9-.7.1-.1.2-.2.1-.3s-.2-.2-.4-.2zm-3.7 1.3c-.7.2-1.3.2-1.9.1-.1 0-.3.1-.3.2s.1.3.2.3h.5c.5 0 1-.1 1.5-.2.1 0 .2-.2.2-.3.1 0 0-.1-.2-.1zm7.4-2.8c-.6.2-1.2.4-1.9.7-.1.1-.2.2-.1.3 0 .1.1.2.2.2h.1c.7-.3 1.3-.5 1.8-.7.1 0 .2-.2.2-.3s-.1-.2-.3-.2zm3.9-.9c-.6.1-1.3.2-2 .3-.1 0-.2.2-.2.3 0 .1.1.2.2.2h.1c.7-.2 1.3-.3 1.9-.3.1 0 .2-.1.2-.3.1-.1 0-.2-.2-.2zM7.3 17.7c-.6 0-1-.4-1-1s.4-1 1-1 1 .4 1 1-.4 1-1 1zm0-1.5c-.3 0-.5.2-.5.5s.2.5.5.5.5-.2.5-.5-.2-.5-.5-.5zm0 6.8c-.6 0-1-.4-1-1s.4-1 1-1 1 .4 1 1-.4 1-1 1zm0-1.5c-.3 0-.5.2-.5.5s.2.5.5.5.5-.2.5-.5-.2-.5-.5-.5zm-2.2 7.2c-.6 0-1-.4-1-1s.4-1 1-1 1 .4 1 1-.4 1-1 1zm0-1.5c-.3 0-.5.2-.5.5s.2.5.5.5.5-.2.5-.5-.2-.5-.5-.5zm7.6 14c-.6 0-1-.4-1-1s.4-1 1-1 1 .4 1 1-.5 1-1 1zm0-1.5c-.3 0-.5.2-.5.5s.2.5.5.5.5-.2.5-.5-.3-.5-.5-.5zm11.8 4.1c-.6 0-1-.4-1-1s.4-1 1-1 1 .4 1 1-.5 1-1 1zm0-1.5c-.3 0-.5.2-.5.5s.2.5.5.5.5-.2.5-.5-.3-.5-.5-.5zM9.7 14.6c-.6 0-1-.4-1-1s.4-1 1-1 1 .4 1 1-.5 1-1 1zm0-1.5c-.3 0-.5.2-.5.5s.2.5.5.5.5-.2.5-.5-.3-.5-.5-.5z" class="st2"/><path d="M11.2 13.1c-.6 0-1-.4-1-1s.4-1 1-1 1 .4 1 1-.5 1-1 1zm0-1.5c-.3 0-.5.2-.5.5s.2.5.5.5.5-.2.5-.5-.3-.5-.5-.5zm-1.9 6.8c-.6 0-1-.4-1-1s.4-1 1-1 1 .4 1 1-.4 1-1 1zm0-1.5c-.3 0-.5.2-.5.5s.2.5.5.5.5-.2.5-.5-.2-.5-.5-.5z" class="st2"/><circle cx="33.2" cy="12.1" r=".8" class="st2"/><circle cx="23.7" cy="22" r=".8" class="st2"/><circle cx="39.6" cy="22" r=".8" class="st2"/><path d="M5.8 10.2c-.6 0-1-.4-1-1s.4-1 1-1 1 .4 1 1-.4 1-1 1zm0-1.5c-.3 0-.5.2-.5.5s.2.5.5.5.5-.2.5-.5-.2-.5-.5-.5z" class="st2"/></g></switch></svg>