<svg xmlns="http://www.w3.org/2000/svg" id="Layer_1" x="0" y="0" version="1.1" viewBox="0 0 50 50" xml:space="preserve"><style>.st3{fill:#444}.st4,.st5{fill:none;stroke:#444;stroke-miterlimit:10}.st4{stroke-width:.5}.st5{stroke-linecap:round;stroke-linejoin:round}</style><path fill="#fc9d9a" d="M11.5 44.9c0 1.1 1.6 2.8 2.6 2.8l9.3.6 16-5.7.3-13.2s-1.1-1.9 0-4c.2-4.6.2-4.6 0-5.7l-1-14.9v-.2c.2-1.4-1-2.6-2.5-2.6L14.9.9c-1.5 0-3.4 5-3.4 6.5"/><path fill="none" stroke="#444" stroke-linecap="round" stroke-linejoin="round" stroke-miterlimit="10" stroke-width="2.5" d="M39.4 19.8v23.3M11.4 7c0-2.9 2.3-5.2 5.2-5.2h17.6c2.9 0 5.2 2.3 5.2 5.2v12.5M28.2 48.6H16.7c-2.9 0-5.2-2.3-5.2-5.2L11.4 7"/><path fill="none" stroke="#444" stroke-linecap="round" stroke-linejoin="round" stroke-miterlimit="10" stroke-width=".5" d="M29.3 5.6h-7.7c-.8 0-1.6-.7-1.6-1.6V1.9h10.8V4c.1 1-.6 1.6-1.5 1.6z"/><path d="M32.1 42.2h-13c-1.3 0-2.4-1.1-2.4-2.4 0-1.3 1.1-2.4 2.4-2.4h13c1.3 0 2.4 1.1 2.4 2.4 0 1.4-1 2.4-2.4 2.4z" class="st3"/><circle cx="19.4" cy="34.1" r="2.6" class="st3"/><path d="M34.7 30.6H16.6c-.7 0-1.3.6-1.3 1.3v10.7c0 .7.6 1.3 1.3 1.3h18.1c.7 0 1.3-.6 1.3-1.3V31.9c0-.7-.6-1.3-1.3-1.3z" class="st4"/><path d="M23.7 32.4h3.1m-3.2 1.8h9.9M23.6 36h9.9" class="st5"/><path d="M32.1 27.7h-13c-1.3 0-2.4-1.1-2.4-2.4 0-1.3 1.1-2.4 2.4-2.4h13c1.3 0 2.4 1.1 2.4 2.4 0 1.3-1 2.4-2.4 2.4z" class="st3"/><circle cx="19.4" cy="19.6" r="2.6" class="st3"/><path d="M34.7 16.1H16.6c-.7 0-1.3.6-1.3 1.3V28c0 .7.6 1.3 1.3 1.3h18.1c.7 0 1.3-.6 1.3-1.3V17.3c0-.7-.6-1.2-1.3-1.2z" class="st4"/><path d="M23.7 17.9h3.1m-3.2 1.8h9.9m-9.9 1.8h9.9M20.3 12.9h3.8l-2.9-2.7m9.8 2.7h-3.8l2.9-2.7m-.9-1.3l-2.7 2.7v-4m-4.3 1.3l2.7 2.7v-4" class="st5"/></svg>