<svg xmlns="http://www.w3.org/2000/svg" id="Camada_3" x="0" y="0" version="1.1" viewBox="0 0 50 50" xml:space="preserve"><style>.st4{fill:none;stroke:#444;stroke-linecap:round;stroke-linejoin:round;stroke-miterlimit:10;stroke-width:.5}</style><path fill="#fdcf72" d="M46.47 1.57H3.53c-1.15 0-2.09.94-2.09 2.09V20.6L48.55 3.85v-.19c0-1.15-.93-2.09-2.08-2.09z"/><path fill="#fcc34f" d="M1.45 20.45v25.42l47.1-16.77V3.69z"/><path fill="none" stroke="#444" stroke-linecap="round" stroke-linejoin="round" stroke-miterlimit="10" stroke-width="2.5" d="M24.96 48.66H4.93c-1.92 0-3.49-1.63-3.49-3.64V4.98c0-2.01 1.56-3.64 3.49-3.64h40.14c1.92 0 3.49 1.63 3.49 3.64v26.64"/><path fill="none" stroke="#444" stroke-linecap="round" stroke-linejoin="round" stroke-miterlimit="10" d="M41.82 36.11H8.18c-1.08 0-1.95-.87-1.95-1.95V9.61c0-1.08.87-1.95 1.95-1.95h33.64c1.08 0 1.95.87 1.95 1.95v24.55c0 1.08-.87 1.95-1.95 1.95zm2.77 5.55h-5.71m-9.8 0H5.41"/><path d="M30.71 41.66c0-1.8 1.46-3.26 3.26-3.27 1.8 0 3.26 1.46 3.26 3.26 0 1.8-1.46 3.26-3.26 3.27-1.79 0-3.26-1.46-3.26-3.26zm-9.16-19.22l-7.95-7.95a.803.803 0 010-1.13l2.67-2.67c.31-.31.82-.31 1.13 0l7.91 7.91m2.88 2.87l8.21 8.21c.31.31.31.82 0 1.13l-2.67 2.67c-.31.31-.82.31-1.13 0l-8.21-8.21M35.5 14.04L19.19 30.35l-3.88 1.61a.196.196 0 01-.26-.24l1.42-4.15L32.74 11.3a1.11 1.11 0 011.58 0l1.17 1.17c.45.43.45 1.14.01 1.57z" class="st4"/><path d="M16.47 27.56l1.99.7.69 2.12m-.69-2.12l6.59-6.74 8.14-7.98m-1.22-1.37l2.63 2.61m-20.05.6l1.87-1.9m.7 4.47l1.87-1.9m.54 4.3l1.86-1.89m4.68 8.44l1.87-1.9m.65 4.41l1.86-1.89m.68 4.43L33 30.06m-17.24.05l1.08 1.13" class="st4"/></svg>