<svg xmlns="http://www.w3.org/2000/svg" id="Camada_3" x="0" y="0" version="1.1" viewBox="0 0 50 50" xml:space="preserve"><style>.st2{fill:none;stroke:#444;stroke-linecap:round;stroke-linejoin:round;stroke-miterlimit:10}</style><path fill="#00dffc" d="M40.31 1.58l-31.2.38c-1.17 0-7.44 6.97-7.44 8.14l-.11 11.42L45.92 5.45l-.58-1.13c0-1.18-3.86-2.74-5.03-2.74z"/><path fill="#00c8e2" d="M1.62 21.39l.61 17.43c0 2.39 1.75 7.5 4 6.7L49.4 30.16l-1.01-19.6c0-1.77-.8-5.8-2.47-5.2L1.62 21.39z"/><path d="M2.43 8.99c5.01 6.69 12.75 15.97 18.62 18.25 0 0-7.41 5.73-19.13 1.78M6.85 3.64C9.84 8 14.22 14.11 17.07 16.86c0 0-6.07-3.46-13.78-9.82M27.5 1.43c1.57 4.21 2.68 10.24.8 17.46 0 0-12.18-7.54-20.71-15.8" class="st2"/><path d="M2 33.98c4.55 3.13 10.7 5.8 18.54 5.93 3.38.06 6.72-.69 9.92-1.81 9.52-3.32 11.96 2.54 11.96 2.54s3.51-7.88-3.28-13.88c0 0 4.32-12.53-7.07-25.01" class="st2"/><path fill="none" stroke="#444" stroke-linecap="round" stroke-linejoin="round" stroke-miterlimit="10" stroke-width="2.5" d="M35.25 48.21H12.31c-5.73 0-10.38-4.65-10.38-10.38V12.02c0-5.73 4.65-10.38 10.38-10.38h25.81c5.73 0 10.38 4.65 10.38 10.38v22.73"/></svg>