<svg xmlns="http://www.w3.org/2000/svg" id="Camada_3" x="0" y="0" version="1.1" viewBox="0 0 50 50" xml:space="preserve"><style>.st2{stroke-width:2.5}.st2,.st3{fill:none;stroke:#444;stroke-linecap:round;stroke-linejoin:round;stroke-miterlimit:10}</style><path fill="#ff6b6b" d="M34 2.8l-7.8-.7c-3.2 0-14.5.3-21.4 10.2l-4 10.8 41-14.4L34 2.8z"/><path fill="#e56060" d="M.6 23l4 13.4c.1.4 4.6 5.6 4.9 5.9l5.6 3 32.2-11.7c.7-.4 1.7-8.6.7-13.4-.2-.8-2.7-7.5-3.2-8.1l-3-3.5L.6 23z"/><path d="M36.8 45.4c-7.9 4.5-18.1 4.2-25.8-1.6C.6 36-1.4 21.3 6.3 11" class="st2"/><path d="M6.2 11.2c2-3 4.7-4.7 4.7-4.7l.7-.5C19.7.3 30.8.2 39.2 6.5c10.4 7.8 12.4 22.5 4.7 32.8" class="st2"/><path d="M34.9 17.8c0 3.8-2.2 8.5-5.5 9.9-1.2.5-2.4-.8-3.8-.8s-2.9 1.3-4.1.8c-3.3-1.5-5.4-6-5.4-9.8 0-2.7.5-4.5 2.8-5.6 3-1.5 4 .3 6.6.3 2.5 0 3.5-1.8 6.4-.5 2.5 1.1 3 2.9 3 5.7z" class="st3"/><path fill="none" stroke="#444" stroke-linecap="round" stroke-linejoin="round" stroke-miterlimit="10" stroke-width=".5" d="M23.3 14.2s-4.9-1.4-4.7 4m4.7-12.3s2.2 1.2 2.1 6.6c0 0-.8-5.5 4.4-6.7 0 0 1.1 5-4.4 6.7m-8 15.1s.9 4-2.3 4.7m7.4-1.8v10.4m6.2-10.6v5.1m5.1-8s-1.3 6.8 3.2 7.1"/><circle cx="13.1" cy="32.5" r="1.7" class="st3"/><circle cx="22.5" cy="42.6" r="1.7" class="st3"/><circle cx="28.7" cy="37.3" r="1.7" class="st3"/><circle cx="39.1" cy="34.5" r="1.7" class="st3"/></svg>