<svg xmlns="http://www.w3.org/2000/svg" version="1" viewBox="0 0 50 50"><path fill="#E589EF" d="M21.266 42.504l3.046 1.758 20.949-7.625c-.033-.027-.063-.056-.101-.078l-6.802-3.931V13.712l7.44-9.293c.108-.135-.051-.32-.201-.233l-11.156 6.441-.002-.001-13.173-7.604-17.099 9.869v19.737l17.098 9.868.001.008z"/><path fill="#F799FF" d="M27.995 6.906l-6.729-3.884-17.099 9.869v2.688z"/><path fill="#031326" d="M46.773 5.2a1.408 1.408 0 00-1.801-2.097l-10.53 6.08-13.176-7.604-18.35 10.59V33.35l25.296 14.605a2.022 2.022 0 002.025.001l6.465-3.732a1.25 1.25 0 00-1.25-2.166l-6.227 3.595-6.464-3.732 4.445-2.568 5.203-3.001v.001l4.948-2.858 7.177 4.146a1.25 1.25 0 001.25-2.164l-6.178-3.57V14.151L46.773 5.2zm-12.986 6.489l-6.376 3.682-6.194 7.074-15.551-8.977 15.6-9.003 12.521 7.224zm-7.08 8.218v5.999l-5.194 3v-6l5.194-2.999zm-2.597 8.077l2.597-1.5v6.001l-5.194 3v-6.001l2.597-1.5zm3.097 4.213v-6.002l2.602-1.501 2.602-1.5v6.001l-2.602 1.501-2.602 1.501zm9.9-11.716v6.001l-4.197 2.424v-6l2.597-1.5 1.6-.925zm0-6.579v6.001l-1.6.924-2.597 1.5v-6.001l3.062-1.769 1.135-.655zm-4.697 2.713v6.002l-2.602 1.501-2.602 1.5v-6l3.953-2.282 1.251-.721zM5.417 13.901l15.596 9.003v18.008L5.417 31.906V13.901zM21.513 41.2v-5.136l5.194-3v6.001l-4.446 2.568-.748-.433zm5.694-2.424v-6.002l2.602-1.501 2.602-1.501v6.002l-5.204 3.002zm5.703-9.291l2.597-1.5 1.6-.924v6.001l-4.197 2.425v-6.002zm4.197-16.212v.051l-2.971 1.716-3.178 1.835-3.751 2.163-.223.129-.277.159-4.246 2.452 5.236-5.997L41.191 8.17l-4.084 5.103z"/></svg>