<svg xmlns="http://www.w3.org/2000/svg" version="1" viewBox="0 0 50 50"><path fill="#71BAC0" d="M46.441 29.514V8.288A5.289 5.289 0 0041.153 3H8.847a5.289 5.289 0 00-5.288 5.288v32.305c0 1.548.677 2.928 1.738 3.896l41.144-14.975"/><path fill="#7ED0D6" d="M44.701 4.391A5.255 5.255 0 0041.153 3H8.847a5.289 5.289 0 00-5.288 5.288v11.077L44.701 4.391z"/><g fill="#031326"><path d="M42.607 1.75H7.393A5.65 5.65 0 001.75 7.393v35.215a5.65 5.65 0 005.643 5.643h35.215a1.25 1.25 0 000-2.5h-9.593V32.2c.889.416 1.95.654 3.193.654 3.28 0 5.609-1.727 5.609-4.64 0-3.192-2.568-3.991-4.854-4.682-2.352-.711-2.719-1.186-2.719-1.876 0-.604.539-1.144 1.618-1.144 1.381 0 2.094.669 2.611 1.748l2.913-1.704c-1.1-2.222-3.041-3.41-5.523-3.41a5.688 5.688 0 00-2.847.745V4.25h9.593a3.147 3.147 0 013.143 3.143v21.594a1.25 1.25 0 002.5 0V7.393a5.652 5.652 0 00-5.645-5.643zM4.25 7.393A3.147 3.147 0 017.393 4.25h24.622v10.038H4.25V7.393zm30.986 18.945c2.266.625 3.129.993 3.129 1.92 0 .583-.409 1.23-2.05 1.23-1.704 0-2.632-.841-3.171-2.092l-.129.075v-2.01c.677.381 1.443.66 2.221.877zm-3.221-1.612v3.323l-1.849 1.071a5.498 5.498 0 001.849 2.47v14.16H7.393a3.147 3.147 0 01-3.143-3.143v-27.32h27.765v3.372c-.751.766-1.223 1.806-1.223 3.083-.001 1.345.487 2.287 1.223 2.984z"/><path d="M9.501 17.449h3.452v15.103H9.501zm12.812-.303c-4.337 0-7.854 3.41-7.854 7.854s3.517 7.853 7.854 7.853c4.336 0 7.853-3.408 7.853-7.853s-3.517-7.854-7.853-7.854zm0 12.342c-2.459 0-4.402-1.79-4.402-4.487 0-2.698 1.943-4.488 4.402-4.488s4.401 1.79 4.401 4.488c0 2.697-1.941 4.487-4.401 4.487z"/></g></svg>