<svg xmlns="http://www.w3.org/2000/svg" version="1" viewBox="0 0 50 50"><path fill="#00C8E2" d="M15.315 34.745a16.956 16.956 0 002.848 3.034l27.49-10.005a16.83 16.83 0 00.028-5.843l1.881-.382c.215-.044.36-.266.287-.473-.375-1.067-2.103-2.224-3.183-2.715l-.002.003A16.93 16.93 0 0032.947 8.322c-.343-.082-.607.303-.396.586 1.085 1.451 2.512 3.633 3.099 5.127-1.405-.544-3.133-.993-5.014-1.356a.375.375 0 00-.414.518l2.871 6.609L2.382 30.967a.383.383 0 00-.023.709l6.255 2.777a.385.385 0 00.31 0l4.806-2.08 1.585 2.372z"/><path fill="#00DFFC" d="M32.22 17.483l9.867-3.591a16.888 16.888 0 00-9.005-5.57c-.343-.082-.607.303-.396.586 1.085 1.451 2.512 3.633 3.099 5.127-1.405-.544-3.133-.993-5.014-1.356a.376.376 0 00-.415.518l1.864 4.286z"/><path fill="#031326" d="M48.531 20.835c-.434-1.232-2.134-2.424-3.318-3.014a17.64 17.64 0 00-12.1-10.204 1.095 1.095 0 00-1.18.468c-.255.389-.24.881.039 1.254a33.48 33.48 0 012.268 3.457 36.961 36.961 0 00-3.467-.828 1.097 1.097 0 00-1.214 1.515l2.565 5.904L2.132 30.289c-.424.157-.708.55-.722 1.002-.014.452.243.863.656 1.046l6.257 2.778c.283.124.609.124.888.002l4.253-1.841 1.267 1.894a17.643 17.643 0 004.286 4.168l.192.127h.002a17.195 17.195 0 005.569 2.445c.77.192 1.561.331 2.351.414.437.046 1.345.088 1.345.088h.422c4.051 0 6.46-5.92 8.536-10.746.242-.562.476-1.108.706-1.626 1.188-2.688 3.336-3.96 4.84-3.843.963.079 1.622.705 1.907 1.81.04.155.161.261.305.301a.704.704 0 00.338.175.722.722 0 00.838-.585 17.828 17.828 0 00.128-5.399l1.208-.245c.314-.064.585-.26.744-.539.155-.268.185-.589.083-.88zm-5.48 4.499c-2.116-.17-4.512 1.659-5.705 4.356-.231.522-.467 1.07-.71 1.635-1.791 4.164-4.015 9.652-7.647 9.652a16.072 16.072 0 01-3.867-.47 15.77 15.77 0 01-5.28-2.359l-.157-.104a16.177 16.177 0 01-3.77-3.7l-1.555-2.327 3.05-1.442a.434.434 0 00-.37-.784l-7.532 3.56a.425.425 0 00-.153.128l-.584.253-5.349-2.375 30.64-11.137-2.913-6.703c1.677.349 3.101.749 4.24 1.19l1.537.596-.603-1.534c-.521-1.326-1.631-3.103-2.611-4.494a16.205 16.205 0 019.918 8.534c-.336-.127-.703-.205-1.249-.205-.555 0-1.279.44-1.951 3.87a1.131 1.131 0 001.34 1.32l3.208-.679c.146.878.223 1.772.223 2.66 0 .564-.038 1.128-.096 1.688a2.788 2.788 0 00-2.054-1.129zm-1.458-3.389a.265.265 0 01-.241-.072.251.251 0 01-.072-.232c.478-2.44.969-3.117 1.101-3.17.681 0 2.981.868 4.575 2.462l-5.363 1.012z"/></svg>