<svg xmlns="http://www.w3.org/2000/svg" id="Layer_1" x="0" y="0" version="1.1" viewBox="0 0 50 50" xml:space="preserve"><style>.st3{fill:#444}.st4,.st5{fill:none;stroke:#444;stroke-miterlimit:10}.st4{stroke-width:.5}.st5{stroke-linecap:round;stroke-linejoin:round}</style><path fill="#ff6b6b" d="M11.2 44.8c0 1.1 1.6 2.8 2.6 2.8l9.3.6 16-5.7.3-13.2s-1.1-1.9 0-4c.2-4.6.2-4.6 0-5.7l-1-14.9v-.2c.2-1.4-1-2.6-2.5-2.6L14.6.8c-1.5 0-3.4 5-3.4 6.5"/><path fill="none" stroke="#444" stroke-linecap="round" stroke-linejoin="round" stroke-miterlimit="10" stroke-width="2.5" d="M39.1 19.7V43m-28-36.1c0-2.9 2.3-5.2 5.2-5.2h17.6c2.9 0 5.2 2.3 5.2 5.2v12.5M27.9 48.5H16.4c-2.9 0-5.2-2.3-5.2-5.2l-.1-36.4"/><path fill="none" stroke="#444" stroke-linecap="round" stroke-linejoin="round" stroke-miterlimit="10" stroke-width=".5" d="M29 5.5h-7.7c-.8 0-1.6-.7-1.6-1.6V1.8h10.8v2.1c.1 1-.6 1.6-1.5 1.6z"/><path d="M31.8 42.1h-13c-1.3 0-2.4-1.1-2.4-2.4 0-1.3 1.1-2.4 2.4-2.4h13c1.3 0 2.4 1.1 2.4 2.4 0 1.3-1.1 2.4-2.4 2.4z" class="st3"/><circle cx="19" cy="34" r="2.6" class="st3"/><path d="M34.4 30.5H16.2c-.7 0-1.3.6-1.3 1.3v10.7c0 .7.6 1.3 1.3 1.3h18.1c.7 0 1.3-.6 1.3-1.3V31.7c0-.7-.5-1.2-1.2-1.2z" class="st4"/><path d="M23.3 32.3h3.2m-3.3 1.8h10m-10 1.8h10" class="st5"/><path d="M31.8 27.6h-13c-1.3 0-2.4-1.1-2.4-2.4 0-1.3 1.1-2.4 2.4-2.4h13c1.3 0 2.4 1.1 2.4 2.4 0 1.3-1.1 2.4-2.4 2.4z" class="st3"/><circle cx="19" cy="19.4" r="2.6" class="st3"/><path d="M34.4 16H16.2c-.7 0-1.3.6-1.3 1.3V28c0 .7.6 1.3 1.3 1.3h18.1c.7 0 1.3-.6 1.3-1.3V17.2c0-.7-.5-1.2-1.2-1.2z" class="st4"/><path d="M23.3 17.8h3.2m-3.3 1.8h10m-10 1.8h10M19.9 12.8h3.9L20.9 10m9.8 2.8h-3.9l2.9-2.8m-.9-1.3l-2.7 2.8.1-4m-4.3 1.2l2.6 2.8v-4" class="st5"/></svg>