<svg xmlns="http://www.w3.org/2000/svg" version="1" viewBox="0 0 50 50"><path fill="#00C8E2" d="M8.315 45.585l7.088-7.088a19.305 19.305 0 006.064 3.053l21.761-7.92c4.948-7.525 4.114-17.735-2.503-24.352-7.573-7.574-19.852-7.574-27.425 0-6.91 6.909-7.494 17.725-1.795 25.321l-7.089 7.088a2.756 2.756 0 103.899 3.898z"/><path fill="#00DFFC" d="M35.876 5.661C28.611 2.02 19.541 3.216 13.48 9.278a19.272 19.272 0 00-4.082 6.021l26.478-9.638z"/><g fill="#031326"><path d="M41.508 8.494c-7.994-7.993-21-7.993-28.993 0-6.932 6.932-7.917 17.94-2.459 25.985l-6.424 6.425c-.73.73-1.132 1.701-1.132 2.733s.403 2.002 1.132 2.733c.73.73 1.701 1.132 2.733 1.132s2.003-.402 2.733-1.132l6.424-6.424c3.394 2.31 7.347 3.528 11.492 3.534h.001a1.11 1.11 0 00.002-2.217 18.145 18.145 0 01-10.949-3.651l-.733-.55a18.83 18.83 0 01-1.257-1.138 18.748 18.748 0 01-1.143-1.264l-.544-.725c-5.42-7.224-4.693-17.487 1.692-23.873 3.454-3.454 8.045-5.355 12.929-5.355s9.475 1.902 12.929 5.355c6.115 6.115 7.101 15.783 2.344 22.988a1.109 1.109 0 001.85 1.222c5.334-8.081 4.23-18.922-2.627-25.778zM7.531 44.802c-.623.622-1.707.622-2.33 0-.311-.312-.483-.726-.483-1.166s.171-.853.483-1.165l3.951-3.951 2.331 2.331-3.952 3.951zm6.824-6.824l-2.246 2.246-2.331-2.331 2.246-2.246c.356.419.725.829 1.113 1.217.389.388.798.757 1.218 1.114z"/><path d="M37.778 12.224c-5.936-5.936-15.595-5.936-21.532 0-5.936 5.936-5.936 15.595 0 21.531 2.876 2.876 6.699 4.46 10.766 4.46s7.891-1.583 10.766-4.46c5.936-5.936 5.936-15.595 0-21.531zm-.627 20.904c-2.708 2.708-6.309 4.2-10.139 4.2s-7.431-1.491-10.139-4.2c-5.591-5.591-5.591-14.687 0-20.277a14.296 14.296 0 0110.139-4.193c3.671 0 7.344 1.398 10.139 4.193 5.59 5.591 5.59 14.687 0 20.277z"/><path d="M35.641 14.126c.079 1.375.245 2.667.034 3.97-.21 1.304-.8 2.622-2.228 4.05l-2.466 2.466 1.186.989c.221.256.38.556.468.881l1.042 3.029-3.031-1.04a2.242 2.242 0 01-.881-.468l-.989-1.186-2.524 2.524c-3.273 3.273-4.892 2.53-8.02 2.194l3.575-3.575 2.24-.002-1.647-.591.561-.561h1.79l-1.317-.473 2.694-2.694-6.578-5.55 4.013 1.308-1.31-4.011 5.55 6.578 2.802-2.802.473 1.317.002-1.792.561-.561.591 1.647v-2.238l3.409-3.409z"/></g></svg>