<svg xmlns="http://www.w3.org/2000/svg" id="Camada_3" x="0" y="0" version="1.1" viewBox="0 0 50 50" xml:space="preserve"><style>.st3,.st4{fill:none;stroke:#444;stroke-linecap:round;stroke-linejoin:round;stroke-miterlimit:10}.st4{stroke-width:.5}</style><path fill="#f56991" d="M46.42 1.63H3.58c-1.15 0-2.08.93-2.08 2.08v16.91l47-16.73v-.18c0-1.15-.93-2.08-2.08-2.08z"/><path fill="#dc5e82" d="M1.5 20.46v25.36l47-16.73V3.74z"/><path fill="none" stroke="#444" stroke-linecap="round" stroke-linejoin="round" stroke-miterlimit="10" stroke-width="2.5" d="M24.96 48.61H4.97c-1.92 0-3.48-1.62-3.48-3.63V5.02c0-2 1.56-3.63 3.48-3.63h40.06c1.92 0 3.48 1.62 3.48 3.63V31.6"/><path d="M6.27 7.7h37.46v24.43H6.27zm-.82 30.13h5.7m9.78 0h23.62" class="st3"/><path d="M19.3 37.83a3.26 3.26 0 11-3.26-3.26c1.8.01 3.26 1.46 3.26 3.26z" class="st4"/><path d="M13.19 22.36c1.63 0 2.85-1.22 2.85-2.9v-.73c0-1.67-1.22-2.9-2.85-2.9-1.63 0-2.85 1.23-2.85 2.9v.73c0 1.68 1.22 2.9 2.85 2.9zm3.67 9.77v-4.07s3.56-1.68 4.89-2.44c1.68-1.15 1.63-3.11 1.63-4.07 0 0-4.04 1.48-6.28 2.44-1.25.54-2.59.82-3.95.82h-1.17c-1.7 0-3 .24-3.93.81" class="st3"/><path d="M23.46 23.15l7.24-4.05-8.14-4.88v7.17" class="st4"/></svg>