<svg xmlns="http://www.w3.org/2000/svg" version="1" viewBox="0 0 50 50"><path fill="#A6C1C2" d="M4.536 27.272v.008c.92 8.33 6.829 15.174 14.663 17.476l22.917-8.341a20.432 20.432 0 003.308-8.919h2.726a.32.32 0 00.263-.501l-2.957-4.282c-1.136-10.286-9.878-18.3-20.46-18.3-10.502 0-19.196 7.902-20.428 18.084H1.849a.32.32 0 00-.263.501l2.95 4.274z"/><path fill="#B9D7D9" d="M34.726 6.867a20.469 20.469 0 00-9.737-2.455c-8.654 0-16.076 5.368-19.111 12.954L34.726 6.867z"/><g fill="#031326"><path d="M49.441 26.284l-2.78-4.026C45.298 11.349 36.04 3.162 24.996 3.162c-10.658 0-19.714 7.699-21.507 18.084h-1.64a1.566 1.566 0 00-1.291 2.46l2.772 4.018c1.359 10.918 10.62 19.113 21.666 19.113a1.25 1.25 0 000-2.5c-9.851 0-18.097-7.359-19.21-17.129v-.213l1.6 2.324a.442.442 0 00.727.001l1.531-2.212a15.486 15.486 0 0015.351 13.404c7.603 0 14.195-5.667 15.334-13.18l.021-.141h-2.305a.188.188 0 01-.169-.103.185.185 0 01.011-.197l2.488-3.611.027-.038v-.001l1.677-2.43a.202.202 0 01.323 0l3.75 5.433h-1.837l-.132 1.101a19.287 19.287 0 01-3.102 8.377 1.248 1.248 0 00.345 1.733c.572.384 1.352.23 1.733-.345a21.849 21.849 0 003.345-8.366h1.646c.586 0 1.118-.322 1.39-.841a1.56 1.56 0 00-.099-1.619zm-11.758.469a.438.438 0 00.361.686h2.017c-1.181 7.324-7.633 12.829-15.068 12.829-7.737 0-14.242-5.778-15.151-13.447l2.469-3.58a.438.438 0 00-.36-.686H9.926c1.181-7.319 7.633-12.821 15.068-12.821 7.738 0 14.243 5.778 15.151 13.447l-2.462 3.572zm4.557-6.271a.44.44 0 00-.363.191l-1.531 2.218A15.485 15.485 0 0024.995 9.487c-7.604 0-14.196 5.663-15.333 13.172l-.023.141h2.312a.19.19 0 01.17.102.189.189 0 01-.012.198l-2.495 3.618-1.704 2.463a.194.194 0 01-.321-.001l-3.74-5.433h1.828l.133-1.1c1.171-9.683 9.42-16.984 19.187-16.984 9.874 0 18.136 7.389 19.218 17.188l.02.185-1.631-2.363a.444.444 0 00-.364-.191z"/><path d="M14.425 19.825h2.199v10.371h-2.199zm8.41-.163c-1.594 0-2.817.455-3.671 1.366-.854.91-1.28 2.229-1.28 3.955s.426 3.05 1.277 3.972c.851.922 2.071 1.383 3.66 1.383s2.809-.461 3.66-1.383 1.277-2.242 1.277-3.958c0-1.721-.422-3.041-1.266-3.958-.844-.918-2.063-1.377-3.657-1.377zm-.014 8.832c-.875 0-1.532-.293-1.972-.88-.44-.586-.66-1.459-.66-2.618s.222-2.032.667-2.621c.445-.589 1.104-.883 1.979-.883 1.745 0 2.618 1.168 2.618 3.504-.001 2.332-.878 3.498-2.632 3.498zm9.984-4.285c-.733-.35-1.198-.592-1.394-.727-.196-.135-.339-.274-.429-.419s-.135-.313-.135-.507a.96.96 0 01.333-.759c.222-.194.542-.291.958-.291.35 0 .706.045 1.068.135.362.09.819.248 1.373.475l.709-1.71a10.573 10.573 0 00-1.536-.539 6.08 6.08 0 00-1.543-.192c-1.097 0-1.957.262-2.579.787-.622.525-.933 1.246-.933 2.164 0 .487.095.913.284 1.277.189.364.442.683.759.958.317.274.792.56 1.426.858.676.322 1.124.556 1.344.702s.387.299.5.458c.114.158.17.339.17.543 0 .364-.129.638-.387.823-.258.184-.628.277-1.11.277-.402 0-.845-.064-1.33-.192s-1.077-.348-1.777-.66v2.043c.851.416 1.83.624 2.937.624 1.201 0 2.139-.27 2.813-.809s1.011-1.277 1.011-2.213c0-.676-.18-1.247-.539-1.713-.359-.465-1.024-.93-1.993-1.393z"/></g></svg>