<svg xmlns="http://www.w3.org/2000/svg" version="1" viewBox="0 0 50 50"><path fill="#A6C1C2" d="M40.93 24.999c0 3.41-.03 7.05-.66 10.4l-25.24 9.19c-5.45-4.5-5.96-13.01-5.96-19.59 0-10.22 1.04-22.68 15.94-22.68 14.91 0 15.92 13.3 15.92 22.68z"/><path fill="#B9D7D9" d="M39.05 11.299l-29.94 10.9c.26-9.56 2.34-19.88 15.9-19.88 8.08 0 12.08 3.91 14.04 8.98z"/><g fill="#031326"><path d="M25.011 6.819c-8.663 0-11.443 4.418-11.443 18.182 0 11.516 1.873 18.183 11.444 18.183 9.713 0 11.422-5.863 11.422-18.183 0-11.515-1.87-18.182-11.423-18.182zm.001 35.866c-8.183 0-10.944-4.462-10.944-17.683 0-13.386 2.659-17.682 10.943-17.682 8.064 0 10.923 4.627 10.923 17.682 0 13.551-2.552 17.683-10.922 17.683z"/><path d="M25.011 1.072C7.82 1.072 7.82 17.235 7.82 25.002c0 7.16 0 23.929 17.191 23.929a1.25 1.25 0 000-2.5c-12.911 0-14.691-10.299-14.691-21.429 0-10.368 1.135-21.43 14.691-21.43 12.892 0 14.669 10.299 14.669 21.429 0 3.728-.054 7.343-.702 10.584a1.25 1.25 0 002.451.491c.693-3.465.751-7.216.751-11.075.001-7.16.001-23.929-17.169-23.929z"/><path d="M24.345 12.922v8.924l-4.639-4.654-1.771 1.765 5.844 5.863-5.842 5.325 1.685 1.848 4.724-4.306v9.322l7.739-7.398-4.689-4.705 4.718-4.301-7.769-7.683zm4.167 16.646l-1.667 1.594v-3.266l1.667 1.672zm-1.667-7.543v-3.114l1.639 1.62-1.639 1.494z"/></g></svg>