<svg xmlns="http://www.w3.org/2000/svg" version="1" viewBox="0 0 50 50"><path fill="#00C8E2" d="M10.873 39.454l29.809-10.85V14.017a4.705 4.705 0 00-4.705-4.705h-21.96a4.705 4.705 0 00-4.705 4.705v21.959c0 1.385.609 2.617 1.561 3.478z"/><path fill="#00DFFC" d="M37.219 9.499a4.641 4.641 0 00-1.243-.187H14.017a4.705 4.705 0 00-4.705 4.705v5.639L37.219 9.499z"/><g fill="#031326"><path d="M13.268 36.727h23.458v-23.46H13.268v23.46zm1.5-21.96h20.458v20.459H14.768V14.767z"/><path d="M46.542 26.25a1.25 1.25 0 000-2.5h-4.61v-5.029h4.61a1.25 1.25 0 000-2.5h-4.61v-2.204a5.963 5.963 0 00-5.955-5.956h-2.198V3.458a1.25 1.25 0 00-2.5 0v4.604H26.25V3.458a1.25 1.25 0 00-2.5 0v4.604h-5.029V3.458a1.25 1.25 0 00-2.5 0v4.604h-2.204a5.963 5.963 0 00-5.956 5.956v2.204H3.458a1.25 1.25 0 000 2.5h4.604v5.029H3.458a1.25 1.25 0 000 2.5h4.604v5.028H3.458a1.25 1.25 0 000 2.5h4.604v2.198a5.963 5.963 0 005.956 5.955h2.204v4.61a1.25 1.25 0 002.5 0v-4.61h5.029v4.61a1.25 1.25 0 002.5 0v-5.863c0-.69-.56-1.25-1.25-1.25-.005 0-.009.003-.015.003h-7.5c-.005 0-.009-.003-.015-.003s-.009.003-.015.003h-3.439a3.46 3.46 0 01-3.456-3.455V14.018a3.46 3.46 0 013.456-3.456h21.959a3.46 3.46 0 013.455 3.456v3.439c0 .005-.003.009-.003.015s.003.009.003.015v7.5c0 .005-.003.009-.003.015s.003.009.003.015v7.499c0 .005-.003.009-.003.015a1.25 1.25 0 001.253 1.255c.009 0 .016-.005.024-.005h5.836a1.25 1.25 0 000-2.5h-4.61V26.25h4.611z"/></g></svg>