<svg xmlns="http://www.w3.org/2000/svg" version="1" viewBox="0 0 50 50"><path fill="#FCC34F" d="M21.394 46.343c.619 0 1.201-.006 1.763-.016l20.742-7.549c.796-2.312 1.053-4.922.678-7.62-.899-6.54-5.064-11.988-10.277-14.128l.454-6.697h2.172a.612.612 0 00.613-.613V4.447a.613.613 0 00-.613-.613H5.863a.612.612 0 00-.613.613V9.72c0 .339.274.613.613.613h2.172l2.31 33.821a1.74 1.74 0 001.468 1.607c1.593.248 4.65.582 9.581.582z"/><path fill="#FDCF72" d="M5.863 10.333h2.172l.062.906 20.344-7.404H5.863a.612.612 0 00-.613.613V9.72c0 .338.275.613.613.613z"/><g fill="#031326"><path d="M45.815 30.989c-.892-6.482-4.857-12.167-10.209-14.744l.315-4.662h1.004a1.865 1.865 0 001.863-1.863V4.665a2.11 2.11 0 00-2.042-2.118c-1.508-.052-5.453-.14-14.925-.14-9.729 0-14.059.091-15.774.146A2.107 2.107 0 004 4.671V9.72c0 1.027.835 1.863 1.863 1.863h1.005l2.23 32.654a2.981 2.981 0 002.525 2.76c1.744.272 4.854.597 9.772.597 2.725 0 5.151-.096 7.213-.285a1.251 1.251 0 001.131-1.359 1.234 1.234 0 00-.939-1.083c-4.918-2.145-8.614-7.31-9.431-13.211-.598-4.311.473-8.405 2.937-11.234 2.009-2.306 4.787-3.576 7.823-3.576.971 0 1.946.13 2.906.379l-.01.153a9.696 9.696 0 00-1.246-.091c-2.608 0-4.998 1.093-6.727 3.078-2.209 2.536-3.162 6.259-2.614 10.213 1.01 7.29 6.817 13.222 12.944 13.222a8.69 8.69 0 005.354-1.804c-.079.097-.146.204-.228.298a1.251 1.251 0 001.887 1.641c2.86-3.294 4.107-8.012 3.42-12.946zM6.5 5.04c1.921-.054 6.271-.133 15.322-.133 8.739 0 12.74.074 14.467.126v4.049H6.5V5.04zm21.161 39.833a81.21 81.21 0 01-6.267.22c-4.757 0-7.73-.309-9.387-.567a.494.494 0 01-.416-.459l-.6-8.781h8.744c1.449 4.172 4.315 7.679 7.926 9.587zm-8.788-13.15c.145 1.048.385 2.071.698 3.062h-8.613L9.936 19.821H22.19c-.086.092-.179.176-.262.271-2.559 2.939-3.673 7.178-3.055 11.631zm11.255-15.378a10.694 10.694 0 00-7.463 2.986c-.008-.001-.013-.009-.022-.009H9.902l-.665-9.735h24.315l-.483 7.125a12.12 12.12 0 00-2.941-.367zm5.254 26.952c-5.888 0-11.472-5.737-12.449-12.79-.528-3.812.382-7.389 2.496-9.816 1.632-1.874 3.887-2.906 6.349-2.906.431 0 .866.034 1.3.095l.746.306c4.961 2.037 8.695 7.195 9.514 13.144.437 3.143-.026 6.158-1.275 8.628-1.641 2.133-3.987 3.339-6.681 3.339z"/><path d="M39.166 28.43a.255.255 0 00.325.14.252.252 0 00.14-.325c-1.557-3.882-4.785-6.594-7.853-6.594-1.365 0-2.521.531-3.435 1.579-1.38 1.584-1.956 4.043-1.581 6.746.204 1.471.706 2.96 1.452 4.306a.251.251 0 00.34.098.251.251 0 00.098-.34 12.014 12.014 0 01-1.394-4.132c-.355-2.56.178-4.874 1.462-6.349.814-.934 1.844-1.408 3.058-1.408 2.823 0 5.93 2.641 7.388 6.279zm-1.253 8.635c-.687.786-1.514 1.168-2.531 1.168a1.25 1.25 0 000 2.5c1.732 0 3.259-.7 4.414-2.023a1.251 1.251 0 00-1.883-1.645z"/></g></svg>