<svg xmlns="http://www.w3.org/2000/svg" id="Layer_1" x="0" y="0" version="1.1" viewBox="0 0 50 50" xml:space="preserve"><style>.st0{fill:#00dffc}</style><path d="M15.5 47.8l7.6-2.8 6.4-2.5 5.5-2 5.5-2.1 6.3-2.3.7-23.3-4.2-2.5-1.5-5.6-2.4-2.5-28.6.7" class="st0"/><path d="M11.9 3.4h-1.7c-1.2 0-1 6.7-1 7.8l-4 .1-.4 4.4v26l10.8 1.1" class="st0"/><path fill="#494949" d="M41.7 8.6v27.3c0 .8-1.2.8-1.2 0V9.2H10.9v26.5c0 .8-1.2.8-1.2 0V8.4c.1-.2.4-.4.6-.4h30.8c.4 0 .6.3.6.6zM13.4 6.9c0 .9 1.3.9 1.3 0-.2-.9-1.3-.9-1.3 0zm2.2 0c0 .9 1.3.9 1.3 0-.1-.9-1.3-.9-1.3 0zm2.3 0c0 .9 1.3.9 1.3 0-.2-.9-1.3-.9-1.3 0z"/><path fill="#444" d="M21.2 14.2h-1.6c-.5 0-1 .4-1 1v10.7c0 1.9-.9 2.1-1.6 2.1-.4 0-.9-.1-1.5-.2l-.5-.2v3l.3.1c.5.2 1.2.3 1.9.3 1.6 0 2.8-.4 3.6-1.4.9-1 1.3-2.2 1.3-4V15.1c0-.5-.4-.9-.9-.9zM34.6 24c-.3-.6-.7-1-1.2-1.4l-.1-.1c-.5-.4-1.4-.8-2.5-1.3-1-.4-1.7-.7-2-1-.3-.2-.5-.4-.7-.6-.1-.2-.2-.5-.2-.7 0-.4.1-.7.4-1.1.3-.3.9-.4 1.6-.4 1 0 2.2.3 3.5.9l.4.2 1.2-2.9-.4-.2c-1.5-.6-3.1-1-4.6-1-1.7 0-3 .4-4 1.2-1.1.9-1.6 2-1.6 3.4 0 1.2.3 2.1 1 3 .6.7 1.7 1.5 3.2 2.1 1.6.6 2.4 1.1 2.6 1.4.3.3.5.6.5 1.2v.3c-.1.3-.2.6-.5.9-.5.4-1.6.5-2.9.4-.4 0-.7-.1-1.2-.2-.7-.2-1.4-.4-2-.7-.1 0-.2-.1-.2-.2l-.6-.6V30l.2.1c1.2.5 2.7.9 4.5.9s3.3-.4 4.4-1.3c1.1-.9 1.7-2.1 1.7-3.6v-.6c-.1-.5-.2-.9-.3-1.2-.1-.1-.1-.2-.2-.3z"/><path fill="none" stroke="#494949" stroke-miterlimit="10" stroke-width=".5" d="M10.3 14.8h-1c-.9 0-1.6.7-1.6 1.6v18.2c0 .9.7 1.6 1.6 1.6H42c.9 0 1.6-.7 1.6-1.6V16.2c0-.9-.7-1.6-1.6-1.6h-.9"/><path fill="none" stroke="#494949" stroke-linecap="round" stroke-linejoin="round" stroke-miterlimit="10" stroke-width="2.5" d="M35.5 42.4h9.3c1.3 0 2.4-1.1 2.4-2.4V12.9c0-1.3-1.1-2.4-2.4-2.4H42V4.8c0-1.4-1.2-2.6-2.6-2.6H12.1c-1.5 0-2.6 1.2-2.6 2.6v5.7H6.4c-1.3 0-2.4 1.1-2.4 2.4V40c0 1.3 1.1 2.4 2.4 2.4h10m11.7 5.5h-10c-1 0-1.8-.8-1.8-1.8v-3.7m19 0v2.2"/><path fill="none" stroke="#494949" stroke-linecap="round" stroke-linejoin="round" stroke-miterlimit="10" d="M4.1 41.5h42.7"/></svg>