<svg xmlns="http://www.w3.org/2000/svg" xmlns:xlink="http://www.w3.org/1999/xlink" viewBox="0 0 50 50"><defs><path id="a" d="M0 49h49.1V.1H0z"/></defs><g fill="none" fill-rule="evenodd"><path fill="#E56060" d="M46.95 27.05l.3 3.9-46.2 16.8.4-8.3.5-4.8 45.9-16.7-.7 3.4z"/><path fill="#FF6B6B" d="M47.35 11.75l-.7 7.1-45.1 16.4.3-9 .5-4.1 45.3-16.5z"/><g transform="translate(0 .9)"><path fill="#031326" d="M32.45 49H1.25A1.25 1.25 0 010 47.75V1.35C0 .659.56.1 1.25.1h46.6c.69 0 1.25.559 1.25 1.25v35.9a1.25 1.25 0 11-2.5 0V2.6H2.5v43.9h29.95a1.25 1.25 0 010 2.5"/><path fill="#031326" d="M24.95 37.75c0 .41-.39.8-.8.8h-7.9c-.41 0-.8-.39-.8-.8 0-.41.39-.8.8-.8h7.9c.41 0 .8.39.8.8m7.7 0c0 .41-.39.8-.8.8h-2.3c-.41 0-.8-.39-.8-.8 0-.41.39-.8.8-.8h2.3c.41 0 .8.39.8.8"/><path fill="#031326" d="M35.75 40.25h-22.1V17.03l2.99-3.38h5.11v4.5h6v-4.5h5.6l2.4 3.36v23.24zm-21-28.2h6.9v-3h-6.9v3zm8.4 4.5h.8v-7.5h-.8v7.5zm2.3 0h.7v-7.5h-.7v7.5zm2.3-4.5h6.899v-3H27.75v3zm9.46 4.28l-1.97-2.68h.21c.409 0 .8-.39.8-.8v-4.5c0-.41-.391-.8-.8-.8h-21.5c-.41 0-.8.39-.8.8v4.5c0 .41.39.8.8.8h.55l-2.29 2.56c-.16.16-.16.33-.16.54v24.3c0 .41.39.8.8.8h23.7c.41 0 .8-.39.8-.8v-24.3c0-.11 0-.28-.14-.42z"/><path fill="#031326" d="M26.19 27.53l-.01.01c-.49.78-1.35 1.32-2.23 1.41-.25 0-.52-.09-.83-.29l.09-.044.084-.04c.053-.023.055-.026.096-.046.06-.03.114-.078.17-.11a7.795 7.795 0 002.36-2.46c.66-.99 1.08-1.92 1.28-2.88.34 1.36-.05 3.18-1.01 4.45m-1.61-2.39c-.45.73-1.11 1.42-1.92 2.03-.13.07-.22.16-.3.24h-.01c-.43-1.5-.09-3.1.96-4.44l.01-.01c.44-.72 1.18-1.22 2.03-1.41l.198-.014c.12 0 .233.014.332.034 0 .02-.01.04-.02.07-.02.06-.035.133-.064.227l-.046.183a.767.767 0 00-.04.19 3.674 3.674 0 00-.06.27 7.98 7.98 0 01-1.07 2.63m3.43-3.91l-.608-.619c-.579-.415-1.492-.77-2.283-.662-1.28.221-2.367 1.068-3.03 1.98-1.628 2.141-1.94 5.13-.73 6.991.032.073.072.126.081.167l.05.083c.55.78 1.52 1.28 2.46 1.28 1.28 0 2.55-.76 3.46-2.08 1.61-2.12 1.828-5.252.6-7.14"/><mask id="b" fill="#fff"><use xlink:href="#a"/></mask><path fill="#031326" d="M16.95 34.649h6.4v-.699h-6.4v.699zm-1.5 1.5h9.4v-3.8h-9.4v3.8z" mask="url(#b)"/></g></g></svg>