<svg xmlns="http://www.w3.org/2000/svg" id="Camada_1" x="0" y="0" version="1.1" viewBox="0 0 50 50" xml:space="preserve"><style>.st3{fill:none;stroke:#494949;stroke-linecap:round;stroke-linejoin:round;stroke-miterlimit:10}</style><path fill="#dc5e82" d="M46.9 25.9l.4 4.1L2.6 46.3l.2-8.7.4-4.9 44.5-16.2L47 20z"/><path fill="#f56991" d="M47.2 10l-.6 7.4L2.9 33.3V24l.4-4.3 44-16z"/><path fill="none" stroke="#444" stroke-linecap="round" stroke-linejoin="round" stroke-miterlimit="10" stroke-width="2.5" d="M6.5 47.3H2.3V2.7h44.9v44.6H31.7"/><path d="M26.6 24.6H29v5.6L42.6 19 29 7.8v4.8H13.8m18.4 24.8h-9.6v4.8l-12-10.4 4-4m22.4 0h7.2M41 32.6h-9.6m-19.2-20h-1.6m-1.6 0H7.4m.8 12.8V19c0-.9.7-1.6 1.6-1.6h.8c.9 0 1.6.7 1.6 1.6v6.4m-4-3.2h4" class="st3"/><path d="M15.4 22.2h2.4c.9 0 1.6-.7 1.6-1.6V19c0-.9-.7-1.6-1.6-1.6h-2.4v8m8-8v7.2m-1.6-7.2H25m-3.2 7.2H25m-9.6-16H5.8m28 28.8h1.6m1.6 0h1.6" class="st3"/></svg>