<svg xmlns="http://www.w3.org/2000/svg" version="1" viewBox="0 0 50 50"><path fill="#A6C1C2" d="M46.392 23.444C45.66 12.19 36.306 3.288 24.866 3.288c-11.917 0-21.578 9.662-21.578 21.578 0 4.769 1.551 9.176 4.172 12.748l38.932-14.17z"/><path fill="#B9D7D9" d="M37.86 7.597a21.47 21.47 0 00-12.935-4.308c-10.225 0-18.783 7.115-21.009 16.663L37.862 7.598l-.002-.001z"/><g fill="#031326"><path d="M25 2.221c-12.561 0-22.78 10.219-22.78 22.78C2.22 37.561 12.439 47.78 25 47.78c3.59 0 7.025-.811 10.211-2.411a1.068 1.068 0 00-.958-1.908 20.383 20.383 0 01-6.555 2.006l-1.024-10.243a10.34 10.34 0 005.738-2.984l8.135 7.024s1.137 1.202 1.838.459c3.691-3.915 5.395-9.332 5.395-14.721C47.779 12.439 37.561 2.221 25 2.221zm3.512 2.439l-2.066 10.082A10.447 10.447 0 0025 14.63c-.135 0-.266.015-.4.02L23.576 4.41c.471-.032.945-.055 1.424-.055 1.198 0 2.37.109 3.512.305zm-6.21-.123l1.024 10.24a10.337 10.337 0 00-5.732 2.978l-7.786-6.716a20.613 20.613 0 0112.494-6.502zm4.122 41.055c-.472.032-.946.052-1.424.052C13.616 45.645 4.355 36.384 4.355 25c0-4.92 1.732-9.441 4.616-12.992l7.79 6.719A10.309 10.309 0 0014.63 25c0 5.718 4.652 10.371 10.371 10.371.135 0 .266-.015.4-.02l1.023 10.241zm-.484-11.551c-.009.001-.018-.004-.027-.003-.007.001-.013.005-.02.006a9.095 9.095 0 01-.893.046c-5.012 0-9.09-4.077-9.09-9.09 0-4.697 3.581-8.573 8.157-9.042l.021-.001.002-.001c.3-.03.603-.046.91-.046 5.012 0 9.09 4.077 9.09 9.09 0 4.695-3.578 8.57-8.15 9.041zm15.09 3.946l-7.785-6.722A10.303 10.303 0 0035.371 25c0-4.783-3.259-8.808-7.67-10.001l2.066-10.082C38.859 7.075 45.645 15.257 45.645 25c0 4.734-1.644 9.322-4.615 12.987z"/><circle cx="25" cy="25" r="2.233"/></g></svg>