<svg xmlns="http://www.w3.org/2000/svg" viewBox="0 0 50 50"><path fill="#afe55d" d="M44.8 10.7l-1.2 15.6-35.7 13c-.5-1.1-.7-2.5-.8-4.3L5.2 10.7C5.1 8.3 6.3 6.8 9.6 6l12.8-3.6c1-.2 1.8-.4 2.6-.4s1.6.2 2.6.4L40.4 6c3.3.8 4.5 2.3 4.4 4.7z"/><path fill="#c3ff68" d="M36.7 5L5.6 16.3l-.4-5.6C5.1 8.3 6.3 6.8 9.6 6l12.8-3.6c1-.2 1.8-.4 2.6-.4s1.6.2 2.6.4L36.7 5z"/><path fill="#444" d="M40.7 4.8L27.9 1.3c-1.1-.3-2-.5-2.9-.5-.9 0-1.8.2-2.9.5L9.3 4.8c-3.7.9-5.5 2.9-5.4 6L5.8 35c.4 5.7 2.3 7.5 6.2 9.4l10.8 4.4c.7.2 1.5.4 2.2.4.7 0 1.5-.1 2.2-.4l6.4-2.6c.6-.3.9-1 .7-1.6-.3-.6-1-.9-1.6-.7l-6.3 2.6c-.9.3-1.8.3-2.7 0L13 42.2c-3.1-1.5-4.4-2.6-4.7-7.3L6.4 10.7c0-1.3.2-2.7 3.6-3.5l12.8-3.6c.9-.3 1.6-.4 2.2-.4.7 0 1.3.1 2.2.4l12.9 3.6c3.3.8 3.5 2.1 3.5 3.4l-1.2 15.6c0 .7.5 1.3 1.2 1.3s1.3-.5 1.3-1.1l1.2-15.6c.1-3.2-1.7-5.1-5.4-6z"/><path fill="none" stroke="#494949" stroke-linecap="round" stroke-linejoin="round" stroke-miterlimit="10" stroke-width="1.5" d="M12.6 35.7h1.1c1.2 0 2.3-1 2.3-2.3v-1.1L13.5 31c-.8-.5-.8-1.6 0-2l2.5-1.1v-2.3l2.6-.7c.9-.2 1.1-1.2.6-1.9L16 20v-5.6m4.5 15.7l3.4-4.5v-6.8c0-1.2 1-2.3 2.3-2.3h9c1.2 0 2.3 1 2.3 2.3v9c0 1.2-1 2.3-2.3 2.3H20.5zm7.9-9h4.5m-4.5 4.5h2.2"/></svg>