<svg xmlns="http://www.w3.org/2000/svg" id="Camada_1" x="0" y="0" version="1.1" viewBox="0 0 50 50" xml:space="preserve"><style>.st1{fill:none;stroke:#444;stroke-width:2.5;stroke-linecap:round;stroke-linejoin:round;stroke-miterlimit:10}.st2{fill:#444}</style><path fill="#c3ff68" d="M48.2 20c-.2-.8-2.7-7.5-3.2-8.1l-3-3.5-.2.1-7.6-5.8-7.8-.7C23.2 2 11.9 2.3 5 12.3L1 22.9l-.2.1 4 13.4c.1.4 4.5 5.7 4.9 5.9l5.6 3 32.2-11.7c.6-.6 1.7-8.8.7-13.6z"/><path d="M32.5 47.3c-7 2.3-15 1.2-21.3-3.6C.8 36-1.3 21.3 6.5 10.9" class="st1"/><path d="M6.4 11.1c2-3 4.7-4.7 4.7-4.7l.7-.5C19.9.1 31 0 39.4 6.3 49.7 14 51.8 28.7 44 39.1" class="st1"/><path d="M25.3 45.2C14.2 45.2 5.1 36.1 5.1 25S14.2 4.8 25.3 4.8 45.5 13.9 45.5 25s-9.1 20.2-20.2 20.2zm0-39.6C14.6 5.6 5.9 14.3 5.9 25s8.7 19.4 19.4 19.4S44.7 35.7 44.7 25 36 5.6 25.3 5.6z" class="st2"/><path d="M18.3 28.1c0 2-.9 2.2-1.7 2.2-.4 0-.9-.1-1.5-.2l-.5-.1v3.1l.3.1c.5.2 1.2.3 1.9.3 1.6 0 2.9-.5 3.7-1.4.8-.9 1.3-2.3 1.3-4V16.2h-3.5v11.9zm16.4-1.7c-.3-.6-.7-1.1-1.3-1.6s-1.5-.9-2.7-1.4c-1-.4-1.7-.7-2.1-1-.3-.2-.6-.5-.7-.7s-.2-.5-.2-.8c0-.5.2-.8.5-1.1.3-.3.9-.4 1.6-.4 1 0 2.3.3 3.6.9l.4.2 1.2-3-.4-.2c-1.6-.7-3.2-1-4.7-1-1.7 0-3.1.4-4.1 1.2-1.1.9-1.6 2-1.6 3.5 0 1.2.3 2.2 1 3s1.7 1.5 3.3 2.2c1.7.7 2.4 1.1 2.6 1.4.4.3.5.7.5 1.2s-.2.9-.6 1.2c-.7.6-2.3.6-4.2.2-.8-.2-1.5-.4-2.2-.8L24 29v3.5l.3.1c1.2.6 2.8.9 4.6.9 1.9 0 3.4-.4 4.5-1.3s1.7-2.1 1.7-3.7c0-.8-.1-1.5-.4-2.1z" class="st2"/></svg>