<svg xmlns="http://www.w3.org/2000/svg" id="Camada_3" x="0" y="0" version="1.1" viewBox="0 0 50 50" xml:space="preserve"><style>.st2{fill:#444}.st3{fill:none;stroke:#444;stroke-width:.5;stroke-linecap:round;stroke-linejoin:round;stroke-miterlimit:10}.st4{stroke-width:.75}.st4,.st5{fill:none;stroke:#444;stroke-linecap:round;stroke-linejoin:round;stroke-miterlimit:10}</style><path fill="#bf94f7" d="M33.71 12.98c.12-2.06.28-4.13-.01-6.17-1.42.01-2.18.22-3.58-.05-.23-.05-.35-.6-.35-.83 0-.75-.16-1.18-.02-1.92.02-.09-.48-.29-.41-.35v-.9l-10 .06-17.54.32-.38 5.51.1 16.04"/><path fill="#a475ef" d="M48.56 24.7h-13.6a.67.67 0 01-.27.16c-.06.01-.12.02-.17.02-.09 0-.17-.02-.25-.06a.487.487 0 01-.21-.14c-.01-.01-.01-.01-.01-.02-.47-.12-.59-.69-.34-1.03v-10.8c-.02.44-.05-3.12-.06-2.68L1.52 21.88v2.67l-.56.21v8.46c0 2.69-.06 5.37.26 8.04.03.24.73 2.11.76 2.34l3.68.08c.07 0 .1-.14.11-.33.03.15.08.24.12.3-.14.94.11 1.26.08 1.33l42.82-15.66c.01-.97-.1-3.65-.23-4.62zm-22.08.34a.448.448 0 00-.41-.24c-1.25 0-2.5.17-3.75.24-.21-.18-.54-.2-.71.03-.06 0-.12.01-.18.01-.6 0-.63.88-.1.98-.05.15-.01.32.07.46-.02.72.03 1.44.08 2.17.01 1.12.03 2.23-.12 3.34-.19 1.35-.01 2.45.13 3.84-.36.04-.72.08-1.09.08-4.91 0-9.42-3.6-9.42-8.51s3.98-8.89 8.89-8.89c3.98 0 8.13 2.69 8.31 6.17-.62.04-1.08.19-1.7.32z"/><path d="M48.05 25.59v15.94H21.72V25.59h26.33m.05-1H21.67c-.52 0-.94.42-.94.94v16.05c0 .52.42.94.94.94H48.1c.52 0 .94-.42.94-.94V25.54a.935.935 0 00-.94-.95z" class="st2"/><path d="M29.22 28.06c1.64 0 2.98 1.08 2.98 2.42v1.46c0 1.33-1.34 2.42-2.98 2.42s-2.98-1.08-2.98-2.42v-1.46c0-1.34 1.34-2.42 2.98-2.42m0-.5c-1.92 0-3.48 1.31-3.48 2.92v1.46c0 1.61 1.56 2.92 3.48 2.92s3.48-1.31 3.48-2.92v-1.46c0-1.62-1.56-2.92-3.48-2.92z" class="st2"/><path d="M24.5 38.75v-.94c0-1.47 2.11-2.83 4.72-2.83s4.72 1.36 4.72 2.83v.94" class="st3"/><path d="M37.72 29.31h6.61m-6.61 3.78h6.61m-6.61 3.78h4.72" class="st4"/><path d="M34.04 24.81l-.1-16.96c0-.66-.53-1.2-1.18-1.2H6.8c-.65 0-1.18.54-1.18 1.2v38.19c0 .66.53 1.2 1.18 1.2h25.96c.65 0 1.18-.54 1.18-1.2v-1.71" class="st5"/><path d="M29.76 6.65l-.02-2.64c0-.66-.53-1.2-1.18-1.2H2.6c-.65 0-1.18.54-1.18 1.2V42.2c0 .66.53 1.2 1.18 1.2h1.24" class="st5"/><path d="M19.89 35.65c-7.22 0-8.61-4.73-8.61-8.43a8.5 8.5 0 018.5-8.5c3.56 0 7.44 2.61 7.96 5.11" class="st4"/><path d="M17.12 35.36c-1.04-1.1-1.11-6.38-1.11-8.14 0-4.69 1.69-8.5 3.78-8.5 1.64 0 2.98 1.45 3.56 5.11m-12.07 3.39h8.26m-4.48 11.53h4.27" class="st4"/><path fill="#444" fill-rule="evenodd" d="M26.04 13.57l-2.7 1.39c-.1.05-.2.1-.35.1h-.02c-.33 0-.59-.3-.59-.66 0-.28.14-.5.4-.63l2.2-1.07-2.21-1.07a.72.72 0 01-.4-.65c0-.37.27-.65.63-.65h.02c.09 0 .2.03.31.09l2.7 1.39c.36.18.55.48.55.84v.09c.01.36-.18.65-.54.83zm-4.28-4.01l-3.13 7.09c-.14.31-.36.37-.53.37-.32 0-.59-.28-.59-.61 0-.09.02-.19.06-.29l3.13-7.09c.14-.31.36-.37.53-.37.32 0 .59.28.59.61.01.08-.02.18-.06.29zm-4.7 4.84c0 .37-.27.65-.63.65h-.02c-.09 0-.2-.03-.31-.09l-2.7-1.39c-.36-.18-.55-.48-.55-.84v-.09c0-.36.19-.65.55-.84l2.7-1.39c.1-.05.2-.1.35-.1h.02c.33 0 .59.3.59.66 0 .28-.14.5-.4.63l-2.2 1.07 2.21 1.07c.24.13.39.37.39.66z" clip-rule="evenodd"/><path d="M15.07 41.78h4.27" class="st4"/><path fill="none" fill-rule="evenodd" stroke="#444" stroke-miterlimit="10" stroke-width=".25" d="M16.73 19.29s-3.72 2.65-1.67 15.31m-.61-13.77s-3.64 5.12-.52 12.96" clip-rule="evenodd"/><path fill="none" fill-rule="evenodd" stroke="#444" stroke-linecap="round" stroke-miterlimit="10" stroke-width=".25" d="M23.02 19.3s1.39.97 2 4.53m.28-2.98s.76 1.07 1.29 2.99" clip-rule="evenodd"/><path fill="none" stroke="#444" stroke-linecap="round" stroke-linejoin="round" stroke-miterlimit="10" stroke-width=".25" d="M19.33 18.79s-3.07 8-.81 16.37m1.83-16.13s.73 1.89 1.21 4.8m-1.78-4.8l.11 4.8m-8.05.36s6.83-4.59 15.9-.36m-16.36 5.98s3.37 2.09 8.52 1.86"/><path d="M30.42 29.79c-.42.36-.97.77-1.3.83l.42-1.16s-1.74 1.15-2.69 1.15m4.72-.15s-.59-.09-1.15-.67" class="st3"/></svg>