<svg xmlns="http://www.w3.org/2000/svg" id="Camada_1" x="0" y="0" version="1.1" viewBox="0 0 50 50" xml:space="preserve"><style>.st2{fill:#031326}</style><path fill="#bee367" d="M41.6 25.9V3.2c0-1.1-.9-2-2-2H10.4c-1.1 0-2 .9-2 2v34.7l33.2-12z"/><path fill="#d4ff73" d="M41.4 2.4c-.3-.7-1-1.1-1.8-1.1H10.4c-1.1 0-2 .9-2 2v11.1l33-12z"/><path d="M39.6 0H10.4C8.6 0 7.2 1.5 7.2 3.2v43.6c0 1.8 1.4 3.2 3.2 3.2h23.2c.7 0 1.2-.6 1.2-1.3 0-.6-.5-1.1-1.2-1.2H10.4c-.4 0-.7-.3-.7-.7v-5h27.8c.7 0 1.2-.5 1.3-1.2s-.5-1.2-1.2-1.3H9.7v-5.8h30.7v2.9c0 .7.6 1.2 1.3 1.2.6 0 1.2-.5 1.2-1.2V3.2C42.8 1.5 41.4 0 39.6 0zm.7 31.1H9.7v-5.8h30.7l-.1 5.8zM9.7 22.8V3.2c0-.4.3-.7.7-.7h29.2c.4 0 .7.3.7.7v19.6H9.7z" class="st2"/><path d="M13.7 29.2H25c.5 0 1-.4 1-1 0-.5-.4-1-1-1H13.7c-.5 0-1 .4-1 1 0 .5.5 1 1 1zm0 6.2c-.5 0-1 .4-1 1 0 .5.4 1 1 1H25c.5 0 1-.4 1-1 0-.5-.4-1-1-1H13.7zm0 8.2c-.5 0-1 .4-1 1 0 .5.4 1 1 1H25c.5 0 1-.4 1-1 0-.5-.4-1-1-1H13.7z" class="st2"/><circle cx="33.6" cy="28.2" r="1.5" class="st2"/><circle cx="33.6" cy="36.4" r="1.5" class="st2"/><circle cx="33.6" cy="44.6" r="1.5" class="st2"/></svg>