<svg xmlns="http://www.w3.org/2000/svg" id="Layer_1" x="0" y="0" version="1.1" viewBox="0 0 50 50" xml:space="preserve"><style>.st2{stroke-width:.5}.st2,.st3{fill:none;stroke:#444;stroke-linecap:round;stroke-linejoin:round;stroke-miterlimit:10}</style><path fill="#ff6b6b" d="M48 11.2l.5-1L46.4 6l-16.6.5c-3.5 0-26.7-2.6-26.7.9L1.3 18.8l1.3 25.6 11.2.1 33.7-12c.7-.5 1.6-19.2.5-21.3z"/><path fill="none" stroke="#444" stroke-linecap="round" stroke-linejoin="round" stroke-miterlimit="10" stroke-width="2.5" d="M31.3 44.2l-25.8.6c-2 0-3.7-1.7-3.7-3.8V9.6c0-2.1 1.7-3.8 3.7-3.8l38.8-.6c2 0 3.7 1.7 3.7 3.8v24.3"/><path d="M25.7 35.8H14.8c-4.4 0-7.9-3.5-7.9-7.9V19c0-4.4 3.5-7.9 7.9-7.9h8.9c4.4 0 7.9 3.5 7.9 7.9v2.9" class="st2"/><path d="M25 37.4H14.2c-4.9 0-8.9-4-8.9-8.9V18.4c0-4.9 4-8.9 8.9-8.9h10.1c4.9 0 8.9 4 8.9 8.9v2.8" class="st2"/><path d="M17.1 19.8l4.8 2.1c.2.1.2.3 0 .4l-4.7 2.4" class="st3"/><path d="M24 16l3.2 2m-3.8-4.6l5.8 3.7" class="st2"/><path d="M28.6 32.6c-1.1-3-3.8-5.2-7.1-5.5 2-.9 3.5-2.9 3.5-5.2 0-3.1-2.5-5.7-5.7-5.7-3.1 0-5.7 2.5-5.7 5.7 0 2.4 1.4 4.4 3.5 5.2-3.7.4-6.7 2.8-7.4 6.3 0 0 1.8 1.9 5.1 2.2h11.3m10.4-10.9l-4.8 2.1c-.2.1-.2.3 0 .4l4.7 2.4" class="st3"/><path d="M44.5 40.4l-20 .2v-.1c0-4.4 3.3-8 7.6-8.4-2-.9-3.5-2.9-3.5-5.2 0-3.1 2.5-5.7 5.7-5.7 3.1 0 5.7 2.5 5.7 5.7 0 2.4-1.4 4.4-3.5 5.2 3.8.3 8 3 8 8.3z" class="st3"/></svg>