<svg xmlns="http://www.w3.org/2000/svg" viewBox="0 0 50 50"><path fill="#5aba52" d="M44.6 5.5l-36.5.1c-2.9 0-6 .9-6 3.8v13.7l-.2 10.2c.4 6.3 7 6.5 15.2 6l.9 5.2L33.4 39 49 33.5l-.3-23.8-4.1-4.2z"/><path fill="none" stroke="#444" stroke-linecap="round" stroke-linejoin="round" stroke-miterlimit="10" d="M32.9 38.4l-25.7-.1c-2.6 0-5.5-2-5.5-4.6m30.2 10.7H18.1c-.5 0-.9-.6-.6-1l2.4-4.8h10.3l2.5 4.8c.1.5-.3 1-.8 1z"/><circle cx="25" cy="35.5" r="1.6" fill="#444"/><path fill="none" stroke="#444" stroke-linecap="round" stroke-linejoin="round" stroke-miterlimit="10" stroke-width="2.5" d="M48.6 33.9V11.5c0-3.4-2.8-6.2-6.2-6.2H7.8c-3.4 0-6.2 2.8-6.2 6.2v21.4c0 3.4 2.8 6.2 6.2 6.2h10.6l-1.8 4.5c-.4.9.3 1.8 1.2 1.9l14.3.1c1 0 1.6-1 1.2-1.9l-1.9-4.6h5.8"/><path fill="none" stroke="#444" stroke-linecap="round" stroke-linejoin="round" stroke-miterlimit="10" stroke-width=".5" d="M2.6 32.8H48m-45.7 0h8.1"/><path fill="#444" stroke="#444" stroke-linecap="round" stroke-linejoin="round" stroke-miterlimit="10" stroke-width=".5" d="M8 9.4h1.5m2.4 0h11.3m1.7 0h5.8m-14.2 3h11.3m2.1 0h11.3M8 12.4h1.5m-1.5 3h1.5m6.4 0h7.7m1.8 0h11m2.2 0h4.2M8 18.4h1.5M8 21.3h1.5M8 24.4h1.5M8 27.3h1.5m-1.5 3h1.5m10.4-11.9h8.9m5.1 0h8.9m-30.6 2.9h10.2m2.2 0h10.2m-17.9 3.1h2.8m3.3 0h13.8m-20.6 2.9h7.6m1.5 0h11.4m1.6 0h4.6m-23 3h9.2m1.3 0h12.2"/></svg>