<svg xmlns="http://www.w3.org/2000/svg" id="Layer_1" x="0" y="0" version="1.1" viewBox="0 0 50 50" xml:space="preserve"><style>.st2{fill:#031326}</style><path fill="#afe55d" d="M47.4 3.7h-4.1L2.6 18.5v24.4l44.8-16.3z"/><path fill="#c3ff68" d="M2.6 3.7v14.8L43.3 3.7z"/><path d="M27.7 10.9H6.9c-.4 0-.8-.3-.8-.8s.3-.8.8-.8h20.7c.4 0 .8.3.8.8s-.3.8-.7.8z" class="st2"/><circle cx="32.7" cy="10.2" r="1.6" class="st2"/><circle cx="37.1" cy="10.2" r="1.6" class="st2"/><circle cx="41.5" cy="10.2" r="1.6" class="st2"/><path d="M27.7 25.4H6.9c-.4 0-.8-.3-.8-.8s.3-.8.8-.8h20.7c.4 0 .8.3.8.8s-.3.8-.7.8z" class="st2"/><circle cx="32.7" cy="24.7" r="1.6" class="st2"/><circle cx="37.1" cy="24.7" r="1.6" class="st2"/><circle cx="41.5" cy="24.7" r="1.6" class="st2"/><path d="M27.7 39.9H6.9c-.4 0-.8-.3-.8-.8s.3-.8.8-.8h20.7c.4 0 .8.3.8.8s-.3.8-.7.8z" class="st2"/><circle cx="32.7" cy="39.2" r="1.6" class="st2"/><circle cx="37.1" cy="39.2" r="1.6" class="st2"/><circle cx="41.5" cy="39.2" r="1.6" class="st2"/><path d="M44.8 2.4H5.2C3 2.4 1.3 4.2 1.3 6.3v37.3c0 2.2 1.8 3.9 3.9 3.9h39.5c2.2 0 3.9-1.8 3.9-3.9V6.3c.1-2.1-1.7-3.9-3.8-3.9zM5.2 4.9h39.5c.8 0 1.4.6 1.4 1.4v10.3H3.8V6.3c0-.7.6-1.4 1.4-1.4zm41 13.3v13H3.8v-13h42.4zm-1.4 26.9H5.2c-.8 0-1.4-.6-1.4-1.4v-11h42.4v11c0 .7-.6 1.4-1.4 1.4z" class="st2"/></svg>