<svg xmlns="http://www.w3.org/2000/svg" version="1" viewBox="0 0 50 50"><path fill="#00C8E2" d="M47.124 34.633V6.501a3.625 3.625 0 00-3.626-3.626H6.5a3.626 3.626 0 00-3.626 3.626v36.998A3.626 3.626 0 006.5 47.125h6.301l34.323-12.492"/><path fill="#00DFFC" d="M39.856 2.875H6.5a3.626 3.626 0 00-3.626 3.626v9.834l36.982-13.46z"/><g fill="#031326"><path d="M40.022 7.131H9.975a2.848 2.848 0 00-2.844 2.845v30.048a2.847 2.847 0 002.844 2.844h30.048a2.848 2.848 0 002.845-2.844V9.976a2.85 2.85 0 00-2.846-2.845zm2.595 32.893a2.597 2.597 0 01-2.595 2.594H9.975a2.596 2.596 0 01-2.594-2.594V9.976a2.598 2.598 0 012.594-2.595h30.048a2.598 2.598 0 012.595 2.595v30.048z"/><path d="M43.5 1.627h-4.007c-.511 0-.948.309-1.141.748H11.643a1.248 1.248 0 00-1.141-.748H6.504a4.882 4.882 0 00-4.876 4.876v3.998c0 .51.308.946.746 1.14v26.711c-.438.194-.746.63-.746 1.14v4.007a4.882 4.882 0 004.876 4.876h3.998c.512 0 .95-.309 1.143-.75h26.43a.5.5 0 000-1h-26.43a1.248 1.248 0 00-1.143-.75H6.504a2.378 2.378 0 01-2.376-2.376v-4.007c0-.514-.311-.953-.754-1.145v-26.7c.443-.192.754-.632.754-1.145V6.503a2.379 2.379 0 012.376-2.376h3.998c.513 0 .951-.31 1.144-.752h26.703c.193.442.631.752 1.144.752H43.5a2.378 2.378 0 012.376 2.376v3.998c0 .511.309.948.748 1.141v22.99a.5.5 0 001 0V11.645c.442-.193.752-.631.752-1.144V6.503A4.882 4.882 0 0043.5 1.627z"/><path d="M18.956 28.006c0 1.833-.826 2.068-1.544 2.068-.379 0-.839-.067-1.366-.198l-.534-.134v2.872l.277.104c.49.186 1.098.28 1.804.28 1.497 0 2.66-.45 3.456-1.336.786-.873 1.183-2.13 1.183-3.736V17.002h-3.276v11.004zm13.903-3.029c-.539-.416-1.35-.846-2.476-1.316-.932-.383-1.578-.693-1.924-.918-.312-.205-.534-.416-.661-.631-.121-.203-.181-.46-.181-.762 0-.428.148-.76.452-1.016.321-.27.824-.408 1.496-.408.965 0 2.088.267 3.339.792l.406.171 1.074-2.758-.374-.166c-1.445-.64-2.921-.964-4.384-.964-1.564 0-2.838.388-3.785 1.153-.975.787-1.469 1.875-1.469 3.234 0 1.074.309 2.011.918 2.785.603.764 1.59 1.417 3.016 1.996 1.556.624 2.19 1.039 2.449 1.276.326.3.485.656.485 1.084 0 .478-.17.846-.519 1.125-.643.514-2.14.599-3.851.19a10.666 10.666 0 01-2.058-.717l-.612-.287v3.221l.242.117c1.115.544 2.553.819 4.277.819 1.756 0 3.164-.408 4.183-1.21 1.052-.827 1.585-1.977 1.585-3.419 0-.727-.133-1.371-.394-1.919-.265-.548-.68-1.043-1.234-1.472z"/></g></svg>