<svg xmlns="http://www.w3.org/2000/svg" version="1" viewBox="0 0 50 50"><path fill="#A6C1C2" d="M21.394 46.343c.619 0 1.201-.006 1.763-.016l20.742-7.549c.796-2.312 1.053-4.922.678-7.62-.9-6.539-5.065-11.988-10.277-14.127l.454-6.697h2.172a.612.612 0 00.613-.613V4.448a.613.613 0 00-.613-.613H5.863a.612.612 0 00-.613.613V9.72c0 .339.274.613.613.613h2.172l2.31 33.82a1.741 1.741 0 001.468 1.607c1.593.249 4.65.583 9.581.583z"/><path fill="#B9D7D9" d="M5.863 10.334h2.172l.062.906 20.344-7.404H5.863a.612.612 0 00-.613.613v5.273c0 .337.275.612.613.612z"/><g fill="#031326"><path d="M45.814 30.988c-.891-6.481-4.856-12.166-10.208-14.743l.315-4.662h1.004a1.865 1.865 0 001.863-1.863V4.666a2.107 2.107 0 00-2.041-2.117c-1.496-.052-5.424-.14-14.926-.14-9.743 0-14.065.091-15.775.145A2.107 2.107 0 004 4.671V9.72c0 1.027.836 1.863 1.863 1.863h1.004l2.23 32.653a2.982 2.982 0 002.525 2.761c1.748.271 4.861.596 9.771.596 2.731 0 5.158-.096 7.213-.284a1.251 1.251 0 001.131-1.359 1.232 1.232 0 00-.93-1.08c-4.923-2.142-8.622-7.309-9.44-13.215-.598-4.31.472-8.403 2.937-11.233 2.009-2.306 4.787-3.576 7.823-3.576.971 0 1.946.13 2.906.379l-.01.153a9.712 9.712 0 00-1.247-.091c-2.608 0-4.997 1.093-6.725 3.078-2.209 2.536-3.162 6.259-2.614 10.213 1.01 7.29 6.817 13.222 12.944 13.222a8.695 8.695 0 005.352-1.802c-.078.096-.145.203-.227.296a1.251 1.251 0 001.887 1.641c2.862-3.293 4.109-8.012 3.421-12.947zM21.822 4.908c8.76 0 12.749.074 14.467.126v4.048H6.5V5.041c1.917-.054 6.26-.133 15.322-.133zm5.841 39.966a81.052 81.052 0 01-6.268.219c-4.75 0-7.727-.308-9.387-.566a.494.494 0 01-.416-.46l-.6-8.781h8.744c1.448 4.173 4.315 7.68 7.927 9.588zm-8.79-13.151c.145 1.048.385 2.071.698 3.062h-8.613L9.936 19.822H22.19c-.086.092-.179.176-.262.271-2.559 2.938-3.673 7.178-3.055 11.63zm11.255-15.378a10.694 10.694 0 00-7.463 2.986c-.008-.001-.013-.009-.022-.009H9.902l-.665-9.739h24.315l-.483 7.13a12.072 12.072 0 00-2.941-.368zm5.254 26.953c-5.887 0-11.472-5.737-12.449-12.79-.528-3.812.382-7.389 2.496-9.816 1.632-1.874 3.886-2.906 6.348-2.906.432 0 .867.034 1.301.095l.746.306c4.962 2.037 8.695 7.195 9.513 13.144.438 3.143-.025 6.16-1.275 8.63-1.641 2.131-3.986 3.337-6.68 3.337z"/><path d="M39.166 28.431a.254.254 0 00.325.14.251.251 0 00.14-.325c-1.558-3.882-4.787-6.594-7.854-6.594-1.364 0-2.52.531-3.434 1.579-1.38 1.584-1.956 4.043-1.581 6.746a12.56 12.56 0 001.452 4.306.251.251 0 00.34.098.25.25 0 00.098-.34 12.028 12.028 0 01-1.394-4.132c-.355-2.56.178-4.874 1.462-6.349.814-.934 1.843-1.408 3.057-1.408 2.823-.001 5.93 2.64 7.389 6.279zm-1.255 8.634c-.685.786-1.512 1.168-2.529 1.168a1.25 1.25 0 000 2.5c1.733 0 3.26-.7 4.414-2.025a1.25 1.25 0 00-1.885-1.643z"/></g></svg>