<svg xmlns="http://www.w3.org/2000/svg" id="Camada_3" x="0" y="0" version="1.1" viewBox="0 0 50 50" xml:space="preserve"><style>.st2{fill:#444}</style><path fill="#4ecdc4" d="M34.38 6.57l9.36 2.9L49 20.17 1.85 33.77l2.56-18.16 12.82-9.04L27.99 9.5z"/><path fill="#46b8b0" d="M48.75 25.1l.39.8-42.6 15.31-.72-.96-1.02-.9-2.95-5.12V31.5L46.2 14.46l2.23 2.02-.39 3.69z"/><path d="M24.23 41.21c-1.63 1.19-.13.23-1.79 1.26C19.72 44.15 16.8 45 13.66 45c-3.2 0-5.91-.86-8.11-2.59-2.21-1.73-3.78-4.11-4.71-7.15-.93-3.04-1.08-6.51-.45-10.41.63-3.78 1.9-7.15 3.79-10.11 1.89-2.96 4.19-5.28 6.9-6.98 2.71-1.69 5.61-2.54 8.71-2.54 3.23 0 5.95.87 8.16 2.61 1.71 1.35 2.71 2.2 3.62 4.34.85 2.01-.82 2.49-.82 2.49-1.25.29-2.14-1.57-2.14-1.57-.66-1.29-1.23-1.88-2.27-2.78-1.72-1.49-3.88-2.24-6.5-2.24-2.73 0-5.25.78-7.54 2.33s-4.23 3.63-5.8 6.25c-1.58 2.62-2.62 5.53-3.14 8.75-.53 3.12-.46 5.95.21 8.49.68 2.54 1.88 4.56 3.6 6.05 1.73 1.49 3.9 2.24 6.51 2.24 2.75 0 5.28-.77 7.58-2.3 1.28-.86.58-.4 1.97-1.48 0 0 1.75-1.44 2.66-.35.91 1.09-.39 2.14-.39 2.14s-.78.66-1.27 1.02z" class="st2"/><path d="M38.93 43.26c-2.72 1.68-5.64 2.53-8.78 2.53-3.2 0-5.91-.86-8.11-2.59-1.68-1.31-1.63-.24-2.58-2.32 0 0-1.32-2.19-.08-3.08 1.48-1.06 2.85 1.42 2.85 1.42.68 2.54-.29.01 1.43 1.5 1.73 1.49 3.9 2.24 6.51 2.24 2.75 0 5.28-.77 7.58-2.3 0 0 1.21-.64 1.94.66.7 1.24-.76 1.94-.76 1.94zm4.93-6.89c-1.09-.76-.32-1.95-.32-1.95 1.56-2.63 2.6-5.55 3.11-8.79.52-3.12.44-5.95-.24-8.49-.68-2.54-1.87-4.56-3.59-6.05-1.72-1.49-3.88-2.24-6.5-2.24-2.73 0-5.25.78-7.54 2.33s-3.06 2.13-4.1 3.9c-1.39 2.55-4.06 1.13-2.2-2 1.41-2.36 2.88-3.17 5.07-4.54C30.26 6.85 33.16 6 36.26 6c3.23 0 5.95.87 8.16 2.61 2.21 1.74 3.78 4.13 4.71 7.18.93 3.04 1.09 6.51.47 10.39-.63 3.78-1.9 7.16-3.79 10.11.03.01-.76.91-1.95.08z" class="st2"/><path d="M40.42 28.73c-.55-1.49-2.08-2.49-3.76-3.32-1.56-.77-3.24-1.39-4.4-2.12-3.24-3.35.54-4.39 3.96-3.85 1.2.19 2.36.57 3.15 1.12l1.51-4.08c-1.67-1.06-3.69-1.58-5.7-1.63-2.08-.05-4.13.42-5.75 1.31-3.05 1.68-4.59 4.87-1.85 9.08.32.7 1.62 1.48 3.1 2.22 2.03 1.03 4.39 2 4.91 2.61.29.48.45.89.55 1.26-.1.58-.19 1.15-.32 1.71-1.04 1.06-3.76 1.01-6.19.44-1.44-.34-2.77-.86-3.56-1.44v4.69c.53.34 1.13.6 1.76.82 1.92.69 4.19.88 6.31.54 4.63-.73 8.54-3.9 6.28-9.36zm-19.91-7.12c-.1-2.67-.22-5.09-.04-6.75h-4.96v16.3c-.03.9-.17 1.55-.38 2.03-.81 1.82-2.77.98-4.74.61v4.35c2.85 1.01 4.91.93 6.42.11 2.63-1.43 3.52-5.12 3.76-9.28.12-2.42.04-5-.06-7.37z" class="st2"/></svg>