<svg xmlns="http://www.w3.org/2000/svg" version="1" viewBox="0 0 50 50"><path fill="#71BAC0" d="M47.247 22.736c0 2.703-.342 5.275-.96 7.644L8.598 44.096a16.573 16.573 0 01-5.845-12.65v-.309c0-.163.09-.318.22-.464 1.294-1.416 8.124-2.491 16.386-2.491.358 0 .7 0 1.05.008a137.07 137.07 0 01-.342-2.369 31.146 31.146 0 01-.146-2.613 30.066 30.066 0 01.358-5.21c.635-4.119 2.1-8.254 4.77-11.502 2.108-2.572 5.112-4.55 8.531-4.55 7.545 0 13.667 9.312 13.667 20.79z"/><path fill="#7ED0D6" d="M44.292 9.85l-24.103 8.767c.024-.204.057-.415.089-.619.635-4.119 2.1-8.254 4.77-11.502 2.108-2.572 5.112-4.55 8.531-4.55 4.347 0 8.222 3.093 10.713 7.904z"/><path fill="#031326" d="M33.583.693c-3.476 0-6.851 1.779-9.503 5.011-2.548 3.104-4.29 7.289-5.038 12.099a32.176 32.176 0 00-.216 8.147c.01.097.067.514.133.979-6.702.029-15 .801-16.916 2.905-.362.404-.545.841-.545 1.3v.313c0 9.848 8.012 17.859 17.859 17.859 4.54 0 8.821-1.684 12.132-4.757 1.815.382 3.563.266 5.264-.271a1.251 1.251 0 00-.754-2.384c-1.468.466-2.942.518-4.551.074l-.483-.133c.439-.537.832-1.11 1.197-1.704.23.09.47.147.718.147 1.006 0 2.084-.71 2.687-1.875.378-.73.516-1.531.391-2.256-.122-.701-.484-1.246-1.011-1.563a16.136 16.136 0 004.213-4.598c.239.093.489.154.751.154.363 0 .742-.09 1.116-.269.697-.332 1.299-.938 1.694-1.703.396-.767.543-1.607.411-2.369-.137-.786-.551-1.394-1.166-1.712a2.036 2.036 0 00-.612-.195c.107-.736.169-1.481.172-2.234v-.378c0-.219-.097-.437-.276-.627-1.299-1.422-7.975-2.454-15.874-2.454-1.178 0-2.427.029-3.875.086.005-.033.006-.067.011-.1.679-4.369 2.235-8.138 4.5-10.897 1.256-1.53 3.909-4.097 7.57-4.097C40.43 3.193 46 11.959 46 22.733c0 2.543-.31 5.016-.919 7.35a1.248 1.248 0 00.893 1.525 1.248 1.248 0 001.525-.893 31.596 31.596 0 001.001-7.983C48.5 10.58 41.809.693 33.583.693zm-8.431 44.982a15.319 15.319 0 01-5.793 1.131c-6.213 0-11.565-3.716-13.981-9.036a14.753 14.753 0 01-1.115-5.625v-.105c.617.467 1.815.879 3.572 1.228 2.885.568 6.991.894 11.266.894s8.381-.325 11.267-.894c1.762-.356 2.958-.771 3.57-1.234v.185c-.029 5.986-3.641 11.141-8.786 13.456zm5.118-12.897c-.109.021-.231.04-.344.061-1.593-.626-5.834-1.073-10.825-1.073-4.99 0-9.231.447-10.825 1.073-.112-.021-.235-.039-.344-.061-2.358-.468-3.187-.956-3.482-1.235.793-.763 4.287-1.633 9.767-1.97l.168-.01c.23-.014.473-.023.71-.035a90.035 90.035 0 014.128-.098c8.182.011 13.514 1.146 14.526 2.11-.293.275-1.115.76-3.479 1.238zm5.196 3.457c.107.617-.014 1.307-.341 1.939-.615 1.189-1.776 1.818-2.696 1.524a15.213 15.213 0 001.756-4.875c.15.024.295.066.431.135.446.232.747.685.85 1.277zm-1.036-1.884c-.009.007-.009.019-.017.027-.051-.013-.097-.039-.149-.047.1-.692.17-1.393.173-2.112l.001-.356c0-1.674-6.098-2.671-12.62-2.889l-.179-1.014c-.037-.208-.304-2.07-.324-2.262-.071-.7-.104-1.422-.124-2.143l.186.01.286.013c1.245.053 2.494.08 3.714.08 4.511 0 8.838-.344 11.875-.944 1.875-.378 3.141-.819 3.775-1.314v.259a15.671 15.671 0 01-6.597 12.692zm7.307-9.818c.474.245.795.726.903 1.354.113.654-.015 1.383-.361 2.053-.347.671-.867 1.197-1.466 1.482-.486.232-.972.268-1.398.129a16.174 16.174 0 001.863-5.163c.162.026.317.072.459.145zm-16.36-5.832c8.541 0 14.251 1.135 15.431 2.229-.319.295-1.198.8-3.654 1.295-.108.021-.233.039-.344.06-1.663-.662-6.152-1.139-11.432-1.139-1.456 0-2.86.036-4.157.103.041-.825.117-1.644.226-2.458a94.162 94.162 0 013.93-.09z"/></svg>