<svg xmlns="http://www.w3.org/2000/svg" id="Layer_1" x="0" y="0" version="1.1" viewBox="0 0 50 50" xml:space="preserve"><style>.st3{fill:none;stroke:#444;stroke-width:.25;stroke-linecap:round;stroke-linejoin:round;stroke-miterlimit:10}</style><path fill="#fdcf72" d="M25.39 2.59L42.3 5.42l6.1 10.71c.45 1.17-.15 2.48-1.33 2.91L1.6 38.13l.94-14.37-.09-10.84 6.62-8.3 16.32-2.03z"/><path fill="#fcc34f" d="M48.24 25.68l.31 4.34L7.4 44.81l-3.66-3.39-2.26-8.37 45.89-17.64.4 5.11z"/><path fill="none" stroke="#444" stroke-linecap="round" stroke-linejoin="round" stroke-miterlimit="10" stroke-width="2.5" d="M46.21 39.8c1.29-2.2 2.03-4.75 2.03-7.48V17.66c0-1.73-.31-3.39-.87-4.92a14.666 14.666 0 00-7.64-8.26 14.23 14.23 0 00-5.97-1.3H16.12C8.18 3.19 1.67 9.67 1.64 17.6v14.73c0 2.42.58 4.7 1.62 6.72 0 .01 0 .01.01.02v.01l.01.01c1.86 3.61 5.16 6.37 9.12 7.51 1.3.38 2.67.58 4.08.58h16.93c1.3 0 2.55-.17 3.75-.48"/><path d="M1.2 33.97S31.94 5.29 42.3 5.41M3.54 38.06S34.28 9.38 44.64 9.5M6.71 41.97s30.74-28.68 41.1-28.56M10.02 46.19S38.71 17.7 49.07 17.82M14.54 47.41s25.84-24.85 33.78-24.85M24.96 46.68l-4.79-4.44m13.19 4.19l-8.46-8.24m10.04 2.28l-5.93-5.89m10.6 2.87l-6.69-6.02M46.57 37l-9.58-8.65m10.38 1.51l-5.04-4.96M1.96 26.25l9.27-1.14m-9.27-4.36l15.88-1.04M2.67 15.57s17.09-2.62 21.23-.56" class="st3"/><ellipse cx="25.39" cy="8.51" fill="#444" stroke="#444" stroke-linecap="round" stroke-linejoin="round" stroke-miterlimit="10" stroke-width=".25" rx="7.19" ry="1.82"/><path d="M3.54 10.53s9.89-2.41 15.52-1.14m-6.13-6.2C24.23 6.37 24.96 6.7 24.96 6.7m2.71-4.11s7.62 3.68 7.59 5.1" class="st3"/></svg>