<svg xmlns="http://www.w3.org/2000/svg" version="1" viewBox="0 0 50 50"><path fill="#fdcf72" d="M42.9 23.1V3.6c0-1.1-.9-1.9-1.9-1.9h-8c-1.1 0-1.9.9-1.9 1.9 0-1.1-.9-1.9-1.9-1.9h-8c-1.1 0-1.9.9-1.9 1.9 0-1.1-.9-1.9-1.9-1.9H9c-1-.1-1.9.8-1.9 1.9v32.6l35.8-13.1z"/><path fill="#fedd9d" d="M42.9 11.5v-8c0-1.1-.9-1.9-1.9-1.9h-8c-1.1 0-1.9.9-1.9 1.9 0-1.1-.9-1.9-1.9-1.9h-8c-1.1 0-1.9.9-1.9 1.9 0-1.1-.9-1.9-1.9-1.9H9c-1 0-1.9.9-1.9 2v21l35.8-13.1z"/><path fill="#031326" d="M23.5 33.3h3c.5 0 1-.4 1-1v-26c0-.5-.4-1-1-1h-3c-.5 0-1 .4-1 1v26c0 .5.4 1 1 1zm.2-26.8h2.5V32h-2.5V6.5zM25 37.6c-2 0-3.6 1.6-3.6 3.6s1.6 3.6 3.6 3.6 3.6-1.6 3.6-3.6-1.6-3.6-3.6-3.6zm0 5.9c-1.3 0-2.3-1.1-2.3-2.3 0-1.3 1.1-2.3 2.3-2.3s2.3 1.1 2.3 2.3c0 1.2-1 2.3-2.3 2.3zM11.5 33.3h3c.5 0 1-.4 1-1v-26c0-.5-.4-1-1-1h-3c-.5 0-1 .4-1 1v26c.1.5.5 1 1 1zm.3-26.8h2.5V32h-2.5V6.5zm1.3 31.1c-2 0-3.6 1.6-3.6 3.6s1.6 3.6 3.6 3.6 3.6-1.6 3.6-3.6-1.7-3.6-3.6-3.6zm0 5.9c-1.3 0-2.3-1.1-2.3-2.3 0-1.3 1.1-2.3 2.3-2.3 1.3 0 2.3 1.1 2.3 2.3 0 1.2-1 2.3-2.3 2.3z"/><path fill="#031326" d="M41 .6h-8c-.7 0-1.4.3-1.9.7-.5-.5-1.2-.7-1.9-.7h-8c-.7 0-1.4.3-1.9.7-.5-.5-1.2-.7-1.9-.7H9c-1.6 0-3 1.3-3 3v42.9c0 1.6 1.3 3 3 3h8c.7 0 1.4-.3 1.9-.7.5.5 1.2.7 1.9.7h8c.7 0 1.4-.3 1.9-.7.5.5 1.2.7 1.9.7h4c.6 0 1-.5 1-1 0-.6-.5-1-1-1h-4c-.5 0-.9-.4-.9-.9v-43c0-.5.4-.9.9-.9h8c.5 0 .9.4.9.9V25c0 .6.5 1 1 1 .6 0 1-.5 1-1V3.6c.4-1.7-.9-3-2.5-3zM17.1 47.4H9c-.5 0-.9-.4-.9-.9V3.6c0-.6.4-1 .9-1h8c.6 0 1 .4 1 1v42.9c0 .5-.4.9-.9.9zm11.9 0h-8c-.5 0-.9-.4-.9-.9V3.6c0-.5.4-.9.9-.9h8c.5 0 .9.4.9.9v42.9c0 .5-.4.9-.9.9z"/><path fill="#031326" d="M38.5 33.3c.5 0 1-.4 1-1v-26c0-.5-.4-1-1-1h-3c-.5 0-1 .4-1 1v26c0 .5.4 1 1 1h3zM35.7 6.5h2.5V32h-2.5V6.5zm1.2 31.1c-2 0-3.6 1.6-3.6 3.6s1.6 3.6 3.6 3.6 3.6-1.6 3.6-3.6-1.6-3.6-3.6-3.6zm0 5.9c-1.3 0-2.3-1.1-2.3-2.3 0-1.3 1.1-2.3 2.3-2.3 1.3 0 2.3 1.1 2.3 2.3.1 1.2-1 2.3-2.3 2.3z"/></svg>