<svg xmlns="http://www.w3.org/2000/svg" id="Camada_3" x="0" y="0" version="1.1" viewBox="0 0 50 50" xml:space="preserve"><style>.st5{fill:none;stroke:#444;stroke-width:.5;stroke-linecap:round;stroke-linejoin:round;stroke-miterlimit:10}</style><path fill="#e589ef" d="M36.1 32.3c-.4 0 .7-2.4 1-2.8l8.1-2.5c6.5-8.9 1.4-17.1-1.3-17l-4-2-1.3.3-6.8-.5c-.7 0-1.7-1.2-2.2-.9-1 .5-2.7.2-3 1.4l-1.4-.2L5.7 8l-2.1.5-1.1 1.3-.7 12.7c0 .5 0 .9.2 1.2l-.2.1c.2.5 3.7 7.8 4.1 8.3l-4 4.8c0 1 3.1 5 3.7 5.8 1.3 3.7 5.4 5.6 9.1 4.2l15.6-5.7 9-3.3 6-2.2c2.1-.7-5.8-3.4-9.2-3.4zM24.5 7.6l-2.6.2"/><path fill="none" stroke="#444" stroke-miterlimit="10" d="M38 11.8H26v0H7.7c-.9 0-1.7.8-1.7 1.7v5.6C6 27 12 34 19.9 34.6c6.6.5 12.5-3.3 15-8.9h3c3.5 0 6.7-2.5 7.2-6.1.4-4.1-2.9-7.8-7.1-7.8h0zm0 10.3h-1.6c-.3 0-.5-.2-.4-.5.1-.7.1-1.3.1-2v-3.3c0-.4.3-.7.7-.7h1.1c1.6 0 3 1.1 3.3 2.6.5 2-1.1 3.9-3.2 3.9h0zm0 0"/><path fill="none" stroke="#444" stroke-miterlimit="10" stroke-width=".75" d="M7.4 40.5c.6 1 2.1 1.9 3.4 1.9h25.8c1.2 0 2.7-.8 3.4-1.9l1.3-2.1c.5-.9-.1-2-1.1-2H7.3c-1 0-1.7 1.1-1.1 2l1.2 2.1zm.4.7"/><path fill="none" stroke="#444" stroke-linecap="round" stroke-linejoin="round" stroke-miterlimit="10" stroke-width="2.5" d="M34.4 46.7H10.8c-2 0-3.8-.9-5-2.5L3 40.6c-2.4-3.1-.6-7.9 5.2-7.6h0c-5.3-2.7-6.5-12.7-6.7-19.3-.1-3.3 2.6-6.1 5.9-6.1h27.1c3.1 0 14.2.5 14.2 10.7 0 10.9-10.3 11.2-11.6 11.2h0L35.3 32c-.4.3-.1.9.3.9h5.5c3.1 0 5.3 4.1 3.6 6.7"/><path d="M23.4 14.7c.4 3.5-1.4 4.9-3.3 6.3-5.8 3.8-4.8 6.6.2 10.4-3-3.9-3.7-6 1.1-9.9.5-.4 1-.9 1.4-1.4 2.7-3.3.5-5.2.6-5.4zm0 0" class="st5"/><path d="M21.3 32.5s1.8-1.3-.4-4.2c0 0-3.7-4.5 6-7.4 0 0-7.5 3.7-4 6.7.1 0 2.6 2.3-1.6 4.9zm0 0" class="st5"/></svg>