<?xml version="1.0" encoding="utf-8"?>
<!-- Generator: Adobe Illustrator 27.7.0, SVG Export Plug-In . SVG Version: 6.00 Build 0)  -->
<svg version="1.1" id="Layer_1" xmlns="http://www.w3.org/2000/svg" xmlns:xlink="http://www.w3.org/1999/xlink" x="0px" y="0px"
	 viewBox="0 0 50 50" style="enable-background:new 0 0 50 50;" xml:space="preserve">
<style type="text/css">
	.st0{fill:none;stroke:#444444;stroke-width:2.5;stroke-linecap:round;stroke-linejoin:round;stroke-miterlimit:10;}
	.st1{fill:#FCC34F;}
	.st2{fill:#444444;}
	.st3{fill:none;stroke:#444444;stroke-linejoin:round;}
	.st4{fill:none;stroke:#444444;stroke-width:0.5;stroke-linejoin:round;}
</style>
<g>
	<path class="st0" d="M2.08,15.19"/>
	<path class="st1" d="M45.1,2.2H4c-1.4,0-1.43,3.84-1.43,5.24L2.39,24.38L1.86,34.54l1.25,11.77l12.4,0.61l32.13-11.43V4.95V4.76
		V4.72C47.63,3.33,46.5,2.2,45.1,2.2z"/>
	<path class="st0" d="M32.48,47.64H5.47c-1.87,0-3.39-1.58-3.39-3.54V5.19c0-1.95,1.52-3.54,3.39-3.54h39.01
		c1.87,0,3.39,1.58,3.39,3.54v32.47"/>
</g>
<path class="st2" d="M35.27,17.7c0-0.3-0.1-0.4-0.2-1c-0.3-0.6-0.4-0.9-0.7-1.3c-0.5-0.7-1.2-1.3-2-1.7l-1.8-0.9
	c-0.7-0.3-1.5-0.7-2.2-1c-0.3-0.2-0.6-0.4-0.8-0.7c-0.1-0.2-0.2-0.5-0.2-0.8c0-0.4,0.1-0.9,0.5-1.1c0.5-0.4,1.1-0.5,1.7-0.5
	c0.89,0.07,2.57,0.56,3.54,0.86c0.43,0.13,0.89-0.09,1.06-0.51l0.56-1.39c0.19-0.47-0.06-1-0.54-1.15
	c-1.15-0.35-3.15-0.91-4.31-0.91c-1.5,0-3,0.4-4.3,1.4c-1.1,0.9-1.8,2.2-1.7,3.7c0,1.17,0.28,2.24,0.94,3.12
	c0.04,0.05,0.08,0.1,0.13,0.15c0.98,0.96,2.06,1.64,3.33,2.13c1,0.3,2,0.9,2.8,1.6c0.4,0.3,0.6,0.7,0.6,1.2v0.3
	c-0.1,0.4-0.3,0.8-0.6,1c-0.7,0.4-1.4,0.5-2.1,0.6c-0.6,0-1.1,0-1.7-0.1c-0.2,0-0.4-0.1-0.6-0.1c-0.4-0.1-0.8-0.2-1.2-0.4
	c-0.23-0.07-0.45-0.15-0.66-0.26c-0.57-0.28-1.24,0.14-1.24,0.78v1.23c0,0.39,0.25,0.73,0.63,0.83c1.04,0.29,3.13,0.85,4.37,0.92
	c1.7,0.1,3.75-0.14,5.15-1.14c1.2-0.9,1.65-2.66,1.55-4.16C35.27,18.4,35.27,17.7,35.27,17.7z M18.53,5.5
	c-0.48,0-0.86,0.39-0.86,0.87V18c0,2.1-0.9,2.3-1.7,2.3c-0.23,0-0.71-0.08-1.17-0.18c-0.53-0.11-1.03,0.3-1.03,0.85v1.46
	c0,0.4,0.27,0.75,0.66,0.84c0.56,0.13,1.33,0.29,1.74,0.23c1.5,0.1,2.9-0.4,3.9-1.5c1-1.2,1.5-2.7,1.4-4.3V6.37
	c0-0.48-0.39-0.87-0.87-0.87H18.53z"/>
<g>
	<circle class="st3" cx="17.18" cy="29.4" r="2"/>
	<circle class="st3" cx="21.38" cy="36.6" r="1.8"/>
	<path class="st4" d="M20.08,36.7h-5.5"/>
	<circle class="st3" cx="12.78" cy="36.6" r="1.8"/>
	<path class="st4" d="M19.28,29.3h11"/>
	<circle class="st3" cx="31.88" cy="29.4" r="2"/>
	<circle class="st3" cx="36.28" cy="36.7" r="1.8"/>
	<path class="st4" d="M34.88,36.8h-5.4"/>
	<circle class="st3" cx="27.58" cy="36.7" r="1.8"/>
	<path class="st4" d="M17.08,31.2v5.29 M31.88,31.4v5.41 M36.28,38.7v2.5"/>
	<circle class="st3" cx="36.28" cy="42.7" r="1.5"/>
	<path class="st4" d="M24.18,29.1v-8.6"/>
</g>
</svg>
