<svg xmlns="http://www.w3.org/2000/svg" viewBox="0 0 50 50"><path fill="#c3ff68" d="M44.54 6.55l-36.48.13c-2.9 0-6.04.91-6.04 3.82v13.75l-.19 10.1c.36 6.28 6.97 6.54 15.17 6.02l.89 5.25 15.37-5.47 15.56-5.54-.2-23.86-4.08-4.2z"/><path fill="none" stroke="#444" stroke-linecap="round" stroke-linejoin="round" stroke-miterlimit="10" d="M32.77 39.51l-25.65-.09c-2.56 0-5.49-2-5.49-4.56m30.18 10.67H17.99c-.53 0-.88-.55-.65-1.03l2.37-4.8h10.3l2.45 4.83c.21.46-.14 1-.65 1z"/><circle cx="24.9" cy="36.63" r="1.59" fill="#444"/><path fill="none" stroke="#444" stroke-linecap="round" stroke-linejoin="round" stroke-miterlimit="10" stroke-width="2.5" d="M48.53 34.98V12.6c0-3.44-2.79-6.24-6.24-6.24H7.7c-3.44 0-6.24 2.79-6.24 6.24v21.43c0 3.44 2.79 6.24 6.24 6.24h10.63l-1.84 4.48c-.36.88.28 1.85 1.23 1.85l14.34.09c.97.01 1.62-.98 1.24-1.87l-1.94-4.55h5.78"/><path fill="none" stroke="#444" stroke-linecap="round" stroke-linejoin="round" stroke-miterlimit="10" stroke-width=".5" d="M2.56 33.83H47.9m-45.72 0h8.16"/><path fill="#444" stroke="#444" stroke-linecap="round" stroke-linejoin="round" stroke-miterlimit="10" stroke-width=".5" d="M7.96 10.49H9.4m2.4 0h11.32m1.73 0h5.77m-14.24 3h11.33m2.08 0h11.32m-33.15 0H9.4m-1.44 3H9.4m6.41 0h7.67m1.85 0h11.02m2.21 0h4.14m-34.74 3H9.4m-1.44 2.86H9.4m-1.44 3.13H9.4m-1.44 2.87H9.4m-1.44 3H9.4m10.38-11.86h8.9m5.12 0h8.9m-30.6 2.86h10.2m2.23 0h10.21m-17.96 3.13h2.88m3.23 0h13.84m-20.57 2.87h7.6m1.44 0h11.42m1.58 0h4.59m-23.01 3h9.24m1.34 0h12.16"/></svg>