<svg xmlns="http://www.w3.org/2000/svg" id="Camada_3" x="0" y="0" version="1.1" viewBox="0 0 50 50" xml:space="preserve"><style>.st2{fill:#444}</style><path fill="#dc5e82" d="M47.92 20.13c-.2-.8-2.7-7.5-3.2-8.1l-3-3.5-.2.1-7.6-5.7-7.8-.7c-3.2 0-12.8-.7-21.3 11.5l-2.9 7.9.5 2 1.8 11.5c.1.4 4.7 7 5.1 7.2l5.6 3 32.2-11.7c.7-.5 1.7-8.7.8-13.5z"/><path fill="none" stroke="#444" stroke-linecap="round" stroke-linejoin="round" stroke-miterlimit="10" stroke-width="2.5" d="M28.12 47.73c-12.6 1.6-24.1-7.4-25.7-20.1-1.6-12.6 7.4-24.1 20.1-25.7 12.6-1.6 24.1 7.4 25.7 20.1.6 5.1-.5 10-2.8 14.1"/><path d="M27.34 21.04a4.28 4.28 0 00-1.83-.4c-.59 0-1.16.12-1.7.34-.52.22-.99.54-1.39.94a4.38 4.38 0 00-1.29 3.1 4.324 4.324 0 00.71 2.4c.45.69 1.09 1.24 1.84 1.59a4.215 4.215 0 001.83.4c.59 0 1.16-.12 1.7-.34.52-.22.99-.54 1.39-.94.4-.4.72-.87.94-1.39.23-.54.34-1.12.35-1.71 0-.86-.25-1.68-.71-2.4a4.433 4.433 0 00-1.84-1.59zm.39 6.22c-.6.6-1.39.92-2.23.92a3.155 3.155 0 01-3.03-2.31 3.133 3.133 0 01.81-3.08c.6-.6 1.39-.92 2.23-.92a3.03 3.03 0 011.31.29 3.16 3.16 0 011.84 2.87c0 .85-.33 1.64-.93 2.23zm-3.94-7.01z" class="st2"/><path d="M33.57 24.95v-1c0-.1-.02-.2-.06-.29a.819.819 0 00-.55-.49l-.79-.21c-.01 0-.03-.01-.04-.01h-.01l-.28-.08-.01-.02c-.09-.26-.2-.52-.32-.77l-.01-.02.59-1.01a.8.8 0 00-.13-.97l-1.52-1.53a.804.804 0 00-.97-.13l-1.01.59-.02-.01c-.25-.12-.5-.23-.76-.32l-.02-.01-.3-1.13a.804.804 0 00-.78-.6h-2.17c-.36 0-.68.25-.77.6l-.3 1.13-.02.01c-.26.09-.52.2-.76.32l-.02.01-1.01-.59a.8.8 0 00-.97.13l-1.52 1.52c-.26.26-.31.66-.13.97l.59 1.01-.01.02c-.12.25-.23.51-.32.77l-.01.02-1.13.3c-.35.09-.6.41-.6.78v2.16a.806.806 0 00.6.78l1.13.3.01.02c.09.26.2.52.32.77l.01.02-.58 1.01a.8.8 0 00.13.97l1.52 1.53c.07.07.15.12.23.16.24.11.52.1.74-.04l1.01-.59.02.01c.25.12.5.23.76.32l.02.01.3 1.13c.09.33.37.57.71.6h2.22c.36 0 .68-.25.78-.6l.3-1.13.02-.01c.28-.09.54-.2.78-.31l.02-.01 1 .58a.8.8 0 00.97-.13l1.52-1.53c.26-.26.31-.66.13-.97l-.59-1.01.01-.02c.12-.25.23-.51.32-.77l.01-.02 1.13-.3c.35-.09.6-.41.6-.78l-.01-1.14zm-1.24.83l-1.14.3c-.21.06-.38.22-.44.43-.12.42-.28.82-.49 1.19-.11.19-.1.42.01.61l.59 1.02-1.06 1.06-.87-.51c-.01-.01-.02-.01-.03-.02l-.12-.07a.64.64 0 00-.43-.07c-.07.01-.13.04-.19.07-.38.21-.78.38-1.19.49-.21.06-.37.23-.43.44l-.3 1.14h-1.5l-.3-1.14a.635.635 0 00-.43-.44c-.41-.12-.82-.28-1.19-.5a.732.732 0 00-.25-.08.637.637 0 00-.36.08l-1.02.59-1.06-1.06.59-1.02c.11-.19.11-.42 0-.61-.21-.38-.38-.78-.49-1.19a.635.635 0 00-.44-.43l-1.14-.3v-1.5l1.14-.3c.21-.06.38-.22.44-.43.12-.41.28-.82.49-1.19a.63.63 0 000-.61l-.59-1.02 1.06-1.06 1.02.59c.19.11.42.11.61.01.38-.21.78-.38 1.19-.49.21-.06.37-.23.43-.44l.3-1.14h1.5l.3 1.14c.05.21.22.38.43.44.41.12.82.28 1.19.5.19.11.42.1.61 0l1.02-.59 1.06 1.06-.59 1.02c-.11.19-.11.42 0 .61.21.38.38.78.49 1.19.06.21.23.37.44.43l1.14.3v1.5zM25.52 9.36c1.32 0 2.4-1.08 2.4-2.4 0-1.32-1.08-2.4-2.4-2.4-1.32 0-2.4 1.08-2.4 2.4 0 1.33 1.07 2.4 2.4 2.4zm0-3.65a1.25 1.25 0 11-1.25 1.25c-.01-.69.56-1.25 1.25-1.25zM10.61 19.57c0-1.32-1.08-2.4-2.4-2.4-1.32 0-2.4 1.08-2.4 2.4 0 1.32 1.08 2.4 2.4 2.4 1.32 0 2.4-1.08 2.4-2.4zm-3.66 0a1.25 1.25 0 112.5 0 1.25 1.25 0 01-2.5 0zm35.86-2.4c-1.32 0-2.4 1.08-2.4 2.4 0 1.32 1.08 2.4 2.4 2.4 1.32 0 2.4-1.08 2.4-2.4 0-1.32-1.08-2.4-2.4-2.4zm0 3.65a1.25 1.25 0 110-2.5 1.25 1.25 0 010 2.5zM36.23 37.5c-1.32 0-2.4 1.08-2.4 2.4s1.08 2.4 2.4 2.4c1.32 0 2.4-1.08 2.4-2.4s-1.08-2.4-2.4-2.4zm0 3.66a1.25 1.25 0 110-2.5 1.25 1.25 0 010 2.5zM14.8 37.5c-1.32 0-2.4 1.08-2.4 2.4s1.08 2.4 2.4 2.4c1.32 0 2.4-1.08 2.4-2.4s-1.07-2.4-2.4-2.4zm0 3.66a1.25 1.25 0 110-2.5 1.25 1.25 0 010 2.5zM7.85 25.03a.57.57 0 10-1.14 0c0 2.11.35 4.18 1.03 6.16.66 1.91 1.63 3.69 2.86 5.3.11.15.28.22.46.22.12 0 .25-.04.35-.12.25-.19.3-.55.1-.8-2.39-3.1-3.66-6.83-3.66-10.76zM31.62 41.6c-1.95.72-4.01 1.09-6.11 1.09-2.13 0-4.21-.37-6.18-1.11-.3-.11-.63.04-.74.34-.11.3.04.63.34.74 2.1.79 4.32 1.19 6.59 1.19 2.24 0 4.43-.39 6.51-1.16.3-.11.45-.44.34-.74-.13-.3-.46-.46-.75-.35zm12.12-17.14a.57.57 0 00-.57.57c0 3.93-1.26 7.65-3.66 10.76a.571.571 0 00.45.92c.17 0 .34-.08.46-.22a18.64 18.64 0 002.86-5.3c.68-1.98 1.03-4.05 1.03-6.16a.57.57 0 00-.57-.57zM30.64 8.13c3.65 1.11 6.91 3.43 9.16 6.54.11.15.29.24.46.24.12 0 .23-.04.34-.11.26-.19.31-.55.13-.8a18.807 18.807 0 00-4.28-4.26c-1.67-1.2-3.51-2.11-5.48-2.7-.3-.09-.62.08-.72.38-.08.3.09.62.39.71zm-20.57 7.18c.1.07.21.1.32.1.18 0 .37-.09.48-.25 2.34-3.46 5.83-5.99 9.83-7.12.31-.09.48-.4.4-.71a.578.578 0 00-.71-.4 18.85 18.85 0 00-10.47 7.58c-.18.27-.11.63.15.8z" class="st2"/><path fill="none" stroke="#444" stroke-linecap="round" stroke-linejoin="round" stroke-miterlimit="10" stroke-width=".5" d="M11.78 20.73l5.31 1.68m-.19 14.44l3.24-4.52m14.2 4.64l-3.38-4.42m8.48-12.2l-5.19 1.99m-8.71-11.87l.14 5.57"/></svg>