<svg xmlns="http://www.w3.org/2000/svg" id="Layer_1" x="0" y="0" version="1.1" viewBox="0 0 50 50" xml:space="preserve"><style>.st2{fill:#031326}.st3{fill:none;stroke:#031326;stroke-width:1.5;stroke-linecap:round;stroke-linejoin:round;stroke-miterlimit:10}</style><path fill="#ff6b6b" d="M35.8 4.8H14.2c-.6 0-1.1.3-1.4.8l-6.4 11L37.1 5.4c-.3-.4-.8-.6-1.3-.6z"/><path fill="#e56060" d="M48 25.9c.3-.5.3-1.1 0-1.6L37.2 5.5c0-.1-.1-.1-.1-.1L6.4 16.6 2 24.3c-.3.5-.3 1.1 0 1.6L10.1 40l37.7-13.7.2-.4z"/><path d="M49.1 23.6L38.3 4.8c-.5-.9-1.4-1.4-2.5-1.4H14.2c-1 0-2 .5-2.5 1.4L.9 23.6c-.5.9-.5 2 0 2.8l10.8 18.7c.5.9 1.4 1.4 2.5 1.4h21.6c1 0 2-.5 2.5-1.4l2-3.5c.3-.6.1-1.4-.5-1.7s-1.4-.1-1.7.5l-2 3.5c-.1.1-.2.2-.3.2H14.2c-.1 0-.2-.1-.3-.2L3.1 25.2c-.1-.1-.1-.2 0-.3L13.9 6.1c.1-.1.2-.2.3-.2h21.6c.1 0 .2.1.3.2l10.8 18.7c.1.1.1.2 0 .3l-1 1.7c-.3.6-.1 1.4.5 1.7.6.3 1.4.1 1.7-.5l1-1.7c.5-.8.5-1.8 0-2.7z" class="st2"/><path d="M33.9 42.4h-18c-.7 0-1.3-.4-1.7-1l-9-15.6c-.3-.6-.3-1.3 0-1.9l9-15.6c.3-.6 1-1 1.7-1h18c.7 0 1.3.4 1.7 1l9 15.6c.3.6.3 1.3 0 1.9l-9 15.6c-.4.6-1 1-1.7 1zm-18-34.3c-.4 0-.8.2-1 .6l-9 15.6c-.2.4-.2.8 0 1.2l9 15.6c.2.4.6.6 1 .6h18c.4 0 .8-.2 1-.6l9-15.6c.2-.4.2-.8 0-1.2l-9-15.6c-.2-.4-.6-.6-1-.6h-18z" class="st2"/><path d="M24.2 15.6v1.5m-3.9-.8v1.6m7.8-1.6v1.6m3.1 3.1h3.1v3.1c0 .9-.7 1.6-1.6 1.6h-2" class="st3"/><path d="M24.2 30.4c-3.9 0-7-3.1-7-7V21h14.1v2.3c-.1 4-3.2 7.1-7.1 7.1zm-7 2.3h14" class="st3"/></svg>