<svg xmlns="http://www.w3.org/2000/svg" id="Camada_3" x="0" y="0" version="1.1" viewBox="0 0 50 50" xml:space="preserve"><style>.st3,.st4{fill:none;stroke:#444;stroke-miterlimit:10}.st4{stroke-width:.5;stroke-linecap:round;stroke-linejoin:round}</style><path fill="#00dffc" d="M31.3 4.4l-6-2.8c-3.2 0-21.5 8.9-21.5 12.1l-.5 7.8L39 8.8l-7.7-4.4z"/><path fill="#00c8e2" d="M3.4 21.5l.5 15.1 11.5 7.6 31-11c.7-.4-.8-18.8-1.8-20.7L39 8.8 3.4 21.5z"/><path fill="none" stroke="#444" stroke-linecap="round" stroke-linejoin="round" stroke-miterlimit="10" stroke-width="2.5" d="M29.9 46.5l-2.2 1.3c-1.7 1-3.8 1-5.5 0l-15.6-9C5 37.8 3.9 36 3.9 34V16c0-2 1-3.8 2.7-4.7l15.6-9c1.7-1 3.8-1 5.5 0l15.6 9c1.7 1 2.7 2.8 2.7 4.7v18c0 2-1 3.8-2.7 4.7l-2.5 1.4-3.4 2"/><path d="M40.4 40.5H16.6c-1.1 0-1.9-.8-1.9-1.9V18.3c0-1 .9-1.9 1.9-1.9h29.2" class="st3"/><path d="M43.1 16.4V14c0-.8-.7-1.4-1.5-1.4H34c-.7 0-1.3-.5-1.5-1.1L32 8.8c-.1-.7-.8-1.1-1.5-1.1h-8.2c-.7 0-1.3.4-1.4 1.1l-.8 2.8c-.2.6-.8 1.1-1.4 1.1h-7c-.8 0-1.5.6-1.5 1.4v19.5c0 2 1.3 3.5 2.8 4.8l1.9 1.4" class="st3"/><path d="M38.4 31.7c-1.3 2.7-4 4.5-7.3 4.5-4.4 0-8-3.5-8-7.7M24 25c1.3-2.5 4-4.2 7.1-4.2 4.4 0 8 3.5 8 7.7" class="st4"/><path d="M21.1 30.1l2-1.9 2 1.9m12-3.2l2 1.9 2-1.9" class="st4"/></svg>