<svg xmlns="http://www.w3.org/2000/svg" id="Layer_1" x="0" y="0" version="1.1" viewBox="0 0 50 50" xml:space="preserve"><style>.st2{fill:#494949}</style><path fill="#46b8b0" d="M40 12.2l-2.2.8-1.6.6-1.9.7-6.5 2.3-1.5.6-1.7.6-5.6 2.1-.5.1-1.8.7-.9.3L9 23.5l-1.2.4-1.8.7-.7.2-.2.1V38l2.1.5 1.6-.6 2.2-.8.5-.2 1-.4 8.4-3 1.6-.6 4.6-1.7 5.8-2.1 1.3-.5.4-.2 6.4-2.3 1.2-.4L44 25V14.4l-3.4-1.9z"/><path fill="#4ecdc4" d="M40 12.2C35 9.1 29.9 6 24.8 3c-.5.5-1.1 1-1.6 1.6L6 14.4v10.1l-.7.3-.2.1v.5l.2-.1.7-.2 1.7-.6L9 24l6.8-2.5L17 21l1-.4 5.6-2.1 3.1-1.1 1.6-.6 7.3-2.7 1.1-.4 1.6-.6 2.2-.8-.5-.1z"/><path d="M38.4 13.3l-.6-.3L25 6 7.8 15.4v20l3.2 1.7 14 7.7 17.2-9.4v-20l-3.8-2.1zM25 7.5l11.2 6.1.6.3 3.5 1.9-6.8 3.9-5.1-2.8-.6-.3-2.8-1.5-8.5 4.6-6.8-3.9L25 7.5zM24.4 43l-11.9-6.5L9 34.6V16.9l6.8 3.9v9.9l5.1 2.8 3.5 1.9V43zm-1.9-10.1l-4.7-2.6c-.2-.1-.5-.2-.7-.3v-9.2l1.5-.8 5.9-3.2c.2-.1.4-.2.6-.4.2.1.4.2.6.4l.7.4.6.3 6.1 3.3V30c-.2.1-.5.2-.7.3l-7.4 4-2.5-1.4zM41 34.6L25.6 43v-7.6l8.6-4.7v-9.9l6.8-3.9v17.7z" class="st2"/><path d="M25 3.5l.4.2L40 12.2l.6.3 3.4 2v21.9L25 47.3 8.8 37.9 6 36.3V14.4l17.2-9.9 1.8-1M25 1c-.4 0-.9.1-1.2.3l-1.8 1-17.2 10c-.8.4-1.2 1.3-1.2 2.2v21.9c0 .9.5 1.7 1.2 2.2l2.7 1.6 16.3 9.4c.4.2.8.3 1.2.3.4 0 .9-.1 1.3-.3l19-10.9c.8-.4 1.2-1.3 1.2-2.2V14.4c0-.9-.5-1.7-1.2-2.2l-3.4-2-.7-.2-14.5-8.4-.4-.2c-.4-.3-.9-.4-1.3-.4z" class="st2"/></svg>