<svg xmlns="http://www.w3.org/2000/svg" id="Camada_3" x="0" y="0" version="1.1" viewBox="0 0 50 50" xml:space="preserve"><style>.st3{fill:#444}.st4{fill:none;stroke:#444;stroke-linecap:round;stroke-linejoin:round;stroke-miterlimit:10}</style><path fill="#59c2e2" d="M48 3.2H2.3v18.5L48 5.4z"/><path fill="#36bad7" d="M2.3 21.7v24.6L48 30.1V5.4z"/><path fill="none" stroke="#444444" stroke-linecap="round" stroke-linejoin="round" stroke-miterlimit="10" stroke-width="2.5" d="M25.1 48H5.7c-1.9 0-3.4-1.6-3.4-3.5v-39c0-2 1.5-3.5 3.4-3.5h39c1.9 0 3.4 1.6 3.4 3.5v25.9"/><path d="M28.3 13.2l-2.7-1.5c-.5-.3-1-.3-1.6-.1-.1 0-.1.1-.1.1l-2.7 1.5c-.6.4-.9 1-.9 1.6v3.1c0 .7.4 1.3.9 1.6l2.7 1.5c.5.3 1 .3 1.6.1.1 0 .1-.1.1-.1l2.7-1.5c.6-.4.9-1 .9-1.6v-3.1c0-.7-.4-1.3-.9-1.6z" class="st3"/><path d="M30.5 13.6c0 .1-.1 0 0 0 .1.2.1.4.1.7v4.5c0 .5-.3 1.1-.8 1.3L26 22.3c-.1.1-.2.1-.4.1-.1 0-.2.1-.2.1v4.2c.3 0 .5-.1.8-.2l7.6-4.4c.5-.3.8-.8.8-1.3V12c0-.2-.1-.5-.2-.7l-3.9 2.3zm-15.3-2.2c-.1.1-.1.2-.1.4v9c0 .5.3 1.1.8 1.4l7.8 4.5c.2.1.7.2.7.2v-4.3c-.2 0-.7-.1-.9-.2L19.6 20c-.5-.3-.8-.8-.8-1.4V14c0-.2.1-.4.1-.6l-3.7-2zm14.6 1.2c0-.1 0 0 0 0-.1-.2-.3-.4-.5-.4L25.4 10c-.5-.3-1.1-.3-1.6 0L20 12.1c-.1.1-.2.1-.3.2l-.2.2-3.7-2.1c.1-.2.4-.5.6-.6L24 5.4c.5-.3 1.1-.3 1.6 0l7.6 4.4c.2.1.4.3.5.5l-3.9 2.3z" class="st3"/><path d="M39.4 40.4v3.4h-6.7V37h6.7zM14 36.5c2.1 0 3.8 1.7 3.8 3.8 0 2.1-1.7 3.8-3.8 3.8-2.1 0-3.8-1.7-3.8-3.8 0-2 1.7-3.8 3.8-3.8z" class="st4"/><path d="M39.4 43.8h-6.7V37h6.7v3.4zm-9-10.4l-5.5 3.3-5.6-3.3 5.6-3.3zM14 36.5c2.1 0 3.8 1.7 3.8 3.8 0 2.1-1.7 3.8-3.8 3.8-2.1 0-3.8-1.7-3.8-3.8 0-2 1.7-3.8 3.8-3.8zm30.2-7.3h-5.1v-7.6h5.1zm-4.7 11.2h-.1" class="st4"/><path fill="none" stroke="#444" stroke-linecap="round" stroke-linejoin="round" stroke-miterlimit="10" stroke-width=".25" d="M30.4 33.4h5.4v3.5m-16.5-3.5H14v3.3m18.4 3.7H17.8m7.1-12.3v2M33.8 16h7.8v5.6m0 7.6v11.2h-2.2M8.7 21.9v-5.6h7.8m-6.3 24.4H8.7V29.8"/><path d="M6.2 29.5h5.1v-7.6H6.2z" class="st4"/></svg>
