<svg xmlns="http://www.w3.org/2000/svg" id="Layer_1" x="0" y="0" version="1.1" viewBox="0 0 50 50" xml:space="preserve"><style>.st2{fill:#444}</style><path fill="#fcc34f" d="M42.7 14.4l-2.5 9-2.3 3.8L9.5 37.7l1.5-7.6H9.8l-.9.1v-6.9l2.9-5.8L42.6 9l.1 3.9z"/><path fill="#fdcf72" d="M42.7 8.2l.6 2.7-.8 2.1L8.2 25.8l-2-4.5.4-1.5L16 12l2.4-6.8 3.8-2.3z"/><path d="M26.4 7.1c-.2.5.1 1 .6 1l6.8 1.8h.2c.4 0 .8-.3.9-.7.2-.5-.1-1-.6-1l-6.8-1.8c-.5-.1-1 .2-1.1.7z" class="st2"/><path d="M9.6 37.5l1.5-.3L33 43.6l-.4 1.4c-.2.7-.7 1.3-1.3 1.7-.7.4-1.4.5-2.2.3l-12.6-3.1c-.3.3-.5.4-.7.8-.1.2-.1.5-.2.7l13.1 3.3c.4.1.9.2 1.2.2.8 0 1.5-.3 2.3-.7 1.1-.7 1.9-1.6 2.2-2.9L35 43v1l8.2-30.7c.3-2.2.1-3.4-.5-4.5-.7-1-1.6-1.9-2.9-2.2L23.2 2.3c-1.2-.3-2.4-.2-3.5.4-1.1.7-1.9 1.6-2.2 2.9L17 7.9l-1.4 5.4c.3-.1.5-.1.8-.1.4 0 .8 0 1 .2l1.1-4.3 22.3 6-7.2 27-22.2-6.3.9-3.1h-1.8L9 38.5m32.1-25.2L19 7.4l.3-1.4c.2-.7.7-1.3 1.3-1.7.7-.4 1.4-.5 2.2-.3l16.5 4.4c1.6.4 2.5 2 2.1 3.5l-.3 1.4z" class="st2"/><path d="M19.8 42.2c-.2.5.1 1 .6 1l1.5.4h.2c.4 0 .8-.3.9-.7.2-.5-.1-1-.6-1l-1.5-.4c-.5-.1-1 .2-1.1.7z" class="st2"/><path fill="none" stroke="#444" stroke-linecap="round" stroke-linejoin="round" stroke-miterlimit="10" stroke-width="2.5" d="M16 44.5c4.7 1.3 11.7 3.2 13.7 3.6 3 .4 3.4-1.7 3.8-2.3l.2-.6c.3-1 5.8-21.1 8-30.1.4-1.7.7-3 .8-3.7.7-3.2-2.5-4.1-2.5-4.1S27.4 3.7 23 3c-4.2-.9-5 2.7-5 2.7l-2 7.5"/><path fill="#444" stroke="#444" stroke-linecap="round" stroke-miterlimit="10" stroke-width="2.5" d="M11.2 33.5l-1.7 5.8"/><path d="M13.5 23.6l1 3.6c.2.8.8 1.4 1.6 1.6l3.6 1h.2c.6 0 1.3-.3 1.8-.7l2.6-2.6c.5-.6.7-1.4.5-2.2l-1-3.6c-.2-.8-.8-1.4-1.6-1.6l-3.6-1h-.2c-.6 0-1.3.3-1.8.7L14 21.4c-.6.6-.8 1.4-.5 2.2z" class="st2"/><path d="M6.2 21.3c-.1.3-.1.6 0 .9l2.9 10.3c.3.6.7 1.1 1.4 1.3l10.4 2.6c.4.1.7.1 1.1 0l-1.4-5h-.4c-.2 0-.3-.1-.4-.1L14.4 30c-.7-.2-1.2-.7-1.4-1.3l-1.5-5.3c-.1-.3-.1-.5-.1-.8.1-.1 0 .1 0 0l-5.2-1.3zm22.4-6.2l-3.8 3.6c.2.2.3.4.4.7l1.5 5.4c.3.6.1 1.3-.4 1.8l-3.9 3.9c-.2.3-.5.4-.8.5l1.4 5s.4-.3.6-.4l7.6-7.8c.4-.4.6-1.1.4-1.8l-2.9-10.5c0-.2 0-.3-.1-.4zm-22 4.7c.1-.3.3-.5.4-.7l7.5-7.6c.5-.5 1.1-.7 1.8-.5l10.4 2.6c.4.1.6.3.9.5L24 17.8c-.1-.1-.2-.1-.3-.2-.2-.1-.3-.2-.4-.2L18 16.1c-.7-.2-1.4 0-1.8.5l-3.8 3.9c-.2.2-.4.4-.4.7 0 0 0-.1 0 0l-5.4-1.4z" class="st2"/></svg>