<svg xmlns="http://www.w3.org/2000/svg" viewBox="0 0 50 50"><path fill="#e56060" d="M14.8 30.9l7.1 3.7-1.9.7-10.6 3.9-2 .7-4.3-2.3V24.7l1.6-.6 8.6-3.2 1.6-.6v.6c0 3.5 0 6.7-.1 10zm32-18.5v13.2l-1.6.6-8.6 3.1-1.6.5V19.2c-2-1.1-4-2.2-5.9-3.3-.2-.1-.5-.2-.7-.4l1.9-.7L40.9 11l2-.7.7.4 3.2 1.7z"/><path fill="#ff6b6b" d="M42.9 10.3L25.2.6l-1 .4-21 11.4v13l1.6-.6 8.6-3.2 1.5-.6v-1.8c3.4-1.8 6.7-3.7 10.1-5.5 1.1.6 2.2 1.2 3.4 1.9.2.1.5.2.7.4l1.9-.7 10.6-3.9 2-.7-.7-.4z"/><path fill="#494949" d="M43.6 10.6l-.7-.4L25.2.6 25 .5l-.8.5-21 11.4v25.2l4.3 2.3L25 49.5l21.8-11.9V12.4l-3.2-1.8zM25 2.3L40.9 11l.7.4 2.8 1.5-8.6 5-4.8-2.7-.7-.4L25 12l-10.8 5.9-8.6-5L25 2.3zm-.8 44.9l-14.8-8-4.7-2.5V14.2l8.6 5v12.5l6.6 3.6 4.2 2.3v9.6zm-2.3-12.6l-7.1-3.7c0-3.3.1-6.5.1-9.8v-1.8c3.4-1.8 6.7-3.7 10.1-5.5 1.1.6 2.2 1.2 3.4 1.9.2.1.5.2.7.4 2 1.1 4 2.2 5.9 3.3V31c-3.3 1.8-6.7 3.7-10 5.5-1-.8-2-1.3-3.1-1.9zm23.3 2.1L25.8 47.2v-9.6l10.8-5.9V19.2l8.6-5v22.5zm-30.2-6zm0 0z"/></svg>