<svg xmlns="http://www.w3.org/2000/svg" id="Camada_3" x="0" y="0" version="1.1" viewBox="0 0 50 50" xml:space="preserve"><style>.st3{fill:none;stroke:#444;stroke-miterlimit:10}</style><path fill="#fc9d9a" d="M36.96 1.9L15.68.84c-1.48 0-3.39 4.98-3.39 6.46l-.32 23.6c.47-1.08-.17-13.45.47-12.39l-.15 1.72-.11 24.57c0 1.06 1.59 2.75 2.65 2.75l9.32.64 15.99-5.72.32-13.24s-1.06-1.86 0-3.98c.19-4.64.21-4.6 0-5.66l-.95-14.94v-.21c.1-1.38-1.06-2.54-2.55-2.54z"/><path fill="none" stroke="#444" stroke-linecap="round" stroke-linejoin="round" stroke-miterlimit="10" stroke-width="2.5" d="M40.14 19.65v23.34M12.18 18.82V6.88c0-2.86 2.33-5.19 5.19-5.19h17.58c2.86 0 5.19 2.33 5.19 5.19v12.5M28.92 48.5H17.37c-2.86 0-5.19-2.33-5.19-5.19V18.82"/><path fill="none" stroke="#444" stroke-linecap="round" stroke-linejoin="round" stroke-miterlimit="10" stroke-width=".5" d="M30.08 5.5h-7.73c-.85 0-1.59-.74-1.59-1.59V1.79h10.8v2.12c.11.95-.63 1.59-1.48 1.59z"/><path d="M11.99 16.03h3.32c.27 0 .53-.12.71-.32l2.58-2.98" class="st3"/><circle cx="19.58" cy="11.61" r="1.43" class="st3"/><circle cx="24.99" cy="15.93" r="1.43" class="st3"/><circle cx="19.84" cy="25.27" r="1.43" class="st3"/><circle cx="28.29" cy="25.66" r="1.43" class="st3"/><circle cx="34.07" cy="26.61" r="1.43" class="st3"/><circle cx="24.67" cy="28.9" r="1.43" class="st3"/><circle cx="20.47" cy="32.84" r="1.43" class="st3"/><path d="M12.44 19.65h8.57c.21 0 .42.07.58.2l6.04 4.82m-1.72-7.94l5.34 4.01c.16.12.36.19.56.19h8.01m0 5.65h-3.93m4.44 5.08H28.77c-.21 0-.41-.07-.57-.19l-2.23-1.71m-4.38 3.93l4.07 3.05c.16.12.36.19.56.19h13.29M18.92 26.32l-2.4 3.94c-.17.28-.47.45-.8.45H11.8" class="st3"/></svg>