<svg xmlns="http://www.w3.org/2000/svg" id="Camada_3" x="0" y="0" version="1.1" viewBox="0 0 50 50" xml:space="preserve"><style>.st2{fill:#444}.st3{fill:none;stroke:#444;stroke-width:.25;stroke-miterlimit:10}</style><path fill="#f56991" d="M8.85 26.03l.7-10.77 4.56-8.03L25 2.25l10.61 1.74 5.75 4.33 1.52 5.3"/><path fill="#dc5e82" d="M44.59 16.8l.29 8.85-40.17 14.6 6.39-5.44-2.34-12.59 33-12.68 1.69 3.29z"/><path d="M29.1 18.61l-1.63-.93c-.3-.19-.63-.19-.96-.07-.04 0-.04.04-.07.04l-1.63.93c-.37.22-.56.59-.56 1v1.89c0 .41.22.78.56 1l1.63.93c.3.19.63.19.96.07.04 0 .04-.04.07-.04l1.63-.93c.37-.22.56-.59.56-1v-1.89c0-.4-.22-.77-.56-1z" class="st2"/><path d="M30.47 18.87c0 .04-.03 0 0 0 .07.11.07.26.07.41v2.74c0 .33-.19.67-.48.82l-2.37 1.37c-.07.04-.15.07-.22.07-.04 0-.11.04-.15.04v2.59c.19 0 .33-.04.52-.11l4.67-2.7c.3-.19.48-.48.48-.82v-5.37c0-.15-.04-.3-.11-.41l-2.41 1.37zm-9.33-1.33c-.04.07-.04.15-.04.22v5.48c0 .33.19.67.48.85l4.74 2.74c.15.07.33.11.33.11v-2.63c-.15 0-.33-.04-.44-.15l-2.41-1.41a.974.974 0 01-.48-.85v-2.78c0-.15.04-.26.07-.37l-2.25-1.21zm8.89.7c0-.03.04.04 0 0a.678.678 0 00-.3-.26l-2.37-1.37a.88.88 0 00-.96 0l-2.37 1.37c-.07.04-.11.07-.19.15l-.11.11-2.26-1.3c.07-.15.22-.3.37-.37l4.67-2.7c.3-.19.67-.19.96 0l4.67 2.7c.11.07.22.19.33.3l-2.44 1.37z" class="st2"/><path d="M38.88 27.79c1.41-.84 1.97-2.76 1.24-4.34-.29-.64-.76-1.15-1.34-1.46 1.43-.83 2-2.77 1.27-4.36-.52-1.15-1.61-1.83-2.74-1.81v-4.88c0-1.97-1.46-3.57-3.26-3.57H20.03c-1.8 0-3.26 1.6-3.26 3.57v3.16c-.59-.13-1.16-.13-1.58-.06-.28.04-.5.29-.53.61 0 .01-.11 1.28-.37 3.08-.06.45-.44 1.84-2.21 6.12-.89 2.15-1.34 4.44-1.34 6.8v2.96c0 .56-.16 1.1-.46 1.55l-.1.16c.2.5.39 1.01.51 1.52l.59-.89c.46-.69.7-1.5.7-2.35v-2.96c0-2.17.42-4.27 1.23-6.24 1.4-3.37 2.17-5.55 2.31-6.47.16-1.13.26-2.04.32-2.59.66 0 1.81.17 2.08 1.27.47 1.88.22 4.19.02 6.04l-.04.37c-.4 3.85-.56 4.86-.61 5.13-.12.23-.11.53.05.75.02.03.04.06.07.08.02.02 1.86 1.88 3.11 6.36.87 3.13-.85 7.12-.87 7.16-.15.34-.02.74.29.9.09.04.18.07.27.07.23 0 .45-.14.56-.38.01-.03.08-.19.18-.44h11.3l-3.69 2.59a7.11 7.11 0 01-4.99 1.26l-1.1-.14a.564.564 0 00-.46.15l-.92.82c.27.34.55.67.83.99l.66-.58.85.11c2.02.26 4.08-.26 5.8-1.46l5.36-3.76h.01c1.44-.25 2.57-1.53 2.73-3.12l.77-.42c1.33-.73 1.87-2.5 1.2-3.95-.25-.54-.63-.98-1.11-1.26l.53-.29c.72-.39 1.25-1.07 1.5-1.9.25-.83.19-1.72-.16-2.5-.3-.63-.7-1.09-1.18-1.4zm-1.56-10.63c.68-.02 1.33.38 1.64 1.07.44.95.08 2.12-.79 2.59l-.85.46v-4.12zm-.67 6.02a1.612 1.612 0 011.35-.11c.45.16.81.51 1.02.97.44.95.08 2.12-.79 2.59l-1.04.57c-.87.48-1.94.09-2.37-.86-.44-.95-.08-2.12.79-2.59l1.04-.57zM21.37 8.7h11.34v.28c0 .43-.32.77-.71.77h-9.93c-.39 0-.71-.35-.71-.77V8.7zm12.69 32.58H21.37c.47-1.63.93-4.12.31-6.35-1.06-3.83-2.56-5.91-3.18-6.65.01-.08.03-.17.04-.26.05-.32.11-.78.18-1.37.11-.89.24-2.06.39-3.5l.04-.37c.21-1.97.47-4.41-.06-6.54-.19-.76-.6-1.29-1.09-1.64v-3.69c0-1.23.91-2.22 2.03-2.22h.11v.28c0 1.17.87 2.12 1.94 2.12h9.93c1.07 0 1.94-.95 1.94-2.12V8.7h.11c1.12 0 2.03 1 2.03 2.22v11.06l-1.03.57c-1.48.81-2.08 2.78-1.34 4.4.27.58.67 1.04 1.15 1.35-1.41.84-1.97 2.76-1.24 4.34.3.66.78 1.17 1.38 1.49l-.31.17c-1.33.73-1.87 2.5-1.2 3.95.47 1.03 1.43 1.63 2.41 1.63h.04c-.3.82-1.04 1.4-1.89 1.4zm4.11-5.59c.36.79.07 1.75-.65 2.15l-.96.53c-.72.4-1.6.07-1.96-.72-.36-.79-.07-1.75.65-2.15l.96-.53c.21-.11.43-.17.65-.17.16 0 .31.03.46.08.37.15.67.43.85.81zm.85-4.47c-.15.49-.46.89-.89 1.12l-1.04.57c-.42.23-.9.27-1.35.11-.45-.16-.81-.51-1.02-.97-.44-.95-.08-2.12.79-2.59l1.04-.57c.25-.14.52-.2.79-.2.65 0 1.27.39 1.58 1.07.22.44.25.97.1 1.46z" class="st2"/><path d="M29.36 38.37h-4.63c-.34 0-.62.3-.62.67 0 .37.28.67.62.67h4.63c.34 0 .62-.3.62-.67 0-.37-.28-.67-.62-.67z" class="st2"/><path d="M27.19 11.47c-4.23 0-7.77 2.9-8.77 6.82.23.6.25 1.27.07 1.89.04.24.08.49.1.73.01.13.02.25.02.38 0 .26-.06.51-.13.75.13.42.17.88.1 1.32 1.19 3.63 4.59 6.25 8.61 6.25a9.04 9.04 0 006.87-3.16c-.37-1.38.24-3.06 1.84-3.41.23-.79.36-1.63.36-2.49 0-5.02-4.06-9.08-9.07-9.08z" class="st3"/><path d="M38.15 28.28c5.75-7.74 1.81-19.21-7.49-21.76C21 3.86 11.57 12.37 13.2 22.25m7.08 9.96c4.25 2.31 9.53 2.23 13.71-.21" class="st3"/><path fill="none" stroke="#444" stroke-linecap="round" stroke-linejoin="round" stroke-miterlimit="10" stroke-width="2.5" d="M20.3 48.63h0l1.84-1.61s3.2 1.13 6.59-1.21c3.39-2.34 5.41-3.02 5.41-3.02s2.53.07 3.53-3.25c0 0 4.33-2.1.92-5.67 4-2.96 6.66-7.9 6.66-13.32 0-10.05-8.15-18.2-18.2-18.2s-18.2 8.15-18.2 18.2c0 2.74.68 5.16 1.76 7.49-.34 4.43.49 6.78.49 6.78L8.78 37.4l-.25-.64-4.77 4.96 7.16 6.94"/><path fill="none" stroke="#444" stroke-linecap="round" stroke-miterlimit="10" d="M7.67 36.83l8.96 8.91"/></svg>