<svg xmlns="http://www.w3.org/2000/svg" id="Camada_3" x="0" y="0" version="1.1" viewBox="0 0 50 50" xml:space="preserve"><style>.st4{fill:none;stroke:#444;stroke-width:.5;stroke-linecap:round;stroke-linejoin:round;stroke-miterlimit:10}</style><path fill="#00c8e2" d="M42.5 11l-2.4.8-1.6.7-2 .7-6.9 2.4-1.6.7-1.8.6-5.9 2.2-.5.1-1.9.7-1 .4-7.1 2.6-1.3.4-1.9.8-.7.2-.2.1v13.8l2.2.5 1.7-.6 2.3-.9.5-.2 1.1-.4 8.8-3.2 1.7-.6 4.9-1.8 6.1-2.2 1.3-.5.5-.2 6.7-2.5 1.3-.4 1.9-.7V13.3l-3.6-2z"/><path fill="#00dffc" d="M41.6 11c-5.3-3.3-10.7-6.5-16-9.7-.5.5-1.2 1-1.7 1.7L5.7 13.3V24l-.7.3-.2.1v.5l.2-.1.7-.2 1.8-.6 1.4-.5 7.2-2.6 1.3-.5 1-.4 5.9-2.2 3.3-1.2 1.7-.6 7.7-2.9 1.2-.4 1.7-.6 2.3-.8-.6-.3z"/><path fill="#444" d="M25.7 49.5c-1 0-2-.3-2.9-.8L6.6 39.4c-1.8-1-2.9-3-2.9-5V15.6c0-2.1 1.1-4 2.9-5l16.2-9.4c1.8-1 4-1 5.8 0l16.2 9.4c1.8 1 2.9 3 2.9 5v13.7c0 .7-.5 1.2-1.2 1.2s-1.2-.5-1.2-1.2V15.6c0-1.2-.6-2.3-1.7-2.9L27.4 3.4c-1-.6-2.3-.6-3.4 0L7.8 12.7c-1 .6-1.7 1.7-1.7 2.9v18.7c0 1.2.6 2.3 1.7 2.9L24 46.6c1 .6 2.3.6 3.4 0l4.5-2.6c.6-.3 1.3-.1 1.7.4.3.6.1 1.3-.5 1.7l-4.5 2.6c-.9.6-1.9.8-2.9.8z"/><circle cx="30.6" cy="28.4" r="6" class="st4"/><path d="M42.7 30.1v-3.3l-3.5-.3c-.2-1-.6-1.9-1.1-2.7l2.3-2.7-2.4-2.4-2.7 2.3c-.8-.5-1.8-.9-2.7-1.1l-.3-3.5H29l-.3 3.5c-1 .2-1.9.6-2.7 1.1l-2.7-2.3L21 21l2.3 2.7c-.5.8-.9 1.8-1.1 2.7l-3.5.3V30l3.5.3c.2 1 .6 1.9 1.1 2.7L21 35.7l2.3 2.3 2.7-2.3c.8.5 1.8.9 2.7 1.1l.3 3.5h3.3l.3-3.5c1-.2 1.9-.6 2.7-1.1L38 38l2.3-2.3-2.3-2.6c.5-.8.9-1.8 1.1-2.7l3.6-.3z" class="st4"/><path fill="none" stroke="#444" stroke-linejoin="round" stroke-miterlimit="10" d="M42.7 28.4h4c.5 0 0-8.4-.5-11.6-1.3-.4-2.5-.4-3.6-.2v-.7c0-5.3-4.3-9.6-9.6-9.6-4.6 0-8.5 3.2-9.4 7.6-.7-.3-1.6-.5-2.4-.5-2.7 0-5 1.8-5.8 4.2-4 .4-7.2 3.8-7.2 8 0 .6.1 1.3.2 1.8.2.7.8 1.1 1.4 1.1h8.7"/></svg>