<svg xmlns="http://www.w3.org/2000/svg" id="Layer_1" x="0" y="0" version="1.1" viewBox="0 0 50 50" xml:space="preserve"><style>.st2{fill:#444}</style><path fill="#afe55d" d="M41.7 11l-2.3.8-1.7.6-2 .8-6.8 2.4-1.6.6-1.8.7-5.9 2.2-.5.1-1.9.7-1 .4L9 22.9l-1.2.4-1.9.7-.8.3-.2.1v13.8l2.2.5 1.7-.6 2.4-.9.5-.2 1-.4 8.9-3.2 1.7-.6 4.8-1.8 6.1-2.2 1.4-.5.4-.2 6.8-2.5 1.3-.4 1.8-.7V13.3l-3.5-2z"/><path fill="#c3ff68" d="M40.8 11c-5.3-3.3-10.6-6.5-16-9.7-.5.5-1.2 1.1-1.7 1.7L5 13.3v10.6l-.7.3-.2.1v.5l.2-.1.7-.1 1.8-.6 1.4-.5 7.2-2.6 1.3-.5 1.1-.4 5.9-2.2 3.3-1.2 1.7-.6 7.7-2.8 1.2-.4 1.7-.6 2.3-.8-.8-.4z"/><path d="M25 49.5c-1 0-2-.3-2.9-.8L5.9 39.4c-1.8-1-2.9-3-2.9-5V15.6c0-2.1 1.1-4 2.9-5l16.2-9.4c1.8-1 4-1 5.8 0l16.2 9.4c1.8 1 2.9 3 2.9 5v13.7c0 .7-.6 1.2-1.2 1.2s-1.2-.6-1.2-1.2V15.6c0-1.2-.6-2.3-1.7-2.9L26.7 3.4c-1-.6-2.3-.6-3.4 0L7.1 12.7c-1 .6-1.7 1.7-1.7 2.9v18.7c0 1.2.6 2.3 1.7 2.9l16.2 9.4c1 .6 2.3.6 3.4 0l4.5-2.6c.6-.3 1.3-.1 1.7.5.3.6.1 1.3-.5 1.7l-4.5 2.6c-.9.5-1.9.7-2.9.7z" class="st2"/><path d="M30.6 20.3l-4.4-2.5c-.8-.5-1.7-.5-2.6-.2-.1 0-.1.1-.2.1L19 20.2c-1 .6-1.5 1.6-1.5 2.7V28c0 1.1.6 2.1 1.5 2.7l4.4 2.5c.8.5 1.7.5 2.6.2.1 0 .1-.1.2-.1l4.4-2.5c1-.6 1.5-1.6 1.5-2.7V23c0-1.1-.6-2.1-1.5-2.7z" class="st2"/><path d="M34.3 21c0 .1-.1 0 0 0 .2.3.2.7.2 1.1v7.4c0 .9-.5 1.8-1.3 2.2l-6.4 3.7c-.2.1-.4.2-.6.2-.1 0-.3.1-.4.1v7c.5 0 .9-.1 1.4-.3l12.6-7.3c.8-.5 1.3-1.3 1.3-2.2V18.4c0-.4-.1-.8-.3-1.1L34.3 21zM9.1 17.4c-.1.2-.1.4-.1.6v14.8c0 .9.5 1.8 1.3 2.3l12.8 7.4c.4.2.9.3.9.3v-7.1c-.4 0-.9-.1-1.2-.4l-6.5-3.8c-.8-.5-1.3-1.3-1.3-2.3v-7.5c0-.4.1-.7.2-1l-6.1-3.3zm24 1.9c0-.1.1.1 0 0-.2-.3-.5-.6-.8-.7l-6.4-3.7c-.8-.5-1.8-.5-2.6 0l-6.4 3.7c-.2.1-.3.2-.5.4l-.3.3-6.1-3.5c.2-.4.6-.8 1-1l12.6-7.3c.8-.5 1.8-.5 2.6 0l12.6 7.3c.3.2.6.5.9.8l-6.6 3.7z" class="st2"/></svg>