<svg xmlns="http://www.w3.org/2000/svg" id="Layer_1" x="0" y="0" version="1.1" viewBox="0 0 50 50" xml:space="preserve"><style>.st3{fill:none;stroke:#444;stroke-linejoin:round;stroke-miterlimit:10}</style><path fill="#e589ef" d="M39.93 12.04l-2.26.81-1.64.62-1.94.72-6.66 2.35-1.53.61-1.74.62-5.74 2.15-.51.1-1.84.72-.92.31-6.97 2.56-1.23.41-1.84.71-.72.21-.2.1v.61l.74 11.56 1.41 1.75 1.64-.61 2.25-.82.51-.2 1.03-.41 8.6-3.07 1.64-.62 4.71-1.74 5.94-2.15 1.33-.51.41-.21 6.55-2.35 1.23-.41 1.84-.72V14.29l-3.48-1.95z"/><path fill="#f799ff" d="M40.06 12.04C34.94 8.86 29.72 5.69 24.5 2.61c-.51.51-1.13 1.02-1.64 1.64L5.25 14.29v10.34l-.72.31-.2.1v.51l.2-.1.72-.2 1.74-.61 1.33-.51 6.96-2.56 1.23-.51 1.02-.41 5.73-2.15 3.17-1.13 1.64-.61L35.54 14l1.13-.41 1.64-.61 2.25-.82-.5-.12z"/><path fill="#444" d="M45.25 12.25l-18.6-10.6-.4-.2c-.4-.3-.9-.4-1.3-.4s-.9.1-1.2.3l-1.8 1-17.2 10c-.8.4-1.2 1.3-1.2 2.2v21.9c0 .9.5 1.7 1.2 2.2l2.7 1.6 16.3 9.4c.4.2.8.3 1.2.3.4 0 .9-.1 1.3-.3l19-10.9c.8-.4 1.2-1.3 1.2-2.2v-22.1c0-.9-.5-1.7-1.2-2.2zm-1.3 24.2l-19 10.9-16.2-9.4-2.8-1.6v-21.9l17.2-9.9 1.8-1 .4.2 14.6 8.5.6.3 3.4 2v21.9z"/><path d="M24.95 13.29l11.04 5.98v12.6l-11.14 6.3-10.94-6.06V19.14z" class="st3"/><path d="M25 16.88l7.86 4.25v8.97l-7.93 4.49-7.79-4.32v-9.23zM4.19 13.37l12.95 7.67m28.47-7.44l-12.86 7.47" class="st3"/><path fill="none" stroke="#444" stroke-linecap="round" stroke-linejoin="round" stroke-miterlimit="10" d="M24.71 49.06V34.59"/></svg>