<svg xmlns="http://www.w3.org/2000/svg" id="Layer_1" x="0" y="0" version="1.1" viewBox="0 0 50 50" xml:space="preserve"><style>.st2{fill:#444}.st3{fill:none;stroke:#444;stroke-width:.25;stroke-miterlimit:10}</style><path fill="#4ecdc4" d="M7.5 25.6l.7-10.8 4.5-8 10.9-5 10.6 1.7L40 7.9l1.5 5.3"/><path fill="#46b8b0" d="M43.2 16.4l.3 8.8L3.3 39.8l6.4-5.4-2.3-12.6 33-12.7 1.7 3.3z"/><path d="M27.7 18.2l-1.6-.9c-.3-.2-.6-.2-1-.1H25l-1.6.9c-.4.2-.6.6-.6 1V21c0 .4.2.8.6 1l1.6.9c.3.2.6.2 1 .1h.1l1.6-.9c.4-.2.6-.6.6-1v-1.9c0-.4-.2-.8-.6-1z" class="st2"/><path d="M29.1 18.4c0 .1 0 0 0 0 .1.1.1.3.1.4v2.7c0 .3-.2.7-.5.8l-2.4 1.4c-.1 0-.1.1-.2.1H26v2.6c.2 0 .3 0 .5-.1l4.7-2.7c.3-.2.5-.5.5-.8v-5.4c0-.1 0-.3-.1-.4l-2.5 1.4zm-9.3-1.3v5.7c0 .3.2.7.5.9l4.7 2.7c.1.1.3.1.3.1v-2.6c-.1 0-.3 0-.4-.1l-2.4-1.4c-.3-.2-.5-.5-.5-.9v-2.8c0-.1 0-.3.1-.4l-2.3-1.2zm8.9.7l-.3-.3-2.4-1.3c-.3-.2-.7-.2-1 0l-2.4 1.4c-.1 0-.1.1-.2.1l-.1.1-2.3-1.3c.1-.1.2-.3.4-.4l4.7-2.7c.3-.2.7-.2 1 0l4.7 2.7.3.3-2.4 1.4z" class="st2"/><path d="M37.5 27.3c1.4-.8 2-2.8 1.2-4.3-.3-.6-.8-1.1-1.3-1.5 1.4-.8 2-2.8 1.3-4.4-.5-1.1-1.6-1.8-2.7-1.8v-4.9c0-2-1.5-3.6-3.3-3.6h-14c-1.8 0-3.3 1.6-3.3 3.6v3.2c-.6-.1-1.2-.1-1.6-.1-.3 0-.5.3-.5.6 0 0-.1 1.3-.4 3.1-.1.4-.4 1.8-2.2 6.1-.9 2.2-1.3 4.4-1.3 6.8v3c0 .6-.2 1.1-.5 1.6l-.1.2c.2.5.4 1 .5 1.5l.6-.9c.5-.7.7-1.5.7-2.3v-3c0-2.2.4-4.3 1.2-6.2 1.4-3.4 2.2-5.5 2.3-6.5.2-1.1.3-2 .3-2.6.7 0 1.8.2 2.1 1.3.5 1.9.2 4.2 0 6v.4c-.4 3.8-.6 4.9-.6 5.1-.1.2-.1.5.1.8 0 0 0 .1.1.1 0 0 1.9 1.9 3.1 6.4.8 3-.9 7-.9 7-.1.3 0 .7.3.9.1 0 .2.1.3.1.2 0 .4-.1.6-.4l.2-.4H31l-3.7 2.6c-1.5 1-3.2 1.5-5 1.3l-1.1-.1c-.2 0-.3 0-.5.1l-.9.8c.3.3.5.7.8 1l.7-.6.8.1c2 .3 4.1-.3 5.8-1.5l5.4-3.8c1.4-.2 2.6-1.5 2.7-3.1l.8-.4c1.3-.7 1.9-2.5 1.2-4-.2-.5-.6-1-1.1-1.3l.5-.3c.7-.4 1.2-1.1 1.5-1.9.3-.8.2-1.7-.2-2.5-.3-.5-.7-1-1.2-1.3zm-1.6-10.6c.7 0 1.3.4 1.6 1.1.4 1 .1 2.1-.8 2.6l-.8.5v-4.2zm-.6 6c.2-.1.5-.2.8-.2.2 0 .4 0 .6.1.4.2.8.5 1 1 .4 1 .1 2.1-.8 2.6l-1 .6c-.9.5-1.9.1-2.4-.9-.4-1-.1-2.1.8-2.6l1-.6zM20 8.3h11.3v.3c0 .4-.3.8-.7.8h-9.9c-.4-.1-.7-.4-.7-.9v-.2zm12.7 32.5H20c.5-1.6.9-4.1.3-6.3-1.1-3.8-2.6-5.9-3.2-6.7v-.3c0-.3.1-.8.2-1.4.1-.9.2-2.1.4-3.5v-.4c.2-2 .5-4.4-.1-6.5-.2-.8-.6-1.3-1.1-1.6v-3.7c0-1.2.9-2.2 2-2.2h.1v.3c0 1.2.9 2.1 1.9 2.1h9.9c1.1 0 1.9-1 1.9-2.1v-.2h.1c1.1 0 2 1 2 2.2v11.1l-1 .6c-1.5.8-2.1 2.8-1.3 4.4.3.6.7 1 1.2 1.3-1.4.8-2 2.8-1.2 4.3.3.7.8 1.2 1.4 1.5l-.3.2c-1.3.7-1.9 2.5-1.2 4 .5 1 1.4 1.6 2.4 1.6-.1.7-.9 1.3-1.7 1.3zm4.1-5.6c.4.8.1 1.8-.7 2.1l-1 .5c-.7.4-1.6.1-2-.7-.4-.8-.1-1.8.7-2.1l1-.5c.2-.1.4-.2.7-.2.2 0 .3 0 .5.1.3.2.6.5.8.8zm.9-4.4c-.1.5-.5.9-.9 1.1l-1 .6c-.4.2-.9.3-1.3.1-.4-.2-.8-.5-1-1-.4-1-.1-2.1.8-2.6l1-.6c.3-.1.5-.2.8-.2.6 0 1.3.4 1.6 1.1.1.5.1 1 0 1.5z" class="st2"/><path d="M28 37.9h-4.6c-.3 0-.6.3-.6.7 0 .4.3.7.6.7H28c.3 0 .6-.3.6-.7 0-.4-.3-.7-.6-.7z" class="st2"/><path d="M25.8 11c-4.2 0-7.8 2.9-8.8 6.8.2.6.2 1.3.1 1.9 0 .2.1.5.1.7v.4c0 .3-.1.5-.1.8.1.4.2.9.1 1.3 1.2 3.6 4.6 6.2 8.6 6.2 2.8 0 5.2-1.2 6.9-3.2-.4-1.4.2-3.1 1.8-3.4.2-.8.4-1.6.4-2.5 0-4.9-4.1-9-9.1-9z" class="st3"/><path d="M36.8 27.8c5.7-7.7 1.8-19.2-7.5-21.8-9.7-2.7-19.1 5.9-17.5 15.7m7.1 10.1c4.3 2.3 9.5 2.2 13.7-.2" class="st3"/><path fill="none" stroke="#444" stroke-linecap="round" stroke-linejoin="round" stroke-miterlimit="10" stroke-width="2.5" d="M18.9 48.2h0l1.8-1.6s3.2 1.1 6.6-1.2c3.4-2.3 5.4-3 5.4-3s2.5.1 3.5-3.3c0 0 4.3-2.1.9-5.7 4-3 6.7-7.9 6.7-13.3 0-10-8.1-18.2-18.2-18.2S7.5 10 7.5 20.1c0 2.7.7 5.2 1.8 7.5-.3 4.4.5 6.8.5 6.8L7.5 37l-.3-.6-4.8 5 7.2 6.9"/><path fill="none" stroke="#444" stroke-linecap="round" stroke-miterlimit="10" d="M6.3 36.4l9 8.9"/></svg>