<svg xmlns="http://www.w3.org/2000/svg" id="Camada_3" x="0" y="0" version="1.1" viewBox="0 0 50 50" xml:space="preserve"><style>.st3,.st4{fill:none;stroke:#444;stroke-miterlimit:10}.st4{stroke-width:.5;stroke-linecap:round;stroke-linejoin:round}</style><path fill="#ec6a6d" d="M31.33 4.38l-5.97-2.84c-3.2 0-21.45 8.94-21.45 12.14l-.53 7.8L39 8.81l-7.67-4.43z"/><path fill="#e46160" d="M3.38 21.48l.53 15.13 11.5 7.56 31.02-11.04c.74-.42-.82-18.75-1.8-20.74L39 8.81 3.38 21.48z"/><path fill="none" stroke="#444" stroke-linecap="round" stroke-linejoin="round" stroke-miterlimit="10" stroke-width="2.5" d="M29.89 46.45l-2.2 1.27c-1.69.98-3.78.98-5.47 0L6.65 38.73a5.48 5.48 0 01-2.74-4.74V16.01a5.46 5.46 0 012.74-4.74l15.57-8.99c1.69-.98 3.78-.98 5.47 0l15.57 8.99A5.48 5.48 0 0146 16.01v17.98a5.46 5.46 0 01-2.74 4.74l-2.46 1.42-3.43 1.98"/><path d="M40.37 40.54H16.56a1.89 1.89 0 01-1.89-1.9v-20.3c0-1.05.85-1.9 1.89-1.9h29.18" class="st3"/><path d="M43.09 16.44v-2.4c0-.79-.67-1.44-1.49-1.44h-7.55c-.7 0-1.3-.47-1.45-1.12l-.62-2.68c-.15-.66-.76-1.12-1.45-1.12h-8.19c-.67 0-1.26.43-1.44 1.05l-.82 2.83c-.18.62-.77 1.05-1.44 1.05H11.6c-.82 0-1.49.64-1.49 1.44v19.53c0 1.99 1.29 3.47 2.84 4.78l1.91 1.44" class="st3"/><path d="M38.37 31.71c-1.27 2.66-4.05 4.51-7.29 4.51-4.43 0-8.02-3.46-8.02-7.72m.9-3.55c1.33-2.49 4.02-4.18 7.13-4.18 4.43 0 8.02 3.46 8.02 7.72" class="st4"/><path d="M21.06 30.1l2.01-1.93 2 1.93m12.02-3.22l2.01 1.93 2-1.93" class="st4"/></svg>