<svg xmlns="http://www.w3.org/2000/svg" id="Camada_3" x="0" y="0" version="1.1" viewBox="0 0 50 50" xml:space="preserve"><style>.st2,.st3{fill:none;stroke:#444;stroke-linecap:round;stroke-linejoin:round;stroke-miterlimit:10}.st3{stroke-width:.5}</style><path fill="#ec6a6d" d="M29.1 1.82c-1.11-.14-2.23-.22-3.38-.22s-2.27.08-3.38.22C11.04 3.27 5.28 10.69 3.15 21.78L41.27 8.22c-3.77-3.15-7.06-5.75-12.17-6.4z"/><path fill="#e46160" d="M41.27 8.22L3.15 21.78c-.32 1.62 3.1 9.65 3.1 11.36 0 6.47-6.38 8.64 1.63 9.48 2.04.21-.74 6.19 1.19 5.5L45.2 35.27l-1.24-1.62c.32-1.62 3.23-6.37 3.23-8.08-.01-8.14-1.41-9.13-5.92-17.35z"/><path d="M19.81 33.14c-4.33-3.47-9.7-8.91-9.7-14.71 0-4.48 3.64-8.12 8.12-8.12 3.01 0 5.73 1.67 7.13 4.24 1.4-2.56 4.12-4.24 7.13-4.24 4.48 0 8.12 3.64 8.12 8.12 0 6.03-5.85 11.36-10.24 14.79" class="st2"/><path d="M25.95 18.45l1.3 2.64c.1.19.28.33.49.36l2.92.42c.54.08.75.74.36 1.12l-2.11 2.06a.69.69 0 00-.19.58l.5 2.91c.09.54-.47.94-.95.69l-2.61-1.37c-.19-.1-.42-.1-.61 0l-2.61 1.37a.657.657 0 01-.95-.69l.5-2.91a.634.634 0 00-.19-.58l-2.11-2.06a.658.658 0 01.36-1.12l2.92-.42c.21-.03.4-.17.49-.36l1.3-2.64c.26-.49.95-.49 1.19 0z" class="st3"/><path fill="none" stroke="#444" stroke-linecap="round" stroke-linejoin="round" stroke-miterlimit="10" stroke-width="2.5" d="M43.48 44.07l-.01-1.43 3.28-.02c.85-.01 1.39-.9 1-1.66l-3.79-7.31h0c1.79-3.15 3.2-7.26 3.2-11.15 0-11.95-9.69-20.45-21.64-20.45-11.95 0-21.64 8.49-21.64 20.45 0 3.82 1.51 7.52 3.26 10.64h0L3.3 40.78c-.43.86.2 1.86 1.15 1.85l3.44-.02-.02 6.33h25.15"/><path d="M8.32 33.22l-4.9 8.56h11.07l4.83-8.56 4.88 8.56h22.99l-4.46-8.56zm11 16.37V33.14" class="st2"/><path d="M44.44 22.96h1.52m-40.46 0h1.52M25.73 2.38V3.9m13.23 5.83l1.07-1.07m-28.61 0l1.08 1.07m30.15 6.22L46 14.56M5.45 31.36l3.35-1.39m8.53-25.76l1.39 3.35m14.02 0l1.38-3.35m8.53 25.76L46 31.36M5.45 14.56l3.35 1.39m23.76-.69c1.72 0 3.13 1.4 3.13 3.13" class="st3"/></svg>