<?xml version="1.0" encoding="utf-8"?>
<!-- Generator: Adobe Illustrator 27.5.0, SVG Export Plug-In . SVG Version: 6.00 Build 0)  -->
<svg version="1.1" id="Camada_1" xmlns="http://www.w3.org/2000/svg" xmlns:xlink="http://www.w3.org/1999/xlink" x="0px" y="0px"
	 viewBox="0 0 50 50" style="enable-background:new 0 0 50 50;" xml:space="preserve">
<style type="text/css">
	.st0{fill:#AFE55D;}
	.st1{fill:#C3FF68;}
	.st2{fill:none;}
	.st3{fill:#444444;}
</style>
<g id="Camada_14">
</g>
<g id="Camada_12">
</g>
<g id="Camada_17">
</g>
<g id="Camada_21">
</g>
<g id="Camada_26">
</g>
<g>
	<path class="st0" d="M31.1,19.5c1,1.2,2.6,2,4.3,2c3.1,0,5.7-2.5,5.7-5.7c0-1.1-0.3-2-0.8-2.9l-10.5,3.9c0,0.2,0.1,0.4,0.1,0.6"/>
	<path class="st1" d="M19,18.2c-2.4,0.4-4.3,2.1-5.1,4.4l9.8-3.6c-0.7-0.4-1.4-0.7-2.2-0.8 M21.5,12.7c2.5-0.6,4.4-2.8,4.4-5.5
		c0-3.1-2.5-5.7-5.7-5.7S14.5,4,14.5,7.2c0,2.7,1.9,5,4.4,5.5 M35.4,10.2c-3.1,0-5.7,2.5-5.7,5.7c0,0.3,0,0.6,0.1,0.9l10.5-3.9
		C39.3,11.3,37.5,10.2,35.4,10.2z"/>
	<path class="st2" d="M29.9,17.3c0-0.2-0.1-0.4-0.1-0.6l-6.2,2.2c0.6,0.4,1.2,0.8,1.7,1.4 M29.9,32.2l-4.3-3.3
		c-1,1.3-2.4,2.2-4.1,2.5v5.5c1.4,0.3,2.6,1.1,3.4,2.3l6-2.2c-0.7-0.9-1.1-2.1-1.1-3.4C29.7,33.1,29.8,32.6,29.9,32.2z"/>
	<path class="st0" d="M14.6,42.5V43l10.3-3.7c-0.8-1.1-1.9-1.9-3.3-2.2H19C16.4,37.6,14.6,39.8,14.6,42.5z M26.7,26.6
		c0.2-0.6,0.2-1.2,0.2-1.8c0-0.8-0.1-1.6-0.4-2.3l-1.2-2.1c-0.5-0.5-1-1-1.7-1.4l-9.8,3.6c-0.2,0.7-0.4,1.5-0.4,2.2
		c0,3.1,2.1,5.7,5,6.5h3.5c1-0.3,1.8-0.8,2.6-1.4C24.5,29.9,26.7,26.6,26.7,26.6z M35.4,27.9c-1.7,0-3.3,0.8-4.3,2L29.7,32l0.2,0.2
		c-0.1,0.5-0.2,0.9-0.2,1.4c0,1.3,0.4,2.5,1.1,3.4L41,33.3C40.9,30.3,38.4,27.9,35.4,27.9z"/>
	<path class="st3" d="M35.4,26.7c-2.1,0-4,1-5.3,2.5l-2.3-1.7c0.3-0.8,0.4-1.7,0.4-2.6c0-1-0.2-2-0.6-3l2.4-1.6
		c1.3,1.5,3.2,2.5,5.3,2.5c3.8,0,6.9-3.1,6.9-6.9S39.1,9,35.3,9s-6.9,3.1-6.9,6.9c0,0.8,0.1,1.5,0.4,2.2l-2.5,1.6
		c-1.2-1.4-2.9-2.5-4.9-2.8v-3c3.2-0.6,5.7-3.4,5.7-6.8c0-3.8-3.1-6.9-6.9-6.9s-6.9,3.1-6.9,6.9c0,3.4,2.5,6.2,5.7,6.8v3
		c-3.8,0.6-6.7,3.9-6.7,7.9s2.9,7.3,6.7,7.9v3c-3.2,0.6-5.7,3.4-5.7,6.8c0,3.8,3.1,6.9,6.9,6.9s6.9-3.1,6.9-6.9
		c0-3.4-2.5-6.2-5.7-6.8v-3c2.1-0.3,3.9-1.4,5.1-3l2.3,1.7c-0.2,0.7-0.4,1.5-0.4,2.2c0,3.8,3.1,6.9,6.9,6.9s6.9-3.1,6.9-6.9
		S39.2,26.7,35.4,26.7z M35.4,11.4c2.4,0,4.4,2,4.4,4.4s-2,4.4-4.4,4.4c-2.4,0-4.4-2-4.4-4.4S33,11.4,35.4,11.4z M15.8,7.1
		c0-2.4,2-4.4,4.4-4.4s4.4,2,4.4,4.4s-2,4.4-4.4,4.4S15.8,9.6,15.8,7.1z M24.7,42.5c0,2.4-2,4.4-4.4,4.4s-4.4-2-4.4-4.4
		s2-4.4,4.4-4.4S24.7,40,24.7,42.5z M20.3,30.3c-3,0-5.5-2.5-5.5-5.5s2.5-5.5,5.5-5.5s5.5,2.5,5.5,5.5S23.3,30.3,20.3,30.3z
		 M35.4,38C33,38,31,36,31,33.6s2-4.4,4.4-4.4c2.4,0,4.4,2,4.4,4.4S37.9,38,35.4,38z"/>
</g>
</svg>
