<svg xmlns="http://www.w3.org/2000/svg" id="Layer_1" x="0" y="0" version="1.1" viewBox="0 0 50 50" xml:space="preserve"><style>.st0{fill:#dc5e82}</style><path d="M28.8 19.7c1 1.2 2.6 2 4.3 2 3.1 0 5.7-2.5 5.7-5.7 0-1.1-.3-2-.8-2.9L27.5 17c0 .2.1.4.1.6" class="st0"/><path fill="#f56991" d="M16.7 18.4c-2.4.4-4.3 2.1-5.1 4.4l9.8-3.6c-.7-.4-1.4-.7-2.2-.8m0-5.5c2.5-.6 4.4-2.8 4.4-5.5 0-3.1-2.5-5.7-5.7-5.7s-5.7 2.5-5.7 5.7c0 2.7 1.9 5 4.4 5.5m16.5-2.5c-3.1 0-5.7 2.5-5.7 5.7 0 .3 0 .6.1.9L38 13.1c-1-1.6-2.8-2.7-4.9-2.7z"/><path fill="none" d="M27.6 17.5c0-.2-.1-.4-.1-.6l-6.2 2.2c.6.4 1.2.8 1.7 1.4m4.6 11.9l-4.3-3.3c-1 1.3-2.4 2.2-4.1 2.5v5.5c1.4.3 2.6 1.1 3.4 2.3l6-2.2c-.7-.9-1.1-2.1-1.1-3.4-.1-.5 0-1 .1-1.4z"/><path d="M12.3 42.7v.5l10.3-3.7c-.8-1.1-1.9-1.9-3.3-2.2h-2.6c-2.6.5-4.4 2.7-4.4 5.4zm12.1-15.9c.2-.6.2-1.2.2-1.8 0-.8-.1-1.6-.4-2.3L23 20.6c-.5-.5-1-1-1.7-1.4l-9.8 3.6c-.2.7-.4 1.5-.4 2.2 0 3.1 2.1 5.7 5 6.5h3.5c1-.3 1.8-.8 2.6-1.4l2.2-3.3zm8.7 1.3c-1.7 0-3.3.8-4.3 2l-1.4 2.1.2.2c-.1.5-.2.9-.2 1.4 0 1.3.4 2.5 1.1 3.4l10.2-3.7c-.1-3-2.6-5.4-5.6-5.4z" class="st0"/><path fill="#031326" d="M33.1 26.9c-2.1 0-4 1-5.3 2.5l-2.3-1.7c.3-.8.4-1.7.4-2.6 0-1-.2-2-.6-3l2.4-1.6C29 22 30.9 23 33 23c3.8 0 6.9-3.1 6.9-6.9S36.8 9.2 33 9.2s-6.9 3.1-6.9 6.9c0 .8.1 1.5.4 2.2L24 19.9c-1.2-1.4-2.9-2.5-4.9-2.8v-3c3.2-.6 5.7-3.4 5.7-6.8 0-3.8-3.1-6.9-6.9-6.9S11 3.5 11 7.3c0 3.4 2.5 6.2 5.7 6.8v3C12.9 17.7 10 21 10 25s2.9 7.3 6.7 7.9v3c-3.2.6-5.7 3.4-5.7 6.8 0 3.8 3.1 6.9 6.9 6.9s6.9-3.1 6.9-6.9c0-3.4-2.5-6.2-5.7-6.8v-3c2.1-.3 3.9-1.4 5.1-3l2.3 1.7c-.2.7-.4 1.5-.4 2.2 0 3.8 3.1 6.9 6.9 6.9s6.9-3.1 6.9-6.9-3-6.9-6.8-6.9zm0-15.3c2.4 0 4.4 2 4.4 4.4s-2 4.4-4.4 4.4c-2.4 0-4.4-2-4.4-4.4s2-4.4 4.4-4.4zM13.5 7.3c0-2.4 2-4.4 4.4-4.4s4.4 2 4.4 4.4-2 4.4-4.4 4.4-4.4-1.9-4.4-4.4zm8.9 35.4c0 2.4-2 4.4-4.4 4.4s-4.4-2-4.4-4.4c0-2.4 2-4.4 4.4-4.4s4.4 1.9 4.4 4.4zM18 30.5c-3 0-5.5-2.5-5.5-5.5s2.5-5.5 5.5-5.5 5.5 2.5 5.5 5.5-2.5 5.5-5.5 5.5zm15.1 7.7c-2.4 0-4.4-2-4.4-4.4s2-4.4 4.4-4.4c2.4 0 4.4 2 4.4 4.4s-1.9 4.4-4.4 4.4z"/></svg>