<?xml version="1.0" encoding="utf-8"?>
<!-- Generator: Adobe Illustrator 28.0.0, SVG Export Plug-In . SVG Version: 6.00 Build 0)  -->
<svg version="1.1" id="Layer_1" xmlns="http://www.w3.org/2000/svg" xmlns:xlink="http://www.w3.org/1999/xlink" x="0px" y="0px"
	 viewBox="0 0 50 50" style="enable-background:new 0 0 50 50;" xml:space="preserve">
<style type="text/css">
	.st0{fill:#C3FF68;}
	.st1{fill:none;stroke:#444444;stroke-width:2.5;stroke-linecap:round;stroke-linejoin:round;stroke-miterlimit:10;}
	.st2{fill:#444444;}
	.st3{fill:none;stroke:#444444;stroke-width:0.5;stroke-miterlimit:10;}
	.st4{fill:none;stroke:#444444;stroke-width:0.5;stroke-linecap:round;stroke-linejoin:round;stroke-miterlimit:10;}
</style>
<g>
	<path class="st0" d="M47.8,20.3c-0.2-0.8-2.7-7.5-3.2-8.1l-3-3.5l-0.2,0.1L33.7,3l-7.8-0.7c-3.2,0-12.8-0.7-21.3,11.5l-2.9,7.9
		l0.5,2l1.8,11.5c0.1,0.4,4.7,7,5.1,7.2l5.6,3L47,33.7C47.7,33.3,48.7,25.1,47.8,20.3z"/>
	<path class="st1" d="M27.8,47.7C15.2,49.2,3.7,40.2,2.1,27.6S9.5,3.5,22.1,1.9S46.3,9.3,47.8,22c0.6,5.1-0.5,10-2.8,14.1"/>
	<g>
		<g>
			<g>
				<g>
					<path class="st2" d="M25,25.4c-0.1,0-0.2,0-0.3-0.1l-5.3-5.3c-3.1-3.1-3.1-8.1,0-11.2l0,0c3.1-3.1,8.1-3.1,11.2,0
						c3.1,3.1,3.1,8.1,0,11.2l-5.3,5.3C25.2,25.3,25.1,25.4,25,25.4z M20,9.3c-2.8,2.8-2.8,7.2,0,10l5,5l5-5c2.8-2.8,2.8-7.2,0-10
						C27.2,6.6,22.7,6.6,20,9.3L20,9.3z"/>
				</g>
				<g>
					<path class="st2" d="M28.1,22.2c-0.1,0-0.2,0-0.3-0.1L24.7,19c-0.2-0.2-0.2-0.5,0-0.6c0.2-0.2,0.5-0.2,0.6,0l3.1,3.1
						c0.2,0.2,0.2,0.5,0,0.6C28.3,22.2,28.2,22.2,28.1,22.2z"/>
				</g>
				<g>
					<path class="st2" d="M14.4,32.9c-2,0-4.1-0.8-5.6-2.3C7.3,29,6.4,27,6.4,24.9c0-2.1,0.8-4.1,2.3-5.6c3.1-3.1,8.1-3.1,11.2,0
						l5.3,5.3c0.2,0.2,0.2,0.5,0,0.6L20,30.5C18.4,32.1,16.4,32.9,14.4,32.9z M14.4,17.9c-1.8,0-3.6,0.7-5,2.1
						c-1.3,1.3-2.1,3.1-2.1,5c0,1.9,0.7,3.7,2.1,5c2.8,2.7,7.2,2.8,10,0l5-5l-5-5C18,18.6,16.2,17.9,14.4,17.9z"/>
				</g>
				<g>
					<path class="st2" d="M21.4,21.6l-3.3,3.3l-1.9,1.9c-0.5,0.5-1.2,0.8-1.9,0.8c-0.7,0-1.4-0.3-1.9-0.8c-0.2-0.2-0.5-0.2-0.6,0
						c-0.2,0.2-0.2,0.5,0,0.6c0.7,0.7,1.5,1,2.5,1c0.9,0,1.8-0.4,2.5-1l2.2-2.2"/>
				</g>
				<g>
					<path class="st2" d="M21.6,28.5l3.3,3.3l1.9,1.9c0.5,0.5,0.8,1.2,0.8,1.9c0,0.7-0.3,1.4-0.8,1.9c-0.2,0.2-0.2,0.5,0,0.6
						s0.5,0.2,0.6,0c0.7-0.7,1-1.5,1-2.5c0-0.9-0.4-1.8-1-2.5l-5.1-5.1"/>
				</g>
				<g>
					<path class="st2" d="M18.7,25.4c-0.1,0-0.2,0-0.3-0.1c-0.2-0.2-0.2-0.5,0-0.6l3.1-3.1c0.2-0.2,0.5-0.2,0.6,0
						c0.2,0.2,0.2,0.5,0,0.6L19,25.2C18.9,25.3,18.8,25.4,18.7,25.4z"/>
				</g>
				<g>
					<path class="st2" d="M25,43.5c-2,0-4.1-0.8-5.6-2.3c-3.1-3.1-3.1-8.1,0-11.2l5.3-5.3c0.2-0.2,0.5-0.2,0.6,0l5.3,5.3
						c3.1,3.1,3.1,8.1,0,11.2C29,42.7,27,43.5,25,43.5z M25,25.5l-5,5c-2.8,2.8-2.8,7.2,0,10c2.8,2.8,7.2,2.8,10,0
						c2.8-2.8,2.8-7.2,0-10L25,25.5z"/>
				</g>
				<g>
					<path class="st2" d="M25,31.6c-0.1,0-0.2,0-0.3-0.1l-3.1-3.1c-0.2-0.2-0.2-0.5,0-0.6c0.2-0.2,0.5-0.2,0.6,0l3.1,3.1
						c0.2,0.2,0.2,0.5,0,0.6C25.2,31.6,25.1,31.6,25,31.6z"/>
				</g>
				<g>
					<path class="st2" d="M35.6,32.9c-2,0-4.1-0.8-5.6-2.3l-5.3-5.3c-0.2-0.2-0.2-0.5,0-0.6l5.3-5.3c3.1-3.1,8.1-3.1,11.2,0
						c1.5,1.5,2.3,3.5,2.3,5.6c0,2.1-0.8,4.1-2.3,5.6C39.6,32.1,37.6,32.9,35.6,32.9z M25.6,24.9l5,5c2.8,2.8,7.2,2.7,10,0
						c1.3-1.3,2.1-3.1,2.1-5c0-1.9-0.7-3.7-2.1-5l0,0c-2.8-2.7-7.2-2.8-10,0L25.6,24.9z"/>
				</g>
				<g>
					<path class="st2" d="M28.1,28.5c-0.1,0-0.2,0-0.3-0.1c-0.2-0.2-0.2-0.5,0-0.6l3.1-3.1c0.2-0.2,0.5-0.2,0.6,0
						c0.2,0.2,0.2,0.5,0,0.6l-3.1,3.1C28.3,28.4,28.2,28.5,28.1,28.5z"/>
				</g>
				<g>
					<path class="st2" d="M28.5,28.3l3.3-3.3l1.9-1.9c0.5-0.5,1.2-0.8,1.9-0.8c0.7,0,1.4,0.3,1.9,0.8c0.2,0.2,0.5,0.2,0.6,0
						c0.2-0.2,0.2-0.5,0-0.6c-0.7-0.7-1.5-1-2.5-1c-0.9,0-1.8,0.4-2.5,1l-5,5"/>
				</g>
				<g>
					<path class="st2" d="M28.5,21.5l-3.3-3.3l-1.9-1.9c-0.5-0.5-0.8-1.2-0.8-1.9c0-0.7,0.3-1.4,0.8-1.9c0.2-0.2,0.2-0.5,0-0.6
						c-0.2-0.2-0.5-0.2-0.6,0c-0.7,0.7-1,1.5-1,2.5c0,0.9,0.4,1.8,1,2.5l5.1,5.1"/>
				</g>
			</g>
		</g>
		<g>
			<g>
				<path class="st3" d="M12.2,22.7l0.5-0.4c1.1-0.8,2.7-0.6,3.7,0.3l2,2"/>
				<polygon class="st4" points="10.9,21.3 9.9,24.9 13.6,24.1 				"/>
			</g>
			<g>
				<path class="st3" d="M37,27.3l-0.7,0.5c-1.1,0.8-2.7,0.6-3.7-0.3l-2-2"/>
				<polygon class="st4" points="38.4,28.7 39.4,25.1 35.8,25.9 				"/>
			</g>
			<g>
				<path class="st3" d="M27,12.7l0.4,0.5c0.8,1.1,0.7,2.7-0.3,3.7l-1.9,2"/>
				<polygon class="st4" points="28.4,11.4 24.7,10.4 25.7,14.1 				"/>
			</g>
			<g>
				<path class="st3" d="M23,37.6l-0.6-0.7c-0.8-1.2-0.6-2.7,0.4-3.7l2-2"/>
				<polygon class="st4" points="21.6,38.9 25.2,40 24.4,36.4 				"/>
			</g>
		</g>
	</g>
</g>
</svg>
