<svg xmlns="http://www.w3.org/2000/svg" id="Layer_1" x="0" y="0" version="1.1" viewBox="0 0 50 50" xml:space="preserve"><style>.st2{fill:#031326}</style><path fill="#e56060" d="M47.9 2.1v20L42.7 24l-9.1 3.3-4.1 1.5-.7.2-12.3 4.5-9.4 3.4-5 1.8V2.1z"/><path fill="#ff6b6b" d="M47.9 2.1v4.8l-5 1.8-4.8 1.7-2.1.8-2.2.8-21.5 7.8-5.2 1.9-5 1.8V2.1z"/><path d="M17 29.3v-10H6.6v10.5H17v-.5zm-.5 0H7.1v-9.5h9.5v9.5zm13.7-10H19.7v10.5h10.5V19.3zm-1.5 9h-7.5v-7.5h7.5v7.5zm4.2-9.1h10.6v10.6H32.9zm-25.8 13h-.5v10.5H17V32.2H7.1zm9.4 10H7.1v-9.5h9.5v9.5zm3.2.5h10.5V32.2H19.7v10.5zm1.5-9h7.5v7.5h-7.5v-7.5zm15.5-21.8l-2.3-2.3-1.5 1.5 3.8 3.8L43.6 8l-1.5-1.5z" class="st2"/><path d="M.9.9v48.2h28.6c.7 0 1.2-.6 1.2-1.2s-.6-1.2-1.2-1.2H3.4V3.4h43.2v25c0 .7.6 1.2 1.2 1.2S49 29 49 28.4V.9H.9z" class="st2"/></svg>