<svg xmlns="http://www.w3.org/2000/svg" id="Layer_1" x="0" y="0" version="1.1" viewBox="0 0 50 50" xml:space="preserve"><style>.st2,.st3{fill:none;stroke:#444;stroke-width:.5617;stroke-linecap:round;stroke-linejoin:round;stroke-miterlimit:10}.st3{stroke-width:.3818}</style><path fill="#fc9d9a" d="M44.6 12.4L39 8.8l-7.7-4.4-6-2.8c-3.2 0-21.5 8.9-21.5 12.1l-.5 7.8.5 15.1 11.5 7.6 31-11c.9-.5-.7-18.8-1.7-20.8z"/><path fill="none" stroke="#444" stroke-linecap="round" stroke-linejoin="round" stroke-miterlimit="10" stroke-width="2.5" d="M29.9 46.5l-2.2 1.3c-1.7 1-3.8 1-5.5 0l-15.6-9C5 37.8 4 36 4 34V16c0-2 1-3.8 2.7-4.7l15.6-9c1.7-1 3.8-1 5.5 0l15.6 9C45 12.3 46 14 46 16v18c0 2-1 3.8-2.7 4.7l-2.5 1.4"/><ellipse cx="26.8" cy="12.9" class="st2" rx="1.4" ry="1.5"/><path d="M24.5 17.7v-.5c0-2.1 1.1-2.9 2.1-2.9h.5c1 0 2.1.7 2.1 2.9v.5M19 15.3v-4.4c0-.8.6-1.5 1.4-1.5h6" class="st2"/><path d="M19 15.3v2.9c0 .8.6 1.5 1.4 1.5h8.8l2.8 2.9v-2.9h1.8c.8 0 1.4-.7 1.4-1.5v-7.3c0-.8-.6-1.5-1.4-1.5h-7.4" class="st2"/><circle cx="14.9" cy="22.6" r="3.2" class="st3"/><path d="M13.6 30.3l1.3 3.5c.4 1 1.4 1.7 2.4 1.7H22c.8 0 1.4-.6 1.4-1.4 0-.7-.5-1.3-1.2-1.4l-3.5-.4c-.3 0-.5-.2-.5-.5-.2-.8-.7-2.5-1.2-3.5-.6-1.3-1.3-2.6-3.6-2.6-2.9 0-3.6 1.9-4.2 4.5-.7 2.7-2 7.8-2 7.8m8.4-3.2L15 38m4.5-2.5h18.7m-12.9-3.3l3.2-8.3h12.2l-3.2 8.3H25.3m6.9 3.3v-3.3" class="st3"/><g><path fill="#444" d="M33.4 29.2H31v1.2h2.4v-1.2zm1.2-2.4h-2.4v2.4h2.4v-2.4zm-2.4-1.2H31v1.2h1.2v-1.2zm3.6 0h-1.2v1.2h1.2v-1.2z"/></g></svg>