<svg xmlns="http://www.w3.org/2000/svg" fill="none" viewBox="0 0 150 150"><path fill="#AFE55D" d="M10.5 104.4l19.2 20.1 19.2.3L141 92.4l-9.9-13.5c.9-5.1 12-29.1 7.8-32.7l-11.7-16.8-24.3-1.8C99 24 87 12.6 82.2 14.7L26.4 35.4c-4.8 1.8-8.4 6-9.3 11.1l1.8 28.8c-.6 5.1-12.6 25.8-8.4 29.1z"/><path fill="#C3FF68" d="M127.2 31.5L105 26.4 88.8 9.6c-4.2-3.6-24-.6-29.1 1.5L48 28.5l-19.8 3.6C23.1 33.9 12.9 43.2 12 48.6L15 72l112.2-40.5z"/><path fill="#444" d="M74.7 89.7c8.119 0 14.7-6.581 14.7-14.7s-6.581-14.7-14.7-14.7S60 66.881 60 75s6.581 14.7 14.7 14.7z"/><path fill="#444" d="M133.2 75c4.8-4.2 8.1-9.6 9.6-15.6 1.8-7.5.6-15.3-3.3-21.9-3.9-6.6-9.9-11.4-17.4-13.8-6-1.8-12.3-1.8-18.3.3-1.2-6-4.2-11.7-9-15.9C89.4 3 82.2 0 74.7 0c-7.5 0-15 3-20.4 8.1-4.5 4.2-7.8 9.9-9 15.9-6-1.8-12.3-2.1-18.3-.3-7.2 2.1-13.5 7.2-17.4 13.8-3.9 6.6-5.1 14.4-3.3 21.9 1.5 6.3 4.8 11.7 9.6 15.6-4.8 4.2-8.1 9.6-9.6 15.6-1.8 7.5-.6 15.3 3.3 21.9 3.9 6.6 9.9 11.4 17.4 13.8 6 1.8 12.3 1.8 18.3-.3 1.2 6 4.2 11.7 9 15.9C60 147 67.2 150 74.7 150c7.2 0 14.1-2.7 19.5-7.2-2.4-2.1-4.8-3.9-6.9-6-3.6 2.4-8.1 3.9-12.6 3.9-12 0-22.2-9.3-22.8-21.3 0-.9-.6-1.8-1.2-2.1-.3-.3-.9-.3-1.2-.3-.3 0-.9 0-1.2.3-10.8 5.4-24 1.2-30-9s-3-24 7.2-30.6c.6-.6 1.2-1.2 1.2-2.1 0-.9-.3-1.8-1.2-2.1C15 66 12 52.8 18 42.3s19.2-14.4 30-9c.9.3 1.8.3 2.4 0 .9-.3 1.2-1.2 1.2-2.1.9-12 10.8-21.3 22.8-21.3s22.2 9.3 22.8 21.3c0 .9.6 1.8 1.2 2.1.9.3 1.8.6 2.4 0 10.8-5.4 24-1.2 30 9 6 10.5 3 24-7.2 30.6 0 .3-.6 1.2-.6 2.1 0 .9.3 1.8 1.2 2.1 9.9 6.6 13.2 20.1 7.2 30.6-1.5 2.7-3.6 4.8-5.7 6.6 2.4 2.1 4.5 4.2 6.9 6.3 2.7-2.4 5.1-5.1 6.9-8.1 3.9-6.6 5.1-14.4 3.3-21.9-1.5-6-4.8-11.4-9.6-15.6z"/><path fill="#444" d="M87.6 142.8c-1.8-1.8-2.1-4.8-.3-6.3 2.4-1.5 5.4-1.8 6.9-.3 1.8 1.8 1.8 4.8 0 6.6-1.8 1.8-4.8 1.5-6.6 0zm45-22.2c1.8-1.5 1.2-4.8-.6-6.3-1.8-1.5-4.5-1.5-6.3 0-1.8 1.5-2.1 4.8-.6 6.6 1.2 1.5 5.7 1.2 7.5-.3z"/><path stroke="#444" stroke-miterlimit="10" d="M24.6 42s24.6 7.5 24.6 33.3c0 25.8-24.6 31.2-24.6 31.2"/><path stroke="#444" stroke-miterlimit="10" d="M82.2 17.4s5.7 25.8-20.4 39c-26.1 13.2-43.5-.9-43.5-.9"/><path stroke="#444" stroke-miterlimit="10" d="M131.1 55.2S108.3 68.7 85.2 57C62.1 45.3 66.9 17.4 66.9 17.4"/><path stroke="#444" stroke-miterlimit="10" d="M123.9 106.5s-24.3-1.5-23.1-33.9c.9-29.1 23.1-29.1 23.1-29.1"/><path stroke="#444" stroke-miterlimit="10" d="M67.8 132.6s-7.2-30.3 20.1-40.5 41.4 1.8 41.4 1.8"/><path stroke="#444" stroke-miterlimit="10" d="M19.5 93.3s24-14.1 45.6 0c20.1 13.2 16.8 39.3 16.8 39.3"/></svg>