<svg xmlns="http://www.w3.org/2000/svg" id="Camada_3" x="0" y="0" version="1.1" viewBox="0 0 50 50" xml:space="preserve"><style>.st3{fill:none;stroke:#444;stroke-width:1.5;stroke-linecap:round;stroke-linejoin:round;stroke-miterlimit:10}</style><path fill="#00dffc" d="M46.82 10.35l-.54 7.37L3.07 33.45V24.1l.31-4.23-.65-16.52 44.2.67z"/><path fill="#00c8e2" d="M46.6 26.23l.38 4.11-44.25 16.1.13-8.66.33-15.98L47.27 5.76l-.67 14.55z"/><path fill="none" stroke="#444" stroke-linecap="round" stroke-linejoin="round" stroke-miterlimit="10" stroke-width="2.5" d="M32.59 47.22H2.63V2.78h44.74v34.44"/><path d="M20.01 7.07L9.71 17.5M28.02 7.07L9.16 26.16m.56 8.73L37.21 7.07H9.16v35.86l28.45-.04-15.24-20.43m-4.14 4.52l11.9 15.95m-7.37 0l-8.95-12" class="st3"/><path d="M36.38 27.79h4.46m-8.92.56l3.9-3.35-3.9-3.35" class="st3"/></svg>