<svg xmlns="http://www.w3.org/2000/svg" fill="none" viewBox="0 0 50 50"><g clip-path="url(#clip0_1401_2)"><path fill="#C3FF68" d="M47.9 2.4H4.1C2.9 2.4 2 3.3 2 4.5v17.3L46.5 6.6c.1 0 0-.4 0-.5 0-1.2 2.6-3.7 1.4-3.7z"/><path fill="#AFE55D" d="M2 21.8v25.9l34.8-12.4-9.2-10.1 13.3-13.8 4.8-5.2L2 21.8z"/><path stroke="#444" stroke-linecap="round" stroke-linejoin="round" stroke-miterlimit="10" d="M47.4 3.1L3.1 47.4M29.4 1.8L1.9 29"/><path stroke="#444" stroke-linecap="round" stroke-linejoin="round" stroke-miterlimit="10" stroke-width="2.5" d="M32.5 48.2H3.6c-1.1 0-2.1-.9-2.1-2.1V3.8c0-1.1.9-2.1 2.1-2.1h43.2c1.4 0 2.1 1.7 1.1 2.7L26.4 25.2 36.9 35l7.9 7.9"/></g><defs><clipPath id="clip0_1401_2"><path fill="#fff" d="M0 0h50v50H0z"/></clipPath></defs></svg>