<svg xmlns="http://www.w3.org/2000/svg" id="Camada_3" x="0" y="0" version="1.1" viewBox="0 0 50 50" xml:space="preserve"><style>.st0{fill:#00dffc}.st1{fill:#00c8e2}.st3,.st4{fill:none;stroke-linecap:round;stroke-linejoin:round;stroke-miterlimit:10;stroke:#444}.st4{stroke-width:2.5}</style><path d="M768.98 1206.65h-43.77c-1.18 0-2.13.95-2.13 2.13v17.28l44.48-15.23c.1-.04 0-.4 0-.51 0-1.17 2.59-3.67 1.42-3.67z" class="st0"/><path d="M723.08 1226.05v25.91l34.84-12.4-8.88-10.73 12.94-13.18 4.82-5.15z" class="st1"/><path d="M768.51 1207.31l-44.37 44.38m26.31-45.68l-27.52 27.25" class="st3"/><path d="M753.61 1252.5h-28.88c-1.14 0-2.06-.92-2.06-2.06v-42.37c0-1.14.92-2.06 2.06-2.06h43.18c1.42 0 2.12 1.71 1.11 2.71l-20.86 20.65 9.86 9.86 7.94 7.94" class="st4"/><path d="M47.89 2.39H4.12c-1.18 0-2.13.95-2.13 2.13V21.8L46.47 6.57c.1-.04 0-.4 0-.51 0-1.17 2.6-3.67 1.42-3.67z" class="st0"/><path d="M1.99 21.8v25.91l34.85-12.4-9.24-10.06 13.29-13.86 4.82-5.15z" class="st1"/><path d="M47.43 3.06L3.06 47.43M29.37 1.75L1.85 29.01" class="st3"/><path d="M32.52 48.24H3.64c-1.14 0-2.06-.92-2.06-2.06V3.81c0-1.14.92-2.06 2.06-2.06h43.18c1.42 0 2.12 1.71 1.11 2.71L26.36 25.25l10.58 9.73 7.94 7.94" class="st4"/></svg>