<svg xmlns="http://www.w3.org/2000/svg" id="Camada_3" x="0" y="0" version="1.1" viewBox="0 0 50 50" xml:space="preserve"><style>.st3{fill:none;stroke:#444;stroke-width:1.5;stroke-linecap:round;stroke-linejoin:round;stroke-miterlimit:10}</style><path fill="#bf94f7" d="M47.72 9.75l-.56 7.67L2.17 33.8v-9.74l.32-4.41-.68-17.2 46.02.7z"/><path fill="#a475ef" d="M47.49 26.28l.4 4.28L1.81 47.33l.13-9.02.35-16.64 45.9-16.7-.7 15.14z"/><path fill="none" stroke="#444" stroke-linecap="round" stroke-linejoin="round" stroke-miterlimit="10" stroke-width="2.5" d="M32.9 48.14H1.71V1.86h46.58v35.87"/><path d="M19.81 6.33L9.08 17.19M28.14 6.33L8.51 26.21m.58 9.09L37.71 6.33H8.51v37.34l29.62-.05-15.87-21.27m-4.31 4.71l12.39 16.61m-7.67 0l-9.32-12.49" class="st3"/><path d="M36.85 27.9h4.64m-9.29.58L36.27 25l-4.07-3.48" class="st3"/></svg>