<svg xmlns="http://www.w3.org/2000/svg" id="Layer_1" x="0" y="0" version="1.1" viewBox="0 0 50 50" xml:space="preserve"><style>.st1{fill:#444}</style><path fill="#a475ef" d="M41.3 11.7l-.9.9-10 10.2-12.2 12.6-4.2 4.3-1.7 1.7-5.6-3.2c-.6-.3-1.1-.8-1.6-1.3-.1-.1-.2-.2-.3-.4-.6-.9-.9-1.9-.9-3V22.1l2.3-2.4L18 7.7l5.4-5.5c1.4-.4 2.9-.2 4.2.5l.8.5h.1l.3.2 5.7 3.2.5.3 6.3 3.5v1.3z"/><path d="M43.9 26c0-.5-.1-1.1-.2-1.6-.4-3.2-1.3-6.2-2.1-8.5l-.1-.3-.3.3c-.1.1-.1.2-.1.2-.7 1.1-1.5 2.1-2.3 3-1.9 1.8-4.3 3-7.3 3.7-.2 0-.3 0-.5.1-1.1.2-2.3.3-3.5.3-.8 0-1.6.1-2.4.2-4.7.5-7.9 3.6-8.5 7.9-.3 2 .2 3.6 1.3 5 .2.3.5.5.8.8.5.5 1.2.6 1.9.5.9-.2 1.8-.5 2.7-.7.8-.2 1.5-.4 2.3-.5 6-1.5 10.4-4.5 13.4-9.3-2.5 5.4-6.7 9.1-12.4 10.8-.9.3-1.9.6-2.9.9-.5.2-.9.3-1.4.5l-.2.1.2.2c.1.1.2.4.5.4 0 0 .1 0-.1-.1.9-.2 1.7-.2 2.6-.2h.5c.5.1.9.1 1.4.1 2.5.1 5 .1 7.6-.2 4-.6 6.7-2.6 8.1-5.9.9-2.3 1.2-4.7 1-7.7z" class="st1"/><circle cx="18.8" cy="40.4" r="1.8" class="st1"/><path fill="#bf94f7" d="M28.5 3.2L26.8 5 6.2 26l-2.3 2.4V16.1c0-1.9 1.1-3.7 2.8-4.7l11.8-6.6 1.4-.8 2.2-1.2c.4-.2.9-.4 1.3-.5 1.4-.4 2.9-.2 4.2.5l.9.4z"/><path d="M47.2 15.8v5c0 .7-.6 1.2-1.3 1.2s-1.3-.6-1.2-1.3v-4.9c0-1.2-.7-2.3-1.7-2.9l-1.5-.9L34 7.9l-.4-.3-6.1-3.4-.4-.2H27l-.3-.2c-1-.6-2.3-.6-3.4 0l-5.5 3.1-4 2.3-1.6.8L7 12.9c-1 .6-1.7 1.7-1.7 2.9v18.4c0 .5.1.9.3 1.4.1.2.2.3.3.5.3.4.7.8 1.1 1l3.8 2.2 1.1.6 1.6.9 9.8 5.5c.3.2.6.3.9.3.2.1.5.1.7.1.6 0 1.2-.1 1.8-.4l3.8-2.1.4-.2.3-.2c.6-.3 1.3-.1 1.7.5.3.6.1 1.3-.5 1.6l-.4.2-4 2.3c-.4.2-.9.4-1.4.6-.2 0-.4.1-.5.1-.3.1-.7.1-1 .1-1 0-2-.3-2.9-.8l-6.6-3.7-1.2-.7-2.7-1.5-6-3.3c-.7-.4-1.2-.8-1.7-1.4-.1-.1-.2-.3-.3-.4-.6-.9-1-2-1-3.2V15.8c0-2 1.1-3.9 2.9-5l12.5-7 1.5-.9 2.3-1.3c.5-.3.9-.4 1.4-.6 1.5-.4 3.1-.2 4.5.6l.8.5h.1l.4.2 6.1 3.4.5.3 6.6 3.8 1.9 1c1.9 1.1 3 3 3 5z" class="st1"/><path d="M19.8 3.9L14 9.7l-7.9 8.2-2.2 2.3-.2-.2v-.3l2.4-2.4 6.5-6.7 5.7-5.9zm8.9-.6L27 5 6.1 26.2l-2.2 2.2-.2-.2v-.3l2.4-2.4L26.6 4.8l1.7-1.7zm6.2 3.5l-1.7 1.7L17 24.7l-.3.3-4 4-.3.3-4 4L5 36.7c-.1-.1-.2-.2-.3-.4l1.7-1.7L32.7 8.3l1.7-1.7.5.2z" class="st1"/></svg>