<svg xmlns="http://www.w3.org/2000/svg" viewBox="0 0 50 50"><path fill="#e589ef" d="M47.9 9.6l.1 6.3-31.2 31.8h-6.7l-6.8.1-1.2-8v-7L32.2 2.2l15.7.4z"/><path fill="#f799ff" d="M25.4 2.7l6.8-.3-29.5 30-.3-9.4-.2-14.6.3-5.6h8.3z"/><path fill="#031326" d="M47.4 1.8H2.7c-.7 0-1.2.5-1.2 1.2v44.5c0 .7.6 1.2 1.2 1.2h40c.7 0 1.2-.6 1.2-1.2s-.6-1.2-1.2-1.2h-5.3l-18-24.1L37 4.3h9.2v26.6c0 .7.6 1.2 1.2 1.2s1.2-.6 1.2-1.2V3c.1-.7-.5-1.2-1.2-1.2zM4 4.3h10.2L4 14.6V4.3zm0 12.5L16.3 4.3h7.5L4 24.4v-7.6zm0 29.4v-8.5l4.1-4.2 9.5 12.7H4zm15.4 0L9.2 32.5l4-4 13.3 17.8-7.1-.1zm16.1 0h-7.2L14.2 27.3l4.1-4.1 17.2 23zM4 35.6v-9.1L26 4.3h9L4 35.6z"/></svg>