<svg xmlns="http://www.w3.org/2000/svg" fill="none" viewBox="0 0 50 50"><g clip-path="url(#clip0_1410_2)"><path fill="#E589EF" d="M48.2 2.4H4.4c-1.2 0-2.1.9-2.1 2.1v43.2l34.8-12.4-9.2-10.1 13.3-13.8 3.9-4.2 1.7-.6c.1 0 0-.4 0-.5 0-1.2 2.6-3.7 1.4-3.7z"/><path stroke="#444" stroke-linecap="round" stroke-linejoin="round" stroke-miterlimit="10" d="M47.7 3.1L3.4 47.4M29.7 1.8L2.2 29"/><path stroke="#444" stroke-linecap="round" stroke-linejoin="round" stroke-miterlimit="10" stroke-width="2.5" d="M32.8 48.2H3.9c-1.1 0-2.1-.9-2.1-2.1V3.8c0-1.1.9-2.1 2.1-2.1h43.2c1.4 0 2.1 1.7 1.1 2.7L26.7 25.2 37.2 35l7.9 7.9"/></g><defs><clipPath id="clip0_1410_2"><path fill="#fff" d="M0 0h50v50H0z"/></clipPath></defs></svg>