<svg xmlns="http://www.w3.org/2000/svg" id="Camada_1" x="0" y="0" version="1.1" viewBox="0 0 50 50" xml:space="preserve"><style>.st2{fill:#494949}</style><path fill="#a475ef" d="M45.8 19.2l-2.4.9-13.6 5-1.6.6-2 .7-1.7.6-3.2 1.2-1.8.6-3.5 1.3-1.5.6-2.3.8-1.5.5-3.5 1.3-2.2.9c-.6-2-1-4.2-1-6.5 0-2.8.5-5.5 1.5-7.9v-.1l3.3-1.2 5.5-2 1.6-.6 1.8-.6 1.7-.6 4.5-1.6 1.5-.6 7.1-2.6L36 8.5h.1c4.3 2.4 7.7 6.2 9.7 10.7z"/><path fill="#bf94f7" d="M36 8.6l-3.3 1.2-3.9 1.4h-.1l-3.2 1.2-1.5.6-4.4 1.6-1.7.6-1.8.7-1.6.6-5.7 2.1-3.3 1.2v-.1c1.1-2.9 2.9-5.4 5-7.5-2.7-3.2-5-6.1-7-8.6l3.1-1.1c2.3 2 4.8 4.3 7.4 6.8 3.4-2.2 7.4-3.4 11.7-3.4 3.7 0 7.2 1 10.3 2.7 0-.1 0-.1 0 0z"/><path d="M19.2 28.7c.8.4 1.6.3 1.9-.2.3-.6 0-1.4-.8-1.8-.3-.2-.7-.3-1-.3-.4 0-.8.2-1 .5-.2.6.2 1.4.9 1.8zm14.5-15.9c-.1-.1-.3-.1-.4-.1-.3 0-.5.2-.7.4l-.7 1.4c-.2.4-.1.9.3 1.1.4.2.9.1 1.1-.3l.7-1.4c.2-.4.1-.9-.3-1.1zm-9-2c-.4 0-.8.3-.8.8v.1l.1 1.6c0 .4.4.8.8.7.4 0 .8-.4.7-.8l-.1-1.6c0-.5-.3-.8-.7-.8zm4.6.4h-.2c-.4 0-.7.3-.8.6l-.3 1.5c-.1.4.2.8.6.9.4.1.8-.2 1-.6l.3-1.5c.1-.4-.2-.9-.6-.9zm9.4 23.3c-.5 0-.8.4-.8.8 0 1.3-.5 3-2 4.4-1.5 1.4-3.9 2.5-8 2.4-6.2.1-9.9-2.8-12.4-5.7-.3-.3-.8-.3-1.1-.1-.3.3-.4.8-.1 1.1 2.6 2.9 6.7 6.2 13.1 6.2h.4c4.4.1 7.3-1.1 9.1-2.8 1.8-1.7 2.5-3.8 2.5-5.5.1-.4-.3-.8-.7-.8zm-1.2-19c-.2-.2-.4-.2-.6-.2-.2 0-.4.1-.5.2l-1.1 1.1c-.3.3-.3.8 0 1.1.3.3.8.3 1.1 0l1.1-1.1c.3-.3.3-.8 0-1.1zM13.5 34c-.6-.9-1.1-1.9-1.5-2.9-.1-.3-.4-.5-.7-.5-.4 0-.8.3-.8.8 0 .1 0 .2.1.3.4 1.1 1 2.2 1.6 3.2.2.4.7.5 1.1.2.4-.2.5-.7.2-1.1z" class="st2"/><path d="M36.3 31.8c-.8-2.5-3.7-4.1-4.2-4.3-.8-.8-1.5-1.6-2.2-2.4l-1.6.6c.8.8 1.5 1.6 2.3 2.4l-1.3 1.2c-1-1-2-1.9-3-2.9l-1.8.6.1.1c.5.5 1 .9 1.5 1.4-1.3.5-2.2 1.2-2.6 2-.6 1-.5 2-.5 2.3 0 .5-.2.7-.9.9s-1.8 0-2.9-.5c-.9-.5-2.1-1.7-3.1-3-.1-.1-.2-.2-.2-.3-1.1-1.5-1.9-3.1-2.2-3.9-.1-.3-.4-.5-.7-.5-.4 0-.8.3-.8.8 0 .1 0 .2.1.3.4 1.1 1.3 2.7 2.4 4.3 1.1 1.6 2.5 3.1 3.9 3.8 1.4.7 2.8.9 4 .7 1.1-.3 2.1-1.2 2.1-2.4 0-.4 0-.9.3-1.5s1-1.2 2.5-1.6c.4.4.8.7 1.2 1.1.6 2.7 2.1 3.3 3.4 3.8.3.1.6.2.8.4 1.1.5 1.1 2.4 1.1 2.4 0 .3.1.5.3.6.1.1.3.1.5.1.1 0 .2 0 .3-.1 1.5-.6 2.1-3.8 1.2-6.4zm0 0c-.8-2.5-3.7-4.1-4.2-4.3-.8-.8-1.5-1.6-2.2-2.4l-1.6.6c.8.8 1.5 1.6 2.3 2.4l-1.3 1.2c-1-1-2-1.9-3-2.9l-1.8.6.1.1c.5.5 1 .9 1.5 1.4-1.3.5-2.2 1.2-2.6 2-.6 1-.5 2-.5 2.3 0 .5-.2.7-.9.9s-1.8 0-2.9-.5c-.9-.5-2.1-1.7-3.1-3-.1-.1-.2-.2-.2-.3-1.1-1.5-1.9-3.1-2.2-3.9-.1-.3-.4-.5-.7-.5-.4 0-.8.3-.8.8 0 .1 0 .2.1.3.4 1.1 1.3 2.7 2.4 4.3 1.1 1.6 2.5 3.1 3.9 3.8 1.4.7 2.8.9 4 .7 1.1-.3 2.1-1.2 2.1-2.4 0-.4 0-.9.3-1.5s1-1.2 2.5-1.6c.4.4.8.7 1.2 1.1.6 2.7 2.1 3.3 3.4 3.8.3.1.6.2.8.4 1.1.5 1.1 2.4 1.1 2.4 0 .3.1.5.3.6.1.1.3.1.5.1.1 0 .2 0 .3-.1 1.5-.6 2.1-3.8 1.2-6.4zm0 0c-.8-2.5-3.7-4.1-4.2-4.3-.8-.8-1.5-1.6-2.2-2.4l-1.6.6c.8.8 1.5 1.6 2.3 2.4l-1.3 1.2c-1-1-2-1.9-3-2.9l-1.8.6.1.1c.5.5 1 .9 1.5 1.4-1.3.5-2.2 1.2-2.6 2-.6 1-.5 2-.5 2.3 0 .5-.2.7-.9.9s-1.8 0-2.9-.5c-.9-.5-2.1-1.7-3.1-3-.1-.1-.2-.2-.2-.3-1.1-1.5-1.9-3.1-2.2-3.9-.1-.3-.4-.5-.7-.5-.4 0-.8.3-.8.8 0 .1 0 .2.1.3.4 1.1 1.3 2.7 2.4 4.3 1.1 1.6 2.5 3.1 3.9 3.8 1.4.7 2.8.9 4 .7 1.1-.3 2.1-1.2 2.1-2.4 0-.4 0-.9.3-1.5s1-1.2 2.5-1.6c.4.4.8.7 1.2 1.1.6 2.7 2.1 3.3 3.4 3.8.3.1.6.2.8.4 1.1.5 1.1 2.4 1.1 2.4 0 .3.1.5.3.6.1.1.3.1.5.1.1 0 .2 0 .3-.1 1.5-.6 2.1-3.8 1.2-6.4zm9.5-12.6c-1.9-4.6-5.4-8.3-9.7-10.7H36c-3.1-1.6-6.5-2.6-10.3-2.6-4.3 0-8.3 1.3-11.7 3.4-2.7-2.5-5.2-4.8-7.4-6.8-.7-.6-1.3-1.2-2-1.8-.1-.1-.3-.1-.5-.1s-.4.1-.6.2l-.7.8c-.3.3-.3.7-.1 1 .3.4.5.7.8 1 2 2.5 4.3 5.4 7.1 8.5-2.2 2.1-3.9 4.7-5 7.5v.1c-1 2.5-1.5 5.1-1.5 7.9 0 2.2.4 4.4 1 6.5C7.7 43 16 49.4 25.7 49.4c12 0 21.8-9.8 21.8-21.8 0-2.9-.6-5.8-1.7-8.4zM6.2 4.4c2 1.8 4.1 3.8 6.4 5.9.6.6 1.2 1.1 1.8 1.7 1.1 1 2.2 2 3.3 3.1h.1c1.6 1.5 3.2 3.2 4.9 4.8l-1.4 1.4c-1.8-1.9-3.6-3.8-5.2-5.6l-.1-.1c-.9-1-1.8-2-2.6-2.9-.6-.6-1.1-1.3-1.6-1.9-2.1-2.1-3.9-4.4-5.6-6.4zm17.7 16.8c1.4 1.5 2.9 3 4.4 4.5.8.8 1.5 1.6 2.3 2.4l-1.3 1.2c-1-1-2-1.9-3-2.9-1.3-1.3-2.6-2.5-3.8-3.8l1.4-1.4zm20.7 10.4c-.1.6-.3 1.2-.5 1.8-.2.6-.4 1.2-.7 1.8-.2.6-.5 1.1-.8 1.7-.4.8-.9 1.6-1.5 2.3l-1.8 2.1c-.4.4-.9.8-1.4 1.2-.5.4-1 .8-1.5 1.1-.3.2-.5.3-.8.5-.5.3-1.1.6-1.6.9s-1.1.5-1.7.7l-1.8.6c-.9.2-1.9.4-2.8.5-.7.1-1.3.1-2 .1s-1.3 0-2-.1c-1-.1-1.9-.3-2.8-.5-.6-.2-1.2-.3-1.8-.6-.6-.2-1.2-.5-1.7-.7s-1.1-.6-1.6-.9c-.3-.2-.5-.3-.8-.5-.5-.3-1-.7-1.5-1.1-.5-.4-.9-.8-1.4-1.2-.7-.7-1.3-1.3-1.8-2.1-.5-.7-1-1.5-1.5-2.3-.3-.5-.6-1.1-.8-1.7-.2-.6-.5-1.2-.7-1.8v-.1c-.2-.6-.3-1.2-.4-1.7-.3-1.3-.4-2.6-.4-3.9 0-.6 0-1.2.1-1.8v-.4c0-.2 0-.5.1-.7.3-2.2 1.1-4.3 2.1-6.2 0 0 0-.1.1-.1.3-.6.7-1.2 1.1-1.8.1-.2.2-.4.4-.5l1.8-2.1c.7.8 1.4 1.6 2.2 2.4v.1c2 2.2 4 4.4 6.3 6.7 1.2 1.3 2.5 2.5 3.8 3.8l.1.1c.5.5 1 .9 1.5 1.4-1.3.5-2.2 1.2-2.6 2-.6 1-.5 2-.5 2.3 0 .5-.2.7-.9.9s-1.8 0-2.9-.5c-.9-.5-2.1-1.7-3.1-3-.1-.1-.2-.2-.2-.3-1.1-1.5-1.9-3.1-2.2-3.9-.1-.3-.4-.5-.7-.5-.4 0-.8.3-.8.8 0 .1 0 .2.1.3.4 1.1 1.3 2.7 2.4 4.3 1.1 1.6 2.5 3.1 3.9 3.8 1.4.7 2.8.9 4 .7 1.1-.3 2.1-1.2 2.1-2.4 0-.4 0-.9.3-1.5s1-1.2 2.5-1.6c.4.4.8.7 1.2 1.1.6 2.7 2.1 3.3 3.4 3.8.3.1.6.2.8.4 1.1.5 1.1 2.4 1.1 2.4 0 .3.1.5.3.6.1.1.3.1.5.1.1 0 .2 0 .3-.1 1.5-.6 2.1-3.8 1.2-6.5-.8-2.5-3.7-4.1-4.2-4.3-.8-.8-1.5-1.6-2.2-2.4-.5-.5-1-1.1-1.6-1.6-.4-.5-.9-.9-1.3-1.3-.8-.9-1.7-1.8-2.5-2.6l-4.9-4.9-.1-.1c-1.2-1.2-2.4-2.3-3.5-3.4.4-.2.7-.4 1.1-.6.7-.4 1.5-.7 2.3-1h.2c.3-.1.6-.2 1-.3 1.4-.4 2.8-.7 4.3-.7h1c.7 0 1.3 0 2 .1 1 .1 1.9.3 2.8.5.6.2 1.2.3 1.8.6.1 0 .2.1.3.1h.1c.5.2.9.4 1.3.6.6.3 1.1.6 1.6.9.3.2.5.3.8.5.5.3 1 .7 1.5 1.1.5.4.9.8 1.4 1.2.7.7 1.3 1.4 1.8 2.1.6.7 1.1 1.5 1.5 2.3.3.5.5 1 .8 1.6v.1c.2.6.5 1.2.7 1.8.2.6.3 1.2.5 1.8.3 1.3.4 2.5.4 3.9-.2 1.2-.4 2.5-.6 3.8zm-8.3.2c-.8-2.5-3.7-4.1-4.2-4.3-.8-.8-1.5-1.6-2.2-2.4l-1.6.6c.8.8 1.5 1.6 2.3 2.4l-1.3 1.2c-1-1-2-1.9-3-2.9l-1.8.6.1.1c.5.5 1 .9 1.5 1.4-1.3.5-2.2 1.2-2.6 2-.6 1-.5 2-.5 2.3 0 .5-.2.7-.9.9s-1.8 0-2.9-.5c-.9-.5-2.1-1.7-3.1-3-.1-.1-.2-.2-.2-.3-1.1-1.5-1.9-3.1-2.2-3.9-.1-.3-.4-.5-.7-.5-.4 0-.8.3-.8.8 0 .1 0 .2.1.3.4 1.1 1.3 2.7 2.4 4.3 1.1 1.6 2.5 3.1 3.9 3.8 1.4.7 2.8.9 4 .7 1.1-.3 2.1-1.2 2.1-2.4 0-.4 0-.9.3-1.5s1-1.2 2.5-1.6c.4.4.8.7 1.2 1.1.6 2.7 2.1 3.3 3.4 3.8.3.1.6.2.8.4 1.1.5 1.1 2.4 1.1 2.4 0 .3.1.5.3.6.1.1.3.1.5.1.1 0 .2 0 .3-.1 1.5-.6 2.1-3.8 1.2-6.4zm0 0c-.8-2.5-3.7-4.1-4.2-4.3-.8-.8-1.5-1.6-2.2-2.4l-1.6.6c.8.8 1.5 1.6 2.3 2.4l-1.3 1.2c-1-1-2-1.9-3-2.9l-1.8.6.1.1c.5.5 1 .9 1.5 1.4-1.3.5-2.2 1.2-2.6 2-.6 1-.5 2-.5 2.3 0 .5-.2.7-.9.9s-1.8 0-2.9-.5c-.9-.5-2.1-1.7-3.1-3-.1-.1-.2-.2-.2-.3-1.1-1.5-1.9-3.1-2.2-3.9-.1-.3-.4-.5-.7-.5-.4 0-.8.3-.8.8 0 .1 0 .2.1.3.4 1.1 1.3 2.7 2.4 4.3 1.1 1.6 2.5 3.1 3.9 3.8 1.4.7 2.8.9 4 .7 1.1-.3 2.1-1.2 2.1-2.4 0-.4 0-.9.3-1.5s1-1.2 2.5-1.6c.4.4.8.7 1.2 1.1.6 2.7 2.1 3.3 3.4 3.8.3.1.6.2.8.4 1.1.5 1.1 2.4 1.1 2.4 0 .3.1.5.3.6.1.1.3.1.5.1.1 0 .2 0 .3-.1 1.5-.6 2.1-3.8 1.2-6.4zm0 0c-.8-2.5-3.7-4.1-4.2-4.3-.8-.8-1.5-1.6-2.2-2.4l-1.6.6c.8.8 1.5 1.6 2.3 2.4l-1.3 1.2c-1-1-2-1.9-3-2.9l-1.8.6.1.1c.5.5 1 .9 1.5 1.4-1.3.5-2.2 1.2-2.6 2-.6 1-.5 2-.5 2.3 0 .5-.2.7-.9.9s-1.8 0-2.9-.5c-.9-.5-2.1-1.7-3.1-3-.1-.1-.2-.2-.2-.3-1.1-1.5-1.9-3.1-2.2-3.9-.1-.3-.4-.5-.7-.5-.4 0-.8.3-.8.8 0 .1 0 .2.1.3.4 1.1 1.3 2.7 2.4 4.3 1.1 1.6 2.5 3.1 3.9 3.8 1.4.7 2.8.9 4 .7 1.1-.3 2.1-1.2 2.1-2.4 0-.4 0-.9.3-1.5s1-1.2 2.5-1.6c.4.4.8.7 1.2 1.1.6 2.7 2.1 3.3 3.4 3.8.3.1.6.2.8.4 1.1.5 1.1 2.4 1.1 2.4 0 .3.1.5.3.6.1.1.3.1.5.1.1 0 .2 0 .3-.1 1.5-.6 2.1-3.8 1.2-6.4z" class="st2"/></svg>