<svg xmlns="http://www.w3.org/2000/svg" id="Layer_1" x="0" y="0" version="1.1" viewBox="0 0 50 50" xml:space="preserve"><style>.st0{fill:#e589ef}.st2{fill:#031326}</style><path d="M47.5 26l.4 4.3L1.7 47.2l.1-9.1.3-5.2 46.1-16.8-.7 3.7z" class="st0"/><path fill="#f799ff" d="M47.8 2.7l-.1 6.6-.5 7.2v.5l-.4.2-6 2.1-.2.1-.9.3-.2.1-.3.1-11.8 4.3-.8.3-.5.2-2 .7-.2.1-.9.3-19.9 7.3-1 .3-.2.1v-9.8l.3-4.4.9-.3 6.1-2.2.2-.1.3-.1.6-.3h.2l.3-.1 3-1.1.1-.1 2.1-.7.5-.2.7-.3.8-.3 1.3-.4.1-.1 13.3-4.8.8-.3.6-.2 1.6-.6.8-.3.6-.2 9.1-3.3z"/><path d="M32.8 49.2h-31c-.7 0-1.2-.6-1.2-1.2V2c0-.7.6-1.2 1.2-1.2H48c.7 0 1.2.6 1.2 1.2v35.6c0 .7-.6 1.2-1.2 1.2s-1.2-.6-1.2-1.2V3.3H3.1v43.4h29.7c.7 0 1.2.6 1.2 1.2s-.5 1.3-1.2 1.3z" class="st2"/><path d="M38 6.6H12c-1.5 0-2.8 1.2-2.8 2.8V23c0 1.5 1.2 2.8 2.8 2.8h26c1.6 0 2.9-1.2 2.8-2.8V9.4c0-1.5-1.2-2.8-2.8-2.8zM39.2 23c0 .6-.5 1.2-1.2 1.2H12c-.6 0-1.2-.5-1.2-1.2V9.4c0-.6.5-1.2 1.2-1.2h26c.6 0 1.2.5 1.2 1.2V23z" class="st2"/><path d="M33.1 12.3c-1.8 0-3.3 1.5-3.3 3.3s1.5 3.3 3.3 3.3 3.2-1.5 3.3-3.3c0-1.8-1.5-3.3-3.3-3.3zm0 5c-.9 0-1.7-.8-1.7-1.7 0-.9.8-1.7 1.7-1.7s1.7.8 1.7 1.7c0 .9-.8 1.7-1.7 1.7zM29 15.1c0 .4-.4.8-.8.8-1.9 0-3.7.9-4.8 2.4-.1.2-.3.3-.6.3-.4 0-.6-.2-.7-.4-.7-1.5-1.8-2.7-3.1-3.5-1.4-.9-3-1.4-4.7-1.4-.4 0-.8-.4-.8-.8s.4-.8.8-.8c2 0 3.9.6 5.5 1.6 1.3.8 2.3 1.9 3.1 3.2 1.4-1.4 3.3-2.2 5.3-2.2.4 0 .8.4.8.8z" class="st2"/><path d="M29.1 17.3c0 .4-.4.8-.8.8-.8 0-1.5.2-2.1.6-.7.5-1.3 1.3-1.5 2.1-.1.4-.4.6-.8.6h-.2c-.4-.1-.7-.5-.6-1 .3-1.2 1.1-2.3 2.2-3 .9-.6 1.9-.9 3-.9.4 0 .8.4.8.8zm-6.9 3.1c0 .2 0 .4-.1.6s-.3.3-.5.3c-.1.1-.2.1-.2.1-.4 0-.7-.3-.8-.7-.2-1.5-1-2.8-2.1-3.8s-2.6-1.5-4.1-1.5c-.4 0-.8-.4-.8-.8s.4-.8.8-.8c1.9 0 3.7.7 5.1 1.9s2.4 2.9 2.7 4.7zm17.1 13.9H9.8c-.4 0-.8-.3-.8-.8s.3-.8.8-.8h29.5c.4 0 .8.3.8.8s-.3.8-.8.8zm-8.4 6.8h-21c-.4 0-.8-.3-.8-.8 0-.4.3-.8.8-.8h21.2c-.3.3-.3.6-.3.8 0 .3-.1.5.1.8zm9.2-.8c0 .4-.3.8-.8.8h-4.9c.1-.2.1-.4.1-.7 0-.3-.1-.6-.1-.8v-.1h4.9c.5.1.8.4.8.8z" class="st2"/><circle cx="25" cy="33.5" r="1.7" class="st0"/><path d="M25 35.7c-1.2 0-2.2-1-2.2-2.2s1-2.2 2.2-2.2 2.2 1 2.2 2.2c.1 1.2-.9 2.2-2.2 2.2zm0-3.4c-.7 0-1.2.5-1.2 1.2s.5 1.2 1.2 1.2 1.2-.5 1.2-1.2c.1-.7-.5-1.2-1.2-1.2z" class="st2"/><circle cx="18.6" cy="40.3" r="1.7" class="st0"/><path d="M18.6 42.6c-1.2 0-2.2-1-2.2-2.2s1-2.2 2.2-2.2 2.2 1 2.2 2.2c0 1.2-1 2.2-2.2 2.2zm0-3.5c-.7 0-1.2.5-1.2 1.2s.5 1.2 1.2 1.2 1.2-.5 1.2-1.2c0-.6-.6-1.2-1.2-1.2zm12.2 1.2c0-.2 0-.5.3-.8h-.9v.1c-.1.2-.1.5-.1.8 0 .3 0 .4.1.7h.7c-.2-.3-.1-.5-.1-.8z" class="st2"/><path d="M34.4 39.6s0-.1 0 0c-.4-.9-1.1-1.5-2.1-1.5s-1.7.6-2.1 1.4h.9c-.3.3-.3.6-.3.8 0 .3-.1.5.1.8h-.7v.1c.3.9 1.1 1.5 2.1 1.5s1.8-.6 2.1-1.5v-.1c.1-.2.1-.4.1-.7 0-.3-.1-.6-.1-.8zm-2.2 2.2c-.8 0-1.4-.6-1.4-1.4s.6-1.4 1.4-1.4 1.4.6 1.4 1.4-.6 1.4-1.4 1.4z" class="st2"/></svg>