<svg xmlns="http://www.w3.org/2000/svg" id="Layer_1" x="0" y="0" version="1.1" viewBox="0 0 50 50" xml:space="preserve"><style>.st2{fill:#031326}</style><path fill="#00c8e2" d="M47.7 24.6c0-2.6-.5-5.2-1.3-7.5L13.8 5.2C7.2 9.1 2.7 16.3 2.7 24.6c0 .8 0 1.7.1 2.5l37.9 13.8c4.4-4.1 7-9.9 7-16.3z"/><path fill="#00dffc" d="M25.5 2.1c-4.3 0-8.3 1.2-11.7 3.2l33.4 12.1C44 8.5 35.5 2.1 25.5 2.1z"/><path d="M25.2 49.2H24c-6.3-.3-12.2-3.1-16.4-7.8S1.2 30.6 1.5 24.3c.2-4 1.4-7.9 3.5-11.2.4-.6 1.1-.8 1.7-.4.6.4.8 1.1.4 1.7-1.9 3-2.9 6.5-3.1 10.1-.3 5.5 1.6 10.9 5.4 15.1s9 6.7 14.7 7c11.7.6 21.7-8.4 22.3-20.1.7-11.7-8.4-21.7-20.1-22.3-3.7-.2-7.4.6-10.7 2.3-.6.3-1.4.1-1.7-.5s-.1-1.4.5-1.7c3.7-1.9 7.8-2.8 12-2.6 13.1.7 23.2 11.9 22.5 24.9-.6 12.7-11.1 22.6-23.7 22.6z" class="st2"/><path d="M25.2 44.8h-1.4c-5.2-.4-9.9-2.7-13.2-6.6-3.4-3.9-5-8.9-4.7-14.1.2-3.2 1.3-6.4 3-9.1.1-.2.5-.3.7-.1.2.1.3.5.1.7C8.1 18 7.1 21 6.9 24.1c-.3 4.9 1.2 9.6 4.4 13.3s7.7 5.9 12.6 6.3c10.1.7 18.9-6.9 19.6-17 .7-10.1-6.9-18.9-17-19.6-3.2-.2-6.4.4-9.3 1.8-.2.1-.5 0-.7-.2-.1-.2 0-.5.2-.7 3-1.5 6.4-2.1 9.8-1.9 10.6.8 18.7 10 17.9 20.7-.6 10.2-9.1 18-19.2 18z" class="st2"/><path d="M38.6 28.3c-1-1.5-2.2-2.2-3.7-2.1-.1 0-.2-.1-.3-.1-.7-.7-1.4-1.3-2.1-2l-.8-.7-.4-.4c-.2-.1-.3-.3-.5-.4l-.3-.3c-.2-.1-.3-.2-.4-.4l-.4-.6v-.1c-.3-1.1-.8-2.2-1.7-3.3-1.5-1.9-3.4-3.6-5.7-4.9s-4.7-2.8-7.1-4.3l-.6-.4c-3.1-1.9-6.4-3.9-9.5-6-.5-.1-.9-.3-1.4-.3-.6-.1-1.2.1-1.7.5-.4.5-.6 1.2-.5 1.8.1.7.5 1.1.9 1.5 1.9 1.9 4.1 4.1 6.3 6.4 1.4 1.4 2.7 2.9 4.1 4.3.5.5 1 1.1 1.5 1.7.8.8 1.6 1.7 2.4 2.5.2.2.4.3.5.5.3.3.6.6 1 .9.7.6 1.4 1.1 2.1 1.6.7.4 1.6 1 2.6 1.4.6.3 1.1.4 1.6.6.4.1.8.2 1.2.2.1.3.4.5.7.7l.1.1.2.1c.2.1.3.2.5.4l.3.2c1.2.9 2.2 1.7 3.3 2.3l.2.1c.2.1.4.3.6.4 0 .3 0 .6.1.9.1.6.4 1.1.6 1.6-1.4 2.8-4.9 4.7-8.9 4.6-3.1-.1-5.8-1.4-7.4-3.3-.1.3-.2.7-.3 1-.4 3.3 3.7 6.4 9.1 7 4.4.5 8.3-.8 9.9-3.1.1 0 .2.1.3.1s.3 0 .5-.1l.1-.1c.1-.1.2-.1.3-.2 1.6-1.1 2.6-2.4 3.2-3.9.9-2.4.8-4.5-.5-6.4zm-13-4.1c-.3 0-.5-.1-.8-.1-.4-.1-.9-.3-1.4-.5-.9-.4-1.7-.9-2.3-1.3-.6-.4-1.2-.9-1.9-1.5-.3-.3-.6-.6-.9-.8-.2-.2-.4-.4-.6-.5-.8-.8-1.6-1.6-2.3-2.4-.5-.6-1-1.1-1.6-1.7-1.4-1.4-2.7-2.8-4.1-4.2-2.1-2.4-4.4-4.7-6.2-6.5-.3-.3-.5-.5-.5-.8 0-.2.1-.3.1-.4 0 0 .2-.2.4-.1.2 0 .5.1.7.3l9.6 6 .6.4c2.4 1.5 4.9 2.9 7.2 4.3 2.1 1.2 3.9 2.8 5.3 4.5.7.9 1.1 1.7 1.4 2.5-1.2.4-2.3 1.6-2.7 2.8zm6.2 4.2l-.2-.2c-1-.7-2.1-1.4-3.2-2.3l-.4-.1c-.2-.1-.4-.3-.5-.4s-.2-.2-.4-.2H27v-.4c.2-.7 1-1.7 1.6-1.8h.2c.1.1.2.2.3.2.2.2.3.3.5.4.1.1.2.1.2.2.2.2.4.3.5.5.1.1.3.2.4.3l.8.7c.6.5 1.1 1.1 1.7 1.6-.6.4-1.1.9-1.4 1.5 0 .1 0 .1 0 0zm5.9 5.6c-.4.9-.9 1.7-1.7 2.4 0-.6-.2-1.2-.6-1.7-.3-.5-.6-1-1-1.4-.1-.2-.3-.4-.4-.6-.4-.6-.8-1.2-1-2v-1.2c.2-.9.8-1.5 1.8-1.8 1.1-.1 1.9.3 2.6 1.4.9 1.5 1 3.1.3 4.9z" class="st2"/></svg>