<svg xmlns="http://www.w3.org/2000/svg" id="Camada_1" x="0" y="0" version="1.1" viewBox="0 0 50 50" xml:space="preserve"><style>.st2{fill:#031326}</style><path fill="#00c8e2" d="M47.4 22.8l.1 4.3L1.7 43.5l-.5-12.7v-4L47.4 10z"/><path fill="#00dffc" d="M47.9 7.4v3.5L1.8 27.8l.2-7.3v-3.9L47.9 1.8z"/><path d="M48.1 49.4h-16c-.7 0-1.2-.6-1.2-1.2s.6-1.2 1.2-1.2h14.7V3.7H3.3V47h3.1c.7 0 1.2.6 1.2 1.2s-.6 1.2-1.3 1.2H2c-.7 0-1.2-.6-1.2-1.2V2.4c0-.7.6-1.2 1.2-1.2h46.1c.7 0 1.2.6 1.2 1.2v45.8c0 .7-.5 1.2-1.2 1.2z" class="st2"/><path d="M39.5 23.5h-3.2c-.2-2.6-1.2-5-2.9-6.9l2.3-2.3c.3-.3.3-.8 0-1.1-.3-.3-.8-.3-1.1 0l-2.3 2.3c-1.9-1.6-4.3-2.7-6.9-2.9V9.4c0-.4-.3-.8-.8-.8-.4 0-.8.3-.8.8v3.2c-2.7.2-5.1 1.2-7 2.9l-2.3-2.3c-.3-.3-.8-.3-1.1 0-.3.3-.3.8 0 1.1l2.3 2.3c-1.6 1.9-2.7 4.3-2.9 6.9h-3c-.4 0-.8.3-.8.8 0 .4.3.8.8.8H20c.3 2 1.9 3.6 3.9 3.9v10.2c0 .4.3.8.8.8.4 0 .8-.3.8-.8V36c2.7-.2 5.1-1.2 6.9-2.9l2.3 2.3c.1.1.3.2.5.2s.4-.1.5-.2c.3-.3.3-.8 0-1.1L33.4 32c1.7-1.9 2.7-4.3 2.9-6.9h3.2c.4 0 .8-.3.8-.8 0-.4-.4-.8-.8-.8zm-14.1-9.3c2.2.2 4.3 1 5.9 2.4l-3.9 3.9c-.6-.4-1.3-.7-2-.8v-5.5zM20 23.5h-5.5c.1-2.3 1-4.3 2.4-5.9l3.9 3.9c-.4.6-.6 1.3-.8 2zm-2-6.9c1.6-1.4 3.6-2.3 5.9-2.4v5.5c-.7.1-1.4.4-2 .8L18 16.6zm6.7 10.9c-1.8 0-3.2-1.4-3.2-3.2 0-.9.4-1.7.9-2.3.6-.6 1.4-.9 2.3-.9s1.7.4 2.3.9c.6.6.9 1.4.9 2.3 0 .9-.4 1.7-.9 2.3s-1.4.9-2.3.9zm.7 6.9v-5.5c.7-.1 1.4-.4 2-.8l3.9 3.9c-1.6 1.3-3.6 2.2-5.9 2.4zm7-3.5L28.5 27c.4-.6.7-1.3.8-2h5.5c-.2 2.3-1.1 4.3-2.4 5.9zm-3.1-7.4c-.1-.7-.4-1.4-.8-2l3.9-3.9c1.4 1.6 2.3 3.6 2.4 5.9h-5.5zm-7.4 3.6zm-7.7 7.7z" class="st2"/><path d="M16.6 31.4h4.6V36h-4.6zm-3 4.6h3v3h-3zm-2.4-2.5h2.5V36h-2.5z" class="st2"/></svg>