<svg xmlns="http://www.w3.org/2000/svg" id="Layer_1" x="0" y="0" version="1.1" viewBox="0 0 50 50" xml:space="preserve"><style>.st2{fill:#031326}</style><path fill="#ce87ea" d="M3.4 32.7h.4l2.8-.6c1.4 4.4 4.4 8.1 8.2 10.5l28.6-10.4v-.1h.2l4.7-1.7c-.2-.6-.7-1-1.3-1.2l-2.8-.6c.1-.8.2-1.6.2-2.5 0-3.9-1.2-7.6-3.2-10.7l2.2-1.8c.8-.6.9-1.8.3-2.5-.6-.8-1.8-.9-2.5-.3L39 12.6c-3.1-3.2-7.4-5.4-12.1-5.8V4c0-1-.8-1.8-1.8-1.8S23.3 3 23.3 4v2.9c-4.7.4-9 2.6-12.1 5.8L9 10.9c-.8-.6-1.9-.5-2.5.3-.6.8-.5 1.9.3 2.5L9 15.5c-2 3.1-3.2 6.7-3.2 10.7 0 .8.1 1.7.2 2.5l-3 .5c-1 .2-1.6 1.2-1.4 2.1.2.9 1 1.4 1.8 1.4z"/><path fill="#e097fb" d="M6.6 13.8l2.2 1.8c-.6.9-1.1 1.9-1.6 3L33.6 9c-2.1-1-4.4-1.7-6.8-2V4.1c0-1-.8-1.8-1.8-1.8s-1.8.8-1.8 1.8V7c-4.7.4-9 2.6-12.1 5.8L8.8 11c-.8-.6-1.9-.5-2.5.3-.6.7-.5 1.9.3 2.5z"/><path d="M49.2 29.3c-.4-.7-1.1-1.2-1.9-1.3l-1.7-.4c0-.5.1-1 .1-1.5 0-3.7-1-7.2-2.8-10.4l1.3-1.1c.6-.5 1-1.2 1.1-2 .1-.8-.1-1.6-.7-2.3-.5-.6-1.2-1-2-1.1-.8-.1-1.6.1-2.3.7L39 11c-3-2.8-6.8-4.6-10.9-5.2V4c0-1.7-1.4-3.1-3.1-3.1-1.7 0-3.1 1.4-3.1 3.1v1.7c-4 .6-7.8 2.4-10.9 5.3L9.7 9.9c-.7-.6-1.5-.8-2.3-.7-.8.1-1.5.5-2 1.1-.5.6-.8 1.4-.7 2.3.1.8.5 1.5 1.1 2l1.3 1.1c-1.8 3.1-2.8 6.7-2.8 10.4 0 .5 0 1 .1 1.5l-1.7.4c-.8.2-1.5.7-1.9 1.3-.4.7-.6 1.5-.4 2.3C.7 33 2 34 3.4 34c.2 0 .4 0 .7-.1l1.7-.4c1.5 3.9 4.1 7.2 7.6 9.6l-.8 1.6c-.7 1.5-.1 3.4 1.4 4.1.4.2.9.3 1.3.3 1.2 0 2.3-.7 2.8-1.7l.8-1.6c2 .6 4 .9 6.1.9 2.1 0 4.1-.3 6.1-.9l.8 1.6c.7 1.5 2.5 2.2 4.1 1.4 1.5-.7 2.2-2.6 1.4-4.1l-1.2-2.6c-.3-.6-1.1-.9-1.7-.6-.6.3-.9 1.1-.6 1.7l1.2 2.6c.1.3 0 .6-.2.7-.2.1-.6.1-.7-.2l-8.4-17.4h-1.4L16 46.3c-.2.3-.5.3-.7.3-.3-.1-.4-.5-.3-.7l8.4-17.5-.9-1.1-18.9 4.2c-.3.1-.6-.1-.7-.4 0-.2 0-.3.1-.4 0-.1.1-.2.3-.2l18.8-4.3.3-1.4-15-12.1c-.1-.1-.2-.3-.2-.3 0-.1 0-.2.1-.4.1-.1.3-.2.3-.2.1 0 .2 0 .4.1l15.1 12 1.3-.6V4c0-.3.2-.5.5-.5s.5.2.5.5v19.2l1.3.6 15.1-12c.2-.1.3-.1.4-.1.1 0 .2 0 .3.2.1.2.1.3.1.4 0 .1 0 .2-.2.3L27.5 24.7l.3 1.4 18.8 4.3c.2 0 .3.2.3.2 0 .1.1.2.1.4-.1.2-.2.4-.5.4-.4-.1-1.8-.4-3-.6-.7-.2-1.4.3-1.5 1-.2.7.3 1.4 1 1.5 3.2.7 3.3.7 3.5.7 1.4 0 2.7-1 3-2.4.3-.8.1-1.6-.3-2.3zM25 44.2c-2.2 0-4.3-.4-6.3-1.1l1.2-2.6.9.3c1.3.4 2.7.6 4.2.6 1.8 0 3.5-.3 5.1-.9l1.2 2.6c-2 .7-4.1 1.1-6.3 1.1zm-.1-14.3h.2l4.6 9.7c-2.7.9-5.8 1-8.6.3-.3-.1-.5-.2-.8-.3l4.6-9.7zM7.8 31.7l2.7-.6c1.1 3.3 3.4 6.1 6.3 8l-1.3 2.5c-3.6-2.3-6.4-5.8-7.7-9.9zM22 28.5l-4.7 9.6c-2.7-1.7-4.7-4.3-5.8-7.3l10.4-2.4c.1 0 .1.1.1.1zm-.8-3.2l-10.4 2.3c-.1-.5-.1-1-.1-1.5 0-2.7.8-5.3 2.2-7.6l8.4 6.6c-.1 0-.1.1-.1.2zM9.9 16.1l2.2 1.7c-1.6 2.5-2.4 5.3-2.4 8.2 0 .6 0 1.2.1 1.7l-2.7.6C7 27.5 7 26.8 7 26c-.1-3.5.9-6.9 2.9-9.9zm13.4-8v2.8c-3.5.4-6.7 1.9-9.2 4.3L12 13.5c3-3.1 7-5 11.3-5.4zm-.1 14.5l-8.3-6.7c2.3-2.2 5.3-3.5 8.4-4l-.1 10.7c.1 0 .1 0 0 0zM38 13.5l-2.1 1.7c-2.4-2.4-5.6-4-8.9-4.4h-.2V8.1c4.2.4 8.2 2.3 11.2 5.4zm-11.3 9.1V11.9h.1c3.1.4 6 1.8 8.3 4l-8.4 6.7zm13.4-6.5c2 2.9 3 6.4 3 10 0 .7 0 1.5-.1 2.3l-2.7-.6c.1-.6.1-1.1.1-1.7 0-2.9-.8-5.8-2.4-8.2l2.1-1.8zm-11.4 9l8.4-6.6c1.4 2.3 2.2 4.9 2.2 7.6 0 .5 0 1-.1 1.5l-10.4-2.3c0-.1-.1-.2-.1-.2z" class="st2"/><path d="M28.1 27.3l-.4-.2-.9 1.2 5.5 11.3.5-.3c3.4-2 5.8-5.1 7-8.8v-.7l-.4-.1c-3.9-.8-11.2-2.3-11.3-2.4zm4.6 10.8L28 28.5c0-.1.1-.1.1-.2.8.2 3.2.7 10.5 2.3-1.1 3.1-3.2 5.8-5.9 7.5z" class="st2"/></svg>