<svg xmlns="http://www.w3.org/2000/svg" version="1.0" viewBox="0 0 50 50"><path fill="#71BAC0" d="M3.405 32.749c.128 0 .264-.016.392-.04l2.792-.64a19.377 19.377 0 008.233 10.494L43.38 32.168c.011-.035.027-.068.038-.102l.151.034 4.729-1.721a1.789 1.789 0 00-1.312-1.184l-2.784-.632c.104-.808.16-1.632.16-2.464a19.17 19.17 0 00-3.209-10.663l2.233-1.783a1.794 1.794 0 00.272-2.528 1.794 1.794 0 00-2.528-.272l-2.224 1.792a19.288 19.288 0 00-12.103-5.816V3.973c0-.992-.808-1.8-1.8-1.8s-1.8.808-1.8 1.8l-.001 2.856a19.29 19.29 0 00-12.103 5.816l-2.224-1.792a1.793 1.793 0 00-2.527.273 1.794 1.794 0 00.272 2.528l2.232 1.784a19.182 19.182 0 00-3.207 10.664c0 .832.056 1.656.16 2.464l-2.792.632a1.794 1.794 0 00-1.368 2.144 1.81 1.81 0 001.76 1.407z"/><path fill="#7ED0D6" d="M6.556 13.775l2.232 1.784a19.214 19.214 0 00-1.598 2.957L33.58 8.91a19.226 19.226 0 00-6.841-1.96V4.094c0-.992-.808-1.8-1.8-1.8s-1.8.808-1.8 1.8V6.95a19.29 19.29 0 00-12.103 5.816l-2.224-1.792a1.794 1.794 0 00-2.528.272 1.795 1.795 0 00.272 2.529z"/><g fill="#031326"><path d="M49.188 29.304a3.04 3.04 0 00-1.921-1.346l-1.691-.384a20.467 20.467 0 00-2.749-11.851l1.347-1.076a3.028 3.028 0 001.132-2.049 3.048 3.048 0 00-.656-2.26 3.024 3.024 0 00-2.048-1.132 3.04 3.04 0 00-2.269.661l-1.347 1.085A20.613 20.613 0 0028.07 5.707V3.973A3.07 3.07 0 0025.003.905a3.07 3.07 0 00-3.068 3.067l-.001 1.734a20.618 20.618 0 00-10.916 5.246L9.67 9.865a3.05 3.05 0 00-2.268-.659 3.02 3.02 0 00-2.043 1.126 3.057 3.057 0 00-.66 2.268c.091.813.493 1.54 1.129 2.044l1.35 1.079A20.482 20.482 0 004.43 27.576l-1.692.382a3.054 3.054 0 00-1.927 1.347 3.047 3.047 0 00-.403 2.317 3.06 3.06 0 002.997 2.394c.204 0 .421-.023.676-.071l1.691-.388a20.64 20.64 0 007.586 9.574l-.759 1.561c-.731 1.515-.092 3.353 1.441 4.106a3.09 3.09 0 001.326.297 3.099 3.099 0 002.767-1.735l.75-1.56c1.968.615 4.019.926 6.113.926h.009c2.088 0 4.138-.31 6.114-.921l.753 1.56c.712 1.461 2.536 2.16 4.108 1.423a3.087 3.087 0 001.421-4.1l-1.247-2.568a1.267 1.267 0 10-2.281 1.107l1.245 2.565a.53.53 0 01-.234.707c-.233.111-.564.099-.729-.243l-8.441-17.428h-1.427L15.85 46.254c-.17.35-.535.339-.709.258a.536.536 0 01-.258-.715l8.374-17.468-.883-1.114-18.809 4.248c-.307.052-.616-.105-.682-.398a.517.517 0 01.069-.396.538.538 0 01.341-.235l18.821-4.332.342-1.372L7.408 12.66a.506.506 0 01-.188-.342.544.544 0 01.121-.403.508.508 0 01.343-.189.53.53 0 01.396.115l15.084 12.004 1.308-.632V3.973a.532.532 0 111.063 0v19.225l1.297.639 15.093-11.995a.523.523 0 01.746.079.529.529 0 01-.076.742l-15.06 12.07.345 1.37 18.833 4.331a.527.527 0 01.406.623.54.54 0 01-.452.417 181.57 181.57 0 01-2.971-.644 1.264 1.264 0 00-1.514.961 1.267 1.267 0 00.961 1.514c3.184.71 3.285.71 3.452.71a3.062 3.062 0 002.998-2.4 3.05 3.05 0 00-.405-2.311zM25.004 44.19h-.008c-2.177 0-4.299-.383-6.306-1.138l1.21-2.561c.311.111.621.227.941.314a15.19 15.19 0 004.164.575c1.768 0 3.481-.307 5.108-.884l1.212 2.56a18.079 18.079 0 01-6.321 1.134zm-.103-14.287c.066.002.133.002.198 0l4.578 9.671c-2.727.942-5.792 1.043-8.563.253-.267-.073-.52-.17-.778-.26l4.565-9.664zM7.797 31.68l2.724-.64a15.29 15.29 0 006.338 7.976l-1.255 2.546a18.1 18.1 0 01-7.807-9.882zm14.236-3.165L17.31 38.1a14.283 14.283 0 01-5.796-7.293l10.4-2.443c.039.052.078.103.119.151zm-.816-3.255l-10.433 2.297a13.95 13.95 0 01-.087-1.498c0-2.703.759-5.306 2.183-7.573l8.38 6.594c-.016.058-.03.118-.043.18zM9.904 16.145l2.174 1.711a15.197 15.197 0 00-2.396 8.204c0 .592.042 1.163.106 1.717l-2.728.6a17.975 17.975 0 012.844-12.232zm13.395-8.05l.004 2.78a16.187 16.187 0 00-9.212 4.33l-2.077-1.68a18.066 18.066 0 0111.285-5.43zm-.069 14.499l-8.343-6.746a15.175 15.175 0 018.417-3.951l.014 10.646-.088.051zm14.743-9.089l-2.143 1.736c-2.413-2.411-5.557-3.967-8.916-4.378-.067-.01-.137-.013-.206-.021l.004-2.747a18.083 18.083 0 0111.261 5.41zm-11.229 9.096l-.053-.025.015-10.717c.027.003.05.004.077.008 3.106.381 6.01 1.808 8.253 4.016l-8.292 6.718zm13.354-6.463a17.924 17.924 0 012.996 9.961c0 .747-.05 1.509-.146 2.265l-2.735-.599c.065-.58.107-1.146.107-1.706 0-2.946-.836-5.775-2.404-8.221l2.174-1.714.008.014zm-11.366 8.941l8.383-6.61a14.17 14.17 0 012.19 7.59c0 .488-.035.982-.088 1.488l-10.44-2.287c-.015-.062-.029-.122-.045-.181z"/><path d="M28.054 27.324l-.408-.172-.911 1.17 5.495 11.257.472-.275a15.292 15.292 0 006.957-8.762l.022-.715-.4-.086a51446.26 51446.26 0 01-11.227-2.417zm4.603 10.819L27.96 28.52c.044-.052.086-.105.126-.159.805.179 3.2.697 10.479 2.263a14.268 14.268 0 01-5.908 7.519z"/></g></svg>