<svg xmlns="http://www.w3.org/2000/svg" id="Layer_1" x="0" y="0" version="1.1" viewBox="0 0 50 50" xml:space="preserve"><style>.st3{fill:#424242}.st4{fill:none;stroke:#444;stroke-width:1.5;stroke-linecap:round;stroke-linejoin:round;stroke-miterlimit:10}</style><path fill="#e589ef" d="M44.8 14.8l.7 4.6L4.7 34.3l-.5-9.7v-5.5L39.8 6.2l4.6 2z"/><path fill="#f799ff" d="M43.4 6.3l2 2.8L3.9 23.9l1-15.1 2.7-2.6 25.7-.1z"/><path fill="none" stroke="#444" stroke-linecap="round" stroke-linejoin="round" stroke-miterlimit="10" stroke-width="2.5" d="M17.2 41.2h-10c-1.5 0-2.7-1.2-2.7-2.7V9c0-1.5 1.2-2.7 2.7-2.7H42c1.5 0 2.7 1.2 2.7 2.7v18.6m0-10.5H4.5"/><circle cx="10.6" cy="11.8" r="1.4" class="st3"/><circle cx="15.1" cy="11.8" r="1.4" class="st3"/><circle cx="19.5" cy="11.8" r="1.4" class="st3"/><path d="M30.7 39.7l2.1 5.2c.3.9-.1 1.8-.9 2.2-.9.3-1.9-.1-2.2-1l-2.6-6.5" class="st4"/><path d="M31.7 32.1h-4.4c-2.1 0-3.8 1.7-3.8 3.8 0 2.1 1.7 3.8 3.8 3.8h4.4l6.9 3.1V29l-6.9 3.1zm7.5 1.9c1.1 0 1.9.8 1.9 1.9 0 1-.9 1.9-1.9 1.9" class="st4"/><path fill="#444" d="M44.6 33.1l1-.4c.5-.2.7-.7.5-1.2-.2-.5-.7-.7-1.2-.5l-1 .4c-.5.2-.7.7-.5 1.2.2.5.7.7 1.2.5zm.9 6l-1-.4c-.5-.2-1 0-1.2.5-.2.5 0 1 .5 1.2l1 .4c.5.2 1 0 1.2-.5.2-.5 0-1-.5-1.2zm-.3-4.1h-1c-.5 0-.9.4-.9.9s.4.9.9.9h1c.5 0 .9-.4.9-.9s-.4-.9-.9-.9z"/></svg>