<svg xmlns="http://www.w3.org/2000/svg" id="Camada_3" x="0" y="0" version="1.1" viewBox="0 0 50 50" xml:space="preserve"><style>.st2,.st3{fill:none;stroke:#444;stroke-linecap:round;stroke-linejoin:round;stroke-miterlimit:10}.st3{stroke-width:.5}</style><path fill="#00dffc" d="M44.87 12.7l-5.6-3.6-7.7-4.4-6-2.8c-3.2 0-21.5 8.9-21.5 12.1l-.5 7.8.5 15.1 11.5 7.6 31-11c.9-.5-.7-18.8-1.7-20.8z"/><path fill="none" stroke="#444" stroke-linecap="round" stroke-linejoin="round" stroke-miterlimit="10" stroke-width="2.5" d="M30.15 46.6l-2.2 1.3c-1.7 1-3.8 1-5.5 0l-15.6-9c-1.7-1-2.7-2.8-2.7-4.7v-18c0-2 1-3.8 2.7-4.7l15.6-9c1.7-1 3.8-1 5.5 0l15.6 9c1.7 1 2.7 2.8 2.7 4.7v18c0 2-1 3.8-2.7 4.7l-2.5 1.4"/><path d="M12.6 18.08s3.73-7.17 12.28-7.17 12.91 7.37 12.91 7.37-3.85-.21-6.13 2.19c0 0-7.36-3.41-12.99 0 .01 0-2.55-2.38-6.07-2.39zm21.65 21.41h-18.1c-.59 0-1.06-.48-1.06-1.06v-10.2c0-.59.48-1.06 1.06-1.06h18.1c.59 0 1.06.48 1.06 1.06v10.19c0 .59-.47 1.07-1.06 1.07zm-19.16-9.38h20" class="st2"/><circle cx="16.58" cy="28.67" r=".48" class="st3"/><circle cx="18.22" cy="28.67" r=".48" class="st3"/><circle cx="19.86" cy="28.67" r=".48" class="st3"/><path d="M19.04 36.1l12.37-3.62m-5.87 5.14l5.14-1.64" class="st3"/><path d="M18.68 20.47l6.23 6.25M12.6 18.08l12.31 8.64m6.76-6.25l-6.44 6.5m12.57-8.69l-12.57 8.69" class="st2"/><path d="M18.86 18.45s2.33-4.86 5.36-6.37m6.83 6.44s-2.33-4.86-5.36-6.37" class="st3"/></svg>