<svg xmlns="http://www.w3.org/2000/svg" viewBox="0 0 50 50"><path fill="#46b8b0" d="M49.2 20.3c-.2-.9-1-1.5-1.9-1.5H36.1c-1.1 0-2 .9-2 2v5l15.1-5.5zM3.5 32.9h11l1.2-.4v-28c0-1.1-.9-2-2-2H3.5c-1.1 0-2 .9-2 2v26.4c0 1.1.9 2 2 2z"/><path fill="#4ecdc4" d="M15.7 17.6V4.5c0-1.1-.9-2-2-2H3.5c-1.1 0-2 .9-2 2v18.2l14.2-5.1z"/><path fill="#031326" d="M47.3 17.6H36.1c-1.7 0-3.1 1.4-3.1 3.1v11H16.8V4.5c0-1.7-1.4-3.1-3.1-3.1H3.5C1.8 1.4.4 2.8.4 4.5v26.4c0 1.7 1.4 3.1 3.1 3.1h10.8v11.5c0 1.4 1.1 2.6 2.6 2.6h7.8c.6 0 1.1-.5 1.1-1.1 0-.6-.5-1.1-1.1-1.1h-7.8c-.2 0-.4-.2-.4-.4V34h16.4v5.9c0 .6.5 1.1 1.1 1.1.6 0 1.1-.5 1.1-1.1V34h12.1c1.7 0 3.1-1.4 3.1-3.1V20.7c.1-1.7-1.2-3-2.9-3.1h-.1zM3.5 31.8c-.4 0-.8-.3-.8-.8V4.5c0-.4.3-.8.8-.8h10.2c.4 0 .8.3.8.8v27.3h-11zm44.6-.9c0 .4-.3.8-.8.8H35.2v-11c0-.4.3-.8.8-.8h11.2c.4 0 .8.3.8.8l.1 10.2z"/></svg>