<svg xmlns="http://www.w3.org/2000/svg" version="1" viewBox="0 0 50 50"><path fill="#87D69B" d="M48.81 20.477a1.965 1.965 0 00-1.906-1.502H35.657a1.97 1.97 0 00-1.97 1.97v5.037l15.124-5.505zM3.097 33.115H14.09l1.177-.43V4.716a1.97 1.97 0 00-1.97-1.97h-10.2a1.97 1.97 0 00-1.97 1.97v26.43c0 1.09.882 1.97 1.97 1.97z"/><path fill="#ABE2B9" d="M15.267 17.802V4.714a1.97 1.97 0 00-1.97-1.97h-10.2a1.97 1.97 0 00-1.97 1.97v18.234l14.14-5.146z"/><path fill="#031326" d="M46.904 17.848H35.656a3.1 3.1 0 00-3.096 3.096v11.043H16.395V4.714a3.1 3.1 0 00-3.097-3.097h-10.2A3.1 3.1 0 000 4.714v26.433a3.1 3.1 0 003.097 3.096H13.92v11.503a2.64 2.64 0 002.637 2.637h7.81a1.127 1.127 0 000-2.254h-7.81a.383.383 0 01-.382-.383V34.243H32.56v5.943a1.127 1.127 0 002.254 0v-5.943h12.09a3.1 3.1 0 003.095-3.096V20.945a3.1 3.1 0 00-3.096-3.097zM3.097 31.988a.842.842 0 01-.842-.84V4.713c0-.464.378-.842.842-.842h10.2c.465 0 .843.377.843.842v27.274H3.097zm44.648-.84c0 .463-.377.84-.84.84h-12.09V20.945a.84.84 0 01.84-.84h11.248a.84.84 0 01.84.84v10.202z"/></svg>