<svg xmlns="http://www.w3.org/2000/svg" viewBox="0 0 50 50"><path fill="#e589ef" d="M48.8 20.5c-.2-.9-1-1.5-1.9-1.5H35.7c-1.1 0-2 .9-2 2v5l15.1-5.5zM3.1 33.1h11l1.2-.4v-28c0-1.1-.9-2-2-2H3.1c-1.1 0-2 .9-2 2v26.4c0 1.1.9 2 2 2z"/><path fill="#f799ff" d="M15.3 17.8V4.7c0-1.1-.9-2-2-2H3.1c-1.1 0-2 .9-2 2v18.2l14.2-5.1z"/><path fill="#031326" d="M46.9 17.8H35.7c-1.7 0-3.1 1.4-3.1 3.1v11H16.4V4.7c0-1.7-1.4-3.1-3.1-3.1H3.1C1.4 1.6 0 3 0 4.7v26.4c0 1.7 1.4 3.1 3.1 3.1h10.8v11.5c0 1.5 1.2 2.6 2.6 2.6h7.8c.6 0 1.1-.5 1.1-1.1s-.5-1.1-1.1-1.1h-7.8c-.2 0-.4-.2-.4-.4V34.2h16.4v5.9c0 .6.5 1.1 1.1 1.1s1.1-.5 1.1-1.1v-5.9h12.1c1.7 0 3.1-1.4 3.1-3.1V20.9c.1-1.7-1.3-3-3-3.1zM3.1 32c-.5 0-.8-.4-.8-.8V4.7c0-.5.4-.8.8-.8h10.2c.5 0 .8.4.8.8V32h-11zm44.6-.9c0 .5-.4.8-.8.8H34.8v-11c0-.5.4-.8.8-.8h11.2c.5 0 .8.4.8.8l.1 10.2z"/></svg>