<svg xmlns="http://www.w3.org/2000/svg" version="1" viewBox="0 0 50 50"><path fill="#AFE55D" d="M5.243 45.103L46.5 30.087V8.803A5.303 5.303 0 0041.197 3.5H8.803A5.303 5.303 0 003.5 8.803v32.394c0 1.553.679 2.936 1.743 3.906z"/><path fill="#C3FF68" d="M44.755 4.895A5.266 5.266 0 0041.197 3.5H8.803A5.303 5.303 0 003.5 8.803V19.91L44.755 4.895z"/><path fill="#031326" d="M41.197 2.25H8.803A6.56 6.56 0 002.25 8.803v32.395a6.56 6.56 0 006.553 6.553H24.78c.69 0 1.25-.56 1.25-1.25V24.552h19.22v5.533a1.25 1.25 0 002.5 0V8.803a6.56 6.56 0 00-6.553-6.553zm-32.394 43a4.057 4.057 0 01-4.053-4.053V8.803A4.057 4.057 0 018.803 4.75h16.726v40.5H8.803zm17.226-21.198V4.75h15.168a4.058 4.058 0 014.053 4.053v15.249H26.029z"/></svg>