<svg xmlns="http://www.w3.org/2000/svg" id="Camada_1" x="0" y="0" version="1.1" viewBox="0 0 50 50" xml:space="preserve"><style>.st3{fill:#031326}</style><path fill="#89b8bd" d="M36.4 25.1v-1.3c-.1-4.5-1.9-8.6-4.8-11.6L7.2 21.1c-.4 1.4-.6 3-.4 4.6.4 4.1 2.9 7.5 6.3 9.3l23.1-8.4c.1-.5.2-1 .2-1.5z"/><path fill="#99ced4" d="M22.2 7.1V4.9L15.8 10l3.1 2.4c-.5 0-1 0-1.4.1-5 .5-8.9 4-10.2 8.6l24.2-8.8c-2.4-2.6-5.6-4.5-9.3-5.2z"/><path fill="none" d="M10.4 18.1c-1.8 2.2-2.6 5-2.3 7.9.5 4.9 4.2 8.7 8.9 9.5h1.9c1.1 0 2-.1 3-.4 4.3-1.3 7.4-5.1 7.6-9.6v-1.2c-.2-3.8-2.5-7.2-5.9-8.9v2.8l-5.1-4h-.9c-2.8.2-5.4 1.6-7.2 3.9z"/><path d="M19.8 11.9zm29 27.7L39 31.9v3.5h-4.5c.1-.1.2-.2.3-.4.4-.6.2-1.4-.4-1.7-.6-.4-1.4-.2-1.7.4-2.9 4.4-7.7 7.2-12.9 7.5h-11l2-1.5L8.6 38h10.3c.4 0 .8 0 1.2-.1.8-.1 1.6-.2 2.4-.4 5.3-1.6 9.1-6.3 9.4-11.9v-1.3c-.3-5.5-4-10.3-9.3-11.9l-1.6-.5V13l-1.2-1-.1-.1-1.9-1.5L21 7.8v.7l1 .2c7.5 1.4 12.9 7.8 13.1 15.5v1.2c0 .7-.1 1.3-.2 2s.4 1.3 1 1.4c.7.1 1.3-.4 1.4-1 .1-.7.2-1.5.2-2.3v-1.3c-.3-8.6-6-15.7-14.1-17.7V2.7l-9.8 7.7 2 1.6c-2.9.7-5.4 2.2-7.3 4.6-2.2 2.8-3.2 6.2-2.8 9.7.5 3.7 2.5 7 5.3 9.1H1.4l5.3 4.2-5.5 4.1H39v3.6l9.8-7.7zM8.1 26c-.3-2.9.5-5.7 2.3-7.9 1.8-2.2 4.4-3.6 7.2-3.9h.9l5.1 4v-2.8c3.4 1.7 5.7 5.1 5.9 8.9v1.2c-.2 4.5-3.3 8.3-7.6 9.6-.9.3-1.9.4-3 .4H17c-4.6-.8-8.4-4.6-8.9-9.5zm21.5 15.2c1-.7 1.9-1.5 2.8-2.4.3-.3.5-.5.7-.8h8.3v-.9l3.2 2.6-3.2 2.6v-1H29.6z" class="st3"/><path d="M22.6 19.8h-7.5c-.6 0-1 .5-1 1v8.9c0 .6.5 1 1 1h7.5c.6 0 1-.5 1-1v-8.9c0-.5-.5-1-1-1zm-5.5 9c0 .3-.2.5-.5.5H16c-.3 0-.5-.2-.5-.5v-.6c0-.3.2-.5.5-.5h.6c.3 0 .5.2.5.5v.6zm0-2.6c0 .3-.2.5-.5.5H16c-.3 0-.5-.2-.5-.5v-.6c0-.3.2-.5.5-.5h.6c.3 0 .5.2.5.5v.6zm2.6 2.6c0 .3-.2.5-.5.5h-.6c-.3 0-.5-.2-.5-.5v-.6c0-.3.2-.5.5-.5h.6c.3 0 .5.2.5.5v.6zm0-2.6c0 .3-.2.5-.5.5h-.6c-.3 0-.5-.2-.5-.5v-.6c0-.3.2-.5.5-.5h.6c.3 0 .5.2.5.5v.6zm2.6 2.5c0 .3-.2.5-.5.5h-.6c-.3 0-.5-.2-.5-.5v-3.1c0-.3.2-.5.5-.5h.6c.3 0 .5.2.5.5v3.1zm0-6.1c0 .4-.4.8-.8.8h-5.2c-.4 0-.8-.4-.8-.8v-.5c0-.4.4-.8.8-.8h5.2c.4 0 .8.4.8.8v.5z" class="st3"/></svg>