<svg xmlns="http://www.w3.org/2000/svg" id="Layer_1" x="0" y="0" version="1.1" viewBox="0 0 50 50" xml:space="preserve"><style>.st2{stroke-width:.5}.st2,.st3{fill:none;stroke:#444;stroke-linecap:round;stroke-linejoin:round;stroke-miterlimit:10}</style><path fill="#dc5e82" d="M47.3 20.2c-.2-.8-2.7-7.5-3.2-8.1l-3-3.5-.2.1L33.3 3l-7.8-.7c-3.2 0-12.8-.7-21.3 11.5l-2.9 7.9.5 2 1.8 11.5c.1.4 4.7 7 5.1 7.2l5.6 3 32.2-11.7c.7-.5 1.8-8.8.8-13.5z"/><path fill="none" stroke="#444" stroke-linecap="round" stroke-linejoin="round" stroke-miterlimit="10" stroke-width="2.5" d="M27.6 47.8C15 49.3 3.5 40.3 1.9 27.7S9.3 3.6 22 2s24.1 7.4 25.7 20.1c.6 5.1-.5 10-2.8 14.1"/><circle cx="24.7" cy="24.8" r="16.8" class="st2"/><circle cx="24.7" cy="24.8" r="9.6" class="st3"/><circle cx="24.7" cy="24.8" r="2.6" class="st2"/><path d="M24.7 19.8V5.5m1.7 12.9l-1.6 2.1-1.8-2.1m6.5 6.4h14.4m-13-1.7l-2 1.6 2 1.8m-11.2-1.7H5.3m13-1.7l2 1.6-2 1.8m6.4 3.5v14.3m1.7-12.9l-1.6-2.1-1.8 2.1" class="st3"/></svg>