<svg xmlns="http://www.w3.org/2000/svg" viewBox="0 0 50 50"><path fill="#00dffc" d="M44.2 9.8H44V8.5l-3.2 1.1c-6.2-.6-11.2-2.8-15.5-7-5.1 4.9-11.1 7.2-19 7.2 0 3.8-.2 8.1 0 12.4v.2c0 .4 0 .8.1 1.2.8 6.8 3 13.7 9.5 18.7L41.5 33c3.2-7.4 2.6-16 2.5-23.1l.2-.1z"/><path fill="#444" d="M25.5 48.9c-.4.1-.7.1-1.1 0-.3-.1-.6-.2-.8-.3C4.2 41.3 4.5 24.9 4.8 12.7V9.1c0-.8.6-1.4 1.4-1.4 1.1 0 2.4-.1 3-.1 5-.5 9.1-2 12.7-4.8.5-.3 1.5-1.3 2.2-2 .5-.4 1.2-.4 1.6 0 .9.8 2.2 1.9 2.8 2.4 3.7 2.7 7.9 4.2 13 4.5.4 0 1.6.1 2.5.1.6 0 1.1.5 1.1 1.1v3.9c.1 7.3.3 15.6-3.4 22.9-.3.6-1.1.9-1.7.5-.6-.3-.9-1.1-.5-1.7 3.4-6.7 3.2-14.7 3.1-21.7v-1.3c0-.7-.6-1.3-1.3-1.3-6.1-.4-11.1-2.2-15.4-5.9-.5-.4-1.2-.4-1.8 0-4.3 3.6-9.4 5.5-15.5 5.9-.7 0-1.3.6-1.3 1.3v1.3C7 24.7 6.8 39.6 24.5 46.2c.3.1.7.1 1 0 3.1-1.2 5.8-2.6 8-4.3.5-.4 1.3-.3 1.8.2s.3 1.3-.2 1.8c-2.4 1.9-5.5 3.5-8.9 4.7-.1.1-.4.2-.7.3z"/><path fill="none" stroke="#444" stroke-miterlimit="10" stroke-width=".5" d="M30.8 22.6H30v-1.4c0-2.8-2.2-5-5-5s-5 2.2-5 5v1.4h-1.1c-.2 0-.4.2-.4.4v8.9c0 .8.6 1.4 1.4 1.4h10c.8 0 1.4-.6 1.4-1.4v-8.5c0-.6-.2-.8-.5-.8zM26.1 30c0 .1 0 .2-.1.3-.1.1-.2.1-.3.1h-1.4c-.1 0-.2 0-.3-.1s-.1-.2-.1-.3l.2-2c-.4-.3-.6-.7-.6-1.1 0-.8.6-1.4 1.4-1.4s1.4.6 1.4 1.4c0 .5-.2.9-.6 1.1l.4 2zm1.8-7.4h-5.7v-1.4c0-1.6 1.3-2.9 2.9-2.9s2.9 1.3 2.9 2.9v1.4h-.1z"/><path fill="none" stroke="#444" stroke-miterlimit="10" d="M15.2 37l-.1-.1c-3.2-3.2-4.9-7.7-4.9-12.2V13.5c0-.5.4-.9.9-1 2.4-.2 9.2-1.1 13.3-5.2.4-.4.9-.4 1.3 0 1.6 1.4 6 4.7 13.3 5.2.5 0 .9.4.9 1v11.1c0 4.6-1.7 9-4.9 12.2l-.1.1c-3 3-6.8 4.8-8.7 5.6-.8.3-1.6.3-2.3 0-2-.8-5.7-2.6-8.7-5.5z"/></svg>