<svg xmlns="http://www.w3.org/2000/svg" id="Camada_1" x="0" y="0" version="1.1" viewBox="0 0 50 50" xml:space="preserve"><style>.st3{fill:none;stroke:#444;stroke-width:.5;stroke-linecap:round;stroke-linejoin:round;stroke-miterlimit:10}</style><path fill="#46b8b0" d="M47.8 17.5l.5-11-1.9-3.8-15.4.4c-3.2 0-27.8-3-27.8.2L1.5 24l1.2 23.5 13.6.6 31-11c.7-.4 1.5-17.6.5-19.6z"/><path fill="none" stroke="#444" stroke-linecap="round" stroke-linejoin="round" stroke-miterlimit="10" stroke-width="2.5" d="M32.4 48h-27C3.5 48 2 46.4 2 44.5v-39C2 3.6 3.5 2 5.4 2h39c1.9 0 3.4 1.6 3.4 3.5V38"/><path fill="#444" d="M39 25.6c.3 1.5 1.7 2.6 3.4 2.4 1.2-.2 2.2-1.2 2.4-2.4.3-1.9-1.1-3.4-2.9-3.4-.5 0-.9.1-1.4.3-.3.2-.7.4-.9.8-.3.3-.5.8-.6 1.2h-1.7V24c-.2-2-.8-3.9-1.8-5.5 0-.1-.1-.2-.1-.2-.4-.6-.9-1.1-1.3-1.7l3.1-3.1c.6.4 1.4.7 2.2.7 2.1 0 3.8-1.7 3.8-3.8 0-.3-.1-.7-.2-1-.5-1.9-2.5-3.1-4.7-2.5-1.7.5-2.8 2.1-2.7 3.8 0 .5.1.9.3 1.3.1.3.3.5.4.7l-3.2 3.2c-.8-.8-1.7-1.4-2.7-1.9-1.6-.8-3.3-1.3-5.1-1.4v-1.7c1.7-.5 3-2.5 1.9-4.4-.2-.8-1-1.4-1.9-1.5-1.8-.2-3.3 1.1-3.3 2.9 0 1.5 1 2.7 2.4 2.9v1.7c-3 .2-5.7 1.4-7.8 3.3l-3.2-3.2c.4-.6.7-1.4.7-2.2 0-1.3-.6-2.4-1.6-3.1-.3-.2-.7-.1-.9.2-.2.3-.1.6.2.8.7.5 1.1 1.3 1.1 2.2 0 1.5-1.1 2.6-2.6 2.6-1.4 0-2.6-1.1-2.6-2.6 0-1.1.8-2.2 1.9-2.5.3-.2.4-.5.4-.8-.1-.3-.5-.5-.8-.4-2.6.7-4 4.6-.9 6.8.6.4 1.3.7 2 .7.9 0 1.5-.3 2.2-.7l3.2 3.1c-.9 1-1.7 2.2-2.2 3.5-.6 1.3-.9 2.8-.9 4.2h-1.7c-.3-1.2-1.3-2.2-2.5-2.3h-.5C6.3 22 5 23.3 5 25c0 .2 0 .4.1.6C5.3 26.9 6.5 28 8 28s2.7-1 2.9-2.4h1.7c0 .3.1.7.1 1v.3c.3 2 1 3.8 2.2 5.3.3.4.6.8.9 1.1l-3.2 3.1c-.7-.3-1.4-.6-2.2-.6-2-.1-3.8 1.4-4 3.4-.3 2.7 2.4 5 5.2 4 1.5-.6 2.4-2 2.4-3.5 0-.9-.3-1.6-.7-2.2l3.2-3.2c2.1 1.9 4.8 3.1 7.8 3.3v1.7c-1.5.3-2.6 1.7-2.4 3.4.2 1.2 1.2 2.2 2.4 2.4 1.9.3 3.4-1.1 3.4-2.9 0-1.5-1-2.7-2.4-2.9v-1.7c3-.2 5.7-1.4 7.8-3.3l3.2 3.2c-.4.6-.7 1.3-.7 2.1 0 1.7 1 3.2 2.6 3.7 2.5.8 5-1.2 5-3.6 0-.4-.1-.8-.2-1.2-.1-.3-.4-.4-.8-.3-.3.1-.5.4-.3.8.1.4.3.8.1 1.4-.2.8-.7 1.4-1.4 1.8-1.8.8-3.7-.5-3.7-2.3 0-1.5 1.1-2.6 2.6-2.6.3 0 .7.1.9.2.3.1.6 0 .8-.3.1-.3 0-.6-.3-.8-.6-.3-1-.3-1.5-.3-.9 0-1.6.3-2.2.7l-3.1-3.1c1.9-2.1 3.1-4.8 3.3-7.8l1.6-.3zm3-2.5c1.1 0 1.9.9 1.9 2 0 1-.9 2-2 2s-2-.9-2-2.1c.1-1.1 1-2 2.1-1.9zm-5.1-12.7c0-1.4 1.1-2.6 2.6-2.6 1.2 0 2.2.8 2.5 1.9v.6c0 1.2-.8 2.3-1.9 2.5-1.3.3-2.5-.3-3-1.4-.2-.2-.2-.7-.2-1zM7.9 27c-1 0-2-.8-2-2 0-1.1.8-2 2-2 1 0 2 .8 2 2 0 1.1-1 2-2 2zm3.5 14.8c-1.8.9-3.8-.4-3.8-2.3 0-1.5 1.2-2.6 2.6-2.6 1.5 0 2.7 1.2 2.6 2.8-.1.9-.6 1.7-1.4 2.1zM23.1 7.9c0-1 .8-1.9 1.9-1.8 1 0 1.7.9 1.7 1.9 0 1-.8 1.8-1.8 1.8-1.1-.1-1.8-1-1.8-1.9zm3.5 34.2c0 1-.8 1.9-1.9 1.8-1 0-1.7-.9-1.7-1.9 0-1 .8-1.8 1.8-1.8 1 .1 1.8.9 1.8 1.9zM25 36.4c-3.8 0-7-1.8-9.1-4.6-1.2-1.6-2-3.4-2.3-5.4v-.3c0-.4-.1-.8-.1-1.2 0-2 .5-3.9 1.4-5.5 1.9-3.6 5.7-6 10.1-6 1.5 0 2.9.3 4.2.8 2.2.9 4 2.4 5.3 4.3l.1.2c1.1 1.7 1.7 3.6 1.8 5.6v.7c0 6.3-5 11.4-11.4 11.4zM9.1 15.3"/><path d="M27.9 24.6h-6c-2.3 0-4.2 1.9-4.2 4.2v3.1c0 .2.2.4.4.4h13.4c.2 0 .4-.2.4-.4v-3.1c.2-2.3-1.7-4.2-4-4.2z" class="st3"/><circle cx="24.9" cy="21.1" r="3.5" class="st3"/><path d="M21.5 30.6v1.7m6.9-1.7v1.7" class="st3"/></svg>