<svg xmlns="http://www.w3.org/2000/svg" id="Camada_3" x="0" y="0" version="1.1" viewBox="0 0 50 50" xml:space="preserve"><style>.st2{fill:none;stroke:#444;stroke-linecap:round;stroke-linejoin:round;stroke-miterlimit:10}</style><path fill="#fc9d9a" d="M44.42 12.52l-5.63-3.59-7.67-4.43-5.97-2.84C21.95 1.66 3.7 10.6 3.7 13.8l-.53 7.8.53 15.14 11.5 7.56 31.02-11.04c.74-.42-.82-18.75-1.8-20.74z"/><path fill="none" stroke="#444" stroke-linecap="round" stroke-linejoin="round" stroke-miterlimit="10" stroke-width="2.5" d="M29.8 46.62l-2.2 1.27c-1.69.98-3.78.98-5.47 0L6.56 38.9a5.48 5.48 0 01-2.74-4.74V16.18a5.46 5.46 0 012.74-4.74l15.57-8.99c1.69-.98 3.78-.98 5.47 0l15.57 8.99a5.48 5.48 0 012.74 4.74v17.98a5.46 5.46 0 01-2.74 4.74l-2.46 1.42"/><ellipse cx="24.96" cy="10.83" class="st2" rx="2.85" ry="3.4"/><path d="M22.36 20.29v14.27m5.3-14.27v14.27m-2.7-8.88v8.78m-2.63-8.37s-2.46-.09-2.46-4.43.09-3.38.09-3.38 0-2.43 5-2.43m2.72 10.24s2.38-.09 2.38-4.43-.09-3.38-.09-3.38 0-2.43-5-2.43" class="st2"/><path fill="none" stroke="#444" stroke-linecap="round" stroke-linejoin="round" stroke-miterlimit="10" stroke-width=".5" d="M19.66 28.96l-8.83 5.21a.839.839 0 00-.01 1.44L13.11 37s1.64.63 1.85-.85 2.39-1.71 3.78-.95c1.4.77 2.67 3.17-.4 3.17s.11 1.59.11 1.59l3.35 1.89c.25.14.56.14.82 0l4.03-2.21s1.8-.82 2.38.53c.81 1.87 3.28 1.64 4.49.85 1.22-.79 1.19-2.48.16-3.07-1.01-.57-2.48-.53-1.85-1.22l2.23-1.23c.57-.32.58-1.14.01-1.47l-4.25-2.43m-26.57-.19l3.97-2.31s1.77-.87 2.39.46c.86 1.85 3.32 1.55 4.51.73s1.12-2.52.08-3.07c-1.03-.54-2.5-.46-1.88-1.17l2.2-1.29a.842.842 0 00-.03-1.47L4.01 17.5m41.66 13.4c-.77-.11-1.48-.51-1.86-1.34-.62-1.33-2.39-.46-2.39-.46l-3.97 2.31c-.25.15-.56.15-.82.02l-3.4-1.8s-3.21-1.5-.15-1.58c3.06-.08 1.73-2.45.31-3.18-.64-.33-1.43-.45-2.13-.34m.13-4.19l2.77-1.73 1.74-1.08c.41-.26.93-.28 1.37-.07l7.11 3.52 1.56.84"/></svg>