<svg xmlns="http://www.w3.org/2000/svg" viewBox="0 0 54 56"><g fill="none" fill-rule="evenodd"><path fill="#00C8E2" d="M47.93 29.437l3.841 5.572-40.944 14.87-1.543-6.249-4.782-6.48-.882-3.671 41.533-14.687z"/><path fill="#00DFFC" d="M43.806 15.769l1.424 2.946L1.848 34.402l.177-6.619.04-2.983 39.329-14.374z"/><path fill="#031326" d="M11.564 52.386h24.332v-4.945a2.052 2.052 0 012.038-2.06h4.682a2.78 2.78 0 002.748-2.808v-5.199c0-.412.335-.745.748-.745h4.826l-4.086-8.318a15.978 15.978 0 01-1.6-5.462c-1.05-11.673-11.184-20.402-22.885-19.71C11.4 3.821 2.505 13.123 2.115 24.316a22.336 22.336 0 004.498 14.26 23.327 23.327 0 014.95 13.81m25.08 1.493H10.82a.747.747 0 01-.748-.747v-.386a21.788 21.788 0 00-4.65-13.266 23.85 23.85 0 01-4.8-15.216C1.04 12.316 10.548 2.38 22.272 1.65 34.773.908 45.606 10.227 46.737 22.7a14.52 14.52 0 001.454 4.954l4.617 9.39a.746.746 0 01-.672 1.079h-5.279v4.454a4.277 4.277 0 01-4.242 4.302h-4.682a.555.555 0 00-.544.566v5.689a.747.747 0 01-.747.747"/><path stroke="#031326" stroke-linecap="round" stroke-linejoin="round" stroke-width="1.1" d="M11.564 52.386h24.332v-4.945a2.052 2.052 0 012.038-2.06h4.682a2.78 2.78 0 002.748-2.808v-5.199c0-.412.335-.745.748-.745h4.826l-4.086-8.318a15.978 15.978 0 01-1.6-5.462c-1.05-11.673-11.184-20.402-22.885-19.71C11.4 3.821 2.505 13.123 2.115 24.316a22.336 22.336 0 004.498 14.26 23.327 23.327 0 014.95 13.81zm25.079 1.494H10.82a.747.747 0 01-.748-.747v-.386a21.788 21.788 0 00-4.65-13.266 23.85 23.85 0 01-4.8-15.216C1.04 12.316 10.548 2.38 22.272 1.65 34.773.908 45.606 10.227 46.737 22.7a14.52 14.52 0 001.454 4.954l4.617 9.39a.746.746 0 01-.672 1.079h-5.279v4.454a4.277 4.277 0 01-4.242 4.302h-4.682a.555.555 0 00-.544.566v5.689a.747.747 0 01-.747.747z"/><path fill="#031326" d="M23.998 36.15l.962-.013.012.963-.961.012zm8.262-3.144l.67-.689.688.672-.671.688zm3.612-9.03l.962-.012.012.961-.961.012z"/><path fill="#031326" d="M15.05 16.25a12.451 12.451 0 00-2.888 5.547l1.087-.413a11.544 11.544 0 0117.266-6.537l1.092-.411c-5.105-3.657-12.25-2.963-16.556 1.815zm22.78 10.59l-3.286.042a.471.471 0 00-.46.358 9.607 9.607 0 01-.87 2.17.488.488 0 00.09.579l2.353 2.295-3.361 3.441-2.353-2.294a.475.475 0 00-.576-.07 9.84 9.84 0 01-2.154.919.485.485 0 00-.347.468l.041 3.291-4.81.06-.041-3.29a.482.482 0 00-.358-.46 9.966 9.966 0 01-2.17-.865.489.489 0 00-.582.084l-2.294 2.351-1.378-1.337 4.717-4.836a6.734 6.734 0 009.38-9.618l4.711-4.831 1.378 1.345-2.294 2.346a.49.49 0 00-.074.582c.257.436.475.891.65 1.365.108.257.194.52.274.788.06.205.25.349.468.348l3.286-.042.06 4.812zm-9.463-6.372a5.763 5.763 0 01.03 8.163 5.762 5.762 0 01-8.09.101.481.481 0 00-.68.01l-3.692 3.783a11.397 11.397 0 01-2.431-3.924 11.532 11.532 0 01-.34-6.91c.023-.106.05-.206.085-.307a11.544 11.544 0 0117.266-6.537c.088.059.183.116.272.18.438.293.853.623 1.257.982l-3.686 3.779a.481.481 0 00.009.68zM11.704 29.28a13.447 13.447 0 01-.671-6.782c.01-.094.027-.194.043-.293.46-2.56 1.668-5.01 3.616-7.006 4.844-4.967 12.62-5.41 17.983-1.17.083.063.166.127.245.19.159.134.313.272.467.41l-.672.69c-.28-.247-.557-.48-.853-.699-.084-.063-.167-.127-.255-.184-5.105-3.657-12.25-2.963-16.556 1.815a12.451 12.451 0 00-2.889 5.546l-.067.295a12.56 12.56 0 00.514 6.841 12.58 12.58 0 002.654 4.275l-.666.689a13.41 13.41 0 01-2.893-4.617zm26.535-8.22l-3.41.044a7.5 7.5 0 00-.187-.508c-.152-.41-.333-.8-.538-1.186l2.382-2.441a.483.483 0 00-.009-.682l-2.067-2.016c-.154-.15-.309-.3-.47-.44a2.24 2.24 0 00-.219-.196 14.325 14.325 0 00-9.205-3.553 14.362 14.362 0 00-10.51 4.25 14.361 14.361 0 00-4.075 8.309 2.485 2.485 0 00-.031.282 14.292 14.292 0 00.851 6.715 14.29 14.29 0 003.31 5.099c.066.07.132.133.196.192l2.068 2.016c.19.186.496.181.681-.009l2.38-2.435c.55.274 1.122.502 1.712.682l.042 3.41a.482.482 0 00.487.474l5.775-.071a.482.482 0 00.474-.487l-.042-3.41a10.91 10.91 0 001.692-.725l2.442 2.375c.19.185.495.182.681-.007l4.032-4.13a.481.481 0 00-.007-.68l-2.443-2.383a10.81 10.81 0 00.683-1.715l3.41-.043a.476.476 0 00.475-.487l-.073-5.769a.48.48 0 00-.487-.474zm-23.188-4.81a12.451 12.451 0 00-2.889 5.547l1.087-.413a11.544 11.544 0 0117.266-6.537l1.092-.411c-5.105-3.657-12.25-2.963-16.556 1.815z"/><path fill="#031326" d="M24.347 25.563a.963.963 0 11-.023-1.925.963.963 0 01.023 1.925m.446-2.823l-.067-5.359a.482.482 0 10-.962.012l.067 5.359c-.67.184-1.19.716-1.357 1.392l-3.436.042a.48.48 0 00.012.962l3.435-.042a1.92 1.92 0 102.308-2.366m-.573-7.277a.48.48 0 01-.485-.475l-.012-.962a.48.48 0 01.962-.012l.011.963a.48.48 0 01-.475.486m4.826 1.229a.481.481 0 01-.426-.716l.471-.84a.481.481 0 01.84.47l-.471.84a.483.483 0 01-.414.246m-9.62.12a.48.48 0 01-.42-.236l-.49-.827a.48.48 0 01.827-.491l.49.828a.48.48 0 01-.407.726m-3.477 3.564a.481.481 0 01-.242-.061l-.839-.47a.482.482 0 01.47-.839l.84.47a.48.48 0 01-.229.9m-1.228 4.827l-.962.012a.481.481 0 01-.012-.962l.962-.012a.483.483 0 01.488.475.483.483 0 01-.476.487m.522 5.284a.48.48 0 01-.486-.475.485.485 0 01.234-.42l.827-.49a.482.482 0 11.493.827l-.827.49a.478.478 0 01-.241.068"/><path fill="#031326" d="M24.395 29.41a4.766 4.766 0 01-3.417-1.368.48.48 0 11.661-.699l.012.012a3.845 3.845 0 005.428-5.45c-.02-.017-.038-.037-.058-.056a.48.48 0 11.658-.701l.012.01a4.811 4.811 0 01-3.296 8.252"/></g></svg>