<svg xmlns="http://www.w3.org/2000/svg" id="Camada_3" x="0" y="0" version="1.1" viewBox="0 0 50 50" xml:space="preserve"><style>.st2{stroke-width:2.5}.st2,.st3{fill:none;stroke:#444;stroke-linecap:round;stroke-linejoin:round;stroke-miterlimit:10}</style><path fill="#59c2e2" d="M29.89 5.73c-1.02.67-10.74.19-11.6-2.57-.36-1.2-12.65-.56-13.85-.33-3.45.67-1.59 5.15-2.39 16.14-.05.75 2.36 1.1 3.64 2.45L46.21 7c-4.12-3.44-7.13-7.25-16.32-1.27z"/><path fill="#36bad7" d="M45.45 7.27L5.69 21.42c-.47.17-.42 6.68-.5 7.17-.25 1.53 3.04 7.22 3.04 8.82 0 8.62-6.56 7.71-4.05 10.28.35.36 13.35.69 13.81.52L46.7 37.99c.47-.17-2.22-.35-2.13-.84.25-1.53-1.63-1.6-1.1-3.11 4.5-12.64-.98-12.64 1.1-16.05 1.97-3.2 1.35-10.88.88-10.72z"/><path d="M30.24 45.12l1.42 2.09c.65.96 1.73 1.55 2.89 1.58l1.4.03m-5.71-3.7c-3.25.39-5.12.18-8.18.04" class="st2"/><path d="M20.21 44.28l4.99.41" class="st3"/><path fill="none" stroke="#444" stroke-linecap="round" stroke-linejoin="round" stroke-miterlimit="10" stroke-width=".25" d="M21.39 37.17c1.1.32 2.26.49 3.47.49.97 0 1.92-.11 2.83-.33M12.88 22.04c-.25.89-.38 1.83-.38 2.8 0 1.72.41 3.35 1.15 4.78m14.51-16.2c-1.05-.29-2.16-.45-3.31-.45-1.29 0-2.54.2-3.71.57M36.76 28.6c.29-1.04.44-2.14.44-3.28 0-1.14-.15-2.24-.44-3.28"/><circle cx="38.12" cy="10.55" r="7.82" class="st3"/><path d="M3.16 3.76h14.99v14.99H3.16z" class="st3" transform="rotate(-180 10.655 11.253)"/><path d="M13.18 32.1l8.73 15.13H4.44zm19.77 15.6l-4.33-7.49 4.33-7.5h8.66l4.32 7.5" class="st3"/><path d="M46.22 42.02c.65-1.12.65-2.5 0-3.62l-2.74-4.69M8.36 38.26l-4.42 7.31c-.7 1.17.14 2.65 1.5 2.65l15.39-.01c1.38 0 2.22-1.53 1.47-2.7M19.15 5.92v-.73c0-1.26-1.02-2.29-2.28-2.29L4.44 2.83a2.298 2.298 0 00-2.31 2.28l-.08 12.34c-.01 1.25.99 2.28 2.24 2.31l1.49.03m37.98-2.34c2.12-1.96 5.1-7.04 1.56-12.24C42.45 1 34.57-.1 30.43 5.62m-11.28.3c3.5-.72 6.25-.9 11.27.2M8.73 37.42c-3.46-3.86-4.45-11.23-2.67-17.49m37.77-2.21c1.96 4.86 1.98 10.32.06 15.2" class="st2"/><path d="M43.48 32.1l-.98 1.48M18.3 6.9l4.54-1.02M7.28 18.97l-.86 1.79m16.84-3.07l-1.72 3.48-3.84.56c-1.27.18-1.78 1.75-.86 2.65l2.78 2.71-.66 3.82c-.22 1.27 1.11 2.23 2.25 1.63l3.43-1.8 3.43 1.8c1.14.6 2.47-.37 2.25-1.63l-.66-3.82 2.78-2.71c.92-.9.41-2.46-.86-2.65l-3.84-.56-1.72-3.48c-.55-1.16-2.19-1.16-2.76 0z" class="st3"/></svg>