<svg xmlns="http://www.w3.org/2000/svg" id="Layer_1" x="0" y="0" version="1.1" viewBox="0 0 50 50" xml:space="preserve"><style>.st2{stroke-width:.5}.st2,.st3{fill:none;stroke:#444;stroke-linecap:round;stroke-linejoin:round;stroke-miterlimit:10}</style><path fill="#c3ff68" d="M27.4 2.2l-14.6 3c-1.4 0-10 12.3-10 13.7l-.8 8 .7 9.3L3.9 48l12.4.6 32.1-11.4-.3-15-3.5-10.1L40.8 8c0-1.4-12-5.8-13.4-5.8z"/><path fill="none" stroke="#444" stroke-linecap="round" stroke-linejoin="round" stroke-miterlimit="10" stroke-width="2.5" d="M48 37.3V25.2C48 12.5 37.7 2.3 25.1 2.3h0C12.4 2.3 2.2 12.5 2.2 25.2v19.1c0 2.1 1.5 3.8 3.4 3.8h27"/><path d="M15.3 38.9h19.3" class="st2"/><path d="M28.9 20.9l2.2-.1c.3 0 .5-.2.5-.5v-2.7c0-.3-.2-.5-.5-.5h-3.6c2.1-1 3.6-3.1 3.6-5.5 0-3.4-2.7-6.1-6.1-6.1-3.4 0-6.1 2.7-6.1 6.1 0 2.5 1.5 4.6 3.6 5.5h-3.6c-.3 0-.5.2-.5.5v2.7c0 .3.2.5.5.5h2.2c-.5 10.6-5.8 18.1-5.8 18.1v5c0 .7.5 1.2 1.2 1.2h16.8c.7 0 1.2-.5 1.2-1.2V39c.1-.1-5.6-5.9-5.6-18.1z" class="st3"/><path d="M5.8 40.8h9.6" class="st2"/><path d="M16.7 36.6c-.8-2-1.5-4.8-1.5-8.3v-.1h1.5c.2 0 .4-.2.4-.4V26c0-.2-.2-.4-.4-.4h-2.5c1.5-.7 2.5-2.1 2.5-3.9 0-2.3-1.9-4.2-4.2-4.2-2.3 0-4.2 1.9-4.2 4.2 0 1.7 1 3.2 2.5 3.9H8.2c-.2 0-.4.2-.4.4v1.9c0 .2.2.4.4.4h1.7c-.3 7.4-4 12.6-4 12.6v3.3c0 .5.4.8.8.8h11.7" class="st3"/><path d="M34.6 40.8h9.7" class="st2"/><path d="M31.8 45h11.7c.5 0 .8-.4.8-.8v-3.4s-3.9-4-3.9-12.5v-.1h1.5c.2 0 .4-.2.4-.4V26c0-.2-.2-.4-.4-.4h-2.5c1.5-.7 2.5-2.1 2.5-3.9 0-2.3-1.9-4.2-4.2-4.2-2.3 0-4.2 1.9-4.2 4.2 0 1.7 1 3.2 2.5 3.9h-2.5c-.2 0-.4.2-.4.4v1.9c0 .2.2.4.4.4h1.6-.1c-.1 3.5-.8 6.3-1.7 8.5" class="st3"/></svg>