<svg xmlns="http://www.w3.org/2000/svg" viewBox="0 0 50 50"><path fill="#ec6a6d" d="M30.4 2c-1.1-.1-8 .6-9.1.6s.6 3.9-.5 4.1c-2.1.3-2.8 1.1-4.7 1.9-.3.1-3.5-3.1-3.9-3-1.2.5-4.3 4.3-5.4 5C3.4 12.9 9.4 13.3 9 15c-.3 1-1.3 2.9-1.7 4-.5 1.2-4.1-.8-4.9 3.1L41.4 8c-1.8-1.5-3.4-1.2-6.1.5-1.2.8-3-1.3-4.4-1.6-1-.2.5-4.8-.5-4.9z"/><path fill="#e46160" d="M40 8.1L4.1 20.5c-1 .4-1.7 1.2-1.8 2.3-.1 1 0 5.3 0 6.4 0 1.8 3.8.2 4.6 1.3 4.3 5.8-3 5.3.3 9 2.9 3.2 3.7 4.7 5 4 .4-.2 3.4-2 3.8-1.9l2.9.7L42.2 34l1.8-3c1-.4 4.2.2 4.3-.8.1-1-.1-8-.1-9-7 .3-7.4-3.9-3.5-8.8.7-.8-3.7-4.7-4.7-4.3z"/><g fill="none" stroke="#444" stroke-linecap="round" stroke-linejoin="round" stroke-miterlimit="10"><path stroke-width="2.5" d="M41.2 42.1c1.2-1 2.3-2.1 3.2-3.5l-3.3-3.5c.9-1.5 1.6-3 2.1-4.7l4.8.1c.3-1.5.6-3.1.6-4.7s-.1-3.2-.3-4.7l-4.8-.1c-.4-1.7-1-3.4-1.8-4.9l3.5-3.3c-1.7-2.7-3.8-5-6.4-6.8l-3.5 3.3c-1.5-.9-3-1.6-4.7-2.1l.1-4.8c-1.5-.3-3.1-.6-4.7-.6s-3.2.1-4.7.3L21.1 7c-1.4.4-3.4 1-4.9 1.8L13 5.3c-2.2 1.6-5 3.8-6.8 6.4l3.3 3.5c-.9 1.5-1.6 3-2.1 4.7l-4.8-.1c-.3 1.5-.6 3.1-.6 4.7s.1 3.2.3 4.7l4.8.1c.1 1.4 1 3.4 1.8 4.9l-3.5 3.3c1.7 2.7 4.5 5.3 6.4 6.8l3.5-3.3c1.2.7 3 1.6 4.7 2.1l-.1 4.8c1.5.3 3.1.6 4.7.6"/><path d="M19.3 35.2v-1.4c0-.8-1.9-2-3.4-2s-3.4 1.2-3.4 2v1.4m3.4-8.6c-1.2 0-2.3.8-2.3 1.9v1.4c0 1 1.1 1.9 2.3 1.9 1.2 0 2.3-.8 2.3-1.9v-1.4c0-1.1-1.1-1.9-2.3-1.9zm12.6 8.6v-1.4c0-.8-1.9-2-3.4-2s-3.4 1.2-3.4 2v1.4m3.4-8.6c-1.2 0-2.3.8-2.3 1.9v1.4c0 1 1.1 1.9 2.3 1.9 1.2 0 2.3-.8 2.3-1.9v-1.4c0-1.1-1.1-1.9-2.3-1.9zm3.4-7.5v-1.4c0-.8-1.9-2-3.4-2s-3.4 1.2-3.4 2v1.4m3.4-8.6c-1.2 0-2.3.9-2.3 2.1v1c0 1.1 1.1 2.1 2.3 2.1 1.2 0 2.3-.9 2.3-2.1v-1c0-1.2-1.1-2.1-2.3-2.1zm12.6 24.7v-1.4c0-.8-1.9-2-3.4-2s-3.4 1.2-3.4 2v1.4m3.4-8.6c-1.2 0-2.3.8-2.3 1.9v1.4c0 1 1.1 1.9 2.3 1.9 1.2 0 2.3-.8 2.3-1.9v-1.4c-.1-1.1-1.2-1.9-2.3-1.9z"/><path stroke-width=".5" d="M25.1 19.1v5.7m9.2 0V22H15.9v2.8"/></g></svg>