<svg xmlns="http://www.w3.org/2000/svg" viewBox="0 0 50 50"><path fill="#a475ef" d="M47.7 11.6l.8 5.2L2.4 33.6l-.5-10.9-.1-6.2L42.1 1.9l5.2 2.3z"/><path fill="#bf94f7" d="M46.1 2l2.3 3.2L1.5 21.9 2.6 4.8l3-2.9 29.1-.2z"/><path fill="none" stroke="#444" stroke-linecap="round" stroke-linejoin="round" stroke-miterlimit="10" stroke-width="2.5" d="M18.1 48.3H5.5c-1.9 0-3.4-1.6-3.4-3.5v-39c0-2 1.5-3.5 3.4-3.5h39c1.9 0 3.4 1.6 3.4 3.5v24.6"/><path fill="none" fill-rule="evenodd" stroke="#494949" stroke-linecap="round" stroke-linejoin="round" stroke-miterlimit="10" d="M35.8 47h3.1c.2 0 .3-.1.3-.3 0-.2-.1-.3-.3-.3h-3.1c-.2 0-.3.1-.3.3 0 .1.2.3.3.3h0zm7.1-19.8H31.8v17.6h11.1V27.2h0zm.3-2.3H31.5c-.3 0-.6.1-.8.3h0c-.2.2-.3.5-.3.8v21.1c0 .3.1.6.3.8.2.2.5.3.8.3h11.7c.3 0 .6-.1.8-.3h0c.2-.2.3-.5.3-.8V26c0-.3-.1-.6-.3-.8-.2-.2-.5-.3-.8-.3z" clip-rule="evenodd"/><path fill="#494949" d="M24.7 10.3c0-.3.3-.6.6-.6h11.4c.3 0 .6.3.6.6s-.3.6-.6.6H25.3c-.4 0-.6-.3-.6-.6zm-17 0c0-.3.3-.6.6-.6h9.9c.1-.6.3-1.1.7-1.6.5-.5 1.1-.7 1.7-.7 1.4 0 2.5 1.1 2.5 2.5v.7c0 .7-.3 1.3-.7 1.8-.5.5-1.1.7-1.7.7-1.3 0-2.3-1-2.5-2.3h-10c-.3.1-.5-.2-.5-.5zm11.5.4c0 .8.6 1.4 1.3 1.4.3 0 .7-.1.9-.4.3-.3.4-.6.4-1V10c0-.8-.6-1.4-1.3-1.4-.3 0-.7.1-.9.4-.3.3-.4.6-.4 1v.7zm17.5 9.9H35c-.3 0-.6.3-.6.6s.3.6.6.6h1.7c.3 0 .6-.3.6-.6s-.3-.6-.6-.6zM23.8 31.4h-.2c-.3 0-.6.3-.6.6s.3.6.6.6h.2c.3 0 .6-.3.6-.6s-.3-.6-.6-.6zm5.3 0h-.4c-.3 0-.6.3-.6.6s.3.6.6.6h.4c.3 0 .6-.3.6-.6-.1-.3-.3-.6-.6-.6zm-2.7 0H26c-.3 0-.6.3-.6.6s.3.6.6.6h.4c.3 0 .6-.3.6-.6s-.2-.6-.6-.6zm-5.3.5v.7c0 .7-.3 1.3-.7 1.8-.5.5-1.1.7-1.7.7-1.4 0-2.5-1.1-2.5-2.5h-8c-.3 0-.6-.3-.6-.6s.3-.6.6-.6h7.9c.1-.5.3-1 .7-1.4.5-.5 1.1-.7 1.7-.7 1.5.1 2.6 1.2 2.6 2.6zm-1.2 0c0-.8-.6-1.4-1.3-1.4-.3 0-.7.1-.9.4-.3.3-.4.6-.4 1v.7c0 .8.6 1.4 1.3 1.4.3 0 .7-.1.9-.4.3-.3.4-.6.4-1v-.7zM33 20.7v.7c0 .7-.3 1.3-.7 1.8-.5.5-1.1.7-1.7.7-1.2 0-2.3-.9-2.4-2.1h-20c-.3 0-.6-.3-.6-.6s.3-.6.6-.6H28c0-.6.3-1.3.7-1.7.5-.5 1.1-.7 1.7-.7 1.4 0 2.6 1.1 2.6 2.5zm-1.2 0c0-.8-.6-1.4-1.3-1.4-.3 0-.7.1-.9.4-.3.3-.4.6-.4 1v.7c0 .8.6 1.4 1.3 1.4.3 0 .7-.1.9-.4.3-.3.4-.6.4-1v-.7z"/></svg>