<svg xmlns="http://www.w3.org/2000/svg" viewBox="0 0 50 50"><path fill="#afe55d" d="M48.2 15v5.2l-12 4.4-11.5 4.2-2.3.9-7.4 1.9-4-.9-6.7-5-1.9-4.4-.2-.6L42 6.2l.6.4 3 2.1z"/><path fill="#c3ff68" d="M42.6 6.6L2.4 21.3l-.2-.6-.7-1.6 1.4-8.3L11 4l6.8-.6 6.8 3.3 1.7-2.1L38 3.4l4 2.8z"/><path fill="#494949" d="M19 17.8c-.1-3.5 1.1-7 3.3-9.7.6.4 1.2.9 1.7 1.4-1.7 2.2-2.7 4.9-2.8 7.7-.7.1-1.5.3-2.2.6zm22.6 12.9s.1 0 .1-.1c7.2-4.2 9.7-13.5 5.5-20.7C43 2.7 33.7.2 26.5 4.4c-.1 0-.2.1-.2.1.6.5 1.1 1 1.7 1.5 6.1-3.3 13.9-1.2 17.4 4.9 3.5 6 1.6 13.8-4.3 17.5.2.8.4 1.6.5 2.3zM27.3 18.5c-3.3-.5-6.7.1-9.8 1.9-3.1 1.8-5.3 4.5-6.5 7.6.7.3 1.3.5 2 .7 1-2.6 2.9-4.9 5.5-6.4s5.5-2 8.3-1.6c.3-.8.4-1.5.5-2.2zm5.4 28.1c7.2-4.2 9.7-13.5 5.5-20.7-1.5-2.5-3.5-4.4-5.9-5.7-.1.7-.3 1.5-.5 2.2 1.8 1.1 3.4 2.6 4.5 4.6 3.6 6.2 1.5 14.2-4.7 17.8-6.2 3.6-14.2 1.5-17.8-4.7-1.1-2-1.7-4.1-1.8-6.2-.7-.2-1.5-.4-2.2-.7-.1 2.7.6 5.5 2 8 4.4 7.1 13.7 9.6 20.9 5.4zM28.9 9.9C24.7 2.7 15.4.3 8.2 4.5S-1.5 18 2.7 25.2c4.2 7.2 13.5 9.7 20.7 5.5s9.7-13.5 5.5-20.8zM4.6 24.1C1 17.9 3.1 9.9 9.3 6.3S23.5 4.8 27.1 11c3.6 6.2 1.5 14.2-4.7 17.8S8.2 30.3 4.6 24.1zm4-12.9c-.1-.1-.1-.2-.2-.2-.4-.3-.9-.2-1.1.2-.8 1.1-1.4 2.4-1.8 3.7-.4 1.3-.4 2.7-.3 4.1.1.4.5.8.9.7.4-.1.8-.5.7-.9-.1-1.2-.1-2.3.2-3.5.3-1.1.8-2.2 1.5-3.1.3-.4.3-.7.1-1zM14.5 29c2.4.3 4.9-.2 7.1-1.5 2.2-1.3 3.8-3.2 4.8-5.4-2.4-.3-4.9.2-7.1 1.5-2.2 1.2-3.8 3.2-4.8 5.4zm.7 10.2c-1-1.6-1.5-3.4-1.5-5.2 3.5.5 7.3-.2 10.6-2.1 3.3-1.9 5.7-4.8 7.1-8.2 1.5 1 2.8 2.3 3.8 3.9 3.2 5.5 1.3 12.5-4.1 15.7-5.7 3.3-12.7 1.4-15.9-4.1zm10.3-27.9c-.2-.2-.3-.5-.5-.7-1.4 1.8-2.2 4.1-2.3 6.4.4-.1.9-.1 1.3-.1l1.5-5.6zM45.4 15l-2.7 10.3c2.5-2.8 3.5-6.7 2.7-10.3zm-18.6-.9l-.7 2.7c.4 0 .8.1 1.2.1 0-.9-.2-1.8-.5-2.8zm13.4 12.4l3.9-14.7v-.1c-.4-.6-.8-1.2-1.2-1.7l-3.8 14.4c.1.2.3.4.4.6.3.6.5 1 .7 1.5zM29.9 8.7l.5-2-1.5.6c.4.4.7.9 1 1.4zm7.7 13.7l3.7-13.9c-.5-.4-.9-.7-1.4-1L36.3 21c.4.5.8.9 1.3 1.4zm-3.1-2.7l3.4-13c-.5-.2-1-.3-1.6-.4L33 18.9c.6.2 1 .5 1.5.8zm-2.3-5.3l2.2-8.3c-.6 0-1.1 0-1.7.1l-1.4 5.2c.4.9.7 1.9.9 3z"/></svg>