<svg xmlns="http://www.w3.org/2000/svg" version="1" viewBox="0 0 50 50"><path fill="#AFE55D" d="M15.363 45.154l29.97-10.909c3.094-6.824 2.59-14.893-1.523-21.307l1.872-6.988a1.333 1.333 0 00-1.633-1.633L37.062 6.19C28.416.645 16.756 1.644 9.202 9.198c-8.713 8.713-8.713 22.888 0 31.6a22.21 22.21 0 006.161 4.356z"/><path fill="#C3FF68" d="M35.316 5.205C26.89.802 16.227 2.129 9.158 9.198a22.206 22.206 0 00-4.861 7.297l31.019-11.29z"/><g fill="#031326"><path d="M16.867 20.817h3.855v11.598h-3.855zm1.953-5.591c-1.319 0-2.181.866-2.181 2.004 0 1.113.837 2.004 2.13 2.004h.025c1.344 0 2.181-.891 2.181-2.004-.025-1.138-.837-2.004-2.155-2.004zm11.364 5.591c-1.757 0-2.942.516-3.449 1.308h-.025v-1.129a.179.179 0 00-.179-.179h-3.497a.179.179 0 00-.179.179v11.419h3.676c.099 0 .179-.08.179-.179v-5.152c0-1.559.796-2.623 2.029-2.623 1.233 0 2.029 1.064 2.029 2.623v5.152c0 .099.08.179.179.179h3.497c.099 0 .179-.08.179-.179v-6.471c-.001-3.563-1.903-4.948-4.439-4.948z"/><path d="M45.157 12.737l1.731-6.463c.242-.902-.008-1.835-.668-2.495s-1.592-.909-2.494-.669l-6.463 1.731C28.056-.754 15.969.664 8.317 8.315c-9.199 9.199-9.199 24.167 0 33.368a23.582 23.582 0 0018.337 6.842c.688-.048 1.208-.646 1.16-1.334s-.661-1.206-1.334-1.16a21.12 21.12 0 01-16.396-6.116c-8.225-8.226-8.225-21.608 0-29.833 6.894-6.893 17.814-8.12 26.068-2.976l-5.818 1.559c-6.053-1.906-12.573-.302-17.033 4.191-6.191 6.235-6.453 16.614-.584 23.135 3.136 3.485 7.435 5.472 12.104 5.595.153.004.306.006.459.006 4.499 0 8.712-1.744 11.906-4.938 4.459-4.458 6.045-10.961 4.148-16.989l1.56-5.823c3.738 6.001 4.211 13.676 1.211 20.103a1.25 1.25 0 002.265 1.057c3.319-7.107 2.845-15.585-1.213-22.265zm-8.324 23.564a16.259 16.259 0 01-11.999 4.786c-4.531-.119-8.702-2.047-11.745-5.429-5.694-6.328-5.44-16.398.567-22.449 4.28-4.31 10.514-5.872 16.329-4.12 0 0 .127.051.185.07 4.971 1.546 8.923 5.442 10.593 10.376l.072.213c1.875 5.868.341 12.211-4.002 16.553zm4.179-17.364A16.83 16.83 0 0031.01 9.003l13.362-3.477.103.102-3.463 13.309z"/></g></svg>