<svg xmlns="http://www.w3.org/2000/svg" id="Camada_1" x="0" y="0" version="1.1" viewBox="0 0 49 50" xml:space="preserve"><style>.st2{fill:none;stroke:#444;stroke-width:.5;stroke-linecap:round;stroke-linejoin:round}.st2,.st3{stroke-miterlimit:10}.st3,.st4{fill:none;stroke:#444;stroke-linecap:round;stroke-linejoin:round}</style><path fill="#fc9d9a" d="M44.7 3.8H4.9c-1.4 0-1.4 3.7-1.4 5.1l-.1 16.4-.5 9.8 1.2 11.4 12 .6L47.2 36V6.3c0-1.4-1.1-2.5-2.5-2.5z"/><path fill="none" stroke="#444" stroke-linecap="round" stroke-linejoin="round" stroke-miterlimit="10" stroke-width="2.5" d="M33.8 47.7H6.5c-1.8 0-3.2-1.4-3.2-3.2v-37c0-1.8 1.4-3.2 3.2-3.2h37.1c1.8 0 3.2 1.4 3.2 3.2v31.7"/><path d="M46.7 9.9H3.3" class="st2"/><path d="M6.9 7.8H9m2.8 0h2.1" class="st3"/><path d="M16.6 10.3v37.4" class="st2"/><path d="M6.1 13.4h7.7m-7.7 2.8h7.7M6.1 19H11m17-2.7L20.1 21l7.9 5.3m7.3-10l7.9 4.7-7.9 5.3m-5.1 1.6l2.9-13.6" class="st3"/><path d="M20.1 33h4.2" class="st4"/><path fill="none" stroke="#444" stroke-dasharray="4.0741,4.4444,3.7037,4.0741" stroke-linecap="round" stroke-linejoin="round" d="M26.9 33h10"/><path d="M38.3 33h4.2m-22.4 4.2h2.4" class="st4"/><path fill="none" stroke="#444" stroke-dasharray="6.9767,0" stroke-linecap="round" stroke-linejoin="round" d="M25 37.2h4.9"/><path fill="none" stroke="#444" stroke-dasharray="4.0698,3.4884,6.9767,0" stroke-linecap="round" stroke-linejoin="round" d="M29.9 37.2h10.2"/><path d="M40.1 37.2h2.4M20.1 41.4h4.5" class="st4"/><path fill="none" stroke="#444" stroke-dasharray="1.0556,5.2778,4.75,4.75" stroke-linecap="round" stroke-linejoin="round" d="M26.9 41.4h9.4"/><path d="M38 41.4h4.5" class="st4"/></svg>