<svg xmlns="http://www.w3.org/2000/svg" id="Camada_1" x="0" y="0" version="1.1" viewBox="0 0 50 50" xml:space="preserve"><style>.st2{fill:#444}</style><path fill="#b0cd5f" d="M48.4 26.1l.4 4.3-47 17.1.1-9.2.4-5.2L49.1 16l-.7 3.8z"/><path fill="#c2d45a" d="M48.4 9.2l-.6 7.8L1.9 33.7v-9.9l.3-4.5L48.5 2.5z"/><path d="M36.9 49.3H1.8c-.7 0-1.2-.6-1.2-1.2V1.9c0-.7.6-1.2 1.2-1.2h46.5c.7 0 1.2.6 1.2 1.2v35.2c0 .7-.6 1.2-1.2 1.2s-1.3-.5-1.3-1.2V3.2H3v43.7h33.9c.7 0 1.2.6 1.2 1.2s-.5 1.2-1.2 1.2z" class="st2"/><path d="M34.4 9.8H24c-2.4 0-4.3 1.9-4.3 4.3s1.9 4.3 4.3 4.3h10.5c2.3 0 4.3-1.9 4.3-4.3-.1-2.4-2-4.3-4.4-4.3zM24 16.9c-1.5 0-2.8-1.2-2.8-2.8 0-1.5 1.2-2.8 2.8-2.8h8c-.8.6-1.4 1.6-1.4 2.8 0 1.2.6 2.2 1.5 2.8H24zm10.4 15.9H24c-2.4 0-4.3 1.9-4.3 4.3 0 2.3 1.9 4.3 4.3 4.3h10.5c2.3 0 4.3-1.9 4.3-4.3-.1-2.4-2-4.3-4.4-4.3zM24 39.9c-1.5 0-2.8-1.2-2.8-2.8 0-1.5 1.2-2.8 2.8-2.8h8.9c-1 .6-1.7 1.7-1.7 3 0 1 .5 2 1.2 2.6H24zm2-18.6H15.5c-2.3 0-4.3 1.9-4.3 4.3s1.9 4.3 4.3 4.3H26c2.4 0 4.3-1.9 4.3-4.3-.1-2.4-2-4.3-4.3-4.3zm-10.5 7.1c-1.5 0-2.8-1.2-2.8-2.8 0-1.5 1.2-2.8 2.8-2.8h8.2c-.8.6-1.3 1.6-1.3 2.7 0 1.2.6 2.3 1.6 2.9h-8.5z" class="st2"/></svg>