<svg xmlns="http://www.w3.org/2000/svg" id="Camada_1" x="0" y="0" version="1.1" viewBox="0 0 50 50" xml:space="preserve"><style>.st2{fill:#031326}</style><path fill="#00c8e2" d="M48.4 26.09l.41 4.36L1.78 47.57l.14-9.2.35-5.29 46.85-17.05-.72 3.77z"/><path fill="#00dffc" d="M48.4 9.22l-.57 7.83L1.92 33.76v-9.93l.33-4.5L48.52 2.49z"/><path d="M36.89 49.37H1.78c-.69 0-1.25-.56-1.25-1.25V1.94c0-.69.56-1.25 1.25-1.25h46.48c.69 0 1.25.56 1.25 1.25v35.19a1.25 1.25 0 01-2.5 0V3.19H3.03v43.68h33.86a1.25 1.25 0 010 2.5z" class="st2"/><path d="M34.43 9.84H23.97c-2.35 0-4.26 1.91-4.26 4.32 0 2.35 1.91 4.26 4.26 4.26h10.46c2.35 0 4.26-1.91 4.26-4.32 0-2.35-1.91-4.26-4.26-4.26zm-10.46 7.08c-1.52 0-2.76-1.24-2.76-2.82a2.76 2.76 0 012.76-2.76h8.09c-.83.62-1.37 1.62-1.37 2.75 0 1.17.59 2.21 1.48 2.83h-8.2zm10.46 15.87H23.97c-2.35 0-4.26 1.92-4.26 4.33 0 2.35 1.91 4.26 4.26 4.26h10.46c2.35 0 4.26-1.91 4.26-4.33a4.27 4.27 0 00-4.26-4.26zm-10.46 7.09c-1.52 0-2.76-1.24-2.76-2.83 0-1.52 1.24-2.76 2.76-2.76h8.93a3.451 3.451 0 00-1.74 3c0 1.03.45 1.96 1.17 2.59h-8.36zm2.02-18.57H15.53c-2.35 0-4.26 1.92-4.26 4.33 0 2.35 1.91 4.26 4.26 4.26h10.46c2.35 0 4.26-1.91 4.26-4.32 0-2.35-1.91-4.27-4.26-4.27zM15.53 28.4c-1.52 0-2.76-1.24-2.76-2.82 0-1.53 1.24-2.77 2.76-2.77h8.21c-.79.63-1.29 1.6-1.29 2.69 0 1.22.63 2.29 1.58 2.9h-8.5z" class="st2"/></svg>