<svg xmlns="http://www.w3.org/2000/svg" id="Camada_3" x="0" y="0" version="1.1" viewBox="0 0 50 50" xml:space="preserve"><style>.st4{fill:none;stroke:#444;stroke-miterlimit:10;stroke-width:.5;stroke-linecap:round;stroke-linejoin:round}</style><path fill="#f56991" d="M46.6 2.3H4.9c-1.1 0-2 .9-2 2v16.5L48.6 4.5v-.2c0-1.1-.9-2-2-2z"/><path fill="#dc5e82" d="M2.9 19.6v24.7L48.7 28V3.3z"/><path fill="none" stroke="#444" stroke-linecap="round" stroke-linejoin="round" stroke-miterlimit="10" stroke-width="2.5" d="M25 47.9H5.6c-1.9 0-3.4-1.6-3.4-3.5v-39c0-1.9 1.5-3.5 3.4-3.5h39c1.9 0 3.4 1.6 3.4 3.5v25.9"/><path fill="none" stroke="#444" stroke-miterlimit="10" d="M33.2 43.6h-4.1c-.7 0-1.3-.6-1.3-1.3V12.5c0-.9.7-1.6 1.6-1.6H33c.9 0 1.6.7 1.6 1.6v29.8c-.1.7-.7 1.3-1.4 1.3zm-6.9 0h-4.1c-.7 0-1.3-.6-1.3-1.3V18.4c0-.9.7-1.6 1.6-1.6h3.6c.9 0 1.6.7 1.6 1.6v23.9c0 .7-.6 1.3-1.4 1.3zm13.6 0h-4c-.7 0-1.3-.6-1.3-1.3V7.8c0-.9.7-1.6 1.6-1.6h3.5c.9 0 1.6.7 1.6 1.6v34.5c-.1.7-.7 1.3-1.4 1.3z"/><path d="M11.5 30.3v12.5s.1.9 1.4.9c1.5 0 1.5-.9 1.5-.9v-6.3" class="st4"/><path d="M11.4 35.3s0 .7-1 .7c-.9 0-.9-.8-.9-.8v-6c0-1.2.9-1.9 1.9-1.9h.9c.4 0 .8.2 1 .5.6.6 1.5.6 2.1 0 .3-.3.6-.5 1-.5.6 0 1.1.2 1.6.5l2.6 1.7v2.7l-3.3-2v12.5s-.2.8-1.4.8-1.5-.8-1.5-.8" class="st4"/><circle cx="14.4" cy="25" r="1.9" class="st4"/></svg>