<svg xmlns="http://www.w3.org/2000/svg" viewBox="0 0 50 50"><style>.st2{fill:#444}.st3{fill:#444545}</style><g id="Layer_2"><path fill="#46b8b0" d="M6.62 38.24l2.16.91 37.9-13.71-1.02-9.74c0-1.63-.87-3.13-2.28-3.95l-16.1-9.3a4.582 4.582 0 00-4.56 0l-16.1 9.29a4.557 4.557 0 00-2.28 3.95V34.3c0 1.62.87 3.13 2.28 3.94z"/><path fill="#4ecdc4" d="M35.93 7.45l-8.65-4.99a4.582 4.582 0 00-4.56 0l-16.1 9.29a4.557 4.557 0 00-2.28 3.95v3.25l31.59-11.5z"/><path d="M25 49.37c-1 0-2-.26-2.89-.77l-16.1-9.3a5.808 5.808 0 01-2.89-5.01V15.71c0-2.06 1.11-3.98 2.89-5.01l16.1-9.29c1.78-1.03 4-1.03 5.78 0l16.1 9.29a5.808 5.808 0 012.89 5.01v13.64c0 .68-.55 1.22-1.22 1.22-.68 0-1.22-.55-1.22-1.22V15.71c0-1.19-.64-2.3-1.67-2.89l-16.1-9.29a3.373 3.373 0 00-3.34 0l-16.1 9.29c-1.03.59-1.67 1.7-1.67 2.89V34.3c0 1.19.64 2.3 1.67 2.89l16.1 9.29c1.03.6 2.31.59 3.34 0l4.45-2.57c.58-.34 1.33-.14 1.67.45.34.58.14 1.33-.45 1.67l-4.45 2.57c-.89.51-1.89.77-2.89.77z" class="st2"/><path d="M16.09 26.95c-.12 0-.23-.03-.34-.08a.759.759 0 01-.33-1.01c1.21-2.36 3.32-4.25 5.8-5.18.39-.15.82.05.97.44a.75.75 0 01-.44.97c-2.13.8-3.95 2.43-4.99 4.46-.14.25-.4.4-.67.4zm17.82 0c-.27 0-.53-.15-.67-.41-1.66-3.24-5.1-5.21-8.74-5.04-.4.02-.77-.3-.79-.71-.02-.41.3-.77.71-.79 4.24-.21 8.21 2.09 10.15 5.85.19.37.04.82-.32 1.01-.1.06-.22.09-.34.09z" class="st2"/><path d="M25.23 31.66c-1.52 0-2.94-.94-3.48-2.45-.56-1.57-.48-9.45-.46-11.02 0-.32.21-.6.52-.7.3-.1.64.01.83.27.56.75 5.49 7.41 6.05 8.99.33.93.28 1.93-.15 2.82-.42.89-1.17 1.56-2.1 1.89-.39.13-.81.2-1.21.2zm-2.45-11.19c0 3.38.09 7.41.39 8.23.4 1.14 1.65 1.73 2.79 1.33.55-.19.99-.59 1.24-1.12s.28-1.12.09-1.67c-.3-.82-2.56-4.08-4.51-6.77zm15.43-2.14c-.14 0-.28-.06-.38-.17l-1.86-2.1a.507.507 0 01-.13-.33l.01-8.3c0-.28.22-.5.5-.5s.5.22.5.5l-.01 8.11 1.73 1.96c.18.21.16.52-.04.71a.49.49 0 01-.32.12zm-5.49-5.18c-.28 0-.5-.22-.5-.5V5.43c0-.28.22-.5.5-.5s.5.22.5.5v7.22c0 .28-.22.5-.5.5zm-5.39.65a.5.5 0 01-.37-.16c-.19-.2-.17-.52.03-.71l1.61-1.48v-8.2c0-.28.22-.5.5-.5s.5.22.5.5v8.42c0 .14-.06.27-.16.37l-1.77 1.63c-.1.09-.22.13-.34.13z" class="st2"/><circle cx="38.21" cy="17.83" r="1.32" class="st3"/><circle cx="32.72" cy="12.65" r="1.32" class="st3"/><circle cx="27.33" cy="13.3" r="1.32" class="st3"/><path d="M17.08 43.83c-.28 0-.5-.22-.5-.5v-8.76c0-.28.22-.5.5-.5s.5.22.5.5v8.76c0 .27-.22.5-.5.5zm-3.15-1.69c-.28 0-.5-.22-.5-.5V38.1l-1.02-1.36a.539.539 0 01-.1-.3v-4.06c0-.28.22-.5.5-.5s.5.22.5.5v3.9l1.02 1.36c.06.09.1.19.1.3v3.71a.5.5 0 01-.5.49z" class="st2"/><circle cx="12.81" cy="32.37" r="1.32" class="st3"/><circle cx="17.16" cy="34.27" r="1.32" class="st3"/><path d="M20.24 46.6c-.28 0-.5-.22-.5-.5l-.01-6.07c0-.13.05-.26.15-.35l1.86-1.86c.2-.2.51-.2.71 0s.2.51 0 .71l-1.71 1.71.01 5.86c0 .27-.23.5-.51.5z" class="st2"/><circle cx="22.09" cy="38.17" r="1.32" class="st3"/></g></svg>