<svg xmlns="http://www.w3.org/2000/svg" id="Layer_1" x="0" y="0" version="1.1" viewBox="0 0 50 50" xml:space="preserve"><style>.st2{fill:#031326}</style><path fill="#fcc34f" d="M44.3 23.1l-1.2-2.8 1.2-6-1.1-5.9L5.4 22.2l2.5 13.2z"/><path fill="#fdcf72" d="M43.7 8.9L29.5 1.6 25 4l-2.7-2.4-5.2 1.3L7.9 8l-2.5 5.4 2.5 6.9-3 2.7"/><path d="M43.9 20.1c1.3-1.8 2-3.8 2-6 0-5.4-4.3-9.9-9.7-10.2C35.1 1.7 32.9.3 30.4.3c-2.2 0-4.1 1.1-5.3 2.7C23.9 1.3 22 .3 19.8.3c-2.5 0-4.7 1.4-5.8 3.6-5.6.3-9.9 4.8-9.9 10.2 0 2.1.7 4.2 2 6-1.3 1.2-2 2.9-2 4.7s.8 3.6 2.1 4.8c-.2.8-.3 1.6-.3 2.4 0 5.6 4.6 10.2 10.2 10.2.9 0 1.8-.1 2.7-.4-.1.5-.2.9-.2 1.4 0 3.5 2.9 6.4 6.4 6.4s6.4-2.9 6.4-6.4c0-.5-.1-1-.2-1.4.9.2 1.7.4 2.7.4 5.6 0 10.2-4.6 10.2-10.2 0-.8-.1-1.5-.3-2.3 1.3-1.3 2.1-3 2.1-4.8 0-1.9-.8-3.6-2-4.8zM22 25.3h-1.5v-1.8H22c.1-.2.1-.4.2-.6l-1-1 1.3-1.3 1 1c.2-.1.4-.2.6-.2v-1.5h1.8v1.5c.2.1.4.1.6.2l1-1 1.3 1.3-1 1c.1.2.2.4.2.6h1.5v1.8H28c-.1.2-.1.4-.2.6l1 1-1.3 1.3-1-1c-.2.1-.4.2-.6.2v1.5h-1.8v-1.5c-.2-.1-.4-.1-.6-.2l-1 1-1.3-1.3 1-1c0-.2-.1-.4-.2-.6zm2.5 13.1h1.1V40h-1.1v-1.6zm-2.7 5.3h-1.6v-1.1h1.6v1.1zm.6-2.4l-.8-.8.9-.6.7.7-.8.7zm7.4 2.4h-1.6v-1.1h1.6v1.1zm-3.4-1.2c.1.2.2.4.2.7 0 .9-.7 1.6-1.6 1.6s-1.6-.7-1.6-1.6c0-.9.7-1.6 1.6-1.6.2 0 .5.1.7.2l1.9-1.9.9.6-2.1 2zm15.2-14.3c-.4.3-.6.9-.5 1.4.3.9.4 1.6.4 2.4 0 4.2-3.4 7.7-7.7 7.7-4.2 0-7.5-3.3-7.7-7.5 3.8-.6 6.6-3.8 6.6-7.8 0-4.4-3.5-7.9-7.9-7.9s-7.9 3.5-7.9 7.9c0 3.9 2.9 7.2 6.6 7.8-.1 4.1-3.5 7.5-7.7 7.5S8.1 36.3 8.1 32c0-.8.1-1.5.4-2.4.2-.5 0-1.1-.5-1.4-1.1-.8-1.7-2-1.7-3.4 0-1.1.4-2.1 1.2-2.9 1.8 1.5 4.1 2.4 6.5 2.4.7 0 1.2-.6 1.2-1.2s-.6-1.2-1.2-1.2c-2.1 0-4.1-.9-5.5-2.4-1.4-1.5-2.2-3.3-2.2-5.3 0-4.2 3.4-7.7 7.7-7.7h.4c.5 0 1-.3 1.2-.8.6-1.6 2.1-2.7 3.8-2.7 2.3 0 4.1 1.8 4.1 4.1s-1.8 4.1-4.1 4.1c-.7 0-1.2.6-1.2 1.2s.6 1.2 1.2 1.2c2.2 0 4.1-1.1 5.3-2.7 1.2 1.7 3.1 2.7 5.3 2.7.7 0 1.2-.6 1.2-1.2s-.6-1.2-1.2-1.2c-2.3 0-4.1-1.8-4.1-4.1S27.7 3 30 3c1.7 0 3.2 1.1 3.8 2.7.2.5.6.8 1.2.8h.4c4.2 0 7.7 3.4 7.7 7.7 0 1.9-.8 3.8-2.2 5.3-1.4 1.5-3.4 2.4-5.5 2.4-.7 0-1.2.6-1.2 1.2s.6 1.2 1.2 1.2c2.4 0 4.7-.9 6.5-2.4.8.8 1.2 1.8 1.2 2.9.3 1.3-.4 2.6-1.5 3.4z" class="st2"/><path d="M25 25.7c.7 0 1.3-.6 1.3-1.3 0-.7-.6-1.3-1.3-1.3-.7 0-1.3.6-1.3 1.3s.6 1.3 1.3 1.3z" class="st2"/></svg>