<svg xmlns="http://www.w3.org/2000/svg" id="Layer_1" x="0" y="0" version="1.1" viewBox="0 0 50 50" xml:space="preserve"><style>.st3{fill:#494949}</style><path fill="#00c8e2" d="M6.5 38.4l5.7 3.3L45.9 23l-.1-7.3c0-1.6-.9-3.2-2.3-4L27.3 2.3c-1.4-.8-3.2-.8-4.6 0L6.5 11.6c-1.4.8-2.3 2.3-2.3 4v18.8c0 1.6.8 3.1 2.3 4z"/><path fill="#00dffc" d="M33.9 6.1l-6.6-3.9c-1.4-.8-3.2-.8-4.6 0L6.5 11.6c-1.4.8-2.3 2.3-2.3 4l-.3 7.9 30-17.4z"/><path fill="#444" d="M25 49.6c-1 0-2-.3-2.9-.8L5.8 39.4c-1.8-1-2.9-3-2.9-5.1V15.6c0-2.1 1.1-4 2.9-5.1L22 1.1c1.8-1 4-1 5.8 0L44 10.5c1.8 1 2.9 3 2.9 5.1v13.8c0 .7-.6 1.2-1.2 1.2-.7 0-1.2-.6-1.2-1.2V15.6c0-1.2-.6-2.3-1.7-2.9L26.7 3.3c-1-.6-2.3-.6-3.4 0L7.1 12.7c-1 .6-1.7 1.7-1.7 2.9v18.8c0 1.2.6 2.3 1.7 2.9l16.2 9.4c1 .6 2.3.6 3.4 0l4.5-2.6c.6-.3 1.3-.1 1.7.5.3.6.1 1.3-.5 1.7l-4.5 2.6c-.9.4-1.9.7-2.9.7z"/><path d="M23.4 37.7c-.2 0-.5-.2-.5-.4l-.1-2.7c-1-.2-2-.6-2.9-1.2l-2 1.8c-.2.2-.5.2-.6 0l-2.4-2.4c-.2-.2-.2-.5 0-.6l1.8-2c-.6-.9-1-1.9-1.2-2.9l-2.7-.1c-.2 0-.4-.2-.5-.5v-2h6.5v.2c0 1.7.7 3.2 1.9 4.4 1.2 1.1 2.7 1.8 4.3 1.8h.1c3.4 0 6.1-2.8 6.1-6.2v-.2h6.5v1.7c0 .3-.2.5-.4.5l-2.7.1c-.2 1-.6 2-1.2 2.9l1.8 2c.2.2.2.5 0 .6l-2.4 2.4c-.2.2-.5.2-.6 0l-2-1.8c-.9.6-1.9 1-2.9 1.2l-.1 2.7c0 .2-.2.4-.5.5l-3.3.2z" class="st3"/><path d="M24.3 30.7c-.2 0-.3-.1-.3-.3l-.1-1.1c-.4-.1-.8-.3-1.2-.5l-.8.7c-.1.1-.3.1-.4 0l-1.1-1c-.1-.1-.1-.3 0-.4l.7-.8c-.2-.4-.4-.8-.5-1.2h-1.1c-.2 0-.3-.1-.3-.3v-1h3.1v.2c0 1.4 1.2 2.6 2.6 2.6 1.4 0 2.6-1.2 2.6-2.6v-.2h3.1v.9c0 .2-.1.3-.3.3h-1c-.1.4-.3.8-.5 1.2l.7.8c.1.1.1.3 0 .4l-1 1.1c-.1.1-.3.1-.4 0l-.8-.7c-.4.2-.8.4-1.2.5v1.1c0 .2-.1.3-.3.3h-1.5zm-5-6.4h-6.9V23c0-2.2 1.8-4 4-4h2.3c.8 0 1.3.2 2 .6l.2.1-.2.2c-1 .8-1.4 1.9-1.4 3.3v1.1zm-1.7-11.1c-1.4 0-2.5 1.1-2.5 2.5s1.1 2.5 2.5 2.5 2.5-1.1 2.5-2.5-1.1-2.5-2.5-2.5zm20 11.1h-6.9v-1.2c0-1.3-.5-2.4-1.5-3.3l-.2-.1.2-.1c.6-.4 1.2-.6 2-.6h2.3c2.2 0 4 1.8 4 4v1.3zm-5.1-11.1c-1.4 0-2.5 1.1-2.5 2.5s1.1 2.5 2.5 2.5 2.5-1.1 2.5-2.5-1.1-2.5-2.5-2.5z" class="st3"/><path d="M25 18.6c-1.7 0-3.2-1.4-3.2-3.2s1.4-3.2 3.2-3.2 3.2 1.4 3.2 3.2-1.5 3.2-3.2 3.2zm5.3 5.7H19.6v-1.2c0-2.3 1.9-4.1 4.1-4.1h2.4c2.3 0 4.1 1.9 4.1 4.1v1.2z" class="st3"/></svg>