<svg xmlns="http://www.w3.org/2000/svg" version="1" viewBox="0 0 50 50"><path fill="#DC5E82" d="M44.769 21.485a7.032 7.032 0 00-2.845-.601c-2.777 0-5.158 1.607-6.313 3.934l9.158-3.333zm-10.34 3.763l-2.352-.506-.018-.101c-.825-4.697-4.855-8.005-9.462-8.022l-.036-.006a5.377 5.377 0 00.992-4.179c-.524-2.958-3.344-4.933-6.292-4.409a5.43 5.43 0 00-.625 10.545l-.016.024a9.639 9.639 0 00-3.704 9.427c.129.726.34 1.424.616 2.085l-5.123 2.911a4.858 4.858 0 00-3.382-.642 4.876 4.876 0 00-4.022 5.038l33.424-12.165z"/><path fill="#F56991" d="M16.527 18.57l-.016.024a9.678 9.678 0 00-2.607 2.969l11.911-4.335a9.579 9.579 0 00-3.327-.609l-.036-.006a5.377 5.377 0 00.992-4.179c-.524-2.958-3.344-4.932-6.293-4.409a5.43 5.43 0 00-4.409 6.292 5.42 5.42 0 003.785 4.253z"/><path fill="#031326" d="M41.929 20.136a7.858 7.858 0 00-7.049 4.443l-2.156-.464c-.942-4.38-4.536-7.636-8.896-8.168a6.14 6.14 0 00.468-3.643 6.154 6.154 0 00-2.545-3.993 6.128 6.128 0 00-4.615-1.023c-3.359.595-5.609 3.807-5.016 7.159a6.132 6.132 0 003.115 4.345c-2.503 2.387-3.663 5.869-3.051 9.36.097.544.239 1.087.424 1.621L8.41 32.158a5.627 5.627 0 00-3.508-.521 5.595 5.595 0 00-3.633 2.314 5.594 5.594 0 00-.932 4.206 5.638 5.638 0 006.519 4.566 5.61 5.61 0 004.637-5.838l3.876-2.883a10.462 10.462 0 008.942 2.638c3.766-.66 6.887-3.372 8.1-6.982l1.893.051c.806 3.502 3.977 6.07 7.624 6.07 4.313 0 7.821-3.509 7.821-7.822.001-4.313-3.508-7.821-7.82-7.821zM32.509 28a.438.438 0 00-.344.153l-.106-.003a9.702 9.702 0 00.109-2.623l.046.01a.446.446 0 00.347.372l7.161 1.541a.38.38 0 01.292.448c-.038.177-.205.324-.379.299L32.509 28zM6.596 41.247a4.134 4.134 0 01-4.785-3.35 4.12 4.12 0 011.941-4.256 4.19 4.19 0 011.919-.46c.857 0 1.691.262 2.408.763a4.185 4.185 0 011.732 2.72 4.185 4.185 0 01-.43 2.699 4.1 4.1 0 01-2.785 1.884zM17.727 13.99a.637.637 0 01.548-.714.631.631 0 01.629.318l1.811 3.233c-.886.16-1.73.44-2.519.821l-.469-3.658zm1.652 13.819a.472.472 0 01.353-.043c.12.033.219.11.277.212a.472.472 0 01-.123.608l-9.437 7.022a5.044 5.044 0 00-1.326-1.968l10.256-5.831zm1.044 1.499a1.374 1.374 0 00.371-1.769 1.346 1.346 0 00-.824-.64 1.36 1.36 0 00-1.035.128l-4.709 2.677a8.984 8.984 0 01-.502-1.733 8.819 8.819 0 011.471-6.627 8.794 8.794 0 015.725-3.643 8.788 8.788 0 016.615 1.464 8.801 8.801 0 013.646 5.723 8.807 8.807 0 01-1.466 6.63 8.796 8.796 0 01-5.721 3.64 8.866 8.866 0 01-7.942-2.599l4.371-3.251zm-6.828-15.121a4.645 4.645 0 01.774-3.498 4.67 4.67 0 013.028-1.926 4.636 4.636 0 013.495.775 4.666 4.666 0 011.93 3.03 4.655 4.655 0 01-.855 3.598l-.343.485c-.009-.031-.013-.064-.03-.093l-1.906-3.404a1.527 1.527 0 00-2.547-.183 1.53 1.53 0 00-.305 1.133l.493 3.852c.002.015.01.027.013.042l-.485-.145a4.649 4.649 0 01-3.262-3.666zm28.334 20.094c-3.08 0-5.737-2.268-6.235-5.294l3.914.109.042.001c.596 0 1.114-.418 1.242-1.006a1.28 1.28 0 00-.977-1.518l-3.9-.839.01-.027a6.346 6.346 0 015.904-4.073c3.487 0 6.324 2.836 6.324 6.324s-2.838 6.323-6.324 6.323z"/></svg>