<svg xmlns="http://www.w3.org/2000/svg" id="Layer_1" x="0" y="0" version="1.1" viewBox="0 0 50 50" xml:space="preserve"><style>.st0{fill:#afe55d}.st2{fill:#031326}</style><path d="M35.6 37.9l6.4 7.2 1.5-2.9-5.6-6.3z" class="st0"/><path d="M4.2 28.2L2.5 42.3l29.1-.9 2 .7 2.7-1.2 4.5 3.2.2-7.7 1-2.8-4.1-3.6-1.2-14.1z" class="st0"/><path fill="#c3ff68" d="M36.5 12.5H6.6L4.5 28.8 37 17z"/><path d="M40.7 43.1c-.1 0-.1 0-.2-.1L36 38.7c-.1-.1-.1-.3 0-.4.1-.1.3-.1.4 0l4.5 4.3c.1.1.1.3 0 .4 0 .1-.1.1-.2.1z" class="st2"/><path d="M33.1 44.8L28.3 29l17.4 4.4-5.2 2c-.2.1-.4 0-.5-.2-.1-.2 0-.4.2-.5l3-1.2L29.4 30l3.9 12.6L35 39c.1-.2.3-.3.5-.2.2.1.3.3.2.5l-2.6 5.5z" class="st2"/><path d="M43.6 45.3l-8.4-8.4-2 4.8c-.2-.3-.6-.4-1-.4H3.8l3.4-27.1h5v4.3c0 .7.6 1.2 1.2 1.2s1.2-.6 1.2-1.2v-4.3H27v4.3c0 .7.6 1.2 1.2 1.2s1.2-.6 1.2-1.2v-4.3h5L36.8 32c.1.5.4.9.9 1l3.8 1.1-4.6 2 6.6 6.6c.2.2.6.4.9.4s.6-.1.9-.4c.5-.5.5-1.3 0-1.8l-4-4 7.7-3.3-9.8-2.7-2.4-19.1h-7.2V9.2c0-4.7-3.9-8.6-8.6-8.6-4.7 0-8.6 3.9-8.6 8.6v2.4H5L1 43.7h30.4l1.5 5.3 3.3-7.7 5.8 5.8 2.1 2c.2.2.6.3.9.3.3 0 .7-.1.9-.4.5-.5.5-1.3 0-1.8l-2.3-1.9zM14.7 9.2c0-3.4 2.8-6.1 6.1-6.1 3.4 0 6.1 2.8 6.1 6.1v2.4H14.7V9.2z" class="st2"/><path d="M26 27.4c-.2 0-.4-.1-.5-.2L23.2 25c-.3-.3-.3-.8 0-1.1s.8-.3 1.1 0l2.2 2.2c.3.3.3.8 0 1.1-.1.2-.3.2-.5.2zm6.8-.6c-.4 0-.7-.3-.7-.6l-.7-4.9c-.1-.4.2-.8.6-.9.4-.1.8.2.9.6l.7 4.9c.1.4-.2.8-.6.9h-.2zM26.4 35h-.1l-4.9-.8c-.4-.1-.7-.4-.6-.9.1-.4.5-.7.9-.6l4.9.8c.4.1.7.4.6.9-.1.4-.4.6-.8.6z" class="st2"/></svg>