<svg xmlns="http://www.w3.org/2000/svg" id="Layer_1" x="0" y="0" version="1.1" viewBox="0 0 50 50" xml:space="preserve"><style>.st2{fill:#494949}</style><path fill="#71bac0" d="M40.1 15.3c-.9 1-1.7 2-2.6 3 .6.9 1.3 1.8 1.9 2.8l-4.5 1.6-19.3 7.1-10.2 3.7-3 1.1c-.3-1.7.1-3.5 1.3-5 2.7-1.9 5.4-3.7 8.1-5.6l3.5-5.6.4-.6 12.8-4.7 4.5-1.6c1.4-.3 2.7-.6 4.1-.9.9 1.6 1.9 3.1 3 4.7z"/><path fill="#7ed0d6" d="M33.1 11.9l-4.5 1.6-13.4 4.9.4-.6 7.8-12.3 1.9-1.4s1.7-1.4 2.9.7l4.6 6.7c.1.2.2.3.3.4z"/><path d="M38.6 17.8l.1-.1 1.7-2.1c.1-.2.1-.4 0-.6l-3.1-4.6c-.1-.2-.3-.3-.5-.2-1 .2-1.9.5-2.9.7-1.5-2.2-3.1-4.4-4.6-6.6-.7-1.2-1.6-1.6-2.3-1.7-1.4-.2-2.4.6-2.5.7l-1.9 1.4-.3.3-11.5 18.2c-2.7 1.9-5.5 3.7-8.2 5.6-.4.5-2.1 2.9-1.5 6 .1.6.4 1.9 1.5 3.2 1.4 1.7 3.5 2.6 5.6 2.6.9 0 1.8-.2 2.7-.5l3.8 5.3c.2.3.5.8.9 1.2.3.3 1.4 1.3 3 1.4 1.7.1 2.9-1 3.1-1.2.1-.1 1.4-.9 1.7-2.5.2-1.1-.1-2.2-.9-3.4l-.7-1.1 2.6-1.7c.3-.2.5-.5.5-.8s0-.7-.3-1l-1.7-2.2L40 30.8c.2 0 .3-.1.5-.2 0 0 1.1-.8 2.4-1.7 1.7-1.1 1.3-3.1.6-4.2l-4.9-6.9zm-1.9-6.6l2.7 4-1.3 1.8-3.5-5.2 2.1-.6zM4.6 36.5c-.5-.6-.8-1.3-1-2.1-.3-1.4.1-2.7.9-3.8l7.5-5.2 5.1 7.6-1.1.8-5.3 3.7-.3.2c-2.1 1-4.5.5-5.8-1.2zm16.3 7.3c-.1.6-.6.9-.7 1-.7.6-1.4.8-2 .7-.2-.1-.6-.3-.9-.5-.3-.3-.5-.5-.6-.8L13 38.9l3.3-2.3 4.1 5.8c.4.5.6 1 .5 1.4zm.9-7l-1.5 1-1.9-2.7.3-.2 1.4-.3 1.7 2.2zM41.3 27c-.8.6-1.6 1.1-2 1.4l-11-16c-.2-.2-.5-.3-.7-.1s-.3.5-.1.7l10.8 15.7L18 32.5l-5.2-7.8L23.9 7.2l2 3c.1.1.3.2.4.2s.2 0 .3-.1c.2-.2.3-.5.1-.7l-2.2-3.3 1.6-1.2s.3-.2.5-.2.4.2.6.6l14 20.5c.1.2.5.8.1 1zM37.8 8c.3 0 .5-.2.6-.4l1-5c.1-.3-.1-.5-.4-.6-.3-.1-.5.1-.6.4l-1 5c0 .3.2.6.4.6zm11.1-2.4c-.2-.2-.5-.3-.7-.1l-6.3 4.2c-.2.2-.3.5-.1.7.1.1.3.2.4.2.1 0 .2 0 .3-.1l6.3-4.2c.2-.2.3-.5.1-.7zm-.7 9.4L43 14c-.3-.1-.5.1-.6.4-.1.3.1.5.4.6l5.2 1h.1c.2 0 .4-.2.5-.4 0-.3-.1-.6-.4-.6z" class="st2"/><path d="M12.1 33.8c-.2-.2-.5-.3-.7-.1l-2.2 1.6c-1.5.6-2.3-.5-2.4-.7l-1-1.5c-.2-.2-.5-.3-.8-.1-.2.2-.3.5-.1.7l1 1.5c.1.1 1 1.3 2.4 1.3.6 0 1.1-.2 1.4-.4l2.3-1.7c.2-.1.2-.4.1-.6zm1.1-.1c.4-.1.7-.4.6-.8-.1-.4-.4-.7-.8-.6-.4.1-.7.4-.6.8s.4.6.8.6z" class="st2"/></svg>