<svg xmlns="http://www.w3.org/2000/svg" viewBox="0 0 50 50"><path fill="#00dffc" d="M35.92 9.72H9.3c-1 0-3.82 1.72-3.82 2.72v13.83c0 .06.06.1.12.08l35.73-12.71c.04-.01 0 2.57 0 0 0-1.01-4.4-3.92-5.41-3.92z"/><path fill="#00c8e2" d="M5.48 26.45v14.53c0 3.15 3.09 3.64 5.09 4.65l33.88-12.06c.04-.01.06-.05.06-.08V17.98c0-2.67-2.65-4.54-5.16-3.64L5.54 26.37c-.03.01-.06.05-.06.08z"/><path fill="none" stroke="#444" stroke-linecap="round" stroke-miterlimit="10" stroke-width="2.5" d="M35.79 48.39H13.5a3.82 3.82 0 01-3.82-3.82V18.19a3.82 3.82 0 013.82-3.82h26.62a3.82 3.82 0 013.82 3.82v22.36" clip-rule="evenodd"/><path fill="none" stroke="#444" stroke-linecap="round" stroke-linejoin="round" stroke-miterlimit="10" stroke-width="2.5" d="M15.14 11.18c0-5.29 4.29-9.57 9.57-9.57s9.57 4.29 9.57 9.57" clip-rule="evenodd"/><path fill="none" stroke="#444" stroke-linecap="round" stroke-miterlimit="10" stroke-width="2" d="M10.99 47.45l-3.79-3.5c-1.04-1.06-1.7-2.47-1.72-3.96V13.54A3.82 3.82 0 019.3 9.72h26.62s1.65 0 3.21 1.56l3.76 4.06M6.58 11.18l3.99 4.53" clip-rule="evenodd"/><circle cx="33.53" cy="24.84" r="10.47" fill="none" stroke="#444" stroke-miterlimit="10" stroke-width="1.5"/><path fill="#444" d="M25.34 36.4l-.44-.36.9-1.08.2.17c.36.3.88.25 1.18-.11l.55-.66a.83.83 0 00-.11-1.18l-1.75-1.46a.83.83 0 00-1.18.11l-.55.66c-.3.36-.25.88.11 1.18l.2.17-.9 1.08-.44-.36a.83.83 0 00-1.18.11l-6.26 7.51c-.3.36-.25.88.11 1.18L18 45.2c.36.3.88.25 1.18-.11l6.26-7.51a.84.84 0 00-.1-1.18z"/><path fill="none" stroke="#444" stroke-linecap="round" stroke-linejoin="round" stroke-miterlimit="10" stroke-width=".5" d="M9.68 25.09h17.08l1.51 4.87 3.09-6.42 1.84 3.58 3.32-7.4 3.22 7.72"/></svg>