<svg xmlns="http://www.w3.org/2000/svg" id="Camada_3" x="0" y="0" version="1.1" viewBox="0 0 50 50" xml:space="preserve"><style>.st2{fill:none;stroke:#444;stroke-width:2.5;stroke-linecap:round;stroke-linejoin:round;stroke-miterlimit:10}.st4{stroke-width:.25}.st4,.st6{fill:none;stroke:#444;stroke-linecap:round;stroke-linejoin:round;stroke-miterlimit:10}</style><path fill="#fdce74" d="M41.4 7.2H9l-7.1 8.6c-.4.8 4.1 2.4 4.6 3.2v2.7L44 8.4l-2.6-1.2z"/><path fill="#fbc14f" d="M6.5 22.6V31c0 .5-.3 1-.9 1.2l-2.3.8c-.6.2-1 .9-.8 1.6.4 1.1 1.6 2.1 2.7 2.1l13.7.6c.2 0 .3 0 .5-.1l23.7-8.4c.5-.2.5-9.5.5-10l4.7-3.1c0-.9-5.3-7.1-6.1-6.8L7.4 21.4c-.5.2-.9.7-.9 1.2z"/><path d="M43.8 37h2c1.5 0 2.1-1.1 2.3-2.2.2-1.1 0-2.2 0-2.2h-4.5m-36.8.1H2.4S1.7 37 4.7 37h27.7" class="st2"/><path fill="none" stroke="#444" stroke-linejoin="round" stroke-miterlimit="10" stroke-width="2.5" d="M7.2 17.5v15.6"/><path d="M43.5 32.7V18.4s5 .4 5.1-4l-5.6-6c-.6-.7-1.5-1.1-2.4-1.2h-31c-.8.2-1.6.6-2.2 1.2l-5.1 5.4c-.5.5-.7 1.3-.4 2 1.1 2.9 5.3 2.7 5.3 2.7" class="st2"/><path d="M9 16.3V32h32.4V16.9" class="st4"/><path fill="none" stroke="#444" stroke-linecap="round" stroke-linejoin="round" stroke-miterlimit="10" stroke-width=".75" d="M22.2 34.9h6.3"/><path d="M8.6 8.4l-6.3 6.5h22.8V8.6zm-6.3 6.5s.6 2.7 3.8 2.7c2.4 0 3.2-1 3.8-2.7m7.6 0s.6 2.7 3.8 2.7c2.4 0 3.2-1 3.8-2.7" class="st6"/><path d="M14 8.6l-4.1 6.3s.6 2.7 3.8 2.7c2.4 0 3.2-1 3.8-2.7l2.4-6.2m21.8-.3l6.2 6.5H25.1V8.6zm6.2 6.6s-.6 2.7-3.8 2.7c-2.4 0-3.2-1-3.8-2.7m-7.6 0s-.6 2.7-3.8 2.7c-2.4 0-3.2-1-3.8-2.7" class="st6"/><path d="M36.2 8.7l4.1 6.3s-.6 2.7-3.8 2.7c-2.4 0-3.2-1-3.8-2.7l-2.4-6.2" class="st6"/><path d="M23.3 32c-.5-1.1-.7-2.3-.7-3.6 0-4.9 4-9 9-9s9 4 9 9c0 1.3-.3 2.5-.7 3.6" class="st4"/><path d="M26.9 31.9c-.7-1-1.2-2.2-1.2-3.5 0-3.2 2.6-5.8 5.8-5.8s5.8 2.6 5.8 5.8c0 1.3-.5 2.6-1.2 3.6" class="st4"/><circle cx="31.5" cy="28.4" r="2.3" class="st4"/><path d="M14.2 22.3l17.5 6.1M20 24.3l-.5-2.4-5.3-1.6.6 2.2-1.7 1.6 5 1.6z" class="st4"/><path fill="none" stroke="#444" stroke-linecap="round" stroke-linejoin="round" stroke-miterlimit="10" stroke-width="1.2" d="M2.6 33.4h46"/><path d="M6.5 9v1.5" class="st6"/></svg>