<svg xmlns="http://www.w3.org/2000/svg" id="Camada_3" x="0" y="0" version="1.1" viewBox="0 0 50 50" xml:space="preserve"><style>.st0{fill:#71bac0}.st1{fill:#7ed0d6}.st2{fill:#444}.st3,.st4{fill:none;stroke:#444;stroke-width:2;stroke-miterlimit:10}.st4{stroke-width:2.5;stroke-linecap:round;stroke-linejoin:round}.st5{stroke-width:.75}.st5,.st6,.st7{fill:none;stroke:#444;stroke-linecap:round;stroke-linejoin:round;stroke-miterlimit:10}.st7{stroke-width:2}</style><path d="M305.96 306.54l-23.04 8.42-9.45.12-4.07-.96-1.78-.69-.01-16.17 37.58-8.5 1.26 5.71" class="st0"/><path d="M267.17 295.22l.09 4.38-.16 3.7 38.58-14.11-5.97-1.41-8.38.62-4.95-.19z" class="st1"/><path d="M300.4 312.77a9.28 9.28 0 001.19-4.54c0-5.15-4.19-9.33-9.33-9.33-5.15 0-9.33 4.19-9.33 9.33 0 5.15 4.19 9.33 9.33 9.33 1.99 0 3.84-.63 5.36-1.7l5.76 5.76a2.078 2.078 0 102.94-2.94l-5.92-5.91zm-16.15-4.53c0-4.41 3.59-8 8-8s8 3.59 8 8-3.59 8-8 8-8-3.59-8-8zm20.59 12.66a.75.75 0 01-.53-.22l-5.67-5.67c.36-.34.7-.71 1-1.11l5.72 5.72c.14.14.22.33.22.53 0 .42-.33.75-.74.75z" class="st2"/><circle cx="292.25" cy="308.24" r="7.46" class="st3"/><path d="M280.25 321.56h13.33m-2.05-2.23l.72 2.23h-10.67l1.65-6.66h-13.65s-2.15-.42-2.15-2.4v-21.9s.05-2.4 2.81-2.4h33.33s2.61-.01 2.61 2.7v20.7s-.07.86-.61 1.67" class="st4"/><path d="M280.94 308.11v-5.7s-.18-.96-1.41-.96c-1.39 0-1.47.93-1.47.93v5.51" class="st2"/><path d="M269.84 308.24h12.11" class="st5"/><path d="M272.66 307.88v-4.18s0-.79 1.46-.79 1.46.88 1.46.88v4.09m10.8-8.31v-1.61s0-.88-1.46-.88-1.46.79-1.46.79v5s.64-1.54 2.93-3.1v-.2zm5.33-2.04v-4.09s0-.88-1.46-.88-1.46.79-1.46.79v5.19s1.97-.61 2.93-.6v-.41zm5.34 1.19v-2.1s0-.88-1.46-.88-1.46.79-1.46.79v1.57s1.88.38 2.93 1.01c1.05.63 0 0 0 0v-.39zm5.33 7.18v-12.76s0-.88-1.46-.88-1.46.79-1.46.79v7.82c-.01 0 2.45 1.67 2.92 5.03z" class="st2"/><path d="M267.44 310.99h14.14m20.67 0h3.95" class="st6"/><path d="M287.83 307.06s.1-1.1 1-2.09c.51-.57 1.48-1.23 2.68-1.21m1.37.05s.48-.01.97.26" class="st5"/><path d="M298.22 314.45l6.62 6.45.74-.75-6.46-6.24" class="st7"/><path d="M47.52 26.82L20.14 36.83l-11.24.14-4.83-1.14-2.11-.82-.01-19.22L46.61 5.68l1.5 6.8" class="st0"/><path d="M1.42 13.37l.1 5.2-.18 4.4L47.19 6.2 40.1 4.53l-9.96.73-5.89-.23z" class="st1"/><path d="M40.91 34.23c.89-1.6 1.41-3.44 1.41-5.39 0-6.12-4.98-11.09-11.09-11.09-6.12 0-11.09 4.98-11.09 11.09s4.98 11.09 11.09 11.09c2.37 0 4.56-.75 6.37-2.02l6.84 6.84a2.475 2.475 0 003.5-3.5l-7.03-7.02zm-19.19-5.4c0-5.24 4.27-9.51 9.51-9.51s9.51 4.27 9.51 9.51-4.27 9.51-9.51 9.51-9.51-4.26-9.51-9.51zm24.47 15.06c-.24 0-.46-.09-.63-.26l-6.73-6.73c.43-.41.83-.85 1.19-1.32l6.8 6.8c.17.17.26.39.26.63 0 .48-.4.88-.89.88z" class="st2"/><circle cx="31.23" cy="28.83" r="8.87" class="st3"/><path d="M16.97 44.67h15.84m-2.44-2.65l.86 2.65H18.55l1.96-7.92H4.29s-2.55-.5-2.55-2.85V7.87s.06-2.85 3.34-2.85H44.7s3.11-.01 3.11 3.21v24.6s-.08 1.02-.73 1.99" class="st4"/><path d="M17.78 28.68v-6.77s-.22-1.14-1.68-1.14c-1.65-.01-1.75 1.11-1.75 1.11v6.54" class="st2"/><path d="M4.59 28.83h14.4" class="st5"/><path d="M7.94 28.41v-4.97s0-.94 1.74-.94 1.74 1.05 1.74 1.05v4.87m12.83-9.89v-1.91s0-1.05-1.74-1.05-1.74.94-1.74.94v5.94s.76-1.83 3.48-3.69v-.23zm6.34-2.42v-4.87s0-1.05-1.74-1.05-1.74.94-1.74.94v6.17s2.35-.72 3.48-.71v-.48zm6.34 1.42v-2.49s0-1.05-1.74-1.05-1.74.94-1.74.94v1.86s2.24.45 3.48 1.2c1.24.75 0 0 0 0v-.46zm6.34 8.53V10.89s0-1.05-1.74-1.05-1.74.94-1.74.94v9.3s2.92 1.99 3.48 5.98z" class="st2"/><path d="M1.74 32.11h16.81m24.56 0h4.7" class="st6"/><path d="M25.97 27.44s.12-1.31 1.19-2.49c.61-.68 1.75-1.46 3.19-1.44m1.63.06s.57-.01 1.15.31" class="st5"/><path d="M38.32 36.23l7.87 7.66.89-.89-7.69-7.42" class="st7"/></svg>