<svg xmlns="http://www.w3.org/2000/svg" id="Layer_1" x="0" y="0" version="1.1" viewBox="0 0 50 50" xml:space="preserve"><style>.st2{fill:#031326}</style><path fill="#ecc158" d="M45.1 28.1L45 13.2l-7.7-4.4L4.9 20.6v7.5l3.4 5.7-1.8 2.8 1.6.1L9 38l1.8.1-1 1.4h1.9l.8 1.6 1.9 1 28.5-10.4z"/><path fill="#f0cd77" d="M25 1.7L4.9 13.3v7.3L37.3 8.8z"/><path d="M25.1 49.7L11.6 42l-.6-1.2H7.5l1-1.5h-.1L7.5 38l-3.1-.1 2.5-4-3.2-5.4v-16L25 .3l21.2 12.2.1 15.9-3.1 5.3 2.2 4-2.9.1-1.7 3.2-1.4-.6-.7 1.3-13.6 8zm-11.6-9.5l11.6 6.6 11.8-6.9 1.5-2.7 1.4.6 1.3-2.4h.3l-1-1.8 3.5-5.9-.1-13.8L25 3.2 6.2 14v13.7l3.6 6.1-1 1.7.9 1.3 3.4.1-.9 1.4h.3l1 1.9z" class="st2"/><path d="M33.6 29.4l-4.4-2.5-4.3 2.5-4.3-2.5-4.4 2.5v5.1l4.4 2.4.1 5.2 2.2 1.2 2.1-1.2 2.3 1.3 2.1-1.2.1-5.1 4.4-2.5-.3-5.2zm-11.5 5h-2.8l-1.4-2.5 1.4-2.5h2.8l1.4 2.5-1.4 2.5zm8.6 0h-2.8l-1.4-2.5 1.4-2.5h2.8l1.4 2.5-1.4 2.5z" class="st2"/></svg>