<svg xmlns="http://www.w3.org/2000/svg" id="Layer_1" x="0" y="0" version="1.1" viewBox="0 0 50 50" xml:space="preserve"><style>.st3{fill:#031326}</style><path fill="#e56060" d="M48.4 25.6l.4 4.4L1.2 47.4l.1-9.3.4-5.4 47.4-17.3-.7 3.9z"/><path fill="#ff6b6b" d="M48.4 8.5l-.6 8L1.3 33.4V23.3l.3-4.5L48.5 1.7z"/><path fill="none" stroke="#031326" stroke-linecap="round" stroke-linejoin="round" stroke-miterlimit="10" stroke-width="2.5" d="M32.8 48.2H1.7V1.9h46.5v35.9"/><path d="M14.3 26.2c.1.8 1.6 5 5.9 8.3-.5.3-1 .4-1.5.4-2.2 0-4.8-1.6-6.8-4.3-1.5-2-2.5-4.3-2.9-6.6l3.2 1.1-3.5-2.9c-.2-2-.1-3.9.3-5.4 1.3 2.5 3.5 3.9 5.6 5.2 1 .6 2 1.2 2.9 1.9l1.3 4.3.2-2.9c1.7 1.8 3.2 4.2 2.8 6.6.2.2 1.1.8 1.5 1 1-3.3-.8-6.5-3.2-9-1.4-1.5-3-2.4-4.6-3.4-2.6-1.6-4.9-2.9-5.6-6.3l-.5-2L8.3 14c-2.3 3.9-2 12 2.2 17.5 2.4 3.1 5.4 5 8.2 5 1.3 0 2.2-.4 3-1.1 2.5 1.5 4.7 2.1 7 2.1-2.4-1-7.5-2.7-14.4-11.3z" class="st3"/><path d="M21.5 37.6c2.3 0 4.5-.6 7-2.1.8.7 1.7 1.1 3 1.1 2.7 0 5.8-1.9 8.2-5 4.2-5.5 4.5-13.6 2.2-17.5l-1.1-1.8-.5 2c-.8 3.3-3 4.7-5.6 6.3-1.5.9-3.1 1.9-4.6 3.4-2.4 2.5-4.2 5.7-3.2 9l1.5-1c-.4-2.5 1-4.8 2.8-6.6l.2 2.9 1.3-4.3c.9-.7 1.9-1.3 2.9-1.9 2.1-1.3 4.4-2.6 5.6-5.2.4 1.5.5 3.4.3 5.4L38 25.2l3.2-1.1c-.5 2.3-1.4 4.6-2.9 6.6-2.1 2.7-4.6 4.3-6.8 4.3-.5 0-1.1-.1-1.5-.4 4.3-3.3 5.7-7.5 5.9-8.3-7.1 8.5-12.2 10.2-14.4 11.3z" class="st3"/></svg>