<svg xmlns="http://www.w3.org/2000/svg" id="Layer_1" x="0" y="0" version="1.1" viewBox="0 0 50 50" xml:space="preserve"><style>.st3{fill:none;stroke:#494949;stroke-linecap:round;stroke-linejoin:round;stroke-miterlimit:10}</style><path fill="#fcc34f" d="M48.4 26l.4 4.3-47 17.2.1-9.1.3-5.4L49 15.9l-.6 3.8z"/><path fill="#fdcf72" d="M48.4 9.1l-.6 7.8L1.9 33.8V23.7l.3-4.5L48.5 2.4z"/><path fill="#444" d="M36.9 49.4H1.8c-.7 0-1.2-.6-1.2-1.2V1.8c0-.7.6-1.2 1.2-1.2h46.5c.7 0 1.2.6 1.2 1.2V37c0 .7-.6 1.2-1.2 1.2S47 37.8 47 37V3.1H3v43.7h33.9c.7 0 1.2.6 1.2 1.2s-.6 1.4-1.2 1.4z"/><path d="M33.3 28.4l2 2c.8.8.8 2.1 0 2.9-.8.8-2.1.8-2.9 0l-2-2m-2.8 2.8l.9.9c.8.8.8 2.1 0 2.8-.4.4-.9.6-1.4.6m-15-14.7v-3.1l-2-2 7.2-7.3 1.5 1.6h2.6m2.7 23.9c.8-.8.8-2.1 0-2.9s-2.1-.8-2.9 0c-.3.4-.7.7-1 1.1-.8.8-.8 2.1 0 2.8.8.8 2.1.8 2.8 0 .4-.3.7-.7 1.1-1zm-5.9-5.6c.9-.9.9-2.2.1-3s-2.1-.7-3 .1c-.4.4-.7.8-1.1 1.2-.9.9-.9 2.2-.1 3 .8.8 2.1.7 3-.1.4-.4.7-.8 1.1-1.2z" class="st3"/><path d="M21.8 33.3c.9-.9 1.1-2.3.4-3s-2.1-.6-3 .4l-.6.6-.1.1-.1.1-.6.6-.2.2-.1.1-.3.3c-.9.9-1.1 2.3-.3 3 .7.7 2.1.6 3-.3.6-.7 1.3-1.4 1.9-2.1zm-7.4-4l-.3.3c-.8.8-2 .8-2.8 0l-.1-.1c-.7-.8-.7-1.9 0-2.7l.3-.3c.8-.8 2-.8 2.8 0 .8.7.9 2 .1 2.8zM32 32.9c.8.8.8 2.1 0 2.8-.8.8-2.1.8-2.8 0l-.7-.7m6.2-5.2c.8.8 2 .8 2.8 0l.1-.1c.7-.8.7-1.9 0-2.7l-6.5-6.7" class="st3"/><path d="M37.9 23.7v-3.1l2.1-2.1-7.2-7.2-1.5 1.5h-3.4c-1.6 0-3.2.7-4.4 1.8l-4.7 4.9c-.7.7-.7 1.8 0 2.5.6.6 1.5.7 2.2.2l5.1-3.3c1.7 1.9 4.6 2.1 6.5.4.2-.1.3-.3.5-.5" class="st3"/></svg>