<svg xmlns="http://www.w3.org/2000/svg" id="Layer_1" x="0" y="0" version="1.1" viewBox="0 0 50 50" xml:space="preserve"><style>.st2{fill:#031326}</style><path fill="#a475ef" d="M47.59 22.7l.05 4.29L1.53 43.48l-.48-12.75-.03-3.99L47.58 9.79z"/><path fill="#bf94f7" d="M48.04 7.2v3.51L1.61 27.69l.23-7.32V16.4L48.06 1.53z"/><path d="M48.26 49.48H32.2a1.25 1.25 0 010-2.5h14.81V3.42H3.14v43.56h3.09a1.25 1.25 0 010 2.5H1.89c-.69 0-1.25-.56-1.25-1.25V2.17c0-.69.56-1.25 1.25-1.25h46.37c.69 0 1.25.56 1.25 1.25v46.06c0 .69-.56 1.25-1.25 1.25z" class="st2"/><path d="M37.44 18.86v3.17a.781.781 0 01-1.56 0v-3.17c0-1.9-1.54-3.44-3.44-3.44h-4.45l2.89 2.89c.3.3.3.8 0 1.1-.16.16-.35.23-.55.23-.2 0-.4-.07-.55-.23l-4.22-4.22a.764.764 0 01-.23-.55c0-.21.08-.41.23-.55l4.22-4.22c.3-.31.8-.31 1.1 0 .3.3.3.79 0 1.1l-2.89 2.89h4.45c2.75 0 5 2.24 5 5zm-12.67 16.9a.765.765 0 01-.23.55l-4.22 4.22c-.16.16-.35.23-.55.23s-.4-.07-.55-.23c-.3-.3-.3-.79 0-1.1l2.89-2.89h-4.45c-2.75 0-5-2.24-5-5v-3.17a.781.781 0 011.56 0v3.17c0 1.9 1.54 3.44 3.44 3.44h4.45l-2.89-2.89c-.3-.3-.3-.8 0-1.1.3-.3.8-.3 1.1 0l4.22 4.22c.07.07.13.16.17.25.04.09.06.19.06.3zm-2.89-11.89H9.21c-.43 0-.78-.35-.78-.78v-1.05c0-1.01.54-1.97 1.41-2.49 1.12-.67 3.03-1.47 5.71-1.47 2.65 0 4.56.8 5.69 1.47.88.52 1.42 1.47 1.42 2.49v1.04c0 .44-.35.79-.78.79zM9.99 22.31H21.1v-.26c0-.48-.24-.91-.65-1.15-.97-.57-2.6-1.26-4.9-1.26-2.33 0-3.95.68-4.91 1.25-.41.24-.65.67-.65 1.14v.28zm5.55-5.83c-2.18 0-3.95-1.77-3.95-3.95s1.77-3.95 3.95-3.95 3.95 1.77 3.95 3.95-1.77 3.95-3.95 3.95zm0-6.33a2.39 2.39 0 100 4.78 2.39 2.39 0 000-4.78zm25.34 31.67H28.21c-.43 0-.78-.35-.78-.78v-1.05c0-1.01.54-1.97 1.41-2.49 1.12-.67 3.02-1.47 5.71-1.47 2.65 0 4.56.8 5.7 1.47.88.52 1.42 1.47 1.42 2.49v1.04c-.01.44-.36.79-.79.79zm-11.89-1.57H40.1V40c0-.48-.25-.91-.65-1.15-.97-.57-2.6-1.26-4.9-1.26-2.32 0-3.95.68-4.9 1.25-.41.24-.65.67-.65 1.14v.27zm5.56-5.82c-2.18 0-3.95-1.77-3.95-3.95s1.77-3.95 3.95-3.95 3.95 1.77 3.95 3.95-1.78 3.95-3.95 3.95zm0-6.34c-1.31 0-2.39 1.07-2.39 2.39 0 1.31 1.07 2.39 2.39 2.39a2.39 2.39 0 002.39-2.39 2.403 2.403 0 00-2.39-2.39z" class="st2"/></svg>