<svg xmlns="http://www.w3.org/2000/svg" id="Layer_1" x="0" y="0" version="1.1" viewBox="0 0 50 50" xml:space="preserve"><style>.st3{fill:none;stroke:#031326;stroke-linecap:round;stroke-linejoin:round;stroke-miterlimit:10}</style><path fill="#dc5e82" d="M46 27.2L41.6 29l1.8 3.5-31.6 11.6 1-8L9 31.3l34-12.9 3.3 6.6z"/><path fill="#f56991" d="M42.1 11.6l-.1 7.7-33.1 12-4.3-8-.7-4.5L38.2 6.6l1.7 1.9z"/><path fill="#031326" d="M47.2 25v2.4c0 .5-.3.9-.7 1l-3.6 1.2.9 1.3c.1.2.2.4.2.6V39c0 .8-.2 1.5-.5 2.2-.6 1.4-1.7 2.6-3.1 3.1-1.4.6-3 .6-4.5 0l-2.5-1v5.3c0 .6-.5 1.1-1.1 1.1H24c-.5 0-.9-.5-.9-1s.4-1 .9-1h7.1v-5.1l-4.5-1.9.8-2 9.1 3.8c.5.2.9.3 1.4.3 2 0 3.7-1.7 3.7-3.7V32l-1.4-2.2c-.1-.1-.1-.2-.1-.2-.2-.6.1-1.2.7-1.4l4.2-1.4v-1.4l-3.9-7.1c-.2-.3-.2-.7 0-1l.6-1.3c.5-.9.4-2-.1-2.9C38 6.5 31.1 2.5 23.7 2.5h-3.1A15.663 15.663 0 007.7 27.1l6 8.7c.2.2.2.5.2.8l-1.5 11h3.5c.6 0 1.1.5 1.1 1.1 0 .6-.5 1.1-1 1.1h-5c-.5-.1-.9-.6-.9-1.2l1.6-11.8-5.8-8.4c-2.1-3-3.1-6.5-3.1-10.1C2.8 8.5 10.8.5 20.6.5h3.1C31.9.5 39.6 5 43.6 12.1c.8 1.5.9 3.3.1 4.9l-.4.8 3.8 6.8c.1 0 .1.2.1.4z"/><path d="M31.1 14.6l-7 7-4.1-4-4 4" class="st3"/><path d="M25.1 14.6h6v6" class="st3"/></svg>