<svg xmlns="http://www.w3.org/2000/svg" id="Camada_1" x="0" y="0" version="1.1" viewBox="0 0 42 48" xml:space="preserve"><style>.st2{fill:#031326}</style><path fill="#a475ef" d="M40.1 27.8l.4 3.9L1.4 45.9v-8.1l.2-4.7 38.9-14.2-.5 3.3z"/><path fill="#bf94f7" d="M39.8 12.9l-.4 6.9L1.3 33.7l-.2-8.8.2-3.9L39.7 6.9z"/><path d="M40.5 47.8h-39c-.7 0-1.3-.6-1.3-1.3V14c0-.7.6-1.3 1.3-1.3s1.3.6 1.3 1.3v31.3h36.5V3.9H9c-.7 0-1.3-.6-1.3-1.3S8.3 1.4 9 1.4h31.5c.7 0 1.3.6 1.3 1.3v43.8c0 .7-.6 1.3-1.3 1.3z" class="st2"/><path d="M36.3 23.3h-4.4v-4.5c0-.4-.4-.7-.8-.7-.2 0-.3.1-.5.2l-6.5 5.3c-.2.1-.2.3-.3.5 0 .2 0 .4.2.5l.1.1 6.5 5.3h.5c.1 0 .2 0 .3-.1.3-.1.4-.4.4-.7v-4.5h4.4c.4 0 .7-.3.7-.7.2-.4-.2-.7-.6-.7zm-5.9-3v7.4L25.9 24l4.5-3.7zm-8.1-9h-2.7c-.4 0-.7.3-.7.7v24c0 .4.3.7.7.7h2.7c.4 0 .7-.3.7-.7V12c.1-.4-.3-.7-.7-.7zm-.7 1.5v22.5h-1.2V12.8h1.2zm-3.7 10.8l-.1-.1-6.5-5.3c-.2-.2-.5-.2-.8-.1-.3.1-.4.4-.4.7v4.5H5.7c-.4 0-.7.3-.7.7 0 .4.3.7.7.7h4.4v4.5c0 .3.2.5.4.7.1 0 .2.1.3.1.2 0 .3-.1.5-.2l6.5-5.3c.2-.1.3-.4.3-.6 0 0-.1-.2-.2-.3zm-1.8.4l-4.6 3.7v-7.4" class="st2"/></svg>