<svg xmlns="http://www.w3.org/2000/svg" id="Layer_1" x="0" y="0" version="1.1" viewBox="0 0 50 50" xml:space="preserve"><style>.st2{fill:#031326}</style><path fill="#fdcf72" d="M22.4 5.7C12.2 5.7 3.9 14 3.9 24.3c0 .6 0 1.2.1 1.8l33.7-12.3c-3.4-4.9-9-8.1-15.3-8.1z"/><path fill="#fcc34f" d="M40.9 24.3c0-3.9-1.2-7.5-3.3-10.5L4 26c.4 4.6 2.5 8.7 5.7 11.6l31.2-11.3v-2z"/><path d="M11.3 11.3c-.4 0-.8-.2-1.1-.5-.4-.6-.3-1.4.3-1.9 1.3-1 2.7-1.8 4.2-2.5.7-.3 1.5 0 1.8.7.3.7 0 1.5-.7 1.8-1.3.6-2.5 1.3-3.7 2.1-.2.3-.5.3-.8.3z" class="st2"/><path d="M8.7 38.7c-.4 0-.7-.2-1-.4-3.3-3.7-5.1-8.4-5.1-13.4 0-6.3 2.9-12.2 8-16 .6-.4 1.4-.3 1.9.3.4.6.3 1.4-.3 1.9-4.4 3.3-6.9 8.3-6.9 13.8 0 4.3 1.6 8.4 4.4 11.6.5.6.5 1.4-.1 1.9-.3.2-.6.3-.9.3z" class="st2"/><path d="M22.4 40.2c-8.4 0-15.3-6.8-15.3-15.3 0-7.4 5.2-13.7 12.5-15 .1 0 .3.1.3.2s-.1.3-.2.3c-7 1.3-12 7.4-12 14.5 0 8.1 6.6 14.7 14.7 14.7S37.1 33 37.1 24.9c0-7.2-5.2-13.4-12.3-14.5-.1 0-.2-.2-.2-.3 0-.1.2-.2.3-.2 7.4 1.2 12.8 7.5 12.8 15.1 0 8.3-6.9 15.2-15.3 15.2zm23.1-.5c-.5-.5-1.4-.5-1.9 0s-.5 1.4 0 1.9l.8.8h-8.9c-.7 0-1.3.6-1.3 1.3 0 .7.6 1.3 1.3 1.3h8.7l-.8.8c-.5.5-.5 1.4 0 1.9.3.3.6.4 1 .4s.7-.1 1-.4l4.1-4.1-4-3.9z" class="st2"/><path d="M40.5 16C37.1 9.2 30.2 4.9 22.6 4.9l.8-.8c.5-.5.5-1.4 0-1.9s-1.4-.5-1.9 0l-3.9 3.9 4.1 4.1c.3.3.6.4 1 .4.3 0 .7-.1 1-.4.5-.5.5-1.4 0-1.9l-.8-.8c6.6.1 12.4 3.7 15.4 9.6 1.2 2.4 1.8 5 1.8 7.7 0 2.5-.5 4.8-1.5 7.1-3 6.1-9 10.1-15.6 10.3H1.9c-.7 0-1.3.6-1.3 1.3s.6 1.3 1.3 1.3H23c7.7-.2 14.6-4.8 17.8-11.8 1.2-2.6 1.7-5.3 1.7-8.2.1-3-.6-6-2-8.8z" class="st2"/><path d="M30.5 29.5H15.9V15.9c0-.4-.4-.8-.8-.8s-.8.4-.8.8v14.4c0 .4.4.8.8.8h15.4c.4 0 .8-.4.8-.8s-.4-.8-.8-.8z" class="st2"/><path d="M29.4 17.4c-.9 0-1.6.7-1.6 1.6 0 .4.1.7.3.9L26 23.4c-.3-.2-.6-.3-.9-.3-.4 0-.7.1-1 .3L23 22.3v-.1c0-.9-.7-1.6-1.6-1.6-.9 0-1.6.7-1.6 1.6 0 .3.1.7.3.9L19 25.3h-.2c-.9 0-1.6.7-1.6 1.6 0 .9.7 1.6 1.6 1.6.9 0 1.6-.7 1.6-1.6 0-.4-.2-.8-.4-1.1l1.1-2.1c.1 0 .3.1.4.1.4 0 .8-.2 1.1-.4l1 1v.4c0 .9.7 1.6 1.6 1.6.9 0 1.6-.7 1.6-1.6v-.3l2.4-3.8c.1 0 .3.1.4.1.9 0 1.6-.7 1.6-1.6-.2-1.1-.9-1.8-1.8-1.8zM18.7 27.5c-.3 0-.5-.2-.5-.5s.2-.5.5-.5.5.2.5.5c0 .2-.2.5-.5.5zm2.7-4.8c-.3 0-.5-.2-.5-.5s.2-.5.5-.5.5.2.5.5-.2.5-.5.5zm3.7 2.5c-.3 0-.5-.2-.5-.5s.2-.5.5-.5.5.2.5.5-.2.5-.5.5zm4.3-5.6c-.3 0-.5-.2-.5-.5s.2-.5.5-.5.5.2.5.5c.1.2-.2.5-.5.5z" class="st2"/></svg>