<svg xmlns="http://www.w3.org/2000/svg" id="Layer_1" viewBox="0 0 50 50"><style>.st2{fill:none;stroke:#031326;stroke-width:.25;stroke-linecap:round;stroke-miterlimit:10}</style><path fill="#e589ef" d="M5 41.2l12.4 4.6 27.2-9 .4-11.9-9.8-3.7.5-16-9.8-3.7L16 4.6l-.2 5.2-9.9 3.1z"/><path fill="#f799ff" d="M5.8 15.5l29.9-9.9v-.4l-9.8-3.7L16 4.6l-.2 5.2-9.9 3.1z"/><path d="M35.7 5.6l-10 3.1L16 5m9.1 25.1l.6-21.4m9.1 25.1l-9.9 3.1-9.8-3.7" class="st2"/><path d="M14.8 44.8l.3-11.6 10-3.1 9.7 3.7-.3 11.6m-9.6-8.5l-.4 11.6M45 25.2l-10 3.1-9.8-3.7m10-3.1l-9.9 3.1m9.7 3.7l-.5 17.1m-8.9-31.9l-10 3.5-9.7-3.7m9.9-3.1l9.8 3.7m-10 3.1l-.8 27.8" class="st2"/><path fill="none" stroke="#031326" stroke-linecap="round" stroke-miterlimit="10" stroke-width="2.5" d="M44.6 36.8l.4-11.9-9.8-3.7.5-16-9.8-3.7L16 4.6l-.2 5.2-9.9 3.1L5 41.2l19.5 7.3 9.1-2.8"/></svg>