<svg xmlns="http://www.w3.org/2000/svg" id="Layer_1" x="0" y="0" version="1.1" viewBox="0 0 50 50" xml:space="preserve"><style>.st3{fill:none}.st4{fill:#494949}</style><path fill="none" stroke="#444" stroke-linecap="round" stroke-linejoin="round" stroke-miterlimit="10" stroke-width="1.5" d="M21.3 25v6.4m3.7-8.6v8.6m3.7-12.8v12.8"/><path fill="#a475ef" d="M36.3 26h8.3c0 .6-.1 1.2-.2 1.8l-.7.3-8.4 3.1-1.1.4c1.2-1.6 2-3.5 2.1-5.6zm-15.1 9.8c-.1.1-.3.1-.4.2l-8.1 3.2-.7.3-.7-.7c-1.2-1.3-5.9-6.6-5.7-14 0-.4 0-1.1.2-1.9.4-.2.7-.3 1.1-.5l7.9-3.1c.4-.3.7-.6 1.1-1-.3.4-.7.9-1.1 1.7-1.4 2.7-1.7 6.4-.2 9.7 1.8 4.4 5.9 5.9 6.6 6.1zm23.4-11.9h-8.3c-.2-1.3-1-5.1-4.3-7.7-.9-.7-1.9-1.2-2.7-1.6.2-.1.4-.2.6-.4l8.2-3 .7-.3.4.4.1.1c3.4 3.6 5.2 8 5.3 12.5z"/><path fill="#bf94f7" d="M11.6 10.9c.7-.7 2.1-2 4.2-3.2 2.6-1.4 5.4-2.1 8.2-2.2v8.3c-1.2.1-2.2.4-2.8.6-2.6.9-4.2 2.6-5 3.7-.3.4-.6.8-.7 1-.3.1-.5.3-.8.4l-7.8 2.9-1.2.3v-.8c.2-3.5 1.9-6.1 2.8-7.4 1.2-1.8 2.4-3 3.1-3.6zm27.4.3c-.3.1-.5.2-.8.2l-8.4 3.3-.6-.3c-.3-.1-.6-.2-1-.3-.7-.2-1.4-.3-2.1-.4V5.5c2.6.1 5.2.7 7.6 1.9 2.2 1.1 4 2.7 4.4 3.1.5.3.7.6.9.7z"/><path d="M16.5 19.3c1.7-2.6 4.6-4.3 7.9-4.5V6.6c-4.5.2-9 2-12.5 5.4-3.1 3-4.9 7-5.3 11 0 .2-.1.5-.1.7-.4 5.2 1.4 10.6 5.4 14.6l.7.7-3.2 1.2c3.9 4.1 9.5 6.7 15.7 6.7 11.5 0 20.9-9 21.6-20.3l-3.2 1.2c.1-.6.1-1.2.2-1.8h-8.3c-.1 2.1-.9 4-2.1 5.6l-10.5 3.8c-4.6-1-8.1-5.1-8.1-10.1 0-1.8.5-3.4 1.2-4.9l12.8-4.7c3.6 1.4 6.3 4.8 6.5 8.9h8.3c-.2-4.5-1.9-8.9-5.3-12.4" class="st3"/><path d="M27.8 15.2c-.7-.2-1.4-.3-2.1-.4V6.6c4.4.2 8.6 1.8 12 5" class="st3"/><g id="analytics_00000132771661996960170260000003018442816367315602_"><path d="M26.5 5.9c4.6.3 8.8 2.3 12 5.5 3.2 3.2 5.2 7.5 5.5 12h-7.4c-.6-5.2-4.8-9.4-10.1-10.1V5.9zm-.8-.7V14c5.5.4 9.9 4.7 10.2 10.2h8.8c-.2-4.8-2.1-9.6-5.8-13.3-3.6-3.6-8.3-5.6-13.2-5.7zM44 26.4c-.3 4-1.9 7.9-4.5 11l-5.2-5.2c1.3-1.7 2.1-3.6 2.4-5.7H44v-.1zm.8-.7H36c-.2 2.5-1.2 4.7-2.7 6.5l6.2 6.2c3.4-3.5 5.1-8.1 5.3-12.7z" class="st4"/><path d="M23.5 5.9v7.4c-5.8.8-10.2 5.7-10.2 11.7 0 6.5 5.3 11.7 11.7 11.7 2.6 0 5.1-.9 7.2-2.5l5.2 5.2c-3.5 3-7.8 4.6-12.4 4.6-5.1 0-9.9-2-13.5-5.6-3.6-3.5-5.6-8.3-5.6-13.4s2-9.9 5.6-13.5c3.2-3.3 7.5-5.2 12-5.6zm.8-.7c-4.9.1-9.6 2.1-13.3 5.8-7.7 7.7-7.7 20.3 0 28 3.9 3.9 8.9 5.8 14 5.8 4.8 0 9.7-1.8 13.5-5.3l-6.3-6.3C30.3 34.9 27.8 36 25 36c-6.1 0-11-4.9-11-11 0-5.8 4.5-10.6 10.3-11V5.2z" class="st4"/></g><path fill="none" stroke="#494949" stroke-linecap="round" stroke-linejoin="round" stroke-miterlimit="10" stroke-width="2.5" d="M48.1 25v1.4c-.7 12.1-10.8 21.7-23 21.7-6.6 0-12.5-2.7-16.7-7.2-4-4.1-6.4-9.8-6.4-16v-1c.6-12.2 10.7-22 23.1-22 6.7 0 12.7 2.8 16.9 7.4l.5.5c3.4 4.1 5.6 9.4 5.6 15.2z"/><path fill="none" stroke="#494949" stroke-linejoin="round" stroke-miterlimit="10" stroke-width=".25" d="M11.2 11.1l-.3 1.4-4.2 17.3-.3 1.4m1.4-15.7l-1.1 4.6v.1l-.1.5-.1.2-.1.3-1 4.6M19.2 6.3l-.1.5v.3L16.9 16v.2l-.3 1.1M14.3 28l-.3 1.1-.1.3-2.2 8.9-.1.3-.1.5m5.3-31.8l-.2.9-6.7 28-.3.9m21.8 6.3l.1-.5.1-.3 1.7-6.9.1-.1.1-.7M24.1 5.5l-.5 2.4-.1.2-1.2 5.2-.1.1-.1.6m-6.6 28l.1-.4v-.3l1.8-7.1v-.3l.2-.5M14.1 8.7v.1l-.3 1-5.6 23.7-.3 1.1m9.7 8.4l.1-.4v-.3l1.7-6.8v-.2l.2-.5M34 42.3l.2-.6.1-.3.9-3.8.1-.2.1-.6M21.7 5.7l-.1.5v.3L19.7 14v.2l-.2.7m-6.1 25.8l.1-.4.1-.4 1.9-7.8.1-.2.2-.7m21 9.4l.1-.6.1-.4.1-.3.1-.1.1-.6m-10.8 5.8l.1-.4.1-.3 1.8-7.2.1-.2.1-.6m-9 8l.1-.4.1-.3 1.6-6.8.1-.2.1-.5M29 44v-.4l.1-.3 2-8.1.1-.2.2-.8m-9.5 10l.1-.4.1-.3 1.6-6.9.1-.2.1-.5m2.3.3l-.1.5v.2l-1.7 6.8-.1.4-.1.3"/><path fill="none" stroke="#494949" stroke-linejoin="round" stroke-miterlimit="10" d="M36.2 27.3h8m-8.5 1.9h8.2M34.8 31h8.6m-8.8 1.8h8.2m-6.4 1.9H42m-3.9 1.8h2.6"/></svg>