<svg xmlns="http://www.w3.org/2000/svg" id="Camada_1" x="0" y="0" version="1.1" viewBox="0 0 50 50" xml:space="preserve"><style>.st4{stroke-width:1.5}.st4,.st5,.st6{fill:none;stroke:#494949;stroke-linecap:round;stroke-linejoin:round;stroke-miterlimit:10}.st6{stroke-width:.5}</style><path fill="#fcc34f" d="M46.9 25.9l.4 4.1L2.6 46.3l.2-8.7.4-4.9 44.5-16.2L47 20z"/><path fill="#fdcf72" d="M47.2 10l-.6 7.4L2.9 33.3V24l.4-4.3 44-16z"/><path fill="none" stroke="#444" stroke-linecap="round" stroke-linejoin="round" stroke-miterlimit="10" stroke-width="2.5" d="M6.5 47.3H2.3V2.7h44.9v44.6H31.7"/><path fill="none" stroke="#494949" stroke-linecap="round" stroke-linejoin="round" stroke-miterlimit="10" stroke-width="2" d="M10 10h6v6h-6z"/><path d="M22 10h6v6h-6z" class="st4"/><path d="M22 22h6v6h-6zm12-12h6v6h-6z" class="st5"/><path d="M10 22h6v6h-6z" class="st4"/><path d="M10 34h6v6h-6z" class="st5"/><path d="M22 37h6m-3-3v6" class="st6"/><path fill="none" stroke="#494949" stroke-linecap="round" stroke-linejoin="round" stroke-miterlimit="10" stroke-width=".25" d="M34 37h6m-3-3v6"/><path d="M34 25h6m-3-3v6" class="st6"/></svg>