<svg xmlns="http://www.w3.org/2000/svg" fill="none" viewBox="0 0 46 50"><path fill="#AFE55D" d="M3.56 37.33l3.99 3.29L44 27.75l.13-6.41c.27-1.62-.95-8.43-2.22-9.48L29.04 4.21c-1.27-1.05-3-1.34-4.54-.76L6.9 10.02a4.61 4.61 0 00-2.93 3.55L2.33 32.64c-.27 1.62-.04 3.64 1.23 4.69z"/><path fill="#C3FF68" d="M38.81 8.83L25.08 1.99c-1.34-1.1-3.85-.12-5.48.49L5.93 10.49c-1.63.61-3.42 2.08-3.7 3.79l-1.04 8.07L38.81 8.83z"/><path fill="#494949" d="M23 49.62c-1.01 0-2.02-.26-2.92-.78L3.81 39.45a5.862 5.862 0 01-2.92-5.06V15.61c0-2.08 1.12-4.02 2.92-5.06l16.27-9.39a5.856 5.856 0 015.84 0l16.27 9.39a5.862 5.862 0 012.92 5.06V29.4a1.23 1.23 0 11-2.46 0V15.61c0-1.2-.65-2.32-1.69-2.92L24.69 3.3a3.38 3.38 0 00-3.37 0L5.05 12.69c-1.04.6-1.69 1.72-1.69 2.92V34.4c0 1.2.65 2.32 1.69 2.92l16.27 9.39c1.04.6 2.33.6 3.37 0l4.49-2.59a1.24 1.24 0 011.69.45c.34.59.14 1.35-.45 1.69l-4.49 2.59c-.91.52-1.92.77-2.93.77z"/><path stroke="#494949" stroke-linecap="round" stroke-miterlimit="10" d="M35.07 30.53v-3.2H11.13v3.28"/><path stroke="#494949" stroke-linecap="round" stroke-linejoin="round" stroke-miterlimit="10" d="M37.67 30.61h-5.2v5.2h5.2v-5.2zm-7.97 1.8h-5.2v5.2h5.2v-5.2zm-7.99 2.14h-5.2v5.2h5.2v-5.2zm-7.98-3.94h-5.2v5.2h5.2v-5.2z"/><path stroke="#494949" stroke-miterlimit="10" d="M19.11 34.55v-7.22m7.99 0v5.08"/><path stroke="#494949" stroke-linecap="round" stroke-miterlimit="10" d="M17 22.66s1.32-2.07 3.49-2.91c0 0-.32-1.4 1.11-3.01 0 0-3.2-2.98-2.81-7.52 0 0 .14-1.25 1.14-.45 1.04.84 3.01 2.59 3.62 7.08 0 0 2.39-.53 3.99.67 1.6 1.2 2.08 3.23 2.08 3.23s0 2.28-1.78 2.34c-1.78.06-2.84.28-2.84.28s-1.45.56-1.45 4.74"/><path stroke="#494949" stroke-linecap="round" stroke-linejoin="round" stroke-miterlimit="10" d="M22.1 7.78s3.59 3.06 2.96 7.69"/><path fill="#494949" d="M26.03 19.61a.63.63 0 100-1.26.63.63 0 000 1.26z"/><path fill="#494949" stroke="#494949" stroke-linejoin="round" stroke-miterlimit="10" d="M12.07 32.26h-1.89v1.89h1.89v-1.89zm7.99 3.95h-1.89v1.89h1.89v-1.89zm7.99-2.15h-1.89v1.89h1.89v-1.89zm7.96-1.8h-1.89v1.89h1.89v-1.89z"/></svg>