<svg xmlns="http://www.w3.org/2000/svg" id="Layer_1" x="0" y="0" version="1.1" viewBox="0 0 50 50" xml:space="preserve"><style>.st2{fill:none;stroke:#494949;stroke-linecap:round;stroke-linejoin:round;stroke-miterlimit:10}.st3{fill:#494949}</style><path fill="#00c8e2" d="M48.1 3.5V17l-13.6 5L1.9 33.9V15.3L17 9.8l17.3-6.3z"/><path fill="#00dffc" d="M47.7 3.5L30.5 9.8 1.9 20.3V3.5z"/><path d="M30.3 43.4v-3.1h-2.5c-.2-1-.5-1.6-1-2.3l2.5-2.5-3.7-3.7-2.5 2.5c-.7-.4-1.5-.7-2.3-1v-3.5h-5.2v3.5c-.8.2-1.6.5-2.3 1l-2.5-2.5L7 35.4l2.5 2.5c-.4.7-.7 1.3-1 2.3H6.1v3.1" class="st2"/><path d="M14.6 43.4c0-2 1.6-3.7 3.7-3.7s3.7 1.6 3.7 3.7h-7.4z" class="st3"/><path d="M45 16.1h-3.1v2.5c-1 .2-1.6.5-2.3 1L37 17l-3.7 3.7 2.5 2.5c-.4.7-.7 1.3-1 2.3h-3.5v5.2h3.1c.2.8.9 1.6 1.3 2.3l-2.5 2.5 3.7 3.7 2.5-2.5c.7.4 1.3.7 2.3 1v2.5H45" class="st2"/><path d="M45 31.8c-2 0-3.7-1.6-3.7-3.7 0-2 1.6-3.7 3.7-3.7v7.4z" class="st3"/><path fill="none" stroke="#494949" stroke-linecap="round" stroke-linejoin="round" stroke-miterlimit="10" stroke-width="2.5" d="M1.9 3.5h46.2v43H1.9zm0 6.3h46.2"/><path fill="none" stroke="#505050" stroke-miterlimit="10" stroke-width="2" d="M5.1 6.6h2.1m2.1 0h2.1m2.1 0h2.1"/></svg>