<?xml version="1.0" encoding="utf-8"?>
<!-- Generator: Adobe Illustrator 26.5.0, SVG Export Plug-In . SVG Version: 6.00 Build 0)  -->
<svg version="1.1" id="Camada_1" xmlns="http://www.w3.org/2000/svg" xmlns:xlink="http://www.w3.org/1999/xlink" x="0px" y="0px"
	 viewBox="0 0 50 50" style="enable-background:new 0 0 50 50;" xml:space="preserve">
<style type="text/css">
	.st0{fill:#46B8B0;}
	.st1{fill:#4ECDC4;}
	.st2{fill:none;stroke:#444444;stroke-width:2.5;stroke-linecap:round;stroke-linejoin:round;stroke-miterlimit:10;}
	.st3{fill:none;stroke:#494949;stroke-width:2;stroke-linecap:round;stroke-linejoin:round;stroke-miterlimit:10;}
	.st4{fill:none;stroke:#494949;stroke-width:1.5;stroke-linecap:round;stroke-linejoin:round;stroke-miterlimit:10;}
	.st5{fill:none;stroke:#494949;stroke-linecap:round;stroke-linejoin:round;stroke-miterlimit:10;}
	.st6{fill:none;stroke:#494949;stroke-width:0.5;stroke-linecap:round;stroke-linejoin:round;stroke-miterlimit:10;}
	.st7{fill:none;stroke:#494949;stroke-width:0.25;stroke-linecap:round;stroke-linejoin:round;stroke-miterlimit:10;}
</style>
<g>
	<g>
		<g>
			<polygon class="st0" points="46.9,25.9 47.3,30 2.6,46.3 2.8,37.6 3.2,32.7 47.7,16.5 47,20 			"/>
			<polygon class="st1" points="47.2,10 46.6,17.4 2.9,33.3 2.9,24 3.3,19.7 47.3,3.7 			"/>
			<polyline class="st2" points="6.5,47.3 2.3,47.3 2.3,2.7 47.2,2.7 47.2,47.3 31.7,47.3 			"/>
		</g>
	</g>
	<g>
		<rect x="10" y="10" class="st3" width="6" height="6"/>
		<rect x="22" y="10" class="st4" width="6" height="6"/>
		<rect x="22" y="22" class="st5" width="6" height="6"/>
		<rect x="34" y="10" class="st5" width="6" height="6"/>
		<rect x="10" y="22" class="st4" width="6" height="6"/>
		<rect x="10" y="34" class="st5" width="6" height="6"/>
		<line class="st6" x1="22" y1="37" x2="28" y2="37"/>
		<line class="st6" x1="25" y1="34" x2="25" y2="40"/>
		<line class="st7" x1="34" y1="37" x2="40" y2="37"/>
		<line class="st7" x1="37" y1="34" x2="37" y2="40"/>
		<line class="st6" x1="34" y1="25" x2="40" y2="25"/>
		<line class="st6" x1="37" y1="22" x2="37" y2="28"/>
	</g>
</g>
</svg>
