<svg xmlns="http://www.w3.org/2000/svg" id="Camada_3" x="0" y="0" version="1.1" viewBox="0 0 50 50" xml:space="preserve"><style>.st4{fill:none;stroke-linecap:round;stroke-linejoin:round;stroke-miterlimit:10;stroke:#444;stroke-width:2.5}</style><path fill="#ec6a6d" d="M12.77 1.72l-1.96 1.04v11.7l15.02-5.33z"/><path fill="#e46160" d="M10.81 14.46v12.31l-.66 14.88L39.84 31.1l-.99-12.42c-.08-1.06-11.97-9.66-13.03-9.55l-15.01 5.33z"/><path fill="none" stroke="#444" stroke-linecap="round" stroke-linejoin="round" stroke-miterlimit="10" stroke-width="2.5" d="M32.16 36.8l6.54-3.97"/><path d="M38.7 16.74L13.76 1.99c-1.3-.77-2.95.17-2.95 1.68v42.66c0 1.52 1.67 2.46 2.97 1.67l10.98-6.66" class="st4"/><path d="M38.7 32.83V16.75l-12.67 7.31c-.56.32-.56 1.13 0 1.46l12.67 7.31z" class="st4"/><path fill="none" stroke="#444" stroke-linecap="round" stroke-linejoin="round" stroke-miterlimit="10" stroke-width=".5" d="M24.69 24.28V9.13L11.56 16.7zm0 16.17V25.3l-13.13 7.58zm-6.56 3.79v-7.57l-6.57 3.78zm0-7.57v7.57l6.56-3.79zM31.32 20.1v-7.58l-6.56 3.79zm0-7.58v7.58l6.56-3.79zm0 24.15v-7.58l-6.56 3.79zm0-7.58v7.58l6.56-3.79zm0-8.29v7.58l6.56-3.79zm-13.19-7.89V5.34l-6.57 3.79zm0-7.57v7.57l6.56-3.78z"/></svg>