<svg xmlns="http://www.w3.org/2000/svg" id="Layer_1" x="0" y="0" version="1.1" viewBox="0 0 50 50" xml:space="preserve"><style>.st2{fill:#424242}.st3{stroke-width:2.5}.st3,.st4{fill:none;stroke:#424242;stroke-linecap:round;stroke-linejoin:round;stroke-miterlimit:10}</style><path fill="#00c8e2" d="M40.1 19.4c-.1-.2-.1-.5-.1-.8v-.9c0-.1-.1-.2-.1-.3v-.3c0-.1.1-.3.2-.4l.3-.3c.1-.1.3-.1.4-.1h.4c.1 0 .2.1.3.1.1-.1.2-.2.4-.2h.4v-4.9c-2.6-2.8-5.7-5.1-8.5-7.8H8.3c-.1 0-.8-.1-1.4.4-.8.6-.8 1.7-.7 1.7v32.1l.5.3 6.9-3.8 1.7-.9 5.1-2.8 19.7-11.1c0 .1 0 .1 0 0z"/><path fill="#00dffc" d="M33.7 3.5l.2.2-11.5 6.9-.4.3-.8.5-.4.3-2.8 1.7-.5.3-2.7 1.6-.3.2-1.5.9-.4.3-.9.5-.4.3-5 3V5.6c0-.1-.1-1.1.7-1.7.6-.5 1.3-.4 1.4-.4h25.3z"/><path d="M23.9 14.8c.3-.5.3-1.2-.2-1.7-.2-.2-.3-.5-.2-.8.1-.6-.2-1.2-.8-1.5-.1-.1-.3-.2-.3-.3-.1-.1-.1-.2-.1-.3-.1-.6-.6-1.1-1.2-1.1-.3 0-.5-.2-.7-.4-.3-.5-1-.8-1.6-.6-.3.1-.6 0-.8-.1-.5-.4-1.2-.4-1.7 0-.2.2-.5.2-.8.1-.6-.2-1.3.1-1.6.6-.1.3-.4.4-.7.4-.6 0-1.1.5-1.3 1.1 0 .3-.2.5-.5.6-.6.3-.9.9-.8 1.5.1.3 0 .6-.2.8-.4.5-.5 1.2-.1 1.7.1.2.2.5.1.8-.2.6 0 1.3.5 1.6.1 0 .1.1.2.2.1.2.2.3.2.5 0 .6.4 1.2 1 1.3.2 0 .3.2.5.3L11.4 23c-.2.5.3 1 .8.8l1.5-.5h.1l.8 1.4c.2.5.9.4 1.1 0l1.5-3.6h.1l1.5 3.6c.2.5.9.5 1.1 0l.8-1.4s.1-.1.1 0l1.5.5c.5.2.9-.3.7-.8l-1.4-3.4c.1-.1.3-.3.4-.3.6-.2 1-.7 1-1.3 0-.3.1-.5.3-.7.5-.4.7-1 .5-1.6-.1-.3-.1-.6.1-.9zm-8.7 9.8c0 .1-.1.1-.2 0l-.8-1.4c-.1-.3-.4-.4-.7-.3l-1.5.4c-.1 0-.2-.1-.1-.1l1.3-3c.3.4.8.6 1.3.5.3 0 .6.1.7.3.3.3.6.5 1 .5h.4l-1.4 3.1zm7.2-1.4c0 .1 0 .2-.1.1l-1.5-.5c-.3-.1-.6 0-.7.3l-.8 1.4c0 .1-.1.1-.2 0l-1.3-3.1c.5.1 1 0 1.4-.4.2-.2.5-.3.7-.3.5.1 1-.1 1.3-.5l1.2 3zm1-8.7c-.3.4-.3.8-.1 1.3.1.4 0 .8-.3 1-.4.3-.6.7-.6 1.1 0 .4-.3.7-.6.8-.4.1-.7.3-.8.6 0 .1-.1.1-.1.2-.1.4-.5.6-.9.5-.5 0-.9.1-1.2.5-.3.3-.7.4-1 .2-.1-.1-.2-.1-.4-.1h-.5c-.1 0-.3.1-.4.1-.4.2-.8.1-1-.2s-.6-.5-1-.5h-.2c-.4.1-.8-.2-.9-.5 0-.1-.1-.1-.1-.2-.2-.3-.5-.6-.8-.6-.4-.1-.6-.5-.6-.8 0-.3-.1-.6-.3-.8l-.3-.3c-.3-.2-.4-.6-.3-1 .2-.4.1-.9-.1-1.3-.2-.3-.2-.8.1-1 .3-.3.4-.8.3-1.2-.1-.4.1-.8.5-1 .4-.2.7-.6.8-1 .1-.4.4-.7.8-.7.5 0 .8-.3 1.1-.7.2-.3.6-.5 1-.4.4.1.9 0 1.3-.2.3-.2.7-.2 1 0 .4.3.8.4 1.3.2.4-.1.8 0 1 .4.2.4.6.6 1.1.7.4 0 .7.3.8.7 0 .2.1.4.2.5.1.2.3.4.5.5.4.2.6.6.5 1-.1.4 0 .9.3 1.2.1.3.1.7-.1 1z" class="st2"/><path d="M12.3 14.2c.1 0 .3-.1.3-.2.3-2.3 2.2-4 4.6-4 2.3 0 4.3 1.7 4.6 4 0 .1.1.2.3.2.1 0 .2-.1.2-.3-.3-2.6-2.5-4.5-5.1-4.5-2.6 0-4.8 1.9-5.1 4.5-.1.2 0 .3.2.3zm9.7.7c-.1 0-.3.1-.3.2-.3 2.3-2.2 4-4.6 4-2.3 0-4.3-1.7-4.6-4 0-.1-.1-.2-.3-.2-.1 0-.2.1-.2.3.3 2.6 2.5 4.5 5.1 4.5 2.6 0 4.8-1.9 5.1-4.5 0-.2-.1-.3-.2-.3z" class="st2"/><path id="Cloud_3_" d="M19.7 14.4c-.2-.2-.3-.2-.5-.3-.1-.5-.5-.8-1-.8h-.3c-.1 0-.1 0-.2.1-.1-.2-.2-.3-.4-.4-.2-.2-.5-.2-.8-.2-.7 0-1.3.6-1.3 1.3-.2 0-.4.1-.5.3-.2.2-.3.4-.3.7 0 .1 0 .2.1.3 0 .1.1.3.2.4.2.2.4.3.7.3H19c.3 0 .5-.1.7-.3.2-.2.3-.4.3-.7 0-.2-.1-.5-.3-.7zm-.7 1.4h-3.6c-.3 0-.6-.2-.7-.5v-.1c0-.4.3-.7.7-.7h.2v-.3c0-.5.5-1 1-1 .4 0 .7.2.9.5 0 0 0 .1.1.1l.1.2.2-.2c.1-.1.3-.2.5-.2.4 0 .7.3.7.7v.2H19c.4 0 .7.3.7.7-.1.3-.4.6-.7.6z" class="st2"/><path d="M41.7 13.2v-1.7l-7.9-7.9-.2-.2H8.2c-.1 0-.8-.1-1.4.4-.7.7-.7 1.7-.6 1.8v37.9c0 .1-.1 1.2.7 1.9.7.7 1.5.6 1.6.6h29" class="st3"/><path d="M33.6 4.6v5c0 .2.1.8.7 1.3.4.3.8.4 1 .4H41" class="st3"/><path d="M39.7 16.2h4.2v24.6h-4.2z" class="st4"/><path d="M39.7 16.2h4.2v3.6h-4.2zm2.1 30.3l-2.1-5.6h4.2zM10.7 29.3h4.4v4.4h-4.4zm8.4 3.6h15.4M19.1 30h11.1m-19.5 7.5h4.4v4.4h-4.4zm8.4 3.6h15.4m-15.4-2.9h11.1" class="st4"/></svg>