<svg xmlns="http://www.w3.org/2000/svg" id="Layer_1" x="0" y="0" version="1.1" viewBox="0 0 48 47" xml:space="preserve"><style>.st3{fill-rule:evenodd;clip-rule:evenodd;fill:#444}</style><g id="Page-1"><g id="Group-12" transform="translate(1)"><path id="Fill-1" fill="#fcc34f" fill-rule="evenodd" d="M44.7 24.7l.4 4.1L.9 44.9l.1-8.7.3-5 44.1-16-.7 3.6z" clip-rule="evenodd"/><path id="Fill-2" fill="#fdcf72" fill-rule="evenodd" d="M44.7 8.8l-.5 7.4L1 31.9v-9.3l.3-4.3L44.8 2.5z" clip-rule="evenodd"/><g id="Group-11" transform="translate(0 .9)"><path id="Stroke-3" fill="none" stroke="#444" stroke-linecap="round" stroke-linejoin="round" stroke-width="2.5" d="M30.6 44.8H.6V.3h44.7v34.5"/><path id="Fill-5" d="M20.1 28.2c-.1-.1-.3-.2-.5-.2s-.3.1-.5.2c-.1.1-.1.3-.1.5s.1.3.2.5c.1.1.3.2.5.2s.3-.1.5-.2.2-.3.2-.5c-.1-.2-.2-.4-.3-.5" class="st3"/><path id="Fill-7" d="M29 19.3c-.1-.1-.3-.2-.5-.2s-.3.1-.5.2c-.1.1-.2.3-.2.5s.1.3.2.5c.1.1.3.2.5.2s.3-.1.5-.2c.1-.1.2-.3.2-.5s-.1-.4-.2-.5" class="st3"/><path id="Fill-9" d="M38.2 31.2c-.5 0-.9-.4-.9-.9s.4-.9.9-.9.9.4.9.9-.4.9-.9.9zm-7.7-4.9l-6.3 3.5v-6.9l2.2-1.2c.3-.2.4-.6.3-.9-.2-.3-.6-.4-.9-.3l-2.2 1.2-6.2-3.5 6.2-3.5 6.9 3.8v7.8zm-6 10.8c0 .5-.4.9-.9.9s-.9-.4-.9-.9.4-.9.9-.9.9.4.9.9zM22.7 7.8c0-.5.4-.9.9-.9s.9.4.9.9-.4.9-.9.9c-.5.1-.9-.4-.9-.9zM9 31.2c-.5 0-.9-.4-.9-.9s.4-.9.9-.9.9.4.9.9-.4.9-.9.9zm0-15.6c-.5 0-.9-.4-.9-.9s.4-.9.9-.9.9.4.9.9c0 .4-.4.9-.9.9zm29.2-1.9c.5 0 .9.4.9.9s-.4.9-.9.9-.9-.4-.9-.9.4-.9.9-.9zm0 14.3c-1 0-1.9.7-2.1 1.6h-1l-3.2-3.2v-7.9l3.2-3.2h1c.3.9 1.1 1.6 2.1 1.6 1.2 0 2.2-1 2.2-2.2s-1-2.2-2.2-2.2c-1 0-1.9.7-2.1 1.6h-1.3c-.2 0-.3.1-.5.2L31 17.6l-6.8-3.8V10c.9-.3 1.6-1.1 1.6-2.1 0-1.2-1-2.2-2.2-2.2s-2.2 1-2.2 2.2c0 1 .7 1.9 1.6 2.1v3.7l-6.8 3.8-3.3-3.3c-.2-.2-.4-.2-.5-.2h-1.3c-.3-.9-1.1-1.6-2.1-1.6-1.2 0-2.2 1-2.2 2.2s1 2.2 2.2 2.2c1 0 1.9-.7 2.1-1.6h1l3.2 3.2v7.9l-3.2 3.2h-1C10.8 28.7 10 28 9 28c-1.2 0-2.2 1-2.2 2.2s1 2.2 2.2 2.2c1 0 1.9-.7 2.1-1.6h1.3c.2 0 .3-.1.5-.2l3.3-3.3.8.5c.3.2.7.1.9-.3.2-.3.1-.7-.3-.9l-.9-.5v-6.9l6.3 3.5v6.9l-.8-.5c-.3-.2-.7-.1-.9.3-.2.3-.1.7.3.9l1.5.8v3.7c-.9.3-1.6 1.1-1.6 2.1 0 1.2 1 2.2 2.2 2.2s2.2-1 2.2-2.2c0-1-.7-1.9-1.6-2.1v-3.7l6.8-3.8 3.3 3.3c.1.1.3.2.5.2h1.3c.3.9 1.1 1.6 2.1 1.6 1.2 0 2.2-1 2.2-2.2-.1-1.2-1.1-2.2-2.3-2.2z" class="st3"/></g></g></g></svg>