<svg xmlns="http://www.w3.org/2000/svg" id="Layer_1" x="0" y="0" version="1.1" viewBox="0 0 50 50" xml:space="preserve"><style>.st3{fill:#424242}</style><path fill="#00c8e2" d="M6.6 38.6l5.6 3.3 33.5-18.5-.1-11.2c0-1.6-.9-3.1-2.3-3.9l-16.1-6c-1.4-.8-3.1-.8-4.6 0l-16.1 6c-1.3.7-2.2 2.2-2.2 3.8v22.6c0 1.6.9 3.1 2.3 3.9z"/><path fill="#00dffc" d="M33.8 5.9l-6.5-3.8c-1.4-.8-3.1-.8-4.6 0l-16.1 6c-1.4.9-2.3 2.4-2.3 4L4 23.9l29.8-18z"/><path fill="#444" d="M25 49.7c-1 0-2-.3-2.9-.8L6 39.6c-1.8-1-2.9-2.9-2.9-5V12.1c0-2.1 1.1-4 2.9-5l16.1-6c1.8-1 4-1 5.8 0l16.1 6c1.8 1 2.9 2.9 2.9 5v17.6c0 .7-.5 1.2-1.2 1.2s-1.2-.5-1.2-1.2V12.1c0-1.2-.6-2.3-1.7-2.9l-16.1-6c-1-.6-2.3-.6-3.3 0l-16.1 6c-1 .6-1.7 1.7-1.7 2.9v22.6c0 1.2.6 2.3 1.7 2.9l16.1 9.3c1 .6 2.3.6 3.3 0l4.4-2.6c.6-.3 1.3-.1 1.7.4.3.6.1 1.3-.4 1.7L28 49c-1 .5-2 .7-3 .7z"/><path d="M36.9 22.6c0-.2.1-.5.2-.7.7-1 .6-2.4-.3-3.3-.3-.3-.4-.7-.3-1.1.2-1.2-.3-2.4-1.5-3-.4-.2-.6-.5-.7-.9-.2-1.2-1.2-2.1-2.4-2.2-.4 0-.8-.3-1-.6-.6-1.1-1.9-1.6-3.1-1.2-.4.1-.8 0-1.1-.2-1-.8-2.3-.8-3.3 0-.3.3-.8.3-1.1.2-1.2-.4-2.5.1-3.1 1.2-.2.3-.6.6-1 .6-1.2.1-2.2 1-2.4 2.2-.1.4-.3.8-.7.9-1.1.5-1.7 1.8-1.5 3 .1.4 0 .8-.3 1.1-.9.9-1 2.2-.3 3.3.2.3.3.8.1 1.2-.5 1.1-.1 2.5.9 3.2.3.2.5.6.5 1.1 0 1.2.8 2.3 2 2.6l.6.3-2.4 5.9c-.2.5-.1 1 .2 1.4.4.4.9.5 1.4.4l2.7-.8 1.3 2.5c.2.4.7.7 1.2.7h.1c.5 0 1-.3 1.2-.8l2.4-5.9 2.4 5.9c.2.5.6.8 1.2.8.5 0 1-.2 1.2-.7l1.3-2.5 2.7.8c.5.2 1 0 1.4-.4.3-.4.4-.9.2-1.4l-2.6-6c.2-.2.4-.3.6-.3 1.2-.3 2-1.4 2-2.6 0-.4.2-.8.5-1.1 1-.7 1.4-2 .9-3.2-.1-.1-.1-.2-.1-.4zM21.3 38.8L20 36.4c-.2-.4-.7-.7-1.2-.7-.1 0-.3 0-.4.1l-2.6.8 2-4.8c.6.6 1.4.8 2.2.7.4 0 .8.1 1.1.4.6.7 1.4 1 2.2.9l-2 5zm12.8-2.3l-2.6-.8c-.6-.2-1.3.1-1.6.7l-1.3 2.4-2.1-5c.8.1 1.7-.2 2.2-.9.3-.3.7-.5 1.1-.4.8.1 1.6-.2 2.2-.7l2.1 4.7zm1.8-15.4c-.5.7-.6 1.7-.2 2.5.2.5 0 1.2-.4 1.5-.7.5-1.1 1.3-1.1 2.2 0 .6-.4 1.1-.9 1.2-.7.2-1.3.6-1.6 1.2-.1.1-.1.3-.2.4-.2.6-.7.9-1.3.8-.9-.1-1.7.2-2.3.9-.4.4-1 .6-1.5.3-.4 0-.6-.1-.9-.1-.2 0-.3-.1-.5-.1h-.6c-.2 0-.5.1-.7.3-.5.3-1.1.2-1.5-.3-.6-.7-1.4-1-2.3-.9-.6.1-1.1-.3-1.3-.8 0-.1-.1-.3-.2-.4-.3-.6-.9-1.1-1.6-1.2-.6-.1-1-.7-.9-1.2 0-.9-.4-1.7-1.1-2.2-.5-.3-.6-1-.4-1.5.3-.8.2-1.7-.2-2.5-.3-.5-.3-1.1.1-1.5.6-.6.9-1.5.7-2.4-.1-.6.2-1.1.7-1.4.8-.4 1.3-1.1 1.5-2 .1-.6.6-1 1.1-1 .9-.1 1.7-.5 2.1-1.3.3-.5.9-.7 1.4-.6.8.3 1.8.1 2.4-.5.5-.4 1.1-.4 1.6 0 .7.5 1.6.7 2.4.5.6-.2 1.2.1 1.4.6.4.8 1.2 1.2 2.1 1.3.6 0 1 .5 1.1 1 .2.9.7 1.6 1.5 2 .5.2.8.8.7 1.4-.2.9.1 1.8.7 2.4.2.2.3.5.3.9.1.1.1.3-.1.5z" class="st3"/><path d="M34.2 20.1c0 .4-.2.7-.6.8h-.1c-.3 0-.6-.3-.7-.6-.5-4-3.9-6.9-7.8-6.9s-7.4 3-7.8 6.9c0 .2-.1.4-.3.5-.2.1-.3.2-.5.1-.4 0-.6-.3-.6-.7v-.1c.6-4.7 4.5-8.2 9.2-8.2s8.7 3.6 9.2 8.2zm0 2.3c-.6 4.7-4.5 8.2-9.2 8.2s-8.7-3.5-9.2-8.2c0-.4.2-.7.6-.8s.7.2.8.6c.5 4 3.9 6.9 7.8 6.9s7.4-3 7.8-6.9c0-.2.1-.3.3-.5.2-.1.3-.2.5-.1.2 0 .3.1.5.3.1.1.2.3.1.5z" class="st3"/><path id="Cloud_1_" d="M29.6 20.8c-.3-.3-.6-.4-.9-.5-.2-.9-1-1.5-1.9-1.5-.3 0-.6.1-.8.2l-.6-.6c-.4-.3-.9-.5-1.5-.5-1.4 0-2.5 1-2.6 2.4-.3.1-.6.3-.9.5-.4.4-.6.9-.6 1.4 0 .5.2 1 .6 1.4.4.4.9.6 1.4.6h6.4c.5 0 1-.2 1.4-.6.4-.4.6-.9.6-1.4 0-.5-.2-1-.6-1.4zm-1.4 2.4h-6.4c-.5 0-.9-.4-.9-.9s.4-.9.9-.9h.7l-.1-.6v-.2c0-.8.7-1.5 1.5-1.5.6 0 1.2.4 1.4 1l.3.8.6-.6c.2-.2.4-.3.7-.3.5 0 .9.4.9.9v.5h.5c.5 0 .9.4.9.9s-.5.9-1 .9z" class="st3"/></svg>