<svg xmlns="http://www.w3.org/2000/svg" id="Camada_1" x="0" y="0" version="1.1" viewBox="0 0 50 50" xml:space="preserve"><style>.st2,.st3{fill:none;stroke:#444;stroke-width:.5;stroke-linecap:round;stroke-linejoin:round;stroke-miterlimit:10}.st3{stroke-width:2.5}</style><path fill="#a475ef" d="M14 18.2v-2.8l15.1-7 4.9 2.2.7 1.8 7.2 4.2.9 8.8-29.4 10.7"/><path fill="#bf94f7" d="M24.5 6.3l4.1 3 4.9 1.4-20.1 7.2.6-7.4.1-7.8 1.4-1.4 4.9 2.6z"/><path d="M39.5 34.1l2.4-1.4m0-16.1l-25-14.8C15.6 1.1 14 2 14 3.5v42.7c0 1.5 1.7 2.5 3 1.7l13.6-8.2" class="st3"/><path d="M14.4 16.8v16.1l13.9-8z" class="st2"/><path d="M28.3 24.9V8.8l-14 8zm0 16v-16l-14 8z" class="st2"/><path d="M41.9 32.7V16.6l-12.7 7.3c-.6.3-.6 1.1 0 1.5l12.7 7.3z" class="st3"/></svg>