<svg xmlns="http://www.w3.org/2000/svg" viewBox="0 0 48 47"><g fill="none" fill-rule="evenodd"><path fill="#AFE55D" d="M45.295 24.681l.383 4.101L1.47 44.872l.128-8.652.332-4.974 44.039-16.028-.674 3.544z"/><path fill="#C3FF68" d="M45.295 8.817l-.532 7.365L1.598 31.893V22.55l.31-4.229 43.495-15.83z"/><path stroke="#031326" stroke-linecap="round" stroke-linejoin="round" stroke-width="2.5" d="M31.177 45.65H1.25V1.25h44.694v34.412"/><path fill="#031326" d="M20.687 29.122a.663.663 0 00-.932 0 .665.665 0 000 .932.665.665 0 00.932 0 .662.662 0 000-.932m8.902-8.962a.658.658 0 10-.931.93.658.658 0 00.93-.93"/><path fill="#031326" d="M38.808 32.106a.923.923 0 11.002-1.846.923.923 0 01-.002 1.846zm-7.67-4.921l-6.289 3.484v-6.922l2.217-1.228a.659.659 0 10-.639-1.152l-2.236 1.239-6.247-3.461 6.247-3.461 6.947 3.849v7.652zm-6.025 10.79a.922.922 0 11-1.844 0 .922.922 0 011.844 0zM23.27 8.743a.923.923 0 011.844 0 .923.923 0 01-1.844 0zM9.574 32.106a.922.922 0 110-1.845.922.922 0 010 1.845zm0-15.65a.922.922 0 110-1.845.922.922 0 010 1.845zm29.234-1.844a.923.923 0 010 1.844.923.923 0 010-1.844zm0 14.334a2.244 2.244 0 00-2.14 1.58h-.989L32.455 27.3v-7.884l3.224-3.225h.99a2.244 2.244 0 002.14 1.58 2.241 2.241 0 002.238-2.238 2.242 2.242 0 00-2.239-2.24 2.244 2.244 0 00-2.14 1.582h-1.26a.66.66 0 00-.467.192l-3.26 3.26-6.832-3.785V10.88a2.242 2.242 0 001.581-2.14 2.242 2.242 0 00-2.239-2.238 2.241 2.241 0 00-2.239 2.239c0 1.005.667 1.858 1.581 2.139v3.662l-6.832 3.785-3.26-3.26a.66.66 0 00-.466-.192h-1.262a2.24 2.24 0 00-2.139-1.581 2.242 2.242 0 00-2.239 2.239 2.241 2.241 0 002.24 2.239 2.24 2.24 0 002.138-1.581h.99l3.224 3.225V27.3l-3.224 3.225h-.99a2.241 2.241 0 00-2.139-1.58 2.24 2.24 0 00-2.239 2.238 2.24 2.24 0 002.24 2.238 2.241 2.241 0 002.138-1.58h1.262a.66.66 0 00.466-.192l3.26-3.26.814.45a.658.658 0 10.638-1.151l-.909-.504v-6.922l6.29 3.484v6.922l-.827-.457a.659.659 0 00-.638 1.152l1.464.81v3.662a2.245 2.245 0 00-1.58 2.14 2.24 2.24 0 002.238 2.239 2.241 2.241 0 002.24-2.238 2.245 2.245 0 00-1.582-2.141v-3.661l6.832-3.785 3.26 3.26a.66.66 0 00.466.192h1.261a2.244 2.244 0 002.14 1.58 2.24 2.24 0 002.24-2.238 2.24 2.24 0 00-2.24-2.238z"/></g></svg>