<svg xmlns="http://www.w3.org/2000/svg" id="Layer_1" x="0" y="0" version="1.1" viewBox="0 0 50 50" xml:space="preserve"><style>.st2{fill:#031326}</style><path fill="#00c8e2" d="M36.6 36.6l-31.9 12-.5-15.5L6 32l2.2-.8 3.8.5 2.2 1.7 5.2-5.9 6.6-2.3-.3.7-.3 1.8 5.7-.4 4.5.5-1.1 5z"/><path fill="#00dffc" d="M42.5 16.6l-.1 1.4-1.6 2-2.7-3.6h-3.2l.1 3.4-2 .5-.4 3.9-3.5-3.9-3.3.1 1.3 4.9-6.2 1.6v-1.4l1-4.7-3.9-.9-.6-5 26.5-9.6.1 10.6z"/><path d="M29.8 10.1c-.4 0-.8-.3-.8-.8V6.8c0-.4.4-.8.8-.8s.8.3.8.8v2.6c-.1.4-.4.7-.8.7z" class="st2"/><path d="M43.9 4.1H30.5V1c0-.4-.3-.8-.8-.8H10.5c-.4 0-.8.3-.8.8v12.8c0 .4.3.8.8.8h1.2v2.5c0 .6.4 1.1 1 1.3.1 0 .3.1.5.1.4 0 .8-.2 1.1-.6l2.5-3.3h.2v5.7c0 .4.3.8.8.8h3.3v.9c0 2.6-.8 4.5-3 6.9l-3 3.1h-.9v-.6c0-.6-.4-1-1-1h-9c-.6 0-1 .4-1 1v17.4c0 .6.4 1 1 1h1.6c.6 0 1-.4 1-1s-.4-1-1-1h-.6V32.4h6.9v15.4H9.9c-.6 0-1 .4-1 1s.4 1 1 1h3.3c.6 0 1-.4 1-1v-1.3c.3.1.6.3 1.1.7.7.7 1.7 1.6 3.5 1.6.5 0 8.8.1 8.8.1H32c1.5 0 2.7-1.2 2.7-2.6v-.8c0-.7-.3-1.3-.7-1.8 1.3-.1 2.4-1.2 2.4-2.6v-1.6c0-.8-.3-1.4-.9-1.9 1-.4 1.7-1.3 1.7-2.4v-1.6c0-1.1-.7-2-1.7-2.4.5-.5.9-1.2.9-1.9v-1.6c0-1.4-1.2-2.6-2.7-2.6h-4.1c-.8 0-1.5.4-2 .9.1-.5.1-1.1.1-1.7 0-2.1-.3-3.3-.9-4.4h2.1l2.5 3.3c.3.4.7.6 1.1.6.1 0 .3 0 .5-.1.6-.2 1-.7 1-1.3V21h1.2c.4 0 .8-.3.8-.8v-3.1h2.1l2.5 3.3c.3.4.7.6 1.1.6.1 0 .3 0 .5-.1.6-.2 1-.7 1-1.3v-2.5h1.2c.4 0 .8-.3.8-.8V4.9c-.5-.5-.9-.8-1.3-.8zM16.8 9.4v3.7h-.5c-.2 0-.5.1-.6.3l-2.5 3.3v-2.9c0-.4-.3-.8-.8-.8h-1.2V1.7H29v2.4h-5.7c-.4 0-.8.3-.8.8v3.7h-5.1c-.2 0-.6.3-.6.8zm7.3-.8v-3H29v3h-4.9zm4.9 1.5v3H18.3v-3H29zm3.7 37.2c0 .3-.3.6-.7.6h-4.1c-.4 0-.7-.3-.7-.6v-.8c0-.3.3-.6.7-.6H32c.4 0 .7.3.7.6v.8zm2.5-12.6v1.6c0 .3-.3.6-.7.6h-4.1c-.4 0-.7-.3-.7-.6v-1.6c0-.3.3-.6.7-.6h4.1c.4 0 .7.3.7.6zm-6.3-5.9c0-.3.3-.6.7-.6h4.1c.4 0 .7.3.7.6v1.6c0 .3-.3.6-.7.6h-4.1c-.4 0-.7-.3-.7-.6v-1.6zm0 11.8c0-.3.3-.6.7-.6h4.1c.4 0 .7.3.7.6v1.6c0 .3-.3.6-.7.6h-4.1c-.4 0-.7-.3-.7-.6v-1.6zm-2.1-10.8v-.2.7c0 1.1.7 2 1.7 2.4-.5.5-.9 1.2-.9 1.9v1.6c0 .8.3 1.4.9 1.9-1 .4-1.7 1.3-1.7 2.4v1.6c0 .7.3 1.3.7 1.8-1.3.1-2.4 1.2-2.4 2.6v.8c0 .2 0 .4.1.6h-6.6c-1 0-1.5-.5-2.1-1.1-.6-.5-1.3-1.2-2.4-1.3V34h1.4c.3 0 .6-.1.7-.3l3.1-3.5c1.8-2 3.5-4.4 3.5-8.3v-1.1c0-.1 0-.2.2-.2.3-.1.8 0 1.2.5 1 1.3 1.4 2 1.4 4.4 0 1.6-.3 2.6-.6 3.3-.1.4-.2.8-.2 1.1v3.9c-.1 3.5-2.2 6.6-5.5 7.8-.5.2-.8.8-.6 1.3.2.4.5.6.9.6.1 0 .2 0 .4-.1 4.1-1.5 6.7-5.3 6.8-9.6v-4zm7.4-10.3H33c-.4 0-.8.3-.8.8v2.9l-2.5-3.3c-.1-.2-.4-.3-.6-.3h-3.5c-.9-.9-2.1-1.3-3.2-.9-.6.2-1 .6-1.2 1-.1-.1-.3-.1-.4-.1h-2.5v-4.9h11.5c.4 0 .8-.3.8-.8v-3.7h3.6v9.3zm9-3.8H42c-.4 0-.8.3-.8.8v2.9L38.7 16c-.1-.2-.4-.3-.6-.3h-2.5V9.4c0-.4-.3-.8-.8-.8h-4.4v-3H43v10.1z" class="st2"/></svg>