<?xml version="1.0" encoding="utf-8"?>
<!-- Generator: Adobe Illustrator 28.0.0, SVG Export Plug-In . SVG Version: 6.00 Build 0)  -->
<svg version="1.1" id="Layer_1" xmlns="http://www.w3.org/2000/svg" xmlns:xlink="http://www.w3.org/1999/xlink" x="0px" y="0px"
	 viewBox="0 0 50 50" style="enable-background:new 0 0 50 50;" xml:space="preserve">
<style type="text/css">
	.st0{fill:#DC5E82;}
	.st1{fill:none;stroke:#444444;stroke-width:2.5;stroke-linecap:round;stroke-linejoin:round;stroke-miterlimit:10;}
	.st2{fill:#444444;}
	.st3{fill:none;stroke:#444444;stroke-width:0.5;stroke-linecap:round;stroke-linejoin:round;stroke-miterlimit:10;}
</style>
<g>
	<path class="st0" d="M48.2,17.8l0.5-11l-1.9-3.8L31.4,3.4c-3.2,0-27.8-3-27.8,0.2L1.9,24.3l1.2,23.5l13.6,0.6l31-11
		C48.4,37,49.2,19.8,48.2,17.8z"/>
	<path class="st1" d="M32.8,48.3h-27c-1.9,0-3.4-1.6-3.4-3.5V5.8c0-1.9,1.5-3.5,3.4-3.5h39c1.9,0,3.4,1.6,3.4,3.5v32.5"/>
	<g>
		<g>
			<path class="st2" d="M12.8,15.4h3.8c0.2,0,0.4,0.1,0.4,0.3l0.9,2.6c0.1,0.2,0.2,0.3,0.4,0.3h1.2l-4-10.2
				c-0.1-0.2-0.2-0.3-0.4-0.3h-0.9c-0.2,0-0.4,0.1-0.4,0.3l-4,10.2H11c0.2,0,0.4-0.1,0.4-0.3l1-2.6C12.4,15.5,12.6,15.4,12.8,15.4z
				 M14.7,9.3L14.7,9.3l1.6,4.3c0.1,0.3-0.1,0.6-0.4,0.6h-2.2c-0.3,0-0.5-0.3-0.4-0.6L14.7,9.3z"/>
			<path class="st2" d="M40.8,36h-1h-2.3H12.2c-0.2,0-0.3,0.1-0.5,0.1l-4.4,2.7c-0.1,0.1-0.2,0.3-0.2,0.4c0,0.2,0.1,0.3,0.2,0.4
				l4.4,2.7c0.2,0,0.3,0.1,0.5,0.1h25.3h2.3h1c1.4,0,2.6-1.1,2.6-2.6v-1.3C43.4,37.2,42.2,36,40.8,36z M13.4,39.5L12.2,41
				c-0.1,0.2-0.4,0.2-0.6,0.1l-0.6-0.3c-0.1-0.1-0.2-0.2-0.2-0.4v-2.2c0-0.2,0.1-0.3,0.2-0.4l0.6-0.3c0.2-0.1,0.5-0.1,0.6,0.1
				l1.1,1.4C13.5,39.1,13.5,39.4,13.4,39.5z M14.7,39.8h21.9c0.3,0,0.5,0.2,0.5,0.5V41c0,0.3-0.2,0.5-0.5,0.5H14.1
				c-0.4,0-0.6-0.4-0.4-0.7l0.6-0.8C14.4,39.8,14.5,39.8,14.7,39.8z M36.6,38.8H14.7c-0.1,0-0.3-0.1-0.4-0.2l-0.6-0.8
				c-0.2-0.3,0-0.7,0.4-0.7h22.5c0.3,0,0.5,0.2,0.5,0.5v0.8C37,38.5,36.8,38.8,36.6,38.8z M9.8,38.5V40l-1.2-0.7L9.8,38.5z M38.1,37
				h1.3v4.4h-1.3V37z M42.4,39.9c0,0.9-0.7,1.6-1.6,1.6h0c-0.3,0-0.5-0.2-0.5-0.5v-3.5c0-0.3,0.2-0.5,0.5-0.5l0,0
				c0.9,0,1.6,0.7,1.6,1.6V39.9z"/>
		</g>
		<line class="st3" x1="22.1" y1="9" x2="41.9" y2="9"/>
		<line class="st3" x1="22.1" y1="13.6" x2="41.9" y2="13.6"/>
		<line class="st3" x1="22.1" y1="18.2" x2="41.9" y2="18.2"/>
		<line class="st3" x1="9.4" y1="22.8" x2="41.9" y2="22.8"/>
		<line class="st3" x1="9.4" y1="27.3" x2="41.9" y2="27.3"/>
		<line class="st3" x1="9.4" y1="31.8" x2="41.9" y2="31.8"/>
	</g>
</g>
</svg>
