<svg xmlns="http://www.w3.org/2000/svg" id="Camada_1" x="0" y="0" version="1.1" viewBox="0 0 49 50" xml:space="preserve"><style>.st2,.st3{fill:none;stroke:#444;stroke-linecap:round;stroke-linejoin:round;stroke-miterlimit:10}.st3{stroke-width:.5}</style><path fill="#00dffc" fill-rule="evenodd" d="M45.3 26l1.5-4.4L26.9 2.2l-3.5-.5-18 17-2.3 4.2 3 2.7 2.7-2 .3 19.8v1.9c.1 2.7 2.8 4.6 5.3 3.7l26.9-9.5.5-3.9-.2-5.1.4-3-.5.2v-3.4l3.8 1.7z" clip-rule="evenodd"/><path fill="none" stroke="#444" stroke-linecap="round" stroke-linejoin="round" stroke-miterlimit="10" stroke-width="2.5" d="M41.3 42.9V23.5l1.1 1.1c1.4 1.4 3.5 1.2 4.4-.5.6-1.1.4-2.4-.5-3.2L28.9 3.3c-1.2-1.2-2.8-1.7-4.5-1.5-1.2.2-2.4.8-3.2 1.7L3.9 20.7c-.5.6-.9 1.3-.8 2.1.1 2.4 3 3.5 4.6 1.8l1.1-1.1V45c0 1.8 1.5 3.3 3.3 3.3h16.7"/><path d="M11.3 20.5L23.4 8.8c1.1-1.1 2.9-1.1 4 0L39 20.5" class="st2"/><path d="M25.1 15.8V8m0 8.1c-2.1 0-3.8 1.7-3.8 3.8h7.6c0-2.1-1.7-3.8-3.8-3.8zm1.6 4.2c0 .9-.7 1.6-1.6 1.6s-1.6-.7-1.6-1.6" class="st3"/><path d="M15.9 32.5h18.4V35H15.9zm1.2 3h2.3v9.8h-2.3z" class="st2"/><path d="M30.7 35.5H33v9.8h-2.3z" class="st2" transform="rotate(-180 31.888 40.362)"/><path d="M24.9 35h5.5v2.1h-5.5z" class="st2"/><path d="M18.3 29.3h2.8v2.8h-2.8zm.5-2l.8 1.8 1.3-2m5.7 3h2.5V32h-2.5zm-2.7-5.7h7.9v5.5h-7.9zm5.3.1l-3.4 3m.8 1.5l4.8-4.4" class="st3"/></svg>