<svg xmlns="http://www.w3.org/2000/svg" id="Layer_1" x="0" y="0" version="1.1" viewBox="0 0 50 50" xml:space="preserve"><style>.st3{fill:#031326}</style><path fill="#00c8e2" d="M45.9 27.8l.5 4.1L3.7 47l-.1-8.6.2-4.9 42.6-15.1-.6 3.6z"/><path fill="#00dffc" d="M46.1 12.1l-.3 7.3L4.1 34.1l-.2-9.3.2-4.2 42-14.8z"/><path fill="none" stroke="#031326" stroke-linecap="round" stroke-linejoin="round" stroke-miterlimit="10" stroke-width="2.5" d="M24 48.2H3.7V1.8h42.6V32"/><path d="M28.3 9.7c-1.1-.2-2.2-.3-3.3-.3-4.4 0-8.5 1.7-11.6 4.8-3.1 3.1-4.8 7.2-4.8 11.6 0 3.6 1.2 7.2 3.4 10-.3.4-.4.9-.4 1.5 0 .8.3 1.5.8 2.1.6.5 1.3.8 2.1.8s1.5-.3 2-.8c.5-.6.8-1.3.8-2.1s-.3-1.5-.8-2-1.3-.8-2-.8c-.4 0-.8.1-1.2.3-1.9-2.5-3-5.7-3-8.9 0-8.1 6.6-14.6 14.7-14.6 1 0 2 .1 2.9.3.2 0 .5 0 .7-.1s.3-.3.4-.6c0-.7-.3-1.1-.7-1.2zM14.5 36.1c.3 0 .6.1.8.3.2.2.3.5.3.8 0 .3-.1.6-.3.8-.4.4-1.2.4-1.6 0-.2-.2-.3-.5-.3-.8 0-.3.1-.6.3-.8.2-.2.5-.3.8-.3zM38 15.7c.7-1.1.5-2.6-.5-3.5-.6-.5-1.3-.9-2.1-.9s-1.5.3-2 .9c-.5.5-.8 1.3-.8 2 0 .8.3 1.5.8 2.1.5.5 1.3.8 2 .8.4 0 .8-.1 1.2-.3 1.9 2.5 3 5.7 3 8.8 0 8.1-6.6 14.7-14.7 14.7-1 0-1.9-.1-2.9-.3-.2 0-.5 0-.7.1-.2.1-.3.3-.4.6-.1.5.2.9.7 1 1.1.2 2.1.3 3.2.3 4.4 0 8.5-1.7 11.6-4.8 3.1-3.1 4.8-7.2 4.8-11.6.2-3.5-1-7-3.2-9.9zm-1.7-2.2c.4.4.4 1.2 0 1.6-.4.4-1.2.4-1.6 0-.2-.2-.3-.5-.3-.8 0-.3.1-.6.3-.8.4-.5 1.1-.5 1.6 0z" class="st3"/><path d="M35.9 22.9h-1c-.2-.7-.5-1.4-.9-2.1l.7-.7c.2-.2.3-.4.3-.6 0-.2-.1-.5-.3-.6L31.9 16c-.3-.3-.9-.3-1.2 0l-.7.7c-.7-.4-1.3-.7-2.1-.9v-1c0-.5-.4-.9-.9-.9h-4c-.5 0-.9.4-.9.9v1c-.7.2-1.4.5-2.1.9l-.7-.7c-.3-.3-.9-.3-1.2 0l-2.8 2.8c-.2.2-.3.4-.3.7 0 .2.1.4.3.6l.7.7c-.4.7-.7 1.4-.9 2.1h-1c-.5 0-.9.4-.9.9v4c0 .2.1.5.3.6.2.2.4.3.6.3h1c.2.7.5 1.4.9 2.1l-.7.7c-.2.1-.3.3-.3.5s.1.5.3.6l2.8 2.8c.3.3.9.3 1.2 0l.7-.7c.7.4 1.3.6 2.1.9v1c0 .5.4.9.9.9h4c.5 0 .9-.4.9-.9v-1c.7-.2 1.4-.5 2.1-.9l.7.7c.3.3.9.3 1.2 0l2.8-2.8c.3-.3.3-.9 0-1.2l-.7-.7c.4-.7.7-1.4.9-2.1h1c.5 0 .9-.4.9-.9v-4c-.1-.4-.5-.8-.9-.8zm-.9 3.9h-.8c-.4 0-.8.3-.9.7-.2 1-.6 1.9-1.2 2.8-.2.3-.2.8.1 1.1l.6.6-1.5 1.5-.6-.5c-.3-.3-.8-.3-1.1-.1-.9.5-1.8.9-2.8 1.2-.4.1-.7.4-.7.9v.8h-2.2V35c0-.4-.3-.8-.7-.9-1-.2-1.9-.6-2.8-1.2-.3-.2-.8-.2-1.1.1l-.6.6-1.5-1.6.6-.6c.3-.3.3-.8.1-1.1-.6-.9-1-1.8-1.2-2.8-.1-.4-.4-.7-.9-.7H15v-2.2h.8c.4 0 .8-.3.9-.7.2-1 .6-2 1.2-2.8.2-.3.2-.8-.1-1.1l-.6-.6 1.5-1.6.6.6c.3.3.8.3 1.1.1.9-.6 1.8-1 2.8-1.2.4-.1.7-.5.7-.9v-.8h2.2v.8c0 .4.3.8.7.9 1 .2 1.9.6 2.8 1.2.3.2.8.2 1.1-.1l.6-.6 1.5 1.6-.6.6c-.3.3-.3.8-.1 1.1.6.9 1 1.8 1.2 2.8.1.4.4.7.9.7h.8v2.2z" class="st3"/><path d="M25 20.3c-3 0-5.5 2.4-5.5 5.5 0 3 2.5 5.5 5.5 5.5s5.5-2.5 5.5-5.5c0-3.1-2.5-5.5-5.5-5.5zm0 9.2c-2 0-3.7-1.7-3.7-3.7s1.7-3.7 3.7-3.7 3.7 1.7 3.7 3.7-1.7 3.7-3.7 3.7zm6.7-18.2c0 .2-.1.5-.3.6-.2.2-.4.3-.6.3-.2 0-.5-.1-.6-.3-.2-.2-.3-.4-.3-.6 0-.2.1-.5.3-.6.3-.3.9-.3 1.2 0 .2.2.3.4.3.6zM20.1 40.2c0 .2-.1.5-.3.6-.1.2-.3.2-.6.2-.2 0-.5-.1-.6-.3-.2-.2-.3-.4-.3-.6 0-.2.1-.5.3-.6.3-.3.9-.3 1.2 0 .2.2.3.4.3.7z" class="st3"/></svg>