<svg xmlns="http://www.w3.org/2000/svg" id="Layer_1" x="0" y="0" version="1.1" viewBox="0 0 50 50" xml:space="preserve"><style>.st3{fill:#031326}</style><path fill="#a475ef" d="M48.5 26.1c0-.2.1-.4.1-.6 0-2-1.4-3.7-3.4-4.1l-.3-.6v-.1c.9-.6 1.5-1.7 1.5-2.8 0-1.9-1.5-3.4-3.4-3.4-.5 0-.9.1-1.4.3-.3-.1-.7-.2-.9-.4-.2-.1-.3-.3-.5-.5.1-.4.2-.8.2-1.2 0-.6-.1-1.1-.4-1.6l-38.6 14c-.3.6-.4 1.2-.4 1.8 0 2.3 1.9 4.2 4.2 4.2 1.4 0 2.8-.7 3.6-2 .3-.1.6-.1.9 0 .3 0 .6.2.9.3.5 1.3 1.7 2.2 3.1 2.2.7 0 1.4-.3 2-.7l1.7.5c.2 1.1 1.2 2 2.4 2 .2 0 .5 0 .7-.1.1 0 .2.1.3.1.6 0 1.4.5 1.7.7.1.4.3.8.6 1.2"/><path fill="#bf94f7" d="M36.6 9.9c-.6 0-1.2.2-1.8.5h-.3c-.2 0-1.3 0-2.2-.1-.2-1.2-1.1-2.2-2.2-2.5-.2-.2-.5-.5-4.9-.2-.7-.9-1.7-1.4-2.9-1.4-1.9 0-3.5 1.5-3.7 3.4l-.4-.4c0-1.2-1-2.2-2.4-2.2s-2.6 1.1-2.6 2.6c0 .5.2 1 .5 1.5h-1.2c-.5-.3-1-.4-1.6-.4-1.7 0-3 1.3-3 3 0 .7.2 1.3.6 1.8l-.1.9c-.3-.1-.6-.2-1-.2-2 0-3.7 1.6-3.7 3.7 0 1.1.5 2.2 1.4 2.9v.3c-.1.2-.2.5-.4.7C3.2 24 2 25 1.4 26.3L40 12.2c-.5-1.4-1.9-2.3-3.4-2.3z"/><path d="M30.4 45.9c-2.9 0-5.3-2.4-5.3-5.3 0-1 .3-2.1.9-2.9 0 0-.1-.1-.2-.1-1.8-.2-3.4-1.4-4.1-3.1-.3-.4-.5-.5-.7-.5h-.3c-1.8.3-3.3-.6-3.9-2.1l-.4-.1c-.6.3-1.4.5-2.1.5-1.7 0-3.2-.9-4-2.4h-.1c-1 1.2-2.5 2-4.2 2-3 0-5.4-2.4-5.4-5.4 0-2.3 1.4-4.3 3.5-5-.6-.8-.9-1.8-.9-2.8 0-2.5 1.9-4.5 4.3-4.8-.1-.4-.2-.8-.2-1.2 0-2.3 1.9-4.2 4.2-4.2.3 0 .7 0 1 .1.1-2 1.7-3.6 3.7-3.6 1 0 2 .4 2.6 1.1.9-1.1 2.3-1.8 3.8-1.8 1.2 0 2.4.5 3.3 1.3 3.3-.2 4.3 0 4.8.3 1.2.4 2.1 1.2 2.5 2.3h1.1c.7-.3 1.4-.5 2.1-.5 2.8 0 5 2.2 5 5v.7c.4-.1.9-.2 1.3-.2 2.5 0 4.6 2 4.6 4.6 0 .9-.3 1.8-.8 2.6 1.8.9 3 2.7 3 4.7 0 2.9-2.4 5.3-5.3 5.3-.7 0-1.2-.6-1.2-1.2s.6-1.2 1.2-1.2c1.5 0 2.8-1.2 2.8-2.8 0-1.3-1-2.5-2.3-2.7l-.5-.1-.3-.4c-.3-.3-.5-.7-.5-1.1v-.2l-.1-.7.6-.4c.6-.4.9-1 .9-1.7 0-1.1-.9-2.1-2.1-2.1-.3 0-.6.1-.8.2h-.4l-.4-.1c-.5-.1-1-.3-1.4-.6-.3-.2-.5-.4-.7-.7l-.4-.6.2-.6c.1-.2.1-.5.1-.8 0-1.4-1.1-2.5-2.5-2.5-.4 0-.8.1-1.1.3l-.3.2h-.3c-.4.1-1.6 0-2.5-.1l-1-.1-.1-1c-.1-.7-.6-1.2-1.2-1.3l-.4-.1-.1-.1c-.3 0-1.3-.1-3.9.1h-.7l-.4-.5c-.5-.6-1.1-.9-1.8-.9-1.2 0-2.2 1-2.3 2.2l-.2 2.7L17.5 9v-.5c-.1-.6-.6-1.1-1.2-1.1-.7 0-1.2.6-1.2 1.2 0 .2.1.5.2.7l1.4 2h-3.2l-.4.2-.6-.3c-.3-.2-.6-.3-.9-.3-.9 0-1.7.7-1.7 1.7 0 .4.2.8.3 1l.3.4-.5 2.7-1.4-.4c-.2-.1-.4-.1-.6-.1-1.3 0-2.3 1-2.3 2.3 0 .7.3 1.4.9 1.8l.5.4v.6c0 .2 0 .4-.1.6-.1.5-.4.9-.7 1.2l-.3.4-.4.1c-1.4.2-2.5 1.4-2.5 2.8 0 1.6 1.3 2.9 2.9 2.9 1 0 1.9-.5 2.4-1.3l.3-.4.5-.1c.5-.1.9-.1 1.4-.1.5.1.9.3 1.3.5l.3.2.1.4c.3.8 1 1.3 1.9 1.3.5 0 .9-.2 1.2-.4l.5-.4 3 .9.1.7c.1.5.5.9 1.1.9.1 0 .2 0 .3-.1l.5-.1.3.2c1 .1 2 .8 2.2.9l.4.3.1.4c.3 1 1.2 1.8 2.3 1.8h.2l.2.1c.7.3 1.3.8 1.6 1.4.3.5.4 1.2.3 1.8l-.1.3-.2.3c-.4.5-.6 1.1-.6 1.7 0 1.6 1.3 2.8 2.8 2.8s2.8-1.3 2.8-2.8c0-.6-.2-1.2-.6-1.7l-.2-.3v-.4c0-.5.1-.9.3-1.3.2-.3.4-.6.8-.8l.4-.2h.4c1.1 0 1.9-.9 1.9-2 0-.7.6-1.2 1.2-1.2s1.2.6 1.2 1.2c0 2.1-1.5 3.9-3.5 4.4.4.7.6 1.6.6 2.4 0 2.9-2.4 5.3-5.3 5.3z" class="st3"/><path d="M27.8 13.5c0 .9.7 1.6 1.6 1.6.9 0 1.6-.7 1.6-1.6 0-.9-.7-1.6-1.6-1.6-.9.1-1.6.8-1.6 1.6zm-8.7-.7c0 .7.6 1.3 1.3 1.3.7 0 1.3-.6 1.3-1.3 0-.7-.6-1.3-1.3-1.3-.7 0-1.3.6-1.3 1.3z" class="st3"/><circle cx="17.3" cy="15.4" r="1.6" class="st3"/><path d="M19.7 17c0 1 .8 1.8 1.8 1.8s1.8-.8 1.8-1.8-.8-1.8-1.8-1.8-1.8.8-1.8 1.8zm-1.8 4c0 .9.7 1.5 1.5 1.5.9 0 1.5-.7 1.5-1.5 0-.9-.7-1.5-1.5-1.5-.8-.1-1.5.6-1.5 1.5zm3.9 6.4c0 .7.5 1.2 1.2 1.2s1.2-.5 1.2-1.2-.5-1.2-1.2-1.2c-.6 0-1.2.5-1.2 1.2zm7.3-7.5c0 1.2.9 2.1 2.1 2.1 1.2 0 2.1-.9 2.1-2.1 0-1.2-.9-2.1-2.1-2.1-1.1 0-2.1.9-2.1 2.1zm-.2 4.8c0 1 .8 1.7 1.7 1.7 1 0 1.7-.8 1.7-1.7 0-1-.8-1.7-1.7-1.7-.9-.1-1.7.7-1.7 1.7zm5.4 2.4c0 .7.6 1.2 1.2 1.2.7 0 1.2-.6 1.2-1.2 0-.7-.6-1.2-1.2-1.2-.7-.1-1.2.5-1.2 1.2zm-.9-4.2c0 .7.6 1.2 1.2 1.2.7 0 1.2-.6 1.2-1.2 0-.7-.6-1.2-1.2-1.2-.7 0-1.2.6-1.2 1.2z" class="st3"/><path d="M33.9 17.7c-1.2 0-2.1-1-2.1-2.1 0-1.2 1-2.1 2.1-2.1 1.2 0 2.1 1 2.1 2.1 0 .3-.1.6-.2.8.1.2.3.4.5.5.2.2.5.3.9.3.3-.1.5-.2.8-.2 1 0 1.9.8 1.9 1.9 0 .7-.4 1.3-.9 1.6v.3c0 .2.2.4.3.6 1.1.1 2 1.1 2 2.3 0 1.3-1 2.3-2.3 2.3-1.3 0-2.3-1-2.3-2.3 0-.8.4-1.6 1.1-2 .2-.2.2-.4.2-.7 0-.1-.1-.2-.1-.3-.9-.1-1.6-.9-1.6-1.8 0-.2 0-.3.1-.5-.1-.3-.3-.5-.6-.7-.2-.2-.5-.3-.8-.3-.4.2-.7.3-1.1.3zm-20.5 4.6c.2-.2.4-.4.5-.7v-.5c-.5-.4-.9-1-.9-1.7 0-1.1.9-2 2-2s2 .9 2 2c0 1-.8 1.9-1.8 2-.1.1-.2.3-.2.5-.1.3 0 .6.1.9.5.4.8.9.9 1.5.2.2.5.3.8.3.3 0 .6 0 .9-.1.3-.5.9-.8 1.5-.8.4 0 .7.1 1 .3.3 0 .6-.1.8-.2.4-.2.7-.5.8-1v-.4c0-1.8 1.4-3.2 3.2-3.2h.4c.2-.2.3-.4.4-.7.1-.2.1-.3.1-.5-.3-.3-.4-.6-.4-1v-.3c0-.2.1-.4.2-.5 0-.2-.1-.3-.2-.5-.2-.3-.4-.5-.7-.6h-.2c-1.1 0-2-.9-2-2s.9-2 2-2 2 .9 2 2c0 .5-.2.9-.5 1.3 0 .3.1.6.2.8.1.1.2.2.3.4h.2c.8 0 1.5.7 1.5 1.5s-.6 1.4-1.4 1.5c-.1.1-.2.3-.2.5-.1.2-.1.5-.1.8.9.6 1.5 1.6 1.5 2.7 0 1.8-1.4 3.2-3.2 3.2-.9 0-1.7-.4-2.3-.9-.4-.1-.8 0-1.2.2-.2.1-.5.3-.6.6v.1c0 1-.8 1.8-1.8 1.8-.8 0-1.5-.5-1.7-1.3-.2-.2-.5-.3-.8-.3-.3 0-.6 0-.9.1-.4.7-1.2 1.2-2.1 1.2-1.3 0-2.4-1.1-2.4-2.4.1-1.5 1.1-2.5 2.3-2.6zm13.8 4.3c1.2 0 2.2 1 2.2 2.2 0 .5-.2 1-.5 1.4-.1.4 0 .7.1 1 .2.3.4.5.8.7h.2c.2 0 .3 0 .5.1.2-.1.4-.3.5-.5.1-.2.1-.4.1-.6-.2-.3-.4-.7-.4-1.1 0-1 .8-1.8 1.8-1.8s1.8.8 1.8 1.8-.8 1.8-1.8 1.8h-.1c-.2.1-.4.3-.5.5-.1.2-.2.5-.1.7.3.4.6.9.6 1.5 0 1.3-1.1 2.4-2.4 2.4-1.3 0-2.4-1.1-2.4-2.4 0-.6.2-1.1.6-1.5.1-.4 0-.7-.1-1-.2-.3-.5-.6-.9-.7-1.2 0-2.1-1-2.1-2.2-.1-1.4.9-2.3 2.1-2.3z" class="st3"/></svg>