<svg xmlns="http://www.w3.org/2000/svg" id="Layer_1" x="0" y="0" version="1.1" viewBox="0 0 50 50" xml:space="preserve"><style>.st3{stroke-width:.5}.st3,.st4{fill:none;stroke:#494949;stroke-linecap:round;stroke-linejoin:round;stroke-miterlimit:10}</style><path fill="#dc5e82" d="M46.7 26.2l.4 4.1L2.8 46.4l.2-8.6.3-5 44.1-16-.7 3.5z"/><path fill="#f56991" d="M46.7 10.4l-.5 7.3L3 33.5v-9.4l.3-4.2L46.8 4z"/><path fill="none" stroke="#444" stroke-linecap="round" stroke-linejoin="round" stroke-miterlimit="10" stroke-width="2.5" d="M32.6 47.2h-30V2.8h44.8v34.4"/><path d="M23.8 37.4h13.7M23.8 23h13.7" class="st3"/><path d="M25.5 20.3h10.3c.9 0 1.7.8 1.7 1.7v17.1c0 .9-.8 1.7-1.7 1.7H25.5c-.9 0-1.7-.8-1.7-1.7V22c0-1 .8-1.7 1.7-1.7zm-5.2 4v-1.7c0-.4-.3-.7-.7-.7h-6.1c-.4 0-.7.3-.7.7v6c0 .4.3.7.7.7h6.2c.4 0 .7-.3.7-.7v-1.7l1.7-1.3-1.8-1.3zm4.5-14v5.9c0 .6-.5 1.1-1.1 1.1H22v3.1l-3.9-3.1h-4.5c-.6 0-1.1-.5-1.1-1.1v-5.9c0-.6.5-1.1 1.1-1.1h10.1c.6 0 1.1.5 1.1 1.1zm9.9 1.3h.7c.5 0 .9.4.9.9v3.7c0 .5-.4.9-.9.9h-.9v1.7L31.9 17H31" class="st4"/><path d="M33.6 9.8h-6.1c-.5 0-.9.4-.9.9v3.7c0 .5.4.9.9.9h.9v2.2l3.1-2.2h2.2c.5 0 .9-.4.9-.9v-3.7c-.1-.5-.5-.9-1-.9z" class="st4"/><path d="M28.2 11.6h4.6m-4.6 1.6h2.7m-10.1-1.9c-.6-.6-1.4-.6-2 0l-.2.2c-.4-.7-1.3-.8-2-.4s-.8 1.3-.4 2c.1.1.1.2.2.2l2.2 2.2 2.2-2.2c.6-.5.6-1.4 0-2zm-3.2 13.2c0 .5-.4 1.3-.9 1.3s-.9-.8-.9-1.3.4-.9.9-.9.9.4.9.9zM15.2 26c-.3.3-.5.7-.6 1.1 1.2.8 2.8.8 4 0-.1-.4-.3-.8-.6-1.1" class="st3"/></svg>