<svg xmlns="http://www.w3.org/2000/svg" id="Camada_1" x="0" y="0" version="1.1" viewBox="0 0 50 50" xml:space="preserve"><style>.st5{fill:none;stroke:#444;stroke-linecap:round;stroke-linejoin:round;stroke-miterlimit:10}</style><path fill="#7ed0d6" d="M32.2 4.2l-6-2.9c-3.2 0-21.7 9-21.7 12.3L4 21.5 40 8.7l-7.8-4.5z"/><path fill="#71bac0" d="M3.9 21.4l.5 15.3L16 44.3l31.4-11.2c.7-.4-.8-19-1.8-21l-5.7-3.6-36 12.9z"/><path fill="none" stroke="#444" stroke-linecap="round" stroke-linejoin="round" stroke-miterlimit="10" stroke-width="2.5" d="M30.7 46.7L28.5 48c-1.7 1-3.8 1-5.5 0L7.2 38.9c-1.7-1-2.8-2.8-2.8-4.8V15.9c0-2 1.1-3.8 2.8-4.8L23 2c1.7-1 3.8-1 5.5 0l15.7 9.1c1.7 1 2.8 2.8 2.8 4.8v18.2c0 2-1.1 3.8-2.8 4.8l-2.4 1.4"/><ellipse cx="25.8" cy="24.9" fill="none" stroke="#444" stroke-miterlimit="10" stroke-width=".5" rx="2.4" ry="2.5" transform="rotate(-45.001 25.759 24.944)"/><path fill="none" stroke="#444" stroke-linecap="round" stroke-linejoin="round" stroke-miterlimit="10" stroke-width=".5" d="M31.3 25.4v-.9c0-.2-.1-.3-.3-.3l-1-.2c-.1 0-.2-.1-.3-.2-.1-.3-.2-.6-.3-.8-.1-.1-.1-.3 0-.4l.7-.8c.1-.1.1-.3 0-.4l-.6-.6c-.1-.1-.3-.1-.4 0l-.8.7c-.1.1-.3.1-.4 0-.3-.1-.5-.3-.8-.3-.1 0-.2-.1-.2-.3l-.1-1.1c0-.2-.2-.3-.3-.3h-.9c-.2 0-.3.1-.3.3l-.1 1.1c0 .1-.1.2-.2.3-.3.1-.6.2-.8.3-.1.1-.3.1-.4 0l-.8-.7c-.1-.1-.3-.1-.4 0l-.6.6c-.1.1-.1.3 0 .4l.7.8c.1.1.1.3 0 .4-.1.3-.3.5-.3.8 0 .1-.1.2-.3.2l-1.1.1c-.2 0-.3.2-.3.3v.9c0 .2.1.3.3.3l1.1.1c.1 0 .2.1.3.2.1.3.2.6.3.8.1.1.1.3 0 .4l-1.1.9c-.1.1-.1.3 0 .4l.6.6c.1.1.3.1.4 0l.8-.7c.1-.1.3-.1.4 0 .3.1.5.3.8.3.1 0 .2.1.2.3l.1 1.1c0 .2.2.3.3.3h.9c.2 0 .3-.1.3-.3l.1-1.1c0-.1.1-.2.2-.3.3-.1.6-.2.8-.3.1-.1.3-.1.4 0l.8.7c.1.1.3.1.4 0l.6-.6c.1-.1.1-.3 0-.4l-.7-.8c-.1-.1-.1-.3 0-.4.1-.3.3-.5.3-.8 0-.1.1-.2.3-.2l1.1-.1c.5 0 .6-.2.6-.3z"/><circle cx="10.4" cy="25" r="2.1" class="st5"/><circle cx="25.9" cy="9.6" r="2.1" class="st5"/><circle cx="25.9" cy="40.4" r="2.1" class="st5"/><circle cx="36.7" cy="14.1" r="2.1" class="st5"/><circle cx="40.3" cy="25" r="3" class="st5"/><circle cx="15.4" cy="35.2" r="3" class="st5"/><circle cx="15.3" cy="14.6" r="3" class="st5"/><circle cx="37.3" cy="36.4" r="3" class="st5"/><circle cx="25.9" cy="25" r="10" class="st5"/><path d="M13.9 24.9h4.7m14.7 0h4.1M25.8 15v-2.8m0 25.1v-2.1m-8.1-1.9l3-3M32 19l2.4-2.4m-14 2.9l-2.7-2.7m16.5 16.5c-2.1-2.1-2.3-2.2-2.3-2.2" class="st5"/></svg>