<svg xmlns="http://www.w3.org/2000/svg" id="Camada_2" data-name="Camada 2" viewBox="0 0 39.1 45.5"><defs><style>.cls-3{fill:none;stroke:#444;stroke-miterlimit:10;stroke-width:.5px}</style></defs><g id="_Ícones" data-name="Ícones"><path fill="#00dffc" stroke-width="0" d="M38.86 25.08V5.52c0-2.05-6.86-4.22-17.78-4.22S1.3 3.46 1.3 5.52v33.94l37.56-14.38z"/><path fill="#444" stroke-width="0" d="M36.6 7v10.2l-.1 1.6v7.7c0 .7.6 1.3 1.3 1.3s1.3-.6 1.3-1.3V5.2C39.2 1 25 0 19.6 0S0 .9 0 5.2v35.1c0 4.3 14.1 5.2 19.6 5.2.7 0 1.3-.6 1.3-1.3s-.6-1.3-1.3-1.3c-9.7 0-16.1-1.8-17-2.8v-9.5l-.1-1.7V18.8l.1-1.6V5.3c1-1 7.4-2.8 17-2.8 9.6.1 15.9 1.8 17 2.8V7z"/><circle cx="30.8" cy="24.4" r="1.8" class="cls-3"/><circle cx="30.8" cy="12.5" r="1.8" class="cls-3"/><path fill="none" stroke="#444" stroke-miterlimit="10" d="M1.93 5.06s17.46 5.4 36.09 0M1.8 17.9s17.46 5.4 36.09 0"/><path fill="none" stroke="#444" stroke-linecap="round" stroke-miterlimit="10" d="M1.8 29.69s11.82 3.66 26.4 1.94"/></g></svg>