<svg xmlns="http://www.w3.org/2000/svg" version="1" viewBox="0 0 50 50"><path fill="#A6C1C2" d="M43.308 25.5V7.427c0-1.939-8.197-3.925-18.308-3.925-10.112 0-18.308 1.986-18.308 3.925v31.401L43.308 25.5z"/><path fill="#B9D7D9" d="M39.812 5.224C36.484 4.226 31.098 3.501 25 3.501c-10.111 0-18.308 1.986-18.308 3.925v9.852l33.12-12.054z"/><g fill="#031326"><path d="M25 2.238c-5.444 0-19.571.932-19.571 5.189v35.146c0 4.257 14.128 5.189 19.571 5.189a1.263 1.263 0 000-2.527c-9.73 0-16.132-1.8-17.045-2.824v-9.547C11.673 34.527 19.706 35.03 25 35.03c4.163 0 8.097-.26 11.377-.752a.759.759 0 00-.226-1.5c-3.207.482-7.062.735-11.151.735-9.422 0-15.352-1.316-17.045-2.293V21.012c3.719 1.662 11.751 2.165 17.045 2.165 5.294 0 13.327-.503 17.046-2.165v7.657a1.262 1.262 0 102.527 0V7.427C44.572 3.17 30.444 2.238 25 2.238zM41.99 7.54c-1.764.982-7.666 2.27-16.99 2.27-9.334 0-15.239-1.291-16.995-2.266C9.051 6.515 15.4 4.764 25 4.764c9.585 0 15.93 1.746 16.99 2.776zM25 21.662c-9.421 0-15.352-1.316-17.045-2.293V9.161c3.719 1.662 11.751 2.165 17.045 2.165 5.294 0 13.327-.503 17.046-2.165v10.2c-1.695.985-7.625 2.301-17.046 2.301z"/><circle cx="36.241" cy="38.629" r="1.809"/><circle cx="36.241" cy="26.59" r="1.809"/><circle cx="36.241" cy="14.738" r="1.809"/></g></svg>