<svg xmlns="http://www.w3.org/2000/svg" id="Layer_1" x="0" y="0" version="1.1" viewBox="0 0 50 50" xml:space="preserve"><style>.st3{fill:#031326}</style><path fill="#a6c1c2" d="M46.2 12.4L6.3 27.2v20.1l39.9-14.8z"/><path fill="#b9d7d9" d="M46.2 1.3H4.9c-.8 0-1.4.6-1.4 1.4v23.2c0 .8.6 1.4 1.4 1.4h1.9l39.3-14.8V1.3z"/><path d="M44.6.4H6.2c-.3 0-.6 0-.9.1h-.2c-.1 0-.2 0-.2.1h-.1c-2.1.7-3.6 2.6-3.6 5v22.2h4.3v22h30.3c.7 0 1.3-.6 1.3-1.3s-.6-1.3-1.3-1.3H8.2V9.1h36.5v23.6c0 .7.6 1.3 1.3 1.3.7 0 1.3-.6 1.3-1.3V8c.9-.8 1.5-2 1.5-3.3 0-2.4-1.9-4.3-4.2-4.3zm-36 6.1h-3v18.6H3.8V5.5c0-1.2.8-2.2 1.9-2.4h.5c1.4 0 2.5 1.1 2.5 2.5.1.3 0 .6-.1.9zm36.2-.2c-.2 0-.3.1-.5.2h-33c.1-.3.1-.6.1-1 0-.9-.3-1.8-.7-2.5h33.8c.9 0 1.7.7 1.7 1.7 0 .8-.6 1.5-1.4 1.6z" class="st3"/><path d="M41.1 18.4h2.2v2.2h-2.2z" class="st3" transform="rotate(-180 42.242 19.498)"/><path d="M41.1 14.7h2.2v2.2h-2.2z" class="st3" transform="rotate(-180 42.242 15.825)"/><path d="M41.1 11.1h2.2v2.2h-2.2z" class="st3" transform="rotate(-180 42.242 12.152)"/><path d="M33.4 12.8h-4.1c-.7 0-1.3.6-1.3 1.3v2.5h-3.8c-.7 0-1.3.6-1.3 1.3v2.2h-3.8c-.7 0-1.3.6-1.3 1.3v8.1c0 .7.6 1.3 1.3 1.3h4.1c.2 0 .4 0 .5-.1.2.1.3.1.5.1h4.1c.2 0 .4 0 .5-.1.2.1.3.1.5.1h4.1c.7 0 1.3-.6 1.3-1.3V14.1c0-.7-.6-1.3-1.3-1.3zm-14.1 8.9h3.5v7.6h-3.5v-7.6zm5.2-.3v-3.2H28v11.1h-3.5v-7.9zm8.6 7.9h-3.5V14.4h3.5v14.9zm2.2 6.2H16.2c-.3 0-.5-.2-.5-.5v-.2c0-.3.2-.5.5-.5h19.2c.3 0 .5.2.5.5v.2c-.1.3-.3.5-.6.5zm-7.5 2.4H16.2c-.3 0-.5-.2-.5-.5v-.2c0-.3.2-.5.5-.5h11.7c.3 0 .5.2.5.5v.2c-.1.3-.3.5-.6.5zm-5.1 2.4h-6.6c-.3 0-.5-.2-.5-.5v-.2c0-.3.2-.5.5-.5h6.6c.3 0 .5.2.5.5v.2c0 .3-.2.5-.5.5z" class="st3"/></svg>