<svg xmlns="http://www.w3.org/2000/svg" id="Layer_1" x="0" y="0" version="1.1" viewBox="0 0 50 50" xml:space="preserve"><style>.st0{fill:#ff6b6b}.st2{stroke-width:2.5}.st2,.st3{fill:none;stroke:#494949;stroke-linecap:round;stroke-linejoin:round;stroke-miterlimit:10}</style><path d="M29 15.5l-6.4 2.3-2.8 1-6.8 2.5.9-1.3 3.4-4.7c.5-.6.3-1.5-.3-1.9-.4-.3-1-.3-1.4-.1-.1.1-.2.1-.3.2l-.2.2-3.6 5-1.9-2.2-.2-.2c-.5-.4-1.2-.4-1.7.1-.6.5-.7 1.4-.1 2l1.7 2 1.3 1.5.1.1.1.1-5.7 2-2.8 1c-.2-.4-.2-.8-.2-1.3V7.1c0-.4.4-.8.8-.7 1.1.1 3 .1 5-.6s3.3-1.8 4-2.6c.3-.3.8-.3 1.1 0 .7.8 2 1.9 4 2.6 2 .7 3.9.7 5 .6.4 0 .8.3.8.7v8.4H29z" class="st0"/><path fill="#e56060" d="M48.1 16.5v8.4l-9.9 3.6v-1.8h-3.1V29c-.9.3-1.7.7-2.4 1.4l-2-1.1-1.5 2.5-22.3 8.1-2.9 1c-.6-.8-1-1.8-1-2.8V26.6c-.4-.5-.7-1-.9-1.5l2.8-1 5.7-2 2.2-.8 6.8-2.4 2.8-1 6.4-2.3 1.7-.6c.4-1.7 1.9-2.9 3.6-2.9h9.3c2.7-.1 4.7 1.9 4.7 4.4z"/><path d="M22.6 7.1v3.2l-2.8 1-15 5.5-2.8 1V7.1c0-.4.4-.8.8-.7 1.1.1 3 .1 5-.6s3.3-1.8 4-2.6c.3-.3.8-.3 1.1 0 .7.8 2 1.9 4 2.6 2 .7 3.9.7 5 .6.3 0 .7.3.7.7zM34.3 12h4.6l-8.2 2.9c.4-1.7 1.9-2.9 3.6-2.9z" class="st0"/><path d="M6.9 29.8v12.8c-1.2-.2-2.2-.8-2.9-1.6-.6-.8-1-1.8-1-2.8V26.6c1 1.2 2.4 2.3 3.9 3.2zm23.7-14.3l-.9 4.4h-7.1v-4.4z" class="st2"/><path d="M48.1 16.5v26.1c0 2.5-2 4.5-4.5 4.5H11.4c-2.5 0-4.5-2-4.5-4.5V29.8c2.2 1.3 4.3 2.2 5.1 2.5.2.1.4.1.5 0 1.6-.6 10.1-4.2 10.1-8.5v-3.9h7.1l.9-4.4.1-.5v-.1c.4-1.7 1.9-2.9 3.6-2.9h9.3c2.5 0 4.5 2 4.5 4.5z" class="st2"/><path d="M21.8 6.4c-1.1.1-3 .1-5-.6s-3.3-1.8-4-2.6c-.3-.3-.8-.3-1.1 0-.7.8-2 1.9-4 2.6-2 .7-3.9.7-5 .6-.4 0-.8.3-.8.7v16.7c0 .4.1.9.2 1.3.2.5.5 1 .9 1.5 1 1.2 2.4 2.3 3.9 3.2 2.2 1.3 4.3 2.2 5.1 2.5.2.1.4.1.5 0 1.6-.6 10.1-4.2 10.1-8.5V7.1c0-.4-.4-.7-.8-.7zm-2 16.9c0 1.8-4 4.3-7.3 5.7H12c-1.7-.7-3.6-1.8-5.1-2.8-.9-.7-1.6-1.4-1.9-2-.2-.3-.2-.6-.2-.8V10c0-.4.3-.6.6-.7 1-.1 2.2-.3 3.4-.7.7-.2 1.5-.6 2.2-1l.9-.6c.2-.2.6-.2.8 0 .3.2.5.4.9.6.6.4 1.4.8 2.2 1.1 1.2.4 2.4.6 3.4.7.3 0 .6.3.6.6v13.3z" class="st3"/><path d="M19.1 9.3c-1-.1-2.2-.3-3.4-.7-.8-.3-1.6-.7-2.2-1.1l-.9-.6c-.2-.2-.6-.2-.8 0l-.9.6c-.6.5-1.4.9-2.2 1.1-1.2.5-2.3.7-3.4.7-.3.1-.6.4-.6.7v13.3c0 .3.1.6.2.8.3.7 1 1.3 1.9 2 1.4 1.1 3.4 2.1 5.1 2.8.2.1.3.1.5 0 3.3-1.4 7.3-3.9 7.3-5.7V10c.1-.4-.2-.6-.6-.7zm-6.5 12.4c-.2.3-.6.6-1.1.6h-.3c-.1 0-.2 0-.3-.1 0 0-.1 0-.1-.1 0 0-.1 0-.1-.1 0 0-.1 0-.1-.1-.1 0-.1-.1-.2-.2l-1.3-1.5-1.7-2c-.5-.6-.4-1.5.2-2 .6-.5 1.5-.4 2 .2l1.9 2.2 3.6-5c.4-.6 1.3-.8 1.9-.3.6.4.8 1.3.3 2L13.9 20l-.9 1.3-.4.4z" class="st3"/><path d="M17.3 15.2L13.9 20l-1.3 1.8c-.2.3-.6.6-1.1.6h-.3c-.3-.1-.6-.2-.8-.5l-1.3-1.5-1.7-2c-.5-.6-.4-1.5.2-2 .6-.5 1.5-.4 2 .2l1.9 2.2 3.6-5c.4-.6 1.3-.8 1.9-.3.6.2.7 1.1.3 1.7z" class="st3"/><path d="M21.8 6.4c-1.1.1-3 .1-5-.6s-3.3-1.8-4-2.6c-.3-.3-.8-.3-1.1 0-.7.8-2 1.9-4 2.6-2 .7-3.9.7-5 .6-.4 0-.8.3-.8.7v16.7c0 1 .4 1.9 1.1 2.8 1 1.2 2.4 2.3 3.9 3.2C9 31.1 11.2 32 12 32.3c.2.1.4.1.5 0 1.6-.6 10.1-4.2 10.1-8.5V7.1c0-.4-.4-.7-.8-.7z" class="st2"/><circle cx="36.7" cy="34.4" r="2.6" class="st3"/><path d="M42.3 34.4c0-.5-.1-.9-.2-1.4l2-1.1-1.5-2.7-2 1.1c-.7-.6-1.5-1.1-2.4-1.4v-2.3h-3.1V29c-.9.3-1.7.7-2.4 1.4l-2-1.1-1.5 2.7 2 1.1c-.1.4-.2.9-.2 1.4 0 .5.1.9.2 1.4l-2 1.1 1.5 2.7 2-1.1c.7.6 1.5 1.1 2.4 1.4v2.3h3.1V40c.9-.3 1.7-.7 2.4-1.4l2 1.1 1.5-2.7-2-1.1c.1-.6.2-1 .2-1.5z" class="st3"/></svg>