<svg xmlns="http://www.w3.org/2000/svg" id="Layer_1" x="0" y="0" version="1.1" viewBox="0 0 50 50" xml:space="preserve"><style>.st1{fill:#444}</style><path fill="#ff6b6b" d="M44.7 30.3V7.4c0-1.9-8.2-3.9-18.3-3.9S8.1 5.5 8.1 7.4v36.2l36.6-13.3z"/><circle cx="37.6" cy="38.6" r="1.8" class="st1"/><circle cx="37.6" cy="26.6" r="1.8" class="st1"/><circle cx="37.6" cy="14.7" r="1.8" class="st1"/><path fill="none" stroke="#444" stroke-linecap="round" stroke-linejoin="round" stroke-miterlimit="10" stroke-width="2.5" d="M27.4 46.6c-10.2.2-15.6-1.4-18-2.4-.9-.4-1.5-1.3-1.5-2.3l.3-33.8C8.2 7 8.9 6 10 5.7c14.8-4.7 28-1.4 32.6 0 1 .3 1.7 1.3 1.7 2.4v30.8"/><path fill="none" stroke="#444" stroke-linecap="round" stroke-linejoin="round" stroke-miterlimit="10" d="M8.5 7.4s16.9 6.8 36.2.1M8.5 19.7s16.9 6.8 36.2.1M8.5 32.1s10.7 4.3 24.8 2.7"/></svg>