<svg xmlns="http://www.w3.org/2000/svg" id="Camada_1" x="0" y="0" version="1.1" viewBox="0 0 50 50" xml:space="preserve"><style>.st2{fill:#031326}</style><path fill="#fdcf72" d="M45.3 2.5h-41c-1.3 0-2.4 1-2.4 2.3v13.7l44-16h-.6z"/><path fill="#fcc34f" d="M16.6 35.8c-.4 0-.8.2-1.1.5l1.3-.5h-.2zM47.7 3.6c0-1.1-.8-2-1.8-2.3l-44 16v12.8c0 1.3 1.1 2.4 2.4 2.4h18.2l25.2-9.2V3.6z"/><path d="M26.3 16.3c.9 3 3.6 5.2 6.8 5.2 3.9 0 7.1-3.2 7.1-7.1v-4.1l-13.9 6zm-3 0c-.9 3-3.6 5.2-6.8 5.2-3.9 0-7.1-3.2-7.1-7.1v-4.1l13.9 6zM34.8 41C31 41 28 37.9 28 34.2s3.1-6.8 6.8-6.8 6.8 3.1 6.8 6.8-3 6.8-6.8 6.8zm0-12.9c-3.4 0-6.1 2.7-6.1 6.1s2.7 6.1 6.1 6.1 6.1-2.7 6.1-6.1-2.8-6.1-6.1-6.1z" class="st2"/><path fill="none" d="M34.6 37.3c0 .9-.7 1.6-1.6 1.6h-3.7c1.3 1.6 3.3 2.6 5.6 2.6 1.4 0 2.7-.4 3.9-1.1l.9-.6 5.7 6.2c.3.3.9.4 1.3.1.2-.2.3-.4.3-.6 0-.2-.1-.5-.2-.6L41 38.6l.4-.8c.6-1.1.9-2.3.9-3.6 0-4-3.3-7.3-7.3-7.3-2.9 0-5.6 1.8-6.8 4.5-.4.9-.6 1.9-.6 2.9 0 .6.1 1.1.2 1.7H33c.9-.2 1.6.5 1.6 1.3z"/><path d="M48.5 43.1l-4.6-5c.4-1 .7-2.1.8-3.1h.6c2 0 3.6-1.6 3.6-3.6 0-.7-.6-1.2-1.2-1.2s-1.2.6-1.2 1.2-.5 1.1-1.1 1.1h-.8c-.1-.6-.3-1.1-.4-1.7.7-.4 1.2-1.2 1.2-2.1V7.4C45.4 6.1 44.3 5 43 5H6.5C5.2 5 4.1 6.1 4.1 7.4v21.3c0 1.3 1.1 2.4 2.4 2.4h19c-.1.4-.2.9-.3 1.3H4.3c-.6 0-1.1-.5-1.1-1.1V4.8c0-.6.5-1.1 1.1-1.1h41.1c.6 0 1.1.5 1.1 1.1v17.6c0 .7.6 1.2 1.2 1.2s1.2-.6 1.2-1.2V4.8c0-2-1.6-3.6-3.6-3.6h-41C2.3 1.2.7 2.8.7 4.8v26.5c0 2 1.6 3.6 3.6 3.6h20.8c0 .3.1.6.1.8h-8.6c-.9 0-1.6.7-1.6 1.6s.7 1.6 1.6 1.6h9.7c1.7 3 4.9 5.1 8.6 5.1 1.5 0 2.9-.3 4.3-1l4.3 4.7c.6.7 1.6 1.1 2.5 1.1.9 0 1.7-.3 2.3-.9.7-.6 1.1-1.4 1.1-2.4 0-.9-.3-1.7-.9-2.4zm-42-12.7c-.9 0-1.7-.8-1.7-1.7V7.4c0-.9.8-1.7 1.7-1.7h36.4c.9 0 1.7.8 1.7 1.7v21.3c0 .6-.3 1-.7 1.3-1.6-3.4-5-5.8-8.9-5.8-3.9 0-7.5 2.3-9.1 6v.1H6.5zm40.1 15.7c-.3.3-1 .3-1.3-.1l-5.7-6.2-.9.6c-1.2.7-2.5 1.1-3.9 1.1-2.2 0-4.2-1-5.6-2.6-.6-.9-1.2-1.9-1.4-3.1-.1-.5-.2-1.1-.2-1.7 0-1 .2-2 .6-2.9 1.2-2.7 3.8-4.5 6.8-4.5 4 0 7.3 3.3 7.3 7.3 0 1.2-.3 2.5-.9 3.6l-.4.8 5.8 6.3c.2.2.2.4.2.6l-.4.8z" class="st2"/><path d="M34.1 31.4c-.4.2-.7.6-.7 1v.1H36v-.1c0-.4-.3-.8-.7-1 .2-1 1.1-1.5 1.1-1.5l-.3-.1c-.7.2-1 1.2-1.1 1.5-.1 0-.3-.1-.4-.1-.1 0-.3 0-.4.1.1-.3-.2-1.3-.9-1.5l-.3.1s.9.5 1.1 1.5z" class="st2"/><path d="M37.7 34.4h-1v-.7l1-.4.5-1.9-.4-.1-.4 1.7-.6.3v-.4h-3.9v.4l-.6-.3-.4-1.7-.4.1.5 1.9 1 .4v.7h-1l-1.1 1.4.4.3 1-1.2h.8c.1.3.2.7.3.9l-1.4.9v1.8h.4v-1.6l.9-.7c.4.5.8.8 1.4.8.5 0 1-.3 1.4-.8l.9.7v1.6h.4v-1.8l-1.1-.9.3-.9h.8l1 1.2.4-.3-1.1-1.4z" class="st2"/></svg>