<svg xmlns="http://www.w3.org/2000/svg" id="Layer_1" x="0" y="0" version="1.1" viewBox="0 0 50 50" xml:space="preserve"><style>.st2{fill:#031326}</style><path fill="#ce87ea" d="M43.3 25.5V7.4c0-1.9-8.2-3.9-18.3-3.9S6.7 5.5 6.7 7.4v31.4l36.6-13.3z"/><path fill="#e097fb" d="M39.8 5.2c-3.3-1-8.7-1.7-14.8-1.7-10.1 0-18.3 2-18.3 3.9v9.9L39.8 5.2z"/><path d="M25 2.2c-5.4 0-19.6.9-19.6 5.2v35.1c0 4.3 14.1 5.2 19.6 5.2.7 0 1.3-.6 1.3-1.3s-.6-1.3-1.3-1.3c-9.7 0-16.1-1.8-17-2.8v-9.5c3.7 1.7 11.8 2.2 17 2.2 4.2 0 8.1-.3 11.4-.8.4-.1.7-.4.6-.9-.1-.4-.4-.7-.9-.6-3.2.5-7.1.7-11.2.7-9.4 0-15.4-1.3-17-2.3V21c3.7 1.7 11.8 2.2 17 2.2s13.3-.5 17-2.2v7.7c0 .7.6 1.3 1.3 1.3s1.3-.6 1.3-1.3V7.4c.1-4.2-14.1-5.2-19.5-5.2zm17 5.3c-1.8 1-7.7 2.3-17 2.3S9.8 8.5 8 7.5c1-1 7.4-2.8 17-2.8 9.6.1 15.9 1.8 17 2.8zM25 21.7c-9.4 0-15.4-1.3-17-2.3V9.2c3.7 1.7 11.8 2.2 17 2.2s13.3-.5 17-2.2v10.2c-1.6.9-7.6 2.3-17 2.3z" class="st2"/><circle cx="36.2" cy="38.6" r="1.8" class="st2"/><circle cx="36.2" cy="26.6" r="1.8" class="st2"/><circle cx="36.2" cy="14.7" r="1.8" class="st2"/></svg>