<svg xmlns="http://www.w3.org/2000/svg" id="Camada_3" x="0" y="0" version="1.1" viewBox="0 0 50 50" xml:space="preserve"><style>.st4{fill:none;stroke-miterlimit:10;stroke:#424242;stroke-linecap:square}.st5{fill:#424242}</style><path fill="#a6c1c2" d="M45.2 18.76l-.12 8.22L5.9 41.24 5.25 28.4l-.05-8.6L44.25 7.11l.55 5.16z"/><path fill="#b9d7d9" d="M43.47 5.19l1.96 2.82L4.62 22.59l.97-14.96 2.6-2.52 6.46-.03 4.52-3.42 1.31 3.38 13-.07z"/><path fill="none" stroke="#444" stroke-linecap="round" stroke-linejoin="round" stroke-miterlimit="10" stroke-width="2.5" d="M21.84 5.26h20.4c1.45 0 2.64 1.37 2.64 3.05V29.5M5.34 17.39V8.32c0-1.69 1.18-3.05 2.64-3.05h4.15m-.46 39.69h-3.7c-1.45 0-2.64-1.37-2.64-3.05V31.22"/><path fill="none" stroke="#444" stroke-linejoin="round" stroke-miterlimit="10" stroke-width="2.5" d="M44.88 17.48H28.35"/><path d="M42.27 34.5c.01 1.02-2.68 1.81-5.75 1.85-3.06.04-5.78-.68-5.79-1.7l.13 9.76c.01 1.02 2.73 1.74 5.79 1.7 3.06-.04 5.76-.83 5.75-1.85l-.13-9.76zm.07 4.89c.01 1.02-2.68 1.81-5.75 1.85-3.06.04-5.78-.68-5.79-1.7" class="st4"/><path d="M42.27 34.5c-.01-1.02-2.73-1.74-5.79-1.7-3.06.04-5.76.83-5.75 1.85" class="st4"/><circle cx="30.73" cy="10.59" r="1.34" class="st5"/><circle cx="35.11" cy="10.59" r="1.34" class="st5"/><circle cx="39.49" cy="10.59" r="1.34" class="st5"/><path fill="none" stroke="#444" stroke-linecap="round" stroke-linejoin="round" stroke-miterlimit="10" d="M4.57 8.32v32.92m.51-8.59V18.91h.95m6.29-14.4h2.46l-1.4.65m9.39-.65h-2.7"/><path fill="none" stroke="#444" stroke-linecap="round" stroke-linejoin="round" stroke-miterlimit="10" stroke-width=".5" d="M20.73 6.27h24.15"/><path fill="#444" d="M23.46 13.15c-1.49-1.91-4.5-3.9-5.4-8.64C15.84 5.79 7.11 14.84 7.13 26.23c-.41 7.5 7.11 13.88 9.59 15.4l-.01-1.65.13-6.75c-3.05-.95-4.79-3.97-4.86-4.1-.17-.31-.07-.7.23-.87.3-.18.69-.07.86.24.02.03 1.42 2.47 3.8 3.4l.11-5.69c-3.05-.95-4.79-3.97-4.86-4.1-.17-.31-.07-.7.23-.87.3-.18.69-.07.86.24.02.03 1.42 2.47 3.8 3.4l.22-11.95c.01-.35.29-.63.64-.63.35.01.62.3.62.65l-.15 8.11c2.4-.83 3.91-3.22 3.92-3.25.18-.3.57-.39.87-.2.29.19.38.58.2.88-.08.13-1.93 3.08-5.01 3.91l-.11 5.69c2.4-.83 3.91-3.22 3.92-3.25.18-.3.57-.39.87-.2.29.19.38.58.2.88-.08.13-1.93 3.08-5.01 3.91l-.11 5.69c2.4-.83 3.91-3.22 3.92-3.25.18-.3.57-.39.87-.2.29.19.38.58.2.88-.08.13-1.93 3.08-5.01 3.91l-.11 5.71c1.93-.58 3.69-1.84 5.13-3.1 2.62-2.8 4.72-7.21 4.82-12.06.11-7.36-2.33-11.17-4.44-13.86z"/><path fill="none" stroke="#444" stroke-miterlimit="10" d="M5.34 26.21c-.09 4.66 2 9.19 6.05 13.09 2.41 2.33 3.87 3.68 4.81 4.2l-.07 3.91c-.01.4.71.91 1.1.92.39.01 1.26-.4 1.26-.81l.07-3.84c2.24-.79 10.79-4.62 11.02-17.01.17-8.86-2.36-12.08-4.8-15.2-1.59-1.88-4.97-4.93-5.02-9.04a.735.735 0 00-.41-.58c-.22-.11-.66-.08-.87.05-2.07.73-13.42 9.7-13.14 24.31z"/></svg>