<svg xmlns="http://www.w3.org/2000/svg" id="Layer_1" x="0" y="0" version="1.1" viewBox="0 0 50 50" xml:space="preserve"><style>.st2{fill:#031326}</style><path fill="#c3ff68" d="M30.5 19.2H29c.8-1 1.3-2.2 1.3-3.5 0-2.7-4.3-12.1-4.8-13.2-.2-.5-.9-.5-1.1 0-.4 1.1-4.7 10.5-4.7 13.2 0 1.3.5 2.5 1.3 3.5h-1.3L11.3 24c-.5.3-.7.6-.7 1v5.3l24-8.7-4.1-2.4z"/><path fill="#afe55d" d="M37.4 35.3L35.1 34l3.6-2.1c.5-.3.7-.6.7-1v-5.8c0-.4-.2-.8-.7-1l-4.1-2.4-24 8.7v.5c0 .4.2.7.7 1l3.6 2.1-2.3 1.4c-.9.5-.9 1.3 0 1.8l2.2 1.3-2.2 1.3c-.9.5-.9 1.3 0 1.8l3.2 1.9 21.9-8c-.1-.1-.2-.1-.3-.2z"/><path d="M20.3 34.3l-5-2.9c-.1-.1-.2-.3-.2-.4v-.4c0-.2.1-.2.2-.2l5 2.9c.1.1.2.3.2.4v.4c0 .2-.1.3-.2.2zm9.5-.8l-.6.3v-.7l.6-.3zm1.3-.8l-.6.4v-.7l.6-.4zm1.3-.7l-.6.3v-.7l.6-.3zm-1 2l-.6.4v-.7l.6-.4zm1.1-.6l-.6.3V33l.6-.3zm4.1-3.8l-.6.3v-.7l.6-.3zm-2.9 1.6l-.6.4v-.7l.6-.4z" class="st2"/><path d="M40.7 23.9h-.4c-.2-.3-.6-.6-1-.9l-8.2-4.8c.3-.8.5-1.6.5-2.5v-.6c0-2.3-2.4-8-4.5-12.8-.2-.4-.3-.7-.4-.8C26.4.8 25.8.4 25 .4c-.8 0-1.4.4-1.7 1.1-.1.1-.2.4-.4.8-2.1 4.8-4.5 10.5-4.5 12.8v.6c0 .8.2 1.7.5 2.4L10.7 23c-.4.2-.7.5-.9.8h-.4v8.7l.6-.1c.2.2.5.4.8.6l1.6.9-.2.1c-.3.2-.5.4-.7.6-.5.4-.8 1-.8 1.7 0 .8.5 1.5 1.3 2l.4.2-.4.2c-.8.5-1.3 1.2-1.3 2s.5 1.5 1.3 2L22.8 49c.6.4 1.4.5 2.2.5.8 0 1.6-.2 2.2-.5L38 42.7c.8-.5 1.3-1.2 1.3-2s-.5-1.5-1.3-2l-.4-.2.4-.2c.8-.5 1.3-1.2 1.3-2 0-.6-.3-1.2-.9-1.7-.2-.2-.4-.4-.7-.6h-.1l1.6-.9c.4-.3.8-.6 1-1l.3-.1.2-8.1zM25 4.4c2.5 5.7 3.9 9.4 4.1 11-.1 1.8-1.5 3.4-3.3 3.8v-1l1.7-1.7c.3-.3.3-.8 0-1.1s-.8-.3-1.1 0l-.6.6v-1.1l1.7-1.7c.3-.3.3-.8 0-1.1s-.8-.3-1.1 0l-.7.7v-2.7c0-.4-.3-.8-.8-.8s-.8.3-.8.8v2.7l-.6-.6c-.3-.3-.8-.3-1.1 0s-.3.8 0 1.1l1.7 1.7v1.1l-.6-.6c-.3-.3-.8-.3-1.1 0s-.3.8 0 1.1l1.7 1.7v1c-1.8-.4-3.2-1.9-3.3-3.7.2-1.3 1.1-4.1 4.2-11.2zm1.8 18.5l4.2 2.5-5.8 3.4c-.1 0-.2.1-.3 0L19 25.3l4.1-2.4c.1.9.9 1.6 1.8 1.6 1 .1 1.8-.7 1.9-1.6zm-15 2.3s.1 0 0 0l8.1-4.8H21c.5.4 1.1.7 1.7.9l-5.1 3c-.4.2-.6.6-.6 1s.2.7.6.9l6.5 3.8c.2.1.5.2.8.2.3 0 .7-.1 1-.2l6.4-3.7c.4-.2.6-.6.6-1s-.2-.7-.6-.9l-5.2-3c.6-.2 1.2-.5 1.7-.9h1.3l8 4.6s.1 0 .1.1v.5l-11.8 6.8c-.7.4-2 .4-2.7 0l-11.9-6.8v-.5zm24.6 11l-10.2 5.9c-.6.4-1.8.4-2.4 0l-10.2-5.9 2.3-1.4 7 4c.6.3 1.3.5 2.1.5s1.5-.2 2.1-.5l6.9-4 2.4 1.4zM26 46.9c-.5.3-1.4.3-1.9 0l-10.6-6.2 2.4-1.4 7.2 4.1c.5.3 1.2.5 1.9.5s1.4-.2 1.9-.5l7.1-4.1 2.4 1.4L26 46.9zm.4-9.3c-.7.4-2 .4-2.7 0l-11.9-6.8v-3.3l11.1 6.4c.6.3 1.3.5 2.1.5s1.5-.2 2.1-.5l11-6.4v3.3l-11.7 6.8z" class="st2"/></svg>