<svg xmlns="http://www.w3.org/2000/svg" id="Camada_3" x="0" y="0" version="1.1" viewBox="0 0 50 50" xml:space="preserve"><style>.st1{fill:none;stroke:#444;stroke-linecap:round;stroke-linejoin:round;stroke-miterlimit:10}.st2{fill:#444}.st4{fill:none;stroke:#444;stroke-width:.5;stroke-linecap:round;stroke-linejoin:round;stroke-miterlimit:10}</style><path fill="#a475ef" d="M44.3 5.03l-36.48.13c-2.9 0-6.04.91-6.04 3.82v13.75l-.19 10.1c.37 6.28 6.97 6.54 15.18 6.03l.89 5.25 15.37-5.47 15.56-5.54-.2-23.86-4.09-4.21z"/><path d="M32.89 38.31l-25.65-.09c-2.56 0-5.49-2-5.49-4.56m30.18 10.67H18.11c-.53 0-.88-.55-.65-1.03l2.37-4.8h10.3l2.45 4.83c.21.46-.14 1-.65 1z" class="st1"/><circle cx="25.02" cy="35.43" r="1.59" class="st2"/><path fill="none" stroke="#444" stroke-linecap="round" stroke-linejoin="round" stroke-miterlimit="10" stroke-width="2.5" d="M48.65 33.78V11.4c0-3.44-2.79-6.24-6.24-6.24H7.82c-3.44 0-6.24 2.79-6.24 6.24v21.43c0 3.44 2.79 6.24 6.24 6.24h10.63l-1.84 4.48c-.36.88.28 1.85 1.23 1.85l14.34.09c.97.01 1.62-.98 1.24-1.87l-1.94-4.55h5.78"/><path d="M39.26 32.63h8.76m-29.37 0h12.9m-29.25 0h8.16" class="st4"/><path d="M19.78 24.53c-1.97.4-3.99 1.09-6.01 2.14l2.29 5.12s8.94-4.05 17.57.08l2.52-5.43s-2.22-1.09-5.65-1.81" class="st1"/><path d="M18.37 31.03l.52 2.45s-3.21.23-6.42 1.99l-2.52-5.5s2.83-1.45 4.51-1.6l1.6 3.44 2.31-.78zm13.32.1l-.42 2.35s3.21.23 6.42 1.99l2.52-5.5s-3.11-1.7-4.79-1.85l-1.81 3.71-1.92-.7z" class="st1"/><path d="M21.27 17.1l2.95 3.21 5.12-5.16" class="st4"/><path fill="none" stroke="#444" stroke-miterlimit="10" d="M28.93 25.77l-3.4 2.33c-.38.26-.88.24-1.24-.04l-3.88-3.02a9.87 9.87 0 01-3.81-7.78v-5.13c0-.74.48-1.4 1.19-1.62l6.48-2.01c.32-.1.66-.1.99 0L32 10.52c.72.21 1.21.87 1.21 1.62v5.49c.01 3.25-1.6 6.3-4.28 8.14z"/><path d="M36.24 14c-.11-.24 0-.51.23-.62l2.24-1.02a.469.469 0 01.39.85l-2.24 1.02a.473.473 0 01-.62-.23zm-.04 2.51c0-.26.21-.47.47-.47h2.96a.47.47 0 110 .94h-2.96a.47.47 0 01-.47-.47zm2.95 3.45c.22.13.3.42.17.64-.13.22-.42.3-.64.17l-2.24-1.29a.472.472 0 01-.17-.64c.13-.22.42-.3.64-.17l2.24 1.29zM9.93 12.59c.11-.24.39-.34.62-.23l2.24 1.02c.24.11.34.39.23.62a.46.46 0 01-.62.23l-2.24-1.02a.472.472 0 01-.23-.62zm-.76 3.92c0-.26.21-.47.47-.47h2.96a.47.47 0 110 .94H9.63c-.25 0-.46-.21-.46-.47zM13 18.84c.13.22.05.51-.17.64l-2.24 1.29c-.22.13-.51.05-.64-.17a.472.472 0 01.17-.64l2.24-1.29c.23-.13.51-.06.64.17z" class="st2"/></svg>