<svg xmlns="http://www.w3.org/2000/svg" id="Camada_3" x="0" y="0" version="1.1" viewBox="0 0 50 50" xml:space="preserve"><style>.st3{fill:none;stroke:#444;stroke-linecap:round;stroke-linejoin:round;stroke-miterlimit:10;stroke-width:.5}</style><path fill="#c3ff68" d="M27.88 2.84a26.91 26.91 0 00-3.26-.21c-1.11 0-2.19.08-3.26.21-10.9 1.4-16.27 8.5-18.33 19.19l37.9-13.48a25.338 25.338 0 00-13.05-5.71z"/><path fill="#afe55d" d="M40.94 8.55L3.64 21.82l-1.5 2.57c-.31 1.57-.1 3.27-.1 4.92 0 7.85 9.75 8.55 15.34 13.22l.51-1.02L44.62 32l2.82-1.47c.31-1.57-.36-5.73-.36-7.38-1.55-6.96-.57-9.94-6.14-14.6z"/><path fill="none" stroke="#444" stroke-linecap="round" stroke-linejoin="round" stroke-miterlimit="10" d="M21.23 39.87a5.747 5.747 0 012.22 4.54v2.18h1.05V2.18c-13.13 9.46-16.75 27.27-3.27 37.69zm6.54 0a5.747 5.747 0 00-2.22 4.54v2.18H24.5V2.18c13.13 9.46 16.75 27.27 3.27 37.69z"/><path d="M21.23 40.03a5.747 5.747 0 012.22 4.54v2.18h1.05V20.77c0-7.11-10.29-7.91-11.47-.91-1.22 7.25 1.15 14.72 8.2 20.17zm6.54 0a5.747 5.747 0 00-2.22 4.54v2.18H24.5V20.77c0-7.11 10.29-7.91 11.47-.91 1.22 7.25-1.15 14.72-8.2 20.17z" class="st3"/><path d="M20.97 39.67c1.55 1.23 2.48 3.09 2.48 5.08v1.85h1.05V13.35c0-4.45-5.89-6.17-8.18-2.36-5.63 9.33-5.07 20.96 4.65 28.68zm7.06 0c-1.55 1.23-2.48 3.09-2.48 5.08v1.85H24.5V13.35c0-4.45 5.89-6.17 8.18-2.36 5.63 9.33 5.07 20.96-4.65 28.68z" class="st3"/><path d="M23.45 46.6c-.51-4.47-9.81-10-9.81-10S6.67 32.71 6.4 25.22s6.69-5.89 6.69-5.89m22.9 0s6.96-1.6 6.69 5.89c-.26 7.49-7.24 11.37-7.24 11.37s-9.31 5.53-9.81 10" class="st3"/><path d="M6.39 23.77s-4.76-.82-3.7 4.82c.42 2.26 1.73 4.25 3.15 5.84 1.81 2.02 4.07 3.58 6.54 4.7 3.42 1.54 10.03 4.82 11.06 7.47m19.25-22.83s4.76-.82 3.7 4.82c-.42 2.26-1.73 4.25-3.15 5.84M4.19 24.05S2.56 5.13 20.98 5.13m24.39 18.92S47 5.13 28.58 5.13" class="st3"/><path fill="none" stroke="#444" stroke-linecap="round" stroke-linejoin="round" stroke-miterlimit="10" stroke-width="2.5" d="M40.8 37.46c1.27-.87 2.55-1.9 3.47-3.01 5.47-6.91 2.18-10.92 2.18-10.92s.64-8.32-4.66-14.13C36.5 3.58 28.32 3.93 28.32 3.93s-2.34-2.85-3.83-2.74c-1.49-.12-3.83 2.74-3.83 2.74S12.49 3.57 7.2 9.39c-5.3 5.82-4.06 13.88-4.06 13.88s-3.88 4.26 1.59 11.18c2.65 3.18 8.24 5.74 8.24 5.74s9.61 3.41 9.85 7.41h3.36c.11-1.83 2.17-3.53 4.38-4.84"/><path fill="#444" d="M22.17 45.22h4.19v2.25h-4.19z"/></svg>