<svg xmlns="http://www.w3.org/2000/svg" id="Layer_1" x="0" y="0" version="1.1" viewBox="0 0 50 50" xml:space="preserve"><style>.st3{fill:#444}</style><path fill="#a475ef" d="M44.8 15.11l-.12 8.22L4.22 38.06l.63-13.31-.05-8.6L43.85 3.46l.55 5.16z"/><path fill="#bf94f7" d="M43.07 1.54l1.96 2.82L4.22 18.94l.97-14.96 2.6-2.52 6.46-.03 4.12.36 1.71-.4 13-.07z"/><path fill="none" stroke="#444" stroke-linecap="round" stroke-linejoin="round" stroke-miterlimit="10" stroke-width="2.5" d="M24.21 48.25H7.26h0a3.45 3.45 0 01-3.45-3.45V5.1v0c0-1.83 1.48-3.32 3.32-3.32h34.43c1.98 0 3.59 1.61 3.59 3.59v39.42c0 1.91-1.55 3.46-3.46 3.46H35.7"/><path d="M36.32 15.19c-1.44-1.84-4.34-3.76-5.21-8.33-2.14 1.23-10.56 9.96-10.54 20.95-.4 7.23 6.86 13.39 9.25 14.85l-.01-1.59.13-6.51c-2.94-.92-4.62-3.83-4.69-3.95-.16-.3-.07-.68.22-.84.29-.17.67-.07.83.23.02.03 1.37 2.38 3.67 3.28l.11-5.49c-2.94-.92-4.62-3.83-4.69-3.95-.16-.3-.07-.68.22-.84.29-.17.67-.07.83.23.02.03 1.37 2.38 3.67 3.28l.21-11.53c.01-.34.28-.61.62-.61.34.01.6.29.6.63l-.14 7.82c2.32-.8 3.77-3.11 3.78-3.13.17-.29.55-.38.84-.19.28.18.37.56.19.85-.08.13-1.86 2.97-4.83 3.77l-.11 5.49c2.32-.8 3.77-3.11 3.78-3.13.17-.29.55-.38.84-.19.28.18.37.56.19.85-.08.13-1.86 2.97-4.83 3.77l-.11 5.49c2.32-.8 3.77-3.11 3.78-3.13.17-.29.55-.38.84-.19.28.18.37.56.19.85-.08.13-1.86 2.97-4.83 3.77l-.11 5.51c1.86-.56 3.56-1.77 4.95-2.99 2.53-2.7 4.55-6.95 4.65-11.63.1-7.13-2.25-10.81-4.29-13.4z" class="st3"/><path fill="none" stroke="#444" stroke-miterlimit="10" d="M18.85 27.79c-.09 4.5 1.93 8.86 5.84 12.63 2.32 2.25 3.73 3.55 4.64 4.05l-.07 3.77c-.01.39.68.88 1.06.89.38.01 1.22-.39 1.22-.78l.07-3.7c2.16-.76 10.41-4.46 10.63-16.41.16-8.55-2.28-11.65-4.63-14.66-1.53-1.81-4.79-4.76-4.84-8.72a.707.707 0 00-.4-.56c-.21-.11-.64-.08-.84.05-2.01.69-12.96 9.34-12.68 23.44z"/><path fill="none" d="M21.5 23.5v-2.33c0-.3.24-.54.53-.54h.87c.3 0 .54.24.54.54v2.33c0 .3-.24.54-.54.54h-.87c-.29 0-.53-.24-.53-.54zm1.96 6.24c0 .3-.23.54-.53.54h-.87c-.3 0-.54-.24-.54-.54v-2.33c0-.3.24-.54.54-.54h.87c.3 0 .53.24.53.54v2.33zm.46-14.81c0-.3.24-.54.54-.54h.87c.29 0 .53.24.53.54v2.33c0 .3-.24.54-.53.54h-.87c-.3 0-.54-.24-.54-.54v-2.33zm1.97 21.05c0 .3-.24.54-.53.54h-.88c-.29 0-.53-.24-.53-.54v-2.33c0-.3.24-.54.53-.54h.88c.29 0 .53.24.53.54v2.33z"/><path d="M16.33 27.41v2.31c-.07-.64-.1-1.28-.09-1.93 0-.23-.01-.45 0-.67.06.08.09.18.09.29zm2.4-11.32v1.17c0 .3-.24.54-.54.54h-.18c.22-.59.46-1.16.72-1.71zm4.73 11.32v2.33c0 .3-.23.54-.53.54h-.87c-.3 0-.54-.24-.54-.54v-2.33c0-.3.24-.54.54-.54h.87c.3 0 .53.24.53.54zm2.43 6.24v2.33c0 .3-.24.54-.53.54h-.88c-.29 0-.53-.24-.53-.54v-2.33c0-.3.24-.54.53-.54h.88c.29 0 .53.24.53.54z" class="st3"/><path fill="none" stroke="#444" stroke-linecap="round" stroke-linejoin="round" stroke-miterlimit="10" d="M14.9 11.56h.87c.29 0 .53-.24.53-.53V8.69c0-.29-.24-.53-.53-.53h-.87c-.29 0-.53.24-.53.53v2.34c-.01.29.23.53.53.53zm-4.28 2.83h.87c.29 0 .53.24.53.53v2.34c0 .29-.24.53-.53.53h-.87c-.29 0-.53-.24-.53-.53v-2.34a.52.52 0 01.53-.53zM9.06 8.15h-.87c-.29 0-.53.24-.53.53v2.34c0 .29.24.53.53.53h.87c.29 0 .53-.24.53-.53V8.69c.01-.3-.23-.54-.53-.54zm9.67-.56v4.53M7.66 18.36v-4.53m4.36-1.71V7.59M9.06 20.63h-.87c-.29 0-.53.24-.53.53v2.34c0 .29.24.53.53.53h.87c.29 0 .53-.24.53-.53v-2.34a.52.52 0 00-.53-.53zm2.96 3.97v-4.53m6.71-5.14v2.33c0 .3-.24.54-.54.54h-.87a.53.53 0 01-.53-.54v-2.33c0-.3.23-.54.53-.54h.87c.3 0 .54.24.54.54zm-4.37-1.1v4.53m1.41 5.68h-.87c-.29 0-.53-.24-.53-.53v-2.34c0-.29.24-.53.53-.53h.87c.29 0 .53.24.53.53v2.34c0 .29-.24.53-.53.53zm7.67-15.35v.23c-.63.71-1.26 1.49-1.88 2.35a.514.514 0 01-.06-.25V8.69c0-.3.24-.54.53-.54h.87c.3 0 .54.24.54.54zm-7.11 18.72v2.33c0 .3-.24.54-.54.54h-.87c-.29 0-.53-.24-.53-.54v-2.33c0-.3.24-.54.53-.54h.87c.19 0 .35.09.45.24v.01c.06.08.09.18.09.29zm-5.69 5.7h.87c.29 0 .53.24.53.53v2.34c0 .29-.24.53-.53.53h-.87c-.29 0-.53-.24-.53-.53v-2.34c0-.29.24-.53.53-.53zm-1.55-6.24h-.87c-.29 0-.53.24-.53.53v2.34c0 .29.24.53.53.53h.87c.29 0 .53-.24.53-.53V27.4c0-.29-.23-.53-.53-.53zM7.68 37.08v-4.53m4.37-1.71v-4.53M9.09 39.35h-.87c-.29 0-.53.24-.53.53v2.34c0 .29.24.53.53.53h.87c.29 0 .53-.24.53-.53v-2.34c0-.29-.23-.53-.53-.53zm2.96 3.97v-4.53m6.63-2.54c-.1.16-.27.27-.46.27h-.87c-.3 0-.54-.24-.54-.54v-2.33c0-.23.14-.43.35-.51.38 1.06.88 2.1 1.52 3.11zm-4.29-3.7v4.53m1.41 5.68h-.87c-.29 0-.53-.24-.53-.53v-2.34c0-.29.24-.53.53-.53h.87c.29 0 .53.24.53.53v2.34c0 .29-.24.53-.53.53zm2.95-3.97v4.53m4.71-1.58v.48c0 .3-.23.54-.53.54h-.87c-.3 0-.54-.24-.54-.54v-2.36c.18.19.36.37.55.55.51.49.97.93 1.39 1.33z"/></svg>