<svg xmlns="http://www.w3.org/2000/svg" id="Camada_3" x="0" y="0" version="1.1" viewBox="0 0 50 50" xml:space="preserve"><style>.st6{fill:#444}</style><path fill="#00dffc" d="M42.76 3.84l-34.93.24c-1.1 0-3.04 2.43-3.04 3.53v11.93L45.31 5.42c0-1.1-1.45-1.58-2.55-1.58z"/><path fill="#00c8e2" d="M5.16 19.42l.24 7.42-3.73 7.82c0 5.03 5.44 3.74 19.67 3.25l25.24-8.92V4.77L5.16 19.42z"/><path fill="none" stroke="#444" stroke-linecap="round" stroke-linejoin="round" stroke-miterlimit="10" stroke-width="2.5" d="M48.72 33.05l-2.54-5.64V8.23c0-2.1-1.7-3.8-3.8-3.8H8.83c-2.1 0-3.8 1.7-3.8 3.8V27.4L1.7 34.38c-.84 1.75.44 3.77 2.38 3.77h34.78"/><path fill="none" stroke="#444" stroke-linecap="round" stroke-linejoin="round" stroke-miterlimit="10" stroke-width=".5" d="M7.47 29.49h36M27.36 35.5h-3.79M9.54 9.05h16.55M9.54 16.4h16.55M9.54 23.75h16.55m-9.89-3.5H9.54m6.66-7.52H9.54"/><path fill="none" stroke="#444" stroke-linecap="round" stroke-linejoin="round" stroke-miterlimit="10" d="M4.89 27.41h41.15"/><path fill="#444" stroke="#444" stroke-linecap="round" stroke-linejoin="round" stroke-miterlimit="10" stroke-width=".5" d="M44.65 33.59H6.29l1.06-2.25h36.14z"/><path d="M36.85 22.82h-7.34c-.58 0-1.05-.47-1.05-1.05v-6.29c0-.58.47-1.05 1.05-1.05h7.34c.58 0 1.05.47 1.05 1.05v6.29c0 .58-.47 1.05-1.05 1.05zm-7.34-7.86c-.29 0-.52.24-.52.52v6.29c0 .29.24.52.52.52h7.34c.29 0 .52-.24.52-.52v-6.29c0-.29-.24-.52-.52-.52h-7.34z" class="st6"/><path d="M35.54 14.96c-.14 0-.26-.12-.26-.26v-2.88a2.1 2.1 0 10-4.2 0v2.88c0 .14-.12.26-.26.26s-.26-.12-.26-.26v-2.88c0-1.45 1.18-2.62 2.62-2.62s2.62 1.18 2.62 2.62v2.88c0 .15-.12.26-.26.26zm-2.79 3.58l-.35 2.45h1.57l-.35-2.45c.36-.17.61-.53.61-.95a1.05 1.05 0 10-2.1 0c0 .42.26.78.62.95z" class="st6"/></svg>