<svg xmlns="http://www.w3.org/2000/svg" id="Camada_3" x="0" y="0" version="1.1" viewBox="0 0 50 50" xml:space="preserve"><style>.st3{fill:none;stroke:#444;stroke-width:.5;stroke-linecap:round;stroke-linejoin:round;stroke-miterlimit:13.3333}.st4{fill:#444}.st5{fill:none;stroke:#444;stroke-linecap:round;stroke-linejoin:round;stroke-miterlimit:13.3333}</style><path fill="#fdcf72" d="M32.15 4.22L26.3 1.38c-3.13 0-20.99 8.94-20.99 12.14l-.52 7.8L39.66 8.65l-7.51-4.43z"/><path fill="#fcc34f" d="M4.8 21.32l.52 15.13 11.25 7.56 30.36-11.04c.72-.42-.8-18.75-1.77-20.74l-5.51-3.59L4.8 21.32z"/><path fill="none" stroke="#444" stroke-linecap="round" stroke-linejoin="round" stroke-miterlimit="10" stroke-width="2.5" d="M30.51 46.57l-2.2 1.27c-1.69.98-3.78.98-5.47 0L7.27 38.85a5.48 5.48 0 01-2.74-4.74V16.13a5.46 5.46 0 012.74-4.74L22.84 2.4c1.69-.98 3.78-.98 5.47 0l15.57 8.99a5.48 5.48 0 012.74 4.74v17.98a5.46 5.46 0 01-2.74 4.74l-2.46 1.42"/><path d="M5.15 24.89s8.55 3.15 9.27-2.16c.72-5.31-3.15-9.09 1.35-10.62s9.81-.09 10.44-2.79c.63-2.7-3.6-6.12-3.6-6.12m23.13 17.01s-5.67 2.52-4.86 7.92c.81 5.4 4.77 5.49 4.77 5.49M4.13 22.23s8.02-.14 2.47-9.94m7.05-3.67s13.14 2.52 5.4-3.06m26.82 18.63s-5.4.72-.18 7.38" class="st3"/><circle cx="30.91" cy="19.96" r="2.43" class="st4"/><path d="M18.06 29.9c-.93 0-1.93.6-2.44 1.35-.62.9-.66 2.1-.24 3.09.23-.25.36-.63.63-.89.3-.3.69-.53 1.11-.55.7-.05 1.37.54 1.46 1.23.09.68-.31 1.34-.82 1.8-1.33 1.19-3.3 1.43-5.01 1.3.43.22.88.43 1.28.62.57.27 1.18.47 1.8.61 1.34.3 2.79.09 3.99-.6 1.28-.74 3.09-2.71 2.47-4.34" class="st3"/><path d="M24.2 35.17l-7.65-6.64 2.7-1.49 6.04 5.24z" class="st5"/><path d="M38.13 11.47S26.34 9.19 19.17 27.01l6.13 5.32c16.64-9.6 12.83-20.86 12.83-20.86" class="st5"/><path d="M26.39 31.74l1.08 3.06 3.12-2.56c1.69-1.39 2.76-3.41 2.93-5.54l.06-.81m-14.04-.09l-3.18-.64 2.1-3.45c1.14-1.87 2.99-3.21 5.07-3.68l.79-.18m9.1-5.5l4.49 3.89" class="st5"/><circle cx="27.5" cy="23.91" r="1.14" class="st4"/><path d="M18.33 30.46s-1.47.33-1.75 1.63c0 0 1.9-.78 2.98.59s-.33 3.69-1.17 4.01c0 0 2.35-.28 3.07-3.29" class="st3"/></svg>