<svg xmlns="http://www.w3.org/2000/svg" id="Layer_1" x="0" y="0" version="1.1" viewBox="0 0 50 50" xml:space="preserve"><style>.st2{fill:#031326}</style><path fill="#b9d7d9" d="M31.5 15h-2.8V3c0-.4-.3-.7-.7-.7h-6.1c-.4 0-.7.3-.7.7v12h-2.8c-.3 0-.5.2-.6.4-.1.2 0 .5.1.7l.8.8H13c-.2 0-.4.1-.6.3l-3.5 6L31.7 15h-.2z"/><path fill="#a6c1c2" d="M42.3 25.7c0-.1 0-.1 0 0v-.3l-4.7-8.1c-.1-.2-.3-.3-.6-.3h-5.7l.8-.8c.2-.2.2-.5.1-.7-.1-.2-.2-.3-.4-.4L9 23.2l-1.2 2.1V45l34.5-12.6v-6.7z"/><path d="M42.3 34.7c.7 0 1.2-.6 1.2-1.2v-8.1c0-.1 0-.1-.1-.2 0-.1 0-.1-.1-.2l-4.8-8.4c-.3-.6-1-.9-1.6-.9h-3.4c0-.3 0-.5-.1-.8-.3-.7-1-1.2-1.8-1.2H30V3c0-1.1-.9-1.9-1.9-1.9H22c-1.1 0-2 .9-2 1.9v10.7h-1.6c-.8 0-1.5.5-1.8 1.2-.1.3-.2.5-.1.8H13c-.7 0-1.3.4-1.6.9l-4.7 8.1-.1.2v.1c0 .1 0 .1-.1.2V47c0 1.1.9 1.9 1.9 1.9h33.2c1.1 0 1.9-.9 1.9-1.9v-2.8c0-.7-.6-1.2-1.2-1.2s-1.3.5-1.3 1.2v2.2H9V25.8l4.5-7.6H20l4 4.1c.2.3.6.4.9.4.4 0 .7-.1 1-.4l4-4.1h6.6l4.5 7.6v7.6c0 .8.6 1.3 1.3 1.3zM25 21.1l-4.8-4.9h2.3V3.6h4.9v12.6h2.3L25 21.1z" class="st2"/><path d="M42.2 26.4H7.7c-.4 0-.8-.3-.8-.8s.3-.8.8-.8h34.5c.4 0 .8.3.8.8s-.4.8-.8.8zm-24.7 3.4h3v3h-3zm6 0h3v3h-3zm6 0h3v3h-3zm-12 5h3v3h-3zm6 0h3v3h-3zm6 0h3v3h-3zm-12 5h3v3h-3zm6 0h3v3h-3zm6 0h3v3h-3z" class="st2"/></svg>