<svg xmlns="http://www.w3.org/2000/svg" id="Layer_1" x="0" y="0" version="1.1" viewBox="0 0 50 50" xml:space="preserve"><style>.st2{fill:#031326}</style><path fill="#ade35d" d="M5.5 41.6l12.3 4.3 26.7-9.8V24.3l-9.7-3.4V5L25 1.7 15.2 5v5.3l-9.7 3.3z"/><path fill="#c0ff68" d="M5.5 16.1L34.8 5.5V5L25 1.7 15.2 5v5.3l-9.7 3.3z"/><path d="M25 8.9l-9.8-3.4c-.1 0-.1-.1-.1-.2s.1-.1.2-.1L25 8.7l9.7-3.4c.1 0 .1 0 .2.1s0 .1-.1.2L25 8.9z" class="st2"/><path d="M25 30.2c-.1 0-.1-.1-.1-.1V8.8c0-.1.1-.1.1-.1l.1.1v21.3c0 .1 0 .1-.1.1zm0 6.7l-9.8-3.4c-.1 0-.1-.1-.1-.2s.1-.1.2-.1l9.7 3.4 9.7-3.4c.1 0 .1 0 .2.1s0 .1-.1.2L25 36.9z" class="st2"/><path d="M34.8 45.1c-.1 0-.1-.1-.1-.1V33.5L25 30.2l-9.6 3.3V45c0 .1-.1.1-.1.1l-.2-.1V33.4h.1L25 30l9.9 3.4V45l-.1.1z" class="st2"/><path d="M25 48.4c-.1 0-.1-.1-.1-.1V36.8c0-.1.1-.1.1-.1l.1.1v11.5c0 .1 0 .1-.1.1zm9.8-20.3L25 24.7c-.1 0-.1-.1-.1-.2s.1-.1.2-.1l9.7 3.4 9.7-3.4c.1 0 .1 0 .2.1 0 .1 0 .1-.1.2l-9.8 3.4z" class="st2"/><path d="M25 24.8c-.1 0-.1 0-.1-.1s0-.1.1-.2l9.8-3.4c.1 0 .1 0 .2.1 0 .1 0 .1-.1.2L25 24.8c0-.1 0 0 0 0zm9.8 20.3c-.1 0-.1-.1-.1-.1V28c0-.1.1-.1.1-.1l.1.1v17l-.1.1zM15.2 17.5l-9.8-3.4c-.1 0-.1-.1-.1-.2s.1-.1.2-.1l9.7 3.3 9.7-3.7c.1 0 .1 0 .2.1 0 .1 0 .1-.1.2l-9.8 3.8z" class="st2"/><path d="M25 14.1l-9.8-3.4c-.1 0-.1-.1-.1-.2s.1-.1.2-.1l9.8 3.4c.1 0 .1.1.1.2-.1.1-.2.1-.2.1zm-9.8 31c-.1 0-.1-.1-.1-.1V17.3c0-.1.1-.1.1-.1l.1.1V45c.1 0 0 .1-.1.1z" class="st2"/><path d="M25 49.6L4.2 42.5V12.7L14 9.4V4.2L25 .4l11 3.8v15.9l9.8 3.4v12.7c0 .7-.6 1.2-1.2 1.2s-1.2-.6-1.2-1.2v-11l-9.8-3.4V5.9L25 3l-8.5 2.9v5.2l-9.8 3.4v26.2L25 47l8.5-2.9c.6-.2 1.4.1 1.6.8.2.7-.1 1.4-.8 1.6L25 49.6z" class="st2"/></svg>