<svg xmlns="http://www.w3.org/2000/svg" version="1" viewBox="0 0 50 50"><path fill="#7ED0D6" d="M6.77 31.28h.944v2.006l37.83-13.77a3.803 3.803 0 00-2.315-.794h-.945v-4.846h.944a3.84 3.84 0 003.84-3.84V5.16a3.84 3.84 0 00-3.84-3.84H6.77a3.84 3.84 0 00-3.84 3.84v4.875a3.84 3.84 0 003.84 3.84h.944v4.847H6.77a3.84 3.84 0 00-3.84 3.84v4.876c0 2.12 1.72 3.84 3.84 3.84z"/><path fill="#A5DEE2" d="M6.77 13.875h.944v3.19l38.68-14.08A3.836 3.836 0 0043.23 1.32H6.77a3.84 3.84 0 00-3.84 3.84v4.876a3.84 3.84 0 003.84 3.84z"/><g fill="#031326"><path d="M43.23 15.055a5.026 5.026 0 005.02-5.02V5.16A5.026 5.026 0 0043.23.14H6.77a5.026 5.026 0 00-5.02 5.02v4.875a5.026 5.026 0 005.02 5.02v2.488a5.026 5.026 0 00-5.02 5.02v4.875a5.026 5.026 0 005.02 5.02v2.488a5.026 5.026 0 00-5.02 5.02v4.874c0 2.77 2.252 5.02 5.02 5.02H25a1.18 1.18 0 000-2.357H6.77a2.667 2.667 0 01-2.66-2.663v-4.874a2.666 2.666 0 012.663-2.662h36.46a2.665 2.665 0 012.662 2.662v2.437a1.18 1.18 0 002.358 0v-2.437a5.026 5.026 0 00-5.02-5.02v-2.488a5.026 5.026 0 005.02-5.02v-4.875a5.026 5.026 0 00-5.02-5.02v-2.488zm-39.122-5.02V5.16A2.666 2.666 0 016.77 2.498h36.46a2.665 2.665 0 012.662 2.662v4.875a2.665 2.665 0 01-2.662 2.662H6.77a2.667 2.667 0 01-2.662-2.663zm37.235 24.91H8.657v-2.488h32.686v2.488zm4.55-12.382v4.875A2.665 2.665 0 0143.23 30.1H6.77a2.666 2.666 0 01-2.662-2.662v-4.875A2.666 2.666 0 016.77 19.9h36.46a2.664 2.664 0 012.662 2.663zm-4.55-5.02H8.657v-2.49h32.686v2.49z"/><path d="M35.67 10.965c1.858 0 3.368-1.51 3.368-3.367S37.528 4.23 35.67 4.23s-3.367 1.51-3.367 3.368 1.51 3.367 3.368 3.367zm0-5.32c1.078 0 1.954.875 1.954 1.952S36.748 9.55 35.67 9.55s-1.953-.876-1.953-1.953.876-1.953 1.954-1.953zm0 22.723c1.858 0 3.368-1.51 3.368-3.368s-1.51-3.368-3.367-3.368-3.367 1.51-3.367 3.368 1.51 3.368 3.368 3.368zm0-5.32c1.078 0 1.954.875 1.954 1.952s-.876 1.953-1.953 1.953A1.955 1.955 0 0133.718 25c0-1.077.876-1.953 1.954-1.953zm0 15.987c-1.856 0-3.367 1.51-3.367 3.367s1.51 3.368 3.368 3.368 3.368-1.51 3.368-3.368-1.51-3.367-3.367-3.367zm0 5.32a1.955 1.955 0 01-1.953-1.953 1.954 1.954 0 013.908-.001 1.955 1.955 0 01-1.953 1.954z"/></g></svg>