<svg xmlns="http://www.w3.org/2000/svg" id="Layer_1" x="0" y="0" version="1.1" viewBox="0 0 50 50" xml:space="preserve"><style>.st2{fill:#031326}</style><path fill="#a475ef" d="M6.8 31.3h.9v2l37.8-13.8c-.7-.5-1.5-.8-2.3-.8h-.9v-4.8h.9c2.1 0 3.8-1.7 3.8-3.8V5.2c0-2.1-1.7-3.8-3.8-3.8H6.8C4.6 1.3 2.9 3 2.9 5.2V10c0 2.1 1.7 3.8 3.8 3.8h.9v4.8h-.8c-2.1 0-3.8 1.7-3.8 3.8v4.9c-.1 2.3 1.7 4 3.8 4z"/><path fill="#be94f7" d="M6.8 13.9h.9v3.2L46.4 3c-.7-1-1.9-1.7-3.2-1.7H6.8C4.6 1.3 2.9 3 2.9 5.2V10c0 2.2 1.7 3.9 3.9 3.9z"/><path d="M43.2 15.1c2.8 0 5-2.2 5-5V5.2c0-2.8-2.2-5-5-5H6.8c-2.8 0-5 2.2-5 5V10c0 2.8 2.2 5 5 5v2.5c-2.8 0-5 2.2-5 5v4.9c0 2.8 2.2 5 5 5v2.5c-2.8 0-5 2.2-5 5v4.9c0 2.8 2.3 5 5 5H25c.7 0 1.2-.6 1.1-1.2 0-.6-.5-1.1-1.1-1.1H6.8c-1.5 0-2.7-1.2-2.7-2.7V40c0-1.5 1.2-2.7 2.7-2.7h36.5c1.5 0 2.7 1.2 2.7 2.7v2.4c0 .7.6 1.2 1.2 1.1.6 0 1.1-.5 1.1-1.1V40c0-2.8-2.2-5-5-5v-2.5c2.8 0 5-2.2 5-5v-4.9c0-2.8-2.2-5-5-5l-.1-2.5zM4.1 10V5.2c0-1.5 1.2-2.7 2.7-2.7h36.5c1.5 0 2.7 1.2 2.7 2.7V10c0 1.5-1.2 2.7-2.7 2.7H6.8c-1.5 0-2.7-1.2-2.7-2.7zm37.2 24.9H8.7v-2.5h32.7c-.1.1-.1 2.5-.1 2.5zm4.6-12.3v4.9c0 1.5-1.2 2.7-2.7 2.7H6.8c-1.5 0-2.7-1.2-2.7-2.7v-4.9c0-1.5 1.2-2.7 2.7-2.7h36.5c1.4 0 2.6 1.2 2.6 2.7zm-4.6-5.1H8.7V15h32.7c-.1.1-.1 2.5-.1 2.5z" class="st2"/><path d="M35.7 11c1.9 0 3.4-1.5 3.4-3.4s-1.5-3.4-3.4-3.4-3.4 1.5-3.4 3.4 1.5 3.4 3.4 3.4zm0-5.4c1.1 0 2 .9 2 2s-.9 2-2 2-2-.9-2-2 .9-2 2-2zm0 22.8c1.9 0 3.4-1.5 3.4-3.4s-1.5-3.4-3.4-3.4-3.4 1.5-3.4 3.4 1.5 3.4 3.4 3.4zm0-5.4c1.1 0 2 .9 2 2s-.9 2-2 2-2-.9-2-2 .9-2 2-2zm0 16c-1.9 0-3.4 1.5-3.4 3.4s1.5 3.4 3.4 3.4 3.4-1.5 3.4-3.4-1.6-3.4-3.4-3.4zm0 5.4c-1.1 0-2-.9-2-2s.9-2 2-2 2 .9 2 2c-.1 1.1-.9 2-2 2z" class="st2"/></svg>