<svg xmlns="http://www.w3.org/2000/svg" viewBox="0 0 42 48"><g fill="none" fill-rule="evenodd"><path fill="#E589EF" d="M2.17 39.995L14.09 44.1l25.739-9.368V23.337l-9.417-3.241.002-15.334-9.419-3.239-9.413 3.239.003 5.038-9.418 3.237z"/><path fill="#F799FF" d="M2.167 15.445L30.414 5.164v-.402l-9.419-3.239-9.413 3.239.003 5.038-9.418 3.237z"/><path fill="#031326" fill-rule="nonzero" d="M31.667 19.205l.001-15.335L21 .201l-10.664 3.67.003 5.037-9.418 3.237.003 28.742L21 47.799l8.978-3.09c.653-.225 1-.936.775-1.588a1.231 1.231 0 00-.214-.365V26.968l8-2.755.044.015v10.503a1.25 1.25 0 002.5 0V22.445l-9.416-3.24zM12.84 10.43l-.003-4.714 8.033 2.766v4.712l-8.03-2.764zm8.03 18.376l-9.163 3.155V16.699l9.163-3.155v15.262zm-9.16 3.504l9.163 3.155v9.646l-9.163-3.155V32.31zm9.288 2.934l-9.029-3.109 9.026-3.108 9.033 3.108-9.03 3.109zm9.291-3.283l-9.169-3.155v-4.995l9.169 3.157v4.993zM21.12 8.484l8.048-2.771-.001 14.982-8.047 2.771V8.484zm7.748-2.933l-7.87 2.71-7.867-2.709L21 2.845l7.868 2.706zm-16.031 5.142l7.775 2.676-9.03 3.108-7.78-2.679 9.035-3.105zm-9.416 3.238l8.036 2.767v25.171l-8.033-2.766-.003-25.172zm25.744 28.415l-8.042 2.766v-9.647l9.164-3.155v10.221c-.319-.229-.726-.324-1.122-.185zm1.249-15.599l-9.027-3.109 7.78-2.679v.028l8.988 3.093-7.741 2.667z"/></g></svg>