<svg xmlns="http://www.w3.org/2000/svg" id="Layer_1" x="0" y="0" version="1.1" viewBox="0 0 50 50" xml:space="preserve"><style>.st0{fill:#71bac0}.st1{fill:#7ed0d6}</style><path d="M6.2 41l11.9 4.1 25.7-9.4V24.3l-9.4-3.2V5.8L25 2.5l-9.4 3.2v5L6.2 14v27z" class="st0"/><path d="M6.2 16.4L34.4 6.2v-.4L25 2.5l-9.4 3.2v5L6.2 14v2.4z" class="st1"/><path fill="#031326" d="M35.7 20.2V4.9L25 1.2 14.3 4.9v5l-9.4 3.2v28.7l20.1 7 9-3.1c.7-.2 1-.9.8-1.6 0-.1-.1-.3-.2-.4V28l8-2.8v10.5c0 .7.6 1.2 1.2 1.2s1.2-.6 1.2-1.2V23.4l-9.3-3.2zm-18.9-8.8V6.7l8 2.8v4.7l-8-2.8zm8.1 18.4L15.7 33V17.7l9.2-3.2v15.3zm-9.2 3.5l9.2 3.2v9.6L15.7 43v-9.7zm9.3 2.9l-9-3.1 9-3.1 9 3.1-9 3.1zm9.3-3.2l-9.2-3.2v-5l9.2 3.2v5zM25.1 9.5l8-2.8v15l-8 2.8v-15zm7.8-2.9L25 9.3l-7.9-2.7L25 3.8l7.9 2.8zm-16.1 5.1l7.8 2.7-9 3.1-7.8-2.7 9-3.1zm-9.4 3.2l8 2.8v25.2l-8-2.8V14.9zm25.8 28.4l-8 2.8v-9.6l9.2-3.2v10.2c-.4-.2-.8-.3-1.2-.2zm1.2-15.6l-9-3.1 7.8-2.7 9 3.1c0 .1-7.8 2.7-7.8 2.7z"/><circle cx="-53.3" cy="37.2" r="20" class="st1"/><circle cx="-33.3" cy="37.2" r="20" class="st0"/></svg>