<svg xmlns="http://www.w3.org/2000/svg" version="1.0" viewBox="0 0 50 50"><path fill="#E56060" d="M47.964 27.035l-25.519 9.291L2.819 25.003a1.546 1.546 0 01-.776-1.339v-3.88c0-.275.076-.556.213-.783.137-.24.33-.426.556-.556L19.369 8.9a2.345 2.345 0 011.167-.316c.412 0 .817.11 1.174.316l15.424 8.893a19.834 19.834 0 013.234 2.335l7.211 6.373c.172.165.295.336.378.522 0 .005.007.005.007.012z"/><path fill="#FF6B6B" d="M28.331 12.717L2.043 22.276v-2.493c0-.275.076-.556.213-.783.137-.24.33-.426.556-.556l16.557-9.545a2.345 2.345 0 011.167-.316c.412 0 .817.11 1.174.316l6.621 3.818z"/><g fill="#031326"><path d="M39.725 25.904a1.045 1.045 0 00-.161-.529c-.23-.365-.627-.608-1.024-.753-.514-.188-1.113-.221-1.621.003-.475.21-.612.614-.764 1.071-.141.399.019.853.427 1.216.422.375 1.035.582 1.604.582.301 0 .589-.058.83-.18.269-.134.455-.333.54-.577.095-.272.179-.555.169-.833zm-.247.2a.755.755 0 01-.418.517c-.612.308-1.581.146-2.156-.367-.281-.25-.423-.55-.387-.821.065-.489.656-.693 1.079-.709.312-.012.624.059.916.171.24.092.473.215.658.394.212.208.371.512.308.815zm-.574.987c-.611.308-1.581.146-2.156-.367-.267-.238-.397-.514-.383-.77.08.172.205.339.373.488.422.375 1.035.582 1.604.582.301 0 .589-.058.83-.18.019-.009.033-.022.051-.032a.851.851 0 01-.319.279zm-3.627-5.995a.122.122 0 00.063-.017l.949-.557a.124.124 0 00.044-.171.124.124 0 00-.171-.044l-.949.557a.124.124 0 00.064.232zm-.459.143a.124.124 0 00-.171-.044l-12.819 7.523a.124.124 0 00-.044.171.123.123 0 00.171.044l12.819-7.522a.125.125 0 00.044-.172zm-1.956 3.134a.221.221 0 00-.256-.025l-8.698 5.105a.216.216 0 00-.106.164c-.007.07.02.14.072.187l5.89 5.238a.225.225 0 00.145.054c.038 0 .075-.01.109-.03l8.685-5.097a.21.21 0 00.106-.166.221.221 0 00-.072-.184l-5.875-5.246zm-2.951 10.465l-5.85-5.185 8.651-5.078 5.824 5.201-8.625 5.062z"/><path d="M29.554 32.855l.074.274 1.686-.993-.351-.112zm-1.312-3.3l-.075-.275-1.686.994.351.112zm1.533 1.133l-.084.183 1.254 1.138.362-.029-1.5-1.361-1.434-1.301-.115.253 1.254 1.138zm-1.756 1.035l.084-.184-1.254-1.138-.362.029 1.5 1.362 1.434 1.3.116-.252-1.255-1.138zm6.705-1.916l.074.275 1.686-.994-.351-.112zm-2.721-2.469l1.409-.831-.075-.275-1.686.994zm2.942.302l-.084.184 1.254 1.138.362-.029-1.5-1.362-1.434-1.301-.115.253 1.254 1.138zm-1.756 1.035l.084-.184-1.254-1.138-.362.029 1.433 1.301 1.501 1.362.116-.253-1.255-1.138zm-.875 2.553l.074.275 1.686-.994-.351-.112zm-1.313-3.3l-.074-.275-1.686.994.351.112zm1.534 1.133l-.084.183 1.254 1.138.362-.029-1.5-1.361-1.434-1.301-.116.253 1.255 1.138zm-1.756 1.035l.084-.184-1.254-1.138-.362.029 1.5 1.362 1.434 1.3.115-.252-1.254-1.138zm.713 1.591l.229.208.258-.152-.229-.208z"/><path d="M49.101 26.525a2.888 2.888 0 00-.692-.958L41.2 19.189a21.435 21.435 0 00-3.442-2.481L22.333 7.813a3.656 3.656 0 00-3.586 0L2.191 17.358A2.808 2.808 0 00.79 19.783v3.88a2.81 2.81 0 001.4 2.425L27.979 40.96a3.169 3.169 0 003.198.006l8.036-4.632a1.249 1.249 0 00.459-1.707 1.249 1.249 0 00-1.707-.459l-8.045 4.637a.675.675 0 01-.685-.006L3.441 23.922a.306.306 0 01-.15-.26v-3.88c0-.011.006-.018.007-.029l15.551 8.995a19.676 19.676 0 013.131 2.259l6.682 5.904c.315.282.714.428 1.114.428.288 0 .576-.074.837-.227l16.321-9.409c.33.491.954.711 1.518.465.634-.273.924-1.01.649-1.643zm-9.778-2.294c.08.172.205.338.372.487.421.375 1.035.582 1.605.582.301 0 .589-.058.83-.179.018-.009.031-.021.048-.031a.848.848 0 01-.317.277c-.611.31-1.581.145-2.156-.367-.267-.237-.396-.513-.382-.769zm1.694-1.195c.317.054.622.176.887.357.21.144.401.331.494.568.15.382-.025.758-.382.937-.611.31-1.581.144-2.156-.367-.443-.394-.555-1.02.021-1.354.195-.113.422-.16.647-.171.163-.008.328.002.489.03zm-11.686-7.699c.071.102.138.208.201.317 1.312 2.285-.327 4.469-2.303 5.613-3.734 2.161-9.765 2.161-13.443-.001-2.012-1.182-3.545-3.432-2.116-5.695.533-.844 1.355-1.507 2.211-2.003 1.282-.742 2.728-1.183 4.185-1.418a16.185 16.185 0 014.563-.064c1.488.183 2.963.572 4.294 1.274.922.484 1.806 1.112 2.408 1.977zm-18.245 3.396c.399 1.035 1.272 1.984 2.573 2.748 1.875 1.102 4.35 1.653 6.831 1.653 2.479 0 4.965-.55 6.865-1.65 1.353-.783 2.261-1.758 2.67-2.821v.329c-.014 1.453-1.007 2.823-2.795 3.858-3.734 2.161-9.765 2.161-13.443-.001-1.762-1.035-2.72-2.404-2.7-3.854v-.262zm9.537-7.034c-1.24 0-2.481.137-3.65.412a13.26 13.26 0 00-1.438.439l4.461-2.572c.329-.19.757-.19 1.089.001l4.295 2.477a15.221 15.221 0 00-4.757-.757zm9.865 25.198a1.412 1.412 0 01-1.659-.171l-6.683-5.905a19.952 19.952 0 00-3.172-2.288S3.422 19.538 3.437 19.526l8.903-5.134c-.07.065-.138.13-.203.197-.636.65-1.111 1.467-1.257 2.372-.107.661-.045 1.363-.045 2.031-.021 1.544.981 2.991 2.823 4.073 1.875 1.102 4.35 1.653 6.831 1.653 2.479 0 4.965-.55 6.865-1.65 1.868-1.082 2.905-2.528 2.92-4.074 0-.684.064-1.399-.041-2.076-.15-.959-.628-1.664-1.246-2.377 1.013.53 1.992 1.146 2.983 1.717l4.534 2.615c1.1.64 2.121 1.375 3.037 2.188l2.235 1.977a2.561 2.561 0 00-1.36-.275c-.469.045-.966.29-1.15.747l-.152.463c-.141.399.019.853.426 1.216.422.375 1.036.583 1.605.583.301 0 .589-.058.83-.179.268-.135.454-.335.538-.578.15-.434.289-.86.043-1.287l4.164 3.683a.37.37 0 01.074.088l-16.306 9.398z"/></g></svg>