<svg xmlns="http://www.w3.org/2000/svg" viewBox="0 0 50 50"><path fill="#a475ef" d="M47.6 22v6.2L1 42.9.7 30.3v-3.9l47-17.1z"/><path fill="#bf94f7" d="M47.6 6.6L47 9.8.6 26.7l.1-6.6V16L48.2.9z"/><path fill="none" stroke="#444" stroke-linecap="round" stroke-linejoin="round" stroke-miterlimit="10" stroke-width="2.5" d="M5.9 48.1H1.5V1.6h46.8v46.5H32.1"/><path fill="#444" stroke="#444" stroke-miterlimit="10" stroke-width=".5" d="M7.5 28.6c.1.3.3.6.6.9.4.4 1.1.7 1.7.7.7 0 1.3-.3 1.7-.7.4-.4.7-1.1.7-1.7v-1.4c-.5 0-1-.1-1.3-.2 0 .2-.1.3-.1.5-.2.6-.5 1.1-.9 1.5-.5.4-1.1.6-1.9.6-.2-.2-.3-.2-.5-.2h0zm14.4-3.7h4.9v-1.5H23c-.3 0-.6.1-.8.3-.2.2-.3.5-.3.8v.4zm4.9 1.1h-4.9v1.7c0 .7.3 1.3.7 1.7.4.4 1.1.7 1.7.7.7 0 1.3-.3 1.7-.7.4-.4.7-1.1.7-1.7l.1-1.7h0zm15.3 3.8c.3.2.6.4.8.6.4.5.6 1.1.6 1.7v3.8c0 .3-.2.6-.6.6s-.6-.2-.6-.6v-3.8c0-.4-.1-.7-.4-1-.2-.2-.5-.4-.8-.5-.6.4-1.3.7-2.1.7s-1.6-.3-2.2-.7c-.1 0-.2 0-.3.1-.1.1-.3.2-.4.3l-3 4c-.1.1-.3.2-.4.2H29c-.3 0-.5.1-.7.3-.2.2-.3.4-.3.7 0 .3.1.5.3.7.2.2.4.3.7.3h4.6c.2 0 .3 0 .5-.1.3-.2.6-.7.8-.9l2-2.6c.2-.2.5-.3.8-.1.2.2.3.5.1.8L36 36.7v4.9h6.4v-3.2c0-.3.3-.6.6-.6s.6.2.6.6v3.8c0 .3-.2.6-.6.6H6.1c-.3 0-.6-.2-.6-.6v-3.8c0-.3.3-.6.6-.6s.6.2.6.6v3.2H13v-4.9l-1.9-2.5c-.1-.2-.1-.6.2-.8.2-.2.6-.1.8.1l1.9 2.6c.2.2.4.5.5.7.1.1.2.2.4.3.2.1.3.1.5.1H20c.3 0 .5-.1.7-.3.2-.2.3-.4.3-.7 0-.3-.1-.5-.3-.7-.2-.2-.4-.3-.7-.3h-3.8c-.2 0-.3-.1-.4-.2l-3-4c-.2-.2-.4-.4-.7-.4-.6.5-1.3.7-2.1.7s-1.5-.3-2.1-.7c-.3.1-.6.2-.8.5-.2.3-.4.6-.4 1v3.8c0 .3-.2.6-.6.6-.3 0-.6-.2-.6-.6v-3.8c0-.7.2-1.3.6-1.7.2-.2.5-.5.8-.6-.4-.6-.6-1.3-.6-2v-3.2c0-.6.3-1.2.7-1.6.4-.4 1-.7 1.6-.7h2.6c.6 0 1.2.3 1.6.7.4.4.7 1 .7 1.6v3.2c0 .7-.2 1.4-.6 1.9.3.2.6.4.8.6l2.8 3.7h2.2v-2.3c0-.6.3-1.2.9-1.7.4-.4 1-.7 1.6-1-.2-.4-.3-.9-.3-1.4v-3.3c0-.6.3-1.2.7-1.6.4-.4 1-.7 1.6-.7h4.3c.3 0 .6.3.6.6v5c0 .5-.1.9-.2 1.3.7.3 1.3.6 1.7 1 .6.5.9 1.1.9 1.8V34h2.2l2.8-3.7c.2-.3.5-.5.8-.6-.4-.6-.6-1.2-.6-1.9v-3.2c0-.6.3-1.2.7-1.6.4-.4 1-.7 1.6-.7h2.6c.6 0 1.2.3 1.6.7.4.4.7 1 .7 1.6v3.2c-.2.7-.4 1.4-.8 2h0zm-.6-1.2H41c-.8 0-1.4-.2-1.9-.6-.5-.4-.8-.9-.9-1.5 0-.1-.1-.3-.1-.5-.4.1-.8.3-1.3.2v1.4c0 .7.3 1.3.7 1.7.4.4 1.1.7 1.7.7.7 0 1.3-.3 1.7-.7.2-.1.4-.4.6-.7h0zm-4.8-3.3c.7.1 1.3-.3 1.4-.4.1-.1.2-.1.4-.2.3 0 .6.2.6.5 0 .4.1.7.2 1.1.1.4.3.7.6.9.3.2.6.3 1.2.3.2 0 .4 0 .7-.1v-2.9c0-.3-.1-.6-.3-.8-.2-.2-.5-.3-.8-.3h-2.6c-.3 0-.6.1-.8.3-.2.2-.3.5-.3.8v.8zm-24.4 0v-.7c0-.3-.1-.6-.3-.8-.2-.2-.5-.3-.8-.3H8.5c-.3 0-.6.1-.8.3-.2.2-.3.5-.3.8v2.9c.2.1.5.1.7.1.5 0 .9-.1 1.2-.3.3-.2.5-.5.6-.9.1-.3.2-.7.2-1.1 0-.3.3-.5.6-.5.1 0 .3.1.4.2-.1-.1.4.4 1.2.3zm9.4 4.8c-.6.2-1.1.5-1.5.8-.3.3-.5.6-.5.9V34h.2c.6 0 1.1.2 1.5.6.4.4.6.9.6 1.5 0 .4-.1.7-.3 1H27c-.2-.3-.3-.7-.3-1 0-.6.2-1.1.6-1.5.4-.4.9-.6 1.5-.6h.2v-2.3c0-.3-.2-.6-.6-.9-.4-.3-1-.6-1.6-.9-.1.1-.1.2-.2.2-.6.6-1.5 1-2.5 1s-1.9-.4-2.5-1c.2.1.2 0 .1 0h0zM10.1 10c-.3 0-.6-.3-.6-.6s.2-.6.6-.6h10.3c.3 0 .6.2.6.6 0 .3-.2.6-.6.6H10.1zm0 5.8c-.3 0-.6-.3-.6-.6s.2-.6.6-.6h5.2c.3 0 .6.3.6.6s-.3.6-.6.6h-5.2zm0-2.9c-.3 0-.6-.3-.6-.6s.2-.6.6-.6h10.3c.3 0 .6.2.6.6 0 .3-.2.6-.6.6H10.1zM21 18.8c.1.2.2.4.4.6.3.3.7.5 1.1.5h3.3c.3 0 .6.2.6.6 0 .3-.2.6-.6.6h-3.3c-.7 0-1.4-.3-1.9-.8-.4-.4-.6-.8-.7-1.4h-7.8l-2.5 2.5c-.1.1-.2.2-.4.2-.3 0-.6-.2-.6-.6v-2.2c-.7-.1-1.3-.5-1.8-.9-.6-.6-1-1.5-1-2.4V9.2c0-.9.4-1.8 1-2.4.6-.6 1.5-1 2.4-1h12.2c.9 0 1.8.4 2.4 1 .6.6 1 1.5 1 2.4v1h9.5a2.732 2.732 0 012.7 2.7v5.4c0 .7-.3 1.4-.8 1.9-.4.4-.8.6-1.3.7v2.2c0 .1-.1.3-.2.4-.2.2-.6.2-.8 0L31.3 21h-3c-.3 0-.6-.2-.6-.6 0-.3.3-.6.6-.6h3.3c.2 0 .3.1.4.2l1.7 1.7v-1.3c0-.3.3-.6.6-.6.4 0 .8-.2 1.1-.5.3-.3.5-.7.5-1.1v-5.4c0-.4-.2-.8-.5-1.1-.3-.3-.7-.5-1.1-.5h-9.5v4.1c0 .9-.4 1.8-1 2.4-.6.6-1.5 1-2.4 1l-.4.1h0zm-9.1-1.1h9.5c.6 0 1.2-.3 1.6-.7.4-.4.7-1 .7-1.6V9.2c0-.6-.3-1.2-.7-1.6-.4-.4-1-.6-1.6-.6H9.2c-.7 0-1.2.2-1.6.6-.4.4-.7 1-.7 1.6v6.2c0 .6.3 1.2.7 1.6.4.4 1 .7 1.6.7.3 0 .6.3.6.6v1.3l1.7-1.7c.1-.1.2-.2.4-.2h0zm22.9 20.6H14.1v3.2h20.7v-3.2h0z"/></svg>