<svg xmlns="http://www.w3.org/2000/svg" id="Camada_1" x="0" y="0" version="1.1" viewBox="0 0 49 50" xml:space="preserve"><style>.st2,.st3{fill:none;stroke:#444;stroke-linecap:round;stroke-linejoin:round;stroke-miterlimit:10}.st3{stroke-width:.5}</style><path fill="#fcc34f" d="M44.6 2.6H3.5C2.1 2.6 2 6.5 2 7.9l-.1 16.9L1.3 35l1.2 11.8 12.5.6L47.1 36V5.2c0-1.4-1.1-2.6-2.5-2.6z"/><path fill="none" stroke="#444" stroke-linecap="round" stroke-linejoin="round" stroke-miterlimit="10" stroke-width="2.5" d="M31.9 48.1h-27c-1.9 0-3.4-1.6-3.4-3.5v-39c0-1.9 1.5-3.5 3.4-3.5h39c1.9 0 3.4 1.6 3.4 3.5v32.5"/><path d="M33 19.8c-.7 3-3.5 5.3-6.8 5.3s-6-2.3-6.8-5.3" class="st2"/><path d="M26.1 27.1l3 4.7-2.4 12h-1.3l-2.4-12z" class="st3"/><path d="M16 27.3h3.4m-8.6 16.5h30.7l-2.4-12.6c-.4-2.3-2.4-3.9-4.7-3.9h-1.7" class="st2"/><path d="M32.6 35.8h4.5" class="st3"/><path d="M22.3 7.5c-.5.5-1.1.8-1.7 1.1-1 .4-2.4 1.4-2.5 3.8-.3 3.9 1.6 7.4 1.6 7.4s-.4-2.6-.1-4.6c.1-.9.4-1.6 1-2l1.8-1.3s2.7 3.1 5.6 3.2 3.9-1.3 4.9.1c.9 1.5.4 4.5.4 4.5 0 .1 2-2.9 1.5-6-.5-3-1.5-7.1-7.8-7.4-2.8 0-4.1.6-4.7 1.2zm-15.1 21V26h1.2c1.6 0 3.1-.9 3.6-2.4h3.8v20.2h-5.2v-13c0-1.3-1.1-2.4-2.4-2.3h-1z" class="st2"/></svg>