<svg xmlns="http://www.w3.org/2000/svg" version="1" viewBox="0 0 50 50"><path fill="#00C8E2" d="M45.618 37.105l-9.435-5.459.008 3.943 11.887 6.899v.017l-9.882 3.597-5.93-3.437-2.165 1.247-7.413-4.305v-2.502L2.284 25.286l-.362-.21v-6.512l2.46-1.407 18.306 10.606v-.059l3.344-1.946-5.855-3.395-2.249 1.314-7.422-4.313v-2.603l-8.584-4.979V5.27l2.46-1.406 6.166 3.571 6.04-3.512 7.431 4.321v7.001l24.059 13.95v6.503z"/><path fill="#00DFFC" d="M29.385 18.353l-12.679 4.616-6.2-3.605v-2.603l-8.584-4.979V5.27l2.46-1.406 6.166 3.571 6.04-3.512 7.431 4.321v7.001z"/><path fill="#031326" d="M37.44 33.86l8.18 4.75 3.71-2.14v-7.95L25.04 14.44l.22-.13.01-6.73-8.68-5.05-6.04 3.51-6.16-3.57L.67 4.59v7.54l.3.6 8.29 4.8v1.06l-4.87-2.83-3.72 2.13v7.95l20.77 12.04v2.5l8.67 5.03 2.78-1.62c.16-.09.29-.21.39-.35l4.83 2.81c.02.01.05.01.07.01.04 0 .08-.02.11-.06.03-.06.01-.14-.05-.17l-5.97-3.47v-6.21l.34.2v2.04c0 .07.06.12.13.12.06 0 .12-.05.12-.12v-1.9l2.75 1.59v2.07c0 .07.06.13.13.13.06 0 .12-.06.12-.13v-1.92l2.75 1.59v2.01c0 .07.06.13.13.13s.12-.06.12-.13v-1.86l2.75 1.59v2.01c0 .07.06.12.13.12s.12-.05.12-.12v-1.86l3.7 2.14c.02.01.04.02.06.02.05 0 .09-.02.11-.06.04-.06.02-.14-.04-.17l-13.32-7.72 1.11-.6 13.97 8.1a1.254 1.254 0 101.26-2.17l-11.36-6.58.09-.04v-.97zM20.18 15.73l1.06-.6 25.59 14.83v5.06l-1.08.63v-5.07L20.18 15.76v-.03zm-8.36-2.54c.02-.02.04-.04.04-.07v-1.9l2.85 1.66c-.06.01-.1.05-.1.11v2.07c0 .07.05.12.12.12s.13-.05.13-.12v-2.07c0-.01-.01-.02-.02-.04l1.75 1.02v6.14l-4.77-2.74v-4.18zM4.38 5.35l6.13 3.56v1.25L3.3 5.97l1.08-.62zm-1.21 5.76V6.19L5.61 7.6v2.04c0 .07.05.12.12.12s.13-.05.13-.12V7.75l2.75 1.59v2.03c0 .07.05.12.12.12s.13-.05.13-.12V9.48l1.65.96v4.93l-7.34-4.26zm19.52 24.61L3.17 24.4v-4.92l2.44 1.41v2.05c0 .07.05.13.12.13s.13-.06.13-.13v-1.9l2.75 1.59v2.04c0 .07.05.13.12.13s.13-.06.13-.13v-1.89l2.75 1.59v2.05c0 .07.05.12.12.12s.13-.05.13-.12v-1.9l2.86 1.65c-.06.01-.11.06-.11.12v2.07c0 .07.05.13.12.13s.13-.06.13-.13v-2.07c0-.02-.02-.03-.02-.05l2.77 1.61v2.04c0 .07.05.13.12.13s.13-.06.13-.13v-1.9l2.75 1.6v2.07c0 .07.05.13.12.13s.13-.06.13-.13v-1.93l1.83 1.07v4.92zm0-5.21L3.3 19.26l1.08-.61L22.06 28.9l.63.34v1.27zm-.05-4.17l-3.37-1.95.91-.53 3.37 1.95-.91.53zm6.13 14.01L24 37.61v-6.06l2.61 1.52v2.06c0 .07.06.12.12.12.07 0 .13-.05.13-.12v-1.92l1.91 1.11v6.03zm-8.59-19.38v-4.92l.43.25v2.06c0 .07.05.12.12.12s.13-.05.13-.12v-1.92l2.76 1.6c0 .02-.01.02-.01.04v2.06c0 .07.06.13.12.13.07 0 .13-.06.13-.13v-1.96l2.75 1.6v2.04c0 .07.06.13.12.13.07 0 .13-.06.13-.13v-1.9l2.77 1.61c-.01.01-.02.02-.02.04v2.06c0 .07.06.13.13.13.06 0 .12-.06.12-.13v-1.97l2.75 1.59v2.04c0 .07.06.12.13.12.06 0 .12-.05.12-.12V23.4l2.75 1.59v2.06c0 .07.06.12.13.12.06 0 .12-.05.12-.12v-1.91l2.75 1.59v2c0 .07.06.12.13.12s.12-.05.12-.12v-1.85l2.75 1.59v1.99c0 .07.06.13.13.13s.12-.06.12-.13v-1.84l3.64 2.11v4.91L20.18 20.97z"/></svg>