<?xml version="1.0" encoding="utf-8"?>
<!-- Generator: Adobe Illustrator 26.5.0, SVG Export Plug-In . SVG Version: 6.00 Build 0)  -->
<svg version="1.1" id="Camada_3" xmlns="http://www.w3.org/2000/svg" xmlns:xlink="http://www.w3.org/1999/xlink" x="0px" y="0px"
	 viewBox="0 0 50 50" style="enable-background:new 0 0 50 50;" xml:space="preserve">
<style type="text/css">
	.st0{fill:#FDCF72;}
	.st1{fill:#FCC34F;}
	.st2{fill:none;stroke:#444444;stroke-width:2.5;stroke-linecap:round;stroke-linejoin:round;stroke-miterlimit:10;}
	.st3{fill:none;stroke:#444444;stroke-width:1.25;stroke-linecap:round;stroke-linejoin:round;stroke-miterlimit:10;}
	.st4{fill-rule:evenodd;clip-rule:evenodd;fill:#444444;}
</style>
<g>
	<g>
		<polygon class="st0" points="3.16,14.75 10.96,6.3 20.53,2.43 34.31,3.59 44.74,10.55 0.76,26.91 1.69,22.7 		"/>
		<polygon class="st1" points="3.88,35.28 1.56,21.58 40.16,6.47 48.12,18.6 48.44,32.52 11.94,45.59 		"/>
		<g>
			<path class="st2" d="M11.53,5.93c8.08-5.69,19.24-5.82,27.57,0.45c10.36,7.78,12.44,22.48,4.65,32.83"/>
			<path class="st2" d="M36.72,45.44c-7.89,4.54-18.06,4.24-25.79-1.58C0.57,36.08-1.52,21.38,6.27,11.03"/>
			<path class="st2" d="M10.87,6.47c0,0-2.7,1.74-4.73,4.73"/>
			<path class="st3" d="M41.91,28.14c-0.4,9.2-7.97,16.11-17.27,16.11c-9.01,0-16.41-7.31-17.24-16.11"/>
			<path class="st3" d="M7.86,22.56c0.63-8.99,8.12-16.09,17.27-16.09s16.64,7.1,17.27,16.09"/>
		</g>
	</g>
	<path id="Fill-8" class="st4" d="M26.09,11.29c-0.28,0-0.57,0.05-0.87,0.15c-0.47,0.15-0.81,0.56-0.87,1.05
		c-0.07,0.49,0.15,0.97,0.56,1.25l0.01,0c0,0,0,0,0,0.01c-0.04,0.08-0.1,0.19-0.16,0.34c-0.19,0.45-0.24,0.95-0.16,1.42
		c-0.17-0.03-0.35-0.05-0.52-0.07c-0.03,0-0.06-0.01-0.08-0.01v0c-0.4-0.04-0.8-0.06-1.19-0.06c-0.27,0-0.55,0.01-0.87,0.03
		c-0.36,0.02-0.76,0.07-1.21,0.14c-0.08,0.01-0.2,0.03-0.31,0.06c-0.2,0.04-0.4,0.08-0.59,0.13l-0.16,0.04l-0.13,0.04
		c-0.05,0.01-0.1,0.03-0.15,0.05c-0.07,0.03-0.14,0.06-0.21,0.09l-0.07,0.03l-0.12,0.06l-0.06,0.03c-0.04,0.01-0.07,0.03-0.11,0.05
		v0l-0.04,0.02c-0.03,0.01-0.06,0.03-0.09,0.04c-0.02,0.01-0.04,0.02-0.05,0.02c-0.07,0.03-0.15,0.07-0.21,0.11
		c-0.03,0.02-0.07,0.03-0.1,0.05c-0.02,0.01-0.04,0.02-0.07,0.04c-0.02,0.01-0.03,0.02-0.05,0.02c-0.06,0.04-0.12,0.07-0.18,0.11
		c-0.09,0.05-0.17,0.1-0.24,0.15c-0.04,0.03-0.08,0.06-0.12,0.08c-0.07,0.04-0.14,0.1-0.2,0.15c-0.01,0.01-0.02,0.02-0.03,0.03l0,0
		l0,0c-0.03,0.02-0.05,0.04-0.08,0.06c-0.03,0.03-0.07,0.06-0.1,0.09c-0.05,0.04-0.09,0.08-0.13,0.12
		c-0.02,0.02-0.03,0.03-0.05,0.05c-0.01,0.01-0.03,0.03-0.04,0.04c-0.04,0.04-0.08,0.08-0.12,0.12c0,0,0,0-0.01,0.01
		c0,0,0,0-0.01,0.01c-0.03,0.03-0.05,0.06-0.08,0.08c-0.02,0.02-0.03,0.03-0.05,0.05c-0.03,0.03-0.05,0.06-0.08,0.09l-0.02,0.02
		c-0.03,0.03-0.05,0.06-0.08,0.08c-0.02,0.02-0.03,0.03-0.04,0.05l-0.04,0.04c-0.01,0.01-0.04,0.04-0.05,0.05
		c-0.06,0.06-0.12,0.13-0.19,0.19c-0.1,0.08-0.17,0.14-0.24,0.19c-0.1,0.07-0.18,0.12-0.27,0.17c-0.06,0.03-0.14,0.07-0.22,0.11
		c-0.09,0.04-0.17,0.07-0.24,0.09c-0.1,0.02-0.2,0.05-0.3,0.08c-0.07,0.02-0.13,0.04-0.19,0.05c-0.06,0-0.13,0.01-0.2,0.02
		c-0.04,0.01-0.08,0.01-0.12,0.02c-0.07,0.02-0.12,0.03-0.18,0.04c-0.05,0.01-0.09,0.03-0.14,0.04l-0.14,0.05
		c-0.09,0.03-0.18,0.07-0.27,0.12c-0.06,0.03-0.12,0.07-0.18,0.11c-0.03,0.02-0.08,0.05-0.13,0.08c-0.07,0.05-0.15,0.11-0.21,0.17
		c-0.08,0.07-0.14,0.13-0.19,0.17c-0.02,0.02-0.05,0.05-0.07,0.07c-0.07,0.08-0.12,0.14-0.17,0.21c-0.02,0.02-0.03,0.04-0.04,0.07
		c-0.03,0.04-0.06,0.09-0.09,0.13c-0.05,0.08-0.1,0.16-0.14,0.25c-0.01,0.02-0.02,0.04-0.03,0.05c-0.04,0.1-0.07,0.17-0.1,0.24
		c-0.02,0.06-0.04,0.12-0.06,0.18c-0.01,0.03-0.02,0.06-0.03,0.1c-0.02,0.06-0.03,0.12-0.04,0.18l0,0.01
		c-0.02,0.09-0.03,0.2-0.04,0.29c-0.01,0.11-0.02,0.18-0.02,0.27c0,0.08,0,0.18,0.02,0.3c0.01,0.08,0.03,0.19,0.07,0.3
		c0.02,0.05,0.04,0.1,0.06,0.15c0.02,0.04,0.04,0.09,0.06,0.13c0.04,0.08,0.09,0.17,0.15,0.25c0.05,0.07,0.1,0.14,0.16,0.22
		c0.03,0.03,0.05,0.06,0.08,0.09c0.04,0.04,0.09,0.09,0.14,0.13c0.06,0.05,0.11,0.1,0.17,0.15l0.01,0.01
		c0.06,0.06,0.12,0.11,0.19,0.16c0.01,0.01,0.01,0.02,0.02,0.04c0.01,0.02,0.03,0.06,0.05,0.11c0.01,0.03,0.03,0.05,0.04,0.08
		c0.03,0.05,0.05,0.1,0.08,0.14c0.02,0.04,0.04,0.07,0.07,0.11l0.09,0.13c0.02,0.03,0.04,0.05,0.06,0.07
		c0.05,0.06,0.12,0.14,0.18,0.2c0.06,0.05,0.11,0.1,0.17,0.16c0.03,0.03,0.07,0.06,0.11,0.08c0.03,0.02,0.05,0.04,0.08,0.06
		c0.02,0.16,0.06,0.31,0.12,0.45c0.15,0.34,0.45,0.6,0.81,0.72c0.25,0.28,0.61,0.45,0.99,0.45c0.61,0,1.04-0.35,1.48-0.98
		c0.28-0.04,0.57-0.06,0.85-0.06c2.12,0,3.97,1.18,4.92,2.96c0,0-0.01,0.01-0.01,0.01c-0.1-0.03-0.2-0.04-0.31-0.04h-0.02
		c-0.34,0-0.65,0.13-0.89,0.35c-0.15-0.45-0.45-0.72-0.59-0.82c-0.02-0.01-0.04-0.02-0.05-0.04c-0.1-0.07-0.2-0.12-0.32-0.17
		c-0.05-0.02-0.1-0.04-0.15-0.05c-0.01,0-0.01,0-0.02-0.01c-0.02-0.01-0.04-0.01-0.06-0.02c-0.02-0.01-0.04-0.01-0.05-0.02
		c-0.07-0.02-0.14-0.04-0.21-0.05c-0.1-0.02-0.19-0.04-0.29-0.04c-0.08-0.01-0.16-0.01-0.24-0.01c-0.05,0-0.1,0-0.15,0.01
		c-0.11,0-0.22,0.02-0.33,0.04c-0.08,0.01-0.15,0.03-0.23,0.05c-0.09,0.03-0.19,0.06-0.28,0.1l-0.09,0.04
		c-0.02,0.01-0.07,0.03-0.1,0.04c-0.03,0.01-0.06,0.03-0.09,0.05c-0.05,0.02-0.1,0.05-0.15,0.08c-0.85,0.56-1.32,1.45-1.32,2.51
		c0,0.61,0.17,1.25,0.46,1.82c-0.13,0.23-0.18,0.51-0.15,0.78c0.05,0.39,0.27,0.75,0.61,0.95c0.31,0.19,0.63,0.35,0.99,0.49
		c0.03,0.01,0.05,0.02,0.08,0.03c0.36,0.12,0.72,0.22,0.91,0.27c0.06,0.02,0.13,0.04,0.19,0.06c0.47,0.1,0.94,0.14,1.42,0.14
		c0.14,0,0.28,0,0.42-0.01c0.47-0.03,0.93-0.11,1.37-0.23c-0.03,0.24,0.01,0.49,0.13,0.72c0.06,0.12,0.13,0.22,0.22,0.32
		c-0.13,0.07-0.26,0.13-0.39,0.19c-0.57,0.26-0.86,0.89-0.71,1.49c0.15,0.57,0.66,0.97,1.25,0.97c0.03,0,0.06,0,0.09,0
		c0.8-0.06,1.57-0.19,2.3-0.4c0.93-0.28,1.81-0.67,2.62-1.16c0.04,0.05,0.08,0.1,0.12,0.15c0.25,0.26,0.59,0.39,0.93,0.39
		c0.25,0,0.49-0.07,0.71-0.21c0.65-0.43,1.26-0.94,1.81-1.5c0.54-0.57,1.02-1.18,1.42-1.84c0.11,0.03,0.22,0.04,0.33,0.04
		c0.41,0,0.8-0.19,1.05-0.54c4.72-6.59,0.64-13.36-1.32-15.4c-0.14-0.19-0.32-0.33-0.54-0.43c-0.16-0.07-0.33-0.1-0.49-0.1h-0.01
		h-0.01c-0.1,0-0.19,0.01-0.29,0.03c0,0,0,0,0-0.01c-0.03-0.18-0.07-0.35-0.12-0.52c-0.01-0.02-0.01-0.04-0.02-0.07l-0.02-0.07
		c-0.04-0.12-0.08-0.24-0.13-0.36c-0.06-0.16-0.14-0.33-0.22-0.49c-0.01-0.02-0.02-0.03-0.02-0.05c-0.08-0.14-0.16-0.28-0.24-0.42
		c-0.01-0.01-0.02-0.03-0.03-0.04c-0.09-0.14-0.19-0.26-0.28-0.39c-0.02-0.02-0.03-0.04-0.05-0.06c-0.1-0.11-0.2-0.22-0.3-0.33
		c-0.09-0.09-0.17-0.17-0.24-0.23c-0.02-0.02-0.04-0.04-0.06-0.05c-0.29-0.23-0.61-0.45-0.93-0.65c-0.02-0.01-0.04-0.02-0.05-0.03
		c-0.05-0.03-0.1-0.06-0.15-0.08c-0.28-0.17-0.54-0.26-0.78-0.34c-0.13-0.04-0.26-0.06-0.4-0.06c-0.12,0-0.23,0.02-0.35,0.05
		c-0.21-0.75-0.83-1.19-1.06-1.35c-0.03-0.02-0.05-0.04-0.08-0.05C27.03,11.42,26.57,11.29,26.09,11.29 M28.95,14.32L28.95,14.32
		c0.19,0.06,0.37,0.12,0.57,0.25c0.04,0.02,0.08,0.04,0.12,0.06c0.28,0.18,0.56,0.37,0.83,0.58c0.05,0.05,0.11,0.1,0.15,0.15
		c0.09,0.1,0.19,0.2,0.27,0.3c0.08,0.11,0.16,0.21,0.24,0.33c0.07,0.11,0.14,0.23,0.2,0.35c0.06,0.12,0.12,0.24,0.17,0.37
		c0.05,0.12,0.09,0.26,0.13,0.38c0.04,0.13,0.07,0.26,0.09,0.4c0.02,0.13,0.04,0.26,0.05,0.4c0.01,0.09,0.01,0.19,0.01,0.29
		c0,0.13-0.01,0.27-0.02,0.4c-0.01,0.13-0.04,0.26-0.06,0.4c-0.03,0.13-0.06,0.26-0.1,0.39c-0.04,0.13-0.09,0.26-0.14,0.38
		c-0.05,0.12-0.11,0.24-0.18,0.36c-0.05,0.09-0.11,0.19-0.17,0.29c-0.01,0.02-0.02,0.04-0.04,0.06c-0.08,0.11-0.16,0.21-0.25,0.32
		c-0.09,0.1-0.18,0.2-0.28,0.29c-0.1,0.09-0.2,0.18-0.3,0.27c-0.11,0.08-0.22,0.16-0.33,0.24c-0.12,0.07-0.23,0.14-0.36,0.2
		c-0.12,0.06-0.24,0.12-0.38,0.17c-0.12,0.05-0.26,0.09-0.39,0.12c-0.13,0.04-0.26,0.07-0.4,0.09c-0.13,0.02-0.26,0.04-0.39,0.05
		h0.01c0.13,0.04,0.26,0.08,0.4,0.1c0.13,0.03,0.27,0.05,0.41,0.06c0.13,0.01,0.27,0.02,0.4,0.02c0.1,0,0.19-0.01,0.29-0.01
		c0.13-0.01,0.27-0.02,0.41-0.05c0.13-0.02,0.27-0.05,0.4-0.09c0.13-0.04,0.26-0.08,0.39-0.12c0.13-0.05,0.25-0.11,0.38-0.17
		c0.12-0.06,0.24-0.13,0.35-0.2c0.12-0.07,0.23-0.15,0.33-0.23c0.05-0.04,0.09-0.08,0.14-0.12c0.06-0.05,0.11-0.09,0.17-0.15
		c0.1-0.09,0.19-0.19,0.28-0.3c0.08-0.1,0.17-0.21,0.24-0.32c0.08-0.11,0.15-0.23,0.21-0.34c0.07-0.12,0.13-0.24,0.18-0.36
		c0.05-0.12,0.1-0.26,0.14-0.38c0.04-0.13,0.07-0.26,0.1-0.39c0.02-0.13,0.04-0.26,0.06-0.4c0.01-0.07,0.01-0.14,0.01-0.21
		c0.01,0.01,0.01,0.01,0.01,0.01c0-0.01,0-0.01,0.01-0.01c0,0.01,0.01,0.02,0.01,0.03c1.65,1.64,5.59,7.86,1.29,13.85
		c0.09-0.96,0.03-1.93-0.17-2.87c-0.3,1.9-1.17,3.67-2.51,5.06c-0.48,0.5-1.01,0.94-1.59,1.32c0.81-1.14,1.36-2.45,1.6-3.83
		c-1.21,2.17-3.23,3.79-5.63,4.5c-0.66,0.19-1.35,0.3-2.03,0.35c1.48-0.69,2.75-1.73,3.7-3.02c-0.55,0.23-1.13,0.43-1.73,0.57
		c-0.04,0.01-0.07,0.02-0.11,0.03c-0.04,0.01-0.08,0.02-0.12,0.02c-0.03,0.01-0.05,0.01-0.08,0.02c-0.04,0.01-0.09,0.02-0.13,0.03
		c-0.15,0.03-0.31,0.06-0.46,0.08h-0.01c-0.08,0.01-0.17,0.02-0.25,0.04h-0.01l-0.02-0.04c0.05-0.03,0.09-0.06,0.13-0.09
		c0.01-0.01,0.03-0.02,0.04-0.03c0.05-0.04,0.1-0.07,0.14-0.1c0.72-0.54,1.29-1.22,1.68-2c0.01-0.01,0.01-0.01,0.01-0.02
		c0.01-0.01,0.01-0.02,0.02-0.04c0.03-0.05,0.05-0.11,0.08-0.17h0.01c0.02-0.06,0.05-0.11,0.07-0.17c0.02-0.05,0.04-0.11,0.07-0.17
		c0.02-0.06,0.04-0.11,0.07-0.17c0.02-0.06,0.04-0.12,0.05-0.18c0,0,0-0.01,0.01-0.01c0.01-0.05,0.03-0.11,0.05-0.17v-0.02
		c0.02-0.05,0.03-0.11,0.04-0.16c0-0.01,0.01-0.02,0.01-0.02c0.01-0.05,0.02-0.11,0.04-0.16v-0.02c0.01-0.05,0.02-0.11,0.04-0.17
		v-0.01v-0.01c0.01-0.06,0.02-0.11,0.02-0.17c0.01-0.02,0.01-0.04,0.01-0.05c0.01-0.05,0.01-0.09,0.02-0.14c0-0.02,0-0.04,0.01-0.05
		c0-0.05,0.01-0.09,0.01-0.13c0.01-0.03,0.01-0.05,0.01-0.08c0-0.04,0.01-0.08,0.01-0.12v-0.08c0-0.04,0.01-0.07,0.01-0.11
		c0-0.03-0.01-0.07-0.01-0.1v-0.1c0-0.07-0.01-0.13-0.01-0.2c0-0.05-0.01-0.1-0.01-0.15v-0.02c-0.01-0.05-0.01-0.1-0.02-0.15v-0.01
		c-0.01-0.11-0.04-0.23-0.05-0.33c-0.01-0.05-0.02-0.1-0.04-0.15c-0.39,2.64-2.55,4.65-5.19,4.84c-0.12,0.01-0.23,0.01-0.34,0.01
		c-0.39,0-0.78-0.04-1.16-0.12v-0.01c-0.18-0.05-0.58-0.16-0.96-0.29c-0.28-0.11-0.55-0.24-0.8-0.4c0,0,0.01-0.01,0.01-0.01
		c0.1-0.08,0.46-0.15,0.82-0.22c-0.95-0.61-1.78-2.73-0.39-3.64c0.04-0.02,0.08-0.04,0.11-0.06c0.04-0.02,0.08-0.04,0.12-0.05
		c0.04-0.02,0.08-0.03,0.12-0.04c0.04-0.01,0.08-0.02,0.12-0.02c0.04-0.01,0.08-0.02,0.13-0.02c0.03,0,0.06-0.01,0.09-0.01
		c0.04,0,0.09,0.01,0.13,0.01c0.04,0,0.08,0.01,0.12,0.02c0.04,0.01,0.08,0.02,0.13,0.03c0.02,0.01,0.03,0.01,0.05,0.02
		c0.02,0.01,0.05,0.02,0.08,0.02c0.04,0.02,0.08,0.04,0.11,0.06c0.19,0.14,0.19,0.37,0.08,0.66c-0.03,0.04-0.05,0.08-0.07,0.12
		c-0.02,0.04-0.03,0.08-0.04,0.12c-0.01,0.04-0.02,0.08-0.03,0.12v0.09c0,0.05,0,0.09,0.01,0.13c0.01,0.04,0.02,0.08,0.04,0.13
		c0.01,0.04,0.03,0.08,0.05,0.12c0.02,0.02,0.02,0.06,0.05,0.08c0.28,0.38,0.79,0.65,1.32,0.65c0.04,0,0.08,0,0.11,0
		c0.35-0.44,0.61-0.95,0.74-1.5c0.08,0.39,0.1,0.8,0.06,1.19c0.49-0.35,0.79-0.92,0.97-1.36c0.04-0.01,0.08-0.01,0.12-0.01
		c0.39,0,1.04,0.35,1.11,0.92C24.98,26.67,22.02,24,18.49,24c-0.53,0-1.08,0.06-1.64,0.19c-0.27,0.45-0.58,0.86-0.69,0.86
		c-0.02,0-0.03-0.01-0.04-0.03c-0.06-0.14-0.04-0.62,0-1.04c-0.23,0.36-0.46,0.68-0.55,0.68c-0.01,0-0.02-0.01-0.03-0.02
		c-0.05-0.11-0.04-0.41-0.02-0.73c-0.02-0.01-0.05-0.01-0.08-0.02c-0.01-0.01-0.02-0.01-0.02-0.01c-0.04-0.01-0.08-0.02-0.12-0.04
		c-0.05-0.02-0.1-0.04-0.14-0.07c-0.05-0.02-0.09-0.05-0.13-0.08c-0.04-0.02-0.07-0.05-0.11-0.08c-0.01,0-0.01-0.01-0.01-0.01
		c-0.04-0.04-0.08-0.07-0.11-0.1c-0.04-0.04-0.07-0.08-0.1-0.11c-0.03-0.04-0.06-0.08-0.09-0.13c-0.02-0.04-0.05-0.08-0.07-0.13
		c-0.01-0.01-0.01-0.02-0.02-0.03c-0.02-0.04-0.03-0.07-0.05-0.11c-0.02-0.04-0.04-0.09-0.05-0.14c-0.01-0.05-0.02-0.09-0.03-0.14
		c-0.01-0.01-0.01-0.02-0.01-0.03c-0.01,0-0.01-0.01-0.02-0.01c-0.04-0.02-0.06-0.03-0.09-0.05c-0.19-0.1-0.22-0.14-0.36-0.26
		c-0.04-0.03-0.08-0.06-0.11-0.09c-0.04-0.03-0.07-0.07-0.1-0.1c-0.03-0.04-0.05-0.07-0.08-0.11c-0.02-0.04-0.05-0.07-0.07-0.11
		v-0.01c-0.02-0.04-0.03-0.07-0.04-0.11c-0.01-0.04-0.02-0.07-0.02-0.11c-0.01-0.02-0.01-0.05-0.01-0.08c0-0.04,0.01-0.08,0.01-0.12
		c0.01-0.04,0.01-0.11,0.02-0.16c0-0.01,0.01-0.01,0.01-0.02c0.01-0.05,0.02-0.1,0.03-0.14c0.02-0.05,0.04-0.11,0.05-0.16
		c0.02-0.05,0.04-0.1,0.07-0.15c0.02-0.05,0.05-0.1,0.08-0.14c0.02-0.05,0.06-0.09,0.09-0.14c0.03-0.04,0.07-0.08,0.1-0.12
		c0.04-0.04,0.08-0.08,0.12-0.11c0.04-0.04,0.08-0.07,0.12-0.1c0.04-0.03,0.09-0.05,0.13-0.08c0.05-0.02,0.09-0.05,0.14-0.07
		c0.05-0.02,0.09-0.04,0.14-0.05c0.05-0.01,0.09-0.02,0.15-0.04c0.05-0.01,0.1-0.02,0.15-0.02c0.22-0.02,0.48-0.12,0.73-0.17
		c0.13-0.04,0.26-0.09,0.39-0.14c0.13-0.05,0.26-0.11,0.38-0.18c0.12-0.07,0.24-0.14,0.36-0.23c0.11-0.08,0.23-0.17,0.33-0.26
		c0.11-0.09,0.21-0.19,0.3-0.29l0.02-0.02c0.05-0.05,0.09-0.1,0.14-0.14c0.01-0.01,0.02-0.02,0.02-0.03
		c0.04-0.04,0.07-0.07,0.1-0.11c0.01-0.01,0.03-0.02,0.04-0.04c0.03-0.04,0.06-0.07,0.09-0.1c0.01,0,0.01-0.01,0.01-0.01
		c0.04-0.04,0.07-0.07,0.11-0.1c0.01-0.01,0.01-0.01,0.01-0.01c0.04-0.04,0.07-0.07,0.11-0.1c0.01-0.01,0.02-0.01,0.02-0.02
		c0.03-0.02,0.06-0.05,0.09-0.08c0.01-0.01,0.02-0.02,0.04-0.02c0.03-0.02,0.06-0.05,0.09-0.07c0.01-0.01,0.01-0.01,0.01-0.01
		c0.04-0.03,0.08-0.06,0.11-0.08c0.01-0.01,0.01-0.01,0.02-0.01c0.04-0.03,0.08-0.05,0.12-0.08c0.04-0.03,0.09-0.06,0.14-0.09
		c0.05-0.03,0.1-0.06,0.15-0.09c0.01-0.01,0.04-0.02,0.05-0.03c0.04-0.02,0.08-0.04,0.12-0.06c0.05-0.03,0.12-0.07,0.19-0.1
		c0.01-0.01,0.02-0.01,0.04-0.02c0.05-0.03,0.11-0.05,0.17-0.08c0.01-0.01,0.02-0.01,0.03-0.01c0.07-0.03,0.13-0.06,0.2-0.09
		c0.08-0.04,0.17-0.08,0.26-0.11c0.09-0.02,0.18-0.05,0.27-0.07c0.17-0.04,0.35-0.08,0.54-0.12c0.09-0.02,0.18-0.04,0.27-0.05
		c0.36-0.06,0.73-0.11,1.09-0.13c0.26-0.02,0.52-0.03,0.78-0.03c0.36,0,0.71,0.02,1.07,0.05c0.01,0,0.02,0.01,0.03,0.01
		c0.36,0.04,0.73,0.09,1.08,0.16c0.12,0.03,0.25,0.06,0.37,0.09c0.23,0.05,0.46,0.11,0.69,0.18l1.37,0.53
		c-0.01-0.02-0.03-0.05-0.04-0.08c-0.02-0.05-0.03-0.1-0.05-0.14c-0.01-0.05-0.02-0.09-0.03-0.14c-0.01-0.05-0.02-0.1-0.02-0.15
		c-0.01-0.04-0.01-0.07-0.01-0.11c0-0.05,0.01-0.1,0.01-0.15c0.01-0.02,0.01-0.05,0.01-0.07s0.01-0.05,0.01-0.08
		c0.01-0.05,0.02-0.1,0.04-0.15c0.01-0.05,0.03-0.09,0.05-0.14c0.02-0.05,0.04-0.09,0.07-0.14c0.02-0.04,0.05-0.08,0.08-0.12
		c0.02-0.04,0.06-0.08,0.09-0.12c0.04-0.04,0.07-0.08,0.11-0.11c0.04-0.04,0.07-0.07,0.11-0.09c0.04-0.04,0.08-0.06,0.12-0.09
		c0.13-0.09,0.27-0.16,0.4-0.26c0.04-0.03,0.08-0.07,0.11-0.1v-0.01c0.04-0.03,0.07-0.07,0.11-0.11c0.03-0.04,0.06-0.08,0.09-0.12
		c0.01-0.02,0.02-0.04,0.04-0.05c0.02-0.02,0.03-0.05,0.05-0.07c0.02-0.05,0.04-0.09,0.07-0.14c0.02-0.05,0.04-0.09,0.05-0.14
		c0.02-0.05,0.03-0.09,0.04-0.14c0.01-0.05,0.01-0.11,0.01-0.15C28.94,14.42,28.93,14.46,28.95,14.32 M26.09,12.58
		c0.21,0,0.45,0.05,0.7,0.2c0.27,0.19,0.61,0.46,0.59,0.88c-0.23,0.47-1.49,0.7-1.26,2.2c-0.03-0.04-0.05-0.09-0.07-0.13
		c-0.21-0.35-0.26-0.77-0.08-1.17c0.11-0.31,0.27-0.38,0.25-0.9c0-0.04-0.01-0.07-0.01-0.11c-0.01-0.04-0.02-0.07-0.02-0.11
		c-0.08-0.3-0.25-0.57-0.55-0.77C25.77,12.61,25.92,12.58,26.09,12.58"/>
	<g>
		<g>
			<polyline class="st3" points="5.52,28.98 7.48,27.16 9.29,29.12 			"/>
		</g>
		<g>
			<g>
				<polyline class="st3" points="44.29,21.73 42.33,23.54 40.52,21.58 				"/>
			</g>
		</g>
	</g>
</g>
</svg>
