<svg xmlns="http://www.w3.org/2000/svg" id="Camada_3" x="0" y="0" version="1.1" viewBox="0 0 50 50" xml:space="preserve"><style>.st3,.st4{fill-rule:evenodd;clip-rule:evenodd;fill:none;stroke:#444;stroke-linecap:round;stroke-linejoin:round;stroke-miterlimit:10}.st4{stroke-width:.5}</style><path fill="#ec6a6d" d="M35.48 8.54l-24.36-.95c-3.6 0-6.51 2.91-6.51 6.51v10.29l39.97-14.22c-.01-1.11-8-1.63-9.1-1.63z"/><path fill="#e46160" d="M4.11 29.11l.81 10.6c.2.92 2.9 3.1 3.84 3.04l8.73-.53L45.8 32.15c.73-.26 1.29-6 1.25-6.76L45 10.01 3.3 24.85c-.59.21.74 3.64.81 4.26z"/><path fill="none" stroke="#444" stroke-linecap="round" stroke-linejoin="round" stroke-miterlimit="10" stroke-width="2.5" d="M37.79 42.86H9.81c-.12.03-5.7.11-5.7-7.26v-6.49c0-.83-.22-1.66-.71-2.33-.42-.57-1.07-1.08-2.04-1.08h0c.97 0 1.62-.51 2.04-1.08.49-.67.71-1.5.71-2.33v-6.31c0-7.51 5.59-7.46 5.7-7.43H40.3c.1-.03 5.7-.09 5.7 7.43v6.31c0 .83.22 1.66.71 2.33.42.57 1.07 1.08 2.04 1.08h0c-.97 0-1.62.51-2.04 1.08-.49.67-.71 1.5-.71 2.33v6.49"/><path d="M20.99 24.96c0 2.07 1.67 3.74 3.74 3.74s3.74-1.67 3.74-3.74m0 0c0-1.65-1.23-6.73-3.74-6.73-2.75 0-3.74 5.08-3.74 6.73m-4.46-.93c.52 1.82 2.3 2.94 4.12 2.68.17-.02.34-.06.5-.11" class="st3"/><path d="M22.34 19.23c-1.07-1.61-2.6-3.11-4.06-2.69-2.64.75-2.2 5.91-1.75 7.5m11.71 2.44a3.75 3.75 0 004.2-2.29m0 0c.61-1.54 1.34-6.71-1-7.64-1.72-.68-3.54 1.07-4.74 2.75" class="st3"/><path d="M7.57 24.35s10.6 13.28 33.81 9.82M13.45 22.93s5.99 10.79 24.34 9.78" class="st4"/><path d="M7.57 28.9l5.22.17c.05 0 .08.06.05.1l-1.57 2.14m-.97-6.52l4.74.42m1.15 3.72l1.31 2.46m-6.33 2.79s19.02.25 24.89-13.41M19.34 34.8s7.08.79 16.6-5.33m.18 2.14s3.67-1.24 6.6-4.86m-2.63 2.58l2.98.78M29.73 28.6l3.62-.24m0-3.15l6.64-1.55m-1.08 3.25l-1.97-2.39" class="st4"/></svg>