<svg xmlns="http://www.w3.org/2000/svg" id="Camada_3" x="0" y="0" version="1.1" viewBox="0 0 50 50" xml:space="preserve"><style>.st1,.st2{fill:none;stroke:#444;stroke-width:2.5;stroke-linecap:round;stroke-linejoin:round;stroke-miterlimit:10}.st2{stroke-width:.5}</style><path fill="#fcc34f" d="M47.95 20.01c-.16-.79-2.69-7.49-3.21-8.1l-3-3.51-.2.07-7.63-5.75-7.78-.67c-3.2 0-14.54.27-21.43 10.21L.76 22.86l-.19.07 3.96 13.41c.11.36 4.55 5.65 4.86 5.85l5.62 2.97L47.2 33.42c.65-.37 1.7-8.64.75-13.41z"/><path d="M32.24 47.3c-7.01 2.27-14.98 1.21-21.32-3.56C.56 35.96-1.53 21.26 6.26 10.91" class="st1"/><path d="M6.13 11.08c2.03-2.99 4.73-4.73 4.73-4.73l.66-.54C19.6.12 30.76-.01 39.09 6.26c10.36 7.78 12.44 22.48 4.65 32.83" class="st1"/><path d="M12.5 18.53l-8 7.99 7.96 7.96" class="st2"/><path fill="none" stroke="#444" stroke-miterlimit="10" d="M32.14 13.72a6.686 6.686 0 00-2.97-5.68c-.49-.33-1.15.04-1.11.63l.26 3.59-2.88 2.13-2.58-2.25c-.06-.06.03-2.18.09-3.58.03-.57-.6-.92-1.09-.62a6.689 6.689 0 00-3.12 5.67c0 2.72 1.63 5.06 3.96 6.11v21.97c0 1.24 1.01 2.25 2.25 2.25h.99c1.24 0 2.25-1.01 2.25-2.25V19.7c2.27-1.06 3.91-3.36 3.95-5.98z"/><path d="M9.68 13.51h2.05m2.41 0h3.1m-2.96 9.14h5.57m-.37 3.86h3.01m-2.64 3.91h-5.57m-4.6 9.05h2.21m2.25 0h3.07m1.79 0h1.96m17.59-5.02l8-8-7.96-7.96m2.79 20.98h-2.06m-2.4 0h-3.1m2.95-9.15h-5.56m.37-3.86h-3.01m2.64-3.91h5.56m4.61-9.04h-2.22m-2.24 0h-3.08m-1.79 25.93H30.1" class="st2"/></svg>