<svg xmlns="http://www.w3.org/2000/svg" id="Camada_3" x="0" y="0" version="1.1" viewBox="0 0 50 50" xml:space="preserve"><style>.st3{fill:none;stroke:#444;stroke-width:.5;stroke-linecap:round;stroke-linejoin:round}</style><path fill="#f56991" d="M35.12 1.3l-23.87.2c-1.96.32-1.96 17.58-1.96 17.58l-8 1.64 7.78-1.74 1.42-1.54 28.15-10-.24-4.35-3.28-1.79z"/><path fill="#dc5e82" d="M1.29 20.73l-.17 19.14c6.31 3.43 4.08 5.29 4.2 5.09l25.01-8.9.33-1.14 2.9-.01 15.32-5.45V13.99c0-3.27-6.27-2.44-9.06-3.38-1.45-.49-.56-3.31-.55-3.41L10.15 17.51l-1.11 1.58-7.75 1.64z"/><path fill="none" stroke="#444" stroke-linecap="round" stroke-linejoin="round" d="M29.94 33.91l-4.15-.06c-2.7 0-5.89-3.08-5.89-5.81V16.18c0-2.73 2.67-4.96 5.37-4.96l15.82.03"/><path d="M10.32 19.05c0 2.73 3.84 5.79 6.54 5.79h5.62m1.82 0h2.4l5.77 5.58c.42.41 1.12.11 1.12-.48v-5.95c2.93-.46 3.91-2.45 3.91-4.84v-2.62M3.52 20.19l13.15-.13" class="st3"/><path d="M20.16 19.99h4.29c2.7 0 4.99 1.41 4.99 4.14v11.86" class="st3"/><path fill="none" stroke="#444" stroke-linecap="round" stroke-linejoin="round" stroke-width="2" d="M48.45 29.2V15.21c0-3-1.45-4.46-4.42-4.46h-5.26V5.43c0-3-1.45-4.35-4.42-4.35H16.07c-2.97 0-6.34 1.35-6.34 4.35l-.12 13.93H6.39c-2.97 0-5.26 1.55-5.26 4.55v13.05c0 2.63 1.08 4.82 4.3 5.33v5.54c0 1.05 1.25 1.61 2.03.91l6.39-5.71h10.82c2.97 0 5.49-3.06 5.49-6.06v-2.62l2.88.08 3.84 5.38c.45.63 1.43.42 1.58-.33l1.08-5.26h3.53"/></svg>