<svg xmlns="http://www.w3.org/2000/svg" id="Layer_1" x="0" y="0" version="1.1" viewBox="0 0 50 50" xml:space="preserve"><style>.st3{fill:#494949}</style><path fill="#00c8e2" d="M47.7 26.1l.4 4.3L1.5 47.3l.2-9.1L2 33l46.5-16.9-.8 3.7z"/><path fill="#00dffc" d="M47.7 9.3l-.5 7.8L1.7 33.7v-9.9l.3-4.4L47.9 2.7z"/><path fill="none" stroke="#444" stroke-linecap="round" stroke-linejoin="round" stroke-miterlimit="10" stroke-width="2.5" d="M36.3 47.9H1.5V2.1h46.1V37"/><path d="M42.3 37.3h-.6V20c0-.9-.8-1.7-1.7-1.7h-.6c-.2-1.5-1.3-2.7-2.7-3.2.3-.6.5-1.2.5-1.9 0-2.2-1.8-3.9-3.9-3.9-.2 0-.5 0-.7.1-.4-1.4-1.7-2.3-3.2-2.3-1.8 0-3.4 1.5-3.4 3.4v17.4c.1.7.5 1.4 1.1 1.9v2c-.7.2-1.1.8-1.1 1.6 0 .9.8 1.7 1.7 1.7s1.7-.8 1.7-1.7c0-.7-.5-1.4-1.1-1.6v-1.4c.4.1.7.2 1.1.2.4 0 .8-.1 1.1-.2v1.3c0 .1.1.3.2.4l1.7 1.7c-.1.2-.2.5-.2.7 0 .9.8 1.7 1.7 1.7.9 0 1.7-.8 1.7-1.7 0-.9-.8-1.7-1.7-1.7-.3 0-.5.1-.7.2l-1.5-1.5v-1.7c.4-.4.8-.9 1-1.4.2 0 .5.1.7.1h.6v2.8c0 .3.3.6.6.6h1.8c.2.6.8 1.1 1.6 1.1.9 0 1.7-.8 1.7-1.7s-.8-1.7-1.7-1.7c-.7 0-1.3.5-1.6 1.1h-1.2V28c1.3-.6 2.2-2 2.2-3.5 0-.7-.2-1.3-.5-1.9 1.4-.5 2.5-1.7 2.7-3.2h.6c.3 0 .6.3.6.6v17.3H9.4V20c0-.3.3-.6.6-.6h.6c.2 1.5 1.3 2.7 2.7 3.2-.3.6-.5 1.2-.5 1.9 0 1.6.9 2.9 2.2 3.5v2.6h-1.2c-.2-.6-.8-1.1-1.6-1.1-.9 0-1.7.8-1.7 1.7s.8 1.7 1.7 1.7c.7 0 1.3-.5 1.6-1.1h1.8c.3 0 .6-.3.6-.6v-2.8h.6c.2 0 .5 0 .7-.1.2.6.5 1.1 1 1.4v1.7L16.8 33c-.2-.1-.5-.2-.7-.2-.9 0-1.7.8-1.7 1.7 0 .9.8 1.7 1.7 1.7.9 0 1.7-.8 1.7-1.7 0-.3-.1-.5-.2-.7l1.7-1.7c.1-.1.2-.2.2-.4v-1.3c.4.1.7.2 1.1.2.4 0 .8-.1 1.1-.2v1.4c-.7.2-1.1.8-1.1 1.6 0 .9.8 1.7 1.7 1.7s1.7-.8 1.7-1.7c0-.7-.5-1.4-1.1-1.6v-2c.6-.5 1-1.1 1.1-1.9V10.5c0-1.8-1.5-3.4-3.4-3.4-1.5 0-2.7 1-3.2 2.3-.2 0-.5-.1-.7-.1-2.2 0-3.9 1.8-3.9 3.9 0 .7.2 1.3.5 1.9-1.4.5-2.5 1.7-2.7 3.2h-.7c-.9 0-1.7.7-1.7 1.7v17.3h-.5c-.3 0-.6.3-.6.6v2.2c0 1.5 1.3 2.8 2.8 2.8h30.2c1.5 0 2.8-1.3 2.8-2.8v-2.2c0-.4-.3-.6-.6-.6zm-14.5-3.4c-.3 0-.6-.3-.6-.6s.3-.6.6-.6.6.3.6.6-.3.6-.6.6zm6.7.6c0 .3-.3.6-.6.6s-.6-.3-.6-.6.3-.6.6-.6.6.3.6.6zm3.4-3.9c.3 0 .6.3.6.6s-.3.6-.6.6-.6-.3-.6-.6c0-.4.2-.6.6-.6zm-2.1-9h-.7c-.3 0-.6.2-.6.5-.1.3.2.6.5.6.2 0 .4.1.6.1.4.5.6 1.1.6 1.7 0 1.5-1.3 2.8-2.8 2.8-.2 0-.4 0-.6-.1 0-.2 0-.4-.1-.6-.1-.3-.4-.5-.7-.4-.3.1-.5.4-.4.7v.7c-.1 1.1-1.1 1.9-2.2 1.9s-2-.7-2.2-1.7V10.5c0-1.2 1-2.2 2.2-2.2 1 0 1.8.7 2.1 1.6-.3.2-.6.3-.8.5-.2.2-.2.6 0 .8.1.1.3.2.4.2.1 0 .3 0 .4-.1.3-.2.6-.4.9-.5.3-.1.6-.2 1-.2 1.5 0 2.8 1.3 2.8 2.8 0 .6-.2 1.2-.6 1.7-.4 0-.9.1-1.3.2-.3.1-.4.4-.3.7.1.2.3.4.5.4h.2c.4-.1.7-.2 1.1-.2 1.5.1 2.6 1.3 2.6 2.8 0 1.3-1.1 2.5-2.6 2.6zM12.1 31.7c-.3 0-.6-.3-.6-.6s.3-.6.6-.6.6.3.6.6c0 .4-.2.6-.6.6zm4 3.4c-.3 0-.6-.3-.6-.6s.3-.6.6-.6.6.3.6.6c-.1.3-.3.6-.6.6zm6.1-1.2c-.3 0-.6-.3-.6-.6s.3-.6.6-.6.6.3.6.6-.3.6-.6.6zm-8-17.8c.4 0 .8 0 1.1.1h.2c.2 0 .4-.1.5-.4.1-.3 0-.6-.3-.7-.4-.1-.8-.2-1.3-.2-.4-.5-.6-1.1-.6-1.7 0-1.5 1.3-2.8 2.8-2.8.3 0 .6.1 1 .2.3.1.6.3.9.5.1.1.2.1.4.1s.3-.1.4-.2c.2-.2.2-.6 0-.8-.2-.2-.5-.4-.8-.5.3-.9 1.1-1.6 2.1-1.6 1.2 0 2.2 1 2.2 2.2v17.3c-.2 1-1.2 1.7-2.2 1.7-1.1 0-2.1-.8-2.2-1.9v-.7c.1-.3-.1-.6-.4-.7-.3-.1-.6.1-.7.4 0 .2-.1.4-.1.6-.2 0-.4.1-.6.1-1.5 0-2.8-1.3-2.8-2.8 0-.6.2-1.2.6-1.7.2 0 .4 0 .6-.1.3-.1.5-.3.5-.6-.1-.3-.3-.5-.6-.5h-.7c-1.5-.1-2.6-1.3-2.6-2.8 0-1.2 1.1-2.4 2.6-2.5zm14.2 22.3v.6c0 .3-.3.6-.6.6h-5.6c-.3 0-.6-.3-.6-.6v-.6h6.8zm13.4 1.7c0 .9-.8 1.7-1.7 1.7H9.9c-.9 0-1.7-.8-1.7-1.7v-1.7h12.3v.6c0 .9.8 1.7 1.7 1.7h5.6c.9 0 1.7-.8 1.7-1.7v-.6h12.3v1.7z" class="st3"/><path d="M21.1 16.1c.3 0 .6-.3.6-.6s-.3-.6-.6-.6c-.6 0-1.1-.5-1.1-1.1 0-.3-.3-.6-.6-.6s-.6.3-.6.6c.1 1.3 1.1 2.3 2.3 2.3zm-2.2 6.1c-.3 0-.6.3-.6.6s.3.6.6.6c.6 0 1.1.5 1.1 1.1 0 .3.3.6.6.6s.6-.3.6-.6c-.1-1.3-1.1-2.3-2.3-2.3zM17.7 20c.9 0 1.7-.8 1.7-1.7v-.6c0-.3-.3-.6-.6-.6s-.6.3-.6.6v.6c0 .3-.3.6-.6.6s-.6.3-.6.6.4.5.7.5zm13.4-6.2c0-.3-.3-.6-.6-.6s-.5.3-.5.6c0 .6-.5 1.1-1.1 1.1-.3 0-.6.3-.6.6s.3.6.6.6c1.2 0 2.2-1 2.2-2.3zm0 8.4c-1.2 0-2.2 1-2.2 2.2 0 .3.3.6.6.6s.6-.3.6-.6c0-.6.5-1.1 1.1-1.1.3 0 .6-.3.6-.6s-.3-.5-.7-.5zm1.2-3.3c-.3 0-.6-.3-.6-.6v-.6c0-.3-.3-.6-.6-.6s-.6.3-.6.6v.6c0 .9.8 1.7 1.7 1.7.3 0 .6-.3.6-.6s-.2-.5-.5-.5z" class="st3"/></svg>