<svg xmlns="http://www.w3.org/2000/svg" id="Layer_1" x="0" y="0" version="1.1" viewBox="0 0 50 50" xml:space="preserve"><style>.st3{fill:#444}.st4{fill:none;stroke:#444;stroke-width:.5;stroke-linecap:round;stroke-linejoin:round;stroke-miterlimit:10}</style><path fill="#00c8e2" d="M47.7 11.5l.8 5.2L2.4 33.5l-.5-10.9-.1-6.2L42.1 1.8l5.2 2.3z"/><path fill="#00dffc" d="M46.1 1.9l2.3 3.2L1.5 21.8 2.6 4.7l3-2.9 29.1-.2z"/><path fill="none" stroke="#444" stroke-linecap="round" stroke-linejoin="round" stroke-miterlimit="10" stroke-width="2.5" d="M18.1 48.2H5.5c-1.9 0-3.4-1.6-3.4-3.5v-39c0-2 1.5-3.5 3.4-3.5h39c1.9 0 3.4 1.6 3.4 3.5v24.6"/><circle cx="8.2" cy="8.1" r="1.4" class="st3"/><circle cx="12.1" cy="8.1" r="1.4" class="st3"/><circle cx="15.9" cy="8.1" r="1.4" class="st3"/><path d="M14.9 19.7h26.8m-26.8 7.2h26.8m-26.8 7.9h26.8" class="st4"/><path fill="none" stroke="#444" stroke-linecap="square" stroke-linejoin="round" stroke-miterlimit="10" stroke-width=".5" d="M35.3 13.1V42"/><path d="M35.3 11.7V42m-15-30v30.4" class="st4"/><path d="M20.3 27.1h8.2v7.6h-8.2zm7.9 7.6h7.3v7.6h-7.3z" class="st3"/><path d="M28.2 27.1h7.3v7.6h-7.3zm-7.9-7.4h7.6v7.6h-7.6z" class="st3"/></svg>