<svg xmlns="http://www.w3.org/2000/svg" viewBox="0 0 50 50"><path fill="#a6c1c2" d="M6.5 38.3l5.7 3.3L45.9 23l-.1-7.3c0-1.6-.9-3.2-2.3-4L27.3 2.3c-1.4-.8-3.2-.8-4.6 0L6.5 11.7c-1.4.8-2.3 2.3-2.3 4v18.7c0 1.6.9 3.1 2.3 3.9z"/><path fill="#b9d7d9" d="M33.8 6.2l-6.6-3.8c-1.4-.8-3.2-.8-4.6 0L6.5 11.7c-1.4.8-2.3 2.3-2.3 4l-.3 7.9L33.8 6.2z"/><path fill="#444" d="M25 49.5c-1 0-2-.3-2.9-.8L5.9 39.4c-1.8-1-2.9-3-2.9-5V15.6c0-2.1 1.1-4 2.9-5l16.2-9.4c1.8-1 4-1 5.8 0l16.2 9.4c1.8 1 2.9 3 2.9 5v13.7c0 .7-.6 1.2-1.2 1.2s-1.2-.6-1.2-1.2V15.6c0-1.2-.6-2.3-1.7-2.9L26.7 3.4c-1-.6-2.3-.6-3.4 0L7.1 12.7c-1 .6-1.7 1.7-1.7 2.9v18.7c0 1.2.6 2.3 1.7 2.9l16.2 9.4c1 .6 2.3.6 3.4 0l4.5-2.6c.6-.3 1.3-.1 1.7.5.3.6.1 1.3-.5 1.7l-4.5 2.6c-.9.5-1.9.7-2.9.7z"/><path fill="#494949" fill-rule="evenodd" d="M12.3 23.2c-1.1 0-2.1-.4-2.8-1.2-.7-.7-1.2-1.7-1.2-2.8 0-1 .4-1.9 1-2.6.6-.7 1.3-1.1 2.2-1.3.2-1.3.9-2.4 1.8-3.3 1-.9 2.2-1.4 3.6-1.4.9 0 1.8.2 2.5.6.7.4 1.4.9 1.9 1.6.1 0 .3-.1.4-.1h.6c.9 0 1.6.3 2.3.7.6.4 1.1 1.1 1.4 1.8.9.1 1.8.6 2.4 1.3.6.7 1 1.6 1 2.6 0 1.1-.4 2.1-1.2 2.8-.7.7-1.7 1.2-2.8 1.2l-13.1.1zm-2.6-1.5c.2.2.6.5 1.1.7.4.2.9.3 1.4.3h13.2c1 0 1.8-.4 2.5-1 .6-.6 1-1.5 1-2.5 0-.9-.3-1.7-.9-2.3s-1.3-1-2.2-1.1c-.1 0-.2-.1-.2-.2-.2-.7-.7-1.3-1.3-1.7-.6-.4-1.3-.6-2-.6h-.5c-.2 0-.3.1-.5.1-.1 0-.2 0-.2-.1-.5-.7-1.1-1.2-1.8-1.6-.7-.4-1.5-.6-2.3-.6-1.3 0-2.5.5-3.3 1.3-.9.8-1.5 1.9-1.7 3.1 0 .1-.1.2-.2.2-.5.1-1.4.4-2.1 1.2-1.2 1.4-1.1 3.7 0 4.8zm9.6 19.5h23.9c.1 0 .2 0 .2-.1.1-.1.1-.1.1-.2v-.5c0-.1 0-.2-.1-.2-.1-.2-.1-.2-.2-.2H19.3c-.1 0-.2 0-.2.1-.1.1-.1.1-.1.2v.5c0 .1 0 .2.1.2 0 .1.1.2.2.2zm1.8-15.9h20.3c.2 0 .4.1.6.2.1.1.2.3.2.6v13.5h1c.2 0 .4.1.5.2.1.1.2.3.2.6v.5c0 .2-.1.4-.2.6-.1.1-.3.2-.6.2H19.3c-.2 0-.4-.1-.6-.2-.1-.1-.2-.3-.2-.6v-.5c0-.2.1-.4.2-.6.1-.1.3-.2.6-.2h1V26.1c0-.2.1-.4.2-.6.2-.1.4-.2.6-.2zm20.3.4H21.1c-.1 0-.2 0-.2.1-.1.1-.1.1-.1.2v13.5h21V26.1c0-.1 0-.2-.1-.2-.1-.1-.2-.2-.3-.2zm-14 15.1c-.1 0-.2-.1-.2-.2s.1-.2.2-.2h7.5c.1 0 .2.1.2.2s-.1.2-.2.2h-7.5zm-5.7-14.4c-.1 0-.2.1-.2.2v12.1c0 .1.1.2.2.2h19.2c.1 0 .2-.1.2-.2V26.6c0-.1-.1-.2-.2-.2H21.7zm18.9.4H21.9v11.6h18.7V26.8z" clip-rule="evenodd"/></svg>