<svg xmlns="http://www.w3.org/2000/svg" id="Layer_1" x="0" y="0" version="1.1" viewBox="0 0 44.4 48.2" xml:space="preserve"><style>.st0{fill:#00c8e2}.st1{fill:#00dffc}.st2{fill:#444}.st3{stroke:#444;stroke-width:2;stroke-miterlimit:10;fill:none}</style><path d="M3.3 36.5L9 39.7l34-18.3-.1-7.2c0-1.6-.9-3.1-2.3-3.9L24.3 1.1c-1.4-.8-3.2-.8-4.6 0L3.3 10.3c-1.4.8-2.3 2.3-2.3 3.9v18.4c0 1.6.9 3.1 2.3 3.9z" class="st0"/><path d="M30.5 5.7l-6.4-3.9c-1.4-.8-3.1-.8-4.5 0L3.7 11.2c-1.4.8-2.3 2.4-2.2 4l-.3 7.9L30.5 5.7z" class="st1"/><path d="M22.2 48.2c-1 0-2-.3-2.9-.8L2.9 38.3c-1.8-1-2.9-2.9-2.9-5V14.9c0-2.1 1.1-4 2.9-5L19.2.8c1.8-1 4-1 5.9 0L41.4 10c1.8 1 2.9 2.9 2.9 5v13.5c0 .7-.6 1.2-1.2 1.2-.7 0-1.2-.6-1.2-1.2V14.9c0-1.2-.7-2.3-1.7-2.9L23.9 2.9c-1.1-.6-2.3-.6-3.4 0L4.2 12.1c-1 .6-1.7 1.7-1.7 2.9v18.4c0 1.2.6 2.3 1.7 2.9l16.3 9.2c1 .6 2.3.6 3.4 0l4.5-2.5c.6-.3 1.3-.1 1.7.4.3.6.1 1.3-.4 1.7l-4.5 2.5c-1 .4-2 .6-3 .6z" class="st2"/><path d="M22.2 12.7c6.3 0 11.4 5.1 11.4 11.4m-22.8 0c0-6.3 5.1-11.4 11.4-11.4" class="st3"/><path d="M17.1 11.9c-.5.5-.5 1.3 0 1.8l2.2 2.2c1-.4 2-.6 3.1-.6v-5.1c-1.5 0-3 .2-4.4.7l-.9 1z" class="st1"/><path d="M17.1 13.7l2.2 2.2c1-.4 2-.6 3.1-.6v-5.1" class="st0"/><path d="M22.2 35.5c-6.3 0-11.4-5.1-11.4-11.4" class="st3"/><path d="M22.2 34.5s-.1 0 0 0l-.1 2h.1v-2zm10.4-10.4c0 4.2-2.5 7.8-6.1 9.5l1 1c.2.2.2.3.3.5 4-2.1 6.8-6.2 6.8-11h-2z" class="st2"/><path fill="#444" stroke="#444" stroke-linejoin="round" stroke-width="2" d="M22.2 39.3v-7.6l3.8 3.8zm0-30.4v7.6l-3.8-3.8z"/><path d="M26.6 25.2l-.7-.4c0-.2.1-.5.1-.7s0-.5-.1-.7l.7-.4c.3-.2.4-.6.2-.9l-.6-1.1c-.2-.3-.5-.4-.8-.2l-.4.2c-.2.1-.5.1-.7 0l-.6-.3c-.2-.1-.3-.3-.3-.6v-.4c0-.3-.3-.6-.6-.6h-1.3c-.3 0-.6.3-.6.6v.4c0 .2-.1.5-.3.6l-.6.3c-.2.1-.5.1-.7 0l-.3-.2c-.3-.2-.7-.1-.9.2l-.6 1.1c-.2.3-.1.7.2.9l.7.4c0 .2-.1.5-.1.7s0 .5.1.7l-.7.4c-.3.2-.4.6-.2.9l.6 1.1c.2.3.6.4.9.2l.4-.2c.2-.1.5-.1.7 0l.6.3c.2.1.3.3.3.6v.4c0 .3.3.6.6.6h1.3c.3 0 .6-.3.6-.6v-.4c0-.2.1-.5.3-.6l.6-.3c.2-.1.5-.1.7 0l.4.2c.3.2.7.1.9-.2l.6-1.1c.1-.3 0-.7-.4-.9.1 0 .1 0 0 0zm-4.4 1.4c-1.4 0-2.5-1.2-2.5-2.6s1.2-2.5 2.6-2.5 2.5 1.2 2.5 2.6c-.1 1.4-1.2 2.5-2.6 2.5z" class="st2"/></svg>