<svg xmlns="http://www.w3.org/2000/svg" id="Layer_1" x="0" y="0" version="1.1" viewBox="0 0 50 50" xml:space="preserve"><style>.st1{fill:#494949}.st3{stroke-width:2.5}.st3,.st4{fill:none;stroke:#494949;stroke-linecap:round;stroke-linejoin:round;stroke-miterlimit:10}</style><path fill="#a6c1c2" d="M46.9 8.8V17L40 19.5l-.7.2-2.1.8-2.6.9-.6.2-2.4.9-.9.3-.9.3-3.5 1.3-3 1.1-2.3 1-2.5.9-4.5 1.7-1.4.5-.9.3-1.5.5L3.1 33V18.7L34.7 7.2h10.5c1 0 1.7.7 1.7 1.6z"/><path d="M10.2 24.5v3.7l-2.1-3.7H6.7v6h1.4v-3.7l2.1 3.7h1.4v-6h-1.4zm6.5 1.1v-1.1h-4.1v6h4.1v-1.1H14V28h2.3v-1.1H14v-1.2l2.7-.1zm3.7 1.9l.5-1 1.1-2h-1.6l-1 2-1-2h-1.6l1.6 2.9v.1l-1.7 3h1.7l1-2 1 2H22l-1.6-3zm1.9-3v1.1h1.8v4.9h1.4v-4.9h1.8v-1.1h-5zm8.5 2.1v2.7c0 .2-.2.4-.4.4s-.4-.2-.4-.4h-1c0 .2 0 .4.2.7.4.6 1.4.8 2.1.3.5-.4.5-1.1.5-1.2v-2.7h-1v.2zm3.9 1.9c-.2-.1-.4-.2-.7-.3-.3-.1-.5-.2-.6-.2-.1-.1-.2-.2-.2-.3 0-.1 0-.2.1-.3.1-.1.2-.1.4-.1s.3 0 .4.1c.1.1.1.2.1.4h.9c0-.2-.1-.5-.2-.6-.1-.1-.3-.3-.5-.4-.1 0-.9-.4-1.6 0-.1.1-.7.4-.7 1 0 .5.5.9.8 1 0 0 .2.1.6.2.4.1.5.2.6.3.1.2-.1.3-.1.3-.2.2-.6.2-.9.1-.1-.1-.1-.1-.1-.2s-.1-.2-.1-.3H32v.2s0 .2.2.5.5.6 1.1.7 1-.1 1.2-.2.4-.2.6-.5c0 0 .3-.6.1-1-.2-.2-.4-.3-.5-.4z" class="st1"/><circle cx="27.4" cy="30" r=".5" class="st1"/><path fill="#b9d7d9" d="M36.2 7.2L3.1 19.3V8.8c0-.9.7-1.6 1.6-1.6h31.5z"/><path d="M46.9 8.8v26.8c0 .9-.7 1.6-1.6 1.6H4.7c-.9 0-1.6-.7-1.6-1.6V8.8c0-.9.7-1.6 1.6-1.6h40.5c1 0 1.7.7 1.7 1.6z" class="st3"/><path d="M3.1 33.1h43.8" class="st4"/><path d="M34.7 42.8H15.3m12.9-5.6l2.5 5.6m-8.9-5.6l-2.5 5.6" class="st3"/><g id="XMLID_10_"><path d="M33.6 12.2v7.6c0 .8 2.1 1.4 4.5 1.4s4.5-.6 4.5-1.4v-7.6" class="st4"/><path d="M42.6 12.2c0 .8-2.1 1.4-4.5 1.4s-4.5-.6-4.5-1.4c0-.8 2.1-1.4 4.5-1.4s4.5.6 4.5 1.4zm0 3.8c0 .8-2.1 1.4-4.5 1.4s-4.5-.6-4.5-1.4" class="st4"/></g></svg>