<svg xmlns="http://www.w3.org/2000/svg" id="Camada_1" x="0" y="0" version="1.1" viewBox="0 0 50 50" xml:space="preserve"><style>.st2{fill:none;stroke:#494949;stroke-width:2.5;stroke-linecap:round;stroke-linejoin:round;stroke-miterlimit:10}</style><path fill="#00c8e2" d="M42.6 7.1zm5.5 15.7L1.9 39.6h-.1l-.6-11.1V22l.7-.2 3.4-1.2 16.3-5.9 17.7-6.4c1.1.4 1.8 1.4 1.8 2.6v9.5h3.5c1.9 0 3.3 1 3.5 2.4z"/><path fill="#00dffc" d="M38.7 7.6c-1.3-.2-2.5-.4-3.8-.7-9.2.2-18.4.4-27.6.7-.8 1-1.7 2-2.5 3-.8.8-1.6 1.6-2.5 2.3-.3 3.1-.7 6.1-1 9.2v.8L1 27.8l.3-.1.7-.2 3.4-1.2 1-.4 15-5.4 19.8-7.1v-2.5c0-1.2-.8-2.2-1.8-2.6l-.7-.7z"/><g id="file"><path d="M4.8 11.6c-1.6 0-2.9 1.3-2.9 2.9v25.3m39.2-19.4v-9.6c0-1.2-.8-2.2-1.8-2.6-.3-.1-.6-.1-.9-.1H8c-1.5 0-2.7 1.2-2.7 2.7v17.7" class="st2"/><path d="M48 24.2l-4.8 14.7c-.7 2.1-3.2 3.8-5.7 3.8h-32c-2.1 0-3.5-1.2-3.5-2.9v-.1c0-.2.1-.5.1-.8l4.3-13.1.5-1.6c.6-2.1 3.2-3.8 5.7-3.8h32c2 0 3.3 1 3.5 2.5 0 .3 0 .8-.1 1.3zm-35.9-9.5H35" class="st2"/></g></svg>