<svg xmlns="http://www.w3.org/2000/svg" id="Camada_3" x="0" y="0" version="1.1" viewBox="0 0 50 50" xml:space="preserve"><style>.st2{fill:none;stroke:#444;stroke-linecap:round;stroke-linejoin:round;stroke-miterlimit:10}.st5{fill:#444}</style><path fill="#81cad2" d="M48 3.3H2.4v18.4L48 5.5z"/><path fill="#72babf" d="M2.4 21.7v24.6L48 30.1V5.5z"/><path d="M2.7 43.8h3.8v-3c1.3-.3 1.9-.7 2.8-1.2l3 3 4.5-4.5-3-3c.5-.9.9-1.8 1.2-2.8h4.3v-6.4H15c-.3-1-.7-1.9-1.2-2.8l3-3-4.5-4.5-3 3c-.9-.5-1.5-.9-2.8-1.2v-3H2.7" class="st2"/><path d="M2.7 24.6c2.5 0 4.5 2 4.5 4.5s-2 4.5-4.5 4.5m44.7-19.1h-5.6v4.3c-1.9.4-2.8 1-4.1 1.7l-4.4-4.4-6.5 6.5 4.4 4.4c-.7 1.3-1.3 2.2-1.7 4.1h-6.2v9.3h5.6c.4 1.4 1.6 2.8 2.3 4.1l-1.8 1.8m13.8-5.6c-1.4-1.2-2.3-3-2.3-4.9 0-3.6 2.9-6.5 6.5-6.5" class="st2"/><path fill="none" stroke="#444" stroke-linecap="round" stroke-linejoin="round" stroke-miterlimit="10" stroke-width="2.5" d="M37.3 47.2H2.1v-43h46.1v33.3"/><path fill="none" stroke="#444" stroke-linecap="round" stroke-linejoin="round" stroke-miterlimit="10" stroke-width=".25" d="M2.1 12.4h46.1"/><circle cx="36.8" cy="8.9" r="1.3" class="st5"/><circle cx="40.3" cy="8.9" r="1.3" class="st5"/><circle cx="43.8" cy="8.9" r="1.3" class="st5"/></svg>