<svg xmlns="http://www.w3.org/2000/svg" id="Camada_1" x="0" y="0" version="1.1" viewBox="0 0 50 50" xml:space="preserve"><style>.st1{fill:#494949}.st3{fill:none;stroke:#494949;stroke-width:2.5;stroke-linecap:round;stroke-linejoin:round;stroke-miterlimit:10}</style><path fill="#e589ef" d="M46.9 8.8V17L40 19.5l-.7.2-2.1.8-2.6.9-.6.2-2.4.9-.9.3-.9.3-3.5 1.3-3 1.1-2.3 1-2.5.9-4.5 1.7-1.4.5-.9.3-1.5.5L3.1 33V18.7L34.7 7.2h10.5c1 0 1.7.7 1.7 1.6z"/><path d="M10.2 24.5v3.7l-2.1-3.7H6.7v6h1.4v-3.7l2.1 3.7h1.4v-6h-1.4zm6.5 1.1v-1.1h-4.1v6h4.1v-1.1H14V28h2.3v-1.1H14v-1.2l2.7-.1zm3.7 1.9l.5-1 1.1-2h-1.6l-1 2-1-2h-1.6l1.6 2.9v.1l-1.7 3h1.7l1-2 1 2H22l-1.6-3zm1.9-3v1.1h1.8v4.9h1.4v-4.9h1.8v-1.1h-5zm8.5 2.1v2.7c0 .2-.2.4-.4.4s-.4-.2-.4-.4h-1c0 .2 0 .4.2.7.4.6 1.4.8 2.1.3.5-.4.5-1.1.5-1.2v-2.7h-1v.2zm3.9 1.9c-.2-.1-.4-.2-.7-.3-.3-.1-.5-.2-.6-.2-.1-.1-.2-.2-.2-.3 0-.1 0-.2.1-.3.1-.1.2-.1.4-.1s.3 0 .4.1c.1.1.1.2.1.4h.9c0-.2-.1-.5-.2-.6-.1-.1-.3-.3-.5-.4-.1 0-.9-.4-1.6 0-.1.1-.7.4-.7 1 0 .5.5.9.8 1 0 0 .2.1.6.2.4.1.5.2.6.3.1.2-.1.3-.1.3-.2.2-.6.2-.9.1-.1-.1-.1-.1-.1-.2s-.1-.2-.1-.3H32v.2s0 .2.2.5.5.6 1.1.7 1-.1 1.2-.2.4-.2.6-.5c0 0 .3-.6.1-1-.2-.2-.4-.3-.5-.4z" class="st1"/><circle cx="27.4" cy="30" r=".5" class="st1"/><path fill="#f799ff" d="M36.2 7.2L3.1 19.3V8.8c0-.9.7-1.6 1.6-1.6h31.5z"/><path d="M46.9 8.8v26.8c0 .9-.7 1.6-1.6 1.6H4.7c-.9 0-1.6-.7-1.6-1.6V8.8c0-.9.7-1.6 1.6-1.6h40.5c1 0 1.7.7 1.7 1.6z" class="st3"/><path fill="none" stroke="#494949" stroke-linecap="round" stroke-linejoin="round" stroke-miterlimit="10" d="M3.1 33.1h43.8"/><path d="M34.7 42.8H15.3m12.9-5.6l2.5 5.6m-8.9-5.6l-2.5 5.6" class="st3"/><path fill="#444" d="M39.5 21.3c-2.1 0-3.8-1.7-3.8-3.8 0-.4 0-.7.1-1 .4-1.7 2-2.8 3.7-2.8.8 0 1.6.3 2.1.7 1 .7 1.7 1.8 1.7 3.2.2 2-1.5 3.7-3.8 3.7zm4.6-3.8c0-1.1-.4-2.2-1.1-3-.8-1-2.1-1.6-3.5-1.6-.9 0-1.8.3-2.5.7-.1-.3-.3-.7-.5-1l.4-.7-1.6-1.6-.7.4c-.5-.3-1-.5-1.6-.7l-.3-.8h-2.3l-.2.8c-.6.1-1.1.4-1.6.7l-.7-.4-1.6 1.6.4.7c-.3.5-.5 1-.7 1.6l-.8.3v2.3l.8.3c.1.6.4 1.1.7 1.6l-.4.7 1.6 1.6.7-.4c.5.3 1 .5 1.6.7l.3.8h2.3l.3-.8c.6-.1 1.1-.4 1.6-.7l.7.4.6-.6c.5.7 1.2 1.2 2 1.4v.9h-.6v.6h.6v3.4c0 .8.7 1.5 1.5 1.5s1.5-.7 1.5-1.5v-3.4h.6v-.6H41v-.9c1.8-.6 3.1-2.3 3.1-4.3zm-8.9 2.7l-.7-.3-.1.1c-.5.3-1.1.6-1.7.7h-.2l-.2.7h-1.4l-.2-.7h-.2c-.6-.1-1.2-.4-1.7-.7l-.1-.1-.7.3-.2-.2-.8-.7.3-.7-.1-.1c-.3-.5-.6-1.1-.7-1.7v-.2l-.7-.2V15l.7-.2v-.2c.1-.6.4-1.2.7-1.7l.1-.1-.3-.7 1-1 .7.3.1-.1c.5-.3 1.1-.6 1.7-.7h.2l.2-.7h1.4l.2.7h.2c.6.1 1.2.4 1.7.7l.1.1.7-.3.7.7.2.2.1.1-.3.7.1.1.6 1.2-.5.5c-.2-.8-.7-1.6-1.3-2.2l-.2-.2c-.8-.7-1.9-1.1-3-1.1-2.3 0-4.2 1.7-4.5 3.9v.7c0 1.6.9 3.1 2.2 3.9.7.4 1.5.7 2.4.7 1.4 0 2.6-.6 3.5-1.6.1.4.3.9.5 1.2l-.5.3zm-.2-2.5c-.3.5-.7.9-1.2 1.2v-1.1c0-.1.1-.2.1-.2.2-.3.5-.4.8-.4h.3v.5zM27.7 15v-.2c0-.2.1-.4.2-.6h.1c.3 0 .5.1.8.2.1 0 .1.1.2.1.2.1.3.3.4.5.2.4.5.6 1 .6.2 0 .4.2.4.4v.5c0 .5.4.9.9.9.2 0 .3.1.3.3 0 .2-.1.3-.3.3-.7 0-1.3.5-1.5 1.1v.1s-.1 0-.1-.1c-1.4-.6-2.3-2-2.3-3.6-.1-.1-.1-.3-.1-.5zm3.5 3.8c.1-.1.2-.1.3-.1h.1c.3 0 .5-.1.7-.3.2-.2.3-.4.3-.6 0-.5-.4-.9-.9-.9-.2 0-.3-.1-.3-.3v-.5c0-.6-.5-1-1-1-.2 0-.3-.1-.4-.3s-.2-.4-.3-.5c0-.1-.1-.1-.1-.2-.3-.3-.7-.5-1.2-.6.4-.6 1-1.1 1.6-1.5l.3.7c.2.4.5.6.9.7h.5c.2 0 .4.2.5.4.1.5.6.8 1.1.8h.1c.2 0 .4.1.4.3l.2.3c.2.4.6.6 1 .6h.4c-.1.2-.1.4-.2.6h-.3c-.5 0-1 .3-1.3.7-.2.2-.3.5-.3.8v1.2c-.5.2-1 .3-1.5.3-.3 0-.6 0-.9-.1-.1-.1 0-.3.3-.5zm4.3-3.4h-.6c-.2 0-.4-.1-.4-.3l-.2-.3c-.2-.4-.6-.6-1-.6h-.1c-.2 0-.4-.2-.5-.4 0-.2-.2-.4-.3-.5s-.1-.1-.2-.1c-.2-.1-.4-.2-.6-.2h-.3c-.2 0-.4-.1-.5-.3l-.3-.7c.4-.1.7-.2 1.1-.2.9 0 1.7.3 2.3.8.1 0 .1.1.2.1.8.6 1.4 1.5 1.4 2.7 0-.1 0-.1 0 0zm5 11.2c0 .5-.4.9-.9.9s-.9-.4-.9-.9v-3.4h1.8v3.4zm0-3.9h-1.8V22c.3.1.6.1.9.1.3 0 .6 0 .9-.1v.7z"/></svg>