<svg xmlns="http://www.w3.org/2000/svg" id="Layer_1" x="0" y="0" version="1.1" viewBox="0 0 50 50" xml:space="preserve"><style>.st1{fill:#494949}.st3{fill:none;stroke:#494949;stroke-width:2.5;stroke-linecap:round;stroke-linejoin:round;stroke-miterlimit:10}</style><path fill="#afe55d" d="M47.1 9.6v8.2l-6.9 2.5-.7.2-2.1.8-2.6.9-.6.2-2.4.9-.9.3-.9.3-3.5 1.3-3 1.1-2.3 1-2.5.9-4.5 1.7-1.4.5-.9.3-1.5.5-7.1 2.6V19.5L34.9 8h10.5c1 0 1.7.7 1.7 1.6z"/><path d="M10.4 25.3V29l-2.1-3.7H6.9v6h1.4v-3.7l2.1 3.7h1.4v-6h-1.4zm6.5 1.1v-1.1h-4.1v6h4.1v-1.1h-2.7v-1.4h2.3v-1.1h-2.3v-1.2l2.7-.1zm3.7 1.9l.5-1 1.1-2h-1.6l-1 2-1-2H17l1.6 2.9v.1l-1.7 3h1.7l1-2 1 2h1.6l-1.6-3zm1.9-3v1.1h1.8v4.9h1.4v-4.9h1.8v-1.1h-5z" class="st1"/><circle cx="27.6" cy="30.8" r=".5" class="st1"/><path fill="#c3ff68" d="M36.4 8L3.3 20.1V9.6C3.3 8.7 4 8 4.9 8h31.5z"/><path d="M47.1 9.6v26.8c0 .9-.7 1.6-1.6 1.6H4.9c-.9 0-1.6-.7-1.6-1.6V9.6C3.3 8.7 4 8 4.9 8h40.5c1 0 1.7.7 1.7 1.6z" class="st3"/><path fill="none" stroke="#494949" stroke-linecap="round" stroke-linejoin="round" stroke-miterlimit="10" d="M3.3 33.9h43.8"/><path d="M34.9 43.6H15.5M28.4 38l2.5 5.6M22 38l-2.5 5.6" class="st3"/><g id="Icon_7_"><path d="M41.3 14.1l-4.7 4.7-2.2-2.2c-.3-.3-.7-.3-1 0s-.3.7 0 1l2.7 2.7c.1.1.3.2.5.2s.4-.1.5-.2l5.2-5.2c.3-.3.3-.7 0-1-.3-.2-.7-.2-1 0z" class="st1"/><path d="M37.9 8C33 8 29 12 29 16.9s4 8.9 8.9 8.9 8.9-4 8.9-8.9-4-8.9-8.9-8.9zm0 16.3c-4.1 0-7.5-3.3-7.5-7.5s3.3-7.5 7.5-7.5c4.1 0 7.5 3.3 7.5 7.5s-3.4 7.5-7.5 7.5z" class="st1"/></g><path d="M31.7 27h-1v3c0 .2-.2.4-.4.4s-.4-.2-.4-.4h-1c0 .2 0 .4.2.7.4.6 1.4.8 2.2.3.5-.4.5-1.1.5-1.2m3.3-.8c-.2-.1-.5-.2-.8-.3-.3-.1-.5-.1-.6-.2-.1-.1-.2-.2-.2-.3 0-.1 0-.2.1-.3.1-.1.2-.1.4-.1s.3 0 .4.1c.1.1.1.2.1.4h1c0-.2-.1-.4-.2-.6-.1-.1-.3-.4-.5-.5-.1-.1-.9-.5-1.8 0-.2.1-.8.4-.8 1.1 0 .5.5 1 .9 1.1 0 0 .2.1.7.2.4.1.6.2.6.3.1.3-.1.4-.1.4-.3.2-.6.2-.9 0-.1-.1-.2-.1-.2-.3v-.3h-1v.3s0 .4.2.6c.2.3.6.6 1.2.7.6.1 1.1-.1 1.3-.2.2-.1.4-.2.6-.5 0 0 .3-.5.1-1.1-.2-.3-.4-.4-.5-.5z" class="st1"/></svg>