<svg xmlns="http://www.w3.org/2000/svg" viewBox="0 0 50 50"><path fill="#afe55d" d="M6.6 38.3l5.7 3.3L46 22.9l-.1-7.3c0-1.6-.9-3.2-2.3-4L27.4 2.2c-1.4-.8-3.2-.8-4.6 0L6.6 11.6c-1.4.8-2.3 2.3-2.3 4v18.7c0 1.6.9 3.2 2.3 4z"/><path fill="#c3ff68" d="M33.9 6.1l-6.6-3.8c-1.4-.8-3.2-.8-4.6 0L6.6 11.6c-1.4.8-2.3 2.3-2.3 4L4 23.5 33.9 6.1z"/><path fill="#031326" d="M25 49.5c-1 0-2-.3-2.9-.8L5.9 39.4c-1.8-1-2.9-3-2.9-5V15.6c0-2.1 1.1-4 2.9-5l16.2-9.4c1.8-1 4-1 5.8 0l16.2 9.4c1.8 1 2.9 3 2.9 5v13.7c0 .7-.6 1.2-1.2 1.2-.7 0-1.2-.6-1.2-1.2V15.6c0-1.2-.6-2.3-1.7-2.9L26.7 3.4c-1-.6-2.3-.6-3.4 0L7.1 12.7c-1 .6-1.7 1.7-1.7 2.9v18.7c0 1.2.6 2.3 1.7 2.9l16.2 9.4c1 .6 2.3.6 3.4 0l4.5-2.6c.6-.3 1.3-.1 1.7.5.3.6.1 1.3-.5 1.7l-4.5 2.6c-.9.5-1.9.7-2.9.7z"/><path fill="none" stroke="#031326" stroke-linecap="round" stroke-linejoin="round" stroke-miterlimit="10" stroke-width="1.5" d="M16.3 33.8V16.3l17.4 17.5V16.2"/></svg>