<svg xmlns="http://www.w3.org/2000/svg" id="Layer_1" x="0" y="0" version="1.1" viewBox="0 0 50 50" xml:space="preserve"><style>.st2{fill:#031326}</style><path fill="#c05e80" d="M44 25c0-5.8-2.6-10.9-6.6-14.4L6.3 21.9C6.1 22.9 6 24 6 25c0 6.6 3.3 12.4 8.4 15.8l28.8-10.5c.5-1.7.8-3.5.8-5.3z"/><path fill="#d7698d" d="M25.2 5.6c-10 0-18.2 7.3-19.7 16.8l32.7-11.9c-3.5-3.1-8.1-4.9-13-4.9z"/><path d="M10.4 43.4c-.3 0-.6-.1-.8-.3C4.3 38.5 1.2 31.9 1.2 25c0-.7.6-1.2 1.2-1.2s1.2.6 1.2 1.2c0 6.2 2.7 12.1 7.4 16.2.5.4.6 1.2.1 1.8 0 .2-.4.4-.7.4zM25 48.8c-.7 0-1.2-.6-1.2-1.2s.6-1.2 1.2-1.2c7.1 0 13.7-3.5 17.6-9.4.4-.6 1.2-.7 1.7-.3.6.4.7 1.2.3 1.7-4.3 6.4-11.7 10.4-19.6 10.4zm22.5-22.6c-.7 0-1.2-.6-1.2-1.2 0-7.3-3.7-14-9.9-17.9-.6-.4-.8-1.1-.4-1.7.4-.6 1.1-.8 1.7-.4 6.9 4.4 11 11.9 11 20.1.1.6-.5 1.1-1.2 1.1zM4.1 17.9c-.2 0-.3 0-.5-.1-.6-.3-1-1-.7-1.6 3.6-9.1 12.3-15 22.1-15 .7 0 1.2.6 1.2 1.2s-.5 1.4-1.2 1.4C16.2 3.8 8.5 9 5.2 17.2c-.2.4-.6.7-1.1.7zM25 45.2h-.7c-.7 0-1.2-.6-1.2-1.3 0-.7.6-1.3 1.3-1.2h.6c.7 0 1.2.6 1.2 1.2s-.5 1.3-1.2 1.3z" class="st2"/><path d="M24.4 45.2s-.1 0 0 0C13.3 44.9 4.8 36 4.8 25c0-11.2 9-20.2 20.2-20.2s20.2 9 20.2 20.2c0 4-1.2 7.9-3.4 11.2-.4.6-1.2.7-1.7.3-.6-.4-.7-1.2-.3-1.7 1.9-2.9 3-6.3 3-9.8 0-9.8-8-17.8-17.8-17.8S7.2 15.2 7.2 25c0 9.6 7.5 17.4 17.2 17.7.7 0 1.2.6 1.2 1.3 0 .7-.6 1.2-1.2 1.2z" class="st2"/><path d="M25.4 40.1c-8.4 0-15.2-6.8-15.2-15.2 0-8.4 6.8-15.2 15.2-15.2s15.2 6.8 15.2 15.2c0 8.4-6.8 15.2-15.2 15.2zm0-28.9c-7.5 0-13.7 6.1-13.7 13.7 0 7.5 6.1 13.7 13.7 13.7s13.7-6.1 13.7-13.7c0-7.5-6.2-13.7-13.7-13.7z" class="st2"/><path d="M20.5 28.7h-3.4c-.6 0-1-.4-1-1v-3.4c0-.6.4-1 1-1h3.4c.6 0 1 .4 1 1v3.4c0 .5-.5 1-1 1zm5.6-3.3h-1.2c-.3 0-.5-.2-.5-.5v-1.2c0-.3.2-.5.5-.5h1.2c.3 0 .5.2.5.5v1.2c0 .3-.2.5-.5.5zm1.1 6.8h-2.5c-.6 0-1-.4-1-1v-2.5c0-.6.4-1 1-1h2.5c.6 0 1 .4 1 1v2.5c0 .6-.5 1-1 1zm6.5-5.4h-4.1c-.6 0-1-.4-1-1v-4.1c0-.6.4-1 1-1h4.1c.6 0 1 .4 1 1v4.1c0 .6-.4 1-1 1zm-9.2-5.4h-1.7c-.6 0-1-.4-1-1v-1.7c0-.6.4-1 1-1h1.7c.6 0 1 .4 1 1v1.7c0 .5-.5 1-1 1z" class="st2"/></svg>