<svg xmlns="http://www.w3.org/2000/svg" id="Camada_1" x="0" y="0" version="1.1" viewBox="0 0 50 50" xml:space="preserve"><style>.st4{fill:none;stroke:#494949;stroke-linecap:round;stroke-linejoin:round;stroke-miterlimit:10}</style><path fill="#afe55d" d="M5 45.4l41.8-15.2V8.6c0-3-2.4-5.4-5.4-5.4H8.6c-3 0-5.4 2.4-5.4 5.4v32.8c0 1.5.7 3 1.8 4z"/><path fill="#c3ff68" d="M45 4.6c-1-.9-2.3-1.4-3.6-1.4H8.6c-3 0-5.4 2.4-5.4 5.4v11.3C3.2 19.8 45 4.6 45 4.6z"/><path fill="#444" d="M25 48.1H8.5c-3.6 0-6.6-3-6.6-6.6v-33c0-3.6 2.9-6.6 6.6-6.6h33.1c3.6 0 6.6 2.9 6.6 6.6v21.7c0 .6-.5 1.2-1.2 1.2s-1.2-.5-1.2-1.2V8.5c0-2.3-1.9-4.2-4.2-4.2H8.5c-2.3 0-4.2 1.9-4.2 4.2v33.1c0 2.3 1.9 4.2 4.2 4.2H25c.6 0 1.2.5 1.2 1.1s-.5 1.2-1.2 1.2c.1 0 0 0 0 0z"/><circle cx="16.1" cy="15.8" r="2.3" fill="none" stroke="#494949" stroke-linecap="round" stroke-linejoin="round" stroke-miterlimit="10" stroke-width=".5"/><circle cx="26.5" cy="39.4" r="2.3" class="st4"/><circle cx="36.8" cy="15.8" r="2.3" class="st4"/><path d="M21.3 25.6v8.6l3.5 3.6" class="st4"/><circle cx="39.1" cy="39.4" r="2.3" class="st4"/><path d="M31.1 32.5h-2.9l-1.7-1.7V29h-1.7l-6.2-6.2c-3.9 1.4-8.2-.7-9.6-4.6s.7-8.2 4.6-9.6 8.2.7 9.6 4.6c.6 1.6.6 3.4 0 5l2.1 2.1h6.9l3-3" class="st4"/><path d="M39.1 37.1v-2.9l-6.3-6.3h-1.7v-1.7l-2.9-2.9" class="st4"/></svg>