<svg xmlns="http://www.w3.org/2000/svg" id="Camada_3" x="0" y="0" version="1.1" viewBox="0 0 50 50" xml:space="preserve"><style>.st3{stroke-linecap:round}.st3,.st4,.st5{fill:none;stroke:#444;stroke-linejoin:round;stroke-miterlimit:10}.st4{stroke-linecap:square}.st5{stroke-width:.25;stroke-linecap:round}</style><path fill="#c3ff68" d="M33.55 4.84l8.81 5.56 3.37 7.05-42.29 16.4.16-13.9c-.07-1.11.37-5.19 1.11-6.02l5.25-4.02 13.19-8.2 10.4 3.13z"/><path fill="#afe55d" d="M45.86 22.13l-.02.48-.03 1.55L6.89 38.14l-2.47-1.4-1.05-1.23-.51-3.08.26-3.87L45.43 12.3l-.52.2 1.23 3.66z"/><path fill="none" stroke="#444444" stroke-linecap="round" stroke-linejoin="round" stroke-miterlimit="10" stroke-width="2.5" d="M21.76 48.22c1.69.98 3.78.98 5.47 0l15.57-8.99a5.48 5.48 0 002.74-4.74V16.51a5.46 5.46 0 00-2.74-4.74L27.24 2.78a5.456 5.456 0 00-5.47 0L6.19 11.77a5.48 5.48 0 00-2.74 4.74v17.98a5.46 5.46 0 002.74 4.74l3.16 1.82"/><path d="M22.41 31.73l-6.23-6.23c-.69-.69-.64-1.85.05-2.54l1.19-1.19m9.97 4.98l-8.1-8.1c-.69-.69-1.78-.71-2.47-.03l-.01.01c-.69.69-.7 1.82-.01 2.5l8.1 8.1" class="st3"/><path d="M30.1 41.91l-1.46-1.46c-1.1-1.1-3.57-1.08-4.98-2.49l-7.47-7.47c-.69-.69-.64-1.85.05-2.54l1.19-1.19" class="st4"/><path d="M30.5 24.88l-6.85-6.85c-.69-.69-1.75-.74-2.44-.05l-1.3 1.3" class="st3"/><path d="M39.56 32.69l-1.58-1.58c-1.06-1.06-1.39-2.25-1.65-3.63-.37-1.98-1.31-3.06-2.09-3.84l-3.11-3.11c-.93-.93-1.87-.62-2.49 0l-1.25 1.25" class="st4"/><path d="M31.98 45.59L29.6 43.2l11.08-11.08 3.98 3.98" class="st5"/><path d="M8.39 20.37l2.02 2.02c1.1 1.1 1.08 3.57 2.49 4.98l3.25 3.1m1.63-19.55l1.52 1.52c1.06 1.06 2.25 1.39 3.63 1.65 1.98.37 3.06 1.31 3.84 2.09.78.78 3.52 3.5 5.02 5.01" class="st4"/><path d="M3.63 18.14l3.11 3.11L18.26 9.73l-3.11-3.11" class="st5"/><path d="M17.95 40.65l1.48-1.48c.76-.76 2.18-.99 3.46-1.52M8.53 31.39l1.56-1.56c1-1 1.32-2.48 1.58-3.76" class="st4"/><path d="M18.26 41.73L7.17 30.64l-3.12 3.11" class="st5"/><path d="M39.56 18.31l-1.58 1.58c-.76.76-.83 3.75-2.69 4.98M30.1 9.09l-1.46 1.46c-1 1-4.13.37-5.44 3.13" class="st4"/><path d="M45.34 14.92l-4.3 4.3L29.52 7.7l2.38-2.38" class="st5"/></svg>
