<svg xmlns="http://www.w3.org/2000/svg" id="Camada_3" x="0" y="0" version="1.1" viewBox="0 0 50 50" xml:space="preserve"><style>.st4{fill-rule:evenodd;clip-rule:evenodd;fill:#444}</style><path fill="#c2d45a" d="M33.99 4.48l8.81 5.56 3.37 7.05-42.29 16.4.16-13.9c-.07-1.11.37-5.19 1.11-6.02l5.25-4.02 13.19-8.2 10.4 3.13z"/><path fill="#b0cd5f" d="M46.3 21.77l-.02.47-.03 1.55L7.33 37.78l-2.47-1.41-1.06-1.23-.5-3.07.26-3.87 42.31-16.26-.52.2 1.23 3.65z"/><path fill="none" stroke="#444" stroke-linecap="round" stroke-linejoin="round" stroke-miterlimit="10" stroke-width="2.5" d="M15.33 43.87l7.02 4.05c1.69.98 3.78.98 5.47 0l15.57-8.99a5.48 5.48 0 002.74-4.74V16.2a5.46 5.46 0 00-2.74-4.74L27.82 2.47a5.456 5.456 0 00-5.47 0L6.77 11.46a5.48 5.48 0 00-2.74 4.74v17.98a5.46 5.46 0 002.74 4.74"/><path d="M27.98 17.64h3.88c.87 0 1.59.71 1.59 1.59v3.88h-4.69c-.42 0-.77-.35-.77-.77v-4.7h-.01zm.4 8.99l3.38-.03.84-1.11.11-.14.18-.01 2.08-.12c.04-.13.12-.25.22-.36.36-.36.95-.36 1.32 0s.36.95 0 1.32c-.36.36-.95.36-1.32 0a1.1 1.1 0 01-.14-.18l-1.93.11-.85 1.12-.12.15h-.19l-3.69.03c.07-.24.11-.5.11-.77v-.01zm-6.54-1.74l-3.24-.01h-.19l-.12.15-.85 1.1-3.26.06a.942.942 0 00-1.52-.29c-.36.36-.36.95 0 1.32.36.36.95.36 1.32 0 .07-.07.13-.16.18-.25l3.48-.06h.19l.11-.15.85-1.1 3.03.01c-.01-.15-.01-.29-.01-.39 0-.14.01-.27.03-.39zm1.14-1.79l-2.46-1.7-.16-.11-.18.06-1.33.43-.94-.62a.91.91 0 00-.27-.72.942.942 0 00-1.32 0c-.36.36-.36.95 0 1.32.33.33.85.36 1.21.09l1.04.69.16.1.18-.06 1.32-.43 2.16 1.49c.17-.21.36-.39.59-.54zm1.47-.44l.03-3.38 1.11-.84.14-.11.01-.18.12-2.08c.13-.04.25-.12.36-.22.36-.36.36-.95 0-1.32a.942.942 0 00-1.32 0c-.36.36-.36.95 0 1.32.06.06.12.1.18.14l-.11 1.93-1.12.85-.15.12v.19l-.03 3.69c.24-.07.5-.11.77-.11h.01zm1.7 6.57l.01 3.24v.19l-.15.12-1.1.85-.06 3.26a.942.942 0 01.29 1.52c-.36.36-.95.36-1.32 0a.942.942 0 010-1.32c.07-.07.16-.13.25-.18l.06-3.48v-.19l.15-.11 1.1-.85-.01-3.03c.15.01.29.01.39.01.14 0 .27-.01.39-.03zm1.79-1.13l1.7 2.46.11.16-.06.18-.43 1.33.62.94c.26-.02.52.07.72.27.36.36.36.95 0 1.32-.36.36-.95.36-1.32 0a.93.93 0 01-.09-1.21l-.69-1.04-.1-.16.06-.18.43-1.32-1.49-2.16c.21-.17.39-.37.54-.59zm10.38-9.35c.3.1.64.03.87-.21.33-.33.33-.88 0-1.21a.863.863 0 00-1.21 0c-.25.25-.31.62-.19.93l-1.96 2.11-1.62.13v.72l1.81-.15.14-.01.09-.1 2.07-2.21zm-5.49-5.46c.31.12.67.05.91-.19.33-.33.33-.88 0-1.21a.863.863 0 00-1.21 0c-.24.24-.31.59-.2.89l-2.21 2.05-.1.09-.01.14-.15 1.81h.72l.13-1.62 2.12-1.96z" class="st4"/><path d="M12.1 38.99v-6.44c0-2.01 1.64-3.65 3.65-3.65h3.24c1.62 0 2.03-.2 2.84-1 .96-.95.81-1.26.81-2.61 0-.98.8-1.77 1.77-1.77h3.13v3.13c0 .98-.8 1.77-1.77 1.77-1.24 0-1.68-.2-2.55.68-.84.84-1.02 1.2-1.02 2.82v3.42c0 2.01-1.64 3.65-3.65 3.65H12.1z" class="st4"/><path fill="none" fill-rule="evenodd" stroke="#444" stroke-miterlimit="10" d="M4.5 21.23h6.96l.99-6.4 12.12-3.46-1.13-4.32 9.08-1.86" clip-rule="evenodd"/></svg>