<svg xmlns="http://www.w3.org/2000/svg" id="Layer_1" x="0" y="0" version="1.1" viewBox="0 0 50 50" xml:space="preserve"><style>.st3{fill:#494949}.st4{fill:none;stroke:#494949;stroke-width:.5;stroke-linecap:round;stroke-linejoin:round;stroke-miterlimit:10}</style><path fill="#a475ef" d="M46.9 25.9l.4 4.1L2.6 46.3l.2-8.7.4-4.9 44.5-16.2L47 20z"/><path fill="#bf94f7" d="M47.2 10l-.6 7.4L2.9 33.3V24l.4-4.3 44-16z"/><path fill="none" stroke="#444" stroke-linecap="round" stroke-linejoin="round" stroke-miterlimit="10" stroke-width="2.5" d="M6.5 47.3H2.3V2.7h44.9v44.6H31.7"/><circle cx="9" cy="14.4" r="1.7" class="st3"/><circle cx="17" cy="14.4" r="1.7" class="st3"/><circle cx="25" cy="14.4" r="1.7" class="st3"/><circle cx="33" cy="14.4" r="1.7" class="st3"/><circle cx="41" cy="14.4" r="1.7" class="st3"/><circle cx="9" cy="21.5" r="1.7" class="st3"/><circle cx="17" cy="21.5" r="1.7" class="st3"/><circle cx="25" cy="21.5" r="1.7" class="st3"/><circle cx="33" cy="21.5" r="1.7" class="st3"/><circle cx="41" cy="21.5" r="1.7" class="st3"/><circle cx="25" cy="28.5" r="1.7" class="st3"/><circle cx="33" cy="28.5" r="1.7" class="st3"/><circle cx="41" cy="28.5" r="1.7" class="st3"/><circle cx="33" cy="35.6" r="1.7" class="st3"/><circle cx="41" cy="35.6" r="1.7" class="st3"/><path d="M8.7 14.4H17l8 7.1h8l8 7" class="st4"/><path d="M9 21.5h8l8-7.1h16M24.8 28.5H33l8-7m-8.3 14.1H41" class="st4"/></svg>