<?xml version="1.0" encoding="UTF-8"?>
<svg id="Camada_2" data-name="Camada 2" xmlns="http://www.w3.org/2000/svg" width="44.59" height="49.41" viewBox="0 0 44.59 49.41">
  <defs>
    <style>
      .cls-1 {
        stroke-width: .5px;
      }

      .cls-1, .cls-2 {
        stroke: #494949;
        stroke-miterlimit: 10;
      }

      .cls-1, .cls-2, .cls-3 {
        fill: none;
      }

      .cls-4 {
        fill: #a475ef;
        stroke-width: 0px;
      }

      .cls-3 {
        stroke: #444;
        stroke-linecap: round;
        stroke-linejoin: round;
        stroke-width: 2.5px;
      }
    </style>
  </defs>
  <g id="_Ícones" data-name="Ícones">
    <g>
      <g>
        <path class="cls-4" d="m41.97,12.1l-5.63-3.59-7.67-4.43-5.97-2.84C19.5,1.25,1.25,10.19,1.25,13.39l-.53,7.8.53,15.13,11.5,7.56,31.02-11.04c.74-.42-.82-18.75-1.8-20.74Z"/>
        <path class="cls-3" d="m27.23,46.16l-2.2,1.27c-1.69.98-3.78.98-5.47,0l-15.57-8.99c-1.69-.98-2.74-2.78-2.74-4.74V15.71c0-1.96,1.04-3.76,2.74-4.74L19.56,1.99c1.69-.98,3.78-.98,5.47,0l15.57,8.99c1.69.98,2.74,2.78,2.74,4.74v17.98c0,1.96-1.04,3.76-2.74,4.74l-2.46,1.42"/>
      </g>
      <g>
        <path class="cls-2" d="m24.69,12.87v4.97c0,.26-.14.49-.36.62l-4.38,2.49c-.22.13-.49.12-.71,0l-4.29-2.49c-.22-.13-.35-.36-.35-.62v-4.98c0-.25.14-.49.35-.62l4.29-2.49c.22-.13.49-.13.71,0l4.38,2.49c.22.13.36.36.36.62Z"/>
        <path class="cls-2" d="m24.63,33.39v4.96c0,.26-.14.5-.36.63l-4.27,2.48c-.23.13-.5.13-.73,0l-4.27-2.48c-.22-.13-.36-.37-.36-.63v-4.96c0-.26.14-.5.36-.63l4.27-2.48c.23-.13.5-.13.73,0l4.27,2.48c.22.13.36.37.36.63Z"/>
        <path class="cls-2" d="m36.18,12.87v4.97c0,.26-.14.49-.36.62l-4.38,2.49c-.22.13-.49.12-.71,0l-4.29-2.49c-.22-.13-.35-.36-.35-.62v-4.98c0-.25.14-.49.35-.62l4.29-2.49c.22-.13.49-.13.71,0l4.38,2.49c.22.13.36.36.36.62Z"/>
        <path class="cls-2" d="m18.93,23.06v4.97c0,.26-.14.49-.36.62l-4.38,2.49c-.22.13-.49.12-.71,0l-4.29-2.49c-.22-.13-.35-.36-.35-.62v-4.98c0-.25.14-.49.35-.62l4.29-2.49c.22-.13.49-.13.71,0l4.38,2.49c.22.13.36.36.36.62Z"/>
        <path class="cls-2" d="m30.45,23.06v4.97c0,.26-.14.49-.36.62l-4.38,2.49c-.22.13-.49.12-.71,0l-4.29-2.49c-.22-.13-.35-.36-.35-.62v-4.98c0-.25.14-.49.35-.62l4.29-2.49c.22-.13.49-.13.71,0l4.38,2.49c.22.13.36.36.36.62Z"/>
      </g>
      <g>
        <path class="cls-1" d="m28.38,24.23v2.64c0,.25-.14.49-.35.62l-2.27,1.32c-.22.13-.49.13-.71,0l-2.27-1.32c-.22-.13-.35-.36-.35-.62v-2.64c0-.25.14-.49.35-.62l2.27-1.32c.22-.13.49-.13.71,0l2.27,1.32c.22.13.35.36.35.62Z"/>
        <path class="cls-1" d="m22.61,14.04v2.64c0,.25-.14.49-.35.62l-2.27,1.32c-.22.13-.49.13-.71,0l-2.27-1.32c-.22-.13-.35-.36-.35-.62v-2.64c0-.25.14-.49.35-.62l2.27-1.32c.22-.13.49-.13.71,0l2.27,1.32c.22.13.35.36.35.62Z"/>
        <path class="cls-1" d="m16.64,24.23v2.64c0,.25-.14.49-.35.62l-2.27,1.32c-.22.13-.49.13-.71,0l-2.27-1.32c-.22-.13-.35-.36-.35-.62v-2.64c0-.25.14-.49.35-.62l2.27-1.32c.22-.13.49-.13.71,0l2.27,1.32c.22.13.35.36.35.62Z"/>
      </g>
    </g>
  </g>
</svg>
