<svg xmlns="http://www.w3.org/2000/svg" id="Layer_1" x="0" y="0" version="1.1" viewBox="0 0 50 50" xml:space="preserve"><style>.st2{fill:#444}.st3{fill:none;stroke:#444;stroke-width:.5;stroke-linecap:round;stroke-linejoin:round;stroke-miterlimit:10}</style><path fill="#fcc34f" d="M44.92 2.85H3.81c-1.4 0-1.43 3.84-1.43 5.24l-.17 16.94-.54 10.17 1.25 11.77 12.4.61 32.13-11.43V5.38c0-1.4-1.14-2.53-2.53-2.53z"/><path fill="none" stroke="#444" stroke-linecap="round" stroke-linejoin="round" stroke-miterlimit="10" stroke-width="2.5" d="M32.06 48.29H5.05c-1.87 0-3.39-1.58-3.39-3.54V5.84c0-1.95 1.52-3.54 3.39-3.54h39.01c1.87 0 3.39 1.58 3.39 3.54v32.47"/><circle cx="8.56" cy="11.49" r="1.7" class="st2"/><circle cx="16.56" cy="11.49" r="1.7" class="st2"/><circle cx="24.56" cy="11.49" r="1.7" class="st2"/><circle cx="32.56" cy="11.49" r="1.7" class="st2"/><circle cx="40.56" cy="11.49" r="1.7" class="st2"/><circle cx="8.56" cy="18.59" r="1.7" class="st2"/><circle cx="16.56" cy="18.59" r="1.7" class="st2"/><circle cx="24.56" cy="18.59" r="1.7" class="st2"/><circle cx="32.56" cy="18.59" r="1.7" class="st2"/><circle cx="40.56" cy="18.59" r="1.7" class="st2"/><circle cx="24.56" cy="25.59" r="1.7" class="st2"/><circle cx="32.56" cy="25.59" r="1.7" class="st2"/><circle cx="40.56" cy="25.59" r="1.7" class="st2"/><circle cx="32.56" cy="32.69" r="1.7" class="st2"/><circle cx="40.56" cy="32.69" r="1.7" class="st2"/><path d="M8.26 11.49h8.3l8 7.1h8l8 7" class="st3"/><path d="M8.56 18.59h8l8-7.1h16m-16.2 14.1h8.2l8-7m-8.3 14.1h8.3" class="st3"/></svg>