<svg xmlns="http://www.w3.org/2000/svg" id="Camada_3" x="0" y="0" version="1.1" viewBox="0 0 50 50" xml:space="preserve"><style>.st3,.st4{fill:none;stroke:#444;stroke-linecap:round;stroke-linejoin:round;stroke-miterlimit:10}.st4{stroke-width:.5}</style><path fill="#ff6b6b" d="M33.3 5.7l8.9 5.1 4 6.3L3.9 33.5l.2-13.9c-.1-1.1.3-6 1-6.8l5.3-3.2 13.2-8.2 9.7 4.3z"/><path fill="#e56060" d="M46.4 21.8l-.1.5v1.5l-40 14.4-1.4-1.8-1-1.2-.5-3.1.2-3.9 41-15.7 2 3.3z"/><path fill="none" stroke="#444" stroke-linecap="round" stroke-linejoin="round" stroke-miterlimit="10" stroke-width="2.5" d="M22.3 47.9c1.7 1 3.8 1 5.5 0l15.6-9c1.7-1 2.7-2.8 2.7-4.7v-18c0-2-1-3.8-2.7-4.7l-15.6-9c-1.7-1-3.8-1-5.5 0l-15.6 9C5 12.5 4 14.3 4 16.2v18c0 2 1 3.8 2.7 4.7l3.2 1.8"/><path d="M24.8 40.4h-10c-1.2 0-2.2-1-2.2-2.2V23.6c0-1.2 1-2.2 2.2-2.2h10" class="st3"/><path d="M39.1 23.2v12.5" class="st4"/><path d="M16.4 21.4c0-.4.1-4.5.1-4.9 0-4.9 2.6-9.7 8.3-9.7" class="st3"/><path d="M19.1 21.4v-3.7c0-4.2 1.1-8.1 5.6-8.1m9.6 11.8h-9.8m0 19h10c.9 0 1.6-.5 2-1.3m-5-28.3c-1.3-2.6-3.3-4-6.9-4m8.3 14.6v-1.2" class="st3"/><path d="M30.2 21.4v-3.7c0-4.2-1.1-8.1-5.6-8.1M46 18.8c-1.1 1.8-2.9 3.2-5 3.8v15.7L38.9 41l-4.8-4.7 2.5-2.8-3.1-2.6 3.1-2.8-3.1-3 2.7-2.7c-3.3-1.1-5.7-4.2-5.7-7.9 0-3.4 2-6.3 4.9-7.6" class="st3"/><circle cx="39" cy="11.4" r="2.4" class="st4"/><path d="M23.3 36.1h3.5L26 31c.9-.4 1.5-1.3 1.5-2.3 0-1.4-1.1-2.5-2.5-2.5s-2.5 1.1-2.5 2.5c0 1 .6 1.9 1.5 2.3l-.7 5.1z" class="st4"/></svg>