<svg xmlns="http://www.w3.org/2000/svg" id="Camada_3" x="0" y="0" version="1.1" viewBox="0 0 50 50" xml:space="preserve"><style>.st2{fill:none;stroke:#444;stroke-width:.25;stroke-linecap:round;stroke-linejoin:round;stroke-miterlimit:10}</style><path fill="#81cad2" d="M23.09 4.27L11.75 9.8l-6.8 11.6L43.76 7.6z"/><path fill="#72babf" d="M1.25 28.49l2.11 5.48L13.6 42.6 47 30.71l.44-19.02c-.16-1.46-3.14-4.29-4.53-3.8L6.21 20.96c-1.11.39-4.85 6.36-4.96 7.53z"/><path d="M31.97 23.79l7-3.9L20.11 6.46l-6.51 3.5" class="st2"/><path d="M31.56 25.58L21.2 43.43a3.419 3.419 0 01-5.33.75L3.38 32.15a3.414 3.414 0 01-.62-4.11l9.18-16.67c.91-1.65 3.08-2.1 4.57-.93l14.3 11.21c1.19.93 1.52 2.61.75 3.93z" class="st2"/><path d="M19.85 44.73l8.02-3.45 11.1-21.39 7.55-3.52" class="st2"/><path d="M5.37 23.28l18.54 15.48 7.53-4.34" class="st2"/><path d="M25.56 10.58l-5.38 2.84L7.35 35.97m6.25 6.02l13.1-23.56 5.74-3.19" class="st2"/><path d="M34.92 27.7l-6.52 3.32L9.56 15.68m23.75 15.13l2.32.55 10.89-5.74m0-13.04c0-2.07-1.52-3.83-3.57-4.12L24.42 5.83a5.69 5.69 0 00-2.32.15l-1.39.47m6.12 4.8l8.8 1.71v4.56m9.5-8.04l-9.5 3.48m3.34-5.06l-9.75 3.8m1.67-4.95l-6.55 2.73" class="st2"/><path d="M41.98 35.36l-.08-24.7L21.7 7.6" class="st2"/><path fill="none" stroke="#444" stroke-linecap="round" stroke-linejoin="round" stroke-miterlimit="10" stroke-width="2.5" d="M40.73 39.37c-2.84 1.62-5.81 3.32-5.81 3.32l-5.46-1.88-.24.98-8.74 4.05c-.99.44-1.64.6-2.71.4-1.24-.22-2.82-.84-4.17-2.4L2.44 33.08c-.13-.12-.24-.26-.33-.41l-.01-.02a5.654 5.654 0 01-.17-5.64l8.13-15.07a7.726 7.726 0 012.29-2.63c.56-.4 1.29-.88 2.21-1.42l5.45-2.83.71.32c1.46-.4.98-.91 5.99-.62l.12.02c3.21.45 11.97 1.95 15.52 2.56 2.73.47 4.93 2.61 5.31 5.35.06.4.09.83.09 1.3v17.17"/><path d="M35.63 26.33v15.28" class="st2"/></svg>