<svg xmlns="http://www.w3.org/2000/svg" id="Camada_1" x="0" y="0" version="1.1" viewBox="0 0 50 50" xml:space="preserve"><style>.st2{fill:#031326}</style><path fill="#a475ef" d="M32.2 21.2l6.8 3.7L8.7 38.7l-6.8-3 .2-7 .5-4.2 30.6-11.3-.8 3z"/><path fill="#bf94f7" d="M2.9 18l-.2 8.6 30-12.6.1-6.1-3.8-.7z"/><g id="_x30_27---Lego"><g id="Layer_2_1_" transform="translate(0 -1)"><path id="Shape_16_" d="M17.4 8.3c-2.4 0-4.1 1.1-4.1 2.5s1.8 2.5 4.1 2.5 4.1-1.1 4.1-2.5-1.7-2.5-4.1-2.5zm0 3.2c-1.5 0-2.2-.6-2.3-.6 0-.1.8-.7 2.3-.7 1.5 0 2.2.6 2.2.6 0 .1-.7.7-2.2.7z" class="st2"/><path id="Shape_17_" d="M32.6 28.3c-2.4 0-4.1 1.1-4.1 2.5 0 1.5 1.8 2.5 4.1 2.5 2.4 0 4.2-1.1 4.2-2.5-.1-1.4-1.9-2.5-4.2-2.5zm0 3.2c-1.5 0-2.2-.5-2.2-.6 0-.1.8-.7 2.2-.7 1.5 0 2.2.5 2.2.6 0 .1-.7.7-2.2.7z" class="st2"/><g id="Shape_18_"><path d="M16.4 30.1h-.1l.4.2c-.1-.2-.2-.2-.3-.2zm14.7 6.1zm-.2-.1c0 .1 0 .1 0 0zm-.5-.2c0 .1 0 .1 0 0 0 .1 0 0 0 0zm-.3-.1zm-.5-.2zm-.2-.1c0 .1.1.1 0 0 .1.1.1.1 0 0 .1.1.1.1 0 0 .1.1.1.1 0 0zm0 0zm1.6.7s.1 0 0 0c.1 0 0 0 0 0zm0 0zm-.1 0zm.2 0zm-.1 0s.1 0 0 0c.1 0 0 0 0 0zm0 0zm-.1-.1c0 .1 0 .1 0 0zm.2.1zm-.1 0s.1 0 0 0c.1 0 0 0 0 0zm0 0zm-.1 0zm0-.1c0 .1 0 .1 0 0zm-.2 0c.1 0 .1 0 0 0 .1 0 .1 0 0 0zm0 0zm-.3-.2c0 .1 0 .1 0 0 0 .1 0 0 0 0zm-.3-.1zm-.5-.2zm-.2-.1c0 .1.1.1 0 0 .1.1.1.1 0 0 .1.1.1.1 0 0 .1.1.1.1 0 0zm0 0z" class="st2"/><path d="M48.1 28.7l-4.4-1.8c-.5-1.1-2.1-1.8-4-1.8h-.2c-.1 0-.1 0-1.2-.5-.4-.2-1-.4-1.7-.7-.3-1-1.5-1.8-3.1-2v-6.8c0-6 0-6-.2-6.2-.1-.1-.1-.1-1.1-.5-.6-.3-1.7-.7-3.5-1.5-.5-1.1-2.1-1.8-4-1.8h-.2c-.1 0-.1 0-1.2-.5-.4-.2-1-.4-1.7-.7-.4-1.4-2.3-2-4.1-2-1.7 0-3.6.6-4 2-.7.3-1.3.6-1.7.7-1.1.5-1.1.5-1.2.5h-.2c-1.9 0-3.5.7-4 1.8-1.3.5-2.1.8-2.7 1.1-2 .8-2 .8-2.1 1v.1c-.3.2-.3.2-.3 11.6v15.7c0 .5.4 1 .9 1s.9-.4.9-1V24.6c2.1.9 4.1 1.7 5.9 2.5 0 0 .3.1.8.3.2.1.3.1.5.2L29 35.5c.3.1.6.3.9.4.5.2 1.1.5 1.7.7v11.1L8.5 38c-.5-.1-.9.1-1.1.6-.2.4 0 .9.4 1.2 6.6 2.8 8.6 3.6 9.2 3.8 0 0 .1 0 .1.1 6.7 2.8 10.5 4.4 12.6 5.3 1.2.5 1.9.8 2.3.9h.1s.1.1.2.1c.1.1.2.1.4.1.1 0 .2 0 .4-.1 15.3-6.2 15.4-6.4 15.6-6.7.1-.1.2-.3.2-.5V29.9c-.1-.5-.3-1-.8-1.2zM39.8 27c1.5 0 2.2.5 2.2.6 0 .1-.8.7-2.2.7-1.5 0-2.2-.5-2.2-.6 0-.2.7-.7 2.2-.7zm-7.2-3.2c1.4 0 2.1.5 2.2.7-.1.1-.8.6-2.2.6-1.5 0-2.2-.5-2.2-.6 0-.2.7-.7 2.2-.7zM24.6 7c1.5 0 2.2.5 2.2.6 0 .1-.8.7-2.2.7-1.5 0-2.2-.5-2.2-.6 0-.2.7-.7 2.2-.7zm-7.2-3.2c1.5 0 2.2.5 2.2.6 0 .1-.8.7-2.2.7-1.5 0-2.2-.5-2.3-.6.1-.1.8-.7 2.3-.7zM10.2 7c1.5 0 2.2.5 2.2.6 0 .1-.8.7-2.2.7-1.5 0-2.2-.6-2.2-.6 0-.2.7-.7 2.2-.7zm-7 15.6V11.1l13.3 5.6v11.5L3.2 22.6zM16.3 30h.1c.1 0 .2.1.3.1l-.4-.1zM4.7 9.6l1.9-.8c1 1 2.3 1.5 3.7 1.3 2.6 0 3.8-1.1 4.1-2.1.2-.8-.1-1.6-.9-2.1l.5-.2c.6.8 1.9 1.3 3.4 1.3s2.8-.5 3.5-1.2l.5.2c-.8.6-1.1 1.3-.9 2.1.3 1 1.7 2.1 4.1 2.1 1.4.1 2.7-.4 3.7-1.3l1.9.8L17.4 15 4.7 9.6zm13.7 7.1l13.3-5.6v10.8c-1.6.2-2.8 1-3.1 2-.8.4-1.4.6-1.8.8-1 .4-1 .4-1.1.4h-.2c-1.9 0-3.5.7-4 1.8l-3.1 1.3V16.7zm9.2 10.9c-.1.1-.8.6-2.2.6-1.5 0-2.2-.5-2.2-.6 0-.1.8-.7 2.2-.7 1.4.1 2.1.6 2.2.7zm-3.8 5.6l-.5-.2c.4.2.8.3 1.2.5-.3-.1-.5-.2-.7-.3zm4 1.7zm.3.1h.2c-.1.1-.1 0-.2 0zm.6.2zm.4.2c-.1 0-.1 0 0 0-.1 0-.1 0 0 0zm.4.2c-.1 0-.1 0 0 0-.1 0-.1-.1-.1-.1h-.1.1l.1.1zm.1 0zm.5.3c0-.1 0-.1 0 0 0-.1 0-.1 0 0 .1-.1.1-.1 0 0 .1 0 .1 0 0 0zm.3.1c0-.1 0-.1 0 0-.1-.1 0-.1 0 0 0-.1 0 0 0 0zm.2.1c0-.1 0 0 0 0 .1 0 .1 0 0 0zm.1 0c.1 0 .1 0 0 0 .1 0 .1 0 0 0zm.1 0zm.1.1c0-.1 0-.1 0 0 0-.1 0-.1 0 0zm.1 0s.1 0 0 0c.1 0 0 0 0 0zm.1.1c0-.1 0-.1 0 0 0-.1 0-.1 0 0 0-.1 0-.1 0 0 0-.1 0-.1 0 0zm0 0zm.2 0zm.1.1c-.1 0-.1-.1 0 0-.1 0-.1 0 0 0s.1 0 0 0zm.1 0c.1 0 .1 0 0 0 .1 0 .1 0 0 0 .1.1.1.1 0 0 .1 0 .1 0 0 0zm.3.1zm.8-1.5l-12.7-5.4 1.9-.8c1.1 1.4 3.9 1.6 5.8 1 1.3-.4 2-1.2 2-2.2 0-.7-.4-1.3-1-1.7l.4-.2c.7.8 2.1 1.2 3.6 1.2s2.8-.5 3.5-1.2l.4.2c-.5.4-.9 1-.9 1.7 0 1 .7 1.8 2 2.2 1.9.6 4.6.4 5.8-1l1.9.8L32.6 35zm14.2 7.2l-13.3 5.6V36.6L46.8 31v11.2z" class="st2"/><path d="M28.3 35.1c-.1 0-.1 0-.2-.1.1 0 .1 0 .2.1 0-.1 0 0 0 0zm2.4 1c-.1 0-.1 0 0 0-.1-.1-.1 0 0 0zm.1 0c-.1 0-.1 0 0 0-.1 0-.1 0 0 0zm.1 0c-.1 0-.1 0 0 0zm0 0zm0 .1c0-.1 0-.1 0 0z" class="st2"/><path d="M16.4 30.1h-.1l.4.2c-.1-.2-.2-.2-.3-.2zm13.1 5.5zm0 0zm-.8-.4zm-.5-.2h-.1c.1 0 .1.1.1 0 .1.1.1 0 0 0zm-.4-.1zM23.3 33l.5.2c.2.1.5.2.7.3-.5-.2-.8-.4-1.2-.5zm8.3 3.4h-.1.1c0 .1 0 .1 0 0zm-.1 0c-.1 0-.1 0 0 0-.1 0-.1 0 0 0h-.1.1c-.1 0-.1 0 0 0zm-.2-.1zm0 0s0 .1 0 0zm-.2-.1zm-.1 0zm-.2-.1zm.1 0c0 .1 0 .1 0 0 0 .1 0 .1 0 0zm-.2 0zm-.1-.1c0 .1 0 .1 0 0 .1.1.1.1 0 0 0 .1 0 0 0 0zm-.2-.1s-.1 0 0 0zm-.3-.1c.1.1.1.1 0 0 .1 0 .1 0 0 0zm-.5-.2zm-.1 0zm0 0zm-.1-.1c0 .1 0 .1 0 0 .1.1 0 .1 0 0zm0 0c-.1 0-.1 0 0 0zm-.4-.1zm2.3.9s0 .1 0 0zm-.2 0zm0-.1zm0 0zm-.7-.3s-.1 0 0 0zm.6.3s.1 0 0 0c.1 0 0 0 0 0zm.1 0zm0 .1zm-.2-.2c0 .1 0 .1 0 0zm.1.1s.1 0 0 0c.1 0 0 0 0 0zm0 0zm.8.3z" class="st2"/></g><path id="Shape_19_" d="M30.3 44.8c-.1.4-.5.6-.9.6-.1 0-.3 0-.4-.1l-17.6-7.6c-.5-.2-.7-.8-.5-1.3.2-.5.8-.7 1.2-.5l17.6 7.6c.2.1.4.3.5.5.2.3.2.5.1.8z" class="st2"/><path id="Shape_20_" d="M8.8 34.9c0 .3-.1.7-.4.9-.2.1-.4.2-.6.2-.1 0-.3 0-.4-.1l-2.4-1c-.5-.2-.7-.8-.5-1.2.1-.2.3-.4.5-.5.2-.1.5-.1.7 0l2.4 1c.4.1.6.4.7.7z" class="st2"/></g></g></svg>