<svg xmlns="http://www.w3.org/2000/svg" id="Layer_1" data-name="Layer 1" viewBox="0 0 50 50"><defs><style>.cls-3{fill:#494949}</style></defs><path fill="#00c8e2" d="M45.6 23L42 24.3l-.7.3-15.7 5.7-1 .4L8 36.8A20.17 20.17 0 014.3 25a20.9 20.9 0 01.1-2.5c0-.2.1-.4.1-.7l9.7-3.5 2.3-.8 22.1-8.1c.2.1.3.3.5.4A20.85 20.85 0 0145.6 23z"/><path fill="#00dffc" d="M39.1 9.8L16.8 18l-2.4.9-9.9 3.6c0-.2.1-.4.1-.7a20.65 20.65 0 0134-12.4 2.18 2.18 0 01.5.4z"/><path d="M32.9 18.9a9.1 9.1 0 01-12.4 3.3c-.1 0-.1-.1-.2-.1a8.2 8.2 0 01-2-1.7A9 9 0 0116 14v-.5a9.25 9.25 0 01.4-1.9c.1-.2.2-.5.4-1 .1-.2.1-.3.2-.4a4.85 4.85 0 01.9-1.3l.6-.6.6-.6a6.82 6.82 0 01.7-.5L20 7a.35.35 0 00.2-.1 11.1 11.1 0 00-5 14.7c0 .1.1.2.1.3h1a9.21 9.21 0 018.1 7.6 8.16 8.16 0 010 2.7 8.84 8.84 0 01-2.1 4.6 7.1 7.1 0 01-2.3 1.9 9.22 9.22 0 01-5.6 1.2 4.25 4.25 0 01-1.1-.2 6.37 6.37 0 00-.7-.2 15.83 15.83 0 003.1.9 15 15 0 003 0 11.83 11.83 0 004.9-2 10.62 10.62 0 002.7-2.9.1.1 0 01.1-.1c.1 0 0-.1 0-.1s-.1-.1-.1-.2-.1-.1-.1-.2-.2-.5-.3-.7a8.33 8.33 0 01-.4-1.5 9.7 9.7 0 010-3.4 8.8 8.8 0 011-2.7 9.76 9.76 0 015.4-4.4 11.34 11.34 0 013.2-.3 5.85 5.85 0 011 .1c.3.1.6.1.8.2s.7.2 1.2.4l.6.3a7.46 7.46 0 011.2.7 6.42 6.42 0 011.3 1.2 5.94 5.94 0 01.8 1.1l.7 1.1.3.6a2.57 2.57 0 00.2.5c.2.4.2.6.2.5a12.22 12.22 0 00-2.3-5.5 10.34 10.34 0 00-3.4-2.8 15.82 15.82 0 00-4.8-1.4z" class="cls-3"/><path d="M25 4.3a20.42 20.42 0 0113.6 5.1c.2.1.3.3.5.4A20.85 20.85 0 0145.6 23a13.4 13.4 0 01.1 2A20.7 20.7 0 018 36.8 20.17 20.17 0 014.3 25a20.9 20.9 0 01.1-2.5c0-.2.1-.4.1-.7A20.69 20.69 0 0125 4.3m0-2.5A23.49 23.49 0 002 21.5a1.7 1.7 0 01-.1.7 25.28 25.28 0 00-.1 2.8 23.2 23.2 0 0046.4 0 17 17 0 00-.1-2.2A22.83 22.83 0 0040.8 8a2.65 2.65 0 00-.6-.5A23 23 0 0025 1.8z" class="cls-3"/></svg>