<svg xmlns="http://www.w3.org/2000/svg" id="Layer_1" x="0" y="0" version="1.1" viewBox="0 0 50 50" xml:space="preserve"><style>.st2{fill:#494949}</style><path fill="#a6c1c2" d="M45.6 23L42 24.3l-.7.3-15.7 5.7-1 .4L8 36.8C5.6 33.4 4.3 29.4 4.3 25c0-.8 0-1.7.1-2.5 0-.2.1-.4.1-.7l9.7-3.5 2.3-.8 22.1-8.1c.2.1.3.3.5.4 3.6 3.4 6 8 6.5 13.2z"/><path fill="#b9d7d9" d="M39.1 9.8L16.8 18l-2.4.9-9.9 3.6c0-.2.1-.4.1-.7C6 11.9 14.6 4.3 25 4.3c5.2 0 10 1.9 13.6 5.1.2.1.4.3.5.4z"/><path d="M32.9 18.9c-2.5 4.3-8 5.8-12.4 3.3-.1 0-.1-.1-.2-.1-.8-.5-1.4-1-2-1.7-1.6-1.8-2.4-4.1-2.3-6.4v-.5c0-.4.2-1.2.4-1.9.1-.2.2-.5.4-1 .1-.2.1-.3.2-.4.3-.6.6-1 .9-1.3l.6-.6.6-.6c.1-.1.4-.3.7-.5L20 7c.1 0 .2-.1.2-.1-5.4 2.7-7.6 9.3-5 14.7 0 .1.1.2.1.3h1c3.6.2 7.6 3.5 8.1 7.6.1.9.2 1.8 0 2.7-.2 1.7-1 3.3-2.1 4.6-.6.8-1.4 1.4-2.3 1.9-1.7 1-3.7 1.4-5.6 1.2-.4 0-.7-.1-1.1-.2-.2-.1-.4-.1-.7-.2 1 .4 2 .7 3.1.9 1 .1 2 .1 3 0 1.8-.3 3.5-1 4.9-2 1.1-.8 2-1.8 2.7-2.9 0 0 0-.1.1-.1s0-.1 0-.1c0-.1-.1-.1-.1-.2s-.1-.1-.1-.2c-.1-.2-.2-.5-.3-.7-.2-.5-.3-1-.4-1.5-.2-1.1-.2-2.2 0-3.4.2-.9.5-1.9 1-2.7.2-.3 2-3.5 5.4-4.4 0 0 1.5-.4 3.2-.3.5 0 1 .1 1 .1.3.1.6.1.8.2.3.1.7.2 1.2.4l.6.3c.4.2.8.4 1.2.7.3.2.8.6 1.3 1.2.4.4.6.8.8 1.1l.7 1.1.3.6c.1.3.1.3.2.5.2.4.2.6.2.5-.3-2-1.1-3.9-2.3-5.5s-2.7-2.4-3.4-2.8c-2-.9-3.7-1.3-4.8-1.4z" class="st2" shape-rendering="geometricPrecision"/><path d="M25 4.3c5.2 0 10 1.9 13.6 5.1.2.1.3.3.5.4 3.6 3.4 6 8 6.5 13.2.1.7.1 1.3.1 2 0 11.5-9.3 20.7-20.7 20.7-7.1 0-13.3-3.5-17-8.9-2.4-3.4-3.7-7.4-3.7-11.8 0-.8 0-1.7.1-2.5 0-.2.1-.4.1-.7C6 11.9 14.6 4.3 25 4.3m0-2.5c-11.4 0-21.2 8.5-23 19.7 0 .2 0 .5-.1.7-.1.9-.1 1.8-.1 2.8 0 4.7 1.4 9.3 4.1 13.2 4.3 6.3 11.5 10 19.1 10 12.8 0 23.2-10.4 23.2-23.2 0-.7 0-1.4-.1-2.2-.5-5.7-3.1-10.9-7.3-14.8-.2-.2-.4-.4-.6-.5C36 3.8 30.6 1.8 25 1.8z" class="st2"/></svg>