<svg xmlns="http://www.w3.org/2000/svg" id="Layer_1" x="0" y="0" version="1.1" viewBox="0 0 50 50" xml:space="preserve"><style>.st3{fill:#444}.st5{fill:#494949}</style><path fill="#dc5e82" d="M47.7 11.6l.8 5.2L2.4 33.6l-.5-10.9-.1-6.2L42.1 1.9l5.2 2.3z"/><path fill="#f56991" d="M46.1 2l2.3 3.2L1.5 21.9 2.6 4.8l3-2.9 29.1-.2z"/><path fill="none" stroke="#444" stroke-linecap="round" stroke-linejoin="round" stroke-miterlimit="10" stroke-width="2.5" d="M18.1 48.3H5.5c-1.9 0-3.4-1.6-3.4-3.5v-39c0-2 1.5-3.5 3.4-3.5h39c1.9 0 3.4 1.6 3.4 3.5v24.6"/><circle cx="8.2" cy="8.2" r="1.4" class="st3"/><circle cx="12.1" cy="8.2" r="1.4" class="st3"/><circle cx="15.9" cy="8.2" r="1.4" class="st3"/><path fill="none" stroke="#494949" stroke-linecap="round" stroke-linejoin="round" stroke-miterlimit="10" d="M31 44c0 2 2 3.7 4.4 3.7s4.4-1.6 4.4-3.7H31zm-2.9-3.8v2.7h14.7v-2.7H28.1zm13.6-4.7s-.7.2-1.7.4c.9-1.1 1.5-2.4 1.5-3.9 0-2.2-.5-3.3-1.4-4.8-.2-.4-.5-1-.7-1.7-.1-.2-.1-.3-.1-.5-.1-.7-.1-1.5.2-2.2-.7.5-1.2 1.6-1.5 2.7 0 .2-.1.4-.1.6-.3 1.3-.4 2.8-.5 4-.2-1-.2-2.5-.5-3.6 0-.2-.1-.4-.1-.5h0c-.9-3-2-4.1-1.2-5.5-1 .1-1.9 1.7-1.9 3.2 0 1-.2 2.5-.7 3.8-.1.2-.2.5-.3.6-.1.2-.2.3-.3.5v-.8c-.2-2.2-1-3.5-1.7-3.6.5 1.3-.1 2.8-.7 4.5-.1.2-.2.4-.2.6-.3.9-.6 1.9-.6 3 0 1.4.5 2.8 1.5 3.9-1-.2-1.6-.3-1.6-.3-1.3-.3-3.1-.7-3.1-.7.3 1 .7 1.9 2.2 3.7 0 .1.1.1.1.2h14.6c.4-.4.7-.8 1-1.2 1.1-1.5 1.4-2.8 1.4-2.8l-3.6.4z"/><path d="M29.1 23.8c-.2 0-.5-.1-.8-.1-.3 0-2-.2-3.3.7-.4.2-.9.7-1.4 1.2-.4.5-.7 1-.9 1.5-.3.6-.3 1.2-.3 1.6 0 .6-.1 1.3.2 2.1.2.4.4.7.5.8.3.4.6.7 1 .9.4.3.8.4 1.1.5 0 0 1 .3 2 0 .2 0 .3-.1.3-.1.3-.1.5-.2.6-.3l.1-.1s.1-.1.1-.2 0-.2-.1-.3l-.1-.1h-.2c-.3.1-.9.3-1.5.2-.4 0-.7-.2-.8-.2-.1 0-.4-.2-.8-.5 0 0-.4-.3-.6-.7-.5-.8-.6-2 0-3.1.5-1 1.5-1.4 1.8-1.5.5-.2 1-.3 1.2-.3h.9c.3 0 .5.1.6.1.1 0 .3.1.4.1.3-.8.3-1.6.1-2.2h-.1z" class="st5"/><path d="M33.4 20c.4-1.5-.5-2.8-.5-2.8-1.5-.1-2.4.4-2.7.7-.4-.2-.7-.3-1-.4l-1.2-.3c-.2 0-.4-.1-.5-.1-.6-2-2.5-2.9-2.5-2.9-2 1.3-2.4 3.1-2.4 3.1-.4.2-.9.4-1.3.6-.7.3-1.3.7-1.8 1h-.1c-2.8-1.1-5.3.2-5.3.2-.2 3 1.1 4.9 1.4 5.2-.1.2-.1.4-.2.6-.2.7-.4 1.4-.5 2.1v.3c-2.6 1.3-3.4 3.9-3.4 3.9 2.2 2.5 4.7 2.7 4.7 2.7.3.6.7 1.1 1.1 1.6l.6.6c-.8 2.3.1 4.2.1 4.2 2.4.1 4-1.1 4.3-1.3.2.1.5.2.7.2.8.2 1.5.3 2.3.3h1c.1-.2.2-.4.3-.5-1.1-1.4-1.7-2.3-2-3.1-.2 0-.4-.1-.6-.2-.5-.1-1-.3-1.5-.6-.9-.5-1.7-1.2-2.4-2-.3-.4-.6-.8-.8-1.3s-.4-.9-.5-1.4c-.1-.5-.2-1-.2-1.5 0-.9.1-1.8.3-2.8 0-.1.1-.3.1-.4.1-.5.3-1 .5-1.4.3-.5.7-1.5 1.6-2.4.5-.4.9-.7 1.1-.9.5-.3.9-.5 1.2-.7.8-.4 1.6-.6 2.5-.6 1.3 0 2.3.2 3.1.3.6.1 1.4.3 2.3.8.7.3 1.2.7 1.5 1 .3-.6.6-1.2 1.1-1.6-.1-.1-.3-.1-.4-.2z" class="st5"/></svg>