<svg xmlns="http://www.w3.org/2000/svg" version="1.0" viewBox="0 0 50 50"><path fill="#AFE55D" d="M46.95 28.383v.294L14.944 40.325 3.055 36.211v-7.864l6.688-2.279V14.811l4.774-1.62v-1.47L30.742 6.2l5.699 1.941v6.127l4.809 1.639v10.526z"/><path fill="#C3FF68" d="M36.441 8.141v4.106L9.743 21.962v-7.151l4.774-1.62v-1.47L30.742 6.2z"/><path fill="#031326" d="M47.354 27.202l-4.775-1.636V15.038l-4.888-1.662V7.248l-6.948-2.369-17.605 5.979v1.464l-4.8 1.6v11.27L1.805 27.46v9.642l22.785 7.883a1.25 1.25 0 00.818-2.364l-.28-.097v-6.306l20.369-7.01 1.048.359a1.25 1.25 0 10.809-2.365zm-22.351-5.51l-4.344-1.501 14.652-4.985 4.367 1.485-14.675 5.001zm10.188-6.709L20.38 20.022v-5.778l14.811-5.048v5.787zm-.155-5.998l-14.78 5.037-4.292-1.483 14.775-5.018 4.297 1.464zm-19.635 5.218v2.821l-4.154-1.436 4.154-1.385zm-4.464 1.543l4.464 1.543v13.094l-4.464-1.545V15.746zm4.718 1.432c-.002-.01.001-.021-.004-.03v-4.453l4.479 1.548v17.781l-4.464-1.545V17.205c0-.011-.009-.017-.011-.027zm4.743 3.188l4.479 1.548v11.748l-4.479-1.551V20.366zm4.729 1.548l14.917-5.085v11.746l-14.917 5.087V21.914zM4.333 35.33v-6.101l.165-.057 20.379 7.047v6.219L4.333 35.33zm20.669.668L4.881 29.04l5.806-2.015v1.903c0 .01.009.017.011.026a.105.105 0 00.052.072c.008.005.012.016.021.019l4.705 1.628c.004.002.005.007.009.008l4.729 1.637a.143.143 0 00.035.006l4.712 1.631.041.014 15.208-5.186c.01-.003.013-.013.021-.018a.108.108 0 00.036-.031c.01-.013.013-.026.017-.042.002-.01.011-.016.011-.027v-1.24l4.816 1.651-20.109 6.922z"/></svg>