<svg xmlns="http://www.w3.org/2000/svg" id="Camada_1" x="0" y="0" version="1.1" viewBox="0 0 50 51" xml:space="preserve"><style>.st2{fill:#031326}</style><path fill="#00c8e2" d="M43.8 27.8c0 1.3 0 2.7-.2 3.9l-1.4.7-3.7 1.4-2.6.9-7.4 2.7-5.9 2.2-5.6 2.1-2.6.9-3.8 1.4-1.3.1c-2.5-2.1-4.8-4-6.2-7-.1-.1-.1-.3-.1-.3l1.2-.6 3-1.1 1.8-.7 3-1.1 1.8-.7 3-1.1 1.9-.7 8.5-3.1 1.9-.7 3-1.1 1.8-.7 3-1.1 1.8-.7 3-1.1 1.8-.7c0 .1.1.2.1.4.7 1.8.2 3.8.2 5.8z"/><path fill="#00dffc" d="M48.6 8.4L45 12.1c-.7.7-1.2 1.2-2.2 1.2l-.2.1-4.6-.2c1.9 2.3 3.6 5.4 4.5 8.3 0 .1.3.6.4.7l-.9.4-3 1.1-1.8.7-3 1.1-1.8.7-3.1 1.1-2 .7-8.3 3-2 .7-3 1.2-1.8.7-3 1.1-1.8.7-3 1.1-1.4.2c0-.1.1-.3.1-.4-1.3-2.8-1.9-5.2-1.9-8.5 0-1.7.2-2.9.6-4.5L3.2 22l3.9-1.4 2.8-1L27 13.4l2.8-1 3.9-1.4 1.9-.4c.2.1.6.1.7.2l.9-.4.6-.7.1 1.1 2-1.4L46.1 7l2.4-.1c.2 0 .5 0 .6.1l-.1.5c.2.6-.2.7-.4.9z"/><path d="M13.1 15.8c-.4 0-.8-.2-.9-.6-.1-.4 0-.8.3-1.1s.8-.3 1.1-.1c.4.2.5.6.5 1-.2.5-.6.8-1 .8zm17.7 19.9c-.4 0-.8-.3-.9-.6-.1-.4 0-.8.3-1.1s.8-.3 1.1-.1c.3.2.5.6.5 1-.1.5-.5.8-1 .8z" class="st2"/><path d="M39 23.7l-1.8.7c.2 1.1.4 2.2.4 3.4 0 2.5-.6 4.9-1.7 6.9-2.5 4.8-7.5 8.1-13.3 8.1-2 0-3.9-.4-5.6-1.1-3.4-1.4-6.1-3.9-7.8-7.1-.2-.1-.2-.1-.2-.2-1-2-1.5-4.2-1.5-6.6 0-2.9.8-5.7 2.4-8.1.1-.2.3-.5.5-.7.3-.4.2-1.1-.2-1.4s-1-.2-1.3.2c-.7.9-1.2 1.9-1.7 2.8-1.1 2.2-1.6 4.7-1.6 7.2 0 2.6.6 5.1 1.6 7.3 0 .1.1.2.1.2 1.5 3.1 4 5.7 7 7.4 2.4 1.3 5.2 2.1 8.2 2.1 7.2 0 13.5-4.6 15.9-11 .7-1.9 1.1-3.9 1.1-6-.1-1.4-.2-2.8-.5-4.1zm-3.2 11c-2.5 4.8-7.5 8.1-13.3 8.1-2 0-3.9-.4-5.6-1.1-3.4-1.4-6.1-3.9-7.8-7.1-.1-.1-.1-.1-.1-.2-1-2-1.5-4.2-1.5-6.6 0-2.9.8-5.7 2.4-8.1.1-.2.3-.5.5-.7.3-.4.2-1.1-.2-1.4s-1-.2-1.3.2c-.7.9-1.2 1.9-1.7 2.8-1.1 2.2-1.6 4.7-1.6 7.2 0 2.6.6 5.1 1.6 7.3 0 .1.1.2.1.2 1.5 3.1 4 5.7 7 7.4 2.4 1.3 5.2 2.1 8.2 2.1 7.2 0 13.5-4.6 15.9-11l-2.6.9zM10.1 17.6c-.4-.3-1-.2-1.3.2-.7.9-1.2 1.9-1.7 2.8l2.8-1c.1-.2.3-.5.5-.7.2-.4.1-1-.3-1.3zM49.9 7.5c0-.1 0-.1 0 0-.1-.3-.2-.4-.3-.5s-.3-.2-.5-.2l-2.8-.2-2.5-.2-.5-5.4c0-.4-.3-.7-.6-.8-.4-.1-.8 0-1 .2l-4.2 4.2c-.7.7-1.1 1.6-1.1 2.6v3.3c-.1-.1-.3-.2-.4-.3-3.7-2.9-8.4-4.6-13.4-4.6C12 5.7 3.2 13 .9 22.8c-.4 1.6-.6 3.3-.6 5 0 3.2.7 6.3 2 9.1 0 .1.1.2.1.2 1.4 3 3.5 5.7 6 7.8 3.8 3.2 8.7 5 14 5 10.9 0 19.9-7.9 21.8-18.3.2-1.2.3-2.5.3-3.8 0-2-.3-4-.8-5.8 0-.1-.1-.2-.1-.4-.9-2.9-2.3-5.6-4.2-7.9l3.2.1h.1c1 0 1.9-.4 2.6-1.1l4.2-4.2c.4-.3.5-.7.4-1zm-8 14.8c0 .1.1.2.1.4.4 1.6.7 3.3.7 5.1 0 1.6-.2 3.1-.6 4.6C40 41.3 32 47.9 22.5 47.9c-4.4 0-8.5-1.4-11.9-3.9-2.7-2-4.9-4.6-6.3-7.6 0-.1-.1-.2-.1-.2-1.2-2.6-1.8-5.4-1.8-8.4 0-2 .3-3.9.8-5.8C5.6 13.7 13.4 7.6 22.5 7.6c4.2 0 8 1.3 11.2 3.4.8.5 1.5 1.1 2.2 1.7L33.7 15c-1.2-1-2.5-1.9-3.9-2.6-2.2-1.1-4.7-1.7-7.3-1.7-2 0-3.9.3-5.8 1-.5.3-.7.8-.6 1.3.2.5.7.8 1.2.6 1.6-.6 3.3-.9 5.1-.9 1.6 0 3.1.2 4.5.7 2 .6 3.8 1.6 5.3 2.9L30 18.6c-2.1-1.7-4.7-2.7-7.6-2.7-6.5 0-11.9 5.3-11.9 11.9 0 2 .5 3.9 1.4 5.5 0 .1.1.2.1.2 2 3.6 5.9 6.1 10.4 6.1 1.9 0 3.7-.4 5.3-1.3.3-.2.5-.5.5-.9 0-.2 0-.3-.1-.4-.2-.5-.8-.7-1.3-.4-1.4.7-2.9 1.1-4.5 1.1-3.6 0-6.8-1.9-8.5-4.8 0-.1-.1-.2-.1-.2-.8-1.4-1.3-3.1-1.3-4.8 0-5.5 4.4-9.9 9.9-9.9 2.3 0 4.5.8 6.2 2.2l-2.3 2.3c-1.1-.8-2.5-1.3-3.9-1.3-3.7 0-6.7 3-6.7 6.7 0 1.4.4 2.7 1.1 3.7.1.1.1.2.2.2 1.2 1.7 3.2 2.8 5.4 2.8 3.7 0 6.7-3 6.7-6.7v-.8c-.1-1.2-.6-2.4-1.4-3.3l2.3-2.2c1.1 1.3 1.8 2.8 2.1 4.5 0 .1 0 .2.1.4.1.5.1 1 .1 1.6 0 1.1-.2 2.1-.5 3.1-.2.5.1 1.1.6 1.2.5.2 1.1-.1 1.2-.6.4-1.2.6-2.5.6-3.7 0-.8-.1-1.5-.2-2.3 0-.1 0-.2-.1-.3-.4-1.9-1.3-3.7-2.6-5.2l2.2-2.2c1.6 1.8 2.8 3.9 3.4 6.3 0 .1 0 .2.1.4.2 1.1.4 2.2.4 3.4 0 2.5-.6 4.9-1.7 6.9-2.5 4.8-7.5 8.1-13.3 8.1-2 0-3.9-.4-5.6-1.1-3.4-1.4-6.1-3.9-7.8-7.1.1-.5.1-.5.1-.6-1-2-1.5-4.2-1.5-6.6 0-2.9.8-5.7 2.4-8.1.1-.2.3-.5.5-.7.3-.4.2-1.1-.2-1.4s-1-.2-1.3.2c-.7.9-1.2 1.9-1.7 2.8-1.1 2.2-1.6 4.7-1.6 7.2 0 2.6.6 5.1 1.6 7.3 0 .1.1.2.1.2 1.5 3.1 4 5.7 7 7.4 2.4 1.3 5.2 2.1 8.2 2.1 7.2 0 13.5-4.6 15.9-11 .7-1.9 1.1-3.9 1.1-6 0-1.4-.2-2.7-.5-4 0-.1-.1-.2-.1-.3-.7-2.7-2-5.1-3.8-7l2.2-2.3c2.1 2.2 3.7 5 4.6 8.1zm-14.6 5.5v.2c-.1 2.5-2.2 4.6-4.8 4.6-1.4 0-2.6-.6-3.5-1.5l-.2-.2c-.7-.8-1.1-1.9-1.1-3 0-2.6 2.2-4.8 4.8-4.8.9 0 1.8.3 2.5.7l-3.1 3.1c-.4.4-.4 1 0 1.4.2.2.4.3.7.3.2 0 .5-.1.7-.3l3.1-3.1c.5.8.8 1.7.9 2.6zm11-17.4V7.3c0-.5.2-.9.6-1.3l2.7-2.7.3 3.6L40 8.8l-1.7 1.6zm5.7.9c-.4.3-.8.5-1.3.6l-3-.1 1.9-1.9 1.7-1.7 3.6.3-2.9 2.8zm-33.9 6.3c-.4-.3-1-.2-1.3.2-.7.9-1.2 1.9-1.7 2.8l2.8-1c.1-.2.3-.5.5-.7.2-.4.1-1-.3-1.3zM39 23.7l-1.8.7c.2 1.1.4 2.2.4 3.4 0 2.5-.6 4.9-1.7 6.9-2.5 4.8-7.5 8.1-13.3 8.1-2 0-3.9-.4-5.6-1.1-3.4-1.4-6.1-3.9-7.8-7.1-.2-.1-.2-.1-.2-.2-1-2-1.5-4.2-1.5-6.6 0-2.9.8-5.7 2.4-8.1.1-.2.3-.5.5-.7.3-.4.2-1.1-.2-1.4s-1-.2-1.3.2c-.7.9-1.2 1.9-1.7 2.8-1.1 2.2-1.6 4.7-1.6 7.2 0 2.6.6 5.1 1.6 7.3 0 .1.1.2.1.2 1.5 3.1 4 5.7 7 7.4 2.4 1.3 5.2 2.1 8.2 2.1 7.2 0 13.5-4.6 15.9-11 .7-1.9 1.1-3.9 1.1-6-.1-1.4-.2-2.8-.5-4.1zm0 0l-1.8.7c.2 1.1.4 2.2.4 3.4 0 2.5-.6 4.9-1.7 6.9-2.5 4.8-7.5 8.1-13.3 8.1-2 0-3.9-.4-5.6-1.1-3.4-1.4-6.1-3.9-7.8-7.1-.2-.1-.2-.1-.2-.2-1-2-1.5-4.2-1.5-6.6 0-2.9.8-5.7 2.4-8.1.1-.2.3-.5.5-.7.3-.4.2-1.1-.2-1.4s-1-.2-1.3.2c-.7.9-1.2 1.9-1.7 2.8-1.1 2.2-1.6 4.7-1.6 7.2 0 2.6.6 5.1 1.6 7.3 0 .1.1.2.1.2 1.5 3.1 4 5.7 7 7.4 2.4 1.3 5.2 2.1 8.2 2.1 7.2 0 13.5-4.6 15.9-11 .7-1.9 1.1-3.9 1.1-6-.1-1.4-.2-2.8-.5-4.1z" class="st2"/><circle cx="30.8" cy="34.7" r="1" class="st2"/><circle cx="13.1" cy="14.8" r="1" class="st2"/></svg>