<svg xmlns="http://www.w3.org/2000/svg" id="Layer_1" x="0" y="0" version="1.1" viewBox="0 0 50 50" xml:space="preserve"><style>.st2{fill:#031326}</style><path fill="#00c8e2" d="M48.1 26.1l.4 4.3-46.6 17 .1-9.2.4-5.2 46.4-16.9-.7 3.7z"/><path fill="#00dffc" d="M48.1 9.4l-.6 7.7L2 33.7v-9.9l.3-4.4L48.2 2.7z"/><path d="M36.7 49.2H1.9c-.7 0-1.2-.6-1.2-1.2V2.1c0-.7.6-1.3 1.2-1.3H48c.7 0 1.2.6 1.2 1.3V37c0 .7-.6 1.2-1.2 1.2s-1.2-.6-1.2-1.2V3.4H3.1v43.3h33.5c.7 0 1.2.6 1.2 1.2s-.5 1.3-1.1 1.3z" class="st2"/><path d="M38.3 11.8h-3.1V13h1.5l-2.5 2.5-1.5-.8c-.2-.1-.5-.1-.7.1l-4 3.6-1-.7c-.2-.1-.5-.2-.7 0l-.4.2c-1-3.6-4.3-6.1-8.1-6.1-4.6 0-8.4 3.8-8.4 8.4 0 4 2.9 7.5 6.8 8.2v.8h-.8c-.4 0-.6.3-.6.6v1.9c0 .3.2.5.5.6v6.2c0 1.4 1.2 2.6 2.6 2.6 1.4 0 2.6-1.2 2.6-2.6v-6.2c.3-.1.5-.3.5-.6v-1.9c0-.4-.3-.6-.6-.6h-.8v-.8c4-.8 6.8-4.2 6.8-8.2 0-.3 0-.6-.1-1l.4-.2 1.1.8c.2.2.6.1.8-.1l4-3.6 1.6.8c.2.1.5.1.7-.1l2.8-2.8v1.5H39v-3.1c-.1-.4-.4-.6-.7-.6zM19.2 38.6c0 .7-.6 1.3-1.3 1.3-.7 0-1.3-.6-1.3-1.3v-6.2h2.6v6.2zm.5-8.1v.7h-3.6v-.7h3.6zm-2.2-1.3v-.7h.7v.7h-.7zm1.3-2h-1.7c-3.6-.5-6.2-3.5-6.2-7.1 0-3.9 3.2-7.1 7.1-7.1 3.9 0 7.1 3.2 7.1 7.1-.1 3.7-2.8 6.7-6.3 7.1z" class="st2"/><path d="M17.9 13.7c-3.6 0-6.5 2.9-6.5 6.5s2.9 6.5 6.5 6.5 6.5-2.9 6.5-6.5c-.1-3.6-3-6.5-6.5-6.5zm0 11.7c-2.9 0-5.2-2.3-5.2-5.2 0-2.9 2.3-5.2 5.2-5.2 2.6 0 4.8 2 5.2 4.6l-7.1 4 .6 1.1L23 21c-.4 2.5-2.6 4.4-5.1 4.4zm20.4-8.3h-3.9c-.3 0-.6.3-.6.6v4.7h-3.2c-.4 0-.6.3-.6.6v1.8h-3.2c-.4 0-.6.3-.6.6v5.7H23c-.3 0-.6.3-.6.6v8.8c0 .3.3.6.6.6h15.5c.4 0 .6-.3.6-.6V17.7c-.2-.3-.5-.6-.8-.6zM26 39.9h-2.6v-7.5H26v7.5zm3.9 0h-2.6V26.2h2.6v13.7zm3.8 0h-2.6V23.7h2.6v16.2zm3.9 0H35V18.4h2.6v21.5z" class="st2"/></svg>