<svg xmlns="http://www.w3.org/2000/svg" id="Camada_1" x="0" y="0" version="1.1" viewBox="0 0 49 50" xml:space="preserve"><style>.st1,.st2,.st3{fill:none;stroke:#444;stroke-miterlimit:10}.st2,.st3{stroke-linecap:round;stroke-linejoin:round}.st3{stroke-width:.5}.st5{fill:#444}</style><path fill="#ff6b6b" d="M27 6l-5 .7-2.1 4.8c-.2 0-3.7.7-3.9.8l-6.6 4.8c-3.1 0-6.7 1.3-6.7 4.5l-.7 8 5.2 4.1 8.6 6.7c1.3 1 3 1.3 4.5.7l26.4-9.5c.4-.2 2.2-2.1 1.6-7.6-.3-3.3-8.5-8.7-15.6-11.1-5.6-1.9-4-6.7-5.7-6.9z"/><path d="M28.8 18.7H20c-2 0-3.8.8-5.1 2.1-1.4 1.4-2.2 3.4-2.1 5.6.2 3.8 3.6 6.7 7.5 6.7h8.8c2 0 3.8-.8 5.1-2.1 1.4-1.4 2.2-3.4 2.1-5.6-.3-3.8-3.7-6.7-7.5-6.7z" class="st1"/><path d="M10.6 21c1.8-3.9 5.8-6.5 10.3-6.5h7.2c4.5 0 8.5 2.7 10.3 6.5" class="st1"/><path d="M21.8 37.3h-.9c-4.6 0-8.5-2.7-10.3-6.6m0-.1s0 .1 0 0c-2.9 0-5.3-2.1-5.3-4.7s2.5-4.8 5.2-4.9c0 0 .1 0 .1.1v9.5zm27.9-.2v.3c2.9 0 5.2-2.2 5.2-4.8 0-2.6-2.5-4.8-5.2-4.9 0 0-.1 0-.1.1l.1 9.3z" class="st2"/><circle cx="24.6" cy="10.4" r="1.8" class="st3"/><ellipse cx="25.1" cy="37.3" class="st3" rx="3" ry="2.4"/><path d="M24.5 12.1v6.6" class="st1"/><path fill="none" stroke="#444" stroke-linecap="round" stroke-linejoin="round" stroke-miterlimit="10" stroke-width="2.5" d="M29.3 40.9c-.7.5-2.3 1.3-4.5 1.2h-.1c-1.7 0-2.8-.6-3.5-1.1-.4-.3-.8-.4-1.3-.4-7.3-.2-9.9-3.4-10.8-5.4-.4-.8-1.1-1.4-1.9-1.5-3.7-.6-5.7-3.7-5.7-7.8 0-4.2 3.1-7.7 7.2-8.3.7-.1 1.4-.5 1.8-1 1.1-1.4 3.6-4 8.2-4.4.7-.1 1.2-.6 1.3-1.3.1-1.8.9-4.9 4.4-4.9h.6c3.5 0 4.3 3.1 4.4 4.8.1.7.6 1.2 1.3 1.3 4.7.4 7.2 3 8.2 4.4.4.6 1.1.9 1.8 1 4.1.6 7.2 4.1 7.2 8.3 0 4.1-2 7.1-5.6 7.8 0 0-4.2 0-6.3 1.9"/><circle cx="19.1" cy="24.7" r="1.2" class="st5"/><circle cx="29.9" cy="24.7" r="1.2" class="st5"/><path fill="none" stroke="#444" stroke-miterlimit="10" stroke-width=".5" d="M24.5 29.8c-1.4 0-2.5-.7-2.9-1.8-.1-.3.2-.6.5-.6h4.4c.7 0 1 .4.8.7-.3 1-1.4 1.7-2.8 1.7z"/><path d="M38.5 21v9.4m-27.9.2V21" class="st2"/></svg>