<svg xmlns="http://www.w3.org/2000/svg" version="1" viewBox="0 0 50 50"><path fill="#46B8B0" d="M44.375 35.376v-2.352l-6.424-1.584 6.424-1.585v-9.708l-6.426-1.585 6.426-1.586V7.268l-19.371-4.78-19.379 4.78v9.708l6.434 1.586-6.434 1.585v9.708l6.426 1.585-6.426 1.584v9.707l11.052 2.727z"/><path fill="#4ECDC4" d="M36.403 5.302l-11.4-2.814-19.378 4.78v9.236z"/><path fill="#031326" d="M45.625 6.29L25.004 1.201 4.375 6.29v11.665l2.461.607-2.461.606v11.666l2.456.605-2.456.605V43.71l20.628 5.088 11.7-2.887a1.251 1.251 0 00-.6-2.428l-10.729 2.648v-8.025l17.75-3.735v1.003a1.25 1.25 0 002.5 0v-3.331l-2.456-.605 2.456-.605V19.168l-2.459-.607 2.459-.607V6.29zM25 37.421L7.746 33.789l7.972-1.967 9.286 2.291 9.281-2.29 7.969 1.966L25 37.421zM6.875 21.493l17.75 3.738.004 8.016-12.488-3.08c-.011-.003-.022.001-.033-.001l-5.233-1.291v-7.382zm0-12.849l17.75 3.711.004 8.014-12.487-3.08c-.012-.003-.024 0-.036-.001l-5.23-1.29V8.644zM37.89 30.167c-.01.002-.02-.001-.031.001l-12.481 3.079-.004-8.016 17.75-3.738v7.382l-5.234 1.292zM25 24.543L7.752 20.911l7.978-1.965 9.274 2.288 9.274-2.288 7.972 1.966L25 24.543zm12.902-7.257c-.015.002-.029-.002-.044.002l-12.48 3.08-.004-8.014 17.75-3.71v7.352l-5.222 1.29zm4.411-9.239L25 11.667 7.687 8.047l17.317-4.271 17.309 4.271zM6.875 34.373l17.75 3.736v8.023l-17.75-4.379v-7.38z"/></svg>