<svg xmlns="http://www.w3.org/2000/svg" id="Layer_1" x="0" y="0" version="1.1" viewBox="0 0 50 50" xml:space="preserve"><style>.st3{fill:none;stroke:#494949;stroke-linecap:round;stroke-linejoin:round;stroke-miterlimit:10}</style><path fill="#dc5e82" d="M48.1 22.1l-7.3 2.7-18.2 6.7L10.4 36l-1.2.5c-3.3-1.6-5.9-4.6-6.8-8.2l-.7.3v-1.7l.1-2 .2-.1 33.2-12.1h.8c2 0 3.9.5 5.5 1.3 3.2 1.4 5.7 4.4 6.6 8.1z"/><path fill="#f56991" d="M41.4 13.8l-23.9 8.8-1.8.7-.4.2-13 4.6-.7.3v-1.7l.1-2 .2-.1c.2-6.8 5.7-12.1 12.5-12.1h21.5c2 0 3.8.5 5.5 1.3z"/><path fill="none" stroke="#494949" stroke-linecap="round" stroke-linejoin="round" stroke-miterlimit="10" stroke-width="2.5" d="M48.1 22.1c-.9-3.7-3.4-6.7-6.7-8.3-1.7-.8-3.5-1.3-5.5-1.3H14.4c-6.8 0-12.3 5.4-12.5 12.1v.4c0 1.1.1 2.1.4 3.1.9 3.7 3.5 6.7 6.8 8.2 1.6.8 3.4 1.2 5.3 1.2h21.5c6.9 0 12.5-5.6 12.5-12.5 0-1-.1-2-.3-2.9z"/><path d="M11.4 28c0 .6-.5 1.1-1.1 1.1-.6 0-1.1-.5-1.1-1.1s.5-1.1 1.1-1.1c.6 0 1.1.5 1.1 1.1zm6.1-5.6c0 .6-.5 1.1-1.1 1.1-.6 0-1.1-.5-1.1-1.1 0-.6.5-1.1 1.1-1.1.6 0 1.1.5 1.1 1.1zm6.9 1.8c0 .6-.5 1.1-1.1 1.1-.6 0-1.1-.5-1.1-1.1 0-.6.5-1.1 1.1-1.1.6 0 1.1.5 1.1 1.1zm5.3 3.7c0 .6-.5 1.1-1.1 1.1-.6 0-1.1-.5-1.1-1.1 0-.6.5-1.1 1.1-1.1.4 0 .8.2 1 .6 0 .2.1.3.1.5zm6.1-4.2c0 .6-.5 1.1-1.1 1.1-.6 0-1.1-.5-1.1-1.1 0-.6.5-1.1 1.1-1.1.6 0 1.1.5 1.1 1.1zm6-3.5c0 .6-.5 1.1-1.1 1.1-.6 0-1.1-.5-1.1-1.1 0-.6.5-1.1 1.1-1.1.7 0 1.1.5 1.1 1.1z" class="st3"/><path fill="none" stroke="#494949" stroke-linecap="round" stroke-linejoin="round" stroke-miterlimit="10" stroke-width=".5" d="M10.3 31.4v1m0 2.6v1.1m6.1-4.7v1m0 2.6v1.1m6.1-4.7v1m0 2.6v1.1m6.1-1.1v1.1m6.1-4.7v1m-6.1-1v1m6.1 2.6v1.1m6.1-4.7v1m0 2.6v1.1m0-12.1v1.1m0 2.6v1m-6.1-1v1m-12.2-1v1m-6.1-1v1"/><path d="M11.2 27.3l4.3-4.2m2-.5l4.7 1.4m2.1.5l3.3 2.9m2.1.1l4.1-3.1m2-1.3l4-2.3" class="st3"/></svg>