<svg xmlns="http://www.w3.org/2000/svg" id="Camada_1" x="0" y="0" version="1.1" viewBox="0 0 50 50" xml:space="preserve"><style>.st2{fill:#444}</style><path fill="#00c8e2" d="M48.6 22.8l-2.1.8-.3.1-15.6 5.7h-.1l-5.5 2-8 3h-.1l-2.5.9-2.5.9-.3.1-.4.1-1.8.6c-.2 0-.4 0-.7-.1-.2 0-.3-.1-.5-.1-1.8-.4-3.4-1.2-4.7-2.4v-.1c-.5-.5-.9-1-1.3-1.6C.9 30.8.4 28.6.6 26.3c0-.4.1-.7.1-1v-.2c0-.2.1-.3.1-.4s0-.1.1-.2H1l2.6-.9.3-.1.4-.2 26.6-9.7.5-.2.2-.1 2.8-1h.1c.1.1.3.2.4.3.1 0 .1.1.2.1.9.7 1.7 1.5 2.4 2.6.1.2.2.3.3.5.1.1.6.7.7.9.1.2.5.5.8.5h.2c3.9-.1 7.5 2.1 9.1 5.6z"/><path fill="#00dffc" d="M35.1 12.7l-2.6 1-.2.1-.4.1L4 24l-.4.1-.3.1-2.5.9c0-.2.1-.3.1-.4s0-.1.1-.2c.5-1.8 1.4-3.4 2.9-4.7 1.3-1.2 2.8-2 4.5-2.4.4-.1.7-.4.7-.9.3-3.9 2.1-6.8 5.5-8.5 1.6-.8 3.1-1.2 4.7-1.2 1.9 0 3.7.6 5.6 1.7.1.1.3.2.4.3.5.4.9.8 1.3 1.2.1.2.3.3.5.4.3.3.5.4.9.4h1.3c.9 0 1.8.1 2.6.4.9.3 1.7.6 2.5 1 .1 0 .2.1.3.2.1 0 .1.1.2.1s.1.1.2.2c0-.1 0-.1 0 0z"/><path d="M48.2 32.6c-1.6 2.5-3.9 4.1-7 4.6 0 0-.5.1-.7.1s-.4-.1-.6-.2c-.5-.3-.7-.8-.6-1.4.1-.5.6-.8 1.2-.9 2.5-.3 4.4-1.5 5.7-3.7 1.4-2.3 1.5-5.2.3-7.6 0 0 0-.1-.1-.1-.5-.9-1.2-1.8-2.1-2.4-1.4-1.1-3-1.7-4.7-1.7-.9 0-1.7.2-2.6.4-.4-2.6-2.1-5-4.5-6.1-.1 0-.8-.3-1-.4 0 0-1.4-.3-2.4-.2s-1.9.2-2.9.5c-1.1-2.3-3-3.7-5.4-4.3-.4-.1-1-.2-1.6-.2-1.3 0-2.6.3-3.8 1-2.8 1.6-5 5.3-3.6 9.4-.4-.1-.8-.1-1.2-.1-2.2 0-4.3 1-5.8 2.6-.2.3-.5.6-.8 1-.1.1-.6.9-.6 1s-.1.2-.1.3c-.5 1.2-.6 2.5-.5 3.7C3.2 31 5 33.2 8 34.3c.7.3 1.4.3 2.1.4.7.1 1.2.5 1.2 1.2v.1c0 .2 0 .3-.1.4-.2.4-.6.7-1 .7h-.8c-.2-.1-.4-.1-.7-.2-.2 0-.3-.1-.5-.1-1.8-.4-3.4-1.2-4.7-2.4v-.1c-.6-.5-1.1-1.2-1.5-1.9C.7 30.5.2 28.3.4 26c0-.4.2-1.7.3-1.8.5-1.8 1.4-3.4 2.9-4.7 1.3-1.2 2.8-2 4.5-2.4.4-.1.7-.4.7-.9.3-3.9 2.1-6.8 5.5-8.5 1.6-.8 3.1-1.2 4.7-1.2 1.9 0 3.7.6 5.6 1.7.3.2.5.4.8.6.5.4.9.8 1.3 1.2.1.2.3.3.5.4.2.1.3.1.5.1H29c.9 0 1.8.1 2.6.4 1 .3 1.9.7 2.8 1.2.1 0 .8.5.8.5.9.7 1.7 1.5 2.4 2.6.1.2.9 1.2 1 1.4.1.2.5.5.8.5h.2c3.9 0 7.5 2.2 9.1 5.6v.1c.1.2.2.5.4.9 1.1 3.1.8 6.1-.9 8.9z" class="st2"/><path d="M35.3 32.6c-1.1-1.8-2.7-2.9-4.6-3.2h-9.4c-1.8 0-3.5.7-4.8 2a6.55 6.55 0 00-2.1 4v.1c-.3 1.8.2 3.6 1.4 5.2 1.3 1.7 3 2.7 5.2 2.8 1.4.1 2.9 0 4.3 0h4c1.9 0 3.6-.7 4.9-2 2.4-2.6 2.8-6.1 1.1-8.9zm-3 7.4c-.9.7-1.9 1-3 1h-7.9c-2.8 0-5-2.4-4.8-5.2 0-.5.2-1 .4-1.4v-.1c.7-1.6 2.2-2.8 4.2-2.9h7.9c1.6 0 3 .5 4 1.8 1.6 2 1.3 5.1-.8 6.8z" class="st2"/></svg>