<svg xmlns="http://www.w3.org/2000/svg" id="Layer_1" x="0" y="0" version="1.1" viewBox="0 0 50 50" xml:space="preserve"><style>.st3{fill:#444}</style><path fill="#a475ef" d="M46.4 13v18.9L3.6 47.4V28.5z"/><path fill="#bf94f7" d="M46.4 2.6v11.1L3.6 29.3v-19L25 2.6z"/><path fill="none" stroke="#444" stroke-linecap="round" stroke-linejoin="round" stroke-miterlimit="10" stroke-width="2.5" d="M47.4 37V2.6H2.6V47h30"/><path d="M22.8 19.6c-3.3 0-6.5-.4-9.4-1.8-1-.5-1.9-1.1-2.7-1.9-1.2-1.2-1.2-2.8 0-4.1 1-1.1 2.3-1.8 3.6-2.3 2.3-.8 4.6-1.3 7-1.4 3.3-.1 6.6.1 9.7 1.2 1.4.5 2.7 1.2 3.8 2.2 1.4 1.3 1.4 3.2 0 4.6-1.5 1.5-3.5 2.2-5.5 2.7-1.1.3-2.3.5-3.5.6-.9.2-2 .2-3 .2zm-1.6 12.1c-2.4-.1-4.8-.6-7.1-1.5-1.3-.5-2.6-1.2-3.5-2.4-.4-.5-.7-1.2-.7-1.8-.1-1.2 0-2.4 0-3.8 1.1 2.2 3 3.2 5.1 3.9 3.1 1 6.3 1.4 9.6 1.1-1.7 1-2.9 2.6-3.4 4.5zM35.8 26h-4.9c.3-.1.5-.2.8-.3 1.6-.7 3.1-1.6 4-3.3.1 1.3.2 2.4.1 3.6z" class="st3"/><path d="M35.8 16.5c0 1.3.1 2.5 0 3.8-.1.6-.4 1.2-.8 1.6-1 1.3-2.4 2-3.9 2.4-5.8 1.9-11.6 1.9-17.3-.3-.7-.3-1.3-.7-2-1.1-1.4-.9-2.2-2.1-2.1-3.9.1-.9 0-1.9.1-2.8 1.1 2.2 3.1 3.2 5.2 3.8 5.7 1.7 11.4 1.7 17.1-.6 1.5-.5 2.8-1.4 3.7-2.9zM21.2 36.1c.1.5.3 1 .6 1.5-2.3-.1-4.6-.4-6.8-1.1-1.5-.5-2.8-1.1-4-2.2-.8-.8-1.3-1.7-1.2-2.9v-3.1c1.2 2.2 3.3 3.2 5.5 3.8 1.9.6 3.8.9 5.6 1-.1 1.1 0 2.1.3 3zm20-5.3c-1.2-2.1-3-3.3-5.5-3.3h-8c-.3 0-.5.1-.8.2-.1 0-.2.1-.4.1-.2.1-.4.1-.6.2-1.5.7-2.7 2-3.2 3.6-.2.5-.3 1.1-.4 1.6-.1.8 0 1.6.2 2.4.2.7.5 1.3.9 1.9.5.7 1 1.3 1.7 1.7 1 .7 2.2 1 3.5 1H36c1.1 0 2-.3 2.9-.8 3-1.7 4-5.5 2.3-8.6zm-4.3 7c-.4.2-.8.2-1.1.2h-6.9c-.8 0-1.6-.2-2.2-.6-1.1-.7-1.9-2.1-1.8-3.6 0-.2 0-.4.1-.6.1-.6.3-1.2.7-1.7.6-.8 1.5-1.4 2.7-1.6h7.4c1.9 0 3.6 1.6 3.8 3.6.1 2-.9 3.7-2.7 4.3z" class="st3"/></svg>