<svg xmlns="http://www.w3.org/2000/svg" version="1" viewBox="0 0 50 50"><path fill="#DC5E82" d="M44.5 37.209v-8.615l-2.694-1.66v-10.48l-8.958-5.173.001-3.872-9.193-5.305-9.194 5.305-.003 3.872L5.5 16.454v20.961l14.862 8.58z"/><path fill="#F56991" d="M32.849 7.538v-.129l-9.193-5.305-9.194 5.305-.003 3.872L5.5 16.454v1.038z"/><g fill="#031326"><path d="M10.9 24.051v10.164l8.805 5.085V29.136L10.9 24.051zm8.555 11.247l-5.095-2.94v-6.02l5.095 2.943v6.017zm-5.345-9.105v6.159l-2.96 1.582v-9.45l2.96 1.709zm-2.828 7.954l2.948-1.575 5.224 3.015v3.28l-8.172-4.72z"/><path d="M43.056 26.236V15.732l-8.958-5.172.001-3.873L23.656.661 13.213 6.687l-.004 3.873-8.959 5.172v22.405l19.403 11.202 9.46-5.461a1.25 1.25 0 00.458-1.708 1.241 1.241 0 00-.388-.401l-4.678-2.857-.002-9.052 6.668 4.058v6.588a.125.125 0 00.25 0v-6.58l7.829-4.522v7.805a1.25 1.25 0 002.5 0v-9.313l-2.694-1.66zm-7.753 7.469l-6.656-4.051 7.803-4.511 6.648 4.059-7.795 4.503zM15.786 8.419l7.742 4.472v8.439l-7.745-4.476.003-8.435zm7.992 4.472l7.746-4.474-.002 8.437-7.744 4.476v-8.439zm7.781-4.783l-7.906 4.567-7.904-4.565 7.906-4.561 7.904 4.559zm-16.024 3.996l-.002 4.895 8.12 4.693 8.119-4.693.001-4.895 8.694 5.02-16.814 9.707-16.814-9.707 8.696-5.02zM6.75 17.362l16.778 9.686V46.38L6.75 36.693V17.362zm25.605 24.194a1.247 1.247 0 00-.492.156l-8.085 4.668V27.048l16.778-9.686v9.995l-4.038-2.466-.063-.039-8.201 4.74.002 9.459 4.099 2.505z"/></g></svg>