<svg xmlns="http://www.w3.org/2000/svg" viewBox="0 0 50 50"><path fill="#a475ef" d="M37.5 27.5L33.8 29l1.6 3-27 9.9.9-6.9L6 30.9l29-11 2.8 5.7z"/><path fill="#bf94f7" d="M34.2 14.2l-.1 6.5L5.9 30.9l-3.6-6.8-.7-3.8L30.9 9.9l1.5 1.6z"/><path fill="#031326" d="M38.6 25.6v2.1c0 .4-.2.7-.6.9l-3 1 .7 1.1c.1.1.2.3.2.5v6.4c0 .7-.1 1.3-.4 1.9-.5 1.2-1.5 2.2-2.7 2.7a5 5 0 01-3.8 0l-2.2-.9v4.5c0 .5-.4.9-.9.9h-7c-.4 0-.8-.4-.8-.9s.4-.9.8-.9H25v-4.4l-3.8-1.6.7-1.7 7.8 3.2c.4.2.8.2 1.2.2 1.7 0 3.1-1.4 3.1-3.1v-6.1l-1.2-1.9c0-.1-.1-.1-.1-.2-.2-.5.1-1 .6-1.2l3.5-1.2v-1.2l-3.4-6c-.1-.3-.2-.6 0-.9l.6-1.1c.4-.8.4-1.7-.1-2.5-3.1-5.5-9-9-15.4-9h-2.6c-7.4 0-13.4 6-13.4 13.4 0 2.7.8 5.3 2.4 7.6l5.1 7.4c.1.2.2.4.1.6l-1.2 9.4h3c.5 0 .9.4.9.9s-.4.9-.9.9H7.6c-.5-.1-.8-.5-.7-1l1.3-10.1-4.9-7.1C1.5 25.7.6 22.7.6 19.6c0-8.4 6.8-15.2 15.2-15.2h2.6c7 0 13.5 3.8 17 9.9.7 1.3.8 2.9.1 4.2l-.3.7 3.2 5.8c.2.3.2.4.2.6zm2 6.6c-.2 0-.4-.1-.5-.3-.1-.3 0-.6.2-.7l7.9-4c.2-.1.6 0 .7.2.1.3 0 .6-.2.7l-7.9 4c0 .1-.1.1-.2.1zm8 11c-.1 0-.2 0-.2-.1l-7.8-4.2c-.2-.1-.3-.4-.2-.7.1-.2.4-.3.7-.2l7.8 4.2c.2.1.3.4.2.7-.1.2-.3.3-.5.3zm.1-7.6H41c-.3 0-.5-.2-.5-.5s.2-.5.5-.5h7.7c.3 0 .5.2.5.5s-.3.5-.5.5z"/></svg>