<?xml version="1.0" encoding="utf-8"?>
<!-- Generator: Adobe Illustrator 27.7.0, SVG Export Plug-In . SVG Version: 6.00 Build 0)  -->
<svg version="1.1" id="Camada_3" xmlns="http://www.w3.org/2000/svg" xmlns:xlink="http://www.w3.org/1999/xlink" x="0px" y="0px"
	 viewBox="0 0 50 50" style="enable-background:new 0 0 50 50;" xml:space="preserve">
<style type="text/css">
	.st0{fill:#E589EF;}
	.st1{fill:#444444;}
	.st2{fill:#444444;stroke:#424242;stroke-width:0.5;stroke-linecap:round;stroke-linejoin:round;stroke-miterlimit:10;}
	.st3{fill:#444444;stroke:#424242;stroke-linecap:round;stroke-linejoin:round;stroke-miterlimit:10;}
	.st4{fill:none;stroke:#444444;stroke-miterlimit:10;}
	.st5{fill:none;stroke:#444444;stroke-width:0.5;stroke-miterlimit:10;}
</style>
<polygon class="st0" points="9.23,2.86 9.23,4.94 11.78,19.88 11.79,19.88 12.46,23.79 16.71,23.79 16.71,39.28 10.28,39.28 
	10.28,42.26 13.5,48.04 16.67,48.04 40.68,39.3 40.68,39.28 34.49,39.28 34.49,23.79 38.51,23.79 41,9.24 41,9.24 41.73,4.94 
	41.73,2.86 "/>
<path class="st1" d="M42.96,5.15l0.01-3.29c0-0.55-0.44-0.99-0.99-0.99H8.97c-0.54,0-0.99,0.44-0.99,0.99v3.09l3.19,18.77
	c0.13,0.77,0.8,1.33,1.58,1.33h1.57c0.49,0,0.88,0.39,0.88,0.88v11.03c0,0.48-0.39,0.87-0.87,0.87h-3.87
	c-0.79,0-1.43,0.64-1.43,1.43v2.95c0,0.24,0.06,0.48,0.18,0.7l3.13,5.62c0.26,0.47,0.76,0.77,1.3,0.77h7.02
	c0.69,0,1.25-0.56,1.25-1.25s-0.56-1.25-1.25-1.25h-5.69c-0.46,0-0.87-0.25-1.1-0.64l-1.95-3.5c-0.07-0.12,0.02-0.26,0.15-0.26
	h20.79c0.07,0,0.12-0.06,0.12-0.12s-0.06-0.12-0.12-0.12H11.64l-0.11-0.2v-1.22c0-0.21,0.17-0.38,0.38-0.38h28.77
	c0.69,0,1.25-0.56,1.25-1.25s-0.56-1.25-1.25-1.25h-3.89c-0.48,0-0.87-0.39-0.87-0.88l0.03-11.03c0-0.48,0.39-0.88,0.88-0.88h1.38
	c0.78,0,1.44-0.56,1.57-1.33L42.96,5.15z M33.71,11.71c0-0.03-0.01-0.06-0.03-0.08c-0.02-0.03-0.06-0.04-0.09-0.04H17.61
	c-0.04,0-0.07,0.01-0.09,0.04c-0.02,0.02-0.03,0.05-0.03,0.08h0v10.24c0,0.33-0.27,0.6-0.6,0.6h-2.03c-0.78,0-1.44-0.56-1.57-1.33
	L10.64,5.78c-0.06-0.37,0.22-0.71,0.6-0.71h28.48c0.38,0,0.66,0.34,0.6,0.71l-2.64,15.44c-0.13,0.77-0.8,1.33-1.57,1.33h-1.79
	c-0.33,0-0.6-0.27-0.6-0.6L33.71,11.71C33.72,11.71,33.71,11.71,33.71,11.71z M10.84,3.37h29.28c0.2,0,0.36,0.16,0.36,0.36v0.73
	c0,0.2-0.16,0.36-0.36,0.36H10.84c-0.2,0-0.36-0.16-0.36-0.36V3.73C10.48,3.53,10.64,3.37,10.84,3.37z M17.73,14.28l2.47,25.34
	c0.02,0.23-0.16,0.43-0.39,0.43h-1.68c-0.22,0-0.4-0.18-0.4-0.4V14.28z M18.13,11.83h14.94c0.21,0,0.37,0.18,0.35,0.38l-2.68,27.48
	c-0.02,0.2-0.19,0.36-0.39,0.36h-9.48c-0.2,0-0.37-0.15-0.39-0.36l-2.68-27.48C17.77,12.01,17.93,11.83,18.13,11.83z M30.99,39.61
	l2.47-25.34l-0.05,25.38c0,0.22-0.18,0.39-0.4,0.39h-1.63C31.15,40.05,30.97,39.85,30.99,39.61z"/>
<line class="st2" x1="10.81" y1="42.27" x2="33.18" y2="42.27"/>
<line class="st3" x1="16.39" y1="39.77" x2="35.65" y2="39.77"/>
<line class="st3" x1="9.94" y1="5.04" x2="41.26" y2="5.04"/>
<path class="st4" d="M17.32,39.72V12.49c0-0.57,0.46-1.03,1.03-1.03h14.34c0.57,0,1.03,0.46,1.03,1.03v27.05"/>
<line class="st5" x1="20.21" y1="39.61" x2="17.62" y2="13.14"/>
<line class="st5" x1="30.74" y1="39.69" x2="33.58" y2="13.44"/>
</svg>
