<svg xmlns="http://www.w3.org/2000/svg" id="Layer_1" x="0" y="0" version="1.1" viewBox="0 0 50 50" xml:space="preserve"><style>.st2{fill:#031326}</style><path fill="#a475ef" d="M35.6 16.9v14.7L33.7 34l-7.6 1v-.6c-.9.1-1.8.2-2.7.2-3.4 0-6.2-.9-8.5-2.7-1.6-1.2-2.7-2.7-3.4-4.1-1-1.9-1.5-3.8-1.7-4.7-3-2.1-4.9-5.5-4.9-9.3C4.9 7.4 10 2.3 16.2 2.3c.5 0 .9 0 1.4.1h3.5c8 0 14.5 6.5 14.5 14.5zm3.8 14.3l-1.9.7c.3-.2.5-.3.7-.5.4-.3.8-.3 1.2-.2z"/><path fill="#bf94f7" d="M35.6 16.9v2l-2.2.8-3.6 1.3-3.4 1.2-12.5 4.6-2.3.8c-1-1.9-1.5-3.8-1.7-4.7-3-2.1-4.9-5.5-4.9-9.3-.1-6.2 5-11.3 11.2-11.3.5 0 .9 0 1.4.1h3.5c8 0 14.5 6.5 14.5 14.5z"/><path d="M28.3 23.6c1 0 1.9-.9 1.9-1.9s-.9-1.9-1.9-1.9c-1 0-1.9.9-1.9 1.9s.9 1.9 1.9 1.9z" class="st2"/><path d="M46.1 38.4l-4.5-.9a2 2 0 00-2.3 1.4c-.2.6-.8 1.1-1.4 1.1-.8 0-1.5-.7-1.5-1.5v-3.4c1.2-.4 2.3-1 3.3-1.8.5-.4.6-1.2.2-1.7-.1-.2-.3-.3-.5-.4-.4-.1-.8-.1-1.2.2-.2.2-.5.4-.7.5-.3.2-.7.4-1.1.6V16.8c0-8.4-6.9-15.3-15.3-15.3h-3.7c-.5 0-1-.1-1.4-.1-6.6 0-12 5.4-12 12 0 4.1 2.1 7.7 5.2 9.9.2 1 .7 3 1.8 5 .8 1.5 2 3.1 3.6 4.4 2.4 1.9 5.5 2.9 9 2.9.9 0 1.9-.1 2.8-.2v3.3c0 5.7 4.9 10.4 10.7 10.4 5.4 0 9.8-3.5 10.5-8.4.2-1.1-.5-2.1-1.5-2.3zm-12.9-5.1c-3.2.2-6.3-1.2-8.2-3.8-.4-.5-1.1-.7-1.7-.3-.3.2-.5.6-.5.9v.3l2.2 2.5c-3.6.3-6.5-.5-8.8-2.3-1.2-1-2.1-2.1-2.8-3.3-.5-.9-.9-1.8-1.2-2.6 1.2.4 2.5.6 3.8.6.7 0 1.3-.6 1.3-1.3 0-.7-.6-1.3-1.3-1.3-5.2 0-9.4-4.2-9.4-9.4C6.6 8.2 10.8 4 16 4c3.8 0 7.1 2.2 8.6 5.7.3.6 1 1 1.7.7.6-.3 1-1 .7-1.7-.8-1.8-1.9-3.3-3.4-4.5 6 1.1 10.4 6.4 10.4 12.6v16.4h-.3c-.1.1-.3.1-.5.1zm4 13.4c-4.5 0-8.3-3.7-8.3-8.1v-3.4c1.2.4 2.4.6 3.7.6h.8c.2 0 .5 0 .7-.1v2.9c0 2.1 1.7 3.8 3.8 3.8 1.6 0 3-1 3.6-2.5l3.8.8c-.8 3.9-4.6 6-8.1 6z" class="st2"/><path d="M15.9 6.1c-3.9 0-7.1 3.2-7.1 7.1s3.2 7.1 7.1 7.1 7.1-3.2 7.1-7.1-3.2-7.1-7.1-7.1zm0 12.6c-3.1 0-5.6-2.5-5.6-5.6s2.5-5.6 5.6-5.6 5.6 2.5 5.6 5.6-2.6 5.6-5.6 5.6z" class="st2"/></svg>