<svg xmlns="http://www.w3.org/2000/svg" viewBox="0 0 50 50"><path fill="#00dffc" d="M44.7 12.9l-5.6-3.6-7.7-4.4-6-2.8C22.3 2.1 4 11 4 14.2L3.5 22 4 37.1l11.5 7.6 31-11c.8-.5-.8-18.8-1.8-20.8z"/><path fill="none" stroke="#444" stroke-linecap="round" stroke-linejoin="round" stroke-miterlimit="10" stroke-width="2.5" d="M29.7 46.6l-2.2 1.3c-1.7 1-3.8 1-5.5 0l-15.6-9c-1.7-1-2.7-2.8-2.7-4.7v-18c0-2 1-3.8 2.7-4.7l15.6-9c1.7-1 3.8-1 5.5 0l15.6 9c1.7 1 2.7 2.8 2.7 4.7v18c0 2-1 3.8-2.7 4.7l-2.5 1.4"/><path fill="#444" d="M33.4 39l-.5-.3v.7s0 .2-.2.3l-6.5 4c-.4.2-.8.2-1.2 0l-6.4-3.4c-.4-.2-.6-.6-.6-1.1v-.8l-.6.4c-.4.2-.8.2-1.2 0l-6.4-3.4c-.4-.2-.6-.6-.6-1.1v-7.5c0-.4.2-.8.6-1l.8-.5-.7-.5c-.3-.2-.6-.6-.6-1v-7.6c0-.4.2-.8.6-1l6.4-3.8c.1-.1.3-.1.4 0 .3.1.8.4.9.3.1-.1.1-.5 0-.8 0-.2.1-.3.2-.4l6.4-3.8c.4-.2.9-.2 1.2 0l6.7 4c.3.2.2.5.2.5v.8l.6-.3c.4-.2.9-.2 1.2 0l6.3 3.7c.4.2.6.6.6 1v7.2c0 .4-.2.8-.6 1l-1 .6 1 .6c.4.2.6.6.6 1V34c0 .4-.2.8-.6 1l-6.6 4c-.2.2-.4 0-.4 0zm-13.3.8l4.7 2.6c.4.2.9.2 1.2 0l4.8-2.8c.4-.2.6-.6.6-1.1v-.1c0-.9 1-1.6 1.8-1.1l.1.1c.4.2.8.2 1.2 0l4.8-2.8c.4-.2.6-.6.6-1.1v-5.4c0-.5-.2-.9-.6-1.1l-.9-.5c-.8-.5-.8-1.7 0-2.2l.9-.5c.4-.2.6-.6.6-1.1v-5.4c0-.4-.2-.9-.6-1.1l-4.8-2.8c-.4-.2-.8-.2-1.2 0l-.9.4c-.8.4-1.8-.2-1.8-1.1v-.6c0-.4-.2-.9-.6-1.1l-4.7-2.8c-.4-.2-.9-.2-1.3 0L19.4 11c-.4.2-.6.6-.6 1.1v.1c0 1-1.1 1.6-1.9 1.1-.4-.2-.9-.3-1.3 0L11 16.1c-.4.2-.6.6-.6 1.1V23c0 .5.2.9.6 1.1l.7.4c.8.5.9 1.7 0 2.2l-.7.1c-.4.2-.6.6-.6 1.1v5.5c0 .5.2.9.7 1.1l4.7 2.6c.4.2.9.2 1.3 0l.5-.3c.8-.5 1.9.1 1.9 1.1v.8c-.1.4.2.8.6 1.1z"/><path fill="none" stroke="#444" stroke-miterlimit="10" stroke-width=".5" d="M34 20.2l-3.9-2.3-1.2.8v-1.4l-4-2.3-3.9 2.3v1.1l-.9-.5-4 2.2v4.7l1.4.7-1.4.8V31l4 2.2 1.3-.8V34l4 2.2 3.9-2.3v-1.1l.9.5L34 31v-4.6l-1.3-.8 1.3-.8v-4.6z"/></svg>