<svg xmlns="http://www.w3.org/2000/svg" viewBox="0 0 50 50"><path fill="#dc5e82" d="M34.37 6.84L24.29 1.68c-1.4 0-19.44 10.24-19.44 11.64L4.49 26.4l-.36 6.84.72 3.84 13.8 8.28 26.64-9.96-.12-19.56-5.52-5.88-2.28-1.2c-1.08-1.32-1.6-1.92-3-1.92z"/><path fill="none" stroke="#444" stroke-miterlimit="10" d="M39.9 15.45l-5.72-3.36a1.23 1.23 0 00-1.34.05l-1.41.99v-1.77c0-.44-.23-.85-.61-1.07L25.05 6.9c-.39-.23-.88-.23-1.27.01l-6.18 3.74v1.86l-1.65-.83-6.38 3.57c-.39.22-.64.63-.64 1.08v6.76c0 .47.27.9.69 1.11l1.79.9-1.86 1.09c-.38.22-.62.63-.62 1.07v6.82c0 .45.24.86.64 1.08l5.74 3.21c.4.22.89.21 1.27-.04l1.65-1.05v1.96c0 .45.24.86.64 1.08l5.75 3.21c.39.22.87.21 1.25-.02l6.19-3.75V37.9l1.65.83 6.19-3.56c.38-.22.62-.63.62-1.07v-6.62c0-.44-.23-.85-.62-1.07l-1.86-1.09 1.86-1.09c.38-.22.62-.63.62-1.07v-6.63c-.01-.45-.24-.86-.62-1.08z"/><path fill="none" stroke="#444" stroke-linecap="round" stroke-linejoin="round" stroke-miterlimit="10" stroke-width="2.5" d="M40.48 39.78l3.44-1.98c.49-.28.79-.8.79-1.36V14.2c0-.56-.29-1.07-.77-1.35L36.7 8.59l-4.26-2.27-7.3-4.3c-.5-.29-1.12-.29-1.61.01L15.7 6.77l-2.09 1.31-8.08 4.52c-.5.28-.8.8-.8 1.37v22.46c0 .57.31 1.09.8 1.37l7.26 4.06 4.5 2.47 7.28 4.07c.49.28 1.1.27 1.58-.03l3.52-2.13"/><path fill="#444" d="M32.07 20.47l-2.77-1.63a.591.591 0 00-.65.03l-.68.48v-.86a.6.6 0 00-.3-.52l-2.79-1.64a.624.624 0 00-.62 0l-2.99 1.81v.9l-.8-.4-3.09 1.73a.61.61 0 00-.31.52v3.28c0 .23.13.44.33.54l.87.43-.9.53c-.18.11-.3.31-.3.52v3.3c0 .22.12.42.31.52l2.78 1.55c.19.11.43.1.62-.02l.8-.51V32c0 .22.12.42.31.52l2.79 1.56c.19.11.42.1.6-.01l3-1.82v-.9l.8.4 3-1.73a.6.6 0 00.3-.52v-3.21a.6.6 0 00-.3-.52l-.9-.53.9-.53c.18-.11.3-.31.3-.52v-3.21a.63.63 0 00-.31-.51z"/></svg>