<svg xmlns="http://www.w3.org/2000/svg" viewBox="0 0 50 50"><path fill="#fdcf72" d="M44.2 6.6c-1-.5-1.8-.4-2.4 0-.3.1-.5.1-.7.3 0 0-.1 0-.2.1-.1 0-.2-.1-.3-.1-1.5-.7-2.8-.6-3.7 0-.3.1-7.1 3.5-8.1 4.1h-.1l-19 1.4c-4.3-.8-7.6 2.2-7.9 7.9-.1 1.3 0 2.7.3 4L46.2 8.1c-.6-.6-1.3-1.2-2-1.5z"/><path fill="#fcc34f" d="M40.2 21.3c2.1-1 4.3-2.1 4.4-2.2 1.3-.4 2.1-1.8 2-3.8v-.1l.4-.2c.9-.3 1.4-1.2 1.3-2.6-.1-1.4-.9-3-2-4.1L2.1 24.2c.8 4.7 3.3 9.7 6.5 13.3L40 26.1l.2-4.8z"/><path fill="#031326" d="M49.6 12.6c-.3-2.6-2.4-5.6-4.8-6.7-1.3-.6-2.5-.6-3.5-.1-.2 0-.3.1-.5.2-1.7-.7-3.4-.6-4.7.2-1.4.6-6.6 3.3-7.8 3.9L9.7 11.4c-2.3-.4-4.3.1-5.9 1.4-2 1.6-3.2 4.3-3.3 7.8-.4 7.9 4.7 17.7 11.4 21.9 2.1 1.4 4.3 2 6.2 2 2.5 0 4.6-1.1 6.1-3.3l7.2-8.6c.9 1.5 2.5 2.5 4.3 2.6 2.9.1 5.4-2.1 5.5-5.1l.3-7.7c2.4-1.2 3.3-1.7 3.6-1.9 1.7-.6 2.7-2.2 2.8-4.4 1.2-.4 1.8-1.7 1.7-3.5zm-12.4-4l.2-.1.2-.1c.5-.3 1.2-.3 2.1 0 .4.2.9.5 1.3.8l-4 2c-.3-.3-.6-.5-.8-.7-.4-.3-.8-.5-1.2-.7 1.1-.7 2.1-1.1 2.2-1.2zm-8.5 4.1l.7-.2c.4-.2 1.8-1 3.4-1.7.5.2.9.5 1.4.8.2.2.4.3.6.5l-15.7 7c-1.5-2-3.3-3.7-5.2-5-.2-.1-.5-.3-.7-.4l15.5-1zm-17.9 9.2c1.3-.7 3.5.7 5 3.3 1.4 2.5 1.5 5.2.2 5.9-1.3.7-3.5-.7-5-3.3-1.5-2.5-1.6-5.1-.2-5.9zm2.8 10.2c1.2.8 2.4 1 3.3.6.1 0 .2-.1.3-.1 0 0 3.3-1.7 5.1-2.7-.2.8-.5 1.4-1.1 1.8-.2.1-.4.3-.7.3l-3.2 1.5c-.1 0-.2.1-.3.1-.9.4-2.1.2-3.3-.6-2.7-1.6-4.8-5.4-4.7-8.3 0-.4.1-.7.2-1.1-.1 3.1 1.9 6.8 4.4 8.5zM3.1 20.7c.1-2.6.9-4.7 2.3-5.8.8-.6 1.8-1 2.9-1 .4 0 .7 0 1.1.1h.2l2.1-.2c.6.3 1.2.6 1.8 1 1 .7 2 1.5 3 2.4-1.3.7-5.5 2.9-5.5 2.9-.1.1-.3.1-.4.2-2.6.6-5.3 1.9-7.2 4.7-.2-1.5-.4-2.9-.3-4.3zm20.6 13.8c-.1 1.8-.5 3.4-1.2 4.6l-.5.6-.1.1c-.2.3-.4.6-.6.8-.3.3-.6.5-1 .7-1.3.6-2.7.7-4.3.3-.9-.3-1.8-.7-2.8-1.3-4.6-2.9-8.3-8.8-9.6-14.6 1.6-2.6 3.9-4 6.2-4.6-.2.3-.3.6-.4 1-.5.6-.9 1.5-.9 2.6-.1 3.1 2.1 7.1 5 8.8.9.5 1.8.8 2.6.8.4 0 .8-.1 1.1-.2.1 0 .2-.1.3-.1l3.2-1.5c.3-.1.6-.2.9-.4.7-.5 1.2-1.4 1.3-2.5.1-.1.2-.1.3-.1.3 1.6.5 3.4.5 5zm8.8-7.4s0 .1 0 0l-8.4 10c.2-.8.3-1.7.4-2.6.2-4.8-1.8-10.5-5-14.9l15.8-7.1c1.7 1.7 3.1 4.3 3.8 7.1-1.4 1.6-3.3 3.8-5.8 6.6l-.5.6c-.2.1-.2.2-.3.3zm3.2 5.6c-1.2-.1-2.1-.9-2.4-1.9.7.5 1.6.8 2.5.8h.2c.8 0 1.6-.2 2.2-.6-.4 1-1.4 1.7-2.5 1.7zm2.8-2.5v.2c-.8.5-1.7.8-2.6.8-1 0-1.9-.4-2.6-1.1v-.6c.8.5 1.7.9 2.6.9h.2c.9 0 1.7-.3 2.5-.7l-.1.5zm.4-9.3l-.4 8c-.8.6-1.7.9-2.7.8-1 0-1.9-.4-2.6-1.1V27c2.5-2.8 4.5-5.1 5.9-6.8 0 .1.1.3.1.4l-.3.3zm.8-.4c-.8-3.9-2.8-7.5-5.2-9.3-.4-.3-.7-.5-1.1-.7.3-.2.6-.3.9-.5.5.2 1 .5 1.5.8 2.4 1.8 4.2 5.3 4.9 9.1-.3.3-.6.4-1 .6zm4.5-2.3l-.2.1-.1.1-2.6 1.3c-.6-3.2-2-6.2-3.8-8.2l4.2-2c1.8 1.5 3.2 3.8 3.6 6v.2c-.1.7 0 2.2-1.1 2.5zm2.2-4.1l-.2.1c-.1 0-.2.1-.3.2l-.4.2c-.7-2.1-2.1-4.1-3.8-5.6-.1-.1-.3-.2-.4-.3l.2-.1.3-.1.2-.2h.1c1.9 1.3 3.5 3.5 4.3 5.8zm.4-.4c-.8-2.2-2.4-4.3-4.2-5.6.2-.1.6 0 1 .2 1.6.7 3.1 2.9 3.2 4.6.1.1.1.5 0 .8z"/></svg>