<svg xmlns="http://www.w3.org/2000/svg" id="Camada_1" x="0" y="0" version="1.1" viewBox="0 0 50 50" xml:space="preserve"><style>.st2{fill:#031326}</style><path fill="#e589ef" d="M48.5 24.5c0-6.5-2.7-12.3-7-16.5L2.9 22c-.1.8-.1 1.6-.1 2.4 0 7.2 3.4 13.7 8.6 17.9L48 29c.3-1.5.5-3 .5-4.5z"/><path fill="#f799ff" d="M25.6 1.6c-11.8 0-21.5 9-22.7 20.4L41.5 8c-4.2-4-9.7-6.4-15.9-6.4z"/><path d="M24.1 17.4c.3.3.7.6 1 1 .3.4.7.6 1.1.6-.5-.8-.6-1.8-.8-2.7h.1c.1.2.2.5.3.7.1.3.2.6.3.8.2.8.3.8 1.1 1.2-.1-.6-.5-1.1-.4-1.7.1-.6.2-1.1.3-1.7h.2v1.1c-.3.9.2 1.5.7 2.2 0 .1.2.1.2.1.5 0 1 0 1.5-.1 0-.2-.1-.5-.1-.8-.1-.7.2-1.3.9-1.6.1 0 .1-.1.2-.2.1-.4.4-.5.8-.5s.6.2.8.6c0 0 0 .1.1.1.4-.7.7-1.5.2-2.2-.1-.2-.2-.3-.3-.5v-.2c.1 0 .2 0 .2.1.5.7.9 1.5.5 2.4-.1.2-.3.5-.3.7 0 .2.4.3.5.5.3.3.5.5.7.8.1.2.2.2.4.1 0 0 .1 0 .1-.1.9-.6 1.8-.4 2.6.2.1.1.1.2.2.3h-.3c-.1-.1-.3-.1-.4-.2-.8-.6-1.5-.3-2.2.1.2.2.4.4.6.7.2.4 0 .8-.4 1l-.3.3c-.3.6-.9.9-1.5.8-.3 0-.6-.1-.9-.2 0 .4.1.8 0 1.1-.1.4.1.6.4.9.5.4 1.1.6 1.7.4.4-.1.7 0 1.1 0-1.1.3-2.2.7-3.4-.1.1.6.4 1 .9 1.1.5.2 1 .3 1.5.5.1 0 .2.1.3.1-.5.2-2.4-.3-2.8-.8.2.5.2.8.6 1.1.4.3.7.7 1.1 1.1 0 0 0 .1-.1.1s-.2 0-.2-.1c-.4-.3-.9-.7-1.3-1.1-.3-.3-.4-.8-.6-1.1-.1-.1-.1-.2-.2-.3-.1-.1-.2-.1-.2-.2 0 .1-.1.2-.1.3 0 .3.1.5.1.8.4 2.6.8 5.2 1.1 7.9.2 2.3.3 4.6 0 6.9 0 .2-.1.4-.1.6-.1.2-.2.3-.4.1-.2-.1-.3-.3-.5-.5-1.1-1.4-2-2.9-2.6-4.6-.5-1.2-.7-2.5-.6-3.9 0-.4.1-.9.3-1.2.7-.9.9-1.9 1-3 .1-1 .2-2.1.3-3.1 0-.2 0-.3-.2-.4-.3-.1-.5-.2-.8-.3.6 1.2 0 2.1-.7 3-1.8 2.3-4 4.3-6.6 5.6-1.3.6-2.5 1.3-3.8 1.9-.1.1-.2.1-.4.1l.6-1.2c1-2.1 2.1-4.2 3.6-6.1 1.2-1.5 2.6-2.9 4.4-4 .7-.4 1.4-.6 2.2-.1-.2-.4-.3-.7-.5-1.1-.4 0-.8.1-1.2.1-.9.1-1.9.2-2.8.3-.7 0-1.3.2-1.8.6-1.1.5-2 .6-3 .5-2.8-.2-5-1.6-7.2-3.1-.2-.1-.3-.3-.5-.4-.2-.3-.2-.4.1-.5.4-.1.8-.1 1.2-.2 2.3-.2 4.6-.1 6.9.2 2.7.3 5.3.8 7.9 1.2h.1c.1 0 .2-.1.2-.1 0-.1-.1-.2-.1-.2-.2-.1-.5-.3-.7-.3-.9-.3-1.4-1.1-1.9-1.8v-.4c0 .1 0 .1 0 0z" class="st2"/><path d="M25 49.1C11.7 49.1.9 38.3.9 25S11.7.9 25 .9 49.1 11.7 49.1 25 38.3 49.1 25 49.1zm0-45.7C13.1 3.4 3.4 13.1 3.4 25S13.1 46.6 25 46.6c11.9 0 21.6-9.7 21.6-21.6S36.9 3.4 25 3.4z" class="st2"/><path d="M25 44.7C14.1 44.7 5.3 35.9 5.3 25S14.1 5.3 25 5.3c10.9 0 19.7 8.8 19.7 19.7S35.9 44.7 25 44.7zm0-37.9C14.9 6.8 6.8 14.9 6.8 25S14.9 43.2 25 43.2 43.2 35 43.2 25 35.1 6.8 25 6.8z" class="st2"/></svg>