<svg xmlns="http://www.w3.org/2000/svg" id="Camada_1" x="0" y="0" version="1.0" viewBox="0 0 50 50" xml:space="preserve"><style>.st2{fill:#031326}</style><switch><g><path fill="#c05e80" d="M49.1 24.4c0-6.6-2.8-12.6-7.2-16.9L2.2 22c-.1.8-.1 1.6-.1 2.5 0 7.4 3.5 14.1 8.9 18.4l37.7-13.7c.3-1.6.4-3.2.4-4.8z"/><path fill="#d7698d" d="M25.4 1.9C13 1.9 2.9 11.3 1.6 23.3L41.9 8.6c-4.3-4.1-10.1-6.7-16.5-6.7z"/><path d="M24.1 17.2c.3.3.7.6 1 1 .3.4.7.6 1.2.7-.5-.9-.6-1.8-.8-2.8h.1c.1.2.2.5.3.7l.3.9c.3.8.3.9 1.2 1.2-.1-.6-.6-1.1-.4-1.8l.3-1.8h.2v1.1c-.3.9.2 1.6.7 2.2 0 .1.2.1.2.1.5 0 1 0 1.5-.1 0-.2-.1-.5-.1-.8-.1-.7.2-1.3.9-1.7.1 0 .2-.1.2-.2.1-.4.4-.5.8-.5s.7.2.8.6c0 0 0 .1.1.1.4-.8.7-1.5.2-2.3-.1-.2-.2-.3-.3-.5v-.2c.1 0 .2 0 .2.1.5.8 1 1.5.5 2.4-.1.2-.3.5-.3.7 0 .2.4.3.6.5.3.3.5.5.7.8.1.2.2.2.4.1 0 0 .1 0 .1-.1 1-.6 1.9-.4 2.7.2.1.1.1.2.2.3h-.3c-.1-.1-.3-.1-.4-.2-.8-.6-1.6-.3-2.2.1.2.2.4.4.6.7.2.4 0 .8-.4 1l-.3.3c-.3.7-.9.9-1.6.8-.3 0-.6-.1-.9-.2 0 .4.1.8 0 1.1-.1.5.1.6.4.9.5.4 1.1.6 1.8.4.4-.1.8 0 1.1 0-1.2.3-2.3.7-3.5-.1.1.6.4 1 .9 1.2.5.2 1 .3 1.6.5.1 0 .2.1.3.1-.5.2-2.4-.4-2.9-.8.2.5.2.9.6 1.2.4.3.8.7 1.1 1.1 0 0 0 .1-.1.1s-.2 0-.3-.1c-.5-.4-1-.7-1.3-1.1-.3-.3-.4-.8-.6-1.2-.1-.1-.1-.3-.2-.4-.1-.1-.2-.1-.2-.2 0 .1-.1.2-.1.3 0 .3.1.5.1.8.4 2.7.9 5.4 1.2 8.1.3 2.3.3 4.7 0 7 0 .2-.1.4-.1.7-.1.3-.2.3-.4.1-.2-.1-.3-.3-.5-.5-1.1-1.5-2-3-2.7-4.7-.5-1.3-.7-2.6-.6-4 0-.4.1-.9.4-1.2.7-.9.9-2 1-3.1.1-1.1.2-2.1.3-3.2 0-.2 0-.3-.3-.4-.3-.1-.5-.2-.8-.3.6 1.2 0 2.2-.7 3.1-1.9 2.4-4.1 4.4-6.8 5.8-1.3.7-2.6 1.3-3.9 1.9-.1.1-.2.1-.4.1.2-.4.4-.8.6-1.3 1-2.2 2.1-4.4 3.7-6.2 1.3-1.6 2.7-3 4.5-4.1.7-.4 1.4-.6 2.2-.2-.2-.4-.3-.7-.5-1.1-.4 0-.9.1-1.3.1-1 .1-1.9.2-2.9.3-.7 0-1.4.2-1.9.6-.9.7-1.8.7-2.9.6-2.8-.2-5.2-1.6-7.4-3.2-.2-.1-.3-.3-.5-.4-.3-.3-.2-.4.1-.5.4-.1.8-.1 1.2-.2 2.4-.2 4.8-.1 7.1.2 2.7.3 5.4.8 8.2 1.2h.1c.1 0 .2-.1.2-.1 0-.1-.1-.2-.1-.2-.2-.1-.5-.3-.7-.3-1-.3-1.5-1.1-2-1.9-.2.4-.2.3-.1.1 0 .1 0 .1 0 0z" class="st2"/><path d="M25 49.8C11.3 49.8.2 38.7.2 25S11.3.2 25 .2 49.8 11.3 49.8 25 38.7 49.8 25 49.8zm0-47.1C12.7 2.7 2.7 12.7 2.7 25s10 22.3 22.3 22.3 22.3-10 22.3-22.3S37.3 2.7 25 2.7z" class="st2"/><path d="M25 45.2c-11.2 0-20.2-9-20.2-20.2S13.8 4.8 25 4.8s20.2 9 20.2 20.2-9 20.2-20.2 20.2zm0-38.9C14.7 6.3 6.3 14.7 6.3 25c0 10.3 8.4 18.7 18.7 18.7S43.7 35.3 43.7 25c0-10.3-8.4-18.7-18.7-18.7z" class="st2"/></g></switch></svg>