<svg xmlns="http://www.w3.org/2000/svg" id="Camada_1" x="0" y="0" version="1.0" viewBox="0 0 50 50" xml:space="preserve"><style>.st2{fill:#031326}</style><switch><g><path fill="#70c6df" d="M48.8 24.7c0-6.6-2.8-12.6-7.2-16.9L1.9 22.2c-.1.8-.1 1.6-.1 2.5 0 7.4 3.5 14.1 8.9 18.4l37.7-13.7c.3-1.5.4-3.1.4-4.7z"/><path fill="#7dddfa" d="M25.4 2C13 2 2.8 11.4 1.5 23.4L42 8.7C37.7 4.6 31.8 2 25.4 2z"/><path d="M23.8 17.5c.3.3.7.6 1 1 .3.4.7.6 1.2.7-.5-.9-.6-1.8-.8-2.8h.1c.1.2.2.5.3.7l.3.9c.3.8.3.9 1.2 1.2-.1-.6-.6-1.1-.4-1.8l.3-1.8h.2v1.1c-.3.9.2 1.6.7 2.2 0 .1.2.1.2.1.5 0 1 0 1.5-.1 0-.2-.1-.5-.1-.8-.1-.7.2-1.3.9-1.7.1 0 .2-.1.2-.2.1-.4.4-.5.8-.5s.7.2.8.6c0 0 0 .1.1.1.4-.8.7-1.5.2-2.3-.4-.1-.5-.3-.5-.5v-.2c.1 0 .2 0 .2.1.5.8 1 1.5.5 2.4-.1.2-.3.5-.3.7 0 .2.4.3.6.5.3.3.5.5.7.8.1.2.2.2.4.1 0 0 .1 0 .1-.1 1-.6 1.9-.4 2.7.2.1.1.1.2.2.3h-.3c-.1-.1-.3-.1-.4-.2-.8-.6-1.6-.3-2.2.1.2.2.4.4.6.7.2.4 0 .8-.4 1l-.3.3c-.3.7-.9.9-1.6.8-.3 0-.6-.1-.9-.2 0 .4.1.8 0 1.1-.1.5.1.6.4.9.5.4 1.1.6 1.8.4.4-.1.8 0 1.1 0-1.2.3-2.3.7-3.5-.1.1.6.4 1 .9 1.2.5.2 1 .3 1.6.5.1 0 .2.1.3.1-.5.2-2.4-.4-2.9-.8.2.5.2.9.6 1.2.4.3.8.7 1.1 1.1 0 0 0 .1-.1.1s-.2 0-.3-.1c-.5-.4-1-.7-1.3-1.1-.3-.3-.4-.8-.6-1.2-.1-.1-.1-.3-.2-.4-.1-.1-.2-.1-.2-.2 0 .1-.1.2-.1.3 0 .3.1.5.1.8.4 2.7.9 5.4 1.2 8.1.3 2.3.3 4.7 0 7 0 .2-.1.4-.1.7-.1.3-.2.3-.4.1-.2-.1-.3-.3-.5-.5-1.1-1.5-2-3-2.7-4.7-.5-1.3-.7-2.6-.6-4 0-.4.1-.9.4-1.2.7-.9.9-2 1-3.1.1-1.1.2-2.1.3-3.2 0-.2 0-.3-.3-.4-.3-.1-.5-.2-.8-.3.6 1.2 0 2.2-.7 3.1-1.8 2.7-4.1 4.7-6.8 6.1-1.3.7-2.6 1.3-3.9 1.9-.1.1-.2.1-.4.1.2-.4.4-.8.6-1.3 1-2.2 2.1-4.4 3.7-6.2 1.3-1.6 2.7-3 4.5-4.1.7-.4 1.4-.6 2.2-.2-.2-.4-.3-.7-.5-1.1-.4 0-.9.1-1.3.1-1 .1-1.9.2-2.9.3-.7 0-1.4.2-1.9.6-.9.7-1.8.7-2.9.6-2.8-.2-5.2-1.6-7.4-3.2-.2-.1-.3-.3-.5-.4-.3-.3-.2-.4.1-.5.4-.1.8-.1 1.2-.2 2.4-.2 4.8-.1 7.1.2 2.7.3 5.4.8 8.2 1.2h.1c.1 0 .2-.1.2-.1 0-.1-.1-.2-.1-.2-.2-.1-.5-.3-.7-.3-1-.3-1.5-1.1-2-1.9l.1-.2c-.1.1 0 0 0 0z" class="st2"/><path d="M24.7 50C11 50-.1 38.9-.1 25.3-.1 11.6 11 .5 24.7.5s24.8 11.1 24.8 24.8C49.5 38.9 38.3 50 24.7 50zm0-47C12.4 3 2.4 13 2.4 25.3s10 22.3 22.3 22.3C37 47.5 47 37.6 47 25.3S37 3 24.7 3z" class="st2"/><path d="M24.7 45.5c-11.2 0-20.2-9.1-20.2-20.2S13.5 5 24.7 5s20.2 9.1 20.2 20.2-9 20.3-20.2 20.3zm0-39C14.4 6.5 6 14.9 6 25.2S14.4 44 24.7 44c10.3 0 18.7-8.4 18.7-18.7S35 6.5 24.7 6.5z" class="st2"/></g></switch></svg>