<svg xmlns="http://www.w3.org/2000/svg" version="1" viewBox="0 0 50 50"><path fill="#AFE55D" d="M47.085 8.366V34.21L11.703 47.086H8.364a5.448 5.448 0 01-5.448-5.447V8.366a5.442 5.442 0 015.448-5.448h33.273a5.448 5.448 0 015.448 5.448z"/><path fill="#C3FF68" d="M45.701 4.737L2.917 20.302V8.366a5.442 5.442 0 015.448-5.448h33.273a5.45 5.45 0 014.063 1.819z"/><path fill="#031326" d="M41.638 1.665H8.362a6.704 6.704 0 00-6.697 6.697v33.276a6.704 6.704 0 006.697 6.697h16.639a1.25 1.25 0 000-2.5H8.362a4.202 4.202 0 01-4.197-4.197v-3.909a16.298 16.298 0 013.561-1.563 16.296 16.296 0 0117.821 5.92.125.125 0 00.175.027.125.125 0 00.026-.175 16.514 16.514 0 00-1.541-1.794c.078-.077.161-.143.239-.219h22.65a.125.125 0 000-.25H24.72c1.423-1.31 2.966-2.337 4.397-2.979 2.797-1.261 5.131-1.492 5.131-1.492-.331-.32-.608-.839-.795-1.259l1.001-.555h11.382v.819a1.25 1.25 0 002.5 0V8.362a6.706 6.706 0 00-6.698-6.697zm4.197 18.511h-7.661a22.57 22.57 0 00-.13-4.221c.521-1.884.831-3.808.927-5.743h6.864v9.964zm-7.611 9.463c-.02 0-.038.005-.058.006a4.57 4.57 0 01-2.898-1.096c1.882-2.55 2.672-5.413 2.887-8.116.024 0 .045-.007.069-.007a4.617 4.617 0 014.612 4.612 4.614 4.614 0 01-4.554 4.606c-.02 0-.039-.005-.058-.005zm-.271-14.351c-.375-2.518-1.034-4.424-1.278-5.076h2.046a26.162 26.162 0 01-.768 5.076zm-11.177 4.839v.002a14.52 14.52 0 00-2.605-.227c-1.092 0-1.984.113-2.604.227v-.002c-1.808-5.812-7.458-9.024-9.244-9.915h23.724c-1.748.865-7.452 4.069-9.271 9.915zm8.338 8.618c.48.404 1.034.711 1.646.906h-2.403c.268-.297.521-.599.757-.906zm3.226 1.156c.842.061 1.51.757 1.51 1.614a1.627 1.627 0 01-3.252 0c0-.857.668-1.554 1.51-1.614h.232zm4.746-4.862c0-2.168-1.436-3.988-3.4-4.613h6.149v9.225h-6.147c1.963-.626 3.398-2.445 3.398-4.612zm2.749-16.677v1.6h-6.86a26.249 26.249 0 00-.415-5.797h3.077a4.202 4.202 0 014.198 4.197zM8.362 4.165h29.943c.356 1.918.498 3.861.42 5.797H11.8l-.037-.016s-5.406 13.081 3.394 20.872l-.297 1.368c-.166.718-1.196 1.078-1.196 1.078l1.228.681c-.14.313-.394.783-.651 1.135a26.087 26.087 0 01-10.076-1.32V8.362a4.202 4.202 0 014.197-4.197zm-.708 31.761a16.608 16.608 0 00-3.489 1.519v-3.429a26.332 26.332 0 006.6 1.3 16.455 16.455 0 00-3.111.61zm26.747-2.786c-.318-.16-.807-.475-.917-.953l-.297-1.367c.337-.298.646-.606.942-.919h3.156a1.872 1.872 0 00-.937 1.614c0 .699.389 1.303.958 1.625h-2.905zm4.741 0c.569-.322.958-.926.958-1.625 0-.69-.38-1.289-.937-1.614h6.672v3.239h-6.693z"/></svg>