<svg xmlns="http://www.w3.org/2000/svg" id="Camada_3" x="0" y="0" version="1.1" viewBox="0 0 50 50" xml:space="preserve"><style>.st3{stroke-width:.5}.st3,.st4{fill:none;stroke:#444;stroke-linecap:round;stroke-linejoin:round;stroke-miterlimit:10}</style><path fill="#fdcf72" d="M46 2.6H4.28c-1.12 0-2.03.91-2.03 2.03V21.1L48.03 4.8v-.17c0-1.13-.9-2.03-2.03-2.03z"/><path fill="#fcc34f" d="M2.25 21.09v24.69L48.03 29.5V4.8z"/><path fill="none" stroke="#444" stroke-linecap="round" stroke-linejoin="round" stroke-miterlimit="10" stroke-width="2.5" d="M25.2 48H5.73c-1.87 0-3.39-1.58-3.39-3.54V5.55C2.34 3.6 3.86 2 5.73 2h39.01c1.87 0 3.39 1.58 3.39 3.54v25.89"/><path d="M25.19 34.36v2.84m2.13 2.13H33m-9.94 0h-5.68" class="st3"/><circle cx="25.19" cy="39.33" r="2.13" class="st4"/><circle cx="35.13" cy="39.33" r="2.13" class="st4"/><circle cx="15.25" cy="39.33" r="2.13" class="st4"/><path d="M29.79 10.18l-2.45 2.45c-.28.28-.66.44-1.05.44H10.97c-.82 0-1.49.67-1.49 1.49v17.77c0 .82.67 1.49 1.49 1.49h28.56c.82 0 1.49-.67 1.49-1.49v-21.1c0-.82-.67-1.49-1.49-1.49h-8.68c-.4 0-.78.16-1.06.44z" class="st4"/><path fill="#444" d="M14.96 12.92h3.55v1.3h-3.55zm0 18.71h3.55v2.36h-3.55zM9.48 13.47h2.77v7.24H9.48zm1.57 20.44l-1.57-.87v-3.83h2.77v4.78zM9.48 23.23h2.77v3.55H9.48zm20.44-12.88l-.4.45-3.23 2.26.02 3.33c1.38.2 2.62.81 3.61 1.7v-7.74zm0 19.6v-1.59a6.88 6.88 0 01-3.02 1.59h3.02zM18.4 22.71h-3.44v7.24h3.55v-5.39c-.08-.43-.13-.88-.13-1.34-.01-.17 0-.34.02-.51zm-3.44-5.98h3.55v3.55h-3.55zm9.38-3.26h-3.55v4.5c.98-.84 2.2-1.41 3.55-1.59v-2.91zm-3.55 15.74v4.6h.57l1.78.1 1.2.08v-3.92c-.91-.12-1.75-.42-2.51-.86h-1.04zm11.45-15.74l-.1 8.79c.04.31.07.63.07.96 0 .38-.04.75-.1 1.12L32 33.97l3.79-.3v-20.2h-3.55zm6.09-2.36h2.69v3.1h-2.69zm1.2 22.86h-1.19v-2.34h2.69v.85c-.01.82-.68 1.49-1.5 1.49zm-1.2-11.26h2.69v7.24h-2.69zm0-5.98h2.69v3.55h-2.69zm-6.21-7.15h3.55v2.43h-3.55zm-5.75 21.83h3.55v2.4h-3.55z"/><path d="M24.09 18.58v5.41h-2.41l3.61 4.21 3.61-4.21h-2.41v-5.41" class="st3"/><circle cx="25.29" cy="23.39" r="6.92" fill="none" stroke="#444" stroke-miterlimit="10"/></svg>