<svg xmlns="http://www.w3.org/2000/svg" id="Camada_3" x="0" y="0" version="1.1" viewBox="0 0 50 50" xml:space="preserve"><style>.st3{fill:none;stroke:#444;stroke-width:.5;stroke-linecap:round;stroke-linejoin:round;stroke-miterlimit:10}.st4{stroke-width:2.5}.st4,.st5{fill:none;stroke:#444;stroke-linecap:round;stroke-linejoin:round;stroke-miterlimit:10}</style><path fill="#00dffc" d="M42.06 5.23c-1.32-.16-1.92 2.28-3.3 2.28s-8.37-3.4-9.69-3.24c-2.39.31-6.13 8.19-8.19 8.67-3.11.73-7.79-.41-11.91-4.14-3.12 2.71-4.47 2.37-7.25 5.87-.89 1.12 3.24 1.56 2.9 3.31l-.71 5.68L45.17 8.99l-.74-1.57c-.42-.63-1.2-1.62-2.37-2.19z"/><path fill="#00c8e2" d="M45.17 8.99L4.68 22.26c-.26 1.34-.5.72-.5 2.14 0 6.73 1.31 7.77 3.83 10.79l8.05 6.56 29.69-10.56.17-2.77c.26-1.34-.17-11.95-.17-13.36 2.04-2.57 4.21-2.08-.58-6.07z"/><path fill="none" stroke="#444" stroke-miterlimit="10" stroke-width="2.5" d="M20.8 44.08S-1.98 35.56 5.32 17.71"/><path d="M6.32 12.38l1.48-2.7a.8.8 0 011.4 0l1.48 2.7c.07.13.18.24.32.32l2.7 1.48a.8.8 0 010 1.4L11 17.06a.82.82 0 00-.32.32l-1.48 2.7a.8.8 0 01-1.4 0l-1.48-2.7a.708.708 0 00-.32-.32l-2.7-1.48a.8.8 0 010-1.4L6 12.7c.14-.07.25-.18.32-.32zm33.19-2.92l1.48-2.7a.8.8 0 011.4 0l1.48 2.7c.07.13.18.24.32.32l2.7 1.48a.8.8 0 010 1.4l-2.7 1.48a.82.82 0 00-.32.32l-1.48 2.7a.8.8 0 01-1.4 0l-1.48-2.7a.82.82 0 00-.32-.32l-2.7-1.48a.8.8 0 010-1.4l2.7-1.48c.14-.07.25-.18.32-.32z" class="st3"/><path d="M5.23 17.95c-8.59-3.66.05-6.15.05-6.15l1.47-2.53c2.58-3.89 4.89 2.56 4.89 2.56s9.52 5.38 12.42-1.66 10.25-7.84 14.55-1.22l1.27-2.52s.59-1.26 1.72-1.26 1.7 1.08 1.7 1.08l1.34 2.44 2.67 1.52s1.27.86 1.27 2.04-3.71 2.81-3.71 2.81" class="st4"/><path d="M44.87 15.05s.18.37.85 9.08c.37 4.79-1.71 10.32-1.71 10.32m-11.29 9.9s3.53-1.33 5.81-2.88" class="st4"/><path d="M35.57 35.33l.14-.73V24.2c0-1.13-.93-2.06-2.06-2.06-1.02 0-1.87.76-2.03 1.74v-1.85c0-1.13-.93-2.06-2.06-2.06s-2.06.93-2.06 2.06V20.7c0-1.13-.93-2.06-2.06-2.06s-2.06.93-2.06 2.06v2.16c0-1.13-.93-2.06-2.06-2.06s-2.06.93-2.06 2.06v9.99l-1.45-1.92c-.68-.9-1.98-1.08-2.88-.4-.9.68-1.08 1.98-.4 2.88l6.28 8.31v3.37m14.22-7.91c.37-1.07.54-1.85.54-1.85l-.54 1.85z" class="st5"/><path d="M35.03 37.18c-.46 1.35-2 2.91-3.15 4.26v3.65l.77.25c.72.44 1.16 1.3.94 2.24-.22.96-1.16 1.58-2.14 1.58H21.32c-.97 0-1.87-.62-2.09-1.56-.29-1.2.5-2.29 1.59-2.52h6.68m-4.12-22.22v6.76m4.12-7.59v7.59m4.12-5.75v5.75m-1.11 15.47h1.37" class="st5"/><path d="M8.74 24.98l4.49-4.49m-4.49 8L13.23 24m-2.25 5.56l6.26-6.26m18.46 2.02l4.5-4.49m-4.5 7.85l4.5-4.5" class="st3"/></svg>