<svg xmlns="http://www.w3.org/2000/svg" id="Camada_3" x="0" y="0" version="1.1" viewBox="0 0 50 50" xml:space="preserve"><style>.st2{fill:none;stroke:#44444;stroke-miterlimit:10;stroke-linecap:round;stroke-linejoin:round}</style><path fill="#fdcf72" d="M29.22 7.01l-2.75.88c-1.18 0-23.86 9.32-23.86 10.51l-.86 8.3 39.33-13.19v-.19c0-1.17-10.67-6.31-11.86-6.31z"/><path fill="#fcc34f" d="M1.32 26.92l9.46 6.87-.38 5.19 37.56-13.36.72-4.09-.79-5.09-6.34-3.84z"/><path d="M11.97 33.21l-7.31-4.02a3.946 3.946 0 01-2.04-3.62l.16-4c.06-1.5.96-2.83 2.32-3.45l21.69-9.8c1.42-.64 3.05-.58 4.41.17l15.66 8.62c1.43.79 1.34 2.86-.14 3.53l-21.69 9.8c-.55.25-1.19.23-1.73-.05L6.45 21.64a.981.981 0 00-1.44.84l-.12 3.14s.04 1.36 1.04 1.92c1.38.93 6.05 3.42 6.05 3.42m6.38 5.77l4.58 2.52c.54.3 1.2.33 1.77.07l15.34-6.43" class="st2"/><path d="M46.3 21.04l-.17 4.34s.07 1.32-1.36 2.24c-1.46.93-3.82 1.95-3.82 1.95s-14.19 6.35-15.69 6.8c-1.5.44-2.65-.18-2.65-.18l-4.14-2.21" class="st2"/><path fill="none" stroke="#444" stroke-linecap="round" stroke-linejoin="round" stroke-miterlimit="10" stroke-width=".5" d="M17.78 42.28l-2.83-3.6-2.98.35.39-9.87 5.81 3.25z"/><path fill="none" stroke="#444" stroke-linecap="round" stroke-linejoin="round" stroke-miterlimit="10" stroke-width="2.5" d="M46.79 29.87c3.44-1.84.62-4.59.62-4.59l.03-3.69c1.33-1.24 1.38-2.5 1.1-3.45-.26-.88-.9-1.59-1.71-2.03-3.01-1.65-13.41-7.35-15.31-8.41-1.11-.62-2.37-.73-3.36-.69a6.9 6.9 0 00-2.56.64c-3.91 1.75-19.7 8.8-21.67 9.7-2.26 1.02-2.27 3.91-2.27 3.91v3.29c-.03.7.02 1.31.13 1.85.3 1.48 1.28 2.72 2.59 3.45l6.79 3.76-.22 5.26c-.03.66.52 1.2 1.18 1.16l2.39-.13 2.14 2.65c.65.8 1.94.42 2.05-.61l.41-3.89 2.89 1.72s1.18 1.22 4.47-.29 13.83-5.96 13.83-5.96"/><path fill="none" stroke="#444" stroke-miterlimit="10" stroke-width=".5" d="M18.12 33.49l1.08.6m-8.04-3.3l1.08.6m5.69 4.83l1.07.6"/><path fill="#444" d="M6.96 22.2l-1.53-.98L32.36 9.2l1.46.74 1.35.99L8.63 22.77zm26.78-6.45l-3.01-1.64 5.44-2.43 3.16 1.57zm-12.83 5.78l-2.89-1.69 6.75-3.01 2.82 1.66-6.68 3.04zm8.53-3.87l-2.96-1.65 2.48-1.11 3 1.64zm-12.33 5.72l-2.96-1.65 2.49-1.11 3 1.64zm-4.09 1.89l-2.96-1.66 2.49-1.11 3 1.65zm3.52 1.69l-1.52-.98 26.93-12.02 1.45.74 1.36.99-26.55 11.85zm26.78-6.45l-3.01-1.64 5.45-2.43 2.21 2zM30.5 26.3l-2.9-1.7 6.75-3.01 2.82 1.67-6.67 3.04zm8.53-3.87l-2.97-1.66 2.49-1.11 3 1.64zM26.7 28.15l-2.97-1.66 2.49-1.11 3 1.64zm-4.09 1.89l-2.96-1.66 2.48-1.11 3 1.64z"/></svg>