<svg xmlns="http://www.w3.org/2000/svg" viewBox="0 0 50 50"><path fill="#f56991" d="M45.81 2.65H4.09c-1.12 0-2.03.91-2.03 2.03v16.47l45.78-16.3v-.17c0-1.12-.91-2.03-2.03-2.03z"/><path fill="#dc5e82" d="M2.06 21.14v24.7l45.78-16.29V4.85z"/><path fill="none" stroke="#444" stroke-linecap="round" stroke-linejoin="round" stroke-miterlimit="10" stroke-width="2.5" d="M25.01 48.05H5.54c-1.87 0-3.39-1.58-3.39-3.54V5.6c0-1.95 1.52-3.54 3.39-3.54h39.01c1.87 0 3.39 1.58 3.39 3.54v25.89"/><path fill="none" stroke="#444" stroke-linecap="round" stroke-linejoin="round" stroke-miterlimit="10" d="M28.93 8.24l-2.43 2.43c-.28.28-.65.43-1.04.43H10.27c-.81 0-1.48.66-1.48 1.48v17.61c0 .81.66 1.48 1.48 1.48h28.31c.81 0 1.48-.66 1.48-1.48V9.28c0-.81-.66-1.48-1.48-1.48h-8.61c-.39.01-.76.16-1.04.44zM14.6 37.25H8.49c-.82 0-1.49.67-1.49 1.49v2.32c0 .82.67 1.49 1.49 1.49h6.11c.82 0 1.49-.67 1.49-1.49v-2.32c0-.82-.67-1.49-1.49-1.49zm25.77 0h-6.11c-.82 0-1.49.67-1.49 1.49v2.32c0 .82.67 1.49 1.49 1.49h6.11c.82 0 1.49-.67 1.49-1.49v-2.32c0-.82-.67-1.49-1.49-1.49zm-12.89 0h-6.11c-.82 0-1.49.67-1.49 1.49v2.32c0 .82.67 1.49 1.49 1.49h6.11c.82 0 1.49-.67 1.49-1.49v-2.32c0-.82-.66-1.49-1.49-1.49z"/><path fill="none" stroke="#444" stroke-linecap="round" stroke-linejoin="round" stroke-miterlimit="10" stroke-width=".5" d="M24.43 37.25v-5.59m-2.28 2.46h-9.57c-.58 0-1.04.39-1.04.86v2.27m25.77 0v-2.27c0-.48-.47-.86-1.04-.86H22.15"/><path fill="#444" d="M29.05 27.83h-3.51l-.08-16.73 3.2-2.25.39-.44zM14.22 10.95h3.51v1.29h-3.51zm0 18.55h3.51v2.34h-3.51zm0-8.84h3.51v7.18h-3.51zm0-5.93h3.51v3.51h-3.51zm5.79-3.23h3.51v7.18h-3.51zm2.33 20.26l-1.77-.1h-.56V27.1h3.51v4.74zm-2.33-10.59h3.51v3.51h-3.51zM8.8 11.5h2.74v7.18H8.8zm1.56 20.26l-1.56-.87V27.1h2.74v4.74zM8.8 21.17h2.74v3.51H8.8zm26.07 10.35l-3.76.3.24-20.32h3.52zm2.52-22.36h2.66v3.07h-2.66zm1.17 22.66h-1.17V29.5h2.66v.83c0 .82-.66 1.49-1.49 1.49zm-1.17-11.16h2.66v7.18h-2.66zm0-5.93h2.66v3.51h-2.66zm-6.16-7.08h3.51v2.41h-3.51zm-5.69 21.63h3.51v2.38h-3.51z"/></svg>