<svg xmlns="http://www.w3.org/2000/svg" id="Camada_3" x="0" y="0" version="1.1" viewBox="0 0 50 50" xml:space="preserve"><style>.st2{fill:#444}.st3{fill:none;stroke:#444;stroke-miterlimit:10}</style><path fill="#f56991" d="M21.89 1.82l-6.53 14.15c-1.2 0-7.24-.38-7.24.82l-.87 4.09L42.21 8.82l-7.6-2.84c0-1.2-11.52-4.16-12.72-4.16z"/><path fill="#dc5e82" d="M3.54 25.36l-.61 2.42 4.79 19.34 41.01-14.59-3.62-5.41-.96-9.36c-1.81-.97-.33-7.68-2.58-8.73L7.26 20.88c-.06 2.7-3.63 3.67-3.72 4.48z"/><path d="M18.33 25.04l-3.44-.94 6.72-18 3.13 1.12z" class="st2"/><path d="M34.71 9.66h3.32v17.62h-3.32z" class="st2" transform="rotate(19.797 36.372 18.464)"/><path d="M27.15 6.43h3.32v2.91h-3.32z" class="st2" transform="rotate(19.797 28.807 7.88)"/><path d="M22.81 16.54h3.32v6.79h-3.32z" class="st2" transform="rotate(19.797 24.467 19.935)"/><path d="M25.29 11.37h3.32v3.32h-3.32z" class="st2" transform="rotate(19.797 26.954 13.027)"/><path d="M30.89 10.25h3.32v6.79h-3.32z" class="st2" transform="rotate(19.797 32.548 13.642)"/><path d="M27.72 28.66l-1.26-1.44-.38-.51 1.06-2.94 3.13 1.12-1.6 4.45z" class="st2"/><path d="M28.38 18.95h3.32v3.32h-3.32z" class="st2" transform="rotate(19.797 30.038 20.615)"/><path d="M10.88 47.42c-1.16 0-2.18-.87-2.48-1.98L3.63 27.7c-.44-1.63.79-3.23 2.47-3.23h17.37c.8 0 1.56.38 2.04 1.02l2.14 2.83c.48.64 1.24 1.02 2.04 1.02h15.03c1.69 0 3.11 1.16 2.66 3.31" class="st3"/><path d="M8.13 24.48v-5.11a2.58 2.58 0 012.58-2.58h5.62m23.98 0h.93a2.58 2.58 0 012.58 2.58v9.98" class="st3"/><path fill="none" stroke="#444" stroke-miterlimit="10" stroke-width=".5" d="M13.35 24.48l7.94-21.07c.18-.47.7-.7 1.16-.53l19.3 7.21c.46.17.7.68.54 1.15l-6.45 18.1"/><path fill="none" stroke="#444" stroke-linecap="round" stroke-linejoin="round" stroke-miterlimit="10" d="M28.28 34.01l14.97-.07m-14.93 4.7l13.75-.07m-13.7 4.73l12.48-.06"/><path fill="none" stroke="#444" stroke-linecap="round" stroke-miterlimit="10" stroke-width="2.5" d="M45.34 42.79c1.04-3.92 2.74-9.97 2.74-9.97s1.08-4.07-3.44-4.36l.07-9.78s-.02-1.99-2.81-2.84l1.23-3.41c.32-.87.32-1.85-.09-2.68-.19-.39-.46-.74-.83-.94-1.13-.58-18.57-6.75-18.57-6.75s-2.47-.99-3.4 1c-1.05 2.25-4.88 12.91-4.88 12.91l-5.51.11s-2.59.2-2.59 2.99-.07 4.5-.07 4.5l-1.25-.01c-.75 0-1.47.24-2.05.72-.84.69-1.72 1.93-1.19 3.93l5.07 17.95s.27 2.18 4 2c2.81-.14 18.54-.09 25.88-.06"/></svg>