<svg xmlns="http://www.w3.org/2000/svg" id="Layer_1" x="0" y="0" version="1.1" viewBox="0 0 50 50" xml:space="preserve"><style>.st0{fill:#fcc34f}.st1{fill:#fdcf72}.st2{fill:#494949}</style><circle cx="35.5" cy="34.2" r="3.5" class="st0"/><ellipse cx="35.7" cy="41.2" class="st0" rx="4.7" ry="2.8"/><path d="M44.4 8.1c-1.5-2.2-3.9-3.7-6.6-4.3l-3.6 1.3-3.1 1.1-3.6 1.3-.2.1L23.6 9l-4.4 1.6-8.6 3.1-1.6.6-1.4.5v2.4c-1.8 1.4-3 3.3-3.6 5.4-.8 2.9-.4 6.2 1.4 8.9.6.8 1.4 1.5 2.2 2.2v1.8L9 35l1.6-.6.7-.2 3.1-1.1 3.8-1.4 3.9-1.4L39.5 24l1.6-.6 1.4-.5v-.3c2.5-2 4-5 4-8.3-.1-2.4-.8-4.5-2.1-6.2zM19.6 30.8c-.4-1.5-1.4-2.7-2.7-3.5 1.9-1.5 2.3-4.2.8-6.2-1.5-1.9-4.2-2.3-6.2-.8-1.9 1.5-2.3 4.2-.8 6.2.2.3.5.6.8.8-1.3.7-2.3 2-2.7 3.5-2.6-2.6-2.9-6.7-.9-9.6.3-.4.6-.8.9-1.1 2-2 4.9-2.7 7.5-1.9 1.2.4 2.3 1 3.3 1.9 2.9 2.9 2.9 7.7 0 10.7zm18.9-14.7c1.9-1.5 2.3-4.2.8-6.2-1.5-1.9-4.2-2.3-6.2-.8-1.2.9-1.8 2.3-1.7 3.6 0 .9.3 1.8.9 2.6.2.3.5.6.8.8-1.3.7-2.3 2-2.7 3.5-1.5-1.6-2.3-3.7-2.2-5.7.1-1.8.8-3.7 2.2-5.1 3-2.9 7.8-2.9 10.8.1l.3.3c2.7 3 2.6 7.5-.3 10.4-.4-1.5-1.4-2.8-2.7-3.5z" class="st0"/><path d="M39.3 9.9l-1.6.6-4.6 1.7-1.7.6c0-1.4.6-2.7 1.7-3.6 2-1.6 4.7-1.2 6.2.7z" class="st1"/><path d="M44.4 8.1l-1.3.5-1.6.6-.3-.3c-3-3-7.8-3-10.8-.1-1.4 1.4-2.2 3.2-2.2 5.1l-1.6.6-8 2.9-2.2.8c-2.6-.8-5.5-.1-7.5 1.9-.3.3-.7.7-.9 1.1l-2.2.8-1.8.5c.6-2.1 1.8-4 3.6-5.4v-5.7c0-2.1 1.7-3.8 3.8-3.8h16l.2-.1c2-2.5 5-3.9 8.2-3.9.7 0 1.4.1 2 .2 2.8.5 5.1 2.1 6.6 4.3z" class="st1"/><path d="M41 28.2v-6.4c2.5-1.7 4-4.6 4-7.6 0-2.1-.7-4.1-1.9-5.7C41.4 6.4 38.8 5 35.8 5c-.5 0-1 0-1.5.1-1.1.2-2.1.6-3.1 1.1-1.2.7-2.2 1.6-3 2.8H11.4C10.1 9 9 10.1 9 11.4v6.4c-1.5 1-2.7 2.5-3.3 4.1-1.1 2.8-.9 6 .9 8.7.6.9 1.4 1.8 2.4 2.4v5.6C9 40 10.1 41 11.4 41h16.8c2.9 4.2 8.6 5.3 12.8 2.4 4.2-2.9 5.3-8.6 2.4-12.8-.6-.9-1.4-1.7-2.4-2.4zm-7.9-16.1c.2-1.3 1.4-2.4 2.8-2.4.7 0 1.4.3 1.8.7.6.5 1 1.3 1 2.1 0 1.5-1.2 2.8-2.8 2.8-1.6 0-2.8-1.2-2.8-2.8-.1-.1-.1-.2 0-.4zm2.7 4.9c2.1 0 3.8 1.6 4 3.7-2.4 1.5-5.5 1.5-7.9 0 .1-2.1 1.8-3.7 3.9-3.7zm-5.3-8.2c3-2.9 7.8-2.9 10.8.1l.3.3c2.7 3 2.6 7.5-.3 10.4-.4-1.5-1.4-2.7-2.7-3.5 1.9-1.5 2.3-4.2.8-6.2-1.5-1.9-4.2-2.3-6.2-.8-1.2.9-1.8 2.3-1.7 3.6 0 .9.3 1.8.9 2.6.2.3.5.6.8.8-1.3.7-2.3 2-2.7 3.5-1.5-1.6-2.3-3.7-2.2-5.7 0-1.9.8-3.7 2.2-5.1zm-21.7 22c-2.6-2.6-2.9-6.7-.9-9.6.3-.4.6-.8.9-1.1 2-2 4.9-2.7 7.5-1.9 1.2.4 2.3 1 3.3 1.9 2.9 3 2.9 7.8 0 10.7-.4-1.5-1.4-2.7-2.7-3.5 1.9-1.5 2.3-4.2.8-6.2-1.5-1.9-4.2-2.3-6.2-.8-1.9 1.5-2.3 4.2-.8 6.2.2.3.5.6.8.8-1.3.7-2.3 2-2.7 3.5zm9.4 1.1c-1.2.7-2.5 1.1-3.8 1.1-1.4 0-2.9-.3-4.1-1.1.2-2.1 1.9-3.7 4-3.7 2 0 3.7 1.5 4 3.4-.2.1-.1.2-.1.3zm-6.8-8.1c0-1.5 1.3-2.8 2.8-2.8 1.5 0 2.8 1.3 2.8 2.8s-1.3 2.8-2.8 2.8c-1.6 0-2.8-1.2-2.8-2.8zm15.9 15.6h-16c-.4 0-.8-.4-.8-.8v-4.7c.2.1.4.2.7.2 4.1 1.4 8.6-.3 10.8-3.9l.6-1.2c1.9-4.4 0-9.5-4.1-11.7-.2-.1-.5-.3-.8-.4-2.3-1-4.9-1-7.2 0v-5.5c0-.4.4-.8.8-.8h16c-.5 1.3-.8 2.6-.7 3.8.1 3.5 2.2 6.8 5.6 8.2 2.3 1 4.9 1 7.2 0v4.7c-4.7-2-10.1.2-12.1 4.9-.9 2.3-.9 4.9 0 7.2zm8.5 4c-1.4 0-2.8-.4-4-1.1.2-2.2 2.1-3.8 4.3-3.7 2 .2 3.5 1.7 3.7 3.7-1.2.7-2.6 1.1-4 1.1zM33 34.2c0-1.5 1.2-2.8 2.8-2.8 1.5 0 2.8 1.3 2.8 2.8 0 1.5-1.2 2.8-2.8 2.8-1.5 0-2.8-1.2-2.8-2.8zm8.2 7c-.4-1.5-1.4-2.7-2.7-3.5 1.9-1.5 2.3-4.2.8-6.2-1.5-1.9-4.2-2.3-6.2-.8-1.9 1.5-2.3 4.2-.8 6.2.2.3.5.6.8.8-1.3.7-2.3 2-2.7 3.5-3-3-3-7.8 0-10.8 3-3 7.8-2.9 10.8 0 1.4 1.4 2.2 3.4 2.2 5.4 0 2-.8 3.9-2.2 5.4z" class="st2"/><path d="M35.8 3.6c.7 0 1.4.1 2 .2 2.7.5 5 2.1 6.6 4.3 1.2 1.7 2 3.8 2 6.1 0 3.2-1.5 6.3-4 8.3v5.1c.8.7 1.5 1.4 2.1 2.3 3.3 4.8 2.1 11.4-2.7 14.7-1.8 1.2-3.8 1.9-6 1.9-.6 0-1.3-.1-2-.2-2.5-.5-4.8-1.8-6.4-3.8h-16c-2.1 0-3.8-1.7-3.8-3.8v-4.9c-.8-.8-1.6-1.5-2.2-2.4-1.8-2.7-2.3-5.9-1.4-8.9.6-2.1 1.8-4 3.6-5.4v-5.7c0-2.1 1.7-3.8 3.8-3.8h16.1s0-.1.1-.1c2-2.5 5-3.9 8.2-3.9m0-2.5c-3.6 0-7 1.4-9.4 4h-15c-3.5 0-6.3 2.8-6.3 6.3V16c-1.7 1.6-2.9 3.6-3.5 5.8-1.1 3.8-.4 7.7 1.8 11 .5.7 1.1 1.4 1.7 2v3.8c0 3.5 2.8 6.3 6.3 6.3h15c1.9 1.9 4.3 3.3 7 3.8.8.1 1.6.2 2.4.2 2.6 0 5.2-.8 7.4-2.3 5.9-4.1 7.5-12.2 3.4-18.2-.5-.7-1.1-1.4-1.7-2v-2.8c2.6-2.5 4-5.8 4-9.4 0-2.7-.8-5.4-2.4-7.6-1.9-2.7-4.8-4.6-8.1-5.3-.9-.1-1.7-.2-2.6-.2z" class="st2"/></svg>