<svg xmlns="http://www.w3.org/2000/svg" version="1" viewBox="0 0 50 50"><path fill="#F799FF" d="M14.8 35.017a.756.756 0 00-.64 1.145l1.437 2.397 9.997-3.64-10.793.097zm31.924-7.787l.007-.147-4.61-7.692a.756.756 0 00-1.312.025L33.95 31.88l12.774-4.65zm-35.901 3.367c.3.5 1.03.487 1.312-.026l6.937-12.678a.756.756 0 00-.015-.752l-7.49-12.493a.757.757 0 00-1.315.03l-6.894 12.75a.756.756 0 00.017.75l7.448 12.42zm12.113-15.785c.14.23.39.37.66.367l14.554-.2a.756.756 0 00.638-1.145l-7.45-12.423a.754.754 0 00-.654-.367l-14.6.126a.756.756 0 00-.64 1.146l7.492 12.496z"/><path fill="#FDABFF" d="M21.206 11.926L34.7 7.016 31.34 1.41a.754.754 0 00-.656-.366l-14.6.127a.756.756 0 00-.64 1.146l5.762 9.61zM3.493 18.373l13.383-4.87-5.31-8.857a.757.757 0 00-1.314.03L3.358 17.427a.756.756 0 00.017.75l.118.195z"/><path fill="#031326" d="M11.47 32.01c-.63 0-1.218-.334-1.543-.876L2.48 18.714a1.81 1.81 0 01-.04-1.782L9.333 4.18c.307-.568.9-.93 1.544-.943.64-.028 1.252.32 1.584.874l7.49 12.494c.33.547.342 1.233.036 1.79l-6.936 12.68c-.31.565-.9.923-1.544.936h-.035zM4.356 17.78l7.104 11.85 6.615-12.094L10.93 5.618 4.355 17.78zM36.8 50h-.004l-14.545-.004a1.816 1.816 0 01-1.54-.876L13.264 36.7a1.806 1.806 0 01-.027-1.807c.315-.562.91-.914 1.554-.92l14.464-.13a1.81 1.81 0 011.56.875l7.528 12.555A1.8 1.8 0 0136.8 50zm0-2.09zm-14.38-.003l13.87.004-7.182-11.976-13.794.123 7.106 11.85zm-.16 0zm7.016-11.974zm-5.69-19.709c-.63 0-1.22-.333-1.545-.874L14.55 2.853a1.81 1.81 0 01-.027-1.807c.316-.56.912-.914 1.556-.92L30.676 0h.013c.63 0 1.22.334 1.544.874l7.45 12.424a1.78 1.78 0 01.03 1.802c-.318.57-.898.915-1.55.924l-14.554.2h-.024zM16.598 2.21l7.148 11.923 13.888-.19L30.527 2.09l-13.93.12zm14.094-.12zM41.98 46.9a1.81 1.81 0 01-1.546-.875l-7.53-12.557a1.807 1.807 0 01-.035-1.793l7.022-12.763c.315-.572.892-.92 1.545-.932.652-.03 1.242.315 1.577.874l4.612 7.692a1.044 1.044 0 11-1.792 1.074l-4.355-7.26-6.7 12.176 7.183 11.982 3.293-6.118a1.043 1.043 0 111.84.99l-3.535 6.564a1.8 1.8 0 01-1.542.948c-.01-.002-.025-.002-.04-.002z"/></svg>