<svg xmlns="http://www.w3.org/2000/svg" version="1" viewBox="0 0 50 50"><path fill="#00C8E2" d="M5.497 30.017a6.377 6.377 0 00-.331 2.027 6.435 6.435 0 006.435 6.435c.17 0 .337-.012.504-.025L47.642 25.52a9.393 9.393 0 00.478-2.932c0-4.661-3.375-8.525-7.812-9.304.001-.051.008-.101.008-.152A8.352 8.352 0 0025 8.525a8.352 8.352 0 00-15.316 4.607c0 .051.007.101.008.152-4.437.779-7.812 4.643-7.812 9.304a9.43 9.43 0 003.617 7.429z"/><path fill="#00DFFC" d="M1.845 22.149L38.946 8.645a8.341 8.341 0 00-14.001-.12 8.352 8.352 0 00-15.316 4.607c0 .051.007.101.008.152a9.445 9.445 0 00-7.792 8.865z"/><g fill="#031326"><path d="M18.395 26.949c-.575 0-1.132.117-1.656.347a.602.602 0 10.485 1.103 2.919 2.919 0 014.085 2.67 2.902 2.902 0 01-1.381 2.48.603.603 0 00.636 1.024 4.102 4.102 0 001.951-3.504 4.125 4.125 0 00-4.12-4.12zm13.21 1.206c.407 0 .801.082 1.17.245a.603.603 0 00.485-1.103 4.126 4.126 0 00-5.777 3.774 4.102 4.102 0 001.951 3.504.604.604 0 00.637-1.024 2.918 2.918 0 011.534-5.396z"/><path d="M49.125 22.588c0-4.805-3.245-8.934-7.828-10.117-.34-4.852-4.397-8.696-9.334-8.696a9.332 9.332 0 00-6.964 3.111 9.332 9.332 0 00-6.964-3.111c-4.937 0-8.993 3.844-9.334 8.696A10.434 10.434 0 00.873 22.588c0 2.995 1.26 5.795 3.48 7.781-.007.031-.009.062-.016.093-.044.203-.08.409-.107.615-.01.077-.02.154-.028.231-.019.192-.03.386-.034.582-.001.052-.009.103-.009.155 0 .767.119 1.505.335 2.202.009.029.021.057.031.086.065.199.134.395.215.586.021.049.046.096.068.145.075.168.152.334.239.495.033.061.07.119.105.178.083.144.167.287.259.425.045.067.094.131.141.196.089.125.179.25.276.369.056.069.117.134.175.201.095.109.19.218.292.321.067.069.139.133.209.199.1.094.199.188.304.277.078.066.16.128.241.191.104.081.207.161.315.236.088.061.179.118.27.176.107.068.214.135.325.197.098.055.198.106.299.157.11.056.22.11.332.16.217.095.438.181.663.257.347.112.702.202 1.061.267.243.044.489.074.736.091.061.004.12.015.181.018a8.136 8.136 0 008.017 6.751 8.173 8.173 0 005.753-2.39 8.173 8.173 0 005.753 2.39 1.006 1.006 0 000-2.01 6.081 6.081 0 01-4.943-2.513l-.207-.282V9.434l.235-.354a7.337 7.337 0 016.126-3.296c4.015 0 7.284 3.239 7.34 7.25-.211-.013-.421-.028-.638-.028a10.01 10.01 0 00-5.325 1.53 5.223 5.223 0 00-3.696-1.53.603.603 0 000 1.206 4.037 4.037 0 013.592 5.869.603.603 0 001.073.549 5.26 5.26 0 00.573-2.385 5.206 5.206 0 00-.793-2.758 8.811 8.811 0 016.118-1.136.618.618 0 00.246-.007 8.423 8.423 0 016.66 8.243c0 2.37-.986 4.582-2.714 6.181a.594.594 0 00-.273.113 8.726 8.726 0 01-5.462 1.892.602.602 0 000 1.206 9.917 9.917 0 004.978-1.324l.004.013c.12.452.18.915.18 1.376a5.435 5.435 0 01-5.43 5.43c-.126 0-.249-.01-.372-.019a7.707 7.707 0 00-6.314-6.979.605.605 0 00-.213 1.187 6.505 6.505 0 015.35 6.418c0 .078.017.152.045.221-.004.024-.018.044-.02.069a1.005 1.005 0 00.92 1.083c.201.016.401.029.606.029 4.103 0 7.44-3.337 7.44-7.44 0-.564-.065-1.126-.194-1.675a10.39 10.39 0 003.479-7.78zM19.247 44.216a6.127 6.127 0 01-6.117-5.8c0-.006.003-.011.002-.017 0-.007-.005-.012-.005-.019l-.007-.143c.014-.051.031-.1.031-.155a6.505 6.505 0 015.35-6.418.603.603 0 00-.213-1.187 7.704 7.704 0 00-6.314 6.979c-.123.01-.247.019-.372.019a5.438 5.438 0 01-5.428-5.429c0-.272.025-.536.063-.796.013-.084.033-.167.049-.25.023-.114.054-.225.084-.336a9.912 9.912 0 004.964 1.316.602.602 0 000-1.206 8.726 8.726 0 01-5.462-1.892.573.573 0 00-.273-.113 8.38 8.38 0 01-2.714-6.181 8.423 8.423 0 016.659-8.243.6.6 0 00.246.007 8.811 8.811 0 016.118 1.136 5.194 5.194 0 00-.793 2.758c0 .828.198 1.653.573 2.385a.605.605 0 001.073-.549 4.037 4.037 0 013.592-5.869.603.603 0 000-1.206 5.223 5.223 0 00-3.696 1.53 10.01 10.01 0 00-5.325-1.53c-.217 0-.428.015-.639.028.052-4.006 3.324-7.251 7.342-7.251a7.335 7.335 0 016.126 3.296l.235.354v31.987l-.207.282a6.075 6.075 0 01-4.942 2.513z"/></g></svg>