<?xml version="1.0" encoding="utf-8"?>
<!-- Generator: Adobe Illustrator 28.0.0, SVG Export Plug-In . SVG Version: 6.00 Build 0)  -->
<svg version="1.1" id="Layer_1" xmlns="http://www.w3.org/2000/svg" xmlns:xlink="http://www.w3.org/1999/xlink" x="0px" y="0px"
	 viewBox="0 0 50 50" style="enable-background:new 0 0 50 50;" xml:space="preserve">
<style type="text/css">
	.st0{fill:#E589EF;}
	.st1{fill:#444444;}
	.st2{fill:none;stroke:#444444;stroke-linecap:round;stroke-linejoin:round;stroke-miterlimit:10;}
	.st3{fill:none;stroke:#444444;stroke-width:0.5;stroke-linecap:round;stroke-linejoin:round;stroke-miterlimit:10;}
	.st4{fill:none;stroke:#444444;stroke-width:2.5;stroke-linecap:round;stroke-linejoin:round;stroke-miterlimit:10;}
	.st5{fill:none;stroke:#444444;stroke-width:2;stroke-miterlimit:10;}
	.st6{fill:none;stroke:#444444;stroke-width:2.5;stroke-miterlimit:10;}
	.st7{fill:none;stroke:#444444;stroke-width:2;stroke-linecap:round;stroke-linejoin:round;stroke-miterlimit:10;}
</style>
<g>
	<path class="st0" d="M47.6,15.2l-1-6.8l-11.7-2L10.9,6.3c-3.2,0-8.9,3.6-8.9,6.8l1.3,8.9l2.6,6.8c0.3,0.4,6.6,3.4,6.6,3.9l0.1,9.7
		c0.8,0.7,4,3,5,2.6l20.9-7.4c-0.2-4.4-1.8-5.6,0-6.1C46.7,29.6,48.1,16.1,47.6,15.2z"/>
	<g>
		<g>
			<g>
				<g>
					<ellipse class="st1" cx="7" cy="15.6" rx="1.2" ry="3.7"/>
					<ellipse class="st2" cx="7" cy="15.6" rx="4.3" ry="7"/>
					<path class="st3" d="M8.6,27.1c0,0,3.7,2.2,8-7.1c1.9-4.3,8.3-4.3,8.3-4.3l0,0c0,0,6.9-0.3,8.9,4.3c4.3,9.2,8,7.1,8,7.1"/>
					<path class="st3" d="M4.1,21.2c0,0-0.5,11.9,14.6,8.9c0,0,2.5-0.5,6.6-0.5l0,0c4.2,0,6.2,0.6,6.2,0.6c15.1,3,14.8-9,14.8-9"/>
					<ellipse class="st1" cx="43.4" cy="15.6" rx="1.2" ry="3.7"/>
					<ellipse class="st2" cx="43.4" cy="15.6" rx="4.3" ry="7"/>
					<path class="st2" d="M43.8,8.5c0,0-1.1-2-10.7-1.3c-7.1,0.5-7.9,0.4-7.9,0.4l0,0c0,0-1,0-7.9-0.4c-9.6-0.6-10.4,1-10.4,1"/>
				</g>
				<line class="st2" x1="25.2" y1="16.2" x2="25.1" y2="37.3"/>
			</g>
			<polyline class="st2" points="21,41 25.1,37.1 29,41 			"/>
		</g>
		<g>
			<path class="st4" d="M37.6,39v-7.4l0.1,0c9.3-0.8,8.9-10,8.9-10l0,0c1.1-1.4,2.1-3.7,2.1-6.1c0-4.1-2-7.8-4.4-7.8"/>
			<path class="st4" d="M44.2,7.6c0,0-1.2-1.7-11.1-1C25.8,7.2,25,7,25,7s-1.1,0-8.1-0.4C7.9,6,6.1,7.5,5.9,7.8
				c-2.2,0.5-4,3.9-4,7.7c0,2.5,0.4,4.7,1.5,6l0,0c0,0-0.3,9.5,9.3,10.2l0.1,0v9.6c0,2.7,2.2,4.9,4.9,4.9H29"/>
		</g>
		<line class="st5" x1="37.4" y1="30.8" x2="37.4" y2="33.3"/>
		<line class="st6" x1="12.8" y1="30.7" x2="12.7" y2="32"/>
	</g>
</g>
<polyline class="st7" points="46.7,23 46.6,21.7 48.2,19 "/>
<line class="st0" x1="45.5" y1="21.7" x2="46.9" y2="22.7"/>
</svg>
