<svg xmlns="http://www.w3.org/2000/svg" id="Camada_1" x="0" y="0" version="1.1" viewBox="0 0 50 50" xml:space="preserve"><style>.st2{fill:#031326}</style><path fill="#ce87ea" d="M43.3 21.1l4-7.9c.3-.7.3-1.5 0-2.2l-4.7-8.6c-.4-.7-1.2-1.2-2-1.2h-5.8c-.6 0-1.1.2-1.5.6L28 6.5c-.5.4-.8 1.1-.8 1.7v.9l-.1.9c-6.2.1-11.1 5.1-11.1 11.3v9.8l27.3-10zm-34 12.3v-3.1c0-1-.8-1.7-1.7-1.7H4.2c-1 0-1.7.8-1.7 1.7v5.6l6.8-2.5z"/><path fill="#e097fb" d="M45.3 7.6l-2.8-5.2c-.4-.7-1.2-1.2-2-1.2h-5.8c-.6 0-1.1.2-1.5.6l-5.3 4.7c-.6.5-.9 1.2-.9 1.8v.9l-.1.8c-5.1.1-9.4 3.5-10.7 8.2L45.3 7.6z"/><path d="M48.2 10.5l-4.7-8.6C42.9.8 41.7.1 40.5.1h-5.8c-.9 0-1.7.3-2.3.9l-5.3 4.7c-.7.7-1.2 1.6-1.2 2.6v.6c-6.3.6-11.3 5.9-11.3 12.4v17.3c0 .6-.3 1.2-.7 1.6-.5.4-1.1.6-1.7.4-.9-.2-1.6-1.1-1.6-2.1v-8.2c0-1.6-1.3-2.9-2.9-2.9H4.2c-1.6 0-2.9 1.3-2.9 2.9v8.3c0 3.1 1.3 6.1 3.6 8.2 2.1 2 4.8 3 7.7 3h.8c5.4-.3 9.7-4.6 10.4-10h4.7c.6 0 1.2-.5 1.2-1.2 0-.6-.5-1.2-1.2-1.2h-4.6v-3.9c0-.6-.6-1.2-1.2-1.1-.6 0-1.1.5-1.1 1.1v4.7c0 4.9-3.6 8.9-8.3 9.2-2.5.2-4.9-.7-6.7-2.4s-2.8-4-2.8-6.5v-8.3c0-.3.3-.6.6-.6h3.4c.3 0 .6.3.6.6v8.2c0 2.2 1.5 4 3.6 4.4 1.3.2 2.6-.1 3.6-.9.8-.6 1.3-1.5 1.5-2.5h.9c.5 0 .9-.4.9-.9s-.4-.9-.9-.9h-1v-1.5h2.1c.5 0 .9-.4.9-.9s-.4-.9-.9-.9H17v-13c0-5.6 4.5-10.1 10.1-10.1h3.7c.6 0 1.2-.5 1.2-1.2s-.5-1.2-1.2-1.2h-2.5v-.5c0-.3.1-.6.4-.8L34 2.8c.2-.2.5-.3.8-.3h5.8c.4 0 .8.2 1 .6l4.7 8.6c.2.3.2.7 0 1.1l-8.9 17.5c-.2.3-.5.4-.9.4h-5.1c-.6 0-1.2.5-1.2 1.2 0 .6.5 1.2 1.2 1.2h5.1c1.1 0 2.1-.5 2.8-1.4l9.1-17.8c.4-1.2.4-2.4-.2-3.4z" class="st2"/><circle cx="22.6" cy="25.6" r="1.7" class="st2"/></svg>