<svg xmlns="http://www.w3.org/2000/svg" id="Layer_1" x="0" y="0" version="1.1" viewBox="0 0 50 50" xml:space="preserve"><style>.st0{fill:#444}.st5{fill:none;stroke:#444;stroke-width:.25;stroke-miterlimit:10}</style><path d="M11.6 34.7h26.6v9.1H11.6z" class="st0"/><path fill="#bf94f7" d="M32.1 2.6c-3.3-.2-6.5.4-9.8.4-2.7 0-5.4-.4-8.1-.5-3.4-.1-6-.5-9 1.5-.7.4-1.2.8-1.7 1.3-.2.7-.5 1.5-.8 2.2-.2 1.5.4 3 .5 4.5.1 1.9 0 3.9 0 5.8 0 .7-.2 1.3-.6 1.9.1.3.1.5.2.8v.2L45.9 4.9c-4.5-1.3-8.9-2-13.8-2.3z"/><path fill="#a475ef" d="M2.1 37.3L47 20.9c-.1-.7 0-1.6.5-2.4.1-.1.1-.2.2-.3-.4-.6-.6-1.3-.5-2.2v-.9c.1-3-.2-8.8-2.1-11.1L2.5 19.6c.3 5.9.4 11.7-.4 17.7z"/><g id="Surfaces_00000033369253017267378270000017856425806685609145_"><g id="Photo_Surface_00000065759462108226150470000009143994589182012316_"><path id="Outline_no_shadow_00000044164293469052794380000015316268332437827220_" fill="none" d="M8.8 2.6h32.4c3.3 0 5.9 2.7 5.9 6.1v32.1c0 3.3-2.6 6.1-5.9 6.1H8.8c-3.3 0-5.9-2.7-5.9-6.1V8.7c0-3.3 2.6-6.1 5.9-6.1z"/></g></g><g id="Photo_Surface"><path id="Outline_no_shadow" fill="none" stroke="#444" stroke-linecap="round" stroke-linejoin="round" stroke-miterlimit="10" stroke-width="2.5" d="M8.8 2.6h32.4c3.3 0 5.9 2.7 5.9 6.1v32.1c0 3.3-2.6 6.1-5.9 6.1H8.8c-3.3 0-5.9-2.7-5.9-6.1V8.7c0-3.3 2.6-6.1 5.9-6.1z"/></g><path d="M8.7 7.8h3v1h-3z" class="st0" transform="rotate(-31.951 10.215 8.301)"/><path d="M10.9 14.9c2 1.1 3.4 2.1 5 3.2-.1.2-.1.4 0 .5.2.3.5.3.7.2.3-.2.3-.5.2-.7-.1-.2-.3-.2-.4-.3-.3-2.1-.7-4.2-.7-6.2-2.5-1.8-2.8-2.4-3.8-3.4L9.4 9.8c.7 1.6 1.1 3.3 1.5 5.1zm2.4-2.1c.1.1.1.3 0 .4l2.9 4.6.1.1-.2.1-.1-.1-2.9-4.6c-.1 0-.3 0-.4-.1-.1-.1 0-.3.1-.4.2-.2.4-.1.5 0z" class="st0"/><path d="M10 26.4c10.5-1.9 4.4-10.7 15.2-11.3" class="st5"/><path d="M9.2 25.9h1.6v1.6H9.2zM24.5 14h1.6v1.6h-1.6zm-7.7 5.1h1.6v1.6h-1.6zm19.7-.7s-.6.4-1.3 1-1.3 1-1.3 1c-.1 0-.3-.4-.5-.8s-.4-.7-.5-.8c-.1 0-.5.3-.9.7-.4.4-.9.7-1 .7s-.3-.3-.5-.6l-.3-.5-.7.9-.8.8 4 1.3c2.2.7 4.1 1.2 4.1 1.2.1-.2-.3-4.9-.3-4.9z" class="st0"/><path d="M41.9 16.3l-6.6-2.1-6.6-2.2-2.1 6.6-2.1 6.6 6.6 2.1 6.6 2.1 2.1-6.6 2.1-6.5zm-9.5 7l-5.5-1.8 1.3-4 1.3-4 5.5 1.8 5.5 1.8-1.3 4-1.3 4-5.5-1.8z" class="st5"/><circle cx="31.4" cy="16.8" r="1" class="st0"/><path fill="#fff" d="M21.8 36.2c.3-.1.8-.1 1.2-.1.7 0 1.3.1 1.7.5.4.3.5.8.5 1.3 0 .7-.2 1.1-.5 1.5-.4.4-1 .6-1.5.6H23v2.3h-1.2v-6.1zm1.2 2.7h.2c.6 0 .9-.4.9-1 0-.5-.2-1-.8-1H23v2zm2.6 2.2c.2.1.5.2.8.2.3 0 .5-.1.5-.4 0-.2-.1-.4-.5-.6-.7-.4-.9-.9-.9-1.3 0-.8.6-1.4 1.5-1.4.4 0 .7.1.9.2l-.2.9c-.2-.1-.4-.2-.6-.2-.3 0-.4.2-.4.4s.1.3.5.6c.7.4.9.8.9 1.3 0 .9-.7 1.4-1.6 1.4-.4 0-.8-.1-1-.3l.1-.8z"/></svg>