<svg xmlns="http://www.w3.org/2000/svg" version="1" viewBox="0 0 50 50"><path fill="#71BAC0" d="M40.474 32.932V7.384a4.395 4.395 0 00-4.392-4.401H9.526v41.213l30.948-11.264z"/><path fill="#7ED0D6" d="M40.386 6.511a4.392 4.392 0 00-4.305-3.528H9.526v14.761l30.86-11.233z"/><path fill="#031326" d="M36.073 2.033H9.984a1.41 1.41 0 00-1.408 1.408V46.56c0 .776.631 1.407 1.408 1.407h16.83a2.133 2.133 0 002.131-2.131v-2.672a.55.55 0 00.077-.269V3.932h3.762v38.967c0 .195.105.359.254.462a.94.94 0 00.813.488h2.231a5.348 5.348 0 005.342-5.342V7.384a5.357 5.357 0 00-5.351-5.351zm-2.15 20.719h5.601v10.397h-5.601V22.752zM12.554 3.932v17.68h-2.079V3.932h2.079zm-2.079 30.356h2.079v7.662h-2.079v-7.662zm3.219 0h14.189v7.662H13.694v-7.662zm14.189-1.14H13.131l-.007-.001-.007.001h-2.641V22.752h17.407v10.396zm-.837 12.688a.231.231 0 01-.232.231H10.475v-2.219h16.571v1.988zm.837-24.224H13.694V3.932h14.189v17.68zm8.19-17.68a3.456 3.456 0 013.452 3.452v14.228h-5.601V3.932h2.149zm.009 38.018h-2.158v-7.662h5.601v4.219a3.448 3.448 0 01-3.443 3.443z"/></svg>