<svg xmlns="http://www.w3.org/2000/svg" version="1" viewBox="0 0 50 50"><path fill="#FCC34F" d="M14.593 41.499h.206v2.059L37.02 35.47l.704-5.439c.073-.566-.584-1.068-.584-1.068l-.837-24.548a1.905 1.905 0 00-1.961-1.831c-10.465.29-17.133 2.92-19.555 4.06a1.881 1.881 0 00-1.072 1.63l-.854 20.689s-.657.502-.584 1.068l1.377 10.642a.947.947 0 00.939.826z"/><path fill="#FDCF72" d="M36.42 8.33l-.133-3.914a1.905 1.905 0 00-1.961-1.831c-10.465.29-17.133 2.92-19.555 4.06a1.881 1.881 0 00-1.072 1.63l-.349 8.453L36.42 8.33z"/><path fill="#031326" d="M38.372 28.426l-.82-24.052a3.125 3.125 0 00-3.245-3.039c-10.717.297-17.594 3.021-20.053 4.178a3.12 3.12 0 00-1.789 2.709l-.833 20.199c-.334.394-.694 1.009-.595 1.771l1.377 10.643c.093.72.531 1.322 1.134 1.649v3.039a3.148 3.148 0 003.144 3.145h16.616a3.148 3.148 0 003.144-3.145V41.5c0-.603-.436-1.083-1.004-1.2H14.866l-.925-7.151h22.12l-.292 2.256a1.248 1.248 0 001.079 1.399 1.24 1.24 0 001.399-1.079l.717-5.534c.097-.759-.26-1.373-.592-1.765zM14.964 8.324a.63.63 0 01.355-.549c.917-.432 2.499-1.094 4.699-1.755v13.606a.25.25 0 00.5 0V5.872a49.034 49.034 0 014.234-1.008v17.024a.25.25 0 00.5 0V4.771c1.3-.238 2.711-.447 4.234-.609v12.679a.25.25 0 00.5 0V4.112a62.68 62.68 0 014.39-.279h.019c.354 0 .647.277.659.625l.833 24.436H14.115l.849-20.57zm18.987 37.198a.646.646 0 01-.644.645H16.692a.645.645 0 01-.644-.645v-4.543h17.903v4.543zM13.876 32.647l-.337-2.608a.929.929 0 01.081-.083l.409-.312h21.968l.369.302c.03.024.067.062.096.095l-.337 2.607H13.876z"/></svg>