<svg xmlns="http://www.w3.org/2000/svg" id="Layer_1" x="0" y="0" version="1.1" viewBox="0 0 50 50" xml:space="preserve"><style>.st2{fill:#031326}</style><path fill="#00c8e2" d="M46.7 23.1l.3 6.2L2.9 45.4 3.1 26l42.6-15.3 1.1 3z"/><path fill="#00dffc" d="M47.2 14.2l-44.1 16-.2-15.3v-3.8l27.5-10 10.8.4 5.3 2.4z"/><path d="M39.2 28.1c-.1-.3-.3-.6-.5-.8L21.9 16.5c-.6-.4-1.4-.2-1.7.4l-3.2 5c-.2.3-.2.6-.2.9.1.3.3.6.5.8l1 .6-6.7 4.3c-.4.2-.6.7-.6 1.1l1.1 18.6c0 .4.2.8.6 1 .2.1.4.2.7.2.2 0 .3 0 .4-.1l17.4-6.7c.4-.2.7-.5.8-1l1.2-7.9 1 .6c.2.1.4.2.7.2.4 0 .8-.2 1.1-.6l3.2-5c0-.1.1-.5 0-.8zm-9.6 12.5l-13.9 5.3 5.1-7.9c.4.2.8.2 1.3.2 1.2 0 2.3-.6 3-1.6 1.1-1.7.6-3.9-1.1-4.9-.8-.5-1.8-.7-2.7-.5-.9.2-1.7.8-2.3 1.6-.9 1.4-.7 3.3.5 4.5l-5.1 7.9-.9-14.9 7-4.5 10.3 6.6-1.2 8.2zm-8.7-4.1c-1-.6-1.2-1.9-.6-2.9.3-.5.8-.8 1.3-.9h.4c.4 0 .8.1 1.1.3 1 .6 1.2 1.9.6 2.9-.6.9-1.8 1.2-2.8.6zm13.5-4.8l-14.7-9.5 1.9-2.9 14.7 9.5-1.9 2.9z" class="st2"/><path d="M43.6.3H6c-2.4 0-4.4 2-4.4 4.4V45c0 .7.6 1.2 1.2 1.2S4 45.6 4 45V12.2h41.4v33.2c0 1-.8 1.9-1.9 1.9h-5.8c-.7 0-1.2.6-1.2 1.2s.6 1.2 1.2 1.2h5.8c2.4 0 4.4-2 4.4-4.4V4.7C48 2.3 46 .3 43.6.3zM4.1 9.7v-5c0-1 .8-1.9 1.9-1.9h37.6c1 0 1.9.8 1.9 1.9v5H4.1z" class="st2"/><circle cx="7.4" cy="6.4" r="1" class="st2"/><circle cx="10.5" cy="6.4" r="1" class="st2"/><circle cx="13.7" cy="6.4" r="1" class="st2"/></svg>