<svg xmlns="http://www.w3.org/2000/svg" id="Layer_1" x="0" y="0" version="1.1" viewBox="0 0 50 50" xml:space="preserve"><style>.st2{fill:#494949}.st3{fill:#444}</style><path fill="#46b8b0" d="M45 3.6L5 18.2v26.3l40-14.6z"/><path fill="#4ecdc4" d="M45.5 3.5c0-1.1-.9-2-2-2H6.3c-1.1 0-2 .9-2 2v15.2l41.2-15v-.2z"/><path d="M43.1 49.4H6.9c-1.7 0-3.1-1.4-3.1-3.1V3.7C3.8 2 5.2.6 6.9.6h36.3c1.7 0 3.1 1.4 3.1 3.1v26.9c0 .7-.6 1.2-1.2 1.2s-1.2-.6-1.2-1.2V3.7c0-.4-.3-.6-.6-.6H6.9c-.4 0-.6.3-.6.6v42.6c0 .4.3.6.6.6h36.3c.4 0 .6-.3.6-.6v-6.8c0-.7.6-1.2 1.2-1.2s1.2.6 1.2 1.2v6.8c.1 1.7-1.3 3.1-3.1 3.1z" class="st2"/><path d="M30.7 45.5H19.3c-.2 0-.3-.1-.3-.3v-.7c0-.2.1-.3.3-.3h11.4c.2 0 .3.1.3.3v.7c0 .2-.1.3-.3.3z" class="st2"/><path d="M39 10.2c1.1 0 1.9-.9 1.9-1.9s-.8-2-1.9-2-1.9.9-1.9 1.9c0 1.1.9 2 1.9 2zm0-3c.5 0 1 .4 1 1 0 .5-.4 1-1 1-.5 0-1-.4-1-1 0-.5.5-1 1-1zM16.1 35.3h-1.5c-.3 0-.4.2-.4.4s.2.4.4.4h1.5c.3 0 .4-.2.4-.4s-.1-.4-.4-.4zm11.9 0h-1.5c-.3 0-.4.2-.4.4s.2.4.4.4H28c.3 0 .4-.2.4-.4s-.2-.4-.4-.4zm-7.9 0h-1.5c-.3 0-.4.2-.4.4s.2.4.4.4h1.5c.3 0 .4-.2.4-.4s-.1-.4-.4-.4zm3.9 0h-1.5c-.3 0-.4.2-.4.4s.2.4.4.4H24c.3 0 .4-.2.4-.4.1-.2-.2-.4-.4-.4zm11.8 0h-1.5c-.3 0-.4.2-.4.4s.2.4.4.4h1.5c.3 0 .4-.2.4-.4s-.1-.4-.4-.4zm-3.9 0h-1.5c-.3 0-.4.2-.4.4s.2.4.4.4h1.5c.3 0 .4-.2.4-.4s-.1-.4-.4-.4zm-20-12.1c0-.3-.2-.4-.4-.4-.3 0-.4.2-.4.4v1.5c0 .3.2.4.4.4.3 0 .4-.2.4-.4v-1.5zm0-3.9c0-.3-.2-.4-.4-.4-.3 0-.4.2-.4.4v1.5c0 .3.2.4.4.4.3 0 .4-.2.4-.4v-1.5zm0 7.8c0-.3-.2-.4-.4-.4-.3 0-.4.2-.4.4v1.5c0 .3.2.4.4.4.3 0 .4-.2.4-.4v-1.5zm-.5 3.6c-.3 0-.4.2-.4.4v1.5c0 .3.2.4.4.4.3 0 .4-.2.4-.4v-1.5c.1-.3-.1-.4-.4-.4zm.5-19.3c0-.3-.2-.4-.4-.4-.3 0-.4.2-.4.4v1.5c0 .3.2.4.4.4.3 0 .4-.2.4-.4v-1.5zm0 3.9c0-.3-.2-.4-.4-.4-.3 0-.4.2-.4.4v1.5c0 .3.2.4.4.4.3 0 .4-.2.4-.4v-1.5zm6.7-6.7h1.5c.3 0 .4-.2.4-.4 0-.3-.2-.4-.4-.4h-1.5c-.3 0-.4.2-.4.4-.1.3.1.4.4.4zm15.7 0h1.5c.3 0 .4-.2.4-.4 0-.3-.2-.4-.4-.4h-1.5c-.3 0-.4.2-.4.4 0 .3.2.4.4.4zm-11.8 0H24c.3 0 .4-.2.4-.4 0-.3-.2-.4-.4-.4h-1.5c-.3 0-.4.2-.4.4-.1.3.1.4.4.4zm4 0H28c.3 0 .4-.2.4-.4 0-.3-.2-.4-.4-.4h-1.5c-.3 0-.4.2-.4.4-.1.3.1.4.4.4zm3.8 0h1.5c.3 0 .4-.2.4-.4 0-.3-.2-.4-.4-.4h-1.5c-.3 0-.4.2-.4.4 0 .3.3.4.4.4zm-15.7 0h1.5c.3 0 .4-.2.4-.4 0-.3-.2-.4-.4-.4h-1.5c-.3 0-.4.2-.4.4 0 .3.1.4.4.4zm24.9 14.6c0-.3-.2-.4-.4-.4s-.4.2-.4.4v1.5c0 .3.2.4.4.4s.4-.2.4-.4v-1.5zm0-3.9c0-.3-.2-.4-.4-.4s-.4.2-.4.4v1.5c0 .3.2.4.4.4s.4-.2.4-.4v-1.5zM39 30.7c-.3 0-.4.2-.4.4v1.5c0 .3.2.4.4.4.3 0 .4-.2.4-.4v-1.5c.1-.3-.1-.4-.4-.4zm.5-3.6c0-.3-.2-.4-.4-.4s-.4.2-.4.4v1.5c0 .3.2.4.4.4s.4-.2.4-.4v-1.5zm0-11.8c0-.3-.2-.4-.4-.4s-.4.2-.4.4v1.5c0 .3.2.4.4.4s.4-.2.4-.4v-1.5zm0-3.9c0-.3-.2-.4-.4-.4s-.4.2-.4.4v1.5c0 .3.2.4.4.4s.4-.2.4-.4v-1.5zm-28-1.2c1.1 0 1.9-.9 1.9-1.9s-.9-1.9-1.9-1.9-1.9.7-1.9 1.8.9 2 1.9 2zm0-3c.5 0 1 .4 1 1 0 .5-.4 1-1 1-.5 0-1-.4-1-1 0-.5.4-1 1-1zM39 33.8c-1.1 0-1.9.9-1.9 1.9s.9 1.9 1.9 1.9c1.1 0 1.9-.9 1.9-1.9s-.8-1.9-1.9-1.9zm0 3c-.5 0-1-.4-1-1s.4-1 1-1c.5 0 1 .4 1 1 0 .5-.5 1-1 1zm-27.5-3c-1.1 0-1.9.9-1.9 1.9s.9 1.9 1.9 1.9 1.9-.9 1.9-1.9-.9-1.9-1.9-1.9zm0 3c-.5 0-1-.4-1-1s.4-1 1-1c.5 0 1 .4 1 1s-.5 1-1 1zM37.3 12c0-.9-.7-1.6-1.6-1.6h-21c-.9 0-1.6.7-1.6 1.6v1.6c0 .3.2.4.4.4.3 0 .4-.2.4-.4V12c0-.4.4-.7.7-.7h21c.4 0 .7.4.7.7v11.4l-1.9-1.2c-.2-.2-.5-.1-.6.2-.2.2-.1.5.2.6l2.4 1.5v7.4c0 .4-.4.7-.7.7h-3.5v-3.5c0-1-.4-1.9-1.2-2.6l-4.9-3.6 3.1-1.8c.5-.4 1.2-.4 1.9 0l1.1.7c.2.2.5.1.6-.2.2-.2.1-.5-.2-.6l-1.1-.7c-.9-.5-1.9-.5-2.7-.1l-3.4 1.9-4.2-3.1c-.9-.6-2-.7-2.9-.3l-4.2 2.4v-5.3c0-.3-.2-.4-.4-.4s-.4.2-.4.4V32c0 .9.7 1.6 1.6 1.6h21c.9 0 1.6-.7 1.6-1.6-.1-6.7-.1-13.3-.2-20zm-6.1 20.7H14.8c-.4 0-.7-.4-.7-.7v-9.7l4.7-2.6c.6-.4 1.4-.3 1.9.2l9.6 7.4c.5.4.9 1.1.9 1.9v3.5z" class="st3"/><path d="M31.5 18.2c1.5 0 2.7-1.2 2.7-2.7s-1.2-2.7-2.7-2.7-2.7 1.2-2.7 2.7 1.2 2.7 2.7 2.7zm0-4.6c1 0 1.9.8 1.9 1.9 0 1-.8 1.9-1.9 1.9-1 0-1.9-.8-1.9-1.9 0-1.1.9-1.9 1.9-1.9z" class="st3"/></svg>