<svg xmlns="http://www.w3.org/2000/svg" version="1" viewBox="0 0 50 50"><path fill="#FCC34F" d="M4.941 46.875h14.077l27.857-10.139V4.941a1.816 1.816 0 00-1.816-1.816H4.941a1.815 1.815 0 00-1.816 1.816v40.117c0 1.004.813 1.817 1.816 1.817z"/><path fill="#FDCF72" d="M35.034 3.125H4.941a1.815 1.815 0 00-1.816 1.816v9.797L35.034 3.125z"/><path fill="#031326" d="M45.059 1.875H4.941a3.069 3.069 0 00-3.066 3.066v40.118a3.07 3.07 0 003.066 3.066h30.996a1.25 1.25 0 000-2.5H25.25V32.559h20.375v4.177a1.25 1.25 0 002.5 0V4.941a3.07 3.07 0 00-3.066-3.066zm-40.118 2.5H24.75V17.44H4.375V4.941c0-.312.254-.566.566-.566zm0 41.25a.567.567 0 01-.566-.566V17.94H24.75v27.685H4.941zM25.25 32.059V4.375h19.809c.312 0 .566.254.566.566v27.118H25.25z"/></svg>