<svg xmlns="http://www.w3.org/2000/svg" id="Layer_1" x="0" y="0" version="1.1" viewBox="0 0 50 50" xml:space="preserve"><style>.st3{fill:#444;stroke:#444;stroke-width:.35;stroke-miterlimit:10}.st4{font-family:&apos;AdobeClean-BoldSemiCn&apos;}.st5{font-size:23.8705px}</style><path fill="#00c8e2" d="M5.8 44.6L46 30V9.2C46 6.4 43.7 4 40.8 4H9.2C6.4 4 4 6.3 4 9.2v31.5c.1 1.6.7 2.9 1.8 3.9z"/><path fill="#00dffc" d="M44.2 5.4c-.9-.8-2.1-1.4-3.5-1.4H9.2C6.4 4 4 6.3 4 9.2V20L44.2 5.4z"/><path fill="#444" d="M25 47H9.2C5.8 47 3 44.2 3 40.8V9.2C3 5.8 5.8 3 9.2 3h31.5C44.2 3 47 5.8 47 9.2v20.7c0 .6-.5 1.1-1.1 1.1s-1.1-.5-1.1-1.1V9.2c0-2.3-1.8-4.1-4.1-4.1H9.2C7 5.1 5.1 7 5.1 9.2v31.5c0 2.3 1.8 4.1 4.1 4.1H25c.6 0 1.1.5 1.1 1.1 0 .6-.5 1.1-1.1 1.1z"/><text class="st3 st4 st5" transform="translate(7.876 32.463)">P</text><text class="st3 st4 st5" transform="translate(20.217 32.463)">s</text><text class="st3 st4 st5" transform="translate(28.136 32.678)">C</text></svg>