<svg xmlns="http://www.w3.org/2000/svg" id="Layer_1" x="0" y="0" version="1.1" viewBox="0 0 50 50" xml:space="preserve"><style>.st3{fill:#494949}</style><path fill="#e589ef" d="M47.6 22.5L5.8 37.7C3.5 34.2 2.2 30 2.2 25.4c0-.9.1-1.8.2-2.7 0-.2.1-.5.1-.7L40.1 8.3l.5.5c3.8 3.5 6.4 8.3 7 13.7z"/><path fill="#f799ff" d="M40.6 8.8L2.3 22.7c0-.2.1-.5.1-.7C4.1 11 13.5 2.6 25 2.6c5.8 0 11.1 2.1 15.1 5.7.2.1.3.3.5.5z"/><path fill="#444" d="M48.9 22.4c-.7-5.5-3.3-10.7-7.4-14.5-.2-.2-.4-.3-.6-.5-4.4-3.9-10-6-15.9-6-11.8 0-22.1 8.8-23.8 20.5v.2c0 .2 0 .3-.1.5-.1 1-.2 1.9-.2 2.9 0 4.6 1.3 9.1 3.8 13 .6.9 1.2 1.7 1.8 2.5.3.3.6.7.9 1l1.8-1.8c-.3-.3-.6-.6-.9-1-.5-.6-.9-1.2-1.3-1.8-.1-.1-.1-.2-.2-.2-2.2-3.5-3.4-7.5-3.4-11.6 0-.8 0-1.7.2-2.6v-.6c0-.2.1-.4.1-.7C5.6 11.4 14.6 3.8 25 3.8c5 0 9.9 1.8 13.7 4.9.2.2.4.3.5.5.2.1.3.3.5.4 3.7 3.4 6 8 6.7 13v.3c.1.8.1 1.6.1 2.5 0 7.9-4.2 14.8-10.5 18.5-.5.3-1 .6-1.6.9-2.8 1.4-6 2.2-9.4 2.2-4.8 0-9.4-1.6-13.1-4.4-.3-.2-.7-.5-1-.8l-1.8 1.8c.3.3.7.6 1 .8 4.2 3.3 9.4 5.1 14.9 5.1 13.3 0 24.1-10.8 24.1-24.1 0-1.1-.1-2.1-.2-3z"/><path d="M27.1 26.4l-2.6-2.6c-.3-.2-.7-.2-.9 0l-9.5 9.5-.9.9-1.2 1.3-.6.6-.9.9-2.2 2.2L6.5 41l-3.6 3.6c-.2.2-.2.7 0 .9L5.5 48c.1.1.3.2.5.2s.3-.1.5-.2l3.7-3.7 1.8-1.8 2.1-2.1.9-.9 8.1-8.1 4.1-4.1c.2-.2.2-.6-.1-.9zm-7 6.1L6 46.7 4.3 45l3.1-3.1 1.8-1.8 5.7-5.7 9.2-9.2 1.7 1.7-5.7 5.6zm8.3-6.5l-.9-.9 4.1-4.1-1.7-1.7-4.1 4.1-.9-.9 4.5-4.5c.3-.3.7-.3.9 0l2.6 2.6c.3.3.3.7 0 .9L28.4 26zm9.9 12.3c-.1-.3-.3-.4-.6-.4h-3.4l-1.1-3.4c-.2-.3-.4-.5-.7-.5-.3 0-.5.2-.6.4l-1.1 3.4h-3.4c-.3 0-.5.2-.6.4-.1.3 0 .6.2.7l2.8 2.2-1.1 3.6c-.1.3 0 .6.2.7.1.1.2.1.4.1s.3 0 .4-.1l2.8-2.3 2 1.6.9.7c.2.2.5.2.8 0 .2-.2.3-.5.2-.7l-.3-.9-.9-2.6 2.9-2.3c.2 0 .3-.3.2-.6zm-4.2 2.3c-.2.2-.3.4-.2.7l.6 1.8-1.5-1.2c-.2-.2-.6-.2-.8 0l-1.6 1.3.6-2c.1-.2 0-.5-.2-.7l-1.7-1.3h2c.3 0 .5-.2.6-.4l.7-2 .7 2c.1.3.3.4.6.4h2l-1.8 1.4zM23.4 11.1c-.1-.3-.3-.4-.6-.4h-3.4l-1.2-3.4c-.1-.3-.3-.4-.6-.4s-.5.2-.6.4l-1.1 3.4h-3.4c-.3 0-.5.2-.6.4-.1.3 0 .5.2.7l2.8 2.2-1.1 3.6v.2c0 .2.1.4.3.5h.1c.1 0 .2.1.3.1.1 0 .3 0 .4-.2l.4-.3 1.5-1.2.9-.8.3.3.6.5 1.9 1.5c.2.2.5.2.8 0 .2-.2.3-.5.2-.7l-.6-1.7-.2-.6-.4-1.2 2.9-2.3c.2 0 .3-.3.2-.6zm-4.2 2.3c-.2.2-.3.4-.2.7l.6 1.6v.2l-.2-.1-1.4-1.1c-.2-.2-.6-.2-.8 0L15.6 16l.6-2c.1-.3 0-.5-.2-.7L14.4 12h2c.3 0 .5-.2.6-.4l.7-2 .7 2c.1.3.3.4.6.4h2l-1.8 1.4z" class="st3"/><path d="M25.4 44.4c-4.3 0-8.5-1.5-11.9-4.2l.8-1c3.1 2.5 7 3.9 11 3.9v1.3zm15.4-8.1l-1.1-.7c2-2.9 3.1-6.4 3.1-10C42.9 16 35 8.1 25.4 8.1V6.8c10.3 0 18.8 8.4 18.8 18.8 0 3.8-1.2 7.6-3.4 10.7zm-29.9 1.1c-2.7-3.3-4.2-7.5-4.2-11.9 0-3.9 1.2-7.6 3.4-10.7l1.1.7c-2 2.9-3.1 6.4-3.1 10 0 4 1.4 7.9 3.9 11l-1.1.9z" class="st3"/><circle cx="35.1" cy="25.6" r="1.3" class="st3"/><circle cx="28" cy="12" r="1.3" class="st3"/><circle cx="17.6" cy="21.1" r="1.3" class="st3"/><circle cx="26.7" cy="33.4" r="1.3" class="st3"/><circle cx="37.7" cy="30.8" r="1.3" class="st3"/><circle cx="35.1" cy="15.9" r="1.3" class="st3"/><path d="M13.6 34.7c-2-2.6-3.1-5.8-3.1-9.1h1.3c0 3 1 5.9 2.8 8.3l-1 .8zm26.7-9.1H39c0-2.4-.6-4.7-1.8-6.8l1.1-.6c1.3 2.2 2 4.8 2 7.4zm-16.2-9.7h1.3v1.3h-1.3zM17 24.3h1.3v1.3H17zm14.9 6.5h1.3v1.3h-1.3zM10.5 23h1.3v1.3h-1.3zm12.3 14.9h1.3v1.3h-1.3z" class="st3"/></svg>