<svg xmlns="http://www.w3.org/2000/svg" id="Layer_1" x="0" y="0" version="1.1" viewBox="0 0 50 50" xml:space="preserve"><style>.st4{fill:#444}</style><switch><g><path fill="#00dffc" d="M32.6 1.4c-3.5-.2-7 .4-10.5.4-2.9 0-5.8-.4-8.7-.5C9.8 1.1 7 .8 3.9 2.9c-.7.4-1.3.9-1.8 1.3l-.9 2.4c-.2 1.6.4 3.2.5 4.8.1 2.1 0 4.1 0 6.2 0 .7-.3 1.4-.6 2 .1.3.1.6.2.9v.2L47.4 3.9c-4.9-1.5-9.6-2.2-14.8-2.5z"/><path fill="#00c8e2" d="M.6 38.4l48-17.5c-.1-.8 0-1.7.6-2.6.1-.1.1-.2.2-.3-.4-.6-.7-1.4-.6-2.3v-1c.1-3.2-.2-9.4-2.2-11.8L1 19.5c.3 6.4.4 12.5-.4 18.9z"/><g id="Surfaces_00000033369253017267378270000017856425806685609145_"><g id="Photo_Surface_00000065759462108226150470000009143994589182012316_"><path id="Outline_no_shadow_00000044164293469052794380000015316268332437827220_" fill="none" d="M7.7 1.4h34.6c3.5 0 6.3 2.9 6.3 6.5v34.2c0 3.6-2.8 6.5-6.3 6.5H7.7c-3.5 0-6.3-2.9-6.3-6.5V7.9c0-3.6 2.8-6.5 6.3-6.5z"/></g></g><g id="Photo_Surface"><path id="Outline_no_shadow" fill="none" stroke="#444" stroke-linecap="round" stroke-linejoin="round" stroke-miterlimit="10" stroke-width="2.5" d="M7.7 1.4h34.6c3.5 0 6.3 2.9 6.3 6.5v34.2c0 3.6-2.8 6.5-6.3 6.5H7.7c-3.5 0-6.3-2.9-6.3-6.5V7.9c0-3.6 2.8-6.5 6.3-6.5z"/></g><path d="M13.5 21.8s-1.1-1.2-1.3-2.5c0 0 .1.3.6.4 0 0-.2-.8.1-1.8 0 0 .3.8.9 1 0 0 .2-3.4 1.7-4.4 1.5-1 2.9-1.5 2.9-1.5l-.3 1.9s2.2-3.8 4.2-4.5c1.9-.7 5.6-1.9 5.6-1.9l-1.6 2.8s2.2-3.2 4.2-3.3c2-.1 7 .4 7 .4l-1.2 2s1.8-2 2.7-1.5c1 .4 3.1 1.6 4.6 3.7 0 0-4.5 5.6-6.5 5.2-2.1-.4-4.3-.7-6.9-2.4 0 0 2.9 2.7 7.4 3.5 0 0-5.6 4.2-11.7 2.9 0 0 .6.6 1.5 1.1 0 0-5 1.8-8.9.2 0 0 .7 1.2 1.3 1.4 0 0-2.3-.4-3.1-1.1 0 0-.1.7.4 1.2 0 0-1.6-.6-2.1-1.9 0 0 11.4-11.6 26.7-10.3 0 0-16.2-3.7-30.9 13.1 0 0-1.7 2.1-2.3 1.6-.7-.4 5-5.3 5-5.3zM23 35.7c-.3-.1-.5-.1-.8-.1h-.8V38h.7c.3 0 .6 0 .8-.1.2-.1.4-.2.6-.4.1-.2.2-.4.2-.7 0-.2 0-.4-.2-.6-.1-.3-.3-.4-.5-.5z" class="st4"/><path d="M42.4 32H7.5v12h34.9V32zm-17.6 6.2c-.3.4-.7.7-1.1.9-.5.2-1 .2-1.6.2h-.7v2.3s0 .1-.1.1h-1.4v-7.5h2.2c.6 0 1.1.1 1.5.2.4.1.7.3.9.6.2.2.4.5.5.8.1.3.2.6.2.9 0 .6-.1 1.1-.4 1.5zm5 2.8c-.2.3-.5.5-.8.6-.3.1-.8.2-1.3.2-.3 0-.6 0-1-.1-.2 0-.5-.1-.7-.2l-.1-.1v-1.3h.1c.3.2.6.3.9.3.3.1.6.1.8.1.3 0 .5 0 .6-.1.1 0 .2-.2.2-.3 0-.1-.1-.2-.2-.3s-.3-.2-.7-.3c-.4-.1-.7-.3-1-.5-.2-.2-.4-.4-.5-.6-.1-.2-.2-.5-.2-.7 0-.3.1-.6.2-.9.2-.3.4-.5.7-.7.3-.2.8-.2 1.3-.2.3 0 .6 0 .9.1.2 0 .4.1.6.2 0 0 .1 0 .1.1v1.4h-.1c-.2-.1-.4-.2-.7-.2-.3-.1-.5-.1-.8-.1h-.4c-.1 0-.2.1-.2.1 0 .1-.1.1-.1.2s0 .1.1.2l.2.2c.2.1.3.2.5.2.4.1.8.3 1.1.5.2.1.4.3.6.6.1.2.2.5.2.7 0 .2-.1.6-.3.9z" class="st4"/></g></switch></svg>