<svg xmlns="http://www.w3.org/2000/svg" id="Layer_1" x="0" y="0" version="1.1" viewBox="0 0 50 50" xml:space="preserve"><style>.st3{fill:#444}</style><path fill="#dc5e82" d="M46.5 26.6l.4 4.1L2.7 46.8l.1-8.7.3-4.9 44.1-16.1-.7 3.6z"/><path fill="#f56991" d="M46.5 10.7l-.5 7.4L2.8 33.8v-9.3l.3-4.3L46.6 4.4z"/><path fill="none" stroke="#444" stroke-linecap="round" stroke-linejoin="round" stroke-miterlimit="10" stroke-width="2.5" d="M32.4 47.6h-30V3.1h44.8v34.5"/><path d="M30 18.9c.4 0 .7-.3.7-.7s-.3-.7-.7-.7c-.4 0-.7.3-.7.7 0 .3.3.7.7.7zm0-1.1c.2 0 .4.2.4.4s-.2.4-.4.4-.4-.2-.4-.4c0-.3.2-.4.4-.4zm-8.6 10.6h-.6c-.1 0-.2.1-.2.2s.1.2.2.2h.6c.1 0 .2-.1.2-.2s-.1-.2-.2-.2zm4.4 0h-.6c-.1 0-.2.1-.2.2s.1.2.2.2h.6c.1 0 .2-.1.2-.2s-.1-.2-.2-.2zm-2.9 0h-.6c-.1 0-.2.1-.2.2s.1.2.2.2h.6c.1 0 .2-.1.2-.2-.1-.1-.1-.2-.2-.2zm1.5 0h-.6c-.1 0-.2.1-.2.2s.1.2.2.2h.6c.1 0 .2-.1.2-.2-.1-.1-.1-.2-.2-.2zm4.4 0h-.6c-.1 0-.2.1-.2.2s.1.2.2.2h.6c.1 0 .2-.1.2-.2s-.1-.2-.2-.2zm-1.5 0h-.6c-.1 0-.2.1-.2.2s.1.2.2.2h.6c.1 0 .2-.1.2-.2s-.1-.2-.2-.2zm-7.5-4.6c0-.1-.1-.2-.2-.2s-.2.1-.2.2v.6c0 .1.1.2.2.2s.2-.1.2-.2v-.6zm0-1.5c0-.1-.1-.2-.2-.2s-.2.1-.2.2v.6c0 .1.1.2.2.2s.2-.1.2-.2v-.6zm0 3c0-.1-.1-.2-.2-.2s-.2.1-.2.2v.6c0 .1.1.2.2.2s.2-.1.2-.2v-.6zm-.2 1.3c-.1 0-.2.1-.2.2v.6c0 .1.1.2.2.2s.2-.1.2-.2v-.6c0-.1-.1-.2-.2-.2zm.2-7.3c0-.1-.1-.2-.2-.2s-.2.1-.2.2v.6c0 .1.1.2.2.2s.2-.1.2-.2v-.6zm0 1.5c0-.1-.1-.2-.2-.2s-.2.1-.2.2v.6c0 .1.1.2.2.2s.2-.1.2-.2v-.6zm2.5-2.5h.6c.1 0 .2-.1.2-.2-.1-.1-.1-.1-.2-.1h-.6c-.1 0-.2.1-.2.2 0 0 .1.1.2.1zm6 0h.6c.1 0 .2-.1.2-.2s-.1-.2-.2-.2h-.6c-.1 0-.2.1-.2.2s.1.2.2.2zm-4.5 0h.6c.1 0 .2-.1.2-.2s-.1-.2-.2-.2h-.6c-.1 0-.2.1-.2.2s.1.2.2.2zm1.5 0h.6c.1 0 .2-.1.2-.2s-.1-.2-.2-.2h-.6c-.1 0-.2.1-.2.2s.1.2.2.2zm1.5 0h.6c.1 0 .2-.1.2-.2s-.1-.2-.2-.2h-.6c-.1 0-.2.1-.2.2s.1.2.2.2zm-6 0h.6c.1 0 .2-.1.2-.2s-.1-.2-.2-.2h-.6c-.1 0-.2.1-.2.2s.1.2.2.2zm9.4 5.5c0-.1-.1-.2-.2-.2s-.2.1-.2.2v.6c0 .1.1.2.2.2s.2-.1.2-.2v-.6zm0-1.5c0-.1-.1-.2-.2-.2s-.2.1-.2.2v.6c0 .1.1.2.2.2s.2-.1.2-.2v-.6zm-.2 4.3c-.1 0-.2.1-.2.2v.6c0 .1.1.2.2.2s.2-.1.2-.2v-.6c0-.1-.1-.2-.2-.2zm.2-1.3c0-.1-.1-.2-.2-.2s-.2.1-.2.2v.6c0 .1.1.2.2.2s.2-.1.2-.2v-.6zm0-4.5c0-.1-.1-.2-.2-.2s-.2.1-.2.2v.6c0 .1.1.2.2.2s.2-.1.2-.2v-.6zm0-1.5c0-.1-.1-.2-.2-.2s-.2.1-.2.2v.6c0 .1.1.2.2.2s.2-.1.2-.2v-.6zm-10.6-.4c.4 0 .7-.3.7-.7s-.3-.7-.7-.7-.7.3-.7.7c0 .3.3.7.7.7zm0-1.1c.2 0 .4.2.4.4s-.2.4-.4.4-.4-.2-.4-.4c0-.3.2-.4.4-.4zm10.4 10c-.4 0-.7.3-.7.7 0 .4.3.7.7.7.4 0 .7-.3.7-.7 0-.4-.3-.7-.7-.7zm0 1.1c-.2 0-.4-.2-.4-.4s.2-.4.4-.4.4.2.4.4c0 .3-.2.4-.4.4zm-10.4-1.1c-.4 0-.7.3-.7.7 0 .4.3.7.7.7.4 0 .7-.3.7-.7 0-.4-.3-.7-.7-.7zm0 1.1c-.2 0-.4-.2-.4-.4s.2-.4.4-.4.4.2.4.4c0 .3-.2.4-.4.4z" class="st3"/><path fill="none" stroke="#444" stroke-miterlimit="10" stroke-width=".25" d="M28.2 27.6h-6.4c-.6 0-1.1-.5-1.1-1.1v-6.2c0-.6.5-1.1 1.1-1.1h6.4c.6 0 1.1.5 1.1 1.1v6.2c-.1.6-.5 1.1-1.1 1.1z"/><path id="Shape_1_" d="M21.3 26.5v-.6l2.7-3.4 2.5 3.2c.1.1.1.1.2.1s.2-.1.2-.2v-.2l-.6-.8.9-.9 1.5 1.5v1.3h-7.4zm0-6.3h7.4v4.3l-1.3-1.3c-.1-.1-.2-.1-.3 0L26 24.3 24.2 22c-.1-.1-.1-.1-.2-.1s-.1 0-.2.1l-2.5 3.2v-5z" class="st3"/><path d="M30.8 9.5c-.4-.1-.7-.1-1.1-.1h-9.8c-.3 0-.7 0-1 .1h-.1c-2.9.5-5 3-5 6v19.7c0 3.4 2.8 6.1 6.1 6.1h9.8c3.4 0 6.1-2.8 6.1-6.1V15.5c.1-3-2.1-5.5-5-6zm-2.7 2.3l-.5.7c-.1.1-.2.2-.3.2h-4.9c-.1 0-.3-.1-.3-.2l-.5-.7h6.5zm5.3 23.4c0 2-1.7 3.7-3.7 3.7h-9.8c-2 0-3.7-1.7-3.7-3.7V15.5c0-1.6 1-2.9 2.4-3.4L20 14c.5.7 1.4 1.1 2.3 1.1h4.9c.9 0 1.8-.4 2.3-1.1l1.4-1.9c1.4.5 2.4 1.9 2.4 3.4v19.7h.1z" class="st3"/><path d="M26.5 34h-3.3c-.7 0-1.2.6-1.2 1.2s.6 1.2 1.2 1.2h3.3c.7 0 1.2-.6 1.2-1.2s-.6-1.2-1.2-1.2z" class="st3"/><path id="_x31_7" d="M28.6 30.4l1 2.2-.4.2-1.1-2.3-1.3 1.6v-5.2l3.6 3.6-1.8-.1z" class="st3"/></svg>