<svg xmlns="http://www.w3.org/2000/svg" id="Layer_1" x="0" y="0" version="1.1" viewBox="0 0 50 50" xml:space="preserve"><style>.st1{fill:#fcc34f}.st2{fill:#031326}.st3{fill:#031326344}</style><path fill="#fdcf72" d="M42.1 6.5c0-.5-.1-1-.4-1.4-.2-.4-.5-.7-.9-.9-.5-.3-1-.5-1.5-.5H14.9c-1.5 0-2.8 1.3-2.8 2.8v10.6c-1.2.2-2.2 1-2.7 2-1.9.5-3.7 1.5-5 2.9-.4.4-.7.7-1 1.1L42.1 9V6.5z"/><path d="M45.4 20.7c0-1.9-1.4-3.5-3.2-3.7V9L3.4 23.1c-1.2 1.6-1.9 3.5-1.9 5.5 0 2.5 1 4.8 2.8 6.6C5.6 36.5 7.2 37.5 9 38v.5h-.8c-1.3 0-2.4 1.1-2.4 2.4v1.6l39.5-14.4v-7.4z" class="st1"/><path d="M44.7 47.5H9.6c-2.7 0-5-2.2-5-5V41c0-1.1.5-2.2 1.4-2.8-.9-.5-1.8-1.2-2.5-1.9C1.4 34.2.3 31.6.3 28.8s1.1-5.5 3.2-7.5c1.4-1.4 3.1-2.4 5.1-3.1.6-.8 1.3-1.5 2.3-1.9V6.5c0-2.2 1.8-4.1 4-4.1h24.4c.8 0 1.5.2 2.2.7.5.3 1 .8 1.3 1.4.4.6.6 1.3.6 2.1v9.6c1.9.7 3.2 2.6 3.2 4.7V27c0 .7-.6 1.2-1.2 1.2s-1.2-.6-1.2-1.2v-6.1c0-1.2-.9-2.3-2.2-2.5l-1.1-.1V6.6c0-.3-.1-.5-.2-.8-.1-.2-.3-.4-.5-.6-.3-.1-.6-.2-.9-.2H14.9c-.9 0-1.5.7-1.5 1.6v11.7l-1 .2c-.8.1-1.4.6-1.8 1.3l-.2.5-.5.1c-1.7.5-3.3 1.4-4.5 2.6-1.6 1.6-2.5 3.6-2.5 5.8s.9 4.2 2.5 5.8c1.1 1.1 2.5 2 4.1 2.5l.9.3v2.7h-2c-.6 0-1.1.5-1.1 1.1v1.5c0 1.4 1.1 2.5 2.5 2.5h35.1c1.4 0 2.5-1.1 2.5-2.5V41c0-.6-.5-1.1-1.1-1.1h-2v-5.7c0-.7.6-1.2 1.2-1.2s1.2.6 1.2 1.2v3.3c1.8.2 3.1 1.8 3.1 3.6v1.5c-.1 2.7-2.3 4.9-5.1 4.9z" class="st2"/><path d="M34.7 8.2c0 .3-.2.5-.5.5s-.5-.2-.5-.5.2-.5.5-.5.5.2.5.5zm1.5 0c0 .3-.2.5-.5.5s-.5-.2-.5-.5.2-.5.5-.5.5.2.5.5zm1.5 0c0 .3-.2.5-.5.5s-.5-.2-.5-.5.2-.5.5-.5c.2 0 .5.2.5.5z" class="st2"/><path d="M40.4 19.5h-1v-13H15l.1 13h-1v-13c0-.5.4-.9.9-.9h24.4c.5 0 .9.4.9.9v13z" class="st3"/><path d="M43.6 41.6H10.9V20.9c0-1 .8-1.9 1.9-1.9h28.9c1 0 1.9.8 1.9 1.9v20.7zm-31.7-1h30.6V20.9c0-.5-.4-.9-.9-.9H12.8c-.5 0-.9.4-.9.9v19.7z" class="st3"/><path d="M44.8 44.5H9.7c-1 0-1.9-.8-1.9-1.9v-2h38.9v2c0 1-.9 1.9-1.9 1.9zm-36-2.9v1c0 .5.4.9.9.9h35.1c.5 0 .9-.4.9-.9v-1H8.8zM37 33.3H26.5c-.6 0-1-.6-1-1.5v-6.6c0-.8.4-1.5 1-1.5H37c.6 0 1 .6 1 1.5v6.6c0 .9-.4 1.5-1 1.5zm0-8.8H26.5c-.1 0-.2.3-.2.7v6.6c0 .5.2.7.2.7H37c.1 0 .2-.3.2-.7v-6.6c.1-.4-.1-.7-.2-.7z" class="st2"/><path d="M32.4 26.9l-1.3 1.9-.9-.9L28 31h7.3zm2 .9c.5 0 .8-.4.8-.8 0-.5-.4-.8-.8-.8-.5 0-.8.4-.8.8s.3.8.8.8zm3.2 9.6H26c-.1 0-.2-.1-.2-.2s.1-.2.2-.2h11.6c.1 0 .2.1.2.2s-.1.2-.2.2zm0 1.1H26c-.1 0-.2-.1-.2-.2s0-.3.2-.3h11.6c.1 0 .2.1.2.2s-.1.3-.2.3zm0-2.1H26c-.1 0-.2-.1-.2-.2s.1-.2.2-.2h11.6c.1 0 .2.1.2.2s-.1.2-.2.2zm0-1H26c-.1 0-.2-.1-.2-.2s.1-.2.2-.2h11.6c.1 0 .2.1.2.2s-.1.2-.2.2zm-17.5-24c0-.2.2-.5.5-.5h1.7c1 0 1.8.6 1.8 1.9 0 1.2-.9 1.8-1.8 1.8h-1.2v1c0 .3-.2.5-.5.5-.2 0-.5-.2-.5-.5v-4.2zm1 .4v1.8h1.2c.5 0 .9-.4.9-.9s-.4-.9-.9-.9h-1.2zm3.8 3.8v-4.2c0-.3.2-.5.5-.5s.5.2.5.5V13h2.4v-1.6c0-.3.2-.5.5-.5s.5.2.5.5v4.2c0 .3-.2.5-.5.5s-.5-.2-.5-.5V14h-2.4v1.6c0 .3-.2.5-.5.5s-.5-.2-.5-.5zm5.5-4.2c0-.2.2-.5.5-.5h1.7c1 0 1.8.6 1.8 1.9 0 1.2-.9 1.8-1.8 1.8h-1.2v1c0 .3-.2.5-.5.5-.2 0-.5-.2-.5-.5v-4.2zm.9.4v1.8h1.2c.5 0 .9-.4.9-.9s-.4-.9-.9-.9h-1.2zM21.9 29h-4c-.5 0-.9-.4-.9-.9v-3.5c0-.5.4-.9.9-.9h4c.5 0 .9.4.9.9v3.5c0 .5-.4.9-.9.9zM18 24.5c-.1 0-.1.1-.1.1v3.5c0 .1.1.1.1.1h4c.1 0 .1-.1.1-.1v-3.5c0-.1-.1-.1-.1-.1h-4z" class="st2"/><path d="M21.9 34h-4c-.5 0-.9-.4-.9-.9v-3.5c0-.5.4-.9.9-.9h4c.5 0 .9.4.9.9v3.5c0 .5-.4.9-.9.9zM18 29.5c-.1 0-.1.1-.1.1v3.5c0 .1.1.1.1.1h4c.1 0 .1-.1.1-.1v-3.5c0-.1-.1-.1-.1-.1h-4z" class="st2"/><path d="M21.9 39h-4c-.5 0-.9-.4-.9-.9v-3.5c0-.5.4-.9.9-.9h4c.5 0 .9.4.9.9v3.5c0 .5-.4.9-.9.9zM18 34.6c-.1 0-.1.1-.1.1v3.5c0 .1.1.1.1.1h4c.1 0 .1-.1.1-.1v-3.5c0-.1-.1-.1-.1-.1h-4z" class="st2"/><path d="M19.2 32.3c.6-1.1 1-2.3 1-3.6 0-4.2-3.6-7.5-8.1-7.5S4 24.6 4 28.7s3.6 7.5 8.1 7.5c1.7 0 3.3-.5 4.7-1.4l6.6 3.1-4.2-5.6zM8.3 30.4c-.6 0-1.1-.5-1.1-1.2S7.7 28 8.3 28s1.1.5 1.1 1.2-.5 1.2-1.1 1.2zm3.7 0c-.6 0-1.1-.5-1.1-1.2S11.4 28 12 28c.6 0 1.1.5 1.1 1.2s-.5 1.2-1.1 1.2zm3.7 0c-.6 0-1.1-.5-1.1-1.2s.5-1.2 1.1-1.2c.6 0 1.1.5 1.1 1.2s-.5 1.2-1.1 1.2z" class="st2"/><path d="M15.7 28c-.6 0-1.1.5-1.1 1.2s.5 1.2 1.1 1.2c.6 0 1.1-.5 1.1-1.2s-.5-1.2-1.1-1.2zM12 28c-.6 0-1.1.5-1.1 1.2s.5 1.2 1.1 1.2c.6 0 1.1-.5 1.1-1.2S12.6 28 12 28z" class="st1"/></svg>