<svg xmlns="http://www.w3.org/2000/svg" version="1" viewBox="0 0 50 50"><path fill="#FCC34F" d="M4.053 43.735a2.236 2.236 0 002.222 1.991H6.5l40.863-14.873.371-3.374c.14-1.272-.753-2.379-2.01-2.464V6.505c0-1.233-1-2.233-2.233-2.233H6.508c-1.233 0-2.233 1-2.233 2.233v18.41l-.101.109c-1.203.136-2.045 1.217-1.909 2.455l1.788 16.256z"/><path fill="#FDCF72" d="M42.421 4.273H6.38c-1.233 0-2.233 1-2.233 2.233v11.698L42.421 4.273z"/><g fill="#031326"><path d="M48.194 24.977a3.37 3.37 0 00-1.219-.922V6.506a3.487 3.487 0 00-3.483-3.483H6.507a3.486 3.486 0 00-3.482 3.483v17.549a3.375 3.375 0 00-1.218.921 3.478 3.478 0 00-.785 2.64l1.789 16.256a3.48 3.48 0 003.465 3.104h35.191a1.25 1.25 0 000-2.5H6.276a.983.983 0 01-.979-.878l-1.79-16.255a.999.999 0 01.217-.762.93.93 0 01.513-.282h41.526a.93.93 0 01.513.282c.171.205.248.475.217.762l-.371 3.374a1.248 1.248 0 001.105 1.379 1.243 1.243 0 001.379-1.105l.371-3.373a3.474 3.474 0 00-.783-2.641zM6.507 5.523h36.985c.542 0 .983.441.983.983v18.792h-1.703l.92-5.86h-2.827l.377-3.327h-3.028l.311-3.327h-2.272l.264-3.326H13.481l.263 3.326h-2.272l.312 3.327H8.757l.377 3.327H6.308l.92 5.86H5.525V6.506c0-.542.441-.983.982-.983zm.97 14.916h35.045l-.763 4.86H8.241l-.764-4.86zm2.4-3.327h30.247l-.265 2.327H10.14l-.263-2.327zm2.695-3.326h24.857l-.218 2.327H12.79l-.218-2.327zm1.991-3.327h20.873l-.184 2.326H14.748l-.185-2.326z"/><path d="M18.581 33.12c-.892 0-1.617.725-1.617 1.616v1.832c0 .892.725 1.616 1.617 1.616h12.838c.892 0 1.616-.725 1.616-1.616v-1.832c0-.892-.725-1.616-1.616-1.616H18.581zm13.454 1.616v1.832c0 .34-.276.616-.616.616H18.581a.617.617 0 01-.617-.616v-1.832c0-.34.277-.616.617-.616h12.838c.34 0 .616.276.616.616z"/></g></svg>