<svg xmlns="http://www.w3.org/2000/svg" version="1" viewBox="0 0 50 50"><path fill="#4ecdc4" d="M9.1 33.8l36.2-13.2-4.5-4.5 5.1-11c.4-.7-.4-1.5-1.1-1.1l-11 5.1-7.4-7.4c-.8-.8-2.1-.8-3 0L16 9.1 5.2 4c-.8-.3-1.5.4-1.2 1.2l5.1 11-7.4 7.4c-.8.8-.8 2.1 0 3l7.4 7.2z"/><path fill="#83dcd6" d="M9.1 16.2l-.1.1 23.4-8.5-6-6c-.8-.8-2.1-.8-3 0L16 9.2 5.2 4c-.8-.3-1.5.4-1.2 1.2l5.1 11z"/><path fill="#031326" d="M50 25c0-.9-.3-1.7-1-2.3l-7-7.1 5-9.9c.4-.8.2-1.7-.4-2.3-.6-.6-1.5-.8-2.3-.4l-9.9 5-7.1-7C26-.3 24-.3 22.7 1l-7.1 7-9.9-5c-.8-.4-1.7-.2-2.3.4-.6.6-.8 1.5-.4 2.3l5 9.9-7 7.1c-.6.6-1 1.4-1 2.3 0 .9.3 1.7 1 2.3l7 7.1-5 9.9c-.4.8-.2 1.7.4 2.3.6.6 1.5.8 2.3.4l9.9-5 7.1 7.1c.6.6 1.5 1 2.3 1 .8 0 1.7-.3 2.3-1l3.8-3.8c.5-.5.5-1.2 0-1.6-.5-.5-1.2-.5-1.6 0l-3.8 3.8c-.4.4-1 .4-1.3 0L17.9 41l7.7-3.9c.5-.2.7-.7.6-1.2v-.1c0-.6-.5-1.2-1.2-1.2-2.5 0-4.9-1-6.7-2.8a9.476 9.476 0 1113.4 0c-.5.5-.5 1.2 0 1.6.5.5 1.2.5 1.6 0 1.4-1.4 2.4-3.1 3-5l8.3 16.4c-.3.1-.7.3-.8.6-.3.6-.1 1.3.5 1.6.3.1.6.2.9.2.5 0 1-.2 1.4-.6.6-.6.8-1.5.4-2.3l-5-9.9 7.1-7.1c.6-.6.9-1.4.9-2.3zM24.3 2.6c.4-.4 1-.4 1.3 0l6.5 6.5-7.1 3.7-7.2-3.7 6.5-6.5zM2.6 25.7c-.2-.2-.3-.4-.3-.7 0-.2.1-.5.3-.7l6.5-6.6 3.7 7.2-3.7 7.2-6.5-6.4zm14 7.7c1.4 1.4 3.1 2.4 5 3L5.5 44.5l8.1-16.1c.6 1.8 1.6 3.5 3 5zm0-16.8c-1.4 1.4-2.4 3.1-3 5L5.5 5.5l16.1 8.1c-1.8.6-3.5 1.6-5 3zm16.8 0c-1.4-1.4-3.2-2.4-5-3l16.1-8.1-8.1 16.1c-.6-1.8-1.6-3.5-3-5zm14 9.1l-6.5 6.5-3.7-7.2 3.7-7.2 6.5 6.5c.2.2.3.4.3.7 0 .2-.1.5-.3.7z"/></svg>