<svg xmlns="http://www.w3.org/2000/svg" id="Layer_1" x="0" y="0" version="1.1" viewBox="0 0 50 50" xml:space="preserve"><style>.st2,.st3{fill:#031326}</style><path fill="#d4ff73" d="M35.8 4.8H14.2c-.6 0-1.1.3-1.4.8l-6.4 11L37.1 5.4c-.3-.4-.8-.6-1.3-.6z"/><path fill="#bee367" d="M48 25.9c.3-.5.3-1.1 0-1.6L37.2 5.5c0-.1-.1-.1-.1-.1L6.4 16.6 2 24.3c-.3.5-.3 1.1 0 1.6L10.1 40l37.7-13.7.2-.4z"/><path d="M49.1 23.6L38.3 4.8c-.5-.9-1.4-1.4-2.5-1.4H14.2c-1 0-2 .5-2.5 1.4L.9 23.6c-.5.9-.5 2 0 2.8l10.8 18.7c.5.9 1.4 1.4 2.5 1.4h21.6c1 0 2-.5 2.5-1.4l2-3.5c.3-.6.1-1.4-.5-1.7-.6-.3-1.4-.1-1.7.5l-2 3.5c-.1.1-.2.2-.3.2H14.2c-.1 0-.2-.1-.3-.2L3.1 25.2c-.1-.1-.1-.2 0-.3L13.9 6.1c.1-.1.2-.2.3-.2h21.6c.1 0 .2.1.3.2l10.8 18.7c.1.1.1.2 0 .3l-1 1.7c-.3.6-.1 1.4.5 1.7.6.3 1.4.1 1.7-.5l1-1.7c.5-.8.5-1.8 0-2.7z" class="st2"/><path d="M33.9 42.4h-18c-.7 0-1.3-.4-1.7-1l-9-15.6c-.3-.6-.3-1.3 0-1.9l9-15.6c.3-.6 1-1 1.7-1h18c.7 0 1.3.4 1.7 1l9 15.6c.3.6.3 1.3 0 1.9l-9 15.6c-.4.6-1 1-1.7 1zm-18-34.3c-.4 0-.8.2-1 .6l-9 15.6c-.2.4-.2.8 0 1.2l9 15.6c.2.4.6.6 1 .6h18c.4 0 .8-.2 1-.6l9-15.6c.2-.4.2-.8 0-1.2l-9-15.6c-.2-.4-.6-.6-1-.6h-18z" class="st2"/><circle cx="20.7" cy="19.5" r="2.9" class="st3"/><path d="M29.8 29.8l.1-8.4c0-3.2-2.2-5.9-5.3-6.4.7.7 1.3 1.3 1.8 2.3.1.4 0 .7-.4.8-.4.1-.7 0-.8-.4-.7-1.8-2.4-2.9-4.4-2.9-2.6 0-4.8 2.2-4.8 4.8s2.2 4.8 4.8 4.8c.4 0 .7.4.7.7 0 .4-.4.7-.7.7-.7 0-1.3-.1-2-.4.1.5.4.8.7 1.3.4.7.7 1.2 1.4 1.7 1.2.8 2.6 1.3 4.6 1.2l-1.1-1.3v-.1c0-.1.1-.4.2-.5.4-.2.7-.1.8.1 1 1.3 2.5 2 4.2 2h.2zm-9.1-6.6c-2 0-3.6-1.7-3.6-3.6 0-2 1.7-3.6 3.6-3.6s3.6 1.7 3.6 3.6c0 2-1.6 3.6-3.6 3.6zm6.4 1.8c-.6 0-1-.5-1-1s.5-1 1-1c.6 0 1 .5 1 1-.2.4-.6 1-1 1zm4.9 9.5c-1.1 0-2-.8-2-2V31h-.9c-.7 0-1.3-.1-1.9-.4v1.8c0 2.2 2 4.1 4.2 4.1 1.8 0 3.7-1.1 4.1-3.1l-1.8-.2c-.3.8-1 1.3-1.7 1.3zm.2-4.5c.2-.2.4-.7.1-.8 0-.1-.1-.1-.2-.2-.2 0-.5 0-.7.1-.1.1-.2.2-.4.2-.1.1-.4.2-.6.4V31c.7-.3 1.3-.5 1.8-1z" class="st3"/></svg>