<svg xmlns="http://www.w3.org/2000/svg" id="Layer_1" x="0" y="0" version="1.1" viewBox="0 0 50 50" xml:space="preserve"><style>.st2,.st3{fill:#031326}.st3{fill-rule:evenodd;clip-rule:evenodd}</style><path fill="#70c6df" d="M47 24.5c0-6.2-2.5-11.8-6.6-15.8L2.7 22.4c-.1.7-.1 1.4-.1 2.1 0 6.3 2.6 11.9 6.8 16l37.5-13.6c.1-.9.1-1.6.1-2.4z"/><path fill="#7dddfa" d="M24.8 2.3c-11.5 0-21 8.8-22.1 20.1L40.4 8.6c-4-3.9-9.5-6.3-15.6-6.3z"/><path d="M46 14.1c-3-5.8-8.1-10-14.4-11.8C22.7-.3 13 2.6 7 9.7l-.4.5 1.1 4.5c.2.7.8 1.1 1.5.9.2-.1.4-.2.6-.4h.1c4.5-6.8 12.8-9.9 20.7-7.6 1.1.4 2.4.9 3.5 1.5l-1 3.3L44 15.6c.2.2.5.3.8.3.2 0 .4 0 .6-.1.7-.3.9-1.1.6-1.7zm-10.6-6c-1.4-.8-2.9-1.4-4.5-1.9-7.8-2.3-16.1.4-21.1 6.6l-.5-2c5.4-6 13.8-8.4 21.6-6.2 5 1.5 9.2 4.6 12 9L35 11.4l.9-3-.5-.3z" class="st2"/><path d="M24.8 43.4c-.3-.3-.8-.4-1.2-.3-7.9-.7-14.4-6.3-16.3-14-.3-1.3-.5-2.6-.5-3.9l3.4-.8-2.9-11.1c.1-.5 0-1.1-.5-1.4-.6-.4-1.4-.2-1.7.4-3.5 5.5-4.6 12-3 18.4 2.2 9 9.6 16 18.7 17.6l.6.1 3.3-3.2c.6-.5.6-1.3.1-1.8zm-4.2 2.3C12.7 44 6.4 37.9 4.5 30.1 3.2 25 3.9 19.8 6.3 15.2l2 8-3.1.8v.6c0 1.6.2 3.2.6 4.8 1.9 7.9 8.3 13.7 16.2 15l-1.4 1.3z" class="st2"/><path d="M47.3 17l-.2-.6-4.4-1.3c-.7-.2-1.4.2-1.5.9-.1.5 0 1 .4 1.3 3.2 7.2 1.7 15.5-4.1 21-.9.9-2 1.7-3.1 2.4L32 38.2l-8.3 8c-.5.1-.9.6-.9 1.1 0 .7.5 1.3 1.2 1.3h1.1c6.1 0 11.9-2.3 16.4-6.6 6.6-6.4 8.9-16.2 5.8-25zm-7.6 23.3c-3.8 3.6-8.6 5.6-13.8 5.9l6-5.8 2.2 2.3.5-.3c1.4-.8 2.7-1.8 3.9-2.9 5.9-5.6 7.7-14 4.9-21.5l1.8.5c2.4 7.6.3 16.1-5.5 21.8z" class="st2"/><path d="M30.3 23.7h-.4v3.1h.3c.5 0 .8-.1 1-.4.2-.3.3-.7.3-1.2s-.1-.9-.3-1.1c-.2-.2-.5-.4-.9-.4zm-5.6 0h-.4v3.1h.3c.5 0 .8-.1 1-.4.2-.3.3-.7.3-1.2s-.1-.9-.3-1.1c-.2-.2-.5-.4-.9-.4zm-5.2 2H19v1.2h.5c.5 0 .7-.2.7-.6 0-.2-.1-.3-.2-.4-.1-.1-.3-.2-.5-.2zm.5-1.2c.1-.1.2-.2.2-.4 0-.3-.2-.5-.7-.5H19v1h.4c.3 0 .4 0 .6-.1z" class="st3"/><path d="M25.3 12.5c-7.1 0-12.8 5.7-12.8 12.8 0 7.1 5.7 12.8 12.8 12.8 7.1 0 12.8-5.7 12.8-12.8 0-7.1-5.7-12.8-12.8-12.8zm-4.1 15.1c-.4.3-.9.4-1.5.4h-2.1v-5.5h1.9c.8 0 1.3.1 1.7.3.4.2.5.6.5 1 0 .3-.1.6-.2.8-.2.2-.4.4-.6.4.3.1.6.2.7.5.2.2.2.5.2.8 0 .6-.2 1-.6 1.3zm5.5-.3c-.5.5-1.2.7-2.1.7h-1.8v-5.5h1.9c.9 0 1.6.2 2.1.7.5.5.7 1.1.7 2-.1.9-.3 1.6-.8 2.1zm5.6 0c-.5.5-1.2.7-2.1.7h-1.8v-5.5h1.9c.9 0 1.6.2 2.1.7.5.5.7 1.1.7 2 0 .9-.3 1.6-.8 2.1z" class="st3"/></svg>