<svg xmlns="http://www.w3.org/2000/svg" viewBox="0 0 50 50"><switch><g><path fill="#acbfc0" d="M8 24.4c.1.3.4.4.6.3-.1.2-.1.4.1.6 0 0-.5.1-.6.4L4 39.2l37.6-13.7c-.2 0-.3 0-.4.1l.2-.2c.2-.2.2-.5 0-.7l-.2-.2c.3.3.7.1.8-.2l6.9-22.4c.1-.3-.1-.5-.3-.6h-.3L25.8 8c-.4.1-.4.6-.4.6-.2-.2-.5-.2-.7 0l-.2.2c0-.2-.1-.5-.3-.6L1.8 1.4c-.3-.1-.6 0-.6.3V2L8 24.4z"/><path fill="#c0d5d7" d="M7.1 21.5L47.3 6.9l1.6-5.1c.1-.3-.1-.5-.3-.6h-.3L25.8 8c-.4.1-.4.6-.4.6-.2-.2-.5-.2-.7 0l-.2.2c0-.2-.1-.5-.3-.6L1.8 1.4c-.3-.1-.6 0-.6.3V2l5.9 19.5z"/><path fill="#031326" d="M43.1 25.5c-.1-.2-.1-.3-.2-.5.1-.1.2-.3.2-.5L50 2.1c.3-.9-.2-1.8-1.1-2-.3-.1-.6-.1-1 0L25.5 6.9c-.2.1-.4.2-.5.3-.1-.1-.3-.2-.5-.2L2.1.1C1.5-.1.9.1.5.5c-.4.4-.6 1-.4 1.6L7 24.5c0 .2.1.4.2.5-.1.1-.2.3-.2.5L.1 47.9c-.2.6 0 1.2.4 1.6.4.4 1.1.6 1.6.4L24.5 43c.2 0 .3-.1.5-.2.1.1.3.2.5.2l5 1.5c.6.2 1.2-.2 1.4-.8.2-.6-.2-1.2-.8-1.4l-3.9-1.2L41.3 27l6.2 20.3-1.3-.3c-.6-.2-1.2.2-1.4.8-.2.6.2 1.2.8 1.4l2.3.7c.6.2 1.2 0 1.6-.4.4-.4.6-1.1.4-1.6l-6.8-22.4zM25 40.1l-3.6-3.6c2.4.7 4.9.7 7.2 0L25 40.1zm0-30.2l3.6 3.6c-2.4-.7-4.9-.7-7.2 0L25 9.9zm-7.2 7.9c1.9-1.9 4.5-3 7.2-3s5.3 1.1 7.2 3c4 4 4 10.5 0 14.5-1.9 1.9-4.5 3-7.2 3s-5.3-1.1-7.2-3c-4-4-4-10.5 0-14.5zm18.7 3.6l3.6 3.6-3.6 3.6c.7-2.3.7-4.9 0-7.2zm-23 7.2L9.9 25l3.6-3.6c-.7 2.3-.7 4.9 0 7.2zm33.9-26l-6.2 20.2-14.1-14 20.3-6.2zm-44.8 0l20.2 6.2-14 14.1L2.6 2.6zm0 44.8l6.2-20.2 7 7 7 7-20.2 6.2z"/></g></switch></svg>