<svg xmlns="http://www.w3.org/2000/svg" id="Layer_1" x="0" y="0" version="1.1" viewBox="0 0 50 50" xml:space="preserve"><style>.st2{fill:#031326}</style><path fill="#00c8e2" d="M48 24.2L6.2 39.4v-4.3L2 29.5V9.4h46z"/><path fill="#00dffc" d="M45.1 8.9L2 24.6V9.4h14.7V2h16.6v7.4z"/><path d="M20.3 16.7c.5.4.7.9.7 1.7 0 .6-.1 1.1-.4 1.5-.3.4-.7.8-1.2 1-.5.2-1.1.4-1.8.4h-1.4l-.4 1.8h-2l1.4-7h3c.9 0 1.6.2 2.1.6zm-1.6 2.7c.2-.2.4-.5.4-.9 0-.3-.1-.5-.3-.6-.2-.1-.5-.2-.8-.2h-1l-.4 2.1h1.2c.3-.1.6-.2.9-.4zm10.4-3.3l-1.4 7h-2l.5-2.7h-2.7l-.5 2.7h-2l1.4-7h2l-.5 2.6h2.7l.5-2.6h2zm6.5.6c.5.4.7.9.7 1.7 0 .6-.1 1.1-.4 1.5-.3.4-.7.8-1.2 1-.5.2-1.1.4-1.8.4h-1.4l-.4 1.8h-2l1.4-7h3c.9 0 1.6.2 2.1.6zM34 19.4c.2-.2.4-.5.4-.9 0-.3-.1-.5-.3-.6-.2-.1-.5-.2-.8-.2h-1l-.4 2.1H33c.4-.1.7-.2 1-.4z" class="st2"/><path fill="none" d="M18 3.4h14.1v4.7H18zm18.2 33.3v3.9c0 .4-.3.8-.8.8s-.8-.3-.8-.8v-3.9H15.3v3.9c0 .4-.3.8-.8.8s-.8-.3-.8-.8v-3.9H7.5v8.1c0 1 .8 1.8 1.8 1.8h31.3c1 0 1.8-.8 1.8-1.8v-8.1h-6.2zm-32.8-26v18.5c0 2.7 2.2 5 5 5h5.5V30h-2.4c-.4 0-.8-.3-.8-.8s.3-.8.8-.8h6.3c.4 0 .8.3.8.8s-.3.8-.8.8h-2.4v4.2h19.4V30h-2.4c-.4 0-.8-.3-.8-.8s.3-.8.8-.8h6.3c.4 0 .8.3.8.8s-.3.8-.8.8h-2.4v4.2h5.5c2.7 0 5-2.2 5-5V10.7H3.4z"/><path d="M48 8H34.6V2c0-.7-.6-1.3-1.3-1.3H16.7c-.7 0-1.3.6-1.3 1.3v6H2C1.3 8 .7 8.6.7 9.4v19.8c0 3 1.7 5.5 4.2 6.8v8.9c0 2.4 2 4.4 4.4 4.4h31.3c2.4 0 4.4-2 4.4-4.4V36c2.5-1.2 4.2-3.8 4.2-6.8V9.4c.1-.8-.5-1.4-1.2-1.4zM18 3.4h14V8H18V3.4zm24.5 41.4c0 1-.8 1.8-1.8 1.8H9.4c-1 0-1.8-.8-1.8-1.8v-8.1h6.3v3.9c0 .4.3.8.8.8s.8-.3.8-.8v-3.9h19.4v3.9c0 .4.3.8.8.8s.8-.3.8-.8v-3.9h6.3v8.1zm4.1-15.6c0 2.7-2.2 5-5 5h-5.5V30h2.4c.4 0 .8-.3.8-.8s-.3-.8-.8-.8h-6.3c-.4 0-.8.3-.8.8s.3.8.8.8h2.4v4.2H15.3V30h2.4c.4 0 .8-.3.8-.8s-.3-.8-.8-.8h-6.3c-.4 0-.8.3-.8.8s.3.8.8.8h2.4v4.2H8.3c-2.7 0-5-2.2-5-5V10.7h43.3v18.5z" class="st2"/></svg>