<svg xmlns="http://www.w3.org/2000/svg" viewBox="0 0 45 46"><g fill="none" fill-rule="evenodd"><path fill="#E56060" d="M42.405 20.122L10.224 31.835l-.937-.482 3.518-7.387-6.948.528-2.463-3.877L43.85 8.904l-2.022 6.091z"/><path fill="#FF6B6B" d="M32.68 3.738l-3.956-2.463-27.001 9.762 2.11 3.606.65 8.967L44.158 9.17l-1.89-6.75L35.584.922z"/><path fill="#031326" d="M39.471.444C37.994.006 36.489.059 35.117.6c-1.142.45-2.15 1.232-2.96 2.289-1.082-1.081-2.548-1.63-4.365-1.63-1.086 0-2.073.499-3.026.98-.808.409-1.569.793-2.238.793-.67 0-1.433-.384-2.24-.792-.954-.482-1.94-.98-3.026-.98-1.816 0-3.282.548-4.364 1.629a7.508 7.508 0 00-1.162-1.216.874.874 0 10-1.118 1.344 6.06 6.06 0 011.199 1.369c-.691 1.326-1.009 2.97-1.101 4.766-.692-1.002-1.514-1.772-2.472-2.326A.875.875 0 007.37 8.34c1.605.926 2.751 2.722 3.505 5.486.172 1.766.435 3.542.681 5.196l.162 1.102c.163 1.125.272 2.149.297 3.09a20.89 20.89 0 00-1.404.316c-1.091.272-2.121.53-3.303.293-1.08-.217-1.903-.755-2.447-1.6-.815-1.264-.986-3.15-.483-5.308.453-1.946-.412-3.644-1.248-5.286-.587-1.153-1.142-2.242-1.217-3.348-.129-1.907.592-3.706 1.979-4.935a.875.875 0 00-1.159-1.308C.937 3.628.003 5.947.169 8.398c.099 1.463.762 2.765 1.403 4.024.726 1.425 1.412 2.772 1.103 4.096-.611 2.623-.357 4.985.716 6.652.798 1.239 2.033 2.058 3.573 2.366 1.568.315 2.84-.003 4.07-.31.309-.077.612-.153.914-.217-.31 2.658-1.631 4.627-4.843 6.5a.875.875 0 00.304 1.619c.707.11 3.208.396 5.745-.587a8.748 8.748 0 004.23-3.43l1.025 11.895c.192 2.224 1.887 3.9 3.943 3.9s3.75-1.676 3.942-3.9l.065-.755a.874.874 0 10-1.742-.15l-.065.755c-.099 1.144-.886 2.303-2.2 2.303-1.315 0-2.102-1.16-2.2-2.303l-2.021-23.441c-.102-1.142-1.015-2.157-1.875-2.655a.875.875 0 00-.877 1.513c.464.269.969.828 1.01 1.295l.553 6.41c-1.192-.606-2.235-.847-3.178-.89-.034-1.076-.162-2.158-.315-3.215l-.164-1.107c-.687-4.63-1.614-10.867.268-13.901a4.336 4.336 0 01.392-.536c.766-.89 1.851-1.321 3.317-1.321.669 0 1.432.385 2.238.792.954.482 1.942.98 3.028.98 1.085 0 2.072-.498 3.026-.98.807-.407 1.569-.792 2.238-.792 1.466 0 2.551.432 3.318 1.32.13.15.249.314.36.487l.031.05c1.882 3.034.956 9.27.268 13.9l-.163 1.108c-.154 1.057-.281 2.139-.315 3.216-1.04.046-2.2.334-3.547 1.086l.57-6.604c.042-.47.547-1.03 1.01-1.298a.874.874 0 00-.876-1.513c-.86.499-1.774 1.513-1.875 2.658l-1.281 14.845a.876.876 0 00.872.949c.45 0 .831-.344.87-.8l.329-3.804c1.05 1.838 2.586 3.177 4.538 3.933 1.463.567 2.915.712 4.016.712.809 0 1.429-.078 1.728-.124a.875.875 0 00.305-1.62c-3.213-1.873-4.534-3.842-4.843-6.5.302.064.603.14.913.217 1.23.307 2.503.625 4.07.31 1.54-.308 2.776-1.127 3.573-2.366 1.073-1.667 1.328-4.03.716-6.652-.308-1.324.377-2.671 1.104-4.096.557-1.096 1.132-2.224 1.337-3.463V6.682c-.429-2.933-2.461-5.38-5.349-6.238M13.224 27.293c.272-.793.427-1.617.499-2.455.932.047 1.956.352 3.219 1.15-1.329 4.097-4.405 5.227-6.694 5.467 1.469-1.226 2.434-2.584 2.976-4.162m21.581 4.162c-2.289-.24-5.363-1.371-6.692-5.466 1.262-.8 2.286-1.104 3.218-1.151.072.838.227 1.662.498 2.455.543 1.578 1.507 2.936 2.976 4.162M43.141 8.28c-.075 1.106-.63 2.195-1.217 3.348-.836 1.643-1.701 3.34-1.248 5.287.503 2.158.332 4.043-.482 5.308-.544.845-1.368 1.383-2.448 1.599-1.181.238-2.213-.02-3.302-.292a20.196 20.196 0 00-1.405-.315c.026-.942.134-1.967.297-3.091l.162-1.102c.246-1.655.509-3.43.681-5.196.754-2.764 1.9-4.56 3.505-5.486a.875.875 0 00-.874-1.514c-.958.553-1.779 1.324-2.472 2.325-.092-1.794-.41-3.44-1.1-4.765 1.358-2.093 3.471-2.94 5.735-2.266a5.923 5.923 0 014.168 6.16"/><path stroke="#031326" stroke-width=".3" d="M39.471.444C37.994.006 36.489.059 35.117.6c-1.142.45-2.15 1.232-2.96 2.289-1.082-1.081-2.548-1.63-4.365-1.63-1.086 0-2.073.499-3.026.98-.808.409-1.569.793-2.238.793-.67 0-1.433-.384-2.24-.792-.954-.482-1.94-.98-3.026-.98-1.816 0-3.282.548-4.364 1.629a7.508 7.508 0 00-1.162-1.216.874.874 0 10-1.118 1.344 6.06 6.06 0 011.199 1.369c-.691 1.326-1.009 2.97-1.101 4.766-.692-1.002-1.514-1.772-2.472-2.326A.875.875 0 007.37 8.34c1.605.926 2.751 2.722 3.505 5.486.172 1.766.435 3.542.681 5.196l.162 1.102c.163 1.125.272 2.149.297 3.09a20.89 20.89 0 00-1.404.316c-1.091.272-2.121.53-3.303.293-1.08-.217-1.903-.755-2.447-1.6-.815-1.264-.986-3.15-.483-5.308.453-1.946-.412-3.644-1.248-5.286-.587-1.153-1.142-2.242-1.217-3.348-.129-1.907.592-3.706 1.979-4.935a.875.875 0 00-1.159-1.308C.937 3.628.003 5.947.169 8.398c.099 1.463.762 2.765 1.403 4.024.726 1.425 1.412 2.772 1.103 4.096-.611 2.623-.357 4.985.716 6.652.798 1.239 2.033 2.058 3.573 2.366 1.568.315 2.84-.003 4.07-.31.309-.077.612-.153.914-.217-.31 2.658-1.631 4.627-4.843 6.5a.875.875 0 00.304 1.619c.707.11 3.208.396 5.745-.587a8.748 8.748 0 004.23-3.43l1.025 11.895c.192 2.224 1.887 3.9 3.943 3.9s3.75-1.676 3.942-3.9l.065-.755a.874.874 0 10-1.742-.15l-.065.755c-.099 1.144-.886 2.303-2.2 2.303-1.315 0-2.102-1.16-2.2-2.303l-2.021-23.441c-.102-1.142-1.015-2.157-1.875-2.655a.875.875 0 00-.877 1.513c.464.269.969.828 1.01 1.295l.553 6.41c-1.192-.606-2.235-.847-3.178-.89-.034-1.076-.162-2.158-.315-3.215l-.164-1.107c-.687-4.63-1.614-10.867.268-13.901a4.336 4.336 0 01.392-.536c.766-.89 1.851-1.321 3.317-1.321.669 0 1.432.385 2.238.792.954.482 1.942.98 3.028.98 1.085 0 2.072-.498 3.026-.98.807-.407 1.569-.792 2.238-.792 1.466 0 2.551.432 3.318 1.32.13.15.249.314.36.487l.031.05c1.882 3.034.956 9.27.268 13.9l-.163 1.108c-.154 1.057-.281 2.139-.315 3.216-1.04.046-2.2.334-3.547 1.086l.57-6.604c.042-.47.547-1.03 1.01-1.298a.874.874 0 00-.876-1.513c-.86.499-1.774 1.513-1.875 2.658l-1.281 14.845a.876.876 0 00.872.949c.45 0 .831-.344.87-.8l.329-3.804c1.05 1.838 2.586 3.177 4.538 3.933 1.463.567 2.915.712 4.016.712.809 0 1.429-.078 1.728-.124a.875.875 0 00.305-1.62c-3.213-1.873-4.534-3.842-4.843-6.5.302.064.603.14.913.217 1.23.307 2.503.625 4.07.31 1.54-.308 2.776-1.127 3.573-2.366 1.073-1.667 1.328-4.03.716-6.652-.308-1.324.377-2.671 1.104-4.096.557-1.096 1.132-2.224 1.337-3.463V6.682c-.429-2.933-2.461-5.38-5.349-6.238zM13.224 27.293c.272-.793.427-1.617.499-2.455.932.047 1.956.352 3.219 1.15-1.329 4.097-4.405 5.227-6.694 5.467 1.469-1.226 2.434-2.584 2.976-4.162zm21.581 4.162c-2.289-.24-5.363-1.371-6.692-5.466 1.262-.8 2.286-1.104 3.218-1.151.072.838.227 1.662.498 2.455.543 1.578 1.507 2.936 2.976 4.162zM43.141 8.28c-.075 1.106-.63 2.195-1.217 3.348-.836 1.643-1.701 3.34-1.248 5.287.503 2.158.332 4.043-.482 5.308-.544.845-1.368 1.383-2.448 1.599-1.181.238-2.213-.02-3.302-.292a20.196 20.196 0 00-1.405-.315c.026-.942.134-1.967.297-3.091l.162-1.102c.246-1.655.509-3.43.681-5.196.754-2.764 1.9-4.56 3.505-5.486a.875.875 0 00-.874-1.514c-.958.553-1.779 1.324-2.472 2.325-.092-1.794-.41-3.44-1.1-4.765 1.358-2.093 3.471-2.94 5.735-2.266a5.923 5.923 0 014.168 6.16z"/><path stroke="#031326" stroke-linecap="round" stroke-linejoin="round" stroke-width="1.5" d="M20.267 19.298h3.98m-3.416 5.887h2.852M21.5 31.073h1.514m-1.239 5.887h.965M17.945 8.669s3.215 3.094 8.399 0"/><path stroke="#031326" stroke-linecap="round" stroke-linejoin="round" stroke-width="2.05" d="M26.155 32.276l-.68 8.023"/></g></svg>