<svg xmlns="http://www.w3.org/2000/svg" id="Layer_1" x="0" y="0" version="1.1" viewBox="0 0 50 50" xml:space="preserve"><style>.st2{fill:#031326}</style><path fill="#a475ef" d="M42.8 24.5v11.9l-1.4.5-1.9.7-1.8.7-8 2.9-1.4.5-7.3 2.6-3.9 1.4-5.2 1.9L8 49H2.9c-1.2 0-2.1-1-2.1-2.1v-7.1l1.4-.5 2.1-.8 1.4-.5 1.4-.5.7-.2 4-1.5 4.4-1.6 6.1-2.2 1.4-.5 13.5-4.9 2.5-.9 1.5-.6 1.6-.6zm6.5-2.4V34l-1.4.5V22.6z"/><path fill="#bf94f7" d="M49.3 21.1v1.4l-1.4.5v-2c0-1.2-1-2.1-2.1-2.1h-2.9V25l-1.4.5-1.9.7-2.8 1-12.9 4.7-1.4.5-5.4 2-3.9 1.4-4.6 1.7-1.4.5-1.4.5-.6.2-2.9 1.1-1.4.5v-3.8c0-1.2 1-2.1 2.1-2.1h12v-1.2h-2l-1-2.8-2.4-1-2.7 1.3-3.2-3.2 1.5-.5 9-3.3 2.1-.8 1.7-.6 1.8-.6 2.6-1 1.4-.5 3.7-1.4 5.3-1.9 3.9-1.4 4.6-1.7 1.4-.5v4.5h2.9c2.1-.2 3.7 1.4 3.7 3.3z"/><path d="M7.2 7.7L5 9.9l1.1 2.3-1.5 3.6-2.4.9v3.1l2.4.9 1.5 3.6L5 26.6l2.2 2.3 2.3-1.1 3.6 1.4.9 2.5h1.6v1.4H13l-1-2.8-2.4-1-2.7 1.3-3.2-3.3-.4-.4 1.2-2.6-1-2.5-2.8-.9v-5.2l2.8-1 1-2.4-1.2-2.7L6.9 6l2.7 1.2 2.4-1 1-2.8h2.6v1.5H14l-.9 2.4-3.6 1.5z" class="st2"/><path d="M41.3.5h-25c-.8 0-1.5.7-1.5 1.5v4.6h27.9V2c.1-.8-.6-1.5-1.4-1.5zm-21.4 4h-1.4V3.1h1.4v1.4zm2.8 0h-1.4V3.1h1.4v1.4zm2.9 0h-1.4V3.1h1.4v1.4zm0 34.2h-1.4v-1.4h1.4v1.4zm-2.8 0h-1.4v-1.4h1.4v1.4zm-2.9 0h-1.4v-1.4h1.4v1.4zm-2.8 0h-1.4v-1.4h1.4v1.4zm-2.9 0h-1.4v-1.4h1.4v1.4zm-2.8 0H10v-1.4h1.4v1.4zm-2.8 0H7.1v-1.4h1.4v1.4zm-2.9 0H4.3v-1.4h1.4v1.4zm19.9 3.5h-1.4v-1.4h1.4v1.4zm-2.8 0h-1.4v-1.4h1.4v1.4zm-2.9 0h-1.4v-1.4h1.4v1.4zm-2.8 0h-1.4v-1.4h1.4v1.4zm-2.9 0h-1.4v-1.4h1.4v1.4zm-2.8 0H10v-1.4h1.4v1.4zm-2.8 0H7.1v-1.4h1.4v1.4zm-2.9 0H4.3v-1.4h1.4v1.4zm20 3.5h-1.4v-1.4h1.4v1.4zm-2.8 0H7.1v-1.4h15.7v1.4zm-17.2 0H4.3v-1.4h1.4v1.4zm29.7-7H34v-1.4h1.4v1.4zm-2.8 0h-1.4v-1.4h1.4v1.4zm-2.9 0h-1.4v-1.4h1.4v1.4zm5.7 3.5H34v-1.4h1.4v1.4zm-2.8 0h-1.4v-1.4h1.4v1.4zm-2.9 0h-1.4v-1.4h1.4v1.4zM18 11.8h2.8v1.4H18v-1.4zm0 3.2h2.8v1.4H18V15zm0 3.3h2.8v1.4H18v-1.4zm0 3.2h2.8v1.4H18v-1.4zm0 3.2h2.8v1.4H18v-1.4zm0 3.2h2.8v1.4H18v-1.4zm19.6.4l-1.1-.9 1.5-1.7-1.5-1.7 1.1-.9 2.3 2.6-2.3 2.6zm-10.1-9.7L25.2 16l2.3-2.7 1.1.9-1.5 1.8 1.5 1.7-1.1.9zm12.4-1.9h-1.4v-1.4h1.4v1.4zm-2.8 0h-8v-1.4h8v1.4zm2.8 4.9h-6.6v-1.4h6.6v1.4zm-8 0h-6.5v-1.4h6.5v1.4zm4.1 4.8h-1.4V25H36v1.4zm-2.9 0h-7.8V25h7.8v1.4z" class="st2"/><path d="M45.7 17.6h-2.9V5.7H14.9v7.2c-2.7.4-4.7 2.6-4.7 5.4 0 2.5 1.7 4.6 4 5.2.2.1.5.1.7.1v10.7h-12c-1.2 0-2.1 1-2.1 2.1v10.4c0 1.2 1 2.1 2.1 2.1H37c1.2 0 2.1-1 2.1-2.1v-4.5h6.6c2 0 3.5-1.6 3.5-3.5V21.1c.1-1.9-1.5-3.5-3.5-3.5zm-4.3 19.9h-2.2v-1.1c0-1.2-.9-2.1-2.1-2.1H23.9V7.1h17.6v30.4zM11.5 18.3c0-2 1.4-3.6 3.3-4v7.9c-1.8-.3-3.3-2-3.3-3.9zm4.8-11.2h6.1v27.2h-6.1V7.1zm21.4 39.8c0 .4-.3.7-.7.7H2.9c-.4 0-.7-.3-.7-.7V36.5c0-.4.3-.7.7-.7H37c.4 0 .7.3.7.7v10.4zm10.2-8.1c0 1.2-1 2.1-2.1 2.1h-6.6v-2h3.7V19h2.9c1.2 0 2.1 1 2.1 2.1v17.7z" class="st2"/></svg>