<svg xmlns="http://www.w3.org/2000/svg" xmlns:xlink="http://www.w3.org/1999/xlink" viewBox="0 0 49 49"><defs><path id="a" d="M0 .443h48.86V49H0z"/></defs><g fill="none" fill-rule="evenodd"><path fill="#A475EF" d="M1.603 33.14l-.353 5.28-.135 9.178 46.9-17.07-.404-4.352v-6.28l.714-3.76z"/><path fill="#BF94F7" d="M47.61 9.345l-.564 7.814L1.25 33.827v-9.912l.33-4.486L47.725 2.633z"/><g transform="translate(0 -.443)"><mask id="b" fill="#fff"><use xlink:href="#a"/></mask><path fill="#031326" d="M47.61 49H37.292a1.25 1.25 0 110-2.5h9.068V2.943H2.5V47.75a1.25 1.25 0 11-2.5 0V1.693c0-.69.56-1.25 1.25-1.25h46.36c.69 0 1.25.56 1.25 1.25V47.75c0 .69-.56 1.25-1.25 1.25" mask="url(#b)"/></g><path fill="#031326" d="M23.88 13.701a3.434 3.434 0 011.517-2.851 3.48 3.48 0 013.262-.318 3.44 3.44 0 11-4.778 3.17m.12 4.033l.134-.16-.132.16a5.186 5.186 0 003.312 1.19h.01a5.195 5.195 0 003.31-1.19 5.27 5.27 0 001.39-1.766 5.245 5.245 0 00.518-2.268 5.213 5.213 0 00-2.303-4.33 5.28 5.28 0 00-4.954-.482 5.22 5.22 0 00-2.296 1.892 5.185 5.185 0 00-.893 2.92c0 .783.179 1.567.516 2.268a5.288 5.288 0 001.389 1.766"/><path fill="#031326" d="M22.995 23.237l-.005-.058a1.19 1.19 0 01-.004-.102v-1.053c0-.25.068-.505.184-.68a.538.538 0 01.155-.164l-.006-.008 2.585.786a.893.893 0 00.816-.157.959.959 0 011.197-.001.89.89 0 00.818.158l2.572-.783a.54.54 0 01.046.033.766.766 0 01.198.29c.047.108.103.287.102.527v1.052c0 .132-.017.26-.05.382a1.068 1.068 0 01-.106.254.584.584 0 01-.17.201l-.02.012-2.572-.782a.889.889 0 00-.816.156.959.959 0 01-1.2 0 .891.891 0 00-.815-.156l-2.578.784c-.008-.005-.017-.01-.027-.018a.451.451 0 01-.107-.11.964.964 0 01-.119-.232l-.019-.055a.604.604 0 01-.018-.06c-.003-.01-.002-.012-.008-.023l-.002-.012-.01-.055a1.183 1.183 0 01-.012-.058m21.852-4.207a2.931 2.931 0 00-1.587-1.65 2.967 2.967 0 00-2.21-.042 2.913 2.913 0 00-.943.586l-4.35 4.02h-2.329a3.213 3.213 0 00-.143-.94 2.897 2.897 0 00-.285-.632 2.328 2.328 0 00-.715-.75 1.97 1.97 0 00-.49-.233c-.27-.084-.552-.13-.82-.047l-2.372.721a2.743 2.743 0 00-.368-.165 2.77 2.77 0 00-1.848 0 2.873 2.873 0 00-.369.165l-2.37-.72c-.266-.083-.54-.039-.798.04a2.002 2.002 0 00-.684.362 2.364 2.364 0 00-.497.553 3.01 3.01 0 00-.475 1.645h-2.33l-4.35-4.019a2.915 2.915 0 00-.94-.586 2.95 2.95 0 00-1.823-.092l-.01.003a2.927 2.927 0 00-.643.262l-5.194-5.22a.881.881 0 00-.629-.263.873.873 0 00-.632.26.888.888 0 00-.003 1.26l5.231 5.26a2.943 2.943 0 00.654 3.434l5.195 4.8c.545.503 1.253.78 1.995.78h2.971v11.603c0 .025.005.05.013.072a.913.913 0 00.901.803h6.566a.915.915 0 000-1.83H22.48V27a.904.904 0 00-.26-.632.903.903 0 00-.632-.26h-3.863a1.15 1.15 0 01-.784-.307L11.744 21a1.137 1.137 0 01-.37-.849 1.146 1.146 0 01.305-.783c.151-.164.335-.275.547-.333a1.152 1.152 0 011.087.267l4.607 4.256a.883.883 0 00.605.237h2.76l.04.154c.001.014.005.025.007.034l.076.225a2.771 2.771 0 00.339.639c.14.191.304.35.483.483.002.002.001.006.003.01a.12.12 0 01.018.014l.002.002.004.001.004.004c.2.145.431.252.624.294a.174.174 0 00.054.02l.013.001c.048.012.098.023.15.031.183.031.373.042.554-.015l2.372-.722a2.73 2.73 0 001.292.325h.003c.428 0 .858-.104 1.24-.298l.05-.026 2.37.721c.334.103.694.022 1.017-.12.168-.074.327-.172.472-.29.204-.165.381-.369.528-.606.131-.212.23-.45.303-.7.001 0 .003 0 .003-.002h.001v-.002h.001v-.002h.001l.003-.012c.002-.008.007-.014.01-.022l.034-.14h2.758c.225 0 .44-.085.605-.238l4.607-4.256A1.157 1.157 0 1142.896 21L37.7 25.8a1.152 1.152 0 01-.785.306h-3.863a.903.903 0 00-.63.261.902.902 0 00-.262.632v12.43a.893.893 0 001.784 0V27.89h2.971c.742 0 1.45-.277 1.996-.78l5.195-4.8a2.927 2.927 0 00.944-2.16c0-.362-.065-.715-.194-1.052"/></g></svg>