<svg xmlns="http://www.w3.org/2000/svg" viewBox="0 0 50 50"><path fill="#00c8e2" d="M36.2 16.5v15.2l-1.9 2.5-7.8 1.1v-.6c-1 .1-1.9.2-2.8.2-3.5 0-6.5-1-8.9-2.8-1.6-1.3-2.8-2.8-3.6-4.3-1.1-2-1.5-3.9-1.7-4.9-3-2.2-5.1-5.8-5.1-9.8 0-6.5 5.3-11.8 11.8-11.8.5 0 1 0 1.4.1h3.6c8.3 0 15 6.8 15 15.1z"/><path fill="#00dffc" d="M36.2 16.5v2.1l-2.3.9-3.8 1.4-3.5 1.2-13 4.7-2.4.9c-1.1-2-1.5-3.9-1.7-4.9-3-2.1-5.1-5.7-5.1-9.7 0-6.5 5.3-11.8 11.8-11.8.5 0 1 0 1.4.1h3.6c8.3 0 15 6.8 15 15.1z"/><path fill="#444" d="M47.2 38.8l-4.7-.9c-1-.2-2.1.4-2.4 1.4-.2.7-.8 1.1-1.5 1.1-.8 0-1.5-.7-1.5-1.5v-3.6c1.2-.4 2.4-1.1 3.4-1.9.5-.4.6-1.2.2-1.7-.1-.2-.3-.3-.5-.4-.4-.1-.8-.1-1.2.2-.2.2-.5.4-.8.5-.4.2-.8.5-1.2.6V16.4C37 7.6 29.9.5 21.1.5h-3.8c-.5-.1-1-.1-1.5-.1C9.1.4 3.6 6 3.6 12.8c0 4.2 2.1 8 5.4 10.2.1 1.1.6 3.1 1.8 5.2.7 1.2 1.5 2.5 2.7 3.6l-6.4 5.9c-.4-.3-.9-.4-1.4-.4-1.4 0-2.6 1.2-2.6 2.6 0 1.4 1.2 2.6 2.6 2.6s2.6-1.2 2.6-2.6c0-.4-.1-.7-.2-1l6.6-6.1c2.5 1.9 5.6 2.9 9.3 2.9.9 0 1.9-.1 2.9-.2v3.4c0 5.9 5.1 10.8 11.1 10.8 5.6 0 10.2-3.6 10.9-8.7 0-1.1-.7-2.1-1.7-2.2zm-21.9-9.3c-.4-.6-1.2-.7-1.7-.3-.3.2-.5.6-.5 1 0 .1-.1.2-.1.3l2.3 2.6c-3.5.3-6.5-.4-8.8-2.1L27 21.3c.3.1.5.1.8.1 1.4 0 2.6-1.2 2.6-2.6s-1.2-2.6-2.6-2.6c-.7 0-1.3.3-1.7.7l-3.4-1.8c.3-.8.4-1.6.4-2.5 0-4-3.3-7.3-7.3-7.3s-7.3 3.3-7.3 7.3 3.3 7.3 7.3 7.3c2.6 0 4.9-1.4 6.2-3.5l3.4 1.7c-.1.2-.1.4-.1.7 0 .6.2 1.1.5 1.6l-10.4 9.7c-.9-.8-1.6-1.8-2.1-2.7-.6-1-1-1.9-1.2-2.7 1.2.4 2.6.7 4 .7.7 0 1.3-.6 1.3-1.3 0-.7-.6-1.3-1.3-1.3-5.4 0-9.8-4.4-9.8-9.8-.1-5.6 4.3-9.9 9.7-9.9 3.9 0 7.4 2.3 9 5.9.3.7 1.1 1 1.8.7s1-1.1.7-1.8c-.8-1.8-2-3.4-3.5-4.6 6.1 1.2 10.8 6.7 10.8 13.2v17h-.3c-.2 0-.4.1-.6.1-3.5.2-6.7-1.4-8.6-4.1zM15.8 10c-1.4 0-2.6 1.2-2.6 2.6s1.2 2.6 2.6 2.6c.8 0 1.5-.4 2-.9l2.8 1.4c-1 1.6-2.8 2.6-4.8 2.6-3.2 0-5.8-2.6-5.8-5.8s2.6-5.8 5.8-5.8 5.8 2.6 5.8 5.8c0 .6-.1 1.2-.3 1.8l-2.9-1.5v-.3c0-1.4-1.1-2.5-2.6-2.5zm22.1 37.2c-4.7 0-8.6-3.8-8.6-8.4v-3.6c1.2.4 2.5.6 3.8.6h.9c.2 0 .5 0 .7-.1v3c0 2.2 1.8 4 4 4 1.7 0 3.1-1 3.7-2.5l3.9.8c-.8 4.2-4.7 6.3-8.4 6.2z"/></svg>