<svg xmlns="http://www.w3.org/2000/svg" id="Layer_1" x="0" y="0" version="1.1" viewBox="0 0 50 50" xml:space="preserve"><style>.st2{fill:#031326}</style><path fill="#f799ff" d="M25.1 4.1C12 4.1 1.4 12.5 1.4 22.9v.1L40.5 8.7C36.4 5.8 31 4.1 25.1 4.1z"/><path fill="#e589ef" d="M48.8 22.9c0-5.7-3.2-10.7-8.2-14.2L1.4 22.9c0 7.4 5.5 13.8 13.4 16.8L48 27.6c.5-1.5.8-3.1.8-4.7z"/><path d="M49.5 22.7C49.5 12 38.5 3.3 25 3.3S.5 12 .5 22.7s11 19.4 24.5 19.4c3 0 5.9-.4 8.7-1.3l11.5 5.9-.6-12.3c3.1-3.4 4.9-7.5 4.9-11.7zm-7.4 12l.4 7.8-6.9-3.5-1.6-.9c-.7.3-1.5.5-2.2.7-2.2.5-4.4.8-6.7.8C12.9 39.6 3 32 3 22.7S12.9 5.8 25 5.8s22 7.6 22 16.9c0 3-1 5.8-2.9 8.4-.5.7-1.1 1.4-1.8 2.1-.1.1-.2.2-.2.3v1.2z" class="st2"/><path d="M19 22.1V17h4.8v4c0 2.2-.3 3.8-.8 4.8-.7 1.3-1.8 2.3-3.3 3L18.6 27c.9-.4 1.6-.9 2-1.7.4-.8.7-1.9.7-3.2H19zm7.6 0V17h4.8v4c0 2.2-.3 3.8-.8 4.8-.7 1.3-1.8 2.3-3.3 3L26.2 27c.9-.4 1.6-.9 2-1.7.4-.8.7-1.9.7-3.2h-2.3z" class="st2"/></svg>