<svg xmlns="http://www.w3.org/2000/svg" id="Layer_1" x="0" y="0" version="1.1" viewBox="0 0 50 50" xml:space="preserve"><style>.st4{fill:#031326}</style><path fill="none" d="M33.5 8.6l.8-.6-1.2.4c.2.1.3.1.4.2z"/><path fill="#031326" d="M36.3 6.5l-2 1.5 4.4-1.6c-.3-.2-.7-.3-1.1-.3-.4 0-.9.2-1.3.4z"/><path fill="#b9d7d9" d="M30.4 7.3l-.6-3.4c-.1-1.1-1-1.9-2.1-1.9h-5.6c-1.1 0-2 .8-2.1 1.9l-.6 3.5c-1.1.3-2.1.8-3.1 1.3l-2.8-2c-.8-.7-2.1-.6-2.9.1l-3.9 3.9c-.8.8-.8 2-.2 2.8l2 2.9-.6 1.2 25.2-9.2c-.9-.4-1.8-.8-2.7-1.1z"/><path fill="#a6c1c2" d="M47.9 22.1c0-1.1-.8-2-1.9-2.1l-3.5-.6c-.3-1.1-.8-2.1-1.3-3.1l2-2.8c.7-.9.6-2.1-.1-2.9l-3.9-3.9c-.1-.1-.3-.2-.4-.3L34.3 8l-.8.6c-.1-.1-.2-.1-.3-.2L8 17.6c-.3.6-.5 1.2-.7 1.9l-3.4.5c-1.1.1-1.9 1-1.9 2.1v5.6c0 1.1.8 2 1.9 2.1l3.5.6c.3 1.1.8 2.1 1.3 3.1l-2 2.8c-.7.9-.6 2.1.1 2.9l2 2L48 26.9v-4.8z"/><path d="M27.8 49.2h-5.6c-1.8 0-3.2-1.3-3.4-3.1l-.4-2.6c-.6-.2-1.3-.5-1.9-.8l-2.2 1.6c-.5.4-1.3.7-2.1.7-.9 0-1.8-.4-2.4-1l-3.9-3.9c-1.2-1.2-1.3-3.2-.2-4.6l1.5-2.1c-.3-.6-.5-1.2-.8-1.9L3.7 31C2.1 30.8.8 29.4.8 27.6V22c0-1.8 1.3-3.2 3.1-3.4l2.6-.4c.2-.6.5-1.3.8-1.9l-1.6-2.2c-1-1.2-.9-3.2.3-4.5l3.9-3.9c1.2-1.2 3.2-1.3 4.6-.2L16.6 7c.6-.3 1.2-.5 1.9-.8l.5-2.7c.2-1.6 1.6-2.9 3.4-2.9H28c1.8 0 3.2 1.3 3.4 3.1l.4 2.6c.6.2 1.3.5 1.9.8l2.2-1.6c.5-.4 1.3-.7 2.1-.7.9 0 1.8.4 2.4 1l3.9 3.9c1.2 1.2 1.3 3.2.2 4.6L43 16.4c.3.6.5 1.2.8 1.9l2.7.5c1.6.2 2.9 1.6 2.9 3.4v5.6c0 1.8-1.3 3.2-3.1 3.4l-3.3.6c-.7.1-1.3-.4-1.5-1-.1-.7.4-1.3 1-1.5l3.4-.6c.5-.1.9-.4.9-.9v-5.6c0-.4-.3-.8-.7-.9l-4.3-.7-.2-.7c-.3-1-.7-2-1.2-2.9l-.4-.7 2.5-3.5c.3-.4.3-.9 0-1.2l-3.9-3.9c-.3-.3-.9-.2-1.1-.1l-3.6 2.6-.9-.4c-.9-.5-1.9-.9-2.9-1.2l-.7-.2-.7-4.2c-.1-.5-.4-.9-.9-.9h-5.6c-.4 0-.8.3-.9.7l-.7 4.3-.7.2c-1 .3-2 .7-2.9 1.2l-.7.4-3.5-2.5c-.4-.3-.9-.3-1.2 0l-3.9 3.9c-.3.3-.4.8-.1 1.1l2.5 3.6-.3.8c-.5.9-.9 1.9-1.2 2.9l-.2.7-4.2.7c-.5.1-.9.4-.9.9v5.6c0 .4.3.8.7.9l4.3.7.2.7c.3 1 .7 2 1.2 2.9l.4.7-2.5 3.5c-.3.4-.3.9 0 1.2l3.9 3.9c.3.3.9.2 1.1.1l3.6-2.6.7.4c.9.5 1.9.9 2.9 1.2l.7.2.7 4.2c.1.5.4.9.9.9h5.6c.4 0 .8-.3.9-.7l.7-4.3.7-.2c1-.3 2-.7 2.9-1.2l.7-.4 3.5 2.5c.4.3.9.3 1.2 0l3.9-3.9c.5-.5 1.3-.5 1.8 0s.5 1.3 0 1.8l-3.9 3.9c-1.2 1.2-3.3 1.3-4.6.2l-2.1-1.5c-.6.3-1.2.5-1.9.8l-.5 2.7c0 1.5-1.5 2.8-3.2 2.8z" class="st4"/><path d="M30.2 24l-7-3.6c-.9-.5-1.9.2-1.9 1.2v7.2c0 1 1.1 1.6 1.9 1.2l7-3.6c1-.6 1-1.9 0-2.4z" class="st4"/><path d="M38.3 24.3l-1.5-.6c0-.4-.1-.8-.2-1.2l1.2-1c.8-.6 1.1-1.8.5-2.7L36.5 16c-.3-.5-.7-.8-1.3-.9-.5-.1-.9-.1-1.3.1l-1.5.6c-.3-.3-.6-.5-1-.7l.1-1.6c.1-1-.5-2-1.6-2.3l-3.2-.8c-1-.2-2.1.3-2.4 1.3l-.6 1.5c-.4 0-.8.1-1.2.2l-1-1.2c-.6-.8-1.8-1-2.7-.5L16 13.5c-.9.5-1.2 1.7-.8 2.6l.6 1.5c-.3.3-.5.6-.7 1l-1.6-.1c-1-.1-2 .5-2.3 1.6l-.8 3.2c-.2 1 .3 2.1 1.3 2.4l1.5.6c0 .4.1.8.2 1.2l-1.2 1c-.8.6-1.1 1.8-.5 2.7l1.7 2.8c.3.5.7.8 1.3.9.5.1.9.1 1.3-.1l1.5-.6c.3.3.6.5 1 .7l-.1 1.6c-.1 1 .5 2 1.6 2.3l3.2.8c.2 0 .3.1.5.1.9 0 1.6-.5 1.9-1.3l.6-1.5c.4 0 .8-.1 1.2-.2l1 1.2c.6.8 1.8 1 2.7.5l2.8-1.7c.9-.5 1.2-1.7.8-2.6l-.6-1.5c.3-.3.5-.6.7-1l1.6.1c1 .1 2-.5 2.3-1.6l.8-3.2c.3-1.2-.3-2.2-1.2-2.6zm-3.7-7.8c.1 0 .2-.1.3 0 .1 0 .2.1.3.2l1.7 2.8c.1.2.1.5-.2.7l-1.3 1.1c-.6-1.6-1.5-3-2.7-4.2l1.9-.6zM25 35.3c-5.6 0-10.1-4.5-10.1-10.1S19.4 15 25 15s10.1 4.5 10.1 10.1S30.6 35.3 25 35.3zM26.4 12l3.2.8c.3.1.4.3.4.6l-.1 1.8c-1.5-.8-3.1-1.2-4.9-1.2l.7-1.7c.2-.3.4-.4.7-.3zm-9.6 2.8l2.8-1.7c.2-.1.5-.1.7.2l1.2 1.4c-1.6.5-3.1 1.4-4.3 2.6l-.7-1.7c-.1-.4 0-.7.3-.8zm-4.5 9.4c-.2-.1-.4-.3-.3-.6l.8-3.2c.1-.3.3-.4.6-.4l1.7.1c-.7 1.4-1.2 3.1-1.2 4.8l-1.6-.7zm3.1 9.3c-.1 0-.2.1-.3 0-.1 0-.3-.1-.3-.2l-1.7-2.8c-.1-.2-.1-.5.2-.7l1.2-1c.5 1.6 1.4 3 2.5 4.2l-1.6.5zm8.2 4.5l-3.2-.8c-.3-.1-.4-.3-.4-.6l.1-1.5c1.4.7 3 1.1 4.7 1.1l-.6 1.4c-.1.4-.3.5-.6.4zm9.6-2.8l-2.8 1.7c-.2.1-.5.1-.7-.2l-1-1.1c1.6-.6 3-1.4 4.1-2.6l.6 1.5c.2.3.1.6-.2.7zm4.8-8.8l-.8 3.2c-.1.3-.3.4-.6.4l-1.6-.1c.7-1.4 1.1-3.1 1.1-4.8l1.6.7c.3.1.4.3.3.6z" class="st4"/><path d="M24.9 33.9c-4.9 0-8.9-4-8.9-8.9s4-8.9 8.9-8.9 8.9 4 8.9 8.9-4 8.9-8.9 8.9zm0-17.1c-4.5 0-8.2 3.7-8.2 8.2 0 4.5 3.7 8.2 8.2 8.2 4.5 0 8.2-3.7 8.2-8.2 0-4.5-3.7-8.2-8.2-8.2z" class="st4"/></svg>