<svg xmlns="http://www.w3.org/2000/svg" xmlns:xlink="http://www.w3.org/1999/xlink" viewBox="0 0 45 45"><defs><path id="a" d="M0 .943h44.969V46H0z"/></defs><g fill="none" fill-rule="evenodd"><path fill="#E589EF" d="M42.405 20.122L10.224 31.835l-.937-.482 3.517-7.387-6.948.528-2.462-3.877L43.85 8.904l-2.022 6.091z"/><path fill="#F799FF" d="M32.682 3.737l-3.958-2.462-27 9.763 2.11 3.605.649 8.966L44.156 9.17l-1.888-6.75L35.584.926z"/><g transform="translate(0 -.944)"><mask id="b" fill="#fff"><use xlink:href="#a"/></mask><path fill="#031326" d="M33.484 21.088c.052-.357.106-.725.163-1.1l.006-.043c.248-1.674.505-3.406.671-5.137.742-2.725 1.866-4.49 3.434-5.395a1.025 1.025 0 00-1.024-1.774 7.709 7.709 0 00-2.273 2.03c-.127-1.764-.47-3.185-1.05-4.332 1.334-2 3.34-2.778 5.52-2.13a5.776 5.776 0 014.06 6.006c-.073 1.075-.619 2.15-1.2 3.29-.849 1.666-1.727 3.39-1.262 5.39.494 2.117.33 3.962-.462 5.192-.52.81-1.312 1.325-2.35 1.533-1.15.232-2.165-.023-3.247-.293a22.491 22.491 0 00-1.277-.292c.028-.837.122-1.777.291-2.945zM24.456 41.17l-.054.616c-.093 1.076-.827 2.165-2.05 2.165-1.225 0-1.959-1.089-2.052-2.165l-2.02-23.442c-.108-1.196-1.057-2.253-1.949-2.77a1.029 1.029 0 00-1.4.372 1.027 1.027 0 00.372 1.4c.422.244.9.763.937 1.177l.53 6.146c-.97-.462-1.91-.718-2.86-.78-.036-.889-.133-1.85-.314-3.095l-.163-1.108c-.678-4.562-1.605-10.81.244-13.795l.033-.053a4.15 4.15 0 01.348-.468c.736-.854 1.784-1.269 3.204-1.269.635 0 1.381.377 2.172.777.97.49 1.972.996 3.093.996s2.123-.506 3.094-.997c.79-.399 1.536-.776 2.17-.776 1.42 0 2.468.415 3.205 1.27a3.979 3.979 0 01.378.516c1.852 2.988.924 9.237.247 13.8-.057.378-.112.748-.164 1.107-.123.851-.268 1.963-.312 3.095-1.069.07-2.129.386-3.228.965l.545-6.327c.037-.416.515-.937.937-1.18.488-.285.655-.913.372-1.4a1.027 1.027 0 00-1.399-.374c-.893.518-1.842 1.577-1.95 2.775l-1.267 14.706c-.005.028-.02.051-.023.08l-.678 8.022.002.014zm-7.695-14.173c-1.222 3.63-3.86 4.843-6.039 5.188 1.272-1.152 2.14-2.432 2.644-3.9a10.33 10.33 0 00.492-2.345c.934.075 1.864.413 2.903 1.057zm14.434-1.057c.083.854.245 1.623.493 2.344.504 1.47 1.371 2.75 2.643 3.901-2.179-.345-4.816-1.557-6.039-5.188 1.04-.644 1.968-.982 2.903-1.057zM44.97 9.902l-.002-2.298c-.446-3.057-2.537-5.494-5.454-6.36-1.51-.45-3.05-.394-4.45.16-1.125.442-2.107 1.183-2.923 2.204-1.097-1.032-2.559-1.555-4.349-1.555-1.122 0-2.124.506-3.093.996-.79.4-1.536.776-2.17.776-.635 0-1.38-.377-2.173-.776-.97-.49-1.972-.996-3.094-.996-1.789 0-3.25.523-4.348 1.555a7.776 7.776 0 00-1.08-1.108 1.028 1.028 0 00-1.444.133 1.026 1.026 0 00.133 1.442c.413.344.79.768 1.12 1.263-.578 1.145-.923 2.567-1.05 4.331a7.697 7.697 0 00-2.273-2.03 1.021 1.021 0 00-1.399.375 1.02 1.02 0 00-.102.777c.07.264.24.484.476.622 1.57.905 2.693 2.67 3.431 5.371.175 1.797.444 3.607.682 5.203l.162 1.101c.17 1.166.263 2.107.292 2.946a21.57 21.57 0 00-1.289.294c-1.073.268-2.082.521-3.236.29-1.038-.208-1.829-.724-2.35-1.532-.792-1.232-.956-3.077-.462-5.194.466-2-.412-3.723-1.262-5.39-.58-1.139-1.127-2.214-1.2-3.289-.126-1.86.577-3.614 1.93-4.812.204-.18.325-.432.341-.705a1.013 1.013 0 00-.255-.74 1.017 1.017 0 00-.704-.344.996.996 0 00-.742.257C.802 4.49-.15 6.853.02 9.352c.101 1.495.771 2.81 1.42 4.082.713 1.4 1.386 2.722 1.09 3.992-.62 2.664-.36 5.067.735 6.767.82 1.275 2.09 2.116 3.67 2.433 1.601.322 2.89.001 4.136-.31l.037-.01c.225-.056.444-.112.664-.16-.364 2.601-1.794 4.458-4.742 6.177a1.025 1.025 0 00.356 1.896c.716.113 3.253.401 5.822-.595a8.857 8.857 0 004.064-3.14l.988 11.477c.198 2.302 1.957 4.04 4.092 4.04s3.894-1.738 4.092-4.04l.064-.754v-.002l.658-7.774c.003-.022.016-.04.018-.063l.288-3.344a8.883 8.883 0 004.375 3.6c1.541.597 3.065.722 4.071.722.82 0 1.45-.08 1.75-.127.427-.067.768-.397.848-.822a1.026 1.026 0 00-.49-1.074c-2.949-1.72-4.379-3.577-4.742-6.178.22.05.44.105.664.161l.037.01c1.246.31 2.534.632 4.135.31 1.581-.317 2.85-1.158 3.67-2.433 1.094-1.7 1.356-4.105.736-6.767-.297-1.272.377-2.594 1.091-3.994.561-1.103 1.142-2.244 1.353-3.53z" mask="url(#b)"/></g><path fill="#031326" d="M24.247 18.548h-3.98a.75.75 0 100 1.5h3.98a.75.75 0 000-1.5m-.565 5.887h-2.85a.75.75 0 000 1.5h2.85a.75.75 0 000-1.5m-.669 5.888H21.5a.75.75 0 000 1.5h1.514a.75.75 0 000-1.5m-.275 5.887h-.964a.75.75 0 000 1.5h.964a.75.75 0 000-1.5m3.989-26.897a.75.75 0 10-.77-1.288c-4.592 2.742-7.377.213-7.498.1a.748.748 0 00-1.056.024.748.748 0 00.02 1.06c.024.024 1.682 1.574 4.47 1.574 1.36 0 2.992-.371 4.834-1.47"/></g></svg>