<svg xmlns="http://www.w3.org/2000/svg" version="1" viewBox="0 0 50 50"><path fill="#FDFF99" d="M8.026 24.404c.08.265.35.394.592.334a.486.486 0 00.057.61s-.48.08-.588.437L3.997 39.15l37.64-13.7a.49.49 0 00-.422.13l.233-.232a.493.493 0 000-.696l-.233-.233c.263.262.712.15.82-.206L48.9 1.777a.493.493 0 00-.617-.616L25.847 8.026c-.356.11-.437.59-.437.59a.49.49 0 00-.696 0l-.165.163a.49.49 0 00-.335-.563L1.778 1.35a.494.494 0 00-.617.617l6.866 22.437z"/><path fill="#EAF27E" d="M7.134 21.49L47.347 6.856 48.9 1.777a.493.493 0 00-.617-.616L25.847 8.026c-.356.11-.437.59-.437.59a.49.49 0 00-.696 0l-.165.163a.49.49 0 00-.335-.563L1.778 1.35a.494.494 0 00-.617.617L7.135 21.49z"/><path fill="#031326" d="M43.063 25.453a1.62 1.62 0 00-.228-.453 1.62 1.62 0 00.228-.453L49.928 2.11A1.63 1.63 0 0047.891.072L25.453 6.937c-.167.05-.315.133-.453.23a1.574 1.574 0 00-.453-.23L2.11.074A1.625 1.625 0 00.48.48a1.62 1.62 0 00-.408 1.63l6.865 22.44c.05.166.133.315.23.452-.097.138-.18.286-.23.453L.073 47.89a1.625 1.625 0 00.406 1.63 1.621 1.621 0 001.632.408l22.435-6.865c.167-.05.316-.133.454-.228.14.096.287.178.454.228l4.973 1.522a1.137 1.137 0 001.42-.756 1.137 1.137 0 00-.754-1.422L27.145 41.2 41.2 27.145l6.196 20.252-1.19-.365a1.137 1.137 0 00-.666 2.177l2.35.718a1.63 1.63 0 001.631-.406c.43-.428.585-1.053.408-1.632l-6.865-22.437zM25 40.125l-3.61-3.61a12.106 12.106 0 007.22.002L25 40.124zm0-30.25l3.61 3.61a12.1 12.1 0 00-7.22 0L25 9.876zm-7.244 7.88c1.935-1.934 4.508-3 7.244-3s5.31 1.066 7.244 3c3.994 3.995 3.994 10.495 0 14.49-1.935 1.935-4.508 3-7.244 3s-5.31-1.065-7.244-3c-3.994-3.995-3.994-10.495 0-14.49zm18.742 3.62L40.125 25l-3.627 3.627c.74-2.358.74-4.896 0-7.253zm-22.996 7.252L9.876 25l3.627-3.627a12.129 12.129 0 000 7.254zM47.396 2.605L41.2 22.855 27.144 8.802l20.252-6.195zm-44.79 0L22.855 8.8 8.8 22.857 2.605 2.606zm0 44.79L8.8 27.146l7.026 7.025 7.03 7.03-20.25 6.196z"/></svg>