<svg xmlns="http://www.w3.org/2000/svg" id="Layer_1" x="0" y="0" version="1.1" viewBox="0 0 50 50" xml:space="preserve"><style>.st2{fill:#031326}</style><path fill="#fdcf72" d="M30.2 7h1.4c.8 0 1.4-.6 1.4-1.4v-2c0-.8-.6-1.4-1.4-1.4H18.4c-.8 0-1.4.6-1.4 1.4v2c0 .8.6 1.4 1.4 1.4h1.4v7.4c-1.3.4-2.5 1-3.7 1.6l14.1-5V7z"/><path fill="#fcc34f" d="M30.2 14.4V11l-14.1 5.1c-5.1 3-8.6 8.6-8.6 15 0 3.5 1.1 6.8 2.9 9.6l31.9-11.6c-.8-6.9-5.6-12.6-12.1-14.7z"/><path d="M31.4 13.2V7.9h.2c1.5 0 2.7-1.2 2.7-2.7v-2c0-1.5-1.2-2.7-2.7-2.7H18.4c-1.5 0-2.7 1.2-2.7 2.7v2c0 1.5 1.2 2.7 2.7 2.7h.2v5.3c-7.4 2.7-12.2 9.6-12.2 17.5 0 10.3 8.4 18.7 18.7 18.7 10.3 0 18.7-8.4 18.7-18.7-.1-7.9-5-14.8-12.4-17.5zm-13-7.8c-.1 0-.2-.1-.2-.2v-2c0-.1.1-.2.2-.2h13.2c.1 0 .2.1.2.2v2c0 .1-.1.2-.2.2H18.4zm1.8 9.9l.9-.3V7.9H29V15l.9.3c5.8 1.8 10 6.6 11.1 12.4-3.5 1.5-6.3-.2-6.5-.3-5.1-2.7-9.3-.7-10.4 0-3.7 2-6.8.1-7 0-3.1-1.6-5.8-1.6-7.6-1 1.4-5.2 5.3-9.4 10.7-11.1zM25 47c-8.9 0-16.2-7.3-16.2-16.2 0-.6 0-1.3.1-1.9.5-.5 3.2-1.8 7.1.3.2.1 4.1 2.6 9 0 .9-.6 4.3-2.2 8.4 0 .1.1 1.9 1.2 4.5 1.2 1 0 2.1-.2 3.2-.6v1C41.2 39.7 33.9 47 25 47z" class="st2"/><circle cx="18" cy="33.9" r="2.4" class="st2"/><circle cx="30.7" cy="35.2" r="2.4" class="st2"/><circle cx="21.6" cy="41.3" r="1.8" class="st2"/><circle cx="23.3" cy="11.5" r="1" class="st2"/><circle cx="23.7" cy="23" r="1.3" class="st2"/><circle cx="26.3" cy="17.3" r="1.8" class="st2"/></svg>