<svg xmlns="http://www.w3.org/2000/svg" id="Layer_1" x="0" y="0" version="1.1" viewBox="0 0 50 50" xml:space="preserve"><style>.st2{fill:#031326}</style><path fill="#c05e80" d="M38.8 32c-.9-.9-2.1-1-3.1-.5l-2.8-2.8c4.9-6.8 4.3-16.3-1.8-22.3-.2-.2-.5-.4-.7-.6L1.9 16.1c-.7 5.2.9 10.6 4.9 14.6 6 6 15.5 6.7 22.3 1.8l2.8 2.8c-.5 1-.3 2.2.5 3.1l1.2 1.2 9.4-3.4-4.2-4.2z"/><path fill="#d7698d" d="M6.7 6.9C4 9.7 2.4 13.1 1.9 16.6L30.2 6.3C23.5.3 13.1.5 6.7 6.9z"/><path d="M49.4 42.8c-.1-.7-.7-1.2-1.4-1.1-.7.1-1.2.7-1.1 1.4.2 1-.2 2.1-.9 2.8-1.2 1.2-3.4 1.2-4.7 0l-8-8c-.3-.3-.4-.7-.4-1.1l3.9-3.9s.1 0 .1-.1c.4 0 .8.1 1.1.4l3.8 3.8c.5.5 1.3.5 1.8 0s.5-1.3 0-1.8l-3.8-3.8c-1-1-2.3-1.4-3.6-1.1L34.6 29c4.7-7.3 3.7-16.8-2.5-23.1-7.2-7.2-19-7.2-26.2 0-7.2 7.2-7.2 19 0 26.2 6.2 6.2 15.8 7.2 23.1 2.5l1.6 1.6c-.3 1.3.1 2.7 1.1 3.6l8 8c1.1 1.1 2.5 1.7 4.1 1.7 1.5 0 3-.6 4.1-1.7 1.2-1.3 1.8-3.1 1.5-5zM29.3 31.3l-.9.7c-6.4 4.6-15.1 4-20.7-1.6-6.2-6.2-6.2-16.4 0-22.6 6.2-6.2 16.4-6.2 22.6 0 5.6 5.6 6.3 14.3 1.6 20.7l-.6.9 3.6 3.6-2.1 2.1-3.5-3.8z" class="st2"/><path d="M26.4 21.1l-1.6-1.5c-.1-.1-.2-.1-.3-.1l-1.2-.1V19c0-.5-.1-1-.2-1.5l1.6-.6c.1 0 .2-.1.3-.2l.9-2c.1-.2 0-.5-.2-.6-.2-.1-.5 0-.6.2l-.9 1.8-1.3.5c-.2-.4-.4-.8-.7-1.1l-.2-.2v-1.7c0-.6-.3-1.2-.8-1.5l-1.2-.8c-.2-.2-.5-.2-.9-.2-.3 0-.6.1-.9.2l-1.2.8c-.5.3-.8 1-.8 1.5v1.7l-.2.2c-.2.3-.5.6-.6 1l-1.4-.4-.9-1.8c-.1-.3-.3-.4-.6-.3-.2.1-.3.4-.2.6l.9 2c.1.1.1.2.3.2l1.4.6c-.1.5-.2 1-.2 1.5v.3l-1.2.1c-.1 0-.2.1-.3.1l-1.6 1.5c-.2.2-.2.5 0 .7.1.1.2.1.3.1.1 0 .2 0 .3-.1l1.4-1.4 1-.1v1.5c0 .3 0 .5.1.8l-1 .5c-.1 0-.2.1-.2.2-.4.9-1.1 2.2-1.2 2.4-.1.2-.1.5.1.6.1.1.2.1.3.1.2 0 .3-.1.4-.2 0 0 .1-.1 1.2-2.3l.8-.4c.7 1.5 2.2 2.6 3.9 2.6s3.3-1.1 3.9-2.6l.8.4c1.1 2.2 1.1 2.3 1.2 2.3.1.1.2.2.4.2.1 0 .2 0 .3-.1.2-.1.3-.4.1-.6-.1-.1-.8-1.5-1.2-2.4 0-.1-.1-.2-.2-.2l-1-.5c0-.2.1-.5.1-.8v-1.5l1 .1 1.4 1.4c.1.1.2.1.3.1.1 0 .2 0 .3-.1.2 0 .2-.3 0-.5z" class="st2"/><path d="M19 33.3c-8 0-14.5-6.5-14.5-14.5S11 4.2 19 4.2s14.5 6.5 14.5 14.5S27 33.3 19 33.3zm0-27.6c-7.2 0-13 5.8-13 13s5.8 13 13 13 13-5.8 13-13-5.8-13-13-13z" class="st2"/></svg>