<svg xmlns="http://www.w3.org/2000/svg" id="Layer_1" x="0" y="0" version="1.1" viewBox="0 0 50 50" xml:space="preserve"><style>.st2{fill:#031326}</style><path fill="#46b8b0" d="M7.4 47l7.5-7.5c2 1.5 4.1 2.5 6.4 3.2l23-8.4c5.2-8 4.3-18.7-2.6-25.7-8-8-21-8-29 0-7.3 7.3-7.9 18.7-1.9 26.8l-7.5 7.5c-1.1 1.1-1.1 3 0 4.1 1.1 1.1 3 1.1 4.1 0z"/><path fill="#4ecdc4" d="M36.5 4.8C28.8 1 19.2 2.2 12.8 8.6 11 10.5 9.5 12.7 8.5 15l28-10.2z"/><path d="M42.5 7.8c-8.4-8.4-22.2-8.4-30.6 0-7.3 7.3-8.4 19-2.6 27.5L2.4 42c-.8.8-1.2 1.8-1.2 2.9 0 1.1.4 2.1 1.2 2.9.8.8 1.8 1.2 2.9 1.2s2.1-.4 2.9-1.2L15 41c3.6 2.4 7.8 3.7 12.1 3.7.6 0 1.2-.5 1.2-1.2s-.5-1.2-1.2-1.2c-4.2 0-8.2-1.3-11.6-3.9l-.7-.4c-.5-.4-.9-.8-1.3-1.2-.4-.4-.8-.9-1.2-1.3l-.6-.8C6 27 6.7 16.2 13.5 9.4c3.7-3.7 8.5-5.7 13.7-5.7s10 2 13.7 5.7c6.5 6.5 7.5 16.7 2.5 24.3-.4.5-.2 1.3.3 1.6.5.4 1.3.2 1.6-.3 5.6-8.5 4.4-20-2.8-27.2zM6.6 46.1c-.7.7-1.8.7-2.5 0-.3-.3-.5-.8-.5-1.2s.2-.9.5-1.2l4.2-4.2 2.5 2.5-4.2 4.1zm7.2-7.2l-2.4 2.4-2.5-2.5 2.4-2.4c.4.4.8.9 1.2 1.3.4.5.8.9 1.3 1.2z" class="st2"/><path d="M28.3 21.5c.5 0 .9-.4.9-.9s-.4-.9-.9-.9-.9.4-.9.9.4.9.9.9z" class="st2"/><path d="M37.2 28.9l-2.2-.4c-.5-.1-1 .2-1.1.7-.1.3-.4.5-.7.5-.4 0-.7-.3-.7-.7v-1.7c.6-.2 1.1-.5 1.6-.9.2-.2.3-.6.1-.8 0-.1-.1-.1-.2-.2-.2 0-.4 0-.6.1-.1.1-.2.2-.3.2-.1.1-.3.2-.5.3v-7.8c0-4.2-3.4-7.6-7.6-7.6h-2.5c-3.3 0-6 2.7-6 6 0 2 1 3.8 2.6 4.9.1.5.3 1.5.9 2.5.4.7 1 1.5 1.8 2.2 1.2.9 2.7 1.4 4.5 1.4.4 0 .9 0 1.4-.1V29c0 2.8 2.4 5.2 5.3 5.2 2.7 0 4.9-1.7 5.2-4.2-.2-.5-.5-1-1-1.1zm-6.4-2.5c-1.6.1-3.1-.6-4.1-1.9-.2-.2-.5-.3-.8-.1-.1.1-.2.3-.2.4v.1l1.1 1.2c-1.8.1-3.2-.2-4.4-1.1-.6-.5-1-1-1.4-1.6-.2-.4-.4-.9-.6-1.3.6.2 1.2.3 1.9.3.3 0 .6-.3.6-.6s-.3-.6-.6-.6c-2.6 0-4.7-2.1-4.7-4.7 0-2.5 2.1-4.6 4.7-4.6 1.9 0 3.5 1.1 4.3 2.8.1.3.5.5.8.3.3-.1.5-.5.3-.8-.4-.9-.9-1.6-1.7-2.2 3 .5 5.2 3.2 5.2 6.3v8.1h-.4zm2 6.6c-2.2 0-4.1-1.8-4.1-4v-1.7c.6.2 1.2.3 1.8.3h.7V29c0 1 .8 1.9 1.9 1.9.8 0 1.5-.5 1.8-1.2l1.9.4c-.4 1.9-2.3 2.9-4 2.9z" class="st2"/><path d="M22.2 12.9c-1.9 0-3.5 1.6-3.5 3.5s1.6 3.5 3.5 3.5 3.5-1.6 3.5-3.5-1.6-3.5-3.5-3.5zm0 6.2c-1.5 0-2.8-1.2-2.8-2.8s1.2-2.8 2.8-2.8c1.5 0 2.8 1.2 2.8 2.8s-1.3 2.8-2.8 2.8z" class="st2"/><path d="M27.1 38.9c-9.1 0-16.6-7.4-16.6-16.6 0-9.1 7.4-16.6 16.6-16.6s16.6 7.4 16.6 16.6c0 9.2-7.5 16.6-16.6 16.6zm0-32.6C18.2 6.3 11 13.5 11 22.4c0 8.9 7.2 16.1 16.1 16.1 8.9 0 16.1-7.2 16.1-16.1 0-8.9-7.2-16.1-16.1-16.1z" class="st2"/></svg>