<svg xmlns="http://www.w3.org/2000/svg" version="1" viewBox="0 0 50 50"><path fill="#FCC34F" d="M40.672 29.928V4.724a1.871 1.871 0 00-1.871-1.871H11.199a1.871 1.871 0 00-1.871 1.871v36.612l31.344-11.408z"/><path fill="#FDCF72" d="M36.542 2.853H11.199a1.871 1.871 0 00-1.871 1.871v8.034l27.214-9.905z"/><path fill="#031326" d="M34.258 48.167H11.199a2.893 2.893 0 01-2.89-2.89V4.724a2.894 2.894 0 012.89-2.891h27.602a2.894 2.894 0 012.89 2.891v25.207a1.019 1.019 0 11-2.038 0V4.724a.852.852 0 00-.851-.852H11.199a.852.852 0 00-.851.852v40.552c0 .469.382.851.851.851h23.059a1.02 1.02 0 010 2.04z"/><path fill="#031326" d="M30.975 19.867c0-5.873-3.507-10.165-5.332-10.165-.397 0-.739.171-.964.481-.192.266-.29.626-.29 1.067 0 1.434-1.075 2.387-2.321 3.491-1.426 1.264-3.042 2.697-3.042 5.125a5.984 5.984 0 003.645 5.502l-.437 11.022c-.031.759.243 1.48.771 2.03a2.742 2.742 0 001.994.851c.761 0 1.47-.302 1.997-.85.527-.55.8-1.27.769-2.031l-.437-11.02a5.982 5.982 0 003.647-5.503zm-4.862 17.708c-.585.61-1.635.614-2.226-.002a1.54 1.54 0 01-.432-1.134l.302-7.624h2.484l.302 7.625c.017.425-.136.828-.43 1.135zm.096-9.576H23.79l.09-2.266c.364.069.738.109 1.121.109s.756-.04 1.119-.109l.089 2.266zM25 24.619a4.758 4.758 0 01-4.752-4.752c0-1.878 1.277-3.011 2.631-4.21 1.344-1.191 2.733-2.422 2.733-4.407 0-.213.037-.309.031-.326.057-.002.358.067.802.433 1.144.944 3.307 3.937 3.307 8.509A4.757 4.757 0 0125 24.619z"/></svg>