<svg xmlns="http://www.w3.org/2000/svg" id="Camada_3" x="0" y="0" version="1.1" viewBox="0 0 50 50" xml:space="preserve"><style>.st1,.st2,.st3{fill:none;stroke:#4d4d4d;stroke-linecap:round;stroke-linejoin:round;stroke-miterlimit:10}.st2{stroke-width:2.5}.st3{stroke-width:.5}</style><path fill="#46b8b0" d="M30.85 36.05l-3.8 4.75-9.92 3.53-.08-4.9L1.53 23.78l.07-3.83.27-9.84L4 8.28c0-1.59 15.42-7.2 17.01-7.2L37.56 4.5l4.99 7.04.62 12.85 2.87 1.64 2.53 2.73-.48 4.79-1.23.96"/><g id="XMLID_1_"><g id="XMLID_9_"><g id="XMLID_29_"><path id="XMLID_31_" d="M43.06 25.07c3.03 0 5.49 2.46 5.49 5.49s-2.46 5.49-5.49 5.49" class="st2"/><path id="XMLID_30_" d="M43.06 36.05H30.85" class="st2"/></g><g id="XMLID_00000111161774396244997920000008013596674097719448_"><path id="XMLID_00000132792769429408646940000013931942669890417310_" d="M22.31 43.99V16.52" class="st3"/><path id="XMLID_00000016776070586457263840000017602483129778797495_" d="M25.06 41.24l-2.75 2.75-2.75-2.75" class="st3"/></g><g id="XMLID_00000027595620222252695020000008465508821182145181_"><path id="XMLID_00000181794697965715784240000010226610352683514549_" d="M29.02 23.85v-7.33" class="st3"/><path id="XMLID_00000136389682563251199800000012553611361416453029_" d="M32.07 20.8l-3.05 3.05-3.05-3.05" class="st3"/></g><path d="M39.55 26.85L26.73 38.34" class="st1"/><path d="M43.06 24.85v-8.32l-.03-1.15c0-9.35-9.27-13.84-20.72-13.84S1.6 6.02 1.6 15.37l-.05 1.15v4.77c0 2.26.96 4.42 2.65 5.93l13.22 11.83v5.92c0 1.14.93 2.07 2.07 2.07" class="st2"/><path d="M30.71 35.9l-3.52 3.15v2.78" class="st2"/><g id="XMLID_00000000933262614381810530000012154147626193985710_"><path id="XMLID_00000054986076019298937160000004601038260226104758_" d="M16.82 38.5h3.66" class="st1"/><path id="XMLID_00000165203020453346457200000005701001726481299847_" d="M24.14 38.5h3.66" class="st1"/></g><g id="XMLID_00000112605894935414068890000014599680833145434522_"><path id="XMLID_00000165222001812900224040000011973683750045427379_" d="M16.21 23.85v-7.33" class="st3"/><path id="XMLID_00000123403157739677741120000001508739611350327484_" d="M19.26 20.8l-3.05 3.05-3.06-3.05" class="st3"/></g><g id="XMLID_00000034807313116316586730000017781032872893667471_"><path id="XMLID_00000174575242503045952360000009107441115376027317_" d="M8.27 16.52v4.27c0 2.44 2.02 4.33 3.97 5.8 1.27.95 5.21 2.37 5.19 4.58-.02 1.66 0 3.66 0 3.66" class="st3"/><path id="XMLID_00000059308214963361289190000012452138822194932391_" d="M19.87 32.39l-2.44 2.44-2.44-2.44" class="st3"/></g><g id="XMLID_00000174592970618834782670000009803467765250768532_"><path id="XMLID_00000016771843239650727590000010968350881271189670_" d="M36.35 16.52v4.27c0 2.44-2.02 4.33-3.97 5.8-1.27.95-5.21 2.37-5.19 4.58.02 1.66 0 3.66 0 3.66" class="st3"/><path id="XMLID_00000041284960772015397430000008620776234622808216_" d="M24.75 32.39l2.44 2.44 2.44-2.44" class="st3"/></g></g><g id="XMLID_00000043441095297361947520000012761613185908672435_"><g id="XMLID_00000150782517495106537240000001148241351415263114_"><circle id="XMLID_00000168810639256897926420000010034610890584129195_" cx="9.49" cy="12.86" r="1.83" class="st1"/><circle id="XMLID_00000099655317498632590930000007684883578117485227_" cx="22.31" cy="12.86" r="1.83" class="st1"/><circle id="XMLID_00000139999552423342441090000000314904631036791974_" cx="35.13" cy="12.86" r="1.83" class="st1"/></g><circle id="XMLID_00000031200092883173990700000016797042630481779118_" cx="28.41" cy="8.59" r="1.83" class="st1"/><circle id="XMLID_00000063629782086523855210000000815695287285735100_" cx="16.21" cy="8.59" r="1.83" class="st1"/></g></g></svg>