<svg xmlns="http://www.w3.org/2000/svg" version="1" viewBox="0 0 50 50"><path fill="#FCC34F" d="M40.926 27.33l-.818-.127a.464.464 0 01-.21-.82c.98-.797 1.615-2.025 1.612-3.456-.014-1.78-1.148-3.435-2.82-4.063a4.42 4.42 0 00-5.965 3.435 4.387 4.387 0 00.658 3.075c.216.328-.054.746-.436.706l-6.756-1.057.47-3.004.58-3.72a.46.46 0 00-.707-.458c-.877.57-1.956.83-3.07.657a4.424 4.424 0 01-3.44-5.97c.63-1.667 2.284-2.802 4.066-2.812a4.387 4.387 0 013.453 1.61c.258.312.758.185.82-.215l1.048-6.72-.48-.076-15.557-2.43a4.648 4.648 0 00-5.31 3.875l-5.01 32.09a4.615 4.615 0 00.595 3.047l37.278-13.57z"/><path fill="#FDCF72" d="M28.983 7.152l.43-2.762-.48-.075-15.558-2.43a4.65 4.65 0 00-5.31 3.877l-1.49 9.547L28.982 7.15z"/><g fill="#031326"><path d="M15.31 32.19c-.623 0-1.25-.114-1.855-.342-1.94-.73-3.256-2.623-3.272-4.712-.003-1.405.538-2.716 1.5-3.67l-6.23-.973a.7.7 0 01.214-1.382l6.715 1.05c.46.07.82.39.944.835.125.45-.022.916-.384 1.217-.87.707-1.363 1.768-1.36 2.918.01 1.486.983 2.89 2.364 3.41a3.764 3.764 0 003.227-.252 3.7 3.7 0 001.802-2.636c.14-.9-.057-1.82-.555-2.59a1.144 1.144 0 01-.002-1.26c.25-.387.704-.59 1.158-.52l6.724 1.05a.7.7 0 11-.217 1.383l-6.234-.974a5.103 5.103 0 01-4.54 7.449zm4.284-7.892s0 .002.002.003c0 0 0-.002-.002-.002zm-7.425-.757h.01-.01z"/><path d="M22.972 46.364a.7.7 0 01-.692-.808l1.048-6.714c.072-.46.393-.82.837-.944.45-.125.915.023 1.216.383.707.87 1.767 1.363 2.914 1.363h.005c1.485-.012 2.89-.985 3.408-2.366a3.75 3.75 0 00-.252-3.227 3.703 3.703 0 00-5.226-1.247c-.384.252-.87.256-1.26.003a1.165 1.165 0 01-.52-1.157l1.156-7.404.68.092a.704.704 0 01.603.79c-.006.032-.012.065-.02.096l-.96 6.15a5.1 5.1 0 016.755 1.972c.78 1.337.907 2.95.35 4.424-.728 1.94-2.622 3.255-4.71 3.273h-.008c-1.404 0-2.71-.54-3.664-1.5l-.972 6.23a.695.695 0 01-.688.59zM25.47 31.63h-.002.002z"/><path d="M39.02 49.336c-.06 0-.12-.005-.18-.014l-32.088-5.01a5.82 5.82 0 01-4.848-6.64l5.01-32.09A5.82 5.82 0 0113.556.734l17.19 2.685-.18 1.15-.888 5.702-.16 1.02a1.624 1.624 0 01-1.175 1.317 1.649 1.649 0 01-1.697-.544 3.27 3.27 0 00-2.62-1.183 3.22 3.22 0 00-2.908 2.057c-.362.96-.284 1.966.22 2.83a3.238 3.238 0 004.564 1.093 1.625 1.625 0 112.494 1.612l-.554 3.853-.25 1.732 4.2.664a5.553 5.553 0 01-.217-2.606 5.558 5.558 0 012.706-3.96 5.62 5.62 0 014.825-.386c2.12.796 3.556 2.864 3.574 5.145 0 1.23-.378 2.392-1.07 3.342l6.558 1.023-1.508 9.656a1.171 1.171 0 01-1.332.972 1.168 1.168 0 01-.972-1.332l1.148-7.354-5.564-.868a1.631 1.631 0 01-.776-2.88c.753-.612 1.185-1.542 1.183-2.55-.01-1.296-.858-2.522-2.063-2.974-.962-.362-1.965-.285-2.828.218a3.24 3.24 0 00-1.577 2.305c-.125.797.043 1.58.485 2.265a1.626 1.626 0 01-1.62 2.492l-6.383-1.01a1.446 1.446 0 01-1.202-1.625l.375-2.605c.157-1.087.277-1.924.38-2.568-.84.282-1.74.363-2.63.223a5.565 5.565 0 01-3.962-2.706 5.62 5.62 0 01-.386-4.825c.782-2.076 2.803-3.51 5.028-3.567a5.572 5.572 0 013.462 1.067c.078-.547.184-1.22.313-2.05l.345-2.208-14.89-2.324a3.494 3.494 0 00-3.98 2.904L4.208 38.03a3.489 3.489 0 002.905 3.98L39.2 47.017a1.165 1.165 0 11-.178 2.318zm1.613-22.047h-.002.003zm-8.226-1.28zm-6.315-7.892a.658.658 0 00.01.258c.018-.09.037-.172.055-.248l-.065-.01zm1.198-7.408a.683.683 0 00-.075.22l.056.01c.006-.072.012-.15.02-.23z"/></g></svg>