<svg xmlns="http://www.w3.org/2000/svg" id="Layer_1" x="0" y="0" version="1.1" viewBox="0 0 50 50" xml:space="preserve"><style>.st2,.st3{fill:none;stroke:#444;stroke-linecap:round;stroke-linejoin:round;stroke-miterlimit:10}.st3{stroke-width:.5}</style><path fill="#00dffc" d="M47.5 17.5l.5-11-1.9-3.8-15.4.4c-3.2 0-27.8-3-27.8.2L1.2 24l1.2 23.5 13.6.6 31-11c.7-.4 1.5-17.6.5-19.6z"/><path fill="none" stroke="#444" stroke-linecap="round" stroke-linejoin="round" stroke-miterlimit="10" stroke-width="2.5" d="M32.6 48.1h-27c-1.9 0-3.4-1.6-3.4-3.5V5.7c0-1.9 1.5-3.5 3.4-3.5h39c1.9 0 3.4 1.6 3.4 3.5v32.5"/><path d="M46.9 6H32.7c-1 0-1.8.8-1.8 1.8v9.5L9.2 33.7m30.9 4.4V15.2h6.8" class="st2"/><circle cx="12.5" cy="38.1" r="5.5" class="st2"/><circle cx="12.5" cy="38.1" r="3" class="st3" transform="rotate(-76.656 12.499 38.065)"/><circle cx="23.5" cy="38.1" r="5.5" class="st2"/><circle cx="34.6" cy="38.1" r="5.5" class="st2"/><path d="M19.3 34.6L34 17.5V9.1h12.9" class="st2"/><path d="M29.6 35.8l7.4-18v-5.7h9.9" class="st2"/><circle cx="23.5" cy="38.1" r="3" class="st3" transform="rotate(-79.834 23.54 38.065)"/><circle cx="34.6" cy="38.1" r="3" class="st3" transform="rotate(-76.656 34.579 38.065)"/></svg>