<svg xmlns="http://www.w3.org/2000/svg" version="1" viewBox="0 0 50 50"><path fill="#46B8B0" d="M26.91 39.197v2.815l7.746-2.815H26.91zm16.719-12.299v-4.095h-4.095v-8.198h-4.11v-3.794h4.11V6.407H35.13v4.103h-4.102v4.095H18.976V10.51h-4.11V6.407H10.47v4.404h4.11v3.794h-4.11v8.198H6.36v4.095H2.25v12.601h4.404v-8.205h3.816v8.205h4.11v4.095h7.994l.512-.188v-4.208h-8.22v-3.801H35.13v3.628l4.404-1.603v-6.128h3.817v4.735l4.396-1.596v-7.535h-4.118zm-24.939 0h-3.824v-3.794h3.824v3.794zm16.44 0h-3.816v-3.794h3.816v3.794z"/><path fill="#4ECDC4" d="M39.531 10.808V6.411h-4.397v4.097h-4.109v4.097H18.978v-4.097h-4.109V6.411h-4.397v4.397h4.109v3.797h-4.109V22.8h-4.11v4.097H2.253v1.764l12.616-4.595V23.1h2.658l22.005-8.009v-.486h-4.109v-3.797h4.108z"/><g fill="#031326"><path d="M44.879 25.648V21.55h-4.098v-8.195h-4.109v-1.298h4.109V5.161h-6.896v4.098h-4.11v4.098h-9.546V9.258H16.12V5.161H9.222v6.897h4.109v1.298H9.222v8.195h-4.11v4.098H1.003v15.098H7.9v-8.201h1.321v8.201h4.109v4.098h11.007v-6.897h-8.219v-1.304h17.766v1.304h-8.226v6.897h9.54a1.25 1.25 0 000-2.5h-7.04v-1.897h8.226v-6.304H13.619v4.104h-1.897v-8.201H5.4v8.201H3.503v-10.1h4.109V24.05h4.109v-8.195h4.109v-4.098h1.897v4.098h14.546v-4.098h1.897v4.098h4.109v8.195h4.098v4.098H46.5v6.284a1.25 1.25 0 002.5 0v-8.784h-4.121zM15.831 40.446h6.007v1.897h-6.007v-1.897zM13.619 9.558h-1.897V7.661h1.897v1.897zm22.766-1.897h1.896v1.897h-1.896V7.661z"/><path d="M31.062 27.148h4.322V22.85h-4.322v4.298zm.5-3.797h3.322v3.298h-3.322v-3.298zm-16.943 3.797h4.322V22.85h-4.322v4.298zm.5-3.797h3.322v3.298h-3.322v-3.298z"/></g></svg>