<svg xmlns="http://www.w3.org/2000/svg" viewBox="0 0 50 50"><path fill="#c3ff68" d="M28.9 7V3.7H27V2h-3.9v1.7h-1.9v7l7.7-2.8z"/><path fill="#afe55d" d="M27.9 37v-2.1h4.4v-2H34V31h-5.1V7.9l-7.7 2.8V31h-4.6v1.9h1.8v2h4.3v4.2l5.2-1.9z"/><path fill="#031326" d="M29.9 29.4V9.3c0-.7-.6-1.2-1.2-1.2s-1.2.6-1.2 1.2v20.1h-4.9V4.3h1.8V2.8h1.2v1.6h1.8v.3c0 .7.6 1.2 1.2 1.2s1.2-.6 1.2-1.2V1.8H28V.3h-6.2v1.6H20v27.6h-4.7V34H17v2h4.2v5.6h-1.3v8.2H30v-8.2h-1.3V36H33v-2h1.7v-4.5h-4.8zm-2.3 17.8h-5.1V44h5.1v3.2zm-3.8-6.5v-4.9h2.5v4.9h-2.5zm6.7-7.3H19.6v-1.5h10.9v1.5z"/></svg>