<svg xmlns="http://www.w3.org/2000/svg" id="Camada_3" x="0" y="0" version="1.1" viewBox="0 0 50 50" xml:space="preserve"><style>.st2,.st4{fill:none;stroke:#444;stroke-linecap:round;stroke-linejoin:round;stroke-miterlimit:10}.st4{stroke-width:.5}</style><path fill="#f56991" d="M25.05 1.34l-8.48 5.04c-3.68 0-10.15-1.78-9.11 6.26l-5.72 6.1c-.19.29-.37 4.13-.04 4.02l40.57-14.2c-.26-2.37-8.74-2.31-9.06-2.44l-8.16-4.78z"/><path fill="#dc5e82" d="M1.02 22.98L.93 40.8l1.53 5.58c3.02 1.99 13.69 2.4 17.09 1.19L48.6 37.36c.85-.49 1.07-16.41-.06-18.7l-3.85-3.21c-.98-.81-1.16-7.2-2.4-6.94L1.02 22.98z"/><path d="M3.08 46.09l18.51-12.77a6.16 6.16 0 016.99 0l11.53 7.95" class="st2"/><path fill="none" stroke="#444" stroke-linecap="round" stroke-linejoin="round" stroke-miterlimit="10" stroke-width="2.5" d="M37.86 47.58H6.11c-2.51 0-4.55-2-4.55-4.46V18.17l6.01-4.72.06-6.82 9.14.03 6.27-4.53c1.23-.84 2.84-.84 4.07 0l6.32 4.53h9.11l.03 7.08 6.02 4.43v19.19"/><path d="M48.6 18.17l-20.75 14.7m-5.54 0L1.56 18.17m6.83 4.73V7.45h33.38V22.9" class="st2"/><g id="marketing_9_"><path d="M21.29 14.88v4.46" class="st4"/><path d="M17.59 19.32c-.48-.08-.85-.5-.85-.99v-2.45c0-.56.46-1.01 1.03-1.01h3.97" class="st2"/><path d="M21.05 19.11h-3.46" class="st4"/><path d="M21.29 19.34c3.08 0 6.82 1.46 7.59 2.97v-10.4c-.77 1.51-4.5 2.97-7.59 2.97" class="st2"/><path d="M21.28 19.3l1.15 4.53c.19.74-.38 1.46-1.16 1.46-.45 0-.87-.25-1.07-.65l-2.7-5.3" class="st2"/><path d="M31.91 17.11h1.52m-1.52-2.98l.76-.74m-.76 6.69l.76.74" class="st4"/></g></svg>