<?xml version="1.0" encoding="utf-8"?>
<!-- Generator: Adobe Illustrator 28.0.0, SVG Export Plug-In . SVG Version: 6.00 Build 0)  -->
<svg version="1.1" id="Layer_1" xmlns="http://www.w3.org/2000/svg" xmlns:xlink="http://www.w3.org/1999/xlink" x="0px" y="0px"
	 viewBox="0 0 50 50" style="enable-background:new 0 0 50 50;" xml:space="preserve">
<style type="text/css">
	.st0{fill:#DC5E82;}
	.st1{fill:none;stroke:#444444;stroke-linecap:round;stroke-linejoin:round;stroke-miterlimit:10;}
	.st2{fill:none;stroke:#444444;stroke-width:0.5;stroke-linecap:round;stroke-linejoin:round;stroke-miterlimit:10;}
	.st3{fill:none;stroke:#444444;stroke-width:2.5;stroke-linecap:round;stroke-linejoin:round;stroke-miterlimit:10;}
</style>
<g>
	<path class="st0" d="M43.1,16.3l0.5-7.3L32,4.9l-0.4-3.1c-3.2,0-9.4-2.4-10.5,3l-9.5,3.4l-1.1,24.1c0,0.1-5.5,3.3-5.5,3.4l4.3,11
		c0.2,0.4,2.6,0.1,3,0l30.4-10.8C43.3,35.4,44.1,18.2,43.1,16.3z"/>
	<g>
		<g>
			<path class="st1" d="M23.3,47.6h2c0.6,0,1.1-0.5,1.1-1.1v-9.8c0-0.6-0.5-1.1-1.1-1.1h-2c-1.2,0-2.2,1-2.2,2.2v7.5
				C21.1,46.6,22.1,47.6,23.3,47.6z"/>
			<path class="st1" d="M18.7,33.5c-1.3-1.5-1.9-3.5-2.1-5c-0.1-0.7-0.7-1.1-1.3-1.1c-0.2,0-0.5,0.1-0.7,0.2c-1,0.6-1.6,1.7-1.5,2.9
				l0.4,3.6l-3.3-0.3"/>
			<line class="st2" x1="32.8" y1="15.3" x2="20.8" y2="15.3"/>
			<line class="st2" x1="37.3" y1="21.3" x2="16.3" y2="21.3"/>
			<line class="st2" x1="18.1" y1="25.8" x2="37.3" y2="25.8"/>
			<line class="st2" x1="23.1" y1="30.3" x2="37.3" y2="30.3"/>
			<line class="st2" x1="29.8" y1="34.8" x2="37.3" y2="34.8"/>
		</g>
		<path class="st3" d="M43.3,37V9.2c0-0.9-0.8-1.7-1.7-1.7h-5.4V6.7c0-0.9-0.8-1.7-1.7-1.7H32V3.3c0-0.9-0.8-1.7-1.7-1.7h-6.8
			c-0.9,0-1.7,0.8-1.7,1.7V5h-2.5c-0.9,0-1.7,0.8-1.7,1.7v0.8h-5.1c-0.9,0-1.7,0.8-1.7,1.7L10.5,33l-1.4-0.1
			c-2.5-0.2-4.4,2.3-3.4,4.6l3.1,8c0.5,1.3,1.8,2.2,3.2,2.2h9.3c0.5,0.5,1.1,0.8,1.9,0.8H27c0.2,0,0.4-0.6,0.4-1.3v-2.1l8.1,0"/>
		<line class="st1" x1="42.5" y1="8.4" x2="11.3" y2="8.4"/>
		<line class="st1" x1="35.4" y1="5.7" x2="35.4" y2="8.1"/>
		<line class="st1" x1="18.4" y1="8" x2="18.4" y2="6.3"/>
	</g>
</g>
</svg>
