<svg xmlns="http://www.w3.org/2000/svg" id="Layer_1" x="0" y="0" version="1.1" viewBox="0 0 50 50" xml:space="preserve"><style>.st2{fill:#031326}</style><path fill="#ce87ea" d="M48 25c0-7.5-3.6-14.2-9.2-18.4L2.6 19.8C2.2 21.5 2 23.2 2 25c0 7.8 3.9 14.6 9.8 18.8l35.5-12.9c.4-1.9.7-3.9.7-5.9z"/><path fill="#e097fb" d="M25.2 1.9C13.9 1.9 4.5 9.8 2.1 20.3L39.5 6.7c-4-3-8.9-4.8-14.3-4.8z"/><path d="M29 17.4c1.1.7 1.6 1.5 1.8 2.3 1.6-.5 1.9-1.7 1.9-1.7.2-.9 0-1.8-.5-2.4-.5-.6-1.2-.9-2-1 .1.5 0 .9 0 1 0 .2-.2.3-.4.3h-.1c-.2-.1-.3-.3-.3-.5 0 0 .1-.5-.1-1-.6-.9-1.6-1.2-2.3-1.2-.8 0-1.6.3-1.6 1.1v3c.8-.4 2.1-.8 3.6.1zm-6-4.3c-.7 0-1.7.3-2.3 1.2-.2.5-.1 1-.1 1 .1.2-.1.4-.3.5h-.1c-.2 0-.3-.1-.4-.3 0 0-.1-.4 0-1-.8.1-1.5.5-2 1-.5.6-.7 1.5-.5 2.4 0 .1.3 1.2 1.9 1.7.2-.8.7-1.6 1.8-2.3 1.5-.9 2.8-.5 3.6-.2v-3c0-.6-.8-1-1.6-1z" class="st2"/><path d="M21.4 18.1c-1 .6-1.4 1.4-1.5 2.1v.2c-.1.8.1 1.4.1 1.4.1.2 0 .4-.3.5h-.1c-.2 0-.3-.1-.4-.3 0 0-.2-.6-.1-1.5-1.5-.4-2.1-1.4-2.4-1.9-.7.3-1.3.8-1.6 1.5-.2.5-.3 1.3.3 2.1 0 0 .5.7 1.7 1 .2 0 .3.3.3.5s-.2.3-.4.3h-.1c-.9-.2-1.5-.7-1.9-1-.8.6-.9 1.4-.9 1.9 0 .8.5 1.7.9 2 .1 0 1.2.9 3.4.5.1-.7.4-1.3.8-1.8 1-1 2.6-1.1 2.7-1.1.2 0 .4.2.4.4s-.2.4-.4.4c-.1 0-2.8 0-2.8 2.6 0 .8.3 1.4.8 1.9.6.6 1.4.7 1.9.7.2 0 .4.1.4.4 0 .2-.1.4-.4.4h-.2c-.8 0-1.7-.3-2.3-.9-.6-.6-1-1.3-1-2.3-.4.1-.7.1-1.1.1-1.2 0-2-.3-2.4-.6-.3.5-.5 1.1-.4 1.8.1.8.5 1.4 1.3 1.8.1-.3.3-.7.7-1 .2-.1.4-.1.6 0 .1.2.1.4 0 .6-.4.4-.6.9-.6 1-.2 1.2.2 1.9.6 2.4.5.6 1.1.9 1.8 1-.1-.3-.2-.7-.2-1 0-.2.2-.4.4-.4s.4.2.4.4c0 .4.3 1 .4 1.2.5 1 1.7 1.3 2.6 1.3.6 0 1.2-.1 1.6-.4.4-.3.6-.6.6-1v-1.4c-.3.3-.8.5-1.3.5-1.3 0-2-.7-2-.8-.1-.2-.1-.4 0-.6.2-.1.4-.1.6 0 0 0 .5.5 1.4.5.9 0 1.3-.8 1.3-1v-4.2c-.3.1-.6.2-1 .2s-.9-.1-1.5-.3c-.2-.1-.3-.3-.2-.5.1-.2.3-.3.5-.2 1.2.4 1.9.2 2.2 0v-5.3c0-.5-.3-.7-.5-.7-.4-.2-1.1-.1-1.5.4-.1.2-.4.2-.6 0-.2-.1-.2-.4 0-.6.7-.8 1.7-.9 2.4-.7.1 0 .2.1.3.1v-3c-.5.1-1.9-.5-3.3.4zm11.3 10.2c-.3 0-.7 0-1.1-.1 0 .9-.4 1.7-1 2.3-.6.6-1.5.9-2.3.9h-.2c-.2 0-.4-.2-.4-.4s.2-.4.4-.4c.5 0 1.3-.1 1.9-.7.5-.5.8-1.1.8-1.9 0-2.6-2.7-2.6-2.8-2.6-.2 0-.4-.2-.4-.4s.2-.4.4-.4c.1 0 1.6 0 2.7 1.1.5.5.7 1.1.8 1.8 2.2.4 3.4-.5 3.4-.5.4-.2.9-1.2.9-2 0-.5-.2-1.2-.9-1.9-.3.3-.9.8-1.9 1h-.1c-.2 0-.3-.1-.4-.3 0-.2.1-.4.3-.5 1.1-.3 1.6-.9 1.7-1 .6-.9.5-1.6.3-2.1-.3-.7-.9-1.3-1.6-1.5-.2.6-.9 1.5-2.4 1.9.1.8-.1 1.5-.1 1.5-.1.2-.2.3-.4.3h-.1c-.2-.1-.3-.3-.3-.5 0 0 .2-.7.1-1.4s-.5-1.5-1.5-2.1c-1.4-.8-2.7-.3-3.2 0v3c.1 0 .2-.1.3-.1.7-.3 1.7-.1 2.4.7.1.2.1.4 0 .6-.2.1-.4.1-.6 0-.4-.5-1.1-.6-1.5-.4-.2.1-.5.3-.5.7v5.3c.3.2 1 .4 2.2 0 .2-.1.4 0 .5.2.1.2 0 .4-.2.5-.6.2-1.1.3-1.5.3-.4 0-.7-.1-1-.2v4.2c.1.2.4 1 1.3 1s1.4-.5 1.4-.5c.1-.2.4-.2.6 0 .2.1.2.4 0 .6 0 0-.7.8-2 .8-.6 0-1-.2-1.3-.5V36c0 1 1.1 1.4 2.1 1.4.9 0 2.1-.3 2.6-1.3.1-.2.4-.8.4-1.2 0-.2.2-.4.4-.4s.4.2.4.4c0 .3-.1.7-.2 1 .7-.1 1.3-.5 1.8-1 .4-.5.8-1.3.6-2.4 0-.1-.2-.7-.6-1-.2-.1-.2-.4 0-.6.1-.2.4-.2.6 0 .3.3.6.7.7 1 .7-.4 1.2-1 1.3-1.8.1-.6-.1-1.3-.4-1.8-.4-.3-1.3 0-2.4 0z" class="st2"/><path d="M25 45C14 45 5 36 5 25S14 5 25 5s20 9 20 20-9 20-20 20zm0-39.2C14.4 5.8 5.8 14.4 5.8 25S14.4 44.2 25 44.2 44.2 35.6 44.2 25 35.6 5.8 25 5.8z" class="st2"/><path d="M25 48.9C11.8 48.9 1.1 38.2 1.1 25S11.8 1.1 25 1.1 48.9 11.8 48.9 25c0 3.2-.6 6.4-1.9 9.3-.3.6-1 .9-1.6.7-.6-.3-.9-1-.7-1.6 1.1-2.6 1.7-5.4 1.7-8.3 0-11.8-9.6-21.4-21.4-21.4C13.2 3.6 3.6 13.2 3.6 25S13.2 46.4 25 46.4c1.8 0 3.5-.2 5.2-.6.7-.2 1.3.2 1.5.9.2.7-.2 1.3-.9 1.5-1.9.5-3.8.7-5.8.7z" class="st2"/></svg>