<svg xmlns="http://www.w3.org/2000/svg" version="1" viewBox="0 0 50 50"><path fill="#E56060" d="M46.95 31.107l-9.069-5.341a7.476 7.476 0 00-3.344-4.01l-9.659-5.543a7.556 7.556 0 00-5.331-.853l-8.948-5.185a5.482 5.482 0 00-2.768-.756c-2.895 0-5.412 2.744-5.412 5.982a5.536 5.536 0 002.764 4.792l8.942 5.175c.504 1.78 1.523 2.935 3.354 4.03l9.346 5.382a7.556 7.556 0 003.783 1.014c.671 0 .847-.025 1.498-.202l2.512 1.468.615-.222h.005l4.761-1.735-3.939-2.285a7.068 7.068 0 001.377-2.572l6.133 3.556 4.408-1.604.222-.081a5.578 5.578 0 00-1.25-1.01zm-19.872-2.083c0 .398.04.787.131 1.17l-5.846-3.369c2.012-.711 3.576-2.608 3.576-5.049 0-.262-.02-.525-.055-.782l5.417 3.122c-1.841.797-3.223 2.613-3.223 4.908zM6.631 15.108c0-.994.878-1.463 1.468-1.463.247 0 .479.066.721.202l7.197 4.171a7.09 7.09 0 00-1.493 2.502l-7.167-4.151a1.46 1.46 0 01-.726-1.261zm12.947 8.131c-.247 0-.479-.066-.721-.207l-.822-.474c.081-.681.388-1.75 1.533-2.476l.752.434c.449.257.726.746.726 1.261 0 .998-.873 1.462-1.468 1.462zm12.12 7.046a1.477 1.477 0 01-.726-1.261c0-.999.878-1.468 1.468-1.468.247 0 .484.071.721.207l.696.404c-.005.55-.156 1.76-1.281 2.628l-.878-.51z"/><path fill="#FF6B6B" d="M15.387 12.949l-.217.081-4.771 1.735-1.579-.918a1.436 1.436 0 00-.721-.202c-.59 0-1.468.469-1.468 1.463 0 .338.116.656.323.908l-3.712 1.352-.403.146a5.55 5.55 0 01-.419-2.113c0-3.238 2.517-5.982 5.412-5.982.923 0 1.876.237 2.769.757l4.786 2.773z"/><path fill="#031326" d="M48.884 30.261a7.398 7.398 0 00-.694-.462l-8.852-5.216c-.748-1.819-2.051-3.302-3.794-4.311l-9.831-5.64a8.943 8.943 0 00-5.822-1.096l-8.707-5.05a6.861 6.861 0 00-3.446-.94c-3.617 0-7.037 3.751-7.037 7.719 0 2.661 1.246 5.034 3.25 6.193l8.687 5.028c.631 1.809 1.799 3.125 3.833 4.343l9.515 5.479a8.95 8.95 0 004.476 1.199c.584 0 .896-.021 1.336-.119l8.523 4.91a1.249 1.249 0 001.248-2.166l-9.185-5.238-2.512-1.455a5.134 5.134 0 01-2.419-3.3l-.003-.011a4.927 4.927 0 01-.123-1.103c0-.255.019-.507.054-.752.011-.08.035-.156.051-.235.031-.163.06-.327.106-.484.027-.091.067-.177.099-.266.049-.139.095-.279.156-.412.042-.092.097-.177.145-.266.065-.122.127-.247.202-.363.057-.088.125-.168.188-.252.08-.108.157-.219.246-.321.072-.082.154-.154.231-.231.094-.094.184-.19.285-.276.085-.073.181-.136.271-.204.106-.079.208-.16.321-.232.098-.062.205-.114.309-.17.1-.054.199-.11.305-.159l1.746 1.003c.162.093.302.196.433.301.042.034.079.07.118.106a2.952 2.952 0 01.512.6c.022.035.048.07.068.105.068.117.128.235.177.351l.019.052a3.289 3.289 0 01.179.631l.018.104.007.06-.288-.167a1.67 1.67 0 00-.847-.238c-.692 0-1.716.545-1.716 1.716 0 .6.325 1.165.85 1.477l.557.325-.001.001.445.258.022.013 3.523 2.041.002-.002 6.956 4.032c.28.16.558.237.85.237.69 0 1.711-.545 1.711-1.716a1.72 1.72 0 00-.851-1.478l-7.053-4.085c.088-.322.153-.649.197-.979.003-.026.002-.052.005-.078.042-.34.06-.682.056-1.025-.001-.124-.014-.246-.022-.369a7.602 7.602 0 00-.135-1.077l9.092 5.355c.158.092.309.192.452.301a1.25 1.25 0 001.506-1.996zm-11.685-.088l-.001.002a6.81 6.81 0 01-1.195 2.316l-2.997-1.737c.025-.024.044-.05.068-.074.054-.055.104-.11.153-.167a3.29 3.29 0 00.418-.595 3.404 3.404 0 00.179-.374c.028-.07.056-.138.078-.206.016-.048.03-.095.043-.142.023-.078.045-.155.062-.229l.016-.079c.018-.089.035-.175.046-.255v-.004l.009-.076.027.013v-.398l.001-.146-.005-.003a3.649 3.649 0 00-.049-.517 3.517 3.517 0 00-1.761-2.533l-4.092-2.355-3.086-1.778-.099-.057-.454-.262v.001l-1.308-.75a3.703 3.703 0 00-3.648-.003 1.085 1.085 0 00-.165.105l-.019.014-.003.002-.003.002c-.13.083-.249.171-.36.262-.038.031-.071.064-.107.097a3.878 3.878 0 00-.216.206c-.037.039-.07.078-.104.118a3.673 3.673 0 00-.25.327c-.046.07-.089.139-.129.21-.023.04-.047.08-.067.12-.04.077-.075.154-.107.232-.014.033-.03.065-.043.097a3.667 3.667 0 00-.109.32c-.007.023-.011.045-.017.067-.019.072-.038.143-.053.213l-3.017-1.749a6.808 6.808 0 011.369-2.223 7.02 7.02 0 013.639-2.113c.026-.004.051.004.076-.002a6.454 6.454 0 014.55.729l9.83 5.639a6.383 6.383 0 012.354 2.34c.169.315.326.639.447.984a7.155 7.155 0 01.099 4.411zm-7.895-5.79a5.455 5.455 0 00-.939.785 5.356 5.356 0 00-.228.248c-.095.112-.182.23-.268.35-.064.09-.13.178-.188.271-.08.127-.149.259-.219.393-.049.095-.102.188-.146.287-.064.143-.115.292-.167.441-.034.096-.072.19-.101.289a5.552 5.552 0 00-.113.515c-.016.086-.04.169-.052.256a5.414 5.414 0 00-.018 1.456l.002.035-4.936-2.843c.06-.027.113-.064.172-.094a5.8 5.8 0 001.019-.652c.12-.096.233-.198.344-.303.088-.084.176-.168.258-.258.104-.113.199-.232.293-.353.073-.094.147-.187.214-.286.088-.129.164-.265.241-.402.057-.101.116-.2.167-.305.071-.148.127-.302.185-.457.039-.103.083-.204.115-.31.054-.176.09-.358.127-.541.018-.092.045-.181.059-.274a5.735 5.735 0 00.056-1.175l3.189 1.835 1.394.804c-.057.03-.107.069-.162.101-.101.06-.2.123-.298.187zm-1.367 7.98l.038.047c.216.284.456.55.723.789l.025.021c.275.244.574.464.896.652l1.791 1.038c-.344.087-.486.098-.95.098a6.468 6.468 0 01-3.227-.864l-9.498-5.469c-1.537-.921-2.33-1.811-2.761-3.097l1.806 1.047c.194.112.394.21.596.297.097.042.195.076.294.112.103.038.205.075.309.107.119.036.239.068.359.096.09.021.181.038.271.055.121.022.242.043.364.057.125.014.25.019.375.025.077.003.152.015.23.015l.028-.002a5.57 5.57 0 00.816-.07c.064-.01.127-.019.19-.032.244-.046.486-.103.722-.184l5.653 3.255c.005.021.016.04.022.061.087.338.201.665.348.978l.038.073c.155.313.333.615.542.895zM4.258 18.46c-.659-.818-1.057-1.962-1.057-3.194 0-2.417 2.001-4.876 4.098-5.185.027-.004.054-.004.081-.008.119-.016.238-.027.358-.027.757 0 1.515.208 2.191.601l8.946 5.189a7.462 7.462 0 00-1.227.558 7.954 7.954 0 00-.934.637c-.098.078-.183.167-.276.248-.159.139-.324.271-.469.422l-7.026-4.069a1.667 1.667 0 00-.845-.238c-.692 0-1.716.545-1.716 1.716 0 .606.326 1.17.85 1.473L17.77 22.69l.962.558h.001c.063.037.128.055.192.084.074.033.146.075.221.096.141.04.284.059.434.059.692 0 1.716-.544 1.716-1.711 0-.609-.326-1.175-.851-1.477l-.347-.201c.098-.046.198-.088.3-.123.099-.034.196-.074.298-.098.165-.038.333-.052.502-.064.094-.007.188-.024.282-.022.182.003.361.036.539.07.082.016.165.017.245.039.255.07.504.168.736.301l1.644.946c.026.208.047.418.047.629 0 .274-.021.544-.062.807-.285 1.841-1.537 3.368-3.353 4.008-1.37.498-2.923.364-4.245-.399l-2.563-1.487-9.266-5.41c-.105-.061-.202-.136-.3-.209a5.15 5.15 0 01-.644-.626zm14.16 3.501c.009-.03.021-.06.031-.091.052-.152.116-.307.2-.461.014-.026.033-.051.047-.077.08-.138.177-.274.288-.407.025-.029.045-.06.071-.089a3.1 3.1 0 01.467-.412l.061-.045.61.353c.37.213.6.613.6 1.044 0 .826-.726 1.211-1.216 1.211-.209 0-.398-.054-.595-.171l-.675-.392.005-.033c.026-.136.06-.281.106-.43zm-10.936-5.81a1.203 1.203 0 01-.601-1.04c0-.83.726-1.216 1.216-1.216.202 0 .392.055.595.171l6.942 4.02a7.282 7.282 0 00-1.233 2.075l-6.919-4.01zm23.74 12.873c0-.829.726-1.216 1.216-1.216.203 0 .398.056.595.17l.566.329-.002.037a2.73 2.73 0 01-.01.122c-.004.043-.01.087-.016.132a3.445 3.445 0 01-.021.129c-.009.051-.021.104-.033.157a2.901 2.901 0 01-.09.313c-.014.042-.027.083-.043.125a2.964 2.964 0 01-.115.253c-.01.021-.018.041-.029.061a2.96 2.96 0 01-.192.31c-.024.035-.055.068-.081.102a2.87 2.87 0 01-.17.204c-.037.04-.08.079-.12.118-.041.04-.085.078-.13.117l-.72-.418a1.221 1.221 0 01-.605-1.045zm13.312 5.621c.371.218.602.618.602 1.045 0 .829-.723 1.216-1.211 1.216-.202 0-.399-.056-.601-.171l-6.892-3.995a7.296 7.296 0 001.142-2.127l6.96 4.032z"/></svg>