<svg xmlns="http://www.w3.org/2000/svg" viewBox="0 0 50 50"><path fill="#9674ea" d="M47.7 17.4c.3-1.1 0-2.3-.7-3.3-.5-.7-1.3-1.2-2.1-1.4l.3-2.2-43.7 16v15.4c0 .9.2 1.7.8 2.4l42.5-15.5 2.9-11.4z"/><path fill="#b292f3" d="M45.3 9.2c.1-1.1-.2-2.1-.9-3-.7-.8-1.8-1.2-2.8-1.2h-8.7c-1.5 0-2.8.8-3.4 2.2-.3.4-.9.8-1.4.8h-21C4 8 1.5 10.5 1.5 13.5v13l43.6-15.9.2-1.4z"/><path fill="#031326" d="M48.1 13.2c-.5-.6-1.1-1.1-1.7-1.4l.3-2.7c.2-1.4-.3-2.8-1.2-3.9-.9-1.1-2.3-1.7-3.7-1.7h-8.6c-1.9 0-3.7 1.1-4.5 2.9 0 .1-.1.1-.2.1H7.8c-3.7 0-6.7 3-6.8 6.7v28c0 1.2.3 2.3 1 3.2.9 1.2 2.4 1.9 3.9 1.9h31.8c2.3 0 4.3-1.5 4.8-3.7L49 17.5c.3-1.5 0-3.1-.9-4.3zm-3.8.6l.4.1c.6.1 1.1.4 1.4.9.1.1.1.2.2.3.1.4.2.8.1 1.2l-6.8 26.3c-.1.5-.5.9-.9 1.2-.3.1-.7.2-1 .2H5.9c-.8 0-1.5-.3-2-1-.4-.5-.5-1-.5-1.7v-2.9L9 16.6c.4-1.7 2-2.9 3.7-2.9h31.6zM7.7 9.1h20.7c1.1 0 2-.6 2.5-1.6.4-.9 1.3-1.4 2.2-1.4h8.6c.7 0 1.4.3 1.8.8.5.5.7 1.2.6 1.9l-.4 4.2h-31c-2.1 0-3.9 1.4-4.4 3.4l-4.9 19V13.2c0-2.2 1.9-4.1 4.3-4.1z"/></svg>