<svg xmlns="http://www.w3.org/2000/svg" fill="none" viewBox="0 0 48 49"><path fill="#AFE55D" d="M46.18 14.57L1.93 30.68l-.24 5.89.08 10.13 29.55-10.36v-.04c0-.01.01-.02.01-.04-.18-.1-.3-.31-.32-.52-.05-.59.1-1.21.23-1.79.1-.47.21-.94.31-1.4-.19-.11-.33-.32-.33-.53 0-.35.28-.56.6-.6 2.02-.21 4.06-.29 6.09-.29.31 0 .49.2.55.43h.18c2.47-.03 4.92-.41 7.39-.43l.81-.29-.66-16.27z"/><path fill="#C3FF68" d="M46.84 14.57V4.54l-7.09-3.09-23.37 8.5c-.16.31-.28.66-.38 1.01-.07.67-.13 1.33-.19 2 .24.08.42.31.42.56 0 .51-.02 1.02-.05 1.53-.01.23-.02.46-.05.68-.03.3-.09.63-.4.76-.06.15-.17.28-.37.33-1.72.44-3.52.2-5.27.17-2.19-.04-4.38 0-6.57 0-.26 0-.42-.14-.5-.31-.5.2-1.02.38-1.55.5l-.15 3.18.24 11.08 44.75-16.29.68-.25v-.33h-.15z"/><path stroke="#444" stroke-miterlimit="10" stroke-width=".5" d="M29.49 27.68v16.33c0 .64-.45 1.17-1 1.17H4.4c-.55 0-1-.52-1-1.17V27.68c0-.64.45-1.17 1-1.17h24.09c.55 0 1 .52 1 1.17z"/><path stroke="#444" stroke-linecap="round" stroke-linejoin="round" stroke-miterlimit="10" d="M21.03 42.39h8.44a5.63 5.63 0 005.63-5.63l.05-7.87"/><path stroke="#444" stroke-linecap="round" stroke-linejoin="round" stroke-miterlimit="10" d="M26.65 48.01l-5.62-5.62 5.62-5.63"/><path fill="#444" stroke="#444" stroke-miterlimit="10" stroke-width=".25" d="M45.24.5H17.83c-1.08 0-1.96.88-1.96 1.96v13.7c.44-.01.87-.01 1.31-.01V5.72H45.9v24.15c0 .36-.29.65-.65.65h-13.3V18.2c0-1.08-.87-1.95-1.95-1.95H2.74c-1.08 0-1.95.87-1.95 1.95v27.26c0 1.08.87 1.95 1.95 1.95H30c1.08 0 1.95-.87 1.95-1.95V31.83h13.3c1.08 0 1.96-.88 1.96-1.96V2.46A1.965 1.965 0 0045.24.5zM30.65 45.46c0 .36-.29.65-.65.65H2.74c-.36 0-.65-.29-.65-.65V21.44h28.55v24.02h.01z"/><path fill="#444" d="M21.09 11.31a1.96 1.96 0 100-3.92 1.96 1.96 0 000 3.92zm22.63 9.55c-.36 0-.65.28-.65.62v.82c0-.28-.29-.5-.65-.5-.36 0-.65.22-.65.5v.68c-.05-.19-.31-.33-.63-.33-.36 0-.65.18-.65.39v-2.09c0-.38-.29-.69-.65-.69-.36 0-.65.31-.65.69v-1.66c0-.51-.29-.93-.65-.93-.36 0-.65.42-.65.93v.31c-.05-.41-.31-.74-.63-.74-.36 0-.65.39-.65.87v.06c-.12-.17-.29-.28-.49-.28-.36 0-.65.35-.65.78v1.75c0-.29-.29-.53-.65-.53-.33 0-.58.2-.63.45v-.75c0-.36-.29-.65-.65-.65-.36 0-.65.29-.65.65v3.92c0 .17.07.31.17.43.12.14.29.23.48.23.2 0 .37-.09.48-.23.08-.09.13-.2.15-.33v.02c0 .12.06.22.13.31.12.13.3.23.52.23.22 0 .4-.09.52-.23.08-.09.13-.19.13-.31V25c0 .22.08.42.2.56.12.14.28.23.46.23s.34-.09.46-.23c.05-.06.09-.14.13-.22.04.08.08.16.13.22.12.14.26.23.43.23.17 0 .31-.09.43-.23.13-.15.21-.36.22-.6.02.24.1.45.23.6.11.13.25.23.41.23.16 0 .3-.09.41-.23.14-.17.24-.42.24-.7v.24c0 .18.07.34.18.47.12.14.29.23.48.23s.36-.09.48-.23c.11-.12.18-.28.18-.47v.3c0 .06.03.12.07.17.1.13.33.23.59.23.26 0 .48-.09.59-.23.04-.05.07-.11.07-.17v-.03c.02.07.05.14.1.2.12.13.31.23.53.23.22 0 .41-.09.53-.23.07-.08.12-.17.12-.27v-.12c0 .15.06.28.16.39.12.13.29.23.49.23s.37-.09.49-.23a.62.62 0 00.16-.39v-3.69c-.07-.36-.36-.63-.72-.63z"/><path stroke="#444" stroke-miterlimit="10" stroke-width=".25" d="M25.01 5.76v10.58"/><path fill="#444" d="M29.24 14.93l2.51-3.57c.47-.47 1.22-.52 1.74-.1l1.44 1.15c.52.42 1.27.38 1.74-.1l1.96-1.96a1.31 1.31 0 011.85 0c.06.06.12.13.16.2l3.04 4.55"/><path stroke="#444" stroke-linecap="round" stroke-miterlimit="10" stroke-width=".5" d="M44.08 15.1H29.07V8.93"/><path stroke="#444" stroke-linecap="round" stroke-miterlimit="10" d="M4.65 24.59h7.7M5.39 28.9h16.35M8.18 32.04h7.69m1.68 0h5.48m1.68 0h3.15"/></svg>