<svg xmlns="http://www.w3.org/2000/svg" id="Camada_3" x="0" y="0" version="1.1" viewBox="0 0 50 50" xml:space="preserve"><style>.st4{fill:none;stroke:#444;stroke-linecap:round;stroke-linejoin:round;stroke-width:.5;stroke-miterlimit:10}</style><path fill="#c3ff68" d="M38.1 3.4l-23.5-.6c-1.5 0-.6 10.3-.6 11.9H6.2l-.7 25-3.6.8c-.8.2.7 4.5 1.4 4.9 7.8 2.4 10-.4 28.1.8l17-5.8.4-22.7-1.1-2.9-8.4-1.1c0-1.7.3-10.3-1.2-10.3z"/><path fill="none" fill-rule="evenodd" stroke="#444" stroke-linecap="round" stroke-linejoin="round" d="M45 13.8c1.9 0 3.4 1.5 3.4 3.4V40M5.2 40V17.2c0-1.9 1.5-3.4 3.4-3.4m39.8 27h-17l-.2.7c0 .3-.2.5-.6.5h-7.7c-.3 0-.6-.2-.6-.5v-.6H1.1c0 2.8 2.8 5 6.2 5h36.2m-22.9-8.8v-5.5m4.1 5.5v-9.7m4.1 9.7v-7m4.2 7v-5.6m-20.6 5.6v-6.6m4.1 6.6v-8.2m20.6 8.2v-8.2m4.1 8.2V26.5M9.5 37.1h34" clip-rule="evenodd"/><path fill="none" fill-rule="evenodd" stroke="#444" stroke-linecap="round" stroke-linejoin="round" stroke-width="2.5" d="M48.4 40V17.2c0-1.9-1.5-3.4-3.4-3.4h-6.3V4.1c0-.9-.7-1.6-1.6-1.6l-21.8.1c-.9 0-1.6.7-1.6 1.6l.1 9.6H8.6c-1.9 0-3.4 1.5-3.4 3.4V40H1.1c0 3.3 2.8 5.9 6.2 5.9h36.2" clip-rule="evenodd"/><path fill="none" stroke="#444" stroke-linecap="round" stroke-linejoin="round" stroke-miterlimit="10" d="M35.9 24.1H16.7c-1.1 0-1.9-.9-1.9-1.9V4.9c0-1.1.9-1.9 1.9-1.9H36c1.1 0 1.9.9 1.9 1.9v17.2c-.1 1.1-.9 2-2 2z"/><path d="M17.7 6.1h3.1v3.1h-3.1zm0 6.4h3.1v3.1h-3.1zm0 6.1h3.1v3.1h-3.1z" class="st4"/><path d="M17.3 6.9l1.4 1.7 4-3.7m-5.4 8.3l1.4 1.7 4-3.7m-5.4 7.9l1.4 1.8 4-3.7m.6-10.4l1.8 1.8 2.3-1.9 2 2L32 4.9l2.1 3.4.7-1.4m-11.5 5.9l1.8 1.9 2.3-2 2 2 2.6-3.8 2.1 3.4.7-1.4m-11.5 5.7l1.8 1.8 2.3-1.9 2 2 2.6-3.8 2.1 3.4.7-1.4" class="st4"/></svg>