<svg xmlns="http://www.w3.org/2000/svg" id="Camada_1" x="0" y="0" version="1.1" viewBox="0 0 50 50" xml:space="preserve"><style>.st2{fill:#031326}</style><path fill="#fcc34f" d="M47.4 21.9v6.2L1.3 42.6.9 30.1v-3.9l46.6-17z"/><path fill="#fdcf72" d="M47.4 6.6l-.6 3.2-46 16.7.1-6.5v-4L48 1z"/><path d="M48.2 49c-.7 0-1.2-.6-1.2-1.2V2.9H3v43.6h19.7c.7 0 1.2.6 1.2 1.2s-.4 1.3-1.1 1.3h-21c-.7 0-1.2-.6-1.2-1.2V1.6C.6.9 1.2.4 1.8.4h46.4c.7 0 1.2.6 1.2 1.2v46.1c0 .7-.5 1.3-1.2 1.3z" class="st2"/><path d="M40.4 28.8V17c2.1-.4 3.7-2.2 3.7-4.3 0-2.4-2-4.4-4.4-4.4-2.4 0-4.3 1.9-4.4 4.3H5.9v24.7h18.4c.4 5.2 4.7 9.2 9.9 9.2 5.5 0 9.9-4.4 9.9-9.9 0-3.1-1.4-5.9-3.7-7.8zm-.7-19c1.6 0 2.9 1.3 2.9 2.9s-1.3 2.9-2.9 2.9c-1.6 0-2.9-1.3-2.9-2.9s1.2-2.9 2.9-2.9zM24.3 35.7H7.5V14.1h28c.1.4.3.8.6 1.2l-3.6 3.6c-.5-.2-1-.2-1.5 0l-1.1-1.1c.1-.3.1-.6.1-.8 0-1.1-.9-2-2-2s-2 .9-2 2c0 .3 0 .5.2.8l-2.9 2.9c-.2-.1-.5-.2-.8-.2-1.1 0-2 .9-2 2s.9 2 2 2 2-.9 2-2c0-.3 0-.5-.1-.8l2.9-2.9c.5.2 1 .2 1.5 0l1.1 1.1c-.1.2-.2.5-.2.8 0 1.1.9 2 2 2s2-.9 2-2c0-.3 0-.5-.2-.8l3.6-3.6c.5.4 1.1.6 1.8.7v10.8c-1.5-.8-3.1-1.2-4.7-1.2-2.7 0-5.3 1.1-7.2 3.1v-2.5h-4v7.6h1.4c-.1.3-.1.6-.1.9zm7.9-15.1c0 .2-.2.5-.5.5-.2 0-.5-.2-.5-.5s.2-.5.5-.5c.3.1.5.3.5.5zM28.5 17c0 .3-.2.5-.5.5-.2 0-.5-.2-.5-.5 0-.2.2-.5.5-.5s.5.2.5.5zM23 22.5c0 .2-.2.5-.5.5s-.5-.2-.5-.5.2-.5.5-.5.5.2.5.5zm15.9 14c0 2.6-2.1 4.7-4.7 4.7s-4.7-2.1-4.7-4.7 2.1-4.7 4.7-4.7 4.7 2.1 4.7 4.7zm-13.4-4.8c-.3.5-.5 1-.7 1.5h-.2v-4.6h.9v3.1zm.3 4.8c0-4.3 3.3-8 7.6-8.3v2.1c-3.1.4-5.5 3-5.5 6.2 0 .9.2 1.7.5 2.5l-1.9 1c-.5-1.1-.7-2.3-.7-3.5zm8.4 8.4c-2.7 0-5.3-1.3-6.9-3.6l1.9-1.1c1.2 1.6 3 2.5 5 2.5s3.8-.9 5-2.5l1.9 1.1c-1.7 2.3-4.2 3.6-6.9 3.6zm7.6-4.9l-1.9-1.1c.3-.8.5-1.6.5-2.5 0-3.2-2.3-5.8-5.5-6.2v-2.1c4.3.4 7.6 4 7.6 8.3 0 1.3-.2 2.5-.7 3.6z" class="st2"/><path d="M34.2 32.7c-2.1 0-3.8 1.7-3.8 3.8 0 2.1 1.7 3.8 3.8 3.8 2.1 0 3.8-1.7 3.8-3.8 0-2.1-1.7-3.8-3.8-3.8zm0 6.1c-1.3 0-2.3-1-2.3-2.3 0-1.3 1-2.3 2.3-2.3 1.3 0 2.3 1 2.3 2.3 0 1.3-1.1 2.3-2.3 2.3zM10.8 19.9h8.8v1.5h-8.8zm0-4.9h8.8v1.5h-8.8zm0 2.4h8.8v1.5h-8.8zm0 4.9h8.8v1.5h-8.8zm-2.4-4.9h1.5v1.5H8.4zm0-2.4h1.5v1.5H8.4zm0 4.9h1.5v1.5H8.4zm0 2.4h1.5v1.5H8.4zm0 6.1v6.4h4v-6.4h-4zm1.5 4.9v-3.4h.9v3.4h-.9zm3.3-3.7v5.2h4v-5.2h-4zm1.6 3.7v-2.1h.9v2.1h-.9zm3.3-8.5v10.1h4V24.8h-4zm1.6 8.5v-7h.9v7h-.9z" class="st2"/></svg>