<svg xmlns="http://www.w3.org/2000/svg" id="Camada_3" x="0" y="0" version="1.1" viewBox="0 0 50 50" xml:space="preserve"><style>.st1{stroke-width:2.5}.st1,.st2,.st3{fill:none;stroke:#444;stroke-linecap:round;stroke-linejoin:round;stroke-miterlimit:10}.st3{stroke-width:.5}</style><path fill="#c3ff68" d="M43.56 27.15l.11-7.41.96-7.24c-.15.02-.3.01-.45.02l.16-.93c.11-.66-.04-1.33-.42-1.88l-2.33-3.35c-.18-.26-.41-.48-.66-.66L38.43 4c-.27-.18-.5-.41-.68-.68l-1.07-1.57A2.537 2.537 0 0034.55.63L13.51.77c-.64 0-1.26.25-1.73.69L9 4.06c-.51.48-.8 1.15-.81 1.85l-.14 19.31c0 .25.03.49.1.72l.01.05c.05.17.11.33.19.49l.23 4.12v.05l-.64 14.67c0 .07.01.14.03.21.1.27.4.4.67.3l35.2-12.8c.23-.08.37-.31.34-.55l-.62-5.26v-.07z"/><path d="M35.95 48.63H11.5c-1.41 0-2.56-1.14-2.56-2.56V4.09c0-1.41 1.14-2.56 2.56-2.56h22.99c.68 0 1.33.27 1.81.75l6.57 6.57c.48.48.75 1.13.75 1.81v29.55" class="st1"/><path d="M35.54 2.42v4.74c0 1.41 1.14 2.56 2.56 2.56l4.92.12" class="st1"/><path d="M12.78 37.16h24.45c1.42 0 2.56-1.15 2.56-2.56v-3.69c0-1.42-1.15-2.56-2.56-2.56H15.34c-1.42 0-2.56 1.15-2.56 2.56v11.05c0 1.52 1.24 2.76 2.76 2.76h13.27c1.52 0 2.76-1.24 2.76-2.76V28.35m8.21 5.08h-27m10.24 11.3V28.35m8.45 12.24H12.99" class="st2"/><circle cx="21.3" cy="16.29" r="8" class="st2"/><path d="M27.35 21.52l-6.05-5.23 2.05-7.65" class="st3"/><path d="M13.83 13.86l7.47 2.43 5.49-5.22m5.85 4.32h5.67m-5.67 2.25h5.67m-5.67 3.96h5.67m-5.67-1.89h5.67" class="st3"/></svg>