<svg xmlns="http://www.w3.org/2000/svg" id="Camada_3" x="0" y="0" version="1.1" viewBox="0 0 50 50" xml:space="preserve"><style>.st3{fill:#444}</style><path fill="#00c8e2" d="M48.46 16.5l.74 5.2L3.14 38.46 2.6 27.57l-.04-6.24L47.13 5.18 48 9.05z"/><path fill="#00dffc" d="M46.28 1.97l2.25 3.24L1.68 21.94 2.79 4.77l2.98-2.89 29.05-.17z"/><path fill="none" stroke="#444" stroke-linecap="round" stroke-linejoin="round" stroke-miterlimit="10" stroke-width="2.5" d="M25.07 48.29H5.6c-1.87 0-3.39-1.58-3.39-3.54V5.84c0-1.95 1.52-3.54 3.39-3.54h39.01C46.48 2.3 48 3.88 48 5.84v25.89"/><path d="M6.86 8.02h3.46l2.61 4.87 2.77-4.87H19l-4.15 6.39L19 21.33h-2.99l-3.08-5.31-2.99 5.31H6.86l4.31-6.7zM34.5 42.88V20.22c0-.72-.73-1.3-1.63-1.3h-3.79c-.9 0-1.63.58-1.63 1.3v1.71l.35.02c.9 0 1.53.89 1.61 1.65v19.35c-.03.27-.18.87-.8 1.1 0 0 .33.12.77.12h-.06 3.55c.9.01 1.63-.57 1.63-1.29z" class="st3"/><path d="M28.46 42.88V23.96c0-.72-.73-1.3-1.63-1.3h-3.79c-.9 0-1.63.58-1.63 1.3v.91c.9 0 1.53.75 1.69 1.43v16.11l-.02.51c-.02.18-.14.87-.84 1.13 0 0 .34.13.8.13h3.79c.9 0 1.63-.59 1.63-1.3z" class="st3"/><path d="M22.23 42.88V26.77c0-.72-.73-1.3-1.63-1.3h-3.89c-.9 0-1.63.58-1.63 1.3v16.11c0 .72.73 1.3 1.63 1.3h3.89c.9 0 1.63-.58 1.63-1.3zM36.97 5.82l-7.05 4.68h3.52l.07 7.77h.38c.74.04 1.43.98 1.51 1.52V42.2l.01.77c-.04.28-.2.85-.79 1.07 0 0 .36.12.81.12h3.44c.9 0 1.63-.58 1.63-1.3V10.5h3.52l-7.05-4.68z" class="st3"/></svg>