<svg xmlns="http://www.w3.org/2000/svg" id="Camada_3" x="0" y="0" version="1.1" viewBox="0 0 50 50" xml:space="preserve"><style>.st2,.st3{fill:none;stroke:#444;stroke-width:2.5;stroke-linecap:round;stroke-linejoin:round;stroke-miterlimit:10}.st3{stroke-width:.25}</style><path fill="#47b7af" d="M42.51 19.47l-.11 7.41v.07l.62 5.26c.03.24-.11.47-.34.55l-35.2 12.8a.519.519 0 01-.7-.51l.63-14.67v-.05l-.49-8.94c-.01-.23.13-.44.34-.52L39.49 9.2a.52.52 0 00.07-.95l-5.11-2.7 7.08 3.07c.18.08.3.25.31.44l.67 10.37v.04z"/><path fill="#5ebebb" d="M40.42 6.08l2.33 3.35c.38.55.53 1.22.42 1.88l-.53 3.17a2.55 2.55 0 01-1.66 1.99L10.31 27.43c-1.39.5-2.92-.29-3.32-1.71l-.01-.05c-.07-.23-.1-.47-.1-.72l.15-19.31c.01-.7.3-1.37.81-1.85l2.78-2.6A2.54 2.54 0 0112.35.5L33.38.36c.85-.01 1.65.41 2.13 1.12l1.07 1.57c.18.27.41.5.68.68l2.5 1.69c.25.18.48.4.66.66z"/><path d="M34.74 48.45H10.29c-1.41 0-2.56-1.14-2.56-2.56V3.91c0-1.41 1.14-2.56 2.56-2.56h22.99c.68 0 1.33.27 1.81.75l6.57 6.57c.48.48.75 1.13.75 1.81v29.55" class="st2"/><path d="M34.33 2.24v4.74c0 1.41 1.14 2.56 2.56 2.56l4.92.12" class="st2"/><path d="M30.36 22.14V8.53a2.76 2.76 0 00-2.76-2.76H14.33a2.76 2.76 0 00-2.76 2.76v11.05c0 1.41 1.14 2.56 2.56 2.56h21.89c1.41 0 2.56-1.14 2.56-2.56v-3.69c0-1.41-1.14-2.56-2.56-2.56H11.57m0 3.73h27m-16.76 5.08V5.76" class="st3"/><path d="M15.82 5.76l.04 7.57v8.81M11.62 8.01h18.69m-18.74 2.65h18.62" class="st3"/><path fill="#444" d="M34.28 44.93h.06c1 0 1.81-.82 1.81-1.81v-6.17c0-1-.82-1.81-1.81-1.81h-.06c-1 0-1.81.82-1.81 1.81v6.17c0 1 .81 1.81 1.81 1.81zm-6.16 0h.06c1 0 1.81-.82 1.81-1.81V33.9c0-1-.82-1.81-1.81-1.81h-.06c-1 0-1.81.82-1.81 1.81v9.22c0 1 .81 1.81 1.81 1.81zm-6.16 0h.06c1 0 1.81-.82 1.81-1.81V30.27c0-1-.82-1.81-1.81-1.81h-.06c-1 0-1.81.82-1.81 1.81v12.85c-.01 1 .81 1.81 1.81 1.81zm-6.17 0h.06c1 0 1.81-.82 1.81-1.81V26.93c0-1-.82-1.81-1.81-1.81h-.06c-1 0-1.81.82-1.81 1.81v16.19c0 1 .82 1.81 1.81 1.81z"/></svg>