<svg xmlns="http://www.w3.org/2000/svg" version="1" viewBox="0 0 50 50"><path fill="#DC5E82" d="M4.783 45.571L47 30.205V8.426A5.427 5.427 0 0041.574 3H8.426A5.426 5.426 0 003 8.426v33.148c0 1.589.695 3.004 1.783 3.997z"/><path fill="#F56991" d="M45.214 4.428A5.387 5.387 0 0041.574 3H8.426A5.426 5.426 0 003 8.426v11.366L45.214 4.428z"/><path fill="#031326" d="M25.001 48.25H8.426a6.684 6.684 0 01-6.676-6.676V8.426A6.684 6.684 0 018.426 1.75h33.148a6.684 6.684 0 016.676 6.676v21.777a1.25 1.25 0 01-2.5 0V8.426a4.18 4.18 0 00-4.176-4.176H8.426A4.18 4.18 0 004.25 8.426v33.148a4.18 4.18 0 004.176 4.176h16.575a1.25 1.25 0 010 2.5z"/><path fill="#031326" d="M41.558 43.86H8.443a2.305 2.305 0 01-2.303-2.303V8.443A2.305 2.305 0 018.443 6.14h33.115a2.305 2.305 0 012.303 2.303v33.115a2.307 2.307 0 01-2.303 2.302zM8.443 7.14c-.719 0-1.303.584-1.303 1.303v33.115c0 .719.584 1.303 1.303 1.303h33.115c.719 0 1.303-.584 1.303-1.303V8.443c0-.719-.584-1.303-1.303-1.303H8.443z"/><path fill="#031326" d="M16.484 33.5a2.501 2.501 0 01-1.595-4.427L19.815 25l-4.926-4.073a2.5 2.5 0 013.187-3.853l6.8 5.624c.688.569 1.084 1.409 1.084 2.303s-.396 1.733-1.084 2.304l-6.8 5.623a2.497 2.497 0 01-1.592.572zm5.206-6.949h.01-.01zM33.517 33.5h-6.001a2.5 2.5 0 110-5h6.001a2.5 2.5 0 110 5z"/></svg>