<svg xmlns="http://www.w3.org/2000/svg" viewBox="0 0 50 50"><path fill="#7ed0d6" d="M31.15 8.44l-1.54-4.13h-4.65l-6.36 8.5-4.38 10.02 20.26-7.21z"/><path fill="#71bac0" d="M7.7 30.26L1.44 43.51l13.35 1.16L47.86 32.9l-4.36-5.47-5.05-8.52-3.97-3.29-20.26 7.21z"/><path fill="none" stroke="#444" stroke-miterlimit="10" d="M19.74 12.81h13.21m-16.39 6.1h20.05l8.14 10.96H10.04m-4.03 5.5h41.85"/><path fill="none" stroke="#444" stroke-miterlimit="10" stroke-width=".25" d="M10.87 29.87l9.7-10.96m-4.68 10.96l9.71-10.96m-4.87 10.96l9.71-10.96m-4.86 10.96l9.71-10.96m-4.85 10.96l8.59-9.71m-3.57 9.71l5.97-6.75m-1.57 6.75l3.29-3.71"/><path fill="none" stroke="#444" stroke-linecap="round" stroke-linejoin="round" stroke-miterlimit="10" stroke-width="2.5" d="M48.48 35.74L28.8 4.75c-.93-1.46-3.07-1.46-3.99.01l-23 36.54c-.99 1.57.14 3.62 2 3.62h33.17"/><path fill="#444" d="M32.11 41.16c0 .43.38.79.84.79.46 0 .84-.35.84-.79 0-.43-.38-.78-.84-.78-.46 0-.84.35-.84.78zm.96-5.42h-.56c.09.03.18.05.28.05.1 0 .19-.02.28-.05zm-7.49 5.42c0 .43.38.79.84.79.46 0 .84-.35.84-.79 0-.43-.38-.78-.84-.78-.46 0-.84.35-.84.78zm3.19-3.08c0 .43.38.79.84.79.46 0 .84-.35.84-.79 0-.43-.38-.78-.84-.78-.47 0-.84.35-.84.78zm9.86 3.08c0 .43.38.79.84.79.46 0 .84-.35.84-.79 0-.43-.38-.78-.84-.78-.46 0-.84.35-.84.78zm-3.34-3.08c0 .43.38.79.84.79.47 0 .84-.35.84-.79 0-.43-.38-.78-.84-.78-.46 0-.84.35-.84.78zm6.52 0c0 .43.38.79.84.79.46 0 .84-.35.84-.79 0-.43-.38-.78-.84-.78-.46 0-.84.35-.84.78zm4.3-2.34h-.56a.821.821 0 00.56 0zm-19.57 0h-.56c.09.03.18.05.28.05.1 0 .19-.02.28-.05zm13.05 0h-.56c.09.03.18.05.28.05.1 0 .19-.02.28-.05zm-26.09 0h-.56c.09.03.18.05.28.05.09 0 .19-.02.28-.05zm-7.49 5.42c0 .43.38.79.84.79.46 0 .84-.35.84-.79 0-.43-.38-.78-.84-.78-.46 0-.84.35-.84.78zm3.18-3.08c0 .43.38.79.84.79.46 0 .84-.35.84-.79 0-.43-.38-.78-.84-.78-.46 0-.84.35-.84.78zm9.87 3.08c0 .43.38.79.84.79.46 0 .84-.35.84-.79 0-.43-.38-.78-.84-.78-.46 0-.84.35-.84.78zm-6.52 0c0 .43.38.79.84.79.47 0 .84-.35.84-.79 0-.43-.38-.78-.84-.78-.47 0-.84.35-.84.78zm7.48-5.42h-.56c.09.03.18.05.28.05.1 0 .19-.02.28-.05zm2.22 2.34c0 .43.38.79.84.79.46 0 .84-.35.84-.79 0-.43-.38-.78-.84-.78-.46 0-.84.35-.84.78zm-6.52 0c0 .43.38.79.84.79.46 0 .84-.35.84-.79 0-.43-.38-.78-.84-.78-.47 0-.84.35-.84.78z"/></svg>