<svg xmlns="http://www.w3.org/2000/svg" viewBox="0 0 50 50"><path fill="#dc5e82" d="M48.8 13.2c0-1.6-2.9-4.7-4.5-5.1l-24.4 3L.6 23.9 2.4 36l3.6.7 42.8-15.2v-8.3z"/><path fill="#f56991" d="M7.3 7.6c-.3 0-.7-.1-1-.1-2.1 0-3.8 1.6-3.8 3.8V23L44.3 8.1l-37-.5z"/><path fill="#444" d="M12.6 44c-1.5 0-2.7-1.2-2.7-2.7V34c0-1.5 1.2-2.7 2.7-2.7s2.7 1.2 2.7 2.7v7.3c0 1.5-1.2 2.7-2.7 2.7zm10.9-3.4V25.5c0-1.8-1.2-3.3-2.7-3.3-1.5 0-2.7 1.5-2.7 3.3v15.2c0 1.8 1.2 3.3 2.7 3.3 1.4-.1 2.7-1.6 2.7-3.4zm8.7 1.3V28.2c0-1.2-1.2-2.1-2.7-2.1-1.5 0-2.7.9-2.7 2.1V42c0 1.2 1.2 2.1 2.7 2.1 1.5-.1 2.7-1 2.7-2.2zm8.4-.5V18.8c0-1.5-1.2-2.7-2.7-2.7-1.5 0-2.7 1.2-2.7 2.7v22.6c0 1.5 1.2 2.7 2.7 2.7 1.5-.1 2.7-1.3 2.7-2.7z"/><path fill="none" stroke="#444" stroke-linecap="round" stroke-linejoin="round" stroke-miterlimit="10" stroke-width="2" d="M7.3 37.8s-6.1.4-6.1-5.4V13.2S1 8.1 6.5 8.1h36.7s5.6-.6 5.6 5.1v20.7s1 4.6-6 4.6"/></svg>