<svg xmlns="http://www.w3.org/2000/svg" id="Layer_1" x="0" y="0" version="1.1" viewBox="0 0 50 50" xml:space="preserve"><style>.st2{fill:#031326}</style><path fill="#b9d7d9" d="M22.5 5.7C12.3 5.7 4 14 4 24.3V26l33.7-12.3c-3.3-4.8-8.9-8-15.2-8z"/><path fill="#a6c1c2" d="M41 24.3c0-3.9-1.2-7.5-3.3-10.5L4 26c.4 4.6 2.5 8.7 5.7 11.6l31.2-11.3c.1-.6.1-1.3.1-2z"/><path d="M16.5 7.2c-.3-.7-1.1-1-1.8-.7-1.5.6-2.9 1.5-4.2 2.5-5.1 3.8-8 9.6-8 16 0 5 1.8 9.7 5.1 13.4.3.3.6.4 1 .4.3 0 .6-.1.9-.3.6-.5.6-1.3.1-1.9-2.9-3.2-4.4-7.3-4.4-11.6 0-5.5 2.5-10.5 6.9-13.8 1.1-.9 2.4-1.6 3.7-2.1.7-.4 1-1.2.7-1.9z" class="st2"/><path d="M22.4 40.2c-5.3 0-10.2-2.7-13-7.2-.1-.1 0-.3.1-.4.1-.1.3 0 .4.1 2.7 4.4 7.4 7 12.5 7 8.1 0 14.7-6.6 14.7-14.7 0-7.2-5.2-13.4-12.3-14.5-.1 0-.2-.2-.2-.3 0-.1.2-.2.3-.2 7.4 1.2 12.8 7.5 12.8 15.1 0 8.2-6.9 15.1-15.3 15.1zm23.1-.5c-.5-.5-1.4-.5-1.9 0s-.5 1.4 0 1.9l.8.8h-8.9c-.7 0-1.3.6-1.3 1.3s.6 1.3 1.3 1.3h8.7l-.8.8c-.5.5-.5 1.4 0 1.9.3.3.6.4 1 .4s.7-.1 1-.4l4.1-4.1-4-3.9z" class="st2"/><path d="M40.5 16C37.1 9.2 30.2 4.9 22.6 4.9l.8-.8c.5-.5.5-1.4 0-1.9s-1.4-.5-1.9 0l-3.9 3.9 4.1 4.1c.3.3.6.4 1 .4.3 0 .7-.1 1-.4.5-.5.5-1.4 0-1.9l-.8-.8c6.6.1 12.4 3.7 15.4 9.6 1.2 2.4 1.8 5 1.8 7.7 0 2.5-.5 4.8-1.5 7.1-3 6.1-9 10.1-15.6 10.3H1.9c-.7 0-1.3.6-1.3 1.3s.6 1.3 1.3 1.3H23c7.7-.2 14.6-4.8 17.8-11.8 1.2-2.6 1.7-5.3 1.7-8.2.1-3-.6-6-2-8.8z" class="st2"/><path d="M19.6 9.9c-4.5.8-8.5 3.8-10.7 7.9l-.3-1.4c0-.1-.2-.2-.3-.2-.1 0-.2.2-.2.3l.6 2.3 2.2-.5c.1 0 .2-.2.2-.3 0-.1-.2-.2-.3-.2l-1.4.2c2.1-3.9 5.9-6.8 10.3-7.6.1 0 .2-.2.2-.3 0-.1-.1-.2-.3-.2zm2.9 20.7c-3.8 0-6.9-3.1-6.9-6.9 0-3.8 3.1-6.9 6.9-6.9s6.9 3.1 6.9 6.9c0 3.8-3.1 6.9-6.9 6.9zm0-12.7c-3.2 0-5.8 2.6-5.8 5.8 0 3.2 2.6 5.8 5.8 5.8s5.8-2.6 5.8-5.8c0-3.2-2.6-5.8-5.8-5.8z" class="st2"/><path d="M22.5 20.1c-2 0-3.7 1.6-3.7 3.7 0 2 1.6 3.7 3.7 3.7 2 0 3.7-1.6 3.7-3.7s-1.6-3.7-3.7-3.7zm1.8 3.1l-2.2 2-1.3-1.4c-.2-.2-.2-.4 0-.6.2-.2.4-.2.6 0l.8.8 1.7-1.5c.2-.1.4-.1.6 0 0 .3 0 .6-.2.7z" class="st2"/></svg>