<svg xmlns="http://www.w3.org/2000/svg" viewBox="0 0 50 50"><switch><g><path fill="#70c6df" d="M45.8 12.3L7.5 26.2c2.6 1.8 3.9 2.6 4.9 3.3l1.8 7.7 27.3-9.9 4.3-15z"/><path fill="#7dddfa" d="M47.7 6.6c.1-.5 0-1-.3-1.3-.3-.3-3.1 1.1-3.6 1.3h-.1L3.1 21c-1 .4-1.2 1.7-.3 2.4 1.8 1.2 3.3 2.2 4.4 3l38.9-14.1 1.6-5.7z"/><path fill="#031326" d="M48.7 3.9c-.9-.9-2.1-.3-4.2.7l-.6.3h-.1L2.2 19.7c-.9.4-1.5 1.2-1.6 2.1-.1 1 .3 1.9 1.1 2.5l9.2 6.1 3.4 14.1.1.4c.3.7.9 1.3 1.6 1.5.2.1.4.1.7.1.8 0 1.6-.4 2.3-1l5.8-5.8 9.7 6.5.1.1c.8.4 1.7.5 2.4.2s1.3-.9 1.5-1.7l1.3-4.4c.2-.7-.2-1.4-.9-1.5-.7-.2-1.4.2-1.5.9L36 44h-.2l-11.3-7.6-6.2 6.2 1.8-6.6.7-.8c1.2-1.4 1.9-2.1 25-28.1l.6-.7c.1-.1.3-.1.4-.2L40.6 28c-.2.7.2 1.4.9 1.5.7.2 1.4-.2 1.5-.9l6.4-22.3v-.2c.1-.7-.1-1.6-.7-2.2zM13.3 29.7L42.2 9.6 15 36.8l-1.7-7.1zM3.2 22.2c-.1 0-.1-.1-.1-.2v-.1L44.2 7.3 13.1 28.9v-.1l-9.9-6.6zm16.3 13.4l-2.3 8.1c-.2.2-.4.3-.4.3v-.3l-.1-.1-1.4-5.9 21.5-21.5c-5.5 6.2-9.1 10.3-11.4 12.9-3.9 4.4-4.4 5-5.1 5.7l-.8.8z"/></g></switch></svg>