<svg xmlns="http://www.w3.org/2000/svg" id="Camada_3" x="0" y="0" version="1.1" viewBox="0 0 50 50" xml:space="preserve"><style>.st4{stroke-linecap:round;stroke-linejoin:round}.st4,.st6{fill:none;stroke:#444;stroke-miterlimit:10}</style><path fill="#fcc34f" d="M3.73 46.77L2.64 22.51 38.72 11.7l-.1 12.74 6.54-8.4 2.19 1.58-11.1 17.58"/><path fill="#fdcf72" d="M38.72 3.91l-2.13-2.13-33.33.62.39 21.8 35.71-12.73z"/><path fill="none" stroke="#444" stroke-linecap="round" stroke-linejoin="round" stroke-miterlimit="10" stroke-width="2.5" d="M30.63 48.22H4.77c-1.18 0-2.13-.95-2.13-2.13V3.91c0-1.18.95-2.13 2.13-2.13H36.6c1.18 0 2.13.95 2.13 2.13v17.86"/><path fill="none" stroke="#444" stroke-linecap="round" stroke-miterlimit="10" stroke-width=".25" d="M23.36 8.48h9.44m-9.44 4.57h9.44m-9.44 4.57h9.44M8.07 22.51h24.32M8.15 26.82H32.8M8.15 31.38h22.99M8.15 35.95h19.42M8.15 40.52h16.16"/><path d="M17.07 16.81h-9.7c-.32 0-.59-.31-.59-.69V9.98c0-.38.26-.69.59-.69h9.7c.32 0 .59.31.59.69v6.14c0 .38-.27.69-.59.69zm3.65-.81l-2.87-1.74a.217.217 0 01-.14-.2V12.1c0-.09.05-.17.14-.2l2.87-1.74V16z" class="st4"/><path fill="none" stroke="#444" stroke-linecap="round" stroke-linejoin="round" stroke-miterlimit="10" stroke-width=".5" d="M11.12 15.11l2.82-2.01-2.82-2.12z"/><path d="M46.54 16.3c-.85-.56-2.01-.31-2.58.54l-14.2 21.43c-.06.1-.12.2-.16.3l-2.01 6.2c-.05.12.02.16.11.07l4.94-4.26c.08-.08.15-.17.22-.27l14.2-21.44c.56-.85.33-2.01-.52-2.57zm-4.21 3.03l3.03 2.01" class="st6"/><path fill="none" stroke="#444" stroke-miterlimit="10" stroke-width=".5" d="M28.67 41.45l1.69 1.11m13.28-25.13l3.04 1.99M31.29 39.44l12.53-19.11"/><path d="M29.69 38.39l3.09 2.03" class="st6"/><path d="M37.97 25.72v-7.49m.99 5.97v-7.44" class="st4"/></svg>