<svg xmlns="http://www.w3.org/2000/svg" version="1" viewBox="0 0 50 50"><path fill="#E589EF" d="M9.724 46.417h17.199l19.494-7.095V9.723a6.14 6.14 0 00-6.14-6.14H9.724a6.14 6.14 0 00-6.14 6.14v30.553a6.139 6.139 0 006.14 6.141z"/><path fill="#F799FF" d="M37.85 3.583H9.723a6.14 6.14 0 00-6.14 6.14v6.332L37.85 3.583z"/><g fill="#031326"><path d="M21.818 31.849l9.683-5.59a1.455 1.455 0 000-2.519l-9.683-5.59a1.454 1.454 0 00-2.181 1.259v11.18a1.454 1.454 0 002.181 1.26z"/><path d="M40.276 2.333H9.723c-4.075 0-7.39 3.315-7.39 7.39v30.553c0 4.075 3.315 7.391 7.39 7.391l27.22.014c.69 0 1.25-.56 1.25-1.25V4.834h2.083a4.896 4.896 0 014.89 4.89v29.598a1.25 1.25 0 002.5 0V9.724c0-4.075-3.315-7.391-7.39-7.391zM4.833 40.276V9.724a4.896 4.896 0 014.89-4.89h2.083v40.333H9.723a4.896 4.896 0 01-4.89-4.891zm32.86 4.891H12.307V4.833h25.387v40.334z"/><path d="M10.76 5.857h-.58a4.388 4.388 0 00-4.379 4.388v.579h4.958V5.857zM5.799 39.764a4.388 4.388 0 004.388 4.379h.579v-4.958H5.799v.579zm0-11.688h4.967v4.967H5.799zm0-11.11h4.967v4.967H5.799zM39.734 5.857h-.579v4.967h4.958v-.579a4.388 4.388 0 00-4.379-4.388zm-.586 38.286h.579a4.389 4.389 0 004.388-4.379v-.579h-4.967v4.958zm0-16.067h4.967v4.967h-4.967zm0-11.11h4.967v4.967h-4.967z"/></g></svg>