<svg xmlns="http://www.w3.org/2000/svg" fill="none" viewBox="0 0 50 44"><path fill="#FDCF72" d="M2.43 10.29l19.55-7.12L25 5.08l5.51-3.13h8.74l4.84 3.43 3.68 5.83L6.85 26.09l-2.6-3.02-2.33-5.61"/><path fill="#FCC34F" d="M16.45 35.94l-6.03-5.58-7-8.85L45.31 6.28l2.96 5.37-.5 7.63-4.89 7.12"/><path stroke="#444" stroke-linecap="round" stroke-linejoin="round" stroke-miterlimit="10" stroke-width="2.5" d="M41.64 27.86c7.04-8.01 6.52-11.58 6.56-12.03.81-7.84-5.52-14.26-12.54-14.26C28.63 1.57 25 5.08 25 5.08s-3.63-3.51-10.66-3.51C7.32 1.57.99 7.99 1.8 15.83c.05.52-.67 5.35 10.91 16.56 2.64 2.55 4.71 4.46 6.34 5.89 5.53 4.84 5.95 4.11 5.95 4.11s.64.26 4.67-2.95c1.53-1.22 3.55-2.95 6.21-5.39"/><path stroke="#444" stroke-linecap="round" stroke-linejoin="round" stroke-miterlimit="10" d="M8.97 24.53l2.01-.04 1.77-9.48 2.59 12.95 2.84-19.11 2.74 14.92 1.71-4.86 1.95 9.44 1.61-4.17h1.37l1.1-3.45c.28-.87.07-1.85-.55-2.48a6.76 6.76 0 01-1.92-4.69c-.02-3.75 3.01-6.8 6.76-6.82 3.75-.02 6.8 3 6.82 6.75 0 .07 0 .13-.01.19h.01v.78l1.1 1.54c.24.33.2.82-.1 1.09l-1.01.92-.31 2.66c0 .86-.9 1.34-1.67 1.35h-.82c-1.93.01-2.36-.48-3.95-1.9m5.04-5.65h-.78"/><path stroke="#444" stroke-linecap="round" stroke-linejoin="round" stroke-miterlimit="10" d="M34.68 23.19c-.01.01.44-1.18.43-1.17l-.89 2.49h2.26l1.32 3.07 1.83-3.07h1.4"/><path fill="#444" d="M33.38 6.84s-1.48-.11-1.59 5.17h-1.32S30 8.33 31.71 6.74l1.67.1z"/><path stroke="#444" stroke-linecap="round" stroke-linejoin="round" stroke-miterlimit="10" d="M32.02 13.82c0-.53-.45-.95-1-.95s-.99.43-.99.96v.63c0 .88.75 1.58 1.66 1.58h.33"/><path stroke="#444" stroke-linecap="round" stroke-linejoin="round" stroke-miterlimit="10" d="M29.37 12.07l.83-.29h1.92l.73.3.25.8v3.57l-.24.81-.83.29h-1.91l-.73-.3-.26-.8v-3.57l.24-.81z"/><path fill="#444" d="M29.37 12.07l.83-.29h1.92l.4.06.33.24.19.36.06.44v3.57l-.24.81-.83.29h-1.91l-.73-.3-.26-.8v-3.57l.24-.81z"/></svg>