<svg xmlns="http://www.w3.org/2000/svg" id="Camada_3" x="0" y="0" version="1.1" viewBox="0 0 50 50" xml:space="preserve"><style>.st5{fill:#444}</style><path fill="#bf94f7" d="M46.88 5.06H3.12c-1.18 0-2.13.95-2.13 2.13v17.27L49.01 7.37v-.19c0-1.17-.96-2.12-2.13-2.12z"/><path fill="#a475ef" d="M.99 24.45l1.75 20.53 12.18.42 34.09-12.13V7.37z"/><path fill="none" stroke="#444" stroke-miterlimit="10" stroke-width=".5" d="M48.79 14.03H1.6v30.66"/><path fill="none" stroke="#444" stroke-linecap="round" stroke-linejoin="round" stroke-miterlimit="10" stroke-width=".5" d="M1.6 29.36h47.19M25.2 14.03v15.33M1.6 31.73h47.19M1.6 42.58h31.96M16.31 31.73v10.85m1.45-10.85v10.85M1.6 33.56h8.27c.79 0 1.44.64 1.44 1.44v7.59m6.45-8.72h31.03m-25.51-2.14v10.53"/><path fill="none" stroke="#444" stroke-linecap="round" stroke-linejoin="round" stroke-miterlimit="10" stroke-width="2.5" d="M39.21 45.94l-27.97-.05h-6.2c-1.85 0-3.37-1.5-3.37-3.37l-.06-27.77m0-.28V8.42c0-1.86 1.51-3.37 3.37-3.37h40.44c1.86 0 3.37 1.51 3.37 3.37v31.43M1.94 14.03h46.85"/><circle cx="39.3" cy="9.61" r="1.46" class="st5"/><circle cx="43.47" cy="9.61" r="1.46" class="st5"/><circle cx="35.02" cy="9.61" r="1.46" class="st5"/><path fill="#444" d="M40.88 23.41l-5.98 3.34c-.73.41-1.63-.12-1.63-.96v-6.68c0-.84.9-1.36 1.63-.96l5.98 3.34c.75.42.75 1.5 0 1.92z"/></svg>