<svg xmlns="http://www.w3.org/2000/svg" viewBox="0 0 50 50"><path fill="#bf94f7" d="M46.7 2.87H2.65v17.8L46.7 5z"/><path fill="#a475ef" d="M2.79 20.26L2 44.3l44.84-15.95V4.59z"/><path fill="#444" d="M24.68 9.06c-4.04 0-7.31 3.27-7.31 7.31 0 4.04 3.27 7.31 7.31 7.31 4.04 0 7.31-3.27 7.31-7.31 0-4.03-3.27-7.31-7.31-7.31zm-1.96 10.91v-7.18c.33.19 5.88 3.39 6.23 3.59-.34.2-5.88 3.39-6.23 3.59z"/><path fill="none" stroke="#444" stroke-linecap="round" stroke-linejoin="round" stroke-miterlimit="10" stroke-width=".5" d="M21.39 31.07h17.36m-2.42-1.58v3.16"/><path fill="none" stroke="#444" stroke-linecap="round" stroke-miterlimit="10" stroke-width="2.5" d="M34.01 38.32H20.95h1.45s-2.23 2.68-3.58 3.61-3.71 3.26-3.71 3.26-4.71 4.67-9.87 1.42c-3.09-1.95-3.26-3.73-3.42-5.18-.06-.58.11-1.65.23-2.22l.42-2.09.07-1.18L2.3 3.36c0-.92.75-1.67 1.67-1.67h41.4c.93 0 1.68.75 1.68 1.68v27.71"/><path fill="none" stroke="#444" stroke-miterlimit="10" stroke-width=".25" d="M3.17 39.17c.14-.51 1.53-5.71 1.51-5.64.33-1.24 1.79-1.81 2.83-1 .43-1.6 2.43-1.71 3.21-.47l.09-.34c.42-1.55 2.41-1.87 3.25-.55l1.21-4.52c.25-.93 1.23-1.56 2.17-1.33.97.24 1.55 1.23 1.29 2.19L15.94 37.9s3.57-3.04 4.8-.91c.7 1.21-.6 2.51-2.08 3.62-1.47 1.09-2.85 2.29-4.18 3.55-1.49 1.42-3.94 2.94-6.45 2.27.01.02-6.44-1.37-4.86-7.26zm10.21-5.46l.68-2.54-.68 2.54zm-3.34.9l.69-2.56-.69 2.56zm-3.32.89l.8-2.97-.8 2.97z"/><path fill="none" stroke="#444" stroke-linecap="round" stroke-linejoin="round" stroke-miterlimit="10" stroke-width=".25" d="M20.14 39.49l.95-.57-.36.13.32-.73L20 39.61c.2-.49.95-.61.95-.61"/></svg>