<svg xmlns="http://www.w3.org/2000/svg" id="Layer_1" x="0" y="0" version="1.1" viewBox="0 0 50 50" xml:space="preserve"><style>.st3{fill:#031326;stroke:#031326;stroke-width:.3;stroke-miterlimit:10}</style><path fill="#a475ef" d="M47.3 26.9l.3 3.8L2.3 47.2l.4-8.2.5-4.7 45.1-16.4-.8 3.4z"/><path fill="#bf94f7" d="M47.6 11.9l-.7 6.9L2.7 34.9l.2-8.8.5-4L47.9 5.9z"/><path fill="none" stroke="#031326" stroke-linecap="round" stroke-linejoin="round" stroke-miterlimit="10" stroke-width="2.5" d="M33.1 48H2.4V2.6h45.8v35.2"/><path d="M22.7 38.8l-.1.5.1-.5c-.3-.1-.5.1-.6.4-.1.3.1.5.4.6h.1c.2 0 .4-.2.5-.4.1-.3-.1-.5-.4-.6zm3.8.2v.5-.5c-.3 0-.5.3-.4.6 0 .3.2.5.5.5h.1c.3 0 .5-.3.4-.6 0-.4-.3-.6-.6-.5zm-1.9 0c-.3 0-.5.2-.5.5s.2.5.5.5.5-.2.5-.5c0-.2-.2-.4-.5-.5zm-3.7-.7c-.3-.1-.6 0-.6.3-.1.3 0 .5.3.6h.2c.2 0 .4-.1.5-.3 0-.2-.2-.5-.4-.6zm7.5.3l.1.5-.1-.5c-.3.1-.4.3-.4.6.1.2.3.4.5.4h.1c.3-.1.4-.3.4-.6s-.3-.4-.6-.4zm1.9-.6l.2.5-.2-.5c-.3.1-.4.4-.3.7.1.2.3.3.5.3h.2c.3-.1.4-.4.3-.7-.2-.3-.5-.4-.7-.3zM19 15.1c.1 0 .2 0 .2-.1.2-.1.3-.4.2-.7-.1-.2-.4-.3-.7-.2-.2.1-.3.4-.2.7.1.3.3.3.5.3zm-5.8 5.6c.1 0 .2.1.2.1.2 0 .4-.1.4-.3.1-.2 0-.5-.2-.7-.2-.1-.5 0-.7.2-.1.3 0 .6.3.7zm-.1 1.6c-.1.2-.3.4-.5.4h-.2c-.1 0-.3-.2-.3-.3v-.3c.1-.3.4-.4.6-.3.2 0 .3.2.3.3.1 0 .1.1.1.2zm1-3.3c.1.1.2.1.3.1.2 0 .3-.1.4-.2.2-.2.1-.5-.1-.7-.2-.2-.5-.1-.7.1l.4.3-.4-.3c-.1.2-.1.5.1.7zm3.1-2.8c.1 0 .2 0 .3-.1.2-.2.3-.5.1-.7-.2-.2-.5-.3-.7-.1-.2.2-.3.5-.1.7.1.2.3.2.4.2zm-4.5 14.3s-.1.1 0 0h-.2c-.2 0-.4-.1-.5-.3-.1-.3.1-.5.3-.6.3-.1.5.1.6.3.1.3 0 .5-.2.6zm3-12.9c.1 0 .3-.1.4-.2.2-.2.2-.5 0-.7-.2-.2-.5-.2-.7 0-.2.2-.2.5 0 .7.1.1.2.2.3.2zM12.6 28c0 .3-.1.5-.4.6h-.1c-.2 0-.5-.2-.5-.4 0-.3.2-.5.4-.6.3 0 .5.2.6.4zm-.2-1.9c0 .3-.2.5-.5.5s-.5-.2-.5-.5.2-.5.5-.5.5.2.5.5zm.2-1.9c0 .3-.3.4-.5.4H12c-.3 0-.5-.3-.4-.6 0-.3.3-.5.6-.4.3 0 .5.3.4.6zm23.8-4.9c-.1.1-.2.1-.3.1-.2 0-.3-.1-.4-.2-.2-.2-.1-.5.1-.7.2-.2.5-.1.7.1.2.2.1.5-.1.7zm2.4 5.3c0 .3-.2.5-.4.6h-.1c-.2 0-.5-.2-.5-.4 0-.3.2-.5.4-.6.3 0 .6.2.6.4zm-.8-1.5h-.1c-.2 0-.4-.1-.5-.4-.1-.3.1-.5.3-.6.3-.1.5.1.6.3.1.4 0 .6-.3.7zm-.6-2c-.1 0-.1.1-.2.1-.2 0-.4-.1-.5-.3-.1-.3 0-.6.2-.7.3-.1.6 0 .7.2.1.3 0 .6-.2.7zm-2.3-3.5c-.1.1-.2.1-.3.1-.1 0-.3-.1-.4-.2-.2-.2-.2-.5 0-.7.2-.2.5-.2.7 0 .2.3.2.6 0 .8zm3.8 9.2c0 .3-.2.5-.5.5s-.5-.2-.5-.5.2-.5.5-.5.5.2.5.5zm-7.7-11.7c.1 0 .2.1.2.1.2 0 .4-.1.4-.3.1-.2 0-.5-.2-.7l-.2.4.2-.4c-.2-.1-.5 0-.7.2 0 .3.1.6.3.7zm2.4 1c-.1.1-.2.2-.4.2-.1 0-.2 0-.3-.1-.2-.2-.3-.5-.1-.7.2-.2.5-.3.7-.1.2.2.3.5.1.7z" class="st3"/><path d="M42.6 33.9l-2.3-2.4c-.2-.2-.5-.3-.8-.3-.3 0-.6.1-.7.3l-.1.1-.2-.2c-.2-.2-.3-.4-.4-.7v-.1c-.1-.2-.1-.4-.1-.6v-.7h.2c.2 0 .5-.2.5-.4.1-.3-.1-.5-.4-.6H38c0-.7-.3-1.4-.8-1.9l-2.3-2.3c-.5-.5-1.2-.8-1.9-.8-.6 0-1.1.2-1.5.5l-.1-.1-.1-.1V18c0-.7-.3-1.4-.7-1.9-.1-.1-.2-.2-.2-.3-.2-.3-.3-.7-.3-1v-.4c.6 0 1.1-.5 1.1-1.1V9.9c0-.6-.5-1.1-1.1-1.1h-9.4c-.6 0-1.1.5-1.1 1.1v3.3c0 .6.5 1.1 1.1 1.1h.1v.2c0 .5-.2 1-.6 1.4l-1 1c-.5.5-.8 1.3-.8 2v3.2c0 .4.1.9.3 1.2-.7 0-1.3.3-1.8.8l-2.3 2.3c-.5.5-.8 1.2-.8 2v1.8c0 .1 0 .2-.1.3-.1.3-.3.6-.5.9l-.2.2-.1-.1c-.2-.2-.5-.3-.7-.3-.3 0-.6.1-.8.3L9 33.9c-.4.4-.4 1.1 0 1.5l.8.8c.2.2.5.2.7 0 .2-.2.2-.5 0-.7l-.8-.8v-.1l2.3-2.4h.1l.4.4 4.9 4.9 1.3 1.3v.1l-2.3 2.4h-.1l-2.5-2.5-1.9-1.9c-.2-.2-.5-.2-.7 0-.2.2-.2.5 0 .7l1.6 1.6 2.8 2.8c.2.2.5.3.8.3.3 0 .6-.1.7-.3l2.4-2.4c.4-.4.4-1.1 0-1.5l.3-.3c.3-.3.8-.6 1.3-.6.7 0 1.3-.3 1.8-.8l1.4-1.4.8-.8c.6-.2 1.1-.7 1.2-1.3.2.1.5.2.7.2.9 0 1.7-.8 1.7-1.7v-1.2c.2.1.5.2.7.2.9 0 1.7-.8 1.7-1.7v-3.5l1.5 1.5c.1.1.2.2.4.2s.3 0 .4-.1c.2-.2.2-.5 0-.7l-1.3-1.3c.2-.1.5-.2.8-.2.5 0 .9.2 1.2.5l2.3 2.3c.3.3.5.8.5 1.3v1.7c.1.6.4 1.3.9 1.7l.2.2-.8.7-4.4 4.4-.2-.3c-.5-.5-1.2-.8-1.9-.9-.4 0-.9-.2-1.2-.5l-1.6-1.6c-.2-.2-.5-.2-.7 0-.2.2-.2.5 0 .7l1.6 1.6c.5.5 1.1.8 1.8.8.5 0 1 .2 1.3.6l.2.2c-.4.4-.4 1.1 0 1.5l2.4 2.4c.2.2.5.3.7.3.3 0 .6-.1.8-.3l6.6-6.6c.4-.3.4-1 0-1.4zm-21.7 2.3c-.6 0-1.1.2-1.5.5-.1.1-.3.2-.4.3l-.3.3-.3-.3-4.8-4.9.2-.2c.5-.5.9-1.2.9-2v-1.5c0-.5.2-1 .5-1.3l2.3-2.3c.3-.3.8-.5 1.2-.5.3 0 .6.1.8.2L18.2 26c-.2.2-.2.5 0 .7.1.1.2.1.4.1.1 0 .3 0 .4-.1l1.5-1.5v6.3c0 .9.8 1.7 1.7 1.7.3 0 .5-.1.7-.2.1.5.4.9.9 1.2l-1.6 1.6-.2.2c-.3.1-.7.2-1.1.2zm9.2-7.6c0 .4-.3.7-.7.7s-.7-.3-.7-.7V23c0-.3-.2-.5-.5-.5s-.5.2-.5.5v8.3c0 .4-.3.7-.7.7-.3 0-.6-.3-.7-.6V23c0-.3-.2-.5-.5-.5-.1 0-.2 0-.2.1-.2.1-.3.3-.3.4v9.5c0 .4-.3.7-.7.7-.4 0-.7-.3-.7-.7V23c0-.3-.2-.5-.5-.5s-.5.2-.5.5v8.4c0 .4-.3.7-.7.7-.4 0-.7-.3-.7-.7v-9.3c0-.3-.2-.5-.5-.5s-.5.2-.5.5v1.7s-.1 0-.1.1c-.6-.2-1.1-.9-1.1-1.6V19c0-.5.2-1 .5-1.3l1-1c.6-.6.9-1.3.9-2.1v-.2h1c.3 0 .5-.2.5-.5s-.2-.5-.5-.5h-2.1s-.1 0-.1-.1V9.9s0-.1.1-.1H30s.1 0 .1.1v3.3s0 .1-.1.1h-5c-.3 0-.5.2-.5.5s.2.5.5.5h3.9v.4c0 .5.1.9.3 1.4.1.2.3.4.4.6.3.3.5.8.5 1.2v10.7zm11.8 6.1l-6.6 6.6-2.3-2.4v-.1l.4-.4 3.8-3.8 2.4-2.4h.1l2.2 2.5c0-.1 0-.1 0 0z" class="st3"/></svg>