<svg xmlns="http://www.w3.org/2000/svg" id="Layer_1" x="0" y="0" version="1.1" viewBox="0 0 50 50" xml:space="preserve"><style>.st3{fill:#424242}.st4{fill:none;stroke:#494949;stroke-linecap:round;stroke-linejoin:round;stroke-miterlimit:10}</style><path fill="#a475ef" d="M48.4 13.8l.7 5.4L1.8 36.4l-.6-11.2v-6.4l41.4-15 5.3 2.3z"/><path fill="#bf94f7" d="M46.7 3.9L49 7.2.9 24.4 2 6.7l3.1-2.9 29.8-.2z"/><path fill="none" stroke="#444" stroke-linecap="round" stroke-linejoin="round" stroke-miterlimit="10" stroke-width="2.5" d="M16.3 46.4H4.6c-1.7 0-3.1-1.4-3.1-3.1V7.1C1.5 5.4 2.9 4 4.6 4h40.5c1.7 0 3.1 1.4 3.1 3.1v21.6"/><circle cx="8.7" cy="10.2" r="1.6" class="st3"/><circle cx="13.8" cy="10.2" r="1.6" class="st3"/><circle cx="19" cy="10.2" r="1.6" class="st3"/><g id="_x33_D_3_"><path d="M15.3 38V25.5c0-.8.7-1.5 1.5-1.5m26.7 14V25.5c0-.8-.7-1.5-1.5-1.5m-.5 20.1H17.3c-1.9 0-3.5-1.6-3.5-3.5h12.6v1h6v-1H45c0 1.9-1.6 3.5-3.5 3.5zM37 28.5l2.5 1.5-10.1 6-10-6 2.5-1.5m-2.5-10.1l10 6.1 10.1-6.1-10.1-5.5-10 5.5m20.1 0V30" class="st4"/><path d="M29.4 18.4l-5.5 3v6.1l5.5 3.5 5.5-3.5v-6.1zm0 6.1V36m0-23.1v2.5m-10 3V30" class="st4"/></g></svg>