<svg xmlns="http://www.w3.org/2000/svg" id="Layer_1" x="0" y="0" version="1.1" viewBox="0 0 50 50" xml:space="preserve"><style>.st2{fill:#031326}</style><path fill="#fcc34f" d="M37.9 12.8v9.4L19.3 29c-1.7-1.9-2.7-4.3-2.7-7v-9.1c0-5.9 4.8-10.6 10.6-10.6 2.9 0 5.6 1.2 7.5 3.1.9.9 1.7 2.1 2.2 3.3.7 1.2 1 2.6 1 4.1z"/><path fill="#fdcf72" d="M37 8.6L16.6 16v-3.2c0-5.9 4.8-10.6 10.6-10.6 2.9 0 5.6 1.2 7.5 3.1 1 1 1.8 2.1 2.3 3.3z"/><path d="M22.7 14.4h-6.1c-.4 0-.8-.3-.8-.8s.3-.8.8-.8h6.1c.4 0 .8.3.8.8s-.4.8-.8.8zm0 7.6h-6.1c-.4 0-.8-.3-.8-.8s.3-.8.8-.8h6.1c.4 0 .8.3.8.8s-.4.8-.8.8zm0-4h-6.1c-.4 0-.8-.3-.8-.8s.3-.8.8-.8h6.1c.4 0 .8.3.8.8s-.4.8-.8.8zm15.2-3.6h-6.1c-.4 0-.8-.3-.8-.8s.3-.8.8-.8h6.1c.4 0 .8.3.8.8s-.4.8-.8.8zm0 7.6h-6.1c-.4 0-.8-.3-.8-.8s.3-.8.8-.8h6.1c.4 0 .8.3.8.8s-.4.8-.8.8zm0-4h-6.1c-.4 0-.8-.3-.8-.8s.3-.8.8-.8h6.1c.4 0 .8.3.8.8s-.4.8-.8.8z" class="st2"/><path d="M39.4 46.5H28.5v-7.9c0-.7-.6-1.2-1.2-1.2-4.8 0-9.1-2.2-12-5.7l3.6-1.3c2.2 2.2 5.2 3.4 8.3 3.4 6.5 0 11.7-5.1 11.9-11.6v-9.4c0-1.6-.3-3.2-1-4.7-.6-1.4-1.4-2.6-2.5-3.7C33.4 2.2 30.5 1 27.3 1c-6.6 0-11.9 5.3-11.9 11.9v10.4c0 .2.1.5.1.7 0 .1 0 .2.1.3 0 .2.1.4.2.7 0 .1 0 .2.1.3l.3.9c0 .1 0 .1.1.2.1.2.2.5.3.7 0 .1.1.2.2.3l.3.6c.1.1.1.2.2.3 0 .1.1.1.1.2L14 29.7c-1.3-2.3-2-4.9-2-7.7 0-.7-.6-1.2-1.2-1.2s-1.5.5-1.5 1.2c0 9.5 7.4 17.3 16.7 17.9v6.7H15.1c-.7 0-1.2.6-1.2 1.2s.6 1.2 1.2 1.2h24.3c.7 0 1.2-.6 1.2-1.2s-.5-1.3-1.2-1.3zM17.9 12.8c0-5.2 4.2-9.4 9.4-9.4 2.5 0 4.9 1 6.6 2.8.8.8 1.5 1.8 2 2.9.5 1.2.8 2.4.8 3.7v9.3c-.1 5.1-4.2 9.2-9.4 9.2-2.7 0-5.3-1.2-7.1-3.2-1.5-1.7-2.3-3.9-2.3-6.2v-9.1z" class="st2"/></svg>