<svg xmlns="http://www.w3.org/2000/svg" id="Camada_3" x="0" y="0" version="1.1" viewBox="0 0 50 50" xml:space="preserve"><style>.st2{fill:none;stroke:#444;stroke-width:2.5;stroke-linecap:round;stroke-linejoin:round;stroke-miterlimit:10}.st3{fill:#444}</style><path fill="#bf94f7" d="M34.96 4.91l6.86 5.17 1.82 6.33L2.98 31.24l.84-12.87 5.45-9.59 13-5.95z"/><path fill="#a475ef" d="M45.68 20.22l-.02.4L5.9 34.91l-1.01-.72-2.02-7.5L42.3 11.54l2.02 3.93z"/><path d="M39.96 8.67c8.64 7.21 8.56 19.41 3.38 27.67-5.97 9.55-18.09 12.91-28 8.15M6.8 37.25c-4.86-6.98-5.39-16.46-.6-24.12C12.62 2.86 26.13-.25 36.38 6.16" class="st2"/><path d="M36.38 2.28l1.3 4.68-5.15.93M14.41 47.78l-.73-4.8 5.23-.3" class="st2"/><path d="M10.89 25.03c0 7.17 5.83 13 13 13s13-5.83 13-13-5.83-13-13-13-13 5.83-13 13zm24 0c0 6.07-4.93 11-11 11s-11-4.93-11-11 4.93-11 11-11 11 4.94 11 11z" class="st3"/><path d="M21.59 25.33a.996.996 0 10-1.41 1.41l2 2c.19.19.44.29.71.29h.1c.3-.03.57-.19.73-.44l4-6a1.001 1.001 0 10-1.67-1.11l-3.32 4.99-1.14-1.14z" class="st3"/></svg>