<svg xmlns="http://www.w3.org/2000/svg" id="Camada_3" x="0" y="0" version="1.1" viewBox="0 0 50 50" xml:space="preserve"><style>.st3{fill:#444}</style><path fill="#fcc34f" d="M48.26 8.94l.42 22.98L4.81 48.11l-1.24.01-1 .02-1.25-8.23.21-19.25L48.07 3.27l.19 4.11z"/><path fill="#fdcf72" d="M46.84 1.91l1.23 1.36L1.53 20.66l-.16-7.12-.05-5.98.23-5.7 8.61.04z"/><path fill="none" stroke="#444" stroke-linecap="round" stroke-linejoin="round" stroke-miterlimit="10" stroke-width="2.5" d="M36.87 48.09H1.59V1.91h46.48v33.13"/><path d="M26.63 22.03h-4.05c-.33 0-.61-.23-.67-.56-.08-.4-.15-.7-.22-.99l-.07-.28c-.06-.27-.12-.51-.17-.72-.15-.68-.24-1.06-.45-1.45-.12-.22-.25-.43-.37-.64-.53-.9-1.08-1.82-1.08-3.08 0-2.78 2.27-5.05 5.05-5.05s5.05 2.27 5.05 5.07c0 1.29-.56 2.29-1.06 3.18-.1.18-.19.35-.28.52-.27.51-.46 1.1-.72 2.19l-.07.28c-.07.29-.14.59-.22.99-.06.3-.34.54-.67.54zm-3.49-1.37h2.94c.04-.21.08-.35.12-.5l.07-.27c.29-1.21.52-1.89.84-2.51.1-.18.2-.36.3-.55.44-.78.89-1.58.89-2.51 0-2.04-1.65-3.7-3.68-3.7-2.03 0-3.68 1.65-3.68 3.68 0 .88.41 1.58.89 2.38.13.23.27.45.4.69.31.56.42 1.06.58 1.81.05.21.1.44.16.7l.07.27c.02.16.06.3.1.51z" class="st3"/><path d="M22.35 14.88c-.03 0-.07 0-.1-.01a.695.695 0 01-.58-.78 3.328 3.328 0 012.29-2.66c.36-.11.74.09.86.45.11.36-.09.74-.45.86-.71.22-1.23.83-1.34 1.56-.06.34-.35.58-.68.58zm4.46 9.34H22.7a.68.68 0 010-1.36h4.11c.38 0 .68.31.68.68.01.37-.3.68-.68.68zm-.55 2.19h-3.01a.68.68 0 010-1.36h3.01c.38 0 .68.31.68.68.01.37-.3.68-.68.68zm-8.21-11.5h-2.19c-.38 0-.68-.31-.68-.68s.31-.68.68-.68h2.19a.68.68 0 010 1.36zm15.61 0h-2.19c-.38 0-.68-.31-.68-.68s.31-.68.68-.68h2.19c.38 0 .68.31.68.68s-.31.68-.68.68zm-4.17-4.64c-.18 0-.35-.07-.48-.2a.682.682 0 010-.97l1.52-1.52c.27-.27.7-.27.97 0s.27.7 0 .97l-1.52 1.52c-.14.13-.32.2-.49.2zm-9.35 0c-.18 0-.35-.07-.48-.2l-1.52-1.52a.682.682 0 010-.97c.27-.27.7-.27.97 0l1.52 1.52c.27.27.27.7 0 .97-.14.13-.32.2-.49.2zm4.66-1.8a.68.68 0 01-.68-.68v-2.2c0-.38.31-.68.68-.68s.68.31.68.68v2.19c0 .38-.3.69-.68.69z" class="st3"/><path d="M12 25.9l-4.75 1.77c-.27.1-.45.36-.45.65 0 .29.2.54.47.64l5.62 2.01v8.74c0 .29.16.54.42.64l11.21 4.21c.08.03.15.04.24.04.08 0 .16-.01.24-.04l11.24-4.21a.7.7 0 00.46-.64v-8.74l5.68-2.05a.68.68 0 00-.02-1.28l-4.81-1.73-1.82-.67-4.27-1.56a.69.69 0 00-.88.41c-.13.36.06.75.41.88l3.12 1.09-9.36 3.41-9.2-3.35 3.19-1.23c.36-.13.54-.52.41-.88a.682.682 0 00-.88-.41m-4.8 3.21l9.29 3.38-3.97 1.45-9.31-3.34 3.99-1.49zm.79 4.64l4.33 1.56a.727.727 0 00.47 0l5.06-1.85v11.76l-9.86-3.69v-7.78zm21.08 7.78l-9.86 3.69V31.17l5.02 1.85a.727.727 0 00.48 0l4.37-1.56v7.77zm-4.62-7.59l-3.96-1.45 9.29-3.38 4.06 1.46-9.39 3.37z" class="st3"/></svg>