<svg xmlns="http://www.w3.org/2000/svg" id="Layer_1" x="0" y="0" version="1.1" viewBox="0 0 50 50" xml:space="preserve"><style>.st2{fill:#444}</style><path fill="#dc5e82" d="M47.9 7.2c-.3-1.3-1.2-2.3-2.5-2.7-.3-.1-.6-.2-.9-.2l-23.4 8.5-3.8 1.4-3.8 1.4L9.7 17l-7.5 2.7V34h.1l15.1-5.5 3.8-1.4 7.7-2.8 3.8-1.4 3.8-1.4 3.8-1.4 7.6-2.8V7.2z"/><path fill="#f56991" d="M44.5 4.3H6.7L2.8 5.7l-.7.3v14.4l7.5-2.8 3.8-1.4 3.8-1.4 3.8-1.4 24.3-8.9c-.2-.1-.5-.2-.8-.2z"/><path d="M25 47c-.4 0-.7-.2-1-.5l-7.3-8.8H5.8c-2.1 0-4-1.3-4.7-3.2-.2-.6-.3-1.2-.3-1.8V8.1c0-1.2.4-2.3 1.1-3.2 1-1.2 2.4-1.9 4-1.9h38.9c.4 0 .8.1 1.2.3 1.7.6 3 2.1 3.3 3.9.1.3.1.6.1.9v24.5c0 2.8-2.3 5.1-5.1 5.1h-11L26 46.5c-.3.3-.6.5-1 .5zM5.8 5.5c-.8 0-1.5.3-2 1-.4.5-.6 1-.6 1.6v24.5c0 .3.1.6.2.9.4 1 1.3 1.6 2.4 1.6h11.5c.4 0 .7.2 1 .5l6.7 8.1 6.7-8.1c.2-.3.6-.5 1-.5h11.5c1.4 0 2.6-1.2 2.6-2.6V7.7c-.2-1-.8-1.7-1.7-2-.2-.1-.4-.1-.6-.1h-.3c-12.8 0-25.6-.1-38.4-.1z" class="st2"/><path d="M9.7 25.5c-.3 0-.5-.2-.5-.5v-9.2c0-.3.2-.5.5-.5s.5.2.5.5V25c0 .3-.3.5-.5.5zm3.8 3.3c-.3 0-.5-.2-.5-.5V12.5c0-.3.2-.5.5-.5s.5.2.5.5v15.8c0 .3-.2.5-.5.5zm7.7 0c-.3 0-.5-.2-.5-.5V12.5c0-.3.2-.5.5-.5s.5.2.5.5v15.8c0 .3-.3.5-.5.5zm7.6-3.3c-.3 0-.5-.2-.5-.5v-9.2c0-.3.2-.5.5-.5s.5.2.5.5V25c0 .3-.2.5-.5.5zm7.7 0c-.3 0-.5-.2-.5-.5v-9.2c0-.3.2-.5.5-.5s.5.2.5.5V25c0 .3-.2.5-.5.5zm-19.2 4.6c-.3 0-.5-.2-.5-.5V11.2c0-.3.2-.5.5-.5s.5.2.5.5v18.4c0 .3-.2.5-.5.5zM25 24c-.3 0-.5-.2-.5-.5v-6.1c0-.3.2-.5.5-.5s.5.2.5.5v6.1c0 .2-.2.5-.5.5zm15.3 0c-.3 0-.5-.2-.5-.5v-6.1c0-.3.2-.5.5-.5s.5.2.5.5v6.1c0 .2-.2.5-.5.5zm-7.6 3c-.3 0-.5-.2-.5-.5V14.3c0-.3.2-.5.5-.5s.5.2.5.5v12.3c0 .2-.3.4-.5.4z" class="st2"/></svg>