<svg xmlns="http://www.w3.org/2000/svg" viewBox="0 0 50 50"><path fill="#e589ef" d="M49.09 17.11v13.45L2.31 47.59.95 28.89.9 22.27 48.2 5.13l.92 4.11z"/><path fill="#f799ff" d="M41.9 2.95l4.07-1.15 3.1 4.02L.88 22.57l.24-17.9 3.16-3.06 30.83-.18.36 1.53z"/><path fill="#444" d="M28.72 27.14l-16.2 9.05c-1.98 1.11-4.42-.33-4.42-2.6v-18.1c0-2.27 2.44-3.7 4.42-2.6l16.2 9.05c2.03 1.15 2.03 4.07 0 5.2zm11.59-16.11h-4.65V6.79h4.65v4.24zm0 6.83h-4.65v-4.24h4.65v4.24zm0 6.83h-4.65v-4.24h4.65v4.24zm0 6.83h-4.65v-4.24h4.65v4.24zm0 6.83h-4.65v-4.24h4.65v4.24zm0 6.83h-4.65v-4.24h4.65v4.24z"/><path fill="none" stroke="#444" stroke-miterlimit="10" stroke-width=".25" d="M41.2 11.03h-6.32V6.79h6.32v4.24zm0 6.83h-6.32v-4.24h6.32v4.24zm0 6.83h-6.32v-4.24h6.32v4.24zm0 6.83h-6.32v-4.24h6.32v4.24zm0 6.83h-6.32v-4.24h6.32v4.24zm0 6.83h-6.32v-4.24h6.32v4.24z"/><path fill="none" stroke="#444" stroke-linecap="round" stroke-linejoin="round" stroke-miterlimit="10" stroke-width="2.5" d="M32.89 48.57H5.7a3.73 3.73 0 01-3.73-3.73V5.88A3.73 3.73 0 015.7 2.15h29.18v1.2h6.83l-.03-1.22 2.98.03h0a3.73 3.73 0 013.73 3.73v38.96a3.73 3.73 0 01-3.73 3.73h-1.59"/><path fill="none" stroke="#444" stroke-linecap="round" stroke-linejoin="round" stroke-miterlimit="10" d="M33.92 2.96l-.24 45.61"/><path fill="none" stroke="#444" stroke-miterlimit="10" d="M42.47 3.2l-.21 45.37"/></svg>