<svg xmlns="http://www.w3.org/2000/svg" xmlns:xlink="http://www.w3.org/1999/xlink" viewBox="0 0 48 47"><switch><g><path fill="#f56991" d="M211 9.8l-2.1.8-9.8 3.6-1.3.5-.8.3-3.6 1.3-.2.1-2.4.8-12.1 4.4-2.1.8v-1c0-5.2 2.1-9.9 5.5-13.4 1-1.2 3.2-3.4 6.7-4.8 4-1.6 7.5-1.2 9-.9 1.7.2 3.1.5 4 .8 3.6 1.2 6.7 3.4 9 6.2 0 .3.1.4.2.5z"/><path fill="#dc5e82" d="M215 20.2l-2.2.8-10 3.6-2.7 1-3.2 1.2-6.2 2.3-8.3 3-2.1.8c-2.2-3-3.5-6.5-3.7-10.5v-.5l2.1-.8 12.3-4.5 2.1-.8.5-.2 3.2-1.2 1-.4 1.1-.4 9.6-3.5 2.1-.8c.1.1.2.2.3.4 2.4 3.1 3.8 6.6 4.1 10.5z"/><path fill="#444" d="M214.3 31.6c-1.2 2.4-3.1 4.4-3.1 4.4-2 2.2-4.2 3.6-5.6 4.3-.2-.1-.5-.4-.8-.8-.3-.5-.3-1-.3-1.3 1.3-.7 3-1.8 4.6-3.5 1.9-1.9 2.8-3.8 3.1-4.2.1-.2.2-.3.2-.5 1.9-3.9 2.3-8.1 1.5-12 0-.2-.1-.3-.1-.5-1.2-5-4.5-9.5-9.4-12.1-9-4.7-20.1-1.4-24.9 7.4-.1.1-.1.2-.2.3l-.1.1c-2 3.8-2.5 8-1.7 12 .3 1.4 1.3 6 5.2 9.8 1.4 1.4 2.7 2.2 3.6 2.8.8 1 1 2 .6 2.4-.1 0-.3.3-.9.1-1.2-.6-2.9-1.7-4.7-3.4-4.9-4.7-6-10.5-6.2-12-.6-4-.1-8.1 1.7-12 .1-.2.1-.3.2-.5s.1-.3.2-.4c2.6-5 7.1-8.5 12.1-10.1 5.2-1.7 11-1.3 16.2 1.4.6.3 1.2.7 1.8 1.1 4.8 3.2 7.9 8.1 8.9 13.4 0 .2.1.3.1.5.7 4 .2 8.1-1.5 12-.1.5-.3.9-.5 1.3z"/><path fill="#494949" fill-rule="evenodd" d="M194.1 16.2c.6 0 1.1.5 1.1 1.1s-.5 1.1-1.1 1.1c-.6 0-1.1-.5-1.1-1.1s.5-1.1 1.1-1.1m9.1 27.6c8.2-6.3 3.1-17.5-2.7-25.6-6.1-8.6-11.4-2-16.5-.9 14.2 2.3-8.3 13.7 4 25.9-1.2-3.4-1.3-7.4-.3-10.9 1.4 1.5 3.6 2.3 6.4 2.7-2.6-3.7-7.8-10.5 1.6-10.5 10.8 0 1.7 8.5-1.1 11.7 3.4-.2 6.7-.9 9.2-3.3 1 3.5.8 7.5-.6 10.9zm-10.8.4c1.5 0 2.8.8 2.8 1.9h-5.6c0-1.1 1.3-1.9 2.8-1.9m6.7 0c1.5 0 2.8.8 2.8 1.9h-5.6c0-1.1 1.2-1.9 2.8-1.9" clip-rule="evenodd"/><defs><path id="a" d="M35 39.8H6.2c-2.2 0-4-1.8-4-4V10c0-2.2 1.8-4 4-4h35.7c2.2 0 4 1.8 4 4v19.5"/></defs><clipPath id="b"><use overflow="visible" xlink:href="#a"/></clipPath><path fill="#46b8b0" d="M50 18.9l-.1 3.5-55.8 20.4 1.3-7.7 1.1-4.4 55.6-20.3-1.3 3.2z" clip-path="url(#b)"/><path fill="#4ecdc4" d="M52.2 4.8l-1.6 6.6L-4 31.3l1.3-8.3 1-3.8 54.9-20z" clip-path="url(#b)"/><path fill="none" stroke="#494949" stroke-linecap="round" stroke-linejoin="round" stroke-miterlimit="10" stroke-width="2.5" d="M35 39.8H6.2c-2.2 0-4-1.8-4-4V10c0-2.2 1.8-4 4-4h35.7c2.2 0 4 1.8 4 4v19.5"/><path fill="none" stroke="#494949" stroke-linecap="round" stroke-linejoin="round" stroke-miterlimit="10" d="M2.2 14.3h43.6"/><path fill="#494949" d="M7.6 29.7h3v5.5h-3zm11.9-2.2h3v7.6h-3zm-5.9-2.4h3v10.1h-3zM25.5 21h3v14.2h-3zm5.9 2.7h3v11.4h-3zm6-5.4h3v16.9h-3zm-5.8-6.7h-2.4c-.2 0-.3-.1-.3-.3 0-.2.1-.3.3-.3h2.4c.2 0 .3.1.3.3 0 .2-.1.3-.3.3zm4.3 0h-1.8c-.2 0-.3-.1-.3-.3V9.5c0-.2.1-.3.3-.3h1.8c.2 0 .3.1.3.3v1.8c0 .2-.1.3-.3.3zm-1.5-.6h1.2V9.8h-1.2V11zm5.6-.6l.8-.8c.1-.1.1-.3 0-.4-.1-.1-.3-.1-.4 0l-.9.8-.8-.8c-.1-.1-.3-.1-.4 0-.1.1-.1.3 0 .4l.8.8-.8.8c-.1.1-.1.3 0 .4.1.1.1.1.2.1s.2 0 .2-.1l.8-.8.8.8c.1.1.1.1.2.1s.2 0 .2-.1c.1-.1.1-.3 0-.4l-.7-.8z"/></g></switch></svg>