<svg xmlns="http://www.w3.org/2000/svg" id="Layer_1" x="0" y="0" version="1.1" viewBox="0 0 50 50" xml:space="preserve"><style>.st2{fill:#031326}</style><path fill="#00dffc" d="M48.3 21.3l-.2 5.6L3 43.3l-.1-3.8.2-6.8v-4.9l44.7-16.3z"/><path fill="#00c8e2" d="M48.3 43.7l-.4 3.6-3.9 1.4-39.1-.5-1.8-1.5-.2-3.7 46-16.8z"/><path d="M17 37h6.2c.4 0 .8-.3.8-.8s-.3-.8-.8-.8H17c-.4 0-.8.3-.8.8s.4.8.8.8zm0-4.7h6.2c.4 0 .8-.3.8-.8s-.3-.8-.8-.8H17c-.4 0-.8.3-.8.8s.4.8.8.8zm0 9.3h6.2c.4 0 .8-.3.8-.8s-.3-.8-.8-.8H17c-.4 0-.8.3-.8.8s.4.8.8.8zm0-13.9h6.2c.4 0 .8-.3.8-.8s-.3-.8-.8-.8H17c-.4 0-.8.3-.8.8s.4.8.8.8z" class="st2"/><path d="M48.6 9.4L26.8 1.6c-.4-.1-.8-.1-1.1.2-.3.2-.5.6-.5 1v12.4c0 .7.6 1.2 1.2 1.2s1.2-.6 1.2-1.2V4.6l19.3 6.9v35.2H30.7V19.9c0-.4-.2-.7-.5-1-.3-.2-.7-.3-1-.3l-18.7 3.5c-.6.1-1 .6-1 1.2v23.3H4.3V28.9h1.9c.7 0 1.2-.6 1.2-1.2s-.6-1.2-1.2-1.2H3c-.7 0-1.2.6-1.2 1.2v20.2c0 .7.6 1.2 1.2 1.2h45.1c.7 0 1.2-.6 1.2-1.2V10.6c.1-.6-.2-1-.7-1.2zM28.2 46.6H12.1V24.4l16.2-3v25.2z" class="st2"/><path d="M34.9 40.9V12.1c0-.4-.3-.8-.8-.8s-.8.3-.8.8v28.8c0 .4.3.8.8.8s.8-.4.8-.8zm4.7 0V13.7c0-.4-.3-.8-.8-.8s-.8.3-.8.8v27.2c0 .4.3.8.8.8s.8-.4.8-.8zm4.6 0V15.2c0-.4-.3-.8-.8-.8s-.8.3-.8.8v25.7c0 .4.3.8.8.8s.8-.4.8-.8zM15.4 1.4c-.2-.1-.4-.2-.7-.1L1.3 5.7c-.3.1-.5.4-.5.7v5.4c0 .3.2.6.5.7l1.3.4v4.2c0 .3.2.6.5.7l6.3 1.8h.2c.2 0 .3-.1.5-.2s.3-.4.3-.6v-3.4l4.4 1.5h.2c.2 0 .3 0 .4-.1.2-.1.3-.4.3-.6V2c0-.3-.1-.5-.3-.6zM8.8 17.9L4 16.5v-3.1L8.8 15v2.9zm5.4-2.7l-11.9-4V7l11.9-4v12.2zm7-5.6h-1.8c-.3 0-.5-.2-.5-.5s.2-.5.5-.5h1.8c.3 0 .5.2.5.5s-.2.5-.5.5zm-2.9-3c-.2 0-.3-.1-.4-.2-.1-.2-.1-.5.2-.7l1.5-.9c.2-.1.5-.1.7.2.1.2.1.5-.2.7l-1.5.9h-.3zm1.5 6.9c-.1 0-.2 0-.3-.1l-1.5-.9c-.2-.1-.3-.4-.2-.7.1-.2.4-.3.7-.2l1.5.9c.2.1.3.4.2.7 0 .3-.2.3-.4.3z" class="st2"/></svg>