<svg xmlns="http://www.w3.org/2000/svg" viewBox="0 0 50 50"><style>.st3,.st4{fill:none;stroke:#444;stroke-linecap:round;stroke-linejoin:round;stroke-miterlimit:10}.st4{stroke-width:.5}</style><g id="Layer_1"><path fill="#00dffc" d="M29 7.3l-23.8.6c-1 0-1.8.8-1.8 1.8l.4 8.4L44.4 3.5c0-1.1-10.8-4.3-15.4 3.8z"/><path fill="#00c8e2" d="M3 17.8v16.5c0 2.9 2.9 4.9 5.6 3.9l34.2-12.6c.8-.3.9-5.6 1.2-6.3l3.7-4c.9-1.1.9-6.2.3-7.5-1.4-2.7-4.7-4.3-5.4-4.1L3 17.8z"/><path fill="none" stroke="#444" stroke-linecap="round" stroke-linejoin="round" stroke-miterlimit="10" stroke-width="2.5" d="M34.7 37.7h-29c-1.6 0-3-1.3-3-3V10.9c0-1.9 1.5-3.5 3.5-3.5h23.2c1.5-3.5 5-5.7 9-5.7 5.4 0 9.7 4.3 9.7 9.7 0 3.6-1.7 6.2-4.6 7.9l-.1 3.9V29m-27.6 8.7l-4.2 10.8m18.9-10.8l4.1 10.8"/><path d="M31 29.3l-2.9 2.9m0-2.9l2.9 2.9" class="st3"/><circle cx="15.6" cy="29.8" r="1.7" class="st3"/><circle cx="29.1" cy="18.3" r="1.7" class="st3"/><path d="M17.1 14.9l2.9 3m0-3l-2.9 3m-7.7-2.2c0 4.1 3.3 7.4 7.3 7.4h13.7c4.1 0 7.3 3.3 7.3 7.4" class="st3"/><path d="M7.5 18.1l1.9-2.4 2.4 1.8" class="st3"/><path d="M42.1 16l.3 1.6-.6.3-.6.3-1.1-1.2c-.5.1-.9.2-1.4.2l-.7 1.5-.6-.1-.6-.1-.2-1.6c-.4-.2-.9-.4-1.3-.7L34 17l-.9-.9.8-1.4c-.3-.4-.5-.8-.7-1.3l-1.6-.2-.1-.6-.1-.6 1.5-.7c0-.5.1-1 .2-1.4l-1.2-1.1.3-.6.3-.6 1.6.4c.1-.2.3-.4.5-.5.2-.2.4-.3.5-.5l-.3-1.6.6-.3.6-.3L37 6c.5-.1.9-.2 1.4-.2l.7-1.5.6.1.6.1.2 1.6c.4.2.9.4 1.3.7l1.4-.8.9.9-.8 1.4c.3.4.5.8.7 1.3l1.6.2.1.6.1.6-1.5.7c0 .5-.1 1-.2 1.4l1.2 1.1-.3.5-.3.6-1.6-.3c-.1.2-.3.4-.5.5-.1.2-.3.3-.5.5z" class="st4"/><circle cx="38.6" cy="11.5" r="4.2" class="st4"/></g></svg>