<svg xmlns="http://www.w3.org/2000/svg" version="1" viewBox="0 0 50 50"><path fill="#AFE55D" d="M3.79 47.592h13.621l30.182-10.985V3.792c0-.764-.62-1.384-1.384-1.384H33.915c-.764 0-1.384.62-1.384 1.384v9.034H18.853c-.764 0-1.384.62-1.384 1.384v6.829H3.79c-.764 0-1.384.62-1.384 1.384v23.784c0 .765.62 1.385 1.384 1.385z"/><path fill="#C3FF68" d="M47.594 9.561V3.792c0-.764-.62-1.384-1.384-1.384H33.915c-.764 0-1.384.62-1.384 1.384v9.034H18.853c-.764 0-1.384.62-1.384 1.384v6.315L47.594 9.561zM16.055 21.04H3.79c-.764 0-1.384.62-1.384 1.384v3.584l13.649-4.968z"/><path fill="#031326" d="M46.21 1.158H33.915a2.637 2.637 0 00-2.634 2.634v7.784H18.853a2.637 2.637 0 00-2.634 2.634v5.579H3.79a2.637 2.637 0 00-2.634 2.634v23.784a2.637 2.637 0 002.634 2.634h37.294a1.25 1.25 0 000-2.5h-7.303V3.792c0-.074.06-.134.134-.134H46.21c.074 0 .134.06.134.134v32.814a1.25 1.25 0 002.5 0V3.792a2.637 2.637 0 00-2.634-2.634zM3.656 46.208V22.424c0-.074.06-.134.134-.134h14.006v24.052H3.79a.134.134 0 01-.134-.134zm15.063.134V14.21c0-.074.06-.134.134-.134h13.986v32.265h-14.12z"/></svg>