<svg xmlns="http://www.w3.org/2000/svg" version="1" viewBox="0 0 50 50"><path fill="#46B8B0" d="M4.477 30.329h2.414c.382 1.3.896 2.542 1.534 3.709L6.72 35.744a.89.89 0 00-.071 1.189c.58.728 1.645 2.003 3.03 3.388a41.36 41.36 0 003.388 3.031.893.893 0 001.19-.071l1.705-1.705a18.823 18.823 0 003.709 1.534v.379l22.988-8.367-1.083-1.083a18.738 18.738 0 001.534-3.709h2.414c.456 0 .84-.338.891-.791.104-.924.252-2.58.252-4.539 0-1.958-.148-3.614-.252-4.538a.892.892 0 00-.891-.791H43.11a18.713 18.713 0 00-1.534-3.709l1.705-1.705a.892.892 0 00.071-1.19 41.644 41.644 0 00-3.03-3.388 41.115 41.115 0 00-3.388-3.03.893.893 0 00-1.19.071l-1.705 1.705a18.823 18.823 0 00-3.709-1.534V4.477a.892.892 0 00-.791-.891c-.925-.105-2.58-.253-4.539-.253s-3.614.148-4.538.252a.892.892 0 00-.791.891V6.89c-1.3.382-2.543.896-3.709 1.534L14.257 6.72a.893.893 0 00-1.19-.071 41.668 41.668 0 00-3.388 3.03 41.115 41.115 0 00-3.03 3.388.892.892 0 00.071 1.19l1.705 1.705a18.763 18.763 0 00-1.534 3.709H4.477a.892.892 0 00-.891.791A41.2 41.2 0 003.333 25c0 1.959.148 3.614.252 4.539.052.453.436.79.892.79z"/><path fill="#4ECDC4" d="M7.848 15.34l22.891-8.331c-.122-.039-.242-.082-.366-.118V4.477a.892.892 0 00-.791-.891c-.924-.104-2.579-.252-4.538-.252s-3.614.148-4.538.252a.892.892 0 00-.791.891v2.414c-1.3.382-2.543.896-3.709 1.534L14.301 6.72a.893.893 0 00-1.19-.071 41.668 41.668 0 00-3.388 3.03 41.115 41.115 0 00-3.03 3.388.892.892 0 00.071 1.19l1.084 1.083z"/><path fill="#031326" d="M31.607 23.815l-9.11-5.26a1.368 1.368 0 00-2.052 1.185v10.52a1.368 1.368 0 002.052 1.185l9.11-5.26a1.368 1.368 0 000-2.37z"/><path fill="#031326" d="M25 47.917c-1.961 0-3.626-.142-4.679-.261a2.141 2.141 0 01-1.9-2.134v-1.5a20.253 20.253 0 01-2.221-.918l-1.06 1.06a2.142 2.142 0 01-2.852.165 42.314 42.314 0 01-6.617-6.617 2.142 2.142 0 01.164-2.852l1.061-1.06a20.086 20.086 0 01-.917-2.221H4.477a2.14 2.14 0 01-2.133-1.901 42.253 42.253 0 010-9.357 2.142 2.142 0 012.133-1.901h1.501c.262-.761.569-1.503.917-2.22l-1.06-1.06c-.774-.773-.845-2-.164-2.854a42.12 42.12 0 016.615-6.616 2.145 2.145 0 012.854.166l1.06 1.06a20.053 20.053 0 012.221-.917V4.477c0-1.094.817-2.011 1.9-2.134a42.29 42.29 0 019.358 0 2.144 2.144 0 011.9 2.134v1.501c.76.262 1.503.569 2.221.917l1.06-1.06c.772-.772 2-.843 2.853-.166a42.497 42.497 0 016.617 6.617 2.142 2.142 0 01-.166 2.854l-1.06 1.06c.349.717.655 1.46.918 2.22h1.5c1.095 0 2.013.818 2.134 1.902.119 1.052.261 2.719.261 4.678 0 1.961-.142 3.627-.261 4.679a2.141 2.141 0 01-2.134 1.9h-1.5a20.092 20.092 0 01-.918 2.221l.438.438c.488.488.488 1.28 0 1.769a1.255 1.255 0 01-1.769-.001l-1.744-1.746.449-.821a17.516 17.516 0 001.432-3.462l.264-.897h3.032a39.71 39.71 0 000-8.159h-3.032l-.264-.897a17.481 17.481 0 00-1.432-3.462l-.449-.821 2.144-2.144a39.949 39.949 0 00-5.768-5.77L34.26 9.97l-.821-.449a17.519 17.519 0 00-3.461-1.431l-.898-.263V4.793c-.88-.091-2.362-.21-4.079-.21s-3.199.119-4.079.21v3.034l-.899.263a17.493 17.493 0 00-3.462 1.431l-.822.449-2.143-2.143c-.687.558-1.82 1.523-3.033 2.736s-2.178 2.346-2.735 3.033l2.143 2.144-.449.821a17.524 17.524 0 00-1.431 3.462l-.264.897H4.793c-.091.881-.21 2.365-.21 4.08 0 1.717.119 3.199.21 4.079h3.033l.264.897a17.524 17.524 0 001.431 3.462l.449.821-2.144 2.144a39.733 39.733 0 005.769 5.769l2.143-2.144.822.449a17.591 17.591 0 003.462 1.432l.897.264v3.032a40.33 40.33 0 004.079.211A1.25 1.25 0 0125 47.917z"/><path fill="#031326" d="M25 39.65c-8.078 0-14.65-6.572-14.65-14.65S16.922 10.35 25 10.35 39.65 16.922 39.65 25 33.078 39.65 25 39.65zm0-29.05c-7.94 0-14.4 6.46-14.4 14.4S17.06 39.4 25 39.4 39.4 32.94 39.4 25 32.94 10.6 25 10.6z"/></svg>