<svg xmlns="http://www.w3.org/2000/svg" version="1" viewBox="0 0 50 50"><path fill="#A6C1C2" d="M15.497 45.121L45.21 34.306A22.164 22.164 0 0047.25 25c0-12.288-9.962-22.25-22.25-22.25S2.75 12.712 2.75 25c0 8.888 5.213 16.556 12.747 20.121z"/><path fill="#B9D7D9" d="M35.128 5.275A22.134 22.134 0 0024.837 2.75c-9.279 0-17.229 5.683-20.567 13.756L35.128 5.275z"/><g fill="#031326"><path d="M25 1.5C12.042 1.5 1.5 12.042 1.5 25S12.042 48.5 25 48.5a1.25 1.25 0 000-2.5C13.42 46 4 36.579 4 25 4 13.42 13.42 4 25 4c11.579 0 21 9.42 21 21 0 3.067-.646 6.023-1.92 8.785a1.249 1.249 0 102.269 1.047A23.295 23.295 0 0048.499 25C48.5 12.042 37.958 1.5 25 1.5z"/><path d="M28.304 25.041a3.304 3.304 0 10-6.607 0 3.304 3.304 0 006.607 0zm3.433 3.931a5.856 5.856 0 00-5.849 5.849 5.856 5.856 0 005.849 5.85 5.856 5.856 0 005.85-5.85 5.856 5.856 0 00-5.85-5.849zm0 11.198c-2.562 0-4.705-1.813-5.224-4.223a10.967 10.967 0 008.138-5.602 5.342 5.342 0 012.436 4.475 5.355 5.355 0 01-5.35 5.35zm-13.473.5a5.856 5.856 0 005.849-5.85c0-3.225-2.624-5.849-5.849-5.849s-5.849 2.624-5.849 5.849a5.856 5.856 0 005.849 5.85zm-2.915-10.324a10.968 10.968 0 008.139 5.601 5.354 5.354 0 01-5.225 4.222 5.355 5.355 0 01-5.349-5.35 5.345 5.345 0 012.435-4.473zM35.9 16.161c-3.226 0-5.85 2.624-5.85 5.849s2.624 5.849 5.85 5.849c3.225 0 5.849-2.624 5.849-5.849s-2.624-5.849-5.849-5.849zm0 11.197c-.045 0-.086-.012-.13-.013.162-.76.257-1.531.257-2.3 0-2.826-1.066-5.487-2.993-7.537.83-.53 1.81-.848 2.866-.848a5.355 5.355 0 015.349 5.349 5.354 5.354 0 01-5.349 5.349zM25 19.939c3.225 0 5.849-2.624 5.849-5.849S28.225 8.241 25 8.241s-5.849 2.624-5.849 5.849 2.624 5.849 5.849 5.849zm0-11.198a5.355 5.355 0 015.349 5.349c0 .429-.064.841-.16 1.242a11.03 11.03 0 00-5.192-1.318 11.01 11.01 0 00-5.185 1.318c-.096-.4-.16-.812-.16-1.241A5.354 5.354 0 0125 8.741zm-10.9 7.42c-3.225 0-5.849 2.624-5.849 5.849s2.624 5.849 5.849 5.849 5.849-2.624 5.849-5.849-2.624-5.849-5.849-5.849zM8.751 22.01a5.354 5.354 0 015.349-5.349c1.056 0 2.035.317 2.865.848a10.968 10.968 0 00-2.992 7.537c0 .769.095 1.541.256 2.3-.044.001-.085.013-.129.013a5.356 5.356 0 01-5.349-5.349z"/></g></svg>