<svg xmlns="http://www.w3.org/2000/svg" id="Layer_1" x="0" y="0" version="1.1" viewBox="0 0 50 50" xml:space="preserve"><style>.st2{fill:#031326}.st3{fill:#424242}</style><path fill="#afe55d" d="M48.1 13.9l.7 5.3-47 17.1-.6-11.1v-6.4L42.3 3.9l5.3 2.4z"/><path fill="#c3ff68" d="M46.6 4l2.3 3.3L1.1 24.4 2.2 6.9l3-3 29.7-.2z"/><path d="M16.5 47.5H4.9c-2.4 0-4.3-1.9-4.3-4.3v-36c0-2.4 1.9-4.3 4.3-4.3h40.2c2.4 0 4.3 1.9 4.3 4.3v21.5c0 .7-.6 1.2-1.2 1.2s-1.2-.6-1.2-1.2V7.2c0-1-.8-1.8-1.8-1.8H4.9c-1 0-1.8.8-1.8 1.8v36c0 1 .8 1.8 1.8 1.8h11.6c.7 0 1.2.6 1.2 1.2s-.5 1.3-1.2 1.3z" class="st2"/><circle cx="7.2" cy="9.7" r=".9" class="st3"/><circle cx="10.2" cy="9.7" r=".9" class="st3"/><circle cx="13.3" cy="9.7" r=".9" class="st3"/><path d="M26.8 40.2h-4.3c-.4 0-.8-.3-.8-.8v-9.6c0-.4.3-.8.8-.8h4.3c.4 0 .8.3.8.8v9.6c-.1.4-.4.8-.8.8zm-3.5-1.5H26v-8.1h-2.8v8.1zm-6.1 1.5h-4.3c-.4 0-.8-.3-.8-.8v-4.3c0-.4.3-.8.8-.8h4.3c.4 0 .8.3.8.8v4.3c-.1.4-.4.8-.8.8zm-3.5-1.5h2.8v-2.8h-2.8v2.8zm22.7 1.5h-4.3c-.4 0-.8-.3-.8-.8V24.5c0-.4.3-.8.8-.8h4.3c.4 0 .8.3.8.8v14.9c-.1.4-.4.8-.8.8zm-3.6-1.5h2.8V25.2h-2.8v13.5zm0-22.7v4.8c0 .4-.3.8-.8.8-.4 0-.8-.3-.8-.8v-3l-6 6.2c-.3.3-.8.3-1.1 0l-3.7-3.7-4.8 4.7c-.2.1-.3.2-.5.2s-.4-.1-.5-.2c-.3-.3-.3-.8 0-1.1l5.3-5.3c.3-.3.8-.3 1.1 0l3.7 3.7 5.6-5.7h-3c-.4 0-.8-.3-.8-.8 0-.4.3-.8.8-.8h4.8c.1 0 .2 0 .3.1.2.1.3.2.4.4v.5z" class="st2"/></svg>