<svg xmlns="http://www.w3.org/2000/svg" id="Layer_1" x="0" y="0" version="1.1" viewBox="0 0 50 50" xml:space="preserve"><style>.st2{fill:#031326}</style><path fill="#00c8e2" d="M38.3 22.3l6.7 6.6L2 44.5l-.3-17.3.3-7.7L38.4 6.3l-.1 6.7z"/><path fill="#00dffc" d="M39.2 6.2L2.1 19.7 1.2 8.6 1.7 4l33.7-.3z"/><path d="M21.7 24.6H7.6c-.4 0-.8-.3-.8-.8s.3-.8.8-.8h14.1c.4 0 .8.3.8.8s-.3.8-.8.8zm-3.5 5.9H7.6c-.4 0-.8-.3-.8-.8s.4-.7.8-.7h10.6c.4 0 .8.3.8.8s-.4.7-.8.7zm0 5.9H7.6c-.4 0-.8-.3-.8-.8s.3-.8.8-.8h10.6c.4 0 .8.3.8.8s-.4.8-.8.8z" class="st2"/><path d="M49.1 45.1l-5.7-5.7c1.7-1.9 2.8-4.3 2.8-7 0-4.5-2.8-8.2-6.8-9.7 0-.1.1-.2.1-.3V4.1c0-.7-.6-1.2-1.2-1.2H1.7C1 2.9.5 3.5.5 4.1v41.3c0 .7.6 1.2 1.2 1.2h23.8c.7 0 1.3-.6 1.3-1.2s-.6-1.2-1.3-1.2H3V5.3h34V22c-.4 0-.8-.1-1.2-.1-5.7 0-10.4 4.7-10.4 10.4s4.7 10.4 10.4 10.4c2.1 0 4.1-.6 5.7-1.7l5.8 5.8c.2.2.6.4.9.4s.6-.1.9-.4c.5-.5.5-1.2 0-1.7zM27.9 32.3c0-4.3 3.5-7.9 7.9-7.9s7.9 3.5 7.9 7.9-3.5 7.9-7.9 7.9-7.9-3.5-7.9-7.9z" class="st2"/><path d="M11.2 14.4v3.9l-1.7-.9-1.6.9v-3.9" class="st2"/><circle cx="9.5" cy="12" r="3.4" class="st2"/></svg>