<svg xmlns="http://www.w3.org/2000/svg" id="Layer_1" x="0" y="0" version="1.1" viewBox="0 0 50 50" xml:space="preserve"><style>.st3{fill:#494949}</style><path fill="#fcc34f" d="M45.4 17.9l-5.9 6.8c-.1.1-.2.2-.3.2-.2.2-.3.2-.4.2H29v5.6L17.2 35v-9.8H5.1c-.1 0-.2-.1-.3-.2-.2-.2-.3-.4-.3-.6v-2.6L37.8 9.6h1c.2 0 .3 0 .5.1.1 0 .2.1.2.2l5.9 6.8c.3.4.3.9 0 1.2z"/><path fill="#fdcf72" d="M40.3 10.1L3.7 23.5V11c0-.6.4-1 1-1h12.4V3.8c0-.6.4-1 1-1h10.3c.6 0 1 .4 1 1V10h10.3c.3-.1.5-.1.6.1z"/><path fill="none" stroke="#494949" stroke-linecap="round" stroke-linejoin="round" stroke-miterlimit="10" stroke-width=".25" d="M19.8 40.7v5.4m2.3-7.1v7.1m2.2-6.4v6.4m2.2-4.3v4.3"/><path d="M37.9 10.3c.2 0 .3 0 .5.1.1 0 .2.1.2.2l5.5 6.4c.3.3.3.9 0 1.2l-5.5 6.4c-.1.1-.2.2-.3.2-.2.2-.3.2-.4.2H6.3c-.1 0-.2-.1-.3-.2-.2-.2-.3-.4-.3-.6v-13c0-.5.4-.9.9-.9h31.3m0-2.5H6.6c-1.9 0-3.4 1.5-3.4 3.4v12.9c0 .9.4 1.8 1 2.4.3.3.6.5 1 .7 0 0 .1 0 .1.1.2.1.4.1.5.2.1 0 .2 0 .4.1h31.7c.5 0 1.1-.1 1.5-.4.4-.2.7-.5 1-.8l5.5-6.4c1.1-1.2 1.1-3.2 0-4.5L40.5 9c-.3-.3-.6-.6-1-.8-.5-.2-1-.4-1.6-.4z" class="st3"/><path d="M28.7 26.5v3.2h-11v-3.2h11m0-1h-11c-.6 0-1 .4-1 1v3.2c0 .6.4 1 1 1h11c.6 0 1-.4 1-1v-3.2c0-.5-.5-1-1-1z" class="st3"/><path d="M27.8 3.9c.5 0 .9.4.9.9v5.5h9.2c.2 0 .3 0 .5.1.1 0 .2.1.2.2l5.5 6.4c.3.3.3.9 0 1.2l-5.5 6.4c-.1.1-.2.2-.3.2-.2.2-.3.2-.4.2h-9.2v20.2c0 .5-.4.9-.9.9h-9.2c-.5 0-.9-.4-.9-.9V25H6.3c-.1 0-.2-.1-.3-.2-.2-.2-.3-.4-.3-.6v-13c0-.5.4-.9.9-.9h11V4.8c0-.5.4-.9.9-.9h9.3m0-2.5h-9.2c-1.9 0-3.4 1.5-3.4 3.4v3H6.6c-1.9 0-3.4 1.5-3.4 3.4v12.9c0 .9.4 1.8 1 2.4.3.3.6.5 1 .7 0 0 .1 0 .1.1.2.1.4.1.5.2.1 0 .3.1.5.1h8.9v17.7c0 1.9 1.5 3.4 3.4 3.4h9.2c1.9 0 3.4-1.5 3.4-3.4V27.5h6.7c.5 0 1-.1 1.4-.3h.1c.4-.2.8-.5 1.1-.8L46 20c1.1-1.2 1.1-3.2 0-4.5L40.5 9c-.3-.3-.6-.6-1-.8-.5-.2-1-.4-1.6-.4h-6.7v-3c0-1.9-1.6-3.4-3.4-3.4z" class="st3"/></svg>