<svg xmlns="http://www.w3.org/2000/svg" id="Camada_1" x="0" y="0" version="1.1" viewBox="0 0 54 56" xml:space="preserve"><style>.st3{fill:#031326}</style><path fill="#00c8e2" d="M51.57 25.12l.05 4.63L1.93 47.52l-.52-13.75-.03-4.3 50.17-18.26z"/><path fill="#00dffc" d="M52.05 8.42v3.77L2.01 30.5l.26-7.89v-4.29L52.08 2.3z"/><path fill="none" stroke="#031326" stroke-linecap="round" stroke-linejoin="round" stroke-miterlimit="10" stroke-width="2.5" d="M7 52.63H2.32V2.99h49.97v49.64H34.98"/><g id="surface1_1_"><path d="M15.95 42.87c-.4 0-.73.33-.73.73v3.19c0 .4.33.73.73.73.4 0 .73-.33.73-.73V43.6c0-.41-.33-.73-.73-.73z" class="st3"/><path d="M42.31 29.02h-1.36c.38-.54.6-1.2.6-1.92v-.48c0-1.86-1.52-3.38-3.38-3.38s-3.38 1.52-3.38 3.38v.48c0 .67.2 1.29.53 1.81a5.849 5.849 0 01-4.76-5.74v-.35c0-.58-.23-1.12-.65-1.52-.42-.4-.97-.61-1.55-.59-.2.01-.39.04-.58.1v-3.7l7.57-2.74a.735.735 0 000-1.38l-8.06-2.92a.732.732 0 00-.98.69v10.05c-.18-.06-.38-.09-.58-.1-.58-.02-1.13.19-1.55.59-.42.4-.65.94-.65 1.52v.35c0 2.85-2.05 5.23-4.76 5.74.34-.52.53-1.15.53-1.81v-.48c0-1.86-1.52-3.38-3.38-3.38-1.86 0-3.38 1.52-3.38 3.38v.48c0 .71.22 1.37.6 1.92h-1.36c-1.93 0-3.5 1.57-3.5 3.5v8.33c0 1.27 1.04 2.31 2.31 2.31.4 0 .73-.33.73-.73 0-.4-.33-.73-.73-.73-.46 0-.84-.38-.84-.84v-8.33c0-1.12.91-2.04 2.04-2.04h5.9c4.03 0 7.31-3.28 7.31-7.31v-.35c0-.18.07-.35.2-.47s.3-.19.48-.18c.35.01.63.32.63.68v.31c0 3.9-2.63 7.32-6.4 8.33-.32.09-.54.38-.54.71v6.89h-6.84v-6.23c0-.4-.33-.73-.73-.73-.4 0-.73.33-.73.73v6.96c0 .4.33.73.73.73h.09v6.23c0 .4.33.73.73.73.4 0 .73-.33.73-.73v-6.23h5.18v6.23c0 .4.33.73.73.73.4 0 .73-.33.73-.73v-6.23h.11c.4 0 .73-.33.73-.73v-7.08a10.11 10.11 0 005.47-4.35v7.73c0 .4.33.73.73.73s.73-.33.73-.73V28.4c1.22 2.02 3.14 3.59 5.47 4.35v7.08c0 .4.33.73.73.73h.11v6.23c0 .4.33.73.73.73.4 0 .73-.33.73-.73v-6.23h5.18v6.23c0 .4.33.73.73.73.4 0 .73-.33.73-.73v-6.23h.09c.4 0 .73-.33.73-.73v-6.96c0-.4-.33-.73-.73-.73-.4 0-.73.33-.73.73v6.23h-6.84v-6.9c0-.33-.22-.62-.54-.71a8.634 8.634 0 01-6.4-8.33v-.31c0-.37.28-.67.63-.68.18-.01.35.06.48.18s.2.29.2.47v.35c0 4.03 3.28 7.31 7.31 7.31h5.9c1.12 0 2.04.91 2.04 2.04v1.25c0 .4.33.73.73.73.4 0 .73-.33.73-.73v-1.25c.04-1.93-1.53-3.5-3.46-3.5zm-28.27-2.4c0-1.05.86-1.91 1.91-1.91s1.91.86 1.91 1.91v.48c0 1.05-.86 1.91-1.91 1.91s-1.91-.86-1.91-1.91v-.48zm13.75-14.81l5.17 1.87-5.17 1.87v-3.74zm8.47 14.81c0-1.05.86-1.91 1.91-1.91s1.91.86 1.91 1.91v.48c0 1.05-.86 1.91-1.91 1.91s-1.91-.86-1.91-1.91v-.48z" class="st3"/><path d="M45.08 35.97c-.19 0-.38.08-.52.21-.14.14-.21.33-.21.52s.08.38.21.52c.14.14.33.21.52.21s.38-.08.52-.21c.14-.14.21-.33.21-.52s-.08-.38-.21-.52-.33-.21-.52-.21zm0 2.83c-.4 0-.73.33-.73.73v1.32c0 .46-.38.84-.84.84-.4 0-.73.33-.73.73 0 .4.33.73.73.73 1.27 0 2.31-1.04 2.31-2.31v-1.32a.748.748 0 00-.74-.72zm-6.91 4.07c-.4 0-.73.33-.73.73v3.19c0 .4.33.73.73.73.4 0 .73-.33.73-.73V43.6c0-.41-.32-.73-.73-.73zm-11.11-4.82c-.19 0-.38.08-.52.21-.14.14-.21.33-.21.52s.08.38.21.52c.14.14.33.22.52.22s.38-.08.52-.22.21-.32.21-.52c0-.19-.08-.38-.21-.52a.734.734 0 00-.52-.21z" class="st3"/></g></svg>