<svg xmlns="http://www.w3.org/2000/svg" id="Camada_1" x="0" y="0" version="1.1" viewBox="0 0 49 50" xml:space="preserve"><style>.st1{fill:none;stroke:#444;stroke-linecap:round;stroke-miterlimit:10}</style><path fill="#00dffc" d="M17.6 9.7l-4-7.3c-1.4 0-10.2 3.9-10.2 5.3L2 14.3c0 .2 2.9 3.3 2.9 3.5l-1.6 3-1 19.8 7.4 7.5c.5.3 5.8 1.6 6.4 1.4L48.3 38l-7.8-27.2L27 14l-2.7-4.3c.1-1.4-5.3 0-6.7 0z"/><path d="M10.7 47.6l-6.9-6.9V21c0-1.1.9-2 2-2h3.7m17.9.1h6.9c1.1 0 2 .9 2 2v20.1" class="st1"/><path d="M4.3 40.1H11v7.2M20.5 24l3.7 3.6c.8.7 2 .7 2.8 0 .8-.8.8-2 0-2.8l-3.6-3.6m-13-2.4c-2.2 2-2.4 5.1-.8 6.6 2.3 2.3 8.3.6 12.1-3.2s5-8.8 2.7-11c-1.5-1.5-4.2-1.4-6.9-.2" class="st1"/><path d="M14.6 8.3l4 4c.7.7.6 1.8.4 2.9m-1.8 2.7c-1.8 1.8-4.4 2.4-5.6 1.3l-3.9-4m-2-8.9c-3 3-4.2 6.6-2.6 8.2 1.5 1.5 5.2.4 8.2-2.6 3-3 4.2-6.6 2.6-8.2-1.6-1.6-5.2-.4-8.2 2.6zm22.7 7.9l10.1-2.8c1.1-.3 2.1.4 2.4 1.4L47 36.5c.3 1.1-.4 2.1-1.4 2.4l-9.3 2.4" class="st1"/><path fill="none" stroke="#444" stroke-linecap="round" stroke-miterlimit="10" stroke-width="2.5" d="M26.8 48.4l-14.6.1c-1.4 0-2.8-.5-3.9-1.5l-3.2-2.8C3.6 42.9 2.8 41 2.8 39V21.1c0-1.9 1.5-3.4 3.4-3.3h2.6l-1.9-1.5c-5.4 1-5.9-2.9-5.9-2.9S.5 6.1 9.5 2.5C17.4-.7 15 7.1 15 7.1l2.8 2.9c8-3.3 8.7 3.9 8.7 3.9L38 10.4c1.5-.5 3.1.4 3.5 1.9l6.3 23.8c.4 1.4-.3 2.8-1.6 3.5L37 41.8v1.9"/></svg>