<svg xmlns="http://www.w3.org/2000/svg" version="1.0" viewBox="0 0 50 50"><path fill="#FCC34F" d="M8.333 45.502l7.061-7.061a19.232 19.232 0 006.041 3.041l21.678-7.89c4.929-7.496 4.099-17.668-2.494-24.26-7.544-7.545-19.776-7.545-27.321 0-6.883 6.883-7.466 17.658-1.788 25.226l-7.062 7.061a2.746 2.746 0 103.885 3.883z"/><path fill="#FDCF72" d="M35.79 5.729c-7.237-3.628-16.273-2.436-22.311 3.603a19.19 19.19 0 00-4.067 5.998L35.79 5.729z"/><g fill="#031326"><path d="M41.504 8.448A20.436 20.436 0 0026.96 2.423a20.43 20.43 0 00-14.544 6.025c-6.927 6.926-7.937 17.908-2.535 25.971l-6.315 6.315a3.965 3.965 0 00-1.17 2.826 3.97 3.97 0 001.17 2.825 3.97 3.97 0 002.826 1.171 3.967 3.967 0 002.825-1.171l6.315-6.314a20.412 20.412 0 0011.43 3.478h.002a1.25 1.25 0 00.002-2.5 17.939 17.939 0 01-10.821-3.608l-.867-.65-.037.037c-.38-.324-.751-.66-1.104-1.012a18.255 18.255 0 01-1.012-1.104l.037-.037-.65-.867c-5.357-7.14-4.638-17.281 1.672-23.591a17.95 17.95 0 0112.777-5.292c4.826 0 9.363 1.879 12.776 5.292 6.043 6.043 7.018 15.597 2.316 22.718a1.248 1.248 0 00.354 1.731 1.246 1.246 0 001.731-.354c5.353-8.108 4.246-18.985-2.634-25.864zM7.449 44.619c-.565.564-1.55.564-2.115 0a1.485 1.485 0 01-.438-1.059c0-.399.155-.775.438-1.058l3.894-3.895 2.116 2.116-3.895 3.896zm4.609-8.842c.326.378.665.746 1.017 1.098.352.352.72.691 1.099 1.018l-2.123 2.123L9.935 37.9l2.123-2.123z"/><path d="M37.726 12.226c-5.936-5.937-15.595-5.938-21.532 0-5.937 5.937-5.937 15.596 0 21.532A15.174 15.174 0 0026.96 38.21c3.899 0 7.799-1.483 10.767-4.452 5.935-5.936 5.935-15.596-.001-21.532zm-.707 20.825c-5.548 5.548-14.571 5.546-20.118 0-5.546-5.547-5.546-14.572 0-20.118a14.182 14.182 0 0110.06-4.16 14.18 14.18 0 0110.059 4.16c5.545 5.546 5.545 14.571-.001 20.118z"/><path d="M26.973 22.529a4.004 4.004 0 003.995-3.833v-.204c0-2.201-1.805-3.992-4.024-3.992-2.2 0-3.99 1.763-4.019 3.94h3.14a.278.278 0 010 .556h-4.049a4.03 4.03 0 00-3.579 4.01c0 2.069 1.594 3.774 3.626 3.972a4.939 4.939 0 014.91-4.449zm-1.004-5.247a.718.718 0 110-1.436.718.718 0 010 1.436z"/><path d="M31.881 18.976a4.936 4.936 0 01-4.908 4.48 4.007 4.007 0 00-3.998 3.833v.174a4.027 4.027 0 004.024 4.021 4.025 4.025 0 004.018-3.94h-3.139a.278.278 0 010-.556h3.835a4.024 4.024 0 003.793-4.01 4.028 4.028 0 00-3.625-4.002zm-3.907 9.727a.719.719 0 11-.001 1.437.719.719 0 01.001-1.437z"/></g></svg>