<svg xmlns="http://www.w3.org/2000/svg" id="Layer_1" x="0" y="0" version="1.1" viewBox="0 0 50 50" xml:space="preserve"><style>.st2,.st4{fill:none;stroke:#444;stroke-linecap:round}.st2{stroke-miterlimit:10;stroke-linejoin:round}.st4{stroke-linejoin:bevel}</style><path fill="#ff6b6b" d="M47.6 11.6l.5-.5-1.9-3.8-15.4.4C27.6 7.7 3 4.8 3 8L1.3 18l1.2 23.5 13.5.7 31-11c.8-.5 1.6-17.7.6-19.6z"/><path fill="none" stroke="#444" stroke-linecap="round" stroke-linejoin="round" stroke-miterlimit="10" stroke-width="2.5" d="M32.7 42.2h-27c-1.9 0-3.4-1.2-3.4-2.7V9.9c0-1.5 1.5-2.7 3.4-2.7h39c1.9 0 3.4 1.2 3.4 2.7v24.7"/><path d="M38.4 14.7L22.9 26.8 15.6 19 8 31.6" class="st2"/><path fill="none" stroke="#444" stroke-dasharray="0,3" stroke-linecap="round" stroke-linejoin="round" stroke-miterlimit="10" stroke-width="1.5" d="M40 32.1L26.2 17.3 15 30 7.2 19"/><path d="M7.7 13.7v23.6h35.4" class="st2"/><path d="M40.5 35.3l-.9-.4" class="st4"/><path fill="none" stroke="#444" stroke-dasharray="1.8756,1.8756" stroke-linecap="round" stroke-linejoin="bevel" d="M37.9 34.1l-8.3-3.9-11.9 3.6"/><path d="M16.8 34l-.9.3-.9-.6" class="st4"/><path fill="none" stroke="#444" stroke-dasharray="2.1964,2.1964" stroke-linecap="round" stroke-linejoin="bevel" d="M13.3 32.5l-2.7-1.9"/><path d="M9.7 29.9l-.9-.5" class="st4"/></svg>