<svg xmlns="http://www.w3.org/2000/svg" id="Layer_1" x="0" y="0" version="1.1" viewBox="0 0 50 50" xml:space="preserve"><style>.st0{fill:#dc5e82}.st1{fill:#f56991}.st2{fill:#031326}</style><path d="M48 26.5l-7.1-12.8L3.4 27.4l-2.1 4.8v3.3s.1.1.2.1h.2s.4.1 1.1.2h.3c.9.1 1.9.3 3.1.5.3 0 .6.1.9.1 1.5.2 3.3.5 5.2.8.3 0 .5.1.8.1.8.1 1.7.2 2.5.4 1.2.2 2.4.3 3.5.5L47.2 28l-.2-.7.7-.1c.2 0 .3-.1.3-.2v-.5z" class="st0"/><path d="M38.4 9.2c-.1-.1-.3-.2-.6-.2l-17.3 3.2c-.2-.1-.4-.1-.6 0l-.3.2-.6.1c-.2 0-.2.1-.3.2v.3L6 20.3c-.1.1-.1.1-.1.2v1.2l-2.4 5.7L41 13.7l-2.6-4.5z" class="st1"/><path d="M32.2 40.4h-.1L2.2 36.1c-.2 0-.3-.1-.4-.2 0-.1-.1-.2 0-.3l4.7-10.8c0-.1.1-.2.3-.2l.1.2c-.1 0-.1.1-.1.1L2 35.7s.1.1.2.1L32 40.1c.2 0 .4-.1.4-.1l3.3-7.8.2.1-3.3 7.8c.1.2-.2.3-.4.3z" class="st2"/><path d="M32.2 37.7h-.1L2.2 33.4c-.2 0-.3-.1-.4-.2 0-.1-.1-.2 0-.3l4.4-10.3.2.1L2 33s.1.1.2.1L32 37.4c.2 0 .4-.1.4-.1l1.8-4.3.2.1-1.8 4.3c.1.2-.2.3-.4.3z" class="st2"/><path d="M32.2 40.4h-.1c-.4-.1-29.6-4.2-29.6-4.2-.3 0-.5-.1-.6-.2l-.1-.2v-3.2h.1l24.9 3.6v.2L2 32.8v3s.2.1.4.1c0 0 29.3 4.2 29.6 4.2.2 0 .3 0 .4-.1v-2.9l-4.3-.6v-.2l4.5.6v3.2c.1.1-.1.3-.4.3z" class="st2"/><path d="M27.7 36.8v-3l.8-.4.2.2-.8.4v2.4l7.8-4.2.1.2z" class="st2"/><path d="M27.8 34.2L6.4 21.8c-.1-.1-.2-.2-.2-.3 0-.1.1-.2.2-.3l12.9-7.4.1.2-12.9 7.5c-.1 0-.1.1-.1.1l.1.1L27.9 34l-.1.2z" class="st2"/><path d="M28.4 34.1l-22-12.7v2.9s0 .1.1.1l.4.2-.1.2-.4-.2s-.2-.1-.2-.3V21h.2l22.2 12.8-.2.3z" class="st2"/><path d="M27.7 36.8s-.1 0 0 0L6.8 24.7c-.1 0-.1-.1 0-.2 0-.1.1-.1.2 0l20.8 12.1c.1 0 .1.1 0 .2h-.1zm.8-3.1v-3h.1l18-3.4v3.1h-.1l-18 3.3zm.2-2.7v2.5l17.6-3.2v-2.6L28.7 31z" class="st2"/><path d="M29 30.9c-.2 0-.5-.1-.5-.2l-9.4-16.9v-.3c.1-.1.2-.2.4-.2l18.4-3.4c.3-.1.6 0 .7.2L48 27v.3c-.1.1-.2.2-.4.3L29.2 31c-.1-.1-.2-.1-.2-.1zM38 10h-.1l-18.4 3.4c-.1 0-.2.1-.2.1l9.4 16.9c0 .1.2.2.4.1l18.4-3.4c.1 0 .2-.1.2-.1l-9.4-16.9s-.1-.1-.3-.1z" class="st2"/><path d="M26.6 27.5L19 14.1v2.6s0 .1.1.2c0 0 .1.1.1.2.5.8 1.7 3 3.1 5.6l2.5 4.5-.2.1-2.5-4.5c-1.4-2.5-2.6-4.7-3.1-5.6 0-.1-.1-.1-.1-.2-.1-.1-.1-.2-.1-.3v-3.5l8 14.2-.2.1z" class="st2"/><path d="M28.7 33.9h-.2c-.2 0-.3-.1-.5-.4-.1-.2-1.9-3.5-3.5-6.3l.2-.1c2.1 3.9 3.4 6.1 3.5 6.3.1.2.2.3.2.3v-2.9l-1.9-3.3.2-.1 1.9 3.3v3.2zm4.6-13.7c1.4-.6 2.1-2.3 1.5-3.7l-.1-.1c-.6-1.5-2.4-2.1-3.9-1.5-1.5.6-2.1 2.4-1.5 3.8l2.1-.9c.1 0 .2 0 .3.1s0 .2-.1.3L29 19.3c-1.3.7-1.8 2.3-1.2 3.7.6 1.4 2.2 2 3.6 1.6-.6-1.7.2-3.7 1.9-4.4zM31.1 17c-.3.1-.6 0-.7-.3s0-.6.3-.7.6 0 .7.3 0 .6-.3.7z" class="st2"/><path d="M35.6 16.4c.6 1.7-.2 3.7-2 4.4-1.4.6-2.1 2.3-1.5 3.7l.1.1c.7 1.5 2.4 2.2 3.9 1.5 1.5-.6 2.1-2.3 1.5-3.8l-2.1.9c-.1 0-.2 0-.3-.1s0-.2.1-.3l2.6-1.1c1.4-.7 2-2.4 1.3-3.8-.6-1.3-2.2-2-3.6-1.5zm.2 7.6c.3-.1.6 0 .7.3.1.3 0 .6-.3.7-.3.1-.6 0-.7-.3 0-.3.1-.6.3-.7z" class="st2"/><path d="M32.6 41.4h-.2L.7 36.7l-.1-4.5L5 21.7v-1.6L18.3 12l2.3-.4 18.3-3.1 9.9 17.9.1 1.7-.6.2 1.1 2.5-2.7.5c-.7.1-1.3-.3-1.5-1-.1-.6.2-1.1.7-1.4l-1-1.9 1.1-.4-8.5-15.3-18.4 3.1-11.6 7.1v.7L3.1 32.7v1.9L32.8 39c.7.1 1.1.7 1 1.4-.1.6-.6 1-1.2 1z" class="st2"/><circle cx="-39.4" cy="62.7" r="20" class="st1"/><circle cx="-19.4" cy="62.7" r="20" class="st0"/></svg>