<svg xmlns="http://www.w3.org/2000/svg" id="Layer_1" x="0" y="0" version="1.1" viewBox="0 0 50 50" xml:space="preserve"><style>.st2{fill:#031326}</style><path fill="#e56060" d="M4.1 25.5v.8c0 6.1 2.6 11.6 6.8 15.4-.1.4-.2.7-.2 1.2 0 2.2 1.8 4 4 4 1.1 0 2-.4 2.7-1.1 1.6.6 3.3 1 5.1 1.3l17.6-6.4c3.5-3.7 5.7-8.8 5.7-14.3v-.9c1.2-.7 2.1-2 2.1-3.5 0-2.2-1.7-3.9-3.8-4-2.7-6.4-8.4-11-15.3-12.3-.5-1.7-2-2.9-3.8-2.9S21.7 4 21.2 5.7C14.2 7 8.5 11.7 5.8 18c-2.1.2-3.8 1.9-3.8 4 0 1.5.9 2.8 2.1 3.5z"/><path fill="#ff6b6b" d="M36.7 8.9c-2.3-1.6-5-2.7-7.8-3.2-.5-1.7-2-2.9-3.8-2.9S21.8 4 21.3 5.7C14.2 7 8.5 11.7 5.8 18c-1.9.1-3.4 1.6-3.7 3.5L36.7 8.9z"/><path d="M25 11c-8.4 0-15.2 6.8-15.2 15.2S16.6 41.4 25 41.4s15.2-6.8 15.2-15.2C40.2 17.9 33.4 11 25 11zm0 30.3c-8.3 0-15-6.7-15-15s6.7-15 15-15 15 6.7 15 15c0 8.2-6.7 15-15 15z" class="st2"/><path d="M49.2 21.8c0-2.5-1.8-4.7-4.2-5.2C42 10.4 36.4 6 29.8 4.5c-.9-1.8-2.7-3-4.8-3s-3.9 1.2-4.8 3C13.5 6 7.8 10.5 4.9 16.8c-2.4.5-4.1 2.6-4.1 5.1 0 1.6.8 3.1 2 4.1v.1c0 5.9 2.4 11.7 6.7 15.8 0 .3-.1.5-.1.7 0 2.9 2.4 5.3 5.3 5.3 1.1 0 2.1-.3 3-.9 2.4.8 4.8 1.3 7.3 1.3 2.4 0 4.9-.4 7.2-1.2.9.6 1.9.9 2.9.9.7 0 1.2-.6 1.2-1.2s-.6-1.2-1.2-1.2c-.7 0-1.3-.3-1.9-.7l-.4-.3c1.8-.8 3.4-1.8 4.9-3-.1.4 0 .8.3 1.1.5.5 1.3.6 1.8.1 4.7-4.2 7.3-10.2 7.3-16.4v-.3c1.3-1.1 2.1-2.6 2.1-4.3zm-5.1-2.7c1.5.1 2.6 1.3 2.6 2.8 0 1-.6 1.9-1.5 2.4l-.4.2c-.2-1.9-.6-3.7-1.3-5.4h.6zm-21.7-13c.3-1.2 1.4-2 2.6-2s2.3.8 2.6 2l.1.5c-.9-.1-1.8-.2-2.8-.2s-1.9.1-2.8.2l.3-.5zM17 44.5l-.4.4c-.5.5-1.2.8-1.9.8-1.5 0-2.8-1.2-2.8-2.8 0-.2 0-.5.1-.8l.1-.5c1.6 1.1 3.2 2.1 4.9 2.9zM5.1 24.6l-.4-.2c-.9-.5-1.4-1.4-1.4-2.4 0-1.4 1.1-2.6 2.6-2.7h.5c-.7 1.6-1.1 3.4-1.3 5.3zm27.6 19.8c-1.3.5-2.6.9-3.9 1.2-1.7.3-3.5.5-5.3.3-1.8-.1-3.6-.5-5.2-1.1-.1 0-.2-.1-.3-.1l-.7-.3c-1.8-.8-3.5-1.8-5-3.1l-.5-.4c-4.1-3.7-6.4-9-6.4-14.5V25c.1-2.2.6-4.3 1.4-6.2l.1-.2v-.1c.2-.4.4-.9.6-1.3.1-.2.2-.3.3-.5.3-.5.5-.9.8-1.4v-.1c.3-.5.7-.9 1-1.3l.2-.2c.4-.4.8-.9 1.2-1.3l.1-.1c.4-.4.8-.8 1.3-1.1l.1-.1c.4-.4.9-.7 1.3-1 .1-.1.2-.1.3-.2.4-.2.8-.5 1.1-.7.2-.1.3-.2.5-.3.4-.2.7-.4 1.1-.5.3-.1.5-.2.8-.3.2-.1.4-.2.6-.2.5-.2 1-.3 1.6-.5.1 0 .3-.1.4-.1.3-.1.7-.2 1-.2h.1c1.1-.2 2.3-.3 3.5-.3s2.3.1 3.5.3h.1c.3.1.7.1 1 .2.1 0 .3.1.4.1.5.1 1.1.3 1.6.5.4-.1.6 0 .8.1.3.1.5.2.8.3s.6.3.9.5c.3.1.5.3.8.4.3.2.6.4.9.5.2.1.3.2.5.3l1.2.9c.1.1.2.2.4.3.3.3.7.6 1 .9.1.1.2.1.2.2.4.4.7.7 1 1.1.1.1.2.3.4.4.3.4.6.7.8 1.1.1.2.3.4.4.6.2.3.3.5.5.8.1.2.3.5.4.7.2.3.3.6.5 1 0 .1.1.1.1.2l.2.4c.8 1.8 1.2 3.8 1.4 5.9l.1 1.2v.5c0 5.5-2.4 10.9-6.5 14.6-1.3 1.2-2.7 2.2-4.3 3l-1.2.6z" class="st2"/><path d="M24.9 25.8c2 0 3.6-1.6 3.7-3.5v-.2c0-2-1.7-3.7-3.7-3.7S21.2 20 21.2 22h2.9c.1 0 .3.1.3.3 0 .1-.1.3-.3.3h-3.7c-1.8.2-3.3 1.8-3.3 3.7 0 1.9 1.5 3.5 3.3 3.6.2-2.3 2.2-4.1 4.5-4.1zM24 21c-.4 0-.7-.3-.7-.7 0-.4.3-.7.7-.7s.7.3.7.7c-.1.4-.4.7-.7.7z" class="st2"/><path d="M29.4 22.5c-.2 2.3-2.1 4.1-4.5 4.1-2 0-3.6 1.6-3.7 3.5v.2c0 2 1.7 3.7 3.7 3.7s3.6-1.6 3.7-3.6h-2.9c-.1 0-.3-.1-.3-.3 0-.1.1-.3.3-.3h3.5c1.9-.1 3.5-1.7 3.5-3.7 0-1.8-1.4-3.4-3.3-3.6zm-3.6 8.9c.4 0 .7.3.7.7 0 .4-.3.7-.7.7-.4 0-.7-.3-.7-.7.1-.4.4-.7.7-.7z" class="st2"/></svg>