<svg xmlns="http://www.w3.org/2000/svg" id="Camada_3" x="0" y="0" version="1.1" viewBox="0 0 50 50" xml:space="preserve"><style>.st3{stroke-width:.5}.st3,.st4{fill:none;stroke:#444;stroke-linecap:round;stroke-linejoin:round;stroke-miterlimit:10}</style><path fill="#46b8b0" d="M45.3 4.1H4.2C2.8 4.1 2.8 8 2.8 9.4l-.2 12.9-.5 10.2 1.2 11.8 12.4.6 32.1-11.4V6.7c0-1.4-1.1-2.6-2.5-2.6z"/><path fill="none" stroke="#444" stroke-linecap="round" stroke-linejoin="round" stroke-miterlimit="10" stroke-width="2.5" d="M32.7 45.6h-27c-1.9 0-3.4-1.6-3.4-3.5v-35c0-1.9 1.5-3.5 3.4-3.5h39c1.9 0 3.4 1.6 3.4 3.5v28.5"/><path fill="none" fill-rule="evenodd" stroke="#444" stroke-miterlimit="10" d="M15.7 17.1c.2.9.5 3.3 1.9 1.9l1.7-1.7c.1-.1.1-.2.2-.3l7.6-7.6c.8-.8 1.8-1.2 2.7-1.4 1.1-.1 2.2.2 3 .9l.8.8c.8.8 1.1 1.9.9 3-.1 1-.6 1.9-1.4 2.7L25 23.5c-.9.9.3 2.1 1.2 1.2l8.1-8.1c.8-.8 1.8-1.2 2.7-1.4 1.1-.1 2.2.2 3 .9l.8.8c.8.8 1.1 1.9.9 3-.1 1-.6 1.9-1.4 2.7l-4.8 4.8c-.7.7-1.8.7-2.4 0-.7-.7-.7-1.8 0-2.4l4.8-4.8c.9-.9-.3-2.1-1.2-1.2l-8.1 8.1c-.6.9-1.6 1.4-2.5 1.5-1.1.1-2.2-.2-3-.9l-.8-.8c-.8-.8-1.1-1.9-.9-3 .1-1 .6-1.9 1.4-2.7l8.1-8.1c.9-.9-.3-2.1-1.2-1.2l-9.6 9.6c-.8.8-1.8 1.2-2.7 1.4-1 .1-3.8-.8-5.7-.9-.8 0-1.5-.7-1.6-1.4l-.8-3.8c-.1-.7.4-1.3 1.1-1.2l3.8.2c.6 0 1.4.6 1.5 1.3h0z" clip-rule="evenodd"/><path d="M18.9 22.6v6.7l-2.8 2.8h-2.9" class="st3"/><circle cx="11.8" cy="32.1" r="1.4" class="st4" transform="rotate(-89.155 11.792 32.106) scale(1.00001)"/><path d="M31.7 24.5v4.8l2.8 2.8h2.9" class="st3"/><circle cx="38.8" cy="32.1" r="1.4" class="st4" transform="rotate(-.85 38.749 32.107) scale(1.00001)"/><circle cx="24.6" cy="34.7" r="1.4" class="st4" transform="rotate(-13.326 24.569 34.75)"/><path d="M24.7 28.7l-.1 4.6" class="st3"/><circle cx="7.1" cy="36" r="1.4" class="st4" transform="rotate(-13.239 7.133 35.998)"/><path d="M8.5 36h8.2l5-5" class="st3"/><circle cx="43.1" cy="36" r="1.4" class="st4"/><path d="M41.7 36h-8.3l-4.8-4.9" class="st3"/><path fill="#444" fill-rule="evenodd" d="M10.7 19.6c-.3-.3-.3-.7 0-.9.3-.3.7-.3.9 0 .3.3.3.7 0 .9-.2.3-.6.3-.9 0zm1.8-1.8c-.3-.3-.3-.7 0-.9.3-.3.7-.3.9 0 .3.3.3.7 0 .9-.2.2-.6.2-.9 0z" clip-rule="evenodd"/></svg>