<svg xmlns="http://www.w3.org/2000/svg" id="Camada_3" x="0" y="0" version="1.1" viewBox="0 0 50 50" xml:space="preserve"><style>.st2{fill:#444}.st3{fill:none;stroke:#444;stroke-linecap:round;stroke-linejoin:round;stroke-miterlimit:10}</style><path fill="#f56991" d="M33.63 2.57L20.5 1.33c-1.23 0-14.82 7.19-14.82 8.42L.83 21.29 42.01 6.64c0-1.23-7.15-4.07-8.38-4.07z"/><path fill="#dc5e82" d="M.83 21.29l.83 23.06.94 3.3L49 31.15c.65-.23-.74-17.34-.95-17.99l-6.03-6.52L.83 21.29z"/><path d="M25.07 19.86c2.62 0 4.68-2.06 4.77-4.59v-.28c0-2.62-2.15-4.77-4.87-4.77-2.62 0-4.77 2.15-4.87 4.77h3.74c.19 0 .37.19.37.37 0 .19-.19.37-.37.37h-4.86c-2.34.09-4.21 2.15-4.21 4.68s1.87 4.59 4.4 4.77c.28-2.98 2.81-5.32 5.9-5.32zm-1.22-6.27c-.47 0-.84-.37-.84-.84s.37-.84.84-.84.84.37.84.84c0 .46-.37.84-.84.84z" class="st2"/><path d="M30.96 15.55c-.28 3-2.81 5.43-5.9 5.43-2.62 0-4.68 2.06-4.77 4.59v.19c0 2.71 2.15 4.87 4.87 4.87 2.62 0 4.77-2.15 4.87-4.77h-3.74c-.19 0-.37-.19-.37-.37s.19-.37.37-.37h4.59c2.43 0 4.49-2.15 4.49-4.68s-1.97-4.61-4.41-4.89zm-4.68 11.7c.47 0 .84.37.84.84s-.37.84-.84.84-.84-.37-.84-.84c0-.46.38-.84.84-.84z" class="st2"/><path d="M25.16 31.84v10.69l-.27-.27a4.88 4.88 0 00-3.46-1.43H10.42a3.24 3.24 0 01-3.24-3.24V21.71a3.24 3.24 0 013.24-3.24h2.59v1.46m24.3 20.89h-8.68c-1.13 0-2.21.45-3.01 1.25l-.45.45V31.84" class="st3"/><path fill="none" stroke="#444" stroke-linecap="round" stroke-linejoin="round" stroke-miterlimit="10" stroke-width=".5" d="M4.92 20.96v17.6c0 2.86 2.32 5.18 5.18 5.18h12.4s.73 2.19 2.67 2.19 2.67-2.19 2.67-2.19h8.26m9.27-22.78v16.37m-33.7-26.55l5.08 3m1.36-6.83l2.32 3.06m4.5-4.65v3.38m7.63-1.79l-2.31 3.06m3.68 3.77l5.08-3"/><path d="M34.55 34.3l4.92 11.3 2.21-2.35 2.43 2.43 1.94-1.94-2.67-2.67 1.94-1.95zm2.03-14.24c0 6.51-5.27 11.78-11.78 11.78s-11.78-5.27-11.78-11.78m23.56-.13v-1.46h3.32a3.24 3.24 0 013.24 3.24v16.2" class="st3"/><path fill="none" stroke="#444" stroke-linecap="round" stroke-linejoin="round" stroke-miterlimit="10" stroke-width="2.5" d="M48.84 39.99V20.57c0-11.55-10.59-19.09-23.4-19.09-12.59 0-23.56 7.68-23.95 18.9h-.02v24.9c0 1.88 1.74 3.4 3.89 3.4h33.63"/></svg>