<svg xmlns="http://www.w3.org/2000/svg" id="Camada_3" x="0" y="0" version="1.1" viewBox="0 0 50 50" xml:space="preserve"><style>.st3,.st5{fill:none;stroke:#444;stroke-linejoin:round;stroke-miterlimit:10}.st5{stroke-linecap:round}</style><path fill="#fdcf72" d="M47.25 4.14H1.82V22.5L47.25 6.33z"/><path fill="#fcc34f" d="M1.82 22.5v24.51l45.43-16.17V6.33z"/><g id="XMLID_78_"><path fill="none" stroke="#444" stroke-linejoin="round" stroke-miterlimit="10" stroke-width=".5" d="M19.98 13.12V10.8m8.89 2.77v-2.91h4.91M14.47 29.67h-3.6M8.61 12.52v8.13h11.32l.03 4.33m9.12 15.94v-1.47m-9.1-.03v1.6h-9.62m29.72-20.37h-5.4m5.15 11.93h1.89v5.22"/><circle cx="29.08" cy="43.31" r="2.22" class="st3"/><circle cx="8.34" cy="41.02" r="2.22" class="st3"/><circle cx="8.34" cy="29.67" r="2.22" class="st3"/><circle cx="8.61" cy="10.3" r="2.22" class="st3"/><circle cx="19.96" cy="8.34" r="2.22" class="st3"/><circle cx="36" cy="10.66" r="2.22" class="st3"/><circle cx="42.3" cy="20.65" r="2.22" class="st3"/><circle cx="41.84" cy="40.22" r="2.22" class="st3"/></g><path fill="#444" d="M21.79 14.89l2.7-.81s.31 1.2-.8 1.53c-.99.3-1.9-.72-1.9-.72z"/><path d="M18.92 17.49h-2.65l-1.24-1.09m.13 2.23l1.11-1.14" class="st5"/><path fill="none" stroke="#444" stroke-linecap="round" stroke-linejoin="round" stroke-miterlimit="10" stroke-width="2.5" d="M15.82 47.01H3.95C2.23 47.01.8 45.59.8 43.86V7.14c0-1.72 1.42-3.15 3.15-3.15h41.09c1.72 0 3.15 1.42 3.15 3.15v21.92"/><path d="M18.92 13.32c-.68 0-1.33.44-1.24 1.2.2 1.69 1.18 4.3 5.34 4.27l6.16-.04s1.67.01 1.66 2.41l-.01 2.39v1.38h-9.86s-6.68-.19-6.68 5.22c0 4.29 6.74 3.87 6.74 3.87h6.48c1.6 0 3.19-.3 4.59-.97 1.06-.51 2-1.22 2-2.15 0 0 1.82.45.52 2.28-.51.71-1.44 1.23-2.4 1.61-1.43.56-2.99.81-4.55.81H16.83s-3.14-.14-4.22 2.49c-.25.6.22 1.25.95 1.32.68.06 1.72.11 3.31.11 5.11 0 5.11-.05 5.11-.05h7.11s8.47-.02 10.39-5.24c1.93-5.23-4.81-7.83-4.81-7.83v-5.82c0-1.7.11-3.63-1.09-4.96-1.44-1.59-3.14-2.36-7.1-2.42-3.84-.04-6.31.12-7.56.12z" class="st5"/><path d="M29.4 30.18H18.56s-.81-.04-.81-.6c0-.56.76-.61.76-.61h10.9s.95 0 .95.7c-.01.53-.96.51-.96.51z" class="st5"/></svg>