<svg xmlns="http://www.w3.org/2000/svg" id="Camada_3" x="0" y="0" version="1.1" viewBox="0 0 50 50" xml:space="preserve"><style>.st2{fill:#444}</style><path fill="#ce9cc6" d="M28.79 2.03c-.81-.67-2.11-.21-3.2-.21s-2.31-.35-3.2.21C7.77 11.28 3.33 13.14 4.75 20.75L38.93 8.59c-7.27-3.62-5.72-2.91-10.14-6.56z"/><path fill="#c18cbd" d="M38.93 8.59L4.75 20.75c-.3 1.54-.13 4.38-.13 6.01 0 4.51 0 3.32.12 7.5.15 4.89 6.27 7.32 11.28 9.45L45.8 33.03c.3-1.54-.01-6.33 0-7.95.13-14.94-1.38-11.91-6.87-16.49z"/><path d="M25.21 24.56c2.69 0 4.87-2.05 5-4.75v-.26c0-2.69-2.18-5-5-5-2.69 0-5 2.18-5 4.87h3.85c.13 0 .38.13.38.38 0 .26-.13.38-.38.38h-5c-2.44.26-4.49 2.44-4.49 5s1.92 4.62 4.49 4.87c.38-3.18 2.94-5.49 6.15-5.49zm-1.28-6.54c-.51 0-.9-.38-.9-.9 0-.51.38-.9.9-.9.51 0 .9.38.9.9-.01.52-.39.9-.9.9z" class="st2"/><path d="M31.24 20.08c-.26 3.08-2.95 5.52-6.03 5.52-2.69 0-4.87 2.05-5 4.75v.26c0 2.69 2.18 5 5 5 2.69 0 4.87-2.18 5-4.87h-3.85c-.13 0-.38-.13-.38-.38 0-.13.13-.38.38-.38h4.75c2.57-.13 4.75-2.31 4.75-5-.13-2.47-2.06-4.65-4.62-4.9zm-4.75 12.05c.51 0 .9.38.9.9s-.38.9-.9.9-.9-.38-.9-.9c0-.51.39-.9.9-.9z" class="st2"/><g fill="none" stroke="#444" stroke-miterlimit="10"><path stroke-linecap="round" stroke-linejoin="round" stroke-width="2.5" d="M35.86 43.02l-8.08 4.63c-1.55.91-3.47.91-5.02 0L7.2 38.54a4.957 4.957 0 01-2.45-4.28V15.9c0-1.76.93-3.39 2.45-4.28L22.76 2.5c1.55-.91 3.47-.91 5.02 0l15.56 9.12c1.52.89 2.45 2.52 2.45 4.28v17.13"/><path stroke-width=".25" d="M34.04 6.17l-8.77 5.13-11.75 6.89m32.23 5.21l-8.76-5.14-11.76-6.88m11.67 27.4V18.27M16.34 43.99l8.77-5.14 11.75-6.88M4.62 26.76l8.77 5.13 11.76 6.89M13.47 7.84v24.05"/></g></svg>