<svg xmlns="http://www.w3.org/2000/svg" id="Layer_1" x="0" y="0" version="1.1" viewBox="0 0 50 50" xml:space="preserve"><style>.st3{fill:#444}</style><path fill="#fcc34f" d="M47.7 11.6l.8 5.2L2.4 33.6l-.5-10.9-.1-6.2L42.1 1.9l5.2 2.3z"/><path fill="#fdcf72" d="M46.1 2l2.3 3.2L1.5 21.9 2.6 4.8l3-2.9 29.1-.2z"/><path fill="none" stroke="#444" stroke-linecap="round" stroke-linejoin="round" stroke-miterlimit="10" stroke-width="2.5" d="M18.1 48.3H5.5c-1.9 0-3.4-1.6-3.4-3.5v-39c0-2 1.5-3.5 3.4-3.5h39c1.9 0 3.4 1.6 3.4 3.5v24.6"/><circle cx="8.2" cy="8.2" r="1.4" class="st3"/><circle cx="12.1" cy="8.2" r="1.4" class="st3"/><circle cx="15.9" cy="8.2" r="1.4" class="st3"/><path d="M43.5 41.5l-3.5-3c1.6-2.3 2.5-5.1 2.5-8.1 0-8-6.5-14.5-14.5-14.5s-14.5 6.5-14.5 14.5S20 44.9 28 44.9c2.9 0 5.7-.9 7.9-2.4l3.8 3.3s.6.6 1.2-.1l2.7-3.1c0 .1.6-.6-.1-1.1zM28 38.7c-4.6 0-8.4-3.7-8.4-8.4s3.7-8.4 8.4-8.4 8.4 3.7 8.4 8.4-3.8 8.4-8.4 8.4z" class="st3"/></svg>