<svg xmlns="http://www.w3.org/2000/svg" id="Layer_1" x="0" y="0" version="1.1" viewBox="0 0 50 50" xml:space="preserve"><style>.st2{fill:#031326}</style><path fill="#7ed0d6" d="M46.7 7.3c0-2.2-1.8-4-4-4H7.3c-2.2 0-4 1.8-4 4v17.3L46.7 8.8V7.3z"/><path fill="#71bac0" d="M46.7 8.8L3.3 24.6v18.2c0 1.3.6 2.5 1.6 3.2l41.8-15.2v-22z"/><path d="M27.3 26.7l.1-3 .1-.6v-.3h-.4l-1.6 3.4-.4.6-.7.5-.5.3-.7.2v3.4h1.6l.3.1.9.7h3.4l.7-.7v-4.5l-.2-.1zm-7.4.4H22v4.8h-2.1z" class="st2"/><path d="M37.3 29.2l-.9-1.5v-.4c0-.1.1-.1.1-.2.2-.3.4-.6.5-1 .1-.2.2-.4.4-.6.4-.7.3-1.4-.2-2-.2-.3-.5-.4-.8-.6-.3-.2-.7-.4-1-.6-.1-.1-.2-.1-.3-.2H35s-.2-.1-.1 0c0 0-.1 0-.1-.1l-.1-.1s0-.1-.1-.1v-2.5c-.1-.7-.7-1.2-1.3-1.3-.3-.1-.6 0-.9 0h-2l-.1-.1v-.2c-.1-.1-.1-.2-.2-.3-.2-.3-.4-.7-.6-1-.2-.3-.3-.6-.6-.8-.6-.5-1.3-.5-2-.2-.5.3-1 .6-1.6.9-.1 0-.1.1-.2.1h-.7c-.2-.1-.4-.2-.6-.4-.3-.2-.6-.4-.9-.5-.4-.2-.7-.4-1.2-.3-.6.1-1.1.4-1.4.9-.2.3-.3.6-.5.8-.2.3-.3.5-.5.8v.1l-.1.1s-.1 0-.1.1h-2.2c-.5 0-1 .2-1.3.5-.3.4-.5.8-.5 1.3v2.3l-.1.1c.1-.1-.1 0-.1.1h-.1c-.3.2-.6.3-.9.5-.3.2-.5.3-.8.5-.5.3-.8.8-.9 1.4 0 .4.1.8.3 1.2.2.3.4.6.6 1 .1.2.3.4.4.6v.1s0 .1 0 0v.3c0 .1-.1.1-.1.2-.3.5-.6 1.1-.9 1.6-.3.7-.2 1.5.3 2 .2.2.5.4.8.5.3.2.7.4 1 .6.1.1.2.1.3.2 0 0 .1 0 .1.1l.1.1s0 .1.1.1v2.5c.1.6.7 1.2 1.4 1.3h2.8l.1.1s0 .1.1.1v.1c.1.1.1.2.2.3.2.3.4.7.6 1 .2.3.4.6.7.9.5.4 1.3.4 1.9.1.2-.1.4-.3.7-.4.3-.2.6-.4.9-.5.1 0 .1-.1.2-.1h.5c.5.3 1.1.6 1.6.9.1 0 .1.1.2.1.3.2.7.2 1.1.2.6-.1 1-.4 1.3-.9.3-.6.6-1.1 1-1.7v-.1s0-.1.1-.1l.1-.1h.3c.1 0 .1 0 0 0h2.1c.5 0 1-.2 1.4-.6.3-.4.5-.8.5-1.3v-2.2s0-.1.1-.1l.1-.1s.1 0 .1-.1h.1c.5-.3 1.1-.6 1.6-.9.5-.3.9-.9.9-1.5-.3-.3-.4-.6-.6-1zM31 31.6l-.2.3-1 .9-.2.1h-3.8l-.3-.1-.9-.8h-1.8v.4l-.3.3h-3.1l-.4-.3v-5.9l.3-.3h3.1l.3.3v.4h.4l.4-.1.4-.2.5-.4.3-.4 1.7-3.7.3-.2H28l.3.3v1.2l-.1.6v1.8l2.1.1.5.3.2.3v5.1z" class="st2"/><path d="M46.7 32.3c.7 0 1.2-.6 1.2-1.2V7.3c0-2.9-2.3-5.2-5.2-5.2H7.3c-2.9 0-5.2 2.3-5.2 5.2v35.5c0 2.9 2.3 5.2 5.2 5.2h35.5c2.9 0 5.2-2.3 5.2-5.2 0-.7-.6-1.2-1.2-1.2s-1.2.6-1.2 1.2c0 1.5-1.2 2.7-2.7 2.7H7.3c-1.5 0-2.7-1.2-2.7-2.7V11.6h40.9V31c-.1.7.5 1.3 1.2 1.3zM4.6 9.1V7.3c0-1.5 1.2-2.7 2.7-2.7h35.5c1.5 0 2.7 1.2 2.7 2.7v1.9H4.6z" class="st2"/><circle cx="35.5" cy="7.4" r="1.1" class="st2"/><circle cx="38.7" cy="7.4" r="1.1" class="st2"/><circle cx="42" cy="7.4" r="1.1" class="st2"/></svg>