<svg xmlns="http://www.w3.org/2000/svg" id="Camada_3" x="0" y="0" version="1.1" viewBox="0 0 50 50" xml:space="preserve"><style>.st3{fill:#444}</style><path fill="#fcc34f" d="M48.35 16.7l.75 5.21L3.04 38.66 2.5 27.77l-.04-6.24L47.03 5.38l.87 3.87z"/><path fill="#fdcf72" d="M46.17 2.17l2.25 3.24L1.58 22.15 2.69 4.97l2.98-2.89 29.05-.17z"/><path fill="none" stroke="#444" stroke-linecap="round" stroke-linejoin="round" stroke-miterlimit="10" stroke-width="2.5" d="M24.97 48.49H5.5c-1.87 0-3.39-1.58-3.39-3.54V6.04c0-1.95 1.52-3.54 3.39-3.54h39c1.87 0 3.39 1.58 3.39 3.54v25.89"/><path d="M14.37 15.27c1.46.32 2.95.52 4.44.6 3.22.12 8.05-1.34 8.09-1.35.3-.05.57-.21.76-.44-1.54-1.49-6.98-4.49-9.22-4.86-2.42-.36-6.73 2.96-7.01 3.54-.15.5-.26 1.02-.33 1.54 1.05.42 2.15.75 3.27.97zM7.69 41.39c-.48-1.7-.59-3.22-.82-4.97-1.05.93-2.89 3.5-1.76 4.87.76.92 1.78.57 2.58.1zm3.48-23.51c-.27-1.56-1.21-5.06-2.97-4.29-1.76.77-1.01 3.21-.31 5.23.97-.66 2.12-.99 3.28-.94zm-2.54-3.04c1.04-.38 1.43.91 1.4 2.41-.26-.74-.82-1.94-1.24-1.82-.42.12-.35 1.62-.35 1.62s-.86-1.85.19-2.21zM7.29 18.9c-.23-.55-.44-1.11-.61-1.67-1.22.34-1.47.67-1.45.97.01.18.89.79 2.46 1.41 0 .01-.31-.52-.4-.71zm11.92 2.79c3.46-.05 6.9-.59 10.21-1.6 0 0-1.1-.68-4.25-1.41-2.61.64-5.32.85-8 .62-1.45-.13-2.89-.34-4.31-.63-2.26-.48-3.43-.05-4.26.41l-.9.55c3.67 1.44 7.58 2.14 11.52 2.07l-.01-.01zm11.22-1.96c3.02-.96 4.73-1.86 4.72-2.17s-1.2-.49-3.23-.84c-.42 1.04-.91 2.05-1.47 3.02l-.02-.01zm-18.99 5.63a1.13 1.13 0 10.87 1.34c.13-.6-.25-1.2-.85-1.34h-.02zm11.04-.13c-.61-.13-1.21.25-1.35.86a1.13 1.13 0 102.21.49v-.01c.14-.61-.25-1.21-.86-1.34zm9.12 14.1c.06-.29.08-.58.09-.81.01-.23-.2-.47-.37-.72-.31-.45-.92-1.3-.16-2.04.37-.35.85-.55 1.36-.56.45-3.83.5-7.7.13-11.54a7.116 7.116 0 00-1.04-3.29l-1.45.42-1.79.52c-2.99.79-6.06 1.22-9.15 1.28-2.41.03-4.81-.21-7.17-.72-1.58-.33-3.13-.8-4.63-1.4a9.689 9.689 0 00-.94 4.4c-.07 4.23.9 13.49 1.95 17.58h23.1c.05-.24.07-.48.11-.73-.2-.78-.21-1.6-.04-2.39zM17.65 28.92c1.12 0 2.01.52 2.01 1.14-.01.62-.91 1.11-2.04 1.11s-2.01-.52-2.01-1.14c.01-.63.92-1.13 2.04-1.11zm-8.88-3.18a3.662 3.662 0 014.34-2.81c1.97.42 3.23 2.37 2.81 4.34a3.662 3.662 0 01-4.34 2.81 3.652 3.652 0 01-2.81-4.33v-.01zm7.74 9.81c-.93.08-1.1-1.36-1.1-1.36.57-.3 1.2-.47 1.84-.5.04.65.18 1.78-.74 1.86zm1.85.01c-1-.21-.59-1.89-.59-1.89.55.04 1.09.16 1.61.34-.08.75-.14 1.73-1.02 1.55zm4.37-2.9c-.54 1.54-2.24 1.07-3.6.71-.51-.16-1.03-.27-1.57-.34-.61.03-1.2.17-1.75.42-.61.29-1.28.42-1.96.37a1.26 1.26 0 01-.93-.8c-.23-.47-.19-1.02.11-1.45.5-.62 1.2-1.06 1.97-1.25.28.78.98 1.33 1.8 1.41.27.06.55.09.83.09.61.01 1.21-.12 1.75-.4.47-.22.81-.65.92-1.16.97.24 1.88.62 2.28 1.22.25.35.3.79.15 1.18zm.06-2.79a3.656 3.656 0 01-2.82-4.34 3.656 3.656 0 014.34-2.82c1.98.42 3.24 2.36 2.82 4.34v.01a3.652 3.652 0 01-4.33 2.81h-.01zm12.76 8.88c-.56-2.56-2.83-3.22-3.7-2.35-.63.64.78 1.41.7 2.33-.08 1.22-.64 3 .38 3.44s3.17-.86 2.62-3.42zM14.18 16.13c-1-.2-1.98-.47-2.94-.81.27.68.44 1.4.52 2.13.29.06.7.2 1.28.32 1.39.28 2.8.49 4.22.63 2.75.23 5.51-.01 8.18-.71.28-.74.62-1.46 1.02-2.14-1.5.41-5.08 1.28-7.68 1.18-1.54-.06-3.08-.27-4.6-.6zm15.63 3.48c1.17-2.15 2.64-4.6.79-5.8-1.86-1.2-4.18 2.71-4.79 4.42 1.4.19 2.77.66 4 1.38zm.26-4.51c1.12.61-.35 2.45-.35 2.45s.56-1.49 0-1.76c-.71-.34-1.28 1.03-1.75 1.84.21-1.62.97-3.14 2.1-2.53zm-1.96-1.5a2.6 2.6 0 012.15-.65c.25.06.48.15.69.29.25.16.47.35.66.58l.11-.01c.81-.08 1.97-.57 1.79-.78-.18-.21-.57-.12-1.61-.03 1.84-.66 3.69-2.9 3.02-2.91-.67-.01-2.32 1.52-2.45 1.49s1.11-1.33.57-1.19c-.54.14-2.75 1.66-2.64 1.12s2.4-3.5 1.61-3.81c-.79-.31-1.99 1.87-1.98 1.67s.05-1.84-.16-1.48c-.21.36-1.61 3.77-1.77 3.77-.17-.01-.54-1.19-.7-.83-.12.66-.19 1.32-.23 1.99.33.23.65.5.94.78z" class="st3"/><path d="M37.43 41.7l-.66-.12.42-2.39c.07-.41-.2-.79-.61-.87l-.55-.1c0 .03.01.07.01.1.2.51.26 1.07.15 1.61-.04.38-.22 1.03-.26 1.16-.01.03-.02.06-.04.08-.33.74-.76 1.1-1.47 1.34l2.78.49c.36.06.71-.18.77-.54s-.19-.7-.54-.76zm7.03-25.3l-8.9-1.57a.818.818 0 00-.95.67l-.4 2.28c-.08.45.22.87.67.95l8.9 1.57c.45.08.88-.22.95-.67l.4-2.28a.833.833 0 00-.67-.95zm-2.3 9.83c-1.45-.26-2.84.71-3.1 2.17-.26 1.45.71 2.84 2.17 3.1 1.45.26 2.84-.71 3.1-2.17a2.67 2.67 0 00-2.17-3.1zm.85 2.86c-.13.72-.82 1.2-1.53 1.07-.72-.13-1.2-.82-1.07-1.53.13-.72.82-1.2 1.53-1.07s1.19.82 1.07 1.53zm-5.34-.24l-1.85-.33a.795.795 0 00-.92.65l-1.11 6.29c.68.22 1.15.7 1.4 1.3l2.9.51c.43.08.85-.22.92-.65l.74-4.19c-1.28-.73-2.1-2.09-2.08-3.58zm4.54-7.47l-6.25-1.1a.833.833 0 00-.97.67l-.89 5.06c-.08.45.23.89.68.97l3.12.55a4.043 4.043 0 014.54-2.65l.45-2.53a.86.86 0 00-.68-.97zm-9.42.05l1.59.06-.51 2.82h-.65s-.06-1.86-.43-2.88zm.58 7.32h1.05l-.34 2.4h-.71z" class="st3"/></svg>