<svg xmlns="http://www.w3.org/2000/svg" id="Camada_3" x="0" y="0" version="1.1" viewBox="0 0 50 50" xml:space="preserve"><style>.st2{fill:none;stroke:#444;stroke-width:2.5;stroke-linecap:round;stroke-linejoin:round;stroke-miterlimit:10}.st4{fill:#444}</style><path fill="#c3ff68" d="M45.52 3.21L3.44 2.98c-.52.53-.82.82-1.34 1.35l-.58 15.56c.76.54.01 1.45.77 1.98L48.42 5.12c.33-.47-.4-.56-.07-1.02l-.48-.2c-.53-.54-1.83-.15-2.35-.69z"/><path fill="#afe55d" d="M.8 22.06l1.12 14.57 16.9 1.62-3.92 4.58 34.42-12.24-.7-25.54z"/><path d="M18.63 37.62H5.75a4.22 4.22 0 01-4.22-4.22V7.09a4.22 4.22 0 014.22-4.22h38.67a4.22 4.22 0 014.22 4.22v25.27m-9.11 5.26h-7.8" class="st2"/><path fill="none" stroke="#444" stroke-linecap="round" stroke-linejoin="round" stroke-miterlimit="10" stroke-width=".25" d="M2.05 28.77h45.36"/><path d="M18.32 40.62v-3H32.2v3m-13.88 0c-4.67 0-4.79 4.42-4.79 4.42h23.08s.84-4.42-4.41-4.42" class="st2"/><path d="M18.46 16.17c-.08-.5-.11-1.01-.12-1.52-.91.64-1.69 1.39-2.32 2.2.28.28.64.51 1.08.67.39-.47.84-.93 1.36-1.35z" class="st4"/><path d="M26.41 23.31c.06.08.11.16.17.23.19-.14.37-.29.55-.44 0 0 0-.01-.01-.01 1.23-1.05 2.19-2.29 2.73-3.59.28-.01.55-.09.77-.26a1.376 1.376 0 10-1.92-.32c-.44 1.1-1.25 2.18-2.3 3.1.04.07.08.13.13.2-.04-.07-.08-.13-.12-.19-.18.15-.36.3-.55.45.02.03.04.06.06.1l-.06-.09c-.38.29-.79.55-1.2.8-1.74 1-3.61 1.49-5.3 1.37-1.59-.11-2.79-.74-3.4-1.79-.77-1.33-.43-3.14.74-4.8-.21-.09-.4-.2-.58-.32.17.11.36.22.56.31.13-.17.26-.35.4-.52-.44-.16-.8-.39-1.08-.67-.13.17-.25.34-.37.51 0 0 .01.01.02.01-.34.5-.65 1.01-.87 1.53-.7 1.67-.67 3.3.08 4.6.82 1.43 2.39 2.29 4.42 2.43 1.93.13 4.07-.41 6.03-1.53.46-.27.88-.55 1.29-.85-.07-.1-.13-.18-.19-.26zm8.02-3.32c.3 1.07.24 2.08-.23 2.89-.55.95-1.62 1.54-2.93 1.73-.1.07-.21.15-.31.2-.55.31-1.01.39-1.58.35-.65.03-1.3-.24-1.92-.74.62.49 1.27.76 1.92.73.56.05 1.03-.04 1.58-.35.1-.06.21-.13.31-.2-1.22.17-2.66 0-4.12-.54a.21.21 0 00-.06.04l.01.01c-.34.26-.7.52-1.08.74l-.05.11c1.82.82 3.75 1.15 5.43.93 1.77-.23 3.17-1.07 3.91-2.37.82-1.42.78-3.21-.1-5.04-.05-.11-.12-.23-.18-.35-.16.56-.36 1.24-.6 1.86zM22.92 7.92c-.06-.44-.15-.9-.29-1.36-.91.58-1.67 1.47-2.25 2.56.31.29.64.58.99.87.41-.85.94-1.57 1.55-2.07z" class="st4"/><path d="M22.24 22.71c.73.19 1.49-.25 1.67-.99.18-.74-.25-1.49-.99-1.67-.26-.07-.54-.06-.81.03-.37-.47-.68-1.01-.94-1.61-.46.05-.9.09-1.33.1.37.93.83 1.78 1.41 2.47-.19.73.25 1.49.99 1.67zm1.36-10.83s0-.01 0 0c-.24-.07-.49-.06-.74.01.1.1.21.18.33.26-.12-.09-.23-.17-.34-.25-.09.03-.2.07-.29.12-.65.39-.87 1.22-.49 1.88.29.49.84.74 1.38.67.17-.02.34-.08.5-.18.03-.02.05-.05.08-.06-.03-.22-.05-.44-.08-.66.03.22.05.45.08.67.2-.14.37-.32.47-.54.33-.04.67-.06 1.03-.05-.57-.36-1.15-.74-1.7-1.04v-.02c.55.31 1.13.69 1.7 1.05.33.01.66.04.99.09 0 0 .01 0 .01.01.04.01.08 0 .13.02 1.09.18 2.22.58 3.27 1.16.46-.21.92-.44 1.37-.68-.16-.1-.32-.2-.48-.29-2.09-1.22-4.4-1.75-6.39-1.52-.18-.35-.49-.57-.83-.65z" class="st4"/><path d="M32.02 14.81c-.22-.16-.45-.32-.69-.47-.45.24-.91.48-1.37.68.08.04.18.08.25.12.16.09.31.21.46.31h.01c.43.28.84.59 1.22.92.9.34 1.77.63 2.58.92-.64-.92-1.48-1.76-2.46-2.48 0-.01 0-.01 0 0zm-4.34-8.16c-.73-.49-1.53-.79-2.34-.84.13.43.23.87.31 1.32.41.08.82.25 1.2.5.19-.38.47-.72.83-.98z" class="st4"/><path d="M34.05 19.05c.16.32.27.64.36.94.25-.63.45-1.31.6-1.85-.03-.05-.06-.1-.08-.15-.13-.25-.29-.48-.44-.7-.82-.3-1.69-.58-2.58-.92.33.28.64.59.91.89.51.19 1.01.37 1.51.55-.5-.18-1-.36-1.51-.55.39.44.74.89 1.02 1.36.07.12.13.23.19.36v-.01.01c-.01.02.01.04.02.07zm-14.2-.49c.42-.01.87-.04 1.33-.1-.09-.22-.18-.44-.25-.67-.35-1.03-.54-2.18-.54-3.39 0-1.39.26-2.72.72-3.86.08-.2.17-.38.26-.57-.35-.29-.68-.58-.99-.87-.1.19-.2.37-.3.57-.62 1.37-.97 3-.98 4.73 0 1.22.18 2.4.51 3.48.07.24.16.46.24.68zm8.27-9.74c.57.75 1.01 1.67 1.29 2.7.1.34.18.7.24 1.07.47.19.93.41 1.37.66-.07-.72-.21-1.41-.39-2.08-.23-.82-.54-1.59-.93-2.27-.17-.3-.36-.59-.56-.85-.43-.58-.93-1.04-1.45-1.4-.36.26-.65.6-.84.98.45.29.88.68 1.27 1.19zm-5.2-.9s1.2-1.03 2.73-.79l-.08-.91-.23-.41s-1.14-.15-2.71.74l.29 1.37z" class="st4"/><g fill="none" stroke="#444" stroke-linecap="round" stroke-linejoin="round" stroke-miterlimit="10"><path d="M21.93 32.68H4.32m41.49 0H28.19"/><path stroke-width=".5" d="M22.98 32.68a2.09 2.09 0 114.18 0c0 1.16-.94 2.09-2.09 2.09-1.15.01-2.09-.93-2.09-2.09z"/></g></svg>