<svg xmlns="http://www.w3.org/2000/svg" viewBox="0 0 50 50"><path fill="#e56060" d="M6.4 38.4l5.7 3.3 33.8-12.3V15.6c0-1.6-.9-3.2-2.3-4L27.3 2.2c-1.4-.8-3.2-.8-4.6 0L6.4 11.6c-1.4.8-2.3 2.3-2.3 4v18.8c0 1.6.9 3.2 2.3 4z"/><path fill="#ff6b6b" d="M36 7.3l-8.7-5c-1.4-.8-3.2-.8-4.6 0L6.4 11.6c-1.4.8-2.3 2.3-2.3 4v3.3L36 7.3z"/><path fill="#444" d="M25 49.6c-1 0-2-.3-2.9-.8L5.8 39.5c-1.8-1-2.9-3-2.9-5.1V15.6c0-2.1 1.1-4 2.9-5.1l16.3-9.4c1.8-1 4-1 5.8 0l16.3 9.4c1.8 1 2.9 3 2.9 5.1v13.8c0 .7-.6 1.2-1.2 1.2-.7 0-1.2-.6-1.2-1.2V15.6c0-1.2-.6-2.3-1.7-2.9L26.7 3.3c-1-.6-2.3-.6-3.4 0L7 12.7c-1 .6-1.7 1.7-1.7 2.9v18.8c0 1.2.6 2.3 1.7 2.9l16.3 9.4c1 .6 2.3.6 3.4 0l4.5-2.6c.6-.3 1.3-.1 1.7.5.3.6.1 1.3-.5 1.7l-4.5 2.6c-.9.5-1.9.7-2.9.7z"/><path fill="#494949" d="M15.5 26.3l3.9 1.9c1 .5 1.9 1.4 2.4 2.4l1.9 3.9c.4.7 1.2 1 1.9.6.3-.1.5-.4.6-.6l1.9-3.9c.5-1 1.4-1.9 2.4-2.4l3.9-1.9c.7-.4 1-1.2.6-1.9-.1-.3-.4-.5-.6-.6l-3.9-1.9c-1-.5-1.9-1.4-2.4-2.4l-1.9-3.9c-.4-.7-1.3-.9-2-.5-.2.1-.4.3-.5.5l-1.9 3.9c-.5 1-1.4 1.9-2.4 2.4l-3.9 1.9c-.7.4-1 1.2-.6 1.9.1.2.3.5.6.6zM20 23c1.3-.7 2.4-1.7 3-3l2.1-3.9L27 20c.7 1.3 1.7 2.4 3 3l3.9 1.9.3-.6-.3.7-3.9 2c-1.3.7-2.4 1.7-3 3l-2.1 3.9L23 30c-.7-1.3-1.7-2.4-3-3l-3.9-2.1L20 23zm10.7 11.3l1.7-.8c.5-.3.9-.7 1.2-1.2l.8-1.7c.1-.2.3-.2.4-.1.1 0 .1.1.1.1l.8 1.7c.3.5.7.9 1.2 1.2l1.7.8c.2.1.2.3.1.4 0 .1-.1.1-.1.1l-1.7.8c-.5.3-.9.7-1.2 1.2l-.8 1.7c-.1.2-.3.2-.4.1-.1 0-.1-.1-.1-.1l-.8-1.7c-.3-.5-.7-.9-1.2-1.2l-1.7-.8c-.2-.1-.2-.3-.1-.4l.1-.1zM14.9 18c-.1.1-.2.2-.4.1-.1 0-.1-.1-.1-.1l-.7-1.4c-.2-.4-.5-.8-1-1l-1.4-.7c-.1-.1-.2-.2-.1-.4 0-.1.1-.1.1-.1l1.4-.7c.4-.2.8-.5 1-1l.7-1.4c.1-.1.2-.2.4-.1.1 0 .1.1.1.1l.7 1.4c.2.4.5.8 1 1l1.4.7c.1.1.2.2.1.4 0 .1-.1.1-.1.1l-1.4.7c-.4.2-.8.5-1 1l-.7 1.4z"/></svg>