<svg xmlns="http://www.w3.org/2000/svg" id="Camada_3" x="0" y="0" version="1.1" viewBox="0 0 50 50" xml:space="preserve"><style>.st4{fill-rule:evenodd;clip-rule:evenodd;fill:none;stroke:#444;stroke-width:.5;stroke-linecap:round;stroke-linejoin:round;stroke-miterlimit:22.9256}</style><path fill="#ec6a6d" d="M29.77 7.76l-1.8-6.6c-.1-.05-5.4-.36-5.4-.24-.51 13.74-9.93 2.91-11.49 5.19L8.26 9.59c0 .06 2.97 4.04 2.96 4.1-.11.83-1.18 3.45-1.76 3.85-2.1 1.45-6.46 1.45-5.61 4.2L41.86 8.57c.65-.23-2.5-2.72-3.15-2.94l-5.16 3c-.02-.01-3.75-.85-3.78-.87z"/><path fill="#e46160" d="M3.09 25.48c-.02.15 4.84 1.65 6.83 2.35.42.15.69 2.99.4 3.34l-2.7 4.16c.01.28 3.34 4.82 3.58 4.97l4.1-1.28c.23.15.43 5.4.69 5.31l1.01-.36 24.33-8.66c.49-.17.72-.73.5-1.2l-1.75-3.67c-.21-.56.15-2.03.64-2.39 1.22-.9 5.84-.85 6.11-2.35 1.81-10.05-4.14-5.06-5.94-7.53-.19-.27-1.21-4.32-1.1-4.63l2.9-3.98c.28-.78-2.16-.99-2.94-.71L4.15 21.57c-.31.11-.91 2.9-1.06 3.91z"/><path fill="none" fill-rule="evenodd" stroke="#444" stroke-linecap="round" stroke-linejoin="round" stroke-miterlimit="22.926" stroke-width="2.5" d="M34.15 42.78c.25-.79.38-1.63.38-2.49v-2.74c1.2.72 2.42 1.74 3.12 2.22.42.29.95.36 1.31 0l1.54-1.54 1.63-1.63c.36-.36.29-.89 0-1.31-.84-1.22-3.31-4.01-2.97-5.55l.12-.24c.21-.45.41-.92.58-1.39.03-.08.06-.16.08-.23.85-1.33 4.56-1.55 6.02-1.82.5-.09.92-.42.92-.92v-4.48c0-.51-.42-.83-.92-.92-1.46-.27-5.17-.5-6.02-1.82-.03-.08-.05-.16-.08-.23-.17-.47-.36-.94-.58-1.39l-.12-.24c-.34-1.54 2.13-4.33 2.97-5.55.29-.42.36-.95 0-1.31l-1.54-1.54-1.63-1.63c-.36-.36-.89-.29-1.31 0-1.22.84-4.01 3.3-5.55 2.97l-.18-.09c-.47-.22-.95-.42-1.44-.6l-.24-.09c-1.33-.85-1.55-4.56-1.82-6.02-.09-.5-.42-.92-.92-.92h-4.48c-.51 0-.83.42-.92.92-.27 1.46-.5 5.17-1.82 6.02h-.01c-.57.19-1.12.42-1.66.67l-.2.1c-1.54.34-4.33-2.13-5.55-2.97-.42-.29-.95-.36-1.31 0l-1.54 1.54-1.63 1.63c-.36.36-.29.89 0 1.31.84 1.22 3.31 4.01 2.97 5.55-.02.05-.05.09-.07.14-.27.55-.5 1.13-.7 1.72v.01c-.85 1.33-4.56 1.55-6.02 1.82-.5.09-.92.42-.92.92v4.48c0 .51.42.83.92.92 1.46.27 5.16.5 6.02 1.82v.01c.2.59.43 1.16.7 1.72.02.05.05.09.07.14.34 1.54-2.13 4.33-2.97 5.55-.29.42-.36.95 0 1.31l1.54 1.54 1.63 1.63c.36.36.89.29 1.31 0 .7-.48 1.93-1.51 3.13-2.22v2.74c0 4.6 3.73 8.33 8.33 8.33h1.88" clip-rule="evenodd"/><path fill="none" fill-rule="evenodd" stroke="#444" stroke-linecap="round" stroke-linejoin="round" stroke-miterlimit="10" d="M20.37 39.75c-.21-1.57-.77-3.08-1.72-4.55-.85-1.31-1.59-2.7-2.53-3.94-.95-1.26-1.88-2.46-2.52-3.85-.63-1.5-.98-3.16-.98-4.89 0-6.98 5.66-12.64 12.64-12.64S37.9 15.54 37.9 22.52c0 1.73-.35 3.39-.98 4.89-.64 1.38-1.57 2.59-2.52 3.85-.94 1.25-1.68 2.63-2.53 3.94-.95 1.47-1.51 2.99-1.72 4.55h-9.78z" clip-rule="evenodd"/><path d="M20.58 41.33h9.34m-9.34 1.32h9.34" class="st4"/><path fill="none" fill-rule="evenodd" stroke="#444" stroke-linecap="round" stroke-linejoin="round" stroke-miterlimit="10" stroke-width=".5" d="M20.9 43.91c-.05.09-.07.19-.07.29 0 .89 1.98 1.61 4.43 1.61 2.45 0 4.43-.72 4.43-1.61 0-.1-.02-.2-.07-.29H20.9z" clip-rule="evenodd"/><circle cx="32.14" cy="21.87" r="2.19" class="st4"/><path d="M30.41 23.2l-2.74 2.68.08 7" class="st4"/><circle cx="18.71" cy="24.23" r="2.19" class="st4"/><path d="M20.44 25.57l2.74 2.67.08 6.8" class="st4"/><circle cx="25.42" cy="17.2" r="2.19" class="st4" transform="rotate(-77.59 25.426 17.2)"/><path d="M25.42 19.39l.09 10.98" class="st4"/><circle cx="19.84" cy="18.43" r="1.8" class="st4"/><path d="M21.2 19.59l2.18 2.11.05 4.66" class="st4"/></svg>