<?xml version="1.0" encoding="utf-8"?>
<!-- Generator: Adobe Illustrator 28.0.0, SVG Export Plug-In . SVG Version: 6.00 Build 0)  -->
<svg version="1.1" id="Layer_1" xmlns="http://www.w3.org/2000/svg" xmlns:xlink="http://www.w3.org/1999/xlink" x="0px" y="0px"
	 viewBox="0 0 50 50" style="enable-background:new 0 0 50 50;" xml:space="preserve">
<style type="text/css">
	.st0{fill:#46B8B0;}
	.st1{fill:none;stroke:#444444;stroke-width:2.5;stroke-linecap:round;stroke-linejoin:round;stroke-miterlimit:10;}
	.st2{fill:#454444;}
	.st3{fill:none;stroke:#444444;stroke-width:0.5;stroke-linecap:round;stroke-linejoin:round;stroke-miterlimit:10;}
</style>
<g>
	<g>
		<path class="st0" d="M10.8,22l-3,4c-2.9,9.5,2.4,10.5,2.5,11.2l0.4,8.2c0,1.1,1.6,2.8,2.6,2.8l9.3,0.6l16-5.7L38,39.4
			c0,0,5.2-3.7,3.8-10.3c0.2-4.6-2.8-5-3-6.1l-1-17.7V5.1l0,0c0.2-1.4-1-2.6-2.5-2.6L14.1,1.4c-1.5,0-3.4,5-3.4,6.5l0.1,29.5"/>
	</g>
	<path class="st1" d="M38.3,43.1v-4.9c0,0,3.9-1.6,3.9-7.6c0-6-3.8-7.6-3.8-7.6V6.7c0-2.8-2.2-5-4.9-5.2l0,0h-0.3H15.9h-0.3l0,0
		c-2.8,0.2-4.9,2.4-4.9,5.2V23c0,0-3.8,1.6-3.8,7.6c0,6,3.9,7.6,3.9,7.6v4.9c0,2.9,2.3,5.2,5.2,5.2h5.6h5.9"/>
	<g>
		<path class="st2" d="M16.8,26.6C16.8,26.6,16.8,26.6,16.8,26.6c0.1,0.3,0.2,0.6,0.3,0.9c0.6,0,1.2-0.1,1.8-0.1
			c-0.1-0.3-0.2-0.6-0.3-0.9c0,0,0,0,0,0c0,0,0,0,0,0c-0.5-1.4-0.7-2.9-0.7-4.6c0-1.9,0.4-3.7,1-5.2c0,0,0,0,0,0
			c0.1-0.3,0.2-0.5,0.4-0.8c-0.5-0.4-0.9-0.8-1.3-1.2c-0.1,0.3-0.3,0.5-0.4,0.8c0,0,0,0,0,0c-0.9,1.8-1.3,4-1.4,6.4
			C16.1,23.5,16.4,25.1,16.8,26.6C16.8,26.6,16.8,26.6,16.8,26.6z"/>
		<path class="st2" d="M15.3,24.2c-0.1-0.7-0.1-1.4-0.1-2c-1.2,0.9-2.3,1.9-3.2,2.9c0.4,0.4,0.8,0.8,1.4,1
			C13.8,25.5,14.6,24.8,15.3,24.2z"/>
		<path class="st2" d="M25.9,33.9c0.1,0.1,0.2,0.2,0.2,0.3c0.3-0.2,0.5-0.4,0.7-0.6c0,0,0,0,0,0c1.7-1.4,3-3.1,3.7-4.8
			c0.4,0,0.7-0.1,1-0.3c0.8-0.6,1-1.7,0.5-2.6c-0.6-0.8-1.7-1-2.6-0.5c-0.8,0.6-1,1.7-0.5,2.6c-0.6,1.5-1.7,2.9-3.1,4.2
			c0.1,0.1,0.1,0.2,0.2,0.3c-0.1-0.1-0.1-0.2-0.2-0.3c-0.2,0.2-0.5,0.4-0.7,0.6c0,0.1,0.1,0.1,0.1,0.1c0,0-0.1-0.1-0.1-0.1
			c-0.5,0.4-1.1,0.7-1.6,1.1c-2.3,1.3-4.9,2-7.2,1.8c-2.1-0.2-3.8-1-4.6-2.4c-1-1.8-0.6-4.2,1-6.5c-0.3-0.1-0.5-0.3-0.8-0.4
			c0.2,0.2,0.5,0.3,0.8,0.4c0.2-0.2,0.4-0.5,0.6-0.7c-0.6-0.2-1.1-0.5-1.5-0.9c-0.2,0.2-0.3,0.5-0.5,0.7c0,0,0,0,0,0
			c-0.5,0.7-0.9,1.4-1.2,2.1c-1,2.2-0.9,4.4,0.1,6.2c1.1,1.9,3.2,3.1,5.9,3.3c2.6,0.2,5.5-0.5,8.1-2c0.6-0.4,1.2-0.7,1.7-1.1
			C26.1,34.2,26,34,25.9,33.9z"/>
		<path class="st2" d="M32.4,35.8c-1.7,0.2-3.6,0-5.6-0.8l0,0l0,0c-0.5,0.4-1,0.8-1.5,1.1l-0.1,0.1c2.4,1.1,5,1.6,7.3,1.3
			c2.4-0.3,4.3-1.4,5.3-3.2c1.1-1.9,1.1-4.3-0.1-6.8c-0.1-0.2-0.2-0.3-0.2-0.5c-0.2,0.7-0.5,1.6-0.8,2.5c0.4,1.4,0.3,2.8-0.3,3.9
			C35.6,34.7,34.2,35.5,32.4,35.8"/>
		<path class="st2" d="M21.4,13.2c1.9-1.4,3.7-1,3.7-1c0.6,0.1,1.1,0.3,1.6,0.7c0.3-0.5,0.6-1,1.1-1.3c-1-0.7-2-1.1-3.2-1.2
			c-1.8-0.2-3.7,1-3.7,1c-1.2,0.8-2.3,2-3.1,3.4c0.4,0.4,0.9,0.8,1.3,1.2C19.8,14.8,20.5,13.8,21.4,13.2z"/>
		<path class="st2" d="M20.3,33.1c1,0.3,2-0.3,2.3-1.3c0.3-1-0.3-2-1.3-2.3c-0.4-0.1-0.7-0.1-1.1,0c-0.5-0.6-0.9-1.4-1.3-2.2
			c-0.6,0.1-1.2,0.1-1.8,0.1c0.5,1.3,1.1,2.4,1.9,3.3C18.7,31.8,19.3,32.8,20.3,33.1z"/>
		<path class="st2" d="M33.5,22.5c-0.3-0.2-0.6-0.4-0.9-0.6c-0.6,0.3-1.2,0.6-1.9,0.9c0.1,0,0.2,0.1,0.3,0.2
			c0.2,0.1,0.4,0.3,0.6,0.4c0,0,0,0,0,0c0.6,0.4,1.1,0.8,1.6,1.2c1.2,0.5,2.4,0.9,3.5,1.3C36,24.7,34.9,23.5,33.5,22.5
			C33.6,22.5,33.5,22.5,33.5,22.5z"/>
		<path class="st2" d="M22.1,17c0-0.1,0-0.2,0-0.2c0,0,0,0.1,0,0.1C22.1,16.9,22.1,17,22.1,17z"/>
		<path class="st2" d="M34.6,25.9c0.7,0.3,1.4,0.5,2,0.8C35.9,26.4,35.3,26.1,34.6,25.9c0.5,0.6,1,1.2,1.4,1.8
			c0.1,0.2,0.2,0.3,0.3,0.5c0,0,0,0.1,0.1,0.1c0.2,0.4,0.4,0.9,0.5,1.3c0.3-0.8,0.6-1.8,0.8-2.5c0-0.1-0.1-0.1-0.1-0.2
			c-0.2-0.3-0.4-0.6-0.6-1c-1.1-0.4-2.3-0.8-3.5-1.3C33.8,25,34.2,25.4,34.6,25.9z"/>
		<path class="st2" d="M24.8,21c0.4,0,0.9,0.1,1.3,0.1c0,0,0,0,0,0c0.1,0,0.1,0,0.2,0c1.5,0.3,3,0.8,4.4,1.6
			c0.6-0.3,1.2-0.6,1.9-0.9c-0.2-0.1-0.4-0.3-0.6-0.4c-2.8-1.7-5.9-2.4-8.6-2.1c-0.3-0.4-0.7-0.7-1.1-0.9c0,0,0,0,0,0
			c-0.3-0.1-0.7-0.1-1,0c0.1,0.1,0.3,0.2,0.4,0.4c-0.2-0.1-0.3-0.2-0.4-0.3c-0.1,0-0.3,0.1-0.4,0.2c-0.9,0.5-1.2,1.6-0.7,2.5
			c0.4,0.7,1.1,1,1.8,0.9c0.2,0,0.5-0.1,0.7-0.2c0,0,0.1-0.1,0.1-0.1c0-0.3-0.1-0.6-0.1-0.9c0,0.3,0.1,0.6,0.1,0.9
			c0.3-0.2,0.5-0.4,0.6-0.7C23.9,21.1,24.3,21,24.8,21c-0.8-0.5-1.5-1-2.3-1.4c0,0,0,0,0,0C23.3,20,24.1,20.5,24.8,21z"/>
		<path class="st2" d="M28.4,14.4c0.8,1,1.3,2.3,1.7,3.6c0.5,0,1.1-0.2,1.6-0.4c-0.5,0.3-1.1,0.4-1.6,0.4c0.1,0.5,0.2,0.9,0.3,1.4
			c0.6,0.3,1.2,0.6,1.8,0.9c-0.1-1-0.3-1.9-0.5-2.8l0,0c-0.3-1.1-0.7-2.2-1.2-3.1c-0.2-0.4-0.5-0.8-0.7-1.1
			c-0.6-0.8-1.2-1.4-1.9-1.9c-0.5,0.4-0.9,0.8-1.1,1.3C27.3,13.2,27.8,13.7,28.4,14.4z"/>
	</g>
	<path class="st3" d="M28.5,5.2h-7.7c-0.8,0-1.6-0.7-1.6-1.6V1.5H30v2.1C30.1,4.6,29.4,5.2,28.5,5.2z"/>
</g>
</svg>
