<svg xmlns="http://www.w3.org/2000/svg" id="Camada_3" x="0" y="0" version="1.1" viewBox="0 0 50 50" xml:space="preserve"><style>.st2,.st3,.st4{stroke-miterlimit:10}.st2{stroke-width:.5;fill:#444;stroke:#444}.st3,.st4{fill:none;stroke:#444;stroke-linecap:round;stroke-linejoin:round}.st4{stroke-width:.5}</style><path fill="#c3ff68" d="M31.35 8.75l-4.67-6.41-5.49-.76-5.15.76-3.6 4.33-1.91 5.41c.05.96 2.03 6.34 2.94 6.02l17.78-6.46.1-2.89z"/><path fill="#afe55d" d="M9.63 24.36l-4.5 1.58-.5 22.33L45.52 33.6l-.44-11.01c-.03-.71-7.76-1.05-8.43-1.27l-.98-2.64c-1.42-1.71-9.87 5.42-3.78-7.19L12.75 18.3c.76 2.45.96 4.62.88 5.89-.02.24-3.89-.05-4 .17z"/><path d="M25.77 9.25c.57-2.07.43-3.63-.5-4.12-.71-.43-1.78-.07-3.06.92-.29.21-.57.5-.79.71-.29-.29-.57-.5-.79-.71-1.21-.99-2.35-1.35-3.06-.92-.92.5-1.07 2.13-.5 4.12-2.07.57-3.34 1.49-3.34 2.49 0 1.07 1.28 1.99 3.34 2.49-.07.35-.21.71-.21 1.07-.29 1.56 0 2.7.71 3.06.21.15.43.21.71.21.64 0 1.43-.35 2.35-1.07.29-.21.57-.5.79-.71.29.29.57.5.79.71.85.71 1.71 1.07 2.35 1.07.29 0 .5-.07.71-.21.71-.43.99-1.49.71-3.06-.07-.35-.15-.71-.21-1.07 2.07-.57 3.34-1.49 3.34-2.49 0-1.08-1.28-2-3.34-2.49zm-3.35-3.06c.85-.64 1.56-.99 2.13-.99.21 0 .43.07.57.15.79.43.85 1.92.35 3.84-.71-.15-1.49-.29-2.35-.35-.5-.71-.99-1.28-1.49-1.85.3-.3.51-.59.79-.8zm1.36 6.89c-.29.43-.57.92-.85 1.28-.5.07-.99.07-1.56.07-.5 0-1.07 0-1.56-.07-.29-.43-.57-.85-.85-1.28s-.5-.92-.71-1.35c.21-.43.43-.92.71-1.35.29-.43.57-.92.85-1.28.5-.07.99-.07 1.56-.07.57 0 1.07 0 1.56.07.29.43.57.85.85 1.28s.5.92.71 1.35c-.22.43-.43.93-.71 1.35zm.92-.99c.29.64.57 1.28.71 1.92-.64.15-1.28.29-2.07.35.21-.35.5-.71.71-1.14.22-.35.44-.78.65-1.13zm-3.27 4.26c-.43-.5-.92-.99-1.35-1.63.43 0 .85.07 1.35.07s.92 0 1.35-.07c-.43.56-.92 1.14-1.35 1.63zm-1.92-1.99c-.71-.07-1.43-.21-2.07-.35.21-.64.43-1.28.71-1.92.21.35.43.79.64 1.14.23.42.44.78.72 1.13zm-1.34-2.98c-.29-.64-.57-1.35-.71-1.92.64-.15 1.28-.29 2.07-.35-.21.35-.5.71-.71 1.14-.23.41-.45.77-.65 1.13zm3.26-4.27c.43.5.92.99 1.35 1.63-.43.01-.85-.06-1.35-.06s-.92 0-1.35.07c.43-.57.93-1.15 1.35-1.64zm2.63 3.13c-.21-.35-.43-.79-.71-1.14.71.07 1.43.21 2.07.35-.21.64-.43 1.28-.71 1.92-.22-.35-.44-.78-.65-1.13zm-6.33-4.91c.57-.35 1.56 0 2.7.85.29.21.5.43.79.71-.5.57-.99 1.14-1.49 1.85-.85.07-1.63.21-2.35.35-.49-1.84-.42-3.32.35-3.76zm-3.69 6.4c0-.92 1.28-1.71 3.13-2.2.21.71.5 1.43.85 2.2-.35.79-.64 1.49-.85 2.2-1.85-.49-3.13-1.27-3.13-2.2zm6.4 5.54c-1.14.92-2.13 1.21-2.7.85-.57-.35-.79-1.35-.57-2.77.07-.35.15-.71.21-1.07.71.15 1.49.29 2.35.35.5.71.99 1.28 1.49 1.85-.28.3-.5.58-.78.79zm5.26-1.92c.21 1.43 0 2.42-.57 2.77s-1.56 0-2.7-.85c-.29-.21-.5-.43-.79-.71.5-.57.99-1.14 1.49-1.85.85-.07 1.63-.21 2.35-.35.07.29.22.64.22.99zm0-1.41c-.21-.71-.5-1.49-.85-2.2.35-.79.64-1.49.85-2.2 1.85.5 3.13 1.28 3.13 2.2s-1.28 1.7-3.13 2.2z" class="st2"/><circle cx="21.43" cy="11.73" r="1.6" class="st2"/><path d="M22.46 47.63h-7.2c-.4 0-.72-.32-.72-.72V21.02c0-.4.32-.72.72-.72h7.2c.4 0 .72.32.72.72v25.89c0 .4-.32.72-.72.72z" class="st3"/><path d="M13.83 47.63h-7.2c-.4 0-.72-.32-.72-.72V28.13c0-.4.32-.72.72-.72h7.2c.4 0 .72.32.72.72v18.78c0 .4-.33.72-.72.72zm18.71 0c-.4 0-.72-.32-.72-.72V24.82c0-.4.32-.72.72-.72h7.2c.4 0 .72.32.72.72v19.75m-13.68 3.06H23.9c-.4 0-.72-.32-.72-.72v-24.4c0-.4-.08-.6.32-.6h3.72c.4 0 .28.2.28.6v24.4c0 .4-.32.72-.72.72z" class="st3"/><path d="M31.1 47.63h-2.88c-.4 0-.72-.32-.72-.72v-24.4c0-.4-.08-.72.32-.72h3.58c.4 0 .42.32.42.72v24.4c0 .4-.32.72-.72.72z" class="st3"/><path d="M10.32 42.24h-.33c-.72 0-1.31-.59-1.31-1.31V30.17c0-.72.59-1.31 1.31-1.31h.33c.72 0 1.31.59 1.31 1.31v10.77c0 .72-.59 1.3-1.31 1.3zm9.18 2.45h-1.26c-.72 0-1.31-.59-1.31-1.31V23.83c0-.72.59-1.31 1.31-1.31h1.26c.72 0 1.31.59 1.31 1.31v19.55c0 .72-.59 1.31-1.31 1.31zm-8.74-1.42H9.54a.58.58 0 00-.5.29l-.61 1.06c-.1.18-.1.4 0 .57l.61 1.06c.1.18.29.29.5.29h1.22c.21 0 .39-.11.5-.29l.61-1.06c.1-.18.1-.4 0-.57l-.61-1.06a.568.568 0 00-.5-.29z" class="st4"/><path fill="none" stroke="#444" stroke-miterlimit="10" d="M6.33 27.45l3.31-1.47c.07-.03.15-.05.23-.05h4.85"/><path d="M14.72 20.52l.31-.22 2.39-1.06 1.28-.57h7.9c.23 0 .41.18.41.41v1.13m-3.99.24l3.65-1.63m5.15 5.54l.31-.22 3.67-1.63h7.91c.22 0 .4.18.4.4m-12.49-1.02l3.76-1.67m-7.88 1.69l3.85-1.82" class="st3"/><path d="M23.38 21.91l.31-.22 3.4-1.51c.18-.08.37-.12.56-.12h7.69c.18 0 .33.15.33.33v2.18m4.6 1.57l3.49-1.55" class="st3"/><path d="M41.48 41.99l1.75-.88V29.36l-1.75.88zm0-12.95l1.75-.88v-2.21l-1.75.88z" class="st4"/><path fill="none" stroke="#444" stroke-linecap="round" stroke-linejoin="round" stroke-miterlimit="10" stroke-width="2.5" d="M45.05 41.94V21.87l-8.4-.08v-2.81h-8.51l.47-.56c1.63-1.79 2.63-4.17 2.63-6.78 0-5.56-4.51-10.06-10.06-10.06S11.12 6.09 11.12 11.65a10 10 0 002.35 6.46s.99 1.2 1.25 1.4l-1.12.79v4.25H8.99l-4.35 2.54v21.18l30.2-.11"/></svg>