<svg xmlns="http://www.w3.org/2000/svg" id="Camada_3" x="0" y="0" version="1.1" viewBox="0 0 50 50" xml:space="preserve"><style>.st3{fill:#444444}</style><path fill="#f56991" d="M35.39 4.56l7.27 5.48 1.92 6.7-43.05 15.7.89-13.62L8.19 8.66l13.77-6.3z"/><path fill="#dc5e82" d="M46.74 20.77l-.02.43-42.1 15.13-1.06-.77-2.14-7.94 41.74-16.04 2.14 4.16z"/><path fill="none" stroke="#444444" stroke-linecap="round" stroke-linejoin="round" stroke-miterlimit="10" stroke-width="2.5" d="M12.27 5.91C20.54.7 31.56 1.13 39.47 7.75c9.15 7.64 10.93 20.84 4.5 30.55m-8.83 7.9c-8.02 4.09-18.05 3.28-25.39-2.86C-.09 35.13-1.4 20.51 6.81 10.68m5.46-4.77s-3.43 2.08-5.58 4.92"/><path d="M26.65 43.48h-3v-11.8h-3.9v-2.5h10.8v2.5h-3.9v11.8zm14.6-4c0 1.3-.5 2.3-1.4 3.1-.9.7-2.2 1.1-3.9 1.1-1.5 0-2.9-.3-4.1-.9v-2.8c1 .4 1.8.7 2.5.9s1.3.3 1.8.3c.7 0 1.2-.1 1.5-.4.4-.3.5-.6.5-1.1 0-.3-.1-.5-.2-.7-.2-.2-.4-.4-.7-.6s-.9-.5-1.9-1c-.9-.4-1.5-.8-2-1.2-.4-.4-.8-.8-1-1.3-.3-.5-.4-1.1-.4-1.8 0-1.3.4-2.3 1.3-3 .9-.7 2-1.1 3.6-1.1.7 0 1.5.1 2.1.3s1.4.4 2.1.7l-1 2.4c-.8-.3-1.4-.5-1.9-.7-.5-.1-1-.2-1.5-.2-.6 0-1 .1-1.3.4s-.5.6-.5 1c0 .3.1.5.2.7.1.2.3.4.6.6s.9.5 1.9 1c1.3.6 2.3 1.3 2.8 1.9.6.7.9 1.4.9 2.4z" class="st3"/><path d="M32.57 14.28c-.7 2.06-1.36 4.12-2.29 6.18-.7-1.13-1.39-2.52-2.06-3.66-.7-1.13-1.36-2.52-2.29-3.66 2.29.24 4.58.71 6.64 1.14zM19.75 6.74c1.36 1.6 2.96 3.19 4.35 5.25-1.39.03-2.76-.21-4.35-.21-1.6 0-2.96 0-4.35.23 1.38-1.85 2.98-3.67 4.35-5.27zm-12.8 7.54c2.06-.46 4.12-.93 6.64-1.13-.7 1.13-1.6 2.29-2.29 3.66-.7 1.36-1.39 2.52-2.06 3.66-.93-2.06-1.83-4.36-2.29-6.19zm-.03 14.66c.7-2.06 1.36-4.12 2.29-6.18.7 1.13 1.36 2.52 2.06 3.66.7 1.36 1.39 2.52 2.29 3.66-2.29-.24-4.58-.7-6.64-1.14zm24.4 13.4c-1.11.69-2.39.37-4.29-.46l.03 1.1c1.06.4 1.89.6 2.76.6.93 0 .73.08 1.49-.2m2.36-6.59c-.03.54-.09 1.04-.16 1.52-.1.64-.1.72-.47 1.67l.85.29c.22-.57.51-1.27.62-1.96.05-.29.09-.58.11-.89l-.95-.63zM23.22 40.9v-1.28c-.93-.7-1.85-1.56-2.77-2.49 0 0 2.33-2.23 2.63-2.95v-1.44l-.15.21c-.7 1.11-1.17 1.65-3.17 3.54-1.36-1.6-2.96-3.19-4.35-5.25 1.15 0 2.53.22 3.83.27l.02-.9c-1.44 0-3.36-.34-4.76-.54-.93-1.36-1.83-2.76-2.76-4.12-.93-1.36-1.6-2.96-2.29-4.35.7-1.36 1.36-2.96 2.29-4.35.93-1.36 1.83-2.96 2.76-4.12 1.6-.23 3.19-.23 5.02-.23s3.43 0 5.02.23c.93 1.36 1.83 2.76 2.76 4.12.93 1.36 1.6 2.96 2.29 4.35-.7 1.39-1.36 2.99-2.29 4.35-.6.88-1.19 1.86-1.78 2.76h1.28c.7-1.13 2.79-4.82 3.46-5.95.93 2.06 1.83 4.12 2.29 6.18l-1.41.38-.04 1.14 1.41-.34c1.53-1.68 3.92-1.64 5.15-1.8 3.95-1.76 6.79-4.28 6.79-6.69 0-3.45-4.12-6.41-10.74-8.01 1.01-3.65 1.31-6.81.9-9.18-.12-.08-.24-.17-.37-.24-.25-.13-.5-.25-.75-.36.57 2.29.29 5.65-.74 9.57-2.29-.46-4.79-.93-7.55-1.13-1.6-2.29-3.19-4.12-4.79-5.95.93-.95 1.62-1.88 2.52-2.55.68-.51 1.33-.96 1.95-1.35-.5.02-.99.03-1.49.05-.37.26-.75.53-1.13.83-.93.7-1.83 1.6-2.52 2.29-.68-.68-1.35-1.22-1.93-1.74-.26.11-.53.21-.8.3.69.56 1.28 1.15 2.03 1.9-1.6 1.83-3.19 3.66-4.79 5.95-2.76.23-5.25.7-7.55 1.13-.2-.74-.37-1.46-.51-2.16-.12.14-.24.27-.35.41-.09.11-.18.22-.27.34-.01.02-.09.13-.13.18-.02.03-.05.06-.08.09.12.53.26 1.06.41 1.61-.48.13-.94.27-1.39.41.05.32.04.65-.03.98.54-.17 1.08-.33 1.66-.49.7 2.29 1.6 4.58 2.76 7.08-1.13 2.52-2.06 4.79-2.76 7.08-1.85-.49-3.52-1.07-4.94-1.72l.09.33c.08.31.14.62.2.93 1.31.55 2.79 1.03 4.42 1.42-.23 1.13-.7 2.29-.7 3.43-.39 2.11-.45 3.97-.22 5.52.47.4.93.82 1.36 1.26-.5-1.61-.59-3.84-.18-6.55.23-1.13.46-2.29.7-3.43 2.29.46 4.79.93 7.55 1.13 1.6 2.29 3.19 4.12 4.79 5.95-.96 1.36-5.89 5.76-9.63 5.42-.68-.06.98.73-.91.13.27.35.54.71.8 1.08.11.01.22.02.34.02 2.06 0 4.58-1.13 7.55-3.43.93-.7 1.83-1.6 2.52-2.29.93.93 1.83 1.6 2.52 2.29.33.28.62.5.95.74m10.25-12.19c-.7-2.29-1.6-4.79-2.76-7.08 1.13-2.52 2.06-4.79 2.76-7.08 5.95 1.6 10.07 4.12 10.07 7.08s-4.12 5.48-10.07 7.08z" class="st3"/><circle cx="19.05" cy="21.68" r="4.02" class="st3"/></svg>
