<svg xmlns="http://www.w3.org/2000/svg" id="Camada_3" x="0" y="0" version="1.1" viewBox="0 0 50 50" xml:space="preserve"><style>.st0{fill:#f799ff}.st1{fill:#e589ef}.st2{fill:#444}.st3{fill:none;stroke-width:1.5}.st3,.st4{stroke:#444;stroke-miterlimit:10}.st4,.st5,.st6{fill:none}.st6{stroke:#444;stroke-width:2.5;stroke-linecap:round;stroke-linejoin:round;stroke-miterlimit:10}</style><path d="M-97.74 433.86l-8.6 4.93-3.23 10.42 24.14-8.59-1.19-.45-11.12-6.31" class="st0"/><path d="M-116.32 454.02l-2.94 6.09 11.28 13.81 35.66-12.69-2.25-6.49c-.32-.35-7.92-3.4-8.06-3.86l-2.8-10.25-23.41 8.33-7.48 5.06z" class="st1"/><path d="M-105.7 452.53a1.57 1.57 0 01-1.03-1.97c.08-.27.23-.5.44-.69-.08-1.52.14-3.12.63-4.69 1.32-4.22 4.33-7.25 7.43-7.63.64.21.65 1.22.15 1.46-2.49.32-5.05 3-6.18 6.61-.41 1.31-.6 2.63-.57 3.89.84.21 1.35 1.07 1.14 1.91a1.576 1.576 0 01-2.01 1.11zm10.85-15.14c-.83-.26-1.71.2-1.97 1.03-.26.83.2 1.71 1.03 1.97.34.11.7.09 1.03-.03.59.71 1.02 1.67 1.26 2.79.26 1.21.27 2.56.05 3.92-.01.03-.01.07-.02.1 0 .02-.01.05-.01.07-.09.54-.23 1.08-.39 1.61-.07.23-.15.46-.24.69-.01.02-.02.04-.02.06-.01.02-.02.05-.03.07-.52 1.35-1.25 2.57-2.14 3.55-.72.8-1.5 1.4-2.3 1.79-.34.31.09 1.42.74 1.27 1.82-.91 3.47-2.71 4.58-4.97.01-.03.03-.05.04-.08l.03-.06c.25-.53.39-.84.59-1.43.02-.07.07-.2.09-.27.68-2.18.89-4.66.47-6.64-.31-1.45-.9-2.68-1.72-3.6.18-.78-.28-1.59-1.07-1.84z" class="st2"/><path d="M-101.06 467.23c-2.2.82-4.95.81-7.66-.03-2.46-.77-4.59-2.14-5.98-3.87-1.46-1.81-1.95-3.8-1.39-5.6.51-1.64 1.87-2.94 3.81-3.65 1.84-.67 4.09-.78 6.34-.3-.42.4-.82.83-1.19 1.28-3.66-.5-6.83.76-7.57 3.1-.41 1.32-.01 2.83 1.13 4.25 1.21 1.5 3.08 2.71 5.27 3.39 2.41.75 4.91.75 6.82.02a1.573 1.573 0 111.22 1.86c-.29-.07-.58-.23-.8-.45zm-4.07-13.01c-2.18 2.01-3.6 4.57-3.91 6.96-.77.41-1.05 1.36-.64 2.13.41.77 1.36 1.05 2.13.64.77-.41 1.05-1.36.64-2.13-.15-.28-.38-.5-.66-.65.31-1.99 1.55-4.15 3.43-5.88 2.29-2.11 5.17-3.22 7.43-2.91.32-.39.63-.82.92-1.31-2.83-.72-6.46.49-9.34 3.15zm11.7 3.24c-.25 1.41-.94 2.88-1.98 4.21.2.54.37 1.1.51 1.67 1.24-1.37 2.15-2.93 2.63-4.49.12-.38.21-.76.28-1.13.35-1.94-.04-3.68-1.07-4.94-.27.45-.56.87-.88 1.29.56.89.74 2.07.51 3.39zm-5.96-.21c.25-.83-.22-1.71-1.06-1.96-.83-.25-1.71.22-1.96 1.06-.25.83.22 1.71 1.06 1.96.3.09.63.09.93-.01.6.5 1.16 1.13 1.64 1.87.76 1.14 1.33 2.51 1.65 3.97.46 2.03.41 4.04-.12 5.74-.06.18-.12.35-.18.52-.66 1.7-1.76 2.8-3.11 3.11-2.39.54-5.08-1.58-6.47-5-.52-.09-1.03-.2-1.54-.35l-.13.04c.72 2.17 1.94 4.04 3.43 5.28 1.58 1.31 3.37 1.83 5.03 1.45 1.84-.41 3.32-1.84 4.16-4.01.08-.2.15-.4.21-.61.61-1.95.66-4.23.15-6.5-.6-2.71-1.95-5.07-3.69-6.56z" class="st2"/><ellipse cx="-90.62" cy="447.74" class="st3" rx="3.22" ry="6.92" transform="rotate(-24.467 -90.604 447.79)"/><ellipse cx="-87.43" cy="454.73" class="st4" rx=".73" ry="1.57" transform="rotate(-19.209 -87.426 454.674)"/><path d="M-86.88 458.48c.71.25 1.49-.13 1.74-.85.25-.71-.13-1.49-.85-1.74-.71-.25-1.49.13-1.74.85-.24.72.14 1.5.85 1.74z" class="st5"/><path d="M-80.59 454.89a8.923 8.923 0 00-11.35 5.52 8.923 8.923 0 005.52 11.35 8.923 8.923 0 0011.35-5.52c1.61-4.65-.86-9.74-5.52-11.35zm-7.13 1.85c.25-.71 1.02-1.09 1.74-.85.71.25 1.09 1.02.85 1.74-.25.71-1.02 1.09-1.74.85-.72-.24-1.1-1.02-.85-1.74zm10.24 10.79c-.52.77-1.97.79-3.75.18-.62 1.77-1.52 2.9-2.46 2.84-.93-.07-1.67-1.32-2.03-3.17-1.83.42-3.27.26-3.71-.56-.45-.85.26-2.19 1.71-3.51-1.2-1.4-1.71-2.73-1.19-3.49.52-.77 1.97-.79 3.75-.18.62-1.77 1.52-2.9 2.46-2.84.89.06 1.59 1.2 1.97 2.9 1.71-.35 3.04-.17 3.46.61.45.83-.24 2.15-1.64 3.45 1.36 1.5 1.98 2.95 1.43 3.77z" class="st2"/><path d="M-82.06 465.96c-.29.16-.58.3-.87.43.47.25.93.45 1.36.62.14-.47.27-1 .37-1.55-.28.18-.56.34-.86.5zm-3.89-1.63c.01-.28.02-.57.04-.85.02-.34.06-.67.1-1-.42.29-.81.58-1.16.87.3.33.65.66 1.02.98zm.63-4.18c-1.4-.46-2.5-.45-2.89.14-.39.57 0 1.57.9 2.67.48-.4 1.02-.79 1.61-1.17.1-.59.23-1.14.38-1.64zm-2.04 3.56c-1.12 1.06-1.67 2.08-1.33 2.72.33.62 1.44.74 2.89.42-.08-.57-.13-1.19-.14-1.84-.54-.43-1.01-.87-1.42-1.3zm6.92-.7c-.01.28-.02.57-.04.85-.01.18-.03.35-.05.53.31-.22.59-.44.85-.67-.23-.23-.49-.47-.76-.71zm1.15.36c1.09-1.04 1.62-2.04 1.28-2.67-.31-.58-1.31-.72-2.62-.48.11.64.18 1.35.19 2.11.42.34.81.69 1.15 1.04zm-1.77 3.83c1.4.46 2.5.45 2.89-.14.42-.62-.06-1.74-1.14-2.95-.39.33-.83.66-1.3.97-.11.76-.26 1.47-.45 2.12zm-3.58-6.04c.27-.14.54-.28.8-.4-.34-.17-.67-.31-.99-.44-.1.34-.2.71-.28 1.1.16-.08.32-.17.47-.26zm-.59.95c-.07.45-.13.92-.16 1.41-.03.43-.04.84-.04 1.25a15.734 15.734 0 001.94 1.32c.39-.17.79-.36 1.19-.57.43-.23.83-.47 1.21-.72.04-.31.08-.63.1-.95.03-.43.04-.84.04-1.25a16.483 16.483 0 00-2.29-1.52c-.38.17-.76.35-1.14.56-.3.14-.58.3-.85.47zm1.87.3c.75 0 1.36.61 1.36 1.36 0 .75-.61 1.36-1.36 1.36-.75 0-1.36-.61-1.36-1.36 0-.75.61-1.36 1.36-1.36zm-1.83 4.84c.3 1.45.86 2.42 1.57 2.47.7.05 1.39-.81 1.89-2.19-.58-.23-1.18-.52-1.8-.86-.57.23-1.13.43-1.66.58zm.47-1.32c-.24-.16-.47-.33-.7-.5.02.45.07.89.13 1.29.38-.1.78-.24 1.19-.39-.21-.13-.41-.26-.62-.4zm3.05-4.52c.24.16.47.33.7.5-.03-.56-.09-1.09-.17-1.58-.47.12-.97.28-1.49.48.32.19.64.39.96.6zm.41-1.59c-.31-1.3-.84-2.14-1.5-2.19-.7-.05-1.39.81-1.89 2.19.46.18.95.41 1.44.67.67-.29 1.33-.51 1.95-.67z" class="st2"/><path d="M-95.26 434.83c-6.79-1.87-11.55 5.81-11.55 5.81-3.17 5.06-2.33 10.24-2.33 10.24s-9.24.85-9.68 7.68c-.44 6.83 7.04 10.35 7.04 10.35s3.59 10.85 12.06 9.11c6.17-1.27 6.76-7.47 6.76-7.47s4.85 5.63 11.45 4.75" class="st6"/><path d="M-72.22 467.83c.55-1.56.71-3.11.68-4.5-.11-4.37-2.58-8.58-6.48-10.55-2.36-1.19-4.91-1.25-4.91-1.25.09-11.8-7.69-12.96-7.69-12.96s-1.29-2.75-4.65-3.74" class="st6"/><path d="M22.51 2.83l-8.55 4.89-3.2 10.34 23.97-8.53-1.18-.44-11.04-6.26" class="st0"/><path d="M4.06 22.84l-2.92 6.04 11.2 13.71L47.74 30l-2.23-6.45c-.32-.35-7.87-3.38-8-3.83L34.73 9.53 11.48 17.8l-7.42 5.04z" class="st1"/><path d="M14.6 21.36a1.575 1.575 0 01-1.03-1.96c.08-.26.23-.5.44-.69-.07-1.51.14-3.09.62-4.66 1.31-4.19 4.3-7.2 7.37-7.58.63.21.65 1.21.14 1.45-2.47.32-5.01 2.98-6.13 6.56-.41 1.3-.6 2.61-.57 3.86.84.21 1.34 1.06 1.13 1.9s-1.06 1.34-1.9 1.13c-.01.01-.04 0-.07-.01zM25.38 6.33c-.82-.26-1.7.2-1.96 1.03s.2 1.7 1.03 1.96c.34.11.7.09 1.03-.03.58.71 1.02 1.65 1.25 2.77.25 1.2.27 2.54.05 3.89-.01.03-.01.07-.02.1 0 .02-.01.05-.01.07-.09.53-.22 1.07-.39 1.6-.07.23-.15.46-.24.69-.01.02-.02.04-.02.06-.01.02-.02.05-.03.07-.52 1.34-1.24 2.55-2.12 3.52-.71.79-1.49 1.39-2.28 1.77-.34.31.09 1.41.73 1.26 1.81-.9 3.45-2.69 4.55-4.93.01-.03.03-.05.04-.08l.03-.06c.25-.52.39-.83.58-1.42.02-.07.07-.2.09-.27.68-2.17.88-4.63.46-6.59-.31-1.44-.9-2.67-1.71-3.58a1.56 1.56 0 00-1.06-1.83z" class="st2"/><path d="M19.21 35.95c-2.19.81-4.92.8-7.61-.03-2.45-.76-4.55-2.13-5.94-3.85-1.45-1.8-1.94-3.78-1.38-5.56.51-1.63 1.85-2.92 3.78-3.62 1.82-.67 4.06-.77 6.3-.3-.42.4-.81.82-1.18 1.27-3.64-.5-6.79.75-7.51 3.08-.41 1.31-.01 2.81 1.13 4.22 1.2 1.49 3.06 2.69 5.24 3.37 2.39.75 4.88.75 6.77.02.17-.85 1-1.39 1.85-1.22.85.17 1.39 1 1.22 1.85-.17.85-1 1.39-1.85 1.22-.32-.07-.6-.22-.82-.45zm-4.04-12.91c-2.17 2-3.57 4.54-3.88 6.91-.76.41-1.05 1.36-.64 2.12.41.76 1.36 1.05 2.12.64.76-.41 1.05-1.36.64-2.12-.15-.28-.37-.5-.65-.65.31-1.98 1.54-4.12 3.4-5.84 2.28-2.1 5.14-3.19 7.37-2.88.32-.38.63-.82.92-1.3-2.82-.72-6.42.48-9.28 3.12zm11.61 3.22c-.25 1.4-.94 2.85-1.97 4.18.2.53.37 1.09.51 1.66 1.23-1.36 2.13-2.91 2.62-4.46.12-.37.21-.75.28-1.12.34-1.93-.04-3.66-1.06-4.9-.26.44-.56.87-.87 1.28.55.87.73 2.05.49 3.36zm-5.91-.22c.25-.83-.22-1.7-1.05-1.95-.83-.25-1.7.22-1.95 1.05a1.564 1.564 0 001.97 1.94c.59.5 1.15 1.13 1.63 1.86.75 1.13 1.32 2.5 1.64 3.94.45 2.01.41 4.01-.12 5.7-.05.18-.12.35-.18.52-.65 1.69-1.75 2.78-3.09 3.09-2.38.53-5.04-1.57-6.42-4.96-.52-.09-1.03-.2-1.53-.34l-.13.04c.72 2.15 1.93 4.02 3.41 5.24 1.57 1.3 3.34 1.81 5 1.44 1.83-.41 3.29-1.82 4.13-3.98.08-.2.15-.4.21-.61.6-1.93.66-4.2.15-6.46-.61-2.69-1.94-5.03-3.67-6.52z" class="st2"/><ellipse cx="29.58" cy="16.6" class="st3" rx="3.19" ry="6.87" transform="rotate(-24.467 29.582 16.604)"/><ellipse cx="32.75" cy="23.55" class="st4" rx=".73" ry="1.56" transform="rotate(-19.209 32.743 23.547)"/><path d="M33.29 27.27c.71.24 1.48-.13 1.73-.84.24-.71-.13-1.48-.84-1.73-.71-.24-1.48.13-1.73.84-.24.71.14 1.49.84 1.73z" class="st5"/><path d="M39.53 23.71c-4.63-1.6-9.67.86-11.27 5.48-1.6 4.63.86 9.67 5.48 11.27 4.63 1.6 9.67-.86 11.27-5.48 1.61-4.63-.85-9.67-5.48-11.27zm-7.08 1.83c.24-.71 1.02-1.08 1.73-.84.71.24 1.08 1.02.84 1.73-.24.71-1.02 1.08-1.73.84a1.37 1.37 0 01-.84-1.73zm10.17 10.71c-.52.77-1.96.78-3.72.18-.61 1.76-1.51 2.88-2.44 2.82-.93-.07-1.66-1.31-2.02-3.14-1.82.42-3.25.26-3.68-.56-.45-.84.26-2.17 1.7-3.49-1.19-1.39-1.69-2.71-1.18-3.47.52-.77 1.96-.78 3.72-.18.61-1.76 1.51-2.88 2.44-2.82.88.06 1.58 1.19 1.96 2.88 1.7-.35 3.02-.17 3.43.61.44.83-.24 2.13-1.63 3.43 1.36 1.49 1.97 2.93 1.42 3.74z" class="st2"/><path d="M38.07 34.7c-.29.15-.57.29-.86.43.47.25.92.45 1.35.62.14-.47.27-.99.36-1.54-.27.16-.55.33-.85.49zm-3.85-1.62c.01-.28.02-.56.04-.85.02-.34.06-.67.1-.99-.42.28-.8.58-1.15.87.29.32.63.65 1.01.97zm.62-4.16c-1.39-.45-2.48-.44-2.87.13-.38.57 0 1.56.9 2.65.47-.4 1.01-.79 1.6-1.16.09-.57.22-1.11.37-1.62zm-2.03 3.54c-1.11 1.05-1.66 2.06-1.32 2.7.33.62 1.43.74 2.87.42-.08-.57-.13-1.18-.14-1.82-.53-.43-1-.87-1.41-1.3zm6.87-.69c-.01.28-.02.56-.04.85-.01.18-.03.35-.05.52.3-.22.58-.44.84-.66-.22-.24-.47-.48-.75-.71zm1.15.35c1.08-1.03 1.6-2.03 1.27-2.65-.31-.58-1.3-.72-2.6-.47.11.64.17 1.34.19 2.09.41.34.79.69 1.14 1.03zm-1.77 3.8c1.39.45 2.48.44 2.87-.13.42-.62-.06-1.73-1.13-2.93-.39.33-.82.65-1.29.97-.1.75-.26 1.46-.45 2.09zm-3.54-5.99c.27-.14.53-.27.8-.4-.34-.17-.67-.31-.98-.43-.1.34-.2.71-.28 1.09.15-.09.3-.17.46-.26zm-.59.94c-.07.45-.13.91-.16 1.4-.03.42-.04.84-.04 1.24.31.25.65.49 1 .73.31.21.62.4.92.58.39-.17.78-.36 1.18-.57.43-.23.83-.47 1.2-.72.04-.31.07-.62.1-.95.03-.42.04-.84.04-1.24-.31-.25-.65-.49-1-.73-.43-.29-.85-.54-1.27-.78-.37.16-.75.35-1.14.55-.29.16-.56.32-.83.49zm1.85.3a1.35 1.35 0 11-1.35 1.35c0-.74.61-1.35 1.35-1.35zm-1.81 4.8c.3 1.44.85 2.4 1.56 2.45.7.05 1.38-.81 1.88-2.18-.57-.23-1.18-.51-1.79-.86-.57.25-1.13.44-1.65.59zm.47-1.31c-.24-.16-.47-.33-.69-.49.02.45.07.88.13 1.28.38-.1.77-.23 1.18-.39-.21-.13-.42-.26-.62-.4zm3.02-4.48c.24.16.47.33.69.49-.03-.56-.09-1.09-.17-1.56-.46.12-.96.27-1.47.47.31.19.63.39.95.6zm.41-1.59c-.31-1.29-.84-2.13-1.49-2.17-.7-.05-1.38.81-1.88 2.18.46.18.94.4 1.43.66.67-.28 1.33-.51 1.94-.67z" class="st2"/><path d="M24.97 3.78C18.23 1.93 13.5 9.55 13.5 9.55c-3.15 5.03-2.32 10.17-2.32 10.17s-9.18.84-9.61 7.63 6.99 10.28 6.99 10.28 3.56 10.78 11.97 9.04c6.13-1.26 6.71-7.42 6.71-7.42s4.82 5.59 11.37 4.72m9.24-7.42c.54-1.55.71-3.08.67-4.47-.11-4.34-2.56-8.52-6.44-10.48-2.34-1.18-4.87-1.25-4.87-1.25.09-11.7-7.63-12.85-7.63-12.85s-1.28-2.73-4.61-3.72" class="st6"/></svg>