<svg xmlns="http://www.w3.org/2000/svg" id="Camada_3" x="0" y="0" version="1.1" viewBox="0 0 50 50" xml:space="preserve"><style>.st3{fill:#444}.st4{stroke-linecap:round}.st4,.st5{fill:none;stroke:#444;stroke-linejoin:round;stroke-miterlimit:10}</style><path fill="#c3ff68" d="M31.33 4.38l-5.97-2.84c-3.2 0-21.45 8.94-21.45 12.14l-.53 7.8L39 8.81l-7.67-4.43z"/><path fill="#afe55d" d="M3.38 21.48l.53 15.13 11.5 7.56 31.02-11.04c.74-.42-.82-18.75-1.8-20.74L39 8.81 3.38 21.48z"/><path fill="none" stroke="#444" stroke-linecap="round" stroke-linejoin="round" stroke-miterlimit="10" stroke-width="2.5" d="M29.89 46.45l-2.2 1.27c-1.69.98-3.78.98-5.47 0L6.65 38.73a5.48 5.48 0 01-2.74-4.74V16.01a5.46 5.46 0 012.74-4.74l15.57-8.99c1.69-.98 3.78-.98 5.47 0l15.57 8.99A5.48 5.48 0 0146 16.01v17.98a5.46 5.46 0 01-2.74 4.74l-2.46 1.42"/><path d="M28.09 21.76c.73-2.67.54-4.67-.64-5.32-.92-.54-2.3-.09-3.95 1.19-.37.28-.73.64-1.02.92-.37-.37-.73-.64-1.02-.92-1.56-1.28-3.02-1.74-3.95-1.19-1.19.64-1.37 2.75-.64 5.32-2.67.73-4.3 1.92-4.3 3.21 0 1.37 1.65 2.57 4.3 3.21-.09.45-.28.92-.28 1.37-.37 2.01 0 3.47.92 3.95.28.18.54.28.92.28.83 0 1.84-.45 3.02-1.37.37-.28.73-.64 1.02-.92.37.37.73.64 1.02.92 1.11.92 2.2 1.37 3.02 1.37.37 0 .64-.09.92-.28.92-.54 1.28-1.92.92-3.95-.09-.45-.18-.92-.28-1.37 2.67-.73 4.3-1.92 4.3-3.21.02-1.38-1.63-2.56-4.28-3.21zm-4.32-3.94c1.11-.83 2.01-1.28 2.75-1.28.28 0 .54.09.73.18 1.02.54 1.11 2.48.45 4.95-.92-.18-1.92-.37-3.02-.45-.64-.92-1.28-1.65-1.92-2.39.37-.37.65-.74 1.01-1.01zm1.74 8.89c-.37.54-.73 1.19-1.11 1.65-.64.09-1.28.09-2.01.09-.64 0-1.37 0-2.01-.09-.37-.54-.73-1.11-1.11-1.65-.37-.54-.64-1.19-.92-1.74.28-.54.54-1.19.92-1.74.37-.54.73-1.19 1.11-1.65.64-.09 1.28-.09 2.01-.09s1.37 0 2.01.09c.37.54.73 1.11 1.11 1.65s.64 1.19.92 1.74c-.27.55-.54 1.19-.92 1.74zm1.19-1.28c.37.83.73 1.65.92 2.48-.83.18-1.65.37-2.67.45.28-.45.64-.92.92-1.47.29-.45.56-1.01.83-1.46zm-4.21 5.5c-.54-.64-1.19-1.28-1.74-2.1.54 0 1.11.09 1.74.09.64 0 1.19 0 1.74-.09-.55.72-1.19 1.46-1.74 2.1zm-2.47-2.57c-.92-.09-1.84-.28-2.67-.45.28-.83.54-1.65.92-2.48.28.45.54 1.02.83 1.47.27.54.55 1 .92 1.46zm-1.74-3.85c-.37-.83-.73-1.74-.92-2.48.83-.18 1.65-.37 2.67-.45-.28.45-.64.92-.92 1.47-.28.54-.56 1.01-.83 1.46zM22.49 19c.54.64 1.19 1.28 1.74 2.1-.55.01-1.11-.08-1.74-.08-.64 0-1.19 0-1.74.09.55-.73 1.2-1.46 1.74-2.11zm3.4 4.04c-.28-.45-.54-1.02-.92-1.47.92.09 1.84.28 2.67.45-.28.83-.54 1.65-.92 2.48-.29-.44-.56-1-.83-1.46zm-8.17-6.32c.73-.45 2.01 0 3.47 1.11.37.28.64.54 1.02.92-.64.73-1.28 1.47-1.92 2.39-1.11.09-2.1.28-3.02.45-.64-2.39-.55-4.32.45-4.87zm-4.76 8.25c0-1.19 1.65-2.2 4.04-2.84.28.92.64 1.84 1.11 2.84-.45 1.02-.83 1.92-1.11 2.84-2.39-.64-4.04-1.65-4.04-2.84zm8.25 7.14c-1.47 1.19-2.75 1.56-3.47 1.11s-1.02-1.74-.73-3.57c.09-.45.18-.92.28-1.37.92.18 1.92.37 3.02.45.64.92 1.28 1.65 1.92 2.39-.38.36-.65.71-1.02.99zm6.78-2.47c.28 1.84 0 3.12-.73 3.57-.73.45-2.01 0-3.47-1.11-.37-.28-.64-.54-1.02-.92.64-.73 1.28-1.47 1.92-2.39 1.11-.09 2.1-.28 3.02-.45.1.39.28.84.28 1.3zm0-1.83c-.28-.92-.64-1.92-1.11-2.84.45-1.02.83-1.92 1.11-2.84 2.39.64 4.04 1.65 4.04 2.84s-1.65 2.2-4.04 2.84z" class="st3"/><circle cx="22.21" cy="24.99" r="1.61" class="st3"/><path d="M22.47 17.03V15c0-1.61 1.3-2.91 2.91-2.91h12.27c1.61 0 2.91 1.3 2.91 2.91v20c0 1.61-1.3 2.91-2.91 2.91H25.38c-1.61 0-2.91-1.3-2.91-2.91v-2.33" class="st4"/><path d="M32.03 24.97h5.77" class="st5"/><path d="M10.4 28l-3.08-3.03h5.16m-2.29-2.71l-2.87 2.71m29.75 0h1.6" class="st4"/><path d="M12.67 24.97H7.63" class="st5"/></svg>