<svg xmlns="http://www.w3.org/2000/svg" id="Layer_1" x="0" y="0" version="1.1" viewBox="0 0 50 50" xml:space="preserve"><style>.st2{fill:#444}.st3{fill:none;stroke:#444;stroke-linecap:round;stroke-linejoin:round;stroke-miterlimit:10}</style><path fill="#a475ef" d="M46.61 22.31c-10.08 3.7-25.82 9.46-35.9 13.17.1-.62.21-1.23.31-1.85-5.14-2.16-9.77-4.01-8.95-9.36v-.31c11.62-4.22 24.9-9.16 36.62-13.37 0 .41.1.82.1 1.13.1 1.95-.1 3.81-.51 5.76 3.08 1.02 6.27 2.36 8.33 4.83z"/><path fill="#bf94f7" d="M38.68 11.09c-11.62 4.12-25.1 9.16-36.73 13.48 0-.1 0-.21.1-.31v-.31h.1C3.8 20.56 7.5 19.01 11 17.67 9.88 13.15 9.98 5.33 15.54 5.13c3.5-.1 6.58 2.16 9.16 4.42 4.83-3.7 13.78-7.92 13.98 1.54z"/><path d="M16.36 5.23c2.47 0 5.45 1.34 8.33 4.32h.21c3.39-2.78 6.48-4.12 8.85-4.12 4.12 0 6.28 4.12 4.53 12.14 3.91 1.34 9.36 3.39 9.67 8.13-.21 4.84-5.56 6.07-8.74 8.23.93 8.33-1.75 12.24-5.66 12.24-2.47 0-5.56-1.54-8.64-4.42-3.19 3.09-6.17 4.53-8.74 4.53-4.42 0-7.1-4.63-5.14-12.55-12.55-3.81-11.32-13.37.51-15.95-3.1-7.71-.02-12.55 4.82-12.55m0-2.06c-2.78 0-5.14 1.23-6.58 3.39-1.65 2.47-1.95 5.86-.93 9.67C3.5 17.99.21 21.38 0 25.29c-.1 4.01 3.09 7.61 8.64 9.67-.72 4.42-.21 8.02 1.75 10.39 1.44 1.75 3.5 2.78 5.86 2.78 2.78 0 5.76-1.34 8.74-3.81 2.98 2.47 5.86 3.7 8.54 3.7 2.06 0 3.91-.82 5.25-2.26 2.06-2.26 2.88-5.97 2.57-10.9.41-.31.93-.51 1.44-.82 3.09-1.65 7-3.7 7.2-8.44v-.21c-.41-5.45-5.66-7.92-9.36-9.36.72-4.63.21-8.23-1.54-10.39C37.86 4.1 36 3.27 33.84 3.27c-2.57 0-5.66 1.23-8.85 3.6-2.77-2.36-5.75-3.7-8.63-3.7z" class="st2"/><path d="M3.05 28.7c-.93-1.34-1.34-2.88-.82-4.42 2.26-5.14 8.64-6.69 13.79-7.82M3.05 28.7c2.26 2.26 5.14 4.12 9.36 5.35m26.95-.62c.93-.31 1.85-.72 2.78-1.13 2.06-1.03 4.12-2.26 5.25-4.22.1-.1.1-.31.21-.41 2.37-5.56-4.84-8.95-9.16-10.29-.82-.21-1.54-.41-2.37-.62" class="st3"/><path d="M12.92 27.88c-1.75 4.94-4.01 12.76-.41 16.97 5.97 4.73 14.61-4.22 17.9-9.16M24.96 9.57C39.67-1.75 40.7 11.21 37.2 22.42m1.23 21.2c2.37-3.81.51-15.74-2.16-18.11M22.08 38.58c6.38 6.58 12.65 10.49 16.36 5.04" class="st3"/><path d="M12 20.98C7.67 9.57 13.23-1.24 24.86 9.57c1.65 1.44 3.19 3.09 4.63 4.94" class="st3"/><path d="M32 18.32l-2.57 10.01-2.41-10.01h-3.47l4.18 13.38s-.4.45-.6.6c-.55.4-1.41.65-2.56.81l.35 2.36c1.76-.15 3.17-.6 4.22-1.46 1.06-.85 1.81-2.01 2.31-3.57l3.92-12.12H32zm-12.42 2.12c.4 0 .86.05 1.21.2.41.17.8.39 1.16.65l1.41-1.91c-.55-.47-1.18-.84-1.86-1.11-.6-.25-1.36-.35-2.16-.35-1.16 0-2.21.25-3.07.8a5.36 5.36 0 00-2.01 2.31c-.45.96-.7 2.11-.7 3.37 0 1.31.25 2.41.7 3.37a5 5 0 002.01 2.21c.9.5 1.91.75 3.12.75 1.51 0 2.82-.45 3.97-1.41l-1.41-2.01c-.5.3-.9.5-1.26.65-.35.15-.75.2-1.16.2-.85 0-1.46-.25-1.91-.86-.4-.6-.65-1.56-.6-2.92-.01-2.64.85-3.94 2.56-3.94z" class="st2"/></svg>