<svg xmlns="http://www.w3.org/2000/svg" id="Camada_3" x="0" y="0" version="1.1" viewBox="0 0 50 50" xml:space="preserve"><style>.st3,.st4{stroke:#444;stroke-miterlimit:10}.st3{stroke-linecap:round;stroke-linejoin:round;fill:none;stroke-width:1.25}.st4{fill:#444;stroke-width:.5}</style><path fill="#4ecdc4" d="M3.55 14.63l7.8-8.45 9.57-3.87L34.7 3.47l10.43 6.96L1.15 26.79l.93-4.21z"/><path fill="#46b8b0" d="M4.27 35.16l-2.32-13.7 38.6-15.11 7.96 12.13.32 13.92-36.5 13.07z"/><path fill="none" stroke="#444" stroke-linecap="round" stroke-linejoin="round" stroke-miterlimit="10" stroke-width="2.5" d="M11.92 5.81C20 .12 31.16-.01 39.49 6.26c10.36 7.78 12.44 22.48 4.65 32.83m-7.03 6.23c-7.89 4.54-18.06 4.24-25.79-1.58C.96 35.96-1.13 21.26 6.66 10.91m4.6-4.56s-2.7 1.74-4.73 4.73"/><path d="M42.3 28.02c-.4 9.2-7.97 16.11-17.27 16.11-9.01 0-16.41-7.31-17.24-16.11m.46-5.58c.63-8.99 8.12-16.09 17.27-16.09s16.64 7.1 17.27 16.09" class="st3"/><path d="M5.91 28.86l1.96-1.82L9.68 29m35-7.39l-1.96 1.81-1.81-1.96" class="st3"/><path d="M32.64 20.58c1-3.64.75-6.39-.87-7.26-1.25-.75-3.13-.13-5.39 1.62-.51.38-1 .87-1.38 1.25-.51-.51-1-.87-1.38-1.25-2.13-1.75-4.13-2.38-5.39-1.62-1.62.87-1.88 3.75-.87 7.26-3.64 1-5.88 2.62-5.88 4.38 0 1.88 2.26 3.51 5.88 4.38-.13.62-.38 1.25-.38 1.88-.51 2.75 0 4.75 1.25 5.39.38.25.75.38 1.25.38 1.13 0 2.51-.62 4.13-1.88.51-.38 1-.87 1.38-1.25.51.51 1 .87 1.38 1.25 1.51 1.25 3 1.88 4.13 1.88.51 0 .87-.13 1.25-.38 1.25-.75 1.75-2.62 1.25-5.39-.13-.62-.25-1.25-.38-1.88 3.64-1 5.88-2.62 5.88-4.38.02-1.88-2.24-3.5-5.86-4.38zm-5.89-5.38c1.51-1.13 2.75-1.75 3.75-1.75.38 0 .75.13 1 .25 1.38.75 1.51 3.38.62 6.77-1.25-.25-2.62-.51-4.13-.62-.87-1.25-1.75-2.26-2.62-3.26.5-.52.88-1.02 1.38-1.39zm2.38 12.14c-.51.75-1 1.62-1.51 2.26-.87.13-1.75.13-2.75.13-.87 0-1.88 0-2.75-.13-.51-.75-1-1.51-1.51-2.26-.51-.75-.87-1.62-1.25-2.38.38-.75.75-1.62 1.25-2.38.51-.75 1-1.62 1.51-2.26.87-.13 1.75-.13 2.75-.13s1.88 0 2.75.13c.51.75 1 1.51 1.51 2.26.51.75.87 1.62 1.25 2.38-.38.76-.74 1.63-1.25 2.38zm1.62-1.75c.51 1.13 1 2.26 1.25 3.38-1.13.25-2.26.51-3.64.62.38-.62.87-1.25 1.25-2 .39-.62.78-1.38 1.14-2zM25 33.1c-.75-.87-1.62-1.75-2.38-2.88.75 0 1.51.13 2.38.13.87 0 1.62 0 2.38-.13-.76.99-1.63 2.01-2.38 2.88zm-3.38-3.51c-1.25-.13-2.51-.38-3.64-.62.38-1.13.75-2.26 1.25-3.38.38.62.75 1.38 1.13 2 .38.75.76 1.38 1.26 2zm-2.37-5.26c-.51-1.13-1-2.38-1.25-3.38 1.13-.25 2.26-.51 3.64-.62-.38.62-.87 1.25-1.25 2-.39.75-.78 1.38-1.14 2zM25 16.82c.75.87 1.62 1.75 2.38 2.88-.76.01-1.51-.11-2.38-.11-.87 0-1.62 0-2.38.13.76-1.03 1.63-2.03 2.38-2.9zm4.64 5.51c-.38-.62-.75-1.38-1.25-2 1.25.13 2.51.38 3.64.62-.38 1.13-.75 2.26-1.25 3.38-.39-.62-.78-1.38-1.14-2zm-11.15-8.64c1-.62 2.75 0 4.75 1.51.51.38.87.75 1.38 1.25-.87 1-1.75 2-2.62 3.26-1.51.13-2.88.38-4.13.62-.88-3.26-.75-5.88.62-6.64zm-6.52 11.26c0-1.62 2.26-3 5.51-3.88.38 1.25.87 2.51 1.51 3.88-.62 1.38-1.13 2.62-1.51 3.88-3.25-.86-5.51-2.24-5.51-3.88zm11.28 9.77c-2 1.62-3.75 2.13-4.75 1.51-1-.62-1.38-2.38-1-4.88.13-.62.25-1.25.38-1.88 1.25.25 2.62.51 4.13.62.87 1.25 1.75 2.26 2.62 3.26-.5.5-.88.99-1.38 1.37zm9.26-3.38c.38 2.51 0 4.26-1 4.88-1 .62-2.75 0-4.75-1.51-.51-.38-.87-.75-1.38-1.25.87-1 1.75-2 2.62-3.26 1.51-.13 2.88-.38 4.13-.62.13.52.38 1.14.38 1.76zm0-2.49c-.38-1.25-.87-2.62-1.51-3.88.62-1.38 1.13-2.62 1.51-3.88 3.26.87 5.51 2.26 5.51 3.88.01 1.62-2.25 3-5.51 3.88z" class="st4"/><circle cx="24.62" cy="25" r="2.2" class="st4"/></svg>