<svg xmlns="http://www.w3.org/2000/svg" id="Layer_1" x="0" y="0" version="1.1" viewBox="0 0 50 50" xml:space="preserve"><style>.st3{fill:#494949}</style><path fill="#a475ef" d="M44.8 10.7l-1.2 15.6-35.7 13c-.5-1.1-.7-2.5-.8-4.3L5.2 10.7C5.1 8.3 6.3 6.8 9.6 6l12.8-3.6c1-.2 1.8-.4 2.6-.4s1.6.2 2.6.4L40.4 6c3.3.8 4.5 2.3 4.4 4.7z"/><path fill="#bf94f7" d="M36.7 5L5.6 16.3l-.4-5.6C5.1 8.3 6.3 6.8 9.6 6l12.8-3.6c1-.2 1.8-.4 2.6-.4s1.6.2 2.6.4L36.7 5z"/><path fill="#444" d="M40.7 4.8L27.9 1.3c-1.1-.3-2-.5-2.9-.5s-1.8.2-2.9.5L9.3 4.8c-3.7.9-5.5 2.9-5.4 6L5.8 35c.4 5.7 2.3 7.5 6.2 9.4l10.8 4.4c.7.2 1.5.4 2.2.4s1.5-.1 2.2-.4l6.4-2.6c.6-.3.9-1 .7-1.6-.3-.6-1-.9-1.6-.7l-6.3 2.6c-.9.3-1.8.3-2.7 0L13 42.2c-3.1-1.5-4.4-2.6-4.7-7.3L6.4 10.7c0-1.3.2-2.7 3.6-3.5l12.8-3.6c.9-.3 1.6-.4 2.2-.4.7 0 1.3.1 2.2.4l12.9 3.6c3.3.8 3.5 2.1 3.5 3.4l-1.2 15.6c0 .7.5 1.3 1.2 1.3s1.3-.5 1.3-1.1l1.2-15.6c.1-3.2-1.7-5.1-5.4-6z"/><path d="M26.8 24.2c.4 1 0 2.1-1 2.6-1 .4-2.1 0-2.6-1-.4-1 0-2.1 1-2.6 1-.4 2.2 0 2.6 1z" class="st3"/><path d="M36.3 28.4c-1 .4-1.5 1.6-1 2.5.2.6.7.9 1.2 1.1-.1.4-.3.8-.6 1.2-1 1.4-3 1.9-5.7 1.5 1.4-2.4 2.3-5.4 2.7-8.7.4-3.2.3-6.4-.4-9 2.7.3 4.6 1.3 5.2 2.9.6 1.6 0 3.7-1.8 5.8-.1.1-.1.2-.2.2v.1c0 .1.1.2.1.3l.3.9.7-.7c2.1-2.5 2.9-5 2-7s-3.1-3.3-6.3-3.6h-.3c0-.1-.1-.2-.1-.3-1.1-3.1-3-4.9-5.1-5.2-.9-.1-1.8 0-2.6.4-.5-.3-1.1-.3-1.7-.1-1 .4-1.5 1.6-1 2.5.4 1 1.6 1.5 2.6 1 1-.4 1.5-1.6 1-2.5.6-.2 1.1-.3 1.6-.2 1.7.2 3.2 1.7 4.1 4.3-2.8 0-5.8.7-8.8 1.9-3.1 1.2-5.8 3-7.8 4.9-1.1-2.4-1.1-4.4-.1-5.8 1-1.3 3-1.8 5.6-1.5.5-.3 1.1-.6 1.7-.9-.4-.1-.8-.2-1.2-.2-3.2-.6-5.7.1-7.1 1.9-1.3 1.8-1.3 4.4.1 7.3v.1s0 .1-.1.1c-2.1 2.5-2.8 5-2 7s3.1 3.3 6.3 3.6h.3c.5.9 1.6 1.3 2.5.9 1-.4 1.5-1.6 1-2.6-.4-1-1.6-1.5-2.6-1-.6.3-1 .8-1.2 1.5-2.8-.3-4.7-1.3-5.3-2.9-.6-1.5 0-3.5 1.6-5.5 1.4 2.4 3.6 4.8 6.3 6.8 2.6 2 5.5 3.4 8.1 4.1-1.6 2.2-3.3 3.3-5 3.1-.8-.1-1.5-.5-2.2-1.1-.4.1-.8.3-1.2.4.9 1.1 2.1 1.8 3.3 1.9 2.2.3 4.4-1.1 6.3-3.8 0-.1.1-.1.1-.2h.3c3.2.6 5.7-.1 7.1-1.9.4-.6.7-1.2.8-1.9h.1c1-.4 1.5-1.6 1-2.5-.4-1-1.6-1.5-2.6-1.1zM29 34.5c-2.6-.7-5.5-2.1-8.1-4-2.7-2-4.8-4.4-6.1-6.8 1.9-2 4.6-3.7 7.7-4.9 3-1.2 6.1-1.9 8.8-1.8.7 2.6.9 5.7.5 9-.5 3.1-1.4 6.1-2.8 8.5z" class="st3"/></svg>