<svg xmlns="http://www.w3.org/2000/svg" id="Camada_1" x="0" y="0" version="1.1" viewBox="0 0 50 50" xml:space="preserve"><style>.st4{fill:#494949}</style><path fill="#00c8e2" d="M48.4 22L5.2 37.7C2.8 34 1.4 29.7 1.4 25c0-1 .1-1.9.2-2.8 0-.2.1-.5.1-.7L40.6 7.3c.2.2.4.3.5.5 3.9 3.7 6.6 8.6 7.3 14.2z"/><path fill="#00dffc" d="M41.1 7.8L1.6 22.2c0-.2.1-.5.1-.7 1.7-11.3 11.5-20 23.3-20 6 0 11.4 2.2 15.6 5.9.1.1.3.2.5.4z"/><path fill="none" stroke="#444" stroke-linecap="round" stroke-linejoin="round" stroke-miterlimit="10" stroke-width="2.5" d="M48.6 25C48.6 38 38 48.6 25 48.6c-8.3 0-15.6-4.3-19.8-10.9-2.4-3.7-3.8-8-3.8-12.7 0-1 .1-1.9.2-2.8 0-.2.1-.5.1-.7 1.7-11.3 11.5-20 23.3-20 6 0 11.4 2.2 15.6 5.9.2.2.4.3.5.5 3.9 3.6 6.6 8.6 7.3 14.2.1.9.2 1.9.2 2.9z"/><circle cx="25" cy="25" r="19.8" fill="none" stroke="#444" stroke-linecap="round" stroke-linejoin="round" stroke-miterlimit="10" stroke-width=".75"/><path d="M26.7 24.3c.4.9 0 2-1 2.4-.9.4-2 0-2.4-1-.4-.9 0-2 1-2.4.9-.4 2 .1 2.4 1z" class="st4"/><path d="M35.6 28.2c-.9.4-1.4 1.5-1 2.4.2.5.6.9 1.1 1-.1.4-.3.8-.5 1.1-1 1.3-2.8 1.7-5.3 1.4 1.3-2.3 2.1-5.1 2.5-8.1.4-3 .2-6-.4-8.5 2.5.3 4.3 1.2 4.9 2.7.6 1.5 0 3.4-1.7 5.4l-.2.2v.1c0 .1.1.2.1.3.1.3.2.5.3.8.2-.2.4-.5.6-.7 2-2.3 2.7-4.7 1.9-6.6-.8-1.9-2.9-3.1-5.9-3.4h-.3c0-.1-.1-.2-.1-.3-1.1-2.9-2.8-4.6-4.8-4.9-.8-.1-1.7 0-2.5.4-.5-.3-1.1-.3-1.6-.1-.9.4-1.4 1.5-1 2.4.4.9 1.5 1.4 2.4 1 .9-.4 1.4-1.5 1-2.4.5-.2 1-.2 1.5-.2 1.6.2 3 1.6 3.9 4-2.6 0-5.4.6-8.3 1.8-2.9 1.2-5.4 2.8-7.3 4.6-1-2.2-1-4.2-.1-5.4.9-1.3 2.8-1.7 5.3-1.4.5-.3 1-.6 1.6-.8-.4-.1-.7-.2-1.1-.2-3-.5-5.4.1-6.6 1.8-1.2 1.6-1.2 4.1.1 6.8 0 0 0 .1.1.1l-.1.1c-2 2.3-2.7 4.7-1.9 6.6.8 1.9 2.9 3.1 5.9 3.4h.3c.4.8 1.4 1.2 2.3.9.9-.4 1.4-1.5 1-2.4s-1.5-1.4-2.4-1c-.6.2-1 .8-1.1 1.4-2.6-.2-4.4-1.2-5-2.7-.6-1.4 0-3.3 1.5-5.2 1.3 2.3 3.4 4.5 5.9 6.4 2.4 1.9 5.1 3.2 7.6 3.9-1.5 2.1-3.1 3.1-4.7 2.9-.7-.1-1.4-.5-2.1-1.1-.4.1-.8.3-1.2.4.9 1 1.9 1.6 3.1 1.8 2.1.3 4.1-1 5.9-3.5 0-.1.1-.1.1-.2h.2c3 .5 5.4-.1 6.6-1.8.4-.5.7-1.1.8-1.8h.1c.9-.4 1.4-1.5 1-2.4-.4-1-1.5-1.4-2.4-1zm-6.9 5.6c-2.5-.6-5.1-1.9-7.6-3.8s-4.5-4.1-5.8-6.3c1.8-1.8 4.3-3.5 7.2-4.6 2.8-1.1 5.7-1.7 8.2-1.7.7 2.4.9 5.4.5 8.4-.3 3.1-1.2 5.9-2.5 8z" class="st4"/></svg>