<svg xmlns="http://www.w3.org/2000/svg" id="Layer_1" x="0" y="0" version="1.1" viewBox="0 0 50 50" xml:space="preserve"><style>.st2{fill:#444}.st5{fill:none;stroke:#444;stroke-width:.25;stroke-miterlimit:10}</style><path fill="#fdce74" d="M32.55 4.12c-.98-.12-6.79 3.91-7.8 3.91-1.01 0-5.99-4.03-6.97-3.91-5.76.74-.67-2.37-6.21 1.05-3.46 2.14 3.91 13.41-6.52 14.02l34.57-12.3c-3.32-2.78-2.55-2.19-7.07-2.77z"/><path fill="#fbc14f" d="M39.62 6.89L4.74 19.31c-.28 1.43-3.36 3.96-3.36 5.48 0 4.38 7.06 5.91 9.17 9.41 1.35 2.24-2.05 6.54-.05 8.21l37.08-13.19c.28-1.43.43-2.91.43-4.43 0-4.42-6.23-3.85-8.37-7.37-1.35-2.22 1.95-8.88-.02-10.53z"/><circle cx="17.3" cy="18.58" r="3.06" class="st2"/><circle cx="17.3" cy="11.08" r="3.06" class="st2"/><circle cx="24.93" cy="18.58" r="3.06" class="st2"/><circle cx="32.55" cy="18.58" r="3.06" class="st2"/><circle cx="32.55" cy="11.08" r="3.06" class="st2"/><circle cx="17.3" cy="26.08" r="3.06" class="st2"/><circle cx="17.3" cy="39.52" r="3.06" class="st2"/><circle cx="9.78" cy="26.08" r="3.06" class="st2"/><circle cx="32.55" cy="26.08" r="2.28" class="st2"/><circle cx="32.55" cy="39.52" r="2.28" class="st2"/><circle cx="38.9" cy="26.08" r="2.28" class="st2"/><circle cx="24.93" cy="32.8" r="2.28" class="st2"/><circle cx="25" cy="26.13" r="2.46" class="st2"/><circle cx="17.3" cy="32.8" r="2.28" class="st2"/><circle cx="32.55" cy="32.8" r="1.64" class="st2"/><circle cx="25.03" cy="26.08" r="3.33" fill="#444" stroke="#444" stroke-miterlimit="10" stroke-width=".5"/><path fill="none" stroke="#444" stroke-linecap="round" stroke-miterlimit="10" stroke-width="2.5" d="M31.93 45.85c-.68-.27-1.35-.62-1.99-.99-2.73-1.6-4.94-3.79-4.94-3.79s-7.22 7.25-11.61 4.96c-5.03-2.63-1.81-12.88-1.81-12.88S1.13 31.3 1.25 25.45s10.33-7.7 10.33-7.7-3.29-9.84 1.11-12.82c4.93-3.33 12.33 4.61 12.33 4.61s7.07-7.23 11.86-4.55 1.61 13.03 1.61 13.03 10.25 2.51 10.25 7.42-10.33 7.7-10.33 7.7.47 1.81.71 4.09"/><path d="M37.04 18.81c-14.04-4.27-23.97-.16-23.97-.16m-.09 13.58s12.8 3.46 24.1.09" class="st5"/><path d="M13.07 18.6s5.52 15.13 11.92 20.84c0 0 9.98-10.02 12.09-20.71" class="st5"/><path d="M12.86 32.75S17.16 19.84 25 11.17c0 0 9.4 10.68 12.04 21.14" class="st5"/></svg>