<svg xmlns="http://www.w3.org/2000/svg" id="Layer_1" x="0" y="0" version="1.1" viewBox="0 0 50 50" xml:space="preserve"><style>.st3{fill:none;stroke:#494949;stroke-linecap:round;stroke-linejoin:round;stroke-miterlimit:10}</style><path fill="#e56060" d="M42.6 9.8l-.1-.5-8.8 3.2-5.8 2.1-3.9 1.5-3.6 1.3-2 .8-2.4.8-8.6 3.1v.5c.2 2.3 1 7.3 3.7 12.4l5.7-2.1 7.3-2.7c-3.7-.9-3.4-7 .9-7 3.2 0 4.2 3.6 2.8 5.6l6.2-2.3.2-.1 8.2-3c.1-.7.2-1.5.2-2.3V9.8z"/><path fill="#ff6b6b" d="M42.5 9.3c-.2-.7-.8-1.3-1.6-1.6l-15-5.2c-.6-.2-1.2-.2-1.7 0l-15 5.4c-1 .4-1.7 1.3-1.7 2.5v11.7c0 .2 0 .3.1.5l9-3.3 1-.4 2.8-1 2.8-1 5.2-1.9 6.8-2.5 7.5-2.7-.2-.5z"/><g id="password_00000080928907637947544750000006386540423779942304_"><path fill="none" stroke="#494949" stroke-linecap="round" stroke-linejoin="round" stroke-miterlimit="10" stroke-width="2.5" d="M42.6 10.2v11.2c-.1.8-.1 1.5-.2 2.3C40.5 38.4 31.1 44.9 27 47.2c-1.2.7-2.7.7-3.9 0-6-3.1-9.7-7.7-12-12.1C8.5 30 7.7 25 7.4 22.7V10.3c0-1.1.7-2.1 1.7-2.4l15-5.4c.6-.2 1.2-.2 1.7 0l15 5.2c.8.3 1.3.9 1.6 1.6.1.2.1.3.1.5.1.1.1.2.1.4z"/><path d="M29.7 20.5v-2.2c0-2.6-2.1-4.7-4.7-4.7s-4.7 2.1-4.7 4.7v2.2m11.7 0H18c-1.2 0-2.2 1-2.2 2.2v8.5c0 1.2 1 2.2 2.2 2.2h14c1.2 0 2.2-1 2.2-2.2v-8.5c0-1.2-1-2.2-2.2-2.2z" class="st3"/><circle cx="25" cy="26.9" r="3.5" class="st3" transform="rotate(-80.781 25.007 26.935)"/></g></svg>