<svg xmlns="http://www.w3.org/2000/svg" id="Layer_1" x="0" y="0" version="1.1" viewBox="0 0 50 50" xml:space="preserve"><style>.st2{fill:#444}</style><path fill="#fcc34f" d="M45.8 17.3v10.5l-2.3.9-8.1 2.9-5.7 2.1-3.6 1.3-5.6 2-8 2.9-2.8 1-3-1.7c-1.7-1-2.8-2.7-2.8-4.7v-7.2l2.3-.9 10-3.7 13.2-4.8L40.8 14l2.8-1c.2.1.3.3.5.4 1.1 1 1.7 2.4 1.7 3.9z"/><path fill="#fdcf72" d="M44.1 13.3l-2.6 1-11.3 4.1-7 2.6-2 .7-5 1.8-9.8 3.6L4 28V17.3c0-1.9 1.1-3.7 2.8-4.7l5.7-3.9C15.7 6.8 18.8 5 22 3.2c.5-.3 1.7-.9 3.4-.8 1.3.1 2.3.6 2.7.9 5 3.1 9.9 6.2 14.9 9.4.2.1.4.2.5.3.3.1.4.2.6.3z"/><path d="M47.2 15.8v13.5c0 .7-.6 1.2-1.2 1.2-.7 0-1.2-.5-1.2-1.2V15.8c0-1.2-.6-2.3-1.7-2.9l-.5-.3-.7-.4-15.2-8.4c-1-.6-2.3-.6-3.4 0L7 12.9c-1 .6-1.7 1.7-1.7 2.9v18.4c0 1.2.7 2.3 1.7 2.9l4.9 2.8 11.4 6.4c1 .6 2.3.6 3.4 0l4.5-2.5c.6-.3 1.3-.1 1.7.5.3.6.1 1.3-.5 1.7l-4.5 2.5c-.9.4-1.9.6-2.9.6s-2-.2-2.9-.8L8.9 40.9l-3.2-1.8c-1.8-1-2.9-2.9-2.9-4.9V15.8c0-2 1.1-3.9 2.9-5l7-3.9 9.4-5.3c1.7-1 3.8-1 5.6-.1.1 0 .2.1.3.1l16.3 9.2c.2.1.4.2.5.4.2.1.4.3.5.4 1.2 1.1 1.9 2.6 1.9 4.2z" class="st2"/><circle cx="22.8" cy="22.3" r="2.4" class="st2"/><path d="M31.4 18.2l-.9-.3c0-.2.1-.4.1-.6.7-3.2.2-5.7-1.2-6.5-1.4-.8-3.6 0-5.9 2-.2.2-.4.4-.7.6-.2-.2-.3-.3-.5-.4-2.4-2.2-4.8-3-6.2-2.2-1.3.8-1.8 3.1-1.2 6.1 0 .3.1.6.2.9-.4.1-.7.2-1 .3-2.9 1-4.6 2.5-4.6 4.1s1.9 3.3 4.9 4.3c.2.1.5.2.8.2-.1.3-.2.6-.2 1-.6 3-.1 5.3 1.3 6 .4.2.8.3 1.3.3 1.4 0 3.1-.8 4.9-2.4.1 0 .1-.1.2-.2h-.6c-.3 0-.6-.1-.7-.3-2.1 1.7-3.8 2-4.5 1.6-.7-.4-1.3-2.1-.7-4.9.1-.3.1-.7.2-1v-.2c1.1.2 2.3.4 3.7.5.3.5.6.9 1 1.3v-.6c0-.1 0-.3.1-.4-.1-.1-.2-.2-.2-.3h.4c.2-.2.4-.3.7-.3h5.7c.7-.1 1.3-.2 1.9-.3v.3h1.1c0-.1-.1-.3-.1-.4.2-.1.3-.1.5-.2 3.1-1 5-2.7 5-4.3-.1-1.1-1.9-2.7-4.8-3.7zm-7.9-3.9c.2-.2.5-.5.7-.6 2.2-1.9 3.9-2.3 4.7-1.9.8.4 1.3 2.3.7 5.4 0 .2-.1.4-.2.6v.1c-1.2-.3-2.5-.5-3.7-.6-.7-1-1.5-2-2.3-2.9 0 0 .1 0 .1-.1zm5.9 4.3c-.3 1-.7 2-1.1 3-.3-.6-.7-1.2-1-1.8-.3-.6-.7-1.2-1.1-1.8 1.1.1 2.2.3 3.2.6zm-6.6-3.9c.7.8 1.4 1.6 2.1 2.5-1.4-.1-2.8-.1-4.2 0 .6-.8 1.3-1.7 2.1-2.5zm-6.2-2.9c.8-.4 2.7 0 5 2.1.2.1.3.3.5.5l.1.1c-.9.9-1.6 1.9-2.4 2.9-1.2.1-2.5.3-3.6.6v-.1c-.1-.3-.2-.6-.2-.9-.6-3-.1-4.8.6-5.2zm2.8 6.2c-.4.6-.8 1.2-1.1 1.8-.3.6-.7 1.2-1 1.8-.5-1-.8-2-1.1-3.1 1-.2 2.1-.4 3.2-.5zm-3.8 7.9c-.1 0-.1 0 0 0-.4-.1-.6-.2-.9-.3-2.8-1-4.1-2.4-4.1-3.3s1.2-2.1 3.9-3.1c.3-.1.7-.2 1-.3h.1c.4 1.2.8 2.3 1.3 3.5-.5 1.2-1 2.4-1.3 3.5zm.5.3c.3-1 .7-2 1.2-3.1.3.6.6 1.2 1 1.8.4.6.7 1.2 1.1 1.8-1.2-.1-2.3-.2-3.3-.5zm6.7.7c-.9 0-1.7 0-2.5-.1-.5-.7-1-1.4-1.4-2.2-.4-.7-.8-1.5-1.2-2.3.4-.8.8-1.5 1.2-2.3.4-.7.9-1.5 1.4-2.2 1.7-.1 3.4-.1 5.1 0 .5.7.9 1.4 1.4 2.2.4.7.8 1.5 1.2 2.3-.4.8-.8 1.5-1.2 2.3-.4.7-.9 1.5-1.4 2.2-.8.1-1.7.1-2.6.1zm3.4-.2c.4-.6.7-1.2 1.1-1.8.4-.6.7-1.2 1-1.9.5 1.1.9 2.1 1.2 3.1-1 .3-2.2.5-3.3.6zm4.5-1.1c-.2.1-.4.1-.6.2H30c-.3-1.1-.8-2.3-1.4-3.5.6-1.2 1-2.3 1.3-3.4 0 0 .1 0 .2.1l.9.3c2.8.9 4 2.2 4 3.1 0 .8-1.3 2.3-4.3 3.2z" class="st2"/><path d="M28.6 42.2h-3V30.7h-3.8v-2.5h10.5v2.5h-3.8l.1 11.5zm14.2-3.9c0 1.3-.5 2.3-1.4 3s-2.2 1.1-3.8 1.1c-1.5 0-2.8-.3-3.9-.8v-2.7c.9.4 1.7.7 2.4.9s1.2.3 1.8.3 1.1-.1 1.5-.4c.3-.2.5-.6.5-1.1 0-.3-.1-.5-.2-.7-.2-.2-.4-.4-.7-.6-.3-.2-.9-.5-1.8-.9s-1.5-.8-1.9-1.2-.8-.8-1-1.3c-.3-.5-.4-1.1-.4-1.7 0-1.2.4-2.2 1.3-2.9s2-1.1 3.5-1.1c.7 0 1.4.1 2.1.3s1.3.4 2.1.7l-1 2.3c-.7-.3-1.4-.5-1.8-.6-.5-.1-1-.2-1.4-.2-.6 0-1 .1-1.3.4s-.4.6-.4 1c0 .3.1.5.2.7.1.2.3.4.6.6.3.2.9.5 1.9 1 1.3.6 2.2 1.2 2.7 1.9s.4 1.1.4 2z" class="st2"/></svg>