<svg xmlns="http://www.w3.org/2000/svg" id="Camada_3" x="0" y="0" version="1.1" viewBox="0 0 50 50" xml:space="preserve"><style>.st3{fill:none}.st3,.st6{stroke:#444;stroke-miterlimit:10}.st3{stroke-linecap:round;stroke-linejoin:round;stroke-width:2.5}.st6{fill:#444;stroke-width:.5}</style><path fill="#f799ff" d="M42.83 13.28l-6.45-1.71c-.68-.01-.95-8.57-1.54-8.92l-2.86-.97c-.45.15-6.65 3.67-6.88 3.26-1.52-2.69-6.26-2.85-8.91-2.48l-.06 8.95-8.56 1.58c-.44.44-.72 1.18-1.17 1.63L5.82 27.3c.64.45.28.83.92 1.29l38.53-13.71c.28-.39-.34-.47-.06-.86l-.4-.17c-.45-.45-1.54-.12-1.98-.57z"/><path fill="#e589ef" d="M5.81 28.92l1.36 12.53 13.21 1.3-3.3 3.85 28.95-10.3V14.61z"/><path fill="none" stroke="#444" stroke-linecap="round" stroke-miterlimit="10" stroke-width="2.5" d="M45.45 37.79V16.54a3.55 3.55 0 00-3.55-3.55l-2.68-.18c-1.9-.99-3.95-1.49-3.95-1.49s2.2-7.17-1.12-9.03c-3.32-1.86-8.22 3.15-8.22 3.15s-5.13-5.5-8.54-3.19c-3.05 2.06-.77 8.88-.77 8.88s-2.45.44-4.48 1.64l-.97.26L9.88 13h-.5a3.55 3.55 0 00-3.55 3.55v22.13a3.55 3.55 0 003.55 3.55h10.83"/><path d="M37.8 42.22h-6.57" class="st3"/><path fill="none" stroke="#444" stroke-linecap="round" stroke-linejoin="round" stroke-miterlimit="10" stroke-width=".25" d="M6.27 34.77h38.15"/><path d="M19.96 44.74v-2.52h11.67v2.52m-11.67 0c-3.93 0-4.03 3.72-4.03 3.72h19.42s.71-3.72-3.71-3.72" class="st3"/><circle cx="25.66" cy="38.09" r="1.25" fill="none" stroke="#444" stroke-miterlimit="10" stroke-width=".25"/><path d="M35.63 11.73c1.28-4.63.95-8.12-1.12-9.24-1.59-.95-3.99-.16-6.86 2.06-.65.49-1.28 1.12-1.77 1.59-.65-.65-1.28-1.12-1.77-1.59-2.71-2.22-5.25-3.03-6.86-2.06-2.06 1.12-2.38 4.78-1.12 9.24-4.63 1.28-7.47 3.34-7.47 5.58 0 2.38 2.87 4.46 7.47 5.58-.16.79-.49 1.59-.49 2.38-.65 3.5 0 6.04 1.59 6.86.49.32.95.49 1.59.49 1.43 0 3.2-.79 5.25-2.38.65-.49 1.28-1.12 1.77-1.59.65.65 1.28 1.12 1.77 1.59 1.92 1.59 3.81 2.38 5.25 2.38.65 0 1.12-.16 1.59-.49 1.59-.95 2.22-3.34 1.59-6.86-.16-.79-.32-1.59-.49-2.38 4.63-1.28 7.47-3.34 7.47-5.58.08-2.42-2.79-4.47-7.39-5.58zm-7.5-6.86c1.92-1.43 3.5-2.22 4.78-2.22.49 0 .95.16 1.28.32 1.77.95 1.92 4.3.79 8.61-1.59-.32-3.34-.65-5.25-.79-1.12-1.59-2.22-2.87-3.34-4.15.62-.65 1.11-1.3 1.74-1.77zm3.03 15.45c-.65.95-1.28 2.06-1.92 2.87-1.12.16-2.22.16-3.5.16-1.12 0-2.38 0-3.5-.16-.65-.95-1.28-1.92-1.92-2.87-.65-.95-1.12-2.06-1.59-3.03.49-.95.95-2.06 1.59-3.03.65-.95 1.28-2.06 1.92-2.87 1.12-.16 2.22-.16 3.5-.16s2.38 0 3.5.16c.65.95 1.28 1.92 1.92 2.87.65.95 1.12 2.06 1.59 3.03-.48.96-.95 2.08-1.59 3.03zm2.06-2.23c.65 1.43 1.28 2.87 1.59 4.3-1.43.32-2.87.65-4.63.79.49-.79 1.12-1.59 1.59-2.55.5-.79.98-1.75 1.45-2.54zm-7.31 9.56c-.95-1.12-2.06-2.22-3.03-3.66.95 0 1.92.16 3.03.16 1.12 0 2.06 0 3.03-.16-.97 1.26-2.09 2.55-3.03 3.66zm-4.31-4.47c-1.59-.16-3.2-.49-4.63-.79.49-1.43.95-2.87 1.59-4.3.49.79.95 1.77 1.43 2.55.49.95.98 1.76 1.61 2.54zm-3.01-6.68c-.65-1.43-1.28-3.03-1.59-4.3 1.43-.32 2.87-.65 4.63-.79-.49.79-1.12 1.59-1.59 2.55-.5.93-.99 1.75-1.45 2.54zm7.32-9.57c.95 1.12 2.06 2.22 3.03 3.66-.96.02-1.92-.14-3.03-.14-1.12 0-2.06 0-3.03.16.96-1.28 2.08-2.56 3.03-3.68zm5.89 7.02c-.49-.79-.95-1.77-1.59-2.55 1.59.16 3.2.49 4.63.79-.49 1.43-.95 2.87-1.59 4.3-.5-.78-.98-1.75-1.45-2.54zM17.62 2.96c1.28-.79 3.5 0 6.04 1.92.65.49 1.12.95 1.77 1.59-1.12 1.28-2.22 2.55-3.34 4.15-1.92.16-3.66.49-5.25.79-1.12-4.15-.96-7.49.78-8.45zM9.34 17.29c0-2.06 2.87-3.81 7.01-4.93.49 1.59 1.12 3.2 1.92 4.93-.79 1.77-1.43 3.34-1.92 4.93-4.14-1.1-7.01-2.85-7.01-4.93zm14.34 12.42c-2.55 2.06-4.78 2.71-6.04 1.92-1.26-.79-1.77-3.03-1.28-6.21.16-.79.32-1.59.49-2.38 1.59.32 3.34.65 5.25.79 1.12 1.59 2.22 2.87 3.34 4.15-.65.63-1.13 1.24-1.76 1.73zm11.78-4.3c.49 3.2 0 5.42-1.28 6.21s-3.5 0-6.04-1.92c-.65-.49-1.12-.95-1.77-1.59 1.12-1.28 2.22-2.55 3.34-4.15 1.92-.16 3.66-.49 5.25-.79.18.66.5 1.45.5 2.24zm0-3.17c-.49-1.59-1.12-3.34-1.92-4.93.79-1.77 1.43-3.34 1.92-4.93 4.15 1.12 7.01 2.87 7.01 4.93s-2.87 3.81-7.01 4.93z" class="st6"/><circle cx="25.42" cy="17.34" r="2.79" class="st6"/></svg>