<svg xmlns="http://www.w3.org/2000/svg" id="Camada_1" x="0" y="0" version="1.1" viewBox="0 0 50 50" xml:space="preserve"><style>.st4{fill:#494949}</style><path fill="#00c8e2" d="M48.4 22L5.2 37.7C2.8 34 1.4 29.7 1.4 25c0-1 .1-1.9.2-2.8 0-.2.1-.5.1-.7L40.6 7.3c.2.2.4.3.5.5 3.9 3.7 6.6 8.6 7.3 14.2z"/><path fill="#00dffc" d="M41.1 7.8L1.6 22.2c0-.2.1-.5.1-.7 1.7-11.3 11.5-20 23.3-20 6 0 11.4 2.2 15.6 5.9.1.1.3.2.5.4z"/><path fill="none" stroke="#444" stroke-linecap="round" stroke-linejoin="round" stroke-miterlimit="10" stroke-width="2.5" d="M48.6 25C48.6 38 38 48.6 25 48.6c-8.3 0-15.6-4.3-19.8-10.9-2.4-3.7-3.8-8-3.8-12.7 0-1 .1-1.9.2-2.8 0-.2.1-.5.1-.7 1.7-11.3 11.5-20 23.3-20 6 0 11.4 2.2 15.6 5.9.2.2.4.3.5.5 3.9 3.6 6.6 8.6 7.3 14.2.1.9.2 1.9.2 2.9z"/><circle cx="25" cy="25" r="19.8" fill="none" stroke="#444" stroke-linecap="round" stroke-linejoin="round" stroke-miterlimit="10" stroke-width=".75"/><path d="M21.6 23c.2 0 .5-.1.7-.1l1.9-.2-2.6-2.8c-.8-.8-1.2-1.9-1.2-3.1h-2.1c0 1.7.6 3.3 1.8 4.5l1.5 1.7zm6.6 4.1c-.2 0-.4.1-.6.1l-2 .2 2.6 2.8c.8.8 1.2 1.9 1.2 3.1h2.1c0-1.7-.6-3.3-1.8-4.5l-1.5-1.7z" class="st4"/><path d="M31.7 20.9c-.3-1.7-1.7-3-3.5-3.2h-.3c-1.1-.1-1.9-1.1-1.9-2.2v-1.1c1-.4 1.7-1.4 1.7-2.5 0-1.5-1.2-2.7-2.7-2.7-1.5 0-2.7 1.2-2.7 2.7 0 1.1.7 2 1.6 2.4v1.2c0 2.2 1.6 4 3.8 4.3h.3c1 .1 1.5.9 1.6 1.5.1.7 0 1.5-.9 2-.4.2-.9.4-1.4.4l-4.9.5c-.8.1-1.6.3-2.3.7-1.5.9-2.3 2.6-1.9 4.3.3 1.7 1.7 3 3.5 3.2h.3c1.1.1 1.9 1.1 1.9 2.2v1c-1 .4-1.6 1.4-1.6 2.5 0 1.5 1.2 2.7 2.7 2.7s2.7-1.2 2.7-2.7c0-1.1-.7-2-1.6-2.5v-1c0-2.2-1.6-4-3.8-4.3H22c-1-.1-1.5-.9-1.6-1.5-.1-.7 0-1.5.9-2 .4-.2.9-.4 1.4-.4l4.9-.5c.8-.1 1.6-.3 2.3-.7 1.4-.9 2.2-2.6 1.8-4.3z" class="st4"/></svg>