<svg xmlns="http://www.w3.org/2000/svg" id="Camada_1" x="0" y="0" version="1.1" viewBox="0 0 50 50" xml:space="preserve"><style>.st3,.st4{fill:none;stroke:#494949;stroke-linecap:round;stroke-linejoin:round;stroke-miterlimit:10}.st4{fill:#494949}</style><path fill="#e56060" d="M3.7 36.6l27.4-9.9 4.4-1.6L48 20.5l1.1-.4-.7-5.4-.4-6.2-.1-1.4-.6-.3-2.8-1.3-1.9-.8-2.3.8L2 19.4l-.8.3v5.5z"/><path fill="#ff6b6b" d="M46.7 4.8L49 8.1.9 25.3 2 7.7l3.1-3 29.8-.2z"/><path id="connect" fill="none" stroke="#494949" stroke-linecap="round" stroke-linejoin="round" stroke-miterlimit="10" stroke-width="2.5" d="M14.1 45.5H36M20.8 37h8.5v8.4h-8.5zm23.9 0H5.3C3.5 37 2 35.6 2 33.8v-25C2 7 3.5 5.6 5.3 5.6h39.4C46.5 5.6 48 7 48 8.8v24.9c0 1.9-1.5 3.3-3.3 3.3z"/><circle cx="16.6" cy="26.1" r="2.4" class="st3"/><circle cx="25" cy="26.1" r="2.4" class="st4"/><circle cx="25" cy="14.7" r="2.4" class="st4"/><circle cx="33.4" cy="26.1" r="2.4" class="st3"/><circle cx="20.8" cy="20.4" r="2.4" class="st3"/><circle cx="29.2" cy="20.4" r="2.4" class="st4"/></svg>