<svg xmlns="http://www.w3.org/2000/svg" id="Layer_1" x="0" y="0" version="1.1" viewBox="0 0 50 50" xml:space="preserve"><style>.st2,.st4{fill:none;stroke:#444;stroke-linecap:round;stroke-linejoin:round;stroke-miterlimit:10}.st4{stroke-width:.5}</style><path fill="#bf94f7" d="M46.3 2l-33.5-.2c-.9.2-11 11.1-11.2 12L1 20.9 47.3 4.7l-1-2.7z"/><path fill="#a475ef" d="M.7 20.6l1.6 27.5 45.5-16v-4.9l.9-23.7z"/><path d="M16.8 9.9V5.6h26.5V32h-4.9" class="st2"/><path d="M13.6 17.8v-3.4c0-2.4 2-4.4 4.4-4.4h15.8c2.4 0 4.4 2 4.4 4.4v16c0 2.4-2 4.4-4.4 4.4h-2.6" class="st2"/><path d="M10.4 23.2c1-4.5 4.9-7.6 9.7-7.6h3c5.6 0 10.1 4.5 10.1 10.1v2.6c0 4.1-2.4 7.6-5.9 9.2" class="st2"/><ellipse cx="16.7" cy="33.2" class="st2" rx="11.3" ry="12"/><path fill="none" stroke="#444" stroke-linecap="round" stroke-linejoin="round" stroke-miterlimit="10" stroke-width="2.5" d="M30.1 48.5h-26c-1.4 0-2.5-1.1-2.5-2.5V14.5c0-.8.3-1.6.8-2.2l9.2-9.9c.5-.5 1.1-.8 1.8-.8h31.8c1.4 0 2.5 1.1 2.5 2.5V36c0 .6-.2 1.2-.6 1.6l-4.2 5"/><path d="M36.9 13.2L47.8 1.5m-35.3 0v35.3h35.3" class="st4"/><path d="M1.7 13.2h35.2v29.3" class="st4"/></svg>