<svg xmlns="http://www.w3.org/2000/svg" id="Camada_1" x="0" y="0" version="1.1" viewBox="0 0 50 50" xml:space="preserve"><style>.st2{fill:none;stroke:#494949;stroke-width:2.5;stroke-linecap:round;stroke-linejoin:round;stroke-miterlimit:10}</style><path fill="#71bac0" d="M43.35 28.86l-26.7 9.7c-1.8-2.1-6.4-5.4-6.8-8.3-.3-3-1-9.2-1.3-12.2 6.5-2.3 18-6.5 24.6-8.9 2.1 4 8 15.5 10.2 19.7z"/><path fill="#7ed0d6" d="M36.35 15.36c-4.1 1.5-23.4 8.4-27 9.7-.5-4.3-1.7-14.6-2.2-19-.8-8.4 5.4-.7 7.8.9 1.2-9 4.8-4.5 8.3-.1 1.2-2.8 4.2-8.5 6.9-3.4 1.5 2.9 4.6 8.9 6.2 11.9z"/><path d="M42.65 34.36l-1.3 1.3c-.9.4-13 14.1-14 12.9-1.2.1-9.5-9.2-10.6-10-1.9-2.1-7.2-5.7-5.3-9.1 4.2-8 9.4-18.1 13.6-26.2 3.5-6.1 6.6 3.3 8.1 5.8l3.3 6.2 7 13.5c1 1.7.7 4-.8 5.6z" class="st2"/><path d="M14.95 6.96l-5.1-4.3c-5.5-3.8-1 13.6-1.3 15.4l.8 7c.4 3 .3 7.3 3.1 9.3 2.7 2.7 10.3 10.2 13.1 13.1.7.8 2.4 2 3.1.8l12.7-12.7" class="st2"/><path d="M23.15 6.76c-3.5-4.3-7.1-8.9-8.3.2-1.3 6.8-3.1 16.3-4.4 23-.6 3.1 4.4 6.5 6.2 8.6 1.1.9 9.3 9.9 10.6 10 .9 1.4 13.2-12.6 14-12.9l.8-.8" class="st2"/></svg>