<svg xmlns="http://www.w3.org/2000/svg" id="Camada_3" x="0" y="0" version="1.1" viewBox="0 0 50 50" xml:space="preserve"><style>.st2,.st5{stroke:#444;stroke-miterlimit:10}.st2{stroke-linecap:round;stroke-linejoin:round;fill:none;stroke-width:2.5}.st5{fill:#444;stroke-width:.5}</style><path fill="#ff6b6b" d="M45.2 5.15L3.07 4.44c-.52.52-.82.81-1.34 1.33v15.85c.75.53.33.98 1.08 1.51l45.25-16.1c.33-.46-.4-.55-.07-1.01l-.47-.2c-.52-.52-1.8-.15-2.32-.67z"/><path fill="#e56060" d="M1.73 23.51l1.59 14.71 15.02 1.49-3.38 4.57 33.99-12.1V6.71z"/><path d="M18.64 39.14H5.91c-2.3 0-4.17-1.87-4.17-4.17v-26c0-2.3 1.87-4.17 4.17-4.17H44.1c2.3 0 4.17 1.87 4.17 4.17v24.97m-8.98 5.2h-7.72" class="st2"/><path fill="none" stroke="#444" stroke-linecap="round" stroke-linejoin="round" stroke-miterlimit="10" stroke-width=".25" d="M2.27 30.38h44.8"/><path d="M18.34 42.09v-2.95h13.71v2.95m-13.71 0c-4.61 0-4.73 4.37-4.73 4.37h22.8s.83-4.37-4.36-4.37" class="st2"/><circle cx="25.04" cy="34.28" r="1.47" fill="none" stroke="#444" stroke-miterlimit="10" stroke-width=".25"/><path d="M31.2 15.29c.81-2.94.6-5.15-.71-5.86-1.01-.6-2.53-.1-4.35 1.31-.41.31-.81.71-1.12 1.01-.41-.41-.81-.71-1.12-1.01-1.72-1.41-3.33-1.92-4.35-1.31-1.31.71-1.51 3.03-.71 5.86-2.94.81-4.74 2.12-4.74 3.54 0 1.51 1.82 2.83 4.74 3.54-.1.5-.31 1.01-.31 1.51-.41 2.22 0 3.83 1.01 4.35.31.2.6.31 1.01.31.91 0 2.03-.5 3.33-1.51.41-.31.81-.71 1.12-1.01.41.41.81.71 1.12 1.01 1.22 1.01 2.42 1.51 3.33 1.51.41 0 .71-.1 1.01-.31 1.01-.6 1.41-2.12 1.01-4.35-.1-.5-.2-1.01-.31-1.51 2.94-.81 4.74-2.12 4.74-3.54.05-1.52-1.77-2.83-4.7-3.54zm-4.75-4.34c1.22-.91 2.22-1.41 3.03-1.41.31 0 .6.1.81.2 1.12.6 1.22 2.73.5 5.46-1.01-.2-2.12-.41-3.33-.5-.71-1.01-1.41-1.82-2.12-2.63.4-.42.71-.83 1.11-1.12zm1.92 9.79c-.41.6-.81 1.31-1.22 1.82-.71.1-1.41.1-2.22.1-.71 0-1.51 0-2.22-.1-.41-.6-.81-1.22-1.22-1.82-.41-.6-.71-1.31-1.01-1.92.31-.6.6-1.31 1.01-1.92.41-.6.81-1.31 1.22-1.82.71-.1 1.41-.1 2.22-.1s1.51 0 2.22.1c.41.6.81 1.22 1.22 1.82.41.6.71 1.31 1.01 1.92-.3.62-.6 1.32-1.01 1.92zm1.31-1.41c.41.91.81 1.82 1.01 2.73-.91.2-1.82.41-2.94.5.31-.5.71-1.01 1.01-1.62.32-.49.62-1.11.92-1.61zm-4.64 6.07c-.6-.71-1.31-1.41-1.92-2.32.6 0 1.22.1 1.92.1.71 0 1.31 0 1.92-.1-.62.79-1.32 1.61-1.92 2.32zm-2.73-2.84c-1.01-.1-2.03-.31-2.94-.5.31-.91.6-1.82 1.01-2.73.31.5.6 1.12.91 1.62.31.6.62 1.11 1.02 1.61zm-1.92-4.24c-.41-.91-.81-1.92-1.01-2.73.91-.2 1.82-.41 2.94-.5-.31.5-.71 1.01-1.01 1.62-.31.6-.62 1.11-.92 1.61zm4.65-6.06c.6.71 1.31 1.41 1.92 2.32-.61.01-1.22-.09-1.92-.09-.71 0-1.31 0-1.92.1.61-.82 1.31-1.63 1.92-2.33zm3.74 4.44c-.31-.5-.6-1.12-1.01-1.62 1.01.1 2.03.31 2.94.5-.31.91-.6 1.82-1.01 2.73-.32-.49-.62-1.1-.92-1.61zm-9-6.97c.81-.5 2.22 0 3.83 1.22.41.31.71.6 1.12 1.01-.71.81-1.41 1.62-2.12 2.63-1.22.1-2.32.31-3.33.5-.71-2.63-.6-4.75.5-5.36zm-5.26 9.09c0-1.31 1.82-2.42 4.45-3.13.31 1.01.71 2.03 1.22 3.13-.5 1.12-.91 2.12-1.22 3.13-2.63-.69-4.45-1.81-4.45-3.13zm9.11 7.89c-1.62 1.31-3.03 1.72-3.83 1.22s-1.12-1.92-.81-3.94c.1-.5.2-1.01.31-1.51 1.01.2 2.12.41 3.33.5.71 1.01 1.41 1.82 2.12 2.63-.42.39-.73.79-1.12 1.1zm7.47-2.73c.31 2.03 0 3.44-.81 3.94s-2.22 0-3.83-1.22c-.41-.31-.71-.6-1.12-1.01.71-.81 1.41-1.62 2.12-2.63 1.22-.1 2.32-.31 3.33-.5.11.41.31.91.31 1.42zm0-2.02c-.31-1.01-.71-2.12-1.22-3.13.5-1.12.91-2.12 1.22-3.13 2.63.71 4.45 1.82 4.45 3.13 0 1.31-1.82 2.43-4.45 3.13z" class="st5"/><circle cx="24.73" cy="18.86" r="1.77" class="st5"/></svg>