<svg xmlns="http://www.w3.org/2000/svg" id="Camada_3" x="0" y="0" version="1.1" viewBox="0 0 50 50" xml:space="preserve"><style>.st3{stroke:#444;stroke-miterlimit:10;fill:#444;stroke-width:.5}</style><path fill="#4ecdc4" d="M35.94 4.76l7.25 5.47 1.92 6.68L2.16 32.57l.89-13.58L8.81 8.85l13.73-6.28z"/><path fill="#46b8b0" d="M47.26 20.93l-.02.43L5.25 36.45l-1.06-.76-2.14-7.93 41.64-16 2.14 4.15z"/><path fill="none" stroke="#444" stroke-linecap="round" stroke-linejoin="round" stroke-miterlimit="10" stroke-width="2.5" d="M11.39 7.13c7.82-5.82 18.82-6.25 27.2-.28 9.7 6.89 12.48 19.88 6.85 30.04m-8.18 8.54c-7.66 4.69-17.69 4.66-25.47-.88C1.36 37.15-1.07 22.71 6.33 12.3m4.43-4.63s-2.61 1.79-4.54 4.79"/><path d="M29.81 26.67l-.23-1.17c3.82-1.05 6.18-2.75 6.18-4.61 0-1.98-2.37-3.69-6.18-4.61 1.05-3.82.79-6.71-.92-7.63-1.32-.79-3.29-.13-5.66 1.7-.53.4-1.05.92-1.45 1.32-.53-.53-1.05-.92-1.45-1.32-2.24-1.84-4.34-2.5-5.66-1.7-1.7.92-1.97 3.94-.92 7.63-3.82 1.05-6.18 2.75-6.18 4.61 0 1.97 2.37 3.69 6.18 4.61-.13.65-.4 1.32-.4 1.97-.53 2.89 0 4.99 1.32 5.66.4.27.79.4 1.32.4 1.18 0 2.64-.65 4.34-1.97.53-.4 1.05-.92 1.45-1.32.53.53 1.05.92 1.45 1.32 1.58 1.32 2.86 1.97 4.05 1.97.02 0 .03-.01.04-.01l-.01-.57c-1.05-.01-2.15-.66-3.69-1.82-.53-.4-.92-.79-1.45-1.32.92-1.05 1.84-2.1 2.75-3.42 1.58-.13 3.02-.4 4.34-.65.08.35.15.53.24.93h.54zm-6.42-16.04c1.58-1.18 2.89-1.84 3.94-1.84.4 0 .79.13 1.05.27 1.45.79 1.58 3.55.65 7.11-1.32-.27-2.75-.53-4.34-.65-.92-1.32-1.84-2.37-2.75-3.42.53-.55.93-1.08 1.45-1.47zm5.54 6.04c-.4 1.18-.78 2.37-1.32 3.55-.4-.65-.8-1.45-1.18-2.1-.4-.65-.79-1.45-1.32-2.1 1.32.14 2.63.4 3.82.65zm-4.87-1.31c-.8.01-1.58-.12-2.5-.12s-1.7 0-2.5.13c.8-1.07 1.72-2.12 2.5-3.04.78.92 1.7 1.84 2.5 3.03zm-9.35-6.31c1.05-.65 2.89 0 4.99 1.58.53.4.92.79 1.45 1.32-.92 1.05-1.84 2.1-2.75 3.42-1.58.13-3.02.4-4.34.65-.92-3.42-.79-6.17.65-6.97zm-.52 7.62c1.18-.27 2.37-.53 3.82-.65-.4.65-.92 1.32-1.32 2.1-.4.79-.8 1.45-1.18 2.1-.53-1.18-1.05-2.49-1.32-3.55zm2.49 6.98c.4.78.8 1.45 1.32 2.1-1.32-.13-2.64-.4-3.82-.65.4-1.18.79-2.37 1.32-3.55.39.65.78 1.45 1.18 2.1zm-8.81-2.77c0-1.7 2.37-3.15 5.79-4.07.4 1.32.92 2.64 1.58 4.07-.65 1.45-1.18 2.75-1.58 4.07-3.42-.9-5.79-2.35-5.79-4.07zm11.85 10.27c-2.1 1.7-3.94 2.24-4.99 1.58-1.05-.65-1.45-2.5-1.05-5.12.13-.65.27-1.32.4-1.97 1.32.27 2.75.53 4.34.65.92 1.32 1.84 2.37 2.75 3.42-.54.52-.94 1.04-1.45 1.44zm1.83-1.71c-.79-.92-1.7-1.84-2.5-3.02.78 0 1.58.13 2.5.13s1.7 0 2.5-.13c-.79 1.04-1.71 2.1-2.5 3.02zm2.76-3.69c-.92.13-1.84.13-2.89.13-.92 0-1.97 0-2.89-.13-.53-.79-1.05-1.58-1.58-2.37-.53-.78-.92-1.7-1.32-2.5.4-.79.79-1.7 1.32-2.5.53-.79 1.05-1.7 1.58-2.37.92-.13 1.84-.13 2.89-.13s1.97 0 2.89.13c.53.79 1.05 1.58 1.58 2.37s.92 1.7 1.32 2.5c-.4.8-.78 1.72-1.32 2.5-.53.79-1.05 1.71-1.58 2.37zm.78 0c.4-.65.92-1.32 1.32-2.1.4-.65.8-1.45 1.18-2.1.53 1.18 1.05 2.37 1.32 3.55-1.18.27-2.37.54-3.82.65zm4.36-.78c-.4-1.32-.92-2.75-1.58-4.07.65-1.45 1.18-2.75 1.58-4.07 3.42.92 5.79 2.37 5.79 4.07s-2.37 3.15-5.79 4.07z" class="st3"/><circle cx="21.15" cy="20.93" r="2.31" class="st3"/><path fill="#444" d="M28.05 38.03c-.1 2.77-1.68 1.98-3.26 1.68v2.77c8.89 3.16 5.93-10.27 6.42-14.82h-3.16v10.37zm14.43-1.48c-.69-1.88-3.75-2.57-5.33-3.56-2.86-2.96 2.67-3.16 4.64-1.78l.99-2.67c-4.35-2.77-12.35.1-8.69 5.73.49 1.09 4.64 2.47 5.24 3.16 2.17 3.56-4.35 2.67-6.22 1.28v3.06c3.74 2.39 11.74.51 9.37-5.22z"/></svg>