<svg xmlns="http://www.w3.org/2000/svg" id="Camada_1" x="0" y="0" version="1.1" viewBox="0 0 50 50" xml:space="preserve"><style>.st0{stroke-width:.5}.st0,.st3,.st4{fill:none;stroke:#494949;stroke-linecap:round;stroke-linejoin:round;stroke-miterlimit:10}.st4{stroke-width:2.5}</style><path d="M26.2 31.8H2.3" class="st0"/><path fill="#dc5e82" d="M43.9 7.6v8.8l-3.8 1.4L25 23.3l-1 .4-2.7 1-10.4 3.8-9 3.3v-16l3.7-1.4 11.6-4.2 10.4-3.8h15.2c.6 0 1.1.5 1.1 1.2z"/><path fill="#f56991" d="M29.2 6.4l-10.4 3.8-13.2 4.9-3.7 1.4V7.6c0-.6.5-1.2 1.1-1.2h26.2z"/><path d="M19.3 24.6H25v-5.7" class="st3"/><path d="M24.6 24.3L18.4 18" class="st0"/><path d="M14.8 14H9.1v5.7" class="st3"/><path d="M9.3 14.2l6.3 6.4" class="st0"/><path d="M43.9 21.1V7.6c0-.6-.5-1.2-1.2-1.2H3c-.6 0-1.1.5-1.1 1.2v24.6" class="st4"/><path d="M28.8 28.6c-7.7-.1-15.5-.1-23.2-.2V10.2h34.6v12.1" class="st3"/><path d="M1.8 32.2v3.6c.5.5.9 1 1.4 1.4h23.7m-8.7 0c-.1.9.1 2.8-.1 3.8-.2.9-.3.9-.8 1.2-.3.1-.7.3-1.1.5m10.6-5.5c.1.9-.1 2.8.1 3.8.2.9.3.9.8 1.2.3.1.7.3 1.1.5m-12.5.2h12.5" class="st4"/><path d="M28.7 35.2c-1.8-3.2 3.1-4.7 5.5-5.2m-5.5 5.2c1.5 1.6 4.3 2.6 6.8 2.9m1.6 0c15.3.4 11.8-10-1.3-8.3m1.3-1.8c-6.9 5.5-7.2 22.5 3.1 10.2m-2.1-11.1c8.3-6.4 6.1 6 3.2 9.7m2.3 4.8c1-1.6.3-6.6-.8-7.6m-8.6 1.6c2.7 4.8 7.3 9.1 9.5 5.9m-10.5-7.7c-5.2-10.7 5.3-10.2 8.6-1.7" class="st0"/><path d="M38 32.8c1.4 0 1.4 2.2 0 2.2s-1.4-2.2 0-2.2z" class="st0"/></svg>