<svg xmlns="http://www.w3.org/2000/svg" id="Layer_1" x="0" y="0" version="1.1" viewBox="0 0 50 50" xml:space="preserve"><style>.st2{fill:none;stroke:#505050;stroke-linecap:round;stroke-linejoin:round;stroke-miterlimit:10}</style><path fill="#00c8e2" d="M46.2 21.8c-9.8 3.6-25.1 9.2-34.9 12.8l.3-1.8c-5-2.1-9.5-3.9-8.7-9.1v-.3c11.3-4.1 24.2-8.9 35.6-13 0 .4.1.8.1 1.1.1 1.9-.1 3.7-.5 5.6 3 1 6.1 2.3 8.1 4.7z"/><path fill="#00dffc" d="M38.5 10.9c-11.3 4-24.4 8.9-35.7 13.1 0-.1 0-.2.1-.3v-.3H3c1.6-3.3 5.2-4.8 8.6-6.1-1.1-4.4-1-12 4.4-12.2 3.4-.1 6.4 2.1 8.9 4.3 4.7-3.6 13.4-7.7 13.6 1.5z"/><path d="M3.7 28c-.9-1.3-1.3-2.8-.8-4.3 2.2-5 8.4-6.5 13.4-7.6M3.7 28c2.2 2.2 5 4 9.1 5.2m26.2-.6c.9-.3 1.8-.7 2.7-1.1 2-1 4-2.2 5.1-4.1.1-.1.1-.3.2-.4 2.3-5.4-4.7-8.7-8.9-10-.8-.2-1.5-.4-2.3-.6" class="st2"/><path d="M13.3 27.2c-1.7 4.8-3.9 12.4-.4 16.5 5.8 4.6 14.2-4.1 17.4-8.9M25 9.4c14.3-11 15.3 1.6 11.9 12.5m1.2 20.6c2.3-3.7.5-15.3-2.1-17.6M22.2 37.6c6.2 6.4 12.3 10.2 15.9 4.9" class="st2"/><path d="M12.4 20.5C8.2 9.4 13.6-1.1 24.9 9.4c1.6 1.4 3.1 3 4.5 4.8" class="st2"/><path fill="#505050" d="M16.8 5.2c2.4 0 5.3 1.3 8.1 4.2h.2c3.3-2.7 6.3-4 8.6-4 4 0 6.1 4 4.4 11.8 3.8 1.3 9.1 3.3 9.4 7.9-.2 4.7-5.4 5.9-8.5 8 .9 8.1-1.7 11.9-5.5 11.9-2.4 0-5.4-1.5-8.4-4.3-3.1 3-6 4.4-8.5 4.4-4.3 0-6.9-4.5-5-12.2-12.2-3.7-11-13 .5-15.5-3-7.5 0-12.2 4.7-12.2m0-2c-2.7 0-5 1.2-6.4 3.3-1.6 2.4-1.9 5.7-.9 9.4-5.2 1.7-8.4 5-8.6 8.8-.1 3.9 3 7.4 8.4 9.4-.7 4.3-.2 7.8 1.7 10.1 1.4 1.7 3.4 2.7 5.7 2.7 2.7 0 5.6-1.3 8.5-3.7 2.9 2.4 5.7 3.6 8.3 3.6 2 0 3.8-.8 5.1-2.2 2-2.2 2.8-5.8 2.5-10.6.4-.3.9-.5 1.4-.8 3-1.6 6.8-3.6 7-8.2v-.2c-.4-5.3-5.5-7.7-9.1-9.1.7-4.5.2-8-1.5-10.1-1.2-1.5-3-2.3-5.1-2.3-2.5 0-5.5 1.2-8.6 3.5-2.7-2.3-5.6-3.6-8.4-3.6z"/><path fill="#444" d="M21.2 33h-3V21.2h-3.9v-2.5h10.8v2.5h-3.9V33zm14.6-4c0 1.3-.5 2.3-1.4 3.1-.9.7-2.2 1.1-3.9 1.1-1.5 0-2.9-.3-4.1-.9v-2.8c1 .4 1.8.7 2.5.9.7.2 1.3.3 1.8.3.7 0 1.2-.1 1.5-.4.4-.3.5-.6.5-1.1 0-.3-.1-.5-.2-.7-.2-.2-.4-.4-.7-.6-.3-.2-.9-.5-1.9-1-.9-.4-1.5-.8-2-1.2-.4-.4-.8-.8-1-1.3-.3-.5-.4-1.1-.4-1.8 0-1.3.4-2.3 1.3-3 .9-.7 2-1.1 3.6-1.1.7 0 1.5.1 2.1.3s1.4.4 2.1.7l-1 2.4c-.8-.3-1.4-.5-1.9-.7-.5-.1-1-.2-1.5-.2-.6 0-1 .1-1.3.4-.3.3-.5.6-.5 1 0 .3.1.5.2.7.1.2.3.4.6.6.3.2.9.5 1.9 1 1.3.6 2.3 1.3 2.8 1.9.6.7.9 1.4.9 2.4z"/></svg>