<svg xmlns="http://www.w3.org/2000/svg" id="Layer_1" x="0" y="0" version="1.1" viewBox="0 0 50 50" xml:space="preserve"><style>.st3{fill:#444}</style><path fill="#00dffc" d="M34.13 4.52c-1-.13-7.85 3.83-8.89 3.83s-8.51-4.75-9.51-4.62c-10.28 1.32.83 10.99-13.65 16.73L39.52 7.14c-3.42-2.86-.74-2.02-5.39-2.62z"/><path fill="#00c8e2" d="M39.52 7.14L2.08 20.46C.64 24.8 4.64 32.24 9.23 33.88c.49 2.16-5.89 6.95-.63 11.34h10.11l2.09-5.58 25.67-9.13c.28-1.47 3.74-5.2 2.81-6.45-6.93-9.25-6.98-3.08-9.76-16.92z"/><path fill="none" d="M7.44 25.78c0 2.09 2.68 3.88 6.66 5.06l2.42-6.29c-.61-1.41-1.12-2.75-1.52-4.09-4.47 1.2-7.56 3.1-7.56 5.32zm9.43-2.12l1.51-3.92c-.94.16-1.81.36-2.68.55.25 1 .68 2.19 1.17 3.37zm12.82 7.38l-4.16-11.8h-.47l-4.33 11.95.24.36h6.87l.24.68c.28-.02.55-.05.83-.09.26-.32.52-.7.78-1.1zm.38 1.09l-.04-.13c-.03.05-.06.1-.09.14.04 0 .08 0 .13-.01zm-13.7-21.8c-1.88 1.04-2.05 4.64-.85 9.11 1-.19 2.07-.39 3.19-.55l2.58-6.71h1.3c-2.62-1.91-4.89-2.67-6.22-1.85zM43.18 25.8c0-2.22-3.09-4.12-7.56-5.32-.41 1.34-.92 2.66-1.52 4.07l2.43 6.31c3.97-1.2 6.65-2.99 6.65-5.06zm-8.24-5.51c-.85-.18-1.76-.37-2.69-.53l1.5 3.9c.44-1.12.81-2.25 1.19-3.37zm-2.95-1.21c1.08.16 2.12.36 3.09.55 1.22-4.64 1.04-8.26-.85-9.28-.35-.18-.85-.35-1.38-.35-1.3 0-2.91.78-4.84 2.18h1.31l2.67 6.9zm-3.62 13.96l.06.17c.05-.06.1-.13.15-.2-.07.02-.14.02-.21.03z"/><path d="M6.11 24.75c0-2.22 3.09-4.12 7.56-5.32.41 1.34.91 2.68 1.52 4.09l.35-.9c-.49-1.17-.92-2.36-1.17-3.37.87-.2 1.75-.39 2.68-.55l.33-.85c-1.12.17-2.18.36-3.19.55-1.2-4.47-1.03-8.07.85-9.11 1.32-.82 3.6-.06 6.22 1.85h.96c-.05-.04-.09-.09-.14-.13-2.92-2.4-5.67-3.27-7.39-2.22-2.22 1.2-2.57 5.14-1.2 9.96-4.99 1.37-8.07 3.6-8.07 6.02 0 2.4 2.68 4.5 7.07 5.75l.27-.71c-3.97-1.19-6.65-2.97-6.65-5.06zm19.41-5.51l-.23-.65-.24.65h.47zm19.31 5.54c0-2.59-3.09-4.82-8.07-6.02 1.37-4.99 1.03-8.76-1.2-9.96-1.72-1.03-4.29-.17-7.39 2.22l-.16.13h.97c1.93-1.4 3.54-2.18 4.84-2.18.52 0 1.03.17 1.37.35 1.9 1.03 2.07 4.64.85 9.28-.98-.2-2.01-.39-3.09-.55l.26.68c.93.16 1.84.35 2.69.53-.38 1.12-.75 2.25-1.19 3.37l.34.89c.61-1.41 1.12-2.74 1.52-4.07 4.47 1.2 7.56 3.09 7.56 5.32 0 2.07-2.68 3.85-6.66 5.06l.26.66c4.42-1.37 7.1-3.46 7.1-5.71z" class="st3"/><path d="M34.1 24.55l-.35-.89-1.5-3.9-.26-.68-2.66-6.9h-8.04l-2.58 6.7-.33.85-1.51 3.93-.35.9-2.42 6.29-.27.7L9.69 42.3h7.27l.04-.09.23-.65 1.62-4.39h10.97l-1.12-3.19-.28-.77-.05-.17-.29-.8-.24-.69H20.6l.13-.36 4.33-11.95.23-.65.23.65 4.17 11.8.34.96.04.13.27.75 3.05 8.65.24.68.03.09h7.27l-4.15-10.78-.25-.66z" class="st3"/><circle cx="25.13" cy="28.36" r="2.14" class="st3"/><path fill="none" stroke="#444" stroke-linecap="round" stroke-linejoin="round" stroke-miterlimit="10" stroke-width="2.4" d="M43.22 39.49l-2.59-6.38s8.89-2.61 8.15-9.09c-.62-5.43-7.81-7.42-7.81-7.42s1.41-9.24-3.14-11.65c-3.71-1.97-8.26 1.65-11.08 3.43h-2.38s-6.5-5.83-11.25-3.36c-5.17 2.68-3.4 11.15-3.4 11.15S2.19 18 1.61 23.66c-.48 4.7 3.87 8.97 8.21 9.91l-3.02 7.5c-.8 1.99.66 4.16 2.81 4.16h7.77c1.34 0 2.52-.88 2.9-2.17l.83-2.82 8.45-.1.82 2.89a3.04 3.04 0 002.91 2.21h1.68"/></svg>