<?xml version="1.0" encoding="utf-8"?>
<!-- Generator: Adobe Illustrator 26.5.0, SVG Export Plug-In . SVG Version: 6.00 Build 0)  -->
<svg version="1.1" id="Camada_3" xmlns="http://www.w3.org/2000/svg" xmlns:xlink="http://www.w3.org/1999/xlink" x="0px" y="0px"
	 viewBox="0 0 50 50" style="enable-background:new 0 0 50 50;" xml:space="preserve">
<style type="text/css">
	.st0{fill:#FCC34F;}
	.st1{fill:#FDCF72;}
	.st2{fill:none;stroke:#505050;stroke-linecap:round;stroke-linejoin:round;stroke-miterlimit:10;}
	.st3{fill:#505050;}
	.st4{fill-rule:evenodd;clip-rule:evenodd;fill:#505050;}
</style>
<g>
	<g>
		<g>
			<g>
				<path class="st0" d="M46,21.75c-9.8,3.6-25.1,9.2-34.9,12.8c0.1-0.6,0.2-1.2,0.3-1.8c-5-2.1-9.5-3.9-8.7-9.1v-0.3
					c11.3-4.1,24.2-8.9,35.6-13c0,0.4,0.1,0.8,0.1,1.1c0.1,1.9-0.1,3.7-0.5,5.6C40.9,18.05,44,19.35,46,21.75z"/>
			</g>
			<g>
				<path class="st1" d="M38.32,10.7c-11.3,4.1-24.4,8.9-35.7,13.1c0-0.1,0-0.2,0.1-0.3v-0.3h0.1c1.6-3.3,5.2-4.8,8.6-6.1
					c-1.1-4.4-1-12,4.4-12.2c3.4-0.1,6.4,2.1,8.9,4.3C29.42,5.6,38.12,1.5,38.32,10.7z"/>
			</g>
			<g>
				<g>
					<path class="st2" d="M3.5,27.95c-0.9-1.3-1.3-2.8-0.8-4.3c1.84-4.19,6.49-5.92,10.89-7.02"/>
					<path class="st2" d="M3.5,27.95c2.2,2.2,5,4,9.1,5.2"/>
					<path class="st2" d="M38.8,32.65c0.9-0.3,1.8-0.7,2.7-1.1c2-1,4-2.2,5.1-4.1c0.1-0.1,0.1-0.3,0.2-0.4c2.3-5.4-4.7-8.7-8.9-10
						l0,0c-0.8-0.2-1.5-0.4-2.3-0.6"/>
					<path class="st2" d="M13.1,27.15c-1.7,4.8-3.9,12.4-0.4,16.5c5.8,4.6,14.2-4.1,17.4-8.9"/>
					<path class="st2" d="M24.8,9.45c14.3-11,15.3,1.6,11.9,12.5"/>
					<path class="st2" d="M37.9,42.55c2.3-3.7,0.5-15.3-2.1-17.6"/>
					<path class="st2" d="M22,37.65c6.2,6.4,12.3,10.2,15.9,4.9"/>
					<path class="st2" d="M12.2,20.45c-4.2-11,1.2-21.6,12.5-11.1l0,0c0.99,0.87,1.95,1.81,2.86,2.84"/>
					<path class="st2" d="M36.8,21.55"/>
				</g>
				<g>
					<path class="st3" d="M16.6,5.15c2.4,0,5.3,1.3,8.1,4.2h0.2l0,0c3.3-2.7,6.3-4,8.6-4c4,0,6.1,4,4.4,11.8
						c3.8,1.3,9.1,3.3,9.4,7.9c-0.2,4.7-5.4,5.9-8.5,8l0,0c0.9,8.1-1.7,11.9-5.5,11.9c-2.4,0-5.4-1.5-8.4-4.3c-3.1,3-6,4.4-8.5,4.4
						c-4.3,0-6.9-4.5-5-12.2c-12.2-3.7-11-13,0.5-15.5l0,0C8.9,9.95,11.9,5.15,16.6,5.15 M16.6,3.15c-2.7,0-5,1.2-6.4,3.3
						c-1.6,2.4-1.9,5.7-0.9,9.4c-5.2,1.7-8.4,5-8.6,8.8c-0.1,3.9,3,7.4,8.4,9.4c-0.7,4.3-0.2,7.8,1.7,10.1c1.4,1.7,3.4,2.7,5.7,2.7
						c2.7,0,5.6-1.3,8.5-3.7c2.9,2.4,5.7,3.6,8.3,3.6c2,0,3.8-0.8,5.1-2.2c2-2.2,2.8-5.8,2.5-10.6c0.4-0.3,0.9-0.5,1.4-0.8
						c3-1.6,6.8-3.6,7-8.2c0-0.1,0-0.2,0-0.2c-0.4-5.3-5.5-7.7-9.1-9.1c0.7-4.5,0.2-8-1.5-10.1c-1.2-1.5-3-2.3-5.1-2.3
						c-2.5,0-5.5,1.2-8.6,3.5C22.3,4.45,19.4,3.15,16.6,3.15L16.6,3.15z"/>
				</g>
			</g>
		</g>
	</g>
	<g>
		<g>
			<g>
				<path class="st4" d="M24.49,24.52l4.97-2.02l4.9,1.88v2.88l-4.9-1.88l-4.97,2.02V24.52z"/>
				<path class="st4" d="M24.56,28.7l4.9-1.88l4.9,1.88v2.88l-4.9-1.88l-4.9,1.88V28.7z"/>
				<path class="st4" d="M29.46,30.94l1.4-0.08l2.45,1.08l-3.85,1.52V30.94z"/>
			</g>
		</g>
	</g>
	<g>
		<line class="st2" x1="21.68" y1="17.13" x2="17.17" y2="31.13"/>
		<polyline class="st2" points="32.97,25.38 28.87,15.28 26.68,18.23 16.83,31.46 16.22,12.19 21.47,17.13 16.83,31.74 26.09,35.29 
			28.56,33.34 		"/>
		<polyline class="st2" points="26.46,18.02 22.58,14.35 21.65,17.22 		"/>
	</g>
</g>
</svg>
