<svg xmlns="http://www.w3.org/2000/svg" fill="none" viewBox="0 0 50 50"><path fill="#E56060" d="M48.62 18.47l.74 5.2L3.3 40.43l-.54-10.89-.04-6.24L47.29 7.15l.87 3.87.46 7.45z"/><path fill="#FF6B6B" d="M46.44 3.94l2.25 3.24L1.84 23.91 2.95 6.74l2.98-2.89 29.05-.17 11.46.26z"/><path fill="#444" stroke="#444" stroke-miterlimit="10" stroke-width=".5" d="M33.7 16.04c1.12-4.06.83-7.13-.98-8.11-1.4-.83-3.49-.14-6.01 1.81-.57.42-1.12.98-1.54 1.4-.57-.57-1.12-.98-1.54-1.4-2.38-1.95-4.61-2.66-6.01-1.81-1.81.98-2.09 4.19-.98 8.11-4.06 1.12-6.56 2.93-6.56 4.89 0 2.09 2.52 3.92 6.56 4.89-.14.69-.42 1.4-.42 2.09-.57 3.07 0 5.3 1.4 6.01.42.28.83.42 1.4.42 1.26 0 2.8-.69 4.61-2.09.57-.42 1.12-.98 1.54-1.4.57.57 1.12.98 1.54 1.4 1.68 1.4 3.35 2.09 4.61 2.09.57 0 .98-.14 1.4-.42 1.4-.83 1.95-2.93 1.4-6.01-.14-.69-.28-1.4-.42-2.09 4.06-1.12 6.56-2.93 6.56-4.89 0-2.11-2.51-3.92-6.56-4.89zm-6.58-6.01c1.68-1.26 3.07-1.95 4.19-1.95.42 0 .83.14 1.12.28 1.54.83 1.68 3.78.69 7.55-1.4-.28-2.93-.57-4.61-.69-.98-1.4-1.95-2.52-2.93-3.64.57-.58.99-1.14 1.54-1.55zm2.66 13.55c-.57.83-1.12 1.81-1.68 2.52-.98.14-1.95.14-3.07.14-.98 0-2.09 0-3.07-.14-.57-.83-1.12-1.68-1.68-2.52-.56-.84-.98-1.81-1.4-2.66.42-.83.83-1.81 1.4-2.66.57-.83 1.12-1.81 1.68-2.52.98-.14 1.95-.14 3.07-.14 1.12 0 2.09 0 3.07.14.57.83 1.12 1.68 1.68 2.52.57.83.98 1.81 1.4 2.66-.42.85-.83 1.82-1.4 2.66zm1.81-1.95c.57 1.26 1.12 2.52 1.4 3.78-1.26.28-2.52.57-4.06.69.42-.69.98-1.4 1.4-2.23.43-.7.85-1.55 1.26-2.24zm-6.42 8.39c-.83-.98-1.81-1.95-2.66-3.21.83 0 1.68.14 2.66.14.98 0 1.81 0 2.66-.14-.85 1.1-1.83 2.23-2.66 3.21zm-3.78-3.92c-1.4-.14-2.8-.42-4.06-.69.42-1.26.83-2.52 1.4-3.78.42.69.83 1.54 1.26 2.23.43.84.85 1.54 1.4 2.24zm-2.64-5.87c-.57-1.26-1.12-2.66-1.4-3.78 1.26-.28 2.52-.57 4.06-.69-.42.69-.98 1.4-1.4 2.23-.43.83-.85 1.54-1.26 2.24zm6.42-8.39c.83.98 1.81 1.95 2.66 3.21-.85.02-1.68-.13-2.66-.13-.98 0-1.81 0-2.66.14.85-1.13 1.83-2.25 2.66-3.22zm5.18 6.15c-.42-.69-.83-1.54-1.4-2.23 1.4.14 2.8.42 4.06.69-.42 1.26-.83 2.52-1.4 3.78-.43-.7-.85-1.55-1.26-2.24zM17.9 8.34c1.12-.69 3.07 0 5.3 1.68.57.42.98.83 1.54 1.4-.98 1.12-1.95 2.23-2.93 3.64-1.68.14-3.21.42-4.61.69-.97-3.63-.83-6.56.7-7.41zm-7.27 12.58c0-1.81 2.52-3.35 6.15-4.33.42 1.4.98 2.8 1.68 4.33-.69 1.54-1.26 2.93-1.68 4.33-3.63-.96-6.15-2.51-6.15-4.33zm12.59 10.9c-2.23 1.81-4.19 2.38-5.3 1.68-1.12-.69-1.54-2.66-1.12-5.45.14-.69.28-1.4.42-2.09 1.4.28 2.93.57 4.61.69.98 1.4 1.95 2.52 2.93 3.64-.57.56-.99 1.11-1.54 1.53zm10.34-3.77c.42 2.8 0 4.75-1.12 5.45-1.12.69-3.07 0-5.3-1.68-.57-.42-.98-.83-1.54-1.4.98-1.12 1.95-2.23 2.93-3.64 1.68-.14 3.21-.42 4.61-.69.14.57.42 1.27.42 1.96zm0-2.79c-.42-1.4-.98-2.93-1.68-4.33.69-1.54 1.26-2.93 1.68-4.33 3.64.98 6.15 2.52 6.15 4.33s-2.52 3.36-6.15 4.33z"/><path fill="#444" stroke="#444" stroke-miterlimit="10" stroke-width=".5" d="M24.75 23.43a2.46 2.46 0 100-4.92 2.46 2.46 0 000 4.92z"/><path fill="#444" d="M28.47 35.81c-.66-.13-1.37.07-1.59.44l-2.58 4.24-.17.28-.57.94-2.77 4.56c-.22.37.13.77.78.89.65.13 1.37-.07 1.59-.44l2.77-4.56.57-.94.17-.28 2.58-4.24c.23-.36-.12-.76-.78-.89zm-8.98 3.89c.25-.1.43-.27.55-.51.12-.24.17-.48.17-.71a1.707 1.707 0 00-.41-1.02c-.12-.15-.27-.27-.45-.37-.17-.1-.37-.15-.58-.15-.1 0-.3.04-.6.12l-6.01 2.63c-.54.24-.87.61-.98 1.12-.03.12-.04.26-.04.4v.06c.01.28.09.56.23.83.16.3.41.52.76.67l.07.03 6.02 2.63c.33.08.53.12.6.12.43 0 .77-.16 1.02-.47.25-.31.37-.65.37-1.02 0-.23-.08-.48-.24-.74a1.392 1.392 0 00-.61-.58l-3.54-1.48-.09-.04 1.03-.42 2.73-1.1zm11.48 3.05c-.04.02-.07.04-.11.06-.2.12-.37.29-.5.52-.16.26-.24.51-.24.74 0 .36.12.7.36 1.02.24.32.58.47 1.01.47.05 0 .26-.04.62-.12l5.99-2.63.07-.03c.35-.15.6-.37.77-.67.16-.28.24-.56.25-.83v-.06c0-.14-.01-.27-.04-.4-.11-.5-.45-.88-1-1.12l-5.99-2.63c-.3-.08-.5-.12-.6-.12-.23 0-.43.05-.61.15-.17.1-.32.22-.45.37-.12.15-.22.31-.28.5-.07.18-.1.36-.1.52 0 .63.24 1.04.72 1.22l2.7 1.12 1.03.42-.09.04-3.51 1.46z"/><path stroke="#444" stroke-linecap="round" stroke-linejoin="round" stroke-miterlimit="10" stroke-width="2.5" d="M41.82 41.25h2.95c1.87 0 3.39-1.28 3.39-2.87V6.81c0-1.59-1.52-2.87-3.39-2.87H5.75c-1.87 0-3.39 1.28-3.39 2.87v31.57c0 1.59 1.52 2.87 3.39 2.87h2.71"/></svg>