<svg xmlns="http://www.w3.org/2000/svg" id="Camada_3" x="0" y="0" version="1.1" viewBox="0 0 50 50" xml:space="preserve"><style>.st2{fill:none;stroke:#444;stroke-linecap:round;stroke-linejoin:round;stroke-miterlimit:10}.st3{fill:#444}</style><path fill="#c3ff68" d="M42.1 15.6l-1.7-7.2-1.2-2.5c-.9-.8-6-3.4-7.2-3l-6.5 2.5C18-1.8 7.3 7.4 9 12.9l-7.2 9.5.2-.2c-.6.8-.2 4.5.1 5.4l2.3 4.7c10.4 2.3 3.3 5.5 5.5 7l3.5 5.7 29.3-10.7c2.5-.9 3.6-2.7 4.8-5 4.9-9-4.8-12.4-5.4-13.7z"/><path fill="none" stroke="#444" stroke-linecap="round" stroke-linejoin="round" stroke-miterlimit="10" stroke-width="2.5" d="M41.6 39c.4-1.6.4-3.2 0-4.7 1.5-.4 2.9-1.3 4.1-2.4 3.8-3.8 3.8-10 0-13.8-1.2-1.2-2.6-2-4.1-2.4.4-1.5.5-3 .2-4.6-1-5.3-6.1-8.7-11.4-7.7-2 .4-3.8 1.4-5.1 2.8C24.1 4.9 22.7 4 21 3.5 15.8 2 10.5 5 9 10.2c-.5 1.8-.5 3.6 0 5.2-1.7.4-3.3 1.3-4.6 2.6-3.8 3.8-3.8 10 0 13.8 1.5 1.5 3.3 2.4 5.2 2.7-.6 1.9-.6 3.9.1 5.9 1.7 5.1 7.3 7.8 12.3 6.1 1.5-.5 2.8-1.3 3.8-2.4 1.1 1 2.5 1.7 4 2"/><path d="M14.3 26.8s-2 10.2 4.8 12.7 12.7-8.9 12.8-12.8" class="st2"/><circle cx="32.1" cy="24.7" r="2.9" class="st3"/><path d="M29.5 14.5s-7.6-7.1-13.3-2.7.7 15.2 4 17.5" class="st2"/><circle cx="21.9" cy="30.4" r="2.9" class="st3" transform="rotate(-82.253 21.872 30.403)"/><path d="M32.7 33.9s9.9-3 9.1-10.1-13.6-7-17.1-5.3" class="st2"/><circle cx="22.8" cy="19.3" r="2.9" class="st3" transform="rotate(-52.063 22.805 19.282)"/></svg>