<svg xmlns="http://www.w3.org/2000/svg" id="Camada_3" x="0" y="0" version="1.1" viewBox="0 0 50 50" xml:space="preserve"><style>.st3{fill:#444}</style><path fill="#a475ef" d="M46.71 26.23l.38 4.11-44.25 16.1.13-8.66.33-13.98L47.38 7.76l-.67 12.55z"/><path fill="#bf94f7" d="M30.53 3.31c5.58.98 13.21-.36 16.29.71-.04 2.11-.07 4.22-.11 6.33l-.53-.63L2.97 25.45V24.1l.31-4.23c-.39-1.7-.51-3.57-.44-6.6"/><path fill="none" stroke="#444" stroke-linecap="round" stroke-linejoin="round" stroke-miterlimit="10" stroke-width="2.5" d="M32.58 47.22H2.62V2.78h44.74v34.44"/><path d="M43.24 41.86v-5.15c-.42.2-.93.39-1.52.55-1.7.48-3.94.74-6.32.74-2.38 0-4.62-.26-6.32-.73a9.44 9.44 0 01-1.52-.55v5.18c.07.15.6.61 2.23 1.02 1.53.39 3.52.6 5.61.6 2.09 0 4.08-.21 5.61-.6 1.63-.41 2.16-.88 2.23-1.02v-.04z" class="st3"/><path d="M27.56 35.87c.07.15.6.61 2.23 1.02 1.53.39 3.52.6 5.61.6 2.09 0 4.08-.21 5.61-.6 1.63-.41 2.16-.88 2.23-1.02v-5.18c-.42.2-.93.39-1.52.55-1.7.47-3.95.73-6.32.73-2.38 0-4.62-.26-6.32-.73a9.44 9.44 0 01-1.52-.55v2.82c-.9-.32-1.92-.91-3.01-1.72-.58-.44-1.02-.87-1.6-1.46 1.02-1.17 2.04-2.33 3.06-3.79.54-.04 1.05-.11 1.55-.18v3.5c.07.15.6.61 2.23 1.02 1.53.39 3.52.6 5.61.6 2.09 0 4.08-.21 5.61-.6 1.63-.41 2.16-.88 2.23-1.02v-5.18c-.42.2-.93.39-1.52.55-1.7.47-3.95.73-6.32.73-2.38 0-4.62-.26-6.32-.73a9.44 9.44 0 01-1.52-.55v.99c-.36.05-.72.11-1.12.14.36-.59.79-1.21 1.19-1.88.19.2.79.58 2.16.93 1.53.39 3.52.6 5.61.6 2.09 0 4.08-.21 5.61-.6 1.57-.4 2.12-.84 2.22-1-.1-.16-.65-.61-2.22-1-1.02-.26-2.25-.43-3.57-.52.52-.61.81-1.26.81-1.92 0-2.19-2.62-4.08-6.85-5.1 1.17-4.23.87-7.44-1.02-8.46-1.46-.87-3.65-.15-6.27 1.9-.58.44-1.17 1.02-1.6 1.46-.58-.58-1.17-1.02-1.6-1.46-2.48-2.04-4.81-2.77-6.27-1.9-1.9 1.02-2.19 4.37-1.02 8.46-4.23 1.17-6.85 3.06-6.85 5.1 0 2.19 2.62 4.08 6.85 5.1-.15.73-.44 1.46-.44 2.19-.58 3.21 0 5.54 1.46 6.27.44.29.87.44 1.46.44 1.31 0 2.92-.73 4.81-2.19.58-.44 1.17-1.02 1.6-1.46.58.58 1.17 1.02 1.6 1.46 1.2 1 2.39 1.65 3.45 1.96v1.68zm-.24-12.68c-.58.87-1.17 1.9-1.75 2.62-1.02.15-2.04.15-3.21.15-1.02 0-2.19 0-3.21-.15l-1.75-2.62c-.58-.88-1.02-1.9-1.46-2.77.44-.87.87-1.9 1.46-2.77.58-.87 1.17-1.9 1.75-2.62 1.02-.15 2.04-.15 3.21-.15s2.19 0 3.21.15l1.75 2.62c.58.88 1.02 1.9 1.46 2.77-.44.87-.88 1.89-1.46 2.77zm-10.21.29c.44.87.87 1.6 1.46 2.33-1.46-.15-2.92-.44-4.23-.73.44-1.31.87-2.62 1.46-3.94.44.73.87 1.61 1.31 2.34zm-2.77-7.73c1.31-.29 2.62-.58 4.23-.73-.44.73-1.02 1.46-1.46 2.33-.44.87-.88 1.6-1.31 2.33-.58-1.31-1.17-2.77-1.46-3.93zm12.1-.73c1.46.15 2.92.44 4.23.73-.44 1.31-.88 2.62-1.46 3.94-.44-.73-.88-1.6-1.31-2.33-.43-.74-.87-1.61-1.46-2.34zm3.35 7.84c-1.1.28-1.7.58-1.99.79.03-.06.07-.11.1-.17.44-.73.87-1.6 1.31-2.33.25.56.47 1.12.7 1.69-.04 0-.08.01-.12.02zm7.88-2.45c0 .67-.34 1.3-.93 1.88-.44-.02-.89-.03-1.34-.03-1.8 0-3.51.17-4.93.46-.29-.78-.59-1.55-.96-2.3.73-1.6 1.31-3.06 1.75-4.52 3.79 1.01 6.41 2.62 6.41 4.51zM24.55 9.04C26.3 7.73 27.76 7 28.92 7c.44 0 .87.15 1.17.29 1.6.87 1.75 3.94.73 7.87-1.46-.29-3.06-.58-4.81-.73-1.02-1.46-2.04-2.62-3.06-3.79.58-.58 1.02-1.16 1.6-1.6zm.73 5.25c-.88 0-1.75-.15-2.77-.15s-1.9 0-2.77.15c.87-1.17 1.9-2.33 2.77-3.35.87 1.02 1.89 2.04 2.77 3.35zm-10.36-7c1.17-.73 3.21 0 5.54 1.75.58.44 1.02.87 1.6 1.46-1.02 1.17-2.04 2.33-3.06 3.79-1.75.15-3.35.44-4.81.73-1.02-3.79-.87-6.85.73-7.73zM7.34 20.41c0-1.9 2.62-3.5 6.42-4.52.44 1.46 1.02 2.92 1.75 4.52-.73 1.6-1.31 3.06-1.75 4.52-3.79-1.02-6.42-2.62-6.42-4.52zm13.13 11.38c-2.33 1.9-4.37 2.48-5.54 1.75s-1.6-2.77-1.17-5.69c.15-.73.29-1.46.44-2.19 1.46.29 3.06.58 4.81.73 1.02 1.46 2.04 2.62 3.06 3.79-.58.59-1.02 1.17-1.6 1.61zm-.73-5.25c.87 0 1.75.15 2.77.15s1.9 0 2.77-.15c-.88 1.17-1.9 2.33-2.77 3.35-.88-1.02-1.9-2.04-2.77-3.35z" class="st3"/><path d="M20.18 16.51l-2.29 3.86 2.2 3.91 4.48.05 2.29-3.86-2.2-3.91-4.48-.05zM23.26 22l-1.83-.02-.9-1.6.93-1.58 1.83.02.9 1.6-.93 1.58z" class="st3"/></svg>