<svg xmlns="http://www.w3.org/2000/svg" viewBox="0 0 48 47"><path fill="#46b8b0" d="M44.6 16.2L45.1 6l-1.8-3.6-14.3.4C26 2.8 3.1 0 3.1 3L1.5 22.3l1.1 21.9 12.6.6 28.9-10.3c.7-.4 1.5-16.4.5-18.3z"/><path fill="none" stroke="#444" stroke-linecap="round" stroke-linejoin="round" stroke-miterlimit="10" stroke-width="2.5" d="M30.7 44.7H5.6c-1.7 0-3.2-1.5-3.2-3.3V5.2c0-1.8 1.4-3.3 3.2-3.3h36.3c1.7 0 3.2 1.5 3.2 3.3v30.2"/><path fill="none" stroke="#444" stroke-linecap="round" stroke-linejoin="round" stroke-miterlimit="10" stroke-width=".5" d="M20.6 13.1h14.2V28m-1.7-1.5l1.7 1.5m1.8-1.5L34.9 28"/><path fill="none" stroke="#494949" stroke-linecap="round" stroke-linejoin="round" stroke-miterlimit="10" d="M37.5 37.9H16.6c-.9 0-1.6-.7-1.6-1.6v-5.1c0-.9.7-1.6 1.6-1.6h20.9c.9 0 1.6.7 1.6 1.6v5.1c0 .9-.7 1.6-1.6 1.6zM20.4 9.3v5.2c0 .8-.7 1.5-1.5 1.5H9.7c-.2 0-.4-.1-.6-.3-.4-.3-.7-.8-.7-1.3V9.3c0-.8.7-1.5 1.5-1.5h8.9c.9 0 1.6.7 1.6 1.5zm9.4 10.9v5.2c0 .8-.7 1.5-1.5 1.5H12.7c-.2 0-.4-.1-.6-.1-.6-.2-.9-.8-.9-1.4v-5.2c0-.8.7-1.5 1.5-1.5h15.5c.9-.1 1.6.6 1.6 1.5z"/></svg>