<svg xmlns="http://www.w3.org/2000/svg" id="Camada_3" x="0" y="0" version="1.1" viewBox="0 0 50 50" xml:space="preserve"><style>.st3{fill:none;stroke:#444;stroke-linecap:round;stroke-linejoin:round;stroke-miterlimit:10}</style><path fill="#dc5e82" d="M45.34 2.58H4.24c-1.4 0-1.4 3.8-1.4 5.2l-.2 16.9-.5 10.2 1.2 11.8 12.4.6 32.1-11.4V5.18c0-1.4-1.1-2.6-2.5-2.6z"/><path fill="none" stroke="#444" stroke-linecap="round" stroke-linejoin="round" stroke-miterlimit="10" stroke-width="2.5" d="M32.74 48.08h-27c-1.9 0-3.4-1.6-3.4-3.5v-39c0-2 1.5-3.5 3.4-3.5h39c1.9 0 3.4 1.6 3.4 3.5v32.5"/><path fill="none" stroke="#444" stroke-linecap="round" stroke-linejoin="round" stroke-miterlimit="10" stroke-width=".5" d="M27.09 8.26c7.8.89 13.99 7.11 14.83 14.94M8.39 27.09c.94 7.71 7.07 13.81 14.8 14.69m3.9 0c7.72-.88 13.86-6.98 14.8-14.69M8.36 23.2c.84-7.83 7.03-14.05 14.83-14.94m0-2.07h3.89v3.89h-3.89zm-17 17.01h3.89v3.89H6.19zm34.01 0h3.89v3.89H40.2zM23.19 39.95h3.89v3.89h-3.89zm14.7-33.63h3.64v3.64h-3.64zM8.74 6.19h3.64v3.64H8.74zm14.45 1.82h-10.8m25.5 0h-10.8m10.8 32.31h3.64v3.64h-3.64zM8.74 40.2h3.64v3.64H8.74zm14.45 1.82h-10.8m25.5 0h-10.8"/><path d="M37.29 25.02c0 1.11-.15 2.18-.43 3.2-.25.94-.62 1.84-1.08 2.67-1.1 2-2.76 3.65-4.76 4.76-.83.46-1.73.83-2.67 1.08-1.02.29-2.09.43-3.2.43-1.11 0-2.18-.15-3.2-.43-.94-.25-1.84-.62-2.67-1.08-2-1.1-3.65-2.76-4.76-4.76-.46-.83-.83-1.73-1.08-2.67a11.66 11.66 0 01-.43-3.2c0-1.11.15-2.18.43-3.2.25-.94.62-1.84 1.08-2.67 1.1-2 2.76-3.65 4.76-4.76.83-.46 1.73-.83 2.67-1.08 1.02-.29 2.09-.43 3.2-.43 1.11 0 2.18.15 3.2.43.94.25 1.84.62 2.67 1.08 2 1.1 3.65 2.76 4.76 4.76.46.83.83 1.73 1.08 2.67.28 1.02.43 2.09.43 3.2z" class="st3"/><path d="M33.59 25.02c0 1.3-.1 2.56-.27 3.76-.19 1.27-.48 2.47-.84 3.57v.01c-.4 1.22-.89 2.32-1.46 3.29-.83.46-1.73.83-2.67 1.08-1.02.29-2.09.43-3.2.43-1.11 0-2.18-.15-3.2-.43-.94-.25-1.84-.62-2.67-1.08-.58-.97-1.07-2.07-1.46-3.29v-.01c-.36-1.11-.65-2.31-.84-3.57-.18-1.2-.27-2.46-.27-3.76 0-1.3.1-2.56.27-3.76.19-1.27.48-2.47.84-3.57v-.01c.4-1.22.89-2.32 1.46-3.29.83-.46 1.73-.83 2.67-1.08 1.02-.29 2.09-.43 3.2-.43 1.11 0 2.18.15 3.2.43.94.25 1.84.62 2.67 1.08.58.97 1.07 2.07 1.46 3.29v.01c.36 1.11.65 2.31.84 3.57.17 1.2.27 2.46.27 3.76z" class="st3"/><path d="M29.36 25.02c0 1.42-.04 2.79-.11 4.11-.08 1.43-.2 2.79-.35 4.06-.15 1.28-.34 2.47-.56 3.54-1.02.29-2.09.43-3.2.43-1.11 0-2.18-.15-3.2-.43-.22-1.07-.41-2.26-.56-3.54-.15-1.27-.27-2.63-.35-4.06a77.548 77.548 0 010-8.22c.08-1.43.2-2.79.35-4.06.15-1.28.34-2.47.56-3.54 1.02-.29 2.09-.43 3.2-.43 1.11 0 2.18.15 3.2.43.22 1.07.41 2.26.56 3.54.15 1.27.27 2.63.35 4.06.08 1.31.11 2.69.11 4.11z" class="st3"/><path d="M37.29 25.02c0 1.11-.15 2.18-.43 3.2-.25.94-.62 1.84-1.08 2.67-.97.58-2.08 1.07-3.3 1.46v.01c-1.11.36-2.31.64-3.57.83-1.2.18-2.46.27-3.76.27-1.3 0-2.56-.1-3.76-.27-1.27-.19-2.47-.48-3.57-.83v-.01c-1.22-.4-2.33-.89-3.3-1.46-.46-.83-.83-1.73-1.08-2.67a11.66 11.66 0 01-.43-3.2c0-1.11.15-2.18.43-3.2.25-.94.62-1.84 1.08-2.67.97-.58 2.08-1.07 3.3-1.46v-.01c1.11-.36 2.31-.64 3.57-.83 1.2-.18 2.46-.27 3.76-.27 1.3 0 2.56.1 3.76.27 1.27.19 2.47.48 3.57.83v.01c1.22.4 2.33.89 3.3 1.46.46.83.83 1.73 1.08 2.67.28 1.02.43 2.09.43 3.2z" class="st3"/><path d="M36.85 21.82c.29 1.02.43 2.09.43 3.2 0 1.11-.15 2.18-.43 3.2-1.07.22-2.26.41-3.54.56-1.27.15-2.63.27-4.06.35a77.548 77.548 0 01-8.22 0c-1.43-.08-2.79-.2-4.06-.35-1.28-.15-2.47-.34-3.54-.56a11.66 11.66 0 01-.43-3.2c0-1.11.15-2.18.43-3.2 1.07-.22 2.26-.41 3.54-.56 1.27-.15 2.63-.27 4.06-.35a77.548 77.548 0 018.22 0c1.43.08 2.79.2 4.06.35 1.28.15 2.47.34 3.54.56z" class="st3"/></svg>