<svg xmlns="http://www.w3.org/2000/svg" id="Camada_3" x="0" y="0" version="1.1" viewBox="0 0 50 50" xml:space="preserve"><style>.st8{stroke:#444;stroke-miterlimit:10;fill:#444;stroke-width:.5}</style><path fill="#71bac0" d="M47.56 15.6L3.31 31.71l-.24 5.89.08 10.13L32.7 37.37v-.04c0-.01.01-.02.01-.04-.18-.1-.3-.31-.32-.52-.05-.59.1-1.21.23-1.79.1-.47.21-.94.31-1.4-.19-.11-.33-.32-.33-.53 0-.35.28-.56.6-.6 2.02-.21 4.06-.29 6.09-.29.31 0 .49.2.55.43h.18c2.47-.03 3.82-.9 6.29-.92l.64-2.81.61-13.26z"/><path fill="#7ed0d6" d="M47.36 7.64l-1.13-4.57H40.6l-23.37 8.5c-.16.31-.28.66-.38 1.01-.07.67-.13 1.33-.19 2 .24.08.42.31.42.56 0 .51-.02 1.02-.05 1.53-.01.23-.02.46-.05.68-.03.3-.09.63-.4.76-.06.15-.17.28-.37.33-1.72.44-3.52.2-5.27.17-2.19-.04-4.38 0-6.57 0-.26 0 .08.17 0 0-.5.2-1.3.7-1.83.82l-.37 2.55.23 11.08 44.75-16.29.68-.25v-.33l-.47-8.55z"/><path fill="none" stroke="#444" stroke-linecap="round" stroke-miterlimit="10" d="M43.75 7.64H20.54m22.47 3.31H26.66m13.56 3.14h-7.69m-1.68 0h-5.48m-1.68 0h-3.15m22.38 3.15h-8.48m8.08 3.14h-5.7m.01 5.94h2.91m-1.42-2.76h5.48"/><path fill="none" stroke="#444" stroke-linecap="round" stroke-linejoin="round" stroke-miterlimit="10" stroke-width="2.5" d="M6.91 48.44h21.7c2.39 0 4.34-1.94 4.34-4.34V22.4c0-2.39-1.94-4.34-4.34-4.34H6.91c-2.39 0-4.34 1.94-4.34 4.34v21.7c0 2.4 1.95 4.34 4.34 4.34z"/><path fill="none" stroke="#444" stroke-linecap="round" stroke-linejoin="round" stroke-miterlimit="10" stroke-width="2" d="M33.96 32.66h9.06c2.39 0 4.34-1.94 4.34-4.34V6.63c0-2.39-1.94-4.34-4.34-4.34h-21.7c-2.39 0-4.34 1.94-4.34 4.34v11.22"/><path d="M24.11 29.59c.83-3.02.62-5.31-.73-6.03-1.04-.62-2.6-.11-4.47 1.35-.42.32-.83.73-1.15 1.04-.42-.42-.83-.73-1.15-1.04-1.77-1.45-3.43-1.98-4.47-1.35-1.35.73-1.56 3.12-.73 6.03-3.02.83-4.88 2.18-4.88 3.64 0 1.56 1.87 2.92 4.88 3.64-.11.52-.32 1.04-.32 1.56-.42 2.28 0 3.95 1.04 4.47.32.21.62.32 1.04.32.94 0 2.08-.52 3.43-1.56.42-.32.83-.73 1.15-1.04.42.42.83.73 1.15 1.04 1.25 1.04 2.49 1.56 3.43 1.56.42 0 .73-.11 1.04-.32 1.04-.62 1.45-2.18 1.04-4.47-.11-.52-.21-1.04-.32-1.56 3.02-.83 4.88-2.18 4.88-3.64.02-1.57-1.85-2.92-4.86-3.64zm-4.9-4.48c1.25-.94 2.28-1.45 3.12-1.45.32 0 .62.11.83.21 1.15.62 1.25 2.81.52 5.62-1.04-.21-2.18-.42-3.43-.52-.73-1.04-1.45-1.87-2.18-2.71.42-.42.73-.84 1.14-1.15zm1.98 10.09c-.42.62-.83 1.35-1.25 1.87-.73.11-1.45.11-2.28.11-.73 0-1.56 0-2.28-.11-.42-.62-.83-1.25-1.25-1.87-.42-.62-.73-1.35-1.04-1.98.32-.62.62-1.35 1.04-1.98.42-.62.83-1.35 1.25-1.87.73-.11 1.45-.11 2.28-.11s1.56 0 2.28.11c.42.62.83 1.25 1.25 1.87.42.62.73 1.35 1.04 1.98-.31.63-.62 1.35-1.04 1.98zm1.35-1.46c.42.94.83 1.87 1.04 2.81-.94.21-1.87.42-3.02.52.32-.52.73-1.04 1.04-1.66.32-.52.63-1.15.94-1.67zm-4.78 6.25c-.62-.73-1.35-1.45-1.98-2.39.62 0 1.25.11 1.98.11s1.35 0 1.98-.11c-.63.82-1.36 1.66-1.98 2.39zm-2.81-2.92c-1.04-.11-2.08-.32-3.02-.52.32-.94.62-1.87 1.04-2.81.32.52.62 1.15.94 1.66.31.63.63 1.15 1.04 1.67zm-1.97-4.37c-.42-.94-.83-1.98-1.04-2.81.94-.21 1.87-.42 3.02-.52-.32.52-.73 1.04-1.04 1.66-.32.63-.63 1.16-.94 1.67zm4.78-6.24c.62.73 1.35 1.45 1.98 2.39-.63.01-1.25-.09-1.98-.09s-1.35 0-1.98.11c.63-.85 1.36-1.69 1.98-2.41zm3.85 4.58c-.32-.52-.62-1.15-1.04-1.66 1.04.11 2.08.32 3.02.52-.32.94-.62 1.87-1.04 2.81-.32-.52-.63-1.16-.94-1.67zm-9.26-7.18c.83-.52 2.28 0 3.95 1.25.42.32.73.62 1.15 1.04-.73.83-1.45 1.66-2.18 2.71-1.25.11-2.39.32-3.43.52-.73-2.71-.63-4.89.51-5.52zm-5.41 9.36c0-1.35 1.87-2.49 4.58-3.22.32 1.04.73 2.08 1.25 3.22-.52 1.15-.94 2.18-1.25 3.22-2.71-.72-4.58-1.87-4.58-3.22zm9.37 8.11c-1.66 1.35-3.12 1.77-3.95 1.25s-1.15-1.98-.83-4.05c.11-.52.21-1.04.32-1.56 1.04.21 2.18.42 3.43.52.73 1.04 1.45 1.87 2.18 2.71-.43.41-.74.82-1.15 1.13zM24 38.52c.32 2.08 0 3.54-.83 4.05s-2.28 0-3.95-1.25c-.42-.32-.72-.62-1.14-1.04.73-.83 1.45-1.66 2.18-2.71 1.25-.11 2.39-.32 3.43-.52.1.44.31.96.31 1.47zm0-2.07c-.32-1.04-.73-2.18-1.25-3.22.52-1.15.94-2.18 1.25-3.22 2.71.73 4.58 1.87 4.58 3.22 0 1.34-1.87 2.49-4.58 3.22z" class="st8"/><circle cx="17.44" cy="33.25" r="1.83" class="st8"/><path fill="none" stroke="#444" stroke-linecap="round" stroke-miterlimit="10" stroke-width="2.5" d="M43.01 27.57v6.99c0 2.99-2.2 5.42-4.91 5.42H27.68"/><path fill="#444" d="M30.97 37.09l-2.88 2.89 2.88 2.88h-2.45l-2.88-2.88 2.88-2.89z"/></svg>