<svg xmlns="http://www.w3.org/2000/svg" id="Camada_1" x="0" y="0" version="1.1" viewBox="0 0 50 50" xml:space="preserve"><style>.st2{fill:#494949}</style><path fill="#afe55d" d="M24.1 29.7V33l-1.8.6L4.8 40l-1.8.7v-11c0-1.4 1.2-2.6 2.6-2.6h15.8c1.5 0 2.7 1.2 2.7 2.6zm11.3-.8l-1.7.6-6.1 2.2-1.8.6v-2.6c0-1.4 1.2-2.6 2.6-2.6h4.4c1.3 0 2.3.7 2.6 1.8zm4.6-1.8h.4l-2.4.8c.5-.5 1.2-.8 2-.8zm6.1-25.3zm-23.7 8.6l1.8-.6v12.9c0 1.5-1.2 2.6-2.6 2.6h-16c-.8 0-1.5-.3-2-.9-.3-.4-.6-1.1-.6-1.7v-5.2l1.8-.6 17.6-6.5zM47 6.8v15.8c0 1.5-1.2 2.6-2.6 2.6H28.5c-1.5 0-2.6-1.2-2.6-2.6V9.2l1.8-.6L34.8 6l4.8-1.8h4.8c1.4 0 2.6 1.2 2.6 2.6z"/><path fill="#c3ff68" d="M24.1 6.8v10.3l-1.8.6L16 20l-4.6 1.7-5.2 1.9-2.5.9c-.4-.5-.7-1.2-.7-1.8V6.8c0-1.4 1.2-2.6 2.6-2.6h15.8c1.5 0 2.7 1.2 2.7 2.6zm22.9 0V9l-1.8.6-17.6 6.3-1.8.6V6.8c0-1.4 1.2-2.6 2.6-2.6h15.8c1.6 0 2.8 1.2 2.8 2.6z"/><path d="M21.5 4.2H5.6C4.2 4.2 3 5.4 3 6.8v15.8c0 .7.3 1.3.7 1.8.5.5 1.2.9 2 .9h15.8c1.5 0 2.6-1.2 2.6-2.6V6.8c0-1.4-1.2-2.6-2.6-2.6zm.9 18.5c0 .5-.4.9-.9.9H5.6c-.5 0-.9-.4-.9-.9V6.8c0-.5.4-.9.9-.9h15.8c.5 0 .9.4.9.9v15.9zm22-18.5H28.5c-1.5 0-2.6 1.2-2.6 2.6v15.8c0 1.5 1.2 2.6 2.6 2.6h15.8c1.5 0 2.6-1.2 2.6-2.6V6.8c.1-1.4-1.1-2.6-2.5-2.6zm.8 18.5c0 .5-.4.9-.9.9H28.5c-.5 0-.9-.4-.9-.9V6.8c0-.5.4-.9.9-.9h15.8c.5 0 .9.4.9.9v15.9zm-23.7 4.4H5.6c-1.5 0-2.6 1.2-2.6 2.6v15.8c0 1.5 1.2 2.6 2.6 2.6h15.8c1.5 0 2.6-1.2 2.6-2.6V29.7c.1-1.4-1.1-2.6-2.5-2.6zm.9 18.4c0 .5-.4.9-.9.9H5.6c-.5 0-.9-.4-.9-.9V29.7c0-.5.4-.9.9-.9h15.8c.5 0 .9.4.9.9v15.8zm13-16.6c-.3-1-1.3-1.8-2.5-1.8h-4.4c-1.5 0-2.6 1.2-2.6 2.6v4.4c0 1.5 1.2 2.6 2.6 2.6h4.4c1.5 0 2.6-1.2 2.6-2.6v-4.4c.1-.3 0-.6-.1-.8zm-1.6 5.2c0 .5-.4.9-.9.9h-4.4c-.5 0-.9-.4-.9-.9v-4.4c0-.5.4-.9.9-.9h4.4c.4 0 .7.3.8.6v4.7zm10.6-7H40c-.8 0-1.4.3-1.9.8-.4.5-.7 1.1-.7 1.8v4.4c0 1.5 1.2 2.6 2.6 2.6h4.4c1.5 0 2.6-1.2 2.6-2.6v-4.4c0-1.4-1.2-2.6-2.6-2.6zm.8 7c0 .5-.4.9-.9.9H40c-.5 0-.9-.4-.9-.9v-4.4c0-.5.4-.9.9-.9h4.4c.5 0 .9.4.9.9v4.4zm-12.3 4.4h-4.4c-1.5 0-2.6 1.2-2.6 2.6v4.4c0 1.5 1.2 2.6 2.6 2.6h4.4c1.5 0 2.6-1.2 2.6-2.6v-4.4c.1-1.4-1.1-2.6-2.6-2.6zm.9 7c0 .5-.4.9-.9.9h-4.4c-.5 0-.9-.4-.9-.9v-4.4c0-.5.4-.9.9-.9h4.4c.5 0 .9.4.9.9v4.4zm10.6-7H40c-1.5 0-2.6 1.2-2.6 2.6v4.4c0 1.5 1.2 2.6 2.6 2.6h4.4c1.5 0 2.6-1.2 2.6-2.6v-4.4c0-1.4-1.2-2.6-2.6-2.6zm.8 7c0 .5-.4.9-.9.9H40c-.5 0-.9-.4-.9-.9v-4.4c0-.5.4-.9.9-.9h4.4c.5 0 .9.4.9.9v4.4z" class="st2"/><path d="M14.4 18.3h5.3c.5 0 .9-.4.9-.9s-.4-.9-.9-.9h-5.3c-.5 0-.9.4-.9.9s.5.9.9.9zm-2.6 3.5h7.9c.5 0 .9-.4.9-.9s-.4-.9-.9-.9h-7.9c-.5 0-.9.4-.9.9s.4.9.9.9zm2.6 19.3h5.3c.5 0 .9-.4.9-.9s-.4-.9-.9-.9h-5.3c-.5 0-.9.4-.9.9.1.6.5.9.9.9zm-2.6 3.6h7.9c.5 0 .9-.4.9-.9s-.4-.9-.9-.9h-7.9c-.5 0-.9.4-.9.9s.4.9.9.9zm30.8-28.2h-5.3c-.5 0-.9.4-.9.9s.4.9.9.9h5.3c.5 0 .9-.4.9-.9s-.4-.9-.9-.9zm0 3.5h-7.9c-.5 0-.9.4-.9.9s.4.9.9.9h7.9c.5 0 .9-.4.9-.9s-.4-.9-.9-.9z" class="st2"/></svg>