<svg xmlns="http://www.w3.org/2000/svg" viewBox="0 0 50 50"><path fill="#f799ff" d="M46.54 1.46H4.18c-1.25 0-2.26 1.01-2.26 2.26V20.4L48.81 3.72c0-1.25-1.02-2.26-2.27-2.26z"/><path fill="#e589ef" d="M1.92 20.4v25.29l46.89-16.68V3.72z"/><path fill="none" stroke="#444" stroke-linecap="round" stroke-linejoin="round" stroke-miterlimit="10" stroke-width="2.5" d="M25.07 48.56H5.13c-1.92 0-3.47-1.62-3.47-3.63V5.08c0-2 1.56-3.63 3.47-3.63h39.96c1.92 0 3.47 1.62 3.47 3.63V31.6"/><g fill="none" stroke="#444" stroke-linecap="round" stroke-linejoin="round" stroke-miterlimit="10"><path stroke-width="1.5" d="M9.7 18.97h8.9v-8.9s-.24-2.03 1.72-2.03h8.59m1.82 1.7v8.9h8.9s2.03-.24 2.03 1.72v8.59m-1.71 1.88h-8.9v8.9s.24 2.03-1.72 2.03h-8.59m-1.82-1.71v-8.9h-8.9s-2.03.24-2.03-1.72v-8.59"/><path stroke-width=".5" d="M1.66 25.66h18.25l3.12-8.2 2.83 14.88 3.74-6.68h18.94"/></g></svg>