<svg xmlns="http://www.w3.org/2000/svg" id="Layer_1" x="0" y="0" version="1.1" viewBox="0 0 50 50" xml:space="preserve"><style>.st2{fill:#464646}</style><path fill="#e56060" d="M49 23.7l-2 .7-9.7 3.5-2 .7-1.3.5-3.1 1.1-7 2.5-4.9 1.9-6.7 2.4-2.2.8c.1-1.1.3-2.2.5-3.3.1-.5.2-.9.3-1.4-.1 0-.1-.1-.2-.1-2-.6-3.9-1.3-5.6-2.3-1.2-.7-2.3-1.5-3.1-2.6-1-1.3-1.3-2.8-1-4.2.1-.3.2-.5.3-.8l4-1.5 6.4-2.3 2-.7 1.3-.5 8.2-3 3.6-1.3 2.1-.8 9-3.3 2-.7c0 .2 0 .5.1.7.1 1.9-.1 3.8-.5 5.7-.1.5-.2.9-.3 1.4.1 0 .2.1.3.1 1.9.6 3.8 1.3 5.5 2.3 1.2.7 2.3 1.5 3.2 2.7.3.6.6 1.2.8 1.8z"/><path fill="#ff6b6b" d="M39.9 9.7l-2.1.8-8.6 3.1-2.1.8-2.1.8-7.3 2.6-4 1.4-2 .7-8 2.9-2.9 1.1c.1-.3.2-.5.3-.8.2-.3.3-.7.6-1 .6-.9 1.5-1.6 2.4-2.2 1.7-1.2 3.5-1.9 5.5-2.6.4-.1.9-.3 1.3-.4v-.2c-.6-2.3-.9-4.6-.8-6.9.1-1.1.2-2.2.7-3.2.6-1.4 1.5-2.4 2.9-2.9.3-.1.6-.2.8-.2h1.9c1 .2 2 .5 3 1 1.7.8 3.2 2 4.6 3.2.4.3.8.7 1.1 1l.2-.2c1-1 2.1-1.9 3.2-2.7 1.3-.9 2.7-1.7 4.2-2.2.4-.1.8-.2 1.1-.3h1.9c1.5.3 2.5 1.1 3.3 2.4.6 1 .9 2.1 1 3.2-.1.4-.1.6-.1.8z"/><path d="M29.3 25c0 2.4-1.9 4.3-4.3 4.3s-4.3-1.9-4.3-4.3 1.9-4.3 4.3-4.3 4.3 1.9 4.3 4.3z" class="st2"/><path d="M49.5 23.5c-.2-.6-.5-1.3-1-1.9-.8-1-1.9-1.9-3.3-2.8-1.6-.9-3.3-1.6-5.5-2.3v-.2c.1-.3.1-.5.2-.8.5-2.3.6-4.1.5-5.9 0-.3 0-.5-.1-.7-.1-1.3-.5-2.4-1-3.4-.8-1.4-2-2.3-3.5-2.6 0 0-1.9-.2-3.3.3-1.4.4-2.8 1.1-4.4 2.2C27.1 6.2 26 7 25 8c-.3-.3-.5-.5-.8-.7-1.7-1.5-3.1-2.5-4.7-3.3-1.1-.6-2.1-.9-3.1-1.1h-.2s-1.4-.1-2.7.3c-1.5.6-2.5 1.6-3.2 3.2-.4 1-.6 2-.7 3.3-.1 2.5.3 4.9.8 6.8l-.9.3c-2.3.8-4.1 1.6-5.6 2.6-1.1.7-1.9 1.5-2.5 2.4-.3.4-.5.7-.6 1.1l-.3.9c-.4 1.6 0 3.2 1.1 4.6.8 1 1.8 1.9 3.3 2.8 1.6.9 3.3 1.7 5.6 2.3-.1.3-.2.6-.2 1-.3 1.3-.4 2.4-.5 3.4-.1.9-.1 1.7 0 2.5.1 1.7.5 3.1 1.1 4.2.8 1.3 2 2.2 3.5 2.5H17c.3-.1.6-.1.9-.2 1.4-.4 2.7-1.1 4.3-2.3 1-.7 2-1.6 3-2.5l.3.3c1.8 1.7 3.5 2.9 5.1 3.7 1.1.5 2.1.9 3.1 1.1l1.1.1h.2l1.2-.1c.4-.1.4-.1.6-.2 1.5-.5 2.5-1.5 3.2-3.1.4-1 .7-2.1.7-3.4.2-2.5-.3-4.9-.7-6.8.2-.1.5-.1.7-.2 2.3-.7 4.1-1.6 5.6-2.6 1.2-.8 2-1.5 2.6-2.4.8-1.7 1.1-3.4.6-5zM38.8 31c-.1 0-.2 0-.3.1-.3-.9-.6-1.7-.9-2.5-.1-.2-.2-.4-.3-.7-.4-.9-.8-1.8-1.1-2.7v-.3c.9-1.9 1.6-3.8 2.3-5.8V19c.5.2 1.1.3 1.6.5 1.6.5 3.2 1.2 4.6 2.2.7.5 1.3 1 1.8 1.7.3.4.4.7.5 1.1.2.8 0 1.5-.5 2.3-.6.9-1.4 1.5-2.3 2.1-1.7.9-3.5 1.6-5.4 2.1zm-1.5 11.6c-.4.9-1 1.6-2 1.8-.7.2-1.4.1-2-.1-1.3-.4-2.5-1.1-3.6-1.8-1.1-.8-2.2-1.7-3.2-2.6l-.1-.1 1.8-2.1c.8-.9 1.5-1.9 2.2-2.8.1-.1.2-.2.3-.2 2-.2 4.1-.5 6.1-.9.1 0 .2 0 .2.1.5 1.9.8 3.8.8 5.7 0 1-.1 2-.5 3zm-15-1.7C21 42 19.6 43 18.1 43.8c-.8.4-1.7.7-2.6.7-1.2.1-2.1-.5-2.7-1.6-.4-.8-.6-1.7-.6-2.6-.1-1.1 0-2.2.1-3.3s.4-2.2.6-3.3c0-.1.1-.1.2-.1 1.2.2 2.5.5 3.7.7.7.1 1.5.2 2.2.3h.1c.2 0 .4.1.5.3 1.2 1.6 2.4 3.2 3.8 4.7l.2.2c-.5.3-.9.7-1.3 1.1zm-10.8-9.8c-1.3-.4-2.6-.8-3.8-1.4-1.1-.5-2.2-1.1-3.1-1.9-.5-.4-1-.9-1.3-1.5-.5-.9-.5-1.8 0-2.7.2-.3.4-.6.6-.8.4-.5.9-.8 1.4-1.2h.1c1.4-1 3-1.6 4.6-2.2.5-.2 1.1-.3 1.6-.5 0 .1 0 .1.1.2 0 .1 0 .1.1.2.1.2.1.4.2.6.5 1.7 1.2 3.3 1.9 4.9 0 .1.1.2 0 .3-1 1.9-1.7 3.9-2.3 5.9-.1 0-.1 0-.1.1zm1.2-23.7c.3-.8.8-1.4 1.6-1.7.7-.3 1.4-.2 2.1-.1 1.2.3 2.3.9 3.4 1.5 1.3.9 2.6 1.9 3.7 3l.1.1-.1.1c-1.4 1.5-2.7 3.1-3.9 4.8-.1.1-.2.2-.4.2l-4.5.6-1.5.3H13c-.1-.6-.3-1.1-.4-1.7-.3-1.4-.5-2.7-.4-4.1 0-.9.1-2 .5-3zM28 8.8c1.3-1.1 2.6-2 4.1-2.7.8-.4 1.7-.7 2.7-.6.9 0 1.6.4 2.1 1.2.5.7.7 1.5.8 2.3.1.3.1.5.1.8v.7c0 1-.1 2-.2 2.9-.1.9-.4 1.8-.5 2.8 0 .2-.1.2-.2.2-2-.5-4-.8-6-.9-.2 0-.3-.1-.4-.2l-1.2-1.5c-.1-.2-.3-.4-.4-.5-.7-.9-1.4-1.8-2.2-2.6 0-.1-.1-.1-.2-.2.5-.7 1-1.2 1.5-1.7zM17.9 32.4c-1.5-.3-2.9-.5-4.4-.8l1.5-4.2c1 1.7 1.9 3.3 2.9 5zm-4.1-13.2c-.1-.3-.2-.5-.2-.6s0-.2-.1-.3c.5-.1.9-.2 1.4-.3 1-.2 1.9-.3 2.9-.5 0 .1-.1.1-.1.2-.9 1.6-1.8 3.1-2.7 4.7-.1-.1-.8-2-1.2-3.2zm2.5 6c-.1-.1 0-.2 0-.3 1.2-2.5 2.6-5 4.2-7.3.1-.1.2-.2.3-.2 1.4 0 2.8-.1 4.2-.2 1.4.1 2.8.1 4.1.2.2 0 .4.1.5.3 1.5 2.3 2.9 4.7 4.2 7.2.1.1.1.2 0 .4C33 27 32 28.7 31 30.4c-.4.7-.9 1.5-1.4 2.2-.1.1-.2.2-.3.2-1.7.1-3.5.2-5.2.1h-.7c-.8 0-1.7-.1-2.5-.1-.1 0-.2-.1-.3-.2-1.7-2.5-3.1-4.9-4.3-7.4zM34 29.1c.3-.5.6-1.1.9-1.7.1.4.3.8.4 1.2.4 1 .7 2 1.1 3-1.5.3-2.9.5-4.4.8.8-1.1 1.4-2.2 2-3.3zm1-6.6c-.9-1.7-1.9-3.3-2.8-4.9 1.5.3 2.9.5 4.4.8-.6 1.4-1.1 2.7-1.6 4.1zm-8.2-8.7c.1.2.3.4.4.5.2.3.4.5.7.8h-5.7c.9-1.2 1.9-2.3 2.8-3.4l1.8 2.1zm-4.6 21h5.7c-1 1.2-1.9 2.3-2.9 3.4-1-1.1-1.9-2.2-2.8-3.4z" class="st2"/></svg>