<svg xmlns="http://www.w3.org/2000/svg" id="Layer_1" x="0" y="0" version="1.1" viewBox="0 0 50 50" xml:space="preserve"><style>.st2{fill:none;stroke:#505050;stroke-linecap:round;stroke-linejoin:round;stroke-miterlimit:10}</style><path fill="#dc5e82" d="M46.7 21.2L36.6 25l-.7.3L18.1 32l-3.8 1.5c-.6 0-1.2-.1-1.8-.1-.3-.2-.5-.5-.8-.7-2.1-.8-3.3-1.5-3.7-1.7-1.9-1.1-3.3-2.4-4.2-3.3-.5-.7-.8-1.5-1-2.3l.1-2v-.5H3l9.3-3.6 5.9-2.2 6.9-2.6 4.2-1.6 9.4-3.6v2.8c0 .6-.1 1.3-.2 2 0 .5-.1 1-.2 1.6 0 .2-.1.4-.1.6.2.1.4.1.7.2.2.1.5.2.7.2.4.2.8.3 1.2.5h.1c.3.1.7.3 1 .4.1.1.3.1.4.2l.6.3c.3.2.5.3.8.5.2.1.5.3.7.5 0 0 .1 0 .1.1.2.1.4.3.5.4s.2.2.3.2c.1.1.2.1.2.2l.6.6c.2.4.4.5.6.6z"/><path fill="#f56991" d="M37.8 11.3l-8.5 3.1-2.9 1-8.2 3.2-4.9 1.8-9 3.3h-.1c0-.1 0-.2.1-.2v-.3h.1c.2-.6.6-1 .9-1.6l.5-.5c.2-.2.4-.3.6-.5.2-.1.3-.3.5-.4 0 0 .1-.1.2-.1.2-.1.4-.3.6-.4 0 0 .1 0 .1-.1.2-.1.4-.3.6-.4.3-.2.5-.3.8-.4 1-.6 2.2-1 3.5-1.4-.1-.4-.2-.8-.2-1.2-.3-.3-.3-.6-.4-1 0-.4-.1-.8-.1-1.1v-1c0-3.1.8-5.4 2.6-6.4.2-.4.3-.5.5-.5.1 0 .3-.1.4-.1s.2-.1.3-.1h1.8c.2 0 .3.1.5.1.1 0 .2 0 .3.1.1 0 .2 0 .3.1.1 0 .2.1.3.1.1 0 .2.1.3.1.2.1.5.2.7.3.2.1.4.2.7.3l.6.3c.7.4 1.3.8 2 1.2.2.1.4.3.6.5.5.4.9.8 1.4 1.1.9-.9 2-1.6 2.9-2.2.4-.2.8-.4 1.1-.6.2-.1.5-.2.7-.3.2-.1.5-.2.7-.3.3-.1.6-.2.8-.3 1-.2 1.7-.3 2.4-.3h1c.4.1.8.3.9.4.8.6 1.4 1.5 1.7 2.8.1.5.2 1 .3 1.6v.3c0-.2 0-.1 0 0z"/><path d="M25.1 10c4.5-3.2 7.2-4 8.8-4h.9c.4.1.8.2.9.3.9.6 1.5 1.5 1.8 2.9.1.5.2 1 .3 1.6v2.7c0 .6-.1 1.1-.1 1.8 0 .5-.1.9-.2 1.4 0 .2-.1.4-.1.6-.5 2.6-1.2 5.5-2.4 8.1-.6 1.4-1.2 2.7-1.9 4-.5.8-.8 1.4-1.1 1.9m5.3 11.4c.4-.8.8-2 1.1-3.6.1-.7.3-2.1 0-4.4-.5-4.1-2.1-7.9-3-9.7" class="st2"/><path d="M16.2 28.6c.2.3.3.7.5 1 6.2 10.7 15 17.2 19.7 14.5.7-.4 1.3-1.1 1.8-1.9M46 22.5c-.9-1.2-1.8-2-2.4-2.5-.5-.4-1-.7-1.1-.8 0 0-1.1-.7-2.5-1.3-1.4-.6-4.8-1.4-9.4-2" class="st2"/><path d="M24.4 33.9c.4 0 .7.1 1.1.1 11.6.1 21.1-4 21.2-9.1 0-.8-.3-1.6-.7-2.4M3.5 27.2c.5.7 1.3 1.7 2.4 2.6.5.4 1.7 1.4 3.8 2.3 3.9 1.7 8.1 2 10 2.1m.6-19C10.1 16.9 3 20.6 2.8 24.7c0 .7.1 1.5.7 2.5" class="st2"/><path d="M23.8 10.6c-1.6 1.9-3.7 4.6-5.7 8.3-3.8 7-9 20.3-4.4 24.1 1.6 1.4 4 1.1 5.8.8 6.6-.9 9.8-7 10.2-7.7" class="st2"/><path d="M15.2 24.8c-.3-.5-.8-1.3-1.2-2.3-.6-1.5-.9-2.6-1.2-3.9-.7-2.7-.8-4.3-.8-4.8v-1c0-1.2.2-5 2.6-6.4.3-.2.9-.5 1.9-.6h.1c2.4-.1 5.4 1.3 8.4 4l.1.1c1.3 1.1 2.6 2.5 3.9 4 .1.1.2.3.3.4.4.4.7.8 1 1.3.4.5 1.7 2.2 2.8 4.3.2.4.4.7.5.9" class="st2"/><path d="M25.2 22.3c1.3 0 2.4 1 2.4 2.4s-1 2.4-2.4 2.4-2.4-1-2.4-2.4 1.1-2.4 2.4-2.4z" class="st2"/><path fill="#505050" d="M16.7 5.9c2.3 0 5.2 1.4 8.2 4.1l.1.1c.7-.5 5.7-4 8.8-4.1h.2c.4 0 1 0 1.6.4.5.3 1.3.9 1.8 2.9.8 3 .3 6.2-.1 7.9.9.2 1.7.6 2.6.9 2 .9 3.2 1.8 3.6 2.2 1.1.9 1.8 1.8 2.3 2.5.4.8.7 1.6.7 2.4 0 3-3.3 5.7-8.4 7.4.1.6.2 1.1.3 1.7.3 2.2.1 3.6 0 4.2-.2 1.4-.7 2.5-1 3.2l-.1.1c-.4.7-1 1.3-1.6 1.7-.7.4-1.4.6-2.3.6-2.2 0-4.9-1.3-7.7-3.7-1.5 1.3-3.5 2.5-6 2.8-.7.1-1.5.2-2.3.2-1.1 0-2.3-.2-3.2-1-2-1.7-2-5.3-1.1-9.4-.9-.2-1.7-.6-2.6-.9-2-.9-3.2-1.8-3.6-2.2-1.1-.9-1.8-1.8-2.3-2.5-.6-.9-.7-1.7-.7-2.4.1-2.7 3.3-5.2 8.5-7-.5-2.2-.5-3.6-.6-3.9v-1c0-1.2.2-5 2.6-6.5.3-.2.9-.5 1.9-.6h.1c.2-.1.2-.1.3-.1m0-2h-.6s-1.4 0-2.8.9c-3.3 2-3.5 6.6-3.6 8.1v1.2c0 .8.1 1.7.3 2.6-2.6 1.1-4.6 2.4-6 3.7-1 1-2.1 2.5-2.2 4.5-.2 3.3 2.8 5.7 3.7 6.5 0 0 1.3 1.1 4.1 2.5.4.2.7.3 1.1.4-.7 4.6 0 7.8 2.1 9.6 1.2 1 2.6 1.5 4.5 1.5.9 0 1.8-.1 2.6-.2 2-.3 4-1 5.7-2.3 2.8 2.1 5.4 3.2 7.7 3.2.7 0 1.4-.1 2.1-.3.2-.1.7-.2 1.2-.6 1.5-.9 2.3-2.3 2.6-3 .7-1.3.8-2.4 1-3.4.3-1.9.2-3.6 0-4.8v-.2c4.9-1.6 8.1-5.1 8.1-8.7 0-.8-.1-2-1-3.5-.7-1.1-1.6-2.1-2.6-2.9-1.4-1.2-3-2-4.1-2.5-.4-.2-.7-.3-1.1-.4.3-2.1.4-4.6-.3-7.1-.6-2-1.4-3.3-2.7-4.1-.8-.4-1.6-.6-2.6-.6h-.3c-2.8.1-6.4 2.1-8.6 3.6-.9-.7-2-1.5-3.5-2.2-1.8-.8-3.4-1.5-4.8-1.5z"/></svg>