<svg xmlns="http://www.w3.org/2000/svg" viewBox="0 0 50 50"><path fill="#a475ef" d="M31 2.1l-24.5.1c-1.7 0-4.4.7-4.4 2.3l-.2 18.3.4 11.8L2 47.1l16.2 1.5L47 38.4l-.5-7.4.2-20.8V5.9l-.9-2.5C45.7 1.8 32.7 2.1 31 2.1z"/><path fill="none" stroke="#444" stroke-linecap="round" stroke-linejoin="round" stroke-miterlimit="10" stroke-width="2.5" d="M35.6 48.2H3.9c-1.2 0-2.2-1-2.2-2.2V4.4c0-1.2 1-2.2 2.2-2.2h40.2c1.2 0 2.2 1 2.2 2.2v35.9"/><path fill="none" stroke="#444" stroke-linecap="round" stroke-linejoin="round" stroke-miterlimit="10" d="M5.9 19.8h9.9v9.4H5.9zm0-6.2h9.9v3.1H5.9zm13.2 0H29v3.1h-9.9zm13.1 0h9.9v3.1h-9.9zm-13.1 6.2H29v9.4h-9.9zm13.2 0h9.9v9.4h-9.9z"/><path fill="none" stroke="#444" stroke-linecap="round" stroke-linejoin="round" stroke-miterlimit="10" stroke-width=".5" d="M6.5 6.5h35.3M11 10.1h26.3M5.5 33h11m-11 3.3h9.1m-9.1 3.4h11M5.5 43h9.1m4.2-10h11m-11 3.3h9.1m-9.1 3.4h11m-11 3.3h9.1M32 33h11m-11 3.3h9.1M32 39.7h11M32 43h9.1"/><path fill="none" stroke="#444" stroke-miterlimit="10" d="M19.1 19.8l9.9 9.4m-9.9 0l9.9-9.4"/></svg>