<svg xmlns="http://www.w3.org/2000/svg" id="Camada_3" x="0" y="0" version="1.1" viewBox="0 0 50 50" xml:space="preserve"><style>.st2{fill:none;stroke:#505050;stroke-linecap:round;stroke-linejoin:round;stroke-miterlimit:10}</style><path fill="#00c8e2" d="M46.62 21.65c-10.09 3.71-25.84 9.47-35.93 13.18.1-.62.21-1.24.31-1.85-5.15-2.16-9.78-4.01-8.96-9.37v-.31c11.63-4.22 24.91-9.16 36.65-13.38 0 .41.1.82.1 1.13.1 1.96-.1 3.81-.51 5.76 3.09 1.04 6.28 2.37 8.34 4.84z"/><path fill="#00dffc" d="M38.71 10.28C27.08 14.5 13.6 19.44 1.96 23.76c0-.1 0-.21.1-.31v-.31h.1c1.65-3.4 5.35-4.94 8.85-6.28-1.12-4.52-1.02-12.34 4.54-12.55 3.5-.1 6.59 2.16 9.16 4.43 4.84-3.71 13.8-7.93 14 1.54z"/><path d="M2.87 28.04c-.93-1.34-1.34-2.88-.82-4.43 1.89-4.31 6.68-6.09 11.21-7.23M2.87 28.04c2.26 2.26 5.15 4.12 9.37 5.35m26.97-.52c.93-.31 1.85-.72 2.78-1.13 2.06-1.03 4.12-2.26 5.25-4.22.1-.1.1-.31.21-.41 2.37-5.56-4.84-8.96-9.16-10.29-.82-.21-1.54-.41-2.37-.62" class="st2"/><path d="M11.33 31.78c-1.13 4.38-1.61 9.35 1.01 12.42 5.97 4.74 14.62-4.22 17.91-9.16M24.8 8.99c13.14-10.1 15.37-.86 13.21 9.22m.27 24.86c1.84-2.96 1.13-10.84-.54-15.32M21.91 38.02c6.38 6.59 12.66 10.5 16.37 5.04" class="st2"/><path d="M11.82 20.32C7.5 8.99 13.06-1.92 24.69 8.89c1.02.9 2.01 1.86 2.94 2.92" class="st2"/><path fill="#505050" d="M16.35 4.57c2.47 0 5.46 1.34 8.34 4.32h.21c3.4-2.78 6.49-4.12 8.85-4.12 4.12 0 6.28 4.12 4.53 12.15 3.91 1.34 9.37 3.4 9.68 8.13-.21 4.84-5.56 6.07-8.75 8.24.93 8.34-1.75 12.25-5.66 12.25-2.47 0-5.56-1.54-8.65-4.43-3.19 3.09-6.18 4.53-8.75 4.53-4.43 0-7.1-4.63-5.15-12.56-12.56-3.81-11.32-13.38.52-15.95-3.09-7.62 0-12.56 4.83-12.56m0-2.06c-2.78 0-5.15 1.24-6.59 3.4-1.65 2.47-1.96 5.87-.93 9.68-5.35 1.75-8.65 5.15-8.85 9.06-.1 4.01 3.09 7.62 8.65 9.68-.72 4.43-.21 8.03 1.75 10.4 1.44 1.75 3.5 2.78 5.87 2.78 2.78 0 5.76-1.34 8.75-3.81 2.99 2.47 5.87 3.71 8.54 3.71 2.06 0 3.91-.82 5.25-2.26 2.06-2.26 2.88-5.97 2.57-10.91.41-.31.93-.51 1.44-.82 3.09-1.65 7-3.71 7.21-8.44v-.21c-.41-5.46-5.66-7.93-9.37-9.37.72-4.63.21-8.24-1.54-10.4-1.24-1.54-3.09-2.37-5.25-2.37-2.57 0-5.66 1.24-8.85 3.6-2.78-2.38-5.76-3.72-8.65-3.72z"/><path fill="#444" d="M18.05 22.66l.24-.97c.24-.73.65-1.46 1.13-2.11.89-1.13 2.03-1.78 3.4-2.11 1.54-.32 3.08-.32 4.62.16.89.24 1.7.73 2.43 1.38.65.57 1.22 1.22 1.86 1.78.41.41.81.81 1.38 1.05.65.32 1.38.41 2.03.41.89-.08 1.7-.41 2.35-1.05.41-.32.73-.65.97-1.05v-.08c.08.08 0 .08 0 .16-.24 1.05-.65 2.03-1.3 2.84-.97 1.3-2.19 2.03-3.73 2.27-1.54.24-3 .24-4.54-.24-.81-.24-1.46-.65-2.11-1.22-.73-.57-1.3-1.3-2.03-1.86-.49-.49-.97-.89-1.62-1.13-1.38-.49-2.67-.32-3.89.49-.38.31-.78.71-1.19 1.28 0-.08 0 0 0 0zm-6.55 7.19c.08-.41.16-.73.32-1.13.32-.89.73-1.62 1.38-2.35.57-.65 1.3-1.13 2.11-1.46a5.89 5.89 0 012.35-.49c.97-.08 1.94 0 2.84.24.97.24 1.86.73 2.67 1.38.73.57 1.3 1.3 2.03 1.86.49.49.97.89 1.62 1.13 1.46.57 2.75.32 3.97-.57.41-.32.81-.73 1.13-1.13l.08-.08c0 .16-.08.24-.08.41-.32.97-.73 1.94-1.38 2.75-.89 1.13-2.03 1.78-3.4 2.11-1.54.32-3.08.32-4.62-.16-.89-.24-1.7-.73-2.43-1.38-.65-.49-1.13-1.13-1.7-1.7-.41-.41-.81-.73-1.3-1.05-.73-.41-1.46-.57-2.27-.49-.89.08-1.62.41-2.35.97-.24.33-.65.66-.97 1.14 0-.08 0 0 0 0z"/></svg>