<svg xmlns="http://www.w3.org/2000/svg" id="Layer_1" x="0" y="0" version="1.1" viewBox="0 0 50 50" xml:space="preserve"><style>.st1,.st3{fill:none;stroke:#444;stroke-linecap:round;stroke-linejoin:round;stroke-miterlimit:10}.st3{stroke-width:.5;stroke-miterlimit:22.9256}</style><path fill="#46b8b0" d="M45.7 31c7-6.5-4.7-12.1-7.7-13.1.4-1.9.5-3.6.4-5.5v-.7l.2-.5c-.5-8.5-9.9-5.6-14.2-1-2.5-2.2-5.5-4.4-8.9-4.3-5.4.2-5.5 7.8-4.4 12.2-3.4 1.3-7 2.8-8.6 6.1h-.1v.3l-.6-.7c-.1.1.5.9.5 1l-.6-.1c-.6 5 4.5 6.8 9.4 8.9-2.6 2.2-.2 9.6-.3 10.2 9.8-3.6 25.1-9.2 34.9-12.8z"/><path d="M2.9 28.8c-1-1.3-1.4-2.8-.9-4.3 2.2-5.1 8.5-6.6 13.6-7.7m-12.7 12c2.2 2.2 5.1 4.1 9.2 5.3m26.6-.6c.9-.3 1.8-.7 2.7-1.1 2-1 4.1-2.2 5.2-4.2.1-.1.1-.3.2-.4 2.3-5.5-4.8-8.8-9-10.2-.8-.2-1.5-.4-2.3-.6" class="st1"/><path d="M12.6 28c-1.5 4.1-3.3 10.3-1.6 14.6.6 1.6 1.9 2.9 3.6 3.3C20.1 47.3 27 40 29.9 35.7M24.6 9.8c14.5-11.2 16.3 2.7 12 12.9M38.8 41c.8-5-1-12.2-3.1-15.3M21.6 38.6c3.5 3.6 7.1 6.6 10.1 7.4" class="st1"/><path d="M11.7 21.2C7.4 9.9 12.9-.7 24.4 9.9c1.6 1.4 3.1 3 4.6 4.9" class="st1"/><path fill="#444" d="M40.5 16.7c-.4-.2-.6-.6-.6-1 .5-4.2 0-7.4-1.6-9.4-1.2-1.5-3-2.3-5.1-2.3-2.3 0-5.1 1.1-8 3.1-.3.2-.8.2-1.1 0-2.5-2-5.3-3.2-7.9-3.2-2.7 0-5 1.2-6.4 3.3-1.4 2.3-1.8 5.3-1 8.7.1.5-.1.9-.6 1.1C3.5 18.8.6 21.9.4 25.5c-.1 3.7 2.7 7.1 7.7 9.1.4.2.6.6.6 1-.5 4 0 7.2 1.8 9.4 1.4 1.7 3.4 2.7 5.7 2.7 2.5 0 5.2-1.1 7.9-3.2.3-.3.8-.3 1.1 0 2.1 1.6 4.2 2.6 6.1 3 .6.1 1.1-.3 1.2-.9.1-.5-.2-.9-.6-1-1.4-.5-4.5-1.7-6.8-3.5-.3-.3-.9-.2-1.2.1C21 44.8 18.3 46 16 46c-4.1 0-6.7-4.2-5.2-11.4.1-.5-.2-.9-.6-1.1-11-3.7-10-12.3.3-15 .5-.1.8-.7.7-1.2-2.4-7 .5-11.3 5-11.3 2.4 0 5.3 1.3 8.1 4.2h.2c3.3-2.7 6.3-4 8.6-4 3.9 0 6 3.7 4.6 11-.1.4.2.9.6 1 3.7 1.3 8.3 3.3 8.6 7.5v.2c-.3 4.4-4.9 5.7-8 7.6-.3.2-.4.5-.4.9.3 2.9.1 5.2-.5 6.9-.2.5.2 1 .7 1.1.5.1 1-.1 1.2-.6.6-1.8.8-4 .7-6.6 0-.3.2-.7.5-.8.3-.2.6-.3.9-.5 3-1.6 6.8-3.6 7-8.2v-.2c-.4-4.9-4.9-7.3-8.5-8.8z"/><path d="M29.8 30.9c-1.3 1.2-2.9 1.9-4.8 1.9-1.8 0-3.4-.7-4.7-1.8m1-11.2c1.1-.7 2.3-1.1 3.7-1.1 1.8 0 3.5.7 4.7 1.8m2.8 7.2l.2 4.3c0 .9-.5 1.4-1 1.4s-1.1-.6-1-1.4l.3-4.3m1.6-9.5c-3.4 2-2 7.7-1.6 9.5-.3-.1.6-.5 1.5 0l.1-9.5zm-13.6.1v3.1m-1.2 0v-3.1m2.4 0V22c0 .4-.5.8-1.1.9l.4 8.9c.1 2-2.2 2-2.1 0l.4-8.9c-.6-.1-1.1-.5-1.1-.9v-3.7" class="st3"/><circle cx="25.1" cy="25.7" r="4.4" class="st3"/></svg>