<svg xmlns="http://www.w3.org/2000/svg" id="Camada_1" x="0" y="0" version="1.1" viewBox="0 0 50 50" xml:space="preserve"><style>.st2{fill:#031326}</style><path fill="#c3ff68" d="M34.5 7.9c-.2-.1-.4-.2-.7-.4-1-.5-2.3-.2-2.9.8l-1.1 1.9c-.1-.4-.3-.9-.7-1.2l-6.9-6.1c-.6-.6-1.6-.7-2.3-.4-.8.4-1.3 1.1-1.3 2v1.7C10.3 8.7 4.1 16 3.2 24.6l35.9-13.1c-1.3-1.3-2.9-2.6-4.6-3.6z"/><path fill="#afe55d" d="M44.4 31.8c2-7.3-.2-15-5.3-20.3L3.2 24.6c-.1.8-.2 1.5-.2 2.3v.7c.1 1.2 1 2.1 2.2 2.1h2.2c-.3.3-.6.7-.7 1.2l-1.9 9c-.2.8.2 1.7.9 2.2.7.5 1.6.5 2.3.1l1.5-.9c1.1 1.1 2.2 2 3.4 2.8l32.3-11.7-.8-.6z"/><path d="M48 33.7l-1.8-1C49 22.5 44.6 11.6 35.4 6.3c-.2-.1-.5-.3-.7-.4-1-.5-2.3-.2-2.9.8l-1.6 2.8v-.3c0-.6-.3-1.2-.7-1.6L21.9.8c-.6-.6-1.5-.7-2.3-.4s-1.3 1.1-1.3 2v2.1C8.2 7.2.9 16.5.9 27.1v.8c0 1.2 1 2.1 2.2 2.1h3.2c-.1 0-.2.1-.3.1-.5.3-.9.8-1 1.4l-2.1 10c-.2.9.2 1.7.9 2.2.7.5 1.6.5 2.4.1L8 42.7c4.5 4.5 10.5 6.9 16.7 6.9 4 0 8-1 11.6-3.1.2-.1.5-.3.7-.4 1-.6 1.3-1.9.7-2.9L36 40.5c.1.1.2.1.3.2.5.3 1.2.4 1.7.2l9.7-3.2c.8-.3 1.4-1 1.5-1.8 0-1-.4-1.8-1.2-2.2zM28.5 13.8c.2.6.6 1 1.1 1.3.2.1.4.2.5.3 4.2 2.4 6.6 7 6.3 11.8l-.3-.2c-.1-.1-.3-.1-.4-.2-.1-6.1-5.1-11-11.2-11h-.2l5.2-4.8-.6 1.1c-.5.5-.5 1.1-.4 1.7zM35.1 39l-.6-1.1c-.3-.5-.8-.9-1.4-1-.6-.1-1.2 0-1.7.3-.2.1-.3.2-.5.3-4.2 2.4-9.4 2.2-13.4-.4l.4-.2c.2-.1.3-.2.5-.4 1.7 1.1 3.8 1.8 6 1.8 3.9 0 7.4-2 9.4-5.1l1.3 5.8zM9.3 30c.6 0 1.2-.2 1.6-.7.4-.4.6-1 .6-1.6v-.6c0-4.9 2.8-9.3 7.1-11.4v.5c0 .4.1.8.3 1.1-3.3 1.9-5.6 5.6-5.6 9.7 0 1.8.4 3.5 1.2 4.9L8 30h1.3zm12.8-12.3l.2-.2c.7-.1 1.4-.2 2.1-.2 5.3 0 9.7 4.3 9.7 9.6-.1.1-.2.1-.4.2-.7.5-1 1.4-.8 2.2l.4 1.7c-1.5 3.4-4.9 5.8-8.9 5.8-2 0-3.9-.6-5.5-1.7v-.3c-.1-.9-.7-1.6-1.5-1.8l-1-.3c-1.1-1.6-1.8-3.5-1.8-5.6 0-3.9 2.3-7.2 5.5-8.8.8.1 1.5-.1 2-.6zM3.4 27.5v-.4c0-9.8 6.9-18.3 16.5-20.3l1-.2V3.3l6.7 6-6.6 6.1v-3.3l-1.6.6C13.2 14.8 9 20.6 9 27.1v.4H3.4zm31.5 16.9c-8.4 4.9-19.3 3.1-25.8-4.1l-.7-.8-2.9 1.7 1.8-8.8 8.6 2.7-2.8 1.7 1.3 1.1c4.9 4.3 12 5 17.7 1.8.1-.1.2-.1.3-.2l2.8 4.8s-.2.1-.3.1zm2.6-6.1l-2-8.8 2.9 1.6.3-1.7C40 23 37 16.5 31.4 13.2c-.1-.1-.2-.1-.3-.2l2.8-4.8c.1.1.2.1.3.2 8.4 4.9 12.4 15.1 9.4 24.4l-.3 1 2.9 1.6-8.7 2.9z" class="st2"/><path d="M28.7 29.4c0-.6-.3-2-1.6-2.5 1.1-.2 1.4-1.8 1.4-2.4 0-1-.6-3.2-4.1-3.2h-3.7c-.3 0-.4.2-.4.4v11.1H25c3.2-.1 3.7-2.3 3.7-3.4zm-4.4-6c.6 0 1.1.1 1.3.3.3.2.4.6.4 1s-.1.7-.4 1c-.3.2-.7.3-1.3.3h-2.1v-2.1c0-.2-.5-.6-.5-.6h2.6zm-2 7.2v-2.1c0-.2-.5-.6-.5-.6h3.1c.9 0 1.4.5 1.4 1.4 0 .4-.1.7-.4 1-.3.2-.7.3-1.1.3h-2.5z" class="st2"/></svg>