<svg xmlns="http://www.w3.org/2000/svg" id="Layer_1" x="0" y="0" version="1.1" viewBox="0 0 50 50" xml:space="preserve"><style>.st2{fill:#031326}</style><path fill="#46b8b0" d="M44.4 25.2v-.7c.2-3.8-.7-7.7-2.6-11L43.5 7c.1-.2-.1-.4-.3-.5h-.1l-6.7.6c-3.6-2.5-8.3-2.8-12.2-.8-1.1.5-2 1.2-2.9 2-2.4 2.3-3.7 5.4-3.7 8.7 0 1.2.2 2.3.5 3.3-.5.2-.9.4-1.4.5-.5.1-1.1.2-1.7.2-3.8 0-7.6-6.1-7.8-6.1s-.3 1.3-.3 2.1c0 3.1 1.2 5.9 3.1 8h-.3c-3.5 0-7.4-5.5-7.6-5.5-.2 0-.4 2.7-.4 4.1 0 5.8 2.3 11 6 14.9l36.7-13.3z"/><path fill="#4ecdc4" d="M7.4 24.4c-2.7-1.5-5.2-4.8-5.3-4.8-.2 0-.4 2.7-.4 4.1 0 .9.1 1.8.2 2.7l5.5-2zm35-12.8L43.6 7c.1-.2-.1-.4-.3-.5h-.1l-6.7.6c-2-1.4-4.4-2.1-6.8-2.1-1.9 0-3.7.4-5.4 1.3-1.1.5-2 1.2-2.9 2-2.4 2.3-3.7 5.4-3.7 8.7 0 1.2.2 2.3.5 3.3-.5.2-.9.4-1.4.5-.6.1-1.2.2-1.8.2-3.8 0-7.6-6.1-7.8-6.1s-.3 1.4-.3 2.1c0 2.5.8 4.8 2.1 6.7l33.4-12.1z"/><path d="M45.5 24.8c.2-4-.6-7.9-2.5-11.5l1.6-6.1c0-.2.1-.3 0-.5-.1-.8-.8-1.4-1.6-1.3l-6.2.6c-2.1-1.4-4.5-2.1-7.1-2.1-2 0-4 .5-5.9 1.4-1.2.6-2.2 1.3-3.2 2.2-3.3 3.1-4.7 7.7-3.8 12.1-.6.2-1.3.3-1.9.3-1.7 0-3.9-1.7-6.5-5.2-.4-.6-.7-.9-1.3-.9-1.3 0-1.3 1.6-1.3 3.2 0 2.1.5 4.2 1.5 6-1.7-1.1-3.3-2.9-3.9-3.7-.6-.7-.8-.9-1.3-.9-1.5 0-1.5 2.5-1.5 5.2 0 6.1 2.4 11.8 6.7 16 4.2 4.2 9.8 6.5 15.8 6.5h.4c4.7-.1 9.2-1.6 13.1-4.5 1 .4 2.1.6 3.3.6 5.3 0 9.6-4.3 9.6-9.6-.1-3.2-1.6-6-4-7.8zM23.4 43.9c-5.5.1-10.7-2-14.6-5.8-3.9-3.8-6.1-9-6.1-14.5 0-.6 0-1.1.1-1.7C4.4 23.7 7 26 9.7 26h.4l2.2-.2-1.5-1.7C9.2 22.3 8.2 20 8 17.6c1.6 1.9 4.2 4.3 6.9 4.3.7 0 1.4-.1 2-.2.6-.1 1.1-.3 1.6-.5l.9-.4-.2-.8c-.3-1-.4-2-.4-3 0-3 1.2-5.9 3.4-7.9.8-.7 1.7-1.4 2.6-1.9 3.5-1.7 7.8-1.5 11 .8l.3.2 6.1-.6-1.6 6 .2.4c1.6 3 2.4 6.3 2.4 9.6-1.1-.4-2.3-.7-3.6-.7-5.3 0-9.6 4.3-9.6 9.6 0 3.3 1.7 6.2 4.2 7.9-3.1 2.3-6.9 3.5-10.8 3.5zm16.4-4.2c-3.9 0-7.1-3.2-7.1-7.1 0-3.9 3.2-7.1 7.1-7.1 3.9 0 7.1 3.2 7.1 7.1 0 3.9-3.2 7.1-7.1 7.1z" class="st2"/><path d="M39.8 26.1c-3.6 0-6.4 2.9-6.4 6.4s2.9 6.4 6.4 6.4 6.4-2.9 6.4-6.4-2.9-6.4-6.4-6.4zm0 9.1c-2.1 0-4.1-1-5.4-2.7 1.3-1.7 3.3-2.7 5.4-2.7s4.1 1 5.4 2.7c-1.3 1.7-3.3 2.7-5.4 2.7z" class="st2"/><path d="M39.8 34.8c-1.3 0-2.3-1-2.3-2.3 0-1.2 1-2.3 2.3-2.3 1.2 0 2.3 1 2.3 2.3-.1 1.3-1.1 2.3-2.3 2.3zm0-3.8c-.8 0-1.5.7-1.5 1.5S39 34 39.8 34s1.5-.7 1.5-1.5-.7-1.5-1.5-1.5z" class="st2"/><circle cx="39.8" cy="32.5" r="1.1" class="st2"/></svg>