<svg xmlns="http://www.w3.org/2000/svg" id="Layer_1" x="0" y="0" version="1.1" viewBox="0 0 48 47" xml:space="preserve"><style>.st4{fill:#444}</style><switch><g><path fill="#e589ef" d="M42.3 25.5l.2 3L5.6 42l.3-6.6.5-3.7 36.8-13.4-.7 2.7z"/><path fill="#f799ff" d="M42.8 13.4l-.7 5.6-36 13.2-.6-7.3-.6-2.5L43.1 8.6z"/><g transform="translate(.5 .5)"><path fill="none" stroke="#444" stroke-linecap="round" stroke-linejoin="round" stroke-miterlimit="10" stroke-width="2.5" d="M31.3 45.1H4.9V7h6m25.3 0h6v25.4"/><path fill="none" stroke="#444" stroke-linecap="round" stroke-linejoin="round" stroke-miterlimit="10" stroke-width="1.5" d="M28.8 5.5c0-2.9-2.3-5.2-5.2-5.2s-5.2 2.3-5.2 5.2h-3.7v6h17.9v-6h-3.8z"/><circle cx="23.6" cy="5.5" r="1.5" class="st4"/></g><path d="M13.6 20.8c-.2 0-.4-.1-.5-.2l-1.9-1.9c-.3-.3-.3-.7 0-1 .3-.3.7-.3 1 0l1.4 1.4 3.4-3.4c.3-.3.7-.3 1 0 .3.3.3.7 0 1l-3.9 3.9c-.1.1-.3.2-.5.2zm0 7.1c-.2 0-.4-.1-.5-.2l-1.9-1.9c-.3-.3-.3-.7 0-1 .3-.3.7-.3 1 0l1.4 1.4 3.4-3.4c.3-.3.7-.3 1 0 .3.3.3.7 0 1l-3.9 3.9c-.1.2-.3.2-.5.2zm0 7.2c-.2 0-.4-.1-.5-.2L11.3 33c-.3-.3-.3-.7 0-1 .3-.3.7-.3 1 0l1.4 1.4 3.4-3.4c.3-.3.7-.3 1 0 .3.3.3.7 0 1l-3.9 3.9c-.2.1-.4.2-.6.2zm0 7.2c-.2 0-.4-.1-.5-.2l-1.9-1.9c-.3-.3-.3-.7 0-1 .3-.3.7-.3 1 0l1.4 1.4 3.4-3.4c.3-.3.7-.3 1 0 .3.3.3.7 0 1l-3.9 3.9c-.1.1-.3.2-.5.2zm17.5-23.5h-9.9c-.4 0-.7-.3-.7-.7 0-.4.3-.7.7-.7h9.9c.4 0 .7.3.7.7 0 .4-.3.7-.7.7zm0 7.2h-9.9c-.4 0-.7-.3-.7-.7 0-.4.3-.7.7-.7h9.9c.4 0 .7.3.7.7 0 .4-.3.7-.7.7zm0 7.2h-9.9c-.4 0-.7-.3-.7-.7 0-.4.3-.7.7-.7h9.9c.4 0 .7.3.7.7 0 .4-.3.7-.7.7zm0 7.2h-9.9c-.4 0-.7-.3-.7-.7 0-.4.3-.7.7-.7h9.9c.4 0 .7.3.7.7 0 .4-.3.7-.7.7z" class="st4"/><path id="XMLID_1020_" fill="#444" fill-rule="evenodd" d="M38.8 42.1c-1.2 0-2.1-.9-2.1-2.1 0-1.2.9-2.1 2.1-2.1 1.2 0 2.1.9 2.1 2.1 0 1.2-.9 2.1-2.1 2.1zm0 4.4c3.2 0 5.8-2.6 5.8-5.8 0-3.2-2.6-5.8-5.8-5.8-3.2 0-5.8 2.6-5.8 5.8 0 3.2 2.6 5.8 5.8 5.8zm-3.4-1.8c.5-1.3 1.8-2.3 3.4-2.3 1.5 0 2.8.9 3.4 2.3 1.2-1 1.9-2.4 1.9-4 0-2.9-2.4-5.3-5.3-5.3s-5.3 2.4-5.3 5.3c.1 1.6.8 3 1.9 4z" clip-rule="evenodd"/></g></switch></svg>