<svg xmlns="http://www.w3.org/2000/svg" id="Camada_3" x="0" y="0" version="1.1" viewBox="0 0 50 50" xml:space="preserve"><style>.st2,.st3{fill:none;stroke:#444;stroke-linecap:round;stroke-linejoin:round;stroke-miterlimit:10}.st3{stroke-width:.5}</style><path fill="#22dd6d" d="M46.2 13.43l-5.39-4.91-8.64-7.08-11.76 1.68c-3.3 0-16.26 8.33-16.26 11.64L2.48 26.4l1.68 12.04 11.88 7.81 30.28-10.78 1.94-9.07c.75-.44-1.04-10.92-2.06-12.97z"/><path fill="none" stroke="#444" stroke-linecap="round" stroke-linejoin="round" stroke-miterlimit="10" stroke-width="2.5" d="M28.7 48.49l-11.4-.66-12.42-7.61-2.4-13.82 2.6-15.23 13.43-7.81 13.02-1.21 14.42 10.22 1.81 13.03-3.01 14.82-5.64 3.54"/><path d="M2.48 26.4l12.02 1.71 9.72 13.68-5.31 6.03" class="st2"/><path d="M45.01 12.09l-3.6 6.75-.18 16.38-17.01 6.57m20.25-1.98l-3.24-4.59" class="st2"/><path d="M14.5 28.11l10.08-14.04 16.83 4.77M18.51 3.36l6.07 10.71" class="st2"/><path d="M17.53 27.96l8.04-11.04 13.44 3.48.12 13.08-14.04 5.64z" class="st3"/><path d="M21.17 28.09l5.86-8.05 9.81 2.54.09 9.54-10.25 4.12z" class="st3"/><path d="M24.81 28.35l3.69-5.07 6.18 1.6.05 6.01-6.45 2.59z" class="st3"/></svg>