<svg xmlns="http://www.w3.org/2000/svg" version="1" viewBox="0 0 50 50"><path fill="#DC5E82" d="M15.489 41.319h2.41v2.052h10.84l11.17-4.066V10.431a.527.527 0 00-.528-.528h-2.41V7.852H17.899v2.052h-2.41a.528.528 0 00-.528.528v30.36c0 .291.236.527.528.527z"/><path fill="#F56991" d="M37.317 9.903h-.346V7.852H17.899v2.052h-2.41a.528.528 0 00-.528.528v7.609l22.356-8.138z"/><g fill="#031326"><path d="M18.612 36.855h17.646v-4.353H18.612v4.353zm.25-4.102h17.146v3.853H18.862v-3.853zm-.25-2.091h17.646v-4.354H18.612v4.354zm.25-4.103h17.146v3.854H18.862v-3.854zm-.25-2.091h17.646v-4.353H18.612v4.353zm.25-4.103h17.146v3.853H18.862v-3.853zm-.25-2.092h17.646V13.92H18.612v4.353zm.25-4.102h17.146v3.853H18.862v-3.853z"/><path d="M39.381 8.653h-1.16V6.602h-9.453l.368-.413c.033-.03.058-.064.087-.098l1.552-1.741h-1.234V1.285h-20.7v47.431h20.7V43.37a1.24 1.24 0 00-.34-.846h7.057v-1.931h2.759c.227.232.541.377.891.377.69 0 1.25-.56 1.25-1.25V10.43a1.78 1.78 0 00-1.777-1.777zm-20.519 2.514h17.146v.662H18.862v-.662zm.286-.5V9.102H35.72v1.566H19.148zm-7.807 35.549V3.785h15.7v.565h-1.233l1.548 1.737c.031.036.058.071.092.103l.367.412H16.648v2.051h-1.16a1.78 1.78 0 00-1.778 1.778v30.36c0 .98.797 1.778 1.778 1.778h1.16v2.051h10.393v1.596h-15.7zm24.667-6.122h-16.86v-.024h-.287v-1.122h17.146v1.146zm0 2.18h-7.147a1.225 1.225 0 00-.57-.154h-9.143v-1.526h16.859v1.68zm.25-2.18v-1.396H18.612v1.372H16.21V11.153l2.401.015v.912h17.646v-.912l2.4-.015v28.568c0 .132.037.253.075.373h-2.474z"/></g></svg>