<svg xmlns="http://www.w3.org/2000/svg" id="Camada_3" x="0" y="0" version="1.1" viewBox="0 0 50 50" xml:space="preserve"><style>.st2{fill:none;stroke:#444;stroke-linecap:round;stroke-linejoin:round;stroke-miterlimit:10}</style><path fill="#fdcf72" d="M42.54 4.76c0-.77-5.03-3.14-5.8-3.14l-2.54.52-7.98 13.61-9.85.7c-1.29 1.6-.36-3.58-1.64-5.19L8.71 6.94c-.77 0-7.25 3.67-7.25 4.44v8.78c0 .97.96 1.64 1.87 1.32L27 16.82l16.41-9.6c.56-.2-.21-.77-.21-1.36l-.66-1.1z"/><path fill="#fcc34f" d="M1.46 22.15l.45 22.83 3.17 2.59 42.89-15.26.57-14.61-10.13-.8 5-9.68-13.66 4.86-3.5 4.49h-9.13z"/><path d="M2.7 14.28c0-3.32 2.69-6.02 6.02-6.02s6.02 2.69 6.02 6.02m33.4 25.44l-.45-19.84c0-1.21-.98-2.18-2.18-2.18h-8.76M14.73 41.29a6.02 6.02 0 00-7.31-5.88c-2.28.48-4.12 2.31-4.59 4.59a6.024 6.024 0 005.88 7.31l29.69 1M2.7 14.28v27.01m12.03-27.01v27.01m11.88-23.81H14.73" class="st2"/><path d="M23.46 23.46l-.73 7.86c-.07.76.77 1.26 1.4.85l6.18-4.02c.41-.26.74-.62.99-1.04L42.2 8.29c.71-1.22.3-2.79-.92-3.51L38.11 2.9a2.585 2.585 0 00-3.55.92l-10.7 18.37c-.22.39-.36.82-.4 1.27z" class="st2"/><path fill="none" stroke="#444" stroke-linecap="round" stroke-linejoin="round" stroke-miterlimit="10" stroke-width=".5" d="M21.52 36.03h10.95m-6.25-2.84h10.95M2.7 36.03s1.54-4.86 6.02-4.33m-6.02.87s1.54-4.86 6.02-4.33m-6.02.99s1.54-4.86 6.02-4.33m-6.02.6s1.54-4.86 6.02-4.33M2.7 22.49s1.54-4.86 6.02-4.33m-6.02.6s1.54-4.86 6.02-4.33M2.7 15.75s1.54-4.86 6.02-4.33"/><path d="M24.02 23.11l6.5 4.35m-7.46.33l3.93 2.51m-1.18-5.99l12.6-21.24M28.29 25.96L41.01 4.62" class="st2"/><path fill="none" stroke="#444" stroke-linecap="round" stroke-linejoin="round" stroke-miterlimit="10" stroke-width="2.5" d="M48.54 40.96V19.3c0-1.33-1.08-2.42-2.42-2.42l-7.72.01h0l4.69-8.63c.78-1.36.02-3.37-1.33-4.17l-3.51-2.08a2.863 2.863 0 00-3.93 1.02l-8.09 13.54h0l-10.53-.13v-2.18h0c-.79-6.01-3.82-6.75-7.35-6.75-3.68 0-6.46 2.91-6.46 6.59v25.65l.01 2.09c0 5.46 5.13 6.37 8.83 6.37l27.66.09"/></svg>