<svg xmlns="http://www.w3.org/2000/svg" id="Camada_1" x="0" y="0" version="1.1" viewBox="0 0 49 50" xml:space="preserve"><style>.st3{fill:#444}</style><path fill="#ff6b6b" d="M47.2 20.1c-.2-.8-2.7-7.5-3.2-8.1l-3-3.5-.2.1-7.6-5.7-7.8-.7c-3.2 0-12.8-.7-21.3 11.5l-2.9 7.9.5 2 1.8 11.5c.1.4 4.7 7 5.1 7.2l5.6 3 32.2-11.7c.7-.5 1.8-8.8.8-13.5z"/><path fill="none" stroke="#444" stroke-linecap="round" stroke-linejoin="round" stroke-miterlimit="10" stroke-width="2.5" d="M43.1 37.9c2.7-3.7 4.2-8.3 4.2-13.2C47.4 12.1 37.2 2 24.6 2S1.9 12.1 1.9 24.7 12 47.5 24.6 47.5"/><path fill="none" stroke="#444" stroke-linecap="round" stroke-linejoin="round" stroke-miterlimit="10" d="M8.3 9.5l14.3 36.9M1.9 24.7s20.9-9.4 42.9 9.5M27.1 2.5s9.5 11.5 9.2 34.9m-20.9 7.9s3-25.5 23.8-37.8"/><circle cx="13" cy="22.5" r="3.2" class="st3"/><circle cx="23.2" cy="23.2" r="3.2" class="st3"/><circle cx="18.1" cy="34.4" r="3.2" class="st3"/><circle cx="35.5" cy="28.2" r="3.2" class="st3"/></svg>