<svg xmlns="http://www.w3.org/2000/svg" id="Layer_1" x="0" y="0" version="1.1" viewBox="0 0 50 50" xml:space="preserve"><style>.st4,.st5{fill:none;stroke:#444;stroke-linecap:round;stroke-linejoin:round}.st5{stroke-width:.75}</style><path fill="#bf94f7" d="M8 30.1l34.5-12.5L41.3 7V2.6l-34 12"/><path fill="#a475ef" d="M9.4 43.9l33-11.7-1.1-15.4-34 12.3"/><path fill="#444" d="M47 45.5v-2.2h-1.9c-.1-.3-.2-.5-.3-.7l1.3-1.3-1.5-1.6-1.3 1.3c-.2-.1-.5-.2-.7-.3v-1.8h-2.2v1.9c-.3.1-.5.2-.7.3l-1.3-1.3-1.6 1.6 1.3 1.3c-.1.2-.2.5-.3.7h-1.9v2.2h1.9c.1.3.2.5.3.7l-1.3 1.3 1.6 1.6 1.3-1.3c.2.1.5.2.7.3V50h2.2v-1.8c.3-.1.5-.2.7-.3l1.4 1.3 1.5-1.6-1.3-1.3c.1-.2.2-.5.3-.7l1.8-.1zm-5.6.6c-.9 0-1.7-.7-1.7-1.7 0-.9.7-1.7 1.7-1.7.9 0 1.7.7 1.7 1.7 0 .9-.7 1.7-1.7 1.7z"/><path fill="none" stroke="#444" stroke-linecap="round" stroke-linejoin="round" stroke-width="2.5" d="M32.2 47.5H8.6V9.1L15.7 2h25.8v31.8"/><path d="M22 14.3h8.8M22 16.5h14.2M22 24.3h8.8M22 26.5h14.2M22 34.9h8.8M22 37.1h14.2M14.9 11.8h3.4c.6 0 1 .5 1 1v3.4c0 .6-.5 1-1 1h-3.4c-.6 0-1-.5-1-1v-3.4c-.1-.6.4-1 1-1z" class="st4"/><path d="M14.9 13.7l1.2 2.2 4.2-4.6" class="st5"/><path d="M14.9 22.3h3.4c.6 0 1 .5 1 1v3.4c0 .6-.5 1-1 1h-3.4c-.6 0-1-.5-1-1v-3.4c-.1-.6.4-1 1-1z" class="st4"/><path d="M14.9 24.2l1.2 2.1 4.2-4.5" class="st5"/><path d="M14.9 32.8h3.4c.6 0 1 .5 1 1v3.4c0 .6-.5 1-1 1h-3.4c-.6 0-1-.5-1-1v-3.4c-.1-.6.4-1 1-1z" class="st4"/><path d="M14.9 34.7l1.2 2.1 4.2-4.6" class="st5"/></svg>