<svg xmlns="http://www.w3.org/2000/svg" version="1" viewBox="0 0 50 50"><path fill="#A6C1C2" d="M11.123 42.284l35.578-12.949c.27-1.381.416-2.807.416-4.267 0-12.215-9.902-22.117-22.117-22.117S2.883 12.853 2.883 25.068c0 6.958 3.216 13.162 8.24 17.216z"/><path fill="#B9D7D9" d="M36.933 6.555a22.008 22.008 0 00-12.095-3.604c-9.987 0-18.425 6.621-21.171 15.712L36.933 6.555z"/><path fill="#031326" d="M23.589 1.743c-11.357.671-20.748 9.683-21.843 21.006C.5 35.624 9.761 46.839 22.296 48.28l.136.015c.038.003.075.005.111.005.502 0 .909-.314 1.092-.763a.736.736 0 00.109-.706l-3.722-9.737a2.86 2.86 0 001.184-2.313c0-.964-.479-1.812-1.208-2.333a57.326 57.326 0 012.904-6.157c.236.063.48.107.736.107a2.86 2.86 0 002.481-1.45c2.351.692 4.721 1.636 7.11 2.798a2.864 2.864 0 002.364 3.414c.209 2.1.368 4.267.465 6.518.018.402.35.718.749.718l.033-.001a.75.75 0 00.717-.781c-.098-2.282-.26-4.48-.472-6.612.358-.14.681-.348.952-.611 1.677 1.024 5.284 3.621 6.853 4.76a.85.85 0 001.233-.261l.356-.604a23.21 23.21 0 001.888-9.216c0-13.354-11.257-24.126-24.778-23.327zM37.48 8.384c-1.541.736-3.119 1.771-4.696 3.065a46.32 46.32 0 00-3.19-6.721 20.743 20.743 0 017.886 3.656zM25 4.201c.894 0 1.77.075 2.635.185 1.509 2.407 2.822 5.11 3.934 8.107-2.436 2.209-4.839 5.027-7.065 8.309a2.848 2.848 0 00-.865-.147 2.865 2.865 0 00-2.578 1.629 36.36 36.36 0 00-4.603-.36 2.87 2.87 0 00-2.803-2.261c-.097 0-.189.019-.284.029l-3.446-9.014C13.728 6.697 19.073 4.201 25 4.201zM4.196 23.834a20.756 20.756 0 014.606-11.895l3.166 8.283a2.853 2.853 0 00-1.156 2.041 38.028 38.028 0 00-6.616 1.571zm-.046 1.597c2.298-.792 4.601-1.361 6.913-1.682a2.864 2.864 0 002.592 1.656c.097 0 .189-.019.283-.029l2.711 7.091a2.86 2.86 0 00-1.184 2.313c0 1.02.536 1.911 1.338 2.42a48.51 48.51 0 00-1.38 6.413A20.852 20.852 0 014.15 25.431zM21.688 45.65a20.774 20.774 0 01-4.862-1.378 46.589 46.589 0 011.389-6.634c.041.002.08.012.121.012.097 0 .189-.019.283-.029l3.069 8.029zm-3.082-13.714c-.09-.009-.177-.027-.27-.027-.097 0-.189.019-.284.029l-2.71-7.091a2.86 2.86 0 001.026-1.415 35.03 35.03 0 014.425.346c.061.694.356 1.321.824 1.785a58.596 58.596 0 00-3.011 6.373zm7.9-8.448a2.854 2.854 0 00-.742-1.877c1.992-2.926 4.161-5.497 6.361-7.566 1.185 3.513 2.107 7.407 2.775 11.655a2.86 2.86 0 00-.976.707c-2.491-1.217-4.963-2.198-7.418-2.919zm17.839 9.368a73.212 73.212 0 00-5.55-3.763c.067-.244.115-.495.115-.76a2.861 2.861 0 00-2.526-2.836c-.72-4.589-1.738-8.774-3.054-12.537 1.846-1.574 3.693-2.775 5.454-3.517 4.332 3.826 7.083 9.404 7.083 15.625 0 2.698-.524 5.312-1.522 7.788z"/></svg>