<svg xmlns="http://www.w3.org/2000/svg" version="1" viewBox="0 0 50 50"><path fill="#00C8E2" d="M47.656 32.38c-.025.284-.067.71-.117 1.137L17.929 44.29 3.137 35.748a.541.541 0 01-.276-.368c-.301-1.27-.51-2.716-.526-4.078 0-.192.092-.368.242-.476.443-.318.878-.627 1.321-.936V14.086c0-1.095.886-1.981 1.981-1.981s1.981.886 1.981 1.981v13.079c4.312-2.842 8.667-5.332 13.079-7.38V4.325a1.98 1.98 0 113.962 0v13.74c.159-.067.317-.134.485-.201a.564.564 0 01.526.058c7.705 4.221 14.801 8.909 21.487 13.915a.565.565 0 01.257.543z"/><path fill="#00DFFC" d="M34.644 23.062L2.71 34.687a19.14 19.14 0 01-.376-3.385c0-.192.092-.368.242-.476.443-.318.878-.627 1.321-.936V14.086c0-1.095.886-1.981 1.981-1.981s1.981.886 1.981 1.981v13.079c4.312-2.842 8.667-5.332 13.079-7.38V4.325a1.98 1.98 0 113.962 0v13.74c.159-.067.317-.134.485-.201a.564.564 0 01.526.058c3 1.646 5.908 3.36 8.733 5.14z"/><g fill="#031326"><path d="M25.34 38.269l1.88 1.07 2.017-1.146-1.88-1.07-2.017 1.146zm1.881.783l-1.375-.783 1.511-.858 1.374.783-1.51.858zm3.293-3.722l1.88 1.07 2.017-1.146-1.88-1.07-2.017 1.146zm1.88.783l-1.374-.783 1.511-.858 1.374.783-1.511.858zm4.926-4.676l-2.017 1.146 1.88 1.07 2.018-1.146-1.881-1.07zm-1.51 1.145l1.511-.858 1.375.783-1.512.858-1.374-.783z"/><path d="M48.146 30.84c-7.252-5.43-14.329-10.015-21.557-13.971a1.849 1.849 0 00-.438-.208V4.321A3.234 3.234 0 0022.92 1.09a3.234 3.234 0 00-3.23 3.231v14.672c-3.46 1.648-7.008 3.619-10.581 5.877V14.083c0-1.782-1.449-3.231-3.231-3.231s-3.231 1.449-3.231 3.231V29.24c-.268.188-.535.378-.802.571a1.844 1.844 0 00-.761 1.506c.021 1.709.315 3.31.56 4.351.114.488.43.912.867 1.164l20.686 11.947a1.838 1.838 0 001.815.002l4.593-2.622a1.25 1.25 0 00-1.24-2.172l-4.256 2.431L4.014 34.814a18.969 18.969 0 01-.371-2.61c6.56 4.854 12.93 8.66 20.551 13.109a.322.322 0 00.335.009l21.815-12.39a30.07 30.07 0 01-.147 1.199 1.25 1.25 0 001.05 1.423 1.262 1.262 0 001.423-1.05 40.7 40.7 0 00.232-2.007c.065-.681-.252-1.334-.756-1.657zm-42.999-.583v-9.544a2.706 2.706 0 001.462-.009v8.529c-.486.332-.974.68-1.462 1.024zM22.92 3.59c.403 0 .731.328.731.731V6.29a2.879 2.879 0 01-.715.093c-.274 0-.52-.042-.747-.102v-1.96a.733.733 0 01.731-.731zm.731 4.802a2.879 2.879 0 01-.715.093c-.274 0-.52-.042-.747-.102V6.85c.227.059.473.102.747.102.262 0 .497-.039.715-.093v1.533zm-1.461.56c.227.059.473.102.747.102.262 0 .497-.039.715-.093v1.534a2.879 2.879 0 01-.715.093c-.274 0-.52-.042-.747-.102V8.952zm-16.312 4.4c.403 0 .731.328.731.731v1.846a2.7 2.7 0 01-1.462.009v-1.856c0-.402.329-.73.731-.73zm.731 4.68a2.7 2.7 0 01-1.462.009v-1.534a2.706 2.706 0 001.462-.01v1.535zm-1.462.578a2.706 2.706 0 001.462-.01v1.534a2.7 2.7 0 01-1.462.009V18.61zm17.043-7.555c.227.059.473.102.747.102.262 0 .497-.039.715-.093v8.565c-.484.211-.974.445-1.461.669v-9.243zm2.215 34.05c-.022.013-.051.014-.08-.006-7.686-4.486-14.095-8.313-20.711-13.225-.004-.069-.016-.145-.018-.212 3.926-2.855 7.812-5.371 11.633-7.531a91.518 91.518 0 016.238-3.211l.723-.336v-.011c.487-.224.977-.457 1.461-.669v.006l1.9-.762c7 3.85 13.794 8.25 20.817 13.483L24.405 45.105z"/></g></svg>