<svg xmlns="http://www.w3.org/2000/svg" id="Camada_1" x="0" y="0" version="1.1" viewBox="0 0 50 50" xml:space="preserve"><style>.st3{fill:#444}</style><path fill="#fc9d9a" d="M47.7 20.3c-.2-.8-2.7-7.5-3.2-8.1l-3-3.5-.2.1L33.7 3l-7.8-.7c-3.2 0-12.8-.7-21.3 11.5l-2.9 7.9.5 2L4 35.2c.1.4 4.7 7 5.1 7.2l5.6 3 32.2-11.7c.7-.4 1.7-8.6.8-13.4z"/><path fill="none" stroke="#444" stroke-linecap="round" stroke-linejoin="round" stroke-miterlimit="10" stroke-width="2.5" d="M43.6 38.2c2.7-3.7 4.2-8.3 4.2-13.2C47.8 12.4 37.6 2.2 25 2.2S2.3 12.4 2.3 25s10.2 22.8 22.8 22.8"/><path fill="none" stroke="#444" stroke-linecap="round" stroke-linejoin="round" stroke-miterlimit="10" d="M8.7 9.8L23 46.7M2.3 25s20.9-9.4 42.9 9.5M27.5 2.8s9.5 11.5 9.2 34.9m-20.9 7.8s3-25.5 23.8-37.8"/><circle cx="13.5" cy="22.7" r="3.2" class="st3"/><circle cx="23.7" cy="23.5" r="3.2" class="st3"/><circle cx="18.5" cy="34.6" r="3.2" class="st3"/><circle cx="36" cy="28.4" r="3.2" class="st3"/></svg>