<svg xmlns="http://www.w3.org/2000/svg" id="Camada_1" x="0" y="0" version="1.1" viewBox="0 0 49 50" xml:space="preserve"><style>.st2{stroke-width:.5}.st2,.st3{fill:none;stroke:#444;stroke-linecap:round;stroke-linejoin:round;stroke-miterlimit:10}</style><path fill="#e589ef" d="M40.6 29.4l1.5-5.2L29.2 4.4l-4-3c-3.4 0-14 19.6-16.7 22.9l1 5.2L5 34.1c-.3 1 1.3 9.9 2.3 10.3l3 1.4c1.3.6 2.7.6 4 .2l30.9-11c-.6-1.3-3.6-3.5-4.6-5.6z"/><path fill="none" stroke="#444" stroke-linecap="round" stroke-linejoin="round" stroke-miterlimit="10" stroke-width="2.5" d="M44.5 35.2c0-.7-.3-1.4-.8-1.8L41 30.9c-1.1-1-1.1-2.8.1-3.8h0c1-.8 1.2-2.3.5-3.4l-14-20.8c-1.1-1.7-3.6-1.7-4.7 0L9.2 23.2c-.6.9-.6 2.1.1 2.9l.6.8c.8 1 .6 2.5-.3 3.3l-3.4 3.1c-.5.5-.8 1.1-.8 1.8v5.5c0 1.8 1.2 3.3 2.9 3.8l16.4 4.1c.6.2 1.3.2 2 0l8.9-2.4"/><path d="M15.9 30.3l-2.5 2.3c-1.3 1.2-2 2.9-2 4.7" class="st2"/><circle cx="11.3" cy="40" r="2.4" class="st3"/><circle cx="18.4" cy="38.3" r="2.4" class="st3"/><circle cx="31.7" cy="38.3" r="2.4" class="st3"/><circle cx="25.5" cy="43.2" r="2.4" class="st3"/><path d="M34.1 30.4l2.5 2.3c1.3 1.2 2 2.9 2 4.7" class="st2"/><circle cx="38.6" cy="40.1" r="2.4" class="st3"/><path d="M25.5 32.7v8" class="st2"/><path d="M24.5 5.9L18 15.4l7.4 2.5 7.1-2.5L26 5.9c-.4-.5-1.2-.5-1.5 0zm.7 11.7V6.3" class="st3"/><path d="M20.6 17.6l-3 1.7-4.5 6.8c-.2.3 0 .6.2.7l11.6 3.6h.3l12.2-4.2c.3-.1.4-.4.2-.7L33 18.6l-2.6-1.1" class="st3"/><path d="M17.7 19.3l7.4 2.2 7.8-2.9m-7.8 11.9v-9" class="st3"/><path d="M19.1 35.8s-.1-2.5 1.6-3.9m11.2 3.9s.1-2.5-1.6-3.9" class="st2"/></svg>