<svg xmlns="http://www.w3.org/2000/svg" id="Layer_1" x="0" y="0" version="1.1" viewBox="0 0 50 50" xml:space="preserve"><style>.st2{fill:#031326}</style><path fill="#f799ff" d="M23.7 6.2c-10.3 0-18.9 7.1-21.3 16.6l34.1-12.4c-3.6-2.7-8-4.2-12.8-4.2z"/><path fill="#e589ef" d="M45.6 28.1c0-7.3-3.6-13.8-9.1-17.7l-34 12.4c-.4 1.7-.7 3.5-.7 5.3 0 6.2 2.5 11.7 6.6 15.7l37.1-13.5c.1-.7.1-1.5.1-2.2z"/><path d="M23 38.1c-6 0-10.9-4.9-10.9-10.9S17 16.4 23 16.4s10.9 4.9 10.9 10.9c0 3.6-1.7 6.9-4.7 8.9-.2.1-.4.1-.5-.1-.1-.2-.1-.4.1-.5 2.7-1.9 4.3-5 4.3-8.3 0-5.6-4.5-10.1-10.1-10.1s-10.1 4.5-10.1 10.1S17.4 37.4 23 37.4c.5 0 1.1 0 1.6-.1.2 0 .4.1.4.3 0 .2-.1.4-.3.4-.5.1-1.1.1-1.7.1z" class="st2"/><circle cx="20" cy="24.4" r="2.4" class="st2"/><path d="M27.6 33l.1-7.1c0-2.7-1.9-4.9-4.5-5.4.6.6 1.1 1.1 1.5 1.9.1.3 0 .6-.3.7-.3.1-.6 0-.7-.3-.6-1.5-2-2.4-3.7-2.4-2.2 0-4 1.8-4 4s1.8 4 4 4c.3 0 .6.3.6.6s-.3.6-.6.6c-.6 0-1.1-.1-1.7-.3.1.4.3.7.6 1.1.3.6.6 1 1.2 1.4 1 .7 2.2 1.1 3.8 1l-.9-1.1v-.1c0-.1.1-.3.2-.4.3-.2.6-.1.7.1.8 1.1 2.1 1.7 3.5 1.7h.2zM20 27.4c-1.7 0-3.1-1.4-3.1-3.1 0-1.7 1.4-3.1 3.1-3.1 1.7 0 3.1 1.4 3.1 3.1-.2 1.9-1.5 3.1-3.1 3.1zm5.3 1.5c-.5 0-.8-.4-.8-.8 0-.5.4-.8.8-.8.5 0 .8.4.8.8-.1.4-.5.8-.8.8zm4 8c-.9 0-1.7-.7-1.7-1.7V34h-.7c-.6 0-1.1-.1-1.6-.3v1.5c0 1.9 1.7 3.4 3.5 3.4 1.5 0 3.2-.9 3.4-2.6l-1.5-.2c-.1.7-.7 1.1-1.4 1.1zm.3-3.7c.2-.2.3-.6.1-.7 0-.1-.1-.1-.2-.2-.2 0-.4 0-.6.1-.1.1-.2.2-.3.2-.1.1-.3.2-.5.3V34c.6-.2 1.1-.4 1.5-.8z" class="st2"/><path d="M31.4 13c-.4-.2-.8-.1-1 .3-.2.4-.1.8.3 1 4.9 2.7 7.9 7.9 7.9 13.4 0 8.5-6.9 15.4-15.4 15.4-4.9 0-9.6-2.4-12.4-6.4l2.5.4c.4.1.8-.2.9-.6.1-.4-.2-.8-.6-.9l-4-.6c-.3-.1-.6 0-.9.2-.3.2-.4.5-.5.8l-.7 3.9c-.1.4.2.8.6.9h.1c.4 0 .7-.3.7-.6l.5-2.6c3.2 4.4 8.3 7.1 13.7 7.1 9.3 0 16.9-7.6 16.9-16.9.1-6.2-3.3-11.8-8.6-14.8z" class="st2"/><path d="M49.3 32.3c-.3-.6-1.1-.8-1.7-.5l-1.1.6c.3-1.4.4-2.8.4-4.3 0-12.8-10.4-23.2-23.2-23.2S.6 15.3.6 28.1c0 6.3 2.5 12.2 7 16.6.2.2.6.4.9.4.3 0 .7-.1.9-.4.5-.5.5-1.3 0-1.8-4-3.9-6.3-9.2-6.3-14.8 0-11.4 9.3-20.7 20.7-20.7 11.4 0 20.7 9.3 20.7 20.7 0 1.3-.1 2.5-.3 3.7l-.7-1.4c-.3-.6-1.1-.8-1.7-.5-.6.3-.8 1.1-.5 1.7l1.9 3.5c.2.4.6.7 1 .8.2 0 .3.1.5.1.3 0 .6-.1.8-.2l3.5-1.9c.4-.3.6-1 .3-1.6z" class="st2"/></svg>