<svg xmlns="http://www.w3.org/2000/svg" viewBox="0 0 50 50"><path fill="#e589ef" d="M3.1 25.9L2.7 30l44.7 16.3-.2-8.7-.4-4.9L2.3 16.5 3 20z"/><path fill="#f799ff" d="M2.8 10l.6 7.4 43.7 15.9V24l-.4-4.3-44-16z"/><path fill="none" stroke="#444" stroke-linecap="round" stroke-linejoin="round" stroke-miterlimit="10" stroke-width="2.5" d="M43.5 47.3h4.2V2.7H2.8v44.6h15.5"/><path fill="#494949" d="M35 23.6c3.7-.1 8.1 1.9 9.6 5.7 1.9 5-2.1 10.1-5.4 12.3-3.1 2-6.4 2-7.8 2-2.3 0-4.3 0-5.8-1.3-2.9-2.6-2.1-8.7.3-12.6.4-1 3.4-5.9 9.1-6.1zm-21.2 4.9c-3-.1-6.4 1.5-7.6 4.5-1.5 4 1.7 8.1 4.3 9.8 2.5 1.6 5.1 1.6 6.2 1.6 1.8 0 3.5 0 4.7-1.1 2.3-2.1 1.6-6.9-.2-10-.5-.8-2.9-4.7-7.4-4.8z"/></svg>