<svg xmlns="http://www.w3.org/2000/svg" id="Layer_1" x="0" y="0" version="1.1" viewBox="0 0 50 50" xml:space="preserve"><style>.st2{fill:#031326}</style><path fill="#00dffc" d="M36.4 7.6c-5.1-1-8.6-.8-11.2.2-2.6-1-6.2-1.2-11.2-.2-4 .8-7 3.6-8 5.9-.3.6-.7 2-.9 4.1-.3 3.3.2 3.9.2 4.4 0 .3-.4.9-1 1.6L41.6 10c-1.4-1.1-3.2-2-5.2-2.4z"/><path fill="#00c8e2" d="M45.8 29.7c-.1-.3-.2-.6-.1-.8.2-.4.9-.5 1.5-.7.7-.2 1.4-.7 1-1.4-.2-.3-.8-1.3-1.5-2.2-.8-1.1-1.7-2.1-1.7-2.6s.5-1.1.2-4.4c-.2-2.2-.7-3.5-.9-4.1-.5-1.1-1.4-2.4-2.8-3.4L4.2 23.7c-.2.3-.5.6-.7.9-.7.9-1.4 1.8-1.5 2.2-.4.8.3 1.2 1 1.4.6.2 1.4.3 1.5.7.1.2 0 .5-.1.8-.1.3-.3.5-.3.9 0 .5.4.5.4.6 0 .1-.4.2-.3.8.1.6.8.7.9 1.2.1.8-1 1.4-.7 2.8.2 1 .9 1.6 3.9 1.5 2.1 0 3.1.3 3.4 1.5v4l34.4-12.5c-.1-.4-.2-.6-.3-.8z"/><path d="M49.3 26.2c-.3-.6-1.4-2.1-1.6-2.4l-.3-.4c-.4-.5-.9-1.2-1.1-1.5.1-.6.4-1.7.2-4.4-.2-2.4-.7-3.9-1-4.5-1.1-2.6-4.4-5.7-8.9-6.6-5.1-1-8.7-.8-11.5.1-2.7-.9-6.4-1.1-11.5-.1-4.6.9-7.9 4-9 6.6-.3.7-.8 2.1-1 4.5-.3 2.7 0 3.8.2 4.4-.2.4-.8 1.1-1.1 1.6l-.3.4c-.2.3-1.3 1.8-1.6 2.4-.3.6-.3 1.2-.1 1.8.3.7 1 1.2 1.9 1.4l.3.1H3c-.1.3-.2.6-.2 1.1 0 .2.1.4.1.6-.1.3-.1.5-.1.9.1.6.4 1 .7 1.3-.3.5-.8 1.5-.5 2.8.5 2.1 2.4 2.5 5.1 2.5 1.7 0 2 .2 2.1.4V43c0 .7.6 1.2 1.2 1.2s1.2-.6 1.2-1.2v-4.2c-.5-2.6-3.3-2.5-4.6-2.5-2.5 0-2.6-.4-2.7-.6-.1-.4 0-.6.2-1 .5-.4.8-1 .7-1.7 0-.6-.4-1-.7-1.2.1-.2.1-.4.1-.6 0-.2-.1-.6-.3-.9 0-.1.1-.1.1-.2.1-.3.4-1 .1-1.7-.4-1-1.4-1.2-2.1-1.4h-.2c.2-.3.6-.9 1.2-1.6l.2-.4c1.1-1.4 1.7-2.2 1.7-3 0-.3-.1-.5-.1-.7-.1-.5-.3-1.3-.1-3.6.2-2.1.6-3.3.8-3.8.9-2 3.6-4.5 7.1-5.1 3-.6 5.4-.7 7.4-.5-1.1.8-2 1.7-2.8 2.6-.5.5-.9 1.1-1.2 1.8-.3.6-.1 1.4.5 1.7.6.3 1.4.1 1.7-.5.3-.5.6-1 .9-1.3 1.1-1.3 2.4-2.6 4.5-3.4 2.1.8 3.4 2.1 4.5 3.4.4.5.7 1 1 1.6.3.6 1 .9 1.7.6.6-.3.9-1 .6-1.7-.4-.8-.8-1.6-1.4-2.2-.8-.9-1.7-1.8-2.8-2.6 2-.2 4.4 0 7.4.5 3.5.7 6.2 3.1 7.1 5.1.2.4.6 1.6.8 3.8.2 2.3 0 3.1-.1 3.6-.1.2-.1.4-.1.7 0 .8.6 1.6 1.7 3l.3.4c.5.7.9 1.3 1.2 1.6l-.3.1c-.7.2-1.7.4-2.1 1.4-.3.7 0 1.4.1 1.7 0 .1.1.1.1.2-.3.3-.3.6-.3.9 0 .2 0 .4.1.6-.3.2-.6.6-.7 1.2-.1.7.2 1.2.5 1.6.2.4.3.6.2 1 0 .2-.2.6-2.7.6-1.3 0-4.1-.1-4.6 2.5v4.3c0 .7.6 1.2 1.2 1.2s1.2-.6 1.2-1.2v-3.9c.1-.2.4-.4 2.1-.4 2.7 0 4.6-.4 5.1-2.5.3-1.4-.2-2.3-.5-2.8.3-.3.6-.7.7-1.3 0-.3 0-.6-.1-.9.1-.2.1-.4.1-.6 0-.5-.1-.9-.2-1.1h.1l.3-.1c.9-.3 1.6-.7 1.9-1.4.5-.7.5-1.3.2-1.9z" class="st2"/><path d="M37.3 27.9l-5.8-4c-.4-.3-.8-.3-1.2-.1-.4.2-.6.6-.6 1.1V26h-1v-3.4c0-.4-.3-.6-.6-.6h-8.3v-1.7c0-.5-.4-.7-.8-.4l-5.8 4c-.4.3-.4.8 0 1.1l5.8 4c.4.3.8.1.8-.4v-1.7h1.1c-.1.1-.1.3-.1.4v3.6c0 .7.6 1.3 1.3 1.3h7.7v1.1c0 .5.2.9.6 1.1.1.1.3.1.5.1s.5-.1.7-.3l5.8-4c.4-.3.6-.6.6-1.1s-.3-1-.7-1.2zM31 32.8v-2.1h-8.9v-3.6H31V25l5.6 3.9-5.6 3.9z" class="st2"/></svg>