<svg xmlns="http://www.w3.org/2000/svg" version="1" viewBox="0 0 50 50"><path fill="#DC5E82" d="M9.758 14.566h2.833v17.005c0 .88.72 1.6 1.6 1.6h9.459v2.261h-2.662c-1.427 0-2.14 1.725-1.132 2.733l5.232 5.225 16.74-6.093c.148-.906-.517-1.865-1.581-1.865h-2.836V18.427a1.6 1.6 0 00-1.6-1.6h-9.457l.001-.004v-2.257h2.656c1.432 0 2.145-1.729 1.136-2.737l-9.635-9.611a1.593 1.593 0 00-2.256 0l-9.635 9.611c-1.009 1.008-.296 2.737 1.137 2.737z"/><path fill="#F56991" d="M24.382 6.283l-4.075-4.065a1.595 1.595 0 00-2.257 0l-9.635 9.611a1.612 1.612 0 00-.266.362l16.233-5.908z"/><path fill="#031326" d="M42.881 35.942a2.843 2.843 0 00-2.634-1.761h-1.586V18.427a2.854 2.854 0 00-2.851-2.851h-5.649c.661-.29 1.2-.826 1.488-1.522a2.844 2.844 0 00-.619-3.11l-9.634-9.611a2.849 2.849 0 00-4.022 0l-9.636 9.612a2.844 2.844 0 00-.618 3.109 2.847 2.847 0 002.638 1.762h1.583v15.755a2.854 2.854 0 002.851 2.851h5.648a2.839 2.839 0 00-1.485 1.521 2.843 2.843 0 00.62 3.107l9.63 9.616c.555.556 1.284.833 2.014.833s1.46-.277 2.016-.833l1.507-1.506a1.25 1.25 0 00-1.768-1.768l-1.506 1.505a.35.35 0 01-.496 0l-9.63-9.617c-.137-.137-.117-.283-.076-.382s.13-.217.324-.217h3.91l-.024-17.728c0-.377.21-.692.508-.878H35.81c.193 0 .351.157.351.351v18.255h4.086c.193 0 .283.118.324.217s.062.245-.076.382a1.253 1.253 0 00-.001 1.769c.488.487 1.28.488 1.769.001a2.844 2.844 0 00.618-3.108zM23.876 18.954v12.968H14.19a.355.355 0 01-.351-.351V13.316H9.757a.333.333 0 01-.328-.218.33.33 0 01.075-.384l9.636-9.612a.347.347 0 01.49 0l9.634 9.611c.138.137.117.285.076.384s-.132.218-.328.218h-3.907l-.002 3.763a2.055 2.055 0 00-1.227 1.876z"/></svg>