<svg xmlns="http://www.w3.org/2000/svg" id="Camada_1" x="0" y="0" version="1.1" viewBox="0 0 50 50" xml:space="preserve"><style>.st2{fill:#494949}</style><path fill="#fcc34f" d="M42.2 7.2h-.1zm6.2 13.5v2l-1.8.6-14.4 5.2-3.7 1.5-20.6 7.5-1.8.7-1.8.7-1.8.7V25.5c-.6-1.1-.9-2.3-.9-3.6l1.8-.7 25.8-9.3 5-1.8h13.4l.1.9.4 6.2.3 3.5z"/><path fill="#fdcf72" d="M19.6 9.2h-1.8V8c0-.3 0-.6.1-.8h2c-.2.2-.3.5-.3.8v1.2zM29.5 8c0-.3-.1-.7-.3-.9h2c.1.3.1.6.1.9v1.3h-1.8V8zm18.9 2.4l-.2-.3H1.6v11.8c0 1.3.3 2.5.9 3.6v1.6l2.7-1L45 11.9l2.6-.9.9-.3v-.3z"/><path d="M1.6 10.1v11.8c0 1.3.3 2.5.9 3.6v19.8h45.1V25.5c.5-.8.8-1.8.9-2.8V10.1H1.6zm44.1 33.4H4.3V27.7c1.6 1.4 3.9 2.2 6.3 2.2h1.8v2.7h6.3V30h11.7v2.7h6.3V30h2.7c2.4 0 4.7-.8 6.3-2.2v15.7zm.9-20l-.8 1.4c0 .1-.1.1-.1.2-1.2 1.9-3.6 3.1-6.3 3.1h-4.5v2.7h-2.7v-2.7H16.9v2.7h-2.7v-2.7h-3.6c-2.1 0-4.1-.7-5.4-2-.4-.3-.7-.7-.9-1.1 0-.1-.1-.1-.1-.2l-.8-1.4V11.9h43.3v11.6zM31.3 8v1.3h-1.8V8c0-.3-.1-.7-.3-.9-.3-.3-.7-.5-1.1-.5h-7c-.5 0-.9.2-1.2.6-.2.2-.3.5-.3.8v1.3h-1.8V8c0-.3 0-.6.1-.8.4-1.4 1.6-2.4 3.1-2.4h7c1.5 0 2.7 1 3.1 2.3.2.3.2.6.2.9z" class="st2"/><path d="M7.9 32.7H6.1v9H16v-1.8H7.9zm34.2 7.2H34v1.8h9.9v-9h-1.8z" class="st2"/></svg>