<svg xmlns="http://www.w3.org/2000/svg" id="Layer_1" x="0" y="0" version="1.1" viewBox="0 0 50 50" xml:space="preserve"><style>.st3{fill:#031326}</style><path fill="#f799ff" d="M24.1 3.7c-10.8 0-19.5 8.7-19.5 19.5 0 1.3.1 2.6.4 3.9l36.2-13.2C38 7.9 31.5 3.7 24.1 3.7z"/><path fill="#e589ef" d="M43.6 23.2c0-3.4-.9-6.5-2.4-9.3L5.1 27.1c.7 3.5 2.4 6.7 4.8 9.3l33.7-12.3v-.9z"/><path d="M45.3 37.5c-.5-.5-1.4-.5-2 0-.5.5-.5 1.4 0 2l1 1H33.9c6.3-3.4 10.5-10.1 10.5-17.7 0-11.2-9.1-20.2-20.2-20.2-6.6 0-12.8 3.2-16.6 8.6-2.3 3.2-3.5 7-3.6 11.1l-1-1c-.5-.5-1.4-.5-2 0-.5.5-.5 1.4 0 2l4.1 4.1 4.3-4.3c.3-.3.4-.6.4-1s-.1-.7-.4-1c-.5-.5-1.4-.5-2 0l-.9.9c.1-3.4 1.2-6.7 3.2-9.5C13 7.8 18.5 5 24.2 5 34 5 42 12.9 42 22.7s-8 17.7-17.7 17.7H2.7c-.7 0-1.2.6-1.2 1.2S2 43 2.7 43h41.4l-1 1c-.5.5-.5 1.4 0 2 .3.3.6.4 1 .4s.7-.1 1-.4l4.3-4.3-4.1-4.2z" class="st3"/><path d="M24.1 36.4c-7.5 0-13.7-6.1-13.7-13.7C10.4 15.2 16.6 9 24.1 9c7.5 0 13.7 6.1 13.7 13.7s-6.1 13.7-13.7 13.7zm0-27.1c-7.4 0-13.4 6-13.4 13.4s6 13.4 13.4 13.4 13.4-6 13.4-13.4c.1-7.4-6-13.4-13.4-13.4z" class="st3"/><path fill="#031326" d="M19.6 17.1l1.3-1.3c.3-.3.3-.8 0-1.1s-.8-.3-1.1 0L18.5 16l-1.3-1.3c-.3-.3-.8-.3-1.1 0s-.3.8 0 1.1l1.3 1.3-1.3 1.3c-.3.3-.3.8 0 1.1.1.1.3.2.5.2s.4-.1.5-.2l1.3-1.3 1.3 1.3c.1.1.3.2.5.2s.4-.1.5-.2c.3-.3.3-.8 0-1.1l-1.1-1.3zM31 28.2l1.3-1.3c.3-.3.3-.8 0-1.1s-.8-.3-1.1 0l-1.3 1.3-1.3-1.3c-.3-.3-.8-.3-1.1 0s-.3.8 0 1.1l1.3 1.3-1.3 1.3c-.3.3-.3.8 0 1.1.1.1.3.2.5.2s.4-.1.5-.2l1.3-1.3 1.3 1.3c.1.1.3.2.5.2s.4-.1.5-.2c.3-.3.3-.8 0-1.1L31 28.2zm1.2-11.5l-2.4-2.4-2.3 2.3c-.3.3-.3.8 0 1.1.3.3.8.3 1.1 0l.4-.4c.1.9-.1 1.6-.6 2.2-.9 1.1-2.8 1.7-5.6 1.9-2.3.2-3.8.9-4.6 2.1-.5.8-.6 1.6-.5 2.2-1.1.4-1.8 1.4-1.8 2.5 0 1.5 1.2 2.7 2.7 2.7 1.5 0 2.7-1.2 2.7-2.7 0-1.3-.9-2.3-2.1-2.6 0-.3 0-.9.3-1.3.5-.8 1.7-1.3 3.5-1.4 3.2-.2 5.5-1.1 6.7-2.5.7-.8 1-1.9 1-3.1l.5.5c.3.3.8.3 1.1 0 .1-.2.2-.3.2-.5s-.1-.4-.3-.6zM19.8 28.2c0 .7-.5 1.2-1.2 1.2s-1.2-.5-1.2-1.2.5-1.2 1.2-1.2c.6 0 1.2.6 1.2 1.2z"/></svg>