<svg xmlns="http://www.w3.org/2000/svg" id="Layer_1" x="0" y="0" version="1.1" viewBox="0 0 50 50" xml:space="preserve"><style>.st3,.st4{fill:#031326}</style><path fill="#00dffc" d="M24.1 3.7c-10.8 0-19.5 8.7-19.5 19.5 0 1.3.1 2.6.4 3.9l36.2-13.2C38 7.9 31.5 3.7 24.1 3.7z"/><path fill="#00c8e2" d="M43.6 23.2c0-3.4-.9-6.5-2.4-9.3L5.1 27.1c.7 3.5 2.4 6.7 4.8 9.3l33.7-12.3v-.9z"/><path d="M24.2 19.8c1 0 1.8-.8 1.8-1.8s-.8-1.8-1.8-1.8-1.8.8-1.8 1.8.9 1.8 1.8 1.8zm-6.6 1.4c1.1 0 1.9-.9 1.9-1.9s-.9-1.9-1.9-1.9-1.9.9-1.9 1.9.8 1.9 1.9 1.9zm0-2.9c.5 0 .9.4.9.9s-.4.9-.9.9-.9-.4-.9-.9.4-.9.9-.9zm13.5 2.9c1.1 0 1.9-.9 1.9-1.9s-.9-1.9-1.9-1.9c-1.1 0-1.9.9-1.9 1.9s.8 1.9 1.9 1.9zm0-2.9c.5 0 .9.4.9.9s-.4.9-.9.9-.9-.4-.9-.9.3-.9.9-.9z" class="st3"/><path d="M32.2 21.2l-.2-.1-.2.1c-.5.3-1 .3-1.4 0l-.2-.1-.2.1c-.7.2-1.3.6-1.7 1.1-.6-1-1.5-1.7-2.6-2.1l-.2-.1-.2.1c-.6.4-1.3.4-1.9 0l-.2-.1-.2.1c-1.1.3-2 1.1-2.5 2-.4-.5-1-.8-1.6-1l-.2-.1-.2.1c-.4.3-1 .3-1.4 0l-.2-.1-.2.1c-1.6.5-2.7 2-2.7 3.7 0 .6.1 1.1.4 1.7l.1.3h20.1l.1-.3c.3-.5.4-1.1.4-1.7-.2-1.7-1.3-3.2-2.9-3.7zm-17.5 3.7c0-1.2.7-2.2 1.8-2.7.6.3 1.4.3 2.1 0 .5.2 1 .6 1.3 1-.1.4-.2.9-.2 1.3s.1.9.2 1.3h-5c-.1-.3-.2-.6-.2-.9zm19 1h-5.1c.1-.4.2-.8.2-1.3 0-.4-.1-.8-.2-1.2.3-.5.8-.9 1.4-1.2.6.3 1.4.3 2.1 0 1.1.4 1.8 1.5 1.8 2.7 0 .3-.1.6-.2 1z" class="st3"/><path d="M45.3 37.5c-.5-.5-1.4-.5-2 0-.5.5-.5 1.4 0 2l1 1H33.9c6.3-3.4 10.5-10.1 10.5-17.7 0-11.2-9.1-20.2-20.2-20.2-6.6 0-12.8 3.2-16.6 8.6-2.3 3.2-3.5 7-3.6 11.1l-1-1c-.5-.5-1.4-.5-2 0-.5.5-.5 1.4 0 2l4.1 4.1 4.3-4.3c.3-.3.4-.6.4-1s-.1-.7-.4-1c-.5-.5-1.4-.5-2 0l-.9.9c.1-3.4 1.2-6.7 3.2-9.5C13 7.8 18.5 5 24.2 5 34 5 42 12.9 42 22.7s-8 17.7-17.7 17.7H2.7c-.7 0-1.2.6-1.2 1.2S2 43 2.7 43h41.4l-1 1c-.5.5-.5 1.4 0 2 .3.3.6.4 1 .4s.7-.1 1-.4l4.3-4.3-4.1-4.2z" class="st4"/><path d="M24.1 36.4c-7.5 0-13.7-6.1-13.7-13.7C10.4 15.2 16.6 9 24.1 9c7.5 0 13.7 6.1 13.7 13.7s-6.1 13.7-13.7 13.7zm0-27.1c-7.4 0-13.4 6-13.4 13.4s6 13.4 13.4 13.4 13.4-6 13.4-13.4c.1-7.4-6-13.4-13.4-13.4z" class="st4"/><path fill="#f799ff" d="M66.1-54.3c-10.8 0-19.5 8.7-19.5 19.5 0 1.3.1 2.6.4 3.9l36.2-13.2c-3.2-6-9.7-10.2-17.1-10.2z"/><path fill="#e589ef" d="M85.6-34.8c0-3.4-.9-6.5-2.4-9.3L47.1-30.9c.7 3.5 2.4 6.7 4.8 9.3l33.7-12.3v-.9z"/><path d="M86.1-11.7c-.4 0-.7-.1-1-.4-.5-.5-.5-1.4 0-2l2.3-2.3-2.1-2.1c-.5-.5-.5-1.4 0-2 .5-.5 1.4-.5 2 0l4.1 4.1-4.3 4.3c-.3.3-.6.4-1 .4z" class="st4"/><path d="M74.5-40.7c0 .2-.1.4-.2.5-.3.3-.8.3-1.1 0l-1.3-1.3-1.2 1.2c-.3.3-.8.3-1.1 0-.3-.3-.3-.8 0-1.1l2.3-2.3 2.4 2.4c.1.2.2.4.2.6z" class="st3"/><path d="M51.8-35.9c0 .4-.1.7-.4 1l-4.3 4.3-4.1-4.1c-.5-.5-.5-1.4 0-2 .5-.5 1.4-.5 2 0l2.1 2.1 2.3-2.3c.5-.5 1.4-.5 2 0 .3.3.4.6.4 1z" class="st4"/><circle cx="60.6" cy="-29.8" r="1.9" fill="none" stroke="#031326" stroke-miterlimit="10" stroke-width="1.5"/><path fill="none" stroke="#031326" stroke-linecap="round" stroke-miterlimit="10" stroke-width="2.5" d="M47.2-35.3c0-4.1 1.3-7.8 3.5-10.9 3.4-4.9 9.1-8.1 15.5-8.1 10.5 0 19 8.5 19 19s-8.5 19-19 19m-21.5 0h43.2"/><circle cx="66.1" cy="-35.3" r="13.6" fill="none" stroke="#031326" stroke-miterlimit="10" stroke-width=".25"/><path fill="none" stroke="#031326" stroke-linecap="round" stroke-miterlimit="10" stroke-width="1.5" d="M62.4-42.7l-3.6 3.6m0-3.6l3.6 3.6m11.3 7.5L70.1-28m0-3.6l3.6 3.6m-13.1-3.7s-1.3-3.7 4.4-4.2c5.7-.4 7.2-2.6 6.9-5"/></svg>