<svg xmlns="http://www.w3.org/2000/svg" viewBox="0 0 50 50"><path fill="#c3ff68" d="M7 9.6c-.1.1-.3.2-.4.2-.2.1-.5.3-.8.5-.4.3-.8.6-1.3 1s-1 1-1.4 1.6c-.4.7-.8 1.4-1.1 2.4-.1.4-.2.9-.2 1.4V20L32 9c-7.1-3.5-18.1-3.4-25 .6z"/><path fill="#afe55d" d="M13.8 20c-.5-.3-.9-.6-1.2-.9.3-.3.8-.7 1.2-.9 3.2-1.8 8.8-1.6 11.9.2l4.7 2.8 13.9-5.1-1.9-1.1-9.8-5.7c-.2-.2-.4-.3-.6-.4L1.4 20v1.7c.2 2.5 1.9 5.1 5.3 7l.9.6 13.9-5-7.7-4.3zm-1.2-.9z"/><path fill="#031326" d="M42.3 14.1l-9.4-5.4C25.7 4.5 14 4.5 6.8 8.7c-.2.1-.3.1-.4.2-.2.1-.5.3-.9.6s-.9.6-1.4 1.1c-.6.6-1.2 1.2-1.6 1.8-.6.9-1 1.8-1.2 2.7-.1.5-.2 1.1-.2 1.7v5c.2 3 2.2 5.8 5.7 7.8l13.9 8 8.2-4.7v-6l-13.6-7.8c2.6-1.3 7.2-1.1 9.9.4l13.5 7.8 8.2-4.7v-6l-4.6-2.5zM16.4 32.3l-8.3-4.8c-2.8-1.6-4.4-3.6-4.5-5.8v-.1c.6.7 1.3 1.4 2.2 2.1.7.5 1.4.9 2.1 1.3.2.1.5.3.7.4l7.9 4.6-.1 2.3zm9.8-3c.1 0 .1-.1.2-.1v2.4l-5.1 2.9v-2.4l3.1-1.8c.6-.3 1.2-.7 1.8-1zM22 26l-5 2.9-7.9-4.5c-.2-.1-.5-.3-.7-.4-.7-.4-1.3-.8-2-1.2-.9-.7-1.6-1.3-2.2-2l-.7-1V17c0-.4.1-.8.1-1.1.2-.6.5-1.3.9-1.9.3-.5.7-.9 1.2-1.4.5-.5.9-.8 1.2-1s.6-.4.8-.5l.3-.3s.1 0 .1-.1l5.1 3c-.4.2-.7.4-1 .7-.5.4-.8.9-1.1 1.5l-.3.9c-.1.8.1 1.6.4 2.2v.1l-.1.1.8.8c.1.1.2.2.2.3l.3.3c.3.3.6.5 1 .7L22 26zm4.4-8.6c-3.2-1.8-8.1-2.1-11.5-.7v-2.6l.6-.3c.8-.3 1.6-.5 2.6-.6.9-.1 1.9-.1 2.9 0s2 .3 2.9.6h.1c.2.1.4.1.6.2l.8.4c.1 0 .1.1.2.1l8.8 5.1v2.3l-8-4.5zm8.5 1.2l-8.8-5c-.1-.1-.2-.1-.3-.1l-.8-.4c-.2-.1-.5-.2-.7-.3h-.1c-1-.3-2.1-.5-3.2-.6-.5 0-.9-.1-1.4-.1-.6 0-1.2 0-1.8.1-1.1.1-2 .4-2.9.7-.3.1-.5.2-.7.3l-.8-.5-4.3-2.5C12.2 8.7 15.9 8 19.7 8c4.3 0 8.5.9 11.8 2.8l8.3 4.8-4.9 3zm9.4 2.6l-5.1 2.9v-2.4l3.1-1.8c.6-.3 1.1-.7 1.7-1 .1 0 .1-.1.2-.1l.1 2.4zm3.1 6.5s-2.6 1.5-2.7 1.5c0 0-2.1-2.9-2.2-3l1.5 5.5 2.7-1.5 2.2 2.7c0-.1-1.5-5.2-1.5-5.2zM26.8 39.6s-2.1-2.9-2.2-3l1.5 5.5 2.7-1.5 2.2 2.7c0-.1-1.5-5.1-1.5-5.1s-2.6 1.3-2.7 1.4z"/></svg>