<svg xmlns="http://www.w3.org/2000/svg" id="Layer_1" x="0" y="0" version="1.1" viewBox="0 0 50 50" xml:space="preserve"><style>.st2{fill:#031326}</style><path fill="#75b6ae" d="M37.1 20.1c.4-1.3.7-2.6.7-4 0-1.8-.4-3.5-1.1-5.1l-23.4 8.5c.1.2.1.4.2.6C7 20.7 2 26 2 32.6c0 4.6 2.5 8.6 6.1 10.7l39.8-14.5c-1.5-4.7-5.7-8.2-10.8-8.7z"/><path fill="#81cbc2" d="M25.3 4.6c-6.9 0-12.5 5.6-12.5 12.5 0 1.2.2 2.3.5 3.4L36.7 12c-2-4.4-6.4-7.4-11.4-7.4z"/><path d="M47.3 30.2c-1.3-5.1-5.7-8.7-10.8-9 .6-1.4 1-3 1-4.7 0-6.6-5.4-12-12-12s-12 5.4-12 12c0 1.7.3 3.3 1 4.7-6.2.4-11.2 5.6-11.2 12 0 6.6 5.4 12 12 12 4.3 0 8.1-2.3 10.2-5.7 2.1 3.4 5.9 5.7 10.2 5.7.1 0 .1-.1.1-.1l-.1-.1c-4.3 0-8-2.3-10.1-5.7 1-1.8 1.7-3.8 1.7-6.1 0-1.7-.3-3.3-1-4.7 4.5-.3 8.3-3.1 10.1-7 5.1.3 9.4 3.9 10.7 8.8 0 .1 0 .2.1.3 0 .1.1.1.1.1.1 0 .1-.1.1-.1-.1-.2-.1-.3-.1-.4zM13.6 16.5c0-6.5 5.3-11.8 11.8-11.8S37.2 10 37.2 16.5c0 1.7-.4 3.2-1 4.7h-.6c-4.3 0-8.1 2.3-10.2 5.7-2.1-3.4-5.9-5.7-10.2-5.7h-.6c-.6-1.5-1-3.1-1-4.7zm11.1 11.7c-4.4-.3-8.2-3-9.9-6.8h.5c4.3 0 8 2.3 10.1 5.7-.4.4-.5.7-.7 1.1zm.7-.9c.2.3.3.6.5.9h-1c.2-.3.3-.6.5-.9zM15.2 44.9c-6.5 0-11.8-5.3-11.8-11.8 0-6.2 4.9-11.4 11-11.7 1.8 3.9 5.6 6.7 10.1 7-.6 1.4-1 3-1 4.7 0 2.2.6 4.3 1.7 6.1-2 3.4-5.7 5.7-10 5.7zM27 33.2c0 2.1-.6 4.1-1.6 5.8-1-1.7-1.6-3.7-1.6-5.8 0-1.7.4-3.2 1-4.7H26c.6 1.4 1 3 1 4.7zm-.9-5c-.2-.4-.4-.8-.6-1.1 2.1-3.4 5.8-5.7 10.1-5.7h.5c-1.8 3.8-5.6 6.5-10 6.8z" class="st2"/><path d="M36 47c-4.2 0-8.1-1.9-10.7-5.2C22.7 45 18.7 47 14.5 47 6.9 47 .8 40.8.8 33.2c0-6.6 4.8-12.2 11.1-13.5-.2-1-.3-2-.3-3C11.5 9.2 17.7 3 25.3 3 32.8 3 39 9.2 39 16.8c0 1-.1 2-.3 3 5 1 9.1 4.7 10.5 9.6.2.7-.2 1.4-.8 1.6-.7.2-1.4-.2-1.6-.8-1.3-4.4-5.2-7.6-9.8-8l-1.6-.1.5-1.5c.4-1.2.6-2.4.6-3.6 0-6.2-5-11.3-11.3-11.3S14 10.6 14 16.8c0 1.2.2 2.4.6 3.6l.5 1.5-1.6.1c-5.7.5-10.2 5.5-10.2 11.2 0 6.2 5 11.3 11.3 11.3 4 0 7.6-2.1 9.7-5.5l1.1-1.8 1.1 1.8c2.1 3.5 5.7 5.5 9.7 5.5h.7c.7 0 1.3.5 1.3 1.2S37.7 47 37 47h-1z" class="st2"/><path d="M25.5 25.3c-4.8 0-8.7-3.9-8.7-8.7 0-4.8 3.9-8.7 8.7-8.7 4.8 0 8.7 3.9 8.7 8.7 0 4.8-3.9 8.7-8.7 8.7zm0-15.9c-4 0-7.2 3.2-7.2 7.2s3.2 7.2 7.2 7.2 7.2-3.2 7.2-7.2-3.2-7.2-7.2-7.2z" class="st2"/><path d="M23.9 16.6c-.3 0-.6-.2-.7-.5-.1-.3-.2-.3-.4-.3-.3 0-.4.3-.4.3-.1.4-.5.6-.9.5-.2 0-.3-.2-.4-.3-.1-.2-.1-.4-.1-.5.2-.7.8-1.4 1.8-1.4.9 0 1.5.5 1.8 1.4.1.4-.1.8-.5.9l-.2-.1zm1.6 5.2c-1.3 0-2.3-1.7-2.3-4v-.2l.2-.2c.1-.1.2-.2.4-.2h3.7l.2.2c.1.1.2.3.2.5-.1 2.2-1.1 3.9-2.4 3.9zm-1.3-3.6c.1 1.5.7 2.6 1.3 2.6.6 0 1.2-1.1 1.3-2.6h-2.6zm0-.4zm5-1.2c-.3 0-.6-.2-.7-.5-.1-.3-.2-.3-.4-.3-.3 0-.4.3-.4.3 0 .2-.2.3-.3.4-.2.1-.4.1-.5.1-.2 0-.3-.2-.4-.3-.1-.2-.1-.4-.1-.5.2-.7.8-1.4 1.8-1.4.9 0 1.5.5 1.8 1.4.1.4-.1.8-.5.9l-.3-.1zm-1.9-.6zm-.5-.2zm9.6 26.5c-4.7 0-8.6-3.9-8.6-8.6 0-4.7 3.9-8.6 8.6-8.6 4.7 0 8.6 3.9 8.6 8.6-.1 4.8-3.9 8.6-8.6 8.6zm0-15.6c-3.9 0-7.1 3.2-7.1 7.1 0 3.9 3.2 7.1 7.1 7.1 3.9 0 7.1-3.2 7.1-7.1-.1-4-3.2-7.1-7.1-7.1zm-22 15.4c-4.8 0-8.6-3.9-8.6-8.6s3.9-8.6 8.6-8.6 8.6 3.9 8.6 8.6-3.8 8.6-8.6 8.6zm0-15.8c-3.9 0-7.1 3.2-7.1 7.1s3.2 7.1 7.1 7.1 7.1-3.2 7.1-7.1-3.1-7.1-7.1-7.1z" class="st2"/><path d="M10 34c-.3 0-.5-.2-.6-.4-.1-.3 0-.6.2-.7-.2-.1-.3-.4-.3-.6.1-.3.4-.5.7-.4l1.7.4c.3.1.4.3.5.5 0 .3-.2.5-.4.6L10 34zm6.2 4.6h-3.7l-.2-.2c-.1-.1-.2-.3-.2-.4 0-2.3 1-4 2.3-4 1.3 0 2.3 1.7 2.3 4v.2l-.2.2c-.1.2-.2.2-.3.2zm-3.1-1h2.6c-.1-1.5-.7-2.6-1.3-2.6-.5.1-1.2 1.1-1.3 2.6zm5.7-3.6h-.2l-1.7-.6c-.2-.1-.4-.3-.4-.6s.2-.5.5-.5l1.7-.4c.3-.1.6.1.7.4.1.3-.1.5-.3.6.2.1.3.4.2.7 0 .2-.2.4-.5.4zM38 37.5h-3.3c-.4 0-.7-.3-.7-.7s.3-.7.7-.7H38c.4 0 .7.3.7.7s-.3.7-.7.7z" class="st2"/><circle cx="33.3" cy="33.6" r="1.2" class="st2"/><circle cx="39.3" cy="33.6" r="1.2" class="st2"/></svg>