<svg xmlns="http://www.w3.org/2000/svg" id="Layer_1" x="0" y="0" version="1.1" viewBox="0 0 50 50" xml:space="preserve"><style>.st2{fill:#031326}</style><path fill="#75b6ae" d="M42.2 29.8c.1-.3.4-.5.7-.6 1.3-.5 2.5-.9 3.9-1.3.3-.1.5-.4.5-.7 0-1.4 0-2.8.1-4.4 0-.5-.2-.7-.6-.8-1.2-.5-2.5-.9-3.8-1.4-.3-.1-.6-.4-.7-.7-.5-1.2-.9-2.4-1.4-3.7-.1-.2-.1-.6 0-.8.6-1.3 1.3-2.6 1.9-4.1.1-.2.1-.6-.1-.7-.7-.7-1.4-1.5-2-2.2L2.2 22.3c.1 1.2.1 2.3-.1 3.5-.1.7 0 1 .5 1.1 1.4.5 2.7 1 4.2 1.5.3.1.6.4.7.7.5 1.3.9 2.4 1.5 3.6.2.5.2.8 0 1.2-.6 1.2-1.2 2.4-1.8 3.5-.2.4-.2.6.1 1l1.8 1.8.9.9c.1.1.2.2.3.2l31.8-11.6c.1.2.1.2.1.1z"/><path fill="#81cbc2" d="M39.9 8.1c-.3-.3-.5-.3-.8-.2l-3.9 1.8c-.2.1-.6.1-.9 0l-3.6-1.5c-.3-.1-.6-.4-.7-.7-.5-1.3-.9-2.5-1.3-3.8-.2-.5-.4-.6-1.3-.5-1.1.2-2.3.1-3.4-.1-.8-.1-1 0-1.2.5-.5 1.2-1 2.5-1.4 3.7-.2.6-.5.7-1.1.9-1 .2-1.9.6-2.8 1.1-.6.3-.9.4-1.4.1-1.2-.6-2.5-1.2-3.7-1.9-.6-.3-.8-.2-1.2.4-.8 1-1.6 1.8-2.6 2.5-.6.4-.6.7-.3 1.1.6 1.3 1.2 2.5 1.7 3.8.1.3.1.7 0 .9-.5 1.2-1.1 2.4-1.7 3.5-.1.3-.4.6-.7.7-1.3.5-2.7.9-4 1.3-.5.1-.7.4-.6 1v.1L40.9 9.1c-.4-.3-.7-.6-1-1z"/><path d="M27.3 48.6c-.3 0-.7-.1-.9-.1-.8-.2-1.8-.2-2.8 0-.5.1-2 .3-2.6-1.4-.5-1.6-.9-2.9-1.3-4.1-.5-.2-1-.4-1.5-.7-.7-.3-1.4-.6-2-1-.7.3-1.4.6-2 .9l-.8.4-.9.3c-.9.3-1.9 0-2.6-.7l-.9-.9-1.8-1.8c-.5-.5-1-1.3-.4-2.4.3-.6.6-1.1.8-1.7.3-.6.6-1.2.9-1.9v-.1c-.3-.7-.6-1.3-.9-2-.1-.4-.4-.9-.6-1.4l-.1-.1c-1.4-.6-2.8-1-3.9-1.4-1.6-.6-1.4-2-1.3-2.5.2-1.1.2-2.1 0-3.2-.2-1.6.7-2.2 1.5-2.4 1.5-.5 2.7-.9 4-1.3V19c.6-1.1 1.2-2.3 1.7-3.5-.6-1.3-1.1-2.6-1.7-3.7C6.8 10.6 7 9.7 8 9c.9-.7 1.7-1.4 2.4-2.3.3-.4 1.2-1.5 2.7-.7l1.8.9c.6.3 1.3.6 1.9 1 0 0 .1 0 .2-.1.9-.5 2-.9 3.1-1.2.1 0 .2-.1.3-.1.2-.7.5-1.3.7-1.9s.5-1.2.7-1.8c.4-1.1 1.3-1.6 2.6-1.3 1.1.2 2 .2 3 .1.6-.1 2.1-.4 2.7 1.4.5 1.5.9 2.6 1.3 3.6 1.2.6 2.4 1.1 3.6 1.5 1.1-.5 2.3-1.1 3.8-1.7.8-.4 1.6-.2 2.2.5.4.5.9.9 1.3 1.4.6.6 1.2 1.2 1.7 1.9.5.6.6 1.5.3 2.1-.3.7-.7 1.4-1 2.1l-.9 1.8c.5 1.4.9 2.5 1.3 3.5l.1.1c1.2.5 2.5 1 3.6 1.4 1.2.4 1.4 1.3 1.4 2-.1 1.3-.1 2.7-.1 4.2 0 .9-.6 1.7-1.4 1.9-1 .3-2.4.8-3.7 1.3-.3.6-1 .9-1.6.6s-.9-1-.6-1.7c.2-.6.8-1.1 1.4-1.3 1.3-.5 2.5-.9 3.5-1.2 0-1.3 0-2.5.1-3.7-1.1-.4-2.3-.9-3.5-1.4-.7-.3-1.1-.9-1.3-1.4-.4-1.1-.9-2.2-1.4-3.7-.2-.4-.2-1.1.1-1.7.3-.7.6-1.3 1-1.9.3-.6.6-1.1.8-1.7-.5-.5-.9-1-1.4-1.5-.3-.4-.7-.7-1-1.1-1.3.6-2.5 1.1-3.6 1.6-.5.2-1.3.2-1.8 0-1.2-.5-2.5-1-3.7-1.5-.5-.2-1.1-.7-1.3-1.3-.4-1-.8-2.1-1.2-3.6-1.2.2-2.4.2-3.7-.1l-.6 1.5c-.2.6-.5 1.3-.7 1.9-.4 1.1-1.2 1.4-2 1.6-1 .2-1.8.5-2.5 1-.7.4-1.5.7-2.6.1-.6-.3-1.3-.6-1.9-1-.5-.2-1-.5-1.5-.8-.7.9-1.6 1.8-2.6 2.5.5 1.1 1.1 2.3 1.6 3.6.2.6.2 1.3-.1 1.9-.6 1.2-1.1 2.4-1.8 3.6-.2.5-.7 1.1-1.4 1.3-1.2.4-2.4.8-3.8 1.2.1 1.2.1 2.4-.1 3.6 1.2.4 2.4.9 3.8 1.4.8.3 1.2 1.1 1.4 1.4.2.5.5 1.1.7 1.6.3.6.5 1.3.8 1.9.4.8.4 1.6 0 2.4l-.9 1.8c-.2.5-.5 1-.7 1.5l1.6 1.6.8.8c.1.1.1.1.2.1.2 0 .4-.1.5-.2l.8-.4c.7-.3 1.3-.6 2-.9 1-.5 1.7-.2 2.2.1.6.3 1.3.6 1.9.9.5.2 1.1.5 1.6.8.6.3 1 .8 1.2 1.3.4 1.1.8 2.3 1.2 3.8 1.3-.2 2.5-.2 3.6.1h.1c.5-1.4.9-2.6 1.4-3.7.3-.7.9-1.1 1.3-1.3 1.2-.5 2.5-1 3.8-1.6.6-.2 1.3-.2 1.8 0 .6.3.9 1 .6 1.7-.3.6-1 .9-1.6.6-1.3.5-2.5 1-3.7 1.5-.5 1.2-1 2.5-1.5 3.9-.5 1.2-1.3 1.5-2 1.5zm7-6.9zm12.2-14.8z" class="st2"/><path d="M25.5 16.4c-4.8-.1-8.7 3.6-8.8 8.4-.1 4.8 3.7 8.7 8.4 8.8 4.8.1 8.7-3.7 8.8-8.4 0-4.8-3.8-8.7-8.4-8.8zm-1.4 13.3c-.2.2-.5.3-.8.3s-.6-.1-.8-.3L18.9 26c-.2-.2-.3-.5-.3-.8s.1-.6.3-.8l.5-.5c.2-.2.5-.3.8-.3s.6.1.8.3l2.2 2.2h.2l6.1-5.9c.5-.5 1.2-.5 1.7 0l.5.5c.5.5.5 1.2 0 1.7l-7.6 7.3z" class="st2"/><path d="M25.2 37.9c-7.1 0-12.9-5.8-12.9-12.9s5.8-12.9 12.9-12.9S38.1 17.9 38.1 25s-5.8 12.9-12.9 12.9zm0-24.8c-6.5 0-11.9 5.3-11.9 11.9 0 6.5 5.3 11.9 11.9 11.9 6.5 0 11.9-5.3 11.9-11.9 0-6.5-5.3-11.9-11.9-11.9z" class="st2"/></svg>