<svg xmlns="http://www.w3.org/2000/svg" id="Layer_1" x="0" y="0" version="1.1" viewBox="0 0 50 50" xml:space="preserve"><style>.st2{fill:#031326}</style><path fill="#d4ff73" d="M25 1.6C14.8 1.6 6.1 8.2 2.9 17.3L37 4.9c-3.5-2-7.6-3.3-12-3.3z"/><path fill="#bee367" d="M37 4.9L3 17.3c-.8 2.4-1.3 5-1.3 7.7 0 5 1.6 9.7 4.3 13.5l42.3-15.4c-.6-7.7-5-14.4-11.3-18.2z"/><path d="M37.6 22.1c-.6 0-1.2.2-1.6.5l-8.9-7.1c.2-.4.3-.9.3-1.4 0-1.7-1.4-3-3-3-1.7 0-3 1.4-3 3 0 .2 0 .4.1.6L15 18.4c-.5-.8-1.5-1.2-2.4-1.2-1.7 0-3 1.4-3 3s1.4 3 3 3c.5 0 .9-.1 1.3-.3l1.8 2.5-1.6 2.2c-.5-.2-.9-.4-1.5-.4-1.7 0-3 1.4-3 3s1.3 3 3 3c1 0 1.9-.5 2.4-1.2l6.5 3.1c-.1.2-.1.5-.1.7 0 1.7 1.4 3 3 3 1.7 0 3-1.4 3-3 0-.3-.1-.7-.2-1l8.7-7.2c.5.3 1.1.5 1.7.5 1.7 0 3-1.4 3-3s-1.4-3-3-3zm-10.3 2.5c-.3-1.4-1.5-2.5-3-2.5-1.1 0-2 .5-2.6 1.4l-2.6-1.1 4-5.4c.4.2.8.2 1.2.2.8 0 1.5-.3 2-.8l8.8 7c-.2.3-.4.7-.5 1.2h-7.3zm-1.9.6c0 .6-.5 1.1-1.1 1.1-.6 0-1.1-.5-1.1-1.1 0-.6.5-1.1 1.1-1.1.6 0 1.1.5 1.1 1.1zm-4.1.6l-3 1.4-1.3-1.8 1.5-1.9 2.9 1.2c0 .2-.1.4-.1.5s-.1.4 0 .6zm3-12.7c.6 0 1.1.5 1.1 1.1s-.5 1.1-1.1 1.1c-.6 0-1.1-.5-1.1-1.1s.4-1.1 1.1-1.1zm-2.5 2.8c.1.2.2.3.4.5L18 22l-2.6-1.2c.1-.2.1-.5.1-.6 0-.2-.1-.5-.1-.8l6.4-3.5zm-10.5 4.3c0-.6.5-1.1 1.1-1.1s1.1.5 1.1 1.1-.5 1.1-1.1 1.1-1.1-.5-1.1-1.1zm3.3 2c.1-.1.2-.2.2-.3l2.4 1-1.1 1.5-1.5-2.2zm2.6 5.4l-2.2 1c-.1-.1-.2-.2-.2-.3l1.5-1.9.9 1.2zm-4.8 3.7c-.6 0-1.1-.5-1.1-1.1s.5-1.1 1.1-1.1 1.1.5 1.1 1.1c-.1.6-.5 1.1-1.1 1.1zm2.9-.2c.1-.2.2-.5.2-.8 0-.2 0-.3-.1-.5l2.5-1.2 4 5.4-.1.1-6.5-3zm9 5.9c-.6 0-1.1-.5-1.1-1.1 0-.6.5-1.1 1.1-1.1.6 0 1.1.5 1.1 1.1 0 .6-.5 1.1-1.1 1.1zm0-4.2c-.5 0-1.1.2-1.6.5L19 28.1l2.8-1.2c.5.9 1.5 1.4 2.6 1.4 1.5 0 2.7-1.1 3-2.5h7.3c.1.4.2.8.5 1.1l-8.6 7c-.6-.7-1.4-1.1-2.3-1.1zm13.3-6.5c-.6 0-1.1-.5-1.1-1.1 0-.6.5-1.1 1.1-1.1.6 0 1.1.5 1.1 1.1 0 .7-.5 1.1-1.1 1.1z" class="st2"/><path d="M25 49.6C11.4 49.6.4 38.6.4 25 .4 11.4 11.4.4 25 .4c13.3 0 24.3 10.8 24.6 24.1v.5c0 .7-.6 1.2-1.2 1.2s-1.2-.6-1.2-1.2v-.5C46.8 12.6 36.9 2.9 25 2.9 12.8 2.9 2.9 12.8 2.9 25c0 12.2 9.9 22.1 22.1 22.1 3 0 5.9-.6 8.7-1.8.6-.3 1.4 0 1.6.7.3.6 0 1.4-.7 1.6-3 1.3-6.2 2-9.6 2z" class="st2"/></svg>