<svg xmlns="http://www.w3.org/2000/svg" id="Camada_1" x="0" y="0" version="1.1" viewBox="0 0 50 50" xml:space="preserve"><style>.st3{fill:#474747}</style><path fill="#afe55d" d="M48.4 26l.4 4.3-47 17.2.1-9.1.3-5.4L49 15.9l-.6 3.8z"/><path fill="#c3ff68" d="M48.4 9.1l-.6 7.8L1.9 33.8V23.7l.3-4.5L48.5 2.4z"/><path fill="#444" d="M36.9 49.4H1.8c-.7 0-1.2-.6-1.2-1.2V1.8c0-.7.6-1.2 1.2-1.2h46.5c.7 0 1.2.6 1.2 1.2V37c0 .7-.6 1.2-1.2 1.2S47 37.8 47 37V3.1H3v43.7h33.9c.7 0 1.2.6 1.2 1.2s-.6 1.4-1.2 1.4z"/><path d="M40.2 12.6h-5.5c-.3 0-.5-.2-.5-.5V8.3c0-.3.2-.5.5-.5h5.5c.3 0 .5.2.5.5v3.8c0 .3-.2.5-.5.5zm-4.9-1h4.4V8.8h-4.4v2.8z" class="st3"/><path d="M34.8 18.1c-.3 0-.5-.2-.5-.5v-5.5c0-.3.2-.5.5-.5s.5.2.5.5v5.5c0 .3-.3.5-.5.5z" class="st3"/><path d="M34.8 19.9c-1.6 0-2.8-.8-2.8-1.8s1.2-1.8 2.8-1.8c.3 0 .5.2.5.5s-.2.5-.5.5c-.5 0-1 .1-1.4.3-.3.1-.4.3-.4.5 0 .3.7.8 1.8.8.5 0 1-.1 1.4-.3.3-.1.4-.3.4-.5 0-.1-.1-.3-.3-.4-.2-.2-.3-.5-.2-.7.2-.2.5-.3.7-.2.5.3.8.8.8 1.3 0 1-1.2 1.8-2.8 1.8zm-8.5 19.6H14.5c-.3 0-.5-.2-.5-.5s.2-.5.5-.5h11.9c.3 0 .5.2.5.5-.1.3-.3.5-.6.5zm8.6 0H31c-.3 0-.5-.2-.5-.5s.2-.5.5-.5h3.9c1.2 0 2.1-.9 2.1-2.1 0-1.2-.9-2.1-2.1-2.1H23.7c-.3 0-.5-.2-.5-.5s.2-.5.5-.5h11.2c1.7 0 3.1 1.4 3.1 3.1 0 1.7-1.4 3.1-3.1 3.1zm-16-5.2h-4.2c-1.7 0-3.1-1.4-3.1-3.1 0-1.7 1.4-3.1 3.1-3.1h11.5c.3 0 .5.2.5.5s-.2.5-.5.5H14.7c-1.2 0-2.1.9-2.1 2.1 0 1.2.9 2.1 2.1 2.1h4.2c.3 0 .5.2.5.5s-.2.5-.5.5zm16-5.2h-4.1c-.3 0-.5-.2-.5-.5s.2-.5.5-.5h4.1C36 28 37 27.1 37 26c0-1.2-.9-2.1-2.1-2.1H23.6c-.3 0-.5-.2-.5-.5s.2-.5.5-.5h11.2c1.7 0 3.1 1.4 3.1 3.1.1 1.7-1.3 3.1-3 3.1zM19 23.9h-4.2c-1.7 0-3.1-1.4-3.1-3.1v-.1c0-1.7 1.4-3.1 3.1-3.1h7c.3 0 .5.2.5.5s-.2.5-.5.5h-7c-1.2 0-2.1.9-2.1 2.1v.1c0 1.2.9 2.1 2.1 2.1H19c.3 0 .5.2.5.5s-.2.5-.5.5z" class="st3"/><path d="M32.5 18.6h-6c-.3 0-.5-.2-.5-.5s.2-.5.5-.5h6c.3 0 .5.2.5.5 0 .2-.3.5-.5.5zM12.1 41.1c-1.6 0-2.9-.9-2.9-2s1.3-2 2.9-2c1.6 0 2.9.9 2.9 2s-1.3 2-2.9 2zm0-3.1c-1.1 0-1.8.5-1.8 1s.8 1 1.8 1c1.1 0 1.8-.5 1.8-1 .1-.5-.7-1-1.8-1zm17.2 2.5c-1.1 0-1.9-.6-1.9-1.4 0-.8.8-1.4 1.9-1.4s1.9.6 1.9 1.4c.1.7-.8 1.4-1.9 1.4zm0-1.9c-.6 0-.9.3-.9.4 0 .1.3.4.9.4.6 0 .9-.3.9-.4 0-.1-.3-.4-.9-.4zm-8.7-3.3c-1.1 0-1.9-.6-1.9-1.4 0-.8.8-1.4 1.9-1.4 1.1 0 1.9.6 1.9 1.4 0 .8-.9 1.4-1.9 1.4zm0-1.9c-.6 0-.9.3-.9.4s.3.4.9.4c.6 0 .9-.3.9-.4s-.4-.4-.9-.4zm8.7-3.4c-1.1 0-1.9-.6-1.9-1.4 0-.8.8-1.4 1.9-1.4s1.9.6 1.9 1.4c.1.8-.8 1.4-1.9 1.4zm0-1.9c-.6 0-.9.3-.9.4 0 .1.3.4.9.4.6 0 .9-.3.9-.4 0-.1-.3-.4-.9-.4zm-8.7-3.2c-1.1 0-1.9-.6-1.9-1.4 0-.8.8-1.4 1.9-1.4 1.1 0 1.9.6 1.9 1.4 0 .7-.9 1.4-1.9 1.4zm0-1.9c-.6 0-.9.3-.9.4 0 .1.3.4.9.4.6 0 .9-.3.9-.4 0-.1-.4-.4-.9-.4z" class="st3"/><path d="M24.8 19.5c-1.1 0-1.9-.6-1.9-1.4 0-.8.8-1.4 1.9-1.4s1.9.6 1.9 1.4c0 .8-.8 1.4-1.9 1.4zm0-1.9c-.6 0-.9.3-.9.4 0 .1.3.4.9.4.6 0 .9-.3.9-.4 0-.1-.3-.4-.9-.4z" class="st3"/></svg>