<svg xmlns="http://www.w3.org/2000/svg" id="Camada_3" x="0" y="0" version="1.1" viewBox="0 0 50 50" xml:space="preserve"><style>.st3{fill:none;stroke:#444;stroke-width:1.5;stroke-linecap:round;stroke-linejoin:round;stroke-miterlimit:10}</style><path fill="#b9d7d9" d="M39.53 2.66l-24.08-.54c-7.28 0-13.17 5.9-13.17 13.17v6.65l42.46-15.1-5.21-4.18z"/><path fill="#a6c1c2" d="M2.28 21.95v13.53c0 5.16 2.6 7.83 6.71 10.55l38.69-13.76c-.17-5.85.41-19.51-.17-21.63l-2.76-3.78L2.28 21.95z"/><path fill="none" stroke="#444" stroke-linecap="round" stroke-linejoin="round" stroke-miterlimit="10" stroke-width="2.5" d="M36.68 47.88H10.26L2.28 39.9V10.63l7.98-7.98h29.27l7.98 7.98v24.66"/><path d="M30.6 30.77s0 5.48-5.01 5.48c-4.73 0-4.72-5.48-4.72-5.48m8.23-5.5l8.49-5.48" class="st3"/><circle cx="15.92" cy="22.53" r="4.48" class="st3"/></svg>