<svg xmlns="http://www.w3.org/2000/svg" version="1" viewBox="0 0 50 50"><path fill="#DC5E82" d="M7.394 32.075l-.926 5.332a2.816 2.816 0 005.545.978l.915-5.333c4.901-.106 8.977-2.62 10.171-6.008h.396c.171 5.11.971 9.54 2.118 12.356l10.933-3.979c.665-1.267 1.206-2.945 1.565-4.89v-.01a6.534 6.534 0 003.564 1.055 6.575 6.575 0 000-13.15 6.54 6.54 0 00-3.564 1.055v-.01c-.812-4.396-2.547-7.432-4.561-7.432-.511 0-1 .195-1.458.556-.917-3.209-2.187-5.2-3.584-5.2-2.585 0-4.719 6.801-5.012 15.563H23.1c-1.22-3.462-5.448-6.019-10.492-6.019C6.611 16.936 1.75 20.547 1.75 25c0 3.062 2.258 5.71 5.644 7.075z"/><path fill="#F56991" d="M34.218 12.185a2.072 2.072 0 00-.76-.148c-.511 0-1 .195-1.458.556-.917-3.209-2.187-5.2-3.584-5.2-1.825 0-3.422 3.397-4.308 8.472l10.11-3.68zm-16.17 5.886c-1.62-.717-3.508-1.134-5.532-1.134-5.541 0-10.103 3.084-10.766 7.066l16.298-5.932z"/><path fill="#031326" d="M41.675 17.485c-1 0-1.982.2-2.896.583-1.033-4.391-2.947-6.971-5.229-6.971-.305 0-.604.046-.897.139-1.069-3.135-2.492-4.783-4.145-4.783-3.338 0-5.248 6.622-5.809 13.888-2.093-2.642-5.893-4.345-10.091-4.345-6.505 0-11.797 4.039-11.797 9.003 0 3.144 2.101 6.017 5.532 7.64l-.8 4.604a3.73 3.73 0 00.623 2.806 3.73 3.73 0 002.424 1.544 3.754 3.754 0 004.35-3.05l.787-4.588c3.788-.269 7.079-1.877 8.974-4.284.562 7.261 2.471 13.875 5.808 13.875 1.836 0 3.388-2.034 4.487-5.882a.927.927 0 00-.461-1.066c-1.555-1.183-3.272-4.862-3.583-9.692-.003-.039-.002-.082-.004-.121h3.65s.034.148.031.247a59.312 59.312 0 01-.492 6.164.375.375 0 10.744.102c.265-1.949.433-4.049.5-6.242.003-.105-.02-.271-.02-.271h2.226a6.36 6.36 0 001.587 2.685v.973c-.339 1.802-.842 3.37-1.456 4.541a.94.94 0 001.665.873c.562-1.072 1.038-2.413 1.396-3.927a7.475 7.475 0 002.898.584c4.144 0 7.515-3.371 7.515-7.515s-3.374-7.514-7.517-7.514zm-9.002-4.153c.304-.239.591-.355.877-.355 1.188 0 2.81 2.26 3.622 6.58v.972a6.397 6.397 0 00-1.586 2.687H33.4s-.018-.166-.021-.271c-.105-3.438-.47-6.708-1.038-9.352l.332-.261zm-.987.822c.512 2.527.843 5.589.941 8.814.003.097-.003.248-.003.248h-3.678c.003-.041.001-.084.004-.125.254-3.95 1.301-7.308 2.736-8.937zm-3.178-5.821c.516 0 1.661.952 2.681 4.519l.163.569c-1.682 1.688-2.87 5.268-3.151 9.62-.004.057-.002.117-.006.175h-3.767l.008-.228c.314-9.437 2.607-14.655 4.072-14.655zM23.62 23.966c-.005.345-.014.684-.014 1.034 0 .349.008.689.014 1.033h-4.098a1.035 1.035 0 010-2.067h4.098zm.752 2.067c-.005-.345-.014-.684-.014-1.033 0-.35.008-.689.014-1.034h3.796c-.013.345-.036.685-.036 1.034 0 .35.023.688.036 1.033h-3.796zM11.088 38.221a1.877 1.877 0 11-3.695-.653l.927-5.334c1.174.353 2.411.548 3.693.595l-.925 5.392zm1.82-6.109l-.227.005c-.025-.005-.048-.015-.074-.015-1.461 0-2.859-.216-4.175-.623l-.687-.276C4.626 29.946 2.689 27.569 2.689 25c0-3.928 4.449-7.124 9.918-7.124 4.511 0 8.44 2.193 9.584 5.339h-2.669a1.786 1.786 0 000 3.57h2.669c-1.108 3.045-4.913 5.233-9.283 5.327zM28.2 26.957c.258 4.004 1.529 7.734 3.196 9.597 0 0-.151.399-.207.594-1.02 3.567-2.165 4.519-2.681 4.519-1.465 0-3.758-5.219-4.073-14.654l-.008-.228h3.767c.004.056.002.116.006.172zm.72-.924c-.013-.345-.036-.684-.036-1.033 0-.349.023-.689.036-1.034h6.494c-.057.34-.096.684-.096 1.034s.039.694.095 1.033H28.92zm12.755 4.603a5.607 5.607 0 01-3.053-.903s-.121-.111-.157-.137A5.616 5.616 0 0136.069 25a5.63 5.63 0 012.294-4.523c.039-.028.258-.209.258-.209a5.619 5.619 0 013.054-.904c3.107 0 5.636 2.528 5.636 5.636s-2.529 5.636-5.636 5.636z"/></svg>