<svg xmlns="http://www.w3.org/2000/svg" viewBox="0 0 50 50"><path fill="#00dffc" d="M45.53 8.08H3.17c-1.44 0-1.47 3.96-1.47 5.4l-.18 5.94-.55 10.47 1.29 12.13 12.77.63 33.1-11.78V10.68c0-1.44-1.17-2.6-2.6-2.6z"/><path fill="none" stroke="#414141" stroke-linecap="round" stroke-linejoin="round" stroke-miterlimit="10" stroke-width="2.5" d="M37.7 42.28H5.16c-1.93 0-3.5-1.57-3.5-3.5V11.74c0-1.93 1.57-3.5 3.5-3.5h40.2c1.93 0 3.5 1.57 3.5 3.5v22.49"/><path fill="none" stroke="#414141" stroke-linecap="round" stroke-linejoin="round" stroke-miterlimit="10" stroke-width=".5" d="M1.66 16.02h43.12"/><path fill="none" stroke="#414141" stroke-linecap="round" stroke-linejoin="round" stroke-miterlimit="10" d="M6.03 12.03h1.73m1.56 0h1.72m1.56 0h1.73m.88 21.91l-4.84-4.83 4.84-4.83m9.35 9.66l4.84-4.83-4.84-4.83m-2.82-2.12l-3.7 13.8m13.44-.93h2m1.8 0h1.99m1.81 0h1.99"/></svg>