<svg xmlns="http://www.w3.org/2000/svg" id="Camada_1" x="0" y="0" version="1.1" viewBox="0 0 50 50" xml:space="preserve"><style>.st2{fill:#031326}</style><path fill="#e589ef" d="M45.3 10.7l-1.2 15.6-35.7 13c-.4-1.1-.7-2.5-.8-4.3L5.7 10.7C5.6 8.3 6.8 6.8 10.1 6l12.8-3.6c1-.2 1.8-.4 2.6-.4s1.6.2 2.6.4L40.9 6c3.3.8 4.5 2.3 4.4 4.7z"/><path fill="#f799ff" d="M37.2 5L6.1 16.3l-.4-5.6C5.6 8.3 6.8 6.8 10.1 6l12.8-3.6c1-.2 1.8-.4 2.6-.4s1.6.2 2.6.4L37.2 5z"/><path d="M41.2 4.8L28.4 1.3c-1.1-.3-2-.5-2.9-.5-.9 0-1.8.2-2.9.5L9.8 4.8c-3.7.9-5.5 2.9-5.4 6L6.3 35c.4 5.7 2.3 7.5 6.2 9.4l10.8 4.4c.7.2 1.5.4 2.2.4.7 0 1.5-.1 2.2-.4l6.4-2.6c.6-.3.9-1 .7-1.6-.3-.6-1-.9-1.6-.7l-6.3 2.6c-.9.3-1.8.3-2.7 0l-10.7-4.3c-3.1-1.5-4.4-2.6-4.7-7.3L6.9 10.7c0-1.3.2-2.7 3.5-3.5l12.8-3.6c.9-.3 1.6-.4 2.2-.4.7 0 1.3.1 2.2.4l12.9 3.6c3.3.8 3.5 2.1 3.5 3.4l-1.2 15.6c0 .7.5 1.3 1.2 1.3s1.3-.5 1.3-1.1l1.2-15.6c.2-3.2-1.6-5.1-5.3-6z" class="st2"/><path d="M21.3 11.5c.5 0 1.1.1 1.7.6.3.4.7.7 1.3.7h.4c.8 0 1.7.1 2.5.2 3.7.8 6.6 3.1 7.7 5 .5.8.5 1.3.5 1.5-.2.1-.9.4-2.2.4-2.4 0-5.3-.8-7.5-2.1-.1-.1-.2-.1-.3-.1h-.5c-.1 0-.3 0-.4.1-4.4 1.2-7.2 4.3-7.5 8.2-.3 4 2.3 7.9 6.3 9.7.2.1.4.1.6.1.5 0 1-.2 1.3-.7l.1-.1c.2.1.4.2.7.3 1 .5 1.8.7 2.7.9h.1c.5.1 1.1.2 1.6.2h.3c.5 0 .9 0 1.4-.1-1 .4-2 .7-3 .8-.6.1-1.2.1-1.8.1-5.4 0-10.6-3.2-12.7-7.7-.1-.2-.2-.5-.2-.7 0-.1-.1-.2-.1-.3-.1-.2-.2-.5-.3-.7-.1-.2-.2-.3-.3-.5l-.3-.3c-.3-.2-.8-.7-1.1-1.4 0 0 0-.1.1-.1.3-.4.8-1.1.7-2.1 0-.7-.2-1.3-.4-1.9-.2-.5-.3-.9-.2-1.2.1-.2.5-.6.8-.8.4-.4.9-.8 1.2-1.2.5-.6.5-1.4.5-2.1 0-.3 0-1.1.1-1.2.2-.2.4-.2.9-.3.6-.1 1.4-.2 2.5-.8.1 0 .1-.1.1-.1.8-.6 1.3-1.2 1.7-1.6.4-.4.5-.6.8-.7h.2M35.6 34c-.2.2-.5.4-.7.6v-.5c.2 0 .4 0 .7-.1M21.3 10c-.3 0-.6 0-.8.1-1.4.5-1.4 1.4-3 2.6-1.6.9-2.4.2-3.6 1.2-1.2.9-.4 3.1-.8 3.5-.5.8-2 1.6-2.3 2.6-.2 1.4.6 2.3.6 3.5.1 1-1 1.5-.8 2.3.5 1.3 1.3 2.1 1.7 2.4l.1.1c.1.3.3.6.4.9l.3.9c2.2 4.8 7.8 8.6 14.1 8.6.7 0 1.3 0 2-.1 3.5-.4 8.6-2.8 10.8-8.5-1.5 1.3-4.2 2.5-5.3 2.6 4-2 6.2-5.4 5.6-10.1-.8 2-1.9 3.5-3.3 4.6 2.9-4.6 2.4-6.9.3-9.5 1.5 4.3-.5 9-4.8 12.3h.8c1.5 0 2.9-.5 4.2-1.5-2.3 2.6-5.3 3.9-8.7 4.3 1.4 1.2 2.7 1.8 4 1.8.2 0 .5 0 .7-.1-1 .3-1.9.4-2.8.4h-.3c-.5 0-.9-.1-1.4-.2-.8-.2-1.6-.4-2.5-.9-1.4-.7-2.8-1.8-4.4-3.2l-.3-.3-.2-.2c-.2 1.1 1 2.9 2.2 4-7.1-3.1-7.7-12.7.9-15.1 2.8 1.6 5.9 2.3 8.3 2.3 2.1 0 3.5-.5 3.7-1.4.7-2.3-3.3-7.2-9.3-8.4-1-.2-1.9-.3-2.8-.3h-.4.1c-.9-.9-2.2-1.2-3-1.2z" class="st2"/><circle cx="28.4" cy="16.5" r=".7" class="st2"/><path d="M36 33.5s-2 0-2 .3 0 1.8.1 1.8c.2 0 2.4-1.6 2.4-1.6l-.5-.5z" class="st2"/></svg>