<svg xmlns="http://www.w3.org/2000/svg" viewBox="0 0 50 50"><path fill="none" stroke="#031326" stroke-linecap="round" stroke-miterlimit="10" stroke-width=".75" d="M44.1 33.8l.2.4"/><path fill="#ecc158" d="M35.1 17.1l-19.2 7-11 19.2c-.4.6.1 1.4.8 1.4h3.8l34.3-12.5-8.7-15.1z"/><path fill="#f0cd77" d="M28.4 5.4c-.4-.6-1.3-.6-1.6 0L16 24.1l19.2-7-6.8-11.7z"/><path fill="#031326" d="M45.3 43.6H31.4l-2.7-4.8 8.7-15.1 5.7 9.9c.3.6 1.1.8 1.7.5.6-.3.8-1.1.5-1.7L29.5 5c-.4-.7-1.1-1.1-1.9-1.1s-1.5.4-1.9 1.1L3.8 42.8c-.4.7-.4 1.5 0 2.2.4.7 1.1 1.1 1.9 1.1h39.6c.7 0 1.2-.6 1.2-1.2s-.6-1.3-1.2-1.3zm-17.5-4.8l2.7 4.8H30l-9.2-16h-5.3l.4-.6h18.2l2.6-4.6.3.6-9.2 15.8zM6.2 43.6L15 28.4h5.3l8.8 15.2H6.2zm30-22l-2.6 4.6H16.3L27.6 6.7l8.6 14.9z"/></svg>