<svg xmlns="http://www.w3.org/2000/svg" id="Layer_1" x="0" y="0" version="1.1" viewBox="0 0 50 50" xml:space="preserve"><style>.st2{fill:#031326}</style><path fill="#00c8e2" d="M46.7 23.3v4.2L5.6 42.4l-4.4-4.9 4.7-1 .7-3-.5-5.3 40.8-15-.5 3.8z"/><path fill="#00dffc" d="M45.7 6.4l-.1 7.8L6.7 28.4l-.5-10v-4.5L33.3 4l11.3 1z"/><path d="M49.5 46.6l-5.9-5.9c1.1-1.5 1.8-3.3 1.8-5.3 0-4.8-3.9-8.8-8.8-8.8-4.8 0-8.8 4-8.8 8.8 0 4.9 3.9 8.8 8.8 8.8 2 0 3.8-.6 5.3-1.8l5.9 5.9c.2.2.6.4.9.4s.6-.1.9-.4c.4-.4.4-1.2-.1-1.7zM30.3 35.4c0-3.5 2.8-6.3 6.3-6.3s6.3 2.8 6.3 6.3c0 1.7-.7 3.3-1.8 4.5s-2.7 1.8-4.5 1.8c-3.5 0-6.3-2.8-6.3-6.3zm-2.1-25.1h-3.3c-.4 0-.8-.3-.8-.8s.3-.8.8-.8h3.3c.4 0 .8.3.8.8s-.4.8-.8.8z" class="st2"/><path d="M47.8 7.9v18.4c0 .7-.6 1.2-1.2 1.2s-1.2-.6-1.2-1.2V7.9c0-1.2-.9-2.1-2.1-2.1H9.8c-1.2 0-2.1.9-2.1 2.1v27.2h14.7c.7 0 1.2.6 1.2 1.2s-.6 1.2-1.2 1.2H2.8c.6 2.4 2.7 4.2 5.3 4.2h18.2c.7 0 1.2.6 1.2 1.2 0 .7-.6 1.2-1.2 1.2H8.1c-4.4 0-8-3.6-8-7.9 0-.7.6-1.2 1.2-1.2h3.8V7.9c0-2.5 2.1-4.6 4.6-4.6h33.5c2.6 0 4.6 2 4.6 4.6z" class="st2"/><path d="M13.4 31c-.4 0-.8-.3-.8-.8v-6.8c0-.4.3-.8.8-.8s.8.3.8.8v6.8c-.1.5-.4.8-.8.8zm3.9 0c-.4 0-.8-.3-.8-.8V20c0-.4.3-.8.8-.8s.7.3.7.8v10.3c0 .4-.3.7-.7.7zm3.9 0c-.4 0-.8-.3-.8-.8V16.6c0-.4.3-.8.8-.8s.8.3.8.8v13.6c0 .5-.4.8-.8.8z" class="st2"/></svg>