<?xml version="1.0" encoding="utf-8"?>
<!-- Generator: Adobe Illustrator 28.0.0, SVG Export Plug-In . SVG Version: 6.00 Build 0)  -->
<svg version="1.1" id="Layer_1" xmlns="http://www.w3.org/2000/svg" xmlns:xlink="http://www.w3.org/1999/xlink" x="0px" y="0px"
	 viewBox="0 0 50 50" style="enable-background:new 0 0 50 50;" xml:space="preserve">
<style type="text/css">
	.st0{fill:#FF6B6B;}
	.st1{fill:none;stroke:#444444;stroke-width:2.5;stroke-linecap:round;stroke-linejoin:round;stroke-miterlimit:10;}
	.st2{fill:none;stroke:#444444;stroke-width:0.5;stroke-miterlimit:10;}
	.st3{fill:#494949;}
	.st4{fill:none;stroke:#444444;stroke-linecap:round;stroke-linejoin:round;stroke-miterlimit:10;}
</style>
<g>
	<path class="st0" d="M47.3,17.1l0.5-11l-1.9-3.8L30.5,2.7c-3.2,0-27.8-3-27.8,0.2L1,23.6l1.2,23.5l13.6,0.6l31-11
		C47.5,36.3,48.3,19.1,47.3,17.1z"/>
	<path class="st1" d="M32.4,47.7h-27c-1.9,0-3.4-1.6-3.4-3.5V5.3c0-1.9,1.5-3.5,3.4-3.5h39c1.9,0,3.4,1.6,3.4,3.5v32.5"/>
	<circle class="st2" cx="7" cy="6.6" r="1.4"/>
	<circle class="st2" cx="12.9" cy="6.6" r="1.4"/>
	<circle class="st2" cx="18.7" cy="6.6" r="1.4"/>
	<path class="st3" d="M44.4,17c-1-3.8-7.2-5-13.1-2.9c-3.5,1.2-7.3,3.2-10,5.8c-3.2,3-3.8,5.7-3.6,6.8c0.8,3.9,6.1,6.5,8.3,8.3
		c-0.6,0.3-5.4,2.7-6.5,5.2c-1.2,2.6,0.2,4.4,1.1,4.7c2.8,0.8,5.6-0.6,7.2-2.9c1.5-2.2,1.4-5.1,0.7-6.5c0.9-0.2,1.9-0.3,3.2-0.2
		c3.7,0.4,4.4,2.8,4.3,3.7c-0.1,1-0.9,1.5-1.2,1.7s-0.3,0.2-0.3,0.3c0,0.2,0.2,0.2,0.4,0.1c0.3-0.1,1.9-0.8,2-2.6
		c0.1-2.3-2.1-4.8-5.9-4.8c-1.6,0-2.6,0.2-3.3,0.4l-0.2-0.2c-2.4-2.5-6.8-4.3-6.6-7.8c0.1-1.2,0.5-4.5,8.5-8.5
		c6.5-3.3,11.8-2.4,12.7-0.4c1.3,2.8-2.8,8.1-9.6,8.9c-2.6,0.3-3.9-0.7-4.3-1.1s-0.4-0.4-0.5-0.3c-0.2,0.1-0.1,0.5,0,0.7
		c0.2,0.5,1,1.5,2.5,1.9c1.2,0.4,4.3,0.6,8-0.8C42.1,25.1,45.4,20.7,44.4,17z M26.9,36.1c0.3,1.1,0.3,2.2,0,3.2
		c0,0.1-0.1,0.2-0.1,0.3s-0.1,0.2-0.1,0.3c-0.2,0.5-0.6,1-1,1.4c-1.2,1.3-2.9,1.8-3.7,1.4c-0.8-0.5-0.4-2.4,1-3.9
		c1.5-1.6,3.7-2.7,3.7-2.7C26.8,36.2,26.9,36.2,26.9,36.1z"/>
	<line class="st4" x1="1.7" y1="10.1" x2="42.1" y2="10.1"/>
</g>
</svg>
