<svg xmlns="http://www.w3.org/2000/svg" version="1" viewBox="0 0 50 50"><path fill="#AFE55D" d="M14.6 41.5h.2v2.1L37 35.4l.7-5.4c.1-.6-.6-1.1-.6-1.1l-.8-24.4c0-1-.9-1.9-2-1.8-10.4.2-17.1 2.8-19.5 4-.6.3-1 .9-1.1 1.6L12.9 29s-.7.5-.6 1.1l1.4 10.6c0 .4.4.8.9.8z"/><path fill="#C3FF68" d="M36.4 8.4l-.1-3.9c0-1-.9-1.9-2-1.8-10.4.2-17.1 2.8-19.5 4-.6.3-1 .9-1.1 1.6l-.3 8.4 23-8.3z"/><path fill="#031326" d="M38.3 28.4l-.8-24c-.1-1.7-1.5-3.1-3.2-3-10.7.3-17.6 3-20 4.2-1.1.5-1.7 1.5-1.8 2.7l-.8 20.2c-.3.4-.7 1-.6 1.8l1.4 10.6c.1.7.5 1.3 1.1 1.6v3c0 1.7 1.4 3.1 3.1 3.1h16.6c1.7 0 3.1-1.4 3.1-3.1v-4c0-.7-.6-1.2-1.2-1.2-.412 0-.606.089-.824.2h-19.45L14 33.1h22l-.3 2.2c-.1.7.4 1.3 1.1 1.4.7.1 1.3-.4 1.4-1.1l.7-5.5c.1-.7-.2-1.3-.6-1.7zM15 8.4c0-.2.1-.4.4-.5.9-.4 2.5-1.1 4.7-1.8v13.6c0 .1.1.2.2.2s.2-.1.2-.2V5.9c1.2-.4 2.6-.7 4.2-1v17c0 .1.1.2.2.2s.2-.1.2-.2V4.8c1.3-.2 2.837-.4 4.337-.6v12.7c0 .1.108.131.187.131s.166-.037.166-.137v-12.7c1.401-.1 3.01-.194 4.61-.294.3 0 .7.3.7.6l.8 24.4H14.1L15 8.4zm18.902 32.7l-.002 4.3c0 .4-.3.6-.6.6H16.7c-.4 0-.6-.3-.6-.6v-4.3h17.802zM13.9 32.6l-.3-2.6.1-.1.4-.3H36l.4.3.1.1-.3 2.6H13.9z"/></svg>