<svg xmlns="http://www.w3.org/2000/svg" id="Layer_1" x="0" y="0" version="1.1" viewBox="0 0 50 50" xml:space="preserve"><style>.st2{fill:#031326}</style><path fill="#a475ef" d="M47.8 35l-.6 11-7.4 1.2-8.4-.1-5.6.3-3.9-.4-6.2.2z"/><path fill="#bf94f7" d="M47.8 19.7v15.9L16.4 47H7.3l-3.4-1.2-1.7-3.2.6-6.6z"/><path d="M44.7 48.5H6.1c-2.3 0-4.2-1.9-4.2-4.2V5.6c0-2.3 1.9-4.2 4.2-4.2h13.8c.7 0 1.2.6 1.2 1.2s-.6 1.2-1.2 1.2H6.1c-1 0-1.7.8-1.7 1.7v38.7c0 1 .8 1.7 1.7 1.7h38.7c1 0 1.7-.8 1.7-1.7v-24c0-.7.6-1.2 1.2-1.2s1.2.6 1.2 1.2v24c.1 2.4-1.8 4.3-4.2 4.3z" class="st2"/><path d="M44.3 15.9L39.9 13l-.1-.1-8.7-5.8-4.3-2.9c-.3-.2-.8-.1-1 .2-.2.3-.1.8.2 1l3.3 2.2-10.8 5.6c-.3.3-.5.6-.5.8l.4 20.7v.1c0 .1 0 .1.1.2 0 0 .1.1.1.2l.1.1c.1.1.3.1.4.1h.3l19.2-7.7c.3-.1.5-.4.5-.6l1-12.2 3.3 2.2c.1.1.3.1.4.1.2 0 .5-.1.6-.3.3-.3.2-.8-.1-1zm-6.6 10.7l-16.6 6.6 6.2-9.3c.4.2.8.2 1.3.2.2 0 .5 0 .7-.1 1.9-.4 3.1-2.2 2.8-4.2-.3-1.7-1.8-2.8-3.5-2.8-.2 0-.5 0-.7.1-1.9.4-3.2 2.2-2.8 4.2.1.7.5 1.3.9 1.8l-6.2 9.3-.4-17.9 11.2-5.8 8 5.3-.9 12.6zm-9.5-8c1.1-.2 2.2.5 2.4 1.6.2 1.1-.5 2.2-1.6 2.4-.6.1-1.1 0-1.5-.3-.5-.3-.8-.8-.9-1.3-.2-1.1.5-2.2 1.6-2.4z" class="st2"/></svg>