<svg xmlns="http://www.w3.org/2000/svg" id="Layer_1" x="0" y="0" version="1.1" viewBox="0 0 50 50" xml:space="preserve"><style>.st2{fill:#031326}</style><path fill="#d4ff73" d="M34 9c-.5-.3-1.2-.3-1.6.1l-1.5 1.5c-1.1-.6-2.2-1-3.3-1.4v-2c0-.6-.4-1.1-1-1.3-2.3-.4-4.8-.4-7.1 0-.6.1-1 .6-1 1.3v2.1c-1.2.3-2.3.8-3.3 1.4l-1.5-1.5c-.4-.4-1.1-.5-1.6-.1-1 .7-1.9 1.4-2.7 2.3-.8.8-1.6 1.8-2.3 2.7-.3.5-.3 1.2.1 1.6L8.5 17c-.5 1-1 2-1.3 3.1H4.8c-.6 0-1.1.4-1.3 1-.1.4-.1.9-.2 1.3L36 10.6c-.7-.6-1.3-1.1-2-1.6z"/><path fill="#bee367" d="M38.7 29.7h1.1l2.2-.8c0-.1.1-.2.1-.2.2-1.2.3-2.4.3-3.6 0-1.2-.1-2.4-.3-3.6 0-.2-.1-.3-.2-.4-.1-.6-.6-1-1.3-1h-2.1c-.2-.5-.3-1-.5-1.4-.2-.5-.4-1-.7-1.5l1.5-1.5c.4-.4.5-1.1.1-1.6-.7-1-1.4-1.9-2.3-2.7-.2-.2-.5-.5-.8-.7L3.4 22.4c-.1.7-.1 1.5-.1 2.2 0 1.2.1 2.4.3 3.6 0 .2.1.3.2.4.1.6.6 1 1.3 1h2.1c.2.5.3 1 .5 1.4.2.5.4 1 .7 1.5l-1 1H2.6V37h5.2c.3.6.8 1 1.2 1.4.6.6 1.3 1.2 2 1.7l27.6-10c0-.1.1-.3.1-.4z"/><path d="M48.4 35.9L40.5 31v2.4h-7.4c1.7-2.2 2.6-4.9 2.6-7.7C35.7 18.7 30 13 23 13c-7 0-12.7 5.7-12.7 12.7 0 2.8.9 5.5 2.6 7.7H9.5c.1-.3.1-.7-.1-1-.5-1-1-2-1.3-3.1l-.3-.9H4.7c-.2-1.1-.3-2.2-.3-3.3 0-1.1.1-2.2.3-3.3h3.1l.3-.9c.3-1.1.7-2.1 1.3-3.1l.5-.8-2.2-2.2c.6-.9 1.4-1.8 2.1-2.6.8-.8 1.7-1.5 2.6-2.1l2.2 2.2.8-.5c1-.5 2-1 3.1-1.3l.9-.3V7.1c2.2-.4 4.5-.4 6.7 0v3.1l.9.3c1.1.3 2.1.7 3.1 1.3l.8.5 2.2-2.2c.9.6 1.8 1.3 2.6 2.1s1.5 1.6 2.1 2.6L35.6 17l.5.8c.5 1 1 2 1.3 3.1l.3.9h3.1c.2 1.1.3 2.2.3 3.3 0 1.1-.1 2.2-.3 3.3h-3.1l-.3.9c-.2.6-.4 1.3-.7 1.9-.3.6 0 1.4.6 1.6.6.3 1.4 0 1.6-.6.2-.4.3-.8.5-1.3h1.2c1.2 0 2.3-.9 2.5-2.1.2-1.2.3-2.5.3-3.8 0-1.3-.1-2.5-.3-3.8-.2-1.2-1.3-2.1-2.5-2.1h-1.2c-.2-.6-.5-1.2-.8-1.8l.9-.9c.9-.9 1-2.2.3-3.2s-1.5-2-2.4-2.9c-.9-.9-1.9-1.7-2.9-2.4s-2.4-.6-3.2.3l-.9.9c-.6-.3-1.2-.5-1.8-.8V7.1c0-1.2-.9-2.3-2.1-2.5-2.5-.5-5.1-.5-7.6 0-1.2.2-2.1 1.3-2.1 2.5v1.2c-.6.2-1.2.5-1.8.8l-.9-.9c-.9-.9-2.2-1-3.2-.3s-2 1.5-2.9 2.4c-.9.9-1.7 1.9-2.4 2.9s-.6 2.4.3 3.2l.9.9c-.3.6-.5 1.2-.8 1.8H4.9c-1.2 0-2.3.9-2.5 2.1-.3 1.3-.4 2.5-.4 3.8 0 1.3.1 2.5.3 3.8.2 1.2 1.3 2.1 2.5 2.1H6c.3.9.7 1.7 1.1 2.5H1.6v5h6.2c-.2.4-.1 1 .3 1.3.9.9 1.9 1.7 2.9 2.4s2.4.6 3.2-.3l.9-.9c.6.3 1.2.5 1.8.8v1.2c0 1.2.9 2.3 2.1 2.5 1.2.2 2.5.3 3.8.3 1.3 0 2.5-.1 3.8-.3 1.2-.2 2.1-1.3 2.1-2.5v-2.1c0-.7-.6-1.2-1.2-1.2s-1.2.6-1.2 1.2V43c-2.2.4-4.5.4-6.7 0v-3.1l-.9-.3c-1-.3-2-.7-2.9-1.2h24.9v2.4l7.7-4.9zm-36 4.1c-.7-.5-1.4-1.1-2.1-1.7h3.8L12.4 40zm-9.3-3.1v-2h13.3l-1.3-1.3c-2.1-2.1-3.3-4.9-3.3-7.9 0-6.2 5-11.2 11.2-11.2 6.2 0 11.2 5 11.2 11.2 0 3-1.2 5.8-3.3 7.9l-1.3 1.3H42v-1.2l3.5 2.2L42 38v-1.2H3.1z" class="st2"/><path d="M23.1 16.5c-5.1 0-9.2 4.1-9.2 9.2s4.1 9.2 9.2 9.2 9.2-4.1 9.2-9.2c-.1-5.1-4.2-9.2-9.2-9.2zm0 16.9c-4.2 0-7.7-3.4-7.7-7.7 0-4.2 3.4-7.7 7.7-7.7 4.2 0 7.7 3.4 7.7 7.7-.1 4.2-3.5 7.7-7.7 7.7z" class="st2"/><path d="M23.9 31.3h-1.7c-.4 0-.7-.3-.8-.6l-.1-.5c-.1 0-.1 0-.1-.1l-.5.3c-.3.2-.7.2-1-.1L18.4 29c-.3-.3-.3-.7-.1-1l.3-.5s0-.1-.1-.1l-.5-.1c-.4-.1-.6-.4-.6-.8v-1.7c0-.4.3-.7.6-.8l.5-.1s0-.1.1-.1l-.3-.5c-.2-.3-.2-.7.1-1l1.2-1.2c.3-.3.7-.3 1-.1l.5.3s.1 0 .1-.1l.1-.5c.1-.4.4-.6.8-.6h1.7c.4 0 .7.3.8.6l.1.5s.1 0 .1.1l.5-.3c.3-.2.7-.2 1 .1l1.2 1.2c.3.3.3.7.1 1l-.3.4s0 .1.1.1l.5.1c.4.1.6.4.6.8v1.7c0 .4-.3.7-.6.8l-.5.1s0 .1-.1.1l.3.5c.2.3.2.7-.1 1l-1.2 1.2c-.3.3-.7.3-1 .1l-.3-.1s-.1 0-.1.1l-.1.5c-.2.3-.5.6-.9.6zm-1.6-1h1.4l.2-.9.3-.1c.2-.1.4-.1.5-.2l.3-.1.8.5 1-1-.5-.8.1-.3c.1-.2.2-.4.2-.5l.1-.3.9-.2V25l-.9-.2-.1-.3c-.1-.2-.1-.4-.2-.5l-.1-.3.5-.8-1-1-.8.4-.3-.1c-.2-.1-.4-.2-.5-.2l-.3-.1-.2-.9h-1.4l-.2.9-.3.1c-.2.1-.4.1-.5.2l-.3.1-.8-.5-1 1 .5.8-.1.3c-.1.2-.2.4-.2.5l-.1.3-.9.2v1.4l.9.2.1.3c.1.2.1.4.2.5l.1.3-.5.8 1 1 .8-.5.3.1c.2.1.4.2.5.2l.3.1.2 1zm3.4-.8zm1.2-1zm.9-2.2zm-9.6 0zm9.6-1.4zm-.9-2.2z" class="st2"/><circle cx="23" cy="25.6" r="1.9" class="st2"/></svg>