<svg xmlns="http://www.w3.org/2000/svg" version="1" viewBox="0 0 50 50"><path fill="#E56060" d="M39.865 27.601c.093-.858.148-1.726.148-2.602 0-11.991-9.192-22.712-15.012-22.712S9.988 13.008 9.988 25c0 4.445 1.265 8.715 3.151 12.329l26.726-9.728z"/><path fill="#FF6B6B" d="M32.151 6.291c-2.462-2.504-5.11-4.003-7.286-4.003-3.805 0-9.05 4.582-12.226 11.105l19.512-7.102z"/><g fill="#031326"><path d="M25 1.3C18.161 1.3 9 13.017 9 25c0 11.983 9.161 23.7 16 23.7 1.681 0 3.596-.749 5.539-2.164a.99.99 0 00-1.163-1.598c-1.36.991-2.653 1.581-3.784 1.739v-6.348h4.611a.593.593 0 000-1.186h-4.611v-5.418a.593.593 0 00-1.186 0v5.418h-9.114C12.805 35.28 10.976 30.29 10.976 25s1.829-10.281 4.318-14.143h9.113v5.417a.593.593 0 001.186 0v-5.417h9.114C37.196 14.72 39.025 19.71 39.025 25c0 .705-.034 1.425-.1 2.14a.987.987 0 101.967.183c.071-.776.108-1.557.108-2.323 0-11.983-9.162-23.7-16-23.7zm-.593 39.029v6.352c-2.528-.334-5.686-2.73-8.306-6.352h8.306zM16.101 9.671c2.62-3.621 5.778-6.017 8.306-6.351v6.351h-8.306zm9.492 0V3.32c2.528.334 5.686 2.73 8.306 6.351h-8.306z"/><path d="M28.711 20.435a.988.988 0 100-1.976h-7.423a.988.988 0 100 1.976h3.118v3.577h-3.118a.988.988 0 100 1.976h3.118v3.577h-3.118a.988.988 0 100 1.976h7.423a.988.988 0 100-1.976h-3.119v-3.577h3.119a.988.988 0 100-1.976h-3.119v-3.577h3.119z"/></g></svg>