<svg xmlns="http://www.w3.org/2000/svg" id="Layer_1" x="0" y="0" version="1.1" viewBox="0 0 50 50" xml:space="preserve"><style>.st1{fill:#e56060}.st4{fill:none;stroke-linecap:round;stroke-linejoin:round;stroke-miterlimit:10;stroke:#494949}</style><path fill="#a475ef" d="M10.5 13.4l2.9-1c.1.2.1.3.1.5 0 .9-.7 1.5-1.5 1.5s-1.3-.4-1.5-1z"/><path d="M25.2 13.5c-.1-.2-.1-.4-.1-.6v-.5c0-.7.6-1.3 1.3-1.3h11.5c.7 0 1.3.6 1.3 1.3v.5c0 .7-.6 1.3-1.3 1.3H26.4c-.5 0-1-.3-1.2-.7zm4.1 13.2c.5-1 1.2-1.9 2-2.7h-4.9c-.7 0-1.3.6-1.3 1.3v.5c0 .2 0 .4.1.6.2.4.7.7 1.2.7h2.8c0-.2 0-.3.1-.4zm7.9-1.1c-.3-.2-.6-.3-.9-.5h-.1c-.1 0-.1-.1-.2-.1-.2-.1-.4-.1-.6-.2-.1 0-.2 0-.4-.1h-.9c-.1 0-.2.1-.3.1-.2.1-.4.2-.6.2l-.3.3-.7.7v.2c-.1.2-.2.5-.2.7h6c-.1-.4-.2-.7-.4-1.1-.3 0-.4-.1-.4-.2zm-23.7-.1c0 .8-.7 1.5-1.5 1.5-.9 0-1.6-.7-1.6-1.5 0-.9.7-1.5 1.6-1.5.8 0 1.5.6 1.5 1.5z" class="st1"/><path d="M21.6 17.4v3.5H8.1c-.7 0-1.3.6-1.3 1.3v6.6c0 .7.6 1.3 1.3 1.3h4l-9.6 3.5-.6-10.9v-6.3H2l4.9-1.8v.6c0 1.1.9 2 2 2h12.7v.2zm26.9-.6l-11.1 4h-9v-3.5h11.9c1.1 0 2-.9 2-2v-5.2c0-1.1-.9-2-2-2H24.8l17.3-6.3 5.1 2.3.1 1.4.4 6.1.8 5.2z" class="st1"/><path fill="#ff6b6b" d="M13.4 12.3c-.2-.6-.8-1-1.4-1-.9 0-1.6.7-1.6 1.5 0 .2 0 .4.1.5.2.6.8 1 1.5 1 .8 0 1.5-.7 1.5-1.5 0-.1-.1-.3-.1-.5zM46.2 2l-4-.1-7.4-.2-29 .2-3.1 2.9-.8 11.7-.1.8-.3 4.7.4-.2 12.5-4.5H8.8c-1.1 0-2-.9-2-2v-5.2c0-1.1.9-2 2-2h31.3l7.2-2.6 1-.4L46.2 2zm-19.8 9.2c-.7 0-1.3.6-1.3 1.3v.5c0 .2 0 .4.1.6l6.5-2.3h-5.3v-.1zm-13 1.1c-.2-.6-.8-1-1.4-1-.9 0-1.6.7-1.6 1.5 0 .2 0 .4.1.5.2.6.8 1 1.5 1 .8 0 1.5-.7 1.5-1.5 0-.1-.1-.3-.1-.5z"/><path fill="none" stroke="#444" stroke-linecap="round" stroke-linejoin="round" stroke-miterlimit="10" stroke-width="2.5" d="M18.2 48.3H5.5c-1.9 0-3.4-1.6-3.4-3.5v-39c0-2 1.5-3.5 3.4-3.5h39c1.9 0 3.4 1.6 3.4 3.5v24.6"/><path d="M8.8 17.4h31.5c1.1 0 2-.9 2-2v-5.2c0-1.1-.9-2-2-2H8.8c-1.1 0-2 .9-2 2v5.2c0 1.1.9 2 2 2zM31.4 27c-.2.4-.3.9-.3 1.3V30h7.2v-1.7c0-.5-.1-.9-.3-1.3-.5-1.3-1.8-2.3-3.4-2.3-1.4 0-2.7 1-3.2 2.3z" class="st4"/><path d="M6.8 22.2v6.6c0 .7.6 1.3 1.3 1.3H29v-1.7c0-.5.1-.9.2-1.3.3-1.2 1-2.3 1.9-3.1 1-.8 2.3-1.3 3.7-1.3 1.4 0 2.7.5 3.7 1.4.3.2.5.5.7.7.8 1 1.3 2.3 1.3 3.7v1.7h.5c.7 0 1.3-.6 1.3-1.3v-6.6c0-.7-.6-1.3-1.3-1.3H8.1c-.7-.1-1.3.5-1.3 1.2zm19.5-8h11.5c.7 0 1.3-.6 1.3-1.3v-.5c0-.7-.6-1.3-1.3-1.3H26.3c-.7 0-1.3.6-1.3 1.3v.5c0 .8.6 1.3 1.3 1.3z" class="st4"/><path d="M31.4 27h6.7c-.5-1.3-1.8-2.3-3.4-2.3-1.5 0-2.8 1-3.3 2.3zM25 24.8v1.4c0 .5.4.9.9.9h3.2c.3-1.2 1-2.3 1.9-3.1h-5.1c-.5 0-.9.3-.9.8z" class="st4"/><circle cx="11.9" cy="12.8" r="1.5" class="st4"/><circle cx="11.9" cy="25.5" r="1.5" class="st4"/><path d="M21.6 17.4h6.8v3.5h-6.8zm4.6 17.7v8.4c0 1 .8 1.8 1.8 1.8h13.5c1 0 1.8-.8 1.8-1.8v-8.4c0-1-.8-1.8-1.8-1.8H28c-1 0-1.8.8-1.8 1.8z" class="st4"/><path d="M32.9 41.2c0 1 .8 1.8 1.8 1.8s1.8-.8 1.8-1.8c0-.7-.4-1.4-1.1-1.7h.6c.3 0 .5-.2.5-.5v-.9c0-.3-.2-.5-.5-.5h-2.6c-.3 0-.5.2-.5.5v.9c0 .3.2.5.5.5h.6c-.7.3-1.1.9-1.1 1.7zM29 28.4v4.9h2.1v-4.9c0-.5.1-.9.3-1.3.5-1.3 1.8-2.3 3.4-2.3 1.5 0 2.8 1 3.4 2.3.2.4.3.9.3 1.3v4.9h2.1v-4.9c0-1.4-.5-2.7-1.3-3.7-.2-.3-.5-.5-.7-.7-1-.8-2.3-1.4-3.7-1.4s-2.7.5-3.7 1.3c-.9.8-1.6 1.9-1.9 3.1-.3.5-.3.9-.3 1.4z" class="st4"/></svg>