<svg xmlns="http://www.w3.org/2000/svg" version="1" viewBox="0 0 50 50"><path fill="#AFE55D" d="M41.349 31.566c.005-.172.026-.339.026-.512a16.34 16.34 0 00-5.95-12.628L35.427 13c0-5.752-4.676-10.429-10.428-10.429C19.254 2.571 14.57 7.248 14.57 13v5.43a16.342 16.342 0 00-5.945 12.624c0 4.192 1.589 8.004 4.18 10.901l28.544-10.389zM20.544 13.575a4.458 4.458 0 014.455-4.456c1.221 0 2.345.506 3.147 1.308a4.45 4.45 0 011.308 3.148v2.604a16.023 16.023 0 00-4.455-.619c-1.543 0-3.043.209-4.455.619v-2.604z"/><path fill="#C3FF68" d="M20.627 12.744a4.455 4.455 0 014.372-3.625 4.43 4.43 0 012.794 1.017l6.266-2.281c-1.796-3.151-5.18-5.284-9.061-5.284C19.253 2.571 14.57 7.248 14.57 13v1.949l6.057-2.205z"/><g fill="#031326"><path d="M36.675 17.85l.002-4.85c0-6.439-5.239-11.679-11.678-11.679-6.44 0-11.679 5.24-11.679 11.679v4.855a17.573 17.573 0 00-5.945 13.199c0 9.719 7.907 17.625 17.625 17.625 4.085 0 8.067-1.43 11.213-4.026a1.251 1.251 0 00-1.592-1.928A15.141 15.141 0 0125 46.179c-8.34 0-15.125-6.785-15.125-15.125 0-4.523 2.001-8.774 5.492-11.66l.013-.011A15.889 15.889 0 0125 16.118a15.9 15.9 0 019.629 3.271 15.088 15.088 0 015.489 12.144 1.248 1.248 0 001.213 1.285c.695.046 1.267-.522 1.285-1.213a17.576 17.576 0 00-5.941-13.755zM24.999 3.821c5.061 0 9.178 4.118 9.178 9.178l-.002 4.846a16.86 16.86 0 00-4.227-1.968l.002-.008v-2.295a4.96 4.96 0 00-4.952-4.952 4.958 4.958 0 00-4.952 4.952v2.295l.002.009a16.876 16.876 0 00-4.228 1.971V13c0-5.061 4.118-9.179 9.179-9.179zm-3.953 11.78v-2.028a3.957 3.957 0 013.952-3.952 3.956 3.956 0 013.952 3.952V15.6a16.822 16.822 0 00-3.95-.483c-1.34.001-2.666.173-3.954.484z"/><path d="M25 18.994c-6.65 0-12.06 5.41-12.06 12.06 0 6.649 5.41 12.06 12.06 12.06 6.649 0 12.06-5.41 12.06-12.06S31.649 18.994 25 18.994zm0 23.369c-6.236 0-11.31-5.073-11.31-11.31s5.074-11.31 11.31-11.31 11.31 5.073 11.31 11.31-5.074 11.31-11.31 11.31z"/><path d="M23.121 25.639l.384 1.857-1.648.017c-.654 1.212-.985 2.398-.985 3.54 0 2.999 2.31 5.632 3.566 6.844.009 0 .018.009.018.009a.873.873 0 00.279.122v-13.95a.992.992 0 00-.297.131c-.375.358-.846.846-1.317 1.43zm2.476-1.395a1 1 0 00-.331-.166v13.95a.856.856 0 00.288-.131s.008 0 .008-.009c0 0 .009 0 .009-.009 1.264-1.212 3.557-3.845 3.557-6.827 0-2.973-2.25-5.571-3.522-6.801l-.009-.007z"/></g></svg>