<svg xmlns="http://www.w3.org/2000/svg" version="1" viewBox="0 0 50 50"><path fill="#D5FF96" d="M10.872 36.514l25.392-9.242 5.78-5.775 6.272-6.274a1.837 1.837 0 000-2.6l-5.582-5.58a2.34 2.34 0 00-3.307 0L18.945 27.525l-8.577-8.577a2.34 2.34 0 00-3.307 0l-5.23 5.23a2.338 2.338 0 00.002 3.307l9.04 9.027z"/><path fill="#C3FF68" d="M48.42 12.75c-.036-.04-.065-.085-.104-.125l-5.582-5.582a2.34 2.34 0 00-3.307 0L25.31 21.163l23.11-8.412zM3.462 29.114l12.516-4.556-5.61-5.61a2.34 2.34 0 00-3.306 0l-5.23 5.23a2.338 2.338 0 000 3.31l1.63 1.626z"/><path fill="#031326" d="M18.945 44.754c-.892 0-1.784-.34-2.463-1.018L1.022 28.298A3.46 3.46 0 010 25.834c0-.93.362-1.807 1.02-2.465l5.23-5.23a3.49 3.49 0 014.93 0l7.766 7.766 19.67-19.673c1.317-1.316 3.613-1.316 4.93 0l5.58 5.582a2.986 2.986 0 010 4.22l-16.59 16.58a1.146 1.146 0 01-1.62-1.62l16.59-16.58c.27-.27.27-.71 0-.98l-5.582-5.58c-.45-.45-1.235-.45-1.686 0L18.946 29.147 9.558 19.76a1.194 1.194 0 00-1.686 0l-5.23 5.23a1.188 1.188 0 000 1.686l15.46 15.44c.466.463 1.22.463 1.686 0a1.147 1.147 0 011.62 1.623 3.478 3.478 0 01-2.463 1.015z"/></svg>