<svg xmlns="http://www.w3.org/2000/svg" viewBox="0 0 50 50"><path fill="#dc5e82" d="M10.9 36.5l25.4-9.2 5.8-5.8 6.3-6.3c.7-.7.7-1.9 0-2.6L42.7 7c-.9-.9-2.4-.9-3.3 0L18.9 27.5l-8.6-8.6c-.8-.9-2.3-.9-3.2 0l-5.2 5.2c-.9.9-.9 2.4 0 3.3l9 9.1z"/><path fill="#f56991" d="M48.4 12.8l-.1-.1L42.7 7c-.9-.9-2.4-.9-3.3 0L25.3 21.2l23.1-8.4zM3.5 29.1L16 24.6 10.4 19c-.9-1-2.4-1-3.3-.1l-5.2 5.2c-.9.9-.9 2.4 0 3.3-.1.1 1.6 1.7 1.6 1.7z"/><path fill="#031326" d="M18.9 44.8c-.9 0-1.8-.3-2.5-1L1 28.3c-.7-.7-1-1.5-1-2.5 0-.9.4-1.8 1-2.5l5.2-5.2c1.4-1.4 3.6-1.4 4.9 0l7.8 7.8L38.6 6.2c1.3-1.3 3.6-1.3 4.9 0l5.6 5.6c1.2 1.2 1.2 3.1 0 4.2L32.5 32.6c-.5.4-1.2.4-1.6 0-.4-.4-.4-1.1 0-1.6l16.6-16.6c.3-.3.3-.7 0-1l-5.6-5.6c-.5-.4-1.2-.4-1.7 0L18.9 29.1l-9.4-9.4c-.5-.5-1.2-.5-1.7 0L2.6 25c-.5.5-.5 1.2 0 1.7l15.5 15.4c.5.5 1.2.5 1.7 0 .5-.4 1.2-.4 1.6 0 .4.4.4 1.1 0 1.6-.6.7-1.5 1.1-2.5 1.1z"/></svg>