<svg xmlns="http://www.w3.org/2000/svg" id="Camada_3" x="0" y="0" version="1.1" viewBox="0 0 50 50" xml:space="preserve"><style>.st2{fill:none;stroke:#444;stroke-linecap:round;stroke-linejoin:round;stroke-miterlimit:10}.st4{fill:#444}</style><path fill="#81cad2" d="M40.58 5.28L6.5 6.44.93 26.83l45.96-16.35z"/><path fill="#72babf" d="M2.35 26.11l-.63 5.53 5.77 5.56h15.98l-4.28 3.98 29.29-10.42-1.99-20.36z"/><path d="M21.74 26.6l.35-.35c.58-.58.58-1.52 0-2.1l-4.55-4.55c-.19-.2-.48-.34-.76-.34H3.64c-.55 0-.99.44-.99.99v9.9c0 .55.44.99.99.99h13.14c.28 0 .57-.14.76-.34l1.75-1.75" class="st2"/><path d="M21.84 21.83c.26-.06.53-.1.81-.1 1.91 0 3.47 1.55 3.47 3.47 0 1.91-1.55 3.47-3.47 3.47-1.91 0-3.47-1.55-3.47-3.47m1 0H18.2" class="st2"/><path fill="none" stroke="#444" stroke-linecap="round" stroke-linejoin="round" stroke-miterlimit="10" stroke-width=".25" d="M6.5 26.36v.5c0 .55.44.99.99.99s.99-.44.99-.99v-.28c.03-1.01-1.98-1.41-1.98-2.42v-.28c0-.55.44-.99.99-.99s.99.44.99.99v.5m3.47 3.47H9.96V22.9h1.99m-1.99 2.47h1.49m2.51 2.48h-.06a.96.96 0 01-.96-.96v-3.03c0-.53.43-.96.96-.96h.06c.53 0 .96.43.96.96v3.03c0 .53-.43.96-.96.96z"/><path d="M41.65 4.7H9.45c-2.78 0-5.04 2.28-5.04 5.08v9.17h1.44v-4.3h39.4v6.6c.63.42.97 1.12 1.05 1.85.15.22.28.45.39.71V9.78c0-2.8-2.26-5.08-5.04-5.08zM30.1 11.78c-.81 0-1.46-.62-1.46-1.38 0-.76.65-1.38 1.46-1.38.81 0 1.46.62 1.46 1.38 0 .76-.66 1.38-1.46 1.38zm5.97 0c-.81 0-1.46-.62-1.46-1.38 0-.76.65-1.38 1.46-1.38.81 0 1.46.62 1.46 1.38 0 .76-.65 1.38-1.46 1.38zm5.97 0c-.81 0-1.46-.62-1.46-1.38 0-.76.65-1.38 1.46-1.38.81 0 1.46.62 1.46 1.38 0 .76-.65 1.38-1.46 1.38zm-16.5 23.97H9.45c-1.99 0-3.6-1.62-3.6-3.63v-.85c-.12.02-.23.04-.35.04-.36.02-.74-.09-1.09-.26v1.07c0 2.8 2.26 5.08 5.04 5.08h15.77a2.086 2.086 0 01.32-1.45z" class="st4"/><path d="M36.08 40.01c0-.03.01-.07.01-.1a11.91 11.91 0 01-7.77-2.9c-4.77-4.15-5.23-11.21-1.05-15.75 4.19-4.55 11.45-4.87 16.21-.72 4.3 3.75 5.74 9.32 2.78 13.82.21.12-.23.79-.03.95.08.07.14.15.21.22 1.44-2.14 2.16-4.67 2.02-7.3-.18-3.34-1.71-6.42-4.29-8.67a13 13 0 00-8.56-3.2c-3.55 0-6.93 1.46-9.27 4.01-2.21 2.4-3.33 5.51-3.15 8.75.12 2.23.86 4.35 2.09 6.18l-6.09 6.35c-.6.63-.92 1.42-.88 2.16.03.59.29 1.11.71 1.46l1.36 1.14c.38.32.85.48 1.38.48.78 0 1.62-.38 2.23-1.02l6.07-6.34c1.83.94 3.87 1.45 5.96 1.45.08 0 .16-.01.24-.01-.1-.3-.16-.63-.18-.96zm-12.83 5.12c-.63.66-1.54.86-2.02.45l-1.36-1.14c-.49-.41-.37-1.27.26-1.93l6.12-6.39a11.877 11.877 0 003.03 2.72l-6.03 6.29z" class="st4"/><path fill="none" stroke="#444" stroke-miterlimit="10" stroke-width=".25" d="M35.91 37.66a8.89 8.89 0 01-8.89-8.89 8.89 8.89 0 018.89-8.89 8.89 8.89 0 018.89 8.89 8.89 8.89 0 01-8.89 8.89z"/><path fill="none" stroke="#444" stroke-linecap="round" stroke-linejoin="round" stroke-miterlimit="10" stroke-width="2.5" d="M47.07 34.91c.42-.66.74-1.32.98-1.95.66-1.75.72-3.37.7-4.73-.05-3.07-1.86-6.09-1.86-6.09V8.21s-.2-3.5-5.24-3.5H9.45s-5.04 0-4.98 4.31c.05 3.65-.05 9.28-.05 9.28s-2.7-.43-2.7 2.44c0 3.16.09 9.81.09 9.81s-.09 1.48 2.6 1.58c0 0 .06 5.08 5.55 5.08h13.5l-3.6 3.75s-3.2 2.92-1.35 4.44c1.78 1.46 2.51 1.95 2.51 1.95s1.11.96 2.94-.87c1.14-1.14 6.22-6.59 6.22-6.59s4.64 2.28 8.85.71"/></svg>