<svg xmlns="http://www.w3.org/2000/svg" version="1" viewBox="0 0 50 50"><path fill="#00C8E2" d="M14.986 40.671l27.771-10.108c.55-1.757.847-3.626.847-5.565 0-10.274-8.329-18.603-18.603-18.603-10.274 0-18.603 8.329-18.603 18.603 0 6.586 3.425 12.367 8.588 15.673z"/><path fill="#00DFFC" d="M33.734 8.41a18.517 18.517 0 00-8.415-2.014c-7.684 0-14.279 4.659-17.116 11.307L33.734 8.41z"/><g fill="#031326"><path d="M33.241 16.865a.778.778 0 00-.758.602l-.258 1.108c-1.774-1.993-4.351-3.257-7.223-3.257s-5.447 1.264-7.222 3.256l-.26-1.108a.778.778 0 00-.758-.601h-1.775a.778.778 0 00-.754.971l1.307 5.124a9.632 9.632 0 002.129 8.343l.317 1.244a.778.778 0 00.754.586h1.029a9.617 9.617 0 0010.464 0h1.039a.777.777 0 00.754-.586l.32-1.257a9.635 9.635 0 002.117-8.322l1.306-5.131a.778.778 0 00-.754-.97h-1.774zm-1.188 2.445l-1.254 5.382h-2.126l-1.884-7.245a.778.778 0 00-.753-.582h-.727v-.919a9.051 9.051 0 016.744 3.364zm-1.5 6.434a37.67 37.67 0 00-.445 2.097 38.34 38.34 0 00-.356 2.164c-.082-.601-.2-1.32-.356-2.159a33.028 33.028 0 00-.389-1.869l-.175-.672h1.824l-.103.439zm-5.858-1.052h-.472l.021-.083a43.59 43.59 0 00.412-1.897l.039-.197v2.177zm.613-2.095l.021.104c.197.953.336 1.582.417 1.886l.027.105h-.465v-2.095zm-.613-6.65v.919h-.716a.778.778 0 00-.753.582l-1.884 7.245h-2.128l-1.262-5.384a9.044 9.044 0 016.743-3.362zm-4.139 12.095a30.825 30.825 0 00-.306 1.964c-.163-1.202-.427-2.622-.79-4.262l-.103-.438h1.824l-.175.672c-.14.489-.29 1.177-.45 2.064zm-4.573-3.35h-.033c.001-.037.004-.073.006-.109l.027.109zm-.034.614h.19l1.12 4.389a8.998 8.998 0 01-1.31-4.389zm5.5 7.826c.355 0 .665-.24.754-.584l1.863-7.242h.629v8.745a8.98 8.98 0 01-3.677-.919h.431zm3.859.919v-8.745h.623l1.867 7.243a.779.779 0 00.754.584h.432a8.983 8.983 0 01-3.676.918zm8.561-8.745h.185a9 9 0 01-1.296 4.365l1.111-4.365zm.184-.614h-.029l.024-.093.005.093z"/><path d="M25.002 9.572c-8.507 0-15.427 6.921-15.427 15.427s6.921 15.427 15.427 15.427 15.427-6.921 15.427-15.427c-.001-8.507-6.921-15.427-15.427-15.427zm0 29.626c-7.83 0-14.2-6.37-14.2-14.2 0-7.83 6.37-14.2 14.2-14.2s14.2 6.37 14.2 14.2c-.001 7.83-6.371 14.2-14.2 14.2z"/><path d="M46.717 23.973H44.6C44.083 13.966 36.034 5.917 26.027 5.4V3.283a1.023 1.023 0 10-2.046 0V5.4c-10.009.514-18.06 8.564-18.578 18.573h-2.12a1.023 1.023 0 100 2.046h2.12a19.482 19.482 0 005.722 12.858 19.486 19.486 0 0012.857 5.721v2.12a1.023 1.023 0 102.046 0v-4.139h-1.025a17.466 17.466 0 01-12.432-5.149 17.459 17.459 0 01-5.149-12.428l.001-.005-.001-.004c.004-9.686 7.88-17.564 17.565-17.573.006 0 .012.004.018.004.006 0 .011-.003.017-.003 9.679.011 17.55 7.882 17.56 17.562l-.003.015c0 .006.003.011.003.017a17.562 17.562 0 01-.8 5.246 1.023 1.023 0 001.952.612c.492-1.571.771-3.2.856-4.852h2.128a1.023 1.023 0 10-.001-2.048z"/></g></svg>