<svg xmlns="http://www.w3.org/2000/svg" id="Layer_1" x="0" y="0" version="1.1" viewBox="0 0 48 47" xml:space="preserve"><style>.st1{fill:none;stroke:#494949;stroke-miterlimit:10}</style><path fill="#fcc34f" d="M20.6 1.8L8.4 5.1c-1.4 0-7 11.3-7 12.7l2.4 11.1-.8 6.2 5.9 8.7 9.8 1.4 7.4-3.3 2.6-4.3 2.9 2.4 15.3-5.4-10.6-9.4.5-10-4.4-8.5C32.3 5.3 22 1.8 20.6 1.8z"/><path d="M27.9 30.3l9.2 9.6c1.5 1.5 3.8 1.4 5.2-.2 1.4-1.7 1.1-4.4-.7-5.6L31.3 27" class="st1"/><path fill="#494949" d="M46 37.7c-.6-.1-1.1-.6-1.1-1.2v-.6c-.1-1.8-1-3.4-2.5-4.4l-8-5.7c.7-1.6 1.1-3.3 1.2-5 .4-4.4-1-8.9-4-12.3-.2-.1-.3-.3-.4-.4-.1-.1-.1-.2-.3-.3-3-3.1-7.1-4.8-11.4-4.8-4.3 0-8.3 1.7-11.6 5.1-2.8 2.9-4.3 6.6-4.6 10.4v.6c-.2 3.1.5 6.1 2.1 8.9-.2.5-.2 1.1-.1 1.6.1.4.2.8.4 1.1-.6.5-1.1 1.1-1.3 1.8-.2.6-.2 1.1-.1 1.7l.3 1.8c.3 1.3 1.3 2.4 2.6 2.7-.2 1.3.4 2.6 1.5 3.4l1.5 1c.6.4 1.2.6 1.9.6s1.3-.2 1.8-.5c.6.8 1.7 1.4 2.8 1.4.2 0 .4-.1.6-.1l1.8-.4c.9-.1 1.7-.6 2.2-1.4.2-.3.4-.7.5-1.1h.5c1.2 0 2.3-.6 2.9-1.5l1-1.5c.5-.8.7-1.7.5-2.6-.1-.4-.2-.8-.4-1.1.3-.2.6-.5.8-.8l6.7 6.7c.6.6 1.3 1.1 2.1 1.4.5.2.8.7.7 1.3-.1.7-.9 1.1-1.5.9-1.1-.5-2.2-1.1-3-2L28.8 39c-.1.2-.2.5-.4.7l-1 1.5c-.9 1.3-2.3 2.2-3.8 2.5v.1c-.9 1.3-2.3 2.2-3.8 2.5l-1.8.4c-.4.1-.7.1-1.1.1-1.2 0-2.4-.4-3.4-1.1-.4.1-.8.1-1.2.1-1.2 0-2.3-.3-3.3-1l-1.5-1C6.2 42.9 5.3 41.5 5 40c-1.5-1-2.4-2.4-2.7-4L2 34.2c-.2-1-.1-2 .2-2.9.2-.5.5-1.1.8-1.6-.1-.6-.2-1.2-.1-1.7-1.4-2.8-2.1-6-2-9.3V18c.4-4.5 2.3-8.7 5.4-11.9C9.8 2.5 14.5.5 19.5.5c5.1 0 9.7 2 13.3 5.6 0 0 .2.2.2.3.1.2.2.3.3.4 3.3 3.8 5 9 4.6 14.1-.1 1.3-.3 2.5-.7 3.8l6.5 4.7c2.1 1.5 3.4 3.7 3.6 6.2v1c0 .6-.6 1.1-1.3 1.1z"/><path fill="none" stroke="#494949" stroke-linecap="round" stroke-linejoin="round" stroke-miterlimit="10" stroke-width=".5" d="M14.4 9.7s11.5-4.1 14.9 6.7"/><path d="M26.1 31.5c4.3-2.3 7.2-6.8 7.2-12 0-7.6-6.1-13.7-13.7-13.7S5.9 11.9 5.9 19.4c0 2.6.7 5 2 7.1" class="st1"/><g fill="none" stroke="#444" stroke-linecap="round" stroke-linejoin="round" stroke-miterlimit="10"><circle cx="16" cy="32.5" r="4.3" stroke-width=".5" transform="rotate(-56.559 15.995 32.548)"/><path d="M25.9 31.3l-.3-1.6c-.1-.3-.4-.5-.7-.5l-1.9.3c-.3 0-.5-.1-.6-.3-.2-.5-.5-.9-.9-1.3-.2-.2-.2-.5-.1-.7l.9-1.7c.2-.3.1-.6-.2-.8l-1.3-.9c-.3-.2-.6-.1-.8.1l-1.2 1.5c-.2.2-.4.3-.7.2-.5-.2-1-.3-1.6-.3-.3 0-.5-.2-.5-.4l-.5-1.8c-.1-.3-.4-.5-.7-.4l-1.6.3c-.3.1-.5.4-.5.7l.2 1.9c0 .3-.1.5-.3.6-.5.2-.9.5-1.3.9-.2.2-.5.2-.7.1l-1.7-.9c-.3-.2-.6-.1-.8.2l-.9 1.3c-.2.3-.1.6.1.8l1.5 1.2c.2.2.3.4.2.7-.2.5-.3 1-.3 1.6 0 .3-.2.5-.4.5l-1.8.5c-.3.1-.5.4-.4.7l.3 1.6c.1.3.4.5.7.5l1.9-.3c.3 0 .5.1.6.3.2.5.5.9.9 1.3.2.2.2.5.1.7l-.9 1.7c-.2.3-.1.6.2.8l1.3.9c.3.2.6.1.8-.1l1.2-1.5c.2-.2.4-.3.7-.2.5.2 1 .3 1.6.3.3 0 .5.2.5.4l.5 1.8c.1.3.4.5.7.4l1.6-.3c.3-.1.5-.4.5-.7l-.3-1.8c0-.3.1-.5.3-.6.5-.2.9-.5 1.3-.9.2-.2.5-.2.7-.1l1.7.9c.3.2.6.1.8-.2l.9-1.3c.2-.3.1-.6-.1-.8l-1.5-1.2c-.2-.2-.3-.4-.2-.7.2-.5.3-1 .3-1.6 0-.3.2-.5.4-.5l1.8-.5c.4-.1.6-.5.5-.8z"/></g><circle cx="16" cy="32.6" r="2.4" fill="#444"/></svg>