<svg xmlns="http://www.w3.org/2000/svg" id="Layer_1" x="0" y="0" version="1.1" viewBox="0 0 50 50" xml:space="preserve"><style>.st1,.st3{fill:none;stroke:#444;stroke-miterlimit:10}.st1{stroke-linecap:round;stroke-linejoin:round}.st3{stroke-width:.5}</style><path fill="#e589ef" d="M44.3 10.6l-2.8 25.5-24.2 8.8C11.6 47 5.8 40.6 6.1 34.5c0-.6-.2 1-.2.7l-2-24.7c0-2.4 1.3-3.9 4.7-4.7l13-3.6c.9-.3 1.8-.4 2.6-.4s1.7.2 2.6.4l13 3.6c3.4.8 4.6 2.3 4.5 4.8z"/><circle cx="31.6" cy="23" r="4.6" class="st1"/><circle cx="31.6" cy="23" r="6.8" class="st1"/><path d="M33.6 29.5v8.9c0 1-.8 1.8-1.8 1.8s-1.8-.8-1.8-1.8v-8.7m-1.8 1.4h7.3" class="st1"/><path fill="#444" d="M40.1 4.5L27.1.9c-1.1-.3-2-.5-3-.5-.9 0-1.8.2-2.9.5l-13 3.6c-3.8.9-5.6 2.9-5.5 6.1l2 24.7C5.1 41.1 7 43 11 44.9l11 4.5c.8.2 1.5.4 2.2.4.8 0 1.5-.1 2.3-.4l6.5-2.6c.7-.3 1-1 .7-1.7-.3-.6-1-1-1.7-.7L25.6 47c-.9.3-1.8.3-2.7 0l-10.8-4.4c-3.3-1.5-4.7-2.6-5-7.4l-2-24.6c0-1.3.2-2.7 3.6-3.5l13.1-3.6c1-.4 1.6-.5 2.3-.5.7 0 1.4.1 2.3.4L39.5 7c3.4.8 3.6 2.2 3.6 3.5l-3.7 27.8c0 .7.5 1.3 1.2 1.4.7 0 1.3-.5 1.4-1.2l3.7-27.9c-.1-3.2-1.9-5.1-5.6-6.1z"/><path d="M26 18.8c-.5-3.2-3.3-5.6-6.6-5.6a6.7 6.7 0 000 13.4c2.2 0 4.2-1.1 5.4-2.7" class="st3"/><path d="M13.3 16.8s2.7.2 3.2 2.2 2.7 2.5 2.7 2.5 2.7.5-.7 3.2c-1.4 1.1-2.2.9-2.2.9m5.3.3s-1.4-5.2 3.3-3.9m.5-1.9s-2.1 1.3-3.3-1.7-4.2-1.9-4.2-1.9-2.1 1-1.7-2.2" class="st3"/><path d="M27.8 17.1c-.1-.4-.3-.8-.5-1.2l.6-1-2.3-2.6-1 .5c-.9-.7-2-1.2-3.1-1.4l-.4-1.1h-3.4l-.3 1.1c-1 .2-2 .6-2.9 1.2l-1.1-.6-2.3 2.5.6.9c-.5.8-.9 1.7-1.1 2.7l-1.2.5.3 3.4.9.2c.2.9.6 1.8 1.1 2.6l-.6 1.1 2.4 2.4 1-.6c.9.6 1.8 1 2.9 1.2l.3 1.1h3.4l.3-1.1c.7-.2 1.4-.4 2.1-.8l1 .6 1.9-1.4" class="st3"/></svg>