<svg xmlns="http://www.w3.org/2000/svg" id="Camada_3" x="0" y="0" version="1.1" viewBox="0 0 50 50" xml:space="preserve"><style>.st2,.st4{fill:none;stroke:#444;stroke-linecap:round;stroke-linejoin:round;stroke-miterlimit:10}.st4{stroke-width:.5}</style><path fill="#00dffc" d="M43.5 5.9L9.8 4.6c-.9 0-3.4 1.7-5.8 2.8-1.2.5-3 3.5-3 4.8v11.6L47.1 7.4c0-1.2-2.5-1.5-3.6-1.5z"/><path fill="#00c8e2" d="M1 25.7l.4 9.6c0 1 3.6 3 8.5 3.7 1.7.2.6-4.8 4.2-5.2 1.5-.2.7 10.5 1.1 10.3l33.5-11.7c1.1-.4-.4-.7-.4-1.9l.4-18.9c-.1-1.8-.9-4.4-2.6-3.8L2.8 23.1c-1.1.4-1.8 1.4-1.8 2.6z"/><path d="M2.4 9.7s0-4.6 21.9-4.6c23.1 0 23.4 4.1 23.4 4.1v25.5c0 .6-.3 1.2-.9 1.5-1.1.6-3.2 1.6-6.5 1.5L40.1 12s6.6-.6 7.6-2.9" class="st2"/><path d="M2.4 9.7v25.7c0 .5.3 1 .7 1.3 1 .6 3.2 1.7 6.6 1.6l.3-25.7S3.4 12 2.4 9.7m13.3 23c-1.9 0-3.9.8-5.9 1.8m30.6 0s-2.7-1.8-5.6-1.8" class="st2"/><path fill="none" stroke="#444" stroke-linecap="round" stroke-linejoin="round" stroke-miterlimit="10" stroke-width=".5" d="M12.1 16.9s3.7-6 5.2-2c0 0 4.5-17.2 9.1.3 0 0 2.9-5.5 4.6.2 0 0 3.5-5 6.1 1.1"/><path d="M22.1 29.1h-3.2" class="st4"/><path fill="#444" d="M22.2 19.9c0 .3.2.6.6.6h4.8c.2-.1.4-.3.4-.6s-.2-.6-.6-.6h-4.7c-.3 0-.6.2-.5.6z"/><path fill="none" stroke="#444" stroke-linecap="round" stroke-linejoin="round" stroke-miterlimit="10" d="M16.1 21.5h18"/><path fill="none" stroke="#444" stroke-linecap="round" stroke-miterlimit="10" d="M19.4 46.7c-2 0-3.6-1.7-3.6-3.7V21c0-2 1.6-3.5 3.5-3.5h11.5c2 0 3.5 1.6 3.5 3.5v19.3"/><path d="M27.3 36.6h3.1m-11.5 0h6.4m2-1.9v3.6m3.1-9.2h-6.1m-2.2 1.8v-3.5" class="st4"/><path fill="none" stroke="#444" stroke-linecap="round" stroke-linejoin="round" stroke-miterlimit="10" stroke-width="2" d="M24.2 42.8H26"/><path fill="none" stroke="#444" stroke-linecap="round" stroke-linejoin="round" stroke-miterlimit="10" stroke-width="2.5" d="M35.1 40.9c0-3.3.1-7.3.1-7.3s3.2.4 4.2 1.6v3.1s5.9 1.5 9.2-2.5V8.4s-1.3-4.2-24-4.2S1.4 9.9 1.4 9.9v25.3s-.2 3.5 7.7 3.9c1 0 1.8-.7 1.8-1.6v-2.4s2.7-1.4 4.2-1.4l.1 10.5c0 .7.2 1.4.6 1.9.5.7 1.5 1.4 3.2 1.4h7.1"/></svg>