<svg xmlns="http://www.w3.org/2000/svg" viewBox="0 0 50 50"><style>.st2,.st5{fill:none;stroke:#444;stroke-linecap:round;stroke-linejoin:round;stroke-miterlimit:10}.st5{stroke-width:.5}</style><g id="Layer_1"><path fill="#f56991" d="M44.9 5.7l-37.8.5c-2.9 0-5.3 2.4-5.3 5.3v13.7l47-16.7-3.9-2.8z"/><path fill="#dc5e82" d="M1.9 25.2l.5 8.4c.4 6.3 9.7 6.2 16 6.2l-.4 5 15.4-5.5L49 33.8V8.5L1.9 25.2z"/><path d="M33 38.8l-25.7-.1c-2.6 0-5.5-2-5.5-4.6M32 44.8H18.2c-.5 0-.9-.6-.6-1L20 39h10.3l2.5 4.8c.1.5-.3 1-.8 1zM3 33h44.2" class="st2"/><circle cx="25.1" cy="35.9" r="1.6" fill="#444"/><path fill="none" stroke="#444" stroke-linecap="round" stroke-linejoin="round" stroke-miterlimit="10" stroke-width="2.5" d="M48.7 34.3V11.9c0-3.4-2.8-6.2-6.2-6.2H7.9c-3.4 0-6.2 2.8-6.2 6.2v21.4c0 3.4 2.8 6.2 6.2 6.2h10.6L16.7 44c-.4.9.3 1.8 1.2 1.9l14.4.1c1 0 1.6-1 1.2-1.9l-1.9-4.6h5.8"/><path d="M38.6 27.3l-1.4 2.3-2.2-7.8 7.8 2.3-2.4 1.3 2.9 2.9-1.8 1.8z" class="st5"/><circle cx="11.2" cy="14.7" r="4.2" class="st5"/><path d="M29.2 11.5l-6.3-2.4-5.2 4.3 1 6.7 6.4 2.4 5.2-4.3zM15.6 24.4l-9.2-4.6L7 30z" class="st5"/><path d="M33.4 20.6s-3.6-1.5-4 4.8-9.5 6-8-1.6M39 18.6l-3.7-2.2c-1.5-.9-2.1-2.9-1.2-4.4.9-1.5 2.9-2.1 4.4-1.2l3.7 2.2c1.5.9 2.1 2.9 1.2 4.4-.8 1.6-2.8 2.1-4.4 1.2z" class="st5"/><path d="M15.5 27.2l-3 2.7m4.5-2.6l-.5 3.8m1.7-3.4l1.1 3m-1.9-19.5l2.5 3.1m-.5-4.6l2.1 3.7m16.2 1.3l-6.3 1.7 4.3 3zM6.2 10s-2.5 4 .6 3.7c3.1-.2 2.5 2.5 2.5 2.5" class="st2"/></g></svg>