<svg xmlns="http://www.w3.org/2000/svg" viewBox="0 0 50 50"><path fill="#fdcf72" d="M34.2 4.5L43 10l3.4 7.1L4.1 33.5l-.9-15.6 7.4-8.3 13.2-8.2z"/><path fill="#fcc34f" d="M46.5 21.8v2l-38.9 14-2.5-1.4-1-1.3-.6-3 .3-3.9 42.3-16.3-.5.2 1.2 3.7z"/><path fill="#444" fill-rule="evenodd" d="M5.3 32.5H16l-1.7 5.2h-9v-5.2zm0-9.9h14l-1.7 5.2H5.3v-5.2zm0-10h17.3l-1.7 5.2H5.3v-5.2zm22.8 0h17.7v5.2H26.4l1.7-5.2zm-5 15.2l1.7-5.2h21v5.2H23.1zm-1.6 4.7h24.3v5.2h-26l1.7-5.2z" clip-rule="evenodd"/><path fill="none" stroke="#444" stroke-linecap="round" stroke-linejoin="round" stroke-miterlimit="10" stroke-width="2.5" d="M20.4 46.7l2.2 1.3c1.7 1 3.8 1 5.5 0l15.6-9c1.7-1 2.7-2.8 2.7-4.7v-18c0-2-1-3.8-2.7-4.7l-15.6-9c-1.7-1-3.8-1-5.5 0L7 11.5c-1.7 1-2.7 2.8-2.7 4.7v18c0 2 1 3.8 2.7 4.7l2.5 1.4"/></svg>