<?xml version="1.0" encoding="utf-8"?>
<!-- Generator: Adobe Illustrator 26.5.0, SVG Export Plug-In . SVG Version: 6.00 Build 0)  -->
<svg version="1.1" id="Camada_3" xmlns="http://www.w3.org/2000/svg" xmlns:xlink="http://www.w3.org/1999/xlink" x="0px" y="0px"
	 viewBox="0 0 50 50" style="enable-background:new 0 0 50 50;" xml:space="preserve">
<style type="text/css">
	.st0{fill:#C3FF68;}
	.st1{fill:#AFE55D;}
	.st2{fill-rule:evenodd;clip-rule:evenodd;fill:#444444;}
	.st3{fill:none;stroke:#444444;stroke-width:2.5;stroke-linecap:round;stroke-linejoin:round;stroke-miterlimit:10;}
</style>
<g>
	<polygon class="st0" points="33.4,4.78 42.22,10.34 45.59,17.39 3.29,33.8 2.35,18.24 9.82,9.86 23,1.66 	"/>
	<polygon class="st1" points="45.72,22.07 45.69,22.55 45.67,24.1 6.75,38.08 4.28,36.68 3.22,35.45 2.71,32.37 2.97,28.5 
		45.29,12.24 44.77,12.44 45.99,16.1 	"/>
	<path class="st2" d="M4.48,32.84l10.68,0l-1.73,5.24l-8.95,0V32.84z M4.48,22.88l13.98,0l-1.73,5.24l-12.25,0V22.88z M4.48,12.92
		l17.28,0l-1.73,5.24l-15.55,0V12.92z M27.28,12.92l17.69,0v5.24l-19.43,0L27.28,12.92z M22.24,28.12l1.73-5.24l20.99,0v5.24
		L22.24,28.12z M20.68,32.84l24.29,0v5.24l-26.02,0L20.68,32.84z"/>
	<path class="st3" d="M19.56,46.95l2.2,1.27c1.69,0.98,3.78,0.98,5.47,0l15.57-8.99c1.69-0.98,2.74-2.78,2.74-4.74V16.51
		c0-1.96-1.04-3.76-2.74-4.74L27.24,2.78c-1.69-0.98-3.78-0.98-5.47,0L6.19,11.77c-1.69,0.98-2.74,2.78-2.74,4.74v17.98
		c0,1.96,1.04,3.76,2.74,4.74l2.46,1.42"/>
</g>
</svg>
