<svg xmlns="http://www.w3.org/2000/svg" id="Camada_1" x="0" y="0" version="1.1" viewBox="0 0 49 50" xml:space="preserve"><style>.st1{stroke:#444}.st1,.st2,.st4{fill:none;stroke-linecap:round;stroke-linejoin:round;stroke-miterlimit:10}.st2{stroke-width:.5;stroke:#444}.st4{stroke:#464646}</style><path fill="#46b8b0" d="M8.8 22.5l-4.6 5c-.6 1-3.4 6.6 1.8 9.1 1.1.4 1.9 1.4 1.9 1.5.9 3.8 6.8 7.6 11.2 6.2l28.1-10.7c.7-.3-1.1-5.5-1.2-6.2l-1.6-18c-2.7-2.9-14.7-1.1-14.8-1.5-.1-1-1.3-2.8-3.3-4.4l-2.6-1.1c-.1-.8-2.9 5.3-3.8 5.3l-8.8-.1c-1 0-2.7 2.1-2.7 3.1v10.5"/><path d="M47 33.1l-2.2-4.9V11.3c0-1.8-1.5-3.3-3.3-3.3H12c-1.8 0-3.3 1.5-3.3 3.3v16.8l-.9 2.3" class="st1"/><path d="M28.8 30h13.6" class="st2"/><path d="M9.1 28.1h35.6" class="st1"/><path fill="#444" stroke="#444" stroke-linecap="round" stroke-linejoin="round" stroke-miterlimit="10" stroke-width=".5" d="M43.5 33.6h-9.7l-.1-2h8.7z"/><path d="M11.2 10.9h31V26h-31z" class="st2"/><g id="branding_x2F_business_card"><path d="M19.5 7.1l2.1-2.7c1.3-1.8 3.8-2.2 5.6-1 1.1.7 1.6 1.9 1.7 3.1V7M7.1 31.1l7.2-2.8c1.9-.5 3.8.6 4.3 2.6.5 1.9-.6 3.8-2.5 4.3 0 0-7.5 2.5-10 1.7-3.3-.9-4.1-3.1-4.1-5 0-3.6 1.6-5.3 2.9-6.6l2.9-2.9" class="st4"/><path d="M7.8 37.3c-.2 4.2 3.9 5.1 5.7 4.1L27 35.1c1.8-1 2.5-3.2 1.5-5-1-1.8-3.2-2.5-5-1.5l-1 .5-3.9 1.7" class="st4"/><path d="M28.6 30.5l1.6-.3c1.1-.2 2.3.2 3 1.2 1.1 1.4.9 3.4-.5 4.5l-12.3 8.3c-1.4 1.1-3.4.9-4.5-.5-.4-.5-.6-1.1-.7-1.7 0 0-.4-1.3 1.1-2m4.4 4.1l.4.8c.6 1.4 2.7 2.1 4.2 1.1l8.6-6.1c1.1-1.3.8-3.2-.3-4l-.4-.3" class="st4"/></g><path fill="none" stroke="#464646" stroke-linecap="round" stroke-linejoin="round" stroke-miterlimit="10" stroke-width="2.5" d="M29.3 6.9l-.1-.8c-.1-1.2-.6-2.4-1.7-3.1-1.8-1.3-4.3-.8-5.6 1l-2.3 2.9m28 25.8l-2.3-5.1V10.4c0-1.9-1.5-3.4-3.4-3.4H29.3m-8.9 38.3c.6 1.2 1.7 2.3 3.8 2.1.9-.1 1.7-.5 2.4-1l8-5.8s1.5-1.3.9-3.2h4.2m-25.5 4.9c.1.6.3 1.2.7 1.7 1.1 1.4 3.1 2.5 5.3 1.3m-6.4-3.1c-1.8 1-7.1 0-6.9-4.2C2.6 36.7 2 33 2 31c0-3.6 1.8-4.9 3.1-6.2.7-.7 2.2-2 2.2-2l.2-12.5c0-1.9 1.5-3.4 3.4-3.4h8.6"/><path d="M34.5 36.5h5.1" class="st4"/></svg>