<svg xmlns="http://www.w3.org/2000/svg" viewBox="0 0 50 50"><defs><style>.cls-4{fill:#494949}</style></defs><g id="Layer_1" data-name="Layer 1"><path fill="none" stroke="#494949" stroke-miterlimit="10" stroke-width="3.11" d="M-50.54-96.7h425.11v443.81H-50.54z"/><path fill="#dc5e82" d="M46.15 23.76l-.3.1-.3.1L30 29.66l-.9.3-2.5.9-1 .4-14 5.1-3.2 1.2h-3a3 3 0 01-3-3V23l1.2-.4 21.2-7.8 1.2-.4 10-3.7a2.19 2.19 0 00.3.5 11.25 11.25 0 011.2 5.1 11.49 11.49 0 018.65 7.46z"/><path fill="#f56991" d="M36.25 11.16l-10 3.6-1.1.4L14.75 19l-3.5 1.3-7.7 2.9-1.2.4v-7.3a3 3 0 013-3H14a12.21 12.21 0 017.4-8.1 10.72 10.72 0 014.1-.7c5.1 0 10.6 3 10.8 6.1z"/><path d="M46.25 23.76a11.2 11.2 0 00-8.7-7.4 12.31 12.31 0 00-2-.2 11.09 11.09 0 00-8.8 4.3l-1.2 1.8v1.3a9.41 9.41 0 011.2-2.2A10.7 10.7 0 0145.65 24a10.3 10.3 0 01.6 3.5 10.72 10.72 0 01-10.4 10.7h-.6v.6h.6a11.23 11.23 0 0011-11.3 11 11 0 00-.6-3.74z" class="cls-4"/><path d="M30.05 29.66a7.65 7.65 0 00-3-.6h-.3a4.87 4.87 0 00-1.2.1v.6a4.87 4.87 0 011.2-.1h.3a7.61 7.61 0 012.1.3 8.16 8.16 0 016.1 7.9v.8a8.17 8.17 0 01-16.3-.8v-.3a4.87 4.87 0 01.1-1.2h-.6a4.87 4.87 0 00-.1 1.2v.3a8.81 8.81 0 008.8 8.8 8.72 8.72 0 008.7-8v-.8a9 9 0 00-5.8-8.2z" class="cls-4"/><path d="M25.45 32.66v1.9a1.79 1.79 0 01-1.8 1.8H19a4.87 4.87 0 00-.1 1.2h4.8a3 3 0 003-3v-.1zm0 0v1.9a1.79 1.79 0 01-1.8 1.8H19a4.87 4.87 0 00-.1 1.2h4.8a3 3 0 003-3l-1.2-19.8zm.9-17.8c-.1-.3-.3-.4-.4-.6a2.56 2.56 0 00-1.5-.9 2.49 2.49 0 00-.8-.1H5.35a3 3 0 00-3 3v18.3a3 3 0 003 3h18.3a3 3 0 003-3v-18.3a2.91 2.91 0 00-.3-1.4zm-.9 19.7a1.79 1.79 0 01-1.8 1.8H5.35a1.79 1.79 0 01-1.8-1.8v-18.3a1.79 1.79 0 011.8-1.8H24a1.55 1.55 0 011.3.7c.1.1.1.3.2.5V16c.05 6.26.05 12.36-.05 18.56z" class="cls-4"/><path d="M11.65 25.16a3.46 3.46 0 01-1-1.1 2.82 2.82 0 01-.4-1.5 3.06 3.06 0 01.7-2 4.39 4.39 0 011.8-1.2 6.9 6.9 0 012.5-.4 8.59 8.59 0 013.2.5v2.3a4.71 4.71 0 00-1.5-.6 9.85 9.85 0 00-1.7-.2 3.92 3.92 0 00-1.8.4 1.23 1.23 0 00-.7 1.1 1.33 1.33 0 00.3.8 5.55 5.55 0 00.8.6 11.25 11.25 0 001.5.7c.1 0 .1.1.2.1.7.3 1.3.6 1.9.9a3.84 3.84 0 011.1 1.1 3.29 3.29 0 01.4 1.7 3.38 3.38 0 01-.6 2 3.37 3.37 0 01-1.7 1.1 10 10 0 01-2.4.4 16.35 16.35 0 01-2.2-.2 12.09 12.09 0 01-1.8-.5v-2.4a6.08 6.08 0 001.8.9 6.45 6.45 0 002 .3 3.92 3.92 0 001.8-.4 1.15 1.15 0 00.6-1.1 1.14 1.14 0 00-.3-.8 5.5 5.5 0 00-.9-.7 17.78 17.78 0 00-1.8-.8 16.18 16.18 0 01-1.8-1z" class="cls-4"/><path d="M25.45 4.46a12.17 12.17 0 015.6 1.4 11.85 11.85 0 013.5 2.8 28.2 28.2 0 011.7 2.5 16.33 16.33 0 01.9 2.3 12.65 12.65 0 01.3 2.8v.3a11 11 0 018.4 7.2 10.3 10.3 0 01.6 3.5 11 11 0 01-10.7 11h-.3v.3a8.47 8.47 0 01-16.9-.8v-.3a3.75 3.75 0 01.1-1.1c-4.4 0-8.9-.1-13.3-.1a1.65 1.65 0 01-1.8-1.7v-18.3a1.79 1.79 0 011.8-1.8h8.3a10.34 10.34 0 01.3-1.2 13 13 0 017.4-8.1 11.67 11.67 0 014.1-.7zm0-2.5a14.63 14.63 0 00-13.8 10h-6.3a4.27 4.27 0 00-4.3 4.3v18.3a4.27 4.27 0 004.3 4.3h10.7a11 11 0 0010.9 10 10.84 10.84 0 0010.6-8.2A13.45 13.45 0 0049 27.36a13.08 13.08 0 00-.7-4.4 13.48 13.48 0 00-8.4-8.4 15.08 15.08 0 00-1.3-4.6l-.3-.6A14.87 14.87 0 0025.45 2z" class="cls-4"/></g></svg>