<svg xmlns="http://www.w3.org/2000/svg" id="Layer_1" x="0" y="0" version="1.1" viewBox="0 0 50 50" xml:space="preserve"><style>.st2{fill:#494949}</style><path fill="#71bac0" d="M46.6 23.2l-.3.1-.3.1-15.6 5.7-.9.3-2.5.9-1 .4-14 5.1L8.8 37h-3c-1.7 0-3-1.3-3-3V22.4L4 22l21.2-7.8 1.2-.4 10-3.7c.1.2.2.4.3.5.8 1.6 1.2 3.3 1.2 5.1 4.1.8 7.4 3.7 8.7 7.5z"/><path fill="#7ed0d6" d="M36.7 10.6l-10 3.6-1.1.4-10.4 3.8-3.5 1.3L4 22.6l-1.2.4v-7.3c0-1.7 1.3-3 3-3h8.6c1-3.7 3.8-6.7 7.4-8.1 1.8-.7 3.3-.7 4.1-.7 5.1 0 10.6 3 10.8 6.1v.6z"/><path d="M46.7 23.2c-1.3-3.8-4.6-6.7-8.7-7.4-.6-.1-1.3-.2-2-.2-3.6 0-6.8 1.7-8.8 4.3L26 21.7V23c.3-.8.7-1.5 1.2-2.2 1.9-2.8 5.2-4.6 8.8-4.6 4.7 0 8.7 3 10.1 7.2.4 1.1.6 2.3.6 3.5 0 5.8-4.6 10.5-10.4 10.7h-.6v.6h.6c6.1-.1 11-5.1 11-11.3 0-1.3-.2-2.6-.6-3.7z" class="st2"/><path d="M30.5 29.1c-.9-.4-2-.6-3-.6h-.3c-.4 0-.8 0-1.2.1v.6c.4-.1.8-.1 1.2-.1h.3c.7 0 1.4.1 2.1.3 3.5.9 6.1 4.1 6.1 7.9v.8c-.4 4.1-3.9 7.4-8.1 7.4-4.5 0-8.2-3.7-8.2-8.2V37c0-.4 0-.8.1-1.2h-.6c-.1.4-.1.8-.1 1.2v.3c0 4.8 3.9 8.8 8.8 8.8 4.6 0 8.3-3.5 8.7-8v-.8c-.1-3.7-2.5-7-5.8-8.2z" class="st2"/><path d="M25.9 32.1V34c0 1-.8 1.8-1.8 1.8h-4.7c-.1.4-.1.8-.1 1.2h4.8c1.7 0 3-1.3 3-3v-.1l-1.2-1.8zm0 0V34c0 1-.8 1.8-1.8 1.8h-4.7c-.1.4-.1.8-.1 1.2h4.8c1.7 0 3-1.3 3-3l-1.2-19.8v17.9zm.9-17.8c-.1-.3-.3-.4-.4-.6-.2-.3-.7-.7-1.5-.9-.3-.1-.6-.1-.8-.1H5.8c-1.7 0-3 1.3-3 3V34c0 1.7 1.3 3 3 3h18.3c1.7 0 3-1.3 3-3V15.7c0-.3 0-.8-.3-1.4zM25.9 34c0 1-.8 1.8-1.8 1.8H5.8C4.8 35.8 4 35 4 34V15.7c0-1 .8-1.8 1.8-1.8h18.6c.2 0 1 .1 1.3.7.1.1.1.3.2.5v.3c.1 6.3.1 12.4 0 18.6z" class="st2"/><path d="M12.1 24.6c-.4-.3-.8-.7-1-1.1-.3-.5-.4-1-.4-1.5 0-.7.2-1.4.7-2 .5-.5 1.1-1 1.8-1.2.8-.3 1.6-.4 2.5-.4 1.1 0 2.2.1 3.2.5v2.3c-.5-.3-1-.5-1.5-.6-.6-.1-1.1-.2-1.7-.2-.6 0-1.2.1-1.8.4-.4.2-.7.6-.7 1.1 0 .3.1.5.3.8.2.2.5.4.8.6s.8.4 1.5.7c.1 0 .1.1.2.1.7.3 1.3.6 1.9.9.5.3.8.7 1.1 1.1.3.5.4 1.1.4 1.7 0 .7-.2 1.5-.6 2s-1 .9-1.7 1.1c-.8.2-1.6.4-2.4.4-.7 0-1.5-.1-2.2-.2-.6-.1-1.2-.3-1.8-.5v-2.4c.5.4 1.2.7 1.8.9.6.2 1.3.3 2 .3.6 0 1.2-.1 1.8-.4.4-.2.6-.6.6-1.1 0-.3-.1-.6-.3-.8-.3-.3-.6-.5-.9-.7-.4-.2-1-.5-1.8-.8-.6-.3-1.2-.6-1.8-1z" class="st2"/><path d="M25.9 3.9c1.2 0 3.3.2 5.6 1.4.5.3 2.1 1.1 3.5 2.8.9 1.1 1.4 2.1 1.7 2.5.5 1.1.8 1.9.9 2.3.2.9.3 1.8.3 2.8v.3c3.9.7 7.1 3.5 8.4 7.2.4 1.1.6 2.3.6 3.5 0 6-4.8 10.8-10.7 11h-.3v.3c-.4 4.3-4 7.7-8.4 7.7-4.7 0-8.5-3.8-8.5-8.5v-.3c0-.4 0-.8.1-1.1-4.4 0-8.9-.1-13.3-.1C4.8 35.8 4 35 4 34V15.7c0-1 .8-1.8 1.8-1.8h8.3c.1-.3.1-.7.3-1.2.1-.5 1.9-6 7.4-8.1.8-.3 2.2-.7 4.1-.7zm0-2.5c-6.3 0-11.8 4.1-13.8 10H5.8c-2.4 0-4.3 1.9-4.3 4.3V34c0 2.4 1.9 4.3 4.3 4.3h10.7c.5 5.6 5.2 10 10.9 10 5.1 0 9.4-3.4 10.6-8.2 6.5-1 11.4-6.6 11.4-13.3 0-1.5-.2-3-.7-4.4-1.3-4-4.5-7-8.4-8.4-.2-1.6-.6-3.1-1.3-4.6l-.3-.6c-2.6-4.5-7.5-7.4-12.8-7.4z" class="st2"/></svg>