<svg xmlns="http://www.w3.org/2000/svg" version="1" viewBox="0 0 50 50"><path fill="#DC5E82" d="M10.207 36.61v2.61a4.352 4.352 0 004.353 4.353h5.912l.106.062 19.214-6.993v-.032c4.185-3.335 7.627-7.012 7.627-10.094 0-12.251-10.038-22.42-22.42-22.42S2.58 14.133 2.58 26.515c0 3.082 3.442 6.76 7.627 10.095z"/><path fill="#F56991" d="M39.581 9.749c-3.952-3.505-9.14-5.653-14.825-5.653-11.261 0-20.58 8.303-22.176 19.121L39.581 9.749z"/><path fill="#031326" d="M25 2.845c-13.052 0-23.67 10.618-23.67 23.67 0 3.018 2.496 6.519 7.627 10.693v2.012a5.61 5.61 0 005.604 5.604h5.569c1.576.932 2.82 1.623 3.44 1.963a2.97 2.97 0 002.86 0c.619-.338 1.86-1.027 3.441-1.963h5.569a1.25 1.25 0 000-2.5h-3.278a111.327 111.327 0 002.946-1.897.75.75 0 10-.835-1.246c-1.562 1.047-8.4 5.062-9.043 5.413a.473.473 0 01-.46 0c-.645-.353-4.002-2.27-4.002-2.27-2.555-1.526-9.781-6.691-9.781-6.691-4.614-3.678-7.156-6.915-7.156-9.117 0-1.598.193-3.149.53-4.647l10.768 12.833a.498.498 0 00.704.062.5.5 0 00.062-.704L4.667 20.678a21.032 21.032 0 012.31-5.212L17.49 33.671a.502.502 0 00.867-.5L7.581 14.513a21.34 21.34 0 013.966-4.331L19.83 32.94a.5.5 0 00.94-.342L12.383 9.556A21.096 21.096 0 0117.617 6.7l4.551 25.781a.5.5 0 10.984-.174L18.57 6.351c1.877-.6 3.869-.932 5.931-.98v26.901a.5.5 0 001 0V5.371c2.06.049 4.05.38 5.925.979l-4.575 25.958a.5.5 0 10.984.174L32.38 6.699a21.112 21.112 0 015.242 2.861l-8.389 23.046a.5.5 0 10.94.342l8.285-22.762a21.307 21.307 0 013.964 4.332L31.647 33.18a.5.5 0 10.867.5l10.514-18.209a21.04 21.04 0 012.307 5.209L34.092 34.076a.499.499 0 10.766.642L45.64 21.87a21.11 21.11 0 01.53 4.645c0 2.202-2.542 5.44-7.156 9.117a1.25 1.25 0 001.557 1.955c5.45-4.342 8.099-7.964 8.099-11.072 0-13.052-10.618-23.67-23.67-23.67zm-7.111 39.479h-3.328a3.108 3.108 0 01-3.104-3.104v-1.263a96.733 96.733 0 006.432 4.367z"/></svg>