<svg xmlns="http://www.w3.org/2000/svg" id="Layer_1" x="0" y="0" version="1.1" viewBox="0 0 50 50" xml:space="preserve"><style>.st2{fill:#031326}</style><path fill="#fcc34f" d="M40.9 27.6l-23.5 8.6-11.2-15 37-13.5 5.3 7.7z"/><path fill="#fdcf72" d="M44.3 8.9l-37 13.4-5.8-8.7 9.8-10.2 14.6-.5 12.8.5z"/><path d="M49.4 13.6l-9.7-11c-.2-.3-.6-.4-.9-.4H11.3c-.4 0-.7.2-.9.4l-9.7 11c-.4.4-.4 1.1-.1 1.6L24 47.4c.2.3.6.5 1 .5s.7-.2 1-.5l4-5c.4-.5.4-1.3-.2-1.8-.5-.4-1.3-.4-1.8.2l-3 3.7-21.9-30 8.7-9.9h26.3l8.7 9.9L39 27c-.4.6-.2 1.4.4 1.7.6.4 1.4.2 1.7-.4L49.6 15c.2-.4.2-1-.2-1.4z" class="st2"/><path d="M16.8 7.3c-.3-.3-.8-.2-1.1.1l-6.2 7c-.2.3-.3.7 0 .9l14.9 20.5c.1.2.4.3.6.3.2 0 .3 0 .4-.1.3-.2.4-.7.2-1L11.1 15l5.8-6.6c.3-.3.3-.8-.1-1.1z" class="st2"/><path d="M19.2 15L25 8.4c.3-.3.2-.8-.1-1.1-.3-.3-.8-.2-1.1.1l-6.2 7c-.2.3-.3.7 0 .9L32 35.1c.1.2.4.3.6.3.2 0 .3 0 .4-.1.3-.2.4-.7.2-1L19.2 15z" class="st2"/></svg>