<svg xmlns="http://www.w3.org/2000/svg" id="Camada_3" x="0" y="0" version="1.1" viewBox="0 0 50 50" xml:space="preserve"><style>.st4{fill:#444}</style><path fill="#dc5e82" d="M3.35 43.66l-.11-6.36 33.84-18.32 10.91 2.57.04 6.06-.04 4.78.16 4.61-25.74 9.43H3.24z"/><path fill="#f56991" d="M48.17 2.69l-.02 7.21-1.26 13.05-43.9 16.2V19.36"/><path fill="none" stroke="#444" stroke-linecap="round" stroke-linejoin="round" stroke-miterlimit="10" stroke-width="2.5" d="M6.86 2.32h40.78v45.36H1.98V19.22"/><path fill="#444" fill-rule="evenodd" d="M20.93 18.09l-.64 4.45-.03.22 2.99.43 1.99.29 1.39.2 6.37.91.12-.82 1.04-7.25.67-4.67-2.99-.43-.18-.03.11-.8c.13-.88-.12-1.73-.62-2.4-.5-.66-1.25-1.14-2.13-1.26-.88-.13-1.73.12-2.4.62-.66.5-1.14 1.25-1.26 2.13l-.11.8-3.17-.45-1.15 8.06zm6.38.85c-.88-.13-1.63-.6-2.13-1.26s-.74-1.51-.62-2.4l.11-.8.94.13-.11.8c-.09.62.08 1.22.44 1.69a2.27 2.27 0 003.19.45c.47-.35.8-.88.89-1.5l.11-.8.94.13-.11.8c-.13.88-.6 1.63-1.26 2.13-.66.52-1.51.76-2.39.63zm4.19-5.42c-.05.34-.36.57-.7.52a.613.613 0 01-.52-.7c.05-.34.36-.57.7-.52.33.05.56.36.52.7zm-5.99-1.48c.34.05.57.36.52.7-.05.34-.36.57-.7.52a.613.613 0 01-.52-.7.62.62 0 01.7-.52zm3.39-4.17zm.95 3.27l-1.46-.21-2.2-.31.11-.8c.09-.62.42-1.15.89-1.5a2.28 2.28 0 011.69-.44c.62.09 1.15.42 1.5.89.35.47.53 1.07.44 1.69l-.11.8-.86-.12z" clip-rule="evenodd"/><g id="XMLID_6_"><path d="M14.5 14.18l-2-4.62c-.15-.35-.48-.59-.86-.62l-5.55-.51c-.57-.05-1.08.37-1.13.94-.05.57.37 1.08.94 1.13l4.94.45 2.03 4.68 5.8 13.64-3.04 4.6c-.21.32-.23.73-.05 1.06.18.34.53.55.91.55h21.16a1.04 1.04 0 100-2.08H18.42l2.15-3.26 16.62-2.01c.46-.06.83-.42.9-.88l1.75-11.88c.04-.3.13-1.1-.79-1.19l-.12-.02s-.97-.16-1.11.66l-.04.3-.16 1.14-1.46 9.91-15.74 1.91-5.02-11.82" class="st4"/><path id="XMLID_24_" d="M19.43 36.83c-1.86 0-3.37 1.51-3.37 3.37s1.51 3.37 3.37 3.37 3.37-1.51 3.37-3.37c.01-1.85-1.51-3.37-3.37-3.37zm0 4.68c-.72 0-1.3-.58-1.3-1.3 0-.72.58-1.3 1.3-1.3.72 0 1.3.58 1.3 1.3 0 .71-.58 1.3-1.3 1.3z" class="st4"/><path id="XMLID_00000114761813508673451820000001747304648788102556_" d="M34.81 36.83c-1.86 0-3.37 1.51-3.37 3.37s1.51 3.37 3.37 3.37 3.37-1.51 3.37-3.37c.01-1.85-1.51-3.37-3.37-3.37zm0 4.68c-.72 0-1.3-.58-1.3-1.3 0-.72.58-1.3 1.3-1.3.72 0 1.3.58 1.3 1.3 0 .71-.58 1.3-1.3 1.3z" class="st4"/></g><path d="M13.53 15.8h5.57a1.04 1.04 0 100-2.08h-5.57m26.05 0h-2.8a1.04 1.04 0 100 2.08h3l.22-1.67s.06-.41-.42-.41z" class="st4"/></svg>