<svg xmlns="http://www.w3.org/2000/svg" id="Layer_1" x="0" y="0" version="1.1" viewBox="0 0 50 50" xml:space="preserve"><style>.st3{fill:none;stroke:#494949;stroke-width:2;stroke-linecap:round;stroke-linejoin:round;stroke-miterlimit:10}</style><path fill="#46b8b0" d="M46.9 25.9l.4 4.1L2.6 46.3l.2-8.7.4-4.9 44.5-16.2L47 20z"/><path fill="#4ecdc4" d="M47.2 10l-.6 7.4L2.9 33.3V24l.4-4.3 44-16z"/><path fill="none" stroke="#444" stroke-linecap="round" stroke-linejoin="round" stroke-miterlimit="10" stroke-width="2.5" d="M6.5 47.3H2.3V2.7h44.9v44.6H31.7"/><path d="M16.3 31.6v3.8s.5 1.8 2 2.9c1.3 1 9.2 5.4 10.2-6.5.3-3.7 5.6-7.1 5.3-12.8-.4-7.3-7.7-10.3-12.6-8.4s-4.9 8-4.9 8v5.1" class="st3"/><path d="M30.5 20.5c-.2-5-5.3-7.9-9.2-5.5s-1.7 9.5-1.7 9.5 3.2.5 3.1 2.9c-.2 4.1-3.2 4.2-3.2 4.2v1.8s0 2.9 2.3 2.7" class="st3"/></svg>