<svg xmlns="http://www.w3.org/2000/svg" version="1" viewBox="0 0 50 50"><path fill="#7ED0D6" d="M9.753 28.906c.345.565.968.91 1.63.91h2.078l.004-.017v.496l35.52-12.93a1.866 1.866 0 00-.095-.61L44.52 4.16a1.91 1.91 0 00-1.8-1.284h-4.542a1.92 1.92 0 00-1.59.853l-3.842 5.737v.007a11.488 11.488 0 00-7.958-2.996c-2.9.056-5.508 1.23-7.49 3.087l.005-.03-3.89-5.806a1.92 1.92 0 00-1.59-.854H7.28a1.91 1.91 0 00-1.8 1.284l-4.368 12.6a1.912 1.912 0 00.172 1.63l8.47 10.518z"/><path fill="#71BAC0" d="M43.384 3.01a1.866 1.866 0 00-.667-.134h-4.54a1.92 1.92 0 00-1.59.853L35.03 6.05l8.352-3.04zM30.293 7.775a11.43 11.43 0 00-5.507-1.296c-2.9.055-5.508 1.23-7.49 3.086l.005-.03-3.89-5.806a1.92 1.92 0 00-1.59-.853H7.28a1.91 1.91 0 00-1.8 1.284l-4.37 12.6a1.908 1.908 0 00.15 1.583L30.294 7.776z"/><path fill="#031326" d="M49.837 16.43l-4.37-12.602a2.92 2.92 0 00-2.75-1.957h-4.54c-.972 0-1.878.486-2.426 1.3l-3.22 4.81c-2.203-1.66-4.9-2.552-7.763-2.507-2.64.05-5.166.973-7.25 2.58l-3.272-4.886A2.92 2.92 0 0011.82 1.87H7.283a2.92 2.92 0 00-2.75 1.96L.163 16.42a2.936 2.936 0 00.26 2.488l8.51 10.583a2.93 2.93 0 002.448 1.33h1.077v.678c0 1.01.513 1.928 1.347 2.46l-1.487 2.685a1.953 1.953 0 00.33 2.344 1.956 1.956 0 002.346.33l4.394-2.434 1.117.58v7.754a2.915 2.915 0 002.912 2.912h3.16a2.92 2.92 0 002.92-2.913 1.005 1.005 0 00-2.01 0c0 .497-.407.9-.91.9h-3.16a.902.902 0 01-.902-.9v-5h.74a.603.603 0 000-1.207h-.74v-1.668H25a.603.603 0 000-1.206h-2.69l-.94-.49a1.94 1.94 0 00-.07-2.693l-2.618-2.617a1.95 1.95 0 00-1.665-.558 1.948 1.948 0 00-1.448.995l-.785 1.415a.92.92 0 01-.317-.69V18.4c0-2.538.88-5.026 2.477-7.004 1.962-2.426 4.827-3.85 7.86-3.91.065-.002.13-.002.196-.002 3.15 0 6.098 1.38 8.112 3.806a10.57 10.57 0 012.423 6.726V29.8c0 .006-.003.01-.003.017s.003.01.003.016V31.5a.92.92 0 01-.32.69l-.786-1.416a1.948 1.948 0 00-1.45-.995 1.946 1.946 0 00-1.664.557l-1.185 1.185a1.004 1.004 0 101.422 1.42l1.117-1.194 3.178 5.74-3.267-1.81a1.005 1.005 0 10-.972 1.76l3.397 1.88c.304.168.632.25.958.25.506 0 1.006-.2 1.388-.58a1.95 1.95 0 00.33-2.344l-1.486-2.683a2.908 2.908 0 001.352-2.46v-.677h1.07a2.93 2.93 0 002.448-1.33l8.433-10.474.076-.11a2.93 2.93 0 00.264-2.48zM17.26 31.756l2.595 2.57-5.707 3.16 1.8-3.314c.042-.05.09-.09.122-.15.026-.05.028-.105.045-.157l1.146-2.11zm-4.8-13.36v10.415h-1.08a.907.907 0 01-.77-.43L2.115 17.818a.912.912 0 01-.056-.73L6.43 4.492a.907.907 0 01.852-.61h4.54c.302 0 .585.153.756.407l3.44 5.135c-.215.23-.434.457-.635.706a13.205 13.205 0 00-2.924 8.267zm35.424-.58l-8.42 10.46-.075.106a.907.907 0 01-.772.43h-1.07v-10.8a12.59 12.59 0 00-2.886-8.01c-.196-.235-.41-.447-.62-.666l3.38-5.047a.912.912 0 01.755-.408h4.54c.383 0 .726.246.853.608l4.37 12.606a.905.905 0 01-.056.72z"/></svg>