<svg xmlns="http://www.w3.org/2000/svg" id="Camada_3" x="0" y="0" version="1.1" viewBox="0 0 50 50" xml:space="preserve"><style>.st3{fill:#444}</style><path fill="#00dffc" d="M45.82 2.6H4.1c-1.12 0-2.03.91-2.03 2.03V21.1L47.85 4.8v-.17c0-1.13-.91-2.03-2.03-2.03z"/><path fill="#00c8e2" d="M2.07 21.09v24.69L47.85 29.5V4.8z"/><path fill="none" stroke="#444" stroke-linecap="round" stroke-linejoin="round" stroke-miterlimit="10" stroke-width="2.5" d="M25.02 48H5.55c-1.87 0-3.39-1.58-3.39-3.54V5.55C2.16 3.6 3.68 2 5.55 2h39.01c1.87 0 3.39 1.58 3.39 3.54v25.89"/><path d="M13.6 28.46a3.461 3.461 0 000-6.92 3.461 3.461 0 000 6.92zm-8.17 6.91a3.461 3.461 0 000-6.92c-1.91 0-3.45 1.55-3.45 3.46s1.55 3.46 3.45 3.46zm31.21 0a3.461 3.461 0 000-6.92 3.461 3.461 0 000 6.92zM25.29 25.15c-.11-1.15-.17-2.12-1.05-2.79-1.12-.86-2.39-.3-3.95-.86-1.54-.37-2.67-1.73-2.67-3.36 0-1.91 1.57-3.46 3.52-3.46 1.44 0 2.68.85 3.22 2.07.83 1.58.29 3.2 1.34 4.01 1.24.96 2.91.26 4.78 1.17.6.28 1.11.71 1.47 1.25.36.54.57 1.19.57 1.88 0 1.63-1.14 2.99-2.67 3.36-1.56.56-2.83.01-3.95.86-1.26.96-.59 2.57-1.61 4.27a3.526 3.526 0 01-3.13 1.89c-1.94 0-3.52-1.55-3.52-3.46 0-1.39.83-2.59 2.03-3.14 1.87-.91 3.54-.21 4.78-1.17.69-.56.84-1.41.84-2.52zm-7.78 5.06c.04-.09.08-.17.11-.26-1.08-.35-2.06-.75-2.91-1.18-.48.14-.98.16-1.46.07 1.08.71 2.45 1.34 4.08 1.84.06-.15.12-.31.18-.47z" class="st3"/><path d="M22.98 22.37l-.24-.03c-.07-.01-.14-.01-.2-.02-.34.61-.68 1.18-1.01 1.73-.28-.63-.56-1.28-.81-1.93-.11 0-.23.01-.34-.01-.14-.02-.28-.04-.42-.07.36.93.77 1.89 1.23 2.89-.49 1.1-.93 2.13-1.32 3.14.06-.02.12-.04.17-.06.21-.06.42-.1.64-.14.25-.68.52-1.37.82-2.05.36.58.71 1.25 1.06 1.89.18 0 .36 0 .55-.01-.54-.91-.98-1.91-1.41-2.79.4-.78.8-1.68 1.28-2.54zm-5.71-3.09c-1.5.52-2.78 1.12-3.82 1.78.43-.02.88-.03 1.32.02.82-.41 1.76-.79 2.79-1.13-.11-.23-.2-.45-.29-.67zm23.35 13.41c-.05.38-.15.76-.35 1.11-.03.05-.06.07-.09.1 0 .01 0 .01-.01.02.53 3.52 0 5.97-1.41 6.84-1.4.87-3.86 0-6.68-2.12-.72-.54-1.23-1.05-1.94-1.76.93-1.06 1.86-2.12 2.79-3.34-.05-.17-.09-.35-.12-.53l-.06-.41c-1.02 1.3-2.16 2.63-3.14 3.79-1.05-1.23-2.28-2.46-3.34-4.04 1.05 0 2.12.18 3.34.18 1.13 0 2.12-.01 3.11-.15a6.14 6.14 0 01-.02-.86c-1.04.11-2.09.12-3.28.12-1.23 0-2.64 0-3.86-.18-.04-.06-.08-.11-.11-.17 0 .01-.01.02-.01.02-.04.28-.09.56-.14.84.04 0 .07.01.11.01 1.23 1.76 2.46 3.17 3.69 4.58-.72.7-1.25 1.38-1.94 1.92-2.81 2.27-5.27 2.99-6.68 2.12-1.21-.75-1.77-2.71-1.56-5.49-.23-.19-.43-.41-.61-.64-.02-.02-.04-.05-.06-.07-.01-.01-.03-.02-.04-.03-.48 3.45.24 5.95 1.87 6.78.54.35 1.05.54 1.76.54 1.59 0 3.53-.87 5.8-2.64.72-.54 1.4-1.23 1.94-1.76.72.72 1.4 1.23 1.94 1.76 2.12 1.76 4.22 2.64 5.8 2.64.72 0 1.23-.18 1.76-.54 1.76-1.05 2.46-3.69 1.76-7.57-.08-.35-.15-.71-.22-1.07zm-.28-13.9c1.4-5.11 1.05-8.97-1.23-10.21-1.76-1.05-4.4-.18-7.57 2.27-.72.54-1.4 1.23-1.94 1.76-.72-.72-1.4-1.23-1.94-1.76-2.99-2.46-5.8-3.34-7.57-2.27-1.74.94-2.35 3.5-1.93 6.84.22-.23.47-.43.74-.6-.29-2.83.18-4.95 1.56-5.72 1.4-.87 3.86 0 6.68 2.12.72.54 1.23 1.05 1.94 1.76-1.23 1.4-2.46 2.81-3.69 4.58l-.3.03c.06.31.09.62.1.94.03.09.06.19.08.29.1-.14.2-.28.3-.4 1.23-.18 2.46-.18 3.86-.18s2.64 0 3.86.18c.72 1.05 1.4 2.12 2.12 3.17.72 1.05 1.23 2.27 1.76 3.34-.49 1-.98 2.14-1.64 3.15.33-.1.67-.18 1.01-.21.39-.69.78-1.42 1.15-2.05.38.84.73 1.68 1.05 2.51.03.04.06.09.09.12.08.09.18.17.26.26.1.1.18.2.28.31.2.18.39.37.55.59-.5-1.54-1.11-3.16-1.87-4.66.87-1.94 1.59-3.69 2.12-5.45 4.58 1.23 7.75 3.17 7.75 5.45-.01 2.25-3.11 4.17-7.6 5.4.08.2.14.41.19.61.01.03.01.06.02.08 4.98-1.41 8.04-3.66 8.04-6.1.04-2.64-3.14-4.93-8.23-6.15zm-10.73-1.41c-1.22 0-2.28 0-3.34.18 1.06-1.43 2.29-2.83 3.34-4.06 1.05 1.23 2.27 2.46 3.34 4.04-1.07.02-2.12-.16-3.34-.16zm8.12 6.68c-.55-.87-1.08-1.94-1.6-2.81-.54-.87-1.05-1.94-1.76-2.81 1.76.18 3.53.54 5.11.87-.53 1.58-1.05 3.17-1.75 4.75zm1.88-5.43c-1.76-.35-3.69-.72-5.8-.87-1.23-1.76-2.46-3.17-3.69-4.58.71-.73 1.24-1.45 1.94-1.96 2.12-1.59 3.86-2.46 5.27-2.46.54 0 1.05.18 1.4.35 1.95 1.06 2.14 4.76.88 9.52z" class="st3"/><circle cx="29.07" cy="24.99" r="3.09" fill="#444" stroke="#444" stroke-miterlimit="10" stroke-width=".5"/></svg>