<svg xmlns="http://www.w3.org/2000/svg" id="Layer_1" x="0" y="0" version="1.1" viewBox="0 0 50 50" xml:space="preserve"><style>.st3{fill:none;stroke:#444;stroke-width:1.5;stroke-linecap:round;stroke-linejoin:round;stroke-miterlimit:10}.st4{fill:#444}</style><path fill="#a475ef" d="M47.6 22.7l.1 4.3L1.6 43.5l-.5-12.8-.1-4L47.6 9.8z"/><path fill="#bf94f7" d="M48.1 7.2v3.5l-46.5 17 .3-7.3v-4L48.1 1.5z"/><path fill="none" stroke="#444" stroke-linecap="round" stroke-linejoin="round" stroke-miterlimit="10" stroke-width="2.5" d="M6.3 48.2H1.9v-46h46.4v46H32.2"/><path d="M25.2 15.2h6.1c2.2 0 4.1 1.8 4.1 4.1v3" class="st3"/><path d="M29.3 11.2l-4.1 4 4.1 4.1m-6.1 16.2h-6.1c-2.2 0-4.1-1.8-4.1-4.1v-3" class="st3"/><path d="M19.1 39.5l4.1-4-4.1-4.1" class="st3"/><path id="Shape" d="M22.2 9c-.1-.2-.4-.4-.7-.4H6.3c-.5 0-.9.4-.8.9v12.2c0 .1 0 .2.1.3.1.3.4.6.8.6h4.9l-.6 1.1h-1c-.5 0-.8.4-.8.8 0 .5.4.8.8.8h8.4c.5 0 .8-.4.8-.8 0-.5-.4-.8-.8-.8h-.9l-.6-1.1h4.9c.5 0 .9-.4.8-.9V9.5c0-.2-.1-.4-.1-.5zm-4.1 15.3c.2 0 .3.1.3.3 0 .2-.1.3-.3.3H9.7c-.2 0-.3-.1-.3-.3 0-.2.1-.3.3-.3h8.4zm-6.9-.6l.6-1.1h4.1l.6 1.1h-5.3zm10.5-3.3H8.8c-.2 0-.3.1-.3.3 0 .1 0 .2.1.2h13.1v.8c0 .2-.1.3-.3.3H6.3c-.1 0-.2 0-.3-.2v-.9h1.7c.2 0 .3-.1.3-.3 0-.2-.1-.3-.3-.3H6V9.5c0-.2.1-.3.3-.3h15.3c.1.1.2.2.2.3v10.9z" class="st4"/><path d="M37.5 38.8H27.3v-9.3s0-.1.1-.1h10.2v-.7H27.4c-.4 0-.8.3-.8.8v9.3h-.9c-.2 0-.3.1-.5.2-.1.1-.2.3-.1.5.2 1 1 1.7 2 1.7h10.4v-.7H27.1c-.6 0-1.2-.4-1.3-1h11.7v-.7z" class="st4"/><path d="M37.7 38.2h-9.9v-8.3h9.9v.3h-9.5v7.7h9.5z" class="st4"/><path d="M31.4 38.8h10.2v-9.3s0-.1-.1-.1H31.4v-.7h10.2c.4 0 .8.3.8.8v9.3h.9c.2 0 .3.1.5.2.1.1.2.3.1.5-.2 1-1 1.7-2 1.7H31.4v-.7h10.4c.6 0 1.2-.4 1.3-1H31.4v-.7z" class="st4"/><path d="M31.3 38.2h9.9v-8.3h-9.9v.3h9.5v7.7h-9.5z" class="st4"/></svg>