<svg xmlns="http://www.w3.org/2000/svg" id="Layer_1" x="0" y="0" version="1.1" viewBox="0 0 50 50" xml:space="preserve"><style>.st3{fill:#494949}</style><path fill="#afe55d" d="M6.6 38.2l2.2.9 37.9-13.7-1-9.7c0-1.6-.9-3.1-2.3-3.9L27.3 2.5c-1.4-.8-3.1-.8-4.6 0L6.6 11.8c-1.4.8-2.3 2.3-2.3 3.9v18.6c0 1.6.9 3.1 2.3 3.9z"/><path fill="#c3ff68" d="M35.9 7.5l-8.6-5c-1.4-.8-3.1-.8-4.6 0L6.6 11.8c-1.4.8-2.3 2.3-2.3 3.9V19L35.9 7.5z"/><path fill="#444" d="M25 49.4c-1 0-2-.3-2.9-.8L6 39.3c-1.8-1-2.9-2.9-2.9-5V15.7c0-2.1 1.1-4 2.9-5l16.1-9.3c1.8-1 4-1 5.8 0L44 10.7c1.8 1 2.9 2.9 2.9 5v13.6c0 .7-.5 1.2-1.2 1.2s-1.2-.5-1.2-1.2V15.7c0-1.2-.6-2.3-1.7-2.9L26.7 3.5c-1-.6-2.3-.6-3.3 0L7.2 12.8c-1 .6-1.7 1.7-1.7 2.9v18.6c0 1.2.6 2.3 1.7 2.9l16.1 9.3c1 .6 2.3.6 3.3 0l4.4-2.6c.6-.3 1.3-.1 1.7.4.3.6.1 1.3-.4 1.7l-4.4 2.6c-.9.5-1.9.8-2.9.8z"/><path d="M19.2 31.3c2.9 0 5.2-2.3 5.2-5.2s-2.3-5.2-5.2-5.2c-.4 0-.6.3-.6.6 0 .4.3.6.6.6 2.2 0 3.9 1.8 3.9 3.9s-1.8 3.9-3.9 3.9c-.4 0-.6.3-.6.6-.1.5.2.8.6.8z" class="st3"/><path d="M33.8 31.5c0 2.6-.8 5-2.4 7.1-.1.2-.3.2-.5.2h-3.8c-.4 0-.6-.3-.6-.6v-2c0-.6-.5-1.1-1.1-1.1s-1.1.5-1.1 1.1v2c0 .4-.3.6-.6.6h-3.9c-.4 0-.6-.3-.6-.6s.3-.6.6-.6H23v-1.4c0-1.3 1.1-2.4 2.4-2.4s2.4 1.1 2.4 2.4v1.4h2.9c1.3-1.8 2-3.8 2-6 0-2.3-.8-4.4-2-6.1-.1-.2-.3-.4-.4-.5-1.2-1.4-2.9-2.5-4.7-3.1-.2-.1-.3-.1-.5-.1-.8-.2-1.7-.3-2.5-.3h-.4c-.9 0-1.8.2-2.7.5-4.1 1.3-7.2 5.2-7.2 9.7 0 1.2.2 5 2.8 5.1.5 0 .8-.2 1.1-.5.2-.4.2-1 0-1.4-.2-.3-.5-.5-1-.4-.4 0-.6-.2-.7-.6 0-.3.2-.7.6-.7.9-.1 1.7.3 2.1 1 .5.8.5 1.9.1 2.7s-1.2 1.2-2.2 1.1c-2.5-.1-4.1-2.5-4.1-6.4 0-5.1 3.4-9.5 8.1-11h.2c1-.3 2.1-.5 3.3-.5h.1c1 0 2 .1 2.9.4 2.4.6 4.5 2.1 6 4 .5.6 1 1.3 1.3 2.1.5 1.4.9 3.1.9 4.9z" class="st3"/><path d="M16.9 27.8c0 .5-.4.9-.9.9s-.9-.4-.9-.9.4-.9.9-.9.9.4.9.9zm22.2-10.6c-.1.2-.2.4-.3.5-.9.7-1.9 1.5-2.8 2.2-.7.5-1.3 1-2 1.5l1.2 4.2.3.9v.2c.1.2.1.4 0 .5-.2.3-.5.4-.8.3l-2-1-1.3-.7c-.3-.2-.6-.3-.8-.4-.1-.2-.3-.4-.4-.5v-.2c0-.1.1-.3.4-.4.2-.1.4-.1.5 0l.3.2 2.6 1.3-1.2-4.2c-.1-.4 0-.8.3-1.1.7-.5 1.4-1.1 2.1-1.7l1.5-1.2H36c-1.3.1-2.5.1-3.7.2-.3 0-.7 0-.9-.6-.5-1.3-.9-2.6-1.4-3.9l-.3.6c-.4 1.1-.9 2.1-1.3 3.2l-.1.1c0 .1-.1.2-.1.3-.1.3-.3.6-.8.6-1.6.2-3.1.3-4.7.5l2.4 1.6.5.3s.3.2.3.6c0 .1 0 .2-.1.4 0 0-.1.1-.4.1h-.2c-.2-.1-.3-.1-.5-.1-.1 0-.1-.1-.2-.1-.2-.1-.4-.3-.6-.4l-1.6-1.1-1.5-.9c-.2-.1-.3-.3-.3-.5s.1-.4.3-.5c.2-.1.4-.2.5-.2l.6-.1c1.7-.2 3.5-.4 5.2-.6 0-.1 0-.1.1-.2v-.1c.4-1.1.9-2.2 1.3-3.2l.8-2.1c.1-.2.2-.3.5-.4.2 0 .4 0 .6.2s.2.3.3.5c.6 1.6 1.2 3.2 1.7 4.9 1.2-.1 2.3-.1 3.5-.2l2.5-.1c.2 0 .4.1.5.3.3.1.3.3.2.5z" class="st3"/></svg>