<svg xmlns="http://www.w3.org/2000/svg" id="Layer_1" x="0" y="0" version="1.1" viewBox="0 0 50 50" xml:space="preserve"><style>.st3{fill:#494949}</style><g id="Layer_1_00000110442700170778945710000003416489224971862194_"><path fill="#fcc34f" d="M47.2 25.7l.5 4.5L2.4 46.7l-.1-9.4.2-5.4 45.2-16.5-.7 3.9z"/><path fill="#fdcf72" d="M47.4 8.4l-.4 8.1L2.8 32.6l-.2-10.2.2-4.6L47.4 1.6z"/><path fill="none" stroke="#444" stroke-linecap="round" stroke-linejoin="round" stroke-miterlimit="10" stroke-width="2.5" d="M12.6 47.2H2.7V2.8h44.6v44.4"/><circle cx="22.4" cy="20" r=".5" class="st3"/><path d="M16.7 20.5h3.7c.3 0 .5-.2.5-.5s-.2-.5-.5-.5h-3.7c-.3 0-.5.2-.5.5s.2.5.5.5zm5.7.9h-5.7c-.3 0-.5.2-.5.5s.2.5.5.5h5.7c.3 0 .5-.2.5-.5s-.3-.5-.5-.5zm-8 17.6h-4c-.3 0-.5.2-.5.5v4c0 .3.2.5.5.5h4c.3 0 .5-.2.5-.5v-4c0-.3-.3-.5-.5-.5zm-.5 4h-3v-3h3v3zm23.5-4c-1.4 0-2.5 1.1-2.5 2.5S36 44 37.4 44s2.5-1.1 2.5-2.5-1.2-2.5-2.5-2.5zm0 4c-.8 0-1.5-.7-1.5-1.5s.7-1.5 1.5-1.5 1.5.7 1.5 1.5-.7 1.5-1.5 1.5zm-12.1-3.8c-.2-.3-.7-.3-.9 0l-2 4c-.2.3.1.7.4.7h4c.4 0 .6-.4.4-.7l-1.9-4zM23.7 43l1.2-2.4 1.2 2.4h-2.4z" class="st3"/><path d="M12.4 33.5c-.3 0-.5.2-.5.5v2.5c0 .3.2.5.5.5s.5-.2.5-.5v-2h11.5v2c0 .3.2.5.5.5s.5-.2.5-.5v-2h11.5v2c0 .3.2.5.5.5s.5-.2.5-.5V34c0-.3-.2-.5-.5-.5h-12V31h8.9c.9 0 1.6-.7 1.6-1.6V15.5c0-.9-.7-1.6-1.6-1.6h-2.9c-.1 0-.3.1-.4.2l-1.3 1.3H18.9l-1.2-1.3c-.1-.1-.2-.1-.4-.1h-2.2c-.7 0-1.2.5-1.2 1.2v14.2c0 .9.7 1.6 1.6 1.6h8.9v2.5h-12zm5.1-17h11.2l-.8.8H17.5v-.8zm-2.7-1.3c0-.1.2-.2.3-.2h2l.4.5H17c-.3 0-.5.2-.5.5v1.3h-1.7v-2.1zm.7 14.9c-.3 0-.6-.4-.6-.7V18.3h13.3c.1 0 .3-.1.4-.2l1.8-1.8 1.3-1.3h2.7c.3 0 .6.3.6.6v13.9c0 .3-.3.6-.6.6H15.5z" class="st3"/><path d="M34.4 5.9c.1 0 0 0 0 0 .2-.1.4 0 .5.3l2 4.5s3.6 1 4.8 1.1c.2 0 .3.2.4.4 0 .2 0 .4-.2.5-1 .7-3.7 3.3-3.7 3.3l.3 2.8c0 .3-.2.5-.4.5-.3 0-.5-.2-.5-.4l-.3-3.1c0-.2 0-.3.2-.4l3.1-2.8-4.1-.9c-.2 0-.3-.1-.4-.3l-1.7-3.8-2.1 3.6c-.1.1-.2.2-.4.2l-4.2.4.8.9c.2.2.2.5 0 .7s-.5.2-.7 0l-1.4-1.6c-.1-.1-.2-.3-.1-.5s.2-.3.4-.3l4.9-.5 2.5-4.2c.2-.2.2-.4.3-.4z" class="st3"/></g></svg>