<svg xmlns="http://www.w3.org/2000/svg" id="Layer_1" x="0" y="0" version="1.1" viewBox="0 0 50 50" xml:space="preserve"><style>.st3{fill:#424242}.st4{fill-rule:evenodd;clip-rule:evenodd;fill:#494949}</style><path fill="#a475ef" d="M48.4 13.8l.7 5.4L1.8 36.4l-.6-11.2v-6.4l41.4-15 5.3 2.3z"/><path fill="#bf94f7" d="M46.7 3.9L49 7.2.9 24.4 2 6.7l3.1-2.9 29.8-.2z"/><path fill="none" stroke="#444" stroke-linecap="round" stroke-linejoin="round" stroke-miterlimit="10" stroke-width="2.5" d="M16.3 46.4H4.6c-1.7 0-3.1-1.4-3.1-3.1V7.1C1.5 5.4 2.9 4 4.6 4h40.5c1.7 0 3.1 1.4 3.1 3.1v21.6"/><circle cx="8.7" cy="10.2" r="1.6" class="st3"/><circle cx="13.8" cy="10.2" r="1.6" class="st3"/><circle cx="19" cy="10.2" r="1.6" class="st3"/><path d="M6.3 41.7h38.2c.2 0 .3-.1.4-.2.1-.1.2-.2.2-.4v-.8c0-.2-.1-.3-.2-.4-.1-.1-.2-.2-.4-.2H6.3c-.1 0-.3.1-.4.2-.1.1-.1.2-.1.4v.8c0 .2.1.3.2.4 0 .1.1.2.3.2zm2.8-25.4h32.5c.3 0 .7.1.9.4.2.2.4.5.4.9v21.5h1.6c.3 0 .7.1.9.4.2.2.4.5.4.9v.8c0 .4-.1.7-.4.9-.2.2-.5.4-.9.4H6.3c-.3 0-.7-.1-.9-.4-.2-.3-.4-.6-.4-1v-.8c0-.3.1-.6.3-.9.2-.2.5-.4.9-.4h1.6V17.5c0-.3.1-.7.4-.9.3-.2.6-.3.9-.3zm32.5.7H9.1c-.1 0-.3.1-.4.2-.1.1-.2.2-.2.4v21.5h33.6V17.5c0-.1-.1-.3-.2-.4 0 0-.1-.1-.3-.1zM19.3 41c-.2 0-.4-.2-.4-.4s.2-.4.4-.4h12c.2 0 .4.2.4.4s-.2.4-.4.4h-12zm-9.2-23c-.2 0-.4.2-.4.4v19.3c0 .2.2.4.4.4h30.6c.2 0 .4-.2.4-.4V18.4c0-.2-.2-.4-.4-.4H10.1zm30.2.7H10.4v18.6h29.9V18.7z" class="st4"/><path d="M19.2 26.1l3.8-.4h.1l.1-.1 1.5-3.5c0-.1.1-.2.2-.3.1-.1.2-.1.3-.1.1 0 .2 0 .3.1.1.1.2.2.2.3l1.5 3.5.1.1s.1 0 .1.1l3.8.4c.1 0 .2.1.3.1.1.1.2.2.2.3v.3c0 .1-.1.2-.2.3l-2.9 2.5-.1.1v.1l.8 3.7v.3c0 .1-.1.2-.2.3-.1.1-.2.1-.3.1-.1 0-.2 0-.3-.1l-3.3-2H25l-3.3 2c-.1.1-.2.1-.3.1-.1 0-.2 0-.3-.1 0 0-.1-.1-.1-.2v-.3l.8-3.7v-.1s0-.1-.1-.1l-2.9-2.5c-.1-.1-.2-.2-.2-.3v-.3c0-.1.1-.2.2-.3.1-.3.2-.3.4-.3z" class="st4"/></svg>