<svg xmlns="http://www.w3.org/2000/svg" id="Layer_1" x="0" y="0" version="1.1" viewBox="0 0 50 50" xml:space="preserve"><style>.st2{fill:#031326}</style><path fill="#c3ff68" d="M25.3 2.5c-11.8 0-21.4 8.9-22.7 20.3L41 8.7c-4.1-3.9-9.6-6.2-15.7-6.2z"/><path fill="#afe55d" d="M48.2 25.3c0-6.5-2.7-12.4-7.1-16.6l-38.5 14c-.1.9-.2 1.7-.2 2.6 0 8 4.1 15.1 10.4 19.1L47.2 32c.6-2.1 1-4.4 1-6.7z"/><path d="M25.7 48.8h-1.5c-6.3-.4-12.2-3.2-16.4-8C3.6 36 1.5 29.9 1.9 23.5 2.7 10.4 14 .4 27.1 1.3c3.2.2 6.3 1 9.1 2.4.6.3.9 1.1.6 1.7-.3.6-1.1.9-1.7.6-2.6-1.3-5.3-2-8.2-2.2C15.2 3 5.1 12 4.4 23.7 4 29.4 5.9 34.8 9.7 39.1c3.8 4.3 9 6.8 14.6 7.1 9.4.6 18-5 21.3-13.8.2-.6 1-1 1.6-.7.6.2 1 1 .7 1.6-3.5 9.4-12.3 15.5-22.2 15.5z" class="st2"/><path d="M38.2 7.9c1.1-1.1 2.1-2.4 3-3.8.1-.1.2-.2.3-.4 1.2 3.6 2.2 7.3 2.7 11 .1.7.2 1.4.2 2.1.2 3.3 0 6.5-1.3 9.6-1.9 4.6-5.5 6.7-10.2 7.4-3.8.6-7.7.3-11.5.2-1.4 0-2.7-.2-4.1.2-.2.1-.4-.1-.6-.4 1.9-.6 3.7-1.2 5.5-1.7 7.5-2.2 12.9-6.9 16.2-14.1.2-.4.4-.7.3-1.1-.2-.1-.3 0-.3.1-4 6.8-10.1 10.7-17.6 12.6-2.2.5-4.4 1-6.5 1.6-.9.2-1.5 0-2.2-.5-2.2-1.9-2.9-4.5-2.5-7.2.7-5.5 4.9-9.4 10.7-10 2.7-.3 5.5-.1 8.2-.8 3.9-.7 7.2-2.3 9.7-4.8" class="st2"/><path d="M17.4 34.5c-.4 0-.6-.4-.7-.5l-.2-.3.3-.1 1.8-.6c1.3-.4 2.5-.8 3.7-1.2 7.4-2.2 12.8-6.9 16-13.9 0-.1.1-.1.1-.2-3.9 6.2-9.6 10.2-17.4 12.1-1 .2-2 .5-3 .7-1.2.3-2.4.6-3.5.9-.9.2-1.7 0-2.4-.6-2.1-1.8-3-4.3-2.6-7.4.7-5.6 4.9-9.5 10.9-10.2 1-.1 2.1-.2 3.1-.2 1.7-.1 3.4-.2 5.1-.5 3.8-.9 7-2.5 9.4-4.8 1.1-1.1 2.1-2.4 3-3.8.1-.1.1-.2.2-.3l.1-.1.3-.3.1.4c1 3 2.2 6.9 2.7 11 .1.7.2 1.4.2 2.1.3 3.9-.1 7-1.3 9.7-1.8 4.3-5.2 6.8-10.4 7.6-3.3.5-6.6.4-9.8.3-.6 0-1.2 0-1.8-.1h-.7c-1.1 0-2.2-.1-3.3.2.2.1.1.1.1.1zm-.1-.5c.1 0 .1 0 0 0 1.2-.3 2.4-.2 3.5-.2h.7c.6 0 1.2 0 1.8.1 3.2.1 6.5.2 9.7-.3 5-.8 8.3-3.2 10-7.3 1.1-2.7 1.5-5.7 1.2-9.5-.1-.7-.1-1.4-.2-2.1-.5-3.9-1.6-7.6-2.6-10.5-.9 1.5-1.9 2.8-3.1 3.9-2.5 2.4-5.7 4.1-9.6 5-1.7.4-3.5.5-5.2.6-1 0-2.1.1-3.1.2-5.7.6-9.7 4.4-10.5 9.8-.4 2.9.4 5.3 2.4 7 .6.5 1.2.7 1.9.5l3.6-.9c1-.2 2-.5 3-.7 7.9-2 13.6-6.1 17.4-12.5.2-.4.5-.3.7-.2l.1.1v.1c.1.4-.1.8-.3 1.1 0 .1-.1.1-.1.2-3.3 7.2-8.8 12-16.4 14.2-1.2.4-2.5.8-3.7 1.1-.2 0-.7.2-1.2.3z" class="st2"/><circle cx="12.3" cy="35.2" r="2.3" class="st2"/></svg>