<svg xmlns="http://www.w3.org/2000/svg" viewBox="0 0 50 50"><style>.st2,.st3{fill:none;stroke:#444;stroke-width:2.5;stroke-linecap:round;stroke-linejoin:round;stroke-miterlimit:10}.st3{stroke-width:.5}.st4{fill:#444}</style><g id="Layer_1"><path fill="#c3ff68" d="M26.5 2.2l-10 6.5c-1.1 0-12.8 6.9-12.8 8L4 18c.5 1.8 2.4 2.9 4.2 2.2l28.4-11-7.1-4.9c0-1.2-1.9-2.1-3-2.1z"/><path fill="#afe55d" d="M7 19.7l.6.7c0 2.3-.8 24.2 1.4 23.4l35.8-12.7c-.3-3.3-.3-8.4-.8-11.8l4.7-1c.7-3-2.8-3.7-10.5-9.6L7 19.7z"/><path d="M44 36.3v-17h4.5v-3L25.8 2.1 3.1 16.2v3.1h4.5v24.5h27.9" class="st2"/><circle cx="25.8" cy="10.6" r="3.6" class="st3"/><path d="M10.9 16.3h29.8M20 23.4h20" class="st3"/><path d="M16.5 22.9h1v1h-1zm-2.9 0h1v1h-1zm-2 0h1v1h-1z" class="st4"/><path d="M20 31.3h20" class="st3"/><path d="M16.5 30.8h1v1h-1zm-2.9 0h1v1h-1zm-2 0h1v1h-1z" class="st4"/><path d="M20 39.4h20" class="st3"/><path d="M16.5 38.9h1v1h-1zm-2.9 0h1v1h-1zm-2 0h1v1h-1z" class="st4"/><path fill="none" stroke="#444" stroke-linecap="round" stroke-linejoin="round" stroke-miterlimit="10" d="M6.3 18.6h39M7.2 27.2h37.2M7.2 35h37.2"/><path d="M25.8 43.8v4.4m-12.9.3h25.8" class="st2"/></g></svg>