<svg xmlns="http://www.w3.org/2000/svg" version="1" viewBox="0 0 50 50"><path fill="#F799FF" d="M46.828 16.183C44.22 10.903 39.355 7.34 33.77 7.34H16.232C7.902 7.34 1.145 15.246 1.145 25c0 2.61.497 5.082 1.367 7.312l44.316-16.13z"/><path fill="#E589EF" d="M35.408 7.558a12.937 12.937 0 00-2.254-.218h-17.54c-6.854 0-12.634 5.358-14.47 12.69L35.41 7.557z"/><path fill="#031326" d="M30.12 33.638H19.88c-4.443 0-8.056-3.614-8.056-8.056v-1.17c0-4.44 3.614-8.055 8.055-8.055h10.24c4.44 0 8.054 3.614 8.054 8.056v1.17c0 4.442-3.613 8.055-8.055 8.055zM19.88 18.19a6.23 6.23 0 00-6.225 6.224v1.17a6.23 6.23 0 006.224 6.223h10.24a6.23 6.23 0 006.223-6.224v-1.17a6.23 6.23 0 00-6.224-6.223H19.88z"/><path fill="#031326" d="M33.77 43.805L16.23 43.8C7.283 43.8 0 35.364 0 25 0 14.63 7.282 6.194 16.232 6.194H33.77C42.72 6.195 50 14.63 50 25a1.145 1.145 0 01-2.29 0c0-9.107-6.254-16.515-13.94-16.515H16.232C8.544 8.485 2.29 15.893 2.29 25c0 9.103 6.254 16.51 13.942 16.51l17.54.005a1.144 1.144 0 11-.002 2.29z"/></svg>