<?xml version="1.0" encoding="utf-8"?>
<!-- Generator: Adobe Illustrator 28.0.0, SVG Export Plug-In . SVG Version: 6.00 Build 0)  -->
<svg version="1.1" id="Layer_1" xmlns="http://www.w3.org/2000/svg" xmlns:xlink="http://www.w3.org/1999/xlink" x="0px" y="0px"
	 viewBox="0 0 50 50" style="enable-background:new 0 0 50 50;" xml:space="preserve">
<style type="text/css">
	.st0{fill:#E589EF;}
	.st1{fill:none;stroke:#444444;stroke-width:2.5;stroke-linecap:round;stroke-linejoin:round;stroke-miterlimit:10;}
	.st2{fill:none;stroke:#444444;stroke-linecap:round;stroke-linejoin:round;stroke-miterlimit:10;}
	.st3{fill:none;stroke:#444444;stroke-width:0.5;stroke-linecap:round;stroke-linejoin:round;stroke-miterlimit:10;}
</style>
<g>
	<path class="st0" d="M44.7,12.4l-5.6-3.6l-7.7-4.4l-6-2.8C22.3,1.6,4,10.5,4,13.7l-0.5,7.8L4,36.6l11.5,7.6l31-11
		C47.3,32.7,45.7,14.4,44.7,12.4z"/>
	<g>
		<g>
			<path class="st1" d="M30.1,46.4l-2.2,1.3c-1.7,1-3.8,1-5.5,0l-15.6-9c-1.7-1-2.7-2.8-2.7-4.7V16c0-2,1-3.8,2.7-4.7l15.6-9
				c1.7-1,3.8-1,5.5,0l15.6,9c1.7,1,2.7,2.8,2.7,4.7v18c0,2-1,3.8-2.7,4.7L41,40.1"/>
		</g>
	</g>
	<g>
		<g>
			<path class="st2" d="M30.3,10.3v3.2H15.2v-3.2h5.3V9.8c0-1.3,1-2.3,2.3-2.3l0,0c1.3,0,2.3,1,2.3,2.3v0.5H30.3z"/>
			<line class="st3" x1="17.1" y1="17.9" x2="28.4" y2="17.9"/>
			<line class="st3" x1="17.1" y1="21" x2="28.4" y2="21"/>
			<g>
				<line class="st3" x1="26.7" y1="30.6" x2="30.7" y2="30.6"/>
				<polyline class="st3" points="29.8,29.2 30.7,30.6 29.8,32 				"/>
			</g>
			<path class="st3" d="M21.3,25.7c0,0.8-0.6,1.4-1.4,1.4c-0.8,0-1.4-0.6-1.4-1.4c0-0.8,0.6-1.4,1.4-1.4
				C20.6,24.3,21.3,24.9,21.3,25.7z"/>
			<path class="st3" d="M21.3,30.5c0,0.8-0.6,1.4-1.4,1.4c-0.8,0-1.4-0.6-1.4-1.4c0-0.8,0.6-1.4,1.4-1.4
				C20.6,29.1,21.3,29.7,21.3,30.5z"/>
			<path class="st3" d="M21.3,35.3c0,0.8-0.6,1.4-1.4,1.4c-0.8,0-1.4-0.6-1.4-1.4c0-0.8,0.6-1.4,1.4-1.4
				C20.6,33.9,21.3,34.5,21.3,35.3z"/>
			<line class="st3" x1="18.4" y1="30.5" x2="15.4" y2="30.6"/>
		</g>
		<g>
			<polyline class="st3" points="21.3,25.8 24.3,25.8 26.7,30.6 24.3,35.4 21.3,35.4 			"/>
			<polyline class="st3" points="18.4,25.8 15.4,25.8 15.4,35.4 18.4,35.4 			"/>
		</g>
		<g>
			<path class="st2" d="M15.2,11.6H12c-0.8,0-1.4,0.6-1.4,1.4v26.9c0,1.4,4.4,3.6,5.4,3.6h17.6c0.8,0,1.4-0.6,1.4-1.4V13
				c0-0.8-0.6-1.4-1.4-1.4h-3.2"/>
			<polyline class="st2" points="15.2,13.5 12.8,13.5 12.8,39.4 32.7,39.4 32.7,13.5 30.3,13.5 			"/>
		</g>
	</g>
</g>
</svg>
