<svg xmlns="http://www.w3.org/2000/svg" id="Layer_1" x="0" y="0" version="1.1" viewBox="0 0 50 50" xml:space="preserve"><style>.st3{fill:#444}.st4{fill:#494949}</style><path fill="#00c8e2" d="M47.7 11.6l.8 5.2L2.4 33.6l-.5-10.9-.1-6.2L42.1 1.9l5.2 2.3z"/><path fill="#00dffc" d="M46.1 2l2.3 3.2L1.5 21.9 2.6 4.8l3-2.9 29.1-.2z"/><path fill="none" stroke="#444" stroke-linecap="round" stroke-linejoin="round" stroke-miterlimit="10" stroke-width="2.5" d="M18.1 48.3H5.5c-1.9 0-3.4-1.6-3.4-3.5v-39c0-2 1.5-3.5 3.4-3.5h39c1.9 0 3.4 1.6 3.4 3.5v24.6"/><circle cx="8.2" cy="8.2" r="1.4" class="st3"/><circle cx="12.1" cy="8.2" r="1.4" class="st3"/><circle cx="15.9" cy="8.2" r="1.4" class="st3"/><path d="M34.4 34.9c0 1.6-.1 3.2-.4 4.8 0 .2-.2.3-.4.4-3.7.6-7.2.6-10.5-.2-.1 0-.3-.1-.3-.3-.1-.1 0-.3 0-.4l.8-1.5-3.9.9h-.3c-2.1-.9-4-2.2-5.6-3.8C10 31 8.1 25.9 8.1 20c0-1.6.1-3.2.4-4.8 0-.2.2-.3.4-.4 3.7-.7 7.3-.6 10.6.3.1 0 .2.1.3.2l2.2 4.3 1.9-2.5c.1-.2.4-.2.6-.1 1.5.8 2.9 1.9 4.1 3.1 3.9 3.7 5.8 8.9 5.8 14.8zm-1.2 4.4c.2-1.5.4-2.9.4-4.4 0-5.7-1.9-10.6-5.5-14.2-1.1-1.1-2.3-2-3.6-2.8l-2.1 2.8c-.1.1-.2.2-.4.2s-.3-.1-.4-.2l-2.4-4.8c-3-.7-6.3-.8-9.7-.3-.2 1.5-.4 2.9-.4 4.4 0 5.7 1.9 10.6 5.5 14.2 1.5 1.5 3.2 2.7 5.2 3.6l4.7-1.1c.2 0 .4 0 .5.2.1.1.1.3 0 .5l-1 1.8c2.9.6 5.9.6 9.2.1z" class="st4"/><path d="M13.5 23c0 .1 0 .2-.1.3l-3.2 3.2c-.2.2-.5.2-.6 0-.2-.2-.2-.5 0-.6l3.2-3.2c.2-.2.5-.2.6 0 .1.1.1.2.1.3zm1.9 4.5c0 .1 0 .2-.1.3L12.1 31c-.2.2-.5.2-.6 0-.2-.2-.2-.5 0-.6l3.2-3.2c.2-.2.5-.2.6 0 .1.1.1.2.1.3zm14.1-6.4c0 .1 0 .2-.1.3l-3.2 3.2c-.2.2-.5.2-.6 0-.2-.2-.2-.5 0-.6l3.2-3.2c.2-.2.5-.2.6 0 .1.1.1.2.1.3zm-8.9 11.5c0 .1 0 .2-.1.3l-3.2 3.2c-.2.2-.5.2-.6 0-.2-.2-.2-.5 0-.6l3.2-3.2c.2-.2.5-.2.6 0 0 .1.1.2.1.3zm12.1-5.7c0 .1 0 .2-.1.3l-3.2 3.2c-.2.2-.5.2-.6 0-.2-.2-.2-.5 0-.6l3.2-3.2c.2-.2.5-.2.6 0 .1 0 .1.2.1.3z" class="st4"/><path d="M44 43.8s0 .1 0 0c0 .3-.3.5-.5.4-4.4-.7-8.5-2.4-12.2-5-2.9-2.1-5.6-4.8-7.9-8-3.9-5.4-5.5-10.4-5.6-10.7-.1-.2.1-.5.3-.6.2-.1.5.1.6.3 0 .1 1.6 5.1 5.5 10.4 3.6 4.9 9.8 11.1 19.5 12.6.1.2.3.4.3.6z" class="st4"/></svg>