<svg xmlns="http://www.w3.org/2000/svg" id="Layer_1" x="0" y="0" version="1.1" viewBox="0 0 48 47" xml:space="preserve"><style>.st3{fill:#444}.st4,.st5{fill:#494949}.st5{stroke:#494949;stroke-width:.25;stroke-miterlimit:10}</style><path fill="#dc5e82" d="M45.5 10.6l.7 4.9L2.6 31.3 2.1 21v-5.8L40.2 1.4l4.9 2.1z"/><path fill="#f56991" d="M44 1.4l2.1 3.1L1.8 20.3 2.9 4.1l2.8-2.7 27.4-.2z"/><path fill="none" stroke="#444" stroke-linecap="round" stroke-linejoin="round" stroke-miterlimit="10" stroke-width="2.5" d="M17.5 45.2h-12c-1.8 0-3.2-1.5-3.2-3.3V5.1c0-1.8 1.4-3.3 3.2-3.3h36.9c1.8 0 3.2 1.5 3.2 3.3v23.2"/><circle cx="8.1" cy="7.3" r="1.3" class="st3"/><circle cx="11.8" cy="7.3" r="1.3" class="st3"/><circle cx="15.4" cy="7.3" r="1.3" class="st3"/><g id="kevin"><path d="M18.9 27.4c1.2 0 2.1-.9 2.1-2.1v-1.6c0-1.1-1-2-2.1-2-1.2 0-2.1.9-2.1 2v1.6c0 1.1.9 2.1 2.1 2.1zm-.2-5.1c1.5 0 1.5 2.3 0 2.3-1.4 0-1.4-2.3 0-2.3zm10.5-.6c-1.2 0-2.1.9-2.1 2v1.6c0 1.1.9 2.1 2.1 2.1s2.1-.9 2.1-2.1v-1.6c0-1.1-.9-2-2.1-2zm-.2 3c-1.5 0-1.5-2.3 0-2.3s1.5 2.3 0 2.3z" class="st4"/><path d="M35.4 19.1v-.6c0-2.5-2-4.5-4.5-4.5H17.3c-2.5 0-4.5 2-4.5 4.5v.6c-1.8 0-3.1 1.4-3.1 3v4.7c0 1.8 1.4 3 3.1 3h1.6v1.8c0 1.5 1.2 2.6 2.6 2.6h1.7c.1 0 .1 0 .1.1V37c0 .6.6.8 1.1.5l3.2-3.2h8.4c1.4 0 2.6-1.1 2.6-2.6v-1.8h1.6c1.7 0 3-1.4 3-3v-4.7c-.3-1.7-1.6-3.1-3.3-3.1zm-22.6 2c-.1 0-.5 0-.7.3-.3.3-.3.6-.3.7v4.7c0 .3-.2.6-.5.6s-.5-.3-.5-.6v-4.7c0-.2 0-.9.6-1.5s1.2-.6 1.4-.6v1.1zm19.7 10.6c0 .1-.2.5-.5.7s-.6.3-.7.3h-8.8c-.2 0-.3.1-.4.2l-1.9 1.9v-1.6c0-.3-.2-.6-.5-.6H17c-.6 0-1-.5-1-1V30h6.6c.4 0 .7-.3.8-.6l.7-2.4.7 2.5c.1.4.4.6.8.6h6.7c.2 0 .2 1.6.2 1.6zm1.1-4.9c0 .8-.5 1.6-1.4 1.6H26c-.1 0-.2-.1-.2-.2l-1-3.3c-.3-.8-1.3-.8-1.6 0l-1.1 3.3c0 .1-.1.2-.2.2h-6.2c-.8 0-1.6-.7-1.6-1.6v-6.2h19.5v6.2zm3.7 0c0 .3-.1.6-.4.6s-.5-.2-.5-.6v-4.7c0-.1-.1-.5-.4-.7-.3-.3-.6-.3-.7-.3v-1c1.1 0 2 .9 2 2.1v4.6z" class="st4"/></g><path d="M42.6 32.9l-1.2-.1c-.1-.8-.3-1.5-.6-2.2l.9-.7c.3-.3.4-.8.1-1.1l-1.7-2.1c-.3-.3-.8-.4-1.1-.1l-.8.6c0 .3-.2.6-.3.9.1.1.3.1.4 0l1.2-.9 1.7 2.1-1.2.9c-.1.1-.2.3-.1.5.4.8.6 1.6.7 2.5 0 .2.2.3.3.3l1.5.2-.3 2.7-1.5-.2c-.2 0-.4.1-.4.3-.3.8-.7 1.6-1.3 2.3 0 .1-.1.1-.1.2s0 .2.1.3l.9 1.2-2.1 1.7-.7-1.3c-.1-.1-.3-.2-.5-.1-.8.4-1.6.6-2.5.7-.2 0-.3.2-.3.3l-.2 1.5-2.7-.3.2-1.5c0-.2-.1-.4-.3-.4-.8-.3-1.6-.7-2.3-1.3-.1-.1-.3-.1-.5 0l-1.2.9-1.7-2.1 1.2-.9c.1-.1.2-.3.1-.5-.4-.8-.6-1.7-.7-2.5 0-.2-.2-.3-.3-.3l-1.5-.2V34H23v.1c0 .4.3.8.7.9l1.2.1c.1.8.3 1.5.6 2.2l-.9.7c-.3.3-.4.8-.1 1.1l1.7 2.1c.3.3.8.4 1.1.1l.9-.7c.6.5 1.3.8 2 1.1L30 43c0 .4.3.8.7.9l2.7.3c.4 0 .8-.3.9-.7l.1-1.2c.8-.1 1.5-.3 2.2-.6l.7.9c.3.3.8.4 1.1.1l2.1-1.7c.3-.3.4-.8.1-1.1l-.7-.9c.5-.6.8-1.3 1.1-2l1.2.1c.4 0 .8-.3.9-.7l.3-2.7c0-.3-.3-.7-.8-.8z" class="st5"/><path d="M28.7 37.6c2 2.5 5.6 2.9 8.1.9 1.2-1 2-2.4 2.1-3.8.2-1.5-.2-3-1.2-4.2-.3-.4-.6-.7-1-1-.3.1-.6.3-1 .3.5.3 1 .7 1.3 1.2.9 1.1 1.2 2.4 1 3.6-.1 1.3-.8 2.5-1.8 3.3-2.1 1.7-5.3 1.3-7-.8-.7-.9-1-1.9-1.1-3h-.8c.2 1.3.6 2.5 1.4 3.5z" class="st5"/></svg>