<svg xmlns="http://www.w3.org/2000/svg" id="Layer_1" x="0" y="0" version="1.1" viewBox="0 0 48 47" xml:space="preserve"><style>.st3{fill:#444}.st4{fill:#494949}</style><path fill="#46b8b0" d="M45.5 10.6l.7 4.9L2.6 31.3 2.1 21v-5.8L40.2 1.4l4.9 2.1z"/><path fill="#4ecdc4" d="M44 1.4l2.1 3.1L1.8 20.3 2.9 4.1l2.8-2.7 27.4-.2z"/><path fill="none" stroke="#444" stroke-linecap="round" stroke-linejoin="round" stroke-miterlimit="10" stroke-width="2.5" d="M17.5 45.2h-12c-1.8 0-3.2-1.5-3.2-3.3V5.1c0-1.8 1.4-3.3 3.2-3.3h36.9c1.8 0 3.2 1.5 3.2 3.3v23.2"/><circle cx="8.1" cy="7.3" r="1.3" class="st3"/><circle cx="11.8" cy="7.3" r="1.3" class="st3"/><circle cx="15.4" cy="7.3" r="1.3" class="st3"/><g id="kevin"><path d="M21.8 34.1c1.3 0 2.3-1 2.3-2.3v-1.7c0-1.2-1.1-2.2-2.3-2.2-1.3 0-2.3 1-2.3 2.2v1.7c0 1.2 1 2.3 2.3 2.3zm-.2-5.5c1.6 0 1.6 2.5 0 2.5s-1.6-2.5 0-2.5zm11.4-.7c-1.3 0-2.3 1-2.3 2.2v1.7c0 1.2 1 2.3 2.3 2.3s2.3-1 2.3-2.3v-1.7c-.1-1.2-1-2.2-2.3-2.2zm-.2 3.3c-1.6 0-1.6-2.5 0-2.5s1.6 2.5 0 2.5z" class="st4"/><path d="M39.7 25.1v-.7c0-2.7-2.2-4.9-4.9-4.9H20c-2.7 0-4.9 2.2-4.9 4.9v.7c-1.9 0-3.4 1.5-3.4 3.3v5.1c0 1.9 1.5 3.3 3.4 3.3h1.7v1.9c0 1.6 1.3 2.8 2.8 2.8h1.8c.1 0 .1 0 .1.1v2.9c0 .6.7.9 1.2.5l3.5-3.5h9.1c1.5 0 2.8-1.2 2.8-2.8v-1.9h1.7c1.8 0 3.3-1.5 3.3-3.3v-5.1c-.1-1.8-1.6-3.3-3.4-3.3zm-24.5 2.2c-.1 0-.5 0-.8.3-.3.3-.3.7-.3.8v5.1c0 .3-.2.6-.5.6s-.5-.3-.5-.6v-5.1c0-.2 0-1 .7-1.6.6-.6 1.3-.7 1.5-.7-.1.4-.1.8-.1 1.2zm21.3 11.5c0 .1-.2.5-.5.8-.3.2-.6.3-.8.3h-9.5c-.2 0-.3.1-.4.2l-2.1 2.1v-1.7c0-.3-.2-.6-.5-.6h-3c-.6 0-1.1-.5-1.1-1.1v-1.9h7.2c.4 0 .8-.3.9-.6l.8-2.6.8 2.7c.1.4.4.6.9.6h7.3v1.8zm1.5-5.3c0 .9-.8 1.7-1.7 1.7h-6.7c-.1 0-.2-.1-.2-.2l-1.1-3.6c-.3-.9-1.4-.9-1.7 0L25.4 35c0 .1-.1.2-.2.2h-6.7c-.9 0-1.7-.8-1.7-1.7v-6.7H38v6.7zm3.9 0c0 .3-.2.6-.5.6s-.5-.2-.5-.6v-5.1c0-.1-.1-.5-.4-.8-.3-.3-.7-.3-.8-.3v-1.1c1.2 0 2.2 1 2.2 2.3v5z" class="st4"/></g></svg>