<svg xmlns="http://www.w3.org/2000/svg" id="Camada_3" x="0" y="0" version="1.1" viewBox="0 0 50 50" xml:space="preserve"><style>.st4,.st8{fill:none;stroke:#444;stroke-linecap:round;stroke-linejoin:round;stroke-miterlimit:10}.st8{stroke-width:.5}</style><path fill="#b9d7d9" d="M10.77 21.61l2.37-10.83 2.53-2.95 1.5-5.69 20.41-.76 2.85 4.06.37 4.74"/><path fill="#a6c1c2" d="M43.88 15.32l-.51 12.12c-.01.25-.17.47-.41.55L3.87 42.21c-.55.2-1.32-1.51-1.01-2.01l6.58-8.14 2.09-10.89 28.61-10.99.66.59 3.08 4.55z"/><path fill="none" stroke="#444" stroke-linecap="round" stroke-linejoin="round" stroke-miterlimit="10" stroke-width="2.5" d="M9.91 48.62L1.74 40.7l5.15-5.36.58.43 2.65-2.94s-.63-1.79-.65-5.19c-.01-1.5.26-3 .77-4.42l2.71-7.44.19-4.66c0-1.89 1.76-2.32 3.01-2.47h0V4.98c0-2.01 1.65-3.63 3.66-3.6l17.14.02c2 .03 3.54 1.92 3.49 3.92l-.14 5.84s3.65.7 3.65 3.37-2.12 3.22-2.12 3.22 2.19.96 2.6 3.01c.35 1.76-2.37 3.99-2.37 3.99s2.5.63 1.89 3.51c-.36 1.67-2.46 3.48-2.46 3.48h0c3.89 4.07-1.05 6.47-1.05 6.47 0 4.42-5.67 3.37-5.67 3.37s-.67 1.11-4.54 3.78-7.52 1.38-7.52 1.38l-2.1 1.84h0"/><path fill="none" stroke="#444" stroke-linecap="round" stroke-miterlimit="10" stroke-width=".5" d="M6.2 35.12l10.23 10.16"/><path d="M20.21 42.63C24.26 31.41 18 25.56 18 25.56s1.02-9.52.95-12.89c-.04-1.94-1.62-2.6-2.95-2.8a1.54 1.54 0 00-1.77 1.54c.02 1.79-.09 4.55-.89 5.38m7.74 23.82h17.57v-2.52m-13.69.19h6.7" class="st4"/><path fill="none" stroke="#444" stroke-linecap="round" stroke-linejoin="round" stroke-miterlimit="10" stroke-width=".5" d="M21.08 1.38v1.15c0 1.02 1.1 1.85 2.45 1.85h9.48c1.35 0 2.45-.83 2.45-1.85V1.38"/><path d="M42.18 23.25l-2.22 1.28c-1.1.64-2.52.26-3.15-.85l-.33-.56c-.64-1.1-.26-2.52.85-3.15l2.22-1.28c1.1-.64 2.52-.26 3.15.85l.33.56c.63 1.1.26 2.51-.85 3.15zm-.78-6.28l-2.22 1.28c-1.1.64-2.52.26-3.15-.85l-.33-.56c-.64-1.1-.26-2.52.85-3.15l2.22-1.28c1.1-.64 2.52-.26 3.15.85l.33.56c.63 1.1.25 2.51-.85 3.15zm.5 12.94l-2.22 1.28c-1.1.64-2.52.26-3.15-.85l-.33-.56c-.64-1.1-.26-2.52.85-3.15l2.22-1.28c1.1-.64 2.52-.26 3.15.85l.33.56c.63 1.1.25 2.51-.85 3.15zm-1.23 6.68l-2.22 1.28c-1.1.64-2.52.26-3.15-.85l-.33-.56c-.64-1.1-.26-2.52.85-3.15l2.22-1.28c1.1-.64 2.52-.26 3.15.85l.33.56c.63 1.1.25 2.51-.85 3.15z" class="st4"/><path fill="#5ebebb" stroke="#444" stroke-miterlimit="10" stroke-width=".75" d="M17.17 3.37v6.81"/><path d="M21.32 18.81l2.06 4.99c.06.14.2.23.35.23h8.8l-10.68-5.7c-.32-.16-.67.16-.53.48z" class="st8"/><path d="M28.08 17.1l4.44 6.94-7.07-3.78 1.99-3.16c.15-.23.49-.23.64 0z" class="st8"/><path d="M34.65 18.76l-2.13 5.28-2.42-3.78 4.03-1.99c.32-.15.65.17.52.49z" class="st8"/><path d="M36.39 17.44l-5.62-5.63-9.33 2.5-2.5 9.33 6.83 6.82 9.32-2.5 1.35-5.01m2.87-10.69l-6.81-6.8-15.63 4.19m4.7 24.53l2.55 2.55 11.31-3.03" class="st8"/></svg>