<svg xmlns="http://www.w3.org/2000/svg" id="Layer_1" x="0" y="0" version="1.1" viewBox="0 0 50 50" xml:space="preserve"><style>.st2{fill:#031326}</style><path fill="#46b8b0" d="M7.3 37.8l5.5 3.1L45 29.2V16c0-1.6-.8-3-2.2-3.8l-15.5-9c-1.4-.8-3-.8-4.4 0l-15.5 9c-1.5.8-2.3 2.3-2.3 3.8v18c0 1.5.8 3 2.2 3.8z"/><path fill="#4ecdc4" d="M35.5 8.1l-8.3-4.8c-1.4-.8-3-.8-4.4 0l-15.5 9c-1.4.7-2.2 2.2-2.2 3.7v3.1l30.4-11z"/><path d="M25 48.5c-1 0-1.9-.2-2.8-.7l-15.5-9C5 37.8 3.9 36 3.9 34V16c0-2 1.1-3.8 2.8-4.8l15.5-9c1.7-1 3.9-1 5.6 0l15.5 9c1.7 1 2.8 2.8 2.8 4.8v13.2c0 .7-.5 1.2-1.2 1.2s-1.2-.5-1.2-1.2V16c0-1.1-.6-2.2-1.6-2.8l-15.5-9c-1-.6-2.2-.6-3.2 0l-15.5 9c-1 .6-1.6 1.6-1.6 2.8v18c0 1.1.6 2.2 1.6 2.8l15.5 9c1 .6 2.2.6 3.2 0l4.3-2.5c.6-.3 1.3-.1 1.6.4.3.6.1 1.3-.4 1.6l-4.3 2.5c-.9.5-1.8.7-2.8.7z" class="st2"/><path d="M25 24.4c2.8 0 5-2.2 5.1-4.9v-.3c0-2.8-2.3-5.1-5.2-5.1-2.8 0-5.1 2.3-5.2 5.1h4c.2 0 .4.2.4.4s-.2.4-.4.4h-5.2c-2.5.1-4.5 2.3-4.5 5s2 4.9 4.7 5.1c.3-3.2 3-5.7 6.3-5.7zm-1.3-6.7c-.5 0-.9-.4-.9-.9s.4-.9.9-.9.9.4.9.9-.4.9-.9.9z" class="st2"/><path d="M31.3 19.8c-.3 3.2-3 5.8-6.3 5.8-2.8 0-5 2.2-5.1 4.9v.2c0 2.9 2.3 5.2 5.2 5.2 2.8 0 5.1-2.3 5.2-5.1h-4c-.2 0-.4-.2-.4-.4s.2-.4.4-.4h4.9c2.6 0 4.8-2.3 4.8-5s-2.1-4.9-4.7-5.2zm-5 12.5c.5 0 .9.4.9.9s-.4.9-.9.9-.9-.4-.9-.9.4-.9.9-.9z" class="st2"/></svg>