<svg xmlns="http://www.w3.org/2000/svg" id="Layer_1" x="0" y="0" version="1.1" viewBox="0 0 50 50" xml:space="preserve"><style>.st2{fill:#031326}</style><path fill="#e06b6b" d="M25.6 1.9C13.2 1.9 3 11.4 1.8 23.5L42.2 8.7C37.9 4.5 32 1.9 25.6 1.9z"/><path fill="#c86060" d="M48.2 25c0-6.5-2.7-12.3-7-16.5l-39 14.2c-.1.8-.1 1.5-.1 2.3 0 6.3 2.5 12 6.6 16.2l39.4-14.3c.1-.7.1-1.3.1-1.9z"/><path d="M40.7 24.2l-7.2-2.3v-1.7l-8.3-4.8-6.1 3.5 21.6 6.9v8.1l-15.5 8.9-15.5-8.9v-8.1l7.2 2.3v1.7l8.3 4.8 6.2-3.6-21.7-6.9v-8l15.5-8.9 15.5 8.9v8.1z" class="st2"/><path d="M25.2 49.3C11.8 49.3.9 38.4.9 25S11.8.7 25.2.7 49.5 11.6 49.5 25c0 1.5-.1 2.9-.4 4.3-.1.7-.8 1.1-1.5 1-.7-.1-1.1-.8-1-1.5.2-1.3.3-2.6.3-3.9 0-12-9.8-21.8-21.8-21.8S3.4 13 3.4 25c0 12 9.8 21.8 21.8 21.8 3.1 0 6-.6 8.8-1.9.6-.3 1.4 0 1.6.6.3.6 0 1.4-.6 1.6-3.1 1.5-6.4 2.2-9.8 2.2z" class="st2"/></svg>