<svg xmlns="http://www.w3.org/2000/svg" id="Layer_1" x="0" y="0" version="1.1" viewBox="0 0 50 50" xml:space="preserve"><style>.st3{fill:#444}</style><path fill="#e589ef" d="M46.9 26.2l.3 4.1L2.5 46.6l.1-8.7.3-5.1 44.6-16.2-.7 3.6z"/><path fill="#f799ff" d="M47 10l-.5 7.5L2.7 33.4V24l.3-4.3L47.2 3.6z"/><path d="M32.5 48.5h-30c-.7 0-1.2-.6-1.2-1.2V2.8c0-.7.6-1.2 1.2-1.2h44.7c.7 0 1.2.6 1.2 1.2v34.4c0 .7-.6 1.2-1.2 1.2s-1.2-.6-1.2-1.2V4H3.8v42h28.7c.7 0 1.2.6 1.2 1.2s-.5 1.3-1.2 1.3z" class="st3"/><path d="M25.9 35.2c0-1.4 0-1.4 1.4-1.4 1 0 1 0 1.3-.9.1-.2.2-.5.3-.7.3-.6.3-.7-.2-1.3l-.7-.7c-.3-.3-.3-.6 0-.9l1.1-1.1c.3-.3.6-.3.9 0l.9.9c.3.3.6.3.9.1.4-.2.9-.4 1.3-.5.3-.1.5-.4.5-.7v-1.2c0-.5.2-.7.7-.7h1.4c.5 0 .7.2.7.7V28c0 .4.2.6.5.8.4.2.9.3 1.3.5s.6.1.9-.2c.3-.3.5-.6.8-.8.3-.3.7-.3 1 0l1 1c.3.3.3.6 0 .9-.3.3-.5.6-.8.8-.3.3-.3.6-.2 1 .2.4.4.8.5 1.3.1.4.4.6.8.6h1.2c.5 0 .7.2.7.7V36c0 .4-.2.7-.7.7h-1.2c-.4 0-.6.2-.8.6-.2.4-.3.9-.5 1.3-.2.3-.1.6.1.9.3.3.6.5.8.8.3.4.3.7 0 1l-1 1c-.4.3-.7.3-1 0l-.8-.8c-.3-.3-.5-.3-.9-.1-.4.2-.9.4-1.3.6-.3.1-.5.3-.5.7v1.2c0 .5-.2.7-.7.8h-1.4c-.5 0-.7-.2-.7-.7v-1.2c0-.4-.2-.6-.5-.7-.5-.2-.9-.3-1.3-.6-.3-.2-.6-.1-.9.1l-.9.9c-.3.3-.6.3-.9 0-.4-.3-.7-.7-1-1-.3-.3-.3-.7 0-1 .3-.3.5-.6.8-.8.3-.3.3-.6.2-.9-.2-.4-.4-.9-.5-1.3-.1-.4-.4-.5-.8-.5h-1.1c-.6 0-.8-.2-.8-.8.1-.6.1-.8.1-1zm5.2 0c0 2.2 1.7 4 4 4 2.2 0 3.9-1.7 3.9-3.9s-1.7-4-4-4c-2.1-.1-3.9 1.7-3.9 3.9z" class="st3"/><path d="M25.6 42.5h-13c-1.2 0-2.3-1-2.3-2.3V9.8c0-1.2 1-2.3 2.3-2.3h24.8c1.2 0 2.3 1 2.3 2.3V26c0 .3-.2.5-.5.5s-.5-.2-.5-.5V9.8c0-.7-.6-1.3-1.3-1.3H12.6c-.7 0-1.3.6-1.3 1.3v30.5c0 .7.6 1.3 1.3 1.3h13c.3 0 .5.2.5.5s-.2.4-.5.4z" class="st3"/><path d="M35.4 16.7H15.8c-.3 0-.5-.2-.5-.5s.2-.5.5-.5h19.6c.3 0 .5.2.5.5s-.2.5-.5.5zm0 4.4H15.8c-.3 0-.5-.2-.5-.5s.2-.5.5-.5h19.6c.3 0 .5.2.5.5s-.2.5-.5.5zm-4.3 4.5H15.8c-.3 0-.5-.2-.5-.5s.2-.5.5-.5h15.3c.3 0 .5.2.5.5s-.2.5-.5.5zM24.9 30h-9.1c-.3 0-.5-.2-.5-.5s.2-.5.5-.5h9.1c.3 0 .5.2.5.5s-.2.5-.5.5zm12.2 3.1c-.5-.8-1.6-1-2.3-.5l-1.3.8c-.4.2-.6.6-.7 1-.1.4 0 .7.2 1-.1.2-.2.4-.2.6-.1.4 0 .9.3 1.2.5.8 1.6 1 2.3.5l1.3-.8c.4-.2.6-.6.7-1 .1-.4 0-.7-.2-1 .1-.2.2-.4.2-.6.1-.4 0-.9-.3-1.2zm-.4 1.2c-.2-.1-.4-.2-.6-.2 0-.1 0-.1-.1-.2s-.2-.2-.3-.1h-.1l-1.3.8c-.1 0-.1.1-.1.2s0 .2.1.2c.1.1.2.2.3.1h.1l.5-.3c.1-.1.2-.1.3-.1.4-.1.9.1 1.1.4.2.2.2.5.2.7 0 .3-.2.5-.4.6l-1.3.8c-.1.1-.2.1-.3.1-.4.1-.9-.1-1.1-.4-.2-.2-.2-.5-.2-.7V36h.1c.2.1.3.2.5.3 0 .1 0 .1.1.2s.2.2.3.1h.1l1.3-.8c.1 0 .1-.1.1-.2s0-.2-.1-.2c-.1-.1-.2-.2-.3-.1h-.1l-.5.3c-.1.1-.2.1-.3.1-.4.1-.9-.1-1.1-.4-.2-.2-.2-.5-.2-.7 0-.3.2-.5.4-.6l1.3-.8c.1-.1.2-.1.3-.1.4-.1.9.1 1.1.4.2.2.2.5.2.7v.1z" class="st3"/></svg>