<svg xmlns="http://www.w3.org/2000/svg" viewBox="0 0 50 50"><path fill="#e56060" d="M41.2 24.1l-4.1 1.5-10.9 4-6 2.2-7 2.5-3.7 1.3c-1.2-2.5-1-5.4.4-7.8-1.3-1.5-2.1-3.3-2.1-5.3v-.6l4.6-1.7 21.2-7.7 4-1.5 1.1 1.1c.4.4.7.8 1 1.3.9 1.3 1.4 2.9 1.4 4.5 0 1.5-.4 3-1.2 4.3.6.6 1 1.2 1.3 1.9z"/><path fill="#ff6b6b" d="M38.1 11.4l-4 1.5-21.9 8L8 22.5v-.6c.1-2 .9-3.9 2.4-5.4L21 5.8c1.5-1.5 3.6-2.4 5.8-2.4 2.2 0 4.2.8 5.8 2.4l5.5 5.6z"/><g fill="none" stroke="#494949" stroke-linecap="round" stroke-linejoin="round" stroke-miterlimit="10"><path stroke-width="1.5" d="M31.3 24.5l-6.7 6.7c-1.3 1.3-3.5 1.3-4.8 0L13 24.5c-1.3-1.3-1.3-3.5 0-4.8L24.5 8.1c1.3-1.3 3.5-1.3 4.8 0l6.7 6.7c1.3 1.3 1.3 3.5 0 4.8"/><path d="M18.7 25.5l6.7-6.7c1.3-1.3 3.5-1.3 4.8 0l6.7 6.7c1.3 1.3 1.3 3.5 0 4.8L25.5 41.9c-1.3 1.3-3.5 1.3-4.8 0L14 35.2c-1.3-1.3-1.3-3.5 0-4.8"/></g><path fill="none" stroke="#494949" stroke-linecap="round" stroke-linejoin="round" stroke-miterlimit="10" stroke-width="2.5" d="M39.7 33.4L29 44.2c-1.5 1.5-3.6 2.4-5.8 2.4s-4.2-.8-5.8-2.4L11.1 38c-.7-.7-1.2-1.5-1.6-2.3-1.2-2.5-1-5.4.4-7.8-1.3-1.5-2.1-3.3-2.1-5.3V22c.1-2 .9-3.9 2.4-5.4L21 5.8c1.5-1.5 3.6-2.4 5.8-2.4 2.2 0 4.2.8 5.8 2.4l6.2 6.2c.4.4.7.8 1 1.3.9 1.3 1.4 2.9 1.4 4.5 0 1.5-.4 3-1.2 4.3.5.6.9 1.2 1.3 1.9 1.4 3.1.9 6.9-1.6 9.4z"/></svg>