<svg xmlns="http://www.w3.org/2000/svg" viewBox="0 0 50 50"><path fill="#fcc34f" d="M45 10.8l-2.7-2.7L4.7 21.8v24.5c0 1.1.9 2.1 2.1 2.1h19.7L45 41.6V10.8z"/><path fill="#fdcf72" d="M35.8 2H7.5c-1.1 0-2 .9-2 2v18.1l37-13.5L35.8 2z"/><path fill="#031326" d="M45.8 18.9v-8l-10-10H7.4C5.6.9 4.2 2.4 4.2 4.1v14.7c-1.3.2-2.3 1.2-2.3 2.5v16.1c0 1.3 1 2.4 2.3 2.5v5.8c0 1.8 1.5 3.2 3.2 3.2h30.2c.7 0 1.2-.6 1.2-1.2s-.6-1.2-1.2-1.2H7.4c-.4 0-.8-.3-.8-.8V40h36.6v2.2c0 .7.6 1.2 1.2 1.2s1.2-.6 1.2-1.2V40c1.3-.1 2.3-1.2 2.3-2.5V21.3c.2-1.3-.8-2.3-2.1-2.4zM7.4 3.4h26l.2 7c0 1.3 1.1 2.3 2.4 2.3l7.3-.2v6.3H6.7V4.2c0-.4.3-.8.7-.8zm3.1 33.3c-1.5 0-3-.4-3.8-.8v-1l.4-1.7c.9.4 2.2.9 3.6.9 1.5 0 2.3-.6 2.3-1.5s-.7-1.4-2.4-2c-2.2-.8-3.7-2-3.9-3.8V26c.2-2.3 2.2-3.9 5.3-3.9 1.6 0 2.8.3 3.6.7l-.7 2.6c-.6-.3-1.6-.7-3-.7s-2.1.6-2.1 1.4c0 .9.8 1.3 2.6 2 2.5.9 3.7 2.2 3.7 4.2.1 2.4-1.7 4.4-5.6 4.4zm19.8-14.4l-4.8 14.2h-3.8l-4.6-14.2h3.5l1.7 6c.5 1.7.9 3.3 1.3 5.1h.1c.4-1.7.8-3.4 1.3-5l1.8-6.1h3.5zm8.5 14.4c-2.6 0-4.5-.7-5.8-1.9-1.3-1.2-2-3.1-2-5.2 0-4.7 3.5-7.4 8.1-7.4 1.8 0 3.2.4 3.9.7l-.7 2.6c-.8-.3-1.8-.6-3.3-.6-2.7 0-4.7 1.5-4.7 4.6 0 2.9 1.8 4.7 4.5 4.7.7 0 1.3-.1 1.6-.2v-3h-2.2v-2.5h5.1V36c-1 .3-2.8.7-4.5.7z"/></svg>