<svg xmlns="http://www.w3.org/2000/svg" version="1.0" viewBox="0 0 50 50"><path fill="#AFE55D" d="M12.366 43.158l33.938-12.352c.503-1.851.776-3.796.776-5.806 0-12.21-9.898-22.108-22.108-22.108S2.863 12.79 2.863 25c0 7.524 3.762 14.165 9.503 18.158z"/><path fill="#C3FF68" d="M37.087 6.457a22.003 22.003 0 00-12.032-3.565c-9.959 0-18.378 6.586-21.144 15.64L37.087 6.457z"/><g fill="#444"><path d="M15.972 22.204v-1.917c.027-1.302.387-2.094 1.078-2.376l-.518-1.555c-.966.294-1.697.769-2.193 1.422-.497.654-.753 1.511-.77 2.571v1.855c0 1.195-.444 1.793-1.333 1.793v2.005c.889 0 1.333.595 1.333 1.784v1.749c0 2.144.988 3.513 2.963 4.108l.518-1.564c-.691-.283-1.051-1.075-1.078-2.376v-1.908c0-1.325-.508-2.258-1.523-2.8 1.016-.541 1.523-1.472 1.523-2.791zm3.901 1.303c-.444 0-.811.141-1.099.424-.288.283-.432.639-.432 1.069s.144.786.432 1.069c.288.283.654.424 1.099.424.439 0 .804-.14 1.095-.42.291-.28.436-.638.436-1.073s-.145-.794-.436-1.073c-.291-.28-.656-.42-1.095-.42zm5.095 0c-.444 0-.811.141-1.099.424-.288.283-.432.639-.432 1.069s.144.786.432 1.069c.288.283.654.424 1.099.424.439 0 .804-.14 1.095-.42.291-.28.436-.638.436-1.073s-.145-.794-.436-1.073c-.291-.28-.656-.42-1.095-.42zm5.094 0c-.444 0-.811.141-1.099.424-.288.283-.432.639-.432 1.069s.144.786.432 1.069c.288.283.654.424 1.099.424.439 0 .804-.14 1.095-.42s.436-.638.436-1.073-.145-.794-.436-1.073-.656-.42-1.095-.42zm6.42-3.078c-.005-1.084-.255-1.96-.749-2.628-.494-.668-1.232-1.15-2.214-1.444l-.518 1.555c.691.283 1.051 1.075 1.078 2.376v1.917c0 1.325.51 2.256 1.531 2.792-1.021.536-1.531 1.466-1.531 2.791v1.917c-.027 1.301-.387 2.094-1.078 2.376l.518 1.564c1.937-.583 2.924-1.911 2.963-3.984v-1.882c0-1.184.444-1.776 1.333-1.776v-2.005c-.889 0-1.333-.598-1.333-1.793v-1.776z"/><path d="M25.025 1.642C12.146 1.642 1.667 12.121 1.667 25c0 12.88 10.479 23.358 23.358 23.358a1.25 1.25 0 000-2.5C13.524 45.858 4.167 36.501 4.167 25S13.524 4.142 25.025 4.142 45.884 13.499 45.884 25c0 1.864-.246 3.713-.73 5.493a1.25 1.25 0 102.412.656c.543-1.994.818-4.063.818-6.149 0-12.879-10.479-23.358-23.359-23.358z"/><path d="M25.025 7.023C15.113 7.023 7.049 15.088 7.049 25s8.064 17.977 17.976 17.977S43.002 34.912 43.002 25 34.938 7.023 25.025 7.023zm0 34.454C15.94 41.477 8.549 34.085 8.549 25S15.94 8.523 25.025 8.523 41.502 15.915 41.502 25 34.11 41.477 25.025 41.477z"/></g></svg>