<svg xmlns="http://www.w3.org/2000/svg" id="Layer_1" x="0" y="0" version="1.1" viewBox="0 0 50 50" xml:space="preserve"><style>.st2{fill:#031326}</style><path fill="#e56060" d="M6.5 38.3l7.2 4.1L45.9 23l-.1-7.3c0-1.6-.9-3.2-2.3-4L27.3 2.3c-1.4-.8-3.2-.8-4.6 0L6.5 11.7c-1.4.8-2.3 2.3-2.3 4v18.7c0 1.6.9 3.1 2.3 3.9z"/><path fill="#ff6b6b" d="M32.4 5l-5.1-2.7c-1.4-.8-3.2-.8-4.6 0L6.5 11.7c-1.4.8-2.3 2.3-2.3 4l.2 5.6L32.4 5z"/><path d="M25 49.5c-1 0-2-.3-2.9-.8L5.9 39.4c-1.8-1-2.9-3-2.9-5V15.6c0-2.1 1.1-4 2.9-5l16.2-9.4c1.8-1 4-1 5.8 0l16.2 9.4c1.8 1 2.9 3 2.9 5v13.7c0 .7-.6 1.2-1.2 1.2s-1.2-.6-1.2-1.2V15.6c0-1.2-.6-2.3-1.7-2.9L26.7 3.4c-1-.6-2.3-.6-3.4 0L7.1 12.7c-1 .6-1.7 1.7-1.7 2.9v18.7c0 1.2.6 2.3 1.7 2.9l16.2 9.4c1 .6 2.3.6 3.4 0l4.5-2.6c.6-.3 1.3-.1 1.7.5.3.6.1 1.3-.5 1.7l-4.5 2.6c-.9.5-1.9.7-2.9.7z" class="st2"/><path d="M35.4 28.9c.5-1.8 1.8-8.6-7.3-14.6-.3-.2-.7-.2-1 .1s-.3.7 0 1c0 0 3.4 4.2 2.2 9.1C27.2 23 22 19.2 19 16.4c-.3-.3-.7-.3-1 0s-.4.7-.1 1c.1.1 1.3 1.8 2.7 3.6-1.2-.9-2.7-2.1-4.5-3.6-.3-.2-.7-.2-1 0-.3.3-.3.7-.1 1 .3.4 6.2 7.9 10 10.8-1.8.7-5.8 1.4-11.1-2-.3-.2-.7-.2-1 .1-.3.2-.3.6-.1.9s4.4 7.4 13.4 7.4c2.5 0 3.9-.7 5.1-1.3.7-.4 1.3-.6 1.9-.6 1.5 0 2.5 1.6 2.5 1.6.1.2.4.4.7.4h.1c.3 0 .5-.2.6-.5 1-2.5-.9-5.3-1.7-6.3zm-2.3 3.4c-1 0-1.8.4-2.6.8-1.1.5-2.3 1.1-4.4 1.1-4.4 0-7.6-2-9.6-3.8 6.2 2.4 10.2-.2 10.4-.4.2-.1.4-.4.3-.7 0-.3-.2-.5-.4-.6-1.5-.9-3.9-3.3-6-5.6 2.4 1.7 3.5 2.3 3.6 2.3.4.2.8.1 1-.3.2-.3.1-.8-.2-1-.4-.4-1.2-1.2-2-2.2 3 2.3 5.7 4.2 5.9 4.3.2.1.4.2.7.1.2-.1.4-.2.5-.5 1.2-3.1.6-6-.2-8.1 5.9 5.5 3.7 10.6 3.6 10.8-.1.3-.1.6.1.8 0 0 1.6 1.8 1.8 3.7-.5-.2-1.4-.7-2.5-.7z" class="st2"/></svg>