<svg xmlns="http://www.w3.org/2000/svg" id="Layer_1" x="0" y="0" version="1.1" viewBox="0 0 50 50" xml:space="preserve"><style>.st3{fill-rule:evenodd;clip-rule:evenodd;fill:#444}</style><path fill="#00c8e2" d="M5 45.4l41.8-15.2V8.6c0-3-2.4-5.4-5.4-5.4H8.6c-3 0-5.4 2.4-5.4 5.4v32.8c0 1.5.6 3 1.8 4z"/><path fill="#00dffc" d="M45 4.6c-1-.9-2.3-1.4-3.6-1.4H8.6c-3 0-5.4 2.4-5.4 5.4v11.3C3.2 19.8 45 4.6 45 4.6z"/><path fill="#444" d="M25 48.1H8.4c-3.6 0-6.6-3-6.6-6.6V8.4c0-3.6 2.9-6.6 6.6-6.6h33.1c3.6 0 6.6 2.9 6.6 6.6v21.7c0 .6-.5 1.2-1.2 1.2s-1.2-.5-1.2-1.2V8.4c0-2.3-1.9-4.2-4.2-4.2H8.4c-2.3 0-4.2 1.9-4.2 4.2v33.1c0 2.3 1.9 4.2 4.2 4.2H25c.6 0 1.2.5 1.2 1.1s-.5 1.3-1.2 1.3z"/><path id="O" d="M28.8 32.1c.6 2.2.9 3.7 1.1 4.6.2.9.1 1.8-.2 2.7s-.7 1.6-1.4 2.2c-.7.6-1.6 1.1-2.6 1.3-1 .3-2 .3-2.8.2-.9-.2-1.7-.6-2.4-1.2s-1.2-1.4-1.5-2.2c-.3-.9-.8-2.4-1.4-4.6l-1-3.7c-.6-2.2-.9-3.7-1.1-4.6s-.1-1.8.2-2.7c.3-.9.7-1.6 1.4-2.2.7-.6 1.6-1.1 2.6-1.3 1-.3 2-.3 2.8-.2.9.2 1.7.6 2.4 1.2s1.2 1.4 1.5 2.2c.3.9.8 2.4 1.4 4.6l1 3.7zm-6.7-5.8c-.3-1-.5-1.6-.7-1.9-.2-.3-.4-.3-.7-.3-.3.1-.4.2-.5.5s0 .9.3 2.1l2.7 10.1c.3 1.3.6 2 .8 2.3.2.3.4.4.7.3.3-.1.5-.3.5-.7 0-.4-.2-1.2-.5-2.4l-2.6-10z" class="st3"/><path id="O_1_" d="M39.5 31.6c-1 2-1.7 3.4-2.2 4.2-.5.8-1.1 1.4-1.9 1.9-.8.5-1.6.7-2.5.7-.9 0-1.9-.2-2.9-.7-.9-.5-1.7-1-2.3-1.8-.6-.7-.9-1.5-1-2.5-.1-.9 0-1.8.3-2.7.3-.9 1-2.3 2-4.4l1.7-3.4c1-2 1.7-3.4 2.2-4.2s1.1-1.4 1.9-1.9 1.6-.7 2.5-.7c.9 0 1.9.2 2.9.7.9.5 1.7 1 2.3 1.8.6.7.9 1.5 1 2.5.1.9 0 1.8-.3 2.7-.3.9-1 2.3-2 4.4l-1.7 3.4zm-1.3-8.8c.5-.9.7-1.6.7-1.9 0-.3-.1-.5-.4-.7-.2-.1-.5-.1-.7.1-.2.1-.6.7-1.1 1.8l-4.6 9.4c-.6 1.2-.9 1.9-.9 2.2-.1.3.1.5.4.7.3.2.6.1.8-.2.2-.3.6-1 1.2-2.2l4.6-9.2z" class="st3"/></svg>