<svg xmlns="http://www.w3.org/2000/svg" id="Layer_1" x="0" y="0" version="1.1" viewBox="0 0 50 50" xml:space="preserve"><style>.st2{fill:#031326}</style><path fill="#afe55d" d="M48.1 20.8L4.6 36.6l-2.5-6.3-.6-10.4 38-13.8 5.8 7.1z"/><path fill="#c3ff68" d="M39.5 6.1l-38 13.8L7.3 9.5l6.4-5.1 8.4-2.9 10 .8z"/><path d="M25 49.7C11.4 49.7.2 38.6.2 25S11.4.3 25 .3s24.8 11.1 24.8 24.8c0 .7-.6 1.3-1.2 1.3s-1.2-.6-1.2-1.3c0-12.3-10-22.2-22.2-22.2S2.8 12.7 2.8 25s10 22.2 22.2 22.2c.7 0 1.2.6 1.2 1.2s-.5 1.3-1.2 1.3z" class="st2"/><path d="M34.4 11.4c-2.2.1-4.1 1.3-5.5 2.9-1.6 1.8-2.6 4-3.4 6.2-1.3-1.1-2.4-2.5-4.6-3.2-1.7-.5-3.4-.3-5 .9-.8.6-1.3 1.4-1.5 2.2-.6 2.1.7 4 1.3 4.7l1.3 1.4c.3.3.9 1 .6 2-.3 1.1-1.7 1.9-3.1 1.4-.6-.2-1.5-.7-1.3-1.3.1-.3.3-.5.4-.7.1-.2.1-.3.2-.4.3-.8-.1-1.9-1-2.2-.8-.3-1.7-.1-2 1-.4 1.2.2 3.4 3.3 4.4 3.7 1.1 6.8-.9 7.2-3.5.3-1.6-.5-2.8-1.8-4.4l-1.1-1.2c-.7-.7-.9-1.8-.2-2.7.6-.7 1.4-1 2.8-.7 2 .5 2.9 1.9 4.3 3-.6 2-1 4-1.4 5.8l-.2 1.3c-1.1 5.5-1.9 8.5-3.9 10.3-.4.3-1 .7-1.9.8-.5 0-.6-.3-.6-.5 0-.3.3-.5.5-.6.3-.2.7-.4.7-1.2 0-1-.8-1.8-2-1.7-.9 0-2.2.8-2.1 2.3.1 1.5 1.5 2.7 3.6 2.6 1.1 0 3.7-.5 6.2-3.5 2.9-3.4 3.7-7.4 4.4-10.2l.7-3.8c.4 0 .8.1 1.2.1 3.6.1 5.5-1.8 5.5-3.2 0-.8-.5-1.7-1.3-1.6-.6 0-1.3.4-1.4 1.2-.2.8 1.2 1.5.1 2.1-.7.5-2.1.8-3.9.5l.3-1.9c.7-3.5 1.5-7.9 4.8-8 .2 0 1.1 0 1.1.6 0 .2 0 .2-.3.7-.2.3-.3.6-.3 1 0 .9.7 1.5 1.7 1.5 1.3 0 1.7-1.3 1.7-2-.3-1.4-1.9-2.4-4.1-2.4z" class="st2"/></svg>