<svg xmlns="http://www.w3.org/2000/svg" id="Layer_1" x="0" y="0" version="1.1" viewBox="0 0 50 50" xml:space="preserve"><style>.st2{fill:none}.st3{fill:#494949}</style><path fill="#fcc34f" d="M49.4 19v.6l-2.4.9-3.8 1.4-6 2.1-5.3 2-5.2 1.9-18.8 6.8-2.3.8c-1.7-2.1-2.9-4.8-3.1-7.7h-.8c-.6 0-1.1-.5-1.1-1.1s.5-1.1 1.1-1.1h.8c.5-6.9 6-12.3 12.9-12.9V12c0-.6.5-1.1 1.1-1.1s1.1.5 1.1 1.1v.8c3.7.3 6.9 2 9.3 4.5.2-1.1.5-2.2.9-3.3l.1-.1c1.3-2.7 3.6-4.8 6.4-5.9 2.7-1 5.9-.9 8.6.4 1.6.7 3 1.8 4.1 3.2.9 1.2 1.7 2.5 2.1 4 .2 1.1.3 2.2.3 3.4z"/><path fill="#fdcf72" d="M46.9 11.7l-2.2.8-.9.3-2.1.8-2.2.8-6.8 2.5-3.7 1.3-3.5 1.3-9 3.3-2.7 1L7.4 26l-5 1.8h-.7c-.6 0-1.1-.5-1.1-1.1s.5-1.1 1.1-1.1h.8c.5-6.9 6-12.3 12.9-12.9V12c0-.6.5-1.1 1.1-1.1s1.1.5 1.1 1.1v.8c3.7.3 6.9 2 9.3 4.5.2-1.1.5-2.2.9-3.3l.1-.1c1.3-2.7 3.6-4.8 6.4-5.9 2.7-1 5.9-.9 8.6.4 1.5.8 2.9 1.9 4 3.3z"/><path d="M25 26.8c0-.7.6-1.2 1.2-1.2h1.7c-.1-.6-.2-1.3-.4-1.9v-.1s-.1-.1-.1-.2c-.2-.4-.3-.8-.4-1.2-.4-1-.9-1.9-1.5-2.7-1.4-1.7-3.4-3.1-5.5-3.8h-.1c-.7-.3-1.5-.4-2.2-.5v1.7c0 .7-.6 1.2-1.2 1.2s-1.2-.6-1.2-1.2v-1.7c-5.4.6-9.7 4.8-10.2 10.2h1.6c.4 0 .8.3.9.4.2.2.3.5.3.8 0 .7-.6 1.2-1.2 1.2H4.8c.3 2.6 1.4 4.9 3 6.7 1.8 2 4.4 3.3 7.3 3.6v-1.7c0-.7.6-1.2 1.2-1.2s1.2.6 1.2 1.2v1.7c5.4-.6 9.7-4.8 10.2-10.2H26c-.5.1-1-.4-1-1.1zm-8.6 4.1c-2.3 0-4.2-1.9-4.2-4.2s1.9-4.2 4.2-4.2 4.2 1.9 4.2 4.2-1.9 4.2-4.2 4.2z" class="st2"/><path d="M16.4 25c-1 0-1.7.8-1.7 1.7 0 .9.8 1.7 1.7 1.7s1.7-.8 1.7-1.7-.7-1.7-1.7-1.7z" class="st2"/><path d="M16.4 22.5c-2.3 0-4.2 1.9-4.2 4.2s1.9 4.2 4.2 4.2 4.2-1.9 4.2-4.2-1.9-4.2-4.2-4.2zm0 5.9c-.9 0-1.7-.8-1.7-1.7 0-.9.7-1.7 1.7-1.7s1.7.8 1.7 1.7-.8 1.7-1.7 1.7z" class="st3"/><path d="M47.4 11.7c-1.6-2.1-3.7-3.2-4.7-3.6-4.1-1.7-7.8-.4-8.6-.1-2.5.9-4 2.5-5 3.5-1.2 1.2-1.6 2.2-1.7 2.4-.3.6-.4 1.3-.5 1.6-.2.6-.3 1.2-.3 1.6-2.4-2.6-5.6-4.1-9.1-4.3V12c0-.7-.6-1.2-1.2-1.2-.7 0-1.2.6-1.2 1.2v.7c-6.8.5-12.2 5.9-12.8 12.9h-.6c-.7 0-1.2.6-1.2 1.2S1 28 1.7 28h.7c.2 2.8 1.3 5.6 3.1 7.7 2.3 3 5.8 4.8 9.8 5.2v.7c0 .7.6 1.2 1.2 1.2s1.2-.6 1.2-1.2v-.7C24.6 40.4 30 35 30.6 28h.7c.7 0 1.2-.6 1.2-1.2 0-.4-.2-.7-.4-.9-.2-.2-.6-.3-.8-.3h-.7c-.1-1.6-.5-3.2-1.2-4.5-.1-.5-.2-1.1-.2-2 0-.7 0-2.7 1.2-4.5.3-.5 1.4-2 3.4-2.8 3.9-1.5 7.5 1.4 8 2 .3.3.5.7.5.7s.3.5.4 1.1c.5 1.9-.1 4.1-1.5 5.4-.3.2-.7.6-1.3.8-.4.1-1.4.5-2.7.1-.4-.1-1.5-.6-2.1-1.7-.1-.2-.4-.8-.4-1.6 0-1 .5-2 1.3-2.5.1-.1.3-.1.4-.1.9-.3 1.8-.1 2.4.6.4.5.4 1.1.1 1.7-.1.3-.1.7.1 1.1 0 0 .4.6 1 .6.5 0 .8-.3.9-.4.2-.2.3-.3.3-.4.1-.4.3-1 .3-1.8 0-.2-.1-1-.6-1.9-.2-.4-.5-.9-1.1-1.3-.3-.2-.6-.4-.8-.4-.3-.1-.7-.2-.9-.2H37c-.7.1-1.3.3-1.7.5s-1.7 1-2.3 2.7c-.2.8-.3 1.6-.2 2.6.2 2.3 2 3.7 2 3.7 1.1.9 2.3 1 2.8 1.1.9.1 1.7 0 2.2-.1.4-.1 1.1-.2 1.9-.6 1-.4 1.6-1 2.1-1.5 1.2-1.4 1.8-3.4 1.6-5.4 0-.4-.1-.8-.2-1.2-.2-1.1-.6-1.9-1-2.5-.5-.7-1.1-1.5-1.9-2.1.7.3 1.7.9 2.7 1.9 1.4 1.5 2 3 2.1 3.3.5 1.5.6 3 .3 4.5-.2 1.3-.7 2.2-1 2.8-.2.3-1.7 2.9-4.7 4.1-1.3.6-2.7.8-4.2.6-.2 0-.4 0-.7.1-.3.2-.5.4-.6.6-.2.3-.2.7 0 1 .1.1.1.3.3.4l.4.4c.3.2.5.2.7.2h1c1 0 2.5-.1 4.1-.7 4.9-1.9 6.5-7.1 6.6-7.8.2-.4 1.6-5.9-1.9-10.5zM17.6 38.3v-1.7c0-.7-.6-1.2-1.2-1.2s-1.2.6-1.2 1.2v1.7c-2.9-.3-5.5-1.6-7.3-3.6-1.7-1.8-2.7-4.1-3-6.7h1.7c.7 0 1.2-.6 1.2-1.2 0-.3-.1-.6-.3-.8-.1-.1-.5-.4-.9-.4H4.9c.5-5.4 4.8-9.7 10.2-10.2v1.7c0 .7.6 1.2 1.2 1.2s1.2-.6 1.2-1.2v-1.7c.7.1 1.5.2 2.2.5h.1c2.1.7 4.1 2 5.5 3.8.6.8 1.1 1.7 1.5 2.7.1.2.2.4.3.7.3.7.4 1.3.5 1.7 0 .2.1.6.2.9H26c-.7 0-1.2.6-1.2 1.2s.6 1.2 1.2 1.2h1.7c-.4 5.3-4.7 9.6-10.1 10.2z" class="st3"/></svg>