<svg xmlns="http://www.w3.org/2000/svg" id="Layer_1" data-name="Layer 1" viewBox="0 0 50 50"><defs><style>.cls-3{fill:none}.cls-4{fill:#494949}</style></defs><path fill="#a6c1c2" d="M49.2 19.1v.6l-2.4.9L43 22l-6 2.1-5.3 2-5.2 1.9-18.8 6.8-2.3.8a13.9 13.9 0 01-3.1-7.7h-.8a1.1 1.1 0 110-2.2h.8a14 14 0 0112.9-12.9v-.7a1.1 1.1 0 112.2 0v.8a14.45 14.45 0 019.3 4.5 20.25 20.25 0 01.9-3.3l.1-.1a11.93 11.93 0 016.4-5.9 11.18 11.18 0 018.6.4 10.65 10.65 0 014.1 3.2 11.8 11.8 0 012.1 4 18.7 18.7 0 01.3 3.4z"/><path fill="#b9d7d9" d="M46.7 11.7l-2.2.8-.9.3-2.1.8-2.2.8-6.8 2.5-3.7 1.3-3.5 1.3-9 3.3-2.7 1L7.2 26l-5 1.8h-.7a1.1 1.1 0 110-2.2h.8a14 14 0 0112.9-12.9V12a1.1 1.1 0 112.2 0v.8a14.45 14.45 0 019.3 4.5 20.25 20.25 0 01.9-3.3l.1-.1A11.93 11.93 0 0134.1 8a11.18 11.18 0 018.6.4 12.63 12.63 0 014 3.3z"/><path d="M25 26.8a1.22 1.22 0 011.2-1.2h1.7a12.86 12.86 0 00-.4-1.9v-.1a.35.35 0 01-.1-.2 5.64 5.64 0 01-.4-1.2 11.74 11.74 0 00-1.5-2.7 12.43 12.43 0 00-5.5-3.8h-.1a8.73 8.73 0 00-2.2-.5v1.7a1.22 1.22 0 01-1.2 1.2 1.29 1.29 0 01-1.2-1.2v-1.7A11.4 11.4 0 005.1 25.4h1.6a1.51 1.51 0 01.9.4 1.14 1.14 0 01.3.8 1.22 1.22 0 01-1.2 1.2H4.8a12.15 12.15 0 003 6.7 11.35 11.35 0 007.3 3.6v-1.7a1.22 1.22 0 011.2-1.2 1.29 1.29 0 011.2 1.2v1.7a11.4 11.4 0 0010.2-10.2H26c-.5.1-1-.4-1-1.1zm-8.6 4.1a4.2 4.2 0 114.2-4.2 4.23 4.23 0 01-4.2 4.2z" class="cls-3"/><path d="M16.4 25a1.69 1.69 0 00-1.7 1.7 1.7 1.7 0 003.4 0 1.69 1.69 0 00-1.7-1.7z" class="cls-3"/><path d="M16.4 22.5a4.2 4.2 0 104.2 4.2 4.23 4.23 0 00-4.2-4.2zm0 5.9a1.75 1.75 0 01-1.7-1.7 1.7 1.7 0 013.4 0 1.75 1.75 0 01-1.7 1.7z" class="cls-4"/><path d="M47.4 11.7a11.63 11.63 0 00-4.7-3.6 12 12 0 00-8.6-.1 13.09 13.09 0 00-5 3.5 7.86 7.86 0 00-1.7 2.4 9 9 0 00-.5 1.6 5.5 5.5 0 00-.3 1.6 13.29 13.29 0 00-9.1-4.3V12a1.2 1.2 0 00-2.4 0v.7A13.94 13.94 0 002.3 25.6h-.6a1.2 1.2 0 100 2.4h.7a13.48 13.48 0 003.1 7.7 13.84 13.84 0 009.8 5.2v.7a1.22 1.22 0 001.2 1.2 1.29 1.29 0 001.2-1.2v-.7A14 14 0 0030.6 28h.7a1.22 1.22 0 001.2-1.2 1.27 1.27 0 00-.4-.9 1.33 1.33 0 00-.8-.3h-.7a11.12 11.12 0 00-1.2-4.5 9.49 9.49 0 01-.2-2 8 8 0 011.2-4.5 7.3 7.3 0 013.4-2.8c3.9-1.5 7.5 1.4 8 2a3.08 3.08 0 01.5.7 3.54 3.54 0 01.4 1.1 5.63 5.63 0 01-1.5 5.4 4.89 4.89 0 01-1.3.8 4.4 4.4 0 01-2.7.1 3.69 3.69 0 01-2.1-1.7 3.55 3.55 0 01-.4-1.6 3 3 0 011.3-2.5c.1 0 .1-.1.2-.1s.2-.1.3-.1a2.27 2.27 0 011.6.1 2.31 2.31 0 01.7.5 1.5 1.5 0 01.1 1.7 1.45 1.45 0 00.1 1.1 1.38 1.38 0 001 .6 1.25 1.25 0 00.9-.4c.2-.2.3-.3.3-.4a6.62 6.62 0 00.3-1.8 4.56 4.56 0 00-.6-1.9 3.18 3.18 0 00-1.1-1.3 2 2 0 00-.8-.4 3.71 3.71 0 00-.9-.2H37a5.76 5.76 0 00-1.7.5 4.92 4.92 0 00-2.3 2.7 7.25 7.25 0 00-.2 2.6 5.74 5.74 0 002 3.7 5.59 5.59 0 002.8 1.1 7.33 7.33 0 002.2-.1 7.77 7.77 0 001.9-.6 6 6 0 002.1-1.5 7.27 7.27 0 001.6-5.4 5 5 0 00-.2-1.2 6.5 6.5 0 00-1-2.5 9.28 9.28 0 00-1.9-2.1 9 9 0 012.7 1.9 10.16 10.16 0 012.1 3.3 8.64 8.64 0 01.3 4.5 8.78 8.78 0 01-1 2.8 10.25 10.25 0 01-4.7 4.1 6.74 6.74 0 01-4.2.7 2 2 0 00-.7.1 1.7 1.7 0 00-.6.6c-.1.2-.1.4-.2.5a1.48 1.48 0 00.9 1.3 1.08 1.08 0 00.7.2h1a11.67 11.67 0 004.1-.7c4.9-1.9 6.5-7.1 6.6-7.8a12.31 12.31 0 00-1.9-10.5zM17.6 38.3v-1.7a1.22 1.22 0 00-1.2-1.2 1.29 1.29 0 00-1.2 1.2v1.7a11.35 11.35 0 01-7.3-3.6 11.49 11.49 0 01-3-6.7h1.7a1.22 1.22 0 001.2-1.2 1.14 1.14 0 00-.3-.8 1.51 1.51 0 00-.9-.4H4.9a11.31 11.31 0 0110.2-10.2v1.7a1.22 1.22 0 001.2 1.2 1.29 1.29 0 001.2-1.2v-1.7a8.73 8.73 0 012.2.5h.1a11.68 11.68 0 015.5 3.8 11.74 11.74 0 011.5 2.7 4.88 4.88 0 01.3.7 9.58 9.58 0 01.5 1.7 3.71 3.71 0 00.2.9H26a1.22 1.22 0 00-1.2 1.2 1.29 1.29 0 001.2 1.2h1.7a11.3 11.3 0 01-10.1 10.2z" class="cls-4"/></svg>