<svg xmlns="http://www.w3.org/2000/svg" id="Layer_1" x="0" y="0" version="1.1" viewBox="0 0 50 50" xml:space="preserve"><style>.st2{fill:#444}</style><path fill="#00c8e2" d="M6.4 38.4l5.7 3.3 33.8-12.3V15.6c0-1.6-.9-3.2-2.3-4L27.3 2.2c-1.4-.8-3.2-.8-4.6 0L6.4 11.6c-1.4.8-2.3 2.3-2.3 4v18.8c0 1.6.9 3.2 2.3 4z"/><path fill="#00dffc" d="M36 7.3l-8.7-5c-1.4-.8-3.2-.8-4.6 0L6.4 11.6c-1.4.8-2.3 2.3-2.3 4v3.3L36 7.3z"/><path d="M25 49.6c-1 0-2-.3-2.9-.8L5.8 39.5c-1.8-1-2.9-3-2.9-5.1V15.6c0-2.1 1.1-4 2.9-5.1l16.3-9.4c1.8-1 4-1 5.8 0l16.3 9.4c1.8 1 2.9 3 2.9 5.1v13.8c0 .7-.6 1.2-1.2 1.2-.7 0-1.2-.6-1.2-1.2V15.6c0-1.2-.6-2.3-1.7-2.9L26.7 3.3c-1-.6-2.3-.6-3.4 0L7 12.7c-1 .6-1.7 1.7-1.7 2.9v18.8c0 1.2.6 2.3 1.7 2.9l16.3 9.4c1 .6 2.3.6 3.4 0l4.5-2.6c.6-.3 1.3-.1 1.7.5.3.6.1 1.3-.5 1.7l-4.5 2.6c-.9.5-1.9.7-2.9.7z" class="st2"/><path d="M16.6 21.5l.3-1.2c.3-.9.8-1.8 1.4-2.6 1.1-1.4 2.5-2.2 4.2-2.6 1.9-.4 3.8-.4 5.7.2 1.1.3 2.1.9 3 1.7.8.7 1.5 1.5 2.3 2.2.5.5 1 1 1.7 1.3.8.4 1.7.5 2.5.5 1.1-.1 2.1-.5 2.9-1.3.5-.4.9-.8 1.2-1.3v-.1c.1.1 0 .1 0 .2-.3 1.3-.8 2.5-1.6 3.5-1.2 1.6-2.7 2.5-4.6 2.8-1.9.3-3.7.3-5.6-.3-1-.3-1.8-.8-2.6-1.5-.9-.7-1.6-1.6-2.5-2.3-.6-.6-1.2-1.1-2-1.4-1.7-.6-3.3-.4-4.8.6-.5.4-1 .9-1.5 1.6 0-.1 0 0 0 0zM8.1 31.7c.1-.5.2-.9.4-1.4.4-1.1.9-2 1.7-2.9.7-.8 1.6-1.4 2.6-1.8.9-.4 1.9-.6 2.9-.6 1.2-.1 2.4 0 3.5.3 1.2.3 2.3.9 3.3 1.7.9.7 1.6 1.6 2.5 2.3.6.6 1.2 1.1 2 1.4 1.8.7 3.4.4 4.9-.7.5-.4 1-.9 1.4-1.4l.1-.1c0 .2-.1.3-.1.5-.4 1.2-.9 2.4-1.7 3.4-1.1 1.4-2.5 2.2-4.2 2.6-1.9.4-3.8.4-5.7-.2-1.1-.3-2.1-.9-3-1.7-.8-.6-1.4-1.4-2.1-2.1-.5-.5-1-.9-1.6-1.3-.9-.5-1.8-.7-2.8-.6-1.1.1-2 .5-2.9 1.2-.3.4-.8.8-1.2 1.4 0-.1 0 0 0 0z" class="st2"/></svg>