<svg xmlns="http://www.w3.org/2000/svg" id="Camada_3" x="0" y="0" version="1.1" viewBox="0 0 50 50" xml:space="preserve"><style>.st3,.st4{fill:none;stroke:#444;stroke-linecap:round;stroke-linejoin:round;stroke-miterlimit:10}.st4{stroke-width:.5}</style><path fill="#f799ff" d="M45.8 1.7H4.1c-1.1 0-2 .9-2 2v16.5L47.9 3.9v-.2c0-1.1-.9-2-2.1-2z"/><path fill="#e589ef" d="M2.1 20v24.7l45.8-16.3V3.8z"/><path fill="none" stroke="#444" stroke-linecap="round" stroke-linejoin="round" stroke-miterlimit="10" stroke-width="2.5" d="M24.8 48.1H5.3c-1.9 0-3.4-1.6-3.4-3.5v-39c0-1.9 1.5-3.5 3.4-3.5h39c1.9 0 3.4 1.6 3.4 3.5v25.9"/><path d="M12.9 35.8C10.8 35.8 9 34.1 9 32v-1.7c0-2.1 1.7-3.8 3.8-3.8 2.1 0 3.8 1.7 3.8 3.8V32c.1 2.1-1.6 3.8-3.7 3.8z" class="st3"/><path d="M20.2 43.5V40c0-1.1-.6-2.1-1.5-2.6-3.6-2.1-8.1-2.1-11.7 0-.9.5-1.5 1.5-1.5 2.6v3.5h38.8V40c0-1.1-.6-2.1-1.5-2.6-3.6-2.1-8.1-2.1-11.7 0-.9.5-1.5 1.5-1.5 2.6v3.5" class="st3"/><path d="M24.9 35.8c-2.1 0-3.8-1.7-3.8-3.8v-1.7c0-2.1 1.7-3.8 3.8-3.8 2.1 0 3.8 1.7 3.8 3.8V32c.1 2.1-1.6 3.8-3.8 3.8z" class="st3"/><path d="M17.6 43.5V40c0-1.1.6-2.1 1.5-2.6 3.6-2.1 8.1-2.1 11.7 0 .9.5 1.5 1.5 1.5 2.6v3.5m4.6-7.7c-2.1 0-3.8-1.7-3.8-3.8v-1.7c0-2.1 1.7-3.8 3.8-3.8 2.1 0 3.8 1.7 3.8 3.8V32c.1 2.1-1.6 3.8-3.8 3.8z" class="st3"/><path d="M24.5 13.7v-.5c0-.4-.3-.7-.7-.7-.1 0-.3 0-.4.1-.7.4-1.6.3-2-.4v-.1c-.5-.7-.5-1.7 0-2.4.4-.6 1.3-.8 2-.4h.1c.1.1.2.1.4.1.4 0 .7-.3.7-.7V6.2h9.6c.8 0 1.4.6 1.4 1.4v11.9c0 .8-.6 1.4-1.4 1.4h-1.5l-.1 3.2c0 .3-.3.4-.5.2L28.4 21h-1.5" class="st4"/><path d="M24.5 13.8v.6c0 .4.3.7.7.7.1 0 .3 0 .4-.1.7-.4 1.6-.3 2 .4v.1c.5.7.5 1.7 0 2.4-.4.6-1.3.8-2 .4h-.1c-.1-.1-.2-.1-.4-.1-.4 0-.7.3-.7.7v2.3h-3.2l-3.7 3.4c-.2.2-.5 0-.5-.2v-3.2h-1c-.8 0-1.4-.6-1.4-1.4V7.7c0-.8.6-1.4 1.4-1.4h6.2" class="st4"/></svg>