<svg xmlns="http://www.w3.org/2000/svg" id="Camada_1" x="0" y="0" version="1.1" viewBox="0 0 50 50" xml:space="preserve"><style>.st2{stroke-width:2.5}.st2,.st3,.st4,.st5{fill:none;stroke:#494949;stroke-linecap:round;stroke-linejoin:round;stroke-miterlimit:10}.st4{stroke-width:.5}.st5{stroke-width:.25}</style><path fill="#e56060" d="M36.5 9.7V24L9.3 34.1l-5.4 2-1.4.5.1-9.2.3-4.7.1-.6.9-.3 19.2-7.1 6.5-2.5z"/><path fill="#ff6b6b" d="M36.5 2.7v7.5l-6.4 2.3-7.4 2.7-19.2 7-1 .4V22l.9-.3v-5.9L16 3.4l.7-.2 1.2-.4h18.6z"/><path d="M3.5 15.9v31.4h33m0-23.1V2.7H16.7m0 0v13.2H3.5L16 3.4z" class="st2"/><path d="M24.9 8.5C24.9 7.1 26 6 27.4 6s2.5 1.1 2.5 2.5v.8c0 1.4-1.1 2.5-2.5 2.5s-2.5-1.1-2.5-2.5v-.8zm2.5 3.3c2.7 0 5 2.2 5 5v.8h-9.9v-.8c-.1-2.8 2.2-5 4.9-5z" class="st3"/><circle cx="7.6" cy="22.5" r="1.2" class="st4"/><path d="M10.9 22.5h4.9m-7.4 3.3h7.4" class="st5"/><circle cx="7.6" cy="30.8" r="1.2" class="st4"/><path d="M10.9 30.8h4.9m-7.4 3.3h7.4" class="st5"/><circle cx="7.6" cy="39" r="1.2" class="st4"/><path d="M10.9 39h4.9m-7.4 3.3h7.4M20 22.5h13.2M20 25.8h9.9m-9.9 5h4.9M20 34.1h4.1M20 39h4.9M20 42.3h6.6" class="st5"/><circle cx="36.8" cy="36.2" r="11.1" class="st2"/><path d="M33.1 32.5l-3.6 3.6 3.4 3.4m7.6 0l3.6-3.6-3.4-3.4m-2.6-.2L35 40" class="st3"/></svg>