<svg xmlns="http://www.w3.org/2000/svg" id="Layer_1" x="0" y="0" version="1.1" viewBox="0 0 50 50" xml:space="preserve"><style>.st3{fill:none;stroke:#444;stroke-width:1.5;stroke-linecap:round;stroke-linejoin:round;stroke-miterlimit:10}</style><path fill="#e589ef" d="M46.9 22.2v6l-44.6 14-.4-12v-3.8l45-16.4z"/><path fill="#f799ff" d="M46.9 7.4l-.6 3.1L1.8 26.7l.1-6.3v-3.9L47.4 2z"/><path fill="none" stroke="#444" stroke-linecap="round" stroke-linejoin="round" stroke-miterlimit="10" stroke-width="2.5" d="M6.9 47.2H2.7V2.6h44.9v44.6H32.1"/><path d="M19.2 20.3l-2.4-6.6c-.3-.9.1-1.8 1-2.2.9-.3 1.8.1 2.2 1l2.4 6.5" class="st3"/><path d="M22.3 19.1l-2.1-5.9c-.3-.9.1-1.8 1-2.2.9-.3 1.8.1 2.2 1l3 8.3m-7.2 0l-1.4-3.9c-.3-.8-1.2-1.3-2-1.1-.9.2-1.5 1.1-1.2 2 0 .1 0 .1.1.2L18 27c0 .1 0 .2-.1.2h-.2L14 24.7l-1-.7c-.8-.5-1.8-.2-2.3.6-.4.7-.3 1.6.4 2.2l8.8 7.9.1.1" class="st3"/><path d="M28.5 16.3l-.8-2.2c-.3-.8-1.2-1.3-2-1.1-.9.2-1.5 1.1-1.2 2 0 .1 0 .1.1.2l1.9 5.1m1.7 3.9l4.6-8.6c.4-.8 1.5-1.1 2.3-.7.8.4 1.1 1.5.7 2.3l-4.6 8.6" class="st3"/><path d="M31.1 25.7l4.3-8.1c.4-.8 1.5-1.1 2.3-.7.8.4 1.1 1.5.7 2.3l-4.3 8.1" class="st3"/><path d="M28.2 24.2l3.3-6.2c.4-.8.2-1.8-.5-2.3-.8-.5-1.8-.3-2.3.5l-.1.1-4.8 9c0 .1-.1.1-.2.1l-.1-.1-.7-4.5-.2-1.2c-.2-.9-1.1-1.5-2-1.3-.8.2-1.4.9-1.4 1.8v11.8c.2 4.3 3.8 7.6 8.1 7.5 2.8-.1 5.3-1.7 6.6-4.1l5.9-11.2c.4-.8.2-1.8-.5-2.3-.8-.5-1.8-.3-2.3.5l-.1.1-2.7 5.1" class="st3"/></svg>