<svg xmlns="http://www.w3.org/2000/svg" id="Camada_3" x="0" y="0" version="1.1" viewBox="0 0 50 50" xml:space="preserve"><style>.st6,.st7{fill:none;stroke:#444;stroke-linecap:round;stroke-linejoin:round;stroke-miterlimit:10;stroke-width:.25}.st7{stroke-width:.5}</style><path fill="#a6c1c2" d="M48.02 16.5l.74 5.2L2.7 38.46l-.54-10.89-.04-6.24L46.69 5.18l.87 3.87z"/><path fill="#b9d7d9" d="M45.84 1.97l2.25 3.24L1.24 21.94 2.35 4.77l2.98-2.89 29.05-.17z"/><path fill="none" stroke="#444" stroke-linecap="round" stroke-linejoin="round" stroke-miterlimit="10" stroke-width="2.5" d="M24.63 48.29H5.16c-1.87 0-3.39-1.58-3.39-3.54V5.84c0-1.95 1.52-3.54 3.39-3.54h39.01c1.87 0 3.39 1.58 3.39 3.54v25.89"/><path fill="none" stroke="#494949" stroke-linecap="round" stroke-linejoin="round" d="M7.31 8.27s16.78 75.9 34.47 1.06"/><path fill="#494949" d="M44.86 13.56l-.88.48-2.33-4.35-4.17 2.64-.53-.85 5.07-3.21z"/><circle cx="24.66" cy="42.32" r="1.8" fill="#444"/><path d="M8.28 20.77h5.04v-8.95" class="st6"/><path d="M14.64 14.38h8.31m-8.31 1.46h8.31m-8.31 1.46h8.31m-8.31 1.62h8.31m-8.31-6.59h2.64" class="st7"/><path d="M31.1 33.93h5.13v6.87" class="st6"/><path d="M43.91 37.37H37.5m6.41 1.46H37.5m4-3.51h-4m6.41 4.97H37.5" class="st7"/><path d="M13.32 32.65h5.13V25" class="st6"/><path d="M28.12 27.73h-8.31m8.31 1.46h-8.31m2.59-3.51h-2.59m5.63 4.98h-5.63" class="st7"/></svg>