<svg xmlns="http://www.w3.org/2000/svg" version="1" viewBox="0 0 50 50"><path fill="#A6C1C2" d="M8.314 45.586l7.087-7.087a19.293 19.293 0 006.063 3.052l21.756-7.919c4.947-7.523 4.113-17.731-2.503-24.347-7.571-7.572-19.847-7.572-27.419 0-6.908 6.908-7.493 17.721-1.795 25.316l-7.087 7.087a2.757 2.757 0 003.898 3.898z"/><path fill="#B9D7D9" d="M35.869 5.67c-7.263-3.64-16.331-2.444-22.391 3.616a19.263 19.263 0 00-4.081 6.02L35.869 5.67z"/><g fill="#031326"><path d="M41.601 8.402c-8.047-8.047-21.14-8.047-29.187 0-6.951 6.951-7.963 17.971-2.541 26.062l-6.341 6.341a4.01 4.01 0 000 5.665 3.996 3.996 0 002.832 1.172 3.993 3.993 0 002.833-1.172l6.34-6.34a20.48 20.48 0 0011.471 3.491h.002a1.25 1.25 0 00.002-2.5 17.998 17.998 0 01-10.862-3.622 12.782 12.782 0 01-1.981-1.662 18.551 18.551 0 01-1.667-1.984c-5.377-7.167-4.656-17.348 1.678-23.682 7.072-7.071 18.58-7.072 25.652 0 6.066 6.067 7.044 15.658 2.325 22.805a1.249 1.249 0 00.352 1.73l.002.001a1.244 1.244 0 001.726-.347l.001-.001.004-.006c5.372-8.134 4.261-19.048-2.641-25.951zM7.43 44.702c-.569.568-1.561.568-2.129 0a1.508 1.508 0 01-.001-2.13l3.91-3.91 2.13 2.13-3.91 3.91zm5.646-7.775c.356.356.726.696 1.106 1.024l-2.134 2.134-2.13-2.13 2.134-2.134c.327.379.668.75 1.024 1.106z"/><path d="M37.811 12.191c-5.957-5.957-15.65-5.956-21.607 0-5.957 5.957-5.957 15.65 0 21.607a15.234 15.234 0 0010.804 4.468c3.912 0 7.825-1.489 10.804-4.468 5.956-5.956 5.956-15.65-.001-21.607zm-.707 20.901a14.187 14.187 0 01-10.097 4.183c-3.814 0-7.4-1.485-10.097-4.183s-4.182-6.282-4.182-10.097c0-3.814 1.485-7.4 4.182-10.097a14.231 14.231 0 0110.097-4.175c3.656 0 7.313 1.392 10.097 4.175a14.187 14.187 0 014.183 10.097 14.187 14.187 0 01-4.183 10.097z"/><path d="M32.372 20.643v-.713c0-1.478-.6-2.819-1.568-3.787-.07-.07-.145-.133-.218-.2l.94-.853a.422.422 0 00.032-.595l-.003-.003a.425.425 0 00-.598-.029l-1.057.96a5.313 5.313 0 00-5.76-.001l-1.056-.96a.424.424 0 00-.569.627l.942.855a5.33 5.33 0 00-1.79 3.985v.712c1.426.688 3.307 1.106 5.355 1.106 2.046.001 3.919-.416 5.35-1.104z"/><path d="M27.019 22.624c-2.045 0-3.915-.413-5.357-1.095l.002 3.018c.046 1.553 1.068 2.99 2.497 3.846l-.001 2.237c0 .557.451 1.008 1.008 1.008h.027c.557 0 1.008-.451 1.008-1.008v-1.496c.268.042.539.07.813.07.261 0 .517-.035.771-.071v1.447c0 .557.451 1.008 1.008 1.008h.027c.557 0 1.008-.451 1.008-1.008l.001-2.14c1.425-.825 2.445-2.243 2.543-3.893l-.002-3.018c-1.442.682-3.317 1.095-5.353 1.095zM20 22.014h-.024a.783.783 0 00-.774.784l-.001 2.679c0 .433.351.784.784.784h.021a.784.784 0 00.784-.784l.001-2.679a.784.784 0 00-.782-.784H20zm14.045 0h-.024a.783.783 0 00-.774.784l-.001 2.679c0 .433.351.784.784.784h.021a.784.784 0 00.784-.784l.001-2.679a.784.784 0 00-.782-.784h-.009z"/></g></svg>