<svg xmlns="http://www.w3.org/2000/svg" viewBox="0 0 50 50"><defs><style>.cls-5{fill:#494949}</style></defs><g id="Layer_1" data-name="Layer 1"><path fill="none" stroke="#494949" stroke-miterlimit="10" stroke-width="3.11" d="M-50.54-96.7h425.11v443.81H-50.54z"/><path fill="#e56060" d="M48 22.24v6.1L2.3 42.74l-.4-12.4v-3.9l46.2-16.8-.1 12.6z"/><path fill="#ff6b6b" d="M47.8 6.94l-.5 3.2-45.7 16.6.1-6.4v-4l46.7-14.9-.6 5.5z"/><path fill="none" stroke="#444" stroke-linecap="round" stroke-linejoin="round" stroke-width="2.5" d="M22.8 47.84H2V2.04h46v45.8"/><path d="M11.7 38.74a.5.5 0 001 0 .5.5 0 00-1 0zm25.6-22.8a.5.5 0 001 0c-.1-.7-1-.7-1 0zm-23.5 18.7v-19a.45.45 0 11.9 0v19c-.1.6-.9.6-.9 0zm21.4 0v-19a.45.45 0 01.9 0v19a.45.45 0 01-.9 0zm2-20.8a3 3 0 00-3-3H21.9a.45.45 0 010-.9h12.3a3.8 3.8 0 013.8 3.8.41.41 0 11-.8.1z" class="cls-5"/><path d="M35.5 16H14.2a.43.43 0 01-.4-.4v-1.7a1.9 1.9 0 011.9-1.9h18.5a1.9 1.9 0 011.9 1.9v1.7a.68.68 0 01-.6.4zm-20.9-.9h20.5v-1.3a1 1 0 00-1-1H15.6a1 1 0 00-1 1zM9.4 35V19.14a1.58 1.58 0 011.6-1.6h2.8a.45.45 0 010 .9H11a.68.68 0 00-.7.7v15.8c-.1.6-.9.6-.9.06zm30.1 0V19.14a.68.68 0 00-.7-.7H36a.45.45 0 010-.9h2.8a1.58 1.58 0 011.6 1.6v15.8c0 .6-.9.6-.9.06z" class="cls-5"/><path d="M11.2 34.74v-14.8a.58.58 0 01.6-.6h2a.45.45 0 010 .9h-1.7v14.4c0 .6-.9.6-.9.1zm26.5-.3v-14.2H36a.45.45 0 010-.9h2a.58.58 0 01.6.6v14.5a.45.45 0 01-.9 0zm.3-14.2z" class="cls-5"/><path d="M39.3 37.24H10.5a2 2 0 01-2-2.3.43.43 0 01.4-.4h14.5c.4 0 .3.5.8.5 1.5 0 1.7.1 1.9-.2s-.7-.2 14.8-.2a.43.43 0 01.4.4 2 2 0 01-2 2.2zm-30-1.8a1.29 1.29 0 001.2 1h28.8a1.19 1.19 0 001.2-1H26.7c-.5.6-1 .5-2.5.5a1.23 1.23 0 01-1-.5z" class="cls-5"/><path d="M42.3 37.24h-3.7a.4.4 0 110-.8h3.7a.4.4 0 010 .8zm-30.9 0H7.7a.4.4 0 110-.8h3.7a.43.43 0 01.4.4c.1.16-.1.4-.4.4zm26.2 2H14.1a.45.45 0 110-.9h23.5a.45.45 0 110 .9zm-21.7-25.1a.45.45 0 10.9 0 .46.46 0 10-.9 0zm1.6 0a.45.45 0 10.9 0c.1-.7-.9-.7-.9 0zm1.7 0a.45.45 0 00.9 0c.1-.7-.9-.7-.9 0zm6.1 15.1h2.2c2.3 0 3.1-9 3.1-9v-.1h-1.1c-1.9 0-2.7 5.9-2.8 7.1-.1-1.2-.5-7.1-2-7.1h-2.2c-2.3 0-3.1 9-3.1 9v.1h1.1c2.2 0 2.8-7.3 2.8-7.3h.1s.3 7.3 1.9 7.3z" class="cls-5"/></g></svg>