<svg xmlns="http://www.w3.org/2000/svg" id="Layer_1" x="0" y="0" version="1.1" viewBox="0 0 50 50" xml:space="preserve"><style>.st3{fill:#494949}</style><path fill="#fcc34f" d="M48 22.6v6.1L2.3 43.1l-.4-12.4v-3.9L48.1 10z"/><path fill="#fdcf72" d="M47.8 7.3l-.5 3.2L1.6 27.1l.1-6.4v-4L48.4 1.8z"/><path fill="none" stroke="#444" stroke-linecap="round" stroke-linejoin="round" stroke-miterlimit="10" stroke-width="2.5" d="M22.8 48.2H2V2.4h46v45.8"/><path d="M11.7 39.1c0 .6 1 .6 1 0s-1-.6-1 0zm25.6-22.8c0 .6 1 .6 1 0-.1-.7-1-.7-1 0zM13.8 35V16c0-.6.9-.6.9 0v19c-.1.6-.9.6-.9 0zm21.4 0V16c0-.6.9-.6.9 0v19c0 .6-.9.6-.9 0zm2-20.8c0-1.6-1.3-3-3-3H21.9c-.6 0-.6-.9 0-.9h12.3c2.1 0 3.8 1.7 3.8 3.8.1.7-.8.7-.8.1z" class="st3"/><path d="M35.5 16.4H14.2c-.2 0-.4-.2-.4-.4v-1.7c0-1 .8-1.9 1.9-1.9h18.5c1 0 1.9.8 1.9 1.9V16c-.1.2-.3.4-.6.4zm-20.9-.9h20.5v-1.3c0-.5-.4-1-1-1H15.6c-.5 0-1 .4-1 1v1.3zM9.4 35.4V19.5c0-.9.7-1.6 1.6-1.6h2.8c.6 0 .6.9 0 .9H11c-.4 0-.7.3-.7.7v15.8c-.1.6-.9.6-.9.1zm30.1 0V19.5c0-.4-.3-.7-.7-.7H36c-.6 0-.6-.9 0-.9h2.8c.9 0 1.6.7 1.6 1.6v15.8c0 .6-.9.6-.9.1z" class="st3"/><path d="M11.2 35.1V20.3c0-.3.2-.6.6-.6h2c.6 0 .6.9 0 .9h-1.7V35c0 .6-.9.6-.9.1zm26.5-.3V20.6H36c-.6 0-.6-.9 0-.9h2c.3 0 .6.2.6.6v14.5c0 .6-.9.6-.9 0zm.3-14.2z" class="st3"/><path d="M39.3 37.6H10.5c-1 0-2-.7-2-2.3 0-.2.2-.4.4-.4h14.5c.4 0 .3.5.8.5 1.5 0 1.7.1 1.9-.2.2-.3-.7-.2 14.8-.2.2 0 .4.2.4.4 0 1.5-1 2.2-2 2.2zm-30-1.8c.1.5.6 1 1.2 1h28.8c.6 0 1.1-.4 1.2-1H26.7c-.5.6-1 .5-2.5.5-.4 0-.8-.2-1-.5H9.3z" class="st3"/><path d="M42.3 37.6h-3.7c-.6 0-.6-.8 0-.8h3.7c.2 0 .4.2.4.4s-.2.4-.4.4zm-30.9 0H7.7c-.6 0-.6-.8 0-.8h3.7c.2 0 .4.2.4.4.1.2-.1.4-.4.4zm26.2 2H14.1c-.6 0-.6-.9 0-.9h23.5c.6 0 .6.9 0 .9zM15.9 14.5c0 .6.9.6.9 0 0-.7-.9-.7-.9 0zm1.6 0c0 .6.9.6.9 0 .1-.7-.9-.7-.9 0zm1.7 0c0 .6.9.6.9 0 .1-.7-.9-.7-.9 0zm6.1 15.1h2.2c2.3 0 3.1-9 3.1-9v-.1h-1.1c-1.9 0-2.7 5.9-2.8 7.1-.1-1.2-.5-7.1-2-7.1h-2.2c-2.3 0-3.1 9-3.1 9v.1h1.1c2.2 0 2.8-7.3 2.8-7.3h.1s.3 7.3 1.9 7.3z" class="st3"/></svg>