<svg xmlns="http://www.w3.org/2000/svg" id="Layer_1" x="0" y="0" version="1.1" viewBox="0 0 50 50" xml:space="preserve"><style>.st2{fill:#031326}</style><path fill="#00c8e2" d="M48.1 26.2l.4 4.3-46.6 17 .2-9.1.3-5.3 46.4-16.9-.7 3.8z"/><path fill="#00dffc" d="M48.1 9.5l-.5 7.7L2.1 33.8v-9.9l.3-4.4L48.3 2.8z"/><path d="M36.7 49.3H1.9c-.7 0-1.2-.6-1.2-1.2V2.3c0-.7.5-1.3 1.2-1.3H48c.7 0 1.2.6 1.2 1.2v34.9c0 .7-.6 1.2-1.2 1.2s-1.2-.6-1.2-1.2V3.5H3.2v43.3h33.5c.7 0 1.2.6 1.2 1.2s-.5 1.3-1.2 1.3z" class="st2"/><path d="M35.6 27.5l-2.2-2.8 2.1-2.9c.2-.3.2-.6 0-.9L25.8 8.3c-.2-.1-.4-.3-.6-.3-.2 0-.5.1-.6.3l-9.3 12.4c-.2.3-.2.6 0 .9l2 2.9-2.1 2.7c-.2.2-.2.6 0 .9l9.4 13.7c.1.2.4.3.6.3.2 0 .5-.1.6-.3l9.8-13.5c.2-.2.2-.5 0-.8zm-18.8-6.3L25.2 10 34 21.4l-1.5 2.1-6.7-8.7c-.1-.2-.4-.3-.6-.3-.2 0-.5.1-.6.3l-6.4 8.5-1.4-2.1zm14.8 3.6l-6.4 8.8-6.1-8.9 6.1-8.1 6.4 8.2zm-6.4 15.4l-8.5-12.4 1.4-1.9 6.4 9.4c.1.2.4.3.6.3.2 0 .5-.1.6-.3l6.7-9.3 1.5 2-8.7 12.2z" class="st2"/></svg>