<svg xmlns="http://www.w3.org/2000/svg" version="1" viewBox="0 0 50 50"><path fill="#71BAC0" d="M7.944 14.402a20.695 20.695 0 00-1.63 3.134c-3.141 7.552-1.65 16.573 4.493 22.716a20.825 20.825 0 002.739 2.281L45.64 30.852c1.826-6.929.044-14.612-5.389-20.044-7.019-7.019-17.796-7.964-25.845-2.865l-2.952-2.952a4.572 4.572 0 00-6.468 0 4.57 4.57 0 00.007 6.461l2.951 2.95z"/><path fill="#7ED0D6" d="M7.943 14.402l23.893-8.696c-5.772-1.826-12.18-1.09-17.431 2.237l-2.952-2.952a4.572 4.572 0 00-6.468 0 4.57 4.57 0 00.007 6.461l2.951 2.95z"/><g fill="#031326"><path d="M41.134 9.923C34.023 2.81 23.243 1.411 14.598 6.367l-2.26-2.26C11.237 3.006 9.774 2.4 8.219 2.4s-3.017.606-4.117 1.707c-2.267 2.267-2.264 5.958.007 8.229l2.26 2.26c-.454.795-.859 1.62-1.209 2.461a21.999 21.999 0 004.763 24.08 22 22 0 0015.582 6.474 22.2 22.2 0 006.709-1.042 1.249 1.249 0 10-.756-2.382 19.524 19.524 0 01-19.768-4.816 19.504 19.504 0 01-4.222-21.352 19.545 19.545 0 011.531-2.945l.536-.845-.006-.009a19.973 19.973 0 012.143-2.547 19.976 19.976 0 012.546-2.15l.011.011.845-.535c7.662-4.854 17.88-3.721 24.292 2.692 4.907 4.908 6.855 12.13 5.084 18.848a1.25 1.25 0 102.418.636c1.997-7.574-.2-15.717-5.734-21.252zm-30.523.689a21.451 21.451 0 00-2.156 2.534l-2.579-2.578a3.323 3.323 0 01-.007-4.693c1.256-1.258 3.443-1.256 4.701 0l2.577 2.577a21.533 21.533 0 00-2.536 2.16z"/><path d="M41.536 24.896c-.157-4.045-1.789-7.828-4.667-10.707a15.932 15.932 0 00-11.34-4.697 15.932 15.932 0 00-11.34 4.697c-6.253 6.253-6.253 16.427 0 22.681a15.921 15.921 0 006.584 3.964.41.41 0 00.081.028c1.285.389 2.608.601 3.939.662.041.011.083.024.125.024.026 0 .05-.011.076-.015.179.006.357.026.536.026 4.106 0 8.214-1.563 11.34-4.689a15.935 15.935 0 004.698-11.341c0-.198-.022-.392-.029-.588l-.003-.045zm-16.8 15.627a15.123 15.123 0 01-2.771-.405l18.16-18.159c.219.902.354 1.828.404 2.772L24.736 40.523zm-9.841-25.627c2.84-2.84 6.617-4.404 10.633-4.404s7.793 1.564 10.633 4.404a14.972 14.972 0 013.655 5.957L20.86 39.808a14.927 14.927 0 01-5.965-3.645c-5.863-5.863-5.863-15.404 0-21.267zm21.266 21.267c-2.776 2.776-6.376 4.221-10.02 4.368l14.396-14.396a14.921 14.921 0 01-4.376 10.028z"/></g></svg>