<svg xmlns="http://www.w3.org/2000/svg" id="Camada_1" x="0" y="0" version="1.1" viewBox="0 0 50 50" xml:space="preserve"><style>.st3{fill-rule:evenodd;clip-rule:evenodd;fill:none;stroke:#494949;stroke-width:.5;stroke-linecap:round;stroke-linejoin:round;stroke-miterlimit:10}</style><path fill="#dc5e82" d="M4.2 46.2l43.5-15.8V7.9c0-3.1-2.5-5.6-5.6-5.6H7.9c-3.1 0-5.6 2.5-5.6 5.6V42c.1 1.6.7 3.1 1.9 4.2z"/><path fill="#f56991" d="M45.8 3.8c-1-.9-2.4-1.5-3.8-1.5H7.9c-3.1 0-5.6 2.5-5.6 5.6v11.7c.1 0 43.5-15.8 43.5-15.8z"/><path fill="#444" d="M25 49H7.8C4 49 1 46 1 42.2V7.8C1 4 4 1 7.8 1h34.4C46 1 49 4 49 7.8v22.6c0 .7-.6 1.2-1.2 1.2-.7 0-1.2-.5-1.2-1.2V7.8c0-2.4-2-4.4-4.4-4.4H7.8c-2.4 0-4.4 2-4.4 4.4v34.4c0 2.4 2 4.4 4.4 4.4H25c.7 0 1.2.5 1.3 1.2 0 .7-.5 1.2-1.3 1.2.1 0 0 0 0 0z"/><path d="M37.7 24.5c2 1.5 4.5 2.3 7.2 2.3v-5.2c-.5 0-1-.1-1.5-.2v4.1c-2.7 0-5.2-.9-7.2-2.3v10.6c0 5.3-4.3 9.6-9.6 9.6-2 0-3.8-.6-5.3-1.6 1.7 1.8 4.2 2.9 6.9 2.9 5.3 0 9.6-4.3 9.6-9.6l-.1-10.6zm1.8-5.2c-1-1.1-1.7-2.6-1.9-4.2v-.7h-1.4c.4 2 1.6 3.8 3.3 4.9zm-15 18.5c-.6-.8-.9-1.7-.9-2.7 0-2.4 2-4.4 4.4-4.4.5 0 .9.1 1.3.2v-5.3c-.5-.1-1-.1-1.5-.1v4.1c-.4-.1-.9-.2-1.3-.2-2.4 0-4.4 2-4.4 4.4 0 1.8 1 3.2 2.4 4z" class="st3"/><path fill="#494949" fill-rule="evenodd" stroke="#494949" stroke-linecap="round" stroke-linejoin="round" stroke-miterlimit="10" stroke-width=".5" d="M36.1 23.3c2 1.5 4.5 2.3 7.2 2.3v-4.1c-1.5-.3-2.8-1.1-3.8-2.2-1.7-1.1-3-2.8-3.3-4.9h-3.8v20.7c0 2.4-2 4.4-4.4 4.4-1.4 0-2.7-.7-3.5-1.7-1.4-.7-2.4-2.2-2.4-3.9 0-2.4 2-4.4 4.4-4.4.5 0 .9.1 1.3.2v-4.1c-5.2.1-9.4 4.4-9.4 9.6 0 2.6 1 5 2.7 6.7 1.5 1 3.4 1.6 5.3 1.6 5.3 0 9.6-4.3 9.6-9.6l.1-10.6z" clip-rule="evenodd"/><path d="M43.4 21.5v-1.1c-1.4 0-2.7-.4-3.8-1.1 1 1.1 2.3 1.9 3.8 2.2zm-7.2-7.1c0-.2-.1-.4-.1-.6v-.7h-5.2v20.7c0 2.4-2 4.4-4.4 4.4-.7 0-1.4-.2-2-.5.8 1.1 2.1 1.7 3.5 1.7 2.4 0 4.4-2 4.4-4.4V14.4h3.8zm-8.3 11.1v-1.2c-.4-.1-.9-.1-1.3-.1-5.3 0-9.6 4.3-9.6 9.6 0 3.3 1.7 6.3 4.3 8-1.7-1.7-2.7-4.1-2.7-6.7-.1-5.2 4-9.5 9.3-9.6z" class="st3"/></svg>