<svg xmlns="http://www.w3.org/2000/svg" id="Camada_3" x="0" y="0" version="1.1" viewBox="0 0 50 50" xml:space="preserve"><style>.st5{fill:#444}</style><path fill="#fcc34f" d="M48.42 22.93l-.26 3.2L2.1 42.89 2.56 34l-.04-6.24 44.57-16.15.87 3.87z"/><path fill="#fdcf72" d="M46.24 8.4l2.25 3.24L1.64 28.37 2.75 11.2l2.98-2.89 29.05-.17z"/><path fill="none" stroke="#444" stroke-linecap="round" stroke-linejoin="round" stroke-miterlimit="10" stroke-width="2.5" d="M25.03 43.72H5.56c-1.87 0-3.39-1.58-3.39-3.54V12.27c0-1.95 1.52-3.54 3.39-3.54h39.01c1.87 0 3.39 1.58 3.39 3.54v25.89"/><path d="M38.84 35.78v-4.6c0-2.47-.92-5.03-4.68-5.03-1.55 0-3.03.43-4.04 1.09l.51 1.47c.86-.56 2.06-.93 3.2-.92 3.08.04 2.8 3.1 2.8 3.1-4.75-.03-7.4 1.6-7.4 4.58 0 1.78 1.27 3.25 3.76 3.25 2.96 0 3.84-1.54 3.84-1.54l.18 1.55h2.03c-.15-.84-.2-1.88-.2-2.95zm-2.16-1.19c0 .82-1.48 2.31-3.08 2.31-1.14 0-2.13-.22-2.13-1.67 0-2.39 2.77-2.54 5.21-2.49v1.85zm-8.35 3c-.7 0-1.23-.16-1.61-.48-.32-.35-.59-.75-.8-1.22-.22-.46-7.67-18.42-7.67-18.42h-1.41L8.45 36.03c-.17.38-.32.65-.45.83-.13.17-.28.3-.43.39-.16.09-.36.15-.61.17-.25.03-.59.09-1.02.17h-.09v1.13h6.33v-1.24l-.68-.09c-.54-.07-.82-.31-.85-.72 0-.12 1.96-4.63 2.04-4.87h8.3l1.78 4.3c.12.23.16.45.13.65s-.13.35-.3.43c-.32.15-.66.25-1.02.3-.22.04-.45.06-.69.07v1.14h7.53l.04-1.13h-.13zM13.3 30.34l3.61-8.47 3.52 8.47H13.3zm31.05-12.86h-3.23c-.23 0-.42-.19-.42-.42s.19-.42.42-.42h3.23c.23 0 .42.19.42.42s-.19.42-.42.42zm0 21.2h-3.23c-.23 0-.42-.19-.42-.42 0-.23.19-.42.42-.42h3.23c.23 0 .42.19.42.42-.01.24-.19.42-.42.42z" class="st5"/><path d="M42.73 38.68c-.23 0-.42-.19-.42-.42V17.14c0-.23.19-.42.42-.42s.42.19.42.42v21.13c0 .23-.19.41-.42.41zM6.21 16.76c-.23 0-.42-.19-.42-.42v-3.23c0-.23.19-.42.42-.42s.42.19.42.42v3.23c0 .24-.19.42-.42.42zm33.51 0c-.23 0-.42-.19-.42-.42v-3.23c0-.23.19-.42.42-.42.23 0 .42.19.42.42v3.23c0 .24-.19.42-.42.42z" class="st5"/><path d="M39.72 15.15H6.3c-.23 0-.42-.19-.42-.42 0-.23.19-.42.42-.42h33.43c.23 0 .42.19.42.42-.01.23-.2.42-.43.42z" class="st5"/></svg>