<svg xmlns="http://www.w3.org/2000/svg" viewBox="0 0 50 50"><path fill="#71bac0" d="M46.6 16.1l-.2 10.7L4.1 42.3V11.4l31-9.2 8.4 1.3 3.1 6.3z"/><path fill="#7ed0d6" d="M45.8 12.4L4.1 27.6V11.4L33 2.2h7.6l5.2 4.2z"/><path fill="#031326" d="M39.2 49.6H10.8c-4.5 0-8.2-3.7-8.2-8.2V10.1c0-.7.6-1.2 1.2-1.2h30.8c.7 0 1.2.6 1.2 1.2v8.3c0 .7-.6 1.2-1.2 1.2h-2.4c-.3 0-.6-.1-.9-.4L28.1 16h-5.3v18.4l3.2 3.2c.2.2.4.6.4.9v2.4c0 .7-.6 1.2-1.2 1.2H13.3c-.7 0-1.2-.6-1.2-1.2v-2.4c0-.3.1-.6.4-.9l3.2-3.2V16.1H9.8c-.7 0-1.2-.6-1.2-1.2s.6-1.2 1.2-1.2h7.1c.7 0 1.2.6 1.2 1.2V35c0 .3-.1.6-.4.9l-3.2 3.2v.6h9.3v-.6l-3.2-3.2c-.2-.2-.4-.6-.4-.9V14.8c0-.7.6-1.2 1.2-1.2h7.1c.3 0 .6.1.9.4l3.2 3.2h.6v-5.8H5.1v30.1c0 3.1 2.5 5.7 5.7 5.7h28.4c3.1 0 5.7-2.5 5.7-5.7V8.6c0-3.1-2.5-5.7-5.7-5.7H3.9c-.7 0-1.2-.6-1.2-1.2S3.3.5 3.9.5h35.4c4.5 0 8.2 3.7 8.2 8.2v32.9c-.1 4.3-3.8 8-8.3 8z"/></svg>