<svg xmlns="http://www.w3.org/2000/svg" viewBox="0 0 50 50"><path fill="#00dffc" d="M44 11.1l-12.2-.7c-.4-.2-2.1-7.8-2.5-7.8l-7-.5-4.1 8.3c-3.2 0-13.8-.2-13.8 3l-.3 24.7 2.9 5 6.6.2c2.3.7 2-.4 4.8.9l27.5-9.8c.6-.3 2-19.6-1.9-23.3z"/><path fill="none" stroke="#444" stroke-linecap="round" stroke-linejoin="round" stroke-miterlimit="10" stroke-width="2.5" d="M46.4 34.2V16.3c0-2.9-2.4-5.3-5.3-5.3h-7.8c-1.5 0-2.6-1.2-2.6-2.6v-.9c0-3.1-2.5-5.7-5.7-5.7h0c-3.1 0-5.7 2.5-5.7 5.7v.9c0 1.5-1.2 2.6-2.6 2.6H9.4c-2.9 0-5.3 2.4-5.3 5.3V38c0 2.9 2.4 5.3 5.3 5.3h7.3c1.5 0 2.6 1.2 2.6 2.6v0c0 1.5 1.2 2.6 2.6 2.6h6c1.5 0 2.6-1.2 2.6-2.6v0c0-1.5 1.2-2.6 2.6-2.6h3.6"/><path fill="none" stroke="#444" stroke-linecap="round" stroke-linejoin="round" stroke-miterlimit="10" d="M38.6 25.2H8c-.5 0-.8-.6-.5-.9l3.4-4.3c.2-.2.2-.5 0-.7l-3.3-4c-.3-.4 0-1 .4-1h30.6c.2 0 .3.1.5.2l4 4.9c.2.2.2.5 0 .7l-4 4.9c-.1.1-.3.2-.5.2zm-27.1 2.6h30.6c.5 0 .8.6.5.9L39.2 33c-.2.2-.2.5 0 .7l3.3 4c.3.4 0 1-.4 1H11.5c-.2 0-.3-.1-.5-.2l-4-4.9c-.2-.2-.2-.5 0-.7l4-4.9c.2-.1.3-.2.5-.2z"/><path fill="#444" d="M27.7 27.8v-2.5h-5.3v2.5m5.3 11v4.5c0 .6-.5 1.2-1.2 1.2h-3c-.6 0-1.2-.5-1.2-1.2v-4.2l5.4-.3zm-5.3-24.6V8c0-1.5 1.2-2.7 2.7-2.7 1.5 0 2.7 1.2 2.7 2.7v6.2"/><path fill="none" stroke="#444" stroke-dasharray="12" stroke-linecap="round" stroke-linejoin="round" stroke-miterlimit="10" stroke-width=".5" d="M13.7 19.7h2.7m1.2 0H21m2.4 0h2.9m2.7 0h1.9m1.5 0h2.7M13.7 33.5h2.7m1.2 0H21m2.4 0h2.9m2.7 0h1.9m1.5 0h2.7"/></svg>