<svg xmlns="http://www.w3.org/2000/svg" version="1" viewBox="0 0 50 50"><path fill="#E56060" d="M47.566 6.353l-1.791-1.791c0-.007-.007-.021-.014-.021-.344-.337-.899-.428-1.531-.154L4.005 21.067c-1.039.429-1.882 1.622-1.882 2.655l-.014 18.992c0 .042 0 .077.007.119l45.773-16.66v-18.9c0-.393-.12-.709-.323-.92z"/><path fill="#FF6B6B" d="M47.566 6.353l-1.791-1.791c0-.007-.007-.021-.014-.021-.344-.337-.899-.428-1.531-.154L4.005 21.067c-1.039.429-1.882 1.622-1.882 2.655v4.172l45.766-16.66V7.273c0-.393-.12-.709-.323-.92z"/><path fill="#031326" d="M5.867 45.124c-.336 0-.641-.107-.875-.319l-1.796-1.796c-.222-.239-.342-.581-.342-.966l.016-18.269c0-1.044.845-2.242 1.884-2.67L43.45 5.054c.631-.268 1.229-.198 1.608.18h-.001a.054.054 0 01.015.015l1.724 1.723c.229.238.35.574.35.973v18.284a.125.125 0 01-.25 0V7.945c0-.333-.096-.609-.277-.798l-1.722-1.721-.009-.009-.007-.006c-.308-.309-.795-.354-1.334-.126L4.85 21.334c-.954.394-1.73 1.488-1.73 2.439l-.016 18.27c0 .321.097.603.272.792l1.79 1.79c.311.282.804.329 1.312.121l13.218-5.482a.125.125 0 01.096.23L6.573 44.977c-.241.098-.48.147-.706.147zm3.075-2.721a.124.124 0 01-.069-.021.123.123 0 01-.056-.104V23.492c0-.05.03-.096.077-.115L41.216 9.972a.122.122 0 01.117.011.124.124 0 01.056.104v18.786c0 .051-.03.096-.077.115L8.99 42.393a.115.115 0 01-.048.01zm.125-18.828V42.09l32.072-13.3V10.274L9.067 23.575zm32.197 5.299h.003-.003zM6.719 36.688a.294.294 0 01-.164-.048.317.317 0 01-.132-.271v-4.986c0-.209.154-.432.358-.52.125-.049.246-.039.335.022.082.056.128.15.128.26v4.987a.6.6 0 01-.37.521.356.356 0 01-.155.035zm.218-5.605a.186.186 0 00-.062.013.362.362 0 00-.202.288v4.986c0 .03.008.054.02.062.011.007.042.012.088-.01.116-.044.213-.179.213-.289v-4.987c0-.019-.003-.043-.02-.054a.066.066 0 00-.037-.009zm36.73-10.658a.894.894 0 01-.501-.143c-.25-.166-.388-.454-.388-.812 0-.735.579-1.556 1.318-1.869.574-.24 1.103-.087 1.315.384.062.133.094.291.094.455 0 .159-.03.332-.089.512-.185.594-.665 1.126-1.224 1.358a1.337 1.337 0 01-.525.115zm.948-2.686c-.13 0-.272.031-.421.093-.643.271-1.166 1.006-1.166 1.638 0 .271.098.486.275.604.2.131.489.134.793.005.486-.201.921-.685 1.082-1.203v-.002c.052-.155.077-.301.077-.434a.848.848 0 00-.071-.352c-.103-.228-.31-.349-.569-.349z"/><path fill="#031326" d="M6.719 36.688a.297.297 0 01-.164-.048.312.312 0 01-.132-.271v-4.986c0-.209.154-.433.357-.52.126-.049.245-.039.336.022.082.056.128.15.128.26v4.987a.601.601 0 01-.37.521.356.356 0 01-.155.035zm.218-5.605a.18.18 0 00-.062.013.36.36 0 00-.202.288v4.986c0 .03.007.054.02.062.012.007.042.01.088-.01.116-.044.214-.179.214-.289v-4.987c0-.019-.003-.043-.02-.054a.073.073 0 00-.038-.009zm36.73-10.658a.894.894 0 01-.501-.143c-.25-.166-.388-.454-.388-.812 0-.736.58-1.557 1.319-1.869.574-.241 1.101-.086 1.314.384.062.133.094.291.094.455 0 .16-.03.332-.089.512-.185.592-.664 1.125-1.223 1.357a1.326 1.326 0 01-.526.116zm.949-2.686c-.13 0-.272.031-.421.093-.644.271-1.167 1.006-1.167 1.638 0 .271.098.486.275.604.2.133.488.135.794.006.486-.202.92-.685 1.081-1.203.052-.157.077-.303.077-.436a.848.848 0 00-.071-.352c-.103-.229-.31-.35-.568-.35z"/><path fill="#031326" d="M7.12 31.147v4.987c0 .16-.13.343-.29.404-.16.069-.282-.008-.282-.168v-4.987c0-.153.122-.336.282-.404.16-.061.29.016.29.168zm8.375 3.029a.182.182 0 00-.082-.075l-.803-.46a.08.08 0 00-.069-.007l-1.386.563a.085.085 0 00-.048.076v1.661l-.261-.268a.08.08 0 01-.02-.055v-1.62c0-.034.02-.069.048-.082l1.38-.556c.027-.007.055-.007.075.007l.851.473.014.014.24.24c-.001-.001.061.075.061.089z"/><path fill="#031326" d="M16.586 34.841l-.817-.521a.089.089 0 00-.117.027l-.803 1.167a.061.061 0 00-.021.048v1.386c0 .014 0 .027.014.041l-.267-.268a.082.082 0 01-.027-.062v-1.112l.055-.021c.017-.009.029-.013.041-.034l.837-1.249c.014-.021.02-.048.014-.069a.98.98 0 00-.062-.089c.027-.027.075-.034.103-.014l.762.487.288.283zm1.605-2.601c-.02-.014-.055-.021-.075-.007l-1.386.556c-.014.007-.027.014-.034.027l-.837 1.153c-.014.021-.02.041-.014.069 0 .014 0 .021.007.027l-.213-.206h.014a.092.092 0 00.069-.027l.988-1.249a.072.072 0 00.02-.048v-.137l1.105-.446c.034-.014.068-.007.089.014l.267.274zm-1.708-1.118l-1.668.679c-.034.014-.055.041-.055.075v1.379c0 .027.007.048.021.062l-.281-.281c-.014-.014-.02-.034-.02-.062v-1.386c0-.034.02-.069.048-.082l1.619-.645a.083.083 0 01.096.021l.24.24z"/><path fill="#031326" d="M18.061 32.439v1.524l-1.283.515-.728-.481.769-1.057zm-1.503-1.159v1.221l-.926 1.16-.7-.446v-1.277zm-1.27 2.944l-.775 1.152-1.235.501v-1.544l1.283-.521zm1.167.741v1.269l-1.455.59v-1.235l.749-1.077zm-9.736 1.723a.297.297 0 01-.164-.048.312.312 0 01-.132-.271v-4.986c0-.209.154-.433.357-.52.126-.049.245-.039.336.022.082.056.128.15.128.26v4.987a.601.601 0 01-.37.521.356.356 0 01-.155.035zm.218-5.605a.18.18 0 00-.062.013.36.36 0 00-.202.288v4.986c0 .03.007.054.02.062.012.007.042.01.088-.01.116-.044.214-.179.214-.289v-4.987c0-.019-.003-.043-.02-.054a.073.073 0 00-.038-.009z"/><g fill="#031326"><path d="M32.589 27.155l-.968.357v-.94l.968-.357z"/><path d="M33.343 25.289l-.426-.432c-.309-.329-.823-.384-1.365-.158-.878.364-1.592 1.379-1.592 2.265 0 .336.096.618.281.817l.508.501c.185.178.439.275.727.275.192 0 .405-.048.618-.137.878-.364 1.592-1.372 1.592-2.258.001-.372-.116-.674-.343-.873zm-.411 2.107l-1.654.611v-1.668l1.654-.618v1.675zm5.819-3.665c.089.062.137.172.137.302 0 .35-.302.755-.652.892-.157.055-.302.048-.398-.021-.089-.055-.137-.165-.137-.302 0-.343.302-.755.652-.885a.616.616 0 01.206-.041c.075 0 .144.021.192.055z"/><path d="M39.533 22.743l-.439-.439c-.316-.329-.823-.391-1.365-.165-.885.364-1.606 1.379-1.606 2.258 0 .364.123.673.35.872 0 0 .467.487.487.487.172.144.426.24.672.24.199 0 .412-.048.631-.137.885-.364 1.599-1.379 1.599-2.258.001-.357-.116-.659-.329-.858zm-1.18 2.498a.932.932 0 01-.323.062.683.683 0 01-.391-.11.702.702 0 01-.281-.59c0-.494.384-1.022.878-1.208.261-.096.522-.075.714.055.179.123.281.336.281.583 0 .494-.384 1.029-.878 1.208zm-1.626 1.887l-.014-.014-.439-.439c-.309-.336-.817-.398-1.365-.165-.879.357-1.599 1.372-1.599 2.258 0 .371.123.679.343.872l.466.467a1 1 0 00.7.254c.192 0 .405-.041.624-.13.885-.364 1.599-1.379 1.599-2.265 0-.351-.11-.639-.315-.838zm-.371 1.832l-.185.295-.57-.364-.618.844-.274-.199.597-.823-.549-.35.179-.288.576.357.611-.844.281.206-.604.823.556.343zm-1.791-6.025l.48-.995.474.638z"/><path d="M36.37 21.007l-.089-.089v-.007l-.412-.412c-.309-.329-.824-.391-1.366-.165-.878.357-1.592 1.372-1.592 2.258 0 .336.103.624.295.83l.473.473a.992.992 0 00.734.295c.192 0 .412-.048.625-.137.885-.364 1.606-1.379 1.606-2.265 0-.322-.089-.582-.274-.781zm-2.484 2.552l1.091-2.278 1.098 1.462-2.189.816z"/></g><path fill="#031326" d="M5.198 27.712a.125.125 0 01-.125-.125v-2.265c0-1.044.845-2.242 1.884-2.67l3.205-1.329a.124.124 0 01.163.067.124.124 0 01-.067.163l-3.205 1.33c-.954.393-1.729 1.487-1.729 2.439v2.265a.127.127 0 01-.126.125zm41.823-1.358a.125.125 0 01-.125-.125V7.945c0-.333-.096-.609-.277-.798-.289-.303-.755-.365-1.276-.167l-.031.012a.61.61 0 01-.053.02L42.01 8.359a.122.122 0 01-.163-.067.125.125 0 01.067-.163l3.299-1.368a.543.543 0 01.046-.018c.604-.228 1.184-.143 1.54.23.227.236.347.572.347.971v18.284c0 .07-.056.126-.125.126zM6.328 45.031a1.24 1.24 0 01-.851-.312l-.049-.048c-.221-.231-.338-.557-.338-.943v-3.961a.125.125 0 01.25 0v3.961c0 .321.092.587.268.769l.041.041c.303.276.778.321 1.266.121l12.781-5.301a.125.125 0 01.163.067.124.124 0 01-.067.163L7.01 44.889a1.813 1.813 0 01-.682.142zm7.808-7.244c-.5 0-.956-.125-1.33-.376-.648-.433-1.005-1.194-1.005-2.145 0-2.027 1.645-4.357 3.667-5.193 1.036-.43 2.037-.406 2.749.069.649.434 1.006 1.195 1.006 2.146 0 2.026-1.642 4.356-3.659 5.193a3.75 3.75 0 01-1.428.306zm2.754-7.769a3.51 3.51 0 00-1.327.286c-1.937.802-3.512 3.027-3.512 4.963 0 .863.318 1.552.895 1.938.641.428 1.561.445 2.522.047 1.933-.803 3.505-3.028 3.505-4.963 0-.864-.318-1.552-.895-1.938-.333-.222-.74-.333-1.188-.333z"/><path fill="#031326" d="M5.134 47.024a3.16 3.16 0 01-.32-.016 2.347 2.347 0 01-1.368-.595c-.058-.056-1.725-1.746-1.725-1.746a2.883 2.883 0 01-.863-2.105l.016-18.838c0-1.549 1.14-3.188 2.652-3.81L43.647 3.273c1.074-.454 2.391-.22 3.189.578l-.016.016c.318.28.8.764 1.633 1.603.655.68.688 1.796.688 2.013v18.795a1.25 1.25 0 01-2.5 0V7.482c0-.119-.026-.26-.052-.342-.205-.207-.775-.78-1.151-1.156h-.004l-.366-.367a.482.482 0 00-.453-.039L4.482 22.225c-.625.257-1.107 1.018-1.107 1.5l-.016 18.838c0 .191.054.26.137.343l1.595 1.616a.516.516 0 00.229-.032l13.891-5.762a1.25 1.25 0 11.958 2.309L6.273 46.801a2.964 2.964 0 01-1.139.223zM46.571 7.092z"/></svg>