<svg xmlns="http://www.w3.org/2000/svg" viewBox="0 0 50 50"><defs><style>.cls-2{fill:#afe55d}.cls-5{fill:#444}</style></defs><g id="Layer_1" data-name="Layer 1"><path fill="none" stroke="#494949" stroke-miterlimit="10" stroke-width="3.11" d="M-50.54-96.7h425.11v443.81H-50.54z"/><path d="M45.64 23.34l.27 5.92L3.95 44.54l.22-18.46L44.7 11.5l1.05 2.9-.11 8.94z" class="cls-2"/><path fill="#c3ff68" d="M46.11 14.91L4.14 30.08l-.17-14.57-.02-3.57 26.23-9.55 10.24.34 5.02 2.35.67 9.83z"/><path fill="none" stroke="#444" stroke-linecap="round" stroke-linejoin="round" stroke-width="2.5" d="M3.89 44.19V5.82a3 3 0 013-3h35.8a3 3 0 013 3v38.8a3 3 0 01-3 3H37.2M3.89 11.79h41.79"/><circle cx="8.26" cy="7.42" r=".94" class="cls-5"/><circle cx="11.24" cy="7.42" r=".94" class="cls-5"/><circle cx="14.22" cy="7.42" r=".94" class="cls-5"/><path d="M12.67 30.34a4 4 0 104 4 4 4 0 00-4-4z" class="cls-5"/><path d="M13 33.23a.36.36 0 01.36.36h.72A1.08 1.08 0 0013 32.51v-.72h-.72v.72h-1.05v1.08a1.08 1.08 0 001.08 1.08H13a.36.36 0 01.36.36v.36h-1.05A.36.36 0 0112 35h-.72a1.08 1.08 0 001.08 1.08v.72H13v-.72h1.08V35A1.08 1.08 0 0013 34h-.72a.36.36 0 01-.36-.36v-.36z" class="cls-2"/><circle cx="12.67" cy="34.31" r="5.04" fill="none" stroke="#444" stroke-miterlimit="10"/><path fill="none" stroke="#444" stroke-linecap="round" stroke-linejoin="round" stroke-width="1.5" d="M20.95 31.41l5.4-3.64 6.62 2.51 7.83-8.82"/><circle cx="20.95" cy="31.41" r="1.41" class="cls-5"/><circle cx="26.1" cy="27.91" r="1.41" class="cls-5"/><circle cx="33.16" cy="30" r="1.41" class="cls-5"/><circle cx="40.8" cy="21.46" r="1.41" class="cls-5"/></g></svg>