<svg xmlns="http://www.w3.org/2000/svg" id="Camada_1" x="0" y="0" version="1.1" viewBox="0 0 50 50" xml:space="preserve"><style>.st2{fill:#031326}</style><switch><g><path fill="#e06b6b" d="M34.7 13.1l-2.3 1.4-.4-.3c-1.6-1-3.3-1.7-5.1-2.1l-.6-.1-.7-2.6H22l-.6 2.6-.5.1c-1.8.4-3.5 1.1-5.1 2.1l-.4.3-2.3-1.4-2.6 2.6 1.4 2.3-.3.4c-.9 1.4-1.5 2.9-1.9 4.4l25.5-9.3-.5-.4z"/><path fill="#c86060" d="M38.2 29.4l.1-.5 2.6-.7v-3.6l-2.6-.6-.1-.5c-.4-1.8-1.1-3.5-2.1-5.1l-.3-.4 1.4-2.3-2.1-2.1-25.4 9.2c-.1.2-.1.4-.2.6l-.1.6-2.6.7v3.6l2.6.7.1.5c1.1 5.4 5.2 9.7 10.4 11.1l16-5.8c1.1-1.7 1.9-3.5 2.3-5.4z"/><path d="M46.9 39.4h-23c-7 0-12.7-5.7-12.7-12.7 0-7 5.7-12.7 12.7-12.7s12.7 5.7 12.7 12.7c0 2.7-.9 5.3-2.5 7.5-.4.5-.8 1-1.3 1.5l-.2.2c-.7.6-1.4 1.2-2.2 1.7-.4.2-.8.1-1-.3-.2-.4-.1-.8.3-1 .7-.4 1.3-.9 1.9-1.5l.2-.2c.4-.4.8-.9 1.2-1.3 1.4-1.9 2.2-4.2 2.2-6.6 0-6.2-5-11.2-11.2-11.2s-11.2 5-11.2 11.2c0 6.2 5 11.2 11.2 11.2h23c.4 0 .8.3.8.8s-.4.7-.9.7z" class="st2"/><path d="M46.9 42.9h-23c-7.7 0-14.5-5.4-16.2-13l-3-.8v-5.7l3-.7c.4-1.9 1.2-3.6 2.2-5.3l-1.6-2.6 4.1-4.1 2.6 1.6c1.6-1 3.4-1.8 5.3-2.2l.7-3h5.7l.7 3c1.9.4 3.6 1.2 5.3 2.2l2.6-1.6 4.1 4.1-1.6 2.6c1 1.6 1.8 3.4 2.2 5.3l3 .7v5.7l-3 .8c-.4 1.7-1 3.4-2 4.9l-1-.5-1-.7c.8-1.4 1.4-2.9 1.7-4.4l.3-1.3 2.6-.7v-1.8l-2.6-.7-.3-1.3c-.4-1.7-1-3.4-2-4.9l-.7-1 1.4-2.3-1.4-1.3-2.3 1.4-1.1-.7c-1.5-1-3.1-1.7-4.9-2l-1.3-.3-.7-2.6H23l-.7 2.6-1.3.2c-1.7.4-3.4 1-4.9 2l-1.1.7-2.3-1.4-1.3 1.3 1.4 2.3-.7 1.1c-1 1.5-1.7 3.1-2 4.9l-.3 1.3-2.6.7v1.8l2.6.7.3 1.3c1.3 6.5 7.1 11.2 13.8 11.2h23c.7 0 1.2.6 1.2 1.2s-.5 1.3-1.2 1.3zM37 34.3z" class="st2"/><path d="M24.2 36.3c-5.4 0-9.9-4.4-9.9-9.9s4.4-9.9 9.9-9.9S34 21 34 26.4s-4.4 9.9-9.8 9.9zm0-18.2c-4.6 0-8.4 3.8-8.4 8.4s3.8 8.4 8.4 8.4 8.4-3.8 8.4-8.4-3.8-8.4-8.4-8.4z" class="st2"/><path d="M24.3 30c-1.6 0-3-1.3-3-3 0-1.6 1.3-3 3-3s3 1.3 3 3c-.1 1.7-1.4 3-3 3zm0-4.4c-.8 0-1.5.7-1.5 1.5s.7 1.5 1.5 1.5 1.5-.7 1.5-1.5c-.1-.9-.7-1.5-1.5-1.5z" class="st2"/><path d="M24.3 25.6c-.4 0-.8-.3-.8-.8v-4.3c0-.4.3-.8.8-.8s.8.3.8.8v4.3c-.1.4-.4.8-.8.8zm3.7 5.8c-.2 0-.4-.1-.5-.2l-2-1.8c-.3-.3-.3-.8 0-1.1.3-.3.8-.3 1.1 0l2 1.8c.3.3.3.8 0 1.1-.2.1-.4.2-.6.2zM12.1 42.7H2.5c-.7 0-1.2-.6-1.2-1.2s.6-1.2 1.2-1.2h9.6c.7 0 1.2.6 1.2 1.2s-.5 1.2-1.2 1.2zm-3.7-3.2H2.5c-.4 0-.7-.3-.7-.8s.3-.7.7-.7h5.9c.4 0 .8.3.8.8s-.4.7-.8.7z" class="st2"/></g></switch></svg>