<svg xmlns="http://www.w3.org/2000/svg" id="Layer_1" x="0" y="0" version="1.1" viewBox="0 0 50 50" xml:space="preserve"><style>.st3{fill:none;stroke:#444;stroke-width:1.3;stroke-linecap:round;stroke-linejoin:round;stroke-miterlimit:10}</style><path fill="#dc5e82" d="M48 23.7l.3 4.8L3.1 44.9l.2-9 .3-5.1 44.6-16.3.3 3z"/><path fill="#f56991" d="M47.7 3.8l.2 11.4L3.4 31.4v-9.8l.4-4.4L45.2 2.7z"/><path fill="none" stroke="#444" stroke-linecap="round" stroke-linejoin="round" stroke-miterlimit="10" stroke-width="2.5" d="M7 47.4H2.8V2.8h44.9v44.6H32.2"/><circle cx="12.9" cy="38.6" r="2.2" class="st3"/><circle cx="25.3" cy="38.6" r="2.2" class="st3"/><circle cx="37.5" cy="38.6" r="2.2" class="st3"/><path d="M25.3 36.2v-9.5M13 36.2v-2.9c0-.8.5-1.5 1.2-1.5h22.1c.7 0 1.2.7 1.2 1.5v2.9" class="st3"/><g id="Refresh"><path d="M17 16.6c.7-4 4.2-7 8.4-7 2.8 0 5.2 1.3 6.8 3.3" class="st3"/><path d="M32.6 10.1v3.4h-3.4m3.3 9.3c-1.5 2.3-4.2 3.9-7.2 3.9-2.8 0-5.2-1.3-6.7-3.3" class="st3"/><path d="M18.1 26.3v-3.5l3.4.1" class="st3"/></g></svg>