<svg xmlns="http://www.w3.org/2000/svg" id="Layer_1" x="0" y="0" version="1.1" viewBox="0 0 50 50" xml:space="preserve"><style>.st4{fill:none;stroke:#444;stroke-linecap:round;stroke-linejoin:round;stroke-miterlimit:10;stroke-width:.75}</style><path fill="#a475ef" d="M47.4 24l.4 4.1L3.1 44.4l.2-8.7.3-4.9 44.5-16.2-.7 3.5z"/><path fill="#bf94f7" d="M47.7 8.1l-.6 7.4L3.4 31.4V22l.4-4.2 44-16z"/><path fill="none" stroke="#444" stroke-linecap="round" stroke-linejoin="round" stroke-miterlimit="10" stroke-width="2.5" d="M6.8 47.3H2.6V2.7h44.9v44.6H32"/><path fill="none" stroke="#444" stroke-linecap="round" stroke-linejoin="round" stroke-miterlimit="10" d="M35.2 34.9h-20V13.8H9.9v26.4h25.3zm-22.7-5h2.3m-2.3-4.3h2.3m-2.3-4.3h2.3M12.5 17h2.3m5 18.1v2.4m4.3-2.4v2.4m4.2-2.4v2.4m4.3-2.4v2.4"/><circle cx="20.2" cy="24.6" r="1.7" class="st4"/><circle cx="32.6" cy="21.4" r="1.7" class="st4"/><circle cx="34.5" cy="11.5" r="1.7" class="st4"/><path d="M22.1 24l8.7-2.3m3.3-8.5l-1 6.5m-11.5-5.5l2.7 2.7m-2.7 0l2.7-2.7m16-1.3v3.8m-1.9-1.9h3.8M29.1 27.1v3.8M27.2 29H31" class="st4"/></svg>