<svg xmlns="http://www.w3.org/2000/svg" id="Layer_1" x="0" y="0" version="1.1" viewBox="0 0 50 50" xml:space="preserve"><style>.st3{fill:#031326;stroke:#031326;stroke-width:.3;stroke-miterlimit:10}</style><path fill="#00c8e2" d="M48.6 26.1l.4 4.4L2 47.6l.1-9.2.4-5.3L49.3 16l-.7 3.8z"/><path fill="#00dffc" d="M48.6 9.2l-.6 7.9L2.1 33.8v-10l.3-4.5L48.7 2.5z"/><path fill="none" stroke="#031326" stroke-linecap="round" stroke-linejoin="round" stroke-miterlimit="10" stroke-width="2.5" d="M6.2 48.1H1.9V1.9h46.4v46.2H32.2"/><path d="M43.6 36.6s0-.1 0 0c0-.1 0-.1 0 0 0-.1 0-.1 0 0l-2.9-5.8v-19c0-.6-.5-1.1-1.1-1.1h-29c-.6 0-1.1.5-1.1 1.1v18.9l-2.9 5.7V38c0 .7.6 1.2 1.2 1.2h34.6c.7 0 1.2-.6 1.2-1.2v-1.4zm-33-24.8h29v18.4h-29V11.8zm-.2 19.5h29.4l2.4 4.8H30.3l-.6-2.2c-.1-.4-.5-.8-1-.8h-7.2c-.5 0-.9.3-1 .8l-.6 2.2H8l2.4-4.8zm18.7 4.8H21l.5-1.8h7.1l.5 1.8zM42.6 38c0 .1-.1.2-.2.2H7.8c-.1 0-.2-.1-.2-.2v-.8h34.9l.1.8z" class="st3"/><path d="M38.1 13.8c0-.5-.1-.9-.6-.9h-25c-.5 0-.9.4-.9.9v8.9c0 .3.2.5.5.5s.5-.2.5-.5V14h24.5v8.4c0 .3.2.5.5.5s.5-.2.5-.5v-8.6z" class="st3"/><path fill="#424242" d="M28.1 18.9H21v1.4h7.1v1.8l2.5-2.5-2.5-2.5zm-8.1 5h7.1v-1.4H20v-1.8l-2.5 2.5 2.5 2.4z"/></svg>