<svg xmlns="http://www.w3.org/2000/svg" id="Layer_1" x="0" y="0" version="1.1" viewBox="0 0 50 50" xml:space="preserve"><style>.st2{fill:#494949}</style><path fill="#afe55d" d="M43.3 18.2l-.2 6.5L6.8 37.9V18l.9-1 1.2-.5h7.8l.3-2.9 13.7-5 .3.2 2.1 3.9v3.8l8.5.5z"/><path fill="#c3ff68" d="M31 8.8l2.1 3.9v1.6L6.8 23.7V18l.9-1 .4-.5h8.6l.3-2.9.1-1 1.5-3.8 4.2-2.4h5.1l2.8 2.2z"/><path d="M46.6 41.8c-.1-.2-.4-.3-.6-.3h-2.3V18.2c0-1.2-1-2.3-2.3-2.3h-6c-.4 0-.8.3-.8.8 0 .4.3.8.8.8h6c.4 0 .8.3.8.8v23.3h-1.5V19.7c0-.4-.3-.8-.8-.8h-4.5c-.4 0-.8.3-.8.8s.3.8.8.8h3.8v21h-9.8c-.4 0-.8.3-.8.8v1.5h-7.5v-1.5c0-.4-.3-.8-.8-.8h-9.8v-21h3.8c.4 0 .8-.3.8-.8s-.2-.7-.6-.7H10c-.4 0-.8.3-.8.8v21.8H7.7V18.2c0-.4.3-.8.8-.8h6c.4 0 .8-.3.8-.8 0-.4-.3-.8-.8-.8h-6c-1.2 0-2.3 1-2.3 2.3v23.3H4c-.2 0-.4.1-.6.3-.1.2-.2.4-.1.6l1.2 4.9c.3 1 1.2 1.7 2.2 1.7h36.7c1 0 1.9-.7 2.2-1.7l1.2-4.9c0-.1 0-.3-.2-.5zM44.1 47c-.1.3-.4.6-.7.6H6.6c-.3 0-.6-.2-.7-.6l-1-3.9h14.8v1.5c0 .4.3.8.8.8h9c.4 0 .8-.3.8-.8V43h14.8l-1 4zM25 4c.4 0 .8-.3.8-.8V1.7c0-.4-.4-.7-.8-.7s-.8.3-.8.8v1.5c0 .3.4.7.8.7zm-4.4-.1c.1.3.4.6.7.6h.2c.4-.1.6-.5.5-.9L21.6 2c-.1-.4-.5-.6-.9-.5-.4.1-.6.5-.5.9l.4 1.5zm-3.4 1.6c.1.2.4.4.7.4.1 0 .3 0 .4-.1.4-.2.5-.7.3-1l-.8-1.3c-.2-.4-.7-.5-1-.3-.4.2-.5.7-.3 1l.7 1.3zm-2.8 2.4c.1.1.3.2.5.2s.4-.1.5-.2c.3-.3.3-.8 0-1.1l-1.1-1.1c-.3-.3-.8-.3-1.1 0-.3.3-.3.8 0 1.1l1.2 1.1zM11 10.2l1.3.8c.1.1.2.1.4.1.3 0 .5-.1.7-.4.2-.4.1-.8-.3-1l-1.3-.8c-.4-.2-.8-.1-1 .3-.3.4-.2.8.2 1zm-1 4.3h1.5c.4 0 .8-.3.8-.8s-.4-.7-.8-.7H10c-.4 0-.8.3-.8.8s.4.7.8.7zM28.5 4.4h.2c.3 0 .6-.2.7-.6l.4-1.5c.1-.4-.1-.8-.5-.9-.4-.1-.8.1-.9.5L28 3.5c-.1.4.1.8.5.9zm3.3 1.4c.1.1.2.1.4.1.3 0 .5-.1.7-.4l.8-1.3c.2-.4.1-.8-.3-1-.4-.2-.8-.1-1 .3l-.8 1.3c-.3.3-.2.8.2 1zm3.3 2.3c.2 0 .4-.1.5-.2l1.1-1.1c.3-.3.3-.8 0-1.1-.3-.3-.8-.3-1.1 0l-1.1 1.1c-.3.3-.3.8 0 1.1.2.2.4.2.6.2zm1.6 2.6c.1.2.4.4.7.4.1 0 .3 0 .4-.1l1.3-.8c.4-.2.5-.7.3-1-.2-.4-.7-.5-1-.3l-1.4.8c-.4.2-.5.7-.3 1zm1.1 3c0 .4.3.8.8.8H40c.4 0 .8-.3.8-.8s-.4-.7-.8-.7h-1.5c-.4 0-.7.3-.7.7z" class="st2"/><path d="M19.7 21.8v2.5c0 .4.3.8.8.8h9c.4 0 .8-.3.8-.8v-2.5c2.4-1.7 3.8-4.4 3.8-7.3 0-5-4-9-9-9s-9 4-9 9c-.1 2.9 1.3 5.6 3.6 7.3zM25 7c4.1 0 7.5 3.4 7.5 7.5 0 2.5-1.3 4.9-3.4 6.3-.2.1-.3.4-.3.6v2.1h-7.5v-2.1c0-.3-.1-.5-.3-.6-2.1-1.4-3.4-3.7-3.4-6.3C17.5 10.3 20.9 7 25 7zm4.5 18.8h-9c-.4 0-.8.3-.8.8s.3.8.8.8h1L22 29c.1.3.4.5.7.5h4.5c.3 0 .6-.2.7-.5l.6-1.7h1c.4 0 .8-.3.8-.8s-.4-.7-.8-.7zM26.7 28h-3.4l-.3-.7h4l-.3.7z" class="st2"/><path d="M25 10c1.5 0 3.1.8 3.9 1.9.1.2.4.3.6.3.1 0 .3 0 .4-.1.3-.2.4-.7.2-1C29 9.5 27 8.5 25 8.5c-.4 0-.8.3-.8.8 0 .3.4.7.8.7zm-1.5 12.7c.4 0 .8-.3.8-.8v-3c0-.4-.3-.8-.8-.8s-.8.3-.8.8v3c0 .5.4.8.8.8zm3-4.5c-.4 0-.8.3-.8.8v3c0 .4.3.8.8.8s.8-.3.8-.8v-3c0-.4-.4-.8-.8-.8z" class="st2"/></svg>