<svg xmlns="http://www.w3.org/2000/svg" id="Camada_1" x="0" y="0" version="1.1" viewBox="0 0 50 50" xml:space="preserve"><style>.st2{fill:#444}</style><path fill="#fcb968" d="M6.4 38.4l5.7 3.3 33.8-12.3V15.6c0-1.6-.9-3.2-2.3-4L27.3 2.2c-1.4-.8-3.2-.8-4.6 0L6.4 11.6c-1.4.8-2.3 2.3-2.3 4v18.8c0 1.6.9 3.2 2.3 4z"/><path fill="#fdc787" d="M36 7.3l-8.7-5c-1.4-.8-3.2-.8-4.6 0L6.4 11.6c-1.4.8-2.3 2.3-2.3 4v3.3L36 7.3z"/><path d="M25 49.6c-1 0-2-.3-2.9-.8L5.8 39.5c-1.8-1-2.9-3-2.9-5.1V15.6c0-2.1 1.1-4 2.9-5.1l16.3-9.4c1.8-1 4-1 5.8 0l16.3 9.4c1.8 1 2.9 3 2.9 5.1v13.8c0 .7-.6 1.2-1.2 1.2-.7 0-1.2-.6-1.2-1.2V15.6c0-1.2-.6-2.3-1.7-2.9L26.7 3.3c-1-.6-2.3-.6-3.4 0L7 12.7c-1 .6-1.7 1.7-1.7 2.9v18.8c0 1.2.6 2.3 1.7 2.9l16.3 9.4c1 .6 2.3.6 3.4 0l4.5-2.6c.6-.3 1.3-.1 1.7.5.3.6.1 1.3-.5 1.7l-4.5 2.6c-.9.5-1.9.7-2.9.7z" class="st2"/><path d="M36.6 39.7H13.5c-.3 0-.4-.3-.4-.5 0-.7-.1-1.4 0-2.1.1-1.1 1.1-1.9 2.2-1.9h1.1v-8.8c-.9-.3-1.5-.9-1.5-1.8s.5-1.5 1.4-1.9c.1 0 .1-.1.1-.2v-.9c-1.2.4-2.4.3-3.5-.3s-1.8-1.5-2.1-2.7c-.3-1.1-.2-2.1.3-3.1.8-1.5 2-2.3 3.7-2.5v-.7c0-1.1.8-1.9 1.9-1.9h16.5c1.1 0 1.9.8 1.9 1.9v.7c1.3.1 2.4.7 3.2 1.7.8 1.1 1.1 2.3.8 3.6-.2 1.1-.8 2-1.8 2.7-1.2.8-2.5 1.1-3.9.6v.8c0 .2.1.3.3.4.7.3 1.2.8 1.3 1.5s-.2 1.3-.7 1.8c-.2.2-.5.3-.8.4v8.8h1.1c1.2 0 2.2 1 2.2 2.2V39c.2.3.1.6-.2.7zm-4.1-13.2H17.6v8.8h2.9v-6c0-.3.3-.6.6-.6s.5.2.6.6v6.1h2.9v-6c0-.3.3-.6.6-.6s.6.2.6.6v6.1h2.9v-6.1c0-.3.2-.5.5-.5s.5.1.6.3c0 .1.1.3.1.4v5.8h2.7c-.1-3.1-.1-6-.1-8.9zM16 12.9h6.2c.5 0 .8.2.8.6 0 .4-.3.6-.8.6h-7c-.9 0-1.6.3-2.3.8-1 .9-1.4 2.3-.9 3.6s1.7 2.2 3.1 2.2c1.1 0 2-.8 2.1-1.9.1-1-.7-2-1.8-2.1-.5-.1-.9.2-1 .6-.1.5.2.8.8.8.3 0 .6.3.5.6 0 .3-.3.5-.7.5-.9 0-1.7-.8-1.8-1.6-.1-1 .5-1.8 1.4-2 .7-.2 1.4 0 2.1.4.1.1.3.1.4.1h15.7c.1 0 .3-.1.4-.1.4-.1.9-.4 1.3-.4 1.1-.2 2.1.6 2.2 1.6.1 1.1-.6 2-1.7 2.1-.4 0-.7-.2-.7-.5 0-.4.2-.6.6-.7.5-.1.7-.4.7-.8s-.4-.7-.8-.6c-1 0-1.9.9-1.9 1.9-.1 1 .7 1.9 1.7 2 2.1.3 4-1.7 3.6-3.8-.3-1.6-1.6-2.7-3.3-2.7h-7.3c-.3 0-.5-.2-.5-.5s.1-.5.4-.6h6.6v-.4c0-.8-.2-1.1-1.1-1.1H16.8c-.4 0-.7.3-.8.7v.7zm-1.9 25.7h21.7v-1.2c0-.6-.5-1-1.2-1H15.1c-.5 0-.9.5-1 1v1.2zm3.4-16h14.9v-.9c0-.6 0-1.2-.4-1.6-.1-.3-.2-.3-.5-.3H18.7c-.5 0-.9 0-1 .6 0 .1-.1.2-.2.3 0 .1-.1.1-.1.2.1.5.1 1.1.1 1.7zm7.5 1.2h-8.3c-.4 0-.6.3-.7.7 0 .3.2.7.5.8h16.9c.4-.1.7-.4.7-.8s-.3-.7-.7-.7H25zm-6.6-5.2h13.3c.1-.5.2-.9.3-1.4H18c.1.5.2 1 .4 1.4z" class="st2"/><path d="M25.6 13.5c0 .3-.2.6-.5.6s-.6-.2-.6-.6c0-.3.3-.6.6-.6.2 0 .5.3.5.6z" class="st2"/></svg>