<svg xmlns="http://www.w3.org/2000/svg" id="Layer_1" x="0" y="0" version="1.1" viewBox="0 0 50 50" xml:space="preserve"><style>.st3{fill:none;stroke:#444;stroke-width:1.3;stroke-linecap:round;stroke-linejoin:round;stroke-miterlimit:10}</style><path fill="#afe55d" d="M47.3 23.6l.3 4.8L2.4 44.9l.3-9 .2-5.2 44.6-16.3.3 3z"/><path fill="#c3ff68" d="M47 3.7l.2 11.4L2.8 31.3v-9.8l.4-4.4L44.5 2.6z"/><path fill="none" stroke="#444" stroke-linecap="round" stroke-linejoin="round" stroke-miterlimit="10" stroke-width="2.5" d="M6.3 47.4H2.2V2.7H47v44.7H31.6"/><circle cx="12.2" cy="38.5" r="2.2" class="st3"/><circle cx="24.6" cy="38.5" r="2.2" class="st3"/><circle cx="36.8" cy="38.5" r="2.2" class="st3"/><path d="M24.6 36.2v-9.6m-12.2 9.6v-2.9c0-.8.5-1.5 1.2-1.5h22.1c.7 0 1.2.7 1.2 1.5v2.9" class="st3"/><g id="Refresh"><path d="M16.4 16.5c.7-4 4.2-7 8.4-7 2.8 0 5.2 1.3 6.8 3.3" class="st3"/><path d="M31.9 10v3.4h-3.3m3.3 9.3c-1.5 2.3-4.2 3.9-7.2 3.9-2.8 0-5.2-1.3-6.7-3.3" class="st3"/><path d="M17.5 26.2v-3.5l3.4.1" class="st3"/></g></svg>