<svg xmlns="http://www.w3.org/2000/svg" id="Layer_1" x="0" y="0" version="1.1" viewBox="0 0 50 50" xml:space="preserve"><style>.st2{fill:#031326}</style><path fill="#e589ef" d="M4 46.4l44.1-16.1V7.5c0-3.1-2.5-5.7-5.7-5.7H7.8c-3.1 0-5.7 2.5-5.7 5.7v34.6c.1 1.7.8 3.2 1.9 4.3z"/><path fill="#f799ff" d="M46.3 3.4c-1-.9-2.3-1.5-3.8-1.5H7.8c-3.1 0-5.7 2.5-5.7 5.7v11.9L46.3 3.4z"/><path d="M25.2 49.1H7.8C4 49.1.9 46 .9 42.2V7.5C.9 3.7 4 .6 7.8.6h34.6c3.8 0 6.9 3.1 6.9 6.9v22.8c0 .7-.6 1.2-1.2 1.2s-1.2-.6-1.2-1.2V7.5c0-2.4-2-4.4-4.4-4.4H7.8c-2.4 0-4.4 2-4.4 4.4v34.6c0 2.4 2 4.4 4.4 4.4h17.3c.7 0 1.2.6 1.2 1.2s-.5 1.4-1.1 1.4z" class="st2"/><path d="M42.3 44.6H8c-1.4 0-2.5-1.1-2.5-2.5V7.7c0-1.4 1.1-2.5 2.5-2.5h34.4c1.4 0 2.5 1.1 2.5 2.5v34.4c-.1 1.3-1.2 2.5-2.6 2.5zM8 6.2c-.8 0-1.5.7-1.5 1.5v34.4c0 .8.7 1.5 1.5 1.5h34.4c.8 0 1.5-.7 1.5-1.5V7.7c0-.8-.7-1.5-1.5-1.5H8z" class="st2"/><path d="M6.2 36c-.1 0-.2 0-.3-.1-.2-.2-.2-.5 0-.7l8.5-9.6h9.1l4.2 6.3h3.6l6.2-12.4H44c.3 0 .5.2.5.5s-.2.5-.5.5h-5.9l-6.2 12.4h-4.7L23 26.6h-8.1l-8.2 9.3c-.2 0-.3.1-.5.1zm8-16.7c-2.7 0-4.9-2.2-4.9-4.9s2.2-4.9 4.9-4.9 4.9 2.2 4.9 4.9-2.2 4.9-4.9 4.9zm0-8.8c-2.1 0-3.9 1.7-3.9 3.9s1.7 3.9 3.9 3.9 3.9-1.7 3.9-3.9-1.8-3.9-3.9-3.9z" class="st2"/></svg>