<svg xmlns="http://www.w3.org/2000/svg" id="Camada_3" x="0" y="0" version="1.1" viewBox="0 0 50 50" xml:space="preserve"><style>.st2{stroke-width:2.5}.st2,.st4{fill:none;stroke:#444;stroke-linecap:round;stroke-linejoin:round;stroke-miterlimit:10}</style><path fill="#dc5e82" d="M46.47 21.43v4.24l.22-.33L11.34 38.2l-7.51-1.63-.61-2.87-.24-10.48L46.76 8l.73 6.03z"/><path fill="#f56991" d="M46.21 4.19l2.58 1.91-1.64 5.13L2.92 27.02l.57-16.8-2.28-4.06 7.81-1.65z"/><path d="M46.47 30.4V9.79h.23c1.13 0 2.05-.92 2.05-2.05v-.9c0-1.13-.92-2.05-2.05-2.05H3.26c-1.13 0-2.05.92-2.05 2.05v.9c0 1.13.92 2.05 2.05 2.05h.23V37h37.75" class="st2"/><path fill="none" stroke="#444" stroke-miterlimit="10" d="M2.23 8.81h45.62"/><path d="M25.57 37.81v3.03" class="st2"/><circle cx="25.58" cy="43.92" r="2.62" class="st2"/><path d="M23.96 15.95c-4.37 0-7.91 3.54-7.91 7.91s3.54 7.91 7.91 7.91 7.91-3.54 7.91-7.91l-7.91.02v-7.93z" class="st4"/><path d="M25.98 21.65h7.93c0-4.37-3.54-7.91-7.91-7.91l-.02 7.91z" class="st4"/><path fill="none" stroke="#444" stroke-linecap="round" stroke-linejoin="round" stroke-miterlimit="10" stroke-width=".25" d="M20.05 23.22h-9.23v-2.39m-3.31-4.02h7.67m-7.67 1.34h7.67m-7.67-3.14h2.44m-2.44 4.41h7.67m16.74-.92h9.23v4.46m1.31 2.72H34.8m7.66 1.34H34.8m7.66-3.14h-2.44m2.44 4.41H34.8"/></svg>