<svg xmlns="http://www.w3.org/2000/svg" id="Camada_1" x="0" y="0" version="1.1" viewBox="0 0 50 50" xml:space="preserve"><style>.st3{fill:#444}</style><path fill="#71bac0" d="M47.6 26.2l.4 4.3L1.7 47.3l.2-9.1.3-5.2 46.1-16.8-.7 3.8z"/><path fill="#7ed0d6" d="M47.6 9.5l-.5 7.7L2.9 33.3l-.1-9.7.3-4.5L47.6 2.9z"/><path fill="none" stroke="#444" stroke-linecap="round" stroke-linejoin="round" stroke-miterlimit="10" stroke-width="2.5" d="M6 48.1H1.7V1.9h46.5v46.2H32.1"/><path d="M22.6 30.7c0-2.6 2.1-4.7 4.7-4.7h3.2l3.7-1.7c.2-.6.4-1.2.5-1.8.2-.8.3-1.6.4-2.4v-1.9c0-.1 0-.1.1-.2 1-.8 1.9-1.7 2.7-2.8 0 0 0-.1.1-.1-1 .4-2.1.7-3.2.9h-.1c1.2-.8 2.1-1.8 2.5-3.2-.1 0-2.3 1.1-3.5 1.4h-.1c-.8-.8-1.7-1.3-2.7-1.6-.1 0-.3-.1-.4-.1-.2 0-1.5-.1-1.6 0-1.2.1-2.3.6-3.2 1.4-1 .9-1.7 2-1.9 3.4-.1.7-.1 1.5 0 2.2v.1c-4.8-.3-8.8-2.3-11.9-6-.7 1.3-1 2.7-.6 4.2.3 1.5 1.2 2.6 2.4 3.5-.5 0-.9-.1-1.3-.2s-.9-.3-1.3-.5c0 1.4.4 2.6 1.3 3.7s2 1.7 3.3 2c-.8.2-1.7.3-2.6.1.4 1.2 1.1 2.1 2.1 2.9 1 .7 2.1 1.1 3.3 1.2-2.5 1.9-5.3 2.7-8.5 2.4.2.1.5.3.7.4 1.4.8 2.9 1.4 4.6 1.7 1.2.3 5 .3 5 .3 2.5-.3 4-.9 4.2-1-1.2-.8-1.9-2.1-1.9-3.6zm9 5.2l-1.1-.5h-.4l1.2 2.9c.2.4 0 .8-.4 1h-.7s-.1 0-.3-.4l-1.4-3.4h-1.3l1.6 3.9c.3.8 1.1 1.2 1.8 1.2.2 0 .5-.1.7-.2 1-.4 1.5-1.5 1.1-2.6l-.8-1.9z" class="st3"/><path d="M37.1 27.9v-2.8c0-.2-.1-.4-.3-.5 0 0-.1-.1-.2-.1h-.2c-.1 0-.2 0-.3.1l-2.6 1.2-2.8 1.2h-3.4c-2 0-3.7 1.7-3.7 3.7 0 1.4.8 2.6 1.9 3.2.3.2.7.3 1.1.4.2 0 .4.1.6.1h3.5l.3.1 1.3.6 3.9 1.8h.3c.1 0 .2 0 .3-.1.2-.1.3-.3.3-.5v-8.4zm-1.2 7.5l-4.2-1.9-.6-.3H27c-.4 0-.8-.2-1.2-.4-.6-.4-1.1-1.2-1.1-2 0-1.4 1.1-2.5 2.5-2.5h3.6c.1 0 .2 0 .3-.1l1.6-.7 3.1-1.4v9.3h.1zm2.4-6.6H38c-.3 0-.6.3-.6.6s.3.6.6.6h.1c.5-.1.8.3.8.7 0 .1 0 .3-.3.7-.1.1-.3.2-.4.2h-.3c-.3 0-.6.3-.6.6s.3.6.6.6h.3c.4 0 .7-.3.7-.3s.8-.5.9-1.6v-.3c0-.9-.7-1.8-1.5-1.8z" class="st3"/></svg>