<svg xmlns="http://www.w3.org/2000/svg" version="1" viewBox="0 0 50 50"><path fill="#00C8E2" d="M4.973 45.377l41.819-15.221V8.583a5.377 5.377 0 00-5.375-5.375H8.582a5.374 5.374 0 00-5.375 5.375v32.835a5.339 5.339 0 001.766 3.959z"/><path fill="#00DFFC" d="M45.023 4.622a5.338 5.338 0 00-3.606-1.414H8.582a5.374 5.374 0 00-5.375 5.375v11.259l41.816-15.22z"/><path fill="#444" d="M25.001 48.137H8.454a6.599 6.599 0 01-6.591-6.591V8.455a6.598 6.598 0 016.591-6.592h33.091a6.598 6.598 0 016.591 6.592v21.739a1.174 1.174 0 11-2.35.002V8.455a4.247 4.247 0 00-4.242-4.242H8.454a4.247 4.247 0 00-4.242 4.242v33.091a4.247 4.247 0 004.242 4.242h16.547a1.175 1.175 0 110 2.349z"/><path fill="#444" d="M24.572 43.235h-3.96v-15.38h-5.071v-3.296h14.103v3.296h-5.071v15.38zm18.97-5.187c0 1.686-.607 3.015-1.82 3.986-1.214.971-2.902 1.456-5.065 1.456-1.993 0-3.756-.375-5.288-1.124v-3.679c1.26.562 2.327.958 3.2 1.188.873.23 1.671.345 2.395.345.869 0 1.535-.166 1.999-.498.464-.332.696-.826.696-1.482 0-.366-.102-.692-.307-.977-.204-.285-.505-.56-.901-.824-.396-.264-1.203-.686-2.421-1.265-1.141-.537-1.997-1.052-2.568-1.546a5.802 5.802 0 01-1.367-1.725c-.341-.656-.511-1.422-.511-2.299 0-1.652.56-2.951 1.68-3.896s2.668-1.418 4.643-1.418c.971 0 1.897.115 2.778.345.881.23 1.803.554 2.766.971l-1.277 3.079c-.996-.409-1.82-.694-2.472-.856a7.943 7.943 0 00-1.923-.243c-.749 0-1.324.175-1.725.524-.4.349-.6.805-.6 1.367 0 .349.081.654.243.913.162.26.419.511.773.754.353.243 1.19.679 2.51 1.309 1.746.835 2.942 1.671 3.59 2.51s.972 1.867.972 3.085z"/></svg>