<?xml version="1.0" encoding="utf-8"?>
<!-- Generator: Adobe Illustrator 27.7.0, SVG Export Plug-In . SVG Version: 6.00 Build 0)  -->
<svg version="1.1" id="Camada_3" xmlns="http://www.w3.org/2000/svg" xmlns:xlink="http://www.w3.org/1999/xlink" x="0px" y="0px"
	 viewBox="0 0 50 50" style="enable-background:new 0 0 50 50;" xml:space="preserve">
<style type="text/css">
	.st0{fill:#FDCF72;}
	.st1{fill:#FCC34F;}
	.st2{fill:none;stroke:#444444;stroke-width:2.5;stroke-linecap:round;stroke-linejoin:round;stroke-miterlimit:10;}
	.st3{fill:none;stroke:#444444;stroke-width:0.5;stroke-miterlimit:10;}
	.st4{fill:none;stroke:#444444;stroke-miterlimit:10;}
	.st5{fill:#444444;}
</style>
<g>
	<g>
		<g>
			<path class="st0" d="M46.6,2.6H4.8c-1.1,0-2,0.9-2,2V21L48.6,4.8V4.6C48.6,3.5,47.7,2.6,46.6,2.6z"/>
			<polygon class="st1" points="2.8,20.9 2.8,45.6 48.6,29.3 48.6,4.6 			"/>
		</g>
		<path class="st2" d="M25.4,48H5.9c-1.9,0-3.4-1.6-3.4-3.5V5.5C2.5,3.6,4.1,2,5.9,2h39c1.9,0,3.4,1.6,3.4,3.5v25.9"/>
		<g>
			<path class="st2" d="M0.9,17.4"/>
			<path class="st3" d="M12.4,31.2h5.4v7.6c0,1.4,1.1,2.4,2.4,2.4h10.1"/>
			<path class="st3" d="M17.8,31.2v-8.5c0-1.4,1.2-2.4,2.6-2.4h4.6"/>
			<path class="st4" d="M5.6,29.3v3.2c0,0.2,0.1,0.5,0.3,0.6l2.8,1.6c0.2,0.1,0.5,0.1,0.7,0l2.8-1.6c0.2-0.1,0.3-0.4,0.3-0.6v-3.2
				c0-0.2-0.1-0.5-0.3-0.6l-2.8-1.6c-0.2-0.1-0.5-0.1-0.7,0L6,28.7C5.8,28.8,5.6,29,5.6,29.3z"/>
			<path class="st5" d="M27.9,14.6l-4,7c-0.2,0.4,0.1,0.8,0.5,0.8h8c0.4,0,0.7-0.5,0.5-0.8l-4-7C28.7,14.3,28.1,14.3,27.9,14.6z"/>
			<path class="st4" d="M30.8,38.3v5.2c0,0.6,0.5,1.1,1.1,1.1h5.2c0.6,0,1.1-0.5,1.1-1.1v-5.2c0-0.6-0.5-1.1-1.1-1.1h-5.2
				C31.3,37.1,30.8,37.6,30.8,38.3z"/>
			<path class="st3" d="M28.4,15v-4.5c0-1.1,1-2,2.2-2h6.9"/>
			<path class="st3" d="M34.4,36.9v-3.8c0-1.3,1.2-2.3,2.7-2.3h10.5"/>
			<path class="st3" d="M9.2,26.7l0-11.6c0-1.6,0.9-2.9,2.1-2.9h4.2"/>
			<circle class="st4" cx="41" cy="8.6" r="3.4"/>
			<circle class="st4" cx="19" cy="12.2" r="3.4"/>
			<line class="st3" x1="5.4" y1="30.9" x2="3.4" y2="30.9"/>
			<path class="st3" d="M41,12v4.5c0,1.1,0.9,2.1,2.1,2.1h5.3"/>
		</g>
	</g>
	<line class="st3" x1="19.2" y1="9.2" x2="19.2" y2="2.4"/>
</g>
</svg>
