<svg xmlns="http://www.w3.org/2000/svg" id="Camada_3" x="0" y="0" version="1.1" viewBox="0 0 50 50" xml:space="preserve"><style>.st1,.st2{fill:none;stroke:#444;stroke-linecap:round;stroke-linejoin:round;stroke-miterlimit:10}.st2{stroke-width:2.5}</style><path fill="#46b8b0" d="M35.7 11.6l11.8.4-.7-7.6-7.9-2C35.7 2.4 12 1.7 12 4.9L8.3 13l4 16c.2 1.3 0 6.6-1.3 6.6-2.8.1-9.1 0-8.9.5.8 2 2.7 6.6 3.3 7l5.4 3.8 29.6-10.5c1-.4-.7-12.3-3.5-15.5-3.4-3.8-.4-7.7-1.2-9.3z"/><path d="M31.3 43.2c-2.9-2.4-3.2-6.4-3.2-6.4H2.9" class="st1"/><path d="M11.8 35.7s1.5-6.6-.9-13C8.8 17.2 9 12.6 9 12.6c0-2.7.9-4.7 2-6.2 1.8-2.5 4.6-3.8 7.4-3.8h22.7s7.1-.4 7 9v.4H35.6m-6.3 34.4H12.7C6.9 46.4 2.2 41.8 2.1 36v-.3h9.5" class="st2"/><path d="M35.6 12s-1 5 2.2 10.7c3 5.2 3.1 10.1 2.4 14-.3 1.4-.7 2.7-1.1 3.9" class="st2"/><path d="M41.8 3.4c-6.4-.4-7 6.2-7.1 10m-15.9 11l-3.9-2.9 3.9-2.5m7.3 5.5l3.9-2.9-3.9-2.5" class="st1"/><path fill="none" stroke="#444" stroke-linecap="round" stroke-linejoin="round" stroke-miterlimit="10" stroke-width=".5" d="M20.5 27l4-10.3"/></svg>