<svg xmlns="http://www.w3.org/2000/svg" id="Layer_1" x="0" y="0" version="1.1" viewBox="0 0 50 50" xml:space="preserve"><style>.st3{fill:none;stroke:#444;stroke-linecap:round;stroke-linejoin:round;stroke-miterlimit:10}</style><path fill="#c3ff68" d="M47.9 17.4l.5-11-1.9-3.8-15.4.4c-3.2 0-27.9-3-27.9.2L1.5 23.8l1.2 23.5 13.6.7 31-11c.8-.4 1.5-17.6.6-19.6z"/><path fill="none" stroke="#444" stroke-linecap="round" stroke-linejoin="round" stroke-miterlimit="10" stroke-width="2.5" d="M32.9 48h-27c-1.9 0-3.4-1.6-3.4-3.5v-39C2.5 3.6 4.1 2 5.9 2h39c1.9 0 3.4 1.6 3.4 3.5V38"/><path fill="none" stroke="#444" stroke-linecap="round" stroke-linejoin="round" stroke-miterlimit="10" stroke-width=".5" d="M27.1 5.8l-4.9 9m-1.9-8.9l-4.6 4.6 4.3 4.3m10-8.9l4.6 4.6-4.3 4.3"/><path d="M19 27.8c-1 1-4.2 4.1-5.2 5.1-1.3 1.3-2.6 2.1-2.6 7.2v.5S10 39.7 9.1 39c-.9-.7-2.3 1-1 2.1.8.7 3.1 2.6 3.1 2.6h11.4v-1c0-.6-.5-1-1-1h-3.1s2.2-3 1.6-4.7c-.6-1.6-2.2-1.9-4.3-1.3" class="st3"/><path d="M22.1 23s.5 1 .5 3c0 1-.7 1.9-1.7 2.1-1.3.2-2.5-.8-2.5-2 0-2 .4-4 2.1-5.2.8-.6 3.1-1 4.1-1 .7 0 1.2.2 1.6.5l.5.5h2.6c.8 0 1 .5 1 1 0 .4-.2 1.2-.5 2.6-1 .4-2.7 1-4.1 1.6 0 0 1 3.4 1 5.2 0 1.8-.3 3.1-2.6 5.2l1.6 5.2c.6 0 1 .5 1 1v1h-4.1m14-25.7l-3.9 21.7m5.6 3.6v-8c0-1-.3-1.9-.9-2.7L34.7 29m6.8 14.7H29.1" class="st3"/></svg>