<svg xmlns="http://www.w3.org/2000/svg" id="Camada_3" x="0" y="0" version="1.1" viewBox="0 0 50 50" xml:space="preserve"><style>.st3{fill:none;stroke:#444;stroke-miterlimit:10}</style><path fill="#00dffc" d="M33.24 5.91l-25.78.64c-1.42.1-5.78 3.38-6.11 4.76l-.8 11.06L36.56 9.56l.16-1.72-3.48-1.93z"/><path fill="#00c8e2" d="M.55 22.37v1.51c0 3.61 2.13 6.19 3.95 8.91 2.47 3.69-3.35 9.67 5.54 4.52 1.14-.66 10.41 4.09 13.68 2.92l25.22-8.97V18.52c0-6.52-6.46-11.08-12.6-8.89L.55 22.37z"/><path fill="none" stroke="#444" stroke-miterlimit="10" stroke-width=".5" d="M20.95 34.06c-.39 0-.71-.32-.71-.71V20.78c0-.39-.32-.71-.71-.71h-3.2c-.39 0-.71-.32-.71-.71v-1.54c0-.39.32-.71.71-.71h11.38c.39 0 .71.32.71.71v1.54c0 .39-.32.71-.71.71h-3.2c-.39 0-.71.32-.71.71v12.68c0 .33-.27.6-.6.6h-2.25zm20.16-4.74c0 1.54-.59 2.73-1.66 3.68-1.07.83-2.61 1.3-4.62 1.3-1.61 0-3.12-.29-4.44-.87a.715.715 0 01-.42-.66v-1.81c0-.5.51-.84.97-.66.75.29 1.4.52 1.99.68.83.24 1.54.36 2.13.36.83 0 1.42-.12 1.78-.47.47-.36.59-.71.59-1.3 0-.36-.12-.59-.24-.83-.24-.24-.47-.47-.83-.71s-1.07-.59-2.25-1.19c-1.07-.47-1.78-.95-2.37-1.42-.47-.47-.95-.95-1.19-1.54-.36-.59-.47-1.3-.47-2.13 0-1.54.47-2.73 1.54-3.56 1.07-.83 2.37-1.3 4.27-1.3.83 0 1.78.12 2.49.36.51.17 1.15.34 1.78.56.39.13.59.57.43.95l-.64 1.53c-.15.35-.55.52-.9.39-.64-.23-1.16-.41-1.61-.59-.59-.12-1.19-.24-1.78-.24-.71 0-1.19.12-1.54.47-.36.36-.59.71-.59 1.19 0 .36.12.59.24.83s.36.47.71.71 1.07.59 2.25 1.19c1.54.71 2.73 1.54 3.32 2.25.7.81 1.06 1.64 1.06 2.83z"/><path d="M18.35 39.5c-4.86 0-7.9-4.62-7.9-9.08V19.31c0-4.45 3.94-8.06 8.81-8.06h25.2" class="st3"/><path fill="none" stroke="#444" stroke-linecap="round" stroke-linejoin="round" stroke-miterlimit="10" stroke-width="2.5" d="M48.87 31.88V18.91c0-2.7-1.2-5.31-3.39-6.89-1.72-1.23-4.31-2.19-8.19-2.19h0c-1.32-2.93-3.92-3.67-7.6-3.67H10.18c-4.86 0-8.81 3.61-8.81 8.06v11.11c0 3.11 1.46 6.23 4.29 7.58l-.9 4.89c-.45 1.61 1.29 2.44 2.32 1.48l3.67-3.34s2.77 3.67 6.82 3.73c6.04.1 10.07 0 10.07 0l6.66 4.63c2.7 2.16 4.8 1.02 5.05-1.52l.47-3.04h3.42"/><path d="M5.46 36.32s-.84 3.67 2.77 1.86" class="st3"/></svg>