<svg xmlns="http://www.w3.org/2000/svg" id="Camada_3" x="0" y="0" version="1.1" viewBox="0 0 50 50" xml:space="preserve"><style>.st2{stroke-width:2.5}.st2,.st3{fill:none;stroke:#444;stroke-linecap:round;stroke-linejoin:round;stroke-miterlimit:10}</style><path fill="#4ecdc4" d="M36.05 4.59l7.27 5.48 1.92 6.7-43.05 15.7.89-13.62L8.85 8.69l13.77-6.3z"/><path fill="#46b8b0" d="M47.4 20.8l.49 8.79-38.13 13.7-2.62-2.47-2.92-5.23-2.14-7.94 41.74-16.04 2.14 4.16z"/><path d="M6.74 11.64c-7.7 10.24-5.65 24.77 4.6 32.46 7.48 5.63 17.25 6.05 24.98 1.85.17-.09.35-.19.52-.29" class="st2"/><path d="M6.61 11.8c2.01-2.95 4.68-4.68 4.68-4.68l.65-.53C19.93.97 30.96.83 39.2 7.04c9.14 6.87 11.76 19.18 6.74 29.03l.04-.07" class="st2"/><path d="M24.29 26.49h1.5c.47 0 1.21.3 1.5.75h1.5c.7 0 1.5.66 1.5 1.5h1.5c.7 0 1.5.66 1.5 1.5v7.49c0 1.51-1.5 2.73-1.5 3.74v.75m-7.5-11.24v-9.73c0-.83-.67-1.5-1.5-1.5s-1.5.67-1.5 1.5v11.23l-1 .96-1.96-3.03c-1.2-1.65-3.03-.72-3.03 0 0 0 2.27 6.5 2.6 7.01.52.82 2.64 2.66 2.64 3.3v1.5m6.74-14.98v3.74m3-2.24v2.99" class="st3"/><path d="M33.55 46.99l-.28-4.78H19.05v5.02" class="st3"/><path fill="none" stroke="#444" stroke-linecap="round" stroke-linejoin="round" stroke-miterlimit="10" stroke-width=".5" d="M21.29 21.25s-4.1-1.79-4.1-4.97c0-3.81 5.29-5.29 9.53 1.06s8.17 2.1 8.47 0c.53-3.71-4.76-6.88-8.47-7.41m-5.43 35.78h1.5m-3.33-1.47h13.81"/></svg>