<svg xmlns="http://www.w3.org/2000/svg" viewBox="0 0 50 50"><path fill="#fdcf72" d="M30.52 1.68c-1.09-.14-2.2-.22-3.32-.22s-2.23.08-3.32.22C12.73 3.11 4.69 10.21 4.69 21.43L41.84 8.21c-3.7-3.1-6.29-5.88-11.32-6.53z"/><path fill="#fcc34f" d="M42.96 11.11l-1.12-2.9L4.69 21.43l3.05 5.68c-.31 1.6 2.34 2.12 1.52 3.59-2.67 4.82-3.2 4.95 2.97 7.19.34.12.15 5.05.39 5.33l4.11 1.93 26.72-9.51-3.37-4.44c.31-1.6 1.74-2.77 2.38-4.33 1.38-3.36 4.76-9.47.5-15.76z"/><path fill="none" stroke="#444" stroke-linecap="round" stroke-linejoin="round" stroke-miterlimit="10" d="M36.52 30.71L24.83 36.1v.9l5.4 3.6 11.69-5.4v-.9zm0 10.2V37.9m-23.38 0v4.5l11.69 5.39 4.5-2.07m1.52-22.66l10.17 4.95v.9l-4.5 1.8-5.98-3.01m-11.45-4.84L8.73 28.01v.9l4.5 1.8 6.64-3.47M24.83 37v10.79M13.14 30.71l11.69 5.39v.9l-5.39 3.6-11.69-5.4v-.9z"/><path fill="none" stroke="#444" stroke-linecap="round" stroke-linejoin="round" stroke-miterlimit="10" stroke-width=".25" d="M29.33 29.81c0-11.12 3.62-15.37 6.31-17.08 2.7-1.71 7.13-.91 7.13 1.76s-2.84 3.28-4.57 2M21.23 30.71c0-10.16-3.52-13.36-6.29-14.73-2.7-1.32-6.49-.23-7.11 2.46-.51 2.24 2.25 3.92 3.57 1.64m11.18-5.11l-1.8 1.8m6.3-6.3l-1.8 1.8m0 2.7l1.8 1.8m-6.3-6.3l1.8 1.8m2.25 6.75v1.79m0 1.8v1.8m-.9-2.7h-1.8m5.4 0h-1.8M14.94 7.51v1.8m0 1.8v1.8m-.9-2.7h-1.8m5.4 0h-1.8m7.21-5.63v1.36m0 1.36v1.35m-.68-2.03h-1.36m4.08 0h-1.36m6.81-1.8v1.8m0 1.79v1.8m-.89-2.7h-1.8m5.39 0h-1.8m-2.11 8.1c1.61-2.7 3.82-4.5 6.29-5.4"/><path fill="none" stroke="#444" stroke-linecap="round" stroke-linejoin="round" stroke-miterlimit="10" stroke-width="2.5" d="M37.26 41.36l.05-3.1 5.26-2.61.06-1.82-4.42-2.86 3.71-1.61v-1.34h0c1.96-2.55 3.09-6.42 3.09-9.65 0-9.12-9.03-16.51-20.16-16.51-11.14 0-20.16 7.39-20.16 16.51 0 3.21 1.12 7.06 3.06 9.6h0v1.28l3.82 1.51-4.49 2.7v2.67l5.38 2.19-.04 4.52 12.25 5.69 4.65-2.11"/></svg>