<?xml version="1.0" encoding="utf-8"?>
<!-- Generator: Adobe Illustrator 26.5.0, SVG Export Plug-In . SVG Version: 6.00 Build 0)  -->
<svg version="1.1" id="Camada_3" xmlns="http://www.w3.org/2000/svg" xmlns:xlink="http://www.w3.org/1999/xlink" x="0px" y="0px"
	 viewBox="0 0 50 50" style="enable-background:new 0 0 50 50;" xml:space="preserve">
<style type="text/css">
	.st0{fill:#B9D7D9;}
	.st1{fill:#A6C1C2;}
	.st2{fill:none;stroke:#444444;stroke-width:2.5;stroke-linecap:round;stroke-linejoin:round;stroke-miterlimit:10;}
	.st3{fill:none;stroke:#424242;stroke-linecap:round;stroke-linejoin:round;stroke-miterlimit:10;}
	.st4{fill:none;stroke:#424242;stroke-width:1.5;stroke-linecap:round;stroke-linejoin:round;stroke-miterlimit:10;}
	.st5{fill:none;stroke:#424242;stroke-miterlimit:10;}
	.st6{fill:#424242;}
</style>
<g>
	<g>
		<polygon class="st0" points="47.38,9.13 47.95,14.82 1.57,28.74 1.65,22.36 1.65,19.48 1.65,2.34 47.95,2.63 		"/>
		<polygon class="st1" points="47.38,24.2 47.38,38.72 23.27,47.75 1.32,47.97 1.65,32.28 1.65,28.36 47.5,12.73 		"/>
	</g>
	<polyline class="st2" points="37.68,48.66 17.32,48.66 1.65,48.66 1.65,3.34 47.38,3.34 47.38,38.72 	"/>
</g>
<g>
	<path class="st3" d="M21.5,43.07c0,0,0-0.32,0-0.93c0-0.62-2.04-2.39-2.54-3.17c-0.31-0.49-2.5-6.74-2.5-6.74
		c0-0.7,1.76-1.59,2.91,0l1.88,2.91l0.96-0.92V24.14c0-0.79,0.64-1.44,1.44-1.44l0,0c0.79,0,1.44,0.64,1.44,1.44v8.64v-0.72v-3.6
		h1.44c0.45,0,1.16,0.29,1.44,0.72h1.44c0.67,0,1.44,0.63,1.44,1.44h1.44c0.67,0,1.44,0.63,1.44,1.44v7.2c0,1.46-1.44,2.63-1.44,3.6
		c0,0.97,0,0.11,0,0.11"/>
	<line class="st3" x1="27.97" y1="29.18" x2="27.97" y2="32.78"/>
	<line class="st3" x1="30.85" y1="30.62" x2="30.85" y2="33.5"/>
	<polyline class="st3" points="20.06,44.46 20.06,45.15 20.06,48.56 	"/>
	<path class="st4" d="M19.92,25.43c-0.37-0.64-0.59-1.38-0.59-2.17c0-2.38,1.93-4.32,4.32-4.32c2.38,0,4.32,1.93,4.32,4.32
		c0,0.82-0.23,1.59-0.63,2.24"/>
	<path class="st3" d="M20.06,44.32c0,0-0.06-0.96,1.44-0.98c1.5-0.03,10.79,0,10.79,0s1.44-0.14,1.44,1.13v4.1"/>
	<path class="st4" d="M17.43,26.37c-0.62-1.06-0.98-2.3-0.98-3.62c0-3.97,3.22-7.2,7.2-7.2c3.97,0,7.2,3.22,7.2,7.2
		c0,1.37-0.38,2.65-1.05,3.74"/>
</g>
<line class="st5" x1="2.76" y1="11.35" x2="46.76" y2="11.35"/>
<g>
	<circle class="st6" cx="6.2" cy="7.93" r="1.36"/>
	<circle class="st6" cx="10.65" cy="7.93" r="1.36"/>
	<circle class="st6" cx="15.1" cy="7.93" r="1.36"/>
</g>
<g>
	<circle class="st6" cx="31.67" cy="45.67" r="0.83"/>
</g>
</svg>
