<svg xmlns="http://www.w3.org/2000/svg" version="1" viewBox="0 0 50 50"><path fill="#FCC34F" d="M47.108 18.812v15.729L18.578 44.93a3.396 3.396 0 01-1.525-2.834v-7.529H6.277a3.386 3.386 0 01-3.385-3.385V7.907a3.386 3.386 0 013.385-3.385h23.284a3.386 3.386 0 013.385 3.385v7.529h10.776a3.378 3.378 0 013.386 3.376z"/><path fill="#FDCF72" d="M32.903 7.416L2.892 18.347V7.907a3.386 3.386 0 013.385-3.385h23.284a3.37 3.37 0 013.342 2.894z"/><g fill="#031326"><path d="M43.722 14.182h-9.528V7.903a4.638 4.638 0 00-4.633-4.632H6.278a4.637 4.637 0 00-4.632 4.632v23.283a4.638 4.638 0 004.632 4.633h9.529v6.278a4.638 4.638 0 004.632 4.633h14.17a1.25 1.25 0 000-2.5h-14.17a2.135 2.135 0 01-2.132-2.133l-.005-8.028h10.555c.026 0 .049-.007.075-.008l-.801 4.917h2.412l.81-4.97h1.955l-.818 4.97h2.412l.818-4.97h3.135v-2.222h-2.774l.534-3.196h3.161v-2.223h-2.8l.836-5.039H35.4l-.836 5.039h-1.947l.819-5.039h-.976V16.68l11.262.001c1.176 0 2.133.957 2.133 2.132V34.54a1.25 1.25 0 002.5 0V18.814a4.639 4.639 0 00-4.633-4.632zM6.278 33.318a2.135 2.135 0 01-2.132-2.133V7.903c0-1.176.957-2.132 2.132-2.132h23.283c1.176 0 2.133.957 2.133 2.132l.017 22.563a2.856 2.856 0 01-2.853 2.853H6.278zm27.926-4.729l-.534 3.196h-1.468a3.57 3.57 0 00.258-1.319v-1.877h1.744z"/><path d="M24.842 26.843v.505h1.761v-1.761h-1.761v.506c-3.612 0-5.338-3.518-7.165-7.242-1.317-2.685-2.671-5.429-4.819-6.712H18.4c.123.182.321.31.558.31a.684.684 0 100-1.368.672.672 0 00-.557.309h-8.262v-.505H8.378v1.761h1.761v-.506c3.409 0 5.087 3.421 6.865 7.042 1.359 2.77 2.756 5.603 5.02 6.912h-5.442a.673.673 0 00-.558-.31.684.684 0 100 1.369.672.672 0 00.557-.309h8.261z"/></g></svg>