<svg xmlns="http://www.w3.org/2000/svg" id="Layer_1" x="0" y="0" version="1.1" viewBox="0 0 50 50" xml:space="preserve"><style>.st2{fill:#444}.st3{fill:none;stroke:#444;stroke-width:.25;stroke-miterlimit:10}</style><path fill="#afe55d" d="M46.13 32.79l2.72 6.76-14.3 5.33-21.88 1.44-5.55-4.01 34.45-9.52z"/><path fill="#c3ff68" d="M31.93 32.79l-2.11-13.52-27.37 9.92 2.14 7.75 3.26 6.25 1.56 2.27L44.8 32.59z"/><path d="M23.93 14.02a4.232 4.232 0 01-2.63-6.88c.92-1.13 2.42-1.71 3.86-1.47 3.27.53 4.71 4.31 2.63 6.88a4.188 4.188 0 01-3.86 1.47zm2.14-6.1a2.451 2.451 0 00-3.94 1.5c-.16.87.19 1.79.89 2.33 1.48 1.15 3.6.34 3.94-1.5.16-.86-.2-1.79-.89-2.33z" class="st2"/><path d="M27.07 6.77c-.11.25-.41.37-.67.25l-1-.45a.502.502 0 01-.25-.67l1.31-2.92c.11-.25.41-.37.67-.25l1 .45c.25.11.37.41.25.67l-1.31 2.92zm-6.04 13.69c-.11.25-.41.37-.67.25l-1-.45a.502.502 0 01-.25-.67l1.31-2.92c.11-.25.41-.37.67-.25l1 .45c.25.11.37.41.25.67l-1.31 2.92zm-10.52 4.62l.08-3.62 10.96-10.15 1.63 1.57zm12 5.38l2.64-2.47.28-14.94-2.25-.17z" class="st2"/><path d="M20.02 11.2h1.4v14.73h-1.4z" class="st2" transform="rotate(-65.864 20.725 18.57)"/><path d="M46.32 32.04a.815.815 0 00-.73-.4l-12.57.47c-.4.01-.76-.25-.84-.64-.92-4.16-1.41-8.79-1.67-12.95a.809.809 0 00-.8-.76h-.02a.824.824 0 00-.85.87c.25 4.04.72 8.53 1.58 12.62.1.5-.26.97-.77.99l-11.94.44c-.36.01-.65.25-.75.57-.12.31-.05.68.21.92 2.13 1.93 3.01 4.45 2.42 6.9-.52 2.15-2.12 3.88-4.08 4.41-.26.07-.52.11-.78.14l-.35.01h-.01c-1.86.07-3.81-.84-5.58-2.69-6.39-6.64-6.51-28.3-6.42-34.3a.83.83 0 01.79-.81l14.4-.53c.44-.02.78-.37.79-.81v-.02a.829.829 0 00-.85-.84l-15.96.59c-.44.02-.79.36-.8.8C.69 8.2-.3 35.9 7.59 44.1c1.7 1.76 3.34 2.62 4.76 2.99.87.22 1.65.25 2.32.2l27.65-1.02v.01c2.89-.12 5.45-2.08 6.5-4.99 1.18-3.23.24-6.67-2.5-9.25zm.94 8.68c-.82 2.26-2.77 3.78-4.97 3.89-.01 0-.02-.01-.03 0l-23.41.87a7.887 7.887 0 002.36-4.01c.6-2.51-.02-5.05-1.68-7.17l12-.44c.11.02.23.02.35-.01h.01l13.36-.49c2.18 2.06 2.94 4.8 2.01 7.36z" class="st2"/><circle cx="15.3" cy="20.28" r="9.7" class="st3"/><circle cx="12" cy="26.47" r="6.6" class="st3"/><path d="M28.96 32.79c0-4.77-3.87-8.64-8.64-8.64s-8.64 3.87-8.64 8.64 3.87 8.64 8.64 8.64" class="st3"/></svg>