<svg xmlns="http://www.w3.org/2000/svg" version="1.0" viewBox="0 0 50 50"><path fill="#71BAC0" d="M47.566 6.353l-1.791-1.791c0-.007-.007-.021-.014-.021-.344-.337-.899-.428-1.531-.154L4.005 21.067c-1.039.429-1.882 1.622-1.882 2.655l-.014 18.992c0 .042 0 .077.007.119l45.773-16.66v-18.9c0-.393-.12-.709-.323-.92z"/><path fill="#7ED0D6" d="M47.566 6.353l-1.791-1.791c0-.007-.007-.021-.014-.021-.344-.337-.899-.428-1.531-.154L4.005 21.067c-1.039.429-1.882 1.622-1.882 2.655v4.172l45.766-16.66V7.273c0-.393-.12-.709-.323-.92z"/><g fill="#031326"><path d="M41.216 9.972L8.894 23.377a.124.124 0 00-.077.115v18.786c0 .042.021.082.056.104a.124.124 0 00.117.011l32.322-13.405a.123.123 0 00.077-.115V10.087a.124.124 0 00-.056-.104.122.122 0 00-.117-.011zm-.077 18.818L9.067 42.09V23.575l32.072-13.301V28.79zM6.961 30.833a.425.425 0 00-.181.03.605.605 0 00-.357.52v4.986c0 .118.048.216.132.271a.294.294 0 00.164.048c.05 0 .103-.01.155-.035a.6.6 0 00.37-.521v-4.987a.305.305 0 00-.128-.26.305.305 0 00-.155-.052zm37.985-13.276a1.03 1.03 0 00-.564-.03c-.094.018-.188.033-.286.074a2.052 2.052 0 00-.5.31l-.017.01c-.104.087-.187.195-.274.298-.046.055-.104.099-.145.158-.059.084-.093.178-.14.267s-.107.175-.14.267a1.673 1.673 0 00-.102.558c0 .358.138.646.388.812a.894.894 0 00.501.143c.084 0 .17-.01.258-.029l.014-.005a1.43 1.43 0 00.253-.082c.559-.232 1.039-.764 1.224-1.358.059-.18.089-.353.089-.512 0-.164-.032-.322-.094-.455a.806.806 0 00-.465-.426zm-1.918 1.913c0-.158.033-.322.092-.484.177-.486.592-.95 1.075-1.154.149-.062.291-.093.42-.093.097 0 .177.033.257.067.027.011.062.008.086.022l.004.005a.582.582 0 01.222.256.848.848 0 01.071.352c0 .133-.025.279-.077.433v.002c-.161.518-.596 1.002-1.082 1.203-.304.129-.593.126-.793-.005-.177-.118-.275-.333-.275-.604z"/><path d="M13.107 35.934v-1.661c0-.035.021-.062.048-.076l1.386-.563a.08.08 0 01.069.007l.803.46c.04.023.061.038.082.075a.087.087 0 01-.014.067l-.837 1.249c-.012.021-.024.025-.041.034l-.055.021v1.112c0 .021.006.041.027.062l.267.268c-.014-.014-.014-.027-.014-.041v-1.386c0-.021.007-.034.021-.048l.803-1.167a.089.089 0 01.117-.027l.817.521-.288-.283-.762-.487c-.028-.02-.076-.013-.103.014l.01.014a.05.05 0 01-.009-.012l-.24-.24-.014-.014-.851-.473c-.02-.014-.048-.014-.075-.007l-1.38.556c-.028.013-.048.048-.048.082v1.62a.08.08 0 00.02.055l.261.268zm2.388-1.76v.002c0-.005-.011-.019-.019-.031.008.012.019.027.019.029zm.158-.315h-.014l.213.206c-.007-.006-.007-.013-.007-.027a.083.083 0 01.014-.069l.837-1.153c.007-.013.02-.02.034-.027l1.386-.556c.02-.014.055-.007.075.007l-.267-.274c-.021-.021-.055-.028-.089-.014l-1.105.446v.137a.072.072 0 01-.02.048l-.988 1.249a.092.092 0 01-.069.027zm-.872-.542c-.014-.014-.021-.035-.021-.062v-1.379c0-.034.021-.061.055-.075l1.668-.679-.24-.24a.083.083 0 00-.096-.021l-1.619.645c-.028.013-.048.048-.048.082v1.386c0 .028.006.048.02.062l.281.281z"/><path d="M16.05 33.997l.728.481 1.283-.515v-1.524l-1.242.501zm-1.118-.782l.7.446.926-1.16V31.28l-1.626.658zm-.371.597l-1.283.521v1.544l1.235-.501.775-1.152zM15 35.589v1.235l1.455-.59v-1.269l-.706-.453zm16.621-8.077l.968-.357v-.94l-.968.357z"/><path d="M30.749 28.282c.185.178.439.275.727.275.192 0 .405-.048.618-.137.878-.364 1.592-1.372 1.592-2.258.001-.372-.116-.674-.343-.873l-.426-.432c-.309-.329-.823-.384-1.365-.158-.878.364-1.592 1.379-1.592 2.265 0 .336.096.618.281.817l.508.501zm.529-1.943l1.654-.618v1.675l-1.654.611v-1.668zm6.958-1.414c.35-.137.652-.542.652-.892 0-.13-.048-.24-.137-.302a.338.338 0 00-.192-.055.616.616 0 00-.206.041c-.35.13-.652.542-.652.885 0 .137.048.247.137.302.096.069.241.076.398.021z"/><path d="M36.473 25.269s.467.487.487.487c.172.144.426.24.672.24.199 0 .412-.048.631-.137.885-.364 1.599-1.379 1.599-2.258.001-.357-.116-.659-.329-.858l-.439-.439c-.316-.329-.823-.391-1.365-.165-.885.364-1.606 1.379-1.606 2.258 0 .364.123.673.35.872zm1.763-1.874c.261-.096.522-.075.714.055.179.123.281.336.281.583 0 .494-.384 1.029-.878 1.208a.932.932 0 01-.323.062.683.683 0 01-.391-.11.702.702 0 01-.281-.59c0-.494.384-1.022.878-1.208zm-1.523 3.719l-.439-.439c-.309-.336-.817-.398-1.365-.165-.879.357-1.599 1.372-1.599 2.258 0 .371.123.679.343.872l.466.467a1 1 0 00.7.254c.192 0 .405-.041.624-.13.885-.364 1.599-1.379 1.599-2.265 0-.351-.11-.639-.315-.838l-.014-.014zm-.357 1.846l-.185.295-.57-.364-.618.844-.274-.199.597-.823-.549-.35.179-.288.576.357.611-.844.281.206-.604.823.556.343zm-1.311-7.02l-.48.995.954-.357z"/><path d="M33.679 23.895a.992.992 0 00.734.295c.192 0 .412-.048.625-.137.885-.364 1.606-1.379 1.606-2.265 0-.322-.089-.582-.274-.781l-.089-.089v-.007l-.412-.412c-.309-.329-.824-.391-1.366-.165-.878.357-1.592 1.372-1.592 2.258 0 .336.103.624.295.83l.473.473zm1.298-2.614l1.098 1.462-2.189.816 1.091-2.278zm-24.652.109a.124.124 0 00-.163-.067l-3.205 1.329c-1.039.428-1.884 1.626-1.884 2.67v2.265c0 .069.056.125.125.125a.127.127 0 00.126-.125v-2.265c0-.952.775-2.046 1.729-2.439l3.205-1.33a.124.124 0 00.067-.163zm2.481 16.021c.374.251.83.376 1.33.376a3.75 3.75 0 001.428-.306c2.017-.837 3.659-3.167 3.659-5.193 0-.951-.357-1.712-1.006-2.146-.712-.475-1.713-.499-2.749-.069-2.022.836-3.667 3.166-3.667 5.193 0 .951.357 1.712 1.005 2.145zm2.757-7.107a3.51 3.51 0 011.327-.286c.448 0 .855.111 1.188.333.577.386.895 1.074.895 1.938 0 1.935-1.572 4.16-3.505 4.963-.961.398-1.881.381-2.522-.047-.577-.386-.895-1.075-.895-1.938 0-1.936 1.575-4.161 3.512-4.963z"/><path d="M48.453 5.47c-.833-.839-1.315-1.323-1.633-1.603l.016-.016c-.798-.798-2.115-1.032-3.189-.578L3.526 19.914c-1.512.622-2.652 2.261-2.652 3.81L.858 42.562c0 .824.293 1.535.863 2.105 0 0 1.667 1.69 1.725 1.746.372.339.847.545 1.368.595a2.964 2.964 0 001.459-.207l13.896-5.764a1.25 1.25 0 10-.958-2.309L5.547 44.396a1.113 1.113 0 01-.207-.668v-3.961a.125.125 0 00-.25 0v3.961c0 .302.091.551.228.762a.523.523 0 01-.227.032l-1.595-1.616c-.083-.083-.137-.152-.137-.343l.016-18.838c0-.482.482-1.243 1.107-1.5L44.615 5.578a.482.482 0 01.453.039l.366.367h.004l.647.648a1.745 1.745 0 00-.872.129l-3.299 1.368a.125.125 0 00-.067.163c.025.064.1.096.163.067l3.249-1.347a.61.61 0 00.053-.02l.031-.012c.477-.181.9-.135 1.191.105l.055.055c.026.082.052.223.052.342v18.796a1.25 1.25 0 002.5 0V7.483c0-.217-.033-1.333-.688-2.013z"/></g></svg>