<svg xmlns="http://www.w3.org/2000/svg" version="1" viewBox="0 0 50 50"><path fill="#afe55d" d="M5.181 44.784c1.395 1.395 2.545 2.064 3.307 2.386.56.236 1.2.085 1.604-.367l3.667-4.094a21.006 21.006 0 006.761 2.793L41.6 37.83c2.76-3.558 4.42-8.012 4.42-12.864 0-4.139-1.213-7.986-3.278-11.239l4.093-3.667a1.41 1.41 0 00.367-1.604c-.321-.762-.991-1.913-2.386-3.307-1.395-1.395-2.545-2.065-3.307-2.386a1.413 1.413 0 00-1.605.367L36.24 7.222A20.9 20.9 0 0025 3.943c-11.61 0-21.022 9.412-21.022 21.022a20.89 20.89 0 003.278 11.24l-4.094 3.667a1.414 1.414 0 00-.367 1.605c.322.762.992 1.912 2.386 3.307z"/><path fill="#c3ff68" d="M44.773 5.118c-1.38-1.374-2.52-2.038-3.276-2.356a1.412 1.412 0 00-1.604.367l-3.667 4.094a20.899 20.899 0 00-11.239-3.279c-9.796 0-18.003 6.71-20.336 15.777L44.773 5.118z"/><path fill="#031326" d="M48.356 7.967c-.352-.831-1.097-2.147-2.654-3.704-1.561-1.562-2.876-2.305-3.704-2.654a2.663 2.663 0 00-3.022.685l-2.977 3.323A22.181 22.181 0 0025 2.693c-12.281 0-22.272 9.991-22.272 22.272 0 3.859 1.008 7.64 2.924 11l-3.324 2.977a2.67 2.67 0 00-.684 3.022c.51 1.207 1.403 2.454 2.654 3.704 1.56 1.56 2.876 2.304 3.704 2.653.333.141.682.208 1.029.208.743 0 1.473-.312 1.994-.893l2.977-3.323a22.17 22.17 0 0010.999 2.924 1.25 1.25 0 000-2.5 19.688 19.688 0 01-10.57-3.084l-.819-.52 1.142-1.23a17.99 17.99 0 007.195 2.921.125.125 0 00.021-.248 17.754 17.754 0 01-7.044-2.859l1.178-1.268a15.898 15.898 0 008.575 2.667h.002a.125.125 0 00.002-.25 15.645 15.645 0 01-8.405-2.604l1.226-1.321a14.07 14.07 0 003.513 1.578.125.125 0 00.155-.086.125.125 0 00-.085-.154 13.876 13.876 0 01-3.408-1.526l1.339-1.442a12 12 0 006.018 1.633c6.603 0 11.974-5.371 11.974-11.974 0-2.115-.571-4.186-1.631-6.017l5.794-5.378.519.818a19.701 19.701 0 013.083 10.57c0 4.43-1.432 8.618-4.141 12.11a1.25 1.25 0 101.975 1.533c3.053-3.936 4.666-8.652 4.666-13.643 0-3.859-1.008-7.639-2.924-10.999l3.323-2.977a2.668 2.668 0 00.682-3.02zm-4.421-1.935c1.056 1.055 1.632 1.927 1.95 2.551-.04.01-.081.012-.114.042L30.175 23.101a1.725 1.725 0 01-.691.377l-1.406.388a3.267 3.267 0 00-1.972-1.976l.383-1.406c.069-.257.2-.498.376-.692L41.418 4.1c.621.32 1.478.893 2.517 1.932zm-29.09 24.719a11.673 11.673 0 01-1.547-5.779c0-6.471 5.265-11.736 11.736-11.736 2.04 0 4.033.544 5.793 1.548l-4.332 4.671c-.23.255-.399.566-.489.898l-.38 1.396a3.303 3.303 0 00-.625-.063 3.28 3.28 0 00-3.28 3.28c0 .214.024.422.063.625l-1.396.38c-.332.091-.642.26-.901.491l-4.642 4.289zm-9.617-5.786c0-10.902 8.87-19.772 19.772-19.772 3.736 0 7.391 1.066 10.57 3.084l.813.515-1.145 1.234a18.15 18.15 0 00-7.085-2.906.125.125 0 10-.043.247 17.89 17.89 0 016.955 2.847l-1.177 1.269a15.953 15.953 0 00-8.613-2.669h-.002a.125.125 0 00-.002.25c3.032.047 5.942.952 8.445 2.605l-1.224 1.32a13.921 13.921 0 00-3.363-1.54c-.063-.017-.137.018-.155.083a.124.124 0 00.083.156c1.147.348 2.241.852 3.261 1.488l-1.315 1.418a11.944 11.944 0 00-5.969-1.608c-6.609 0-11.986 5.377-11.986 11.986 0 2.094.563 4.144 1.607 5.954l-5.843 5.398-.5-.788a19.694 19.694 0 01-3.084-10.571zM6.065 43.9c-1.078-1.077-1.657-1.965-1.97-2.591.033-.011.069-.01.096-.036l15.631-14.441c.199-.178.439-.309.697-.379l1.405-.383a3.271 3.271 0 001.976 1.973l-.388 1.406c-.07.255-.201.494-.374.688L8.581 45.817c-.003.003-.001.008-.004.011-.621-.321-1.478-.894-2.512-1.928zm30.692-18.928c0 6.465-5.259 11.724-11.724 11.724-2.053 0-4.062-.553-5.842-1.572l4.317-4.65a2.24 2.24 0 00.487-.892l.385-1.399c.201.039.407.062.62.062a3.28 3.28 0 003.28-3.28c0-.212-.024-.419-.062-.62l1.398-.385c.33-.091.639-.26.896-.49l4.674-4.338a11.757 11.757 0 011.571 5.84z"/></svg>