<svg xmlns="http://www.w3.org/2000/svg" id="Layer_1" x="0" y="0" version="1.1" viewBox="0 0 50 50" xml:space="preserve"><style>.st3{fill:none;stroke:#494949;stroke-linecap:round;stroke-linejoin:round;stroke-miterlimit:10}</style><path fill="#00c8e2" d="M5 45.4l41.8-15.2V8.6c0-3-2.4-5.4-5.4-5.4H8.6c-3 0-5.4 2.4-5.4 5.4v32.8c0 1.5.7 3 1.8 4z"/><path fill="#00dffc" d="M45 4.6c-1-.9-2.3-1.4-3.6-1.4H8.6c-3 0-5.4 2.4-5.4 5.4v11.3C3.2 19.8 45 4.6 45 4.6z"/><path fill="#444" d="M25 48.1H8.5c-3.6 0-6.6-3-6.6-6.6v-33c0-3.6 2.9-6.6 6.6-6.6h33.1c3.6 0 6.6 2.9 6.6 6.6v21.7c0 .6-.5 1.2-1.2 1.2s-1.2-.5-1.2-1.2V8.5c0-2.3-1.9-4.2-4.2-4.2H8.5c-2.3 0-4.2 1.9-4.2 4.2v33.1c0 2.3 1.9 4.2 4.2 4.2H25c.6 0 1.2.5 1.2 1.1s-.5 1.2-1.2 1.2c.1 0 0 0 0 0z"/><g id="workplace_2_"><path d="M41.1 31.7l-2.6 6.8m2.1-12l-5.7-7.8" class="st3"/><circle cx="41.1" cy="29.1" r="2.6" class="st3"/><path d="M43.2 44.2c0-3.2-2.6-5.7-5.7-5.7-3.2 0-5.7 2.6-5.7 5.7m1.6-23.8l2.1-2.4c1.3-1.5 1.1-3.8-.4-5.1-1.5-1.3-3.8-1.1-5.1.4l-2.1 2.5" class="st3"/><path d="M32.4 28.1c1.9-2.3 2.1-5.1 1-7.7-.3-.7-.7-1.4-1.2-2.1m-4.4-2.5c-2.7-.6-5.7.2-7.6 2.5m12.2 9.8l-.5.5c-.2.2-.5.3-.8.3-1.6-.1-4.2-1.2-6.6-3.2-2.3-2-4-4.2-4.4-5.7-.1-.4-.1-.8 0-1.2l.2-.5" class="st3"/><path d="M20.2 18.2c1.1-.2 4.1.9 7.1 3.3 3.1 2.6 4.4 5.2 5 6.5" class="st3"/><path d="M25.7 20.3c-.7 1.1-.5 2.5.5 3.4 1 .8 2.4.8 3.4 0m14.6 20.5H30.7m3-12.8l-5.9 11.4c-.4.9-1.3 1.4-2.3 1.4H12m5.2-16.1h5.2" class="st3"/><path d="M16.1 31.2h10.4l-5.2 9.9H13m15.6-6.2h-1M26.5 39h-1m2.1-2.1h-1.1" class="st3"/></g></svg>