<svg xmlns="http://www.w3.org/2000/svg" id="Layer_1" x="0" y="0" version="1.1" viewBox="0 0 50 50" xml:space="preserve"><style>.st2{fill:#031326}</style><path fill="#a475ef" d="M47.6 26.3l.4 4.3L1.9 47.3l.2-9 .3-5.2 45.9-16.7-.7 3.7z"/><path fill="#bf94f7" d="M47.6 9.7l-.6 7.7L2.1 33.8v-9.7l.3-4.4L47.7 3.2z"/><path d="M32.9 49.4H1.7c-.7 0-1.2-.6-1.2-1.2V1.9c0-.7.6-1.2 1.2-1.2h46.6c.7 0 1.2.6 1.2 1.2v35.9c0 .7-.6 1.2-1.2 1.2s-1.3-.6-1.3-1.3V3.1H2.9v43.8h29.9c.7 0 1.2.6 1.2 1.2s-.4 1.3-1.1 1.3z" class="st2"/><path d="M38.1 23.7c-.3 0-.5-.2-.6-.5-.1-.3 0-.5.2-.7.2-.2.5-.2.8-.1.2.1.4.4.3.7-.1.3-.4.6-.7.6z" class="st2"/><path d="M38.1 23.8c-.3 0-.6-.2-.7-.5-.1-.3 0-.6.2-.8.3-.2.6-.3.9-.1.3.2.4.5.3.8 0 .3-.4.6-.7.6zm0-1.4c-.1 0-.3 0-.4.1-.2.1-.2.4-.2.6.1.2.3.4.5.4.3 0 .5-.2.6-.5 0-.2-.1-.5-.3-.6 0 .1-.1 0-.2 0zm-10.2 2.2c-2.6 0-4.7-2.1-4.7-4.7s2.1-4.7 4.7-4.7 4.7 2.1 4.7 4.7-2.1 4.7-4.7 4.7zm0-8c-1.9 0-3.4 1.5-3.4 3.4s1.5 3.4 3.4 3.4 3.4-1.5 3.4-3.4-1.5-3.4-3.4-3.4z" class="st2"/><path d="M27.9 24.7c-2.6 0-4.8-2.1-4.8-4.8s2.1-4.8 4.8-4.8c2.6 0 4.8 2.1 4.8 4.8s-2.1 4.8-4.8 4.8zm0-9.4c-2.5 0-4.6 2.1-4.6 4.6 0 2.5 2.1 4.6 4.6 4.6 2.5 0 4.6-2.1 4.6-4.6 0-2.5-2.1-4.6-4.6-4.6zm0 8.1c-1.9 0-3.5-1.6-3.5-3.5s1.6-3.5 3.5-3.5 3.5 1.6 3.5 3.5-1.6 3.5-3.5 3.5zm0-6.7c-1.8 0-3.3 1.5-3.3 3.3s1.5 3.3 3.3 3.3 3.3-1.5 3.3-3.3-1.5-3.3-3.3-3.3z" class="st2"/><path d="M37.7 25.5c-.3-.1-.7.1-.8.4-.5 1.4-1.2 2.6-2.3 3.6-.4.4-.7.7-1.1 1v-3c0-1.1-.9-2-2-2h-7.1c-1.1 0-2 .9-2 2v3c-.4-.3-.8-.6-1.1-1-3.7-3.7-3.7-9.7 0-13.4 1.8-1.8 4.2-2.8 6.7-2.8s4.9 1 6.7 2.8c1 1 1.8 2.2 2.3 3.6.1.3.5.5.8.4.3-.1.5-.5.4-.8-.5-1.6-1.4-2.9-2.6-4.1-2-2-4.8-3.2-7.6-3.2-2.9 0-5.6 1.1-7.6 3.2-4.2 4.2-4.2 11.1 0 15.3.7.7 1.5 1.3 2.4 1.8 1.6.9 3.4 1.3 5.2 1.3 1.8 0 3.6-.5 5.2-1.3.9-.5 1.7-1.1 2.4-1.8 1.2-1.2 2-2.5 2.6-4.1 0-.4-.1-.8-.5-.9zm-14 5.8v-3.8c0-.4.3-.7.7-.7h7.1c.4 0 .7.3.7.7v3.8c-2.7 1.3-5.9 1.3-8.5 0z" class="st2"/><path d="M27.9 33.7c-1.9 0-3.7-.5-5.3-1.4-.9-.5-1.7-1.1-2.4-1.8-4.3-4.3-4.2-11.2 0-15.4 2.1-2.1 4.8-3.2 7.7-3.2 2.9 0 5.7 1.1 7.7 3.2 1.2 1.2 2.1 2.6 2.6 4.2.1.2.1.4 0 .6-.1.2-.2.3-.4.4-.2.1-.4.1-.6 0-.2-.1-.3-.2-.4-.4-.5-1.4-1.2-2.6-2.2-3.6-1.8-1.8-4.1-2.7-6.6-2.7s-4.9 1-6.6 2.8c-3.7 3.7-3.7 9.6 0 13.3.3.3.6.6 1 .8v-2.8c0-1.2.9-2.1 2.1-2.1h7.1c1.2 0 2.1.9 2.1 2.1v2.8c.3-.3.7-.5 1-.8 1-1 1.8-2.2 2.2-3.5.1-.4.6-.6 1-.5.2.1.3.2.4.4.1.2.1.4 0 .6-.5 1.6-1.4 2.9-2.6 4.1-.7.7-1.5 1.3-2.4 1.8h-.1c-1.6.6-3.4 1.1-5.3 1.1zm0-21.7c-2.9 0-5.6 1.1-7.6 3.1-4.2 4.2-4.2 11 0 15.2.7.7 1.5 1.3 2.4 1.8 1.6.9 3.4 1.3 5.2 1.3 1.8 0 3.6-.5 5.1-1.3h.1c.9-.5 1.7-1.1 2.4-1.8 1.2-1.2 2-2.5 2.5-4v-.4c0-.1-.2-.2-.3-.3-.3-.1-.6.1-.7.3-.5 1.4-1.2 2.6-2.3 3.6-.4.4-.7.7-1.1 1l-.2.1v-3.2c0-1.1-.9-1.9-1.9-1.9h-7.1c-1.1 0-1.9.9-1.9 1.9v3.2l-.2-.1c-.4-.3-.8-.6-1.2-1-3.7-3.7-3.7-9.8 0-13.6 1.8-1.8 4.2-2.8 6.8-2.8 2.6 0 5 1 6.8 2.8 1 1 1.8 2.3 2.3 3.6 0 .1.2.3.3.3.1.1.3.1.4 0 .1 0 .3-.2.3-.3.1-.1.1-.3 0-.4-.5-1.5-1.4-2.9-2.5-4.1-2-1.8-4.7-3-7.6-3zm0 20.3c-1.5 0-2.9-.3-4.3-1h-.1v-3.9c0-.4.3-.8.8-.8h7.1c.4 0 .8.3.8.8v3.9h-.1c-1.2.7-2.7 1-4.2 1zm-4.1-1.1c2.6 1.3 5.7 1.3 8.3 0v-3.7c0-.3-.3-.6-.6-.6h-7.1c-.3 0-.6.3-.6.6v3.7z" class="st2"/><path d="M27.9 8.7c-7.7 0-14 6.3-14 14 0 3 1 5.9 2.6 8.2l-1.3 1.3-.3-.3c-.1-.1-.3-.2-.5-.2s-.3.1-.5.2L12 33.8 8.9 37c-1.3 1.3-1.3 3.5 0 4.8.6.6 1.5 1 2.4 1s1.8-.4 2.4-1l3.1-3.1 1.9-1.9c.3-.3.3-.7 0-.9l-.3-.3 1.3-1.3c2.3 1.7 5.1 2.6 8.2 2.6 7.7 0 14-6.3 14-14s-6.3-14.2-14-14.2zM12.8 40.8c-.4.4-.9.6-1.5.6s-1.1-.2-1.5-.6c-.8-.8-.8-2.1.1-2.9l2.7-2.7 1.5 1.5 1.5 1.5-2.8 2.6zm3.6-3.6l-1.5-1.5-1.5-1.5 1-1 2.9 2.9-.9 1.1zm1.1-2.7l-.7-.7-.7-.7 1.2-1.2c.4.5.9.9 1.4 1.4l-1.2 1.2zm10.4 1c-7 0-12.7-5.7-12.7-12.7 0-7 5.7-12.7 12.7-12.7s12.7 5.7 12.7 12.7-5.7 12.7-12.7 12.7z" class="st2"/><path d="M11.3 42.9c-.9 0-1.8-.4-2.5-1-.7-.7-1-1.5-1-2.5s.4-1.8 1-2.5l5.1-5.1c.3-.3.8-.3 1.1 0l.2.2 1.1-1.1c-1.7-2.4-2.6-5.2-2.6-8.2 0-7.8 6.3-14.1 14.1-14.1C35.7 8.6 42 15 42 22.8s-6.3 14.1-14.1 14.1c-2.9 0-5.8-.9-8.1-2.6l-1.1 1.1.2.2c.1.1.2.3.2.5s-.1.4-.2.5l-5.1 5.1c-.7.8-1.5 1.2-2.5 1.2zm3.2-11.1c-.2 0-.3.1-.4.2L9 37a3.32 3.32 0 000 4.7c.6.6 1.5 1 2.3 1s1.7-.3 2.3-1l5.1-5.1c.1-.1.2-.2.2-.4s-.1-.3-.2-.4l-.4-.4 1.4-1.4h.1c2.4 1.7 5.2 2.6 8.1 2.6 7.7 0 13.9-6.2 13.9-13.9S35.6 8.8 27.9 8.8 14 15.1 14 22.8c0 2.9.9 5.7 2.6 8.1v.1l-1.4 1.4-.3-.4c-.1-.2-.3-.2-.4-.2zm-3.2 9.7c-.6 0-1.1-.2-1.5-.6-.4-.4-.6-1-.6-1.5 0-.6.2-1.1.6-1.5l2.7-2.7 3.1 3.1-.1.1-2.7 2.7c-.4.2-.9.4-1.5.4zm1.2-6.1L9.9 38c-.4.4-.6.9-.6 1.4 0 .5.2 1 .6 1.4.4.4.9.6 1.4.6s1-.2 1.4-.6l2.6-2.6-2.8-2.8zm3.9 2l-3.1-3.1 1.1-1.1.1.1 3 3-1.1 1.1zm-2.8-3.1l2.8 2.8.9-.9-2.8-2.8-.9.9zm14.3 1.3c-7.1 0-12.8-5.7-12.8-12.8 0-7.1 5.7-12.8 12.8-12.8 7.1 0 12.8 5.7 12.8 12.8 0 7-5.7 12.8-12.8 12.8zm0-25.4c-6.9 0-12.6 5.6-12.6 12.6 0 6.9 5.6 12.6 12.6 12.6 6.9 0 12.6-5.6 12.6-12.6s-5.6-12.6-12.6-12.6zM17.5 34.6L16 33.1l1.3-1.3.1.1c.4.5.9.9 1.3 1.3l.1.1-1.3 1.3zm-1.2-1.5l1.2 1.2 1-1-1.2-1.2-1 1z" class="st2"/></svg>