<svg xmlns="http://www.w3.org/2000/svg" xmlns:xlink="http://www.w3.org/1999/xlink" viewBox="0 0 49 50"><defs><path id="a" d="M.25.761h45.74v39.977H.25z"/><path id="c" d="M0 .761h48.239V49H0z"/></defs><g fill="none" fill-rule="evenodd"><g transform="translate(1 .239)"><mask id="b" fill="#fff"><use xlink:href="#a"/></mask><path fill="#00C8E2" d="M7.95 40.738L45.742 26.98a23.16 23.16 0 00.247-3.349C45.99 11.001 35.75.761 23.12.761 10.49.76.25 11 .25 23.63c0 6.807 2.978 12.917 7.7 17.107" mask="url(#b)"/></g><path fill="#00DFFC" d="M36.865 4.835a22.761 22.761 0 00-12.61-3.793c-10.37 0-19.12 6.903-21.925 16.362l34.535-12.57z"/><g transform="translate(0 .239)"><mask id="d" fill="#fff"><use xlink:href="#c"/></mask><path fill="#031326" d="M13.288 40.766c.777-.776 1.769-1.383 2.818-2.023 1.769-1.082 3.75-2.315 4.978-4.623 1.057.55 2.105.864 3.036.864.93 0 1.977-.312 3.034-.863 1.234 2.31 3.216 3.542 4.986 4.624 1.049.642 2.04 1.248 2.818 2.022.643.644 1.075 1.332 1.307 2.055-.064.027-.133.039-.193.078a21.524 21.524 0 01-11.951 3.6 21.496 21.496 0 01-12.126-3.73c.237-.7.661-1.372 1.293-2.004m2.323-17.992c0-5.905 3.816-10.71 8.508-10.71 4.692 0 8.508 4.805 8.508 10.71 0 5.704-5.303 10.709-8.508 10.709-3.205 0-8.508-5.006-8.508-10.71M24.12.762C10.82.76 0 11.58 0 24.88S10.82 49 24.12 49c4.769 0 9.38-1.39 13.335-4.02.469-.311.641-.881.487-1.394 0-.008.004-.018.003-.027-.125-1.404-.774-2.701-1.928-3.854-.905-.901-2.019-1.582-3.095-2.24-1.703-1.041-3.453-2.126-4.491-4.132 2.98-2.113 5.697-6.046 5.697-10.56 0-6.731-4.49-12.208-10.008-12.208-5.518 0-10.009 5.476-10.009 12.209 0 4.513 2.715 8.444 5.695 10.558-1.032 2.004-2.781 3.089-4.483 4.13-1.078.659-2.192 1.34-3.096 2.244a6.894 6.894 0 00-1.477 2.145C5.731 37.889 2.5 31.757 2.5 24.88c0-11.921 9.699-21.62 21.62-21.62 11.921 0 21.619 9.699 21.619 21.62 0 1.062-.078 2.127-.23 3.168a1.25 1.25 0 002.471.372l.002-.01c.17-1.16.257-2.348.257-3.53 0-13.3-10.82-24.12-24.119-24.12" mask="url(#d)"/></g></g></svg>