<svg xmlns="http://www.w3.org/2000/svg" id="Camada_1" x="0" y="0" version="1.1" viewBox="0 0 50 50" xml:space="preserve"><style>.st3{fill:#031326}</style><path fill="#a475ef" d="M44.8 26.5l.3 3.9L4.2 46.7l.4-8.1.5-4.7 40.7-16.2L45 21z"/><path fill="#bf94f7" d="M45.3 11.7l-.8 6.9-39.8 16 .3-8.8.4-4 40.2-16z"/><path fill="none" stroke="#031326" stroke-linecap="round" stroke-linejoin="round" stroke-miterlimit="10" stroke-width="2.5" d="M30.8 47.5H4.4v-45h41.3v34.9"/><path d="M36.5 28c-.2 0-.3-.1-.4-.2-.3-.2-.4-.7-.2-1l1.2-1.8-1.1-1.8c-.2-.3-.2-.8.2-1 .3-.2.8-.2 1 .2l1.4 2.2c.2.2.2.6 0 .8l-1.4 2.2c-.2.3-.5.4-.7.4zm-23.1 0c-.2 0-.5-.1-.6-.3l-1.4-2.2c-.2-.2-.2-.6 0-.8l1.4-2.2c.2-.3.7-.4 1-.2.3.2.4.7.2 1L12.9 25l1.2 1.8c.2.3.2.8-.2 1-.2.2-.4.2-.5.2zM30 37.1H19.9c-1.9 0-3.3-1.5-3.3-3.3V16.5c0-1.9 1.5-3.3 3.3-3.3H30c1.9 0 3.3 1.5 3.3 3.3v17.3c.1 1.8-1.4 3.3-3.3 3.3zM19.9 15c-.8 0-1.5.7-1.5 1.5v17.3c0 .8.7 1.5 1.5 1.5H30c.8 0 1.5-.7 1.5-1.5V16.5c0-.8-.7-1.5-1.5-1.5H19.9z" class="st3"/><circle cx="25" cy="32.1" r="1.3" class="st3"/></svg>