<svg xmlns="http://www.w3.org/2000/svg" id="Layer_1" x="0" y="0" version="1.1" viewBox="0 0 50 50" xml:space="preserve"><style>.st3{fill:#031326;stroke:#031326;stroke-width:.2;stroke-miterlimit:10}</style><path fill="#e589ef" d="M48.2 26.5l.5 4.3-47 16.8.1-9.1.4-5.2L49 16.6l-.8 3.7z"/><path fill="#f799ff" d="M48.2 9.9l-.5 7.7L1.7 34v-9.7l.4-4.4L48.4 3.3z"/><path fill="none" stroke="#031326" stroke-linecap="round" stroke-linejoin="round" stroke-miterlimit="10" stroke-width="2.5" d="M12.2 47.3H1.8V2h46.4v45.3"/><path d="M28.2 13.9v-3.6H27v3.6c-.7.2-1.2.9-1.2 1.6 0 .8.5 1.4 1.2 1.6v3.6h1.2v-3.6c.7-.2 1.2-.9 1.2-1.6 0-.8-.5-1.4-1.2-1.6zm-.5 2.2c-.3 0-.6-.3-.6-.6s.3-.6.6-.6.6.3.6.6-.3.6-.6.6zm12.2-4.6v-1.3h-1.2v1.3c-.7.2-1.2.9-1.2 1.6 0 .8.5 1.4 1.2 1.6v6h1.2v-6c.7-.2 1.2-.9 1.2-1.6 0-.7-.5-1.3-1.2-1.6zm-.5 2.3c-.3 0-.6-.3-.6-.6s.3-.6.6-.6.6.3.6.6-.3.6-.6.6z" class="st3"/><path d="M41.7 6.7H25.3c-1 0-1.8.8-1.8 1.8v2.9H8.9c-1 0-1.8.8-1.8 1.8v28.1c0 1 .8 1.8 1.8 1.8h31.6v-7.4c1.1-2 1.8-4.2 1.8-6.5v-3.7c.7-.2 1.2-.9 1.2-1.6V8.5c0-1-.8-1.8-1.8-1.8zm-14 25.8h-6.5v-1.2h6.2l.3 1.2zm-.6-4.7H10.7V22h12.9v1.8c0 1 .8 1.8 1.8 1.8h1.8v2.2zM8.9 12.6h14.6v5.8H8.4v-5.3c0-.3.2-.5.5-.5zm-.5 28.6V19.6h15.2v1.2h-14V29h17.6c0 .4 0 .8.1 1.2h-7.1v3.5h8.2c.3.7.7 1.3 1.2 2v6.2H8.9c-.3-.1-.5-.3-.5-.7zm22.2.6V36h8.8v5.8h-8.8zm10.5-12.7c0 2-.5 4-1.5 5.8h-9.3c-1.3-1.7-2.1-3.9-2.1-6.1v-5.6c.6 0 1.2.5 1.2 1.2v3.5c0 1 .8 1.8 1.8 1.8s1.8-.8 1.8-1.8V19c0-.3.3-.6.6-.6s.6.3.6.6v9.4h1.2v-5.8c0-.3.3-.6.6-.6s.6.3.6.6v5.8h1.2v-4.7c0-.3.3-.6.6-.6s.6.3.6.6v4.7h1.2v-3.5c0-.3.3-.6.6-.6s.6.3.6.6v4.2zm-10.5-3.6h1.2v2.3c0 .3-.3.6-.6.6s-.6-.3-.6-.6v-2.3zM32.9 12c0-.3.3-.6.6-.6s.6.3.6.6-.3.6-.6.6-.6-.3-.6-.6zm9.4 11.7c0 .2-.1.3-.2.4-.3-.6-.9-1-1.6-1-.2 0-.5 0-.7.1-.2-.7-.9-1.3-1.7-1.3-.2 0-.5 0-.7.1-.2-.7-.9-1.3-1.7-1.3-.2 0-.4 0-.6.1V19c0-.8-.5-1.4-1.2-1.6v-3.7c.7-.2 1.2-.9 1.2-1.6 0-1-.8-1.8-1.8-1.8s-1.5.7-1.5 1.7c0 .8.5 1.4 1.2 1.6v3.7c-.7.2-1.2.9-1.2 1.6v5.3h-1.2c0-1.3-1-2.3-2.3-2.3-.6 0-1.2.5-1.2 1.2v1.2h-1.8c-.3 0-.6-.3-.6-.6V8.5c0-.3.3-.6.6-.6h16.4c.3 0 .6.3.6.6v15.2z" class="st3"/><path d="M13.6 31.3c-2.3 0-4.1 1.8-4.1 4.1s1.8 4.1 4.1 4.1 4.1-1.8 4.1-4.1-1.8-4.1-4.1-4.1zm2.9 3.5h-2.3v-2.3c1.2.3 2.1 1.2 2.3 2.3zM13 32.5v2.6L11.2 37c-.3-.5-.5-1-.5-1.6 0-1.4 1-2.6 2.3-2.9zm.6 5.8c-.6 0-1.1-.2-1.6-.5l1.9-1.9h2.6c-.3 1.4-1.5 2.4-2.9 2.4zm6.5-3.5h2.3V36h-2.3v-1.2zm3.5 0h4.7V36h-4.7v-1.2zm-3.5 4.7h2.3v1.2h-2.3v-1.2zm3.5 0h4.7v1.2h-4.7v-1.2zm-3.5-2.3h8.2v1.2h-8.2v-1.2zM13 13.8H9.5v3.5H13v-3.5zm-1.1 2.3h-1.2v-1.2h1.2v1.2zm5.8-2.3h-3.5v3.5h3.5v-3.5zm-1.2 2.3h-1.2v-1.2h1.2v1.2zm5.9-2.3h-3.5v3.5h3.5v-3.5zm-1.2 2.3H20v-1.2h1.2v1.2z" class="st3"/></svg>