<svg xmlns="http://www.w3.org/2000/svg" id="Camada_1" x="0" y="0" version="1.1" viewBox="0 0 50 50" xml:space="preserve"><style>.st2{fill:#444}</style><path fill="#71bac0" d="M48.2 25.5v.3L2 47.2l-.3-9.1-.2-2.7L49 14.2l-.7 5.4z"/><path fill="#7ed0d6" d="M48.6 9.8l-.7 5.3L1.7 36.7l.4-12.1-.4-.6c0-7.4 0-14.8.1-22.2 15.5.2 31.1.3 46.7.5 0 2.5.1 5 .1 7.5z"/><path d="M48.3 49.3c-.7 0-1.2-.6-1.2-1.2v-45H3v43.7h9.1c.7 0 1.2.6 1.2 1.2s-.6 1.2-1.2 1.2H1.7C1 49.2.5 48.6.5 48V1.8c0-.7.6-1.2 1.2-1.2h46.6c.7 0 1.2.6 1.2 1.2V48c0 .7-.5 1.3-1.2 1.3z" class="st2"/><path d="M13.7 9.6h17.4v5.2h5.2v6.6h1V14l-5.4-5.4H12.7v12.8h1V9.6zm18.5.8l3.3 3.3h-3.3v-3.3zm4.1 30H13.7V28.6h-1v12.8h24.6V28.6h-1z" class="st2"/><path d="M15.8 11.7h1v1h-1zm2 0h1v1h-1zm2.1 0h1v1h-1zm-4.1 2h13.3v1H15.8zm0 2.1h18.4v1H15.8zm0 19.4h18.4v1H15.8zm0-2h18.4v1H15.8zm0 4.1h18.4v1H15.8zm22.4-12.7c-.3-.3-6.1-6.3-12.4-6.8h-1.6c-6.4.5-12.1 6.5-12.4 6.8l-.3.4.3.4c.3.3 6.1 6.3 12.4 6.8h1.6c6.3-.5 12.1-6.6 12.4-6.8l.3-.4-.3-.4zm-7.1.4c0 3.1-2.4 5.7-5.5 6.1H25c-3.3 0-6.1-2.8-6.1-6.1 0-3.1 2.4-5.7 5.5-6.1h1.2c3.1.4 5.5 3 5.5 6.1zm-11.5-4.7c-1.1 1.3-1.8 2.9-1.8 4.7 0 1.8.7 3.5 1.8 4.7-3.2-1.5-5.7-3.8-6.7-4.7.9-.9 3.5-3.2 6.7-4.7zm10.9 9.4c1.1-1.3 1.7-2.9 1.7-4.7 0-1.8-.7-3.5-1.8-4.7 3.2 1.5 5.7 3.8 6.7 4.7-.9.8-3.5 3.2-6.6 4.7z" class="st2"/><path d="M24 20.9l.5.9c.3.3.4.8.4 1.2 0 1.1-.9 2-2 2-.4 0-.8-.1-1.2-.4l-.8-.6v1c0 2.3 1.8 4.1 4.1 4.1s4.1-1.8 4.1-4.1-1.8-4.1-4.1-4.1h-1zm1.9 1.2c1.3.3 2.2 1.5 2.2 2.9 0 1.7-1.4 3.1-3.1 3.1-1.3 0-2.5-.9-2.9-2.2.2.1.5.1.8.2 1.7 0 3.1-1.4 3.1-3.1 0-.4 0-.7-.1-.9z" class="st2"/></svg>