<svg xmlns="http://www.w3.org/2000/svg" id="Camada_3" x="0" y="0" version="1.1" viewBox="0 0 50 50" xml:space="preserve"><style>.st2,.st3,.st4{fill:none;stroke:#444;stroke-miterlimit:10}.st2{stroke-width:2.5}.st3,.st4{stroke-linecap:round;stroke-linejoin:round}.st4{stroke-width:.25}</style><path fill="#ce9cc6" d="M35.81 7.2V2.49H8.19v18.65l27.62-9.83z"/><path fill="#c18cbd" d="M8.19 21.14v24.91l29.39-10.46-1.77-1.95V11.31z"/><path d="M35.44 42.84v3.39c0 1.24-1 2.24-2.24 2.24H9.72c-1.24 0-2.24-1-2.24-2.24V3.75c0-1.24 1-2.24 2.24-2.24H33.2c1.24 0 2.24 1 2.24 2.24v27.09" class="st2"/><path d="M41.67 41.3a2.375 2.375 0 11-3.77 2.89l-1.17-1.52-17.13-22.3a2.375 2.375 0 113.77-2.89l14.48 18.79" class="st3"/><path d="M22.33 13.71l.44-3.32m2.89 5.24l2.66-2.04m-.94 5.03l2.49.32m-9.06 6.39l-.43 3.32m-2.68-6.9l-2.66 2.04m1.66-5.75l-3.32-.44m5.24-2.89l-2.04-2.66" class="st4"/><path d="M23.27 45.12h9v-8.27m0-7.81V6.84H10.65l.08 28.01m23.96 5.38v4.01L36 42.7zm1.5-10.13v4.01l-1.53-3.09z" class="st3"/><path d="M23.6 5.28h-4.27c-.38 0-.69-.31-.69-.69 0-.38.31-.69.69-.69h4.27c.38 0 .69.31.69.69 0 .38-.31.69-.69.69z" class="st4"/><g stroke="#444" stroke-miterlimit="10" stroke-width=".25"><path fill="#444" d="M12.76 44.43a4.19 4.19 0 005.63-.98c.29-.38.48-.81.62-1.24l-6.25 2.22z"/><path fill="none" d="M17.55 37.58a4.186 4.186 0 00-5.87.84 4.186 4.186 0 00.84 5.87c.08.06.16.09.24.15l6.25-2.22c.53-1.67.01-3.54-1.46-4.64z"/></g><path d="M7.74 35.46l.96-1.28 2.04.67c.33-.24.68-.45 1.04-.62l.39-2.1 3.16-.45.96 1.91c.4.07.79.17 1.17.31l1.77-1.21 2.55 1.91-.66 2.02c.24.33.44.69.62 1.05l2.09.39.45 3.16-1.91.96c-.07.4-.17.79-.31 1.17l1.21 1.77-1.91 2.55-2.04-.67c-.33.24-.68.45-1.04.62l-.02.61" class="st3"/><path d="M34.87 42.23l.66.42m-.37-11.52l.77.56" class="st2"/></svg>