<svg xmlns="http://www.w3.org/2000/svg" id="Layer_1" x="0" y="0" version="1.1" viewBox="0 0 50 50" xml:space="preserve"><style>.st2,.st4,.st5{fill:none;stroke:#444;stroke-linecap:round;stroke-linejoin:round;stroke-miterlimit:10}.st4{stroke-width:.5}.st5{stroke-width:.25}</style><path fill="#f799ff" d="M27.62 4.69c-.85-.63-1.33-2.32-2.42-2.32s-6.3-.13-7.35 0C7.79 3.66 9.71 5.45 8.09 14.56c-.15.83-1.16 3.29-.37 3L31.21 9.1c-3.57-2.99 0-1.73-3.59-4.41z"/><path fill="#e589ef" d="M33.36 16.48c-.5-.37-2.55-7.24-3.14-7.03l-23.3 8.4c-.55.19-.8 3.9-1.16 4.36-1.39 1.77 6.28 4.08 6.28 5.51 0 7.71.76 8.63 2.72 12.86l-.37 1.59 30.17-10.74-.51-8.59c.3-1.54-2.84.85-3.96-.33-6.61-6.97-.92-1.71-6.73-6.03z"/><path d="M32.15 16.73S29.07-4.31 13.74 4.55m6.61 10.01c0-.7-.07-.79-.22-1.58" class="st2"/><path d="M27.05 14.88c-.45-2.19-1.52-9.36-10.36-8.22 0 0-3.82-4-6.45-2.01 0 0 2.16 2.81 2.05 4.57l-2.92 4.02s-1.14 7.22-2.57 9.27c0 0 .58.53.61 1.06.03.53.49 1.99 2.75 2.09 2.26.1 3.08-.58 3.89-2.15s-.17-1.24 2.62-2.31c.56-.21.7-.21 1.18-.21" class="st2"/><path d="M17.85 20.98c-1.23 1.97-1.97 2.97-2.62 5.73l-1.34.43 1.14-1.62m12.68 14.53l8.42-4.9-1.1-1.88c-.72-1.24-2.09-1.8-3.05-1.24l-7.26 4.25" class="st2"/><circle cx="13.25" cy="13.62" r=".5" fill="none" stroke="#444" stroke-miterlimit="10"/><path d="M11.33 6.33s-2.92 2.26-.96 5.53" class="st2"/><path d="M13.73 32.54l1.31.19-1.09.4s.8-.21.47.17l-.33.38" class="st4"/><path d="M15.06 37.8l.54.26-.43.7m3.96 4.41l.97-.42-.75 1.54" class="st2"/><path d="M16.38 37.84l-.26.09m5.13 4.22l-.97.39" class="st4"/><path d="M15.76 32.43l4.21-1.03a2.567 2.567 0 001.88-3.09l-.02-.09a2.567 2.567 0 00-3.09-1.88l-4.21 1.03a2.567 2.567 0 00-1.88 3.09l.02.09c.34 1.37 1.72 2.22 3.09 1.88zm1.33 5.18l4.21-1.03a2.567 2.567 0 001.88-3.09l-.02-.09a2.567 2.567 0 00-3.09-1.88l-4.21 1.03a2.567 2.567 0 00-1.88 3.09l.02.09a2.562 2.562 0 003.09 1.88zm1.47 5.02l4.21-1.03a2.567 2.567 0 001.88-3.09l-.02-.09a2.567 2.567 0 00-3.09-1.88l-4.21 1.03a2.567 2.567 0 00-1.88 3.09l.02.09a2.562 2.562 0 003.09 1.88zm4.65 4.32l3.6-.88a2.567 2.567 0 001.88-3.09 2.567 2.567 0 00-3.09-1.88l-3.6.88a2.567 2.567 0 00-1.88 3.09 2.551 2.551 0 003.09 1.88z" class="st5"/><path d="M37.45 41.93c-2.02.49-4.91.83-8.91.6l.95.22-.7.05.49.22h-.44l.25.21-.22.07.06.57-.11.08m5.83-13.81c-7.52-1.44-7.37-6.58-7.37-6.58l-6.54-2.03s-3.22-1.08-2.56-3.78c.66-2.7 3.25-2.16 3.25-2.16s6.21 1.13 8.43 1.08c2.22-.05 4.04 1.83 4.04 1.83l5.78 5.07 3.52-.25" class="st5"/><path d="M31.98 32.03s-1.12-1.17-1.53-1.89" class="st2"/><path fill="none" stroke="#444" stroke-linecap="round" stroke-linejoin="round" stroke-miterlimit="10" stroke-width="2.5" d="M44.06 34.56V21.93l-3.96.59-6.74-6.03S30.48 5.1 24.84 2.58s-11.25.99-11.25.99-1.82-.71-3.08-.13-.81 2.78-.81 2.78-1.71 2.75-.59 5.18c0 0-2.72 8.62-3.35 9.59-.55.84-.36 2.39.22 3.06.59.68.9 2.34 2.57 2.84 1.66.49 3.76.56 4.25-.11 0 0-1.89 1.85-1.48 3.78s1.64 2.57 1.64 2.57-.56 2.02-.16 3.24c.41 1.22 1.67 1.96 1.67 1.96s-.74 1.33.02 3.13c.77 1.8 2.18 3.01 4.3 2.52 0 0-.24.92.36 2.09s2.05 2.52 3.58 2.25c1-.18 3.05-.57 4.26-.91.99-.28 1.88-.86 2.45-1.71.36-.52.66-1.18.76-1.97 0 0 3.51.52 7.96-.84"/><path fill="none" stroke="#444" stroke-linecap="round" stroke-linejoin="round" stroke-miterlimit="10" stroke-width="2" d="M16.07 22.21l-2.61 3.9"/></svg>