<svg xmlns="http://www.w3.org/2000/svg" id="Camada_3" x="0" y="0" version="1.1" viewBox="0 0 50 50" xml:space="preserve"><style>.st5{fill:#444}</style><path fill="#e56060" d="M46.62 25.52v5.26l-1.07.77-38.46 14-2.16-5.53-.05-9.22.02-3.03L46.62 12.3v4.36l-.56 3.95z"/><path fill="#ff6b6b" d="M37.2 3.24l9.13 9.89L8.22 26.94l-4.6 1.67L4.88 2.95l8.39-.54h14.32z"/><path fill="none" fill-rule="evenodd" stroke="#444" stroke-linecap="round" stroke-linejoin="round" stroke-miterlimit="10" stroke-width="2.5" d="M43.44 39.61v7.29c0 .82-.63 1.48-1.39 1.48l-30.85-.01m-.01-.01c-2.87-1.31-5.51-3.14-6.76-5.94V5.12c0-1.5 1.21-2.71 2.71-2.71l29.06.01c.76 0 1.39.67 1.39 1.5v.67m6.39 6.44h-.54 1.99c.66 0 1.19.57 1.19 1.27v6.19c0 .7-.54 1.73-1.19 1.73m-1.99 0h1.99c.66 0 1.19 1.23 1.19 1.93v6.19c0 .7-.54 1.89-1.19 1.89m-1.99-.01h1.99c.66 0 1.19 1.07 1.19 1.77v6.19c0 1.43-2.53 1.43-3.18 1.43m.82-28.58l-6.68-6.45" clip-rule="evenodd"/><path fill="none" fill-rule="evenodd" stroke="#444" stroke-miterlimit="10" d="M11.39 11.03h34.04c.78 0 1.19 1.43 1.19 2.27M4.88 2.95h0c.85 1.83 4.11 7.15 6.51 8.08V48.1M38.31 5.26H6.12m36.14 3.63v38.94" clip-rule="evenodd"/><path fill="none" stroke="#444" stroke-linecap="round" stroke-miterlimit="10" d="M22.69 32.48s5.09 3.3 9.74-.32"/><circle cx="21.86" cy="28.07" r="1.49" class="st5"/><circle cx="32.77" cy="28.07" r="1.49" class="st5"/><path fill="none" stroke="#444" stroke-miterlimit="10" stroke-width=".25" d="M6.94 6.57h32.34M8.16 7.62h32.35M8.57 8.68h32.34M9.33 9.73h32.35"/></svg>