<svg xmlns="http://www.w3.org/2000/svg" id="Camada_3" x="0" y="0" version="1.1" viewBox="0 0 50 50" xml:space="preserve"><style>.st5{fill:#444}</style><path fill="#f56991" d="M35.32 9.97L1.81 11.35l-.38 14.5 35.61-12.67z"/><path fill="#dc5e82" d="M1.43 27.17v11.99c0 1.3 1.28 2.2 2.51 1.77l42.01-14.96c2.41-.86 2.89-6.54 1.58-9.17-.22-.44-.64-.75-1.12-.89l-8.45-1.01c-.38-.11-1.12-1.65-1.49-1.52L2.68 25.4c-.75.27-1.25.98-1.25 1.77z"/><path fill="none" stroke="#444" stroke-linecap="round" stroke-linejoin="round" stroke-miterlimit="10" d="M1.45 20.18v15.67l1.91-3.86 1.91-3.86 1.91-3.86 1.91-3.86c.23-.47.55-.91.92-1.31s.81-.75 1.29-1.04c.47-.29.98-.53 1.5-.69.52-.16 1.06-.25 1.58-.25h23.39l.36-.5c.23-.32.61-.51 1.01-.51h6.32c.95 0 1.55 1.02 1.08 1.85l-1.2 2.12"/><path fill="none" stroke="#444" stroke-miterlimit="10" d="M46 27.07l2.19-4.43c.14-.28.21-.54.21-.79.01-.24-.05-.46-.17-.64s-.28-.33-.5-.44c-.22-.1-.49-.16-.8-.16H14.36c-.31 0-.64.06-.96.16-.32.1-.64.25-.93.44s-.57.4-.8.64a3.3 3.3 0 00-.57.79l-2.19 4.43-2.19 4.43-2.19 4.43-2.19 4.43c-.14.28-.2-.43-.21-.18s.05.46.17.64c.11.18.29.33.51.44.22.1.49.16.8.16h24.42"/><path fill="none" stroke="#444" stroke-linecap="round" stroke-linejoin="round" stroke-miterlimit="10" stroke-width="2.5" d="M4.55 9.97h0-.66c-.31 0-.61.06-.88.18-.27.11-.51.28-.72.48a2.243 2.243 0 00-.67 1.6l-.19 8.29v18.46h0c.02.17-.01.7.38 1.23.5.69 1.54.81 1.78.81.28 0-.31 0 0 0h31.33c1.75 0 3.36-.95 4.2-2.48L48.4 21.7c.47-.84-.11-1.92-1.07-1.94h-.04c-.6.18-1.11.36-.09-1.02l.12-.3s1.62-3.54-1.44-3.54H40c-3.12 0-2.91 1.32-2.91 1.32h0s.87-6.25-3.13-6.25h0H4.55zm33.94 4.93"/><path d="M14.79 25.69c-.2.9-.72 3.76 1.13 3.15.33-.11.56-.36.81-.58.48-.41 1.01-.76 1.51-1.14.77-.59 1.5-1.31 2.4-1.71-.31-.12-.61-.25-.92-.37.1.31-.99 1.97-1.21 2.39-.58 1.12-1.05 2.33-1.5 3.51-.58 1.55-1.65 4.66.18 5.83 1.59 1.03 3.73-.71 4.77-1.8 1.66-1.73 3.18-3.75 4.17-5.95.38-.86 1.8-3.85.24-4.3-1.55-.44-3.05 2.08-3.54 3.15-.87 1.95-1.66 4.4-1.59 6.56.07 2.04 1.45 3.86 3.64 3.17 2.49-.79 4.59-3.33 6.32-5.17 2.05-2.17 3.98-4.46 6.03-6.62l-.88-.88-.06.06c-.54.59.34 1.48.88.88l.06-.06c.54-.59-.33-1.47-.88-.88-2.57 2.71-4.94 5.62-7.6 8.24-1.2 1.18-2.76 2.96-4.49 3.31-2.63.52-1.58-4.07-1.22-5.33.49-1.67 1-3.41 2.25-4.69.22-.22.43-.35.7-.51-.02-.02-.05-.04-.07-.07-.1-.13-.14-.08-.14.16-.05.07-.07.22-.09.3-.22.78-.42 1.6-.77 2.33-.85 1.75-1.99 3.29-3.24 4.77-.66.78-3.84 3.79-4.19 1.38-.28-1.98.99-4.22 1.73-5.97.38-.9.89-1.73 1.29-2.62.21-.46.58-1.02.42-1.55-.13-.42-.54-.54-.92-.37-1.06.47-1.92 1.36-2.85 2.04-.44.32-.93.61-1.31 1-.18.08-.19.18-.03.31v-.38c.11-.41.08-.87.18-1.29.18-.75-1.03-1.08-1.21-.3z" class="st5"/><path d="M29.08 25.55c-.08 1.24.03 2.44.32 3.66.29 1.2.82 2.26 1.5 3.29 1.24 1.9 2.97 3.89 5.12 4.74.75.3 1.07-.91.33-1.21-.95-.38-1.78-1.1-2.49-1.82-.73-.76-1.44-1.62-2-2.51-.59-.94-1.04-1.85-1.29-2.93s-.32-2.12-.25-3.22c.06-.8-1.19-.8-1.24 0z" class="st5"/></svg>