<svg xmlns="http://www.w3.org/2000/svg" version="1" viewBox="0 0 50 50"><path fill="#A6C1C2" d="M9.831 42.045l37.792-13.757c.164-1.109.246-2.229.247-3.35 0-12.63-10.239-22.87-22.87-22.87S2.13 12.308 2.13 24.938c.001 6.808 2.979 12.917 7.701 17.107z"/><path fill="#B9D7D9" d="M37.745 5.903a22.761 22.761 0 00-12.61-3.793c-10.37 0-19.12 6.903-21.925 16.362L37.745 5.903z"/><path fill="#031326" d="M25 .881C11.7.881.88 11.701.88 25.001S11.701 49.119 25 49.119c4.769 0 9.38-1.39 13.335-4.019.469-.312.641-.882.487-1.395 0-.009.004-.018.003-.027-.125-1.405-.774-2.701-1.928-3.854-.905-.901-2.019-1.582-3.095-2.24-1.703-1.041-3.453-2.126-4.491-4.132 2.98-2.113 5.697-6.047 5.697-10.559 0-6.732-4.49-12.209-10.008-12.209S14.992 16.16 14.992 22.893c0 4.512 2.715 8.444 5.695 10.558-1.032 2.004-2.781 3.089-4.483 4.13-1.078.659-2.192 1.341-3.096 2.244a6.911 6.911 0 00-1.477 2.145C6.612 38.008 3.381 31.876 3.381 25c0-11.921 9.699-21.62 21.62-21.62S46.619 13.08 46.619 25c0 1.062-.078 2.127-.23 3.168a1.25 1.25 0 002.472.372l.001-.009c.17-1.161.257-2.349.257-3.531C49.119 11.7 38.299.88 25 .881zm-8.508 22.013c0-5.905 3.816-10.709 8.508-10.709s8.508 4.804 8.508 10.709c0 5.704-5.303 10.709-8.508 10.709s-8.508-5.006-8.508-10.709zm-2.323 17.992c.777-.777 1.769-1.383 2.818-2.024 1.769-1.082 3.75-2.314 4.978-4.623 1.057.552 2.105.865 3.036.865.93 0 1.977-.312 3.034-.863 1.234 2.31 3.216 3.542 4.986 4.624 1.049.642 2.04 1.247 2.818 2.022.643.643 1.075 1.332 1.307 2.054-.064.028-.133.039-.193.079a21.531 21.531 0 01-11.951 3.601 21.496 21.496 0 01-12.126-3.73c.237-.701.661-1.373 1.293-2.005z"/></svg>