<svg xmlns="http://www.w3.org/2000/svg" id="Layer_1" x="0" y="0" version="1.1" viewBox="0 0 50 50" xml:space="preserve"><style>.st4{fill:#444}</style><path fill="#e589ef" d="M46.87 22.41L3.01 38.23l.22-13.64-.41-4.78 27.42-9.98L46.1 6.12l.96 8.93z"/><path fill="#f799ff" d="M46.1 6.12L3.33 21.54l.52-10.14-.91-.28 1.42-9.04 40.49-.13 2.33 4.41z"/><path fill="none" stroke="#444" stroke-linecap="round" stroke-linejoin="round" stroke-miterlimit="10" stroke-width="2.5" d="M2.89 44.82V4.73c0-1.72 1.4-3.12 3.12-3.12h37.42c1.72 0 3.12 1.4 3.12 3.12v40.54c0 1.72-1.4 3.12-3.12 3.12h-5.74M2.89 9.92h43.66"/><circle cx="37.77" cy="5.82" r="1.35" class="st4"/><circle cx="41.62" cy="5.82" r="1.35" class="st4"/><circle cx="33.81" cy="5.82" r="1.35" class="st4"/><circle cx="25" cy="17.34" r="3.48" class="st4"/><path d="M35.31 20.96s-4.6.84-8.91.84h-2.79c-4.32 0-8.91-.84-8.91-.84-.7-.14-1.39.42-1.53 1.11-.14.7.42 1.39 1.11 1.53.14 0 3.9.7 7.94.84l-.56 8.63c-.7 4.87-2.51 9.61-2.51 9.61-.28.7.14 1.39.7 1.67.14 0 .28.14.42.14.56 0 .97-.28 1.25-.84.14-.14 1.39-3.62 2.23-7.8.14-.56.56-.84 1.11-.84.56 0 .97.42 1.11.84.84 4.32 2.09 7.66 2.23 7.8.14.56.7.84 1.25.84.14 0 .28 0 .42-.14.7-.28.97-.97.7-1.67 0 0-1.81-4.74-2.51-9.61l-.28-8.63c4.04-.14 7.8-.84 7.94-.84.7-.14 1.25-.84 1.11-1.53-.13-.83-.83-1.25-1.52-1.11z" class="st4"/></svg>