<svg xmlns="http://www.w3.org/2000/svg" id="Camada_1" x="0" y="0" version="1.1" viewBox="0 0 50 50" xml:space="preserve"><style>.st3{fill:none;stroke:#444;stroke-width:1.5;stroke-linecap:round;stroke-linejoin:round}</style><g id="Layer_1"><path fill="#fcc34f" d="M44.6 29.9l.2 3.3L5.2 47.6l.4-7 .5-4.1 39.3-14.3-.7 2.9z"/><path fill="#fdcf72" d="M45 17l-.7 6L5.8 37.1l-.7-7.8-.5-2.6 40.7-14.8z"/><path fill="none" stroke="#444" stroke-linecap="round" stroke-linejoin="round" stroke-width="2.5" d="M38.6 7.9H45v40.7H5.1V7.9h6.4"/><path d="M30.6 6.3c0-3.1-2.5-5.6-5.6-5.6s-5.6 2.5-5.6 5.6h-4v6.4h19.2V6.3h-4z" class="st3"/><circle cx="25" cy="6.3" r="1.6" fill="#444"/><path d="M40.2 12.6v31.2H9.9V12.6" class="st3"/><g stroke="#444" stroke-miterlimit="10"><path fill="#444" stroke-width=".2" d="M26.7 19.1c-4.8 0-8.7 3.9-8.7 8.7 0 1.8.6 3.6 1.6 5.1l-.8.8-.2-.2c-.1-.1-.2-.1-.3-.1-.1 0-.2 0-.3.1l-1.2 1.2h0l-1.9 2c-.8.8-.8 2.2 0 3 .8.8 2.2.8 3 0l2-2h0l1.2-1.2c.2-.1.2-.4 0-.6 0 0 0 0 0 0l-.2-.2.8-.8c1.5 1.1 3.2 1.6 5.1 1.6 4.8.2 8.8-3.6 9-8.4s-3.6-8.8-8.4-9h-.7 0zM17.3 39c-.2.2-.6.4-.9.4-.7 0-1.3-.6-1.3-1.3 0-.3.1-.6.4-.9l1.7-1.7.9.9.9.9-1.7 1.7zm2.3-2.2l-.9-.9-.9-.9.6-.6 1.8 1.8-.6.6zm.7-1.7l-.4-.4-.4-.4.7-.7c.3.3.5.6.8.8l-.7.7zm6.4.6c-4.4 0-7.9-3.5-7.9-7.9s3.5-7.9 7.9-7.9 7.9 3.5 7.9 7.9c0 0 0 0 0 0 0 4.3-3.5 7.9-7.9 7.9z"/><circle cx="26.7" cy="27.8" r="7" fill="none" stroke-width=".75"/></g></g></svg>