<svg xmlns="http://www.w3.org/2000/svg" id="Camada_3" x="0" y="0" version="1.1" viewBox="0 0 50 50" xml:space="preserve"><style>.st2,.st3{fill:none;stroke:#444;stroke-linecap:round;stroke-linejoin:round;stroke-miterlimit:10}.st3{stroke-width:.5}</style><path fill="#c3ff68" d="M44.5 12.6L38.9 9l-7.7-4.4-6-2.8C22 1.7 3.8 10.7 3.8 13.9l-.5 7.8.5 15.1 11.5 7.6 31-11c.8-.5-.8-18.8-1.8-20.8z"/><path fill="none" stroke="#444" stroke-linecap="round" stroke-linejoin="round" stroke-miterlimit="10" stroke-width="2.5" d="M29.8 46.7L27.6 48c-1.7 1-3.8 1-5.5 0L6.5 39c-1.7-1-2.7-2.8-2.7-4.7v-18c0-2 1-3.8 2.7-4.7l15.6-9c1.7-1 3.8-1 5.5 0l15.6 9c1.7 1 2.7 2.8 2.7 4.7v18c0 2-1 3.8-2.7 4.7l-2.5 1.4"/><ellipse cx="25.6" cy="23.7" class="st2" rx="2.6" ry="2.9"/><path d="M17.3 27l1.8-.4c.5-.1.9-.6.9-1.1v-5.3c0-.6-.4-1-.9-1.1l-9-1.7c-.7-.1-1.4.4-1.4 1.1v9c0 .7.7 1.3 1.4 1.1l3.9-.9m17.2-5.2l-.5-.1c-.5-.1-.8-.5-.8-1V16c0-.6.4-1.1 1-1.1l8.9-1.5c.7-.1 1.3.4 1.3 1.1v8.8c0 .7-.7 1.3-1.4 1.1l-5.6-1.2" class="st3"/><path d="M25.5 39.1v8.3m-4-.5V32.3c0-.4-.4-.8-.8-.7l-3.3 1c-1.3.3-2.9-.7-2.9-2.1V26c0-.8.6-1.4 1.4-1.4.8 0 1.4.6 1.4 1.4v3c0 .2.2.4.4.3l3.3-1.2c.5-.2 1-.3 1.5-.3h3.7c1.6 0 3.1-.9 3.9-2.3.6-1 1.1-2.5 1.6-4.7.1-.4.3-.7.6-.9.6-.4 1.5-.3 1.9.2.2.3.4.7.3 1.1-.3 2-1.5 8.3-4.7 10.8-.2.1-.3.3-.3.5v13.2M13 19.9l-1.9 2.3 1.6 2.1m1.8-.5l.9-3.7m1.5.3l1.6 1.8-1.5 1.5m14.5-6.4l8.4-1m-.5 4.7l-4.7-.5" class="st2"/><path d="M25.9 15.9h-8.5c-.5 0-.9-.4-.9-.9v-4.1c0-.5.4-.9.9-.9h8.5c.5 0 .9.4.9.9V15c0 .5-.4.9-.9.9zm-7.3-3.8h6.1m-6.1 1.6h6.1" class="st3"/></svg>