<svg xmlns="http://www.w3.org/2000/svg" id="Camada_1" x="0" y="0" version="1.1" viewBox="0 0 50 50" xml:space="preserve"><style>.st0{fill:#46b8b0}.st2{fill:#505050}.st3{fill:#444}</style><path d="M36.8 23.5c1.1 0 2.1.2 3 .5l-1.2.4c-.6-.1-1.2-.2-1.8-.2-2.7 0-5.2 1.3-6.7 3.3l-1.3.5c1.7-2.7 4.6-4.5 8-4.5z" class="st0"/><path d="M48 5v16l-2 .7-3.4 1.3-1.8.7c-1.2-.5-2.6-.8-4-.8-4 0-7.3 2.2-8.9 5.5l-1.5.6L12 34.2l-2 .7-6 2.2-2 .7V21.3l2-.7 6-2.2 2-.7L27.5 12l5.5-2 11-4 3.9-1.4c.1.1.1.2.1.4z" class="st0"/><path fill="#4ecdc4" d="M48 5v.1l-2.3.9-10.9 4-5.5 2L12 18.3l-2 .7-6 2.2-2 .8V11c0-.5.5-1 1-1h7V5c0-.5.5-1 1-1h36c.4 0 .7.2.9.6.1.1.1.2.1.4z"/><path d="M47.9 4.6c-.2-.4-.5-.6-.9-.6H11c-.5 0-1 .5-1 1v32c0 .5.5 1 1 1h14.9c-.3-.7-.5-1.3-.7-2H12V6h34v18.2l.2.2c.7.7 1.3 1.5 1.8 2.4V5c0-.2 0-.3-.1-.4z" class="st2"/><path d="M20.5 44c-.3.6-.5 1.2-.5 2H3c-.5 0-1-.5-1-1V11c0-.5.5-1 1-1h6v2H4v32h16.5zM11 10h36v2H11zm3-3h2v2h-2zm4 0h2v2h-2zm4 0h2v2h-2z" class="st2"/><path d="M3 15h6v2H3z" class="st2"/><path d="M45.5 25.2c-.8-.9-1.8-1.6-2.8-2.2-1.5-.8-3.2-1.3-4.9-1.4h-.9c-4.8 0-8.9 3-10.5 7.3-.4 1.2-.7 2.5-.7 3.8 0 2.2.7 4.5 2 6.5l-.9.9-.2-.2c-.2-.2-.3-.2-.5-.2s-.3 0-.5.2l-1.5 1.5-2.4 2.6c-.5.5-.8 1.2-.8 2s.3 1.5.8 2 1.2.8 2 .8 1.5-.3 2-.8l4-4c.1-.1.2-.2.2-.3 0-.2 0-.4-.2-.6l-.2-.2.9-.9c1.9 1.3 4 2 6.5 2h.5c2.8 0 5.4-1 7.5-3 2.2-2 3.4-4.8 3.5-7.8.2-3-.9-5.9-2.9-8zM24.8 46.9c-.2.2-.7.5-1.1.5-.8 0-1.5-.7-1.5-1.6 0-.4.2-.8.5-1.1l2.1-2.1 2.1 2.1-2.1 2.2zm3-2.9l-2.2-2.2.6-.6 2.2 2.2-.6.6zm.9-2.1l-.9-.9.8-.7.3.3.6.6-.8.7zm8.1.8c-5.6 0-9.9-4.4-9.9-9.9 0-1.6.4-3.1 1-4.4 1.6-3.3 5-5.5 8.9-5.5 1.4 0 2.8.3 4 .8 3.5 1.5 5.9 5 5.9 9.1 0 5.4-4.4 9.9-9.9 9.9z" class="st3"/><path d="M39.8 24c-.9-.3-2-.5-3-.5-3.4 0-6.3 1.8-7.9 4.5-.8 1.4-1.3 3-1.3 4.7 0 5.1 4.1 9.3 9.3 9.3 5.1 0 9.3-4.1 9.3-9.3-.2-4-2.8-7.4-6.4-8.7zm-3 17.3c-4.7 0-8.5-3.8-8.5-8.5 0-2 .7-3.8 1.8-5.2 1.5-2 4-3.3 6.7-3.3.6 0 1.2.1 1.8.2 3.8.8 6.7 4.2 6.7 8.3 0 4.7-3.8 8.5-8.5 8.5z" class="st3"/></svg>