<svg xmlns="http://www.w3.org/2000/svg" id="Camada_1" x="0" y="0" version="1.1" viewBox="0 0 50 50" xml:space="preserve"><style>.st2{fill:none;stroke:#494949;stroke-linecap:round;stroke-linejoin:round;stroke-miterlimit:10}</style><path fill="#e589ef" d="M43 1.9zm-2.6 18.7l-12.5 4.6-3.3 1.2-7.6 2.7-11 4c-2.2-3.1-3.5-6.9-3.5-11 0-2 .3-4 .9-5.9l20.4-7.4.7-.3 3.6-1.3L31.6 6c1.7 1.1 3.3 2.5 4.6 4 2.4 2.9 3.9 6.6 4.2 10.6z"/><path fill="#f799ff" d="M36.2 10l-11.7 4.2-13.8 4.9-3.2 1.2h-.1l-4.9 1.8c0-2 .3-4 .9-5.9C5.9 8.6 13.1 3.1 21.5 3.1c3.7 0 7.2 1.1 10.1 2.9 1.7 1.1 3.3 2.5 4.6 4z"/><path d="M28.6 6.9c-.9.6-1.7 1.4-2.3 2.3L24 8.4l-1.6 3.8 2.2 1.1c-.2 1.1-.2 2.2 0 3.3l-2.2 1.1 1.6 3.8 2.3-.8c.6.9 1.4 1.7 2.3 2.3l-.8 2.3 3.8 1.6 1.1-2.2c1.1.2 2.2.2 3.3 0l1.1 2.2" class="st2"/><path d="M37.3 17.3c-.6 1.1-1.8 1.8-3.2 1.8-2 0-3.6-1.6-3.6-3.6 0-1.7 1.2-3.1 2.7-3.5m-14 27c.9-.6 1.7-1.4 2.3-2.3l2.3.8 1.6-3.8-2.2-1.1c.2-1.1.2-2.2 0-3.3l2.2-1.1-1.6-3.8-2.3.8c-.6-.9-1.4-1.7-2.3-2.3l.8-2.3-3.9-1.6-1.1 2.2c-1.1-.2-2.2-.2-3.3 0l-1-2.2-3.8 1.6.8 2.3c-.9.6-1.7 1.4-2.3 2.3" class="st2"/><path d="M9.5 31.1c0-2.2 1.8-4 4-4s4 1.8 4 4-1.8 4-4 4" class="st2"/><path fill="none" stroke="#494949" stroke-linecap="round" stroke-linejoin="round" stroke-miterlimit="10" stroke-width="2.5" d="M40.5 22.1c0 10.5-8.5 19-19 19-6.4 0-12.1-3.2-15.5-8-2.2-3.1-3.5-6.9-3.5-11 0-2 .3-4 .9-5.9C5.9 8.6 13.1 3.1 21.5 3.1c3.7 0 7.2 1.1 10.1 2.9 1.7 1.1 3.3 2.5 4.6 4 2.4 2.9 4 6.5 4.3 10.5v1.6zm-2 14l9 9-3 3-9-9"/></svg>