<svg xmlns="http://www.w3.org/2000/svg" viewBox="0 0 50 50"><defs><style>.cls-5{fill:none;stroke:#444;stroke-linecap:round;stroke-linejoin:round;stroke-width:1.5px}</style></defs><g id="Layer_1" data-name="Layer 1"><path fill="none" stroke="#494949" stroke-miterlimit="10" stroke-width="3.11" d="M-50.54-96.7h425.11v443.81H-50.54z"/><path fill="#a6c1c2" d="M44.56 29.9l.21 3.31L5.25 47.6l.37-7.02.45-4.04 39.37-14.33-.7 2.89-.18 4.8z"/><path fill="#b9d7d9" d="M45.04 17.04l-.69 5.99-38.6 14.04-.64-7.81-.55-2.57 40.77-14.78-.29 5.13z"/><path fill="none" stroke="#444" stroke-linecap="round" stroke-linejoin="round" stroke-width="2.5" d="M38.63 7.86h6.39v40.72H5.09V7.86h6.39"/><path d="M30.64 6.26a5.59 5.59 0 10-11.18 0h-4v6.39h19.18V6.26z" class="cls-5"/><circle cx="25.05" cy="6.26" r="1.6" fill="#444"/><path d="M40.23 12.65v31.14H9.88V12.65" class="cls-5"/><path fill="#444" stroke="#444" stroke-miterlimit="10" stroke-width=".2" d="M24.88 20.73a8.69 8.69 0 00-7.07 13.76l-.79.79-.19-.2a.42.42 0 00-.3-.12.4.4 0 00-.29.12L15 36.28h0l-1.95 1.95a2.11 2.11 0 003 3l2-2h0l1.19-1.2a.39.39 0 000-.58l-.19-.2.79-.79a8.61 8.61 0 005.06 1.63 8.7 8.7 0 100-17.39zm-9.39 19.9a1.25 1.25 0 01-.91.38 1.29 1.29 0 01-.91-2.19l1.66-1.66.91.9.91.91zm2.24-2.24l-.9-.91-.91-.91.61-.61 1.82 1.81zm.71-1.69l-.44-.42-.42-.42.72-.72a8.33 8.33 0 00.84.84zm6.44.6a7.88 7.88 0 117.87-7.88 7.88 7.88 0 01-7.87 7.88z"/><circle cx="24.88" cy="29.42" r="6.96" fill="none" stroke="#444" stroke-miterlimit="10" stroke-width=".75"/></g></svg>