<svg xmlns="http://www.w3.org/2000/svg" id="Layer_1" x="0" y="0" version="1.1" viewBox="0 0 50 50" xml:space="preserve"><style>.st2{fill:#031326}</style><path fill="#ce87ea" d="M46.6 32.4c0-1-.3-1.9-1-2.6-.6-.6-1.4-1-2.3-1.1.1-1.6.1-3.1.2-4.6.2.1.3-.1.6-.7.7-1.6 1.9-7.1 1.2-9.8-.4-1.4-.9-2.6-1.6-3.5L13.2 21.3c.1 2.1.2 4.6.4 7.3h-.1c-1 .1-1.8.6-2.4 1.4-.6.8-.9 1.7-.7 2.7.2 1.7 1.5 3 3.2 3.2h.8c.5 3.8 1.3 7.1 2.4 8.8L46.2 34c.3-.6.4-1.1.4-1.6z"/><path fill="#e097fb" d="M37 7.8C35.3 2 23.1.3 16.5 6.8c-8.3 8.3-10.3 8.1-10.3 8.1s2.9 2.4 7.1 3.9c0 .8.1 1.9.1 3.1l31.5-11.4c-2.1-3-5.3-3.8-7.9-2.7z"/><path d="M24 22.6h-6c-.5 0-1-.4-1-1s.4-1 1-1h6c.5 0 1 .4 1 1s-.5 1-1 1zm14.7 0h-6c-.5 0-1-.4-1-1s.4-1 1-1h6c.5 0 1 .4 1 1s-.5 1-1 1zM28.3 40.4c-1.3 0-2.4-.5-3.3-1.4-.4-.4-.4-1 0-1.4s1-.4 1.4 0c.5.5 1.1.8 1.8.8s1.4-.2 1.9-.7c.4-.4 1-.4 1.4 0 .4.4.4 1 0 1.4-.9.9-2 1.3-3.2 1.3zm1.4-5.5h-3l.7-7c0-.4.4-.7.8-.7s.7.4.7.8l-.5 5.4h1.4c.4 0 .8.3.8.8s-.5.7-.9.7z" class="st2"/><path d="M34.8 23c-2.1 0-4 1.2-4.9 3-.5-.5-1.2-.8-2-.8s-1.5.3-2 .8c-.9-1.8-2.8-3-4.9-3-3 0-5.5 2.5-5.5 5.5S18 34 21 34s5.5-2.5 5.5-5.5V28c0-.8.6-1.4 1.4-1.4s1.4.6 1.4 1.4v.5c0 3 2.5 5.5 5.5 5.5s5.5-2.5 5.5-5.5c0-3.1-2.4-5.5-5.5-5.5zm-13.7 9.4c-2.2 0-4-1.8-4-4s1.8-4 4-4 4 1.8 4 4-1.8 4-4 4zm13.7 0c-2.2 0-4-1.8-4-4s1.8-4 4-4 4 1.8 4 4-1.7 4-4 4z" class="st2"/><path d="M46.5 29c-.5-.6-1.2-1-1.9-1.2 0-.8.1-1.5.1-2.3l.3-.6c.2-.5.5-1.4.7-2.3.7-2.5 1.4-6.6.8-9.1-.8-3.1-2.5-5.5-5-6.7-1.5-.8-3.2-1-4.8-.6-1.1-2-3.3-3.5-6.3-4.2-3.5-1-8.5-.7-12.5 1.8-1.1.6-2.2 1.3-3.2 2.2-7.1 6.6-9.2 7.1-9.3 7.2l-3.3-.3 3.3 2.7c.1.1 2.7 2.2 6.4 3.7.1 2 .2 5.1.4 8.5-.8.3-1.6.8-2.1 1.6-.8 1-1.2 2.3-1 3.6.3 2.2 2 3.9 4.2 4.2 1.1 6.9 2.4 8.7 3.4 9.4 1.8 1.4 6.9 2.2 11.9 2.2 5.1 0 10.2-.7 11.9-2.2l.3-.3c.5-.5.5-1.3 0-1.8s-1.3-.5-1.8 0l-.1.1c-2.6 2.1-18.1 2.1-20.7 0-.5-.4-1.6-2-2.6-8.9l-.2-1.2-1.2.1h-.5c-1.1-.1-2-1-2.1-2.1-.1-.6.1-1.2.5-1.7s.9-.8 1.5-.9l1.4.1-.1-1.4c-.3-4-.5-7.7-.5-9.8 1.1.2 2.2.3 3.3.3.8 0 1.5-.1 2.3-.2 5.1-.8 12-3.1 14.7-7.1.1-.2.2-.3.3-.5.3.4.7.8 1.1 1.2 1.2 1.2 2.8 2.9 4 5.4 1.1 2.5 1.8 4.4 2.2 5.8v.5c0 1.4-.1 2.9-.2 4.5l-.1 1.1 1.2.1c.6.1 1.1.3 1.5.7.4.5.7 1.1.6 1.7 0 1.1-.8 2-1.9 2.2H43l-1.4-.5-.2 2c-.1.7.4 1.3 1.1 1.4.4.1.8-.1 1.1-.4.1 0 .2 0 .4-.1 2.2-.4 3.8-2.3 3.9-4.6 0-1.2-.5-2.4-1.4-3.3zM33.4 10.9c-2 2.9-7.5 5.5-13.6 6.5-2.8.4-5.5-.1-7.8-.9-1.3-.6-2.4-1.2-3.2-1.7 2-1.3 4.9-3.7 8.3-7.2C20.7 4 26.2 3.3 30 4.3c1 .3 1.9.6 2.7 1.1.8.6 1.3 1.4 1.5 2.2.2 1.1-.1 2.2-.8 3.3zM43.3 22c-.4-1.3-1-2.9-1.9-4.7-1.3-2.8-3.1-4.7-4.3-5.9-.6-.6-1.3-1.3-1.3-1.5 0 0 .1-.2.7-.5.7-.3 1.4-.4 2.1-.4.8 0 1.5.2 2.3.5.7.3 1.3.8 1.8 1.3.7.9 1.2 2 1.5 3.2.4 1.9-.3 5.8-.9 8z" class="st2"/></svg>