<svg xmlns="http://www.w3.org/2000/svg" id="Camada_1" x="0" y="0" version="1.1" viewBox="0 0 50 50" xml:space="preserve"><style>.st0{fill:#a475ef}.st3{fill:none;stroke:#494949;stroke-linecap:round;stroke-linejoin:round;stroke-miterlimit:10}</style><path d="M48.4 22L5.2 37.7C2.8 34 1.4 29.7 1.4 25c0-1 .1-1.9.2-2.8 0-.2.1-.5.1-.7L40.6 7.3c.2.2.4.3.5.5 3.9 3.7 6.6 8.6 7.3 14.2z" class="st0"/><path fill="#bf94f7" d="M41.1 7.8L1.6 22.2c0-.2.1-.5.1-.7 1.7-11.3 11.5-20 23.3-20 6 0 11.4 2.2 15.6 5.9.1.1.3.2.5.4z"/><path fill="none" stroke="#444" stroke-linecap="round" stroke-linejoin="round" stroke-miterlimit="10" stroke-width="2.5" d="M48.6 25C48.6 38 38 48.6 25 48.6c-8.3 0-15.6-4.3-19.8-10.9-2.4-3.7-3.8-8-3.8-12.7 0-1 .1-1.9.2-2.8 0-.2.1-.5.1-.7 1.7-11.3 11.5-20 23.3-20 6 0 11.4 2.2 15.6 5.9.2.2.4.3.5.5 3.9 3.6 6.6 8.6 7.3 14.2.1.9.2 1.9.2 2.9z"/><path d="M42.6 3.8v-.1z" class="st0"/><path d="M28.3 25c0 1.8-1.5 3.3-3.3 3.3-1.8 0-3.3-1.5-3.3-3.3 0-1.8 1.5-3.3 3.3-3.3 1.8 0 3.3 1.5 3.3 3.3z" class="st3"/><path d="M19.7 18.4c-.6.5-1.1 1-1.5 1.6l-1.9-.6-1.3 3.2 1.8.9c-.1.9-.2 1.8 0 2.7l-1.8.9 1.3 3.2 1.9-.6c.5.8 1.2 1.4 1.9 1.9l-.6 1.9 3.2 1.3.9-1.8c1.2.4 4.2.5 5.4.5h6.6v-1.3l4.6 3.3-4.6 3.9v-1.3H24.3c-6.9 0-12.5-5.6-12.5-12.5 0-.7.1-1.3.2-2" class="st3"/><path d="M37.8 27c.2-.8.3-1.7.3-2.6 0-.7-.1-1.4-.2-2.1-.4-2.6-1.7-4.9-3.4-6.7-1-1-2.2-1.9-3.5-2.5-1.6-.8-3.4-1.2-5.3-1.2H14.5v-1.3l-.5.5-4 3.5 4.6 3.3v-1.3h7.1c1.4 0 3.8.1 4.9.5l.9-1.8 3.2 1.3-.3.4-.5 1.4c.7.5 1.4 1.2 1.9 1.9l1.9-.6 1.3 3.2-1.8.9v.1c.1.9.1 1.7 0 2.6l1.8.9-1.3 3.2-1.9-.6c-.4.6-1 1.2-1.5 1.6" class="st3"/></svg>