<?xml version="1.0" encoding="utf-8"?>
<!-- Generator: Adobe Illustrator 27.5.0, SVG Export Plug-In . SVG Version: 6.00 Build 0)  -->
<svg version="1.1" id="Camada_3" xmlns="http://www.w3.org/2000/svg" xmlns:xlink="http://www.w3.org/1999/xlink" x="0px" y="0px"
	 viewBox="0 0 50 50" style="enable-background:new 0 0 50 50;" xml:space="preserve">
<style type="text/css">
	.st0{fill:#F799FF;}
	.st1{fill:#E589EF;}
	.st2{fill:none;stroke:#444444;stroke-linecap:round;stroke-linejoin:round;stroke-miterlimit:10;}
	.st3{fill:none;stroke:#444444;stroke-width:0.5;stroke-linecap:round;stroke-linejoin:round;stroke-miterlimit:10;}
	.st4{fill:none;stroke:#444444;stroke-width:2.5;stroke-linecap:round;stroke-linejoin:round;stroke-miterlimit:10;}
</style>
<g>
	<g>
		<path class="st0" d="M32.41,4.27l-5.09-1.89c-0.02,0-0.04,0-0.06,0c-3.23,0-12.46-0.57-19.33,9.27C7.9,11.7,6.78,14.34,6.76,14.4
			l-2.25,2.38c-0.19,0.52,0.18,4.45-1.33,6.15L41.73,9.36c0.5-0.18-2.51-0.81-2.93-1.13L36.5,4C36.41,3.93,32.53,4.28,32.41,4.27z"
			/>
		<path class="st1" d="M1.72,23.49l0.59,8.06l4.19,3.82c0.11,0.36,4.05,7,4.36,7.2l4.23,3.6l29.4-11.07
			c1.78-1.17,3.24-10.44,1.68-14.4c0.84-3.12-2.23-6.58-2.76-7.2l-1.68-4.2L1.72,23.49z"/>
	</g>
	<path class="st2" d="M13.62,31.62L6.19,33.6C5.11,33.89,4,33.25,3.71,32.18l-1.27-4.74c-0.29-1.08,0.35-2.18,1.43-2.47l7.43-1.98
		l1.55,5.76"/>
	<path class="st2" d="M13.62,31.62c5.87-1.57,13.02-0.44,15.27,2.09l-5.42-20.15c-0.68,3.32-6.7,7.96-12.57,9.53"/>
	<line class="st3" x1="5.57" y1="27.6" x2="9.19" y2="26.63"/>
	<line class="st3" x1="6.35" y1="30.48" x2="9.96" y2="29.51"/>
	<path class="st2" d="M11.46,32.2l7.36,12.58c0.62,1.06,0.06,2.41-1.13,2.72l0,0c-0.76,0.2-1.56-0.09-2.01-0.73L6.4,33.55"/>
	<path class="st2" d="M15.11,31.38l0.54,2.02c0.21,0.79-0.26,1.61-1.06,1.82l-0.72,0.19"/>
	<path class="st4" d="M43.24,35.18l3.58-2.57l-1.12-4.3l2.5-3.66L45.7,21l1.12-4.3l-3.58-2.57l-0.4-4.43l-4.23-1.17L36.74,4.5
		l-4.37,0.36l-3.11-3.13L25.28,3.6L21.3,1.74l-3.12,3.13L13.82,4.5l-1.87,4.02L7.73,9.7l-0.41,4.43l-3.58,2.57l0.84,5l-1.77,2.01
		c-1.08,1.22-1.46,2.91-1.03,4.48l1.2,4.4c0.37,1.35,1.7,2.19,3.08,1.95h0l8.63,12.36c0.22,0.29,0.54,0.64,0.91,0.95
		c0.61,0.52,3.75,1.59,4.41-1.83l0,0c0,0,0,0,0,0l0,0l1.58,1.55l3.7-1.87l3.98,1.87l3.12-3.13"/>
	<g id="viral_1_">
		<path class="st3" d="M37.3,7c-1.14,0.37-2.36-0.26-2.73-1.4"/>
		<circle class="st3" cx="41.11" cy="18.88" r="2.17"/>
		<circle class="st3" cx="31.72" cy="14.48" r="2.17"/>
		<path class="st3" d="M43.51,33.5c-0.37-1.14,0.26-2.36,1.4-2.73"/>
		<line class="st3" x1="34.53" y1="9.03" x2="33.83" y2="10.39"/>
		<line class="st3" x1="39" y1="22.98" x2="38.3" y2="24.34"/>
		<circle class="st3" cx="36.02" cy="27.92" r="2.17"/>
		<line class="st3" x1="40.12" y1="30.03" x2="41.48" y2="30.73"/>
		<line class="st3" x1="35.65" y1="16.07" x2="37.01" y2="16.78"/>
		<path class="st3" d="M27.3,25.59c1.14-0.37,1.77-1.59,1.4-2.73c-0.37-1.14-1.59-1.77-2.73-1.4"/>
		<circle class="st3" cx="31.72" cy="14.48" r="2.17"/>
		<line class="st3" x1="30.73" y1="25.63" x2="32.1" y2="26.33"/>
		<line class="st3" x1="29.45" y1="18.06" x2="28.75" y2="19.43"/>
	</g>
</g>
</svg>
