<svg xmlns="http://www.w3.org/2000/svg" id="Camada_3" x="0" y="0" version="1.1" viewBox="0 0 50 50" xml:space="preserve"><style>.st3{stroke-width:.5}.st3,.st4{fill:none;stroke:#444;stroke-linecap:round;stroke-linejoin:round;stroke-miterlimit:10}</style><path fill="#bf94f7" d="M39.36 7.21V2.49H11.74v18.66l27.62-9.83z"/><path fill="#a475ef" d="M11.16 21.15l.18 3.14-2.76 1.08v3.87l2.34 1.35.24 15.46 28.5-10.14-.88-2.27v-2.69l2.64-1.54v-4.03l-2.13-1.63-.51-12.43z"/><path fill="none" stroke="#444" stroke-linecap="round" stroke-linejoin="round" stroke-miterlimit="10" stroke-width="2.5" d="M38.99 42.85v3.39c0 1.24-1 2.24-2.24 2.24H13.27c-1.24 0-2.24-1-2.24-2.24v-16.1l-2.76-.27v-5.22l2.76-.36V3.76c0-1.23 1-2.24 2.24-2.24h23.48c1.24 0 2.24 1 2.24 2.24v20.53l2.73.12V30l-2.73.23v12.62z"/><path d="M35.82 14.84V6.85H14.2l.02 7.58" class="st3"/><path d="M35.82 22.71v-2.8m0 14.62v-2.82" class="st4"/><path d="M14.28 39.77v5.35h21.54v-5.53" class="st3"/><path d="M14.27 31.86l.01 3m-.04-14.17l.01 1.26" class="st4"/><path d="M27.15 5.29h-4.27c-.38 0-.69-.31-.69-.69 0-.38.31-.69.69-.69h4.27c.38 0 .69.31.69.69 0 .38-.31.69-.69.69z" class="st3"/><circle cx="25.03" cy="27.21" r="7.97" class="st3"/><path fill="none" stroke="#444" stroke-linecap="round" stroke-linejoin="round" stroke-miterlimit="10" stroke-width="1.5" d="M41.12 29.41v-4.39l-4.68-.39c-.3-1.29-.81-2.53-1.51-3.65l3.04-3.59-3.11-3.11-3.59 3.04c-1.12-.71-2.36-1.23-3.65-1.52l-.39-4.68h-4.39l-.39 4.68c-1.29.3-2.53.81-3.65 1.51l-3.59-3.04-3.11 3.11 3.04 3.59c-.71 1.12-1.23 2.36-1.52 3.65l-4.72.39v4.39l4.68.39c.3 1.29.81 2.53 1.51 3.65l-3.04 3.59 3.11 3.11 3.59-3.04c1.12.71 2.36 1.23 3.65 1.52l.39 4.68h4.39l.39-4.68c1.29-.3 2.53-.81 3.65-1.51l3.59 3.04 3.11-3.11-3.04-3.59c.71-1.12 1.23-2.36 1.52-3.65l4.72-.39z"/><circle cx="25" cy="24.76" r="2.81" fill="#444"/><path fill="#444" d="M25 28.17c-2.72 0-5.14 1.22-6.79 3.13 1.4 2.28 3.91 3.8 6.79 3.8 2.87 0 5.39-1.53 6.79-3.81-1.65-1.9-4.07-3.12-6.79-3.12z"/></svg>