<svg xmlns="http://www.w3.org/2000/svg" id="Camada_3" x="0" y="0" version="1.1" viewBox="0 0 50 50" xml:space="preserve"><style>.st5{stroke-width:.5;fill:none;stroke:#444;stroke-linecap:round;stroke-linejoin:round;stroke-miterlimit:10}</style><path fill="#00dffc" d="M36.6 9.7L8.9 9.5c-1.1 0-5.8 3.8-5.8 4.9l-.6 9.8 41.3-14-2 .1c0-1.1-4-.6-5.2-.6z"/><path fill="#00c8e2" d="M2.5 24.1l-.1 13.5c.3 1.9 4 4.5 5.9 4.7l9.8 1.1 30.4-10.8V16.1c0-4.1-4-6.9-7.9-5.5L2.5 24.1z"/><g fill="none" stroke="#444" stroke-miterlimit="10"><path stroke-linecap="round" stroke-linejoin="round" d="M14.7 22.3H3.3v-6c0-3.1 2.5-5.6 5.6-5.6h32.7c3.1 0 5.6 2.5 5.6 5.6v5.9H37"/><path stroke-width="2.5" d="M16.8 10.8V7c0-1.4 1.4-2.5 3.1-2.5h10.7c1.7 0 3.1 1.1 3.1 2.5v3.8"/></g><path fill="none" stroke="#444" stroke-linecap="round" stroke-linejoin="round" stroke-miterlimit="10" stroke-width="2.5" d="M40.5 43.4H10.3c-4.5 0-8.1-3.6-8.1-8.1V17.4c0-4.5 3.6-8.1 8.1-8.1h29.9c4.5 0 8.1 3.6 8.1 8.1v14.5"/><circle cx="11.4" cy="27.6" r="3.4" class="st5"/><circle cx="20.2" cy="20.1" r="3.4" class="st5"/><circle cx="31.1" cy="24" r="3.4" class="st5"/><circle cx="39.2" cy="16.5" r="3.4" class="st5"/><path d="M14 25.4l3.4-3.2m5.9-.7l4.5 2.5m6.4-1.9l2.7-2.9" class="st5"/><path fill="none" stroke="#444" stroke-linecap="round" stroke-linejoin="round" stroke-miterlimit="10" d="M11.3 33.3v10.2m9.5-18.2v18.2m10.6-14.2v14.2m8.7-20.1v20"/></svg>