<svg xmlns="http://www.w3.org/2000/svg" id="Camada_3" x="0" y="0" version="1.1" viewBox="0 0 50 50" xml:space="preserve"><style>.st4{fill:none;stroke:#444;stroke-linecap:round;stroke-linejoin:round;stroke-miterlimit:10}</style><path fill="#fcc34f" d="M45.73 9.52l-39.46.47c-1.54 0-1.57 4.23-1.57 5.77l-.2 2.02V34.5l-2.88.9c-.75.24.69 4.49 1.39 4.86 7.83 2.38 10.41.2 28.46 1.39l17.04-5.75V12.3a2.78 2.78 0 00-2.78-2.78z"/><path fill="none" fill-rule="evenodd" stroke="#444" stroke-linecap="round" stroke-linejoin="round" d="M5.48 35.45V12.64a3.38 3.38 0 013.39-3.39h36.37a3.38 3.38 0 013.39 3.39v22.81m-.14.91H31.48V37c0 .26-.25.47-.56.47H23.2c-.31 0-.56-.21-.56-.47v-.64H1.36c0 2.78 2.77 5.03 6.2 5.03h36.16" clip-rule="evenodd"/><path fill="none" fill-rule="evenodd" stroke="#444" stroke-linecap="round" stroke-linejoin="round" stroke-width=".5" d="M20.89 32.56v-5.55M25 32.56v-9.74m4.12 9.74v-7.07m4.11 7.07v-5.6m-20.58 5.6v-6.59m4.12 6.59v-8.24m20.58 8.24V24.3m4.11 8.26V21.95" clip-rule="evenodd"/><path fill="none" fill-rule="evenodd" stroke="#444" stroke-linecap="round" stroke-linejoin="round" stroke-width="2.5" d="M48.64 35.45V12.64a3.38 3.38 0 00-3.39-3.39H8.87a3.38 3.38 0 00-3.39 3.39v22.81H1.36c0 3.29 2.77 5.93 6.2 5.93h36.16" clip-rule="evenodd"/><path d="M33.52 15.64l.01-.01h-.03c-6.43-6.4-12.24-.43-12.64 0h-.02l.01.01-.01.01h.03c6.43 6.4 12.24.43 12.64 0h.02s-.01 0-.01-.01z" class="st4"/><circle cx="27.18" cy="15.06" r="2.01" class="st4"/></svg>