<svg xmlns="http://www.w3.org/2000/svg" id="Camada_3" x="0" y="0" version="1.1" viewBox="0 0 50 50" xml:space="preserve"><style>.st2,.st3{fill:none;stroke:#444;stroke-linecap:round;stroke-linejoin:round;stroke-miterlimit:10}.st3{stroke-width:.5}</style><path fill="#f799ff" d="M42.95 8.33l-34.86.68c-1.06 0-1.93.86-1.93 1.93l-.31 13.37 39.03-13.89v-.17c0-1.06-.86-1.92-1.93-1.92z"/><path fill="#e589ef" d="M6.02 32.28l-3.84 4.91c-.78 1.28-.17 3.49 1.33 3.55h22l19.37-6.89V10.42L5.85 24.31l.17 7.97z"/><path d="M3.07 37.59h45.38s.78 0 .78-.79M7.12 14.86H43.9M7.12 33H43.9" class="st2"/><path d="M25.11 35.29h.92m2.3 0h.92m-7.36 0h.92" class="st3"/><path fill="none" stroke="#444" stroke-linecap="round" stroke-linejoin="round" stroke-miterlimit="10" stroke-width="2.5" d="M48.46 36.76L45 32.91V12.54a3.53 3.53 0 00-3.53-3.53H9.55a3.53 3.53 0 00-3.53 3.53v20.37L1.63 37.8h.01c-.14.04-.25.16-.25.32v1.02c0 .96.78 1.74 1.74 1.74h38.11"/><circle cx="25.57" cy="12.53" r="1.04" fill="#444"/><path d="M16.55 25.74l6.64-4.85c.63-.46 1.52-.35 2.01.26l.73.9c.5.61 1.38.72 2.01.26l6.63-4.84" class="st2"/><path d="M16.82 28.89v.99m2.51-2.51v2.51m2.5-4.33v4.33m2.5-6.15v6.15m2.5-3.42v3.42m2.5-4.94v4.94m2.5-6.76v6.76m2.5-8.58v8.58m-17.42 0h17.42" class="st3"/></svg>