<svg xmlns="http://www.w3.org/2000/svg" id="Camada_3" x="0" y="0" version="1.1" viewBox="0 0 50 50" xml:space="preserve"><style>.st3{fill:none;stroke:#444;stroke-linecap:round;stroke-linejoin:round;stroke-miterlimit:10}</style><path fill="#fdcf72" d="M40.98 14.24h-7.02L33.6 8.5c1.71-2.69-.17-5.15-2.52-5.98-1.25-.44-7.2 5.76-2.61 5.4l-.18 6.33H7.68v14.14l34.99-12.45c0-.94-.76-1.7-1.69-1.7z"/><path fill="#fcc34f" d="M7.68 28.38V45.2c0 1 .99 1.7 1.94 1.37L42.67 34.8V15.93L7.68 28.38z"/><path fill="none" stroke="#444" stroke-linecap="round" stroke-linejoin="round" stroke-miterlimit="10" stroke-width="2.5" d="M42.08 40.92V18.13c0-2.49-2.01-4.5-4.5-4.5h-4.49V8.5h4.18l-6.32-6.71-6.16 6.71h3.96v5.14H12c-2.49 0-4.5 2.01-4.5 4.5v25.59c0 2.49 2.01 4.5 4.5 4.5h23.31"/><path d="M35.25 47.7v-6.36h-3.36v4.52h-4.32V29.64h-7.74v-2.46h9.54V22.2H15.09v-4.68l14.29-.07v9.73" class="st3"/><path d="M7.77 37.14h7.08v6.84h8.04v-4.26h-5.04v-2.88h5.4v-2.46H10.77v-5.19h4.32V25h-6.9v-7.48h4.62v4.68H7.33m34.75-4.68H33.5v2.42h3.55v8.51h-5.1v7.15h2.58v2.84h4.86v3.02h2.86" class="st3"/><path d="M41.43 30.75h-6.66v1.86h7.48M7.5 40.86h3.81v6" class="st3"/></svg>