<svg xmlns="http://www.w3.org/2000/svg" id="Camada_3" x="0" y="0" version="1.1" viewBox="0 0 50 50" xml:space="preserve"><style>.st2,.st3{fill:none;stroke:#444;stroke-miterlimit:10}.st2{stroke-linecap:round;stroke-linejoin:round}.st3{stroke-width:.5}</style><path fill="#fdcf72" d="M37.1 2.5l-6.7-.7c-.2-.1-.6 3.9-.7 3.7-2.6-2.4-4.4.7-7.8 3.1-.3.2-8-.4-8.3-.3l-7.7 3.1C5.2 11.9 2 17.1 2 18c-.1 3 .5 7 1.2 6.8l40.4-14.6c1-.3 2.8-3.9-1.9-6.1l-3.5.4c-.1 0-1.1-2-1.1-2z"/><path fill="#fcc34f" d="M2.7 24.7L2.3 33c4.1-1.5 11.6-.5 15.2.4l2.8 7.8-.6 5.6 27-9.6c3.9-1.4-4.7-10.8-4-11.3 4.1-3.2 1.1-7.8 4.5-8.1 1.1-.1.5-4.7-.3-5.4L44 9.8 2.7 24.7z"/><path d="M19.9 32c-1.6.4-3.6.4-4.1.4-2.7 0-5.2-.7-7.3-1.9l-6.1 1.9L4.5 27c-1.4-1.8-2.2-4-2.2-6.4 0-6.5 6-11.8 13.5-11.8 3.5 0 6.3 1.2 8.7 3.1m21.9 23.6c0-4.7-3.7-8.8-8.7-10.5" class="st2"/><path d="M26.3 25.1c-4 2-6.9 6-6.9 10.4 0 2.3.8 4.5 2.1 6.3L19.2 47l6.3-1.6c2.1 1.2 4.4 2.4 7.1 2.4 2.7 0 5.7-.7 7.9-1.9" class="st2"/><path d="M31.6 41.6c-.2 0-.5-.1-.7-.3l-4.4-4c-.4-.4-.4-1-.1-1.4.2-.2.5-.3.7-.3.2 0 .5.1.7.3l3.7 3.3 7.9-7.5c.2-.2.4-.3.7-.3.3 0 .5.1.7.3.4.4.4 1 0 1.4l-8.6 8.1c-.1.3-.4.4-.6.4z" class="st3"/><circle cx="15.2" cy="20.7" r="1.4" class="st3"/><circle cx="19.1" cy="20.7" r="1.4" class="st3"/><circle cx="11.3" cy="20.7" r="1.4" class="st3"/><path fill="none" stroke="#444" stroke-miterlimit="10" d="M34.8 28c.9 0 1.7-.2 2.5-.4V25c.9-.3 1.7-.7 2.5-1.2l1.9 1.6c1.4-1 2.6-2.1 3.5-3.6L43.3 20c.4-.8.8-1.7 1-2.7l2.6-.1c.1-.8.2-1.7.2-2.6 0-.9-.2-1.7-.4-2.5l-2.6.1c-.3-.9-.7-1.8-1.2-2.6l1.8-1.9c-1-1.4-2.3-2.6-3.8-3.5l-1.8 1.9c-.8-.4-1.7-.8-2.7-1l-.1-2.6c-.8-.1-1.7-.2-2.6-.2-.9 0-1.7.2-2.5.4l.1 2.6c-.8.3-1.8.7-2.6 1.2l-1.9-1.8c-1.2 1-2.6 2.3-3.5 3.8l1.9 1.8c-.4.8-.8 1.7-1 2.7l-2.6.1c-.1.8-.2 1.7-.2 2.6 0 .9.2 1.7.4 2.5l2.6-.1c.1.8.7 1.8 1.2 2.6l-1.8 1.9c1 1.4 2.6 2.7 3.8 3.5l1.8-1.9c.7.3 1.7.8 2.7 1l.1 2.6c.9.2 1.8.2 2.6.2z"/><circle cx="34.3" cy="15.2" r="3.1" class="st3"/><path fill="none" stroke="#444" stroke-linecap="round" stroke-linejoin="round" stroke-miterlimit="10" stroke-width="2.5" d="M47 36.7c.2-1.5.1-3.1-.4-4.6-1.2-3.6-5.7-6.6-6.4-7.1-.1-.1 1.5 1.2 1.7 1.1 1.6-.3 4.5-4.3 4.3-4.5l-1.6-1.9.4-1.7 2.6-.1s1-4.2-.5-7.1l-2.3.4-.8-1.7 1.7-2S43.4 3.6 40.9 3l-1.7 1.8-1.8-.5-.3-2.3s-5.1-.8-6.7.3v2.5l-1.5.7-2-1.7s-3.7 1.9-4.7 4.9l1.8 1.7s-4.6-3.6-12.7-1.7c-3 .7-5.2 2.5-6.7 4.1-2.7 3-3.6 6.1-2.8 10.1.2 1.2 1 3.4 1.8 4.2L2 31.3c-.4.9.5 1.8 1.5 1.5l5-1.5s3 2.2 10.2 1.9c0 0-1.4 4.5 1.9 8.8l-1.7 3.6c-.5 1 .4 2.1 1.5 1.9l5.1-1.2c6.9 4.3 12.7 1.4 15 0"/></svg>