<svg xmlns="http://www.w3.org/2000/svg" id="Camada_3" x="0" y="0" version="1.1" viewBox="0 0 50 50" xml:space="preserve"><style>.st2,.st3,.st7{fill:none;stroke:#444;stroke-miterlimit:10}.st3,.st7{stroke-linecap:round;stroke-width:2.5}.st7{stroke-width:.5;stroke-linejoin:round}</style><path fill="#00dffc" d="M44.72 6.45L8.95 5.27c-4.11 0-7.44 3.33-7.44 7.44v11.12L47.44 7.48l-2.72-1.03z"/><path fill="#00c8e2" d="M1.62 20.85l.53 15.7c10.07 4.5 4.33 4.15 6.97 3.21l3.81.03 35.44-12.61c1.03-.37.1.16 0-.93V10.69c-.35-1.43-3.28-4.36-4.67-3.9L1.62 20.85z"/><path d="M19.56 38.98h11.33v2.06H19.56zm19.68 4.73h-28.6c-.64 0-1.15-.52-1.15-1.15v-.36c0-.64.52-1.15 1.15-1.15h28.6c.64 0 1.15.52 1.15 1.15v.36c0 .63-.51 1.15-1.15 1.15zm5.63-14.16v2.04c0 .74-.6 1.35-1.35 1.35H6.36c-.74 0-1.35-.6-1.35-1.35V12.03c0-.74.6-1.35 1.35-1.35h37.16c.74 0 1.35.6 1.35 1.35v17.52z" class="st2"/><circle cx="24.94" cy="35.56" r=".99" class="st2"/><path d="M48.37 34.8s-.86 4.95-6.39 4.95H31.73" class="st3"/><path fill="none" stroke="#444" stroke-miterlimit="10" stroke-width="2.5" d="M19.42 39.76h-8.24s-2.51-.31-2.51 2.61c0 2.02 1.72 2.36 1.72 2.36l28.55-.1s2.51.1 2.51-2.26c0-2.86-3.77-2.22-3.77-2.22"/><path d="M11.18 39.76c-4.87 0-6.9 0-8.55-2.36-1.25-1.77-1.1-4.47-1.1-4.47s.12-13.58.12-20.73c0-5.71 4.17-5.82 4.17-5.82s33.71-.15 37.97-.03 4.58 4.34 4.58 4.34v15.57" class="st3"/><path fill="none" stroke="#444" stroke-linecap="round" stroke-miterlimit="10" d="M30.89 38.98h12.43"/><circle cx="38.18" cy="14.05" r="1.33" fill="#444"/><path d="M34.91 10.73l-2.82 6.45c-.35.8.24 1.7 1.11 1.7h1.71v2.46c0 .22.18.4.4.4h2.72s.64 4.27-2.57 4.23c0 1.46 1.19 2.65 2.65 2.65h3.87v4.32" class="st2"/><path d="M27.55 18.9c-.88 1.51-1.38 3.27-1.38 5.15 0 2.93 1.23 5.57 3.19 7.44m2.59-9.86a5.12 5.12 0 00-.69 2.57c0 1.46.61 2.78 1.6 3.72m-3.04-7.61a7.206 7.206 0 00-.98 3.66c0 2.08.87 3.96 2.27 5.28" class="st7"/><path fill="none" stroke="#444" stroke-linecap="round" stroke-linejoin="round" stroke-miterlimit="10" d="M8.12 14.05h9.24"/><path d="M8.12 17.8h11.8m-11.8 1.89h12.56m-12.56 1.9h12.56M8.12 23.48H19.4m-11.28 1.9h13.27M8.12 27.27h12.89m-12.89 1.9h8.58" class="st7"/></svg>