<svg xmlns="http://www.w3.org/2000/svg" id="Camada_3" x="0" y="0" version="1.1" viewBox="0 0 50 50" xml:space="preserve"><style>.st4{fill:none;stroke:#444;stroke-miterlimit:10}.st5{fill:#444}</style><path fill="#00dffc" d="M36.29 4.42l7.42 5.6 1.96 6.83L1.75 32.87l.91-13.9L8.54 8.61l14.05-6.43z"/><path fill="#00c8e2" d="M47.87 20.96l.5 8.97-38.9 13.99L6.8 41.4l-2.98-5.35-2.18-8.1 42.58-16.36 2.18 4.24z"/><path fill="#444" stroke="#444" stroke-miterlimit="10" d="M13.64 25.73V20.6"/><circle cx="13.64" cy="17.58" r="2.76" fill="none" stroke="#444" stroke-miterlimit="10" stroke-width=".5"/><path d="M34.51 25.73h1.2c1.88 0 3.41 1.53 3.41 3.41V43.5c0 1.88-1.53 3.41-3.41 3.41H14.29c-1.88 0-3.41-1.53-3.41-3.41V29.13c0-1.88 1.53-3.41 3.41-3.41h17.28" class="st4"/><path d="M10.88 39.93h-.83c-1.75 0-3.17-1.42-3.17-3.17v-2.73c0-1.75 1.42-3.17 3.17-3.17h.83v9.07zm28.24 0h.83c1.75 0 3.17-1.42 3.17-3.17v-2.73c0-1.75-1.42-3.17-3.17-3.17h-.83v9.07z" class="st4"/><circle cx="19.22" cy="34.32" r="1.77" class="st5"/><circle cx="23.22" cy="16.21" r="1.4" class="st5"/><circle cx="28.72" cy="16.21" r="1.4" class="st5"/><circle cx="34.22" cy="16.21" r="1.4" class="st5"/><circle cx="30.42" cy="34.32" r="1.77" class="st5"/><path fill="none" stroke="#444" stroke-linecap="round" stroke-linejoin="round" stroke-miterlimit="10" stroke-width=".5" d="M20.26 39.82s4.63 4.48 9.11 0M35 8.6H22.44c-2 0-3.62 1.62-3.62 3.62v7.32c0 2 1.62 3.62 3.62 3.62h7.52l4.54 7.26v-7.26h.5c2 0 3.62-1.62 3.62-3.62v-7.32C38.62 10.23 37 8.6 35 8.6z"/><path fill="none" stroke="#444" stroke-linecap="round" stroke-miterlimit="10" stroke-width="2.5" d="M39.91 45.04s-1.62 2.78-3.59 2.78H13.91c-2.89 0-4-3.19-4-3.19-5.72-4.3-8.46-11.2-8.46-18.91C1.45 12.72 12 2.18 25 2.18s23.55 10.54 23.55 23.55c0 2.55-.26 5-.8 7.3"/></svg>