<svg xmlns="http://www.w3.org/2000/svg" id="Layer_1" x="0" y="0" version="1.1" viewBox="0 0 50 50" xml:space="preserve"><style>.st2{fill:#031326}</style><path fill="#f56991" d="M42.5 9.3c0-2.9-2.3-5.2-5.2-5.2H6C3.1 4.1.8 6.4.8 9.3v15.3L42.5 9.4v-.1z"/><path fill="#dc5e82" d="M42.5 27.3l3.4-3.4c1.5-1.5 1.5-4.1 0-5.6-.9-.9-2.2-1.3-3.4-1.1V9.4L.8 24.6v16c0 2.1 1.2 3.9 3 4.7l29.7-11 7.1-5 1.4 1.3.5.6v-3.9z"/><path d="M41 13.2H2.3c-.3 0-.5-.2-.5-.5s.2-.5.5-.5H41c.3 0 .5.2.5.5s-.2.5-.5.5z" class="st2"/><circle cx="29.9" cy="9.2" r="1" class="st2"/><circle cx="33.5" cy="9.2" r="1" class="st2"/><circle cx="37.2" cy="9.2" r="1" class="st2"/><path d="M34.6 39.9H6.9c-.3 0-.5-.2-.5-.5s.2-.5.5-.5h27.7c.3 0 .5.2.5.5s-.2.5-.5.5zm-11-3.2H6.9c-.3 0-.5-.2-.5-.5s.2-.5.5-.5h16.6c.3 0 .5.2.5.5s-.1.5-.4.5zm-3.8-3H6.9c-.3 0-.5-.2-.5-.5s.2-.5.5-.5h12.9c.3 0 .5.2.5.5s-.2.5-.5.5zm-9.2-24H5.9c-.3 0-.5-.2-.5-.5s.2-.5.5-.5h4.7c.3 0 .5.2.5.5s-.2.5-.5.5zm16.6 27.8l.3-1.7c.2-1.2.9-5.1 2.1-6.4l11.6-11.6c1.6-1.6 4.1-1.6 5.7 0 1.6 1.6 1.6 4.1 0 5.7L35.2 35.1c-1.3 1.3-5.2 2-6.4 2.1l-1.6.3zM44 19.2c-.4 0-.8.2-1.1.4L31.3 31.2c-.3.3-.8 1.7-1.1 3.2 1.6-.4 2.9-.8 3.2-1.1L45 21.7c.3-.3.4-.7.4-1.1 0-.4-.2-.8-.4-1.1s-.6-.3-1-.3z" class="st2"/><path d="M35.3 34h-1.5c0-1.4-.2-1.9-.8-2.4-.5-.5-1-.8-2.4-.8v-1.5c1.7 0 2.6.3 3.5 1.2.9 1 1.2 1.9 1.2 3.5zm8.9-3.9c-.2 0-.4-.1-.5-.2-.3-.3-.3-.8 0-1.1l3.4-3.4-.5-.4c-.3-.3-.3-.8 0-1.1s.8-.3 1.1 0l1.5 1.5-4.4 4.4c-.2.3-.4.3-.6.3z" class="st2"/><path d="M46.5 18.2c-.9-.9-2.2-1.3-3.5-1.1v-8c0-2.9-2.4-5.2-5.2-5.2H6C3.1 3.9.8 6.3.8 9.1v31.8c0 2.9 2.4 5.2 5.2 5.2h31.8c2.9 0 5.2-2.4 5.2-5.2V27.3l3.5-3.5c1.6-1.5 1.6-4 0-5.6zm-1.8 3.9L43 23.8l-2.5 2.5v14.5c0 1.5-1.2 2.8-2.8 2.8H6c-1.5 0-2.8-1.2-2.8-2.8V9.1c0-1.5 1.2-2.8 2.8-2.8h31.8c1.5 0 2.8 1.2 2.8 2.8V22l2-2c.1-.1.3-.2.5-.3.2-.1.4-.1.6-.1.4 0 .8.1 1.1.4.5.6.5 1.5-.1 2.1z" class="st2"/><path d="M5.9 17.9h2.3V24c0 1 0 1.6.1 1.9.1.5.3.8.7 1.1s.9.4 1.5.4 1.1-.1 1.5-.4c.3-.3.5-.6.6-1 .1-.4.1-1 .1-1.9v-6.2H15v5.9c0 1.4-.1 2.3-.2 2.9-.1.6-.4 1-.7 1.4-.3.4-.8.7-1.3.9-.6.2-1.3.3-2.2.3-1.1 0-1.9-.1-2.5-.4-.6-.2-1-.6-1.3-1-.3-.4-.5-.8-.6-1.3C6.1 26 6 25 6 23.7v-5.8zm10.3 11.3l3.9-5.9-3.5-5.4h2.7l2.3 3.6 2.2-3.6h2.6l-3.5 5.5 3.9 5.8h-2.7l-2.5-3.9-2.5 3.9h-2.9z" class="st2"/></svg>