<svg xmlns="http://www.w3.org/2000/svg" id="Camada_3" x="0" y="0" version="1.1" viewBox="0 0 50 50" xml:space="preserve"><style>.st2{stroke-linecap:round;stroke-linejoin:round}.st2,.st4,.st5{fill:none;stroke:#444;stroke-miterlimit:10}.st5{stroke-linecap:round;stroke-width:2.5}</style><path fill="#f56991" d="M42.69 6.9L8.73 5.78c-3.9 0-7.06 3.16-7.06 7.06V23.4L45.28 7.88l-2.59-.98z"/><path fill="#dc5e82" d="M1.76 20.57l.51 14.91c9.56 4.27 4.11 3.94 6.62 3.05l3.62.03 33.65-11.97c.98-.35.1.15 0-.88V10.92c-.33-1.35-3.11-4.14-4.44-3.7L1.76 20.57z"/><path d="M47.79 28.41c-1.87-1.83-3.62-2.6-3.62-2.6l-6.59-3.09m-.99 2.98l2.93 1.29c1.04.46 2.06.98 3 1.63 2.03 1.39 3.36 2.84 4.32 4.85" class="st2"/><path d="M37.58 22.72l2.75-4.19-12.19 1.91 7.48 10.49.97-5.23" class="st2"/><path fill="none" stroke="#444" stroke-linecap="round" stroke-linejoin="round" stroke-miterlimit="10" stroke-width=".5" d="M25.94 23.04l-1.67.69m4.2-6.82l-.64-1.55m-2.26 3.83l-1.66-.68"/><path d="M45.36 31.13v1.57c0 2.06-1.66 3.74-3.72 3.77l-35.1.49a3.77 3.77 0 01-3.82-3.77V11.43c0-2.08 1.69-3.77 3.77-3.77h35.1c2.08 0 3.77 1.69 3.77 3.77v15.04M18.8 36.79h10.76v2.96H18.8zm18.63 5.49H10.39c-.64 0-1.15-.52-1.15-1.15v-.23c0-.64.52-1.15 1.15-1.15h27.04c.64 0 1.15.52 1.15 1.15v.23c0 .64-.51 1.15-1.15 1.15z" class="st4"/><path d="M42.83 28.84v1.93c0 .71-.57 1.28-1.28 1.28H6.27c-.71 0-1.28-.57-1.28-1.28V12.2c0-.71.57-1.28 1.28-1.28h35.28c.71 0 1.28.57 1.28 1.28v12.98" class="st4"/><circle cx="23.91" cy="34.54" r=".94" class="st4"/><path d="M28.89 21.49H13.52c-.93 0-1.69-.76-1.69-1.69v-4.4c0-.93.76-1.69 1.69-1.69h21.73c.93 0 1.69.76 1.69 1.69v3.66" class="st4"/><path d="M46.15 33.82s-.58 3.98-5.82 3.98c-.48 0-1.88.47-2.38.47H30.6" class="st5"/><path fill="none" stroke="#444" stroke-miterlimit="10" stroke-width="2.5" d="M18.66 38.53h-7.82s-2.39-.3-2.39 2.48c0 1.92 1.64 2.24 1.64 2.24l27.11-.1s2.39.1 2.39-2.14c0-2.72-3.58-2.1-3.58-2.1"/><path d="M10.84 38.53c-4.62 0-6.55 0-8.12-2.24-1.18-1.68-1.05-4.25-1.05-4.25s.12-12.9.12-19.68c0-5.42 3.96-5.53 3.96-5.53s32.01-.14 36.05-.03c4.04.11 4.35 4.12 4.35 4.12V25.7l2.18 2.18" class="st5"/></svg>