<svg xmlns="http://www.w3.org/2000/svg" id="Camada_3" x="0" y="0" version="1.1" viewBox="0 0 50 50" xml:space="preserve"><style>.st6{fill:none;stroke:#444;stroke-linecap:round;stroke-linejoin:round;stroke-miterlimit:10}</style><path fill="#f56991" d="M47.25 4.14H1.82V22.5L47.25 6.33z"/><path fill="#dc5e82" d="M1.82 22.5v24.51l45.43-16.17V6.33z"/><path fill="none" stroke="#444" stroke-linecap="round" stroke-linejoin="round" stroke-miterlimit="10" stroke-width="2.5" d="M30.05 47.01H3.95C2.23 47.01.8 45.59.8 43.86V7.14c0-1.72 1.42-3.15 3.15-3.15h41.09c1.72 0 3.15 1.42 3.15 3.15v26.49"/><path fill="none" stroke="#444" stroke-linejoin="round" stroke-miterlimit="10" stroke-width=".5" d="M25.78 31.18h2.99v3.99c0 .69.85 1.01 1.31.49L34 31.18h5.23c.82 0 1.49-.67 1.49-1.49V10.28c0-.82-.67-1.49-1.49-1.49H13.84c-.82 0-1.49.67-1.49 1.49v17.19"/><path fill="none" stroke="#444" stroke-linecap="round" stroke-miterlimit="10" stroke-width=".5" d="M31.75 18.55v2.34c0 1.18-.96 2.14-2.14 2.14h-6.17c-1.18 0-2.14-.96-2.14-2.14v-5.42c0-1.18.96-2.14 2.14-2.14h5.32"/><path fill="none" stroke="#444" stroke-linecap="round" stroke-miterlimit="10" d="M24.29 17.8l2.24 2.24 5.97-6.72"/><path d="M23.02 29.66l-1.06-1.06c-.33-.33-1.06-.64-1.58-.53l-1.06-1.06c-.49-.49-1.52-.59-2.11 0l-1.06-1.06c-.49-.49-1.52-.59-2.11 0l-5.28 5.28c-1.07 1.07-.87 2.98-1.58 3.7l-.53.53" class="st6"/><path d="M19.86 32.82l6.86-6.86c.58-.58 1.53-.58 2.11 0 .58.58.58 1.53 0 2.11l-7.92 7.92.03 1.38 3.52-.76c2.01-.32 2.65 1.63 2.14 2.14 0 0-6.18 2.98-6.77 3.11-.95.21-3.74.01-4.19.46l-1.06 1.06m5.8-15.31l-2.64 2.64m-.52-3.69l-2.11 2.11m-2.12 17.95l2.64-2.64L5.6 34.41l-4.8 4.8v5.23c.31 2.11 1.8 2.46 3.92 2.64h8.27z" class="st6"/><path fill="none" stroke="#444" stroke-linecap="round" stroke-linejoin="round" stroke-miterlimit="10" stroke-width=".5" d="M11.94 44.97l-1.06-1.06"/></svg>