<svg xmlns="http://www.w3.org/2000/svg" version="1.0" viewBox="0 0 50 50"><path fill="#FCC34F" d="M44.131 27.864c1.662-2.115 1.221-5.414-1.335-6.89L11.851 3.109c-3.098-1.789-6.97.447-6.97 4.024V42.15l39.25-14.286z"/><path fill="#FDCF72" d="M31.642 14.535L11.851 3.109c-3.098-1.789-6.97.447-6.97 4.024v17.142l26.761-9.74z"/><g fill="#031326"><path d="M12.498 19.661c0-1.354.699-2.567 1.87-3.244a3.712 3.712 0 013.748.001l9.258 5.345v9.336c0 .607.313 1.15.84 1.454.263.152.551.229.84.229.288 0 .576-.076.839-.228l8.086-4.669 2.514 1.451a.103.103 0 00.14-.037.103.103 0 00-.038-.14l-2.411-1.392 2.057-1.187c.525-.304.84-.848.84-1.455s-.314-1.15-.84-1.454l-10.348-5.975a1.662 1.662 0 00-1.679 0c-.526.304-.84.847-.84 1.454v2.376l-9.155-5.286a3.908 3.908 0 00-3.953 0 3.91 3.91 0 00-1.971 3.421l.004 5.363.205.123-.006-5.486zm17.269 12.676a1.416 1.416 0 01-1.429 0 1.418 1.418 0 01-.715-1.238v-9.192l10.104 5.834-7.96 4.596zM27.623 19.15c0-.517.267-.979.715-1.237a1.419 1.419 0 011.429 0l10.348 5.975c.447.258.715.721.715 1.237s-.268.979-.715 1.238l-2.182 1.26-10.31-5.953v-2.52z"/><path d="M46.262 23.867a5.803 5.803 0 00-2.841-3.975L12.477 2.026a5.837 5.837 0 00-5.897 0 5.836 5.836 0 00-2.949 5.107v35.732a5.835 5.835 0 002.948 5.106c.924.533 1.937.8 2.95.8a5.893 5.893 0 002.948-.799l17.89-10.328a1.25 1.25 0 00.458-1.708 1.59 1.59 0 00-.569-.544L12.502 25.146V45.07l-.205.118V25.024l-6.166-3.561V7.133c0-1.229.635-2.328 1.699-2.942a3.365 3.365 0 013.397 0l30.944 17.866a3.34 3.34 0 011.636 2.283 3.409 3.409 0 01-.653 2.755 1.25 1.25 0 101.965 1.545 5.907 5.907 0 001.143-4.773z"/></g></svg>