<svg xmlns="http://www.w3.org/2000/svg" id="Layer_1" x="0" y="0" version="1.1" viewBox="0 0 50 50" xml:space="preserve"><style>.st0{fill:#fc9d9a}.st1{fill:#e28d8a}</style><circle cx="38.7" cy="6.7" r="3.5" class="st0"/><circle cx="43.2" cy="19.6" r="2.3" class="st1"/><path d="M27 27.8L5.8 35.6l-2.4-4.9 2.5-6.2-1.6-4.1 22.3-8.5.4 15.9zM40.9 10l-4.2.4-1.5.5 1.4-3 6-2-1.7 4.1z" class="st1"/><path d="M26.6 12.1L3.8 20.8l.3-7.2 5.9-7 4.6-.4 5.9-4.6 5.8 3.9.3 6.6z" class="st0"/><path fill="#444" d="M43.3 15.3c-1.9 0-3.6 1.3-4.1 3.1H27.8v-3.6h4.9c.3 0 .6-.1.9-.4l3.2-3.2c.6.3 1.3.5 2 .5 2.4 0 4.3-1.9 4.3-4.3s-2-4.3-4.3-4.3c-2.4 0-4.3 1.9-4.3 4.3 0 .7.2 1.4.5 2l-2.8 2.8h-4.3V7.7C27.6 3.9 24.4 1 20.6.9c-3 0-5.7 1.8-6.8 4.6-6.4.3-11.4 5.4-11.4 11.8 0 2.5.8 4.9 2.2 7-2.5 2.4-3 6.3-1 9.3.2.4.4.6.6.9-1.5 6.1 2.1 12.3 8.1 14.2 1.2.4 2.3.5 3.5.5 5.1 0 9.8-3.3 11.4-8.4.2-.7.4-1.5.5-2.2h4.4l2.8 2.8c-.3.6-.5 1.3-.5 2 0 2.4 1.9 4.3 4.3 4.3s4.3-1.9 4.3-4.3-1.9-4.4-4.3-4.4c-.7 0-1.4.2-2 .5l-3.2-3.2c-.2-.2-.6-.4-.9-.4h-6.1c-.7 0-1.2.6-1.2 1.2 0 .9-.1 1.9-.4 2.8-.7 2.4-2.4 4.4-4.6 5.6-2.2 1.2-4.8 1.4-7.2.7-5-1.5-7.8-6.8-6.3-11.8.1-.5 0-1-.4-1.3-.2-.3-.5-.6-.7-1-1.3-1.9-1-4.5.6-6 1.9 1.7 4.3 2.8 6.9 3.1.1.8.4 1.7.9 2.5 1 1.7 2.6 3 4.6 3.5h.3c.6 0 1.1-.4 1.2-.9.2-.7-.2-1.3-.9-1.5-1.3-.3-2.4-1.1-3-2.3-1.3-2.3-.5-5.3 1.8-6.6.6-.3.8-1.1.5-1.7s-1.1-.8-1.7-.5c-1.9 1.1-3.2 3-3.6 5-2.3-.3-4.4-1.4-5.9-3.1-1.6-1.7-2.4-4-2.4-6.3 0-2.5 1-4.9 2.8-6.7s4.1-2.7 6.7-2.7h.2c.6 0 1.1-.4 1.2-.9.5-2.2 2.5-3.7 4.7-3.7 2.7 0 4.8 2.2 4.8 4.9v22.1c0 .7.6 1.2 1.2 1.2h8.1c.5 1.8 2.2 3.1 4.1 3.1 2.4 0 4.3-1.9 4.3-4.3S41.2 26 38.8 26c-1.9 0-3.6 1.3-4.1 3.1h-6.9v-8.2h11.4c.5 1.8 2.2 3.1 4.1 3.1 2.4 0 4.3-1.9 4.3-4.3s-1.9-4.4-4.3-4.4zm-4.5-9.6c1 0 1.8.8 1.8 1.8s-.8 1.8-1.8 1.8S37 8.4 37 7.5s.8-1.8 1.8-1.8zm1.8 37.5c0 1-.8 1.8-1.8 1.8s-1.8-.8-1.8-1.8.8-1.8 1.8-1.8 1.8 1 1.8 1.8zm-1.8-14.7c1 0 1.8.8 1.8 1.8s-.8 1.8-1.8 1.8-1.8-.8-1.8-1.8.8-1.8 1.8-1.8zm4.5-7.1c-1 0-1.8-.8-1.8-1.8s.8-1.8 1.8-1.8 1.8.8 1.8 1.8-.8 1.8-1.8 1.8z"/></svg>