<svg xmlns="http://www.w3.org/2000/svg" xmlns:xlink="http://www.w3.org/1999/xlink" viewBox="0 0 49 51"><defs><path id="a" d="M0 50h48.241V.582H0z"/></defs><g fill="none" fill-rule="evenodd"><path fill="#FCC34F" d="M1.116 31.367l-.233 4.997.066 8.697 45.816-15.252-.494-4.132-.136-5.953.622-3.55z"/><path fill="#FDCF72" d="M47.19 9.295l-.388 7.396L2.067 31.583l-.214-9.396.227-4.246L47.158 2.934z"/><g transform="translate(0 .418)"><path stroke="#031326" stroke-linecap="round" stroke-linejoin="round" stroke-width="2.5" d="M9.466 48.75H1.25V1.832h45.74v27.45"/><path fill="#031326" d="M26.995 40.575c0 .953-.773 1.727-1.727 1.727h-1.15v-.577a.575.575 0 00-1.15 0v.577H12.613v-.577a.576.576 0 00-1.152 0v.577h-1.15a1.727 1.727 0 01-1.726-1.727V40h18.41v.575zm.575-1.726h-1.15v-5.638a.575.575 0 00-1.152 0v5.638H10.311V27.343h4.787a.576.576 0 100-1.15H9.735a.576.576 0 00-.574.574V38.85H8.01a.576.576 0 00-.576.576v1.15a2.877 2.877 0 002.877 2.877h14.957a2.877 2.877 0 002.877-2.877v-1.15a.575.575 0 00-.576-.576zm9.781-26.464h1.15a.576.576 0 000-1.15h-1.15c-.953 0-1.727.772-1.727 1.725v.575h-.575a.576.576 0 000 1.151h.575v1.726a.576.576 0 001.152 0v-1.726h.575a.576.576 0 000-1.15h-.575v-.576c0-.318.257-.575.575-.575"/><path fill="#031326" d="M40.227 8.933h-6.903c-.953 0-1.726.773-1.726 1.726v1.15a.575.575 0 101.15 0v-1.15c0-.318.258-.575.576-.575h6.903c.318 0 .576.257.576.575v6.904a.575.575 0 01-.576.575h-6.903a.575.575 0 01-.576-.575v-3.452a.574.574 0 10-1.15 0v3.452c0 .953.773 1.726 1.726 1.726h6.903c.954 0 1.727-.773 1.727-1.726V10.66c0-.953-.773-1.726-1.727-1.726m-2.301 23.011a1.151 1.151 0 11-2.302 0 1.151 1.151 0 012.302 0m-3.452 0a2.302 2.302 0 104.604 0 2.302 2.302 0 00-4.604 0"/><path fill="#031326" d="M40.227 26.768h-6.903c-.953 0-1.726.773-1.726 1.727v6.903c0 .953.773 1.725 1.726 1.725h6.903c.954 0 1.727-.772 1.727-1.725v-1.151a.576.576 0 00-1.151 0v1.15a.576.576 0 01-.576.576h-6.903a.576.576 0 01-.576-.575v-6.903c0-.32.258-.576.576-.576h6.903c.318 0 .576.257.576.576v3.45a.575.575 0 101.151 0v-3.45c0-.954-.773-1.727-1.727-1.727M21.242 12.742l1.588.794-1.588.794v-1.588zm-.88 3.009a.565.565 0 00.564.023l3.451-1.726a.575.575 0 000-1.024l-3.45-1.726a.575.575 0 00-.835.512v3.452a.572.572 0 00.27.489z"/><path fill="#031326" d="M21.817 9.508a4.027 4.027 0 110 8.055 4.027 4.027 0 010-8.055m0 9.205a5.178 5.178 0 10.001-10.355 5.178 5.178 0 000 10.355m5.752 2.302a.574.574 0 00.46-.23l1.727-2.301a.576.576 0 00-.92-.691l-1.726 2.302a.575.575 0 00.46.92m1.265 2.071a.574.574 0 00.806.115l2.3-1.726a.577.577 0 00.116-.806.577.577 0 00-.806-.114l-2.3 1.725a.576.576 0 00-.116.806m5.638 1.266a.576.576 0 00-.668-.465l-.022.005-2.876.575a.577.577 0 10.115 1.15h.114l2.877-.575a.575.575 0 00.465-.668l-.005-.022"/><mask id="b" fill="#fff"><use xlink:href="#a"/></mask><path fill="#031326" d="M8.585 23.316h5.753v-8.054H8.585v8.054zm-.575 1.151h6.903a.576.576 0 00.576-.576v-9.204a.576.576 0 00-.576-.576H8.01a.576.576 0 00-.576.576v9.204c0 .318.258.576.576.576z" mask="url(#b)"/><path fill="#031326" d="M12.612 16.412h-1.15a.576.576 0 000 1.151h1.15a.576.576 0 100-1.15m0 2.3h-2.3a.575.575 0 000 1.151h2.3a.576.576 0 100-1.15m0 2.301h-2.3a.575.575 0 000 1.15h2.3a.576.576 0 000-1.15m8.434 14.722a.575.575 0 01.058.437.577.577 0 01-1.053.138l-1.15-1.996.954-.547h.046l1.145 1.968zm-7.57-1.61a.575.575 0 01-.438.056.571.571 0 01-.138-1.052l.5-.289.576.997-.5.287zm13.588-9.833a.578.578 0 10-1 .575l2.536 4.39-9.205 3.452h-.086l-1.496.863-.996.575a1.155 1.155 0 01-.874.115 1.155 1.155 0 01-.696-.535l-1.15-1.99a1.152 1.152 0 01.431-1.52l1.991-1.15 1.438 2.491a.573.573 0 00.5.287.575.575 0 00.501-.862l-1.484-2.566 7.22-5.955.236.41a.578.578 0 001.001-.576l-.575-.996a.576.576 0 00-.398-.276.575.575 0 00-.472.121l-8.054 6.64-2.45 1.414a2.3 2.3 0 00-1.059 2.606l-.576.328a1.727 1.727 0 101.726 2.992l.576-.328a2.225 2.225 0 001.61.68 2.26 2.26 0 001.151-.312l.501-.287 1.151 1.996a1.725 1.725 0 002.986-1.725L21 33.325l8.63-3.238a.58.58 0 00.3-.824l-2.866-4.97z" mask="url(#b)"/></g></g></svg>