<svg xmlns="http://www.w3.org/2000/svg" id="Layer_1" x="0" y="0" version="1.1" viewBox="0 0 50 50" xml:space="preserve"><style>.st0{fill:#fdcf72}.st1{fill:#fcc34f}</style><circle cx="38.2" cy="6.3" r="3.2" class="st0"/><circle cx="43" cy="19.5" r="2.3" class="st1"/><path d="M26.8 27.6L5.6 35.4l-2.4-4.9 2.5-6.2-1.6-4.1 22.3-8.5zM40.7 9.9l-4.2.4-1.5.5 1.4-3 6-2z" class="st1"/><path d="M26.4 11.7L4.1 20.2l.3-7 5.8-6.8 4.5-.4 5.8-4.5 5.7 3.8z" class="st0"/><path fill="#031326" d="M43.1 15.2c-1.9 0-3.6 1.3-4.1 3.1H27.6v-3.6h4.9c.3 0 .6-.1.9-.4l3.2-3.2c.6.3 1.3.5 2 .5 2.4 0 4.3-1.9 4.3-4.3S40.9 3 38.6 3c-2.4 0-4.3 1.9-4.3 4.3 0 .7.2 1.4.5 2L32 12.1h-4.3V7.5C27.4 3.7 24.2.8 20.4.7c-3 0-5.7 1.8-6.8 4.6-6.4.3-11.4 5.5-11.4 11.9 0 2.5.8 4.9 2.2 7-2.5 2.4-3 6.3-1 9.3.2.3.4.6.6.8-1.5 6.1 2.1 12.3 8.1 14.2 1.2.4 2.3.5 3.5.5 5.1 0 9.8-3.3 11.4-8.4.2-.7.4-1.5.5-2.2h4.4l2.8 2.8c-.3.6-.5 1.3-.5 2 0 2.4 1.9 4.3 4.3 4.3s4.3-1.9 4.3-4.3-1.9-4.3-4.3-4.3c-.7 0-1.4.2-2 .5l-3.2-3.2c-.2-.2-.6-.4-.9-.4h-6.1c-.7 0-1.2.6-1.2 1.2 0 .9-.1 1.9-.4 2.8-.7 2.4-2.4 4.4-4.6 5.6-2.2 1.2-4.8 1.4-7.2.7-5-1.5-7.8-6.8-6.3-11.8.1-.5 0-1-.4-1.3-.2-.3-.5-.6-.7-1-1.3-1.9-1-4.5.6-6 1.9 1.7 4.3 2.8 6.9 3.1.1.8.4 1.7.9 2.5 1 1.7 2.6 3 4.6 3.5h.3c.6 0 1.1-.4 1.2-.9.2-.7-.2-1.3-.9-1.5-1.3-.3-2.4-1.1-3-2.3-1.3-2.3-.5-5.3 1.8-6.6.6-.3.8-1.1.5-1.7-.3-.6-1.1-.8-1.7-.5-1.9 1.1-3.2 3-3.6 5-2.3-.3-4.4-1.4-5.9-3.1-1.6-1.7-2.4-4-2.4-6.3 0-2.5 1-4.9 2.8-6.7 1.8-1.8 4.1-2.7 6.7-2.7h.2c.6 0 1.1-.4 1.2-.9.5-2.2 2.5-3.7 4.7-3.7 2.7 0 4.8 2.2 4.8 4.9v22.1c0 .7.6 1.2 1.2 1.2h8.1c.5 1.8 2.2 3.1 4.1 3.1 2.4 0 4.3-1.9 4.3-4.3s-1.9-4.3-4.3-4.3c-1.9 0-3.6 1.3-4.1 3.1h-6.9v-8.2H39c.5 1.8 2.2 3.1 4.1 3.1 2.4 0 4.3-1.9 4.3-4.3s-1.9-4.4-4.3-4.4zm-4.5-9.7c1 0 1.8.8 1.8 1.8s-.8 1.8-1.8 1.8-1.8-.8-1.8-1.8.8-1.8 1.8-1.8zm1.8 37.6c0 1-.8 1.8-1.8 1.8s-1.8-.8-1.8-1.8.8-1.8 1.8-1.8 1.8.9 1.8 1.8zm-1.8-14.7c1 0 1.8.8 1.8 1.8s-.8 1.8-1.8 1.8-1.8-.8-1.8-1.8.8-1.8 1.8-1.8zm4.5-7.1c-1 0-1.8-.8-1.8-1.8s.8-1.8 1.8-1.8 1.8.8 1.8 1.8-.8 1.8-1.8 1.8z"/></svg>