<svg xmlns="http://www.w3.org/2000/svg" id="Layer_1" x="0" y="0" version="1.1" viewBox="0 0 50 50" xml:space="preserve"><style>.st2{fill:#031326}</style><path fill="#00dffc" d="M40.3 13.2L18 21.7l.4-13.5 5.4-.2 11.5.1 5.3.2z"/><path fill="#00c8e2" d="M46.8 27.1L7.4 41.4l-6.2-6.6L6 29.3l4.2 1.7 8.3-5.7-.2-4.1 22-8 .1 11.8 4.7-2.6 3.8.5z"/><path d="M18.3 27.1c-.6 0-1-.5-1-1V7.9c0-.6.5-1 1-1h21.9c.6 0 1 .5 1 1v17.8c0 .6-.5 1-1 1s-1-.5-1-1V8.9H19.4V26c0 .6-.5 1.1-1.1 1.1z" class="st2"/><path d="M34.8 12.4c-.3 0-.6-.3-.6-.6V6.2c0-2.2-2.6-3.9-4.9-3.9S24.4 4 24.4 6.2v5.7c0 .3-.3.6-.6.6s-.6-.3-.6-.6V6.2c0-2.9 3.2-5.1 6.1-5.1s6.1 2.2 6.1 5.1v5.7c-.1.3-.3.5-.6.5z" class="st2"/><path d="M25.4 12.4h-3.1c-.3 0-.6-.3-.6-.6s.3-.6.6-.6h3.1c.3 0 .6.3.6.6 0 .4-.3.6-.6.6zm10.9 0h-3.1c-.3 0-.6-.3-.6-.6s.3-.6.6-.6h3.1c.3 0 .6.3.6.6 0 .4-.2.6-.6.6zM16.5 42.9c-.2 0-.5-.1-.7-.3-.4-.4-1.5-1.3-2.7-2.5-2-1.9-4.8-4.4-6.4-5.8-.2-.2-.4-.5-.4-.8 0-.3.1-.6.4-.8.4-.3 4.5-4.2 6.1-5.8 1.4-1.3 3.6-1.7 5.1-1.7h5.8c1 0 2.2.5 3.4 1 .5.2 1.3.6 1.6.6h4.5c1 0 1.7.3 2.3.7l3.5-1.7c1.3-2.3 3-3.8 5.3-4.3s4.4-.1 5.3 1.1c.2.3.3.7.1 1-1.1 2.5-5.5 8.2-6.2 9-.1.1-7.3 7.2-9.3 7.2H20c-.4 0-.8.4-1.5 1.3-.4.5-.8 1-1.3 1.5-.2.2-.5.3-.7.3zm-7.6-9.3c1.6 1.4 3.8 3.4 5.5 5.1.7.7 1.4 1.3 1.9 1.8.2-.2.4-.4.5-.6.9-1 1.7-2 3-2H34c1.2-.4 6.8-5.4 7.8-6.5.8-.8 4.2-5.3 5.5-7.7-.5-.2-1.4-.3-2.7 0-1.8.4-3.1 1.5-4.1 3.5-.1.2-.3.4-.5.5l-3.4 1.6c.2.5.3 1 .3 1.5 0 1.9-1.4 3.8-4 3.8h-8.6c-.6 0-1-.5-1-1s.5-1 1-1h8.6c1.4 0 1.9-.9 1.9-1.7s-.5-1.7-1.9-1.7h-4.5c-.6 0-1.3-.3-2.3-.7-.8-.4-2-.8-2.6-.8h-5.8c-1.2 0-2.8.4-3.6 1.2-1 .8-3.7 3.4-5.2 4.7zm25.3 4.2z" class="st2"/><path d="M15.1 49c-.3 0-.5-.1-.7-.3L.5 35.5c-.2-.2-.3-.5-.3-.7 0-.3.1-.5.3-.7l5.6-5.6c.2-.2.5-.3.7-.3.3 0 .5.1.7.3l2.6 2.6c.4.4.4 1 0 1.4-.4.4-1 .4-1.4 0l-1.9-1.9-4.1 4.1 12.4 11.8 3.8-3.9-1.7-1.6c-.4-.4-.4-1 0-1.4.4-.4 1-.4 1.4 0L21 42c.2.2.3.4.3.7 0 .3-.1.5-.3.7l-5.2 5.4c-.2.1-.4.2-.7.2z" class="st2"/></svg>