<svg xmlns="http://www.w3.org/2000/svg" version="1.0" viewBox="0 0 50 50"><path fill="#E56060" d="M33.541 4.764h8.306a1.606 1.606 0 002.936-.895 1.61 1.61 0 00-1.604-1.604c-.551 0-1.038.286-1.332.709H8.344a1.604 1.604 0 00-1.324-.708c-.888 0-1.604.723-1.604 1.604a1.601 1.601 0 002.929.895h8.12C9.025 7.901 3.661 15.011 3.024 23.417v3.337c.551 7.289 4.661 13.604 10.59 17.185L45.85 32.21a21.863 21.863 0 001.124-5.456v-3.337c-.637-8.406-6-15.516-13.433-18.653z"/><path fill="#FF6B6B" d="M43.179 2.266c-.551 0-1.038.286-1.332.709H8.344a1.603 1.603 0 00-1.324-.709c-.888 0-1.604.723-1.604 1.604a1.601 1.601 0 002.929.895h8.12C9.025 7.901 3.661 15.011 3.024 23.417v.752l38.25-13.92a22.074 22.074 0 00-7.733-5.485h8.306a1.606 1.606 0 002.936-.895 1.61 1.61 0 00-1.604-1.603z"/><path fill="#031326" d="M48.219 23.417v-.094a23.176 23.176 0 00-9.843-17.307h2.922a2.847 2.847 0 001.88.707c1.572 0 2.852-1.279 2.852-2.852s-1.279-2.852-2.852-2.852c-.7 0-1.365.256-1.879.707H26.67v-.707h-3.34v.707H8.897a2.847 2.847 0 00-1.879-.707 2.855 2.855 0 00-2.852 2.852 2.855 2.855 0 004.732 2.145h2.727c-5.657 3.958-9.312 10.26-9.848 17.401h-.77v3.34h.773v.094c.859 11.398 10.104 20.624 21.6 21.463h.049v.776h3.34v-4.061h-3.34v.783c-10.159-.764-18.39-8.988-19.153-19.055h.77v-3.34h-.763c.62-7.763 5.464-14.463 12.664-17.499l1.902-.802a20.787 20.787 0 014.48-.842v1.335h2.205l.789 1.589h-6.441v1.296h-3.25v1.983h-3.244v3.344h-3.251v2.234H8.326v3.058H6.514v11.95h1.812v3.057h1.812v2.234h3.251v3.344h3.244v1.983h3.25v1.296H30.12V41.68h3.244v-1.983h3.25v-3.344h3.244v-2.234h1.818v-3.057h1.812v-11.95h-1.812v-3.058h-1.818V13.82h-3.244v-.453l1.148-1.4a.57.57 0 00-.079-.802l-1.061-.87-.78-2.938c5.668 3.457 9.374 9.392 9.879 16.059h-.769v3.34h.763a20.653 20.653 0 01-1.045 5.049 1.251 1.251 0 002.365.811 23.211 23.211 0 001.186-5.859h.771v-3.34h-.773zm-8.861-9.097v2.234h1.818v3.058h1.812v10.95h-1.812v3.057h-1.818v2.234h-3.244v3.344h-3.25v1.983H29.62v1.296h-9.238V41.18h-3.25v-1.983h-3.244v-3.344h-3.251v-2.234H8.826v-3.057H7.014v-10.95h1.812v-3.058h1.812V14.32h3.251v-3.344h3.244V8.993h3.25V7.697h6.19l2.886 5.809.063.129 4.149.259 1.061.87a.568.568 0 00.801-.079l.581-.708v.343h3.244zm-1.992-2.768a.07.07 0 01.01.099l-2.229 2.718a.072.072 0 01-.099.01l-.929-.763 2.319-2.826.928.762zm-1.238-1.174l-2.474 3.015-3.813-.238-4.249-8.551 4.441 3.625a.87.87 0 00.243 1.012.88.88 0 001.117-1.361.87.87 0 00-1.043-.038l-4.429-3.614h.017l8.213 2.194.002.001.993.265.013.048.001.005.064.246.002.001.902 3.39z"/></svg>