<svg xmlns="http://www.w3.org/2000/svg" id="Layer_1" x="0" y="0" version="1.1" viewBox="0 0 50 50" xml:space="preserve"><style>.st0{fill:#fcc34f}.st2{fill:#031326}</style><path d="M48.4 26.1l.4 4.3L1.7 47.6l.1-9.2.4-5.3L49.1 16l-.7 3.8z" class="st0"/><path fill="#fdcf72" d="M48.4 9.2l-.6 7.8-46 16.8v-10l.4-4.5L48.5 2.4z"/><path d="M36.9 49.4H1.7c-.7 0-1.2-.6-1.2-1.2V1.9c0-.7.6-1.2 1.2-1.2h46.6c.7 0 1.2.6 1.2 1.2v35.3c0 .7-.6 1.2-1.2 1.2s-1.3-.6-1.3-1.3v-34H3v43.8h33.9c.7 0 1.2.6 1.2 1.2s-.5 1.3-1.2 1.3z" class="st2"/><path d="M16 27.5c-3.5 0-6.4 2.9-6.4 6.4s2.9 6.4 6.4 6.4 6.4-2.9 6.4-6.4-2.8-6.4-6.4-6.4z" class="st2"/><path d="M16.6 32.2c.3 0 .6.3.6.6h1.2c0-1-.8-1.8-1.8-1.8v-1.2h-1.2V31h-1.8v1.8c0 1 .8 1.8 1.8 1.8h1.2c.3 0 .6.3.6.6v.6h-1.8c-.3 0-.6-.3-.6-.6h-1.2c0 1 .8 1.8 1.8 1.8v1h1.2v-1.2h1.8V35c0-1-.8-1.8-1.8-1.8h-1.2c-.3 0-.6-.3-.6-.6V32h1.8v.2z" class="st0"/><path d="M20 26.1l1.1-1.1c.2.1.5.2.8.2.8 0 1.4-.5 1.6-1.2h3.7c.2.7.9 1.2 1.6 1.2 1 0 1.8-.8 1.8-1.8 0-.3-.1-.5-.2-.8l4.7-4.7c.2.1.5.2.8.2 1 0 1.8-.8 1.8-1.8s-.8-1.8-1.8-1.8-1.8.8-1.8 1.8c0 .3.1.5.2.8l-4.7 4.7c-.2-.1-.5-.2-.8-.2-.8 0-1.4.5-1.6 1.2h-3.7c-.2-.7-.9-1.2-1.6-1.2-1 0-1.8.8-1.8 1.8 0 .3.1.5.2.8l-1.5 1.5c-.9-.3-1.8-.5-2.8-.5-4.8 0-8.8 3.9-8.8 8.8s3.9 8.8 8.8 8.8 8.8-3.9 8.8-8.8c0-3.5-2-6.4-4.8-7.9zm15.9-10.3c.3 0 .6.3.6.6s-.3.6-.6.6-.6-.3-.6-.6.3-.6.6-.6zm-7 7c.3 0 .6.3.6.6s-.3.6-.6.6-.6-.3-.6-.6.3-.6.6-.6zm-7 0c.3 0 .6.3.6.6s-.3.6-.6.6-.6-.3-.6-.6.2-.6.6-.6zM16 41.5c-4.2 0-7.6-3.4-7.6-7.6s3.4-7.6 7.6-7.6 7.6 3.4 7.6 7.6-3.4 7.6-7.6 7.6z" class="st2"/><path d="M23.6 19.9c0-4.3 3.4-7.9 7.6-8.2v1.5l6.6-3.3-6.6-3.3v1.5c-6.2.4-11.1 5.5-11.1 11.8v.6h3.5v-.6zm-2.3-.6c.3-5.5 4.9-9.9 10.5-9.9h.6v-.9l2.8 1.4-2.8 1.4v-.8h-.6c-5 0-9 3.9-9.3 8.8h-1.2zm18.7 0v.6c0 4.3-3.4 7.9-7.6 8.2v-1.5l-6.6 3.3 6.6 3.3v-1.5c6.2-.3 11.1-5.4 11.1-11.7v-.6l-3.5-.1zm-8.2 11.1h-.6v.8l-2.8-1.4 2.8-1.4v.8h.6c5 0 9-3.9 9.3-8.8h1.2c-.3 5.6-4.9 10-10.5 10z" class="st2"/></svg>