<svg xmlns="http://www.w3.org/2000/svg" version="1" viewBox="0 0 50 50"><path fill="#E589EF" d="M4.662 38.215h2.98v2.79c0 .963.781 1.745 1.745 1.745h9.965l21.4-7.789c1.391-4.307 3.412-9.397 5.929-12.502.932-1.15.143-2.86-1.337-2.86h-6.736v-6.07c0-.963-.781-1.745-1.745-1.745h-2.98v-2.79c0-.964-.781-1.745-1.745-1.745H4.662c-.963 0-1.745.781-1.745 1.745V36.47c0 .964.782 1.745 1.745 1.745z"/><path fill="#F799FF" d="M29.5 7.25H4.662c-.963 0-1.745.781-1.745 1.745v7.93L29.5 7.25z"/><path fill="#031326" d="M48.037 20.044a2.957 2.957 0 00-2.694-1.695h-5.485v-4.82a2.998 2.998 0 00-2.994-2.995h-1.73v-1.54A2.999 2.999 0 0032.139 6H4.662a2.998 2.998 0 00-2.995 2.995v27.476a2.998 2.998 0 002.995 2.995h1.73v1.54A2.997 2.997 0 009.387 44h21.658a1.25 1.25 0 000-2.5H9.387a.495.495 0 01-.495-.494v-.204c1.443-5.467 5.811-19.933 11.573-19.933h24.942a.466.466 0 01.374.252.508.508 0 01-.071.551c-2.185 2.694-4.254 7.036-6.148 12.905a1.25 1.25 0 102.379.767c1.774-5.495 3.749-9.679 5.712-12.099a2.996 2.996 0 00.384-3.201zM4.662 36.966a.495.495 0 01-.495-.495V8.995c0-.273.222-.495.495-.495h27.477c.272 0 .494.222.494.495v3.06H9.922A2.247 2.247 0 007.678 14.3v22.667H4.662zm4.23.162v-.162h-.214V14.299c0-.687.558-1.245 1.244-1.245H36.96a.487.487 0 01.398.475v6.339H20.465c-5.388.001-9.403 10.1-11.573 17.26z"/></svg>