<svg xmlns="http://www.w3.org/2000/svg" id="Camada_3" x="0" y="0" version="1.1" viewBox="0 0 50 50" xml:space="preserve"><style>.st3,.st5{fill:none}.st5{stroke:#444;stroke-width:.25;stroke-miterlimit:10}</style><path fill="#00c8e2" d="M48.03 16.5l.73 5.2L2.71 38.46l-.55-10.89-.04-6.24L46.69 5.18l.87 3.87z"/><path fill="#00dffc" d="M45.84 1.97l2.25 3.24L1.24 21.94 2.35 4.77l2.98-2.89 29.05-.17z"/><path fill="none" stroke="#444" stroke-linecap="round" stroke-linejoin="round" stroke-miterlimit="10" stroke-width="2.5" d="M24.63 48.29H5.16c-1.87 0-3.39-1.58-3.39-3.54V5.84c0-1.95 1.52-3.54 3.39-3.54h39.01c1.87 0 3.39 1.58 3.39 3.54v25.89"/><path d="M18.77 39.35h9.72V21.16c-5.78 3.7-9.68 10.46-9.72 18.19zm19.3-36.32h-.9V4c.2-.42.51-.76.9-.97zm2.84.96v-.96h-.9c.38.21.7.55.9.96zM20.57 8.21c0-.8-.6-1.45-1.35-1.45-.74 0-1.35.65-1.35 1.45v10.18c.88-.26 1.78-.46 2.69-.57V8.21zm3.54 9.52V6.34c0-.8-.6-1.45-1.35-1.45-.74 0-1.35.65-1.35 1.45v11.4c.45-.03.89-.05 1.35-.05.46-.01.91.01 1.35.04z" class="st3"/><path d="M31.2 16.52a.57.57 0 00-.18-.43.27.27 0 00-.26-.05c-1.33.41-2.25 1.73-2.25 3.22v4.96c0 .25-.19.46-.42.46-2.4 0-4.67 1.24-6.09 3.33-.08.12-.21.19-.34.19-.09 0-.17-.03-.25-.09a.478.478 0 01-.09-.64c1.49-2.2 3.84-3.55 6.35-3.69v-4.51c0-.09.01-.18.01-.27-.01-.03-.01-.06-.01-.1V8.21c0-.8-.6-1.45-1.35-1.45-.74 0-1.35.65-1.35 1.45v9.61c.48.06.96.14 1.43.25.23.05.38.29.33.54-.05.25-.27.41-.5.36a16.01 16.01 0 00-3.46-.37c-2.4 0-4.73.52-6.91 1.54-.06.03-.11.04-.17.04-.16 0-.32-.1-.39-.27-.09-.23 0-.5.22-.6.5-.23 1-.44 1.52-.63v-5.9c0-.8-.6-1.45-1.35-1.45-.74 0-1.35.65-1.35 1.45v14.87c0 4.99 3.78 9.06 8.43 9.06s8.43-4.06 8.43-9.06v-4.44l.02-.01a.585.585 0 01-.02-.13v-6.55z" class="st3"/><path fill="#444" stroke="#444" stroke-miterlimit="10" stroke-width=".25" d="M33.76 19.57c-.29-.23-.65-.31-1-.2-.82.25-1.52.78-2.02 1.47v-8.42c0-1.3-.98-2.36-2.2-2.36-.51 0-.97.19-1.35.5v-.01c0-1.3-.98-2.36-2.2-2.36-1.21 0-2.2 1.06-2.2 2.36v.01a2.1 2.1 0 00-1.35-.5c-1.21 0-2.2 1.06-2.2 2.36v2.7a2.1 2.1 0 00-1.35-.5c-1.21 0-2.2 1.06-2.2 2.36v14.87c0 5.5 4.16 9.97 9.28 9.97 5.12 0 9.28-4.47 9.28-9.97V20.73c.03-.47-.17-.9-.49-1.16zM23.88 32.4h0zm5.99-4.08h.87v-4.85c0-1.49.93-2.81 2.25-3.22.09-.03.18-.01.26.05.11.09.18.25.18.43v6.54c0 .05.01.09.02.13l-.02.01v4.44c0 4.99-3.78 9.06-8.43 9.06s-8.43-4.06-8.43-9.06V16.98c0-.8.6-1.45 1.35-1.45.74 0 1.35.65 1.35 1.45l.08 6.3.77-.36v-10.5c0-.8.6-1.45 1.35-1.45s1.35.65 1.35 1.45v9.85l.85-.07V10.54c0-.8.6-1.45 1.35-1.45s1.35.65 1.35 1.45V22.2l.81.07.04-9.85c0-.8.6-1.45 1.35-1.45.74 0 1.35.65 1.35 1.45V23.1c0 .03 0 .07.01.1-.01.09-.01.18-.01.27v4.51l-.05.34z"/><path d="M16.05 8.18v.38m17.92 10.98V8.4h-.11v-.11h-17.7v.23h3.43v7.29c-.31-.65-.94-1.09-1.66-1.09s-1.35.44-1.66 1.09V8.56h-.21v16.02c-5.29 3.32-8.85 9.49-8.85 16.54h.11v.11h16.13c1.42 2.49 3.97 4.16 6.88 4.16 2.91 0 5.47-1.67 6.88-4.16h5.51v-.11h.11c0-6.01-2.76-11.52-6.8-15.03m-19.98 5.52s0 .01 0 0v9.4H7.41c.04-6.87 3.5-12.88 8.64-16.16v6.76zm.21-14.86c0-.98.75-1.79 1.66-1.79.92 0 1.66.8 1.66 1.79s-.75 1.79-1.66 1.79c-.91 0-1.65-.8-1.66-1.79zm3.33 24.27h-3.33V33.7c.46 2.26 1.67 4.22 3.33 5.58v1.74zm0-2.03c-2.02-1.72-3.33-4.38-3.33-7.36v-.01c0-2.98 1.3-5.64 3.33-7.36v14.73zm0-15.03c-1.66 1.36-2.86 3.32-3.33 5.58v-4.82c1.05-.65 2.16-1.18 3.33-1.59v.83zm0-1.06c-1.17.4-2.28.93-3.33 1.57v-6.78c.31.65.94 1.09 1.66 1.09s1.35-.44 1.66-1.09v5.21zm16.43 3.2c-.65-.55-1.34-1.05-2.05-1.5v-5.05m0 7.37v-2.06c.65.42 1.28.88 1.88 1.38M30.43 8.52h3.33v10.8a3.2 3.2 0 00-.83.13c-.07.01-.13.03-.19.06-1.07.38-1.93 1.27-2.31 2.41V8.52zm1.27 11.84s.04-.03.1-.08c.15-.12.32-.24.49-.34 0 .01-.01.02-.01.03.39-.22.93-.45 1.47-.43v4.92c-1.04-.64-2.15-1.16-3.31-1.56.09-1.02.56-1.92 1.26-2.54zm1.01 6.35a9.266 9.266 0 00-2.2-2.68 4.15 4.15 0 01-.08-.79v-.09c1.17.41 2.28.94 3.33 1.59v2.2m0-.02v1.98l-.18-.09c-.18-.64-.58-1.54-.87-2.11m1.05 2.46v.38c-.03-.15-.06-.29-.1-.43.03.01.06.03.1.05zm-3.55-5.09c.69.62 1.32.96 2.16 2.49m0 0c.31.57.75 1.51.95 2.14-.9-.39-1.87-.61-2.89-.62l.08-4.05m-.08 4.28c1.05.02 2.06.25 2.98.68.23.84.35 1.72.35 2.64 0 2.98-1.3 5.65-3.33 7.37V28.31zm0 10.97c1.66-1.36 2.86-3.32 3.33-5.58v7.32h-3.33v-1.74zM26.89 8.52h3.33v2.74c-.31-.65-.94-1.09-1.66-1.09s-1.35.44-1.66 1.09V8.52zm0 3.66c0-.98.75-1.79 1.66-1.79.92 0 1.66.8 1.66 1.79s-.75 1.79-1.66 1.79c-.92 0-1.66-.8-1.66-1.79zm0 .93c.31.65.94 1.09 1.66 1.09s1.35-.44 1.66-1.09v9.71c-1.07-.35-2.18-.6-3.33-.73v-8.98zm3.32 9.95v.73a8.716 8.716 0 00-2.49-1.35c.86.15 1.69.35 2.49.62zm-3.32-.62a8.5 8.5 0 013.33 1.63v4.01c-1.19.02-2.32.31-3.33.82v-6.46zm0 6.72a7.41 7.41 0 013.33-.85v10.86c-.97.78-2.1 1.34-3.33 1.63V29.16zm3.32 10.28v1.57h-3.27c1.2-.28 2.31-.82 3.27-1.57zM26.67 8.52v.86c-.18-.37-.46-.67-.8-.86h.8zm-3.32 0h.8c-.34.19-.62.49-.8.86v-.86zm0 1.78c0-.98.75-1.78 1.66-1.78.92 0 1.66.8 1.66 1.79s-.75 1.79-1.66 1.79c-.92 0-1.66-.8-1.66-1.78v-.02zm0 .93c.31.65.94 1.09 1.66 1.09s1.35-.44 1.66-1.09v10.84c-.55-.05-1.1-.08-1.66-.08-.56 0-1.12.03-1.66.08V11.23zm0 11.16a8.197 8.197 0 013.32 0v6.62c-1.39.76-2.55 1.94-3.33 3.39V22.39zm-3.54-10.21c0-.98.75-1.79 1.66-1.79.92 0 1.66.8 1.66 1.79s-.75 1.79-1.66 1.79c-.92 0-1.66-.8-1.66-1.79zm0 10.88c.81-.27 1.94-.56 2.79-.7-.9.31-2.04.85-2.79 1.43v-.73zm0 17.96v-1.57c.97.74 2.07 1.29 3.27 1.57h-3.27zm3.32-.89a8.829 8.829 0 01-.66-3.39c0-1.2.24-2.35.66-3.39v6.78zm0-7.31a9.124 9.124 0 00-.88 3.92c0 1.41.32 2.74.88 3.92v.14a8.5 8.5 0 01-3.33-1.63v-15.1c.97-.78 2.1-1.34 3.33-1.63v10.38zm0-10.72c-1.14.13-2.26.38-3.33.73v-9.71c.31.65.94 1.09 1.66 1.09s1.35-.44 1.66-1.09v8.98zm0-11.8v.95c-.31-.65-.94-1.09-1.66-1.09s-1.35.44-1.66 1.09V8.52h3.33v1.78zm.22 30.3v-7.73c.74-1.54 1.91-2.8 3.33-3.6v11.57c-.54.11-1.1.17-1.66.17-.52 0-1.03-.05-1.53-.15-.06-.08-.1-.17-.14-.26zm6.97 4.58c-2.79 0-5.24-1.57-6.63-3.93h13.26c-1.39 2.35-3.84 3.93-6.63 3.93zm6.76-4.16h-3.12V29.27c2.5 1.41 4.2 4.23 4.2 7.47.01 1.56-.39 3.02-1.08 4.28zm-1.23-14.78c3.99 3.45 6.73 8.87 6.76 14.77h-5.28a9.095 9.095 0 001.05-4.28c0-3.37-1.8-6.29-4.42-7.72v-2.1" class="st5"/><path fill="none" stroke="#494949" stroke-miterlimit="10" stroke-width=".5" d="M27.93 22.48s-2.93-.78-5.59-.07"/><path d="M33.98 8.18v15.85" class="st5"/><path fill="none" stroke="#444" stroke-linecap="round" stroke-linejoin="bevel" stroke-miterlimit="10" d="M30.32 27.81s-4.88 0-6.69 3.81"/></svg>