<svg xmlns="http://www.w3.org/2000/svg" id="Layer_1" x="0" y="0" version="1.1" viewBox="0 0 50 50" xml:space="preserve"><style>.st3{fill:#444}.st4{enable-background:new}</style><path fill="#e56060" d="M47 26.7l.4 4.2L2.3 47.4l.1-8.9.3-5.1 45-16.4-.7 3.6z"/><path fill="#ff6b6b" d="M47.3 10.4l-.5 7.6L2.6 34.1v-9.6l.3-4.3L47.4 4z"/><path fill="none" stroke="#444" stroke-linecap="round" stroke-linejoin="round" stroke-miterlimit="10" stroke-width="2.5" d="M12.6 47.1H2.7V2.6h44.6v44.5"/><path d="M41.4 17.4c-.3-1.4-1.5-2.4-3-2.4H9.2c-1.7 0-3 1.4-3 3v12.9c0 1.5 1 2.7 2.4 3 .3 1.4 1.5 2.4 3 2.4h29.3c1.7 0 3-1.4 3-3V20.4c0-1.5-1.1-2.7-2.5-3zM7 30.9V18c0-1.2 1-2.2 2.2-2.2h29.3c1.2 0 2.1.9 2.2 2v13.1c0 1.2-1 2.2-2.2 2.2H9c-1.2-.1-2-1-2-2.2zm36 2.4c0 1.2-1 2.2-2.2 2.2H11.6c-1 0-1.8-.6-2.1-1.5h29c1.7 0 3-1.4 3-3V18.2c.9.3 1.5 1.1 1.5 2.1v13z" class="st3"/><path d="M11 17.6h2c.2 0 .4-.2.4-.4s-.2-.4-.4-.4h-2c-.2 0-.4.2-.4.4s.1.4.4.4zm0 14.7h2c.2 0 .4-.2.4-.4s-.2-.4-.4-.4h-2c-.2 0-.4.2-.4.4s.1.4.4.4zm24-14.7h2c.2 0 .4-.2.4-.4s-.2-.4-.4-.4h-2c-.2 0-.4.2-.4.4s.2.4.4.4zm2 13.9h-2c-.2 0-.4.2-.4.4s.2.4.4.4h2c.2 0 .4-.2.4-.4s-.2-.4-.4-.4zm1.8-9.2c0 .1-.1.2-.2.2s-.2-.1-.2-.2v-2.7h-2.7c-.1 0-.2-.1-.2-.2s.1-.2.2-.2h2.9c.1 0 .2.1.2.2v2.9zm-12.3-2.9c0 .1-.1.2-.2.2h-2.7v2.7c0 .1-.1.2-.2.2s-.2-.1-.2-.2v-2.9c0-.1.1-.2.2-.2h2.9c.1 0 .2.1.2.2zm-.2 10.4h-2.9c-.1 0-.2-.1-.2-.2v-2.9c0-.1.1-.2.2-.2s.2.1.2.2v2.7h2.7c.1 0 .2.1.2.2s-.1.2-.2.2zm12.3 0h-2.9c-.1 0-.2-.1-.2-.2s.1-.2.2-.2h2.7v-2.7c0-.1.1-.2.2-.2s.2.1.2.2v2.9c0 .1-.1.2-.2.2z" class="st3"/><g class="st4"><path d="M10.4 22.2c.6 0 1-.3 1.1-.8h.7v6.3h-1v-4.8h-.8v-.7zm5 .8c.1-.6-.5-.9-.9-.6-.2.2-.1.9-.1 1.2h-.9c0-.6 0-1.4.4-1.8.4-.5 1.8-.5 2.2 0 .4.4.5 1.5.2 2.1-.3 1.2-1.8 1.8-1.8 3h1.9v.9h-2.9V27c-.2-1.7 1.9-2.4 1.9-4zm3.5 0c.1-.9-1.1-1-1-.1v.4H17c0-.5 0-1.2.4-1.5 1-.9 2.7-.3 2.6 1.2 0 .7-.2 1.3-.7 1.5.7.3.7 1.1.7 1.8.1 1.5-1.6 2.1-2.6 1.2-.4-.3-.4-1.1-.4-1.7h.9c0 .3-.1.9.1 1.1.2.2.6.2.8 0 .2-.1.1-.8.1-1.1 0-.3-.1-.5-.2-.6-.1-.2-.6-.2-.8-.2v-1c.2 0 .7 0 .8-.1.2-.2.2-.7.2-.9z" class="st3"/></g><g class="st4"><path d="M29.2 27.7h-1l-.2-1.2h-1.2l-.2 1.2h-.9l1-6.3h1.5l1 6.3zm-2.3-2.1h1l-.5-3.2-.5 3.2zm5.7-2.8c0 .6-.1 1.2-.6 1.5.8.3.7 1.2.7 1.9 0 1.8-1.8 1.5-3.1 1.5v-6.3h1.7c0-.1 1.3-.2 1.3 1.4zm-2-.6v1.7c.2 0 .7 0 .8-.1.2-.1.2-.6.2-.9 0-.8-.4-.7-1-.7zm0 2.6v1.9c.2 0 .8.1 1-.1.2-.2.1-.8.1-1 0-.9-.5-.8-1.1-.8zm5.6.5v.8c0 1-.5 1.6-1.5 1.6s-1.5-.6-1.5-1.6v-3.3c0-.5.1-.9.4-1.2.4-.5 1.8-.5 2.2 0 .4.4.4 1.2.4 1.8h-.9c0-.3.1-1-.1-1.2-.2-.2-.6-.2-.8 0-.3 0-.1 3.7-.1 3.9-.1.6.5.8.9.5.2-.2.1-1.1.1-1.4h.9z" class="st3"/><path d="M31.3 27.6h-1.7v-6.3c1.3 0 3.1-.3 3.1 1.5 0 .7 0 1.6-.7 1.9.6.3.6.9.6 1.5 0 1.5-1.3 1.4-1.3 1.4zm.3-1.6c0-.3 0-.8-.2-.9-.1-.1-.5-.1-.8-.1v1.7c.6 0 1 0 1-.7zm.1-2.7c0-.3.1-.9-.1-1-.2-.2-.7-.1-1-.1v1.9c.6 0 1.1 0 1.1-.8z" class="st3"/></g></svg>