<svg xmlns="http://www.w3.org/2000/svg" id="Layer_1" x="0" y="0" version="1.1" viewBox="0 0 50 50" xml:space="preserve"><style>.st3{fill:#444}</style><path fill="#a475ef" d="M48.4 16.1l.8 5.2L3.1 38.1l-.5-10.9-.1-6.3L47.1 4.8l.9 3.9z"/><path fill="#bf94f7" d="M46.3 1.6l2.2 3.2L1.7 21.5 2.8 4.4l2.9-2.9 29.1-.2z"/><path fill="none" stroke="#444" stroke-linecap="round" stroke-linejoin="round" stroke-miterlimit="10" stroke-width="2.5" d="M25 47.9H5.6c-1.9 0-3.4-1.6-3.4-3.5v-39c0-2 1.5-3.5 3.4-3.5h39c1.9 0 3.4 1.6 3.4 3.5v25.9"/><path d="M20.2 32.2c-.1-.1-.2-.2-.3-.4v4.7c-2.7.8-5.3 2-7.2 3.5-.2.1-.2.4-.1.5.1.2.4.2.5.1 1.8-1.5 4.4-2.7 7.2-3.4.2 0 .3-.2.3-.4v-4.3c-.1-.1-.2-.2-.4-.3zM38.1 40c-1.8-1.4-4.4-2.7-7.3-3.5V32c-.2.2-.5.4-.8.5v4.2c0 .2.1.3.3.4 2.8.7 5.5 2 7.3 3.4.1.1.2.1.2.1.1 0 .2 0 .3-.1.2-.1.2-.4 0-.5z" class="st3"/><path d="M25.3 35c-2.5 0-4.4-.9-6-2.9-1.3-1.5-1.8-3.6-2.2-5.4-1.3.2-2.6-.9-2.9-2.4-.1-.8-.1-1.5.2-2.1.3-.7.9-1.1 1.5-1.2h.7c.7-5.5 4.4-9.5 8.7-9.5 4.3 0 8 4.1 8.7 9.7h.7c1.3.3 2.1 1.8 1.8 3.4-.2.9-.6 1.6-1.3 2.1-.5.3-1.1.4-1.6.3 0 .1-.1.2-.1.3-.3 1.5-.7 3.1-1.9 4.7-1.6 2-3.7 3-6.3 3zm-7.6-9.5l.1.6c.5 2 .9 4 2.2 5.5 1.5 1.8 3.1 2.6 5.4 2.6 2.3 0 4.1-.9 5.6-2.8 1.1-1.5 1.4-2.9 1.8-4.4.1-.3.1-.6.2-.8l.1-.6.5.3c.1.1.2.1.3.1.4.1.7-.1.9-.2.4-.3.8-.9.9-1.5.2-1.1-.3-2.2-1.1-2.3-.2-.1-.5 0-.7.1l-.6.3-.1-.6c-.4-5.4-3.8-9.4-7.8-9.4s-7.3 4-7.8 9.3l-.1.7-.6-.3c-.3-.1-.5-.2-.8-.1-.4.1-.7.3-.9.7-.2.4-.3 1-.2 1.6.2 1.1 1 1.9 1.8 1.7.1 0 .2 0 .3-.1l.6-.4z" class="st3"/><path d="M34.6 15.7c-.3-.5-.2-.9-.1-1.5.1-.4.1-.8 0-1.3.3-.8.5-1.5.5-1.5 0-.2 0-.3-.2-.4-.1-.1-.3-.1-.4-.1-.8.3-1.1 0-1.7-.7C32 9.5 31 8.4 28.8 9c-1.1.3-1.9.1-3-.3-.6-.2-1.3-.4-2.1-.6-1.2-.2-3.5.5-4.7 1.9-.2.2-.4.5-.5.7-.7.2-1.6.7-2.2 1.8-.4.6-.3 1.3-.3 1.9 0 .6.1 1.1-.2 1.6-1.6 3.1 1.5 7.5 1.6 7.7l.3-.1.5-.1c.1-.2 1.4-5.3 1.8-7.8.3.3.6.3 1 .3.7 0 1.5-.2 2.2-.5 1.4-.4 3-.9 4.8-.2.8.3 1.5.5 2.2.6.3 2.6 2 7.9 2.1 8.2l.4.1h.4c.1-.2 3.4-5.7 1.5-8.5z" class="st3"/><path d="M24.5 26.9c-.3-.1-.5-.3-.4-.5.2-1.2.6-4.7-.6-5.6-1.4-1.1-3.6-.1-3.7 0-.2.1-.5 0-.6-.2-.1-.2 0-.5.2-.6.1-.1 2.8-1.3 4.6.2 1.8 1.5 1 6 .9 6.5 0 .1-.2.2-.4.2zm1.7-6c-.1 0-.3-.1-.3-.2-.2-.2-.1-.5.1-.6 1.8-1.5 4.5-.2 4.6-.2.2.1.3.4.2.6-.1.2-.4.3-.6.2 0 0-2.3-1.1-3.7 0-.1.1-.2.2-.3.2zm-1 20.3c-3 0-5.7-1.4-6.7-3.6-.1-.2 0-.4.2-.5.2-.1.4 0 .5.2.8 1.9 3.2 3.1 6 3.1s5.2-1.2 6-3.1c.1-.2.3-.3.5-.2.2.1.3.3.2.5-.9 2.1-3.6 3.6-6.7 3.6z" class="st3"/><ellipse cx="21.4" cy="22.8" class="st3" rx="1" ry="1.1"/><ellipse cx="29.3" cy="22.8" class="st3" rx="1" ry="1.1"/><path d="M25.4 30.3c-.7 0-1.6-.3-2.4-1-.2-.2-.2-.4 0-.6.2-.2.4-.2.6 0 1.9 1.6 3.6.1 3.6 0 .2-.2.5-.2.6 0 .2.2.2.5 0 .6-.4.5-1.4 1-2.4 1zm0-2.9c-.3 0-.7-.1-1.1-.3-.2-.1-.3-.4-.2-.6.1-.2.4-.3.6-.2.7.4 1.4 0 1.4 0 .2-.1.5 0 .6.2.1.2 0 .5-.2.6 0 .1-.5.3-1.1.3zM17.5 7.3h-6.7c-1.4 0-2.6 1.2-2.6 2.6v6.8c0 .4-.3.7-.7.7-.4 0-.7-.3-.7-.7V9.9C6.9 7.7 8.6 6 10.7 6h6.7v1.3zm0 35.9h-6.7c-2.1 0-3.9-1.7-3.9-3.9v-6.8c0-.4.3-.7.7-.7.4 0 .7.3.7.7v6.8c0 1.4 1.2 2.6 2.6 2.6h6.7M33.4 6h6.7C42.2 6 44 7.7 44 9.9v6.8c0 .4-.3.7-.7.7-.4 0-.7-.3-.7-.7V9.9c0-1.4-1.2-2.6-2.6-2.6h-6.7V6zm0 35.9h6.7c1.4 0 2.6-1.2 2.6-2.6v-6.8c0-.4.3-.7.7-.7.4 0 .7.3.7.7v6.8c0 2.1-1.7 3.9-3.9 3.9h-6.7" class="st3"/></svg>