<svg xmlns="http://www.w3.org/2000/svg" fill="none" viewBox="0 0 50 50"><g clip-path="url(#clip0_612_2)"><path fill="#DC5E82" d="M12.1 42.5L49.8 29l-1-21.2-46.6 8.4V42l9.9.5z"/><path fill="#F56991" d="M3.2 15.9V26c0 .1.1.1.1.1L49.1 9.9l-.5-1.6c.1 0 .1-.2 0-.2l-7.4-.5-3.8-.2H3.5"/><path stroke="#444" stroke-linecap="round" stroke-linejoin="round" stroke-miterlimit="10" stroke-width="2.5" d="M14.6 42.6H2.1v-9.4L2.2 17m12.5-9.4H2.2V17m34.1-9.4h12.5v26.7m0-1.1v9.4m0 0H36.3"/><path fill="#444" fill-rule="evenodd" d="M7.4 32.8c1.3.2 1.1 0 1.1-1V31c0-3 2.4-5.5 5.5-5.5 3 0 5.5 2.4 5.5 5.5v1.2c-.1 1.3.1 1.2 1.1 1.3h9.7c1.3-.1.9.1.8-1.3V31c0-3 2.4-5.5 5.5-5.5 3 0 5.5 2.4 5.5 5.5v.9c-.1.8.1.8.8.9h1.3c.7 0-.4-.4-.2-1.1.3-.9.2-1.5.2-2.5 0-.6-.1-1-.6-1 0-.1.5-1.5-.1-2.8-.4-.8-2.3-2.7-3.1-3.3-1.6-1.1-5.2-4.4-8.5-6.4-.8-.5-1.2-.6-1.9-.9-1.2-.4-2.8-.7-4.4-.6-4 .1-9.5-.2-13.1.1-.4 0 .2.4-.3 1.2-.9 1.5-3 4.1-3.5 6.5-.6 2.6-.7 4.8-.7 5.9 0 .1-.3 0-.5.1-.8.1-.7.4-.7 1.1-.4 1.3-.3 3.6.6 3.7zm24.4-10.6c0 .1-11.2-.3-13.6-.3-.6 0-.9-.1-1-.7-.1-1.3.6-3.7 1.2-5.1.1-.2.3-.6.6-.6 1.9 0 8.1-.2 9.9.4 2.1.7 3.5 3.1 5.1 4.6-.8-.1-2.4 0-2.4.7.1.4.2.9.2 1zm-16.6-6.8c-2.1 0-4.3 3.4-4.9 5.1-.3.8-.2 1 .6 1.1.4 0 1.7.1 2 0 1.5-.1 1.7.1 2.2-.6.6-.7 1-2.9 1.6-4.7.2-.6.4-.8-.1-.9h-1.4z" clip-rule="evenodd"/><path stroke="#444" stroke-miterlimit="10" d="M36.4 35.5a4.1 4.1 0 100-8.2 4.1 4.1 0 000 8.2zm-22.6-.2a4.1 4.1 0 100-8.2 4.1 4.1 0 000 8.2z"/></g><defs><clipPath id="clip0_612_2"><path fill="#fff" d="M0 0h50v50H0z"/></clipPath></defs></svg>