<svg xmlns="http://www.w3.org/2000/svg" viewBox="0 0 50 50"><style>.st2{stroke-width:2.5;fill:none;stroke:#444;stroke-linecap:round;stroke-linejoin:round;stroke-miterlimit:10}</style><g id="Camada_3"><path fill="#00c8e2" d="M21.58 36.23l-6.11-5.57a.983.983 0 00-1.26-.06l-7.23 5.38c-.38.28-.9.26-1.25-.05L1.99 32.6a.984.984 0 01-.03-1.45l6.21-6.04c.34-.34.4-.87.13-1.27a.993.993 0 01.48-1.49l38.62-14a.99.99 0 011.33.96l-.78 23.21c-.01.41-.27.76-.66.9l-20.01 7.12c-.34.12-.72.05-.99-.19l-4.71-4.12z"/><path fill="#00dffc" d="M41.46 4.6l5.21 2.04 2.1 1.89L6.34 23.68l-5.11-6.53 4.86-4.35 8.73 6.04L33.63 1.91z"/><path d="M47.79 9.37c0-1.12-.64-2.14-1.65-2.62l-9.59-4.62c-.56-.27-1.17-.34-1.75-.24-.41.07-.79.25-1.15.49.02-.01.03-.01.05-.02-.16.1-.32.2-.46.34L14.88 19.43l-7.5-5.89c-.74-.56-1.79-.52-2.48.11l-2.56 2.33c-.85.77-.85 2.1 0 2.87L8.78 25l-6.93 6.32c-.84.77-.84 2.1 0 2.87l2.56 2.33c.69.63 1.73.67 2.48.11l8-6.07L33.25 47.3c.14.14.31.24.48.35-.02-.01-.04-.01-.06-.02.6.41 1.31.6 2.02.5.3-.04.6-.12.88-.26l9.59-4.62c1.01-.48 1.65-1.5 1.65-2.62v-.11c0 .22-.04.41-.1.6.03-.16.07-.32.07-.48V9.37c0-.17-.04-.33-.07-.49.06.19.1.39.1.6v-.11z" class="st2"/><path d="M33.65 47.63c-.15-.1-.31-.19-.44-.32.14.13.29.24.44.32zm0-45.25c-.16.08-.3.18-.44.32.13-.13.29-.22.44-.32z" class="st2"/></g><path id="Camada_2" fill="none" stroke="#444" stroke-linecap="round" stroke-linejoin="round" stroke-miterlimit="10" d="M32.33 3.53s3.52-2.57 3.65 3.31c.13 5.88 0 36.72 0 36.72s-.18 5.37-2.76 3.75m2.75-10.58L6.09 13.56m29.88 1.45L21.65 25.62m-5.66 4.95l-8.55-7.74"/></svg>