<svg xmlns="http://www.w3.org/2000/svg" id="Layer_1" x="0" y="0" version="1.1" viewBox="0 0 50 50" xml:space="preserve"><style>.st3{fill:#494949}.st4{stroke-miterlimit:10}.st4,.st5,.st6{fill:none;stroke:#494949;stroke-linecap:round;stroke-linejoin:round}.st5{stroke-miterlimit:10;stroke-width:.5}.st6{stroke-width:.25}</style><path fill="#afe55d" d="M47.7 22.6v6.1L2 43.1l-.4-12.4v-3.9L47.8 10z"/><path fill="#c3ff68" d="M47.7 7.3l-.5 3.2L1.5 27.1l.1-6.4v-4L48.3 1.8z"/><path fill="none" stroke="#444" stroke-linecap="round" stroke-linejoin="round" stroke-miterlimit="10" stroke-width="2.5" d="M6.8 48.2H2.4V2.4h46.1v45.8H32.6"/><path d="M26 11.2h-1.9c-1 0-1.9-.8-1.9-1.9v-2c0-1 .8-1.9 1.9-1.9H26c1 0 1.9.8 1.9 1.9v2c0 1.1-.8 1.9-1.9 1.9z" class="st3"/><path d="M29.6 17.5h-9.1c-.5 0-1-.4-1-1v-1c0-.5.4-1 1-1h9.1c.5 0 1 .4 1 1v1c0 .6-.5 1-1 1z" class="st4"/><path d="M32.1 28.2h-3.7c-1 0-1.7-.8-1.7-1.7v-1.7c0-1 .8-1.7 1.7-1.7h3.7c1 0 1.7.8 1.7 1.7v1.7c0 .9-.8 1.7-1.7 1.7z" class="st3"/><path d="M32.9 32.3h-5.4c-.5 0-.9-.4-.9-.9v-.9c0-.5.4-.9.9-.9h5.4c.5 0 .9.4.9.9v.9c0 .5-.4.9-.9.9zm0 4.1h-5.4c-.5 0-.9-.4-.9-.9v-.9c0-.5.4-.9.9-.9h5.4c.5 0 .9.4.9.9v.9c0 .5-.4.9-.9.9zm0 4.1h-5.4c-.5 0-.9-.4-.9-.9v-.9c0-.5.4-.9.9-.9h5.4c.5 0 .9.4.9.9v.9c0 .5-.4.9-.9.9zm0 4.1h-5.4c-.5 0-.9-.4-.9-.9v-.9c0-.5.4-.9.9-.9h5.4c.5 0 .9.4.9.9v.9c0 .5-.4.9-.9.9z" class="st5"/><path d="M43 11.2h-3.7c-.8 0-1.4-.6-1.4-1.4V8.5c0-.8.6-1.4 1.4-1.4H43c.8 0 1.4.6 1.4 1.4v1.4c0 .7-.6 1.3-1.4 1.3zm-32.3 0H7c-.8 0-1.4-.6-1.4-1.4V8.5c0-.8.6-1.4 1.4-1.4h3.7c.8 0 1.4.6 1.4 1.4v1.4c0 .7-.6 1.3-1.4 1.3z" class="st3"/><circle cx="41.1" cy="16.6" r="2" class="st4"/><path d="M23 7.9h-6.2l.9.9H13" class="st6"/><path d="M12.5 8.8c.2-.1.6-.2.7-.4l-.2.4.2.4c-.2-.2-.5-.3-.7-.4z" class="st3"/><path d="M27.2 7.9h6.2l-.9.9h4.7" class="st6"/><path d="M37.7 8.8c-.2.1-.5.2-.7.4l.2-.4-.2-.4c.2.1.5.3.7.4z" class="st3"/><path d="M21.3 21.7l3.8-4.1-12 4.5" class="st6"/><path d="M20.9 22.1c.2-.1.6-.2.8-.3l-.4-.2-.2-.4c0 .3-.1.7-.2.9zm-8.3.2c.2-.2.4-.4.6-.7v.4l.3.3h-.9z" class="st3"/><path d="M29 21.7l-3.8-4.1 12 4.5" class="st6"/><path d="M29.4 22.1c-.1-.2-.2-.6-.2-.8l-.2.4-.4.2c.2 0 .6.1.8.2zm8.3.2c-.3 0-.6 0-.8.1l.3-.3v-.4c.1.2.3.4.5.6z" class="st3"/><path d="M25.1 11.1v2.4" class="st6"/><path d="M25.1 14c-.1-.2-.2-.6-.4-.7l.4.2.4-.2c-.2.1-.3.4-.4.7z" class="st3"/><path d="M33.9 25.6h2.7" class="st6"/><path d="M37.1 25.6c-.2.1-.6.2-.7.4l.2-.4-.2-.4c.2.1.5.3.7.4zm5.5 2.6H39c-1 0-1.7-.8-1.7-1.7v-1.7c0-1 .8-1.7 1.7-1.7h3.7c1 0 1.7.8 1.7 1.7v1.7c0 .9-.8 1.7-1.8 1.7z" class="st3"/><path d="M43.5 32.3h-5.4c-.5 0-.9-.4-.9-.9v-.9c0-.5.4-.9.9-.9h5.4c.5 0 .9.4.9.9v.9c0 .5-.4.9-.9.9zm0 4.1h-5.4c-.5 0-.9-.4-.9-.9v-.9c0-.5.4-.9.9-.9h5.4c.5 0 .9.4.9.9v.9c0 .5-.4.9-.9.9zm0 4.1h-5.4c-.5 0-.9-.4-.9-.9v-.9c0-.5.4-.9.9-.9h5.4c.5 0 .9.4.9.9v.9c0 .5-.4.9-.9.9zm0 4.1h-5.4c-.5 0-.9-.4-.9-.9v-.9c0-.5.4-.9.9-.9h5.4c.5 0 .9.4.9.9v.9c0 .5-.4.9-.9.9z" class="st5"/><path d="M11 28.2H7.4c-1 0-1.7-.8-1.7-1.7v-1.7c0-1 .8-1.7 1.7-1.7H11c1 0 1.7.8 1.7 1.7v1.7c.1.9-.7 1.7-1.7 1.7z" class="st3"/><path d="M11.9 32.3H6.5c-.5 0-.9-.4-.9-.9v-.9c0-.5.4-.9.9-.9h5.4c.5 0 .9.4.9.9v.9c0 .5-.4.9-.9.9zm0 4.1H6.5c-.5 0-.9-.4-.9-.9v-.9c0-.5.4-.9.9-.9h5.4c.5 0 .9.4.9.9v.9c0 .5-.4.9-.9.9zm0 4.1H6.5c-.5 0-.9-.4-.9-.9v-.9c0-.5.4-.9.9-.9h5.4c.5 0 .9.4.9.9v.9c0 .5-.4.9-.9.9zm0 4.1H6.5c-.5 0-.9-.4-.9-.9v-.9c0-.5.4-.9.9-.9h5.4c.5 0 .9.4.9.9v.9c0 .5-.4.9-.9.9z" class="st5"/><path d="M12.8 25.6h2.6" class="st6"/><path d="M16 25.6c-.2.1-.6.2-.7.4l.2-.4-.2-.4c.1.1.4.3.7.4zm5.5 2.6h-3.7c-1 0-1.7-.8-1.7-1.7v-1.7c0-1 .8-1.7 1.7-1.7h3.7c1 0 1.7.8 1.7 1.7v1.7c0 .9-.7 1.7-1.7 1.7z" class="st3"/><path d="M22.4 32.3H17c-.5 0-.9-.4-.9-.9v-.9c0-.5.4-.9.9-.9h5.4c.5 0 .9.4.9.9v.9c-.1.5-.4.9-.9.9zm0 4.1H17c-.5 0-.9-.4-.9-.9v-.9c0-.5.4-.9.9-.9h5.4c.5 0 .9.4.9.9v.9c-.1.5-.4.9-.9.9zm0 4.1H17c-.5 0-.9-.4-.9-.9v-.9c0-.5.4-.9.9-.9h5.4c.5 0 .9.4.9.9v.9c-.1.5-.4.9-.9.9zm0 4.1H17c-.5 0-.9-.4-.9-.9v-.9c0-.5.4-.9.9-.9h5.4c.5 0 .9.4.9.9v.9c-.1.5-.4.9-.9.9z" class="st5"/><path d="M23.4 25.6H26" class="st6"/><path d="M26.5 25.6c-.2.1-.6.2-.7.4l.2-.4-.2-.4c.2.1.5.3.7.4z" class="st3"/><path d="M41.1 11v2" class="st6"/><path d="M41.1 13.5c-.1-.2-.2-.6-.4-.7l.4.2.4-.2c-.1.1-.3.5-.4.7z" class="st3"/><path d="M41.1 19.7v2.1" class="st6"/><path d="M41.1 22.3c-.1-.2-.2-.6-.4-.7l.4.2.4-.2c-.1.1-.3.4-.4.7z" class="st3"/><circle cx="8.9" cy="16.6" r="2" class="st4"/><path d="M8.9 11v2" class="st6"/><path d="M8.9 13.5c-.1-.2-.2-.6-.4-.7l.4.2.4-.2c-.2.1-.4.5-.4.7z" class="st3"/><path d="M8.9 19.7v2.1" class="st6"/><path d="M8.9 22.3c-.1-.2-.2-.6-.4-.7l.4.2.4-.2c-.2.1-.4.4-.4.7z" class="st3"/></svg>