<svg xmlns="http://www.w3.org/2000/svg" viewBox="0 0 50 50"><path fill="#c3ff68" d="M19.1 4.6l-6.9 5.7C6.6 8.7 1 19 1 20.3l3.3 8.8 6.9 4.1 1 11.4 4.7.3L39.2 37c-3-8.4 4-5.7 7.9-8.7l1.6-8.7-4.5-5.9-9.4-4.6C30.4.8 20.4 4.6 19.1 4.6z"/><g fill="none" stroke="#444" stroke-linecap="round" stroke-linejoin="round" stroke-miterlimit="10"><path d="M37.2 17.7c0-9.1-5.7-14.4-12.8-14.4S11.6 8.6 11.6 17.7"/><path stroke-width="2.5" d="M38.3 38.7v-6.2c5-2 10.2-3.6 10.2-10.7 0-6.9-6.1-10-12.1-11.6-2.8-3.9-7.1-6.5-12-6.5-4.8 0-9.1 2.5-11.9 6.3C6 11.4 1.3 16 1.3 21.6c0 5.3 4.3 9.8 10.2 11.5v8.4c0 2.1 1.7 3.7 3.7 3.7H27"/><path stroke-width=".75" d="M11.5 40.2h19"/></g><path fill="#444" d="M24.5 17.5c-.5 1.6-1.4 6.4.2 13.9.1.3.4.3.4 0 .5-2.3 1.6-8.7-.2-14 0-.1-.3-.1-.4.1zm-7.8 2.8c0 1.7.2 6.5 3.6 13.5.1.3.4.2.4-.1-.1-2.4-.6-8.8-3.6-13.5-.2-.3-.4-.2-.4.1zm16.2 0c0 1.7-.2 6.5-3.6 13.5-.1.3-.4.2-.4-.1.1-2.4.6-8.8 3.6-13.5.1-.3.4-.2.4.1z"/></svg>