<svg xmlns="http://www.w3.org/2000/svg" viewBox="0 0 50 50"><path fill="#fcc34f" d="M48.4 22L5.2 37.7C2.8 34 1.4 29.7 1.4 25c0-1 .1-1.9.2-2.8 0-.2.1-.5.1-.7L40.6 7.3c.2.2.4.3.5.5 3.9 3.7 6.6 8.6 7.3 14.2z"/><path fill="#fdcf72" d="M41.1 7.8L1.6 22.2c0-.2.1-.5.1-.7 1.7-11.3 11.5-20 23.3-20 6 0 11.4 2.2 15.6 5.9.1.1.3.2.5.4z"/><path fill="none" stroke="#444" stroke-linecap="round" stroke-linejoin="round" stroke-miterlimit="10" stroke-width="2.5" d="M48.6 25C48.6 38 38 48.6 25 48.6c-8.3 0-15.6-4.3-19.8-10.9-2.4-3.7-3.8-8-3.8-12.7 0-1 .1-1.9.2-2.8 0-.2.1-.5.1-.7 1.7-11.3 11.5-20 23.3-20 6 0 11.4 2.2 15.6 5.9.2.2.4.3.5.5 3.9 3.6 6.6 8.6 7.3 14.2.1.9.2 1.9.2 2.9z"/><g fill="none" stroke="#494949" stroke-linecap="round" stroke-linejoin="round" stroke-miterlimit="10"><path d="M9 15l16 27.7L41 15H28.6c-1.2 2.1-2.5 4.3-3.7 6.4-1.3-2.1-2.5-4.3-3.8-6.4H9z"/><path stroke-width=".5" d="M15.3 15L25 31.7 34.6 15h-5.9L25 21.4 21.2 15h-5.9z"/></g></svg>