<svg xmlns="http://www.w3.org/2000/svg" version="1" viewBox="0 0 50 50"><path fill="#46B8B0" d="M6.05 36.904c0 .319.17.614.446.773l10.81 6.237 26.64-9.696-.004-13.324 2.682-1.548V13.99L25.446 1.764a.89.89 0 00-.893 0L3.375 13.991v5.356l2.675 1.548v16.009z"/><path fill="#4ECDC4" d="M34.336 6.896l-8.89-5.132a.89.89 0 00-.893 0L3.375 13.991v4.174L34.336 6.896z"/><path fill="#031326" d="M47.875 13.269L26.07.682a2.152 2.152 0 00-2.142 0L2.125 13.269v6.798L4.8 21.615v15.288c0 .765.411 1.476 1.072 1.856L23.933 49.18a2.147 2.147 0 002.141 0l10.389-5.997a1.25 1.25 0 00-1.25-2.166L25.5 46.626V31.232l17.193-9.926.004 12.912a1.25 1.25 0 002.5 0l-.004-12.602 2.683-1.548v-6.799zm-22.5 16.881v-3.458l20-11.546v3.457l-20 11.547zM4.625 18.603v-3.457l20 11.547v3.457l-20-11.547zM25 2.95l20 11.546-20 11.547L5 14.496 25 2.95zM7.3 36.697V21.302l17.199 9.93v15.39L7.3 36.697z"/></svg>