<svg xmlns="http://www.w3.org/2000/svg" id="Camada_3" x="0" y="0" version="1.1" viewBox="0 0 50 50" xml:space="preserve"><style>.st4{fill:none;stroke:#444;stroke-linecap:round;stroke-linejoin:round;stroke-miterlimit:10}</style><path fill="#7ed0d6" d="M3.55 14.63l7.8-8.45 9.57-3.87L34.7 3.47l10.43 6.96L1.15 26.79l.93-4.21z"/><path fill="#71bac0" d="M4.27 35.16l-2.32-13.7 38.6-15.11 7.96 12.13.32 13.92-36.5 13.07z"/><path fill="none" stroke="#444" stroke-linecap="round" stroke-linejoin="round" stroke-miterlimit="10" stroke-width="2.5" d="M11.92 5.81C20 .12 31.16-.01 39.49 6.26c10.36 7.78 12.44 22.48 4.65 32.83m-7.03 6.23c-7.89 4.54-18.06 4.24-25.79-1.58C.96 35.96-1.13 21.26 6.66 10.91m4.6-4.56s-2.7 1.74-4.73 4.73"/><path fill="none" stroke="#444" stroke-linecap="round" stroke-linejoin="round" stroke-miterlimit="10" stroke-width=".5" d="M35.76 19.52c.54.67.86 1.51.86 2.44 0 2.14-1.73 3.87-3.87 3.87s-3.87-1.73-3.87-3.87a3.867 3.867 0 015.66-3.43m-8.64.99c.54.67.86 1.51.86 2.44 0 2.14-1.73 3.87-3.87 3.87s-3.87-1.73-3.87-3.87 1.73-3.87 3.87-3.87c.64 0 1.24.15 1.76.42m-8.62 1.01c.54.67.86 1.51.86 2.44 0 2.14-1.73 3.87-3.87 3.87s-3.87-1.73-3.87-3.87 1.73-3.87 3.87-3.87c.65 0 1.27.16 1.81.45"/><path d="M31.75 28.45H14.03a6.5 6.5 0 110-13h17.73a6.5 6.5 0 016.5 6.5 6.515 6.515 0 01-6.51 6.5z" class="st4"/><path d="M38.12 20.61l2.17.32v2.05l-2.17.32" class="st4"/><path fill="none" stroke="#444" stroke-linecap="round" stroke-linejoin="round" stroke-miterlimit="10" stroke-width="1.5" d="M40.29 21.96h.42c.97 0 1.75.78 1.75 1.75l.01 4.75c0 2.81-2.27 5.08-5.08 5.08l-11.3-.06"/><path d="M25.77 33.48v1.03c0 .33-.17.65-.47.81-1.17.66-2.46.86-3.85 1.03a.478.478 0 01-.54-.48v-2.4" class="st4"/><path d="M25.77 33.6v-1.03c0-.33-.17-.65-.47-.81-1.17-.66-2.46-.86-3.85-1.03a.478.478 0 00-.54.48v2.4m-.06-2.02h-3.36m3.36 3.91h-3.36" class="st4"/><path fill="#444" d="M14.85 24.22c-.01.05-.03.09-.05.12-.02.03-.06.05-.1.07-.04.02-.1.03-.17.03-.07.01-.16.01-.27.01-.12 0-.22 0-.29-.01-.07-.01-.13-.02-.17-.03a.218.218 0 01-.09-.07.337.337 0 01-.04-.12l-.66-2.6H13l-.62 2.6c-.01.05-.03.09-.04.12-.02.03-.05.05-.09.07-.04.02-.1.03-.17.03-.07.01-.16.01-.28.01-.12 0-.22 0-.29-.01-.07-.01-.13-.02-.17-.03a.218.218 0 01-.09-.07c-.02-.03-.03-.07-.05-.12l-.93-3.57a.82.82 0 01-.03-.18c0-.04.01-.08.04-.1.03-.02.07-.04.13-.04.06-.01.14-.01.25-.01.1 0 .18 0 .24.01.06 0 .1.01.13.02s.05.03.06.05.02.05.03.09l.72 3.14.75-3.11c.01-.04.02-.07.03-.1.01-.03.04-.04.07-.06.03-.01.08-.02.13-.03.06-.01.13-.01.23-.01s.18 0 .24.01c.06 0 .11.01.14.03.03.01.06.03.07.06.01.03.03.06.03.1l.77 3.11h.01l.72-3.13c.01-.03.01-.06.03-.09s.03-.04.06-.06c.03-.01.07-.02.13-.03.05-.01.13-.01.23-.01.09 0 .16 0 .22.01.05.01.09.02.11.04.02.02.03.06.03.1 0 .05-.01.11-.03.19l-.96 3.57zm9.96 0c-.01.05-.03.09-.05.12-.02.03-.06.05-.1.07-.04.02-.1.03-.17.03-.07.01-.16.01-.27.01-.12 0-.22 0-.29-.01-.07-.01-.13-.02-.17-.03a.218.218 0 01-.09-.07.337.337 0 01-.04-.12l-.66-2.6h-.01l-.62 2.6c-.01.05-.03.09-.04.12-.02.03-.05.05-.09.07-.04.02-.1.03-.17.03-.07.01-.16.01-.28.01-.12 0-.22 0-.29-.01-.07-.01-.13-.02-.17-.03a.218.218 0 01-.09-.07c-.02-.03-.03-.07-.05-.12l-.93-3.57a.82.82 0 01-.03-.18c0-.04.01-.08.04-.1.03-.02.07-.04.13-.04.06-.01.14-.01.25-.01.1 0 .18 0 .24.01.06 0 .1.01.13.02s.05.03.06.05.02.05.03.09l.72 3.14.75-3.11c.01-.04.02-.07.03-.1.01-.03.04-.04.07-.06.03-.01.08-.02.13-.03.06-.01.13-.01.23-.01s.18 0 .24.01c.06 0 .11.01.14.03s.06.03.07.06c.01.03.03.06.03.1l.77 3.11h.01l.72-3.13c.01-.03.01-.06.03-.09s.03-.04.06-.06c.03-.01.07-.02.13-.03.05-.01.13-.01.23-.01.09 0 .16 0 .22.01.05.01.09.02.11.04.02.02.03.06.03.1 0 .05-.01.11-.03.19l-.96 3.57zm9.86 0c-.01.05-.03.09-.05.12-.02.03-.06.05-.1.07-.04.02-.1.03-.17.03-.07.01-.16.01-.27.01-.12 0-.22 0-.29-.01-.07-.01-.13-.02-.17-.03a.218.218 0 01-.09-.07.337.337 0 01-.04-.12l-.65-2.6h-.01l-.62 2.6c-.01.05-.03.09-.04.12s-.05.05-.09.07c-.04.02-.1.03-.17.03-.07.01-.16.01-.28.01-.12 0-.22 0-.29-.01-.07-.01-.13-.02-.17-.03a.218.218 0 01-.09-.07.334.334 0 01-.05-.12l-.93-3.57a.82.82 0 01-.03-.18c0-.04.01-.08.04-.1.03-.02.07-.04.13-.04.06-.01.14-.01.25-.01.1 0 .18 0 .24.01.06 0 .1.01.13.02s.05.03.06.05c.01.02.02.05.03.09l.72 3.14.75-3.11c.01-.04.02-.07.03-.1s.04-.04.07-.06.08-.02.13-.03c.06-.01.13-.01.23-.01s.18 0 .24.01c.06 0 .11.01.14.03.03.01.06.03.07.06.01.03.03.06.03.1l.77 3.11h.01l.72-3.13c.01-.03.01-.06.03-.09a.17.17 0 01.06-.06c.03-.01.07-.02.13-.03.05-.01.13-.01.23-.01.09 0 .16 0 .22.01.05.01.09.02.11.04.02.02.03.06.03.1 0 .05-.01.11-.03.19l-.97 3.57z"/><path d="M38.74 21.11l1.17.24v1.38l-1.17.09zm.9 1.41l-.43-.78" class="st4"/></svg>