<svg xmlns="http://www.w3.org/2000/svg" id="Camada_3" x="0" y="0" version="1.1" viewBox="0 0 50 50" xml:space="preserve"><style>.st2{fill:#444}</style><path fill="#afe55d" d="M3.85 46.87l8.74-.59 34.28-12.1 1.2-7.78c.4-2.38.46-11.35-1.41-12.9L33.33 3c-1.87-1.54-6.65-2.79-8.91-1.94L7.55 9.44C5.29 10.3 1.39 22.08.99 24.46l4.27 13.79c-.4 2.38-3.28 7.07-1.41 8.62z"/><path fill="#c3ff68" d="M44.41 11.19L32.97 2.65C31 1.03 22.01 1.4 19.61 2.3L6.97 9.7c-2.4.9-4.3 5.17-4.71 7.68L.99 26.8l43.42-15.61z"/><path d="M23.51.04c-12 .7-22 10.1-23.34 22.05-.67 5.93.73 11.5 3.58 16.08l-2.8 11.3s6.02-1.58 11.27-2.98C15.96 48.72 20.33 50 25 50c2.44 0 4.79-.39 7.02-1.05.8-.39 1.33-1.31 1.04-2.26-.26-.86-1.24-1.19-2.29-.97-1.86.51-3.79.8-5.77.8-3.88 0-7.69-1.04-11-3.02l-1.26-.75-1.42.38c-1.85.5-3.82 1.02-5.57 1.48l1.39-5.6.35-1.43-.78-1.25A21.425 21.425 0 013.48 25c0-7.53 3.84-14.47 10.6-18.58 1.69-1.03 3.54-1.8 5.46-2.27 9.89-2.42 19.68 1.88 24.61 10.94.47.87.87 1.78 1.18 2.72 2.33 7.05 1.12 14.13-2.8 19.63-.36 1.02-.3 1.73.43 2.24.81.56 1.77.35 2.43-.24C48.29 35.36 50 30.38 50 25 50 10.7 37.99-.8 23.51.04z" class="st2"/><path d="M30.65 31.49c7.38-7.29 10.57-14.09 3.8-19.68-1.45.06-3.13.11-3.13.11l-2.52 7.16 2.57 3.3c-2.12 3.52-3.41 6.15-9.11 9.28-1.12-1.12-3.13-2.68-3.13-2.68l-7.6 2.57.06 3.07c2.79 4.53 9.67 6.15 19.06-3.13z" class="st2"/></svg>