<svg xmlns="http://www.w3.org/2000/svg" version="1" viewBox="0 0 50 50"><path fill="#71BAC0" d="M10.215 34.74v5.66l-.095.097 38.744-14.102a7.7 7.7 0 00.13-1.4c0-7.052-12.822-21.494-24.015-21.494-11.194 0-23.974 14.443-23.974 21.496 0 7.032 9.154 9.728 9.21 9.744z"/><path fill="#7ED0D6" d="M36.57 7.666C32.953 5.178 28.953 3.5 25.14 3.5c-8.946 0-18.898 9.223-22.537 16.528L36.57 7.666z"/><g fill="#031326"><path d="M50 24.996c0-3.765-3.185-9.304-8.114-14.113-5.464-5.33-11.627-8.388-16.907-8.388C13.232 2.495 0 17.175 0 24.995c0 6.575 6.91 9.632 9.21 10.468v4.526l-2.416 2.415a1.36 1.36 0 00-.354 1.18c.077.413.35.77.744.96 2.21 1.023 8.777 2.96 17.82 2.96 11.27 0 17.525-2.84 17.798-2.967.385-.184.66-.543.737-.96a1.367 1.367 0 00-.37-1.19l-1.36-1.36a1.005 1.005 0 10-1.422 1.423l.632.633c-2.078.753-7.606 2.41-16.017 2.41-8.436 0-13.97-1.656-16.044-2.407l2.16-2.162c4.406-1.68 8.832-2.477 13.868-2.477a.804.804 0 100-1.61c-4.983 0-9.395.75-13.767 2.33v-2.562c4.376-1.655 8.772-2.44 13.768-2.44 4.14 0 9.204.93 13.976 2.548.35.12.597.193.927.193h.003c.556 0 .87-.232.87-.788v-.645C43.034 34.653 50 31.598 50 24.996zm-38.778 9.89v-6.492c.816-.82 3.375-3.27 6.278-4.79v6.727h15v-6.7c2.885 1.517 5.424 3.948 6.235 4.765l.014 6.544c-3.22-1.04-8.42-2.383-13.76-2.383-4.982 0-9.394.75-13.768 2.33zm8.29-6.568v-10.9c1.298-.747 3.852-2.02 5.488-2.02s4.19 1.274 5.488 2.02v10.9H19.512zm21.246 4.99l-.012-5.72-.27-.288c-.158-.17-3.77-4.014-7.976-5.904v-5.103l-.472-.296c-.17-.107-4.197-2.612-7.03-2.612s-6.858 2.505-7.028 2.612l-.47.296v5.077c-4.216 1.89-7.86 5.757-8.02 5.93l-.27.29v5.705c-2.374-.995-7.197-3.596-7.197-8.3 0-6.77 12.63-20.487 22.966-20.487 10.353 0 23.008 13.717 23.008 20.488 0 4.725-4.867 7.327-7.23 8.312z"/><path d="M28.93 21.34l-2.508-.364a.185.185 0 01-.137-.1l-1.12-2.272a.183.183 0 00-.328 0l-1.12 2.272a.192.192 0 01-.138.1l-2.508.364a.18.18 0 00-.1.31l1.813 1.77c.043.04.063.1.052.16l-.428 2.497c-.027.15.13.262.264.192l2.242-1.18a.183.183 0 01.17 0l2.242 1.18c.134.07.29-.044.265-.193l-.428-2.497a.18.18 0 01.052-.16l1.814-1.77a.181.181 0 00-.1-.31z"/></g></svg>
