<svg xmlns="http://www.w3.org/2000/svg" id="Layer_1" x="0" y="0" version="1.1" viewBox="0 0 50 50" xml:space="preserve"><style>.st2{fill:#031326}</style><path fill="#e589ef" d="M48.4 5.8V28L3.9 44.2H1.6V5.8z"/><path fill="#f799ff" d="M48.4 5.8v3.6L1.6 28.5V5.8z"/><path d="M26.2 45.4H.3V4.6h49.4V28c0 .7-.6 1.2-1.2 1.2s-1.2-.6-1.2-1.2V7.1H2.8V43h23.4c.7 0 1.2.6 1.2 1.2s-.5 1.2-1.2 1.2z" class="st2"/><path d="M29 26.3l-.3 1.4h1.2l.3-1.4H29zm0 0l-.3 1.4h1.2l.3-1.4H29zM4.2 12.9v28.3h41.5V12.9H4.2zM24 30.5c-.3.3-.6.5-.9.7-.3.2-.7.3-1.1.4-.4.1-.8.1-1.1.1-.7 0-1.3-.1-1.8-.4-.5-.3-1-.6-1.4-1.1-.4-.4-.7-.9-.9-1.5-.2-.6-.3-1.1-.3-1.7 0-.5.1-1.1.3-1.6.2-.5.5-1 .9-1.4.4-.4.9-.8 1.4-1 .6-.3 1.2-.4 1.9-.4.9 0 1.6.2 2.2.5.6.4 1.1.8 1.4 1.4L23 25.6c-.1-.2-.2-.4-.4-.6-.2-.2-.3-.3-.5-.4-.2-.1-.4-.2-.6-.2-.2 0-.4-.1-.6-.1-.4 0-.8.1-1 .2-.3.2-.5.4-.7.6-.2.2-.3.5-.4.9-.1.3-.1.6-.1 1s.1.7.2 1c.1.3.3.6.5.9.2.2.5.5.8.6.3.1.6.2 1 .2.2 0 .4 0 .6-.1.2 0 .4-.1.6-.2.2-.1.3-.2.5-.4s.3-.3.4-.6l1.7 1c-.6.5-.8.8-1 1.1zm9.7-4.2h-1.9l-.3 1.4h1.7v1.5h-2l-.6 2.3H29l.6-2.3h-1.2l-.6 2.3h-1.6l.6-2.3h-1.4v-1.5H27l.3-1.4h-1.5v-1.4h1.9l.6-2.4h1.6l-.6 2.4h1.2l.6-2.4h1.6l-.6 2.4h1.6v1.4zm-5.1 1.5h1.2l.3-1.4H29l-.4 1.4zM43.3 9.6l1.2 1.3-.2.2-1.2-1.3-1.3 1.3-.1-.2 1.2-1.3-1.2-1.2.1-.2 1.3 1.3 1.2-1.3.2.2z" class="st2"/></svg>