<svg xmlns="http://www.w3.org/2000/svg" version="1.0" viewBox="0 0 50 50"><path fill="#00C8E2" d="M46.663 25.776c.009-.258.02-.516.02-.776 0-11.975-9.708-21.683-21.683-21.683S3.317 13.025 3.317 25a21.603 21.603 0 005.582 14.521l37.764-13.745z"/><path fill="#00DFFC" d="M39.683 9.198a21.604 21.604 0 00-14.84-5.881c-11.106 0-20.257 8.353-21.527 19.117L39.683 9.198z"/><path fill="#031326" d="M25 47.779C12.44 47.779 2.221 37.561 2.221 25 2.221 12.44 12.44 2.221 25 2.221S47.779 12.44 47.779 25a1.096 1.096 0 01-2.192 0c0-11.352-9.235-20.587-20.586-20.587S4.413 13.648 4.413 25 13.649 45.587 25 45.587c2.001 0 3.978-.286 5.878-.851a1.095 1.095 0 11.625 2.101c-2.103.625-4.29.942-6.503.942z"/><path fill="#031326" d="M7.89 19.922l7.293 19.988A17.764 17.764 0 017.157 25c0-1.754.246-3.454.733-5.078m.013-2.524A18.345 18.345 0 006.28 25c0 7.392 4.297 13.792 10.547 16.857L7.903 17.398zm34.328 2.937c.404 1.508.612 3.079.612 4.665 0 5.439-2.531 10.58-6.742 13.942l4.835-13.995c.653-1.618 1.078-3.129 1.295-4.612m-.795-4.319c.06.601.12 1.232.09 1.923 0 1.893-.331 4.026-1.412 6.701l-5.709 16.526C39.964 37.921 43.72 31.911 43.72 25c0-3.245-.811-6.31-2.284-8.984zM25.353 29.28l4.677 12.854a18.681 18.681 0 01-5.03.709 18.23 18.23 0 01-4.151-.485l4.504-13.078m-.022-2.627l-5.619 16.316c1.683.481 3.456.751 5.288.751 2.193 0 4.267-.391 6.19-1.022-.03-.09-.09-.18-.12-.27l-5.739-15.775z"/><path fill="#031326" d="M24.97 7.157c3.878 0 7.609 1.251 10.679 3.552-1.36.678-2.301 2.128-2.301 3.804 0 1.646.835 3.006 1.719 4.447l.234.383c.734 1.253 1.412 2.693 1.412 4.725 0 .857-1.288 5.487-2.443 9.392l-5.496-16.439c.595-.051 1.018-.101 1.046-.104.911-.107 1.533-.838 1.48-1.738a1.626 1.626 0 00-1.772-1.539c-.03.002-3.022.238-4.919.238-1.777 0-4.829-.235-4.876-.239a2.01 2.01 0 00-.109-.003c-.912 0-1.62.695-1.647 1.616a1.6 1.6 0 001.501 1.668c.127.016.71.085 1.408.141l2.615 7.172-3.163 9.511-5.623-16.722a33.962 33.962 0 001.043-.105c.911-.107 1.533-.838 1.48-1.738a1.626 1.626 0 00-1.772-1.539c-.027.002-2.544.2-4.423.233A17.759 17.759 0 0124.97 7.157m0-.877c-6.52 0-12.29 3.365-15.625 8.443.451.03.841.03 1.202.03 1.953 0 4.988-.24 4.988-.24l.06-.002c.966 0 1.061 1.416.06 1.534 0 0-.992.12-2.133.18l6.821 20.282 4.086-12.29-2.915-7.993c-.992-.06-1.953-.18-1.953-.18-1.002-.059-.906-1.534.062-1.534l.058.002s3.095.24 4.928.24c1.953 0 4.988-.24 4.988-.24l.06-.002c.966 0 1.061 1.416.06 1.534 0 0-1.022.12-2.133.18l6.731 20.132s3.275-10.697 3.275-12.29c0-2.314-.811-3.936-1.532-5.168-.931-1.532-1.833-2.855-1.833-4.387 0-1.743 1.322-3.335 3.155-3.335.09 0 .15.03.24.03A18.646 18.646 0 0024.97 6.28z"/></svg>