<svg xmlns="http://www.w3.org/2000/svg" id="Layer_1" x="0" y="0" version="1.1" viewBox="0 0 50 50" xml:space="preserve"><style>.st2{fill:#444}</style><path fill="#afe55d" d="M46.7 25.8V25C46.7 13 37 3.3 25 3.3S3.3 13 3.3 25c0 5.6 2.1 10.7 5.6 14.5l37.8-13.7z"/><path fill="#c3ff68" d="M39.7 9.2c-3.9-3.6-9.1-5.9-14.8-5.9-11.1 0-20.3 8.4-21.5 19.1L39.7 9.2z"/><path d="M25 47.8C12.4 47.8 2.2 37.6 2.2 25S12.4 2.2 25 2.2 47.8 12.4 47.8 25c0 .6-.5 1.1-1.1 1.1s-1.1-.5-1.1-1.1c0-11.4-9.2-20.6-20.6-20.6S4.4 13.6 4.4 25 13.6 45.6 25 45.6c2 0 4-.3 5.9-.9.6-.2 1.2.2 1.4.7.2.6-.2 1.2-.7 1.4-2.2.7-4.4 1-6.6 1z" class="st2"/><path d="M7.9 19.9l7.3 20c-5-3.3-8-8.8-8-14.9 0-1.8.2-3.5.7-5.1m0-2.5c-1.1 2.3-1.6 4.9-1.6 7.6 0 7.4 4.3 13.8 10.5 16.9L7.9 17.4zm34.3 2.9c.4 1.5.6 3.1.6 4.7 0 5.4-2.5 10.6-6.7 13.9l4.8-14c.7-1.6 1.1-3.1 1.3-4.6m-.8-4.3c.1.6.1 1.2.1 1.9 0 1.9-.3 4-1.4 6.7l-5.7 16.5c5.6-3.2 9.3-9.3 9.3-16.2 0-3.1-.8-6.2-2.3-8.9zm-16 13.3L30 42.1c-1.7.5-3.4.7-5 .7-1.4 0-2.8-.2-4.2-.5l4.6-13m-.1-2.6L19.7 43c1.7.5 3.5.8 5.3.8 2.2 0 4.3-.4 6.2-1 0-.1-.1-.2-.1-.3l-5.8-15.8z" class="st2"/><path d="M25 7.2c3.9 0 7.6 1.3 10.7 3.6-1.4.7-2.3 2.1-2.3 3.8 0 1.6.8 3 1.7 4.4l.2.4c.7 1.3 1.4 2.7 1.4 4.7 0 .9-1.3 5.5-2.4 9.4L28.8 17c.6-.1 1-.1 1-.1.9-.1 1.5-.8 1.5-1.7-.1-.9-.8-1.5-1.6-1.5h-.1s-3 .2-4.9.2c-1.8 0-4.8-.2-4.9-.2h-.1c-.9 0-1.6.7-1.6 1.6s.6 1.6 1.5 1.7c.1 0 .7.1 1.4.1l2.6 7.2-3.2 9.5L14.7 17c.6-.1 1-.1 1-.1.9-.1 1.5-.8 1.5-1.7-.1-.9-.8-1.5-1.6-1.5h-.1s-2.5.2-4.4.2c3.3-4.3 8.4-6.7 13.9-6.7m0-.9c-6.5 0-12.3 3.4-15.6 8.4h1.2c2 0 5-.2 5-.2h.1c1 0 1.1 1.4.1 1.5 0 0-1 .1-2.1.2l6.8 20.3 4.1-12.3-2.9-8-2-.2c-1-.1-.9-1.5.1-1.5h.1s3.1.2 4.9.2c2 0 5-.2 5-.2h.1c1 0 1.1 1.4.1 1.5 0 0-1 .1-2.1.2l6.7 20.1s3.3-10.7 3.3-12.3c0-2.3-.8-3.9-1.5-5.2-.9-1.5-1.8-2.9-1.8-4.4 0-1.7 1.3-3.3 3.2-3.3h.2c-3.7-3-8.2-4.8-13-4.8z" class="st2"/></svg>