<svg xmlns="http://www.w3.org/2000/svg" id="Layer_1" x="0" y="0" version="1.1" viewBox="0 0 50 50" xml:space="preserve"><style>.st2{fill:#031326}</style><path fill="#9674ea" d="M45.8 25c0-3.5-2.2-6.5-5.2-7.7.6-1.1.9-2.3.9-3.6 0-2.7-1.4-5-3.5-6.3L7.6 18.5c-2.1 1.5-3.5 4-3.5 6.7 0 3.5 2.2 6.5 5.2 7.7-.6 1.1-.9 2.3-.9 3.6 0 2.6 1.3 4.8 3.3 6.2L43 31.3c1.6-1.5 2.8-3.7 2.8-6.3z"/><path fill="#b292f3" d="M34.2 6.3c-.3-2.3-2.3-4.1-4.6-4.1-2.4 0-4.3 1.7-4.6 4-.4-2.2-2.3-3.8-4.6-3.8-2.4 0-4.3 1.8-4.6 4.1-4.2.1-7.4 3.4-7.4 7.5 0 1.3.3 2.6 1 3.7-.6.2-1.2.6-1.7 1L38.1 7.5c-1.1-.7-2.4-1.1-3.9-1.2z"/><path d="M18.3 20.4c0 1.2 1 2.1 2.1 2.1s2.1-1 2.1-2.1c0-1-.7-1.8-1.6-2.1v-3c.9-.2 1.6-1.1 1.6-2.1 0-1.2-1-2.1-2.1-2.1s-2.1 1-2.1 2.1c0 1 .7 1.8 1.6 2.1v3c-.9.2-1.6 1.1-1.6 2.1zm1-7.1c0-.6.5-1.1 1.1-1.1.6 0 1.1.5 1.1 1.1 0 .6-.5 1.1-1.1 1.1-.6 0-1.1-.5-1.1-1.1zm1.2 5.9c.6 0 1.1.5 1.1 1.1 0 .6-.5 1.1-1.1 1.1-.6 0-1.1-.5-1.1-1.1-.1-.6.4-1.1 1.1-1.1zm-3.6 14v-2.5c0-.2-.1-.4-.3-.5L13.1 29v-.1c0-1-.7-1.8-1.6-2.1V24c.9-.2 1.6-1.1 1.6-2.1 0-1.2-1-2.1-2.1-2.1-1.2 0-2.1 1-2.1 2.1 0 1 .7 1.8 1.6 2.1v2.9c-.9.3-1.6 1.1-1.6 2.1 0 1.2 1 2.1 2.1 2.1.8 0 1.5-.5 1.9-1.1l3.1 1v2.2c-.9.2-1.6 1.1-1.6 2 0 1.2 1 2.1 2.1 2.1 1.2 0 2.1-1 2.1-2.1-.1-.9-.8-1.8-1.7-2zM9.8 22c0-.6.5-1.1 1.1-1.1.6 0 1.1.5 1.1 1.1 0 .6-.5 1.1-1.1 1.1-.6 0-1.1-.5-1.1-1.1zm1.2 8.1c-.6 0-1.1-.5-1.1-1.1 0-.6.5-1.1 1.1-1.1.6 0 1.1.5 1.1 1.1 0 .6-.5 1.1-1.1 1.1zm5.4 6.3c-.6 0-1.1-.5-1.1-1.1 0-.6.5-1.1 1.1-1.1.6 0 1.1.5 1.1 1.1.1.6-.5 1.1-1.1 1.1z" class="st2"/><path d="M23.5 28c0-1.2-1-2.1-2.1-2.1-.7 0-1.3.3-1.7.8L16 25.3v-6.7c.9-.2 1.6-1.1 1.6-2.1 0-1.2-1-2.1-2.1-2.1-1.2 0-2.1 1-2.1 2.1 0 1 .7 1.8 1.6 2.1v7.1c0 .2.1.4.3.5l3.9 1.5v.4c0 1 .7 1.8 1.6 2.1v5.6c-.9.2-1.6 1.1-1.6 2.1 0 1.2 1 2.1 2.1 2.1 1.2 0 2.1-1 2.1-2.1 0-1-.7-1.8-1.6-2.1V30c1-.2 1.7-1 1.7-2zm-9.1-11.5c0-.6.5-1.1 1.1-1.1.6 0 1.1.5 1.1 1.1 0 .6-.5 1.1-1.1 1.1-.6.1-1.1-.5-1.1-1.1zm8.1 21.2c0 .6-.5 1.1-1.1 1.1-.6 0-1.1-.5-1.1-1.1 0-.6.5-1.1 1.1-1.1.6-.1 1.1.4 1.1 1.1zm-1.1-8.6c-.6 0-1.1-.5-1.1-1.1 0-.6.5-1.1 1.1-1.1.6 0 1.1.5 1.1 1.1 0 .6-.5 1.1-1.1 1.1zm8.4-10.8v-3c.9-.2 1.6-1.1 1.6-2.1 0-1.2-1-2.1-2.1-2.1s-2.1 1-2.1 2.1c0 1 .7 1.8 1.6 2.1v3c-.9.2-1.6 1.1-1.6 2.1 0 1.2 1 2.1 2.1 2.1s2.1-1 2.1-2.1c0-1-.7-1.9-1.6-2.1zm-.5-3.9c-.6 0-1.1-.5-1.1-1.1 0-.6.5-1.1 1.1-1.1.6 0 1.1.5 1.1 1.1 0 .6-.5 1.1-1.1 1.1zm1.1 6c0 .6-.5 1.1-1.1 1.1-.6 0-1.1-.5-1.1-1.1 0-.6.5-1.1 1.1-1.1.6-.1 1.1.4 1.1 1.1zm.8 14.9c0 1.2 1 2.1 2.1 2.1 1.2 0 2.1-1 2.1-2.1 0-1-.7-1.8-1.6-2V31l3.1-1c.4.7 1.1 1.1 1.9 1.1 1.2 0 2.1-1 2.1-2.1 0-1-.7-1.8-1.6-2.1V24c.9-.2 1.6-1.1 1.6-2.1 0-1.2-1-2.1-2.1-2.1-1.2 0-2.1 1-2.1 2.1 0 1 .7 1.8 1.6 2.1v2.9c-.9.2-1.6 1.1-1.6 2.1v.1l-3.5 1.2c-.2.1-.3.3-.3.5v2.5c-1 .1-1.7 1-1.7 2zm7.6-12.2c-.6 0-1.1-.5-1.1-1.1 0-.6.5-1.1 1.1-1.1.6 0 1.1.5 1.1 1.1 0 .6-.5 1.1-1.1 1.1zM37.6 29c0-.6.5-1.1 1.1-1.1.6 0 1.1.5 1.1 1.1 0 .6-.5 1.1-1.1 1.1-.6 0-1.1-.5-1.1-1.1zm-5.4 6.3c0-.6.5-1.1 1.1-1.1.6 0 1.1.5 1.1 1.1 0 .6-.5 1.1-1.1 1.1-.6 0-1.1-.5-1.1-1.1z" class="st2"/><path d="M27.8 30v5.6c-.9.2-1.6 1.1-1.6 2.1 0 1.2 1 2.1 2.1 2.1 1.2 0 2.1-1 2.1-2.1 0-1-.7-1.8-1.6-2.1V30c.9-.2 1.6-1.1 1.6-2.1v-.4l3.9-1.5c.2-.1.3-.3.3-.5v-7.1c.9-.2 1.6-1.1 1.6-2.1 0-1.2-1-2.1-2.1-2.1-1.2 0-2.1 1-2.1 2.1 0 1 .7 1.8 1.6 2.1v6.7L30 26.7c-.4-.5-1-.8-1.7-.8-1.2 0-2.1 1-2.1 2.1 0 1 .7 1.8 1.6 2zm6.4-12.3c-.6 0-1.1-.5-1.1-1.1 0-.6.5-1.1 1.1-1.1.6 0 1.1.5 1.1 1.1 0 .5-.5 1.1-1.1 1.1zm-5.9 18.8c.6 0 1.1.5 1.1 1.1 0 .6-.5 1.1-1.1 1.1-.6 0-1.1-.5-1.1-1.1 0-.6.5-1.1 1.1-1.1zM27.2 28c0-.6.5-1.1 1.1-1.1.6 0 1.1.5 1.1 1.1 0 .6-.5 1.1-1.1 1.1-.6 0-1.1-.5-1.1-1.1z" class="st2"/><path d="M47.4 25c0-3.5-1.9-6.6-4.8-8.3.4-1 .6-2 .6-3.1 0-4.4-3.3-8.1-7.6-8.6-.8-2.4-3.1-4.1-5.7-4.1-2 0-3.8 1-4.9 2.5C23.9 1.9 22.1.9 20.1.9c-2.6 0-4.9 1.7-5.7 4.1-4.3.5-7.6 4.2-7.6 8.6 0 1 .2 2.1.6 3.1-3 1.7-4.8 4.8-4.8 8.3 0 3.5 1.9 6.6 4.8 8.3-.4 1-.6 2-.6 3.1 0 4.4 3.3 8.1 7.6 8.6.8 2.4 3 4.1 5.7 4.1 2 0 3.8-1 4.8-2.5 1.1 1.5 2.9 2.5 4.9 2.5 2.6 0 4.9-1.7 5.6-4.1 4.3-.5 7.6-4.2 7.6-8.6 0-1-.2-2.1-.6-3.1 3.1-1.7 5-4.8 5-8.3zM20.1 46.6c-1.7 0-3.2-1.3-3.4-3l-.1-1.1h-1.1c-3.4 0-6.1-2.8-6.1-6.2 0-1.1.3-2.1.8-3l.7-1.2-1.3-.5c-2.7-1.1-4.4-3.7-4.4-6.6 0-2.9 1.7-5.5 4.4-6.6l1.3-.5-.7-1.2c-.5-.9-.8-2-.8-3 0-3.4 2.7-6.2 6.1-6.2h1.1l.1-1.1c.2-1.7 1.7-3 3.4-3 1.9 0 3.4 1.5 3.4 3.4 0 .5.3.9.7 1.1v34.2c-.4.2-.7.6-.7 1.1.1 1.9-1.5 3.4-3.4 3.4zm20.4-15l-1.3.5.7 1.2c.5.9.8 2 .8 3 0 3.4-2.7 6.2-6.1 6.2h-1.1l-.1 1.1c-.2 1.7-1.7 3-3.4 3-1.9 0-3.4-1.6-3.4-3.4 0-.5-.3-.9-.7-1.1V7.9c.4-.2.7-.6.7-1.1 0-1.9 1.5-3.4 3.4-3.4 1.7 0 3.2 1.3 3.4 3l.1 1.1h1.1c3.4 0 6.1 2.8 6.1 6.2 0 1.1-.3 2.1-.8 3l-.7 1.2 1.3.5c2.7 1.1 4.4 3.7 4.4 6.6 0 2.9-1.8 5.5-4.4 6.6z" class="st2"/></svg>