<svg xmlns="http://www.w3.org/2000/svg" id="Layer_1" x="0" y="0" version="1.1" viewBox="0 0 50 50" xml:space="preserve"><style>.st2{fill:#031326}</style><path fill="#e56060" d="M48.1 25c0-7-3.1-13.3-8.1-17.5L2.2 21.3c-.2 1.2-.3 2.4-.3 3.7 0 6.5 2.7 12.3 7 16.5L48 27.3c.1-.8.1-1.5.1-2.3z"/><path fill="#ff6b6b" d="M25 1.9c-11.5 0-21 8.4-22.8 19.4L40.1 7.5C36 4 30.8 1.9 25 1.9z"/><path d="M25 49.4C11.6 49.4.6 38.4.6 25S11.6.6 25 .6s24.4 11 24.4 24.4c0 1.3-.1 2.6-.3 3.8-.1.7-.7 1.2-1.4 1-.7-.1-1.1-.7-1-1.4.2-1.1.3-2.3.3-3.5C47 12.8 37.2 3 25.1 3c-12.2.1-22 9.9-22 22S12.9 46.9 25 46.9c6 0 11.5-2.4 15.7-6.6.5-.5 1.3-.5 1.8 0s.5 1.3 0 1.8c-4.7 4.6-10.9 7.3-17.5 7.3z" class="st2"/><path d="M45.7 25c0-11.4-9.3-20.7-20.7-20.7-.3 0-.6.2-.7.5C13.5 5.3 4.8 14.1 4.8 25c0 11.1 9 20.2 20.2 20.2 10.9 0 19.7-8.7 20.1-19.5.3-.1.6-.4.6-.7zM25 44.7C14.2 44.7 5.3 35.8 5.3 25c0-10.6 8.4-19.3 19-19.6.1.3.4.5.7.5 10.6 0 19.2 8.6 19.2 19.2 0 .3.2.6.5.7-.4 10.4-9.1 18.9-19.7 18.9z" class="st2"/><path d="M25 45.7C13.6 45.7 4.3 36.4 4.3 25c0-.4.3-.8.8-.8s.8.3.8.8c0 10.6 8.6 19.2 19.2 19.2.4 0 .8.3.8.8s-.5.7-.9.7z" class="st2"/><path d="M36.3 27.9l-1.9-.4v-2.1l-1.5-.5-1.7-.5v-.5c0-1.1-.7-2-1.6-2.4v-.9l2.6-.9-.1-.2c.3-.1.7-.2 1.1-.4l-.2-1.3-.3-.9-.6-1.9.5-.5-.2-.2.2-.2.8-.7-.2-.3-1.9 1.7.4 1.6.5 2-.3.1-.8.2-.2.1-1.4.4c-.2-.6-.6-1.1-1.3-1.3v-1c0-.8-.7-1.5-1.5-1.5v-1.8c0 .5-.9 1.8-1.8 1.8s-1.8-1.3-1.8-1.8v1.8c-.8 0-1.5.7-1.5 1.5v1c-.6.2-1.1.7-1.3 1.3l-2.3-.7-.3-.1.5-2 .4-1.6-1.9-1.7-.2.3.8.7.2.2-.2.2.5.5-.5 1.9-.3.9-.3 1.2c.5.2.8.3 1.1.4l-.1.2 2.6.9v.9c-.9.4-1.6 1.3-1.6 2.4v.5l-1.7.5-1.5.5v2.1l-1.9.4.1.3 1.1-.2.1.3 1.4-.2.1-1.2v-.9l.3-.1.4-.1h.1l.1.2 1.3-.3v3.6c0 .6.1 1.2.3 1.7l-.2.2-.9.9v3.8l-1.1.9.2.3.7-.5.2-.2.2.2.5-.4.1-1.9.1-.9v-.8s.1 0 .1-.1l.1.2.8-.5c.8 1 2.1 1.7 3.5 1.7h3.6c1.4 0 2.7-.7 3.5-1.7l.8.5.1-.2c.1 0 .1.1.1.1v.8l.1.9.1 1.9.5.4.2-.2.2.2.7.5.2-.3-.9-.7-.2-.2V32l-1.1-.8-.2-.2c.2-.5.3-1.1.3-1.7v-3.6l1.3.3.1-.2h.1l.4.1.3.1v.9l.1 1.2 1.4.2.1-.3 1.1.2.2-.3z" class="st2"/></svg>