<svg xmlns="http://www.w3.org/2000/svg" viewBox="0 0 50 50"><path fill="#00c8e2" d="M47.7 25.8l.6 4.2L1.7 45.4l-.1-8.7.3-5.2 46.3-15.3-.7 3.6z"/><path fill="#00dffc" d="M47.3 9.6l-.4 7.6-45.4 15-.2-9.5.3-4.3L47.3 3.2z"/><path fill="none" stroke="#031326" stroke-linecap="round" stroke-linejoin="round" stroke-miterlimit="10" stroke-width="2.5" d="M23.9 47.5H1.8V2.1h46.4v27.8"/><path fill="#031326" d="M17.3 30.4c0-1.5-1.3-2.8-2.8-2.8s-2.8 1.3-2.8 2.8c0 1.5 1.3 2.8 2.8 2.8s2.8-1.3 2.8-2.8zm-2.8.9c-.5 0-.9-.4-.9-.9s.4-.9.9-.9.9.4.9.9-.4.9-.9.9zm23.4-.9c0-1.5-1.3-2.8-2.8-2.8-1.5 0-2.8 1.3-2.8 2.8 0 1.5 1.3 2.8 2.8 2.8 1.5 0 2.8-1.3 2.8-2.8zm-2.8.9c-.5 0-.9-.4-.9-.9s.4-.9.9-.9.9.4.9.9-.4.9-.9.9zm0 1.9c-1.5 0-2.9.6-4 1.7-.1.1-.2.2-.3.4-1-2.3-3.3-3.9-6-3.9s-5 1.6-6 3.9c-1.1-1.3-2.7-2-4.3-2-3.1 0-5.7 2.6-5.7 5.7v.9c0 .5.4.9.9.9h30c.5 0 .9-.4.9-.9V39c.1-3.2-2.4-5.8-5.5-5.8zm-24.4 5.7c0-2.1 1.7-3.8 3.8-3.8 2.1 0 3.7 1.7 3.7 3.8h-7.5zm18.8 0h-9.3v-1c0-2.6 2.1-4.7 4.7-4.7s4.7 2.1 4.7 4.7v1zm1.8 0c0-2.1 1.7-3.8 3.7-3.8 2.1 0 3.8 1.7 3.8 3.8h-7.5zm-2.8-11.3c0-2.1-1.7-3.7-3.7-3.7S21 25.5 21 27.6s1.7 3.7 3.7 3.7 3.8-1.7 3.8-3.7zm-3.7 1.8c-1 0-1.9-.8-1.9-1.9 0-1 .8-1.9 1.9-1.9 1 0 1.9.8 1.9 1.9 0 1.1-.9 1.9-1.9 1.9zm-9.4-3.7c2.3 0 4.2-1.7 4.6-3.8h12.2c1.5 0 2.8-1.3 2.8-2.8v-7.5c0-1.5-1.3-2.8-2.8-2.8H17.3c-1.5 0-2.8 1.3-2.8 2.8v13.1c0 .6.4 1 .9 1zm1-14.1c0-.5.4-.9.9-.9h14.9c.5 0 .9.4.9.9v7.5c0 .5-.4.9-.9.9h-13c-.5 0-.9.4-.9.9 0 1.2-.8 2.3-1.9 2.7v-12z"/><path fill="#031326" stroke="#031326" stroke-miterlimit="10" stroke-width=".4" d="M27.5 13.2c-.2-.2-.7-.2-.9 0l-2.2 2.2-.8-.8c-.2-.2-.7-.2-.9 0-.2.2-.2.7 0 .9l1.3 1.3c.1.1.3.2.5.2.1 0 .3-.1.5-.2l2.6-2.6c.2-.3.2-.8-.1-1z"/></svg>