<svg xmlns="http://www.w3.org/2000/svg" version="1" viewBox="0 0 50 50"><path fill="#AFE55D" d="M8.146 45.75a6.142 6.142 0 005.894-4.412c2.85 2.735 6.721 4.412 10.972 4.412s8.123-1.678 10.973-4.406c.189.643.482 1.243.858 1.78l11.156-4.061a6.144 6.144 0 00-7.555-5.429c.299-1.206.454-2.47.454-3.768 0-7.221-4.819-13.316-11.426-15.241A6.142 6.142 0 0025.014 4.25a6.142 6.142 0 00-4.458 10.375C13.95 16.549 9.13 22.645 9.13 29.866c0 1.298.155 2.562.453 3.768A6.147 6.147 0 002 39.609a6.143 6.143 0 006.146 6.141z"/><path fill="#C3FF68" d="M30.757 8.24a6.141 6.141 0 00-5.752-3.99 6.142 6.142 0 00-6.147 6.141c0 .719.13 1.407.358 2.049l11.541-4.2z"/><g fill="#031326"><path d="M29.778 28.959l-6.993-4.037a1.05 1.05 0 00-1.575.909v8.074a1.05 1.05 0 001.575.909l6.993-4.037c.7-.404.7-1.414 0-1.818z"/><path d="M25.012 20.673c-5.07 0-9.195 4.125-9.195 9.195s4.125 9.195 9.195 9.195 9.195-4.125 9.195-9.195-4.125-9.195-9.195-9.195zm0 18.14c-4.932 0-8.945-4.013-8.945-8.945s4.013-8.945 8.945-8.945c4.933 0 8.945 4.013 8.945 8.945 0 4.933-4.013 8.945-8.945 8.945z"/><path d="M41.986 32.213c.106-.772.16-1.557.16-2.347 0-6.978-4.312-13.271-10.676-15.866a7.372 7.372 0 00.938-3.609C32.409 6.315 29.091 3 25.012 3s-7.397 3.315-7.397 7.391c0 1.279.326 2.516.938 3.609-6.364 2.595-10.675 8.888-10.675 15.866 0 .79.054 1.574.16 2.347-4.029.058-7.29 3.354-7.29 7.396C.749 43.685 4.067 47 8.146 47c2.631 0 5.039-1.422 6.351-3.613A17.008 17.008 0 0025.012 47c3.845 0 7.519-1.271 10.515-3.61C36.84 45.579 39.248 47 41.878 47a1.25 1.25 0 000-2.5 4.915 4.915 0 01-4.694-3.509l-.407-1.387a5.415 5.415 0 011.582-3.403 5.553 5.553 0 011.813-1.213l.573-.142c.36-.089.742-.135 1.134-.135 2.515 0 4.657 1.959 4.878 4.46a1.25 1.25 0 102.49-.218 7.353 7.353 0 00-7.261-6.74zM25.012 5.5a4.899 4.899 0 014.897 4.891c0 1.26-.479 2.458-1.347 3.374l-.504.531a5.478 5.478 0 01-3.047.904c-1.142 0-2.18-.33-3.046-.903l-.505-.532a4.886 4.886 0 01-1.346-3.374A4.901 4.901 0 0125.012 5.5zM3.249 39.609c0-2.7 2.197-4.897 4.897-4.897.393 0 .774.045 1.134.135l.432.107a5.565 5.565 0 011.824 1.218 5.412 5.412 0 011.609 3.773l-.305 1.041A4.915 4.915 0 018.146 44.5a4.899 4.899 0 01-4.897-4.891zm34.756-3.761a5.947 5.947 0 00-1.726 3.483L35.12 40.44a14.549 14.549 0 01-10.108 4.06 14.528 14.528 0 01-10.107-4.064L13.6 39.184a5.954 5.954 0 00-1.711-3.365 6.298 6.298 0 00-.611-.53l-.483-1.955a14.44 14.44 0 01-.417-3.468c0-6.462 4.329-12.236 10.526-14.041l1.872-.545c.687.269 1.437.42 2.236.42.799 0 1.549-.152 2.236-.42l1.872.545c6.198 1.805 10.526 7.579 10.526 14.041 0 1.183-.141 2.349-.417 3.467l-.465 1.875c-.263.191-.519.4-.759.64z"/></g></svg>